<?xml version="1.0" encoding="UTF-8" standalone="no"?>
<!DOCTYPE svg PUBLIC "-//W3C//DTD SVG 1.1//EN"
 "http://www.w3.org/Graphics/SVG/1.1/DTD/svg11.dtd">
<!-- Generated by graphviz version 2.40.1 (20161225.0304)
 -->
<!-- Title: FormatHandling::FormatManager::splitAlignmentKeeping Pages: 1 -->
<svg width="450pt" height="78pt"
 viewBox="0.00 0.00 450.00 77.50" xmlns="http://www.w3.org/2000/svg" xmlns:xlink="http://www.w3.org/1999/xlink">
<g id="graph0" class="graph" transform="scale(1 1) rotate(0) translate(4 73.5)">
<title>FormatHandling::FormatManager::splitAlignmentKeeping</title>
<polygon fill="#ffffff" stroke="transparent" points="-4,4 -4,-73.5 446,-73.5 446,4 -4,4"/>
<!-- Node167 -->
<g id="node1" class="node">
<title>Node167</title>
<polygon fill="#bfbfbf" stroke="#000000" points="0,-22.5 0,-52.5 160,-52.5 160,-22.5 0,-22.5"/>
<text text-anchor="start" x="8" y="-40.5" font-family="Helvetica,sans-Serif" font-size="10.00" fill="#000000">FormatHandling::FormatManager</text>
<text text-anchor="middle" x="80" y="-29.5" font-family="Helvetica,sans-Serif" font-size="10.00" fill="#000000">::splitAlignmentKeeping</text>
</g>
<!-- Node168 -->
<g id="node2" class="node">
<title>Node168</title>
<g id="a_node2"><a xlink:href="class_alignment.html#a091e21f0cfb741cb5cdc3535c6cc287f" target="_top" xlink:title="Constructor. ">
<polygon fill="#ffffff" stroke="#000000" points="196,-28 196,-47 306,-47 306,-28 196,-28"/>
<text text-anchor="middle" x="251" y="-35" font-family="Helvetica,sans-Serif" font-size="10.00" fill="#000000">Alignment::Alignment</text>
</a>
</g>
</g>
<!-- Node167&#45;&gt;Node168 -->
<g id="edge1" class="edge">
<title>Node167&#45;&gt;Node168</title>
<path fill="none" stroke="#191970" d="M160.2427,-37.5C168.6625,-37.5 177.1506,-37.5 185.3787,-37.5"/>
<polygon fill="#191970" stroke="#191970" points="185.6372,-41.0001 195.6371,-37.5 185.6371,-34.0001 185.6372,-41.0001"/>
</g>
<!-- Node169 -->
<g id="node3" class="node">
<title>Node169</title>
<g id="a_node3"><a xlink:href="class_cleaner.html#a3d3f55edb6c9e43890b68c8fcb50a22a" target="_top" xlink:title="Class Constructor &#45; Called by Alignment. ">
<polygon fill="#ffffff" stroke="#000000" points="347,-50 347,-69 437,-69 437,-50 347,-50"/>
<text text-anchor="middle" x="392" y="-57" font-family="Helvetica,sans-Serif" font-size="10.00" fill="#000000">Cleaner::Cleaner</text>
</a>
</g>
</g>
<!-- Node168&#45;&gt;Node169 -->
<g id="edge2" class="edge">
<title>Node168&#45;&gt;Node169</title>
<path fill="none" stroke="#191970" d="M306.3222,-46.1318C316.3906,-47.7028 326.8926,-49.3414 336.9529,-50.9111"/>
<polygon fill="#191970" stroke="#191970" points="336.4137,-54.3692 346.8337,-52.4528 337.4929,-47.4529 336.4137,-54.3692"/>
</g>
<!-- Node170 -->
<g id="node4" class="node">
<title>Node170</title>
<g id="a_node4"><a xlink:href="classstatistics_1_1_manager.html#ac619aa6ba573f1c212331a18875e8adf" target="_top" xlink:title="statistics::Manager\l::Manager">
<polygon fill="#ffffff" stroke="#000000" points="342,-.5 342,-30.5 442,-30.5 442,-.5 342,-.5"/>
<text text-anchor="start" x="350" y="-18.5" font-family="Helvetica,sans-Serif" font-size="10.00" fill="#000000">statistics::Manager</text>
<text text-anchor="middle" x="392" y="-7.5" font-family="Helvetica,sans-Serif" font-size="10.00" fill="#000000">::Manager</text>
</a>
</g>
</g>
<!-- Node168&#45;&gt;Node170 -->
<g id="edge3" class="edge">
<title>Node168&#45;&gt;Node170</title>
<path fill="none" stroke="#191970" d="M306.3222,-28.8682C314.6595,-27.5673 323.2941,-26.2201 331.729,-24.904"/>
<polygon fill="#191970" stroke="#191970" points="332.5446,-28.3192 341.8855,-23.3193 331.4654,-21.4028 332.5446,-28.3192"/>
</g>
</g>
</svg>
