<?xml version="1.0" encoding="UTF-8" standalone="no"?>
<!DOCTYPE svg PUBLIC "-//W3C//DTD SVG 1.1//EN"
 "http://www.w3.org/Graphics/SVG/1.1/DTD/svg11.dtd">
<!-- Generated by graphviz version 2.40.1 (20161225.0304)
 -->
<!-- Title: statistics::Gaps::getGapsWindow Pages: 1 -->
<svg width="1822pt" height="666pt"
 viewBox="0.00 0.00 1822.00 665.50" xmlns="http://www.w3.org/2000/svg" xmlns:xlink="http://www.w3.org/1999/xlink">
<g id="graph0" class="graph" transform="scale(1 1) rotate(0) translate(4 661.5)">
<title>statistics::Gaps::getGapsWindow</title>
<polygon fill="#ffffff" stroke="transparent" points="-4,4 -4,-661.5 1818,-661.5 1818,4 -4,4"/>
<!-- Node167 -->
<g id="node1" class="node">
<title>Node167</title>
<polygon fill="#bfbfbf" stroke="#000000" points="0,-177.5 0,-207.5 128,-207.5 128,-177.5 0,-177.5"/>
<text text-anchor="start" x="8" y="-195.5" font-family="Helvetica,sans-Serif" font-size="10.00" fill="#000000">statistics::Gaps::getGaps</text>
<text text-anchor="middle" x="64" y="-184.5" font-family="Helvetica,sans-Serif" font-size="10.00" fill="#000000">Window</text>
</g>
<!-- Node168 -->
<g id="node2" class="node">
<title>Node168</title>
<g id="a_node2"><a xlink:href="class_alignment.html#a3754dfadea173918f5e85b9eb4c3ad8a" target="_top" xlink:title="Method to report the trimming results in HTML. Outputs an HTML file that shows visually what has been...">
<polygon fill="#ffffff" stroke="#000000" points="681,-638 681,-657 858,-657 858,-638 681,-638"/>
<text text-anchor="middle" x="769.5" y="-645" font-family="Helvetica,sans-Serif" font-size="10.00" fill="#000000">Alignment::alignmentSummaryHTML</text>
</a>
</g>
</g>
<!-- Node167&#45;&gt;Node168 -->
<g id="edge1" class="edge">
<title>Node167&#45;&gt;Node168</title>
<path fill="none" stroke="#191970" d="M67.8704,-217.739C76.6427,-267.2357 102.2797,-378.1617 164,-446.5 299.1154,-596.1034 548.1528,-634.5813 680.8376,-644.326"/>
<polygon fill="#191970" stroke="#191970" points="71.2761,-216.8862 66.1612,-207.6078 64.3736,-218.0507 71.2761,-216.8862"/>
</g>
<!-- Node173 -->
<g id="node7" class="node">
<title>Node173</title>
<g id="a_node7"><a xlink:href="class_alignment.html#ac4196c026e0f482eaccf9976f82f72e3" target="_top" xlink:title="Method to report the trimming results in SVG. Outputs a SVG file that shows visually what has been do...">
<polygon fill="#ffffff" stroke="#000000" points="684,-600 684,-619 855,-619 855,-600 684,-600"/>
<text text-anchor="middle" x="769.5" y="-607" font-family="Helvetica,sans-Serif" font-size="10.00" fill="#000000">Alignment::alignmentSummarySVG</text>
</a>
</g>
</g>
<!-- Node167&#45;&gt;Node173 -->
<g id="edge6" class="edge">
<title>Node167&#45;&gt;Node173</title>
<path fill="none" stroke="#191970" d="M71.4465,-217.1217C84.4583,-256.5358 114.7402,-334.2558 164,-382.5 311.4798,-526.9393 559.4788,-580.9974 687.514,-599.9928"/>
<polygon fill="#191970" stroke="#191970" points="74.755,-215.9768 68.3707,-207.5215 68.0887,-218.1125 74.755,-215.9768"/>
</g>
<!-- Node174 -->
<g id="node8" class="node">
<title>Node174</title>
<g id="a_node8"><a xlink:href="classstatistics_1_1_similarity.html#ae69ec0e79912ae23c8cfe97358c4794d" target="_top" xlink:title="Method to calculate the similarity values of a alignment matrix. ">
<polygon fill="#ffffff" stroke="#000000" points="185.5,-283.5 185.5,-313.5 288.5,-313.5 288.5,-283.5 185.5,-283.5"/>
<text text-anchor="start" x="193.5" y="-301.5" font-family="Helvetica,sans-Serif" font-size="10.00" fill="#000000">statistics::Similarity</text>
<text text-anchor="middle" x="237" y="-290.5" font-family="Helvetica,sans-Serif" font-size="10.00" fill="#000000">::calculateVectors</text>
</a>
</g>
</g>
<!-- Node167&#45;&gt;Node174 -->
<g id="edge8" class="edge">
<title>Node167&#45;&gt;Node174</title>
<path fill="none" stroke="#191970" d="M97.3539,-212.9365C130.9766,-233.5377 182.0911,-264.8564 212.2593,-283.341"/>
<polygon fill="#191970" stroke="#191970" points="99.142,-209.9274 88.7867,-207.6872 95.4848,-215.8961 99.142,-209.9274"/>
</g>
<!-- Node179 -->
<g id="node13" class="node">
<title>Node179</title>
<g id="a_node13"><a xlink:href="class_cleaner.html#a4718e31c0183b5a98751d77479faacf0" target="_top" xlink:title="Method to trim an alignment based on the similarity and gaps distribution values. ...">
<polygon fill="#ffffff" stroke="#000000" points="940.5,-360 940.5,-379 1020.5,-379 1020.5,-360 940.5,-360"/>
<text text-anchor="middle" x="980.5" y="-367" font-family="Helvetica,sans-Serif" font-size="10.00" fill="#000000">Cleaner::clean</text>
</a>
</g>
</g>
<!-- Node167&#45;&gt;Node179 -->
<g id="edge38" class="edge">
<title>Node167&#45;&gt;Node179</title>
<path fill="none" stroke="#191970" d="M138.6004,-185.9656C207.8389,-180.4689 313.8024,-173.5 406,-173.5 406,-173.5 406,-173.5 573.5,-173.5 636.8631,-173.5 808.8769,-152.4775 858,-192.5 904.4788,-230.3681 856.6948,-275.5682 894,-322.5 908.2507,-340.4281 931.2826,-352.4651 949.9983,-359.8662"/>
<polygon fill="#191970" stroke="#191970" points="137.9218,-182.5088 128.2346,-186.7994 138.483,-189.4863 137.9218,-182.5088"/>
</g>
<!-- Node180 -->
<g id="node14" class="node">
<title>Node180</title>
<g id="a_node14"><a xlink:href="class_cleaner.html#a6727a235afa29f08a50716f28fa5c8fc" target="_top" xlink:title="Method to clean an alignment. It carries out strict and strictplus. The method: ">
<polygon fill="#ffffff" stroke="#000000" points="698,-202 698,-221 841,-221 841,-202 698,-202"/>
<text text-anchor="middle" x="769.5" y="-209" font-family="Helvetica,sans-Serif" font-size="10.00" fill="#000000">Cleaner::cleanCombMethods</text>
</a>
</g>
</g>
<!-- Node167&#45;&gt;Node180 -->
<g id="edge41" class="edge">
<title>Node167&#45;&gt;Node180</title>
<path fill="none" stroke="#191970" d="M138.5181,-194.5069C275.0065,-198.1827 563.4222,-205.9501 697.7934,-209.5689"/>
<polygon fill="#191970" stroke="#191970" points="138.256,-190.9986 128.1654,-194.2281 138.0675,-197.9961 138.256,-190.9986"/>
</g>
<!-- Node187 -->
<g id="node21" class="node">
<title>Node187</title>
<g id="a_node21"><a xlink:href="class_alignment.html#a724218d5e7d168974d9abcafcde632a1" target="_top" xlink:title="Alignment::statSVG">
<polygon fill="#ffffff" stroke="#000000" points="717.5,-562 717.5,-581 821.5,-581 821.5,-562 717.5,-562"/>
<text text-anchor="middle" x="769.5" y="-569" font-family="Helvetica,sans-Serif" font-size="10.00" fill="#000000">Alignment::statSVG</text>
</a>
</g>
</g>
<!-- Node167&#45;&gt;Node187 -->
<g id="edge52" class="edge">
<title>Node167&#45;&gt;Node187</title>
<path fill="none" stroke="#191970" d="M77.5072,-216.6878C94.5232,-245.3421 126.1619,-293.0244 164,-323.5 342.046,-466.9019 614.3583,-538.1031 722.692,-561.9992"/>
<polygon fill="#191970" stroke="#191970" points="80.3629,-214.6361 72.3093,-207.752 74.3121,-218.1558 80.3629,-214.6361"/>
</g>
<!-- Node190 -->
<g id="node24" class="node">
<title>Node190</title>
<g id="a_node24"><a xlink:href="class_cleaner.html#aa57106470d2104a925b9396b8a9f33b3" target="_top" xlink:title="Method that carries the gappyout approach. This methods calculates the slope in gaps distribution on ...">
<polygon fill="#ffffff" stroke="#000000" points="346,-88 346,-107 466,-107 466,-88 346,-88"/>
<text text-anchor="middle" x="406" y="-95" font-family="Helvetica,sans-Serif" font-size="10.00" fill="#000000">Cleaner::clean2ndSlope</text>
</a>
</g>
</g>
<!-- Node167&#45;&gt;Node190 -->
<g id="edge39" class="edge">
<title>Node167&#45;&gt;Node190</title>
<path fill="none" stroke="#191970" d="M87.3476,-170.5168C106.4058,-153.9942 134.8611,-132.4057 164,-121.5 223.1143,-99.3755 295.7161,-94.9068 345.8922,-95.0178"/>
<polygon fill="#191970" stroke="#191970" points="84.9303,-167.9827 79.7806,-177.2418 89.5804,-173.215 84.9303,-167.9827"/>
</g>
<!-- Node191 -->
<g id="node25" class="node">
<title>Node191</title>
<g id="a_node25"><a xlink:href="class_cleaner.html#af7c9e1a177424168fa4214aca9ebd8e2" target="_top" xlink:title="Method to trim an alignment based on the gap distribution values. Column blocks that don&#39;t have a min...">
<polygon fill="#ffffff" stroke="#000000" points="718,-126 718,-145 821,-145 821,-126 718,-126"/>
<text text-anchor="middle" x="769.5" y="-133" font-family="Helvetica,sans-Serif" font-size="10.00" fill="#000000">Cleaner::cleanGaps</text>
</a>
</g>
</g>
<!-- Node167&#45;&gt;Node191 -->
<g id="edge42" class="edge">
<title>Node167&#45;&gt;Node191</title>
<path fill="none" stroke="#191970" d="M110.7872,-174.0658C127.3384,-168.3506 146.2552,-162.714 164,-159.5 366.3811,-122.8439 612.7811,-128.1776 717.9404,-132.7459"/>
<polygon fill="#191970" stroke="#191970" points="109.5929,-170.7756 101.3422,-177.4221 111.9369,-177.3716 109.5929,-170.7756"/>
</g>
<!-- Node192 -->
<g id="node26" class="node">
<title>Node192</title>
<g id="a_node26"><a xlink:href="class_cleaner.html#a3af7bde2142886d6d723c95694b7b9ba" target="_top" xlink:title="Method to remove columns composed only by gaps This method is specially useful when we remove missali...">
<polygon fill="#ffffff" stroke="#000000" points="706,-50 706,-69 833,-69 833,-50 706,-50"/>
<text text-anchor="middle" x="769.5" y="-57" font-family="Helvetica,sans-Serif" font-size="10.00" fill="#000000">Cleaner::cleanNoAllGaps</text>
</a>
</g>
</g>
<!-- Node167&#45;&gt;Node192 -->
<g id="edge45" class="edge">
<title>Node167&#45;&gt;Node192</title>
<path fill="none" stroke="#191970" d="M79.6131,-169.1107C97.0477,-145.1843 127.6445,-109.2211 164,-92.5 258.9287,-48.839 570.6889,-53.046 705.9483,-57.1386"/>
<polygon fill="#191970" stroke="#191970" points="76.7206,-167.1391 73.799,-177.3231 82.4338,-171.1838 76.7206,-167.1391"/>
</g>
<!-- Node194 -->
<g id="node28" class="node">
<title>Node194</title>
<g id="a_node28"><a xlink:href="class_cleaner.html#ab7f5b746b97697181f4cd06063cbb49a" target="_top" xlink:title="Method to detect right and left borders. Borders are the first column found with no gaps...">
<polygon fill="#ffffff" stroke="#000000" points="164,-9 164,-28 310,-28 310,-9 164,-9"/>
<text text-anchor="middle" x="237" y="-16" font-family="Helvetica,sans-Serif" font-size="10.00" fill="#000000">Cleaner::removeOnlyTerminal</text>
</a>
</g>
</g>
<!-- Node167&#45;&gt;Node194 -->
<g id="edge49" class="edge">
<title>Node167&#45;&gt;Node194</title>
<path fill="none" stroke="#191970" d="M74.707,-168.1087C90.0587,-135.7793 121.2581,-78.9364 164,-45.5 173.7915,-37.8402 185.9734,-32.1988 197.5629,-28.1144"/>
<polygon fill="#191970" stroke="#191970" points="71.4764,-166.7563 70.4563,-177.3019 77.83,-169.6942 71.4764,-166.7563"/>
</g>
<!-- Node169 -->
<g id="node3" class="node">
<title>Node169</title>
<g id="a_node3"><a xlink:href="classtrim_al_manager.html#a1da8f8b677f19ed8f7e08a663d97bb92" target="_top" xlink:title="trimAlManager::output\l_reports">
<polygon fill="#ffffff" stroke="#000000" points="924,-594.5 924,-624.5 1037,-624.5 1037,-594.5 924,-594.5"/>
<text text-anchor="start" x="932" y="-612.5" font-family="Helvetica,sans-Serif" font-size="10.00" fill="#000000">trimAlManager::output</text>
<text text-anchor="middle" x="980.5" y="-601.5" font-family="Helvetica,sans-Serif" font-size="10.00" fill="#000000">_reports</text>
</a>
</g>
</g>
<!-- Node168&#45;&gt;Node169 -->
<g id="edge2" class="edge">
<title>Node168&#45;&gt;Node169</title>
<path fill="none" stroke="#191970" d="M832.4949,-636.1549C861.4896,-630.9331 895.6277,-624.7851 923.8068,-619.7101"/>
<polygon fill="#191970" stroke="#191970" points="831.6931,-632.7429 822.4719,-637.96 832.9339,-639.6321 831.6931,-632.7429"/>
</g>
<!-- Node170 -->
<g id="node4" class="node">
<title>Node170</title>
<g id="a_node4"><a xlink:href="classtrim_al_manager.html#a7c641a1feff33d401b4ea5c82e989289" target="_top" xlink:title="trimAlManager::innerPerform">
<polygon fill="#ffffff" stroke="#000000" points="1444,-288 1444,-307 1585,-307 1585,-288 1444,-288"/>
<text text-anchor="middle" x="1514.5" y="-295" font-family="Helvetica,sans-Serif" font-size="10.00" fill="#000000">trimAlManager::innerPerform</text>
</a>
</g>
</g>
<!-- Node169&#45;&gt;Node170 -->
<g id="edge3" class="edge">
<title>Node169&#45;&gt;Node170</title>
<path fill="none" stroke="#191970" d="M1047.4405,-603.1212C1137.8736,-591.4697 1300.1427,-559.5133 1408,-474.5 1467.711,-427.4357 1501.5624,-336.9366 1511.4349,-307.2179"/>
<polygon fill="#191970" stroke="#191970" points="1046.8041,-599.6733 1037.312,-604.3797 1047.6673,-606.6199 1046.8041,-599.6733"/>
</g>
<!-- Node171 -->
<g id="node5" class="node">
<title>Node171</title>
<g id="a_node5"><a xlink:href="classtrim_al_manager.html#abe8d2841455c644dc9c7d1294b82b00f" target="_top" xlink:title="Method to perform the analysis if all checks have passed. ">
<polygon fill="#ffffff" stroke="#000000" points="1621,-288 1621,-307 1740,-307 1740,-288 1621,-288"/>
<text text-anchor="middle" x="1680.5" y="-295" font-family="Helvetica,sans-Serif" font-size="10.00" fill="#000000">trimAlManager::perform</text>
</a>
</g>
</g>
<!-- Node170&#45;&gt;Node171 -->
<g id="edge4" class="edge">
<title>Node170&#45;&gt;Node171</title>
<path fill="none" stroke="#191970" d="M1595.4012,-297.5C1603.9677,-297.5 1612.564,-297.5 1620.8249,-297.5"/>
<polygon fill="#191970" stroke="#191970" points="1595.3805,-294.0001 1585.3804,-297.5 1595.3804,-301.0001 1595.3805,-294.0001"/>
</g>
<!-- Node172 -->
<g id="node6" class="node">
<title>Node172</title>
<g id="a_node6"><a xlink:href="trim_al_main_8cpp.html#a0ddf1224851353fc92bfbff6f499fa97" target="_top" xlink:title="main">
<polygon fill="#ffffff" stroke="#000000" points="1776,-288 1776,-307 1814,-307 1814,-288 1776,-288"/>
<text text-anchor="middle" x="1795" y="-295" font-family="Helvetica,sans-Serif" font-size="10.00" fill="#000000">main</text>
</a>
</g>
</g>
<!-- Node171&#45;&gt;Node172 -->
<g id="edge5" class="edge">
<title>Node171&#45;&gt;Node172</title>
<path fill="none" stroke="#191970" d="M1750.3198,-297.5C1759.6177,-297.5 1768.4503,-297.5 1775.7697,-297.5"/>
<polygon fill="#191970" stroke="#191970" points="1750.0976,-294.0001 1740.0976,-297.5 1750.0975,-301.0001 1750.0976,-294.0001"/>
</g>
<!-- Node173&#45;&gt;Node169 -->
<g id="edge7" class="edge">
<title>Node173&#45;&gt;Node169</title>
<path fill="none" stroke="#191970" d="M865.1422,-609.5C885.2269,-609.5 905.7923,-609.5 923.8925,-609.5"/>
<polygon fill="#191970" stroke="#191970" points="865.0176,-606.0001 855.0176,-609.5 865.0176,-613.0001 865.0176,-606.0001"/>
</g>
<!-- Node175 -->
<g id="node9" class="node">
<title>Node175</title>
<g id="a_node9"><a xlink:href="classstatistics_1_1_manager.html#a92505ca5aedc5b45c4300a0e8a7d1e17" target="_top" xlink:title="Method to handle similarity stat calculation It checks if the similarity submodule has been created...">
<polygon fill="#ffffff" stroke="#000000" points="502,-305.5 502,-335.5 645,-335.5 645,-305.5 502,-305.5"/>
<text text-anchor="start" x="510" y="-323.5" font-family="Helvetica,sans-Serif" font-size="10.00" fill="#000000">statistics::Manager</text>
<text text-anchor="middle" x="573.5" y="-312.5" font-family="Helvetica,sans-Serif" font-size="10.00" fill="#000000">::calculateConservationStats</text>
</a>
</g>
</g>
<!-- Node174&#45;&gt;Node175 -->
<g id="edge9" class="edge">
<title>Node174&#45;&gt;Node175</title>
<path fill="none" stroke="#191970" d="M298.8619,-302.5445C356.2413,-306.2959 441.6131,-311.8774 501.9142,-315.8198"/>
<polygon fill="#191970" stroke="#191970" points="299.0477,-299.0492 288.8407,-301.8893 298.591,-306.0343 299.0477,-299.0492"/>
</g>
<!-- Node185 -->
<g id="node19" class="node">
<title>Node185</title>
<g id="a_node19"><a xlink:href="classstatistics_1_1_similarity.html#adcb5627b9704850e85433fc40c19db17" target="_top" xlink:title="Allows us compute the conservationWindow&#39;s values. ">
<polygon fill="#ffffff" stroke="#000000" points="354.5,-327.5 354.5,-357.5 457.5,-357.5 457.5,-327.5 354.5,-327.5"/>
<text text-anchor="start" x="362.5" y="-345.5" font-family="Helvetica,sans-Serif" font-size="10.00" fill="#000000">statistics::Similarity</text>
<text text-anchor="middle" x="406" y="-334.5" font-family="Helvetica,sans-Serif" font-size="10.00" fill="#000000">::applyWindow</text>
</a>
</g>
</g>
<!-- Node174&#45;&gt;Node185 -->
<g id="edge24" class="edge">
<title>Node174&#45;&gt;Node185</title>
<path fill="none" stroke="#191970" d="M298.3604,-314.4755C316.7449,-319.262 336.7128,-324.4607 354.4013,-329.066"/>
<polygon fill="#191970" stroke="#191970" points="299.1831,-311.0731 288.6239,-311.9405 297.4194,-317.8473 299.1831,-311.0731"/>
</g>
<!-- Node176 -->
<g id="node10" class="node">
<title>Node176</title>
<g id="a_node10"><a xlink:href="class_cleaner.html#a9cdbd6ebf78a284dd065b31319795b0c" target="_top" xlink:title="Method to trim an alignment based on the similarity distribution values. ">
<polygon fill="#ffffff" stroke="#000000" points="912,-464 912,-483 1049,-483 1049,-464 912,-464"/>
<text text-anchor="middle" x="980.5" y="-471" font-family="Helvetica,sans-Serif" font-size="10.00" fill="#000000">Cleaner::cleanConservation</text>
</a>
</g>
</g>
<!-- Node175&#45;&gt;Node176 -->
<g id="edge10" class="edge">
<title>Node175&#45;&gt;Node176</title>
<path fill="none" stroke="#191970" d="M588.2523,-344.4239C614.3286,-386.3131 667.1265,-469.2117 681,-476.5 768.6939,-522.5688 891.7213,-498.413 948.936,-483.0362"/>
<polygon fill="#191970" stroke="#191970" points="591.0693,-342.3255 582.8227,-335.6738 585.1213,-346.0163 591.0693,-342.3255"/>
</g>
<!-- Node175&#45;&gt;Node179 -->
<g id="edge14" class="edge">
<title>Node175&#45;&gt;Node179</title>
<path fill="none" stroke="#191970" d="M629.3354,-338.4638C645.814,-343.1151 663.9927,-347.62 681,-350.5 772.9518,-366.0712 882.7423,-369.1563 940.4694,-369.6034"/>
<polygon fill="#191970" stroke="#191970" points="629.8995,-334.9833 619.3205,-335.562 627.9514,-341.7068 629.8995,-334.9833"/>
</g>
<!-- Node175&#45;&gt;Node180 -->
<g id="edge16" class="edge">
<title>Node175&#45;&gt;Node180</title>
<path fill="none" stroke="#191970" d="M593.9091,-298.0342C614.0297,-277.2999 646.672,-247.2626 681,-230.5 688.9078,-226.6386 697.5908,-223.5573 706.3314,-221.0997"/>
<polygon fill="#191970" stroke="#191970" points="591.186,-295.8189 586.8333,-305.4783 596.2597,-300.6415 591.186,-295.8189"/>
</g>
<!-- Node182 -->
<g id="node16" class="node">
<title>Node182</title>
<g id="a_node16"><a xlink:href="classstatistics_1_1_manager.html#a080c687f8f355900511485eeec32a659" target="_top" xlink:title="Wrapper to Statistics::Similarity::printConservationAcl() It calls to calculateConservationStats() to...">
<polygon fill="#ffffff" stroke="#000000" points="699.5,-300 699.5,-341 839.5,-341 839.5,-300 699.5,-300"/>
<text text-anchor="start" x="707.5" y="-329" font-family="Helvetica,sans-Serif" font-size="10.00" fill="#000000">statistics::Manager</text>
<text text-anchor="start" x="707.5" y="-318" font-family="Helvetica,sans-Serif" font-size="10.00" fill="#000000">::printStatisticsConservation</text>
<text text-anchor="middle" x="769.5" y="-307" font-family="Helvetica,sans-Serif" font-size="10.00" fill="#000000">Columns</text>
</a>
</g>
</g>
<!-- Node175&#45;&gt;Node182 -->
<g id="edge19" class="edge">
<title>Node175&#45;&gt;Node182</title>
<path fill="none" stroke="#191970" d="M655.1718,-320.5C669.8717,-320.5 685.0759,-320.5 699.4109,-320.5"/>
<polygon fill="#191970" stroke="#191970" points="655.0925,-317.0001 645.0925,-320.5 655.0924,-324.0001 655.0925,-317.0001"/>
</g>
<!-- Node184 -->
<g id="node18" class="node">
<title>Node184</title>
<g id="a_node18"><a xlink:href="classstatistics_1_1_manager.html#aa20cfb477826035386ea988e3706b09a" target="_top" xlink:title="Wrapper to Statistics::Similarity::printGapsTotal() It calls to calculateConservationStats() to make ...">
<polygon fill="#ffffff" stroke="#000000" points="699.5,-240 699.5,-281 839.5,-281 839.5,-240 699.5,-240"/>
<text text-anchor="start" x="707.5" y="-269" font-family="Helvetica,sans-Serif" font-size="10.00" fill="#000000">statistics::Manager</text>
<text text-anchor="start" x="707.5" y="-258" font-family="Helvetica,sans-Serif" font-size="10.00" fill="#000000">::printStatisticsConservation</text>
<text text-anchor="middle" x="769.5" y="-247" font-family="Helvetica,sans-Serif" font-size="10.00" fill="#000000">Total</text>
</a>
</g>
</g>
<!-- Node175&#45;&gt;Node184 -->
<g id="edge22" class="edge">
<title>Node175&#45;&gt;Node184</title>
<path fill="none" stroke="#191970" d="M632.2929,-302.5022C654.4007,-295.7345 679.696,-287.991 702.4961,-281.0114"/>
<polygon fill="#191970" stroke="#191970" points="631.2436,-299.163 622.7061,-305.4369 633.2926,-305.8564 631.2436,-299.163"/>
</g>
<!-- Node177 -->
<g id="node11" class="node">
<title>Node177</title>
<g id="a_node11"><a xlink:href="classtrim_al_manager.html#aebfd21b0435302f0e4fc45a068d1b6ee" target="_top" xlink:title="Method to trim the alignment using non automatic methods: ">
<polygon fill="#ffffff" stroke="#000000" points="1107,-238.5 1107,-268.5 1259,-268.5 1259,-238.5 1107,-238.5"/>
<text text-anchor="start" x="1115" y="-256.5" font-family="Helvetica,sans-Serif" font-size="10.00" fill="#000000">trimAlManager::CleanResidues</text>
<text text-anchor="middle" x="1183" y="-245.5" font-family="Helvetica,sans-Serif" font-size="10.00" fill="#000000">NonAuto</text>
</a>
</g>
</g>
<!-- Node176&#45;&gt;Node177 -->
<g id="edge11" class="edge">
<title>Node176&#45;&gt;Node177</title>
<path fill="none" stroke="#191970" d="M998.3073,-456.8464C1016.1056,-440.0072 1044.0514,-413.0353 1067,-388.5 1106.262,-346.5234 1149.707,-294.2785 1170.5304,-268.8455"/>
<polygon fill="#191970" stroke="#191970" points="995.7777,-454.4209 990.8982,-463.8252 1000.5773,-459.5164 995.7777,-454.4209"/>
</g>
<!-- Node178 -->
<g id="node12" class="node">
<title>Node178</title>
<g id="a_node12"><a xlink:href="classtrim_al_manager.html#adc529dd893ed4e9df6f3ddbd58776068" target="_top" xlink:title="Core Method of the program. This is where almost all cleaning methods are called from. ">
<polygon fill="#ffffff" stroke="#000000" points="1299,-192.5 1299,-222.5 1408,-222.5 1408,-192.5 1299,-192.5"/>
<text text-anchor="start" x="1307" y="-210.5" font-family="Helvetica,sans-Serif" font-size="10.00" fill="#000000">trimAlManager::clean</text>
<text text-anchor="middle" x="1353.5" y="-199.5" font-family="Helvetica,sans-Serif" font-size="10.00" fill="#000000">_alignment</text>
</a>
</g>
</g>
<!-- Node177&#45;&gt;Node178 -->
<g id="edge12" class="edge">
<title>Node177&#45;&gt;Node178</title>
<path fill="none" stroke="#191970" d="M1248.5053,-235.827C1265.1861,-231.3266 1282.9341,-226.5383 1298.9996,-222.2039"/>
<polygon fill="#191970" stroke="#191970" points="1247.5712,-232.4538 1238.8281,-238.4379 1249.3946,-239.2122 1247.5712,-232.4538"/>
</g>
<!-- Node178&#45;&gt;Node170 -->
<g id="edge13" class="edge">
<title>Node178&#45;&gt;Node170</title>
<path fill="none" stroke="#191970" d="M1389.497,-227.6225C1423.1128,-246.414 1471.8268,-273.6454 1497.3822,-287.931"/>
<polygon fill="#191970" stroke="#191970" points="1390.8844,-224.3884 1380.4478,-222.564 1387.4687,-230.4985 1390.8844,-224.3884"/>
</g>
<!-- Node179&#45;&gt;Node177 -->
<g id="edge15" class="edge">
<title>Node179&#45;&gt;Node177</title>
<path fill="none" stroke="#191970" d="M1007.4128,-355.2242C1024.5599,-346.0431 1047.1952,-333.7651 1067,-322.5 1098.774,-304.4268 1134.8986,-282.758 1158.2727,-268.587"/>
<polygon fill="#191970" stroke="#191970" points="1005.6774,-352.1831 998.5041,-359.9801 1008.974,-358.3582 1005.6774,-352.1831"/>
</g>
<!-- Node181 -->
<g id="node15" class="node">
<title>Node181</title>
<g id="a_node15"><a xlink:href="classtrim_al_manager.html#a69082911b30a1bd12395bb235bc18a34" target="_top" xlink:title="Method to trim the alignment using automatic or semi&#45;automatic methods: ">
<polygon fill="#ffffff" stroke="#000000" points="894,-126 894,-145 1067,-145 1067,-126 894,-126"/>
<text text-anchor="middle" x="980.5" y="-133" font-family="Helvetica,sans-Serif" font-size="10.00" fill="#000000">trimAlManager::CleanResiduesAuto</text>
</a>
</g>
</g>
<!-- Node180&#45;&gt;Node181 -->
<g id="edge17" class="edge">
<title>Node180&#45;&gt;Node181</title>
<path fill="none" stroke="#191970" d="M805.8278,-198.4151C847.9993,-183.2254 916.5388,-158.5381 953.9937,-145.0473"/>
<polygon fill="#191970" stroke="#191970" points="804.4455,-195.1928 796.2233,-201.8745 806.8177,-201.7786 804.4455,-195.1928"/>
</g>
<!-- Node181&#45;&gt;Node178 -->
<g id="edge18" class="edge">
<title>Node181&#45;&gt;Node178</title>
<path fill="none" stroke="#191970" d="M1027.8806,-147.4452C1050.5409,-152.9712 1078.0972,-159.4201 1103,-164.5 1170.0147,-178.1702 1247.7102,-191.0501 1298.5856,-199.0853"/>
<polygon fill="#191970" stroke="#191970" points="1028.7129,-144.0457 1018.1667,-145.0601 1027.0436,-150.8438 1028.7129,-144.0457"/>
</g>
<!-- Node183 -->
<g id="node17" class="node">
<title>Node183</title>
<g id="a_node17"><a xlink:href="classtrim_al_manager.html#afc48b86f5ae35b9a5e721b65c58bf610" target="_top" xlink:title="Method to print statistics requested. ">
<polygon fill="#ffffff" stroke="#000000" points="928.5,-282.5 928.5,-312.5 1032.5,-312.5 1032.5,-282.5 928.5,-282.5"/>
<text text-anchor="start" x="936.5" y="-300.5" font-family="Helvetica,sans-Serif" font-size="10.00" fill="#000000">trimAlManager::print</text>
<text text-anchor="middle" x="980.5" y="-289.5" font-family="Helvetica,sans-Serif" font-size="10.00" fill="#000000">_statistics</text>
</a>
</g>
</g>
<!-- Node182&#45;&gt;Node183 -->
<g id="edge20" class="edge">
<title>Node182&#45;&gt;Node183</title>
<path fill="none" stroke="#191970" d="M849.7172,-311.7559C876.0209,-308.8887 904.5526,-305.7786 928.2347,-303.1972"/>
<polygon fill="#191970" stroke="#191970" points="849.3218,-308.2782 839.7599,-312.8413 850.0804,-315.237 849.3218,-308.2782"/>
</g>
<!-- Node183&#45;&gt;Node170 -->
<g id="edge21" class="edge">
<title>Node183&#45;&gt;Node170</title>
<path fill="none" stroke="#191970" d="M1042.9259,-297.5C1142.9442,-297.5 1338.5088,-297.5 1443.6299,-297.5"/>
<polygon fill="#191970" stroke="#191970" points="1042.6745,-294.0001 1032.6744,-297.5 1042.6744,-301.0001 1042.6745,-294.0001"/>
</g>
<!-- Node184&#45;&gt;Node183 -->
<g id="edge23" class="edge">
<title>Node184&#45;&gt;Node183</title>
<path fill="none" stroke="#191970" d="M849.7172,-274.5665C876.0209,-279.179 904.5526,-284.1822 928.2347,-288.335"/>
<polygon fill="#191970" stroke="#191970" points="850.2142,-271.1003 839.7599,-272.8205 849.0051,-277.9951 850.2142,-271.1003"/>
</g>
<!-- Node185&#45;&gt;Node175 -->
<g id="edge25" class="edge">
<title>Node185&#45;&gt;Node175</title>
<path fill="none" stroke="#191970" d="M467.6284,-334.4055C478.7215,-332.9485 490.3724,-331.4183 501.7237,-329.9273"/>
<polygon fill="#191970" stroke="#191970" points="467.0813,-330.9472 457.6223,-335.7198 467.9929,-337.8876 467.0813,-330.9472"/>
</g>
<!-- Node186 -->
<g id="node20" class="node">
<title>Node186</title>
<g id="a_node20"><a xlink:href="classstatistics_1_1_similarity.html#a1b65c85328f09fa0637365d11fb386b4" target="_top" xlink:title="This methods returns a pointer to conservationWindow&#39;s vector. ">
<polygon fill="#ffffff" stroke="#000000" points="509,-441.5 509,-471.5 638,-471.5 638,-441.5 509,-441.5"/>
<text text-anchor="start" x="517" y="-459.5" font-family="Helvetica,sans-Serif" font-size="10.00" fill="#000000">statistics::Similarity</text>
<text text-anchor="middle" x="573.5" y="-448.5" font-family="Helvetica,sans-Serif" font-size="10.00" fill="#000000">::getMdkWindowedVector</text>
</a>
</g>
</g>
<!-- Node185&#45;&gt;Node186 -->
<g id="edge26" class="edge">
<title>Node185&#45;&gt;Node186</title>
<path fill="none" stroke="#191970" d="M436.6621,-363.3685C469.8722,-385.9712 522.0316,-421.4708 551.4321,-441.4806"/>
<polygon fill="#191970" stroke="#191970" points="438.479,-360.3714 428.2427,-357.6383 434.5404,-366.1583 438.479,-360.3714"/>
</g>
<!-- Node186&#45;&gt;Node168 -->
<g id="edge27" class="edge">
<title>Node186&#45;&gt;Node168</title>
<path fill="none" stroke="#191970" d="M581.9138,-481.5696C596.0489,-519.6461 628.3031,-591.5248 681,-628.5 686.5315,-632.3812 692.7016,-635.4946 699.1398,-637.9887"/>
<polygon fill="#191970" stroke="#191970" points="585.0749,-480.0158 578.4055,-471.7836 578.4856,-482.3781 585.0749,-480.0158"/>
</g>
<!-- Node186&#45;&gt;Node173 -->
<g id="edge31" class="edge">
<title>Node186&#45;&gt;Node173</title>
<path fill="none" stroke="#191970" d="M590.9422,-479.9399C618.2634,-516.3887 669.2527,-583.2477 681,-590.5 687.2847,-594.3799 694.2448,-597.4756 701.4204,-599.9443"/>
<polygon fill="#191970" stroke="#191970" points="593.6517,-477.7189 584.86,-471.8065 588.0458,-481.911 593.6517,-477.7189"/>
</g>
<!-- Node186&#45;&gt;Node176 -->
<g id="edge32" class="edge">
<title>Node186&#45;&gt;Node176</title>
<path fill="none" stroke="#191970" d="M604.9031,-476.7848C625.602,-488.9137 653.815,-503.1628 681,-509.5 757.6125,-527.3596 780.1353,-520.7044 858,-509.5 892.6663,-504.5116 931.2042,-491.9677 955.6295,-483.0947"/>
<polygon fill="#191970" stroke="#191970" points="606.6088,-473.7264 596.2353,-471.572 603.0012,-479.7252 606.6088,-473.7264"/>
</g>
<!-- Node186&#45;&gt;Node179 -->
<g id="edge33" class="edge">
<title>Node186&#45;&gt;Node179</title>
<path fill="none" stroke="#191970" d="M636.2983,-438.7426C650.92,-434.8354 666.4635,-430.8637 681,-427.5 773.1045,-406.1876 882.3771,-386.3976 940.0971,-376.3686"/>
<polygon fill="#191970" stroke="#191970" points="635.0888,-435.4438 626.3465,-441.4291 636.9132,-442.2019 635.0888,-435.4438"/>
</g>
<!-- Node186&#45;&gt;Node180 -->
<g id="edge34" class="edge">
<title>Node186&#45;&gt;Node180</title>
<path fill="none" stroke="#191970" d="M591.168,-433.1949C606.9955,-411.4464 629.9669,-377.6142 645,-345.5 667.706,-296.9945 641.4299,-266.591 681,-230.5 685.8765,-226.0523 691.535,-222.5526 697.5876,-219.8095"/>
<polygon fill="#191970" stroke="#191970" points="588.191,-431.3347 585.0722,-441.4601 593.8246,-435.4896 588.191,-431.3347"/>
</g>
<!-- Node186&#45;&gt;Node187 -->
<g id="edge28" class="edge">
<title>Node186&#45;&gt;Node187</title>
<path fill="none" stroke="#191970" d="M607.5211,-477.1843C619.8538,-485.3477 633.5554,-495.2273 645,-505.5 663.2961,-521.9225 660.2156,-534.3679 681,-547.5 691.9012,-554.3877 704.764,-559.3195 717.2557,-562.8435"/>
<polygon fill="#191970" stroke="#191970" points="609.1316,-474.0576 598.8348,-471.5624 605.3282,-479.9342 609.1316,-474.0576"/>
</g>
<!-- Node189 -->
<g id="node23" class="node">
<title>Node189</title>
<g id="a_node23"><a xlink:href="classstatistics_1_1_similarity.html#a26f430acb8a3240977665de9a9ea875a" target="_top" xlink:title="Computes and selects the cut point values based on similarity&#39;s values. ">
<polygon fill="#ffffff" stroke="#000000" points="718,-436.5 718,-466.5 821,-466.5 821,-436.5 718,-436.5"/>
<text text-anchor="start" x="726" y="-454.5" font-family="Helvetica,sans-Serif" font-size="10.00" fill="#000000">statistics::Similarity</text>
<text text-anchor="middle" x="769.5" y="-443.5" font-family="Helvetica,sans-Serif" font-size="10.00" fill="#000000">::calcCutPoint</text>
</a>
</g>
</g>
<!-- Node186&#45;&gt;Node189 -->
<g id="edge35" class="edge">
<title>Node186&#45;&gt;Node189</title>
<path fill="none" stroke="#191970" d="M648.3818,-454.5897C671.5817,-453.9979 696.6148,-453.3593 717.8672,-452.8172"/>
<polygon fill="#191970" stroke="#191970" points="648.1284,-451.095 638.2209,-454.849 648.307,-458.0927 648.1284,-451.095"/>
</g>
<!-- Node188 -->
<g id="node22" class="node">
<title>Node188</title>
<g id="a_node22"><a xlink:href="classtrim_al_manager.html#a63d5bec0938516a2129ccb04276b93d9" target="_top" xlink:title="trimAlManager::svg\l_stats_out">
<polygon fill="#ffffff" stroke="#000000" points="1303,-434.5 1303,-464.5 1404,-464.5 1404,-434.5 1303,-434.5"/>
<text text-anchor="start" x="1311" y="-452.5" font-family="Helvetica,sans-Serif" font-size="10.00" fill="#000000">trimAlManager::svg</text>
<text text-anchor="middle" x="1353.5" y="-441.5" font-family="Helvetica,sans-Serif" font-size="10.00" fill="#000000">_stats_out</text>
</a>
</g>
</g>
<!-- Node187&#45;&gt;Node188 -->
<g id="edge29" class="edge">
<title>Node187&#45;&gt;Node188</title>
<path fill="none" stroke="#191970" d="M825.1838,-559.8674C938.45,-536.2056 1194.1411,-482.7907 1302.9495,-460.0602"/>
<polygon fill="#191970" stroke="#191970" points="824.3984,-556.4558 815.3255,-561.9269 825.8299,-563.3079 824.3984,-556.4558"/>
</g>
<!-- Node188&#45;&gt;Node170 -->
<g id="edge30" class="edge">
<title>Node188&#45;&gt;Node170</title>
<path fill="none" stroke="#191970" d="M1377.0569,-427.2599C1412.6927,-393.6162 1478.8383,-331.1682 1504.2184,-307.2068"/>
<polygon fill="#191970" stroke="#191970" points="1374.3946,-424.96 1369.5259,-434.37 1379.2,-430.05 1374.3946,-424.96"/>
</g>
<!-- Node189&#45;&gt;Node176 -->
<g id="edge36" class="edge">
<title>Node189&#45;&gt;Node176</title>
<path fill="none" stroke="#191970" d="M831.3151,-457.9452C856.5965,-460.5812 885.9428,-463.641 911.885,-466.3458"/>
<polygon fill="#191970" stroke="#191970" points="831.4255,-454.4378 821.1164,-456.8818 830.6995,-461.4001 831.4255,-454.4378"/>
</g>
<!-- Node189&#45;&gt;Node179 -->
<g id="edge37" class="edge">
<title>Node189&#45;&gt;Node179</title>
<path fill="none" stroke="#191970" d="M825.8396,-433.1051C836.5692,-429.4036 847.6701,-425.437 858,-421.5 894.0541,-407.7588 935.199,-389.8168 959.4499,-379.0024"/>
<polygon fill="#191970" stroke="#191970" points="824.4564,-429.8789 816.1231,-436.4215 826.7176,-436.5037 824.4564,-429.8789"/>
</g>
<!-- Node190&#45;&gt;Node181 -->
<g id="edge40" class="edge">
<title>Node190&#45;&gt;Node181</title>
<path fill="none" stroke="#191970" d="M476.35,-98.0238C565.3959,-99.2454 723.4133,-103.2758 858,-116.5 880.9178,-118.7519 906.0782,-122.4406 927.6029,-125.9716"/>
<polygon fill="#191970" stroke="#191970" points="476.1474,-94.5209 466.1031,-97.8915 476.057,-101.5204 476.1474,-94.5209"/>
</g>
<!-- Node191&#45;&gt;Node177 -->
<g id="edge44" class="edge">
<title>Node191&#45;&gt;Node177</title>
<path fill="none" stroke="#191970" d="M815.0494,-147.6959C828.859,-151.4355 844.0612,-155.5945 858,-159.5 954.9972,-186.6774 1067.8918,-219.6281 1131.8519,-238.4197"/>
<polygon fill="#191970" stroke="#191970" points="815.8447,-144.2853 805.2779,-145.0565 814.0193,-151.0432 815.8447,-144.2853"/>
</g>
<!-- Node191&#45;&gt;Node181 -->
<g id="edge43" class="edge">
<title>Node191&#45;&gt;Node181</title>
<path fill="none" stroke="#191970" d="M831.3708,-135.5C850.8596,-135.5 872.7596,-135.5 893.6517,-135.5"/>
<polygon fill="#191970" stroke="#191970" points="831.1164,-132.0001 821.1164,-135.5 831.1164,-139.0001 831.1164,-132.0001"/>
</g>
<!-- Node192&#45;&gt;Node181 -->
<g id="edge46" class="edge">
<title>Node192&#45;&gt;Node181</title>
<path fill="none" stroke="#191970" d="M819.4504,-71.7663C832.1295,-75.2288 845.6542,-79.2281 858,-83.5 894.8994,-96.2681 936.4663,-114.8402 960.4572,-125.9888"/>
<polygon fill="#191970" stroke="#191970" points="820.0663,-68.3082 809.5019,-69.1096 818.2603,-75.0712 820.0663,-68.3082"/>
</g>
<!-- Node193 -->
<g id="node27" class="node">
<title>Node193</title>
<g id="a_node27"><a xlink:href="classtrim_al_manager.html#a10536f715945a1a45f1df33f7cedc81e" target="_top" xlink:title="Method to trim or reduce the number of sequences in an alignment. It performs one or none of the foll...">
<polygon fill="#ffffff" stroke="#000000" points="1103,-136 1103,-155 1263,-155 1263,-136 1103,-136"/>
<text text-anchor="middle" x="1183" y="-143" font-family="Helvetica,sans-Serif" font-size="10.00" fill="#000000">trimAlManager::CleanSequences</text>
</a>
</g>
</g>
<!-- Node192&#45;&gt;Node193 -->
<g id="edge47" class="edge">
<title>Node192&#45;&gt;Node193</title>
<path fill="none" stroke="#191970" d="M834.4003,-70.8598C894.812,-81.6882 987.2641,-98.9088 1067,-116.5 1093.9607,-122.448 1124.2175,-130.0432 1147.0684,-135.9685"/>
<polygon fill="#191970" stroke="#191970" points="834.7057,-67.359 824.246,-69.0458 833.4747,-74.2499 834.7057,-67.359"/>
</g>
<!-- Node193&#45;&gt;Node178 -->
<g id="edge48" class="edge">
<title>Node193&#45;&gt;Node178</title>
<path fill="none" stroke="#191970" d="M1227.8059,-158.0293C1239.3521,-161.5067 1251.7048,-165.4473 1263,-169.5 1282.087,-176.3485 1302.9842,-185.041 1319.8845,-192.3834"/>
<polygon fill="#191970" stroke="#191970" points="1228.496,-154.5835 1217.9138,-155.1014 1226.5093,-161.2956 1228.496,-154.5835"/>
</g>
<!-- Node195 -->
<g id="node29" class="node">
<title>Node195</title>
<g id="a_node29"><a xlink:href="classtrim_al_manager.html#a8ed19b851162fa24a1da66f7e54099e3" target="_top" xlink:title="trimAlManager::postprocess\l_alignment">
<polygon fill="#ffffff" stroke="#000000" points="504,-.5 504,-30.5 643,-30.5 643,-.5 504,-.5"/>
<text text-anchor="start" x="512" y="-18.5" font-family="Helvetica,sans-Serif" font-size="10.00" fill="#000000">trimAlManager::postprocess</text>
<text text-anchor="middle" x="573.5" y="-7.5" font-family="Helvetica,sans-Serif" font-size="10.00" fill="#000000">_alignment</text>
</a>
</g>
</g>
<!-- Node194&#45;&gt;Node195 -->
<g id="edge50" class="edge">
<title>Node194&#45;&gt;Node195</title>
<path fill="none" stroke="#191970" d="M320.3427,-17.757C376.7744,-17.2539 450.476,-16.5968 503.7913,-16.1215"/>
<polygon fill="#191970" stroke="#191970" points="319.9839,-14.2599 310.0155,-17.849 320.0463,-21.2597 319.9839,-14.2599"/>
</g>
<!-- Node195&#45;&gt;Node170 -->
<g id="edge51" class="edge">
<title>Node195&#45;&gt;Node170</title>
<path fill="none" stroke="#191970" d="M653.3623,-16.4362C735.4247,-17.3165 866.8807,-18.5 980.5,-18.5 980.5,-18.5 980.5,-18.5 1183,-18.5 1354.1313,-18.5 1482.9015,-238.8368 1509.452,-287.8962"/>
<polygon fill="#191970" stroke="#191970" points="653.3941,-12.9364 643.3567,-16.3277 653.3182,-19.936 653.3941,-12.9364"/>
</g>
</g>
</svg>
