<?xml version="1.0" encoding="UTF-8" standalone="no"?>
<!DOCTYPE svg PUBLIC "-//W3C//DTD SVG 1.1//EN"
 "http://www.w3.org/Graphics/SVG/1.1/DTD/svg11.dtd">
<!-- Generated by graphviz version 2.40.1 (20161225.0304)
 -->
<!-- Title: trimAlManager::conservation_threshold_argument Pages: 1 -->
<svg width="307pt" height="78pt"
 viewBox="0.00 0.00 307.00 77.50" xmlns="http://www.w3.org/2000/svg" xmlns:xlink="http://www.w3.org/1999/xlink">
<g id="graph0" class="graph" transform="scale(1 1) rotate(0) translate(4 73.5)">
<title>trimAlManager::conservation_threshold_argument</title>
<polygon fill="#ffffff" stroke="transparent" points="-4,4 -4,-73.5 303,-73.5 303,4 -4,4"/>
<!-- Node522 -->
<g id="node1" class="node">
<title>Node522</title>
<polygon fill="#bfbfbf" stroke="#000000" points="0,-22.5 0,-52.5 141,-52.5 141,-22.5 0,-22.5"/>
<text text-anchor="start" x="8" y="-40.5" font-family="Helvetica,sans-Serif" font-size="10.00" fill="#000000">trimAlManager::conservation</text>
<text text-anchor="middle" x="70.5" y="-29.5" font-family="Helvetica,sans-Serif" font-size="10.00" fill="#000000">_threshold_argument</text>
</g>
<!-- Node523 -->
<g id="node2" class="node">
<title>Node523</title>
<g id="a_node2"><a xlink:href="namespaceutils.html#a32e6bab4fb43b096f983faedeefd0511" target="_top" xlink:title="String&#45;is&#45;number checking. ">
<polygon fill="#ffffff" stroke="#000000" points="196.5,-50 196.5,-69 279.5,-69 279.5,-50 196.5,-50"/>
<text text-anchor="middle" x="238" y="-57" font-family="Helvetica,sans-Serif" font-size="10.00" fill="#000000">utils::isNumber</text>
</a>
</g>
</g>
<!-- Node522&#45;&gt;Node523 -->
<g id="edge1" class="edge">
<title>Node522&#45;&gt;Node523</title>
<path fill="none" stroke="#191970" d="M141.0496,-46.7662C156.1581,-48.7506 171.8544,-50.8122 186.1049,-52.6839"/>
<polygon fill="#191970" stroke="#191970" points="185.8261,-56.1773 196.1968,-54.0094 186.7377,-49.2369 185.8261,-56.1773"/>
</g>
<!-- Node524 -->
<g id="node3" class="node">
<title>Node524</title>
<g id="a_node3"><a xlink:href="classreporting_1_1report_manager.html#a6d122e673144584e0869bd33b8a5c1c6" target="_top" xlink:title="Method to report an Error. &#160;It will be displayed if Level &#160;is equal or higher to VerboseLevel::ERROR...">
<polygon fill="#ffffff" stroke="#000000" points="177,-.5 177,-30.5 299,-30.5 299,-.5 177,-.5"/>
<text text-anchor="start" x="185" y="-18.5" font-family="Helvetica,sans-Serif" font-size="10.00" fill="#000000">reporting::reportManager</text>
<text text-anchor="middle" x="238" y="-7.5" font-family="Helvetica,sans-Serif" font-size="10.00" fill="#000000">::report</text>
</a>
</g>
</g>
<!-- Node522&#45;&gt;Node524 -->
<g id="edge2" class="edge">
<title>Node522&#45;&gt;Node524</title>
<path fill="none" stroke="#191970" d="M141.0496,-28.2338C149.5964,-27.1112 158.3313,-25.9639 166.8862,-24.8403"/>
<polygon fill="#191970" stroke="#191970" points="167.3651,-28.3076 176.8241,-23.535 166.4535,-21.3672 167.3651,-28.3076"/>
</g>
</g>
</svg>
