<?xml version="1.0" encoding="UTF-8" standalone="no"?>
<!DOCTYPE svg PUBLIC "-//W3C//DTD SVG 1.1//EN"
 "http://www.w3.org/Graphics/SVG/1.1/DTD/svg11.dtd">
<!-- Generated by graphviz version 2.38.0 (20140413.2041)
 -->
<!-- Title: utils::checkAlignmentType Pages: 1 -->
<svg width="2039pt" height="334pt"
 viewBox="0.00 0.00 2039.00 334.15" xmlns="http://www.w3.org/2000/svg" xmlns:xlink="http://www.w3.org/1999/xlink">
<g id="graph0" class="graph" transform="scale(1 1) rotate(0) translate(4 330.15)">
<title>utils::checkAlignmentType</title>
<polygon fill="white" stroke="none" points="-4,4 -4,-330.15 2035,-330.15 2035,4 -4,4"/>
<!-- Node1 -->
<g id="node1" class="node"><title>Node1</title>
<polygon fill="#bfbfbf" stroke="black" points="0,-137 0,-156 132,-156 132,-137 0,-137"/>
<text text-anchor="middle" x="66" y="-144" font-family="Helvetica,sans-Serif" font-size="10.00">utils::checkAlignmentType</text>
</g>
<!-- Node2 -->
<g id="node2" class="node"><title>Node2</title>
<g id="a_node2"><a xlink:href="classnew_alignment.html#a670d5ef1ced9ed6041c3f6afdbd2cc02" target="_top" xlink:title="Alignment type getter. &#160;&#160;See SequenceTypes.">
<polygon fill="white" stroke="black" points="168,-137 168,-156 331,-156 331,-137 168,-137"/>
<text text-anchor="middle" x="249.5" y="-144" font-family="Helvetica,sans-Serif" font-size="10.00">newAlignment::getAlignmentType</text>
</a>
</g>
</g>
<!-- Node1&#45;&gt;Node2 -->
<g id="edge1" class="edge"><title>Node1&#45;&gt;Node2</title>
<path fill="none" stroke="midnightblue" d="M142.202,-146.5C150.646,-146.5 159.276,-146.5 167.787,-146.5"/>
<polygon fill="midnightblue" stroke="midnightblue" points="142.013,-143 132.013,-146.5 142.013,-150 142.013,-143"/>
</g>
<!-- Node3 -->
<g id="node3" class="node"><title>Node3</title>
<g id="a_node3"><a xlink:href="class_cleaner.html#ab2db8eacfbe545c68fc287c43309e439" target="_top" xlink:title="Method to compute the overlap values. &#160;See newAlignment::overlaps. ">
<polygon fill="white" stroke="black" points="372.5,-153.5 372.5,-183.5 506.5,-183.5 506.5,-153.5 372.5,-153.5"/>
<text text-anchor="start" x="380.5" y="-171.5" font-family="Helvetica,sans-Serif" font-size="10.00">Cleaner::calculateSpurious</text>
<text text-anchor="middle" x="439.5" y="-160.5" font-family="Helvetica,sans-Serif" font-size="10.00">Vector</text>
</a>
</g>
</g>
<!-- Node2&#45;&gt;Node3 -->
<g id="edge2" class="edge"><title>Node2&#45;&gt;Node3</title>
<path fill="none" stroke="midnightblue" d="M341.091,-157.101C351.604,-158.331 362.173,-159.568 372.273,-160.75"/>
<polygon fill="midnightblue" stroke="midnightblue" points="341.386,-153.612 331.047,-155.926 340.572,-160.564 341.386,-153.612"/>
</g>
<!-- Node8 -->
<g id="node8" class="node"><title>Node8</title>
<g id="a_node8"><a xlink:href="class_cleaner.html#a65d829578be97c192561a129435b3c58" target="_top" xlink:title="Method to calculate identities between the sequences from the alignment. See newAlignment::identities...">
<polygon fill="white" stroke="black" points="367,-115 367,-134 512,-134 512,-115 367,-115"/>
<text text-anchor="middle" x="439.5" y="-122" font-family="Helvetica,sans-Serif" font-size="10.00">Cleaner::calculateSeqIdentity</text>
</a>
</g>
</g>
<!-- Node2&#45;&gt;Node8 -->
<g id="edge7" class="edge"><title>Node2&#45;&gt;Node8</title>
<path fill="none" stroke="midnightblue" d="M341.106,-135.897C349.704,-134.891 358.339,-133.881 366.725,-132.899"/>
<polygon fill="midnightblue" stroke="midnightblue" points="340.572,-132.436 331.047,-137.074 341.386,-139.388 340.572,-132.436"/>
</g>
<!-- Node14 -->
<g id="node14" class="node"><title>Node14</title>
<g id="a_node14"><a xlink:href="classstatistics_conservation.html#a9fe3502be02c8d6591a6de2d5f81c337" target="_top" xlink:title="Computes the matrix identity between alignment&#39;s columns. ">
<polygon fill="white" stroke="black" points="379,-241.5 379,-271.5 500,-271.5 500,-241.5 379,-241.5"/>
<text text-anchor="start" x="387" y="-259.5" font-family="Helvetica,sans-Serif" font-size="10.00">statisticsConservation</text>
<text text-anchor="middle" x="439.5" y="-248.5" font-family="Helvetica,sans-Serif" font-size="10.00">::calculateMatrixIdentity</text>
</a>
</g>
</g>
<!-- Node2&#45;&gt;Node14 -->
<g id="edge16" class="edge"><title>Node2&#45;&gt;Node14</title>
<path fill="none" stroke="midnightblue" d="M270.69,-162.262C293.299,-179.452 331.445,-207.099 367,-226.5 376.926,-231.916 388.036,-237.008 398.485,-241.405"/>
<polygon fill="midnightblue" stroke="midnightblue" points="272.614,-159.326 262.55,-156.013 268.351,-164.879 272.614,-159.326"/>
</g>
<!-- Node15 -->
<g id="node15" class="node"><title>Node15</title>
<g id="a_node15"><a xlink:href="classstatistics_conservation.html#ada98c86595cb14a2e8bc058703aa8066" target="_top" xlink:title="Method to calculate the conservation values of a alignment matrix. ">
<polygon fill="white" stroke="black" points="580.5,-235.5 580.5,-265.5 694.5,-265.5 694.5,-235.5 580.5,-235.5"/>
<text text-anchor="start" x="588.5" y="-253.5" font-family="Helvetica,sans-Serif" font-size="10.00">statisticsConservation</text>
<text text-anchor="middle" x="637.5" y="-242.5" font-family="Helvetica,sans-Serif" font-size="10.00">::calculateVectors</text>
</a>
</g>
</g>
<!-- Node2&#45;&gt;Node15 -->
<g id="edge30" class="edge"><title>Node2&#45;&gt;Node15</title>
<path fill="none" stroke="midnightblue" d="M280.918,-160.104C304.145,-170.098 337.135,-183.457 367,-192.5 439.487,-214.449 525.34,-231.425 580.334,-241.189"/>
<polygon fill="midnightblue" stroke="midnightblue" points="282.165,-156.829 271.599,-156.048 279.372,-163.248 282.165,-156.829"/>
</g>
<!-- Node24 -->
<g id="node24" class="node"><title>Node24</title>
<g id="a_node24"><a xlink:href="classtrim_al_manager.html#ad3e1ebff95c17424f4159e9adb8548ae" target="_top" xlink:title="Method to check the type of sequences present in the backtranslationAlig. ">
<polygon fill="white" stroke="black" points="376,-49.5 376,-79.5 503,-79.5 503,-49.5 376,-49.5"/>
<text text-anchor="start" x="384" y="-67.5" font-family="Helvetica,sans-Serif" font-size="10.00">trimAlManager::check</text>
<text text-anchor="middle" x="439.5" y="-56.5" font-family="Helvetica,sans-Serif" font-size="10.00">_coding_sequences_type</text>
</a>
</g>
</g>
<!-- Node2&#45;&gt;Node24 -->
<g id="edge31" class="edge"><title>Node2&#45;&gt;Node24</title>
<path fill="none" stroke="midnightblue" d="M281.806,-132.845C315.531,-118.135 369.046,-94.7939 403.972,-79.5602"/>
<polygon fill="midnightblue" stroke="midnightblue" points="280.201,-129.727 272.434,-136.933 282.999,-136.143 280.201,-129.727"/>
</g>
<!-- Node27 -->
<g id="node27" class="node"><title>Node27</title>
<g id="a_node27"><a xlink:href="classtrim_al_manager.html#a3e8b2b5b4e1a44c498c47448840b6c69" target="_top" xlink:title="Method to create, load and use a similarity matrix, depending on alignment residue nature...">
<polygon fill="white" stroke="black" points="1591,-0.5 1591,-30.5 1719,-30.5 1719,-0.5 1591,-0.5"/>
<text text-anchor="start" x="1599" y="-18.5" font-family="Helvetica,sans-Serif" font-size="10.00">trimAlManager::create</text>
<text text-anchor="middle" x="1655" y="-7.5" font-family="Helvetica,sans-Serif" font-size="10.00">_or_use_similarity_matrix</text>
</a>
</g>
</g>
<!-- Node2&#45;&gt;Node27 -->
<g id="edge34" class="edge"><title>Node2&#45;&gt;Node27</title>
<path fill="none" stroke="midnightblue" d="M263.974,-128.555C283.622,-103.872 322.66,-60.1598 367,-39.5 476.482,11.5126 515.716,-4.5 636.5,-4.5 636.5,-4.5 636.5,-4.5 1273.5,-4.5 1385.19,-4.5 1515.24,-9.29387 1590.73,-12.5522"/>
<polygon fill="midnightblue" stroke="midnightblue" points="261.009,-126.666 257.638,-136.71 266.537,-130.96 261.009,-126.666"/>
</g>
<!-- Node4 -->
<g id="node4" class="node"><title>Node4</title>
<g id="a_node4"><a xlink:href="class_cleaner.html#a095db8160a11a792a3feade870a24fd7" target="_top" xlink:title="Method to remove sequences missaligned with the rest of sequences in the alignment. &#160;For each residue in the sequence, it tests it&#39;s similarity. If the similarity of that residue is higher than overlapColumn value, it counts as a hit for the sequence. After calculating the number of hits for the sequence, it removes the sequence if it has a proportion hits/residues lower tan minimumOverlap. ">
<polygon fill="white" stroke="black" points="779,-197 779,-216 914,-216 914,-197 779,-197"/>
<text text-anchor="middle" x="846.5" y="-204" font-family="Helvetica,sans-Serif" font-size="10.00">Cleaner::cleanSpuriousSeq</text>
</a>
</g>
</g>
<!-- Node3&#45;&gt;Node4 -->
<g id="edge3" class="edge"><title>Node3&#45;&gt;Node4</title>
<path fill="none" stroke="midnightblue" d="M516.581,-183.027C527.108,-184.721 537.804,-186.277 548,-187.5 627.006,-196.975 718.422,-201.922 778.843,-204.363"/>
<polygon fill="midnightblue" stroke="midnightblue" points="516.999,-179.549 506.562,-181.367 515.855,-186.454 516.999,-179.549"/>
</g>
<!-- Node5 -->
<g id="node5" class="node"><title>Node5</title>
<g id="a_node5"><a xlink:href="classtrim_al_manager.html#a10536f715945a1a45f1df33f7cedc81e" target="_top" xlink:title="Method to trim or reduce the number of sequences in an alignment. It performs one or none of the foll...">
<polygon fill="white" stroke="black" points="972.5,-141 972.5,-160 1132.5,-160 1132.5,-141 972.5,-141"/>
<text text-anchor="middle" x="1052.5" y="-148" font-family="Helvetica,sans-Serif" font-size="10.00">trimAlManager::CleanSequences</text>
</a>
</g>
</g>
<!-- Node4&#45;&gt;Node5 -->
<g id="edge4" class="edge"><title>Node4&#45;&gt;Node5</title>
<path fill="none" stroke="midnightblue" d="M901.521,-194.624C911.039,-192.371 920.831,-189.949 930,-187.5 961.742,-179.023 997.694,-167.879 1022.2,-160.045"/>
<polygon fill="midnightblue" stroke="midnightblue" points="900.683,-191.226 891.739,-196.905 902.273,-198.043 900.683,-191.226"/>
</g>
<!-- Node6 -->
<g id="node6" class="node"><title>Node6</title>
<g id="a_node6"><a xlink:href="classtrim_al_manager.html#adc529dd893ed4e9df6f3ddbd58776068" target="_top" xlink:title="Core Method of the program. This is where almost all cleaning methods are called from. ">
<polygon fill="white" stroke="black" points="1767,-77.5 1767,-107.5 1876,-107.5 1876,-77.5 1767,-77.5"/>
<text text-anchor="start" x="1775" y="-95.5" font-family="Helvetica,sans-Serif" font-size="10.00">trimAlManager::clean</text>
<text text-anchor="middle" x="1821.5" y="-84.5" font-family="Helvetica,sans-Serif" font-size="10.00">_alignment</text>
</a>
</g>
</g>
<!-- Node5&#45;&gt;Node6 -->
<g id="edge5" class="edge"><title>Node5&#45;&gt;Node6</title>
<path fill="none" stroke="midnightblue" d="M1143,-147.263C1272.86,-141.983 1520.97,-129.699 1731,-106.5 1742.57,-105.222 1754.93,-103.513 1766.65,-101.729"/>
<polygon fill="midnightblue" stroke="midnightblue" points="1142.57,-143.778 1132.72,-147.677 1142.85,-150.772 1142.57,-143.778"/>
</g>
<!-- Node7 -->
<g id="node7" class="node"><title>Node7</title>
<g id="a_node7"><a xlink:href="classtrim_al_manager.html#abe8d2841455c644dc9c7d1294b82b00f" target="_top" xlink:title="Method to perform the analysis if all checks have passed. ">
<polygon fill="white" stroke="black" points="1912,-50 1912,-69 2031,-69 2031,-50 1912,-50"/>
<text text-anchor="middle" x="1971.5" y="-57" font-family="Helvetica,sans-Serif" font-size="10.00">trimAlManager::perform</text>
</a>
</g>
</g>
<!-- Node6&#45;&gt;Node7 -->
<g id="edge6" class="edge"><title>Node6&#45;&gt;Node7</title>
<path fill="none" stroke="midnightblue" d="M1886.37,-78.258C1900.3,-75.1535 1914.71,-71.9403 1927.58,-69.0692"/>
<polygon fill="midnightblue" stroke="midnightblue" points="1885.35,-74.9004 1876.35,-80.4929 1886.87,-81.7326 1885.35,-74.9004"/>
</g>
<!-- Node9 -->
<g id="node9" class="node"><title>Node9</title>
<g id="a_node9"><a xlink:href="class_cleaner.html#a6e219be8cd47b2d084e4563c2c66a947" target="_top" xlink:title="Method that selects the best cleaning method based on statistics of the alignment. ">
<polygon fill="white" stroke="black" points="789,-83 789,-102 904,-102 904,-83 789,-83"/>
<text text-anchor="middle" x="846.5" y="-90" font-family="Helvetica,sans-Serif" font-size="10.00">Cleaner::selectMethod</text>
</a>
</g>
</g>
<!-- Node8&#45;&gt;Node9 -->
<g id="edge8" class="edge"><title>Node8&#45;&gt;Node9</title>
<path fill="none" stroke="midnightblue" d="M522.29,-114.121C530.963,-113.166 539.658,-112.27 548,-111.5 631.745,-103.768 729.044,-98.1967 788.947,-95.1581"/>
<polygon fill="midnightblue" stroke="midnightblue" points="521.688,-110.666 512.143,-115.264 522.472,-117.622 521.688,-110.666"/>
</g>
<!-- Node11 -->
<g id="node11" class="node"><title>Node11</title>
<g id="a_node11"><a xlink:href="class_cleaner.html#a60955e2ae3faa3ccf84780a52fb1a08a" target="_top" xlink:title="Method that calculates the optimal cut point for a given clusters number. &#160;The idea is to obtain a cu...">
<polygon fill="white" stroke="black" points="565,-121 565,-140 710,-140 710,-121 565,-121"/>
<text text-anchor="middle" x="637.5" y="-128" font-family="Helvetica,sans-Serif" font-size="10.00">Cleaner::getCutPointClusters</text>
</a>
</g>
</g>
<!-- Node8&#45;&gt;Node11 -->
<g id="edge11" class="edge"><title>Node8&#45;&gt;Node11</title>
<path fill="none" stroke="midnightblue" d="M522.269,-127.003C536.38,-127.435 550.953,-127.881 564.774,-128.304"/>
<polygon fill="midnightblue" stroke="midnightblue" points="522.195,-123.499 512.092,-126.692 521.981,-130.496 522.195,-123.499"/>
</g>
<!-- Node12 -->
<g id="node12" class="node"><title>Node12</title>
<g id="a_node12"><a xlink:href="class_cleaner.html#a631cf3e2e55c00a995f0f4a51bfe7a2d" target="_top" xlink:title="Method to assign sequences to clusters. Clusters are calculated following this flow: ...">
<polygon fill="white" stroke="black" points="548,-159 548,-178 727,-178 727,-159 548,-159"/>
<text text-anchor="middle" x="637.5" y="-166" font-family="Helvetica,sans-Serif" font-size="10.00">Cleaner::calculateRepresentativeSeq</text>
</a>
</g>
</g>
<!-- Node8&#45;&gt;Node12 -->
<g id="edge13" class="edge"><title>Node8&#45;&gt;Node12</title>
<path fill="none" stroke="midnightblue" d="M490.554,-136.327C508.64,-140.551 529.225,-145.302 548,-149.5 562.109,-152.655 577.507,-155.996 591.445,-158.982"/>
<polygon fill="midnightblue" stroke="midnightblue" points="491.325,-132.913 480.791,-134.041 489.73,-139.728 491.325,-132.913"/>
</g>
<!-- Node10 -->
<g id="node10" class="node"><title>Node10</title>
<g id="a_node10"><a xlink:href="classtrim_al_manager.html#a69082911b30a1bd12395bb235bc18a34" target="_top" xlink:title="Method to trim the alignment using automatic or semi&#45;automatic methods: ">
<polygon fill="white" stroke="black" points="966,-83 966,-102 1139,-102 1139,-83 966,-83"/>
<text text-anchor="middle" x="1052.5" y="-90" font-family="Helvetica,sans-Serif" font-size="10.00">trimAlManager::CleanResiduesAuto</text>
</a>
</g>
</g>
<!-- Node9&#45;&gt;Node10 -->
<g id="edge9" class="edge"><title>Node9&#45;&gt;Node10</title>
<path fill="none" stroke="midnightblue" d="M914.123,-92.5C930.615,-92.5 948.515,-92.5 965.777,-92.5"/>
<polygon fill="midnightblue" stroke="midnightblue" points="914.054,-89.0001 904.054,-92.5 914.054,-96.0001 914.054,-89.0001"/>
</g>
<!-- Node10&#45;&gt;Node6 -->
<g id="edge10" class="edge"><title>Node10&#45;&gt;Node6</title>
<path fill="none" stroke="midnightblue" d="M1149.27,-92.5C1312.29,-92.5 1638.5,-92.5 1766.85,-92.5"/>
<polygon fill="midnightblue" stroke="midnightblue" points="1149.25,-89.0001 1139.25,-92.5 1149.25,-96.0001 1149.25,-89.0001"/>
</g>
<!-- Node11&#45;&gt;Node5 -->
<g id="edge12" class="edge"><title>Node11&#45;&gt;Node5</title>
<path fill="none" stroke="midnightblue" d="M720.531,-134.472C793.665,-138.014 900.026,-143.165 972.289,-146.664"/>
<polygon fill="midnightblue" stroke="midnightblue" points="720.597,-130.972 710.439,-133.984 720.258,-137.963 720.597,-130.972"/>
</g>
<!-- Node13 -->
<g id="node13" class="node"><title>Node13</title>
<g id="a_node13"><a xlink:href="class_cleaner.html#a991bf55a7d36b305d67d639ebf028348" target="_top" xlink:title="Method to select the most representative sequence (the longest one) for each cluster from the input a...">
<polygon fill="white" stroke="black" points="789.5,-159 789.5,-178 903.5,-178 903.5,-159 789.5,-159"/>
<text text-anchor="middle" x="846.5" y="-166" font-family="Helvetica,sans-Serif" font-size="10.00">Cleaner::getClustering</text>
</a>
</g>
</g>
<!-- Node12&#45;&gt;Node13 -->
<g id="edge14" class="edge"><title>Node12&#45;&gt;Node13</title>
<path fill="none" stroke="midnightblue" d="M737.609,-168.5C755.37,-168.5 773.303,-168.5 789.312,-168.5"/>
<polygon fill="midnightblue" stroke="midnightblue" points="737.187,-165 727.187,-168.5 737.187,-172 737.187,-165"/>
</g>
<!-- Node13&#45;&gt;Node5 -->
<g id="edge15" class="edge"><title>Node13&#45;&gt;Node5</title>
<path fill="none" stroke="midnightblue" d="M913.693,-162.659C932.391,-161.01 952.928,-159.198 972.307,-157.488"/>
<polygon fill="midnightblue" stroke="midnightblue" points="913.167,-159.192 903.514,-163.558 913.783,-166.165 913.167,-159.192"/>
</g>
<!-- Node14&#45;&gt;Node15 -->
<g id="edge17" class="edge"><title>Node14&#45;&gt;Node15</title>
<path fill="none" stroke="midnightblue" d="M510.134,-254.368C533.104,-253.665 558.349,-252.892 580.196,-252.224"/>
<polygon fill="midnightblue" stroke="midnightblue" points="509.993,-250.871 500.105,-254.675 510.207,-257.868 509.993,-250.871"/>
</g>
<!-- Node16 -->
<g id="node16" class="node"><title>Node16</title>
<g id="a_node16"><a xlink:href="classstatistics_conservation.html#a31f6ff0c30b2a207aba13f7687709467" target="_top" xlink:title="Allows us compute the conservationWindow&#39;s values. ">
<polygon fill="white" stroke="black" points="789.5,-235.5 789.5,-265.5 903.5,-265.5 903.5,-235.5 789.5,-235.5"/>
<text text-anchor="start" x="797.5" y="-253.5" font-family="Helvetica,sans-Serif" font-size="10.00">statisticsConservation</text>
<text text-anchor="middle" x="846.5" y="-242.5" font-family="Helvetica,sans-Serif" font-size="10.00">::applyWindow</text>
</a>
</g>
</g>
<!-- Node15&#45;&gt;Node16 -->
<g id="edge18" class="edge"><title>Node15&#45;&gt;Node16</title>
<path fill="none" stroke="midnightblue" d="M704.76,-250.5C732.045,-250.5 763.314,-250.5 789.438,-250.5"/>
<polygon fill="midnightblue" stroke="midnightblue" points="704.517,-247 694.517,-250.5 704.517,-254 704.517,-247"/>
</g>
<!-- Node17 -->
<g id="node17" class="node"><title>Node17</title>
<g id="a_node17"><a xlink:href="classstatistics_conservation.html#a0e674b4b4b91773fb1c32a532797f328" target="_top" xlink:title="This methods returns a pointer to conservationWindow&#39;s vector. ">
<polygon fill="white" stroke="black" points="988,-234.5 988,-264.5 1117,-264.5 1117,-234.5 988,-234.5"/>
<text text-anchor="start" x="996" y="-252.5" font-family="Helvetica,sans-Serif" font-size="10.00">statisticsConservation</text>
<text text-anchor="middle" x="1052.5" y="-241.5" font-family="Helvetica,sans-Serif" font-size="10.00">::getMdkWindowedVector</text>
</a>
</g>
</g>
<!-- Node16&#45;&gt;Node17 -->
<g id="edge19" class="edge"><title>Node16&#45;&gt;Node17</title>
<path fill="none" stroke="midnightblue" d="M913.827,-250.175C937.539,-250.059 964.194,-249.928 987.689,-249.813"/>
<polygon fill="midnightblue" stroke="midnightblue" points="913.496,-246.676 903.514,-250.225 913.531,-253.676 913.496,-246.676"/>
</g>
<!-- Node18 -->
<g id="node18" class="node"><title>Node18</title>
<g id="a_node18"><a xlink:href="class_cleaner.html#a694d53fdd5d1ac9455858e48537af3d0" target="_top" xlink:title="Method to trim an alignment based on the similarity distribution values. ">
<polygon fill="white" stroke="black" points="1406,-204 1406,-223 1543,-223 1543,-204 1406,-204"/>
<text text-anchor="middle" x="1474.5" y="-211" font-family="Helvetica,sans-Serif" font-size="10.00">Cleaner::cleanConservation</text>
</a>
</g>
</g>
<!-- Node17&#45;&gt;Node18 -->
<g id="edge20" class="edge"><title>Node17&#45;&gt;Node18</title>
<path fill="none" stroke="midnightblue" d="M1084.59,-229.149C1108.28,-214.914 1142.29,-197.135 1175,-189.5 1259.4,-169.797 1283.9,-179.648 1370,-189.5 1394.01,-192.247 1420.55,-198.467 1440.74,-203.887"/>
<polygon fill="midnightblue" stroke="midnightblue" points="1082.73,-226.185 1076.04,-234.402 1086.39,-232.149 1082.73,-226.185"/>
</g>
<!-- Node20 -->
<g id="node20" class="node"><title>Node20</title>
<g id="a_node20"><a xlink:href="class_cleaner.html#a1ac5ba504932526d77575365557a4d64" target="_top" xlink:title="Method to trim an alignment based on the similarity and gaps distribution values. ...">
<polygon fill="white" stroke="black" points="1434.5,-281 1434.5,-300 1514.5,-300 1514.5,-281 1434.5,-281"/>
<text text-anchor="middle" x="1474.5" y="-288" font-family="Helvetica,sans-Serif" font-size="10.00">Cleaner::clean</text>
</a>
</g>
</g>
<!-- Node17&#45;&gt;Node20 -->
<g id="edge23" class="edge"><title>Node17&#45;&gt;Node20</title>
<path fill="none" stroke="midnightblue" d="M1082.13,-270.417C1105.72,-286.284 1140.75,-306.799 1175,-315.5 1269.51,-339.511 1385.7,-314.939 1441.12,-300.069"/>
<polygon fill="midnightblue" stroke="midnightblue" points="1083.89,-267.384 1073.67,-264.598 1079.93,-273.15 1083.89,-267.384"/>
</g>
<!-- Node21 -->
<g id="node21" class="node"><title>Node21</title>
<g id="a_node21"><a xlink:href="class_cleaner.html#a068b219f913adba5c917a231cff7e437" target="_top" xlink:title="Method to clean an alignment. It carries out strict and strictplus. The method: ">
<polygon fill="white" stroke="black" points="1201,-237 1201,-256 1344,-256 1344,-237 1201,-237"/>
<text text-anchor="middle" x="1272.5" y="-244" font-family="Helvetica,sans-Serif" font-size="10.00">Cleaner::cleanCombMethods</text>
</a>
</g>
</g>
<!-- Node17&#45;&gt;Node21 -->
<g id="edge25" class="edge"><title>Node17&#45;&gt;Node21</title>
<path fill="none" stroke="midnightblue" d="M1127.18,-248.486C1150.99,-248.158 1177.32,-247.796 1200.9,-247.472"/>
<polygon fill="midnightblue" stroke="midnightblue" points="1127.09,-244.987 1117.14,-248.624 1127.19,-251.986 1127.09,-244.987"/>
</g>
<!-- Node22 -->
<g id="node22" class="node"><title>Node22</title>
<g id="a_node22"><a xlink:href="classnew_alignment.html#a2607115c839209324dca54d70fc8708d" target="_top" xlink:title="Method to report the trimming results in HTML. Outputs an HTML file that shows visually what has been...">
<polygon fill="white" stroke="black" points="1175,-199 1175,-218 1370,-218 1370,-199 1175,-199"/>
<text text-anchor="middle" x="1272.5" y="-206" font-family="Helvetica,sans-Serif" font-size="10.00">newAlignment::alignmentSummaryHTML</text>
</a>
</g>
</g>
<!-- Node17&#45;&gt;Node22 -->
<g id="edge26" class="edge"><title>Node17&#45;&gt;Node22</title>
<path fill="none" stroke="midnightblue" d="M1127,-235.676C1157.89,-229.868 1193.04,-223.257 1220.94,-218.009"/>
<polygon fill="midnightblue" stroke="midnightblue" points="1126.32,-232.243 1117.14,-237.531 1127.62,-239.122 1126.32,-232.243"/>
</g>
<!-- Node23 -->
<g id="node23" class="node"><title>Node23</title>
<g id="a_node23"><a xlink:href="classstatistics_conservation.html#aa11412e9db5babc6dc7b2b4c7c471ed6" target="_top" xlink:title="Computes and selects the cut point values based on conservation&#39;s values. ">
<polygon fill="white" stroke="black" points="1215.5,-275.5 1215.5,-305.5 1329.5,-305.5 1329.5,-275.5 1215.5,-275.5"/>
<text text-anchor="start" x="1223.5" y="-293.5" font-family="Helvetica,sans-Serif" font-size="10.00">statisticsConservation</text>
<text text-anchor="middle" x="1272.5" y="-282.5" font-family="Helvetica,sans-Serif" font-size="10.00">::calcCutPoint</text>
</a>
</g>
</g>
<!-- Node17&#45;&gt;Node23 -->
<g id="edge27" class="edge"><title>Node17&#45;&gt;Node23</title>
<path fill="none" stroke="midnightblue" d="M1127.15,-263.351C1155.91,-268.761 1188.36,-274.864 1215.2,-279.911"/>
<polygon fill="midnightblue" stroke="midnightblue" points="1127.62,-259.878 1117.14,-261.469 1126.32,-266.757 1127.62,-259.878"/>
</g>
<!-- Node19 -->
<g id="node19" class="node"><title>Node19</title>
<g id="a_node19"><a xlink:href="classtrim_al_manager.html#aebfd21b0435302f0e4fc45a068d1b6ee" target="_top" xlink:title="Method to trim the alignment using non automatic methods: ">
<polygon fill="white" stroke="black" points="1579,-198.5 1579,-228.5 1731,-228.5 1731,-198.5 1579,-198.5"/>
<text text-anchor="start" x="1587" y="-216.5" font-family="Helvetica,sans-Serif" font-size="10.00">trimAlManager::CleanResidues</text>
<text text-anchor="middle" x="1655" y="-205.5" font-family="Helvetica,sans-Serif" font-size="10.00">NonAuto</text>
</a>
</g>
</g>
<!-- Node18&#45;&gt;Node19 -->
<g id="edge21" class="edge"><title>Node18&#45;&gt;Node19</title>
<path fill="none" stroke="midnightblue" d="M1553.44,-213.5C1561.88,-213.5 1570.45,-213.5 1578.85,-213.5"/>
<polygon fill="midnightblue" stroke="midnightblue" points="1553.24,-210 1543.24,-213.5 1553.24,-217 1553.24,-210"/>
</g>
<!-- Node19&#45;&gt;Node6 -->
<g id="edge22" class="edge"><title>Node19&#45;&gt;Node6</title>
<path fill="none" stroke="midnightblue" d="M1684.83,-192.296C1717.81,-168.037 1770.98,-128.922 1800,-107.58"/>
<polygon fill="midnightblue" stroke="midnightblue" points="1682.48,-189.675 1676.5,-198.42 1686.63,-195.314 1682.48,-189.675"/>
</g>
<!-- Node20&#45;&gt;Node19 -->
<g id="edge24" class="edge"><title>Node20&#45;&gt;Node19</title>
<path fill="none" stroke="midnightblue" d="M1507.33,-276.768C1538.78,-263.204 1586.74,-242.514 1619.18,-228.52"/>
<polygon fill="midnightblue" stroke="midnightblue" points="1505.54,-273.729 1497.75,-280.904 1508.31,-280.156 1505.54,-273.729"/>
</g>
<!-- Node23&#45;&gt;Node18 -->
<g id="edge28" class="edge"><title>Node23&#45;&gt;Node18</title>
<path fill="none" stroke="midnightblue" d="M1339.56,-275.381C1349.86,-272.453 1360.3,-269.145 1370,-265.5 1402,-253.472 1437.14,-234.488 1457.14,-223.09"/>
<polygon fill="midnightblue" stroke="midnightblue" points="1338.47,-272.051 1329.75,-278.072 1340.32,-278.802 1338.47,-272.051"/>
</g>
<!-- Node23&#45;&gt;Node20 -->
<g id="edge29" class="edge"><title>Node23&#45;&gt;Node20</title>
<path fill="none" stroke="midnightblue" d="M1340.15,-290.5C1371.44,-290.5 1407.66,-290.5 1434.45,-290.5"/>
<polygon fill="midnightblue" stroke="midnightblue" points="1339.74,-287 1329.74,-290.5 1339.74,-294 1339.74,-287"/>
</g>
<!-- Node25 -->
<g id="node25" class="node"><title>Node25</title>
<g id="a_node25"><a xlink:href="classtrim_al_manager.html#a3f325b806727751394adb829d97b35f1" target="_top" xlink:title="Method that checks dependencies between arguments. Take in mind that dependencies may be between mult...">
<polygon fill="white" stroke="black" points="581.5,-33.5 581.5,-63.5 693.5,-63.5 693.5,-33.5 581.5,-33.5"/>
<text text-anchor="start" x="589.5" y="-51.5" font-family="Helvetica,sans-Serif" font-size="10.00">trimAlManager::check</text>
<text text-anchor="middle" x="637.5" y="-40.5" font-family="Helvetica,sans-Serif" font-size="10.00">_arguments_needs</text>
</a>
</g>
</g>
<!-- Node24&#45;&gt;Node25 -->
<g id="edge32" class="edge"><title>Node24&#45;&gt;Node25</title>
<path fill="none" stroke="midnightblue" d="M513.271,-58.5595C535.84,-56.7171 560.325,-54.7184 581.478,-52.9916"/>
<polygon fill="midnightblue" stroke="midnightblue" points="512.737,-55.0914 503.055,-59.3935 513.306,-62.0682 512.737,-55.0914"/>
</g>
<!-- Node26 -->
<g id="node26" class="node"><title>Node26</title>
<g id="a_node26"><a xlink:href="classtrim_al_manager.html#a748b08a1ec5cd214de804ed0d4234a6e" target="_top" xlink:title="Method to process the information obtained by trimAlManager::parseArguments It checks for argument in...">
<polygon fill="white" stroke="black" points="763,-39 763,-58 930,-58 930,-39 763,-39"/>
<text text-anchor="middle" x="846.5" y="-46" font-family="Helvetica,sans-Serif" font-size="10.00">trimAlManager::processArguments</text>
</a>
</g>
</g>
<!-- Node25&#45;&gt;Node26 -->
<g id="edge33" class="edge"><title>Node25&#45;&gt;Node26</title>
<path fill="none" stroke="midnightblue" d="M703.874,-48.5C722.577,-48.5 743.212,-48.5 762.808,-48.5"/>
<polygon fill="midnightblue" stroke="midnightblue" points="703.7,-45.0001 693.7,-48.5 703.7,-52.0001 703.7,-45.0001"/>
</g>
<!-- Node27&#45;&gt;Node7 -->
<g id="edge35" class="edge"><title>Node27&#45;&gt;Node7</title>
<path fill="none" stroke="midnightblue" d="M1729.4,-25.7691C1784.97,-33.5428 1860.27,-44.0784 1911.85,-51.2946"/>
<polygon fill="midnightblue" stroke="midnightblue" points="1729.65,-22.2705 1719.27,-24.3511 1728.68,-29.203 1729.65,-22.2705"/>
</g>
</g>
</svg>
