<?xml version="1.0" encoding="UTF-8" standalone="no"?>
<!DOCTYPE svg PUBLIC "-//W3C//DTD SVG 1.1//EN"
 "http://www.w3.org/Graphics/SVG/1.1/DTD/svg11.dtd">
<!-- Generated by graphviz version 2.40.1 (20161225.0304)
 -->
<!-- Title: trimAlManager::check_arguments_incompatibilities Pages: 1 -->
<svg width="544pt" height="503pt"
 viewBox="0.00 0.00 544.00 503.00" xmlns="http://www.w3.org/2000/svg" xmlns:xlink="http://www.w3.org/1999/xlink">
<g id="graph0" class="graph" transform="scale(1 1) rotate(0) translate(4 499)">
<title>trimAlManager::check_arguments_incompatibilities</title>
<polygon fill="#ffffff" stroke="transparent" points="-4,4 -4,-499 540,-499 540,4 -4,4"/>
<!-- Node33 -->
<g id="node1" class="node">
<title>Node33</title>
<g id="a_node1"><a xlink:title="Method to check argument incompatibilities. Take in mind that an incompatibility is between two argum...">
<polygon fill="#bfbfbf" stroke="#000000" points="0,-232 0,-262 143,-262 143,-232 0,-232"/>
<text text-anchor="start" x="8" y="-250" font-family="Helvetica,sans-Serif" font-size="10.00" fill="#000000">trimAlManager::check</text>
<text text-anchor="middle" x="71.5" y="-239" font-family="Helvetica,sans-Serif" font-size="10.00" fill="#000000">_arguments_incompatibilities</text>
</a>
</g>
</g>
<!-- Node34 -->
<g id="node2" class="node">
<title>Node34</title>
<g id="a_node2"><a xlink:href="classtrim_al_manager.html#a240651e152a2258badf642ed10a982f1" target="_top" xlink:title="Method to check incompatibilities related to automated trimming methods.">
<polygon fill="#ffffff" stroke="#000000" points="179,-159 179,-189 364,-189 364,-159 179,-159"/>
<text text-anchor="start" x="187" y="-177" font-family="Helvetica,sans-Serif" font-size="10.00" fill="#000000">trimAlManager::check</text>
<text text-anchor="middle" x="271.5" y="-166" font-family="Helvetica,sans-Serif" font-size="10.00" fill="#000000">_automated_methods_incompatibilities</text>
</a>
</g>
</g>
<!-- Node33&#45;&gt;Node34 -->
<g id="edge1" class="edge">
<title>Node33&#45;&gt;Node34</title>
<path fill="none" stroke="#191970" d="M101.0433,-231.8466C122.3233,-221.3517 151.9364,-207.5968 179,-198 184.9517,-195.8895 191.1785,-193.876 197.4669,-191.9774"/>
<polygon fill="#191970" stroke="#191970" points="198.7478,-195.2497 207.3687,-189.0909 196.7888,-188.5294 198.7478,-195.2497"/>
</g>
<!-- Node36 -->
<g id="node4" class="node">
<title>Node36</title>
<g id="a_node4"><a xlink:href="classtrim_al_manager.html#a197d0ef570aee1edc074b19f4134060e" target="_top" xlink:title="Method to check clusters incompatibilities.">
<polygon fill="#ffffff" stroke="#000000" points="206,-61 206,-91 337,-91 337,-61 206,-61"/>
<text text-anchor="start" x="214" y="-79" font-family="Helvetica,sans-Serif" font-size="10.00" fill="#000000">trimAlManager::check</text>
<text text-anchor="middle" x="271.5" y="-68" font-family="Helvetica,sans-Serif" font-size="10.00" fill="#000000">_clusters_incompatibilities</text>
</a>
</g>
</g>
<!-- Node33&#45;&gt;Node36 -->
<g id="edge3" class="edge">
<title>Node33&#45;&gt;Node36</title>
<path fill="none" stroke="#191970" d="M78.2148,-231.8388C92.3213,-201.7996 127.9982,-134.6396 179,-100 184.314,-96.3908 190.1365,-93.3244 196.1921,-90.7191"/>
<polygon fill="#191970" stroke="#191970" points="197.7881,-93.855 205.8604,-86.9929 195.2707,-87.3233 197.7881,-93.855"/>
</g>
<!-- Node38 -->
<g id="node6" class="node">
<title>Node38</title>
<g id="a_node6"><a xlink:href="classtrim_al_manager.html#a3563c4066ac0340d27cc72508bf8949b" target="_top" xlink:title="Method to check incompatibilities related to how the algorithm should treat stop codons.">
<polygon fill="#ffffff" stroke="#000000" points="190,-110 190,-140 353,-140 353,-110 190,-110"/>
<text text-anchor="start" x="198" y="-128" font-family="Helvetica,sans-Serif" font-size="10.00" fill="#000000">trimAlManager::check</text>
<text text-anchor="middle" x="271.5" y="-117" font-family="Helvetica,sans-Serif" font-size="10.00" fill="#000000">_codon_behaviour_incompatibility</text>
</a>
</g>
</g>
<!-- Node33&#45;&gt;Node38 -->
<g id="edge6" class="edge">
<title>Node33&#45;&gt;Node38</title>
<path fill="none" stroke="#191970" d="M83.7301,-231.9425C102.1223,-210.3075 139.0315,-170.6553 179,-149 182.4303,-147.1414 186.0109,-145.4218 189.6852,-143.8313"/>
<polygon fill="#191970" stroke="#191970" points="190.9788,-147.0835 198.9795,-140.138 188.3938,-140.5783 190.9788,-147.0835"/>
</g>
<!-- Node39 -->
<g id="node7" class="node">
<title>Node39</title>
<g id="a_node7"><a xlink:href="classtrim_al_manager.html#aa96711af8011305f73b3caee46ae0fd8" target="_top" xlink:title="As some thresholds are incompatible between them, we check their incompatibilities.">
<polygon fill="#ffffff" stroke="#000000" points="189.5,-453.5 189.5,-494.5 353.5,-494.5 353.5,-453.5 189.5,-453.5"/>
<text text-anchor="start" x="197.5" y="-482.5" font-family="Helvetica,sans-Serif" font-size="10.00" fill="#000000">trimAlManager::check</text>
<text text-anchor="start" x="197.5" y="-471.5" font-family="Helvetica,sans-Serif" font-size="10.00" fill="#000000">_combinations_among_thresholds</text>
<text text-anchor="middle" x="271.5" y="-460.5" font-family="Helvetica,sans-Serif" font-size="10.00" fill="#000000">_incompatibility</text>
</a>
</g>
</g>
<!-- Node33&#45;&gt;Node39 -->
<g id="edge8" class="edge">
<title>Node33&#45;&gt;Node39</title>
<path fill="none" stroke="#191970" d="M75.5092,-262.0708C86.0401,-298.7538 117.9731,-393.3808 179,-444 180.742,-445.4449 182.5553,-446.8208 184.4275,-448.1309"/>
<polygon fill="#191970" stroke="#191970" points="182.6394,-451.1406 192.9764,-453.4637 186.3443,-445.2014 182.6394,-451.1406"/>
</g>
<!-- Node40 -->
<g id="node8" class="node">
<title>Node40</title>
<g id="a_node8"><a xlink:href="classtrim_al_manager.html#a603ce4f4aefaf60dc1d8db83490d44ac" target="_top" xlink:title="Method to check the inFile argument incompatibilities.">
<polygon fill="#ffffff" stroke="#000000" points="211.5,-404 211.5,-434 331.5,-434 331.5,-404 211.5,-404"/>
<text text-anchor="start" x="219.5" y="-422" font-family="Helvetica,sans-Serif" font-size="10.00" fill="#000000">trimAlManager::check</text>
<text text-anchor="middle" x="271.5" y="-411" font-family="Helvetica,sans-Serif" font-size="10.00" fill="#000000">_inFile_incompatibilities</text>
</a>
</g>
</g>
<!-- Node33&#45;&gt;Node40 -->
<g id="edge10" class="edge">
<title>Node33&#45;&gt;Node40</title>
<path fill="none" stroke="#191970" d="M78.1858,-262.2642C92.2402,-292.5075 127.8281,-360.1241 179,-395 185.8976,-399.701 193.6568,-403.4812 201.6726,-406.521"/>
<polygon fill="#191970" stroke="#191970" points="200.5694,-409.8427 211.1639,-409.7601 202.8303,-403.2178 200.5694,-409.8427"/>
</g>
<!-- Node41 -->
<g id="node9" class="node">
<title>Node41</title>
<g id="a_node9"><a xlink:href="classtrim_al_manager.html#ab5b035ec7491b19958cf6f2e222e4b01" target="_top" xlink:title="Method to check max identity incompatibilities.">
<polygon fill="#ffffff" stroke="#000000" points="195.5,-355 195.5,-385 347.5,-385 347.5,-355 195.5,-355"/>
<text text-anchor="start" x="203.5" y="-373" font-family="Helvetica,sans-Serif" font-size="10.00" fill="#000000">trimAlManager::check</text>
<text text-anchor="middle" x="271.5" y="-362" font-family="Helvetica,sans-Serif" font-size="10.00" fill="#000000">_max_identity_incompatibilities</text>
</a>
</g>
</g>
<!-- Node33&#45;&gt;Node41 -->
<g id="edge12" class="edge">
<title>Node33&#45;&gt;Node41</title>
<path fill="none" stroke="#191970" d="M83.6956,-262.2162C102.0449,-284.0781 138.901,-324.1427 179,-346 182.3277,-347.8139 185.7981,-349.4951 189.3591,-351.053"/>
<polygon fill="#191970" stroke="#191970" points="188.377,-354.4297 198.9616,-354.8949 190.9773,-347.9306 188.377,-354.4297"/>
</g>
<!-- Node42 -->
<g id="node10" class="node">
<title>Node42</title>
<g id="a_node10"><a xlink:href="classtrim_al_manager.html#a0e099828be74d3ca0068b951d6578407" target="_top" xlink:title="Method to check incompatibilities with select cols and select seqs arguments.">
<polygon fill="#ffffff" stroke="#000000" points="212,-.5 212,-41.5 331,-41.5 331,-.5 212,-.5"/>
<text text-anchor="start" x="220" y="-29.5" font-family="Helvetica,sans-Serif" font-size="10.00" fill="#000000">trimAlManager::check</text>
<text text-anchor="start" x="220" y="-18.5" font-family="Helvetica,sans-Serif" font-size="10.00" fill="#000000">_select_cols_and_seqs</text>
<text text-anchor="middle" x="271.5" y="-7.5" font-family="Helvetica,sans-Serif" font-size="10.00" fill="#000000">_incompatibilities</text>
</a>
</g>
</g>
<!-- Node33&#45;&gt;Node42 -->
<g id="edge14" class="edge">
<title>Node33&#45;&gt;Node42</title>
<path fill="none" stroke="#191970" d="M75.6109,-231.7349C86.2734,-195.0441 118.3072,-101.2324 179,-51 185.9723,-45.2294 194.0809,-40.56 202.5441,-36.7837"/>
<polygon fill="#191970" stroke="#191970" points="203.8725,-40.022 211.8297,-33.0268 201.247,-33.533 203.8725,-40.022"/>
</g>
<!-- Node43 -->
<g id="node11" class="node">
<title>Node43</title>
<g id="a_node11"><a xlink:href="classtrim_al_manager.html#a10cf2679904a3707519d3ddac171ce06" target="_top" xlink:title="Method to check statistics incompatibilities.">
<polygon fill="#ffffff" stroke="#000000" points="212,-306 212,-336 331,-336 331,-306 212,-306"/>
<text text-anchor="start" x="220" y="-324" font-family="Helvetica,sans-Serif" font-size="10.00" fill="#000000">trimAlManager::check</text>
<text text-anchor="middle" x="271.5" y="-313" font-family="Helvetica,sans-Serif" font-size="10.00" fill="#000000">_stats_incompatibilities</text>
</a>
</g>
</g>
<!-- Node33&#45;&gt;Node43 -->
<g id="edge17" class="edge">
<title>Node33&#45;&gt;Node43</title>
<path fill="none" stroke="#191970" d="M100.101,-262.0406C121.4237,-272.822 151.4903,-287.126 179,-297 186.3563,-299.6404 194.1376,-302.1217 201.9383,-304.4132"/>
<polygon fill="#191970" stroke="#191970" points="201.2234,-307.8484 211.7991,-307.2117 203.1346,-301.1144 201.2234,-307.8484"/>
</g>
<!-- Node44 -->
<g id="node12" class="node">
<title>Node44</title>
<g id="a_node12"><a xlink:href="classtrim_al_manager.html#aa6149bd13ebbf5e0c4b9c81919304796" target="_top" xlink:title="Method to check incompatibilities with manual thresholds.">
<polygon fill="#ffffff" stroke="#000000" points="200.5,-257 200.5,-287 342.5,-287 342.5,-257 200.5,-257"/>
<text text-anchor="start" x="208.5" y="-275" font-family="Helvetica,sans-Serif" font-size="10.00" fill="#000000">trimAlManager::check</text>
<text text-anchor="middle" x="271.5" y="-264" font-family="Helvetica,sans-Serif" font-size="10.00" fill="#000000">_thresholds_incompatibilities</text>
</a>
</g>
</g>
<!-- Node33&#45;&gt;Node44 -->
<g id="edge19" class="edge">
<title>Node33&#45;&gt;Node44</title>
<path fill="none" stroke="#191970" d="M143.1397,-255.955C158.4026,-257.8628 174.6264,-259.8908 190.2204,-261.8401"/>
<polygon fill="#191970" stroke="#191970" points="190.0036,-265.3401 200.3605,-263.1076 190.8719,-258.3942 190.0036,-265.3401"/>
</g>
<!-- Node45 -->
<g id="node13" class="node">
<title>Node45</title>
<g id="a_node13"><a xlink:href="classtrim_al_manager.html#a2cc3ed142e9da213332ada3a2b39dea0" target="_top" xlink:title="Method to check windows incompatibilities.">
<polygon fill="#ffffff" stroke="#000000" points="204,-208 204,-238 339,-238 339,-208 204,-208"/>
<text text-anchor="start" x="212" y="-226" font-family="Helvetica,sans-Serif" font-size="10.00" fill="#000000">trimAlManager::check</text>
<text text-anchor="middle" x="271.5" y="-215" font-family="Helvetica,sans-Serif" font-size="10.00" fill="#000000">_windows_incompatibilities</text>
</a>
</g>
</g>
<!-- Node33&#45;&gt;Node45 -->
<g id="edge21" class="edge">
<title>Node33&#45;&gt;Node45</title>
<path fill="none" stroke="#191970" d="M143.1397,-238.4032C159.4762,-236.4429 176.9135,-234.3504 193.5011,-232.3599"/>
<polygon fill="#191970" stroke="#191970" points="194.1902,-235.8024 203.7019,-231.1358 193.3561,-228.8522 194.1902,-235.8024"/>
</g>
<!-- Node35 -->
<g id="node3" class="node">
<title>Node35</title>
<g id="a_node3"><a xlink:href="classreporting_1_1report_manager.html#a6d122e673144584e0869bd33b8a5c1c6" target="_top" xlink:title="Method to report an Error. &#160;It will be displayed if Level &#160;is equal or higher to VerboseLevel::ERROR.">
<polygon fill="#ffffff" stroke="#000000" points="407,-232 407,-262 529,-262 529,-232 407,-232"/>
<text text-anchor="start" x="415" y="-250" font-family="Helvetica,sans-Serif" font-size="10.00" fill="#000000">reporting::reportManager</text>
<text text-anchor="middle" x="468" y="-239" font-family="Helvetica,sans-Serif" font-size="10.00" fill="#000000">::report</text>
</a>
</g>
</g>
<!-- Node34&#45;&gt;Node35 -->
<g id="edge2" class="edge">
<title>Node34&#45;&gt;Node35</title>
<path fill="none" stroke="#191970" d="M336.164,-189.129C345.5887,-191.8091 355.1072,-194.7832 364,-198 386.5815,-206.1683 410.9085,-217.4817 430.3526,-227.1797"/>
<polygon fill="#191970" stroke="#191970" points="428.9728,-230.4039 439.4766,-231.79 432.1298,-224.1562 428.9728,-230.4039"/>
</g>
<!-- Node36&#45;&gt;Node35 -->
<g id="edge5" class="edge">
<title>Node36&#45;&gt;Node35</title>
<path fill="none" stroke="#191970" d="M337.2167,-86.8803C346.691,-90.1634 355.9459,-94.437 364,-100 409.4567,-131.3974 441.7138,-189.4962 457.3336,-222.4704"/>
<polygon fill="#191970" stroke="#191970" points="454.2845,-224.2173 461.6431,-231.8398 460.6441,-221.2921 454.2845,-224.2173"/>
</g>
<!-- Node37 -->
<g id="node5" class="node">
<title>Node37</title>
<g id="a_node5"><a xlink:href="class_alignment.html#a66fdd6d16ef1ccb5e8da24c6e20feca7" target="_top" xlink:title="Number of sequences getter.">
<polygon fill="#ffffff" stroke="#000000" points="400,-39.5 400,-58.5 536,-58.5 536,-39.5 400,-39.5"/>
<text text-anchor="middle" x="468" y="-46.5" font-family="Helvetica,sans-Serif" font-size="10.00" fill="#000000">Alignment::getNumSpecies</text>
</a>
</g>
</g>
<!-- Node36&#45;&gt;Node37 -->
<g id="edge4" class="edge">
<title>Node36&#45;&gt;Node37</title>
<path fill="none" stroke="#191970" d="M337.2048,-66.9719C353.9927,-64.6651 372.2097,-62.162 389.5659,-59.7772"/>
<polygon fill="#191970" stroke="#191970" points="390.2377,-63.2179 399.6681,-58.3891 389.2848,-56.283 390.2377,-63.2179"/>
</g>
<!-- Node38&#45;&gt;Node35 -->
<g id="edge7" class="edge">
<title>Node38&#45;&gt;Node35</title>
<path fill="none" stroke="#191970" d="M344.0792,-140.0308C350.9994,-142.5816 357.7557,-145.5499 364,-149 398.8112,-168.2342 430.8073,-201.8096 449.8627,-224.222"/>
<polygon fill="#191970" stroke="#191970" points="447.1901,-226.4821 456.2789,-231.9269 452.5692,-222.0027 447.1901,-226.4821"/>
</g>
<!-- Node39&#45;&gt;Node35 -->
<g id="edge9" class="edge">
<title>Node39&#45;&gt;Node35</title>
<path fill="none" stroke="#191970" d="M350.5295,-453.2767C355.3197,-450.5546 359.8657,-447.4776 364,-444 419.4058,-397.3946 449.3929,-313.6053 461.5086,-271.937"/>
<polygon fill="#191970" stroke="#191970" points="464.9467,-272.6386 464.2713,-262.0653 458.2057,-270.752 464.9467,-272.6386"/>
</g>
<!-- Node40&#45;&gt;Node35 -->
<g id="edge11" class="edge">
<title>Node40&#45;&gt;Node35</title>
<path fill="none" stroke="#191970" d="M331.9176,-409.8787C343.2137,-406.4075 354.4549,-401.6155 364,-395 409.6126,-363.3872 441.8103,-304.8939 457.3784,-271.696"/>
<polygon fill="#191970" stroke="#191970" points="460.7148,-272.8145 461.6724,-262.263 454.3438,-269.9143 460.7148,-272.8145"/>
</g>
<!-- Node41&#45;&gt;Node35 -->
<g id="edge13" class="edge">
<title>Node41&#45;&gt;Node35</title>
<path fill="none" stroke="#191970" d="M344.5797,-354.823C351.3277,-352.3059 357.9095,-349.3854 364,-346 398.9297,-326.5846 430.8958,-292.6628 449.9123,-270.0168"/>
<polygon fill="#191970" stroke="#191970" points="452.6661,-272.1785 456.314,-262.2314 447.2593,-267.7325 452.6661,-272.1785"/>
</g>
<!-- Node42&#45;&gt;Node35 -->
<g id="edge15" class="edge">
<title>Node42&#45;&gt;Node35</title>
<path fill="none" stroke="#191970" d="M331.2539,-32.9264C342.9827,-37.2326 354.5603,-43.0766 364,-51 419.0991,-97.2485 449.153,-180.3199 461.3815,-221.8818"/>
<polygon fill="#191970" stroke="#191970" points="458.0812,-223.073 464.1745,-231.7403 464.8161,-221.1649 458.0812,-223.073"/>
</g>
<!-- Node42&#45;&gt;Node37 -->
<g id="edge16" class="edge">
<title>Node42&#45;&gt;Node37</title>
<path fill="none" stroke="#191970" d="M331.2568,-29.515C350.1891,-32.2127 371.3865,-35.2332 391.335,-38.0757"/>
<polygon fill="#191970" stroke="#191970" points="390.9282,-41.553 401.322,-39.4988 391.9158,-34.623 390.9282,-41.553"/>
</g>
<!-- Node43&#45;&gt;Node35 -->
<g id="edge18" class="edge">
<title>Node43&#45;&gt;Node35</title>
<path fill="none" stroke="#191970" d="M331.2406,-307.321C342.2516,-304.2874 353.5619,-300.8221 364,-297 387.0613,-288.5557 411.8838,-276.7336 431.4928,-266.7049"/>
<polygon fill="#191970" stroke="#191970" points="433.1204,-269.8036 440.3894,-262.0956 429.9002,-263.5883 433.1204,-269.8036"/>
</g>
<!-- Node44&#45;&gt;Node35 -->
<g id="edge20" class="edge">
<title>Node44&#45;&gt;Node35</title>
<path fill="none" stroke="#191970" d="M342.7188,-262.9391C360.2554,-260.708 379.0377,-258.3184 396.5836,-256.0861"/>
<polygon fill="#191970" stroke="#191970" points="397.2744,-259.5265 406.7526,-254.7923 396.3908,-252.5824 397.2744,-259.5265"/>
</g>
<!-- Node45&#45;&gt;Node35 -->
<g id="edge22" class="edge">
<title>Node45&#45;&gt;Node35</title>
<path fill="none" stroke="#191970" d="M339.1242,-231.2594C357.7567,-233.5352 378.0221,-236.0103 396.8475,-238.3096"/>
<polygon fill="#191970" stroke="#191970" points="396.4897,-241.7918 406.8403,-239.5301 397.3384,-234.8435 396.4897,-241.7918"/>
</g>
</g>
</svg>
