<?xml version="1.0" encoding="UTF-8" standalone="no"?>
<!DOCTYPE svg PUBLIC "-//W3C//DTD SVG 1.1//EN"
 "http://www.w3.org/Graphics/SVG/1.1/DTD/svg11.dtd">
<!-- Generated by graphviz version 2.38.0 (20140413.2041)
 -->
<!-- Title: StatisticsManager Pages: 1 -->
<svg width="1193pt" height="431pt"
 viewBox="0.00 0.00 1192.50 431.00" xmlns="http://www.w3.org/2000/svg" xmlns:xlink="http://www.w3.org/1999/xlink">
<g id="graph0" class="graph" transform="scale(1 1) rotate(0) translate(4 427)">
<title>StatisticsManager</title>
<polygon fill="white" stroke="none" points="-4,4 -4,-427 1188.5,-427 1188.5,4 -4,4"/>
<!-- Node1 -->
<g id="node1" class="node"><title>Node1</title>
<polygon fill="#bfbfbf" stroke="black" points="464,-280.5 464,-299.5 559,-299.5 559,-280.5 464,-280.5"/>
<text text-anchor="middle" x="511.5" y="-287.5" font-family="Helvetica,sans-Serif" font-size="10.00">StatisticsManager</text>
</g>
<!-- Node2 -->
<g id="node2" class="node"><title>Node2</title>
<g id="a_node2"><a xlink:href="classnew_alignment.html" target="_top" xlink:title="Class containing an alignment &#160;This class stores the alignment sequences with it&#39;s names...">
<polygon fill="white" stroke="black" points="521.5,-90.5 521.5,-109.5 599.5,-109.5 599.5,-90.5 521.5,-90.5"/>
<text text-anchor="middle" x="560.5" y="-97.5" font-family="Helvetica,sans-Serif" font-size="10.00">newAlignment</text>
</a>
</g>
</g>
<!-- Node1&#45;&gt;Node2 -->
<g id="edge26" class="edge"><title>Node1&#45;&gt;Node2</title>
<path fill="none" stroke="#9a32cd" stroke-dasharray="5,2" d="M520.911,-270.916C526.752,-259.008 533.982,-242.917 538.5,-228 551.604,-184.739 557.726,-130.677 559.725,-109.794"/>
<polygon fill="#9a32cd" stroke="#9a32cd" points="517.621,-269.666 516.238,-280.17 523.87,-272.821 517.621,-269.666"/>
<text text-anchor="middle" x="581" y="-176" font-family="Helvetica,sans-Serif" font-size="10.00"> Statistics</text>
</g>
<!-- Node2&#45;&gt;Node1 -->
<g id="edge1" class="edge"><title>Node2&#45;&gt;Node1</title>
<path fill="none" stroke="#9a32cd" stroke-dasharray="5,2" d="M511.556,-110.494C502.094,-114.617 493.325,-120.527 487.5,-129 453.924,-177.839 492,-254.864 506.424,-280.434"/>
<polygon fill="#9a32cd" stroke="#9a32cd" points="513,-113.692 521.164,-106.939 510.571,-107.127 513,-113.692"/>
<text text-anchor="middle" x="513" y="-176" font-family="Helvetica,sans-Serif" font-size="10.00"> _alignment</text>
</g>
<!-- Node3 -->
<g id="node3" class="node"><title>Node3</title>
<g id="a_node3"><a xlink:href="classstatistics_gaps.html" target="_top" xlink:title="statisticsGaps">
<polygon fill="white" stroke="black" points="393.5,-0.5 393.5,-19.5 473.5,-19.5 473.5,-0.5 393.5,-0.5"/>
<text text-anchor="middle" x="433.5" y="-7.5" font-family="Helvetica,sans-Serif" font-size="10.00">statisticsGaps</text>
</a>
</g>
</g>
<!-- Node2&#45;&gt;Node3 -->
<g id="edge3" class="edge"><title>Node2&#45;&gt;Node3</title>
<path fill="none" stroke="#9a32cd" stroke-dasharray="5,2" d="M511.085,-94.7341C478.751,-90.8007 440.676,-83.6014 430.5,-71 418.705,-56.3943 424.98,-32.6648 429.745,-19.8627"/>
<polygon fill="#9a32cd" stroke="#9a32cd" points="511.008,-98.2477 521.339,-95.8991 511.798,-91.2925 511.008,-98.2477"/>
<text text-anchor="middle" x="456" y="-52" font-family="Helvetica,sans-Serif" font-size="10.00"> _alignment</text>
</g>
<!-- Node5 -->
<g id="node5" class="node"><title>Node5</title>
<g id="a_node5"><a xlink:href="classsequences_matrix.html" target="_top" xlink:title="sequencesMatrix">
<polygon fill="white" stroke="black" points="129,-0.5 129,-19.5 220,-19.5 220,-0.5 129,-0.5"/>
<text text-anchor="middle" x="174.5" y="-7.5" font-family="Helvetica,sans-Serif" font-size="10.00">sequencesMatrix</text>
</a>
</g>
</g>
<!-- Node2&#45;&gt;Node5 -->
<g id="edge6" class="edge"><title>Node2&#45;&gt;Node5</title>
<path fill="none" stroke="#9a32cd" stroke-dasharray="5,2" d="M511.079,-99.1715C431.187,-98.7301 277.738,-94.6965 229.5,-71 206.163,-59.5358 187.96,-33.5553 179.567,-19.8481"/>
<polygon fill="#9a32cd" stroke="#9a32cd" points="511.366,-102.672 521.379,-99.2106 511.393,-95.6725 511.366,-102.672"/>
<text text-anchor="middle" x="255" y="-52" font-family="Helvetica,sans-Serif" font-size="10.00"> _alignment</text>
</g>
<!-- Node9 -->
<g id="node9" class="node"><title>Node9</title>
<g id="a_node9"><a xlink:href="classstatistics_conservation2.html" target="_top" xlink:title="statisticsConservation2">
<polygon fill="white" stroke="black" points="858,-0.5 858,-19.5 977,-19.5 977,-0.5 858,-0.5"/>
<text text-anchor="middle" x="917.5" y="-7.5" font-family="Helvetica,sans-Serif" font-size="10.00">statisticsConservation2</text>
</a>
</g>
</g>
<!-- Node2&#45;&gt;Node9 -->
<g id="edge12" class="edge"><title>Node2&#45;&gt;Node9</title>
<path fill="none" stroke="#9a32cd" stroke-dasharray="5,2" d="M609.834,-90.2935C627.156,-86.0038 646.318,-79.8009 662.5,-71 681.857,-60.4725 679.432,-47.1009 699.5,-38 726.895,-25.5762 803.306,-18.2114 857.922,-14.3884"/>
<polygon fill="#9a32cd" stroke="#9a32cd" points="608.834,-86.9325 599.885,-92.6032 610.417,-93.7511 608.834,-86.9325"/>
<text text-anchor="middle" x="725" y="-52" font-family="Helvetica,sans-Serif" font-size="10.00"> _alignment</text>
</g>
<!-- Node13 -->
<g id="node13" class="node"><title>Node13</title>
<g id="a_node13"><a xlink:href="class_cleaner.html" target="_top" xlink:title="Subclass contained by the alignment object to make cleaning operations on it. ">
<polygon fill="white" stroke="black" points="567.5,-0.5 567.5,-19.5 617.5,-19.5 617.5,-0.5 567.5,-0.5"/>
<text text-anchor="middle" x="592.5" y="-7.5" font-family="Helvetica,sans-Serif" font-size="10.00">Cleaner</text>
</a>
</g>
</g>
<!-- Node2&#45;&gt;Node13 -->
<g id="edge20" class="edge"><title>Node2&#45;&gt;Node13</title>
<path fill="none" stroke="#9a32cd" stroke-dasharray="5,2" d="M590.43,-85.1674C595.679,-81.3449 600.435,-76.6534 603.5,-71 612.485,-54.4281 603.657,-31.894 597.443,-19.7006"/>
<polygon fill="#9a32cd" stroke="#9a32cd" points="588.571,-82.2024 581.948,-90.4723 592.282,-88.1373 588.571,-82.2024"/>
<text text-anchor="middle" x="633" y="-52" font-family="Helvetica,sans-Serif" font-size="10.00"> _alignment</text>
</g>
<!-- Node3&#45;&gt;Node2 -->
<g id="edge2" class="edge"><title>Node3&#45;&gt;Node2</title>
<path fill="none" stroke="#9a32cd" stroke-dasharray="5,2" d="M462.111,-24.234C469.926,-28.2781 478.236,-32.992 485.5,-38 503.641,-50.5074 505.39,-57.1161 522.5,-71 530.9,-77.8157 540.74,-85.0471 548.302,-90.4533"/>
<polygon fill="#9a32cd" stroke="#9a32cd" points="463.44,-20.9859 452.929,-19.6584 460.318,-27.2511 463.44,-20.9859"/>
<text text-anchor="middle" x="537.5" y="-52" font-family="Helvetica,sans-Serif" font-size="10.00"> sgaps</text>
</g>
<!-- Node4 -->
<g id="node4" class="node"><title>Node4</title>
<polygon fill="white" stroke="#bfbfbf" points="497,-398 497,-417 526,-417 526,-398 497,-398"/>
<text text-anchor="middle" x="511.5" y="-405" font-family="Helvetica,sans-Serif" font-size="10.00">int</text>
</g>
<!-- Node4&#45;&gt;Node1 -->
<g id="edge27" class="edge"><title>Node4&#45;&gt;Node1</title>
<path fill="none" stroke="#9a32cd" stroke-dasharray="5,2" d="M511.5,-387.664C511.5,-362.365 511.5,-318.435 511.5,-299.782"/>
<polygon fill="#9a32cd" stroke="#9a32cd" points="508,-387.819 511.5,-397.819 515,-387.819 508,-387.819"/>
<text text-anchor="middle" x="536" y="-366" font-family="Helvetica,sans-Serif" font-size="10.00"> shWindow</text>
<text text-anchor="middle" x="536" y="-355" font-family="Helvetica,sans-Serif" font-size="10.00">ghWindow</text>
</g>
<!-- Node4&#45;&gt;Node2 -->
<g id="edge23" class="edge"><title>Node4&#45;&gt;Node2</title>
<path fill="none" stroke="#9a32cd" stroke-dasharray="5,2" d="M535.542,-396.587C545.789,-391.265 557.071,-383.764 564.5,-374 605.385,-320.265 597.074,-294.859 606.5,-228 612.642,-184.431 628.057,-167.358 606.5,-129 601.645,-120.361 592.924,-114.075 584.371,-109.676"/>
<polygon fill="#9a32cd" stroke="#9a32cd" points="533.726,-393.575 526.193,-401.025 536.728,-399.899 533.726,-393.575"/>
<text text-anchor="middle" x="655.5" y="-326" font-family="Helvetica,sans-Serif" font-size="10.00"> originalSequenNumber</text>
<text text-anchor="middle" x="655.5" y="-315" font-family="Helvetica,sans-Serif" font-size="10.00">saveSequences</text>
<text text-anchor="middle" x="655.5" y="-304" font-family="Helvetica,sans-Serif" font-size="10.00">SeqRef</text>
<text text-anchor="middle" x="655.5" y="-293" font-family="Helvetica,sans-Serif" font-size="10.00">dataType</text>
<text text-anchor="middle" x="655.5" y="-282" font-family="Helvetica,sans-Serif" font-size="10.00">saveResidues</text>
<text text-anchor="middle" x="655.5" y="-271" font-family="Helvetica,sans-Serif" font-size="10.00">residNumber</text>
<text text-anchor="middle" x="655.5" y="-260" font-family="Helvetica,sans-Serif" font-size="10.00">sequenNumber</text>
<text text-anchor="middle" x="655.5" y="-249" font-family="Helvetica,sans-Serif" font-size="10.00">originalResidNumber</text>
</g>
<!-- Node4&#45;&gt;Node3 -->
<g id="edge4" class="edge"><title>Node4&#45;&gt;Node3</title>
<path fill="none" stroke="#9a32cd" stroke-dasharray="5,2" d="M486.393,-405.021C458.885,-402.357 414.432,-394.897 382.5,-374 313.841,-329.069 304.707,-302.117 269.5,-228 250.118,-187.198 262.952,-171.069 246.5,-129 235.698,-101.379 221.086,-99.6716 213.5,-71 209.749,-56.8212 203.781,-48.9844 213.5,-38 225.198,-24.7789 333.161,-16.6389 393.374,-13.0888"/>
<polygon fill="#9a32cd" stroke="#9a32cd" points="486.467,-408.539 496.72,-405.872 487.041,-401.563 486.467,-408.539"/>
<text text-anchor="middle" x="322" y="-220" font-family="Helvetica,sans-Serif" font-size="10.00"> numColumnsWithGaps</text>
<text text-anchor="middle" x="322" y="-209" font-family="Helvetica,sans-Serif" font-size="10.00">halfWindow</text>
<text text-anchor="middle" x="322" y="-198" font-family="Helvetica,sans-Serif" font-size="10.00">gapsWindow</text>
<text text-anchor="middle" x="322" y="-187" font-family="Helvetica,sans-Serif" font-size="10.00">maxGaps</text>
<text text-anchor="middle" x="322" y="-176" font-family="Helvetica,sans-Serif" font-size="10.00">gapsInColumn</text>
<text text-anchor="middle" x="322" y="-165" font-family="Helvetica,sans-Serif" font-size="10.00">dataType</text>
<text text-anchor="middle" x="322" y="-154" font-family="Helvetica,sans-Serif" font-size="10.00">aminosXInColumn</text>
<text text-anchor="middle" x="322" y="-143" font-family="Helvetica,sans-Serif" font-size="10.00">sequenNumber</text>
<text text-anchor="middle" x="322" y="-132" font-family="Helvetica,sans-Serif" font-size="10.00">residNumber</text>
</g>
<!-- Node4&#45;&gt;Node5 -->
<g id="edge7" class="edge"><title>Node4&#45;&gt;Node5</title>
<path fill="none" stroke="#9a32cd" stroke-dasharray="5,2" d="M486.605,-404.994C411.736,-398.921 189.089,-369.165 112.5,-228 72.141,-153.612 144.026,-50.2683 167.476,-19.7896"/>
<polygon fill="#9a32cd" stroke="#9a32cd" points="486.697,-408.51 496.927,-405.754 487.211,-401.529 486.697,-408.51"/>
<text text-anchor="middle" x="140.5" y="-187" font-family="Helvetica,sans-Serif" font-size="10.00"> matrix</text>
<text text-anchor="middle" x="140.5" y="-176" font-family="Helvetica,sans-Serif" font-size="10.00">seqsNumber</text>
<text text-anchor="middle" x="140.5" y="-165" font-family="Helvetica,sans-Serif" font-size="10.00">resNumber</text>
</g>
<!-- Node4&#45;&gt;Node9 -->
<g id="edge14" class="edge"><title>Node4&#45;&gt;Node9</title>
<path fill="none" stroke="#9a32cd" stroke-dasharray="5,2" d="M536.544,-406.135C625.375,-404.341 923.784,-393.882 993.5,-334 1098.95,-243.429 1185.08,-143.441 1094.5,-38 1079.51,-20.5513 1022.69,-14.2535 977.424,-12.0452"/>
<polygon fill="#9a32cd" stroke="#9a32cd" points="536.265,-402.64 526.33,-406.321 536.392,-409.639 536.265,-402.64"/>
<text text-anchor="middle" x="1158.5" y="-187" font-family="Helvetica,sans-Serif" font-size="10.00"> residues</text>
<text text-anchor="middle" x="1158.5" y="-176" font-family="Helvetica,sans-Serif" font-size="10.00">halfWindow</text>
<text text-anchor="middle" x="1158.5" y="-165" font-family="Helvetica,sans-Serif" font-size="10.00">sequences</text>
</g>
<!-- Node12 -->
<g id="node12" class="node"><title>Node12</title>
<g id="a_node12"><a xlink:href="classsimilarity_matrix.html" target="_top" xlink:title="similarityMatrix">
<polygon fill="white" stroke="black" points="917,-90.5 917,-109.5 1000,-109.5 1000,-90.5 917,-90.5"/>
<text text-anchor="middle" x="958.5" y="-97.5" font-family="Helvetica,sans-Serif" font-size="10.00">similarityMatrix</text>
</a>
</g>
</g>
<!-- Node4&#45;&gt;Node12 -->
<g id="edge18" class="edge"><title>Node4&#45;&gt;Node12</title>
<path fill="none" stroke="#9a32cd" stroke-dasharray="5,2" d="M536.313,-404.53C608.681,-398.322 817.598,-376.984 868.5,-334 941.389,-272.448 955.467,-144.612 957.985,-109.875"/>
<polygon fill="#9a32cd" stroke="#9a32cd" points="535.962,-401.047 526.288,-405.367 536.545,-408.023 535.962,-401.047"/>
<text text-anchor="middle" x="958" y="-293" font-family="Helvetica,sans-Serif" font-size="10.00"> numPositions</text>
<text text-anchor="middle" x="958" y="-282" font-family="Helvetica,sans-Serif" font-size="10.00">vhash</text>
</g>
<!-- Node4&#45;&gt;Node13 -->
<g id="edge21" class="edge"><title>Node4&#45;&gt;Node13</title>
<path fill="none" stroke="#9a32cd" stroke-dasharray="5,2" d="M496.58,-389.72C484.372,-375.502 467.124,-354.254 454.5,-334 426.847,-289.632 415.124,-278.972 403.5,-228 384.649,-145.34 359.688,-97.0749 420.5,-38 430.88,-27.9167 521.977,-17.8105 567.223,-13.358"/>
<polygon fill="#9a32cd" stroke="#9a32cd" points="494.233,-392.354 503.442,-397.591 499.509,-387.754 494.233,-392.354"/>
<text text-anchor="middle" x="437" y="-187" font-family="Helvetica,sans-Serif" font-size="10.00"> right_boundary</text>
<text text-anchor="middle" x="437" y="-176" font-family="Helvetica,sans-Serif" font-size="10.00">blockSize</text>
<text text-anchor="middle" x="437" y="-165" font-family="Helvetica,sans-Serif" font-size="10.00">left_boundary</text>
</g>
<!-- Node5&#45;&gt;Node2 -->
<g id="edge5" class="edge"><title>Node5&#45;&gt;Node2</title>
<path fill="none" stroke="#9a32cd" stroke-dasharray="5,2" d="M230.275,-21.4534C247.95,-25.6177 267.345,-31.0935 284.5,-38 311.655,-48.9324 313.769,-61.6258 341.5,-71 402.141,-91.4989 476.86,-97.1686 521.484,-98.6332"/>
<polygon fill="#9a32cd" stroke="#9a32cd" points="230.623,-17.9437 220.097,-19.1522 229.079,-24.7714 230.623,-17.9437"/>
<text text-anchor="middle" x="381" y="-52" font-family="Helvetica,sans-Serif" font-size="10.00"> SequencesMatrix</text>
</g>
<!-- Node6 -->
<g id="node6" class="node"><title>Node6</title>
<g id="a_node6"><a xlink:title="STL class. ">
<polygon fill="white" stroke="#bfbfbf" points="17.5,-280.5 17.5,-299.5 77.5,-299.5 77.5,-280.5 17.5,-280.5"/>
<text text-anchor="middle" x="47.5" y="-287.5" font-family="Helvetica,sans-Serif" font-size="10.00">std::string</text>
</a>
</g>
</g>
<!-- Node6&#45;&gt;Node2 -->
<g id="edge24" class="edge"><title>Node6&#45;&gt;Node2</title>
<path fill="none" stroke="#9a32cd" stroke-dasharray="5,2" d="M87.5731,-279.285C115.44,-270.471 151.264,-254.665 172.5,-228 200.641,-192.665 161.23,-158.429 195.5,-129 219.789,-108.142 431.974,-102.772 521.218,-101.431"/>
<polygon fill="#9a32cd" stroke="#9a32cd" points="86.2929,-276.015 77.7081,-282.224 88.2912,-282.723 86.2929,-276.015"/>
<text text-anchor="middle" x="221" y="-198" font-family="Helvetica,sans-Serif" font-size="10.00"> seqsName</text>
<text text-anchor="middle" x="221" y="-187" font-family="Helvetica,sans-Serif" font-size="10.00">seqsInfo</text>
<text text-anchor="middle" x="221" y="-176" font-family="Helvetica,sans-Serif" font-size="10.00">sequences</text>
<text text-anchor="middle" x="221" y="-165" font-family="Helvetica,sans-Serif" font-size="10.00">aligInfo</text>
<text text-anchor="middle" x="221" y="-154" font-family="Helvetica,sans-Serif" font-size="10.00">filename</text>
</g>
<!-- Node6&#45;&gt;Node5 -->
<g id="edge8" class="edge"><title>Node6&#45;&gt;Node5</title>
<path fill="none" stroke="#9a32cd" stroke-dasharray="5,2" d="M43.223,-269.897C35.9552,-233.142 24.3746,-150.758 50.5,-89 66.5024,-51.1717 111.664,-30.0294 142.826,-19.575"/>
<polygon fill="#9a32cd" stroke="#9a32cd" points="39.8946,-271.078 45.3778,-280.143 46.7448,-269.637 39.8946,-271.078"/>
<text text-anchor="middle" x="76" y="-97.5" font-family="Helvetica,sans-Serif" font-size="10.00"> seqsName</text>
</g>
<!-- Node7 -->
<g id="node7" class="node"><title>Node7</title>
<g id="a_node7"><a xlink:title="STL class. ">
<polygon fill="white" stroke="#bfbfbf" points="0,-392.5 0,-422.5 95,-422.5 95,-392.5 0,-392.5"/>
<text text-anchor="start" x="8" y="-410.5" font-family="Helvetica,sans-Serif" font-size="10.00">std::basic_string&lt;</text>
<text text-anchor="middle" x="47.5" y="-399.5" font-family="Helvetica,sans-Serif" font-size="10.00"> char &gt;</text>
</a>
</g>
</g>
<!-- Node7&#45;&gt;Node6 -->
<g id="edge9" class="edge"><title>Node7&#45;&gt;Node6</title>
<path fill="none" stroke="midnightblue" d="M47.5,-382.215C47.5,-356.408 47.5,-316.987 47.5,-299.669"/>
<polygon fill="midnightblue" stroke="midnightblue" points="44.0001,-382.337 47.5,-392.337 51.0001,-382.337 44.0001,-382.337"/>
</g>
<!-- Node8 -->
<g id="node8" class="node"><title>Node8</title>
<polygon fill="white" stroke="#bfbfbf" points="825,-280.5 825,-299.5 860,-299.5 860,-280.5 825,-280.5"/>
<text text-anchor="middle" x="842.5" y="-287.5" font-family="Helvetica,sans-Serif" font-size="10.00">float</text>
</g>
<!-- Node8&#45;&gt;Node2 -->
<g id="edge10" class="edge"><title>Node8&#45;&gt;Node2</title>
<path fill="none" stroke="#9a32cd" stroke-dasharray="5,2" d="M828.393,-272.288C795.256,-233.202 714.002,-138.406 697.5,-129 667.446,-111.869 628.401,-105.134 599.687,-102.529"/>
<polygon fill="#9a32cd" stroke="#9a32cd" points="825.906,-274.766 835.037,-280.139 831.249,-270.245 825.906,-274.766"/>
<text text-anchor="middle" x="812" y="-181.5" font-family="Helvetica,sans-Serif" font-size="10.00"> identities</text>
<text text-anchor="middle" x="812" y="-170.5" font-family="Helvetica,sans-Serif" font-size="10.00">overlaps</text>
</g>
<!-- Node8&#45;&gt;Node12 -->
<g id="edge17" class="edge"><title>Node8&#45;&gt;Node12</title>
<path fill="none" stroke="#9a32cd" stroke-dasharray="5,2" d="M839.633,-270.446C835.687,-237.698 832.599,-169.307 867.5,-129 874.263,-121.19 896.117,-114.331 916.713,-109.357"/>
<polygon fill="#9a32cd" stroke="#9a32cd" points="836.177,-271.007 841.004,-280.438 843.112,-270.055 836.177,-271.007"/>
<text text-anchor="middle" x="885.5" y="-181.5" font-family="Helvetica,sans-Serif" font-size="10.00"> distMat</text>
<text text-anchor="middle" x="885.5" y="-170.5" font-family="Helvetica,sans-Serif" font-size="10.00">simMat</text>
</g>
<!-- Node9&#45;&gt;Node2 -->
<g id="edge11" class="edge"><title>Node9&#45;&gt;Node2</title>
<path fill="none" stroke="#9a32cd" stroke-dasharray="5,2" d="M879.356,-22.7318C865.188,-27.2666 849.031,-32.6483 834.5,-38 798.408,-51.2921 791.596,-60.8416 754.5,-71 701.986,-85.3804 639.333,-92.7228 599.729,-96.2074"/>
<polygon fill="#9a32cd" stroke="#9a32cd" points="880.794,-25.948 889.27,-19.592 878.68,-19.2747 880.794,-25.948"/>
<text text-anchor="middle" x="849.5" y="-52" font-family="Helvetica,sans-Serif" font-size="10.00"> scons</text>
</g>
<!-- Node10 -->
<g id="node10" class="node"><title>Node10</title>
<polygon fill="white" stroke="#bfbfbf" points="856.5,-90.5 856.5,-109.5 898.5,-109.5 898.5,-90.5 856.5,-90.5"/>
<text text-anchor="middle" x="877.5" y="-97.5" font-family="Helvetica,sans-Serif" font-size="10.00">float *</text>
</g>
<!-- Node10&#45;&gt;Node9 -->
<g id="edge13" class="edge"><title>Node10&#45;&gt;Node9</title>
<path fill="none" stroke="#9a32cd" stroke-dasharray="5,2" d="M871.258,-80.5489C868.1,-67.8039 866.284,-50.8936 873.5,-38 878.052,-29.8661 886.167,-23.885 894.199,-19.6499"/>
<polygon fill="#9a32cd" stroke="#9a32cd" points="867.998,-81.8704 874.185,-90.4712 874.712,-79.8895 867.998,-81.8704"/>
<text text-anchor="middle" x="907" y="-63" font-family="Helvetica,sans-Serif" font-size="10.00"> MDK_Window</text>
<text text-anchor="middle" x="907" y="-52" font-family="Helvetica,sans-Serif" font-size="10.00">Q</text>
<text text-anchor="middle" x="907" y="-41" font-family="Helvetica,sans-Serif" font-size="10.00">MDK</text>
</g>
<!-- Node11 -->
<g id="node11" class="node"><title>Node11</title>
<polygon fill="white" stroke="#bfbfbf" points="1018.5,-90.5 1018.5,-109.5 1064.5,-109.5 1064.5,-90.5 1018.5,-90.5"/>
<text text-anchor="middle" x="1041.5" y="-97.5" font-family="Helvetica,sans-Serif" font-size="10.00">float **</text>
</g>
<!-- Node11&#45;&gt;Node9 -->
<g id="edge15" class="edge"><title>Node11&#45;&gt;Node9</title>
<path fill="none" stroke="#9a32cd" stroke-dasharray="5,2" d="M1034.02,-80.8093C1027.55,-67.2026 1016.96,-49.1015 1002.5,-38 991.447,-29.5139 977.66,-23.6575 964.427,-19.6307"/>
<polygon fill="#9a32cd" stroke="#9a32cd" points="1030.91,-82.4222 1038.16,-90.1479 1037.31,-79.5872 1030.91,-82.4222"/>
<text text-anchor="middle" x="1059" y="-52" font-family="Helvetica,sans-Serif" font-size="10.00"> matrixIdentity</text>
</g>
<!-- Node12&#45;&gt;Node9 -->
<g id="edge16" class="edge"><title>Node12&#45;&gt;Node9</title>
<path fill="none" stroke="#9a32cd" stroke-dasharray="5,2" d="M955.073,-80.1376C952.302,-67.6636 947.665,-51.2326 940.5,-38 936.864,-31.2855 931.355,-24.741 926.639,-19.7771"/>
<polygon fill="#9a32cd" stroke="#9a32cd" points="951.709,-81.1618 957.111,-90.2756 958.571,-79.7819 951.709,-81.1618"/>
<text text-anchor="middle" x="975.5" y="-52" font-family="Helvetica,sans-Serif" font-size="10.00"> simMatrix</text>
</g>
<!-- Node13&#45;&gt;Node2 -->
<g id="edge19" class="edge"><title>Node13&#45;&gt;Node2</title>
<path fill="none" stroke="#9a32cd" stroke-dasharray="5,2" d="M570.066,-26.3203C566.607,-29.7411 563.518,-33.6601 561.5,-38 553.55,-55.0949 556.172,-77.9082 558.508,-90.2231"/>
<polygon fill="#9a32cd" stroke="#9a32cd" points="572.575,-28.7824 577.959,-19.6576 568.06,-23.4333 572.575,-28.7824"/>
<text text-anchor="middle" x="582.5" y="-52" font-family="Helvetica,sans-Serif" font-size="10.00"> Cleaning</text>
</g>
<!-- Node14 -->
<g id="node14" class="node"><title>Node14</title>
<polygon fill="white" stroke="#bfbfbf" points="751,-280.5 751,-299.5 786,-299.5 786,-280.5 751,-280.5"/>
<text text-anchor="middle" x="768.5" y="-287.5" font-family="Helvetica,sans-Serif" font-size="10.00">bool</text>
</g>
<!-- Node14&#45;&gt;Node2 -->
<g id="edge25" class="edge"><title>Node14&#45;&gt;Node2</title>
<path fill="none" stroke="#9a32cd" stroke-dasharray="5,2" d="M756.066,-272.34C748.472,-263.284 738.022,-252.614 726.5,-246 697.893,-229.58 677.628,-251.518 654.5,-228 622.827,-195.793 661.003,-163.206 631.5,-129 623.279,-119.468 611.381,-113.155 599.669,-108.984"/>
<polygon fill="#9a32cd" stroke="#9a32cd" points="753.457,-274.684 762.413,-280.344 758.942,-270.334 753.457,-274.684"/>
<text text-anchor="middle" x="676" y="-176" font-family="Helvetica,sans-Serif" font-size="10.00"> isAligned</text>
</g>
<!-- Node14&#45;&gt;Node13 -->
<g id="edge22" class="edge"><title>Node14&#45;&gt;Node13</title>
<path fill="none" stroke="#9a32cd" stroke-dasharray="5,2" d="M770.183,-270.185C774.444,-217.616 783.197,-70.8948 751.5,-38 733.432,-19.2491 657.684,-13.4925 617.61,-11.7463"/>
<polygon fill="#9a32cd" stroke="#9a32cd" points="766.674,-270.145 769.312,-280.406 773.648,-270.739 766.674,-270.145"/>
<text text-anchor="middle" x="809" y="-103" font-family="Helvetica,sans-Serif" font-size="10.00"> keepSequences</text>
<text text-anchor="middle" x="809" y="-92" font-family="Helvetica,sans-Serif" font-size="10.00">terminalGapOnly</text>
</g>
</g>
</svg>
