<?xml version="1.0" encoding="UTF-8" standalone="no"?>
<!DOCTYPE svg PUBLIC "-//W3C//DTD SVG 1.1//EN"
 "http://www.w3.org/Graphics/SVG/1.1/DTD/svg11.dtd">
<!-- Generated by graphviz version 2.40.1 (20161225.0304)
 -->
<!-- Title: Cleaner::cleanSpuriousSeq Pages: 1 -->
<svg width="890pt" height="39pt"
 viewBox="0.00 0.00 890.00 39.00" xmlns="http://www.w3.org/2000/svg" xmlns:xlink="http://www.w3.org/1999/xlink">
<g id="graph0" class="graph" transform="scale(1 1) rotate(0) translate(4 35)">
<title>Cleaner::cleanSpuriousSeq</title>
<polygon fill="#ffffff" stroke="transparent" points="-4,4 -4,-35 886,-35 886,4 -4,4"/>
<!-- Node420 -->
<g id="node1" class="node">
<title>Node420</title>
<polygon fill="#bfbfbf" stroke="#000000" points="0,-6 0,-25 135,-25 135,-6 0,-6"/>
<text text-anchor="middle" x="67.5" y="-13" font-family="Helvetica,sans-Serif" font-size="10.00" fill="#000000">Cleaner::cleanSpuriousSeq</text>
</g>
<!-- Node421 -->
<g id="node2" class="node">
<title>Node421</title>
<g id="a_node2"><a xlink:href="classtrim_al_manager.html#a10536f715945a1a45f1df33f7cedc81e" target="_top" xlink:title="Method to trim or reduce the number of sequences in an alignment. It performs one or none of the foll...">
<polygon fill="#ffffff" stroke="#000000" points="171,-6 171,-25 331,-25 331,-6 171,-6"/>
<text text-anchor="middle" x="251" y="-13" font-family="Helvetica,sans-Serif" font-size="10.00" fill="#000000">trimAlManager::CleanSequences</text>
</a>
</g>
</g>
<!-- Node420&#45;&gt;Node421 -->
<g id="edge1" class="edge">
<title>Node420&#45;&gt;Node421</title>
<path fill="none" stroke="#191970" d="M145.27,-15.5C153.7336,-15.5 162.3597,-15.5 170.851,-15.5"/>
<polygon fill="#191970" stroke="#191970" points="145.0469,-12.0001 135.0469,-15.5 145.0468,-19.0001 145.0469,-12.0001"/>
</g>
<!-- Node422 -->
<g id="node3" class="node">
<title>Node422</title>
<g id="a_node3"><a xlink:href="classtrim_al_manager.html#adc529dd893ed4e9df6f3ddbd58776068" target="_top" xlink:title="Core Method of the program. This is where almost all cleaning methods are called from. ">
<polygon fill="#ffffff" stroke="#000000" points="367,-.5 367,-30.5 476,-30.5 476,-.5 367,-.5"/>
<text text-anchor="start" x="375" y="-18.5" font-family="Helvetica,sans-Serif" font-size="10.00" fill="#000000">trimAlManager::clean</text>
<text text-anchor="middle" x="421.5" y="-7.5" font-family="Helvetica,sans-Serif" font-size="10.00" fill="#000000">_alignment</text>
</a>
</g>
</g>
<!-- Node421&#45;&gt;Node422 -->
<g id="edge2" class="edge">
<title>Node421&#45;&gt;Node422</title>
<path fill="none" stroke="#191970" d="M341.4703,-15.5C350.1602,-15.5 358.7775,-15.5 366.9593,-15.5"/>
<polygon fill="#191970" stroke="#191970" points="341.2575,-12.0001 331.2574,-15.5 341.2574,-19.0001 341.2575,-12.0001"/>
</g>
<!-- Node423 -->
<g id="node4" class="node">
<title>Node423</title>
<g id="a_node4"><a xlink:href="classtrim_al_manager.html#a7c641a1feff33d401b4ea5c82e989289" target="_top" xlink:title="trimAlManager::innerPerform">
<polygon fill="#ffffff" stroke="#000000" points="512,-6 512,-25 653,-25 653,-6 512,-6"/>
<text text-anchor="middle" x="582.5" y="-13" font-family="Helvetica,sans-Serif" font-size="10.00" fill="#000000">trimAlManager::innerPerform</text>
</a>
</g>
</g>
<!-- Node422&#45;&gt;Node423 -->
<g id="edge3" class="edge">
<title>Node422&#45;&gt;Node423</title>
<path fill="none" stroke="#191970" d="M486.1474,-15.5C494.5802,-15.5 503.2546,-15.5 511.7806,-15.5"/>
<polygon fill="#191970" stroke="#191970" points="486.0073,-12.0001 476.0073,-15.5 486.0072,-19.0001 486.0073,-12.0001"/>
</g>
<!-- Node424 -->
<g id="node5" class="node">
<title>Node424</title>
<g id="a_node5"><a xlink:href="classtrim_al_manager.html#abe8d2841455c644dc9c7d1294b82b00f" target="_top" xlink:title="Method to perform the analysis if all checks have passed. ">
<polygon fill="#ffffff" stroke="#000000" points="689,-6 689,-25 808,-25 808,-6 689,-6"/>
<text text-anchor="middle" x="748.5" y="-13" font-family="Helvetica,sans-Serif" font-size="10.00" fill="#000000">trimAlManager::perform</text>
</a>
</g>
</g>
<!-- Node423&#45;&gt;Node424 -->
<g id="edge4" class="edge">
<title>Node423&#45;&gt;Node424</title>
<path fill="none" stroke="#191970" d="M663.4012,-15.5C671.9677,-15.5 680.564,-15.5 688.8249,-15.5"/>
<polygon fill="#191970" stroke="#191970" points="663.3805,-12.0001 653.3804,-15.5 663.3804,-19.0001 663.3805,-12.0001"/>
</g>
<!-- Node425 -->
<g id="node6" class="node">
<title>Node425</title>
<g id="a_node6"><a xlink:href="trim_al_main_8cpp.html#a0ddf1224851353fc92bfbff6f499fa97" target="_top" xlink:title="main">
<polygon fill="#ffffff" stroke="#000000" points="844,-6 844,-25 882,-25 882,-6 844,-6"/>
<text text-anchor="middle" x="863" y="-13" font-family="Helvetica,sans-Serif" font-size="10.00" fill="#000000">main</text>
</a>
</g>
</g>
<!-- Node424&#45;&gt;Node425 -->
<g id="edge5" class="edge">
<title>Node424&#45;&gt;Node425</title>
<path fill="none" stroke="#191970" d="M818.3198,-15.5C827.6177,-15.5 836.4503,-15.5 843.7697,-15.5"/>
<polygon fill="#191970" stroke="#191970" points="818.0976,-12.0001 808.0976,-15.5 818.0975,-19.0001 818.0976,-12.0001"/>
</g>
</g>
</svg>
