<?xml version="1.0" encoding="UTF-8" standalone="no"?>
<!DOCTYPE svg PUBLIC "-//W3C//DTD SVG 1.1//EN"
 "http://www.w3.org/Graphics/SVG/1.1/DTD/svg11.dtd">
<!-- Generated by graphviz version 2.40.1 (20161225.0304)
 -->
<!-- Title: Cleaner::cleanSpuriousSeq Pages: 1 -->
<svg width="663pt" height="83pt"
 viewBox="0.00 0.00 663.00 83.00" xmlns="http://www.w3.org/2000/svg" xmlns:xlink="http://www.w3.org/1999/xlink">
<g id="graph0" class="graph" transform="scale(1 1) rotate(0) translate(4 79)">
<title>Cleaner::cleanSpuriousSeq</title>
<polygon fill="#ffffff" stroke="transparent" points="-4,4 -4,-79 659,-79 659,4 -4,4"/>
<!-- Node287 -->
<g id="node1" class="node">
<title>Node287</title>
<g id="a_node1"><a xlink:title="Method to remove sequences missaligned with the rest of sequences in the alignment....">
<polygon fill="#bfbfbf" stroke="#000000" points="0,-28 0,-47 135,-47 135,-28 0,-28"/>
<text text-anchor="middle" x="67.5" y="-35" font-family="Helvetica,sans-Serif" font-size="10.00" fill="#000000">Cleaner::cleanSpuriousSeq</text>
</a>
</g>
</g>
<!-- Node288 -->
<g id="node2" class="node">
<title>Node288</title>
<g id="a_node2"><a xlink:href="class_cleaner.html#ab2db8eacfbe545c68fc287c43309e439" target="_top" xlink:title="Method to compute the overlap values. &#160;See Alignment::overlaps.">
<polygon fill="#ffffff" stroke="#000000" points="171,-44.5 171,-74.5 305,-74.5 305,-44.5 171,-44.5"/>
<text text-anchor="start" x="179" y="-62.5" font-family="Helvetica,sans-Serif" font-size="10.00" fill="#000000">Cleaner::calculateSpurious</text>
<text text-anchor="middle" x="238" y="-51.5" font-family="Helvetica,sans-Serif" font-size="10.00" fill="#000000">Vector</text>
</a>
</g>
</g>
<!-- Node287&#45;&gt;Node288 -->
<g id="edge1" class="edge">
<title>Node287&#45;&gt;Node288</title>
<path fill="none" stroke="#191970" d="M135.376,-46.2582C143.7861,-47.3434 152.4318,-48.4589 160.9666,-49.5602"/>
<polygon fill="#191970" stroke="#191970" points="160.5484,-53.0352 170.9141,-50.8438 161.4442,-46.0927 160.5484,-53.0352"/>
</g>
<!-- Node291 -->
<g id="node5" class="node">
<title>Node291</title>
<g id="a_node5"><a xlink:href="class_cleaner.html#abe5d03c820a6bee7935b719b9fc7be60" target="_top" xlink:title="Method to trim an alignment based on a minimum sequence overlap threshold. &#160;The method selects a comb...">
<polygon fill="#ffffff" stroke="#000000" points="172.5,-6 172.5,-25 303.5,-25 303.5,-6 172.5,-6"/>
<text text-anchor="middle" x="238" y="-13" font-family="Helvetica,sans-Serif" font-size="10.00" fill="#000000">Cleaner::cleanOverlapSeq</text>
</a>
</g>
</g>
<!-- Node287&#45;&gt;Node291 -->
<g id="edge4" class="edge">
<title>Node287&#45;&gt;Node291</title>
<path fill="none" stroke="#191970" d="M135.376,-28.7418C144.2149,-27.6013 153.314,-26.4272 162.2711,-25.2715"/>
<polygon fill="#191970" stroke="#191970" points="162.8324,-28.7282 172.3022,-23.9771 161.9365,-21.7857 162.8324,-28.7282"/>
</g>
<!-- Node289 -->
<g id="node3" class="node">
<title>Node289</title>
<g id="a_node3"><a xlink:href="class_alignment.html#a1bc7622776f3935f6cb9d3c895e43a29" target="_top" xlink:title="Alignment type getter. &#160;&#160;See SequenceTypes.">
<polygon fill="#ffffff" stroke="#000000" points="341.5,-50 341.5,-69 486.5,-69 486.5,-50 341.5,-50"/>
<text text-anchor="middle" x="414" y="-57" font-family="Helvetica,sans-Serif" font-size="10.00" fill="#000000">Alignment::getAlignmentType</text>
</a>
</g>
</g>
<!-- Node288&#45;&gt;Node289 -->
<g id="edge2" class="edge">
<title>Node288&#45;&gt;Node289</title>
<path fill="none" stroke="#191970" d="M305.0401,-59.5C313.5584,-59.5 322.3549,-59.5 331.0844,-59.5"/>
<polygon fill="#191970" stroke="#191970" points="331.2808,-63.0001 341.2807,-59.5 331.2807,-56.0001 331.2808,-63.0001"/>
</g>
<!-- Node290 -->
<g id="node4" class="node">
<title>Node290</title>
<g id="a_node4"><a xlink:href="namespaceutils.html#aab52f9515717f06cafd6ab7fe2ebdcef" target="_top" xlink:title="Checks an alignment type.">
<polygon fill="#ffffff" stroke="#000000" points="523,-50 523,-69 655,-69 655,-50 523,-50"/>
<text text-anchor="middle" x="589" y="-57" font-family="Helvetica,sans-Serif" font-size="10.00" fill="#000000">utils::checkAlignmentType</text>
</a>
</g>
</g>
<!-- Node289&#45;&gt;Node290 -->
<g id="edge3" class="edge">
<title>Node289&#45;&gt;Node290</title>
<path fill="none" stroke="#191970" d="M486.6954,-59.5C495.335,-59.5 504.1729,-59.5 512.8589,-59.5"/>
<polygon fill="#191970" stroke="#191970" points="512.9647,-63.0001 522.9647,-59.5 512.9647,-56.0001 512.9647,-63.0001"/>
</g>
<!-- Node292 -->
<g id="node6" class="node">
<title>Node292</title>
<g id="a_node6"><a xlink:href="class_cleaner.html#ada8ad076dd037f00ae3f4fd17762641f" target="_top" xlink:title="Method that identifies and removes columns and sequences composed only by gaps.">
<polygon fill="#ffffff" stroke="#000000" points="341,-.5 341,-30.5 487,-30.5 487,-.5 341,-.5"/>
<text text-anchor="start" x="349" y="-18.5" font-family="Helvetica,sans-Serif" font-size="10.00" fill="#000000">Cleaner::removeAllGapsSeqs</text>
<text text-anchor="middle" x="414" y="-7.5" font-family="Helvetica,sans-Serif" font-size="10.00" fill="#000000">AndCols</text>
</a>
</g>
</g>
<!-- Node291&#45;&gt;Node292 -->
<g id="edge5" class="edge">
<title>Node291&#45;&gt;Node292</title>
<path fill="none" stroke="#191970" d="M303.5359,-15.5C312.341,-15.5 321.4677,-15.5 330.5302,-15.5"/>
<polygon fill="#191970" stroke="#191970" points="330.7142,-19.0001 340.7142,-15.5 330.7141,-12.0001 330.7142,-19.0001"/>
</g>
<!-- Node293 -->
<g id="node7" class="node">
<title>Node293</title>
<g id="a_node7"><a xlink:href="classreporting_1_1report_manager.html#a6d122e673144584e0869bd33b8a5c1c6" target="_top" xlink:title="Method to report an Error. &#160;It will be displayed if Level &#160;is equal or higher to VerboseLevel::ERROR.">
<polygon fill="#ffffff" stroke="#000000" points="528,-.5 528,-30.5 650,-30.5 650,-.5 528,-.5"/>
<text text-anchor="start" x="536" y="-18.5" font-family="Helvetica,sans-Serif" font-size="10.00" fill="#000000">reporting::reportManager</text>
<text text-anchor="middle" x="589" y="-7.5" font-family="Helvetica,sans-Serif" font-size="10.00" fill="#000000">::report</text>
</a>
</g>
</g>
<!-- Node292&#45;&gt;Node293 -->
<g id="edge6" class="edge">
<title>Node292&#45;&gt;Node293</title>
<path fill="none" stroke="#191970" d="M487.2018,-15.5C497.2118,-15.5 507.4785,-15.5 517.4584,-15.5"/>
<polygon fill="#191970" stroke="#191970" points="517.7321,-19.0001 527.732,-15.5 517.732,-12.0001 517.7321,-19.0001"/>
</g>
</g>
</svg>
