<?xml version="1.0" encoding="UTF-8" standalone="no"?>
<!DOCTYPE svg PUBLIC "-//W3C//DTD SVG 1.1//EN"
 "http://www.w3.org/Graphics/SVG/1.1/DTD/svg11.dtd">
<!-- Generated by graphviz version 2.38.0 (20140413.2041)
 -->
<!-- Title: trimAlManager::window_argument Pages: 1 -->
<svg width="279pt" height="78pt"
 viewBox="0.00 0.00 279.00 77.50" xmlns="http://www.w3.org/2000/svg" xmlns:xlink="http://www.w3.org/1999/xlink">
<g id="graph0" class="graph" transform="scale(1 1) rotate(0) translate(4 73.5)">
<title>trimAlManager::window_argument</title>
<polygon fill="white" stroke="none" points="-4,4 -4,-73.5 275,-73.5 275,4 -4,4"/>
<!-- Node588 -->
<g id="node1" class="node"><title>Node588</title>
<polygon fill="#bfbfbf" stroke="black" points="0,-22.5 0,-52.5 119,-52.5 119,-22.5 0,-22.5"/>
<text text-anchor="start" x="8" y="-40.5" font-family="Helvetica,sans-Serif" font-size="10.00">trimAlManager::window</text>
<text text-anchor="middle" x="59.5" y="-29.5" font-family="Helvetica,sans-Serif" font-size="10.00">_argument</text>
</g>
<!-- Node589 -->
<g id="node2" class="node"><title>Node589</title>
<g id="a_node2"><a xlink:href="classutils.html#a32e6bab4fb43b096f983faedeefd0511" target="_top" xlink:title="String&#45;is&#45;number checking. ">
<polygon fill="white" stroke="black" points="171.5,-50 171.5,-69 254.5,-69 254.5,-50 171.5,-50"/>
<text text-anchor="middle" x="213" y="-57" font-family="Helvetica,sans-Serif" font-size="10.00">utils::isNumber</text>
</a>
</g>
</g>
<!-- Node588&#45;&gt;Node589 -->
<g id="edge1" class="edge"><title>Node588&#45;&gt;Node589</title>
<path fill="none" stroke="midnightblue" d="M119.074,-46.0058C133.008,-48.0292 147.76,-50.1715 161.308,-52.1388"/>
<polygon fill="midnightblue" stroke="midnightblue" points="161,-55.6307 171.399,-53.6042 162.006,-48.7034 161,-55.6307"/>
</g>
<!-- Node590 -->
<g id="node3" class="node"><title>Node590</title>
<g id="a_node3"><a xlink:href="class____internal_report_1_1____report_system.html#acd358cbc59625c6e2f47e0b5f825400d" target="_top" xlink:title="Method to report an Error. &#160;It will be displayed if Level &#160;is equal or higher to VerboseLevel::ERROR...">
<polygon fill="white" stroke="black" points="155,-0.5 155,-30.5 271,-30.5 271,-0.5 155,-0.5"/>
<text text-anchor="start" x="163" y="-18.5" font-family="Helvetica,sans-Serif" font-size="10.00">__internalReport::</text>
<text text-anchor="middle" x="213" y="-7.5" font-family="Helvetica,sans-Serif" font-size="10.00">__reportSystem::report</text>
</a>
</g>
</g>
<!-- Node588&#45;&gt;Node590 -->
<g id="edge2" class="edge"><title>Node588&#45;&gt;Node590</title>
<path fill="none" stroke="midnightblue" d="M119.074,-28.9942C127.452,-27.7775 136.127,-26.5179 144.658,-25.2791"/>
<polygon fill="midnightblue" stroke="midnightblue" points="145.186,-28.7392 154.579,-23.8383 144.18,-21.8118 145.186,-28.7392"/>
</g>
</g>
</svg>
