<?xml version="1.0" encoding="UTF-8" standalone="no"?>
<!DOCTYPE svg PUBLIC "-//W3C//DTD SVG 1.1//EN"
 "http://www.w3.org/Graphics/SVG/1.1/DTD/svg11.dtd">
<!-- Generated by graphviz version 2.40.1 (20161225.0304)
 -->
<!-- Title: FormatHandling::FormatManager::FormatManager Pages: 1 -->
<svg width="319pt" height="53pt"
 viewBox="0.00 0.00 319.00 52.50" xmlns="http://www.w3.org/2000/svg" xmlns:xlink="http://www.w3.org/1999/xlink">
<g id="graph0" class="graph" transform="scale(1 1) rotate(0) translate(4 48.5)">
<title>FormatHandling::FormatManager::FormatManager</title>
<polygon fill="#ffffff" stroke="transparent" points="-4,4 -4,-48.5 315,-48.5 315,4 -4,4"/>
<!-- Node2 -->
<g id="node1" class="node">
<title>Node2</title>
<polygon fill="#bfbfbf" stroke="#000000" points="0,-14 0,-44 160,-44 160,-14 0,-14"/>
<text text-anchor="start" x="8" y="-32" font-family="Helvetica,sans-Serif" font-size="10.00" fill="#000000">FormatHandling::FormatManager</text>
<text text-anchor="middle" x="80" y="-21" font-family="Helvetica,sans-Serif" font-size="10.00" fill="#000000">::FormatManager</text>
</g>
<!-- Node3 -->
<g id="node2" class="node">
<title>Node3</title>
<g id="a_node2"><a xlink:href="read_al_main_8cpp.html#a0ddf1224851353fc92bfbff6f499fa97" target="_top" xlink:title="main">
<polygon fill="#ffffff" stroke="#000000" points="273,-19.5 273,-38.5 311,-38.5 311,-19.5 273,-19.5"/>
<text text-anchor="middle" x="292" y="-26.5" font-family="Helvetica,sans-Serif" font-size="10.00" fill="#000000">main</text>
</a>
</g>
</g>
<!-- Node2&#45;&gt;Node3 -->
<g id="edge1" class="edge">
<title>Node2&#45;&gt;Node3</title>
<path fill="none" stroke="#191970" d="M170.2853,-29C208.4005,-29 249.288,-29 272.6421,-29"/>
<polygon fill="#191970" stroke="#191970" points="170.1481,-25.5001 160.1481,-29 170.1481,-32.5001 170.1481,-25.5001"/>
</g>
<!-- Node4 -->
<g id="node3" class="node">
<title>Node4</title>
<g id="a_node3"><a xlink:href="read_al_main_8cpp.html#a2a0e843767aeea4f433a28b9c54f573a" target="_top" xlink:title="menu">
<polygon fill="#ffffff" stroke="#000000" points="196,-.5 196,-19.5 237,-19.5 237,-.5 196,-.5"/>
<text text-anchor="middle" x="216.5" y="-7.5" font-family="Helvetica,sans-Serif" font-size="10.00" fill="#000000">menu</text>
</a>
</g>
</g>
<!-- Node2&#45;&gt;Node4 -->
<g id="edge2" class="edge">
<title>Node2&#45;&gt;Node4</title>
<path fill="none" stroke="#191970" d="M170.2669,-16.4354C179.7482,-15.1156 188.5946,-13.8843 195.9584,-12.8593"/>
<polygon fill="#191970" stroke="#191970" points="169.6141,-12.9924 160.1922,-17.8377 170.5792,-19.9256 169.6141,-12.9924"/>
</g>
<!-- Node4&#45;&gt;Node3 -->
<g id="edge3" class="edge">
<title>Node4&#45;&gt;Node3</title>
<path fill="none" stroke="#191970" d="M247.0455,-17.6869C255.8027,-19.8908 265.0972,-22.2298 272.9482,-24.2055"/>
<polygon fill="#191970" stroke="#191970" points="247.6825,-14.2382 237.1307,-15.1918 245.9742,-21.0265 247.6825,-14.2382"/>
</g>
</g>
</svg>
