<?xml version="1.0" encoding="UTF-8" standalone="no"?>
<!DOCTYPE svg PUBLIC "-//W3C//DTD SVG 1.1//EN"
 "http://www.w3.org/Graphics/SVG/1.1/DTD/svg11.dtd">
<!-- Generated by graphviz version 2.40.1 (20161225.0304)
 -->
<!-- Title: statistics::Consistency::Consistency Pages: 1 -->
<svg width="1570pt" height="458pt"
 viewBox="0.00 0.00 1570.00 457.50" xmlns="http://www.w3.org/2000/svg" xmlns:xlink="http://www.w3.org/1999/xlink">
<g id="graph0" class="graph" transform="scale(1 1) rotate(0) translate(4 453.5)">
<title>statistics::Consistency::Consistency</title>
<polygon fill="#ffffff" stroke="transparent" points="-4,4 -4,-453.5 1566,-453.5 1566,4 -4,4"/>
<!-- Node1 -->
<g id="node1" class="node">
<title>Node1</title>
<polygon fill="#bfbfbf" stroke="#000000" points="0,-158.5 0,-188.5 117,-188.5 117,-158.5 0,-158.5"/>
<text text-anchor="start" x="8" y="-176.5" font-family="Helvetica,sans-Serif" font-size="10.00" fill="#000000">statistics::Consistency</text>
<text text-anchor="middle" x="58.5" y="-165.5" font-family="Helvetica,sans-Serif" font-size="10.00" fill="#000000">::Consistency</text>
</g>
<!-- Node2 -->
<g id="node2" class="node">
<title>Node2</title>
<g id="a_node2"><a xlink:href="classstatistics_1_1_manager.html#aee28602da015edb0880d59ce4c0f855d" target="_top" xlink:title="statistics::Manager\l::Manager">
<polygon fill="#ffffff" stroke="#000000" points="153,-158.5 153,-188.5 253,-188.5 253,-158.5 153,-158.5"/>
<text text-anchor="start" x="161" y="-176.5" font-family="Helvetica,sans-Serif" font-size="10.00" fill="#000000">statistics::Manager</text>
<text text-anchor="middle" x="203" y="-165.5" font-family="Helvetica,sans-Serif" font-size="10.00" fill="#000000">::Manager</text>
</a>
</g>
</g>
<!-- Node1&#45;&gt;Node2 -->
<g id="edge1" class="edge">
<title>Node1&#45;&gt;Node2</title>
<path fill="none" stroke="#191970" d="M127.5292,-173.5C135.9864,-173.5 144.5026,-173.5 152.6131,-173.5"/>
<polygon fill="#191970" stroke="#191970" points="127.2737,-170.0001 117.2737,-173.5 127.2736,-177.0001 127.2737,-170.0001"/>
</g>
<!-- Node3 -->
<g id="node3" class="node">
<title>Node3</title>
<g id="a_node3"><a xlink:href="class_alignment.html#aeeee94970a445f32aa79646c249befef" target="_top" xlink:title="Copy Constructor. &#160;&#160;The copy constructor does not make a copy of all structures present on the origin...">
<polygon fill="#ffffff" stroke="#000000" points="289,-164 289,-183 399,-183 399,-164 289,-164"/>
<text text-anchor="middle" x="344" y="-171" font-family="Helvetica,sans-Serif" font-size="10.00" fill="#000000">Alignment::Alignment</text>
</a>
</g>
</g>
<!-- Node2&#45;&gt;Node3 -->
<g id="edge2" class="edge">
<title>Node2&#45;&gt;Node3</title>
<path fill="none" stroke="#191970" d="M263.2969,-173.5C271.7588,-173.5 280.421,-173.5 288.782,-173.5"/>
<polygon fill="#191970" stroke="#191970" points="263.1084,-170.0001 253.1083,-173.5 263.1083,-177.0001 263.1084,-170.0001"/>
</g>
<!-- Node4 -->
<g id="node4" class="node">
<title>Node4</title>
<g id="a_node4"><a xlink:href="class_cleaner.html#a0e1e26d09055de52208ac74adf93b760" target="_top" xlink:title="Method to clean an alignment. &#160;It removes sequences that fall behind a certain threshold. &#160;The function detects if it would clean too many sequences, and relaxes the threshold until we have enough sequences to achieve the given percentage desired to keep. &#160;To achieve this, the method starts in the middle of the sequence and, alternating sides, adds column one by one. ">
<polygon fill="#ffffff" stroke="#000000" points="437.5,-386.5 437.5,-416.5 569.5,-416.5 569.5,-386.5 437.5,-386.5"/>
<text text-anchor="start" x="445.5" y="-404.5" font-family="Helvetica,sans-Serif" font-size="10.00" fill="#000000">Cleaner::cleanByCutValue</text>
<text text-anchor="middle" x="503.5" y="-393.5" font-family="Helvetica,sans-Serif" font-size="10.00" fill="#000000">FallBehind</text>
</a>
</g>
</g>
<!-- Node3&#45;&gt;Node4 -->
<g id="edge3" class="edge">
<title>Node3&#45;&gt;Node4</title>
<path fill="none" stroke="#191970" d="M348.2697,-192.8941C357.6368,-231.2974 383.3911,-317.7694 435,-369.5 441.8602,-376.3764 450.478,-381.9512 459.2641,-386.4023"/>
<polygon fill="#191970" stroke="#191970" points="351.6438,-191.9511 345.9657,-183.0063 344.8265,-193.5397 351.6438,-191.9511"/>
</g>
<!-- Node13 -->
<g id="node13" class="node">
<title>Node13</title>
<g id="a_node13"><a xlink:href="class_cleaner.html#a13ae2074afb38708bc5cee9489d8ab6f" target="_top" xlink:title="Method to clean an alignment. &#160;It removes sequences that overpass or equals a certain threshold...">
<polygon fill="#ffffff" stroke="#000000" points="437.5,-218.5 437.5,-248.5 569.5,-248.5 569.5,-218.5 437.5,-218.5"/>
<text text-anchor="start" x="445.5" y="-236.5" font-family="Helvetica,sans-Serif" font-size="10.00" fill="#000000">Cleaner::cleanByCutValue</text>
<text text-anchor="middle" x="503.5" y="-225.5" font-family="Helvetica,sans-Serif" font-size="10.00" fill="#000000">Overpass</text>
</a>
</g>
</g>
<!-- Node3&#45;&gt;Node13 -->
<g id="edge13" class="edge">
<title>Node3&#45;&gt;Node13</title>
<path fill="none" stroke="#191970" d="M378.7061,-186.5556C403.6503,-195.939 437.3426,-208.6132 463.4316,-218.4272"/>
<polygon fill="#191970" stroke="#191970" points="379.8653,-183.2522 369.2732,-183.0072 377.4006,-189.804 379.8653,-183.2522"/>
</g>
<!-- Node19 -->
<g id="node19" class="node">
<title>Node19</title>
<g id="a_node19"><a xlink:href="class_cleaner.html#a5afcae6b995a229b59785e4690b25a0f" target="_top" xlink:title="Method to clean an alignment. &#160;It removes sequences that overpass or equals &#160;the gap threshold but &#160;f...">
<polygon fill="#ffffff" stroke="#000000" points="437.5,-329.5 437.5,-359.5 569.5,-359.5 569.5,-329.5 437.5,-329.5"/>
<text text-anchor="start" x="445.5" y="-347.5" font-family="Helvetica,sans-Serif" font-size="10.00" fill="#000000">Cleaner::cleanByCutValue</text>
<text text-anchor="middle" x="503.5" y="-336.5" font-family="Helvetica,sans-Serif" font-size="10.00" fill="#000000">OverpassOrEquals</text>
</a>
</g>
</g>
<!-- Node3&#45;&gt;Node19 -->
<g id="edge24" class="edge">
<title>Node3&#45;&gt;Node19</title>
<path fill="none" stroke="#191970" d="M353.4268,-191.9746C368.011,-219.1946 398.2342,-270.5162 435,-304.5 445.6186,-314.3152 459.0503,-322.8079 471.2011,-329.4119"/>
<polygon fill="#191970" stroke="#191970" points="356.5232,-190.3428 348.7782,-183.1133 350.3244,-193.5947 356.5232,-190.3428"/>
</g>
<!-- Node21 -->
<g id="node21" class="node">
<title>Node21</title>
<g id="a_node21"><a xlink:href="class_cleaner.html#abe5d03c820a6bee7935b719b9fc7be60" target="_top" xlink:title="Method to trim an alignment based on a minimum sequence overlap threshold. &#160;The method selects a comb...">
<polygon fill="#ffffff" stroke="#000000" points="438,-126 438,-145 569,-145 569,-126 438,-126"/>
<text text-anchor="middle" x="503.5" y="-133" font-family="Helvetica,sans-Serif" font-size="10.00" fill="#000000">Cleaner::cleanOverlapSeq</text>
</a>
</g>
</g>
<!-- Node3&#45;&gt;Node21 -->
<g id="edge27" class="edge">
<title>Node3&#45;&gt;Node21</title>
<path fill="none" stroke="#191970" d="M394.234,-161.532C416.5855,-156.2069 442.5383,-150.0238 463.5408,-145.0201"/>
<polygon fill="#191970" stroke="#191970" points="393.1651,-158.1886 384.2486,-163.911 394.7875,-164.998 393.1651,-158.1886"/>
</g>
<!-- Node23 -->
<g id="node23" class="node">
<title>Node23</title>
<g id="a_node23"><a xlink:href="class_cleaner.html#afcc9a3a0759ebdaaa6fa07c0d1702a99" target="_top" xlink:title="Method to clean an alignment. It carries out strict and strictplus. It removes sequences that overpas...">
<polygon fill="#ffffff" stroke="#000000" points="452,-164 452,-183 555,-183 555,-164 452,-164"/>
<text text-anchor="middle" x="503.5" y="-171" font-family="Helvetica,sans-Serif" font-size="10.00" fill="#000000">Cleaner::cleanStrict</text>
</a>
</g>
</g>
<!-- Node3&#45;&gt;Node23 -->
<g id="edge30" class="edge">
<title>Node3&#45;&gt;Node23</title>
<path fill="none" stroke="#191970" d="M409.4631,-173.5C423.554,-173.5 438.26,-173.5 451.7433,-173.5"/>
<polygon fill="#191970" stroke="#191970" points="409.3378,-170.0001 399.3377,-173.5 409.3377,-177.0001 409.3378,-170.0001"/>
</g>
<!-- Node25 -->
<g id="node25" class="node">
<title>Node25</title>
<g id="a_node25"><a xlink:href="class_cleaner.html#a4fd1d8eb883d1a7b271d6d4e1b1df71b" target="_top" xlink:title="Method to select the most representative sequence (the longest one) for each cluster from the input a...">
<polygon fill="#ffffff" stroke="#000000" points="446.5,-88 446.5,-107 560.5,-107 560.5,-88 446.5,-88"/>
<text text-anchor="middle" x="503.5" y="-95" font-family="Helvetica,sans-Serif" font-size="10.00" fill="#000000">Cleaner::getClustering</text>
</a>
</g>
</g>
<!-- Node3&#45;&gt;Node25 -->
<g id="edge33" class="edge">
<title>Node3&#45;&gt;Node25</title>
<path fill="none" stroke="#191970" d="M365.0734,-157.8272C382.9166,-145.1784 409.5781,-127.703 435,-116.5 443.3571,-112.8172 452.6064,-109.6759 461.5338,-107.0708"/>
<polygon fill="#191970" stroke="#191970" points="362.66,-155.2526 356.5996,-163.943 366.7567,-160.9287 362.66,-155.2526"/>
</g>
<!-- Node26 -->
<g id="node26" class="node">
<title>Node26</title>
<g id="a_node26"><a xlink:href="classstatistics_1_1_consistency.html#ae8679e43ec228926ac2844af133cc2d5" target="_top" xlink:title="Method to compare a set of MSA, all containing the same sequences and residues. The number of residue...">
<polygon fill="#ffffff" stroke="#000000" points="621,-.5 621,-30.5 738,-30.5 738,-.5 621,-.5"/>
<text text-anchor="start" x="629" y="-18.5" font-family="Helvetica,sans-Serif" font-size="10.00" fill="#000000">statistics::Consistency</text>
<text text-anchor="middle" x="679.5" y="-7.5" font-family="Helvetica,sans-Serif" font-size="10.00" fill="#000000">::perform</text>
</a>
</g>
</g>
<!-- Node3&#45;&gt;Node26 -->
<g id="edge35" class="edge">
<title>Node3&#45;&gt;Node26</title>
<path fill="none" stroke="#191970" d="M350.9743,-154.2745C362.99,-124.2279 390.6624,-66.856 435,-40.5 491.4845,-6.9234 568.4901,-4.6967 620.8869,-8.2527"/>
<polygon fill="#191970" stroke="#191970" points="347.5579,-153.4094 347.2539,-163.9999 354.0958,-155.9105 347.5579,-153.4094"/>
</g>
<!-- Node29 -->
<g id="node29" class="node">
<title>Node29</title>
<g id="a_node29"><a xlink:href="class_cleaner.html#ac8e92eb8ae8a5caf021801e56cdb9faf" target="_top" xlink:title="Method to remove columns, expressed as ranges. ">
<polygon fill="#ffffff" stroke="#000000" points="439.5,-276 439.5,-295 567.5,-295 567.5,-276 439.5,-276"/>
<text text-anchor="middle" x="503.5" y="-283" font-family="Helvetica,sans-Serif" font-size="10.00" fill="#000000">Cleaner::removeColumns</text>
</a>
</g>
</g>
<!-- Node3&#45;&gt;Node29 -->
<g id="edge39" class="edge">
<title>Node3&#45;&gt;Node29</title>
<path fill="none" stroke="#191970" d="M358.7336,-190.691C375.5774,-209.4622 404.7495,-239.3912 435,-258.5 446.3476,-265.6681 459.9102,-271.4983 471.9619,-275.8822"/>
<polygon fill="#191970" stroke="#191970" points="361.3382,-188.3528 352.1022,-183.1618 356.0852,-192.9795 361.3382,-188.3528"/>
</g>
<!-- Node30 -->
<g id="node30" class="node">
<title>Node30</title>
<g id="a_node30"><a xlink:href="class_cleaner.html#a932af26c56652410dc2a30c553376c0b" target="_top" xlink:title="Method to remove sequences, expressed as ranges. ">
<polygon fill="#ffffff" stroke="#000000" points="435,-50 435,-69 572,-69 572,-50 435,-50"/>
<text text-anchor="middle" x="503.5" y="-57" font-family="Helvetica,sans-Serif" font-size="10.00" fill="#000000">Cleaner::removeSequences</text>
</a>
</g>
</g>
<!-- Node3&#45;&gt;Node30 -->
<g id="edge41" class="edge">
<title>Node3&#45;&gt;Node30</title>
<path fill="none" stroke="#191970" d="M356.4517,-155.5206C372.2649,-134.0368 401.5507,-98.493 435,-78.5 441.4619,-74.6376 448.7336,-71.5371 456.0623,-69.0548"/>
<polygon fill="#191970" stroke="#191970" points="353.5113,-153.615 350.5266,-163.7808 359.1993,-157.6951 353.5113,-153.615"/>
</g>
<!-- Node5 -->
<g id="node5" class="node">
<title>Node5</title>
<g id="a_node5"><a xlink:href="class_cleaner.html#a385f785ecf54bd5e0b07e61325483973" target="_top" xlink:title="Method to trim an alignment based on consistency values obtained from a dataset of alignments...">
<polygon fill="#ffffff" stroke="#000000" points="612,-430 612,-449 747,-449 747,-430 612,-430"/>
<text text-anchor="middle" x="679.5" y="-437" font-family="Helvetica,sans-Serif" font-size="10.00" fill="#000000">Cleaner::cleanCompareFile</text>
</a>
</g>
</g>
<!-- Node4&#45;&gt;Node5 -->
<g id="edge4" class="edge">
<title>Node4&#45;&gt;Node5</title>
<path fill="none" stroke="#191970" d="M579.419,-417.8916C598.4885,-422.0089 618.3294,-426.2927 635.2679,-429.9499"/>
<polygon fill="#191970" stroke="#191970" points="580.0501,-414.4473 569.5366,-415.7579 578.5727,-421.2896 580.0501,-414.4473"/>
</g>
<!-- Node12 -->
<g id="node12" class="node">
<title>Node12</title>
<g id="a_node12"><a xlink:href="class_cleaner.html#a9cdbd6ebf78a284dd065b31319795b0c" target="_top" xlink:title="Method to trim an alignment based on the similarity distribution values. ">
<polygon fill="#ffffff" stroke="#000000" points="611,-392 611,-411 748,-411 748,-392 611,-392"/>
<text text-anchor="middle" x="679.5" y="-399" font-family="Helvetica,sans-Serif" font-size="10.00" fill="#000000">Cleaner::cleanConservation</text>
</a>
</g>
</g>
<!-- Node4&#45;&gt;Node12 -->
<g id="edge11" class="edge">
<title>Node4&#45;&gt;Node12</title>
<path fill="none" stroke="#191970" d="M579.748,-401.5C590.0537,-401.5 600.5784,-401.5 610.743,-401.5"/>
<polygon fill="#191970" stroke="#191970" points="579.5367,-398.0001 569.5366,-401.5 579.5366,-405.0001 579.5367,-398.0001"/>
</g>
<!-- Node6 -->
<g id="node6" class="node">
<title>Node6</title>
<g id="a_node6"><a xlink:href="classtrim_al_manager.html#aebfd21b0435302f0e4fc45a068d1b6ee" target="_top" xlink:title="Method to trim the alignment using non automatic methods: ">
<polygon fill="#ffffff" stroke="#000000" points="797.5,-329.5 797.5,-359.5 949.5,-359.5 949.5,-329.5 797.5,-329.5"/>
<text text-anchor="start" x="805.5" y="-347.5" font-family="Helvetica,sans-Serif" font-size="10.00" fill="#000000">trimAlManager::CleanResidues</text>
<text text-anchor="middle" x="873.5" y="-336.5" font-family="Helvetica,sans-Serif" font-size="10.00" fill="#000000">NonAuto</text>
</a>
</g>
</g>
<!-- Node5&#45;&gt;Node6 -->
<g id="edge5" class="edge">
<title>Node5&#45;&gt;Node6</title>
<path fill="none" stroke="#191970" d="M733.6619,-426.9413C739.5994,-425.0254 745.4853,-422.8806 751,-420.5 789.3738,-403.935 829.812,-376.6401 853.2911,-359.6638"/>
<polygon fill="#191970" stroke="#191970" points="732.242,-423.7136 723.6773,-429.9504 734.2619,-430.4159 732.242,-423.7136"/>
</g>
<!-- Node7 -->
<g id="node7" class="node">
<title>Node7</title>
<g id="a_node7"><a xlink:href="classtrim_al_manager.html#adc529dd893ed4e9df6f3ddbd58776068" target="_top" xlink:title="Core Method of the program. This is where almost all cleaning methods are called from. ">
<polygon fill="#ffffff" stroke="#000000" points="1020,-156.5 1020,-186.5 1129,-186.5 1129,-156.5 1020,-156.5"/>
<text text-anchor="start" x="1028" y="-174.5" font-family="Helvetica,sans-Serif" font-size="10.00" fill="#000000">trimAlManager::clean</text>
<text text-anchor="middle" x="1074.5" y="-163.5" font-family="Helvetica,sans-Serif" font-size="10.00" fill="#000000">_alignment</text>
</a>
</g>
</g>
<!-- Node6&#45;&gt;Node7 -->
<g id="edge6" class="edge">
<title>Node6&#45;&gt;Node7</title>
<path fill="none" stroke="#191970" d="M898.695,-322.8147C940.0232,-287.2437 1021.1864,-217.3869 1056.9115,-186.6384"/>
<polygon fill="#191970" stroke="#191970" points="896.2819,-320.2738 890.9858,-329.45 900.8483,-325.5793 896.2819,-320.2738"/>
</g>
<!-- Node8 -->
<g id="node8" class="node">
<title>Node8</title>
<g id="a_node8"><a xlink:href="classtrim_al_manager.html#a7c641a1feff33d401b4ea5c82e989289" target="_top" xlink:title="trimAlManager::innerPerform">
<polygon fill="#ffffff" stroke="#000000" points="1190.5,-162 1190.5,-181 1331.5,-181 1331.5,-162 1190.5,-162"/>
<text text-anchor="middle" x="1261" y="-169" font-family="Helvetica,sans-Serif" font-size="10.00" fill="#000000">trimAlManager::innerPerform</text>
</a>
</g>
</g>
<!-- Node7&#45;&gt;Node8 -->
<g id="edge7" class="edge">
<title>Node7&#45;&gt;Node8</title>
<path fill="none" stroke="#191970" d="M1139.2727,-171.5C1155.763,-171.5 1173.5676,-171.5 1190.3355,-171.5"/>
<polygon fill="#191970" stroke="#191970" points="1139.196,-168.0001 1129.196,-171.5 1139.196,-175.0001 1139.196,-168.0001"/>
</g>
<!-- Node11 -->
<g id="node11" class="node">
<title>Node11</title>
<g id="a_node11"><a xlink:href="classtrim_al_manager.html#ac5795f93b3a2b51bf5d8dddd63b89f73" target="_top" xlink:title="trimAlManager::perform_VCF">
<polygon fill="#ffffff" stroke="#000000" points="1189,-124 1189,-143 1333,-143 1333,-124 1189,-124"/>
<text text-anchor="middle" x="1261" y="-131" font-family="Helvetica,sans-Serif" font-size="10.00" fill="#000000">trimAlManager::perform_VCF</text>
</a>
</g>
</g>
<!-- Node7&#45;&gt;Node11 -->
<g id="edge10" class="edge">
<title>Node7&#45;&gt;Node11</title>
<path fill="none" stroke="#191970" d="M1139.2059,-158.316C1163.8797,-153.2886 1191.5042,-147.66 1214.1991,-143.0358"/>
<polygon fill="#191970" stroke="#191970" points="1138.2959,-154.9294 1129.196,-160.3555 1139.6935,-161.7885 1138.2959,-154.9294"/>
</g>
<!-- Node9 -->
<g id="node9" class="node">
<title>Node9</title>
<g id="a_node9"><a xlink:href="classtrim_al_manager.html#abe8d2841455c644dc9c7d1294b82b00f" target="_top" xlink:title="Method to perform the analysis if all checks have passed. ">
<polygon fill="#ffffff" stroke="#000000" points="1369,-138 1369,-157 1488,-157 1488,-138 1369,-138"/>
<text text-anchor="middle" x="1428.5" y="-145" font-family="Helvetica,sans-Serif" font-size="10.00" fill="#000000">trimAlManager::perform</text>
</a>
</g>
</g>
<!-- Node8&#45;&gt;Node9 -->
<g id="edge8" class="edge">
<title>Node8&#45;&gt;Node9</title>
<path fill="none" stroke="#191970" d="M1337.6469,-160.5178C1348.1108,-159.0185 1358.7236,-157.4978 1368.8257,-156.0504"/>
<polygon fill="#191970" stroke="#191970" points="1337.0842,-157.0626 1327.6817,-161.9456 1338.0771,-163.9918 1337.0842,-157.0626"/>
</g>
<!-- Node10 -->
<g id="node10" class="node">
<title>Node10</title>
<g id="a_node10"><a xlink:href="trim_al_main_8cpp.html#a0ddf1224851353fc92bfbff6f499fa97" target="_top" xlink:title="main">
<polygon fill="#ffffff" stroke="#000000" points="1524,-100 1524,-119 1562,-119 1562,-100 1524,-100"/>
<text text-anchor="middle" x="1543" y="-107" font-family="Helvetica,sans-Serif" font-size="10.00" fill="#000000">main</text>
</a>
</g>
</g>
<!-- Node9&#45;&gt;Node10 -->
<g id="edge9" class="edge">
<title>Node9&#45;&gt;Node10</title>
<path fill="none" stroke="#191970" d="M1467.046,-134.7074C1486.1493,-128.3675 1508.374,-120.9916 1523.8272,-115.863"/>
<polygon fill="#191970" stroke="#191970" points="1465.7817,-131.4392 1457.3932,-137.911 1467.9866,-138.0829 1465.7817,-131.4392"/>
</g>
<!-- Node12&#45;&gt;Node6 -->
<g id="edge12" class="edge">
<title>Node12&#45;&gt;Node6</title>
<path fill="none" stroke="#191970" d="M726.5038,-389.3041C734.6862,-387.097 743.1025,-384.7732 751,-382.5 776.036,-375.2937 803.7751,-366.737 826.5169,-359.5696"/>
<polygon fill="#191970" stroke="#191970" points="725.4468,-385.9637 716.6897,-391.9271 727.2544,-392.7263 725.4468,-385.9637"/>
</g>
<!-- Node14 -->
<g id="node14" class="node">
<title>Node14</title>
<g id="a_node14"><a xlink:href="class_cleaner.html#aa57106470d2104a925b9396b8a9f33b3" target="_top" xlink:title="Method that carries the gappyout approach. This methods calculates the slope in gaps distribution on ...">
<polygon fill="#ffffff" stroke="#000000" points="619.5,-240 619.5,-259 739.5,-259 739.5,-240 619.5,-240"/>
<text text-anchor="middle" x="679.5" y="-247" font-family="Helvetica,sans-Serif" font-size="10.00" fill="#000000">Cleaner::clean2ndSlope</text>
</a>
</g>
</g>
<!-- Node13&#45;&gt;Node14 -->
<g id="edge14" class="edge">
<title>Node13&#45;&gt;Node14</title>
<path fill="none" stroke="#191970" d="M579.6359,-240.4214C592.9642,-241.6331 606.6622,-242.8784 619.4768,-244.0433"/>
<polygon fill="#191970" stroke="#191970" points="579.8125,-236.9232 569.5366,-239.5033 579.1787,-243.8944 579.8125,-236.9232"/>
</g>
<!-- Node16 -->
<g id="node16" class="node">
<title>Node16</title>
<g id="a_node16"><a xlink:href="class_cleaner.html#af7c9e1a177424168fa4214aca9ebd8e2" target="_top" xlink:title="Method to trim an alignment based on the gap distribution values. Column blocks that don&#39;t have a min...">
<polygon fill="#ffffff" stroke="#000000" points="628,-278 628,-297 731,-297 731,-278 628,-278"/>
<text text-anchor="middle" x="679.5" y="-285" font-family="Helvetica,sans-Serif" font-size="10.00" fill="#000000">Cleaner::cleanGaps</text>
</a>
</g>
</g>
<!-- Node13&#45;&gt;Node16 -->
<g id="edge17" class="edge">
<title>Node13&#45;&gt;Node16</title>
<path fill="none" stroke="#191970" d="M555.8074,-251.743C572.4232,-257.3431 590.9189,-263.3756 608,-268.5 618.9491,-271.7847 630.9269,-275.082 641.8949,-277.986"/>
<polygon fill="#191970" stroke="#191970" points="556.8607,-248.4044 546.2663,-248.5058 554.6115,-255.0333 556.8607,-248.4044"/>
</g>
<!-- Node17 -->
<g id="node17" class="node">
<title>Node17</title>
<g id="a_node17"><a xlink:href="class_cleaner.html#a3af7bde2142886d6d723c95694b7b9ba" target="_top" xlink:title="Method to remove columns composed only by gaps This method is specially useful when we remove missali...">
<polygon fill="#ffffff" stroke="#000000" points="616,-202 616,-221 743,-221 743,-202 616,-202"/>
<text text-anchor="middle" x="679.5" y="-209" font-family="Helvetica,sans-Serif" font-size="10.00" fill="#000000">Cleaner::cleanNoAllGaps</text>
</a>
</g>
</g>
<!-- Node13&#45;&gt;Node17 -->
<g id="edge20" class="edge">
<title>Node13&#45;&gt;Node17</title>
<path fill="none" stroke="#191970" d="M579.5706,-223.9912C591.6253,-222.4843 603.9842,-220.9395 615.7199,-219.4725"/>
<polygon fill="#191970" stroke="#191970" points="579.0253,-220.532 569.5366,-225.2454 579.8936,-227.478 579.0253,-220.532"/>
</g>
<!-- Node15 -->
<g id="node15" class="node">
<title>Node15</title>
<g id="a_node15"><a xlink:href="classtrim_al_manager.html#a69082911b30a1bd12395bb235bc18a34" target="_top" xlink:title="Method to trim the alignment using automatic or semi&#45;automatic methods: ">
<polygon fill="#ffffff" stroke="#000000" points="787,-202 787,-221 960,-221 960,-202 787,-202"/>
<text text-anchor="middle" x="873.5" y="-209" font-family="Helvetica,sans-Serif" font-size="10.00" fill="#000000">trimAlManager::CleanResiduesAuto</text>
</a>
</g>
</g>
<!-- Node14&#45;&gt;Node15 -->
<g id="edge15" class="edge">
<title>Node14&#45;&gt;Node15</title>
<path fill="none" stroke="#191970" d="M738.4052,-237.9619C766.0751,-232.542 798.6619,-226.159 824.8976,-221.0201"/>
<polygon fill="#191970" stroke="#191970" points="737.5951,-234.554 728.4544,-239.911 738.9407,-241.4234 737.5951,-234.554"/>
</g>
<!-- Node15&#45;&gt;Node7 -->
<g id="edge16" class="edge">
<title>Node15&#45;&gt;Node7</title>
<path fill="none" stroke="#191970" d="M931.3887,-199.9799C959.2446,-194.4364 992.4607,-187.8262 1019.8771,-182.3702"/>
<polygon fill="#191970" stroke="#191970" points="930.5137,-196.5853 921.3891,-201.9698 931.88,-203.4507 930.5137,-196.5853"/>
</g>
<!-- Node16&#45;&gt;Node6 -->
<g id="edge19" class="edge">
<title>Node16&#45;&gt;Node6</title>
<path fill="none" stroke="#191970" d="M721.5833,-299.8647C751.153,-308.5527 790.877,-320.2242 822.2879,-329.4532"/>
<polygon fill="#191970" stroke="#191970" points="722.5524,-296.5015 711.9712,-297.0405 720.579,-303.2176 722.5524,-296.5015"/>
</g>
<!-- Node16&#45;&gt;Node15 -->
<g id="edge18" class="edge">
<title>Node16&#45;&gt;Node15</title>
<path fill="none" stroke="#191970" d="M730.456,-275.1401C737.4192,-273.1087 744.4282,-270.8812 751,-268.5 789.3738,-254.5959 832.1751,-233.2601 855.6576,-221.0184"/>
<polygon fill="#191970" stroke="#191970" points="729.0292,-271.9049 720.343,-277.9712 730.9163,-278.6457 729.0292,-271.9049"/>
</g>
<!-- Node17&#45;&gt;Node15 -->
<g id="edge21" class="edge">
<title>Node17&#45;&gt;Node15</title>
<path fill="none" stroke="#191970" d="M753.0483,-211.5C764.1171,-211.5 775.6193,-211.5 786.9301,-211.5"/>
<polygon fill="#191970" stroke="#191970" points="753.0229,-208.0001 743.0229,-211.5 753.0228,-215.0001 753.0229,-208.0001"/>
</g>
<!-- Node18 -->
<g id="node18" class="node">
<title>Node18</title>
<g id="a_node18"><a xlink:href="classtrim_al_manager.html#a10536f715945a1a45f1df33f7cedc81e" target="_top" xlink:title="Method to trim or reduce the number of sequences in an alignment. It performs one or none of the foll...">
<polygon fill="#ffffff" stroke="#000000" points="793.5,-126 793.5,-145 953.5,-145 953.5,-126 793.5,-126"/>
<text text-anchor="middle" x="873.5" y="-133" font-family="Helvetica,sans-Serif" font-size="10.00" fill="#000000">trimAlManager::CleanSequences</text>
</a>
</g>
</g>
<!-- Node17&#45;&gt;Node18 -->
<g id="edge22" class="edge">
<title>Node17&#45;&gt;Node18</title>
<path fill="none" stroke="#191970" d="M730.456,-199.1401C737.4192,-197.1087 744.4282,-194.8812 751,-192.5 789.3738,-178.5959 832.1751,-157.2601 855.6576,-145.0184"/>
<polygon fill="#191970" stroke="#191970" points="729.0292,-195.9049 720.343,-201.9712 730.9163,-202.6457 729.0292,-195.9049"/>
</g>
<!-- Node18&#45;&gt;Node7 -->
<g id="edge23" class="edge">
<title>Node18&#45;&gt;Node7</title>
<path fill="none" stroke="#191970" d="M936.5756,-146.7971C963.2477,-151.5742 994.0225,-157.0861 1019.7258,-161.6897"/>
<polygon fill="#191970" stroke="#191970" points="937.0337,-143.3236 926.5733,-145.0057 935.7996,-150.2139 937.0337,-143.3236"/>
</g>
<!-- Node20 -->
<g id="node20" class="node">
<title>Node20</title>
<g id="a_node20"><a xlink:href="class_cleaner.html#a4718e31c0183b5a98751d77479faacf0" target="_top" xlink:title="Method to trim an alignment based on the similarity and gaps distribution values. ...">
<polygon fill="#ffffff" stroke="#000000" points="639.5,-354 639.5,-373 719.5,-373 719.5,-354 639.5,-354"/>
<text text-anchor="middle" x="679.5" y="-361" font-family="Helvetica,sans-Serif" font-size="10.00" fill="#000000">Cleaner::clean</text>
</a>
</g>
</g>
<!-- Node19&#45;&gt;Node20 -->
<g id="edge25" class="edge">
<title>Node19&#45;&gt;Node20</title>
<path fill="none" stroke="#191970" d="M579.566,-352.7117C600.1831,-354.9374 621.6907,-357.2592 639.4485,-359.1763"/>
<polygon fill="#191970" stroke="#191970" points="579.8546,-349.2226 569.5366,-351.629 579.1032,-356.1821 579.8546,-349.2226"/>
</g>
<!-- Node20&#45;&gt;Node6 -->
<g id="edge26" class="edge">
<title>Node20&#45;&gt;Node6</title>
<path fill="none" stroke="#191970" d="M729.7838,-358.5753C750.3575,-356.5603 774.6146,-354.1846 797.2829,-351.9646"/>
<polygon fill="#191970" stroke="#191970" points="729.3081,-355.105 719.6969,-359.5632 729.9905,-362.0717 729.3081,-355.105"/>
</g>
<!-- Node22 -->
<g id="node22" class="node">
<title>Node22</title>
<g id="a_node22"><a xlink:href="class_cleaner.html#a5ceceb5b637a6d4e6a13c3b5d8d76c1d" target="_top" xlink:title="Method to remove sequences missaligned with the rest of sequences in the alignment. &#160;For each residue in the sequence, it tests it&#39;s similarity. If the similarity of that residue is higher than overlapColumn value, it counts as a hit for the sequence. After calculating the number of hits for the sequence, it removes the sequence if it has a proportion hits/residues lower tan minimumOverlap. ">
<polygon fill="#ffffff" stroke="#000000" points="612,-126 612,-145 747,-145 747,-126 612,-126"/>
<text text-anchor="middle" x="679.5" y="-133" font-family="Helvetica,sans-Serif" font-size="10.00" fill="#000000">Cleaner::cleanSpuriousSeq</text>
</a>
</g>
</g>
<!-- Node21&#45;&gt;Node22 -->
<g id="edge28" class="edge">
<title>Node21&#45;&gt;Node22</title>
<path fill="none" stroke="#191970" d="M579.3108,-135.5C590.1307,-135.5 601.2012,-135.5 611.851,-135.5"/>
<polygon fill="#191970" stroke="#191970" points="579.0359,-132.0001 569.0359,-135.5 579.0359,-139.0001 579.0359,-132.0001"/>
</g>
<!-- Node22&#45;&gt;Node18 -->
<g id="edge29" class="edge">
<title>Node22&#45;&gt;Node18</title>
<path fill="none" stroke="#191970" d="M757.4023,-135.5C769.2873,-135.5 781.5704,-135.5 793.4996,-135.5"/>
<polygon fill="#191970" stroke="#191970" points="757.0795,-132.0001 747.0794,-135.5 757.0794,-139.0001 757.0795,-132.0001"/>
</g>
<!-- Node24 -->
<g id="node24" class="node">
<title>Node24</title>
<g id="a_node24"><a xlink:href="class_cleaner.html#a6727a235afa29f08a50716f28fa5c8fc" target="_top" xlink:title="Method to clean an alignment. It carries out strict and strictplus. The method: ">
<polygon fill="#ffffff" stroke="#000000" points="608,-164 608,-183 751,-183 751,-164 608,-164"/>
<text text-anchor="middle" x="679.5" y="-171" font-family="Helvetica,sans-Serif" font-size="10.00" fill="#000000">Cleaner::cleanCombMethods</text>
</a>
</g>
</g>
<!-- Node23&#45;&gt;Node24 -->
<g id="edge31" class="edge">
<title>Node23&#45;&gt;Node24</title>
<path fill="none" stroke="#191970" d="M565.5909,-173.5C579.2427,-173.5 593.8079,-173.5 607.803,-173.5"/>
<polygon fill="#191970" stroke="#191970" points="565.3539,-170.0001 555.3539,-173.5 565.3538,-177.0001 565.3539,-170.0001"/>
</g>
<!-- Node24&#45;&gt;Node15 -->
<g id="edge32" class="edge">
<title>Node24&#45;&gt;Node15</title>
<path fill="none" stroke="#191970" d="M738.4052,-185.0381C766.0751,-190.458 798.6619,-196.841 824.8976,-201.9799"/>
<polygon fill="#191970" stroke="#191970" points="738.9407,-181.5766 728.4544,-183.089 737.5951,-188.446 738.9407,-181.5766"/>
</g>
<!-- Node25&#45;&gt;Node18 -->
<g id="edge34" class="edge">
<title>Node25&#45;&gt;Node18</title>
<path fill="none" stroke="#191970" d="M570.6504,-101.2479C620.5104,-104.3723 690.1238,-109.453 751,-116.5 773.0203,-119.0491 797.1514,-122.6226 818.1303,-125.9837"/>
<polygon fill="#191970" stroke="#191970" points="570.8324,-97.7525 560.6358,-100.63 570.4013,-104.7393 570.8324,-97.7525"/>
</g>
<!-- Node27 -->
<g id="node27" class="node">
<title>Node27</title>
<g id="a_node27"><a xlink:href="classtrim_al_manager.html#a12b7cef964ef258fe7621da44867c51f" target="_top" xlink:title="Method to check if multiple files comparison has been set correctly. It also perform some calculation...">
<polygon fill="#ffffff" stroke="#000000" points="787.5,-53 787.5,-72 959.5,-72 959.5,-53 787.5,-53"/>
<text text-anchor="middle" x="873.5" y="-60" font-family="Helvetica,sans-Serif" font-size="10.00" fill="#000000">trimAlManager::performCompareset</text>
</a>
</g>
</g>
<!-- Node26&#45;&gt;Node27 -->
<g id="edge36" class="edge">
<title>Node26&#45;&gt;Node27</title>
<path fill="none" stroke="#191970" d="M748.2311,-32.1513C776.9783,-39.1159 809.3551,-46.9597 833.9909,-52.9282"/>
<polygon fill="#191970" stroke="#191970" points="748.7758,-28.6821 738.2329,-29.7291 747.1276,-35.4853 748.7758,-28.6821"/>
</g>
<!-- Node28 -->
<g id="node28" class="node">
<title>Node28</title>
<g id="a_node28"><a xlink:href="classtrim_al_manager.html#af140d97b6071a83930818030ac74b641" target="_top" xlink:title="Method to parse arguments into usable structure in trimal. ">
<polygon fill="#ffffff" stroke="#000000" points="996,-72 996,-91 1153,-91 1153,-72 996,-72"/>
<text text-anchor="middle" x="1074.5" y="-79" font-family="Helvetica,sans-Serif" font-size="10.00" fill="#000000">trimAlManager::parseArguments</text>
</a>
</g>
</g>
<!-- Node27&#45;&gt;Node28 -->
<g id="edge37" class="edge">
<title>Node27&#45;&gt;Node28</title>
<path fill="none" stroke="#191970" d="M969.8268,-71.6055C978.5542,-72.4305 987.3236,-73.2594 995.8711,-74.0674"/>
<polygon fill="#191970" stroke="#191970" points="969.9018,-68.0971 959.6168,-70.6404 969.243,-75.066 969.9018,-68.0971"/>
</g>
<!-- Node28&#45;&gt;Node10 -->
<g id="edge38" class="edge">
<title>Node28&#45;&gt;Node10</title>
<path fill="none" stroke="#191970" d="M1163.2004,-86.8012C1276.1852,-93.5538 1463.9961,-104.7783 1523.9729,-108.3628"/>
<polygon fill="#191970" stroke="#191970" points="1163.3715,-83.3053 1153.1805,-86.2024 1162.9538,-90.2928 1163.3715,-83.3053"/>
</g>
<!-- Node29&#45;&gt;Node6 -->
<g id="edge40" class="edge">
<title>Node29&#45;&gt;Node6</title>
<path fill="none" stroke="#191970" d="M558.3885,-297.1325C574.3531,-300.3524 591.8427,-303.7225 608,-306.5 671.5582,-317.4258 744.0557,-327.652 797.2166,-334.7377"/>
<polygon fill="#191970" stroke="#191970" points="558.6444,-293.6128 548.147,-295.0459 557.2469,-300.4719 558.6444,-293.6128"/>
</g>
<!-- Node30&#45;&gt;Node18 -->
<g id="edge42" class="edge">
<title>Node30&#45;&gt;Node18</title>
<path fill="none" stroke="#191970" d="M582.3754,-70.2195C631.2122,-77.4359 695.0639,-87.9192 751,-100.5 782.9374,-107.6832 818.8902,-118.2588 843.5411,-125.9035"/>
<polygon fill="#191970" stroke="#191970" points="582.5916,-66.714 572.1903,-68.7296 581.5783,-73.6402 582.5916,-66.714"/>
</g>
</g>
</svg>
