<?xml version="1.0" encoding="UTF-8" standalone="no"?>
<!DOCTYPE svg PUBLIC "-//W3C//DTD SVG 1.1//EN"
 "http://www.w3.org/Graphics/SVG/1.1/DTD/svg11.dtd">
<!-- Generated by graphviz version 2.40.1 (20161225.0304)
 -->
<!-- Title: FormatHandling::FormatManager::FormatManager Pages: 1 -->
<svg width="364pt" height="39pt"
 viewBox="0.00 0.00 364.00 39.00" xmlns="http://www.w3.org/2000/svg" xmlns:xlink="http://www.w3.org/1999/xlink">
<g id="graph0" class="graph" transform="scale(1 1) rotate(0) translate(4 35)">
<title>FormatHandling::FormatManager::FormatManager</title>
<polygon fill="#ffffff" stroke="transparent" points="-4,4 -4,-35 360,-35 360,4 -4,4"/>
<!-- Node0 -->
<g id="node1" class="node">
<title>Node0</title>
<g id="a_node1"><a xlink:title=" ">
<polygon fill="#bfbfbf" stroke="#000000" points="0,-.5 0,-30.5 160,-30.5 160,-.5 0,-.5"/>
<text text-anchor="start" x="8" y="-18.5" font-family="Helvetica,sans-Serif" font-size="10.00" fill="#000000">FormatHandling::FormatManager</text>
<text text-anchor="middle" x="80" y="-7.5" font-family="Helvetica,sans-Serif" font-size="10.00" fill="#000000">::FormatManager</text>
</a>
</g>
</g>
<!-- Node1 -->
<g id="node2" class="node">
<title>Node1</title>
<g id="a_node2"><a xlink:href="class_format_handling_1_1_format_manager.html#a5e711329ff62a4a2f80de82dbf211c1c" target="_top" xlink:title="Function that adds a newState to the FormatManager::available_states vector. &#160;This should be called o...">
<polygon fill="#ffffff" stroke="#000000" points="196,-.5 196,-30.5 356,-30.5 356,-.5 196,-.5"/>
<text text-anchor="start" x="204" y="-18.5" font-family="Helvetica,sans-Serif" font-size="10.00" fill="#000000">FormatHandling::FormatManager</text>
<text text-anchor="middle" x="276" y="-7.5" font-family="Helvetica,sans-Serif" font-size="10.00" fill="#000000">::addState</text>
</a>
</g>
</g>
<!-- Node0&#45;&gt;Node1 -->
<g id="edge1" class="edge">
<title>Node0&#45;&gt;Node1</title>
<path fill="none" stroke="#191970" d="M160.0034,-15.5C168.5245,-15.5 177.2335,-15.5 185.8608,-15.5"/>
<polygon fill="#191970" stroke="#191970" points="185.9348,-19.0001 195.9347,-15.5 185.9347,-12.0001 185.9348,-19.0001"/>
</g>
</g>
</svg>
