<?xml version="1.0" encoding="UTF-8" standalone="no"?>
<!DOCTYPE svg PUBLIC "-//W3C//DTD SVG 1.1//EN"
 "http://www.w3.org/Graphics/SVG/1.1/DTD/svg11.dtd">
<!-- Generated by graphviz version 2.38.0 (20140413.2041)
 -->
<!-- Title: VerboseManager Pages: 1 -->
<svg width="740pt" height="337pt"
 viewBox="0.00 0.00 740.00 337.00" xmlns="http://www.w3.org/2000/svg" xmlns:xlink="http://www.w3.org/1999/xlink">
<g id="graph0" class="graph" transform="scale(1 1) rotate(0) translate(4 333)">
<title>VerboseManager</title>
<polygon fill="white" stroke="none" points="-4,4 -4,-333 736,-333 736,4 -4,4"/>
<!-- Node1 -->
<g id="node1" class="node"><title>Node1</title>
<polygon fill="#bfbfbf" stroke="black" points="642,-176.5 642,-195.5 732,-195.5 732,-176.5 642,-176.5"/>
<text text-anchor="middle" x="687" y="-183.5" font-family="Helvetica,sans-Serif" font-size="10.00">VerboseManager</text>
</g>
<!-- Node2 -->
<g id="node2" class="node"><title>Node2</title>
<polygon fill="white" stroke="#bfbfbf" points="379.5,-232 379.5,-262 516.5,-262 516.5,-232 379.5,-232"/>
<text text-anchor="start" x="387.5" y="-250" font-family="Helvetica,sans-Serif" font-size="10.00">std::map&lt; VerboseManager</text>
<text text-anchor="middle" x="448" y="-239" font-family="Helvetica,sans-Serif" font-size="10.00">::ErrorCode, const char *&gt;</text>
</g>
<!-- Node2&#45;&gt;Node1 -->
<g id="edge1" class="edge"><title>Node2&#45;&gt;Node1</title>
<path fill="none" stroke="#9a32cd" stroke-dasharray="5,2" d="M526.87,-234.87C557.486,-229.21 592.726,-221.58 624,-212 638.397,-207.59 654.027,-201.023 665.993,-195.592"/>
<polygon fill="#9a32cd" stroke="#9a32cd" points="525.894,-231.49 516.677,-236.714 527.14,-238.378 525.894,-231.49"/>
<text text-anchor="middle" x="581.5" y="-235" font-family="Helvetica,sans-Serif" font-size="10.00"> ErrorMessages</text>
</g>
<!-- Node3 -->
<g id="node3" class="node"><title>Node3</title>
<polygon fill="white" stroke="#bfbfbf" points="136.5,-158.5 136.5,-177.5 171.5,-177.5 171.5,-158.5 136.5,-158.5"/>
<text text-anchor="middle" x="154" y="-165.5" font-family="Helvetica,sans-Serif" font-size="10.00">char</text>
</g>
<!-- Node3&#45;&gt;Node2 -->
<g id="edge2" class="edge"><title>Node3&#45;&gt;Node2</title>
<path fill="none" stroke="#9a32cd" stroke-dasharray="5,2" d="M168.983,-185.708C180.574,-198.985 198.296,-216.305 218,-225 245.999,-237.356 322.54,-242.803 379.472,-245.184"/>
<polygon fill="#9a32cd" stroke="#9a32cd" points="171.389,-183.129 162.292,-177.698 166.017,-187.616 171.389,-183.129"/>
<text text-anchor="middle" x="287.5" y="-248" font-family="Helvetica,sans-Serif" font-size="10.00"> elements</text>
</g>
<!-- Node9 -->
<g id="node9" class="node"><title>Node9</title>
<polygon fill="white" stroke="#bfbfbf" points="379.5,-144 379.5,-174 516.5,-174 516.5,-144 379.5,-144"/>
<text text-anchor="start" x="387.5" y="-162" font-family="Helvetica,sans-Serif" font-size="10.00">std::map&lt; VerboseManager</text>
<text text-anchor="middle" x="448" y="-151" font-family="Helvetica,sans-Serif" font-size="10.00">::InfoCode, const char *&gt;</text>
</g>
<!-- Node3&#45;&gt;Node9 -->
<g id="edge10" class="edge"><title>Node3&#45;&gt;Node9</title>
<path fill="none" stroke="#9a32cd" stroke-dasharray="5,2" d="M181.802,-167.174C226.24,-165.804 316.492,-163.023 379.295,-161.087"/>
<polygon fill="#9a32cd" stroke="#9a32cd" points="181.423,-163.684 171.536,-167.49 181.639,-170.681 181.423,-163.684"/>
<text text-anchor="middle" x="287.5" y="-170" font-family="Helvetica,sans-Serif" font-size="10.00"> elements</text>
</g>
<!-- Node11 -->
<g id="node11" class="node"><title>Node11</title>
<polygon fill="white" stroke="#bfbfbf" points="375,-49 375,-79 521,-79 521,-49 375,-49"/>
<text text-anchor="start" x="383" y="-67" font-family="Helvetica,sans-Serif" font-size="10.00">std::map&lt; VerboseManager</text>
<text text-anchor="middle" x="448" y="-56" font-family="Helvetica,sans-Serif" font-size="10.00">::WarningCode, const char *&gt;</text>
</g>
<!-- Node3&#45;&gt;Node11 -->
<g id="edge13" class="edge"><title>Node3&#45;&gt;Node11</title>
<path fill="none" stroke="#9a32cd" stroke-dasharray="5,2" d="M181.381,-158.716C192.608,-154.892 205.884,-150.539 218,-147 279.15,-129.137 297.566,-134.937 357,-112 380.129,-103.074 404.877,-89.5553 422.556,-79.1367"/>
<polygon fill="#9a32cd" stroke="#9a32cd" points="180.052,-155.472 171.738,-162.039 182.333,-162.09 180.052,-155.472"/>
<text text-anchor="middle" x="287.5" y="-150" font-family="Helvetica,sans-Serif" font-size="10.00"> elements</text>
</g>
<!-- Node4 -->
<g id="node4" class="node"><title>Node4</title>
<polygon fill="white" stroke="#bfbfbf" points="123.5,-309.5 123.5,-328.5 184.5,-328.5 184.5,-309.5 123.5,-309.5"/>
<text text-anchor="middle" x="154" y="-316.5" font-family="Helvetica,sans-Serif" font-size="10.00">ErrorCode</text>
</g>
<!-- Node4&#45;&gt;Node2 -->
<g id="edge3" class="edge"><title>Node4&#45;&gt;Node2</title>
<path fill="none" stroke="#9a32cd" stroke-dasharray="5,2" d="M195.076,-318.93C236.522,-317.827 302.662,-313.165 357,-296 381.768,-288.176 407.558,-273.339 425.148,-262.032"/>
<polygon fill="#9a32cd" stroke="#9a32cd" points="194.763,-315.435 184.838,-319.143 194.909,-322.434 194.763,-315.435"/>
<text text-anchor="middle" x="287.5" y="-320" font-family="Helvetica,sans-Serif" font-size="10.00"> keys</text>
</g>
<!-- Node5 -->
<g id="node5" class="node"><title>Node5</title>
<g id="a_node5"><a xlink:title="STL class. ">
<polygon fill="white" stroke="#bfbfbf" points="108,-79.5 108,-98.5 200,-98.5 200,-79.5 108,-79.5"/>
<text text-anchor="middle" x="154" y="-86.5" font-family="Helvetica,sans-Serif" font-size="10.00">std::map&lt; K, T &gt;</text>
</a>
</g>
</g>
<!-- Node5&#45;&gt;Node2 -->
<g id="edge4" class="edge"><title>Node5&#45;&gt;Node2</title>
<path fill="none" stroke="orange" stroke-dasharray="5,2" d="M169.057,-106.596C178.23,-118.349 190.263,-134.292 200,-149 208.795,-162.285 204.764,-171.132 218,-180 269.801,-214.705 302.93,-167.948 357,-199 368.256,-205.464 364.439,-214.453 375,-222 380.383,-225.847 386.41,-229.144 392.623,-231.961"/>
<polygon fill="orange" stroke="orange" points="171.626,-104.201 162.686,-98.5154 166.129,-108.535 171.626,-104.201"/>
<text text-anchor="start" x="218" y="-213" font-family="Helvetica,sans-Serif" font-size="10.00"> &lt; VerboseManager::ErrorCode,</text>
<text text-anchor="middle" x="287.5" y="-202" font-family="Helvetica,sans-Serif" font-size="10.00"> const char *&gt;</text>
</g>
<!-- Node5&#45;&gt;Node9 -->
<g id="edge11" class="edge"><title>Node5&#45;&gt;Node9</title>
<path fill="none" stroke="orange" stroke-dasharray="5,2" d="M210.285,-79.9608C251.797,-75.3698 309.432,-73.7323 357,-90 388.297,-100.703 417.277,-127.074 433.502,-143.94"/>
<polygon fill="orange" stroke="orange" points="209.607,-76.517 200.095,-81.1825 210.44,-83.4672 209.607,-76.517"/>
<text text-anchor="start" x="220" y="-104" font-family="Helvetica,sans-Serif" font-size="10.00"> &lt; VerboseManager::InfoCode,</text>
<text text-anchor="middle" x="287.5" y="-93" font-family="Helvetica,sans-Serif" font-size="10.00"> const char *&gt;</text>
</g>
<!-- Node5&#45;&gt;Node11 -->
<g id="edge15" class="edge"><title>Node5&#45;&gt;Node11</title>
<path fill="none" stroke="orange" stroke-dasharray="5,2" d="M172.355,-72.4677C184.194,-62.379 200.796,-50.413 218,-45 277.175,-26.3815 348.953,-37.3919 396.191,-48.9061"/>
<polygon fill="orange" stroke="orange" points="169.763,-70.0897 164.636,-79.3614 174.426,-75.3107 169.763,-70.0897"/>
<text text-anchor="start" x="223.5" y="-59" font-family="Helvetica,sans-Serif" font-size="10.00"> &lt; VerboseManager::Warning</text>
<text text-anchor="middle" x="287.5" y="-48" font-family="Helvetica,sans-Serif" font-size="10.00">Code, const char *&gt;</text>
</g>
<!-- Node6 -->
<g id="node6" class="node"><title>Node6</title>
<polygon fill="white" stroke="#bfbfbf" points="0,-98.5 0,-117.5 29,-117.5 29,-98.5 0,-98.5"/>
<text text-anchor="middle" x="14.5" y="-105.5" font-family="Helvetica,sans-Serif" font-size="10.00">K</text>
</g>
<!-- Node6&#45;&gt;Node5 -->
<g id="edge5" class="edge"><title>Node6&#45;&gt;Node5</title>
<path fill="none" stroke="#9a32cd" stroke-dasharray="5,2" d="M39.2564,-104.717C58.0894,-102.115 84.9541,-98.4027 107.846,-95.2394"/>
<polygon fill="#9a32cd" stroke="#9a32cd" points="38.6135,-101.273 29.1867,-106.109 39.5717,-108.207 38.6135,-101.273"/>
<text text-anchor="middle" x="68.5" y="-107" font-family="Helvetica,sans-Serif" font-size="10.00"> keys</text>
</g>
<!-- Node7 -->
<g id="node7" class="node"><title>Node7</title>
<polygon fill="white" stroke="#bfbfbf" points="0,-60.5 0,-79.5 29,-79.5 29,-60.5 0,-60.5"/>
<text text-anchor="middle" x="14.5" y="-67.5" font-family="Helvetica,sans-Serif" font-size="10.00">T</text>
</g>
<!-- Node7&#45;&gt;Node5 -->
<g id="edge6" class="edge"><title>Node7&#45;&gt;Node5</title>
<path fill="none" stroke="#9a32cd" stroke-dasharray="5,2" d="M39.2564,-73.2827C58.0894,-75.8851 84.9541,-79.5973 107.846,-82.7606"/>
<polygon fill="#9a32cd" stroke="#9a32cd" points="39.5717,-69.7931 29.1867,-71.8913 38.6135,-76.7272 39.5717,-69.7931"/>
<text text-anchor="middle" x="68.5" y="-84" font-family="Helvetica,sans-Serif" font-size="10.00"> elements</text>
</g>
<!-- Node8 -->
<g id="node8" class="node"><title>Node8</title>
<polygon fill="white" stroke="#bfbfbf" points="396.5,-193.5 396.5,-212.5 499.5,-212.5 499.5,-193.5 396.5,-193.5"/>
<text text-anchor="middle" x="448" y="-200.5" font-family="Helvetica,sans-Serif" font-size="10.00">static VerboseLevel</text>
</g>
<!-- Node8&#45;&gt;Node1 -->
<g id="edge7" class="edge"><title>Node8&#45;&gt;Node1</title>
<path fill="none" stroke="#9a32cd" stroke-dasharray="5,2" d="M509.763,-198.642C551.042,-195.681 604.693,-191.832 641.904,-189.163"/>
<polygon fill="#9a32cd" stroke="#9a32cd" points="509.276,-195.167 499.552,-199.374 509.777,-202.149 509.276,-195.167"/>
<text text-anchor="middle" x="581.5" y="-200" font-family="Helvetica,sans-Serif" font-size="10.00"> Level</text>
</g>
<!-- Node9&#45;&gt;Node1 -->
<g id="edge8" class="edge"><title>Node9&#45;&gt;Node1</title>
<path fill="none" stroke="#9a32cd" stroke-dasharray="5,2" d="M526.941,-165.51C557.283,-168.322 592.313,-171.91 624,-176 629.731,-176.74 635.747,-177.602 641.683,-178.504"/>
<polygon fill="#9a32cd" stroke="#9a32cd" points="527.119,-162.012 516.842,-164.587 526.482,-168.983 527.119,-162.012"/>
<text text-anchor="middle" x="581.5" y="-179" font-family="Helvetica,sans-Serif" font-size="10.00"> InfoMessages</text>
</g>
<!-- Node10 -->
<g id="node10" class="node"><title>Node10</title>
<polygon fill="white" stroke="#bfbfbf" points="126,-271.5 126,-290.5 182,-290.5 182,-271.5 126,-271.5"/>
<text text-anchor="middle" x="154" y="-278.5" font-family="Helvetica,sans-Serif" font-size="10.00">InfoCode</text>
</g>
<!-- Node10&#45;&gt;Node9 -->
<g id="edge9" class="edge"><title>Node10&#45;&gt;Node9</title>
<path fill="none" stroke="#9a32cd" stroke-dasharray="5,2" d="M192.203,-279.242C247.165,-276.304 344.905,-269.648 357,-259 382.73,-236.348 351.985,-209.405 375,-184 378.465,-180.175 382.545,-176.936 386.972,-174.192"/>
<polygon fill="#9a32cd" stroke="#9a32cd" points="191.949,-275.75 182.143,-279.763 192.311,-282.741 191.949,-275.75"/>
<text text-anchor="middle" x="287.5" y="-281" font-family="Helvetica,sans-Serif" font-size="10.00"> keys</text>
</g>
<!-- Node11&#45;&gt;Node1 -->
<g id="edge12" class="edge"><title>Node11&#45;&gt;Node1</title>
<path fill="none" stroke="#9a32cd" stroke-dasharray="5,2" d="M488.933,-83.5751C524.538,-101.149 577.988,-127.825 624,-152 639.323,-160.051 656.575,-169.547 668.983,-176.455"/>
<polygon fill="#9a32cd" stroke="#9a32cd" points="490.35,-80.3718 479.833,-79.0903 487.256,-86.6506 490.35,-80.3718"/>
<text text-anchor="middle" x="581.5" y="-155" font-family="Helvetica,sans-Serif" font-size="10.00"> WarningMessages</text>
</g>
<!-- Node12 -->
<g id="node12" class="node"><title>Node12</title>
<polygon fill="white" stroke="#bfbfbf" points="116,-0.5 116,-19.5 192,-19.5 192,-0.5 116,-0.5"/>
<text text-anchor="middle" x="154" y="-7.5" font-family="Helvetica,sans-Serif" font-size="10.00">WarningCode</text>
</g>
<!-- Node12&#45;&gt;Node11 -->
<g id="edge14" class="edge"><title>Node12&#45;&gt;Node11</title>
<path fill="none" stroke="#9a32cd" stroke-dasharray="5,2" d="M202.228,-7.43276C243.673,-6.38653 305.239,-7.78 357,-21 380.322,-26.9564 404.851,-39.1216 422.401,-48.9972"/>
<polygon fill="#9a32cd" stroke="#9a32cd" points="202.029,-3.93714 192.143,-7.7456 202.246,-10.9338 202.029,-3.93714"/>
<text text-anchor="middle" x="287.5" y="-24" font-family="Helvetica,sans-Serif" font-size="10.00"> keys</text>
</g>
</g>
</svg>
