<?xml version="1.0" encoding="UTF-8" standalone="no"?>
<!DOCTYPE svg PUBLIC "-//W3C//DTD SVG 1.1//EN"
 "http://www.w3.org/Graphics/SVG/1.1/DTD/svg11.dtd">
<!-- Generated by graphviz version 2.40.1 (20161225.0304)
 -->
<!-- Title: Cleaner::cleanCompareFile Pages: 1 -->
<svg width="885pt" height="66pt"
 viewBox="0.00 0.00 885.00 66.00" xmlns="http://www.w3.org/2000/svg" xmlns:xlink="http://www.w3.org/1999/xlink">
<g id="graph0" class="graph" transform="scale(1 1) rotate(0) translate(4 62)">
<title>Cleaner::cleanCompareFile</title>
<polygon fill="#ffffff" stroke="transparent" points="-4,4 -4,-62 881,-62 881,4 -4,4"/>
<!-- Node291 -->
<g id="node1" class="node">
<title>Node291</title>
<polygon fill="#bfbfbf" stroke="#000000" points="0,-19.5 0,-38.5 135,-38.5 135,-19.5 0,-19.5"/>
<text text-anchor="middle" x="67.5" y="-26.5" font-family="Helvetica,sans-Serif" font-size="10.00" fill="#000000">Cleaner::cleanCompareFile</text>
</g>
<!-- Node292 -->
<g id="node2" class="node">
<title>Node292</title>
<g id="a_node2"><a xlink:href="classtrim_al_manager.html#aebfd21b0435302f0e4fc45a068d1b6ee" target="_top" xlink:title="Method to trim the alignment using non automatic methods: ">
<polygon fill="#ffffff" stroke="#000000" points="171,-14 171,-44 323,-44 323,-14 171,-14"/>
<text text-anchor="start" x="179" y="-32" font-family="Helvetica,sans-Serif" font-size="10.00" fill="#000000">trimAlManager::CleanResidues</text>
<text text-anchor="middle" x="247" y="-21" font-family="Helvetica,sans-Serif" font-size="10.00" fill="#000000">NonAuto</text>
</a>
</g>
</g>
<!-- Node291&#45;&gt;Node292 -->
<g id="edge1" class="edge">
<title>Node291&#45;&gt;Node292</title>
<path fill="none" stroke="#191970" d="M145.3008,-29C153.7342,-29 162.3109,-29 170.7259,-29"/>
<polygon fill="#191970" stroke="#191970" points="145.1055,-25.5001 135.1055,-29 145.1054,-32.5001 145.1055,-25.5001"/>
</g>
<!-- Node293 -->
<g id="node3" class="node">
<title>Node293</title>
<g id="a_node3"><a xlink:href="classtrim_al_manager.html#adc529dd893ed4e9df6f3ddbd58776068" target="_top" xlink:title="Core Method of the program. This is where almost all cleaning methods are called from. ">
<polygon fill="#ffffff" stroke="#000000" points="359,-14 359,-44 468,-44 468,-14 359,-14"/>
<text text-anchor="start" x="367" y="-32" font-family="Helvetica,sans-Serif" font-size="10.00" fill="#000000">trimAlManager::clean</text>
<text text-anchor="middle" x="413.5" y="-21" font-family="Helvetica,sans-Serif" font-size="10.00" fill="#000000">_alignment</text>
</a>
</g>
</g>
<!-- Node292&#45;&gt;Node293 -->
<g id="edge2" class="edge">
<title>Node292&#45;&gt;Node293</title>
<path fill="none" stroke="#191970" d="M333.5487,-29C342.1708,-29 350.7456,-29 358.9024,-29"/>
<polygon fill="#191970" stroke="#191970" points="333.4277,-25.5001 323.4277,-29 333.4277,-32.5001 333.4277,-25.5001"/>
</g>
<!-- Node294 -->
<g id="node4" class="node">
<title>Node294</title>
<g id="a_node4"><a xlink:href="classtrim_al_manager.html#a7c641a1feff33d401b4ea5c82e989289" target="_top" xlink:title="trimAlManager::innerPerform">
<polygon fill="#ffffff" stroke="#000000" points="505.5,-38.5 505.5,-57.5 646.5,-57.5 646.5,-38.5 505.5,-38.5"/>
<text text-anchor="middle" x="576" y="-45.5" font-family="Helvetica,sans-Serif" font-size="10.00" fill="#000000">trimAlManager::innerPerform</text>
</a>
</g>
</g>
<!-- Node293&#45;&gt;Node294 -->
<g id="edge3" class="edge">
<title>Node293&#45;&gt;Node294</title>
<path fill="none" stroke="#191970" d="M478.0655,-36.5492C487.0547,-37.6002 496.3286,-38.6846 505.4212,-39.7477"/>
<polygon fill="#191970" stroke="#191970" points="478.401,-33.0647 468.0622,-35.3796 477.588,-40.0173 478.401,-33.0647"/>
</g>
<!-- Node297 -->
<g id="node7" class="node">
<title>Node297</title>
<g id="a_node7"><a xlink:href="classtrim_al_manager.html#ac5795f93b3a2b51bf5d8dddd63b89f73" target="_top" xlink:title="trimAlManager::perform_VCF">
<polygon fill="#ffffff" stroke="#000000" points="504,-.5 504,-19.5 648,-19.5 648,-.5 504,-.5"/>
<text text-anchor="middle" x="576" y="-7.5" font-family="Helvetica,sans-Serif" font-size="10.00" fill="#000000">trimAlManager::perform_VCF</text>
</a>
</g>
</g>
<!-- Node293&#45;&gt;Node297 -->
<g id="edge6" class="edge">
<title>Node293&#45;&gt;Node297</title>
<path fill="none" stroke="#191970" d="M478.2328,-21.4312C486.6937,-20.442 495.4041,-19.4235 503.9757,-18.4213"/>
<polygon fill="#191970" stroke="#191970" points="477.588,-17.9827 468.0622,-22.6204 478.401,-24.9353 477.588,-17.9827"/>
</g>
<!-- Node295 -->
<g id="node5" class="node">
<title>Node295</title>
<g id="a_node5"><a xlink:href="classtrim_al_manager.html#abe8d2841455c644dc9c7d1294b82b00f" target="_top" xlink:title="Method to perform the analysis if all checks have passed. ">
<polygon fill="#ffffff" stroke="#000000" points="684,-38.5 684,-57.5 803,-57.5 803,-38.5 684,-38.5"/>
<text text-anchor="middle" x="743.5" y="-45.5" font-family="Helvetica,sans-Serif" font-size="10.00" fill="#000000">trimAlManager::perform</text>
</a>
</g>
</g>
<!-- Node294&#45;&gt;Node295 -->
<g id="edge4" class="edge">
<title>Node294&#45;&gt;Node295</title>
<path fill="none" stroke="#191970" d="M656.8102,-48C665.9363,-48 675.1089,-48 683.8939,-48"/>
<polygon fill="#191970" stroke="#191970" points="656.5497,-44.5001 646.5496,-48 656.5496,-51.5001 656.5497,-44.5001"/>
</g>
<!-- Node296 -->
<g id="node6" class="node">
<title>Node296</title>
<g id="a_node6"><a xlink:href="trim_al_main_8cpp.html#a0ddf1224851353fc92bfbff6f499fa97" target="_top" xlink:title="main">
<polygon fill="#ffffff" stroke="#000000" points="839,-38.5 839,-57.5 877,-57.5 877,-38.5 839,-38.5"/>
<text text-anchor="middle" x="858" y="-45.5" font-family="Helvetica,sans-Serif" font-size="10.00" fill="#000000">main</text>
</a>
</g>
</g>
<!-- Node295&#45;&gt;Node296 -->
<g id="edge5" class="edge">
<title>Node295&#45;&gt;Node296</title>
<path fill="none" stroke="#191970" d="M813.3198,-48C822.6177,-48 831.4503,-48 838.7697,-48"/>
<polygon fill="#191970" stroke="#191970" points="813.0976,-44.5001 803.0976,-48 813.0975,-51.5001 813.0976,-44.5001"/>
</g>
</g>
</svg>
