<?xml version="1.0" encoding="UTF-8" standalone="no"?>
<!DOCTYPE svg PUBLIC "-//W3C//DTD SVG 1.1//EN"
 "http://www.w3.org/Graphics/SVG/1.1/DTD/svg11.dtd">
<!-- Generated by graphviz version 2.40.1 (20161225.0304)
 -->
<!-- Title: statistics::Similarity::getMdkWindowedVector Pages: 1 -->
<svg width="933pt" height="285pt"
 viewBox="0.00 0.00 933.00 284.50" xmlns="http://www.w3.org/2000/svg" xmlns:xlink="http://www.w3.org/1999/xlink">
<g id="graph0" class="graph" transform="scale(1 1) rotate(0) translate(4 280.5)">
<title>statistics::Similarity::getMdkWindowedVector</title>
<polygon fill="#ffffff" stroke="transparent" points="-4,4 -4,-280.5 929,-280.5 929,4 -4,4"/>
<!-- Node128 -->
<g id="node1" class="node">
<title>Node128</title>
<g id="a_node1"><a xlink:title="This methods returns a pointer to conservationWindow&#39;s vector.">
<polygon fill="#bfbfbf" stroke="#000000" points="0,-24.5 0,-54.5 129,-54.5 129,-24.5 0,-24.5"/>
<text text-anchor="start" x="8" y="-42.5" font-family="Helvetica,sans-Serif" font-size="10.00" fill="#000000">statistics::Similarity</text>
<text text-anchor="middle" x="64.5" y="-31.5" font-family="Helvetica,sans-Serif" font-size="10.00" fill="#000000">::getMdkWindowedVector</text>
</a>
</g>
</g>
<!-- Node129 -->
<g id="node2" class="node">
<title>Node129</title>
<g id="a_node2"><a xlink:href="classstatistics_1_1_similarity.html#adcb5627b9704850e85433fc40c19db17" target="_top" xlink:title="Allows us compute the conservationWindow&#39;s values.">
<polygon fill="#ffffff" stroke="#000000" points="165,-49.5 165,-79.5 268,-79.5 268,-49.5 165,-49.5"/>
<text text-anchor="start" x="173" y="-67.5" font-family="Helvetica,sans-Serif" font-size="10.00" fill="#000000">statistics::Similarity</text>
<text text-anchor="middle" x="216.5" y="-56.5" font-family="Helvetica,sans-Serif" font-size="10.00" fill="#000000">::applyWindow</text>
</a>
</g>
</g>
<!-- Node128&#45;&gt;Node129 -->
<g id="edge1" class="edge">
<title>Node128&#45;&gt;Node129</title>
<path fill="none" stroke="#191970" d="M129.4026,-50.1748C137.7779,-51.5523 146.337,-52.96 154.6612,-54.3291"/>
<polygon fill="#191970" stroke="#191970" points="154.2346,-57.8059 164.6701,-55.9753 155.3707,-50.8987 154.2346,-57.8059"/>
</g>
<!-- Node144 -->
<g id="node17" class="node">
<title>Node144</title>
<g id="a_node17"><a xlink:href="classstatistics_1_1_similarity.html#a4446bf070a858952dac45f5705d16780" target="_top" xlink:title="Returns if a windows size value has been defined or not.">
<polygon fill="#ffffff" stroke="#000000" points="165,-.5 165,-30.5 268,-30.5 268,-.5 165,-.5"/>
<text text-anchor="start" x="173" y="-18.5" font-family="Helvetica,sans-Serif" font-size="10.00" fill="#000000">statistics::Similarity</text>
<text text-anchor="middle" x="216.5" y="-7.5" font-family="Helvetica,sans-Serif" font-size="10.00" fill="#000000">::isDefinedWindow</text>
</a>
</g>
</g>
<!-- Node128&#45;&gt;Node144 -->
<g id="edge20" class="edge">
<title>Node128&#45;&gt;Node144</title>
<path fill="none" stroke="#191970" d="M129.4026,-29.2522C137.7779,-27.9298 146.337,-26.5784 154.6612,-25.264"/>
<polygon fill="#191970" stroke="#191970" points="155.3384,-28.7005 164.6701,-23.6837 154.2466,-21.7862 155.3384,-28.7005"/>
</g>
<!-- Node130 -->
<g id="node3" class="node">
<title>Node130</title>
<g id="a_node3"><a xlink:href="classstatistics_1_1_similarity.html#ae69ec0e79912ae23c8cfe97358c4794d" target="_top" xlink:title="Method to calculate the similarity values of a alignment matrix.">
<polygon fill="#ffffff" stroke="#000000" points="304,-120.5 304,-150.5 407,-150.5 407,-120.5 304,-120.5"/>
<text text-anchor="start" x="312" y="-138.5" font-family="Helvetica,sans-Serif" font-size="10.00" fill="#000000">statistics::Similarity</text>
<text text-anchor="middle" x="355.5" y="-127.5" font-family="Helvetica,sans-Serif" font-size="10.00" fill="#000000">::calculateVectors</text>
</a>
</g>
</g>
<!-- Node129&#45;&gt;Node130 -->
<g id="edge2" class="edge">
<title>Node129&#45;&gt;Node130</title>
<path fill="none" stroke="#191970" d="M245.9783,-79.5573C266.7106,-90.1472 294.6507,-104.4187 317.1211,-115.8964"/>
<polygon fill="#191970" stroke="#191970" points="315.5665,-119.0325 326.0642,-120.4644 318.7508,-112.7986 315.5665,-119.0325"/>
</g>
<!-- Node134 -->
<g id="node7" class="node">
<title>Node134</title>
<g id="a_node7"><a xlink:href="classreporting_1_1report_manager.html#a6d122e673144584e0869bd33b8a5c1c6" target="_top" xlink:title="Method to report an Error. &#160;It will be displayed if Level &#160;is equal or higher to VerboseLevel::ERROR.">
<polygon fill="#ffffff" stroke="#000000" points="798,-25.5 798,-55.5 920,-55.5 920,-25.5 798,-25.5"/>
<text text-anchor="start" x="806" y="-43.5" font-family="Helvetica,sans-Serif" font-size="10.00" fill="#000000">reporting::reportManager</text>
<text text-anchor="middle" x="859" y="-32.5" font-family="Helvetica,sans-Serif" font-size="10.00" fill="#000000">::report</text>
</a>
</g>
</g>
<!-- Node129&#45;&gt;Node134 -->
<g id="edge19" class="edge">
<title>Node129&#45;&gt;Node134</title>
<path fill="none" stroke="#191970" d="M268.0296,-52.6161C364.284,-32.0184 577.8671,6.1324 757,-15.5 770.4145,-17.12 784.6103,-19.8971 798.0109,-23.0257"/>
<polygon fill="#191970" stroke="#191970" points="797.5335,-26.5115 808.0773,-25.4733 799.1873,-19.7097 797.5335,-26.5115"/>
</g>
<!-- Node131 -->
<g id="node4" class="node">
<title>Node131</title>
<g id="a_node4"><a xlink:href="classstatistics_1_1_manager.html#a1969a416d3020d25daa56de6c5e305db" target="_top" xlink:title="Method to handle gap stat calculation It checks if the gaps submodule has been created,...">
<polygon fill="#ffffff" stroke="#000000" points="455.5,-120.5 455.5,-150.5 558.5,-150.5 558.5,-120.5 455.5,-120.5"/>
<text text-anchor="start" x="463.5" y="-138.5" font-family="Helvetica,sans-Serif" font-size="10.00" fill="#000000">statistics::Manager</text>
<text text-anchor="middle" x="507" y="-127.5" font-family="Helvetica,sans-Serif" font-size="10.00" fill="#000000">::calculateGapStats</text>
</a>
</g>
</g>
<!-- Node130&#45;&gt;Node131 -->
<g id="edge3" class="edge">
<title>Node130&#45;&gt;Node131</title>
<path fill="none" stroke="#191970" d="M407.214,-135.5C419.3352,-135.5 432.3726,-135.5 444.8953,-135.5"/>
<polygon fill="#191970" stroke="#191970" points="445.2621,-139.0001 455.262,-135.5 445.262,-132.0001 445.2621,-139.0001"/>
</g>
<!-- Node137 -->
<g id="node10" class="node">
<title>Node137</title>
<g id="a_node10"><a xlink:href="classstatistics_1_1_similarity.html#a75bd235b3207235eefa7b52dff063c76" target="_top" xlink:title="Computes the matrix identity between alignment&#39;s columns.">
<polygon fill="#ffffff" stroke="#000000" points="446.5,-169.5 446.5,-199.5 567.5,-199.5 567.5,-169.5 446.5,-169.5"/>
<text text-anchor="start" x="454.5" y="-187.5" font-family="Helvetica,sans-Serif" font-size="10.00" fill="#000000">statistics::Similarity</text>
<text text-anchor="middle" x="507" y="-176.5" font-family="Helvetica,sans-Serif" font-size="10.00" fill="#000000">::calculateMatrixIdentity</text>
</a>
</g>
</g>
<!-- Node130&#45;&gt;Node137 -->
<g id="edge9" class="edge">
<title>Node130&#45;&gt;Node137</title>
<path fill="none" stroke="#191970" d="M402.1912,-150.6014C417.5269,-155.5615 434.7356,-161.1274 450.7066,-166.2929"/>
<polygon fill="#191970" stroke="#191970" points="449.8712,-169.7011 460.463,-169.4484 452.0254,-163.0408 449.8712,-169.7011"/>
</g>
<!-- Node138 -->
<g id="node11" class="node">
<title>Node138</title>
<g id="a_node11"><a xlink:href="class_alignment.html#a1bc7622776f3935f6cb9d3c895e43a29" target="_top" xlink:title="Alignment type getter. &#160;&#160;See SequenceTypes.">
<polygon fill="#ffffff" stroke="#000000" points="609.5,-214 609.5,-233 754.5,-233 754.5,-214 609.5,-214"/>
<text text-anchor="middle" x="682" y="-221" font-family="Helvetica,sans-Serif" font-size="10.00" fill="#000000">Alignment::getAlignmentType</text>
</a>
</g>
</g>
<!-- Node130&#45;&gt;Node138 -->
<g id="edge12" class="edge">
<title>Node130&#45;&gt;Node138</title>
<path fill="none" stroke="#191970" d="M367.8568,-150.6926C383.3135,-168.4334 411.5941,-196.9468 443,-209.5 492.2609,-229.1901 551.811,-232.7263 599.1454,-231.322"/>
<polygon fill="#191970" stroke="#191970" points="599.4975,-234.8113 609.3587,-230.9375 599.2341,-227.8162 599.4975,-234.8113"/>
</g>
<!-- Node140 -->
<g id="node13" class="node">
<title>Node140</title>
<g id="a_node13"><a xlink:href="classstatistics_1_1similarity_matrix.html#a2a17eb464ec28ba83edbcbe271e7ff62" target="_top" xlink:title="Method to get the similarity distance between two residues, A and B Characters provided must be both ...">
<polygon fill="#ffffff" stroke="#000000" points="618,-25.5 618,-55.5 746,-55.5 746,-25.5 618,-25.5"/>
<text text-anchor="start" x="626" y="-43.5" font-family="Helvetica,sans-Serif" font-size="10.00" fill="#000000">statistics::similarityMatrix</text>
<text text-anchor="middle" x="682" y="-32.5" font-family="Helvetica,sans-Serif" font-size="10.00" fill="#000000">::getDistance</text>
</a>
</g>
</g>
<!-- Node130&#45;&gt;Node140 -->
<g id="edge13" class="edge">
<title>Node130&#45;&gt;Node140</title>
<path fill="none" stroke="#191970" d="M367.9198,-120.4618C383.4386,-102.8731 411.7803,-74.5093 443,-61.5 495.1377,-39.7741 559.1006,-35.1725 607.7318,-35.6496"/>
<polygon fill="#191970" stroke="#191970" points="607.8078,-39.1513 617.8667,-35.8241 607.9284,-32.1524 607.8078,-39.1513"/>
</g>
<!-- Node141 -->
<g id="node14" class="node">
<title>Node141</title>
<g id="a_node14"><a xlink:href="classstatistics_1_1_gaps.html#ab5b60db326475f8adc68b130e22b3963" target="_top" xlink:title=" ">
<polygon fill="#ffffff" stroke="#000000" points="443,-71.5 443,-101.5 571,-101.5 571,-71.5 443,-71.5"/>
<text text-anchor="start" x="451" y="-89.5" font-family="Helvetica,sans-Serif" font-size="10.00" fill="#000000">statistics::Gaps::getGaps</text>
<text text-anchor="middle" x="507" y="-78.5" font-family="Helvetica,sans-Serif" font-size="10.00" fill="#000000">Window</text>
</a>
</g>
</g>
<!-- Node130&#45;&gt;Node141 -->
<g id="edge15" class="edge">
<title>Node130&#45;&gt;Node141</title>
<path fill="none" stroke="#191970" d="M402.1912,-120.3986C417.5269,-115.4385 434.7356,-109.8726 450.7066,-104.7071"/>
<polygon fill="#191970" stroke="#191970" points="452.0254,-107.9592 460.463,-101.5516 449.8712,-101.2989 452.0254,-107.9592"/>
</g>
<!-- Node143 -->
<g id="node16" class="node">
<title>Node143</title>
<g id="a_node16"><a xlink:href="namespaceutils.html#a6286fde6f4dd58ef0cfa9d55341b72f8" target="_top" xlink:title=" ">
<polygon fill="#ffffff" stroke="#000000" points="469.5,-257 469.5,-276 544.5,-276 544.5,-257 469.5,-257"/>
<text text-anchor="middle" x="507" y="-264" font-family="Helvetica,sans-Serif" font-size="10.00" fill="#000000">utils::toUpper</text>
</a>
</g>
</g>
<!-- Node130&#45;&gt;Node143 -->
<g id="edge18" class="edge">
<title>Node130&#45;&gt;Node143</title>
<path fill="none" stroke="#191970" d="M364.3097,-150.7737C378.255,-173.7061 407.5065,-217.0511 443,-242.5 448.702,-246.5883 455.1839,-250.0684 461.7815,-253.003"/>
<polygon fill="#191970" stroke="#191970" points="460.8704,-256.4101 471.4529,-256.9198 463.498,-249.922 460.8704,-256.4101"/>
</g>
<!-- Node132 -->
<g id="node5" class="node">
<title>Node132</title>
<g id="a_node5"><a xlink:href="classstatistics_1_1_gaps.html#aee36b772767467cdba2061df2305e85d" target="_top" xlink:title=" ">
<polygon fill="#ffffff" stroke="#000000" points="607,-124 607,-143 757,-143 757,-124 607,-124"/>
<text text-anchor="middle" x="682" y="-131" font-family="Helvetica,sans-Serif" font-size="10.00" fill="#000000">statistics::Gaps::applyWindow</text>
</a>
</g>
</g>
<!-- Node131&#45;&gt;Node132 -->
<g id="edge4" class="edge">
<title>Node131&#45;&gt;Node132</title>
<path fill="none" stroke="#191970" d="M558.5593,-134.9108C570.4924,-134.7744 583.5051,-134.6257 596.4604,-134.4776"/>
<polygon fill="#191970" stroke="#191970" points="596.857,-137.9734 606.8163,-134.3592 596.7769,-130.9738 596.857,-137.9734"/>
</g>
<!-- Node136 -->
<g id="node9" class="node">
<title>Node136</title>
<g id="a_node9"><a xlink:href="classstatistics_1_1_gaps.html#aa3526494d5100e062daa4afba755d0b1" target="_top" xlink:title=" ">
<polygon fill="#ffffff" stroke="#000000" points="615.5,-162.5 615.5,-192.5 748.5,-192.5 748.5,-162.5 615.5,-162.5"/>
<text text-anchor="start" x="623.5" y="-180.5" font-family="Helvetica,sans-Serif" font-size="10.00" fill="#000000">statistics::Gaps::Calculate</text>
<text text-anchor="middle" x="682" y="-169.5" font-family="Helvetica,sans-Serif" font-size="10.00" fill="#000000">Vectors</text>
</a>
</g>
</g>
<!-- Node131&#45;&gt;Node136 -->
<g id="edge8" class="edge">
<title>Node131&#45;&gt;Node136</title>
<path fill="none" stroke="#191970" d="M558.5593,-147.8742C574.4883,-151.6972 592.3407,-155.9818 609.4127,-160.0791"/>
<polygon fill="#191970" stroke="#191970" points="608.8132,-163.5345 619.3539,-162.4649 610.4468,-156.7278 608.8132,-163.5345"/>
</g>
<!-- Node133 -->
<g id="node6" class="node">
<title>Node133</title>
<g id="a_node6"><a xlink:href="namespaceutils.html#aac322cd1761fddedec8a5792e358eb32" target="_top" xlink:title="Vector initialization.">
<polygon fill="#ffffff" stroke="#000000" points="821,-105 821,-124 897,-124 897,-105 821,-105"/>
<text text-anchor="middle" x="859" y="-112" font-family="Helvetica,sans-Serif" font-size="10.00" fill="#000000">utils::initlVect</text>
</a>
</g>
</g>
<!-- Node132&#45;&gt;Node133 -->
<g id="edge5" class="edge">
<title>Node132&#45;&gt;Node133</title>
<path fill="none" stroke="#191970" d="M757.0639,-125.4423C775.3223,-123.4824 794.3618,-121.4386 810.9757,-119.6551"/>
<polygon fill="#191970" stroke="#191970" points="811.4088,-123.1289 820.9781,-118.5814 810.6616,-116.1688 811.4088,-123.1289"/>
</g>
<!-- Node132&#45;&gt;Node134 -->
<g id="edge6" class="edge">
<title>Node132&#45;&gt;Node134</title>
<path fill="none" stroke="#191970" d="M728.1479,-124C737.91,-121.222 747.9815,-117.7555 757,-113.5 785.6053,-100.0021 814.5865,-78.3207 834.3083,-62.0875"/>
<polygon fill="#191970" stroke="#191970" points="836.7485,-64.6091 842.1655,-55.5037 832.2527,-59.2437 836.7485,-64.6091"/>
</g>
<!-- Node135 -->
<g id="node8" class="node">
<title>Node135</title>
<g id="a_node8"><a xlink:href="namespaceutils.html#ad50731aeb3c8f79ed8372516210dfc9d" target="_top" xlink:title="Round double to integer method.">
<polygon fill="#ffffff" stroke="#000000" points="821,-143 821,-162 897,-162 897,-143 821,-143"/>
<text text-anchor="middle" x="859" y="-150" font-family="Helvetica,sans-Serif" font-size="10.00" fill="#000000">utils::roundInt</text>
</a>
</g>
</g>
<!-- Node132&#45;&gt;Node135 -->
<g id="edge7" class="edge">
<title>Node132&#45;&gt;Node135</title>
<path fill="none" stroke="#191970" d="M757.0639,-141.5577C775.3223,-143.5176 794.3618,-145.5614 810.9757,-147.3449"/>
<polygon fill="#191970" stroke="#191970" points="810.6616,-150.8312 820.9781,-148.4186 811.4088,-143.8711 810.6616,-150.8312"/>
</g>
<!-- Node137&#45;&gt;Node138 -->
<g id="edge10" class="edge">
<title>Node137&#45;&gt;Node138</title>
<path fill="none" stroke="#191970" d="M567.7154,-198.0309C587.807,-202.5084 609.9838,-207.4507 629.4134,-211.7807"/>
<polygon fill="#191970" stroke="#191970" points="628.7758,-215.2244 639.2977,-213.9835 630.2985,-208.392 628.7758,-215.2244"/>
</g>
<!-- Node139 -->
<g id="node12" class="node">
<title>Node139</title>
<g id="a_node12"><a xlink:href="namespaceutils.html#aab52f9515717f06cafd6ab7fe2ebdcef" target="_top" xlink:title="Checks an alignment type.">
<polygon fill="#ffffff" stroke="#000000" points="793,-214 793,-233 925,-233 925,-214 793,-214"/>
<text text-anchor="middle" x="859" y="-221" font-family="Helvetica,sans-Serif" font-size="10.00" fill="#000000">utils::checkAlignmentType</text>
</a>
</g>
</g>
<!-- Node138&#45;&gt;Node139 -->
<g id="edge11" class="edge">
<title>Node138&#45;&gt;Node139</title>
<path fill="none" stroke="#191970" d="M754.5034,-223.5C763.8282,-223.5 773.3981,-223.5 782.7802,-223.5"/>
<polygon fill="#191970" stroke="#191970" points="782.8666,-227.0001 792.8666,-223.5 782.8665,-220.0001 782.8666,-227.0001"/>
</g>
<!-- Node140&#45;&gt;Node134 -->
<g id="edge14" class="edge">
<title>Node140&#45;&gt;Node134</title>
<path fill="none" stroke="#191970" d="M746.1513,-40.5C759.5538,-40.5 773.7642,-40.5 787.4167,-40.5"/>
<polygon fill="#191970" stroke="#191970" points="787.7255,-44.0001 797.7254,-40.5 787.7254,-37.0001 787.7255,-44.0001"/>
</g>
<!-- Node141&#45;&gt;Node132 -->
<g id="edge16" class="edge">
<title>Node141&#45;&gt;Node132</title>
<path fill="none" stroke="#191970" d="M562.5307,-101.5262C577.0044,-105.4337 592.5842,-109.6318 607,-113.5 616.4667,-116.0402 626.6083,-118.7515 636.2771,-121.3315"/>
<polygon fill="#191970" stroke="#191970" points="635.5697,-124.7651 646.1339,-123.96 637.3734,-118.0014 635.5697,-124.7651"/>
</g>
<!-- Node142 -->
<g id="node15" class="node">
<title>Node142</title>
<g id="a_node15"><a xlink:href="classstatistics_1_1_gaps.html#ad812a924cf5e3f900aad3ed4a9664300" target="_top" xlink:title=" ">
<polygon fill="#ffffff" stroke="#000000" points="615.5,-74.5 615.5,-104.5 748.5,-104.5 748.5,-74.5 615.5,-74.5"/>
<text text-anchor="start" x="623.5" y="-92.5" font-family="Helvetica,sans-Serif" font-size="10.00" fill="#000000">statistics::Gaps::isDefined</text>
<text text-anchor="middle" x="682" y="-81.5" font-family="Helvetica,sans-Serif" font-size="10.00" fill="#000000">Window</text>
</a>
</g>
</g>
<!-- Node141&#45;&gt;Node142 -->
<g id="edge17" class="edge">
<title>Node141&#45;&gt;Node142</title>
<path fill="none" stroke="#191970" d="M571.1698,-87.6001C582.2233,-87.7895 593.8127,-87.9882 605.1593,-88.1827"/>
<polygon fill="#191970" stroke="#191970" points="605.4305,-91.6878 615.4891,-88.3598 605.5505,-84.6888 605.4305,-91.6878"/>
</g>
</g>
</svg>
