<?xml version="1.0" encoding="UTF-8" standalone="no"?>
<!DOCTYPE svg PUBLIC "-//W3C//DTD SVG 1.1//EN"
 "http://www.w3.org/Graphics/SVG/1.1/DTD/svg11.dtd">
<!-- Generated by graphviz version 2.40.1 (20161225.0304)
 -->
<!-- Title: statistics::Similarity::Similarity Pages: 1 -->
<svg width="1251pt" height="238pt"
 viewBox="0.00 0.00 1251.00 237.58" xmlns="http://www.w3.org/2000/svg" xmlns:xlink="http://www.w3.org/1999/xlink">
<g id="graph0" class="graph" transform="scale(1 1) rotate(0) translate(4 233.5792)">
<title>statistics::Similarity::Similarity</title>
<polygon fill="#ffffff" stroke="transparent" points="-4,4 -4,-233.5792 1247,-233.5792 1247,4 -4,4"/>
<!-- Node33 -->
<g id="node1" class="node">
<title>Node33</title>
<polygon fill="#bfbfbf" stroke="#000000" points="0,-119 0,-149 103,-149 103,-119 0,-119"/>
<text text-anchor="start" x="8" y="-137" font-family="Helvetica,sans-Serif" font-size="10.00" fill="#000000">statistics::Similarity</text>
<text text-anchor="middle" x="51.5" y="-126" font-family="Helvetica,sans-Serif" font-size="10.00" fill="#000000">::Similarity</text>
</g>
<!-- Node34 -->
<g id="node2" class="node">
<title>Node34</title>
<g id="a_node2"><a xlink:href="classstatistics_1_1_manager.html#a92505ca5aedc5b45c4300a0e8a7d1e17" target="_top" xlink:title="Method to handle similarity stat calculation It checks if the similarity submodule has been created...">
<polygon fill="#ffffff" stroke="#000000" points="139,-95 139,-125 282,-125 282,-95 139,-95"/>
<text text-anchor="start" x="147" y="-113" font-family="Helvetica,sans-Serif" font-size="10.00" fill="#000000">statistics::Manager</text>
<text text-anchor="middle" x="210.5" y="-102" font-family="Helvetica,sans-Serif" font-size="10.00" fill="#000000">::calculateConservationStats</text>
</a>
</g>
</g>
<!-- Node33&#45;&gt;Node34 -->
<g id="edge1" class="edge">
<title>Node33&#45;&gt;Node34</title>
<path fill="none" stroke="#191970" d="M113.224,-124.6832C121.6414,-123.4126 130.3391,-122.0998 138.9127,-120.8056"/>
<polygon fill="#191970" stroke="#191970" points="112.4883,-121.2545 103.1227,-126.2079 113.5331,-128.1761 112.4883,-121.2545"/>
</g>
<!-- Node48 -->
<g id="node16" class="node">
<title>Node48</title>
<g id="a_node16"><a xlink:href="classstatistics_1_1_manager.html#abe227502738f56029822a2387fcd38bb" target="_top" xlink:title="Method to set a similarity matrix. ">
<polygon fill="#ffffff" stroke="#000000" points="158.5,-186 158.5,-216 262.5,-216 262.5,-186 158.5,-186"/>
<text text-anchor="start" x="166.5" y="-204" font-family="Helvetica,sans-Serif" font-size="10.00" fill="#000000">statistics::Manager</text>
<text text-anchor="middle" x="210.5" y="-193" font-family="Helvetica,sans-Serif" font-size="10.00" fill="#000000">::setSimilarityMatrix</text>
</a>
</g>
</g>
<!-- Node33&#45;&gt;Node48 -->
<g id="edge19" class="edge">
<title>Node33&#45;&gt;Node48</title>
<path fill="none" stroke="#191970" d="M96.7045,-153.0484C121.4145,-163.4608 151.5931,-176.1776 174.6617,-185.8983"/>
<polygon fill="#191970" stroke="#191970" points="97.7571,-149.694 87.1827,-149.0361 95.0388,-156.1447 97.7571,-149.694"/>
</g>
<!-- Node35 -->
<g id="node3" class="node">
<title>Node35</title>
<g id="a_node3"><a xlink:href="class_cleaner.html#a4718e31c0183b5a98751d77479faacf0" target="_top" xlink:title="Method to trim an alignment based on the similarity and gaps distribution values. ...">
<polygon fill="#ffffff" stroke="#000000" points="349.5,-38.5 349.5,-57.5 429.5,-57.5 429.5,-38.5 349.5,-38.5"/>
<text text-anchor="middle" x="389.5" y="-45.5" font-family="Helvetica,sans-Serif" font-size="10.00" fill="#000000">Cleaner::clean</text>
</a>
</g>
</g>
<!-- Node34&#45;&gt;Node35 -->
<g id="edge2" class="edge">
<title>Node34&#45;&gt;Node35</title>
<path fill="none" stroke="#191970" d="M254.4019,-91.0448C273.7109,-83.072 296.7813,-74.0345 318,-67 328.3628,-63.5645 339.7265,-60.3158 350.2841,-57.5085"/>
<polygon fill="#191970" stroke="#191970" points="252.8473,-87.9009 244.9644,-94.9798 255.5412,-94.3618 252.8473,-87.9009"/>
</g>
<!-- Node42 -->
<g id="node10" class="node">
<title>Node42</title>
<g id="a_node10"><a xlink:href="class_cleaner.html#a6727a235afa29f08a50716f28fa5c8fc" target="_top" xlink:title="Method to clean an alignment. It carries out strict and strictplus. The method: ">
<polygon fill="#ffffff" stroke="#000000" points="318,-76.5 318,-95.5 461,-95.5 461,-76.5 318,-76.5"/>
<text text-anchor="middle" x="389.5" y="-83.5" font-family="Helvetica,sans-Serif" font-size="10.00" fill="#000000">Cleaner::cleanCombMethods</text>
</a>
</g>
</g>
<!-- Node34&#45;&gt;Node42 -->
<g id="edge9" class="edge">
<title>Node34&#45;&gt;Node42</title>
<path fill="none" stroke="#191970" d="M292.2096,-99.0445C300.9483,-97.8729 309.7867,-96.6878 318.3884,-95.5345"/>
<polygon fill="#191970" stroke="#191970" points="291.4634,-95.6132 282.0172,-100.4111 292.3937,-102.5511 291.4634,-95.6132"/>
</g>
<!-- Node44 -->
<g id="node12" class="node">
<title>Node44</title>
<g id="a_node12"><a xlink:href="class_cleaner.html#a9cdbd6ebf78a284dd065b31319795b0c" target="_top" xlink:title="Method to trim an alignment based on the similarity distribution values. ">
<polygon fill="#ffffff" stroke="#000000" points="321,-.5 321,-19.5 458,-19.5 458,-.5 321,-.5"/>
<text text-anchor="middle" x="389.5" y="-7.5" font-family="Helvetica,sans-Serif" font-size="10.00" fill="#000000">Cleaner::cleanConservation</text>
</a>
</g>
</g>
<!-- Node34&#45;&gt;Node44 -->
<g id="edge12" class="edge">
<title>Node34&#45;&gt;Node44</title>
<path fill="none" stroke="#191970" d="M233.9205,-88.0741C254.5861,-69.8294 286.2772,-44.4308 318,-29 325.854,-25.1796 334.5804,-22.0482 343.1615,-19.5093"/>
<polygon fill="#191970" stroke="#191970" points="231.3988,-85.6345 226.2994,-94.9215 236.0772,-90.8416 231.3988,-85.6345"/>
</g>
<!-- Node45 -->
<g id="node13" class="node">
<title>Node45</title>
<g id="a_node13"><a xlink:href="classstatistics_1_1_manager.html#a080c687f8f355900511485eeec32a659" target="_top" xlink:title="Wrapper to Statistics::Similarity::printConservationAcl() It calls to calculateConservationStats() to...">
<polygon fill="#ffffff" stroke="#000000" points="319.5,-174.5 319.5,-215.5 459.5,-215.5 459.5,-174.5 319.5,-174.5"/>
<text text-anchor="start" x="327.5" y="-203.5" font-family="Helvetica,sans-Serif" font-size="10.00" fill="#000000">statistics::Manager</text>
<text text-anchor="start" x="327.5" y="-192.5" font-family="Helvetica,sans-Serif" font-size="10.00" fill="#000000">::printStatisticsConservation</text>
<text text-anchor="middle" x="389.5" y="-181.5" font-family="Helvetica,sans-Serif" font-size="10.00" fill="#000000">Columns</text>
</a>
</g>
</g>
<!-- Node34&#45;&gt;Node45 -->
<g id="edge14" class="edge">
<title>Node34&#45;&gt;Node45</title>
<path fill="none" stroke="#191970" d="M247.5331,-129.8223C268.1018,-140.6097 294.2602,-153.9659 318,-165 324.8361,-168.1774 332.1029,-171.4002 339.2847,-174.4966"/>
<polygon fill="#191970" stroke="#191970" points="248.9832,-126.6302 238.5048,-125.0642 245.7196,-132.8229 248.9832,-126.6302"/>
</g>
<!-- Node47 -->
<g id="node15" class="node">
<title>Node47</title>
<g id="a_node15"><a xlink:href="classstatistics_1_1_manager.html#aa20cfb477826035386ea988e3706b09a" target="_top" xlink:title="Wrapper to Statistics::Similarity::printGapsTotal() It calls to calculateConservationStats() to make ...">
<polygon fill="#ffffff" stroke="#000000" points="319.5,-114.5 319.5,-155.5 459.5,-155.5 459.5,-114.5 319.5,-114.5"/>
<text text-anchor="start" x="327.5" y="-143.5" font-family="Helvetica,sans-Serif" font-size="10.00" fill="#000000">statistics::Manager</text>
<text text-anchor="start" x="327.5" y="-132.5" font-family="Helvetica,sans-Serif" font-size="10.00" fill="#000000">::printStatisticsConservation</text>
<text text-anchor="middle" x="389.5" y="-121.5" font-family="Helvetica,sans-Serif" font-size="10.00" fill="#000000">Total</text>
</a>
</g>
</g>
<!-- Node34&#45;&gt;Node47 -->
<g id="edge17" class="edge">
<title>Node34&#45;&gt;Node47</title>
<path fill="none" stroke="#191970" d="M292.1679,-121.4061C301.2167,-122.6699 310.373,-123.9487 319.2632,-125.1904"/>
<polygon fill="#191970" stroke="#191970" points="292.4053,-117.9054 282.0172,-119.9884 291.437,-124.8381 292.4053,-117.9054"/>
</g>
<!-- Node36 -->
<g id="node4" class="node">
<title>Node36</title>
<g id="a_node4"><a xlink:href="classtrim_al_manager.html#aebfd21b0435302f0e4fc45a068d1b6ee" target="_top" xlink:title="Method to trim the alignment using non automatic methods: ">
<polygon fill="#ffffff" stroke="#000000" points="507.5,-32 507.5,-62 659.5,-62 659.5,-32 507.5,-32"/>
<text text-anchor="start" x="515.5" y="-50" font-family="Helvetica,sans-Serif" font-size="10.00" fill="#000000">trimAlManager::CleanResidues</text>
<text text-anchor="middle" x="583.5" y="-39" font-family="Helvetica,sans-Serif" font-size="10.00" fill="#000000">NonAuto</text>
</a>
</g>
</g>
<!-- Node35&#45;&gt;Node36 -->
<g id="edge3" class="edge">
<title>Node35&#45;&gt;Node36</title>
<path fill="none" stroke="#191970" d="M439.7838,-47.7408C460.3575,-47.6348 484.6146,-47.5097 507.2829,-47.3929"/>
<polygon fill="#191970" stroke="#191970" points="439.6787,-44.2412 429.6969,-47.7928 439.7149,-51.2411 439.6787,-44.2412"/>
</g>
<!-- Node37 -->
<g id="node5" class="node">
<title>Node37</title>
<g id="a_node5"><a xlink:href="classtrim_al_manager.html#adc529dd893ed4e9df6f3ddbd58776068" target="_top" xlink:title="Core Method of the program. This is where almost all cleaning methods are called from. ">
<polygon fill="#ffffff" stroke="#000000" points="715.5,-76 715.5,-106 824.5,-106 824.5,-76 715.5,-76"/>
<text text-anchor="start" x="723.5" y="-94" font-family="Helvetica,sans-Serif" font-size="10.00" fill="#000000">trimAlManager::clean</text>
<text text-anchor="middle" x="770" y="-83" font-family="Helvetica,sans-Serif" font-size="10.00" fill="#000000">_alignment</text>
</a>
</g>
</g>
<!-- Node36&#45;&gt;Node37 -->
<g id="edge4" class="edge">
<title>Node36&#45;&gt;Node37</title>
<path fill="none" stroke="#191970" d="M656.9079,-64.3187C676.3768,-68.9119 697.0557,-73.7906 715.3334,-78.1028"/>
<polygon fill="#191970" stroke="#191970" points="657.6976,-60.909 647.1611,-62.0192 656.0902,-67.722 657.6976,-60.909"/>
</g>
<!-- Node38 -->
<g id="node6" class="node">
<title>Node38</title>
<g id="a_node6"><a xlink:href="classtrim_al_manager.html#a7c641a1feff33d401b4ea5c82e989289" target="_top" xlink:title="trimAlManager::innerPerform">
<polygon fill="#ffffff" stroke="#000000" points="871.5,-125.5 871.5,-144.5 1012.5,-144.5 1012.5,-125.5 871.5,-125.5"/>
<text text-anchor="middle" x="942" y="-132.5" font-family="Helvetica,sans-Serif" font-size="10.00" fill="#000000">trimAlManager::innerPerform</text>
</a>
</g>
</g>
<!-- Node37&#45;&gt;Node38 -->
<g id="edge5" class="edge">
<title>Node37&#45;&gt;Node38</title>
<path fill="none" stroke="#191970" d="M834.8486,-107.5892C858.4504,-113.6268 884.3183,-120.2442 904.7241,-125.4643"/>
<polygon fill="#191970" stroke="#191970" points="835.4502,-104.1304 824.8948,-105.0428 833.7154,-110.9121 835.4502,-104.1304"/>
</g>
<!-- Node41 -->
<g id="node9" class="node">
<title>Node41</title>
<g id="a_node9"><a xlink:href="classtrim_al_manager.html#ac5795f93b3a2b51bf5d8dddd63b89f73" target="_top" xlink:title="trimAlManager::perform_VCF">
<polygon fill="#ffffff" stroke="#000000" points="870,-84.5 870,-103.5 1014,-103.5 1014,-84.5 870,-84.5"/>
<text text-anchor="middle" x="942" y="-91.5" font-family="Helvetica,sans-Serif" font-size="10.00" fill="#000000">trimAlManager::perform_VCF</text>
</a>
</g>
</g>
<!-- Node37&#45;&gt;Node41 -->
<g id="edge8" class="edge">
<title>Node37&#45;&gt;Node41</title>
<path fill="none" stroke="#191970" d="M835.1111,-92.1357C846.419,-92.3329 858.2398,-92.5391 869.7253,-92.7394"/>
<polygon fill="#191970" stroke="#191970" points="834.9543,-88.6325 824.8948,-91.9575 834.8322,-95.6314 834.9543,-88.6325"/>
</g>
<!-- Node39 -->
<g id="node7" class="node">
<title>Node39</title>
<g id="a_node7"><a xlink:href="classtrim_al_manager.html#abe8d2841455c644dc9c7d1294b82b00f" target="_top" xlink:title="Method to perform the analysis if all checks have passed. ">
<polygon fill="#ffffff" stroke="#000000" points="1050,-125.5 1050,-144.5 1169,-144.5 1169,-125.5 1050,-125.5"/>
<text text-anchor="middle" x="1109.5" y="-132.5" font-family="Helvetica,sans-Serif" font-size="10.00" fill="#000000">trimAlManager::perform</text>
</a>
</g>
</g>
<!-- Node38&#45;&gt;Node39 -->
<g id="edge6" class="edge">
<title>Node38&#45;&gt;Node39</title>
<path fill="none" stroke="#191970" d="M1022.8102,-135C1031.9363,-135 1041.1089,-135 1049.8939,-135"/>
<polygon fill="#191970" stroke="#191970" points="1022.5497,-131.5001 1012.5496,-135 1022.5496,-138.5001 1022.5497,-131.5001"/>
</g>
<!-- Node40 -->
<g id="node8" class="node">
<title>Node40</title>
<g id="a_node8"><a xlink:href="trim_al_main_8cpp.html#a0ddf1224851353fc92bfbff6f499fa97" target="_top" xlink:title="main">
<polygon fill="#ffffff" stroke="#000000" points="1205,-125.5 1205,-144.5 1243,-144.5 1243,-125.5 1205,-125.5"/>
<text text-anchor="middle" x="1224" y="-132.5" font-family="Helvetica,sans-Serif" font-size="10.00" fill="#000000">main</text>
</a>
</g>
</g>
<!-- Node39&#45;&gt;Node40 -->
<g id="edge7" class="edge">
<title>Node39&#45;&gt;Node40</title>
<path fill="none" stroke="#191970" d="M1179.3198,-135C1188.6177,-135 1197.4503,-135 1204.7697,-135"/>
<polygon fill="#191970" stroke="#191970" points="1179.0976,-131.5001 1169.0976,-135 1179.0975,-138.5001 1179.0976,-131.5001"/>
</g>
<!-- Node43 -->
<g id="node11" class="node">
<title>Node43</title>
<g id="a_node11"><a xlink:href="classtrim_al_manager.html#a69082911b30a1bd12395bb235bc18a34" target="_top" xlink:title="Method to trim the alignment using automatic or semi&#45;automatic methods: ">
<polygon fill="#ffffff" stroke="#000000" points="497,-81.5 497,-100.5 670,-100.5 670,-81.5 497,-81.5"/>
<text text-anchor="middle" x="583.5" y="-88.5" font-family="Helvetica,sans-Serif" font-size="10.00" fill="#000000">trimAlManager::CleanResiduesAuto</text>
</a>
</g>
</g>
<!-- Node42&#45;&gt;Node43 -->
<g id="edge10" class="edge">
<title>Node42&#45;&gt;Node43</title>
<path fill="none" stroke="#191970" d="M471.4097,-88.1111C479.8688,-88.3291 488.4848,-88.5512 496.9919,-88.7704"/>
<polygon fill="#191970" stroke="#191970" points="471.2741,-84.6065 461.1873,-87.8476 471.0937,-91.6042 471.2741,-84.6065"/>
</g>
<!-- Node43&#45;&gt;Node37 -->
<g id="edge11" class="edge">
<title>Node43&#45;&gt;Node37</title>
<path fill="none" stroke="#191970" d="M680.3277,-91C692.3854,-91 704.3632,-91 715.4531,-91"/>
<polygon fill="#191970" stroke="#191970" points="680.1982,-87.5001 670.1982,-91 680.1981,-94.5001 680.1982,-87.5001"/>
</g>
<!-- Node44&#45;&gt;Node36 -->
<g id="edge13" class="edge">
<title>Node44&#45;&gt;Node36</title>
<path fill="none" stroke="#191970" d="M449.3975,-21.4237C467.7066,-24.9157 488.0923,-28.8037 507.3307,-32.4729"/>
<polygon fill="#191970" stroke="#191970" points="449.9385,-17.9639 439.4598,-19.5284 448.627,-24.84 449.9385,-17.9639"/>
</g>
<!-- Node46 -->
<g id="node14" class="node">
<title>Node46</title>
<g id="a_node14"><a xlink:href="classtrim_al_manager.html#afc48b86f5ae35b9a5e721b65c58bf610" target="_top" xlink:title="Method to print statistics requested. ">
<polygon fill="#ffffff" stroke="#000000" points="531.5,-120 531.5,-150 635.5,-150 635.5,-120 531.5,-120"/>
<text text-anchor="start" x="539.5" y="-138" font-family="Helvetica,sans-Serif" font-size="10.00" fill="#000000">trimAlManager::print</text>
<text text-anchor="middle" x="583.5" y="-127" font-family="Helvetica,sans-Serif" font-size="10.00" fill="#000000">_statistics</text>
</a>
</g>
</g>
<!-- Node45&#45;&gt;Node46 -->
<g id="edge15" class="edge">
<title>Node45&#45;&gt;Node46</title>
<path fill="none" stroke="#191970" d="M465.8343,-171.3915C489.0745,-164.2038 513.9744,-156.5028 534.8566,-150.0443"/>
<polygon fill="#191970" stroke="#191970" points="464.5117,-168.1368 455.9924,-174.4353 466.5801,-174.8243 464.5117,-168.1368"/>
</g>
<!-- Node46&#45;&gt;Node38 -->
<g id="edge16" class="edge">
<title>Node46&#45;&gt;Node38</title>
<path fill="none" stroke="#191970" d="M645.7993,-135C708.659,-135 805.5706,-135 871.279,-135"/>
<polygon fill="#191970" stroke="#191970" points="645.629,-131.5001 635.629,-135 645.6289,-138.5001 645.629,-131.5001"/>
</g>
<!-- Node47&#45;&gt;Node46 -->
<g id="edge18" class="edge">
<title>Node47&#45;&gt;Node46</title>
<path fill="none" stroke="#191970" d="M469.6406,-135C490.429,-135 512.2832,-135 531.2244,-135"/>
<polygon fill="#191970" stroke="#191970" points="469.5385,-131.5001 459.5385,-135 469.5384,-138.5001 469.5385,-131.5001"/>
</g>
<!-- Node49 -->
<g id="node17" class="node">
<title>Node49</title>
<g id="a_node17"><a xlink:href="classtrim_al_manager.html#a3e8b2b5b4e1a44c498c47448840b6c69" target="_top" xlink:title="Method to create, load and use a similarity matrix, depending on alignment residue nature...">
<polygon fill="#ffffff" stroke="#000000" points="706,-164 706,-194 834,-194 834,-164 706,-164"/>
<text text-anchor="start" x="714" y="-182" font-family="Helvetica,sans-Serif" font-size="10.00" fill="#000000">trimAlManager::create</text>
<text text-anchor="middle" x="770" y="-171" font-family="Helvetica,sans-Serif" font-size="10.00" fill="#000000">_or_use_similarity_matrix</text>
</a>
</g>
</g>
<!-- Node48&#45;&gt;Node49 -->
<g id="edge20" class="edge">
<title>Node48&#45;&gt;Node49</title>
<path fill="none" stroke="#191970" d="M272.6392,-217.3025C287.4032,-220.4985 303.1742,-223.3652 318,-225 456.1841,-240.2376 618.3432,-212.6898 705.9655,-194.0474"/>
<polygon fill="#191970" stroke="#191970" points="273.1269,-213.8249 262.603,-215.0483 271.5929,-220.6547 273.1269,-213.8249"/>
</g>
<!-- Node49&#45;&gt;Node38 -->
<g id="edge21" class="edge">
<title>Node49&#45;&gt;Node38</title>
<path fill="none" stroke="#191970" d="M838.6116,-161.4482C861.207,-155.668 885.4737,-149.4602 904.8151,-144.5124"/>
<polygon fill="#191970" stroke="#191970" points="837.5322,-158.1115 828.7116,-163.9808 839.267,-164.8932 837.5322,-158.1115"/>
</g>
<!-- Node49&#45;&gt;Node41 -->
<g id="edge22" class="edge">
<title>Node49&#45;&gt;Node41</title>
<path fill="none" stroke="#191970" d="M798.9013,-157.8938C818.2716,-144.4913 844.761,-127.5558 870,-116 880.6957,-111.1029 892.7699,-106.93 903.9314,-103.5773"/>
<polygon fill="#191970" stroke="#191970" points="796.7045,-155.1596 790.5325,-163.771 800.7276,-160.8881 796.7045,-155.1596"/>
</g>
</g>
</svg>
