<?xml version="1.0" encoding="UTF-8" standalone="no"?>
<!DOCTYPE svg PUBLIC "-//W3C//DTD SVG 1.1//EN"
 "http://www.w3.org/Graphics/SVG/1.1/DTD/svg11.dtd">
<!-- Generated by graphviz version 2.38.0 (20140413.2041)
 -->
<!-- Title: ReadWriteMS::loadAndSaveMultipleAlignments Pages: 1 -->
<svg width="321pt" height="165pt"
 viewBox="0.00 0.00 321.00 165.00" xmlns="http://www.w3.org/2000/svg" xmlns:xlink="http://www.w3.org/1999/xlink">
<g id="graph0" class="graph" transform="scale(1 1) rotate(0) translate(4 161)">
<title>ReadWriteMS::loadAndSaveMultipleAlignments</title>
<polygon fill="white" stroke="none" points="-4,4 -4,-161 317,-161 317,4 -4,4"/>
<!-- Node16 -->
<g id="node1" class="node"><title>Node16</title>
<polygon fill="#bfbfbf" stroke="black" points="0,-63.5 0,-93.5 142,-93.5 142,-63.5 0,-63.5"/>
<text text-anchor="start" x="8" y="-81.5" font-family="Helvetica,sans-Serif" font-size="10.00">ReadWriteMS::loadAndSave</text>
<text text-anchor="middle" x="71" y="-70.5" font-family="Helvetica,sans-Serif" font-size="10.00">MultipleAlignments</text>
</g>
<!-- Node17 -->
<g id="node2" class="node"><title>Node17</title>
<g id="a_node2"><a xlink:href="class_read_write_base_state.html#ac6d87d2b73337cb4afa1499bf218f4ab" target="_top" xlink:title="Function to load a file in the current format and return an alignment object. ">
<polygon fill="white" stroke="black" points="191,-126.5 191,-156.5 300,-156.5 300,-126.5 191,-126.5"/>
<text text-anchor="start" x="199" y="-144.5" font-family="Helvetica,sans-Serif" font-size="10.00">ReadWriteBaseState</text>
<text text-anchor="middle" x="245.5" y="-133.5" font-family="Helvetica,sans-Serif" font-size="10.00">::LoadAlignment</text>
</a>
</g>
</g>
<!-- Node16&#45;&gt;Node17 -->
<g id="edge1" class="edge"><title>Node16&#45;&gt;Node17</title>
<path fill="none" stroke="midnightblue" d="M113.318,-93.5901C137.446,-102.402 168.083,-113.591 193.681,-122.94"/>
<polygon fill="midnightblue" stroke="midnightblue" points="192.627,-126.281 203.221,-126.424 195.028,-119.706 192.627,-126.281"/>
</g>
<!-- Node18 -->
<g id="node3" class="node"><title>Node18</title>
<g id="a_node3"><a xlink:href="classutils.html#ab0cb109dc7e12b42abd4cba86f7d8e78" target="_top" xlink:title="Function that replaces a substring with another substring in a string. It makes a copy of the origina...">
<polygon fill="white" stroke="black" points="194.5,-88 194.5,-107 296.5,-107 296.5,-88 194.5,-88"/>
<text text-anchor="middle" x="245.5" y="-95" font-family="Helvetica,sans-Serif" font-size="10.00">utils::ReplaceString</text>
</a>
</g>
</g>
<!-- Node16&#45;&gt;Node18 -->
<g id="edge2" class="edge"><title>Node16&#45;&gt;Node18</title>
<path fill="none" stroke="midnightblue" d="M142.162,-86.228C156.136,-87.7672 170.694,-89.3707 184.298,-90.8691"/>
<polygon fill="midnightblue" stroke="midnightblue" points="184.167,-94.3757 194.49,-91.9917 184.933,-87.4178 184.167,-94.3757"/>
</g>
<!-- Node19 -->
<g id="node4" class="node"><title>Node19</title>
<g id="a_node4"><a xlink:href="classutils.html#a6000246220e801bf6b1e6a553d7af13a" target="_top" xlink:title="Function that replaces a substring with another substring in a string. It does not make a copy of the...">
<polygon fill="white" stroke="black" points="178,-50 178,-69 313,-69 313,-50 178,-50"/>
<text text-anchor="middle" x="245.5" y="-57" font-family="Helvetica,sans-Serif" font-size="10.00">utils::ReplaceStringInPlace</text>
</a>
</g>
</g>
<!-- Node16&#45;&gt;Node19 -->
<g id="edge3" class="edge"><title>Node16&#45;&gt;Node19</title>
<path fill="none" stroke="midnightblue" d="M142.162,-70.772C150.61,-69.8415 159.271,-68.8876 167.805,-67.9476"/>
<polygon fill="midnightblue" stroke="midnightblue" points="168.189,-71.4266 177.745,-66.8527 167.422,-64.4686 168.189,-71.4266"/>
</g>
<!-- Node20 -->
<g id="node5" class="node"><title>Node20</title>
<g id="a_node5"><a xlink:href="class____internal_report_1_1____report_system.html#acd358cbc59625c6e2f47e0b5f825400d" target="_top" xlink:title="Method to report an Error. &#160;It will be displayed if Level &#160;is equal or higher to VerboseLevel::ERROR...">
<polygon fill="white" stroke="black" points="187.5,-0.5 187.5,-30.5 303.5,-30.5 303.5,-0.5 187.5,-0.5"/>
<text text-anchor="start" x="195.5" y="-18.5" font-family="Helvetica,sans-Serif" font-size="10.00">__internalReport::</text>
<text text-anchor="middle" x="245.5" y="-7.5" font-family="Helvetica,sans-Serif" font-size="10.00">__reportSystem::report</text>
</a>
</g>
</g>
<!-- Node16&#45;&gt;Node20 -->
<g id="edge4" class="edge"><title>Node16&#45;&gt;Node20</title>
<path fill="none" stroke="midnightblue" d="M113.318,-63.4099C137.446,-54.5979 168.083,-43.4087 193.681,-34.06"/>
<polygon fill="midnightblue" stroke="midnightblue" points="195.028,-37.2942 203.221,-30.576 192.627,-30.719 195.028,-37.2942"/>
</g>
</g>
</svg>
