<?xml version="1.0" encoding="UTF-8" standalone="no"?>
<!DOCTYPE svg PUBLIC "-//W3C//DTD SVG 1.1//EN"
 "http://www.w3.org/Graphics/SVG/1.1/DTD/svg11.dtd">
<!-- Generated by graphviz version 2.38.0 (20140413.2041)
 -->
<!-- Title: Cleaner::cleanNoAllGaps Pages: 1 -->
<svg width="618pt" height="317pt"
 viewBox="0.00 0.00 618.00 317.00" xmlns="http://www.w3.org/2000/svg" xmlns:xlink="http://www.w3.org/1999/xlink">
<g id="graph0" class="graph" transform="scale(1 1) rotate(0) translate(4 313)">
<title>Cleaner::cleanNoAllGaps</title>
<polygon fill="white" stroke="none" points="-4,4 -4,-313 614,-313 614,4 -4,4"/>
<!-- Node122 -->
<g id="node1" class="node"><title>Node122</title>
<polygon fill="#bfbfbf" stroke="black" points="0,-156.5 0,-175.5 127,-175.5 127,-156.5 0,-156.5"/>
<text text-anchor="middle" x="63.5" y="-163.5" font-family="Helvetica,sans-Serif" font-size="10.00">Cleaner::cleanNoAllGaps</text>
</g>
<!-- Node123 -->
<g id="node2" class="node"><title>Node123</title>
<g id="a_node2"><a xlink:href="class_cleaner.html#ad075f0ef730c8023cf8a0e35e7e1e53a" target="_top" xlink:title="Method to clean an alignment. &#160;It removes sequences that overpass or equals a certain threshold...">
<polygon fill="white" stroke="black" points="163,-156.5 163,-175.5 295,-175.5 295,-156.5 163,-156.5"/>
<text text-anchor="middle" x="229" y="-163.5" font-family="Helvetica,sans-Serif" font-size="10.00">Cleaner::cleanByCutValue</text>
</a>
</g>
</g>
<!-- Node122&#45;&gt;Node123 -->
<g id="edge1" class="edge"><title>Node122&#45;&gt;Node123</title>
<path fill="none" stroke="midnightblue" d="M127.246,-166C135.66,-166 144.359,-166 152.958,-166"/>
<polygon fill="midnightblue" stroke="midnightblue" points="152.984,-169.5 162.984,-166 152.984,-162.5 152.984,-169.5"/>
</g>
<!-- Node124 -->
<g id="node3" class="node"><title>Node124</title>
<g id="a_node3"><a xlink:href="classutils.html#ad50731aeb3c8f79ed8372516210dfc9d" target="_top" xlink:title="Round double to integer method. ">
<polygon fill="white" stroke="black" points="382.5,-289.5 382.5,-308.5 458.5,-308.5 458.5,-289.5 382.5,-289.5"/>
<text text-anchor="middle" x="420.5" y="-296.5" font-family="Helvetica,sans-Serif" font-size="10.00">utils::roundInt</text>
</a>
</g>
</g>
<!-- Node123&#45;&gt;Node124 -->
<g id="edge2" class="edge"><title>Node123&#45;&gt;Node124</title>
<path fill="none" stroke="midnightblue" d="M235.628,-175.813C249.017,-198.204 285.107,-253.194 331,-280 343.448,-287.271 358.339,-291.77 372.323,-294.551"/>
<polygon fill="midnightblue" stroke="midnightblue" points="371.846,-298.021 382.298,-296.288 373.046,-291.124 371.846,-298.021"/>
</g>
<!-- Node125 -->
<g id="node4" class="node"><title>Node125</title>
<g id="a_node4"><a xlink:href="classutils.html#a42f272221edf7752ffda49e4212ef653" target="_top" xlink:title="Integer vector copying. ">
<polygon fill="white" stroke="black" points="379.5,-251.5 379.5,-270.5 461.5,-270.5 461.5,-251.5 379.5,-251.5"/>
<text text-anchor="middle" x="420.5" y="-258.5" font-family="Helvetica,sans-Serif" font-size="10.00">utils::copyVect</text>
</a>
</g>
</g>
<!-- Node123&#45;&gt;Node125 -->
<g id="edge3" class="edge"><title>Node123&#45;&gt;Node125</title>
<path fill="none" stroke="midnightblue" d="M239.649,-175.611C256.593,-191.91 293.471,-224.866 331,-242 342.844,-247.407 356.291,-251.305 369.063,-254.103"/>
<polygon fill="midnightblue" stroke="midnightblue" points="368.625,-257.585 379.118,-256.12 370.002,-250.721 368.625,-257.585"/>
</g>
<!-- Node126 -->
<g id="node5" class="node"><title>Node126</title>
<g id="a_node5"><a xlink:href="classutils.html#a73f038c379c13d23e3220afaa14f9983" target="_top" xlink:title="Quicksort sorting method. ">
<polygon fill="white" stroke="black" points="380.5,-213.5 380.5,-232.5 460.5,-232.5 460.5,-213.5 380.5,-213.5"/>
<text text-anchor="middle" x="420.5" y="-220.5" font-family="Helvetica,sans-Serif" font-size="10.00">utils::quicksort</text>
</a>
</g>
</g>
<!-- Node123&#45;&gt;Node126 -->
<g id="edge4" class="edge"><title>Node123&#45;&gt;Node126</title>
<path fill="none" stroke="midnightblue" d="M252.537,-175.582C272.793,-183.927 303.498,-195.923 331,-204 343.611,-207.704 357.429,-211.016 370.318,-213.796"/>
<polygon fill="midnightblue" stroke="midnightblue" points="369.911,-217.287 380.416,-215.91 371.345,-210.435 369.911,-217.287"/>
</g>
<!-- Node128 -->
<g id="node7" class="node"><title>Node128</title>
<g id="a_node7"><a xlink:href="class_cleaner.html#a033da9ea63774f43f4c7aff04f23da81" target="_top" xlink:title="Method to detect right and left borders. Borders are the first column found with no gaps...">
<polygon fill="white" stroke="black" points="347.5,-175.5 347.5,-194.5 493.5,-194.5 493.5,-175.5 347.5,-175.5"/>
<text text-anchor="middle" x="420.5" y="-182.5" font-family="Helvetica,sans-Serif" font-size="10.00">Cleaner::removeOnlyTerminal</text>
</a>
</g>
</g>
<!-- Node123&#45;&gt;Node128 -->
<g id="edge6" class="edge"><title>Node123&#45;&gt;Node128</title>
<path fill="none" stroke="midnightblue" d="M295.215,-172.539C308.741,-173.895 323.159,-175.34 337.205,-176.749"/>
<polygon fill="midnightblue" stroke="midnightblue" points="337.05,-180.251 347.349,-177.766 337.748,-173.286 337.05,-180.251"/>
</g>
<!-- Node129 -->
<g id="node8" class="node"><title>Node129</title>
<g id="a_node8"><a xlink:href="class_cleaner.html#a24bd28e4191afc9471adff329bee1466" target="_top" xlink:title="Method for computing the complementary alignment. Complementary Alignment is an alignment containing ...">
<polygon fill="white" stroke="black" points="331,-137.5 331,-156.5 510,-156.5 510,-137.5 331,-137.5"/>
<text text-anchor="middle" x="420.5" y="-144.5" font-family="Helvetica,sans-Serif" font-size="10.00">Cleaner::computeComplementaryAlig</text>
</a>
</g>
</g>
<!-- Node123&#45;&gt;Node129 -->
<g id="edge7" class="edge"><title>Node123&#45;&gt;Node129</title>
<path fill="none" stroke="midnightblue" d="M295.215,-159.461C303.449,-158.636 312.013,-157.777 320.623,-156.914"/>
<polygon fill="midnightblue" stroke="midnightblue" points="321.133,-160.38 330.734,-155.9 320.435,-153.415 321.133,-160.38"/>
</g>
<!-- Node130 -->
<g id="node9" class="node"><title>Node130</title>
<g id="a_node9"><a xlink:href="class_cleaner.html#a2f7d85e29f23f880a7ad7e28863b36c3" target="_top" xlink:title="Method that identifies and removes columns and sequences composed only by gaps. ">
<polygon fill="white" stroke="black" points="366,-88 366,-118 475,-118 475,-88 366,-88"/>
<text text-anchor="start" x="374" y="-106" font-family="Helvetica,sans-Serif" font-size="10.00">Cleaner::removeCols</text>
<text text-anchor="middle" x="420.5" y="-95" font-family="Helvetica,sans-Serif" font-size="10.00">_SeqsAllGaps</text>
</a>
</g>
</g>
<!-- Node123&#45;&gt;Node130 -->
<g id="edge8" class="edge"><title>Node123&#45;&gt;Node130</title>
<path fill="none" stroke="midnightblue" d="M253.877,-156.364C274.216,-148.313 304.303,-136.775 331,-128 339.067,-125.348 347.602,-122.719 356.063,-120.218"/>
<polygon fill="midnightblue" stroke="midnightblue" points="357.305,-123.502 365.928,-117.347 355.348,-116.781 357.305,-123.502"/>
</g>
<!-- Node131 -->
<g id="node10" class="node"><title>Node131</title>
<g id="a_node10"><a xlink:href="classnew_alignment.html#a3de39c62c08a265178f1fa7df76c3ab7" target="_top" xlink:title="Method that copies information of the alignment to the pointers given. ">
<polygon fill="white" stroke="black" points="353,-39 353,-69 488,-69 488,-39 353,-39"/>
<text text-anchor="start" x="361" y="-57" font-family="Helvetica,sans-Serif" font-size="10.00">newAlignment::fillNewData</text>
<text text-anchor="middle" x="420.5" y="-46" font-family="Helvetica,sans-Serif" font-size="10.00">Structure</text>
</a>
</g>
</g>
<!-- Node123&#45;&gt;Node131 -->
<g id="edge9" class="edge"><title>Node123&#45;&gt;Node131</title>
<path fill="none" stroke="midnightblue" d="M238.443,-156.351C254.618,-138.456 291.861,-100.037 331,-79 335.258,-76.7111 339.748,-74.6139 344.354,-72.695"/>
<polygon fill="midnightblue" stroke="midnightblue" points="345.863,-75.8645 353.935,-69.0026 343.346,-69.3327 345.863,-75.8645"/>
</g>
<!-- Node132 -->
<g id="node11" class="node"><title>Node132</title>
<g id="a_node11"><a xlink:href="classnew_alignment.html#acbeb320f0f70222f81a906ccfc33a016" target="_top" xlink:title="Method to intialize data that has been modified on the alignment. The method checks if the sequences ...">
<polygon fill="white" stroke="black" points="355,-0.5 355,-19.5 486,-19.5 486,-0.5 355,-0.5"/>
<text text-anchor="middle" x="420.5" y="-7.5" font-family="Helvetica,sans-Serif" font-size="10.00">newAlignment::fillMatrices</text>
</a>
</g>
</g>
<!-- Node123&#45;&gt;Node132 -->
<g id="edge10" class="edge"><title>Node123&#45;&gt;Node132</title>
<path fill="none" stroke="midnightblue" d="M234.243,-156.246C245.768,-130.976 280.228,-63.0566 331,-30 335.424,-27.1194 340.207,-24.6503 345.178,-22.5343"/>
<polygon fill="midnightblue" stroke="midnightblue" points="346.789,-25.6687 354.927,-18.8848 344.335,-19.113 346.789,-25.6687"/>
</g>
<!-- Node127 -->
<g id="node6" class="node"><title>Node127</title>
<g id="a_node6"><a xlink:href="classutils.html#a3377ecde55631d1bbc4956e5923b7469" target="_top" xlink:title="Swapping elements method. ">
<polygon fill="white" stroke="black" points="546,-213.5 546,-232.5 610,-232.5 610,-213.5 546,-213.5"/>
<text text-anchor="middle" x="578" y="-220.5" font-family="Helvetica,sans-Serif" font-size="10.00">utils::swap</text>
</a>
</g>
</g>
<!-- Node126&#45;&gt;Node127 -->
<g id="edge5" class="edge"><title>Node126&#45;&gt;Node127</title>
<path fill="none" stroke="midnightblue" d="M460.739,-223C483.6,-223 512.403,-223 535.62,-223"/>
<polygon fill="midnightblue" stroke="midnightblue" points="535.854,-226.5 545.854,-223 535.853,-219.5 535.854,-226.5"/>
</g>
</g>
</svg>
