<?xml version="1.0" encoding="UTF-8" standalone="no"?>
<!DOCTYPE svg PUBLIC "-//W3C//DTD SVG 1.1//EN"
 "http://www.w3.org/Graphics/SVG/1.1/DTD/svg11.dtd">
<!-- Generated by graphviz version 2.40.1 (20161225.0304)
 -->
<!-- Title: trimAlManager::CleanSequences Pages: 1 -->
<svg width="722pt" height="66pt"
 viewBox="0.00 0.00 722.00 66.00" xmlns="http://www.w3.org/2000/svg" xmlns:xlink="http://www.w3.org/1999/xlink">
<g id="graph0" class="graph" transform="scale(1 1) rotate(0) translate(4 62)">
<title>trimAlManager::CleanSequences</title>
<polygon fill="#ffffff" stroke="transparent" points="-4,4 -4,-62 718,-62 718,4 -4,4"/>
<!-- Node497 -->
<g id="node1" class="node">
<title>Node497</title>
<polygon fill="#bfbfbf" stroke="#000000" points="0,-19.5 0,-38.5 160,-38.5 160,-19.5 0,-19.5"/>
<text text-anchor="middle" x="80" y="-26.5" font-family="Helvetica,sans-Serif" font-size="10.00" fill="#000000">trimAlManager::CleanSequences</text>
</g>
<!-- Node498 -->
<g id="node2" class="node">
<title>Node498</title>
<g id="a_node2"><a xlink:href="classtrim_al_manager.html#adc529dd893ed4e9df6f3ddbd58776068" target="_top" xlink:title="Core Method of the program. This is where almost all cleaning methods are called from. ">
<polygon fill="#ffffff" stroke="#000000" points="196,-14 196,-44 305,-44 305,-14 196,-14"/>
<text text-anchor="start" x="204" y="-32" font-family="Helvetica,sans-Serif" font-size="10.00" fill="#000000">trimAlManager::clean</text>
<text text-anchor="middle" x="250.5" y="-21" font-family="Helvetica,sans-Serif" font-size="10.00" fill="#000000">_alignment</text>
</a>
</g>
</g>
<!-- Node497&#45;&gt;Node498 -->
<g id="edge1" class="edge">
<title>Node497&#45;&gt;Node498</title>
<path fill="none" stroke="#191970" d="M170.4703,-29C179.1602,-29 187.7775,-29 195.9593,-29"/>
<polygon fill="#191970" stroke="#191970" points="170.2575,-25.5001 160.2574,-29 170.2574,-32.5001 170.2575,-25.5001"/>
</g>
<!-- Node499 -->
<g id="node3" class="node">
<title>Node499</title>
<g id="a_node3"><a xlink:href="classtrim_al_manager.html#a7c641a1feff33d401b4ea5c82e989289" target="_top" xlink:title="trimAlManager::innerPerform">
<polygon fill="#ffffff" stroke="#000000" points="342.5,-38.5 342.5,-57.5 483.5,-57.5 483.5,-38.5 342.5,-38.5"/>
<text text-anchor="middle" x="413" y="-45.5" font-family="Helvetica,sans-Serif" font-size="10.00" fill="#000000">trimAlManager::innerPerform</text>
</a>
</g>
</g>
<!-- Node498&#45;&gt;Node499 -->
<g id="edge2" class="edge">
<title>Node498&#45;&gt;Node499</title>
<path fill="none" stroke="#191970" d="M315.0655,-36.5492C324.0547,-37.6002 333.3286,-38.6846 342.4212,-39.7477"/>
<polygon fill="#191970" stroke="#191970" points="315.401,-33.0647 305.0622,-35.3796 314.588,-40.0173 315.401,-33.0647"/>
</g>
<!-- Node502 -->
<g id="node6" class="node">
<title>Node502</title>
<g id="a_node6"><a xlink:href="classtrim_al_manager.html#ac5795f93b3a2b51bf5d8dddd63b89f73" target="_top" xlink:title="trimAlManager::perform_VCF">
<polygon fill="#ffffff" stroke="#000000" points="341,-.5 341,-19.5 485,-19.5 485,-.5 341,-.5"/>
<text text-anchor="middle" x="413" y="-7.5" font-family="Helvetica,sans-Serif" font-size="10.00" fill="#000000">trimAlManager::perform_VCF</text>
</a>
</g>
</g>
<!-- Node498&#45;&gt;Node502 -->
<g id="edge5" class="edge">
<title>Node498&#45;&gt;Node502</title>
<path fill="none" stroke="#191970" d="M315.2328,-21.4312C323.6937,-20.442 332.4041,-19.4235 340.9757,-18.4213"/>
<polygon fill="#191970" stroke="#191970" points="314.588,-17.9827 305.0622,-22.6204 315.401,-24.9353 314.588,-17.9827"/>
</g>
<!-- Node500 -->
<g id="node4" class="node">
<title>Node500</title>
<g id="a_node4"><a xlink:href="classtrim_al_manager.html#abe8d2841455c644dc9c7d1294b82b00f" target="_top" xlink:title="Method to perform the analysis if all checks have passed. ">
<polygon fill="#ffffff" stroke="#000000" points="521,-38.5 521,-57.5 640,-57.5 640,-38.5 521,-38.5"/>
<text text-anchor="middle" x="580.5" y="-45.5" font-family="Helvetica,sans-Serif" font-size="10.00" fill="#000000">trimAlManager::perform</text>
</a>
</g>
</g>
<!-- Node499&#45;&gt;Node500 -->
<g id="edge3" class="edge">
<title>Node499&#45;&gt;Node500</title>
<path fill="none" stroke="#191970" d="M493.8102,-48C502.9363,-48 512.1089,-48 520.8939,-48"/>
<polygon fill="#191970" stroke="#191970" points="493.5497,-44.5001 483.5496,-48 493.5496,-51.5001 493.5497,-44.5001"/>
</g>
<!-- Node501 -->
<g id="node5" class="node">
<title>Node501</title>
<g id="a_node5"><a xlink:href="trim_al_main_8cpp.html#a0ddf1224851353fc92bfbff6f499fa97" target="_top" xlink:title="main">
<polygon fill="#ffffff" stroke="#000000" points="676,-38.5 676,-57.5 714,-57.5 714,-38.5 676,-38.5"/>
<text text-anchor="middle" x="695" y="-45.5" font-family="Helvetica,sans-Serif" font-size="10.00" fill="#000000">main</text>
</a>
</g>
</g>
<!-- Node500&#45;&gt;Node501 -->
<g id="edge4" class="edge">
<title>Node500&#45;&gt;Node501</title>
<path fill="none" stroke="#191970" d="M650.3198,-48C659.6177,-48 668.4503,-48 675.7697,-48"/>
<polygon fill="#191970" stroke="#191970" points="650.0976,-44.5001 640.0976,-48 650.0975,-51.5001 650.0976,-44.5001"/>
</g>
</g>
</svg>
