<?xml version="1.0" encoding="UTF-8" standalone="no"?>
<!DOCTYPE svg PUBLIC "-//W3C//DTD SVG 1.1//EN"
 "http://www.w3.org/Graphics/SVG/1.1/DTD/svg11.dtd">
<!-- Generated by graphviz version 2.38.0 (20140413.2041)
 -->
<!-- Title: trimAlManager::sequence_overlap_argument Pages: 1 -->
<svg width="288pt" height="78pt"
 viewBox="0.00 0.00 288.00 77.50" xmlns="http://www.w3.org/2000/svg" xmlns:xlink="http://www.w3.org/1999/xlink">
<g id="graph0" class="graph" transform="scale(1 1) rotate(0) translate(4 73.5)">
<title>trimAlManager::sequence_overlap_argument</title>
<polygon fill="white" stroke="none" points="-4,4 -4,-73.5 284,-73.5 284,4 -4,4"/>
<!-- Node417 -->
<g id="node1" class="node"><title>Node417</title>
<polygon fill="#bfbfbf" stroke="black" points="0,-22.5 0,-52.5 128,-52.5 128,-22.5 0,-22.5"/>
<text text-anchor="start" x="8" y="-40.5" font-family="Helvetica,sans-Serif" font-size="10.00">trimAlManager::sequence</text>
<text text-anchor="middle" x="64" y="-29.5" font-family="Helvetica,sans-Serif" font-size="10.00">_overlap_argument</text>
</g>
<!-- Node418 -->
<g id="node2" class="node"><title>Node418</title>
<g id="a_node2"><a xlink:href="classutils.html#a32e6bab4fb43b096f983faedeefd0511" target="_top" xlink:title="String&#45;is&#45;number checking. ">
<polygon fill="white" stroke="black" points="180.5,-50 180.5,-69 263.5,-69 263.5,-50 180.5,-50"/>
<text text-anchor="middle" x="222" y="-57" font-family="Helvetica,sans-Serif" font-size="10.00">utils::isNumber</text>
</a>
</g>
</g>
<!-- Node417&#45;&gt;Node418 -->
<g id="edge1" class="edge"><title>Node417&#45;&gt;Node418</title>
<path fill="none" stroke="midnightblue" d="M128.002,-46.3848C142.018,-48.3615 156.705,-50.4328 170.161,-52.3304"/>
<polygon fill="midnightblue" stroke="midnightblue" points="169.788,-55.8123 180.178,-53.7431 170.765,-48.8809 169.788,-55.8123"/>
</g>
<!-- Node419 -->
<g id="node3" class="node"><title>Node419</title>
<g id="a_node3"><a xlink:href="class____internal_report_1_1____report_system.html#a94ce85b97d7b6c3e5fbda0d30a35edd0" target="_top" xlink:title="Method to report an Error. It will be displayed if Level &#160;is equal or higher to VerboseLevel::ERROR. ">
<polygon fill="white" stroke="black" points="164,-0.5 164,-30.5 280,-30.5 280,-0.5 164,-0.5"/>
<text text-anchor="start" x="172" y="-18.5" font-family="Helvetica,sans-Serif" font-size="10.00">__internalReport::</text>
<text text-anchor="middle" x="222" y="-7.5" font-family="Helvetica,sans-Serif" font-size="10.00">__reportSystem::report</text>
</a>
</g>
</g>
<!-- Node417&#45;&gt;Node419 -->
<g id="edge2" class="edge"><title>Node417&#45;&gt;Node419</title>
<path fill="none" stroke="midnightblue" d="M128.002,-28.6152C136.511,-27.4152 145.267,-26.1803 153.845,-24.9706"/>
<polygon fill="midnightblue" stroke="midnightblue" points="154.394,-28.4278 163.808,-23.5656 153.417,-21.4964 154.394,-28.4278"/>
</g>
</g>
</svg>
