<?xml version="1.0" encoding="UTF-8" standalone="no"?>
<!DOCTYPE svg PUBLIC "-//W3C//DTD SVG 1.1//EN"
 "http://www.w3.org/Graphics/SVG/1.1/DTD/svg11.dtd">
<!-- Generated by graphviz version 2.40.1 (20161225.0304)
 -->
<!-- Title: trimAlManager::create_or_use_similarity_matrix Pages: 1 -->
<svg width="545pt" height="66pt"
 viewBox="0.00 0.00 545.00 66.00" xmlns="http://www.w3.org/2000/svg" xmlns:xlink="http://www.w3.org/1999/xlink">
<g id="graph0" class="graph" transform="scale(1 1) rotate(0) translate(4 62)">
<title>trimAlManager::create_or_use_similarity_matrix</title>
<polygon fill="#ffffff" stroke="transparent" points="-4,4 -4,-62 541,-62 541,4 -4,4"/>
<!-- Node559 -->
<g id="node1" class="node">
<title>Node559</title>
<polygon fill="#bfbfbf" stroke="#000000" points="0,-14 0,-44 128,-44 128,-14 0,-14"/>
<text text-anchor="start" x="8" y="-32" font-family="Helvetica,sans-Serif" font-size="10.00" fill="#000000">trimAlManager::create</text>
<text text-anchor="middle" x="64" y="-21" font-family="Helvetica,sans-Serif" font-size="10.00" fill="#000000">_or_use_similarity_matrix</text>
</g>
<!-- Node560 -->
<g id="node2" class="node">
<title>Node560</title>
<g id="a_node2"><a xlink:href="classtrim_al_manager.html#a7c641a1feff33d401b4ea5c82e989289" target="_top" xlink:title="trimAlManager::innerPerform">
<polygon fill="#ffffff" stroke="#000000" points="165.5,-38.5 165.5,-57.5 306.5,-57.5 306.5,-38.5 165.5,-38.5"/>
<text text-anchor="middle" x="236" y="-45.5" font-family="Helvetica,sans-Serif" font-size="10.00" fill="#000000">trimAlManager::innerPerform</text>
</a>
</g>
</g>
<!-- Node559&#45;&gt;Node560 -->
<g id="edge1" class="edge">
<title>Node559&#45;&gt;Node560</title>
<path fill="none" stroke="#191970" d="M138.1153,-37.1872C147.1193,-38.1818 156.3004,-39.196 165.2537,-40.185"/>
<polygon fill="#191970" stroke="#191970" points="138.3703,-33.6941 128.0465,-36.0749 137.6017,-40.6518 138.3703,-33.6941"/>
</g>
<!-- Node563 -->
<g id="node5" class="node">
<title>Node563</title>
<g id="a_node5"><a xlink:href="classtrim_al_manager.html#ac5795f93b3a2b51bf5d8dddd63b89f73" target="_top" xlink:title="trimAlManager::perform_VCF">
<polygon fill="#ffffff" stroke="#000000" points="164,-.5 164,-19.5 308,-19.5 308,-.5 164,-.5"/>
<text text-anchor="middle" x="236" y="-7.5" font-family="Helvetica,sans-Serif" font-size="10.00" fill="#000000">trimAlManager::perform_VCF</text>
</a>
</g>
</g>
<!-- Node559&#45;&gt;Node563 -->
<g id="edge4" class="edge">
<title>Node559&#45;&gt;Node563</title>
<path fill="none" stroke="#191970" d="M137.9941,-20.8262C146.5491,-19.8812 155.2657,-18.9183 163.7963,-17.976"/>
<polygon fill="#191970" stroke="#191970" points="137.6017,-17.3482 128.0465,-21.9251 138.3703,-24.3059 137.6017,-17.3482"/>
</g>
<!-- Node561 -->
<g id="node3" class="node">
<title>Node561</title>
<g id="a_node3"><a xlink:href="classtrim_al_manager.html#abe8d2841455c644dc9c7d1294b82b00f" target="_top" xlink:title="Method to perform the analysis if all checks have passed. ">
<polygon fill="#ffffff" stroke="#000000" points="344,-38.5 344,-57.5 463,-57.5 463,-38.5 344,-38.5"/>
<text text-anchor="middle" x="403.5" y="-45.5" font-family="Helvetica,sans-Serif" font-size="10.00" fill="#000000">trimAlManager::perform</text>
</a>
</g>
</g>
<!-- Node560&#45;&gt;Node561 -->
<g id="edge2" class="edge">
<title>Node560&#45;&gt;Node561</title>
<path fill="none" stroke="#191970" d="M316.8102,-48C325.9363,-48 335.1089,-48 343.8939,-48"/>
<polygon fill="#191970" stroke="#191970" points="316.5497,-44.5001 306.5496,-48 316.5496,-51.5001 316.5497,-44.5001"/>
</g>
<!-- Node562 -->
<g id="node4" class="node">
<title>Node562</title>
<g id="a_node4"><a xlink:href="trim_al_main_8cpp.html#a0ddf1224851353fc92bfbff6f499fa97" target="_top" xlink:title="main">
<polygon fill="#ffffff" stroke="#000000" points="499,-38.5 499,-57.5 537,-57.5 537,-38.5 499,-38.5"/>
<text text-anchor="middle" x="518" y="-45.5" font-family="Helvetica,sans-Serif" font-size="10.00" fill="#000000">main</text>
</a>
</g>
</g>
<!-- Node561&#45;&gt;Node562 -->
<g id="edge3" class="edge">
<title>Node561&#45;&gt;Node562</title>
<path fill="none" stroke="#191970" d="M473.3198,-48C482.6177,-48 491.4503,-48 498.7697,-48"/>
<polygon fill="#191970" stroke="#191970" points="473.0976,-44.5001 463.0976,-48 473.0975,-51.5001 473.0976,-44.5001"/>
</g>
</g>
</svg>
