<?xml version="1.0" encoding="UTF-8" standalone="no"?>
<!DOCTYPE svg PUBLIC "-//W3C//DTD SVG 1.1//EN"
 "http://www.w3.org/Graphics/SVG/1.1/DTD/svg11.dtd">
<!-- Generated by graphviz version 2.40.1 (20161225.0304)
 -->
<!-- Title: trimAlManager::check_and_prepare_coding_sequence Pages: 1 -->
<svg width="789pt" height="154pt"
 viewBox="0.00 0.00 789.00 153.50" xmlns="http://www.w3.org/2000/svg" xmlns:xlink="http://www.w3.org/1999/xlink">
<g id="graph0" class="graph" transform="scale(1 1) rotate(0) translate(4 149.5)">
<title>trimAlManager::check_and_prepare_coding_sequence</title>
<polygon fill="#ffffff" stroke="transparent" points="-4,4 -4,-149.5 785,-149.5 785,4 -4,4"/>
<!-- Node23 -->
<g id="node1" class="node">
<title>Node23</title>
<polygon fill="#bfbfbf" stroke="#000000" points="0,-63.5 0,-93.5 156,-93.5 156,-63.5 0,-63.5"/>
<text text-anchor="start" x="8" y="-81.5" font-family="Helvetica,sans-Serif" font-size="10.00" fill="#000000">trimAlManager::check</text>
<text text-anchor="middle" x="78" y="-70.5" font-family="Helvetica,sans-Serif" font-size="10.00" fill="#000000">_and_prepare_coding_sequence</text>
</g>
<!-- Node24 -->
<g id="node2" class="node">
<title>Node24</title>
<g id="a_node2"><a xlink:href="class_alignment.html#a3fd2333ea7098410cb271b795f482822" target="_top" xlink:title="Method to check if the CDS file is correct. Based on nature of residues: DNA/RNA (Most of the residue...">
<polygon fill="#ffffff" stroke="#000000" points="192,-63.5 192,-93.5 321,-93.5 321,-63.5 192,-63.5"/>
<text text-anchor="start" x="200" y="-81.5" font-family="Helvetica,sans-Serif" font-size="10.00" fill="#000000">Alignment::prepareCoding</text>
<text text-anchor="middle" x="256.5" y="-70.5" font-family="Helvetica,sans-Serif" font-size="10.00" fill="#000000">Sequence</text>
</a>
</g>
</g>
<!-- Node23&#45;&gt;Node24 -->
<g id="edge1" class="edge">
<title>Node23&#45;&gt;Node24</title>
<path fill="none" stroke="#191970" d="M156.033,-78.5C164.5699,-78.5 173.2459,-78.5 181.7418,-78.5"/>
<polygon fill="#191970" stroke="#191970" points="181.9944,-82.0001 191.9943,-78.5 181.9943,-75.0001 181.9944,-82.0001"/>
</g>
<!-- Node25 -->
<g id="node3" class="node">
<title>Node25</title>
<g id="a_node3"><a xlink:href="class_alignment.html#ab2487799d9a7d593d7fbe1b8da9593f5" target="_top" xlink:title="Alignment type getter. &#160;&#160;See SequenceTypes. ">
<polygon fill="#ffffff" stroke="#000000" points="357,-126 357,-145 502,-145 502,-126 357,-126"/>
<text text-anchor="middle" x="429.5" y="-133" font-family="Helvetica,sans-Serif" font-size="10.00" fill="#000000">Alignment::getAlignmentType</text>
</a>
</g>
</g>
<!-- Node24&#45;&gt;Node25 -->
<g id="edge2" class="edge">
<title>Node24&#45;&gt;Node25</title>
<path fill="none" stroke="#191970" d="M293.3996,-93.5172C312.26,-100.92 335.6753,-109.695 357,-116.5 364.4957,-118.892 372.4954,-121.214 380.3427,-123.3657"/>
<polygon fill="#191970" stroke="#191970" points="379.5867,-126.7866 390.1518,-125.9926 381.3975,-120.0248 379.5867,-126.7866"/>
</g>
<!-- Node28 -->
<g id="node6" class="node">
<title>Node28</title>
<g id="a_node6"><a xlink:href="class_alignment.html#af9c7aec9082ef16573d7fe37a93a638a" target="_top" xlink:title="Number of sequences getter. ">
<polygon fill="#ffffff" stroke="#000000" points="361.5,-88 361.5,-107 497.5,-107 497.5,-88 361.5,-88"/>
<text text-anchor="middle" x="429.5" y="-95" font-family="Helvetica,sans-Serif" font-size="10.00" fill="#000000">Alignment::getNumSpecies</text>
</a>
</g>
</g>
<!-- Node24&#45;&gt;Node28 -->
<g id="edge5" class="edge">
<title>Node24&#45;&gt;Node28</title>
<path fill="none" stroke="#191970" d="M321.411,-85.629C331.1906,-86.703 341.3634,-87.8203 351.3847,-88.9209"/>
<polygon fill="#191970" stroke="#191970" points="351.013,-92.401 361.3354,-90.0137 351.7773,-85.4428 351.013,-92.401"/>
</g>
<!-- Node29 -->
<g id="node7" class="node">
<title>Node29</title>
<g id="a_node7"><a xlink:href="class_alignment.html#a4dcdeecf3fad5bb749f3f6051655e17a" target="_top" xlink:title="Getter for the sequences, its names and lenghts. ">
<polygon fill="#ffffff" stroke="#000000" points="365.5,-50 365.5,-69 493.5,-69 493.5,-50 365.5,-50"/>
<text text-anchor="middle" x="429.5" y="-57" font-family="Helvetica,sans-Serif" font-size="10.00" fill="#000000">Alignment::getSequences</text>
</a>
</g>
</g>
<!-- Node24&#45;&gt;Node29 -->
<g id="edge6" class="edge">
<title>Node24&#45;&gt;Node29</title>
<path fill="none" stroke="#191970" d="M321.411,-71.371C332.422,-70.1617 343.9316,-68.8977 355.1621,-67.6643"/>
<polygon fill="#191970" stroke="#191970" points="355.8169,-71.1135 365.375,-66.5426 355.0527,-64.1553 355.8169,-71.1135"/>
</g>
<!-- Node31 -->
<g id="node9" class="node">
<title>Node31</title>
<g id="a_node9"><a xlink:href="classreporting_1_1report_manager.html#a6d122e673144584e0869bd33b8a5c1c6" target="_top" xlink:title="Method to report an Error. &#160;It will be displayed if Level &#160;is equal or higher to VerboseLevel::ERROR...">
<polygon fill="#ffffff" stroke="#000000" points="368.5,-.5 368.5,-30.5 490.5,-30.5 490.5,-.5 368.5,-.5"/>
<text text-anchor="start" x="376.5" y="-18.5" font-family="Helvetica,sans-Serif" font-size="10.00" fill="#000000">reporting::reportManager</text>
<text text-anchor="middle" x="429.5" y="-7.5" font-family="Helvetica,sans-Serif" font-size="10.00" fill="#000000">::report</text>
</a>
</g>
</g>
<!-- Node24&#45;&gt;Node31 -->
<g id="edge8" class="edge">
<title>Node24&#45;&gt;Node31</title>
<path fill="none" stroke="#191970" d="M295.5373,-63.4342C314.1073,-56.3458 336.65,-47.8541 357,-40.5 362.9164,-38.3619 369.1187,-36.1614 375.2997,-33.9944"/>
<polygon fill="#191970" stroke="#191970" points="376.6602,-37.2268 384.951,-30.6304 374.3562,-30.6168 376.6602,-37.2268"/>
</g>
<!-- Node26 -->
<g id="node4" class="node">
<title>Node26</title>
<g id="a_node4"><a xlink:href="namespaceutils.html#aab52f9515717f06cafd6ab7fe2ebdcef" target="_top" xlink:title="Checks an alignment type. ">
<polygon fill="#ffffff" stroke="#000000" points="538,-126 538,-145 670,-145 670,-126 538,-126"/>
<text text-anchor="middle" x="604" y="-133" font-family="Helvetica,sans-Serif" font-size="10.00" fill="#000000">utils::checkAlignmentType</text>
</a>
</g>
</g>
<!-- Node25&#45;&gt;Node26 -->
<g id="edge3" class="edge">
<title>Node25&#45;&gt;Node26</title>
<path fill="none" stroke="#191970" d="M502.2401,-135.5C510.6172,-135.5 519.1779,-135.5 527.6016,-135.5"/>
<polygon fill="#191970" stroke="#191970" points="527.7871,-139.0001 537.787,-135.5 527.787,-132.0001 527.7871,-139.0001"/>
</g>
<!-- Node27 -->
<g id="node5" class="node">
<title>Node27</title>
<g id="a_node5"><a xlink:href="namespaceutils.html#a6286fde6f4dd58ef0cfa9d55341b72f8" target="_top" xlink:title="utils::toUpper">
<polygon fill="#ffffff" stroke="#000000" points="706,-126 706,-145 781,-145 781,-126 706,-126"/>
<text text-anchor="middle" x="743.5" y="-133" font-family="Helvetica,sans-Serif" font-size="10.00" fill="#000000">utils::toUpper</text>
</a>
</g>
</g>
<!-- Node26&#45;&gt;Node27 -->
<g id="edge4" class="edge">
<title>Node26&#45;&gt;Node27</title>
<path fill="none" stroke="#191970" d="M670.0733,-135.5C678.6891,-135.5 687.3799,-135.5 695.6179,-135.5"/>
<polygon fill="#191970" stroke="#191970" points="695.7709,-139.0001 705.7708,-135.5 695.7708,-132.0001 695.7709,-139.0001"/>
</g>
<!-- Node30 -->
<g id="node8" class="node">
<title>Node30</title>
<g id="a_node8"><a xlink:href="namespaceutils.html#ac0a8721fef543bec18cec5c90c16faff" target="_top" xlink:title="Removes a determined char from the string. ">
<polygon fill="#ffffff" stroke="#000000" points="546,-50 546,-69 662,-69 662,-50 546,-50"/>
<text text-anchor="middle" x="604" y="-57" font-family="Helvetica,sans-Serif" font-size="10.00" fill="#000000">utils::removeCharacter</text>
</a>
</g>
</g>
<!-- Node29&#45;&gt;Node30 -->
<g id="edge7" class="edge">
<title>Node29&#45;&gt;Node30</title>
<path fill="none" stroke="#191970" d="M493.9816,-59.5C507.5207,-59.5 521.8462,-59.5 535.5254,-59.5"/>
<polygon fill="#191970" stroke="#191970" points="535.8363,-63.0001 545.8362,-59.5 535.8362,-56.0001 535.8363,-63.0001"/>
</g>
</g>
</svg>
