<?xml version="1.0" encoding="UTF-8" standalone="no"?>
<!DOCTYPE svg PUBLIC "-//W3C//DTD SVG 1.1//EN"
 "http://www.w3.org/Graphics/SVG/1.1/DTD/svg11.dtd">
<!-- Generated by graphviz version 2.40.1 (20161225.0304)
 -->
<!-- Title: trimAlManager::in_argument Pages: 1 -->
<svg width="493pt" height="88pt"
 viewBox="0.00 0.00 493.00 88.00" xmlns="http://www.w3.org/2000/svg" xmlns:xlink="http://www.w3.org/1999/xlink">
<g id="graph0" class="graph" transform="scale(1 1) rotate(0) translate(4 84)">
<title>trimAlManager::in_argument</title>
<polygon fill="#ffffff" stroke="transparent" points="-4,4 -4,-84 489,-84 489,4 -4,4"/>
<!-- Node544 -->
<g id="node1" class="node">
<title>Node544</title>
<g id="a_node1"><a xlink:title="Method to parse the input file argument.">
<polygon fill="#bfbfbf" stroke="#000000" points="0,-30 0,-49 139,-49 139,-30 0,-30"/>
<text text-anchor="middle" x="69.5" y="-37" font-family="Helvetica,sans-Serif" font-size="10.00" fill="#000000">trimAlManager::in_argument</text>
</a>
</g>
</g>
<!-- Node545 -->
<g id="node2" class="node">
<title>Node545</title>
<g id="a_node2"><a xlink:href="class_format_manager.html#a8e4018869bcf89ebee07b1356c2e36f6" target="_top" xlink:title="Function that loads an alignment given a file path. It automatically detects the format of the file.">
<polygon fill="#ffffff" stroke="#000000" points="175,-30 175,-49 327,-49 327,-30 175,-30"/>
<text text-anchor="middle" x="251" y="-37" font-family="Helvetica,sans-Serif" font-size="10.00" fill="#000000">FormatManager::loadAlignment</text>
</a>
</g>
</g>
<!-- Node544&#45;&gt;Node545 -->
<g id="edge1" class="edge">
<title>Node544&#45;&gt;Node545</title>
<path fill="none" stroke="#191970" d="M139.1536,-39.5C147.5603,-39.5 156.2227,-39.5 164.8301,-39.5"/>
<polygon fill="#191970" stroke="#191970" points="164.8905,-43.0001 174.8905,-39.5 164.8904,-36.0001 164.8905,-43.0001"/>
</g>
<!-- Node546 -->
<g id="node3" class="node">
<title>Node546</title>
<g id="a_node3"><a xlink:href="class_base_format_handler.html#a9bc237244e07e621a6089d55a3e96417" target="_top" xlink:title="Function to load a file in the current format and return an alignment object.">
<polygon fill="#ffffff" stroke="#000000" points="369,-49.5 369,-79.5 479,-79.5 479,-49.5 369,-49.5"/>
<text text-anchor="start" x="377" y="-67.5" font-family="Helvetica,sans-Serif" font-size="10.00" fill="#000000">BaseFormatHandler::</text>
<text text-anchor="middle" x="424" y="-56.5" font-family="Helvetica,sans-Serif" font-size="10.00" fill="#000000">LoadAlignment</text>
</a>
</g>
</g>
<!-- Node545&#45;&gt;Node546 -->
<g id="edge2" class="edge">
<title>Node545&#45;&gt;Node546</title>
<path fill="none" stroke="#191970" d="M316.8974,-49.0227C330.5939,-51.002 345.0222,-53.087 358.6972,-55.0632"/>
<polygon fill="#191970" stroke="#191970" points="358.5853,-58.5833 368.9831,-56.5496 359.5866,-51.6553 358.5853,-58.5833"/>
</g>
<!-- Node547 -->
<g id="node4" class="node">
<title>Node547</title>
<g id="a_node4"><a xlink:href="classreporting_1_1report_manager.html#a6d122e673144584e0869bd33b8a5c1c6" target="_top" xlink:title="Method to report an Error. &#160;It will be displayed if Level &#160;is equal or higher to VerboseLevel::ERROR.">
<polygon fill="#ffffff" stroke="#000000" points="363,-.5 363,-30.5 485,-30.5 485,-.5 363,-.5"/>
<text text-anchor="start" x="371" y="-18.5" font-family="Helvetica,sans-Serif" font-size="10.00" fill="#000000">reporting::reportManager</text>
<text text-anchor="middle" x="424" y="-7.5" font-family="Helvetica,sans-Serif" font-size="10.00" fill="#000000">::report</text>
</a>
</g>
</g>
<!-- Node545&#45;&gt;Node547 -->
<g id="edge3" class="edge">
<title>Node545&#45;&gt;Node547</title>
<path fill="none" stroke="#191970" d="M319.8713,-29.9456C330.7648,-28.4344 342.0478,-26.8691 352.9891,-25.3512"/>
<polygon fill="#191970" stroke="#191970" points="353.496,-28.8145 362.9202,-23.9735 352.534,-21.8809 353.496,-28.8145"/>
</g>
</g>
</svg>
