<?xml version="1.0" encoding="UTF-8" standalone="no"?>
<!DOCTYPE svg PUBLIC "-//W3C//DTD SVG 1.1//EN"
 "http://www.w3.org/Graphics/SVG/1.1/DTD/svg11.dtd">
<!-- Generated by graphviz version 2.38.0 (20140413.2041)
 -->
<!-- Title: trimAlManager::CleanResiduesAuto Pages: 1 -->
<svg width="880pt" height="28pt"
 viewBox="0.00 0.00 880.00 28.00" xmlns="http://www.w3.org/2000/svg" xmlns:xlink="http://www.w3.org/1999/xlink">
<g id="graph0" class="graph" transform="scale(1 1) rotate(0) translate(4 24)">
<title>trimAlManager::CleanResiduesAuto</title>
<polygon fill="white" stroke="none" points="-4,4 -4,-24 876,-24 876,4 -4,4"/>
<!-- Node206 -->
<g id="node1" class="node"><title>Node206</title>
<polygon fill="#bfbfbf" stroke="black" points="0,-0.5 0,-19.5 173,-19.5 173,-0.5 0,-0.5"/>
<text text-anchor="middle" x="86.5" y="-7.5" font-family="Helvetica,sans-Serif" font-size="10.00">trimAlManager::CleanResiduesAuto</text>
</g>
<!-- Node207 -->
<g id="node2" class="node"><title>Node207</title>
<g id="a_node2"><a xlink:href="class_cleaner.html#a6e219be8cd47b2d084e4563c2c66a947" target="_top" xlink:title="Method that selects the best cleaning method based on statistics of the alignment. ">
<polygon fill="white" stroke="black" points="209,-0.5 209,-19.5 324,-19.5 324,-0.5 209,-0.5"/>
<text text-anchor="middle" x="266.5" y="-7.5" font-family="Helvetica,sans-Serif" font-size="10.00">Cleaner::selectMethod</text>
</a>
</g>
</g>
<!-- Node206&#45;&gt;Node207 -->
<g id="edge1" class="edge"><title>Node206&#45;&gt;Node207</title>
<path fill="none" stroke="midnightblue" d="M173.111,-10C181.722,-10 190.376,-10 198.749,-10"/>
<polygon fill="midnightblue" stroke="midnightblue" points="198.801,-13.5001 208.801,-10 198.801,-6.5001 198.801,-13.5001"/>
</g>
<!-- Node208 -->
<g id="node3" class="node"><title>Node208</title>
<g id="a_node3"><a xlink:href="class_cleaner.html#a65d829578be97c192561a129435b3c58" target="_top" xlink:title="Method to calculate identities between the sequences from the alignment. See newAlignment::identities...">
<polygon fill="white" stroke="black" points="360,-0.5 360,-19.5 505,-19.5 505,-0.5 360,-0.5"/>
<text text-anchor="middle" x="432.5" y="-7.5" font-family="Helvetica,sans-Serif" font-size="10.00">Cleaner::calculateSeqIdentity</text>
</a>
</g>
</g>
<!-- Node207&#45;&gt;Node208 -->
<g id="edge2" class="edge"><title>Node207&#45;&gt;Node208</title>
<path fill="none" stroke="midnightblue" d="M324.399,-10C332.644,-10 341.264,-10 349.879,-10"/>
<polygon fill="midnightblue" stroke="midnightblue" points="349.966,-13.5001 359.966,-10 349.966,-6.5001 349.966,-13.5001"/>
</g>
<!-- Node209 -->
<g id="node4" class="node"><title>Node209</title>
<g id="a_node4"><a xlink:href="classnew_alignment.html#a670d5ef1ced9ed6041c3f6afdbd2cc02" target="_top" xlink:title="Alignment type getter. &#160;&#160;See SequenceTypes.">
<polygon fill="white" stroke="black" points="541,-0.5 541,-19.5 704,-19.5 704,-0.5 541,-0.5"/>
<text text-anchor="middle" x="622.5" y="-7.5" font-family="Helvetica,sans-Serif" font-size="10.00">newAlignment::getAlignmentType</text>
</a>
</g>
</g>
<!-- Node208&#45;&gt;Node209 -->
<g id="edge3" class="edge"><title>Node208&#45;&gt;Node209</title>
<path fill="none" stroke="midnightblue" d="M505.111,-10C513.539,-10 522.222,-10 530.866,-10"/>
<polygon fill="midnightblue" stroke="midnightblue" points="530.98,-13.5001 540.98,-10 530.98,-6.5001 530.98,-13.5001"/>
</g>
<!-- Node210 -->
<g id="node5" class="node"><title>Node210</title>
<g id="a_node5"><a xlink:href="classutils.html#a1f1dcbfa7276e54acec72bdbae1b1255" target="_top" xlink:title="Checks an alignment type. ">
<polygon fill="white" stroke="black" points="740,-0.5 740,-19.5 872,-19.5 872,-0.5 740,-0.5"/>
<text text-anchor="middle" x="806" y="-7.5" font-family="Helvetica,sans-Serif" font-size="10.00">utils::checkAlignmentType</text>
</a>
</g>
</g>
<!-- Node209&#45;&gt;Node210 -->
<g id="edge4" class="edge"><title>Node209&#45;&gt;Node210</title>
<path fill="none" stroke="midnightblue" d="M704.166,-10C712.646,-10 721.246,-10 729.664,-10"/>
<polygon fill="midnightblue" stroke="midnightblue" points="729.821,-13.5001 739.821,-10 729.821,-6.5001 729.821,-13.5001"/>
</g>
</g>
</svg>
