<?xml version="1.0" encoding="UTF-8" standalone="no"?>
<!DOCTYPE svg PUBLIC "-//W3C//DTD SVG 1.1//EN"
 "http://www.w3.org/Graphics/SVG/1.1/DTD/svg11.dtd">
<!-- Generated by graphviz version 2.38.0 (20140413.2041)
 -->
<!-- Title: Cleaner::removeSequences Pages: 1 -->
<svg width="641pt" height="39pt"
 viewBox="0.00 0.00 641.00 39.00" xmlns="http://www.w3.org/2000/svg" xmlns:xlink="http://www.w3.org/1999/xlink">
<g id="graph0" class="graph" transform="scale(1 1) rotate(0) translate(4 35)">
<title>Cleaner::removeSequences</title>
<polygon fill="white" stroke="none" points="-4,4 -4,-35 637,-35 637,4 -4,4"/>
<!-- Node237 -->
<g id="node1" class="node"><title>Node237</title>
<polygon fill="#bfbfbf" stroke="black" points="0,-6 0,-25 137,-25 137,-6 0,-6"/>
<text text-anchor="middle" x="68.5" y="-13" font-family="Helvetica,sans-Serif" font-size="10.00">Cleaner::removeSequences</text>
</g>
<!-- Node238 -->
<g id="node2" class="node"><title>Node238</title>
<g id="a_node2"><a xlink:href="classtrim_al_manager.html#a10536f715945a1a45f1df33f7cedc81e" target="_top" xlink:title="Method to trim or reduce the number of sequences in an alignment. It performs one or none of the foll...">
<polygon fill="white" stroke="black" points="173,-6 173,-25 333,-25 333,-6 173,-6"/>
<text text-anchor="middle" x="253" y="-13" font-family="Helvetica,sans-Serif" font-size="10.00">trimAlManager::CleanSequences</text>
</a>
</g>
</g>
<!-- Node237&#45;&gt;Node238 -->
<g id="edge1" class="edge"><title>Node237&#45;&gt;Node238</title>
<path fill="none" stroke="midnightblue" d="M147.341,-15.5C155.737,-15.5 164.288,-15.5 172.7,-15.5"/>
<polygon fill="midnightblue" stroke="midnightblue" points="147.197,-12.0001 137.197,-15.5 147.197,-19.0001 147.197,-12.0001"/>
</g>
<!-- Node239 -->
<g id="node3" class="node"><title>Node239</title>
<g id="a_node3"><a xlink:href="classtrim_al_manager.html#adc529dd893ed4e9df6f3ddbd58776068" target="_top" xlink:title="Core Method of the program. This is where almost all cleaning methods are called from. ">
<polygon fill="white" stroke="black" points="369,-0.5 369,-30.5 478,-30.5 478,-0.5 369,-0.5"/>
<text text-anchor="start" x="377" y="-18.5" font-family="Helvetica,sans-Serif" font-size="10.00">trimAlManager::clean</text>
<text text-anchor="middle" x="423.5" y="-7.5" font-family="Helvetica,sans-Serif" font-size="10.00">_alignment</text>
</a>
</g>
</g>
<!-- Node238&#45;&gt;Node239 -->
<g id="edge2" class="edge"><title>Node238&#45;&gt;Node239</title>
<path fill="none" stroke="midnightblue" d="M343.409,-15.5C351.997,-15.5 360.513,-15.5 368.599,-15.5"/>
<polygon fill="midnightblue" stroke="midnightblue" points="343.316,-12.0001 333.316,-15.5 343.316,-19.0001 343.316,-12.0001"/>
</g>
<!-- Node240 -->
<g id="node4" class="node"><title>Node240</title>
<g id="a_node4"><a xlink:href="classtrim_al_manager.html#abe8d2841455c644dc9c7d1294b82b00f" target="_top" xlink:title="Method to perform the analysis if all checks have passed. ">
<polygon fill="white" stroke="black" points="514,-6 514,-25 633,-25 633,-6 514,-6"/>
<text text-anchor="middle" x="573.5" y="-13" font-family="Helvetica,sans-Serif" font-size="10.00">trimAlManager::perform</text>
</a>
</g>
</g>
<!-- Node239&#45;&gt;Node240 -->
<g id="edge3" class="edge"><title>Node239&#45;&gt;Node240</title>
<path fill="none" stroke="midnightblue" d="M488.532,-15.5C496.977,-15.5 505.597,-15.5 513.943,-15.5"/>
<polygon fill="midnightblue" stroke="midnightblue" points="488.35,-12.0001 478.35,-15.5 488.35,-19.0001 488.35,-12.0001"/>
</g>
</g>
</svg>
