<?xml version="1.0" encoding="UTF-8" standalone="no"?>
<!DOCTYPE svg PUBLIC "-//W3C//DTD SVG 1.1//EN"
 "http://www.w3.org/Graphics/SVG/1.1/DTD/svg11.dtd">
<!-- Generated by graphviz version 2.40.1 (20161225.0304)
 -->
<!-- Title: statistics::Gaps::getGapsWindow Pages: 1 -->
<svg width="1855pt" height="654pt"
 viewBox="0.00 0.00 1855.00 654.00" xmlns="http://www.w3.org/2000/svg" xmlns:xlink="http://www.w3.org/1999/xlink">
<g id="graph0" class="graph" transform="scale(1 1) rotate(0) translate(4 650)">
<title>statistics::Gaps::getGapsWindow</title>
<polygon fill="#ffffff" stroke="transparent" points="-4,4 -4,-650 1851,-650 1851,4 -4,4"/>
<!-- Node173 -->
<g id="node1" class="node">
<title>Node173</title>
<polygon fill="#bfbfbf" stroke="#000000" points="0,-166 0,-196 128,-196 128,-166 0,-166"/>
<text text-anchor="start" x="8" y="-184" font-family="Helvetica,sans-Serif" font-size="10.00" fill="#000000">statistics::Gaps::getGaps</text>
<text text-anchor="middle" x="64" y="-173" font-family="Helvetica,sans-Serif" font-size="10.00" fill="#000000">Window</text>
</g>
<!-- Node174 -->
<g id="node2" class="node">
<title>Node174</title>
<g id="a_node2"><a xlink:href="class_alignment.html#a3754dfadea173918f5e85b9eb4c3ad8a" target="_top" xlink:title="Method to report the trimming results in HTML. Outputs an HTML file that shows visually what has been...">
<polygon fill="#ffffff" stroke="#000000" points="681,-588.5 681,-607.5 858,-607.5 858,-588.5 681,-588.5"/>
<text text-anchor="middle" x="769.5" y="-595.5" font-family="Helvetica,sans-Serif" font-size="10.00" fill="#000000">Alignment::alignmentSummaryHTML</text>
</a>
</g>
</g>
<!-- Node173&#45;&gt;Node174 -->
<g id="edge1" class="edge">
<title>Node173&#45;&gt;Node174</title>
<path fill="none" stroke="#191970" d="M72.954,-205.8409C87.4153,-243.2672 118.9196,-314.754 164,-362 308.1862,-513.113 560.4764,-569.0863 689.1206,-588.4967"/>
<polygon fill="#191970" stroke="#191970" points="76.135,-204.3569 69.33,-196.2364 69.5857,-206.8281 76.135,-204.3569"/>
</g>
<!-- Node180 -->
<g id="node8" class="node">
<title>Node180</title>
<g id="a_node8"><a xlink:href="class_alignment.html#ac4196c026e0f482eaccf9976f82f72e3" target="_top" xlink:title="Method to report the trimming results in SVG. Outputs a SVG file that shows visually what has been do...">
<polygon fill="#ffffff" stroke="#000000" points="684,-550.5 684,-569.5 855,-569.5 855,-550.5 684,-550.5"/>
<text text-anchor="middle" x="769.5" y="-557.5" font-family="Helvetica,sans-Serif" font-size="10.00" fill="#000000">Alignment::alignmentSummarySVG</text>
</a>
</g>
</g>
<!-- Node173&#45;&gt;Node180 -->
<g id="edge7" class="edge">
<title>Node173&#45;&gt;Node180</title>
<path fill="none" stroke="#191970" d="M82.2434,-204.2181C101.1956,-227.4877 132.445,-263.557 164,-290 300.459,-404.3526 336.9718,-438.1923 502,-505 560.4506,-528.6623 630.369,-542.5832 684.0629,-550.4979"/>
<polygon fill="#191970" stroke="#191970" points="84.8376,-201.8592 75.8395,-196.2658 79.3855,-206.2496 84.8376,-201.8592"/>
</g>
<!-- Node181 -->
<g id="node9" class="node">
<title>Node181</title>
<g id="a_node9"><a xlink:href="classstatistics_1_1_similarity.html#ae69ec0e79912ae23c8cfe97358c4794d" target="_top" xlink:title="Method to calculate the similarity values of a alignment matrix. ">
<polygon fill="#ffffff" stroke="#000000" points="185.5,-250 185.5,-280 288.5,-280 288.5,-250 185.5,-250"/>
<text text-anchor="start" x="193.5" y="-268" font-family="Helvetica,sans-Serif" font-size="10.00" fill="#000000">statistics::Similarity</text>
<text text-anchor="middle" x="237" y="-257" font-family="Helvetica,sans-Serif" font-size="10.00" fill="#000000">::calculateVectors</text>
</a>
</g>
</g>
<!-- Node173&#45;&gt;Node181 -->
<g id="edge9" class="edge">
<title>Node173&#45;&gt;Node181</title>
<path fill="none" stroke="#191970" d="M104.1766,-200.5077C135.2335,-215.5873 177.5909,-236.154 206.0477,-249.9711"/>
<polygon fill="#191970" stroke="#191970" points="105.4534,-197.2369 94.9289,-196.0175 102.3958,-203.5339 105.4534,-197.2369"/>
</g>
<!-- Node186 -->
<g id="node14" class="node">
<title>Node186</title>
<g id="a_node14"><a xlink:href="class_cleaner.html#a4718e31c0183b5a98751d77479faacf0" target="_top" xlink:title="Method to trim an alignment based on the similarity and gaps distribution values. ...">
<polygon fill="#ffffff" stroke="#000000" points="940.5,-267.5 940.5,-286.5 1020.5,-286.5 1020.5,-267.5 940.5,-267.5"/>
<text text-anchor="middle" x="980.5" y="-274.5" font-family="Helvetica,sans-Serif" font-size="10.00" fill="#000000">Cleaner::clean</text>
</a>
</g>
</g>
<!-- Node173&#45;&gt;Node186 -->
<g id="edge41" class="edge">
<title>Node173&#45;&gt;Node186</title>
<path fill="none" stroke="#191970" d="M138.593,-181C336.1688,-181 858,-181 858,-181 861.2725,-182.1295 937.8571,-243.0101 968.2414,-267.2224"/>
<polygon fill="#191970" stroke="#191970" points="138.3038,-177.5001 128.3038,-181 138.3038,-184.5001 138.3038,-177.5001"/>
</g>
<!-- Node187 -->
<g id="node15" class="node">
<title>Node187</title>
<g id="a_node15"><a xlink:href="class_cleaner.html#a6727a235afa29f08a50716f28fa5c8fc" target="_top" xlink:title="Method to clean an alignment. It carries out strict and strictplus. The method: ">
<polygon fill="#ffffff" stroke="#000000" points="698,-190.5 698,-209.5 841,-209.5 841,-190.5 698,-190.5"/>
<text text-anchor="middle" x="769.5" y="-197.5" font-family="Helvetica,sans-Serif" font-size="10.00" fill="#000000">Cleaner::cleanCombMethods</text>
</a>
</g>
</g>
<!-- Node173&#45;&gt;Node187 -->
<g id="edge44" class="edge">
<title>Node173&#45;&gt;Node187</title>
<path fill="none" stroke="#191970" d="M109.8797,-162.4591C126.6223,-156.6069 145.8933,-150.9104 164,-148 377.2908,-113.7163 636.7305,-167.5369 732.0593,-190.4602"/>
<polygon fill="#191970" stroke="#191970" points="108.559,-159.2148 100.342,-165.903 110.9363,-165.7987 108.559,-159.2148"/>
</g>
<!-- Node194 -->
<g id="node22" class="node">
<title>Node194</title>
<g id="a_node22"><a xlink:href="class_alignment.html#a724218d5e7d168974d9abcafcde632a1" target="_top" xlink:title="Alignment::statSVG">
<polygon fill="#ffffff" stroke="#000000" points="717.5,-626.5 717.5,-645.5 821.5,-645.5 821.5,-626.5 717.5,-626.5"/>
<text text-anchor="middle" x="769.5" y="-633.5" font-family="Helvetica,sans-Serif" font-size="10.00" fill="#000000">Alignment::statSVG</text>
</a>
</g>
</g>
<!-- Node173&#45;&gt;Node194 -->
<g id="edge56" class="edge">
<title>Node173&#45;&gt;Node194</title>
<path fill="none" stroke="#191970" d="M68.3053,-206.1521C77.7277,-254.4719 104.2897,-361.3819 164,-428 312.7451,-593.9532 599.913,-627.545 717.436,-634.3102"/>
<polygon fill="#191970" stroke="#191970" points="71.7301,-205.4249 66.4547,-196.2369 64.849,-206.7094 71.7301,-205.4249"/>
</g>
<!-- Node197 -->
<g id="node25" class="node">
<title>Node197</title>
<g id="a_node25"><a xlink:href="class_cleaner.html#aa57106470d2104a925b9396b8a9f33b3" target="_top" xlink:title="Method that carries the gappyout approach. This methods calculates the slope in gaps distribution on ...">
<polygon fill="#ffffff" stroke="#000000" points="346,-76.5 346,-95.5 466,-95.5 466,-76.5 346,-76.5"/>
<text text-anchor="middle" x="406" y="-83.5" font-family="Helvetica,sans-Serif" font-size="10.00" fill="#000000">Cleaner::clean2ndSlope</text>
</a>
</g>
</g>
<!-- Node173&#45;&gt;Node197 -->
<g id="edge42" class="edge">
<title>Node173&#45;&gt;Node197</title>
<path fill="none" stroke="#191970" d="M87.3476,-159.0168C106.4058,-142.4942 134.8611,-120.9057 164,-110 223.1143,-87.8755 295.7161,-83.4068 345.8922,-83.5178"/>
<polygon fill="#191970" stroke="#191970" points="84.9303,-156.4827 79.7806,-165.7418 89.5804,-161.715 84.9303,-156.4827"/>
</g>
<!-- Node198 -->
<g id="node26" class="node">
<title>Node198</title>
<g id="a_node26"><a xlink:href="class_cleaner.html#af7c9e1a177424168fa4214aca9ebd8e2" target="_top" xlink:title="Method to trim an alignment based on the gap distribution values. Column blocks that don&#39;t have a min...">
<polygon fill="#ffffff" stroke="#000000" points="718,-114.5 718,-133.5 821,-133.5 821,-114.5 718,-114.5"/>
<text text-anchor="middle" x="769.5" y="-121.5" font-family="Helvetica,sans-Serif" font-size="10.00" fill="#000000">Cleaner::cleanGaps</text>
</a>
</g>
</g>
<!-- Node173&#45;&gt;Node198 -->
<g id="edge45" class="edge">
<title>Node173&#45;&gt;Node198</title>
<path fill="none" stroke="#191970" d="M138.1993,-175.0052C281.6778,-163.413 593.8919,-138.188 717.555,-128.1968"/>
<polygon fill="#191970" stroke="#191970" points="137.851,-171.5218 128.1654,-175.8158 138.4148,-178.4991 137.851,-171.5218"/>
</g>
<!-- Node199 -->
<g id="node27" class="node">
<title>Node199</title>
<g id="a_node27"><a xlink:href="class_cleaner.html#a3af7bde2142886d6d723c95694b7b9ba" target="_top" xlink:title="Method to remove columns composed only by gaps This method is specially useful when we remove missali...">
<polygon fill="#ffffff" stroke="#000000" points="706,-38.5 706,-57.5 833,-57.5 833,-38.5 706,-38.5"/>
<text text-anchor="middle" x="769.5" y="-45.5" font-family="Helvetica,sans-Serif" font-size="10.00" fill="#000000">Cleaner::cleanNoAllGaps</text>
</a>
</g>
</g>
<!-- Node173&#45;&gt;Node199 -->
<g id="edge48" class="edge">
<title>Node173&#45;&gt;Node199</title>
<path fill="none" stroke="#191970" d="M79.6131,-157.6107C97.0477,-133.6843 127.6445,-97.7211 164,-81 258.9287,-37.339 570.6889,-41.546 705.9483,-45.6386"/>
<polygon fill="#191970" stroke="#191970" points="76.7206,-155.6391 73.799,-165.8231 82.4338,-159.6838 76.7206,-155.6391"/>
</g>
<!-- Node201 -->
<g id="node29" class="node">
<title>Node201</title>
<g id="a_node29"><a xlink:href="class_cleaner.html#ab7f5b746b97697181f4cd06063cbb49a" target="_top" xlink:title="Method to detect right and left borders. Borders are the first column found with no gaps...">
<polygon fill="#ffffff" stroke="#000000" points="164,-.5 164,-19.5 310,-19.5 310,-.5 164,-.5"/>
<text text-anchor="middle" x="237" y="-7.5" font-family="Helvetica,sans-Serif" font-size="10.00" fill="#000000">Cleaner::removeOnlyTerminal</text>
</a>
</g>
</g>
<!-- Node173&#45;&gt;Node201 -->
<g id="edge52" class="edge">
<title>Node173&#45;&gt;Node201</title>
<path fill="none" stroke="#191970" d="M74.5289,-156.3767C89.6797,-123.7854 120.653,-66.6482 164,-34 172.3121,-27.7395 182.3359,-23.066 192.2567,-19.5935"/>
<polygon fill="#191970" stroke="#191970" points="71.2675,-155.0948 70.3388,-165.6489 77.6464,-157.9775 71.2675,-155.0948"/>
</g>
<!-- Node175 -->
<g id="node3" class="node">
<title>Node175</title>
<g id="a_node3"><a xlink:href="classtrim_al_manager.html#a1da8f8b677f19ed8f7e08a663d97bb92" target="_top" xlink:title="trimAlManager::output\l_reports">
<polygon fill="#ffffff" stroke="#000000" points="1126.5,-449 1126.5,-479 1239.5,-479 1239.5,-449 1126.5,-449"/>
<text text-anchor="start" x="1134.5" y="-467" font-family="Helvetica,sans-Serif" font-size="10.00" fill="#000000">trimAlManager::output</text>
<text text-anchor="middle" x="1183" y="-456" font-family="Helvetica,sans-Serif" font-size="10.00" fill="#000000">_reports</text>
</a>
</g>
</g>
<!-- Node174&#45;&gt;Node175 -->
<g id="edge2" class="edge">
<title>Node174&#45;&gt;Node175</title>
<path fill="none" stroke="#191970" d="M826.0307,-586.2678C836.6712,-583.9451 847.691,-581.4617 858,-579 951.4248,-556.691 977.3564,-558.4949 1067,-524 1099.5876,-511.4603 1134.946,-492.2948 1157.9489,-479.013"/>
<polygon fill="#191970" stroke="#191970" points="825.0157,-582.9063 815.9807,-588.4397 826.4944,-589.7484 825.0157,-582.9063"/>
</g>
<!-- Node176 -->
<g id="node4" class="node">
<title>Node176</title>
<g id="a_node4"><a xlink:href="classtrim_al_manager.html#a7c641a1feff33d401b4ea5c82e989289" target="_top" xlink:title="trimAlManager::innerPerform">
<polygon fill="#ffffff" stroke="#000000" points="1475.5,-311.5 1475.5,-330.5 1616.5,-330.5 1616.5,-311.5 1475.5,-311.5"/>
<text text-anchor="middle" x="1546" y="-318.5" font-family="Helvetica,sans-Serif" font-size="10.00" fill="#000000">trimAlManager::innerPerform</text>
</a>
</g>
</g>
<!-- Node175&#45;&gt;Node176 -->
<g id="edge3" class="edge">
<title>Node175&#45;&gt;Node176</title>
<path fill="none" stroke="#191970" d="M1209.199,-442.6192C1231.7719,-425.1526 1265.8626,-400.9834 1299,-386 1360.8176,-358.0487 1436.9705,-340.2904 1488.2428,-330.5253"/>
<polygon fill="#191970" stroke="#191970" points="1206.8391,-440.0222 1201.1376,-448.9521 1211.1634,-445.5268 1206.8391,-440.0222"/>
</g>
<!-- Node179 -->
<g id="node7" class="node">
<title>Node179</title>
<g id="a_node7"><a xlink:href="classtrim_al_manager.html#ac5795f93b3a2b51bf5d8dddd63b89f73" target="_top" xlink:title="trimAlManager::perform_VCF">
<polygon fill="#ffffff" stroke="#000000" points="1474,-368.5 1474,-387.5 1618,-387.5 1618,-368.5 1474,-368.5"/>
<text text-anchor="middle" x="1546" y="-375.5" font-family="Helvetica,sans-Serif" font-size="10.00" fill="#000000">trimAlManager::perform_VCF</text>
</a>
</g>
</g>
<!-- Node175&#45;&gt;Node179 -->
<g id="edge6" class="edge">
<title>Node175&#45;&gt;Node179</title>
<path fill="none" stroke="#191970" d="M1224.1045,-444.6662C1245.9352,-435.089 1273.4662,-424.0881 1299,-417 1356.7272,-400.9751 1423.9926,-390.8941 1473.738,-385.0054"/>
<polygon fill="#191970" stroke="#191970" points="1222.5216,-441.5397 1214.8122,-448.8072 1225.371,-447.9336 1222.5216,-441.5397"/>
</g>
<!-- Node177 -->
<g id="node5" class="node">
<title>Node177</title>
<g id="a_node5"><a xlink:href="classtrim_al_manager.html#abe8d2841455c644dc9c7d1294b82b00f" target="_top" xlink:title="Method to perform the analysis if all checks have passed. ">
<polygon fill="#ffffff" stroke="#000000" points="1654,-311.5 1654,-330.5 1773,-330.5 1773,-311.5 1654,-311.5"/>
<text text-anchor="middle" x="1713.5" y="-318.5" font-family="Helvetica,sans-Serif" font-size="10.00" fill="#000000">trimAlManager::perform</text>
</a>
</g>
</g>
<!-- Node176&#45;&gt;Node177 -->
<g id="edge4" class="edge">
<title>Node176&#45;&gt;Node177</title>
<path fill="none" stroke="#191970" d="M1626.8102,-321C1635.9363,-321 1645.1089,-321 1653.8939,-321"/>
<polygon fill="#191970" stroke="#191970" points="1626.5497,-317.5001 1616.5496,-321 1626.5496,-324.5001 1626.5497,-317.5001"/>
</g>
<!-- Node178 -->
<g id="node6" class="node">
<title>Node178</title>
<g id="a_node6"><a xlink:href="trim_al_main_8cpp.html#a0ddf1224851353fc92bfbff6f499fa97" target="_top" xlink:title="main">
<polygon fill="#ffffff" stroke="#000000" points="1809,-311.5 1809,-330.5 1847,-330.5 1847,-311.5 1809,-311.5"/>
<text text-anchor="middle" x="1828" y="-318.5" font-family="Helvetica,sans-Serif" font-size="10.00" fill="#000000">main</text>
</a>
</g>
</g>
<!-- Node177&#45;&gt;Node178 -->
<g id="edge5" class="edge">
<title>Node177&#45;&gt;Node178</title>
<path fill="none" stroke="#191970" d="M1783.3198,-321C1792.6177,-321 1801.4503,-321 1808.7697,-321"/>
<polygon fill="#191970" stroke="#191970" points="1783.0976,-317.5001 1773.0976,-321 1783.0975,-324.5001 1783.0976,-317.5001"/>
</g>
<!-- Node180&#45;&gt;Node175 -->
<g id="edge8" class="edge">
<title>Node180&#45;&gt;Node175</title>
<path fill="none" stroke="#191970" d="M820.6893,-548.1157C898.36,-530.0833 1045.4688,-495.9299 1126.2905,-477.1659"/>
<polygon fill="#191970" stroke="#191970" points="819.6091,-544.7733 810.6597,-550.4442 821.1922,-551.5919 819.6091,-544.7733"/>
</g>
<!-- Node182 -->
<g id="node10" class="node">
<title>Node182</title>
<g id="a_node10"><a xlink:href="classstatistics_1_1_manager.html#a92505ca5aedc5b45c4300a0e8a7d1e17" target="_top" xlink:title="Method to handle similarity stat calculation It checks if the similarity submodule has been created...">
<polygon fill="#ffffff" stroke="#000000" points="502,-272 502,-302 645,-302 645,-272 502,-272"/>
<text text-anchor="start" x="510" y="-290" font-family="Helvetica,sans-Serif" font-size="10.00" fill="#000000">statistics::Manager</text>
<text text-anchor="middle" x="573.5" y="-279" font-family="Helvetica,sans-Serif" font-size="10.00" fill="#000000">::calculateConservationStats</text>
</a>
</g>
</g>
<!-- Node181&#45;&gt;Node182 -->
<g id="edge10" class="edge">
<title>Node181&#45;&gt;Node182</title>
<path fill="none" stroke="#191970" d="M298.8619,-269.0445C356.2413,-272.7959 441.6131,-278.3774 501.9142,-282.3198"/>
<polygon fill="#191970" stroke="#191970" points="299.0477,-265.5492 288.8407,-268.3893 298.591,-272.5343 299.0477,-265.5492"/>
</g>
<!-- Node192 -->
<g id="node20" class="node">
<title>Node192</title>
<g id="a_node20"><a xlink:href="classstatistics_1_1_similarity.html#adcb5627b9704850e85433fc40c19db17" target="_top" xlink:title="Allows us compute the conservationWindow&#39;s values. ">
<polygon fill="#ffffff" stroke="#000000" points="354.5,-294 354.5,-324 457.5,-324 457.5,-294 354.5,-294"/>
<text text-anchor="start" x="362.5" y="-312" font-family="Helvetica,sans-Serif" font-size="10.00" fill="#000000">statistics::Similarity</text>
<text text-anchor="middle" x="406" y="-301" font-family="Helvetica,sans-Serif" font-size="10.00" fill="#000000">::applyWindow</text>
</a>
</g>
</g>
<!-- Node181&#45;&gt;Node192 -->
<g id="edge26" class="edge">
<title>Node181&#45;&gt;Node192</title>
<path fill="none" stroke="#191970" d="M298.3604,-280.9755C316.7449,-285.762 336.7128,-290.9607 354.4013,-295.566"/>
<polygon fill="#191970" stroke="#191970" points="299.1831,-277.5731 288.6239,-278.4405 297.4194,-284.3473 299.1831,-277.5731"/>
</g>
<!-- Node183 -->
<g id="node11" class="node">
<title>Node183</title>
<g id="a_node11"><a xlink:href="class_cleaner.html#a9cdbd6ebf78a284dd065b31319795b0c" target="_top" xlink:title="Method to trim an alignment based on the similarity distribution values. ">
<polygon fill="#ffffff" stroke="#000000" points="912,-394.5 912,-413.5 1049,-413.5 1049,-394.5 912,-394.5"/>
<text text-anchor="middle" x="980.5" y="-401.5" font-family="Helvetica,sans-Serif" font-size="10.00" fill="#000000">Cleaner::cleanConservation</text>
</a>
</g>
</g>
<!-- Node182&#45;&gt;Node183 -->
<g id="edge11" class="edge">
<title>Node182&#45;&gt;Node183</title>
<path fill="none" stroke="#191970" d="M593.1457,-310.054C612.9245,-331.4925 645.5177,-362.2709 681,-377 755.4969,-407.9244 849.1609,-411.3563 911.7227,-409.2164"/>
<polygon fill="#191970" stroke="#191970" points="595.5034,-307.4416 586.2134,-302.3478 590.2992,-312.1231 595.5034,-307.4416"/>
</g>
<!-- Node182&#45;&gt;Node186 -->
<g id="edge16" class="edge">
<title>Node182&#45;&gt;Node186</title>
<path fill="none" stroke="#191970" d="M626.6892,-269.0729C643.8213,-264.1344 663.0266,-259.4609 681,-257 758.9395,-246.3286 779.5907,-250.6413 858,-257 885.7072,-259.2469 916.5961,-264.3078 940.4247,-268.7762"/>
<polygon fill="#191970" stroke="#191970" points="625.4526,-265.7891 616.8666,-271.9965 627.4496,-272.4983 625.4526,-265.7891"/>
</g>
<!-- Node182&#45;&gt;Node187 -->
<g id="edge18" class="edge">
<title>Node182&#45;&gt;Node187</title>
<path fill="none" stroke="#191970" d="M603.7051,-266.3641C624.6505,-252.8018 653.5995,-235.5027 681,-224 694.9447,-218.1461 710.7271,-213.3318 725.0631,-209.5917"/>
<polygon fill="#191970" stroke="#191970" points="601.6833,-263.5046 595.2464,-271.9199 605.5262,-269.3554 601.6833,-263.5046"/>
</g>
<!-- Node189 -->
<g id="node17" class="node">
<title>Node189</title>
<g id="a_node17"><a xlink:href="classstatistics_1_1_manager.html#a080c687f8f355900511485eeec32a659" target="_top" xlink:title="Wrapper to Statistics::Similarity::printConservationAcl() It calls to calculateConservationStats() to...">
<polygon fill="#ffffff" stroke="#000000" points="699.5,-266.5 699.5,-307.5 839.5,-307.5 839.5,-266.5 699.5,-266.5"/>
<text text-anchor="start" x="707.5" y="-295.5" font-family="Helvetica,sans-Serif" font-size="10.00" fill="#000000">statistics::Manager</text>
<text text-anchor="start" x="707.5" y="-284.5" font-family="Helvetica,sans-Serif" font-size="10.00" fill="#000000">::printStatisticsConservation</text>
<text text-anchor="middle" x="769.5" y="-273.5" font-family="Helvetica,sans-Serif" font-size="10.00" fill="#000000">Columns</text>
</a>
</g>
</g>
<!-- Node182&#45;&gt;Node189 -->
<g id="edge21" class="edge">
<title>Node182&#45;&gt;Node189</title>
<path fill="none" stroke="#191970" d="M655.1718,-287C669.8717,-287 685.0759,-287 699.4109,-287"/>
<polygon fill="#191970" stroke="#191970" points="655.0925,-283.5001 645.0925,-287 655.0924,-290.5001 655.0925,-283.5001"/>
</g>
<!-- Node191 -->
<g id="node19" class="node">
<title>Node191</title>
<g id="a_node19"><a xlink:href="classstatistics_1_1_manager.html#aa20cfb477826035386ea988e3706b09a" target="_top" xlink:title="Wrapper to Statistics::Similarity::printGapsTotal() It calls to calculateConservationStats() to make ...">
<polygon fill="#ffffff" stroke="#000000" points="699.5,-326.5 699.5,-367.5 839.5,-367.5 839.5,-326.5 699.5,-326.5"/>
<text text-anchor="start" x="707.5" y="-355.5" font-family="Helvetica,sans-Serif" font-size="10.00" fill="#000000">statistics::Manager</text>
<text text-anchor="start" x="707.5" y="-344.5" font-family="Helvetica,sans-Serif" font-size="10.00" fill="#000000">::printStatisticsConservation</text>
<text text-anchor="middle" x="769.5" y="-333.5" font-family="Helvetica,sans-Serif" font-size="10.00" fill="#000000">Total</text>
</a>
</g>
</g>
<!-- Node182&#45;&gt;Node191 -->
<g id="edge24" class="edge">
<title>Node182&#45;&gt;Node191</title>
<path fill="none" stroke="#191970" d="M632.2929,-304.9978C654.4007,-311.7655 679.696,-319.509 702.4961,-326.4886"/>
<polygon fill="#191970" stroke="#191970" points="633.2926,-301.6436 622.7061,-302.0631 631.2436,-308.337 633.2926,-301.6436"/>
</g>
<!-- Node184 -->
<g id="node12" class="node">
<title>Node184</title>
<g id="a_node12"><a xlink:href="classtrim_al_manager.html#aebfd21b0435302f0e4fc45a068d1b6ee" target="_top" xlink:title="Method to trim the alignment using non automatic methods: ">
<polygon fill="#ffffff" stroke="#000000" points="1107,-262 1107,-292 1259,-292 1259,-262 1107,-262"/>
<text text-anchor="start" x="1115" y="-280" font-family="Helvetica,sans-Serif" font-size="10.00" fill="#000000">trimAlManager::CleanResidues</text>
<text text-anchor="middle" x="1183" y="-269" font-family="Helvetica,sans-Serif" font-size="10.00" fill="#000000">NonAuto</text>
</a>
</g>
</g>
<!-- Node183&#45;&gt;Node184 -->
<g id="edge12" class="edge">
<title>Node183&#45;&gt;Node184</title>
<path fill="none" stroke="#191970" d="M1004.3112,-389.0666C1043.2299,-364.6583 1120.0318,-316.4912 1159.0441,-292.0242"/>
<polygon fill="#191970" stroke="#191970" points="1002.3326,-386.1761 995.7204,-394.4544 1006.0518,-392.1063 1002.3326,-386.1761"/>
</g>
<!-- Node185 -->
<g id="node13" class="node">
<title>Node185</title>
<g id="a_node13"><a xlink:href="classtrim_al_manager.html#adc529dd893ed4e9df6f3ddbd58776068" target="_top" xlink:title="Core Method of the program. This is where almost all cleaning methods are called from. ">
<polygon fill="#ffffff" stroke="#000000" points="1314,-262 1314,-292 1423,-292 1423,-262 1314,-262"/>
<text text-anchor="start" x="1322" y="-280" font-family="Helvetica,sans-Serif" font-size="10.00" fill="#000000">trimAlManager::clean</text>
<text text-anchor="middle" x="1368.5" y="-269" font-family="Helvetica,sans-Serif" font-size="10.00" fill="#000000">_alignment</text>
</a>
</g>
</g>
<!-- Node184&#45;&gt;Node185 -->
<g id="edge13" class="edge">
<title>Node184&#45;&gt;Node185</title>
<path fill="none" stroke="#191970" d="M1269.6131,-277C1284.6558,-277 1299.9147,-277 1313.7978,-277"/>
<polygon fill="#191970" stroke="#191970" points="1269.253,-273.5001 1259.253,-277 1269.253,-280.5001 1269.253,-273.5001"/>
</g>
<!-- Node185&#45;&gt;Node176 -->
<g id="edge14" class="edge">
<title>Node185&#45;&gt;Node176</title>
<path fill="none" stroke="#191970" d="M1432.9897,-292.9862C1457.9829,-299.1817 1485.7566,-306.0664 1507.5159,-311.4603"/>
<polygon fill="#191970" stroke="#191970" points="1433.7526,-289.5694 1423.2042,-290.5605 1432.0683,-296.3638 1433.7526,-289.5694"/>
</g>
<!-- Node185&#45;&gt;Node179 -->
<g id="edge15" class="edge">
<title>Node185&#45;&gt;Node179</title>
<path fill="none" stroke="#191970" d="M1401.7177,-297.4468C1422.361,-310.0008 1449.5373,-326.2531 1474,-340 1491.8667,-350.0402 1512.5925,-360.8978 1527.2067,-368.4257"/>
<polygon fill="#191970" stroke="#191970" points="1403.3721,-294.3563 1393.0124,-292.1366 1399.7268,-300.3322 1403.3721,-294.3563"/>
</g>
<!-- Node186&#45;&gt;Node184 -->
<g id="edge17" class="edge">
<title>Node186&#45;&gt;Node184</title>
<path fill="none" stroke="#191970" d="M1030.6718,-277C1053.5718,-277 1081.1948,-277 1106.5945,-277"/>
<polygon fill="#191970" stroke="#191970" points="1030.5075,-273.5001 1020.5075,-277 1030.5074,-280.5001 1030.5075,-273.5001"/>
</g>
<!-- Node188 -->
<g id="node16" class="node">
<title>Node188</title>
<g id="a_node16"><a xlink:href="classtrim_al_manager.html#a69082911b30a1bd12395bb235bc18a34" target="_top" xlink:title="Method to trim the alignment using automatic or semi&#45;automatic methods: ">
<polygon fill="#ffffff" stroke="#000000" points="894,-114.5 894,-133.5 1067,-133.5 1067,-114.5 894,-114.5"/>
<text text-anchor="middle" x="980.5" y="-121.5" font-family="Helvetica,sans-Serif" font-size="10.00" fill="#000000">trimAlManager::CleanResiduesAuto</text>
</a>
</g>
</g>
<!-- Node187&#45;&gt;Node188 -->
<g id="edge19" class="edge">
<title>Node187&#45;&gt;Node188</title>
<path fill="none" stroke="#191970" d="M805.8278,-186.9151C847.9993,-171.7254 916.5388,-147.0381 953.9937,-133.5473"/>
<polygon fill="#191970" stroke="#191970" points="804.4455,-183.6928 796.2233,-190.3745 806.8177,-190.2786 804.4455,-183.6928"/>
</g>
<!-- Node188&#45;&gt;Node185 -->
<g id="edge20" class="edge">
<title>Node188&#45;&gt;Node185</title>
<path fill="none" stroke="#191970" d="M1012.3485,-137.5448C1069.4361,-161.6784 1193.1217,-213.3083 1299,-253 1307.0084,-256.0022 1315.5854,-259.0769 1323.8849,-261.9804"/>
<polygon fill="#191970" stroke="#191970" points="1013.699,-134.3158 1003.1258,-133.64 1010.9698,-140.7619 1013.699,-134.3158"/>
</g>
<!-- Node190 -->
<g id="node18" class="node">
<title>Node190</title>
<g id="a_node18"><a xlink:href="classtrim_al_manager.html#afc48b86f5ae35b9a5e721b65c58bf610" target="_top" xlink:title="Method to print statistics requested. ">
<polygon fill="#ffffff" stroke="#000000" points="928.5,-306 928.5,-336 1032.5,-336 1032.5,-306 928.5,-306"/>
<text text-anchor="start" x="936.5" y="-324" font-family="Helvetica,sans-Serif" font-size="10.00" fill="#000000">trimAlManager::print</text>
<text text-anchor="middle" x="980.5" y="-313" font-family="Helvetica,sans-Serif" font-size="10.00" fill="#000000">_statistics</text>
</a>
</g>
</g>
<!-- Node189&#45;&gt;Node190 -->
<g id="edge22" class="edge">
<title>Node189&#45;&gt;Node190</title>
<path fill="none" stroke="#191970" d="M849.7172,-299.926C876.0209,-304.1645 904.5526,-308.762 928.2347,-312.5781"/>
<polygon fill="#191970" stroke="#191970" points="850.1894,-296.457 839.7599,-298.3215 849.0758,-303.3679 850.1894,-296.457"/>
</g>
<!-- Node190&#45;&gt;Node176 -->
<g id="edge23" class="edge">
<title>Node190&#45;&gt;Node176</title>
<path fill="none" stroke="#191970" d="M1042.9112,-321C1148.949,-321 1363.6052,-321 1475.1302,-321"/>
<polygon fill="#191970" stroke="#191970" points="1042.6873,-317.5001 1032.6873,-321 1042.6872,-324.5001 1042.6873,-317.5001"/>
</g>
<!-- Node191&#45;&gt;Node190 -->
<g id="edge25" class="edge">
<title>Node191&#45;&gt;Node190</title>
<path fill="none" stroke="#191970" d="M849.7172,-337.1154C876.0209,-333.8742 904.5526,-330.3584 928.2347,-327.4403"/>
<polygon fill="#191970" stroke="#191970" points="849.2568,-333.6456 839.7599,-338.3424 850.113,-340.593 849.2568,-333.6456"/>
</g>
<!-- Node192&#45;&gt;Node182 -->
<g id="edge27" class="edge">
<title>Node192&#45;&gt;Node182</title>
<path fill="none" stroke="#191970" d="M467.6284,-300.9055C478.7215,-299.4485 490.3724,-297.9183 501.7237,-296.4273"/>
<polygon fill="#191970" stroke="#191970" points="467.0813,-297.4472 457.6223,-302.2198 467.9929,-304.3876 467.0813,-297.4472"/>
</g>
<!-- Node193 -->
<g id="node21" class="node">
<title>Node193</title>
<g id="a_node21"><a xlink:href="classstatistics_1_1_similarity.html#a1b65c85328f09fa0637365d11fb386b4" target="_top" xlink:title="This methods returns a pointer to conservationWindow&#39;s vector. ">
<polygon fill="#ffffff" stroke="#000000" points="509,-465 509,-495 638,-495 638,-465 509,-465"/>
<text text-anchor="start" x="517" y="-483" font-family="Helvetica,sans-Serif" font-size="10.00" fill="#000000">statistics::Similarity</text>
<text text-anchor="middle" x="573.5" y="-472" font-family="Helvetica,sans-Serif" font-size="10.00" fill="#000000">::getMdkWindowedVector</text>
</a>
</g>
</g>
<!-- Node192&#45;&gt;Node193 -->
<g id="edge28" class="edge">
<title>Node192&#45;&gt;Node193</title>
<path fill="none" stroke="#191970" d="M428.15,-331.6128C462.7642,-366.9503 528.7809,-434.3465 558.428,-464.6131"/>
<polygon fill="#191970" stroke="#191970" points="430.3625,-328.8698 420.8645,-324.1751 425.3618,-333.7681 430.3625,-328.8698"/>
</g>
<!-- Node193&#45;&gt;Node174 -->
<g id="edge29" class="edge">
<title>Node193&#45;&gt;Node174</title>
<path fill="none" stroke="#191970" d="M591.8649,-502.934C611.4766,-525.8141 644.6817,-560.1906 681,-579 688.5353,-582.9026 696.8294,-586.0042 705.227,-588.469"/>
<polygon fill="#191970" stroke="#191970" points="594.3815,-500.488 585.2739,-495.0748 589.0179,-504.9861 594.3815,-500.488"/>
</g>
<!-- Node193&#45;&gt;Node180 -->
<g id="edge34" class="edge">
<title>Node193&#45;&gt;Node180</title>
<path fill="none" stroke="#191970" d="M609.9205,-500.0443C635.3081,-513.8093 667.0348,-530.5427 681,-536 695.6793,-541.7364 712.2404,-546.6253 727.0325,-550.4643"/>
<polygon fill="#191970" stroke="#191970" points="611.3551,-496.8403 600.8986,-495.1337 608.0085,-502.9886 611.3551,-496.8403"/>
</g>
<!-- Node193&#45;&gt;Node183 -->
<g id="edge35" class="edge">
<title>Node193&#45;&gt;Node183</title>
<path fill="none" stroke="#191970" d="M629.4041,-497.7464C688.0761,-513.3691 782.1478,-529.8189 858,-503 909.5607,-484.7698 955.3259,-434.5995 972.8809,-413.5223"/>
<polygon fill="#191970" stroke="#191970" points="630.1569,-494.3236 619.5872,-495.0518 628.3041,-501.074 630.1569,-494.3236"/>
</g>
<!-- Node193&#45;&gt;Node186 -->
<g id="edge36" class="edge">
<title>Node193&#45;&gt;Node186</title>
<path fill="none" stroke="#191970" d="M640.4534,-462.2994C713.9256,-441.768 825.7438,-406.9086 858,-377 886.5907,-350.4902 863.8694,-321.7456 894,-297 906.8642,-286.4349 924.2694,-281.2245 940.0946,-278.7312"/>
<polygon fill="#191970" stroke="#191970" points="639.5008,-458.9314 630.7998,-464.9764 641.3714,-465.6768 639.5008,-458.9314"/>
</g>
<!-- Node193&#45;&gt;Node187 -->
<g id="edge37" class="edge">
<title>Node193&#45;&gt;Node187</title>
<path fill="none" stroke="#191970" d="M583.2731,-455.6109C604.0161,-404.6255 652.8459,-288.8489 681,-257 699.8825,-235.6395 728.6153,-219.1459 748.1816,-209.5195"/>
<polygon fill="#191970" stroke="#191970" points="580.0208,-454.3174 579.5134,-464.9001 586.5095,-456.9437 580.0208,-454.3174"/>
</g>
<!-- Node193&#45;&gt;Node194 -->
<g id="edge30" class="edge">
<title>Node193&#45;&gt;Node194</title>
<path fill="none" stroke="#191970" d="M585.5272,-504.0971C602.4077,-535.2962 636.155,-588.9796 681,-617 691.7949,-623.745 704.6187,-628.1238 717.1067,-630.9585"/>
<polygon fill="#191970" stroke="#191970" points="588.5929,-502.4069 580.8364,-495.1898 582.3992,-505.6687 588.5929,-502.4069"/>
</g>
<!-- Node196 -->
<g id="node24" class="node">
<title>Node196</title>
<g id="a_node24"><a xlink:href="classstatistics_1_1_similarity.html#a26f430acb8a3240977665de9a9ea875a" target="_top" xlink:title="Computes and selects the cut point values based on similarity&#39;s values. ">
<polygon fill="#ffffff" stroke="#000000" points="718,-463 718,-493 821,-493 821,-463 718,-463"/>
<text text-anchor="start" x="726" y="-481" font-family="Helvetica,sans-Serif" font-size="10.00" fill="#000000">statistics::Similarity</text>
<text text-anchor="middle" x="769.5" y="-470" font-family="Helvetica,sans-Serif" font-size="10.00" fill="#000000">::calcCutPoint</text>
</a>
</g>
</g>
<!-- Node193&#45;&gt;Node196 -->
<g id="edge38" class="edge">
<title>Node193&#45;&gt;Node196</title>
<path fill="none" stroke="#191970" d="M648.3818,-479.2359C671.5817,-478.9992 696.6148,-478.7437 717.8672,-478.5269"/>
<polygon fill="#191970" stroke="#191970" points="648.1847,-475.7376 638.2209,-479.3396 648.2562,-482.7373 648.1847,-475.7376"/>
</g>
<!-- Node195 -->
<g id="node23" class="node">
<title>Node195</title>
<g id="a_node23"><a xlink:href="classtrim_al_manager.html#a63d5bec0938516a2129ccb04276b93d9" target="_top" xlink:title="trimAlManager::svg\l_stats_out">
<polygon fill="#ffffff" stroke="#000000" points="1318,-426 1318,-456 1419,-456 1419,-426 1318,-426"/>
<text text-anchor="start" x="1326" y="-444" font-family="Helvetica,sans-Serif" font-size="10.00" fill="#000000">trimAlManager::svg</text>
<text text-anchor="middle" x="1368.5" y="-433" font-family="Helvetica,sans-Serif" font-size="10.00" fill="#000000">_stats_out</text>
</a>
</g>
</g>
<!-- Node194&#45;&gt;Node195 -->
<g id="edge31" class="edge">
<title>Node194&#45;&gt;Node195</title>
<path fill="none" stroke="#191970" d="M826.4075,-624.2641C836.935,-621.9565 847.8178,-619.4795 858,-617 1041.416,-572.3355 1088.2037,-560.2923 1263,-489 1288.1538,-478.7408 1316.1169,-465.9535 1336.9312,-456.1574"/>
<polygon fill="#191970" stroke="#191970" points="825.4899,-620.8816 816.4574,-626.4191 826.9717,-627.723 825.4899,-620.8816"/>
</g>
<!-- Node195&#45;&gt;Node176 -->
<g id="edge32" class="edge">
<title>Node195&#45;&gt;Node176</title>
<path fill="none" stroke="#191970" d="M1393.8265,-419.2713C1414.637,-401.9275 1445.2651,-377.5469 1474,-359 1490.7442,-348.1925 1510.8855,-337.7625 1525.6023,-330.5726"/>
<polygon fill="#191970" stroke="#191970" points="1391.4898,-416.6632 1386.0855,-425.7761 1395.9931,-422.0224 1391.4898,-416.6632"/>
</g>
<!-- Node195&#45;&gt;Node179 -->
<g id="edge33" class="edge">
<title>Node195&#45;&gt;Node179</title>
<path fill="none" stroke="#191970" d="M1420.7463,-422.4562C1452.9832,-411.0144 1493.0019,-396.8106 1519.0016,-387.5825"/>
<polygon fill="#191970" stroke="#191970" points="1419.269,-419.2666 1411.0157,-425.9099 1421.6104,-425.8634 1419.269,-419.2666"/>
</g>
<!-- Node196&#45;&gt;Node183 -->
<g id="edge39" class="edge">
<title>Node196&#45;&gt;Node183</title>
<path fill="none" stroke="#191970" d="M824.2422,-459.615C835.4234,-455.8116 847.1009,-451.8043 858,-448 891.283,-436.3825 929.4913,-422.585 954.2628,-413.5783"/>
<polygon fill="#191970" stroke="#191970" points="822.9212,-456.3671 814.576,-462.8947 825.1704,-462.996 822.9212,-456.3671"/>
</g>
<!-- Node196&#45;&gt;Node186 -->
<g id="edge40" class="edge">
<title>Node196&#45;&gt;Node186</title>
<path fill="none" stroke="#191970" d="M830.8457,-466.2986C841.0207,-461.9837 850.6377,-456.0791 858,-448 904.4698,-397.0053 845.0492,-345.6181 894,-297 906.1391,-284.9434 924.0136,-279.5821 940.3677,-277.3766"/>
<polygon fill="#191970" stroke="#191970" points="829.5351,-463.0519 821.3932,-469.8312 831.9857,-469.609 829.5351,-463.0519"/>
</g>
<!-- Node197&#45;&gt;Node188 -->
<g id="edge43" class="edge">
<title>Node197&#45;&gt;Node188</title>
<path fill="none" stroke="#191970" d="M476.35,-86.5238C565.3959,-87.7454 723.4133,-91.7758 858,-105 880.9178,-107.2519 906.0782,-110.9406 927.6029,-114.4716"/>
<polygon fill="#191970" stroke="#191970" points="476.1474,-83.0209 466.1031,-86.3915 476.057,-90.0204 476.1474,-83.0209"/>
</g>
<!-- Node198&#45;&gt;Node184 -->
<g id="edge47" class="edge">
<title>Node198&#45;&gt;Node184</title>
<path fill="none" stroke="#191970" d="M818.2686,-136.1654C831.2671,-139.6957 845.2413,-143.753 858,-148 965.9974,-183.9492 1090.139,-236.4394 1148.8418,-261.956"/>
<polygon fill="#191970" stroke="#191970" points="819.1194,-132.77 808.5551,-133.574 817.3149,-139.5334 819.1194,-132.77"/>
</g>
<!-- Node198&#45;&gt;Node188 -->
<g id="edge46" class="edge">
<title>Node198&#45;&gt;Node188</title>
<path fill="none" stroke="#191970" d="M831.3708,-124C850.8596,-124 872.7596,-124 893.6517,-124"/>
<polygon fill="#191970" stroke="#191970" points="831.1164,-120.5001 821.1164,-124 831.1164,-127.5001 831.1164,-120.5001"/>
</g>
<!-- Node199&#45;&gt;Node188 -->
<g id="edge49" class="edge">
<title>Node199&#45;&gt;Node188</title>
<path fill="none" stroke="#191970" d="M819.4504,-60.2663C832.1295,-63.7288 845.6542,-67.7281 858,-72 894.8994,-84.7681 936.4663,-103.3402 960.4572,-114.4888"/>
<polygon fill="#191970" stroke="#191970" points="820.0663,-56.8082 809.5019,-57.6096 818.2603,-63.5712 820.0663,-56.8082"/>
</g>
<!-- Node200 -->
<g id="node28" class="node">
<title>Node200</title>
<g id="a_node28"><a xlink:href="classtrim_al_manager.html#a10536f715945a1a45f1df33f7cedc81e" target="_top" xlink:title="Method to trim or reduce the number of sequences in an alignment. It performs one or none of the foll...">
<polygon fill="#ffffff" stroke="#000000" points="1103,-84.5 1103,-103.5 1263,-103.5 1263,-84.5 1103,-84.5"/>
<text text-anchor="middle" x="1183" y="-91.5" font-family="Helvetica,sans-Serif" font-size="10.00" fill="#000000">trimAlManager::CleanSequences</text>
</a>
</g>
</g>
<!-- Node199&#45;&gt;Node200 -->
<g id="edge50" class="edge">
<title>Node199&#45;&gt;Node200</title>
<path fill="none" stroke="#191970" d="M843.2437,-56.2037C916.2645,-64.3269 1027.7479,-76.7289 1102.9054,-85.0898"/>
<polygon fill="#191970" stroke="#191970" points="843.5289,-52.7139 833.2032,-55.0867 842.7549,-59.671 843.5289,-52.7139"/>
</g>
<!-- Node200&#45;&gt;Node185 -->
<g id="edge51" class="edge">
<title>Node200&#45;&gt;Node185</title>
<path fill="none" stroke="#191970" d="M1200.1099,-110.9651C1217.2708,-128.5233 1243.8327,-157.2241 1263,-185 1282.4222,-213.1453 1273.0268,-230.7565 1299,-253 1303.46,-256.8195 1308.5611,-260.0413 1313.929,-262.7568"/>
<polygon fill="#191970" stroke="#191970" points="1202.4683,-108.3724 1192.947,-103.7252 1197.4921,-113.2956 1202.4683,-108.3724"/>
</g>
<!-- Node202 -->
<g id="node30" class="node">
<title>Node202</title>
<g id="a_node30"><a xlink:href="classtrim_al_manager.html#a8ed19b851162fa24a1da66f7e54099e3" target="_top" xlink:title="trimAlManager::postprocess\l_alignment">
<polygon fill="#ffffff" stroke="#000000" points="1299,-213 1299,-243 1438,-243 1438,-213 1299,-213"/>
<text text-anchor="start" x="1307" y="-231" font-family="Helvetica,sans-Serif" font-size="10.00" fill="#000000">trimAlManager::postprocess</text>
<text text-anchor="middle" x="1368.5" y="-220" font-family="Helvetica,sans-Serif" font-size="10.00" fill="#000000">_alignment</text>
</a>
</g>
</g>
<!-- Node201&#45;&gt;Node202 -->
<g id="edge53" class="edge">
<title>Node201&#45;&gt;Node202</title>
<path fill="none" stroke="#191970" d="M320.4291,-10C388.522,-10 487.2313,-10 573.5,-10 573.5,-10 573.5,-10 980.5,-10 1109.3362,-10 1156.4229,-2.6115 1263,-75 1315.3138,-110.5322 1349.3642,-181.3415 1362.4517,-212.5815"/>
<polygon fill="#191970" stroke="#191970" points="320.1904,-6.5001 310.1904,-10 320.1904,-13.5001 320.1904,-6.5001"/>
</g>
<!-- Node202&#45;&gt;Node176 -->
<g id="edge54" class="edge">
<title>Node202&#45;&gt;Node176</title>
<path fill="none" stroke="#191970" d="M1424.3322,-246.8658C1429.0091,-248.8125 1433.6201,-250.8647 1438,-253 1474.0485,-270.5742 1513.1106,-297.2901 1532.9045,-311.4356"/>
<polygon fill="#191970" stroke="#191970" points="1425.2777,-243.475 1414.6924,-243.0251 1422.6868,-249.9778 1425.2777,-243.475"/>
</g>
<!-- Node202&#45;&gt;Node179 -->
<g id="edge55" class="edge">
<title>Node202&#45;&gt;Node179</title>
<path fill="none" stroke="#191970" d="M1432.7261,-248.5445C1434.5759,-249.9347 1436.3416,-251.4178 1438,-253 1468.2775,-281.8857 1445.822,-309.0628 1474,-340 1485.8017,-352.9573 1503.0631,-362.2777 1517.7262,-368.4445"/>
<polygon fill="#191970" stroke="#191970" points="1434.4513,-245.4927 1424.1477,-243.0256 1430.6639,-251.3797 1434.4513,-245.4927"/>
</g>
</g>
</svg>
