<?xml version="1.0" encoding="UTF-8" standalone="no"?>
<!DOCTYPE svg PUBLIC "-//W3C//DTD SVG 1.1//EN"
 "http://www.w3.org/Graphics/SVG/1.1/DTD/svg11.dtd">
<!-- Generated by graphviz version 2.40.1 (20161225.0304)
 -->
<!-- Title: Cleaner::clean2ndSlope Pages: 1 -->
<svg width="891pt" height="66pt"
 viewBox="0.00 0.00 891.00 66.00" xmlns="http://www.w3.org/2000/svg" xmlns:xlink="http://www.w3.org/1999/xlink">
<g id="graph0" class="graph" transform="scale(1 1) rotate(0) translate(4 62)">
<title>Cleaner::clean2ndSlope</title>
<polygon fill="#ffffff" stroke="transparent" points="-4,4 -4,-62 887,-62 887,4 -4,4"/>
<!-- Node159 -->
<g id="node1" class="node">
<title>Node159</title>
<polygon fill="#bfbfbf" stroke="#000000" points="0,-19.5 0,-38.5 120,-38.5 120,-19.5 0,-19.5"/>
<text text-anchor="middle" x="60" y="-26.5" font-family="Helvetica,sans-Serif" font-size="10.00" fill="#000000">Cleaner::clean2ndSlope</text>
</g>
<!-- Node160 -->
<g id="node2" class="node">
<title>Node160</title>
<g id="a_node2"><a xlink:href="classtrim_al_manager.html#a69082911b30a1bd12395bb235bc18a34" target="_top" xlink:title="Method to trim the alignment using automatic or semi&#45;automatic methods: ">
<polygon fill="#ffffff" stroke="#000000" points="156,-19.5 156,-38.5 329,-38.5 329,-19.5 156,-19.5"/>
<text text-anchor="middle" x="242.5" y="-26.5" font-family="Helvetica,sans-Serif" font-size="10.00" fill="#000000">trimAlManager::CleanResiduesAuto</text>
</a>
</g>
</g>
<!-- Node159&#45;&gt;Node160 -->
<g id="edge1" class="edge">
<title>Node159&#45;&gt;Node160</title>
<path fill="none" stroke="#191970" d="M130.0861,-29C138.4659,-29 147.0977,-29 155.6772,-29"/>
<polygon fill="#191970" stroke="#191970" points="130.0101,-25.5001 120.0101,-29 130.0101,-32.5001 130.0101,-25.5001"/>
</g>
<!-- Node161 -->
<g id="node3" class="node">
<title>Node161</title>
<g id="a_node3"><a xlink:href="classtrim_al_manager.html#adc529dd893ed4e9df6f3ddbd58776068" target="_top" xlink:title="Core Method of the program. This is where almost all cleaning methods are called from. ">
<polygon fill="#ffffff" stroke="#000000" points="365,-14 365,-44 474,-44 474,-14 365,-14"/>
<text text-anchor="start" x="373" y="-32" font-family="Helvetica,sans-Serif" font-size="10.00" fill="#000000">trimAlManager::clean</text>
<text text-anchor="middle" x="419.5" y="-21" font-family="Helvetica,sans-Serif" font-size="10.00" fill="#000000">_alignment</text>
</a>
</g>
</g>
<!-- Node160&#45;&gt;Node161 -->
<g id="edge2" class="edge">
<title>Node160&#45;&gt;Node161</title>
<path fill="none" stroke="#191970" d="M339.3747,-29C348.0296,-29 356.5767,-29 364.6809,-29"/>
<polygon fill="#191970" stroke="#191970" points="339.1852,-25.5001 329.1852,-29 339.1851,-32.5001 339.1852,-25.5001"/>
</g>
<!-- Node162 -->
<g id="node4" class="node">
<title>Node162</title>
<g id="a_node4"><a xlink:href="classtrim_al_manager.html#a7c641a1feff33d401b4ea5c82e989289" target="_top" xlink:title="trimAlManager::innerPerform">
<polygon fill="#ffffff" stroke="#000000" points="511.5,-38.5 511.5,-57.5 652.5,-57.5 652.5,-38.5 511.5,-38.5"/>
<text text-anchor="middle" x="582" y="-45.5" font-family="Helvetica,sans-Serif" font-size="10.00" fill="#000000">trimAlManager::innerPerform</text>
</a>
</g>
</g>
<!-- Node161&#45;&gt;Node162 -->
<g id="edge3" class="edge">
<title>Node161&#45;&gt;Node162</title>
<path fill="none" stroke="#191970" d="M484.0655,-36.5492C493.0547,-37.6002 502.3286,-38.6846 511.4212,-39.7477"/>
<polygon fill="#191970" stroke="#191970" points="484.401,-33.0647 474.0622,-35.3796 483.588,-40.0173 484.401,-33.0647"/>
</g>
<!-- Node165 -->
<g id="node7" class="node">
<title>Node165</title>
<g id="a_node7"><a xlink:href="classtrim_al_manager.html#ac5795f93b3a2b51bf5d8dddd63b89f73" target="_top" xlink:title="trimAlManager::perform_VCF">
<polygon fill="#ffffff" stroke="#000000" points="510,-.5 510,-19.5 654,-19.5 654,-.5 510,-.5"/>
<text text-anchor="middle" x="582" y="-7.5" font-family="Helvetica,sans-Serif" font-size="10.00" fill="#000000">trimAlManager::perform_VCF</text>
</a>
</g>
</g>
<!-- Node161&#45;&gt;Node165 -->
<g id="edge6" class="edge">
<title>Node161&#45;&gt;Node165</title>
<path fill="none" stroke="#191970" d="M484.2328,-21.4312C492.6937,-20.442 501.4041,-19.4235 509.9757,-18.4213"/>
<polygon fill="#191970" stroke="#191970" points="483.588,-17.9827 474.0622,-22.6204 484.401,-24.9353 483.588,-17.9827"/>
</g>
<!-- Node163 -->
<g id="node5" class="node">
<title>Node163</title>
<g id="a_node5"><a xlink:href="classtrim_al_manager.html#abe8d2841455c644dc9c7d1294b82b00f" target="_top" xlink:title="Method to perform the analysis if all checks have passed. ">
<polygon fill="#ffffff" stroke="#000000" points="690,-38.5 690,-57.5 809,-57.5 809,-38.5 690,-38.5"/>
<text text-anchor="middle" x="749.5" y="-45.5" font-family="Helvetica,sans-Serif" font-size="10.00" fill="#000000">trimAlManager::perform</text>
</a>
</g>
</g>
<!-- Node162&#45;&gt;Node163 -->
<g id="edge4" class="edge">
<title>Node162&#45;&gt;Node163</title>
<path fill="none" stroke="#191970" d="M662.8102,-48C671.9363,-48 681.1089,-48 689.8939,-48"/>
<polygon fill="#191970" stroke="#191970" points="662.5497,-44.5001 652.5496,-48 662.5496,-51.5001 662.5497,-44.5001"/>
</g>
<!-- Node164 -->
<g id="node6" class="node">
<title>Node164</title>
<g id="a_node6"><a xlink:href="trim_al_main_8cpp.html#a0ddf1224851353fc92bfbff6f499fa97" target="_top" xlink:title="main">
<polygon fill="#ffffff" stroke="#000000" points="845,-38.5 845,-57.5 883,-57.5 883,-38.5 845,-38.5"/>
<text text-anchor="middle" x="864" y="-45.5" font-family="Helvetica,sans-Serif" font-size="10.00" fill="#000000">main</text>
</a>
</g>
</g>
<!-- Node163&#45;&gt;Node164 -->
<g id="edge5" class="edge">
<title>Node163&#45;&gt;Node164</title>
<path fill="none" stroke="#191970" d="M819.3198,-48C828.6177,-48 837.4503,-48 844.7697,-48"/>
<polygon fill="#191970" stroke="#191970" points="819.0976,-44.5001 809.0976,-48 819.0975,-51.5001 819.0976,-44.5001"/>
</g>
</g>
</svg>
