<?xml version="1.0" encoding="UTF-8" standalone="no"?>
<!DOCTYPE svg PUBLIC "-//W3C//DTD SVG 1.1//EN"
 "http://www.w3.org/Graphics/SVG/1.1/DTD/svg11.dtd">
<!-- Generated by graphviz version 2.40.1 (20161225.0304)
 -->
<!-- Title: Cleaner::calculateRepresentativeSeq Pages: 1 -->
<svg width="1087pt" height="66pt"
 viewBox="0.00 0.00 1087.00 66.00" xmlns="http://www.w3.org/2000/svg" xmlns:xlink="http://www.w3.org/1999/xlink">
<g id="graph0" class="graph" transform="scale(1 1) rotate(0) translate(4 62)">
<title>Cleaner::calculateRepresentativeSeq</title>
<polygon fill="#ffffff" stroke="transparent" points="-4,4 -4,-62 1083,-62 1083,4 -4,4"/>
<!-- Node50 -->
<g id="node1" class="node">
<title>Node50</title>
<polygon fill="#bfbfbf" stroke="#000000" points="0,-19.5 0,-38.5 179,-38.5 179,-19.5 0,-19.5"/>
<text text-anchor="middle" x="89.5" y="-26.5" font-family="Helvetica,sans-Serif" font-size="10.00" fill="#000000">Cleaner::calculateRepresentativeSeq</text>
</g>
<!-- Node51 -->
<g id="node2" class="node">
<title>Node51</title>
<g id="a_node2"><a xlink:href="class_cleaner.html#a4fd1d8eb883d1a7b271d6d4e1b1df71b" target="_top" xlink:title="Method to select the most representative sequence (the longest one) for each cluster from the input a...">
<polygon fill="#ffffff" stroke="#000000" points="215,-19.5 215,-38.5 329,-38.5 329,-19.5 215,-19.5"/>
<text text-anchor="middle" x="272" y="-26.5" font-family="Helvetica,sans-Serif" font-size="10.00" fill="#000000">Cleaner::getClustering</text>
</a>
</g>
</g>
<!-- Node50&#45;&gt;Node51 -->
<g id="edge1" class="edge">
<title>Node50&#45;&gt;Node51</title>
<path fill="none" stroke="#191970" d="M189.4037,-29C198.1166,-29 206.7232,-29 214.9021,-29"/>
<polygon fill="#191970" stroke="#191970" points="189.1461,-25.5001 179.1461,-29 189.146,-32.5001 189.1461,-25.5001"/>
</g>
<!-- Node52 -->
<g id="node3" class="node">
<title>Node52</title>
<g id="a_node3"><a xlink:href="classtrim_al_manager.html#a10536f715945a1a45f1df33f7cedc81e" target="_top" xlink:title="Method to trim or reduce the number of sequences in an alignment. It performs one or none of the foll...">
<polygon fill="#ffffff" stroke="#000000" points="365,-19.5 365,-38.5 525,-38.5 525,-19.5 365,-19.5"/>
<text text-anchor="middle" x="445" y="-26.5" font-family="Helvetica,sans-Serif" font-size="10.00" fill="#000000">trimAlManager::CleanSequences</text>
</a>
</g>
</g>
<!-- Node51&#45;&gt;Node52 -->
<g id="edge2" class="edge">
<title>Node51&#45;&gt;Node52</title>
<path fill="none" stroke="#191970" d="M339.1981,-29C347.5774,-29 356.2114,-29 364.7633,-29"/>
<polygon fill="#191970" stroke="#191970" points="339.1262,-25.5001 329.1261,-29 339.1261,-32.5001 339.1262,-25.5001"/>
</g>
<!-- Node53 -->
<g id="node4" class="node">
<title>Node53</title>
<g id="a_node4"><a xlink:href="classtrim_al_manager.html#adc529dd893ed4e9df6f3ddbd58776068" target="_top" xlink:title="Core Method of the program. This is where almost all cleaning methods are called from. ">
<polygon fill="#ffffff" stroke="#000000" points="561,-14 561,-44 670,-44 670,-14 561,-14"/>
<text text-anchor="start" x="569" y="-32" font-family="Helvetica,sans-Serif" font-size="10.00" fill="#000000">trimAlManager::clean</text>
<text text-anchor="middle" x="615.5" y="-21" font-family="Helvetica,sans-Serif" font-size="10.00" fill="#000000">_alignment</text>
</a>
</g>
</g>
<!-- Node52&#45;&gt;Node53 -->
<g id="edge3" class="edge">
<title>Node52&#45;&gt;Node53</title>
<path fill="none" stroke="#191970" d="M535.4703,-29C544.1602,-29 552.7775,-29 560.9593,-29"/>
<polygon fill="#191970" stroke="#191970" points="535.2575,-25.5001 525.2574,-29 535.2574,-32.5001 535.2575,-25.5001"/>
</g>
<!-- Node54 -->
<g id="node5" class="node">
<title>Node54</title>
<g id="a_node5"><a xlink:href="classtrim_al_manager.html#a7c641a1feff33d401b4ea5c82e989289" target="_top" xlink:title="trimAlManager::innerPerform">
<polygon fill="#ffffff" stroke="#000000" points="707.5,-38.5 707.5,-57.5 848.5,-57.5 848.5,-38.5 707.5,-38.5"/>
<text text-anchor="middle" x="778" y="-45.5" font-family="Helvetica,sans-Serif" font-size="10.00" fill="#000000">trimAlManager::innerPerform</text>
</a>
</g>
</g>
<!-- Node53&#45;&gt;Node54 -->
<g id="edge4" class="edge">
<title>Node53&#45;&gt;Node54</title>
<path fill="none" stroke="#191970" d="M680.0655,-36.5492C689.0547,-37.6002 698.3286,-38.6846 707.4212,-39.7477"/>
<polygon fill="#191970" stroke="#191970" points="680.401,-33.0647 670.0622,-35.3796 679.588,-40.0173 680.401,-33.0647"/>
</g>
<!-- Node57 -->
<g id="node8" class="node">
<title>Node57</title>
<g id="a_node8"><a xlink:href="classtrim_al_manager.html#ac5795f93b3a2b51bf5d8dddd63b89f73" target="_top" xlink:title="trimAlManager::perform_VCF">
<polygon fill="#ffffff" stroke="#000000" points="706,-.5 706,-19.5 850,-19.5 850,-.5 706,-.5"/>
<text text-anchor="middle" x="778" y="-7.5" font-family="Helvetica,sans-Serif" font-size="10.00" fill="#000000">trimAlManager::perform_VCF</text>
</a>
</g>
</g>
<!-- Node53&#45;&gt;Node57 -->
<g id="edge7" class="edge">
<title>Node53&#45;&gt;Node57</title>
<path fill="none" stroke="#191970" d="M680.2328,-21.4312C688.6937,-20.442 697.4041,-19.4235 705.9757,-18.4213"/>
<polygon fill="#191970" stroke="#191970" points="679.588,-17.9827 670.0622,-22.6204 680.401,-24.9353 679.588,-17.9827"/>
</g>
<!-- Node55 -->
<g id="node6" class="node">
<title>Node55</title>
<g id="a_node6"><a xlink:href="classtrim_al_manager.html#abe8d2841455c644dc9c7d1294b82b00f" target="_top" xlink:title="Method to perform the analysis if all checks have passed. ">
<polygon fill="#ffffff" stroke="#000000" points="886,-38.5 886,-57.5 1005,-57.5 1005,-38.5 886,-38.5"/>
<text text-anchor="middle" x="945.5" y="-45.5" font-family="Helvetica,sans-Serif" font-size="10.00" fill="#000000">trimAlManager::perform</text>
</a>
</g>
</g>
<!-- Node54&#45;&gt;Node55 -->
<g id="edge5" class="edge">
<title>Node54&#45;&gt;Node55</title>
<path fill="none" stroke="#191970" d="M858.8102,-48C867.9363,-48 877.1089,-48 885.8939,-48"/>
<polygon fill="#191970" stroke="#191970" points="858.5497,-44.5001 848.5496,-48 858.5496,-51.5001 858.5497,-44.5001"/>
</g>
<!-- Node56 -->
<g id="node7" class="node">
<title>Node56</title>
<g id="a_node7"><a xlink:href="trim_al_main_8cpp.html#a0ddf1224851353fc92bfbff6f499fa97" target="_top" xlink:title="main">
<polygon fill="#ffffff" stroke="#000000" points="1041,-38.5 1041,-57.5 1079,-57.5 1079,-38.5 1041,-38.5"/>
<text text-anchor="middle" x="1060" y="-45.5" font-family="Helvetica,sans-Serif" font-size="10.00" fill="#000000">main</text>
</a>
</g>
</g>
<!-- Node55&#45;&gt;Node56 -->
<g id="edge6" class="edge">
<title>Node55&#45;&gt;Node56</title>
<path fill="none" stroke="#191970" d="M1015.3198,-48C1024.6177,-48 1033.4503,-48 1040.7697,-48"/>
<polygon fill="#191970" stroke="#191970" points="1015.0976,-44.5001 1005.0976,-48 1015.0975,-51.5001 1015.0976,-44.5001"/>
</g>
</g>
</svg>
