<?xml version="1.0" encoding="UTF-8" standalone="no"?>
<!DOCTYPE svg PUBLIC "-//W3C//DTD SVG 1.1//EN"
 "http://www.w3.org/Graphics/SVG/1.1/DTD/svg11.dtd">
<!-- Generated by graphviz version 2.40.1 (20161225.0304)
 -->
<!-- Title: FormatHandling::FormatManager::saveAlignment Pages: 1 -->
<svg width="759pt" height="301pt"
 viewBox="0.00 0.00 759.00 300.50" xmlns="http://www.w3.org/2000/svg" xmlns:xlink="http://www.w3.org/1999/xlink">
<g id="graph0" class="graph" transform="scale(1 1) rotate(0) translate(4 296.5)">
<title>FormatHandling::FormatManager::saveAlignment</title>
<polygon fill="#ffffff" stroke="transparent" points="-4,4 -4,-296.5 755,-296.5 755,4 -4,4"/>
<!-- Node134 -->
<g id="node1" class="node">
<title>Node134</title>
<polygon fill="#bfbfbf" stroke="#000000" points="0,-115 0,-145 160,-145 160,-115 0,-115"/>
<text text-anchor="start" x="8" y="-133" font-family="Helvetica,sans-Serif" font-size="10.00" fill="#000000">FormatHandling::FormatManager</text>
<text text-anchor="middle" x="80" y="-122" font-family="Helvetica,sans-Serif" font-size="10.00" fill="#000000">::saveAlignment</text>
</g>
<!-- Node135 -->
<g id="node2" class="node">
<title>Node135</title>
<g id="a_node2"><a xlink:href="class_format_handling_1_1_format_manager.html#af8d1e7864bb2811199d26ff24a30440e" target="_top" xlink:title="Function to save an alignment to a file. It searches among the available_states one that can write th...">
<polygon fill="#ffffff" stroke="#000000" points="196,-115 196,-145 356,-145 356,-115 196,-115"/>
<text text-anchor="start" x="204" y="-133" font-family="Helvetica,sans-Serif" font-size="10.00" fill="#000000">FormatHandling::FormatManager</text>
<text text-anchor="middle" x="276" y="-122" font-family="Helvetica,sans-Serif" font-size="10.00" fill="#000000">::saveAlignments</text>
</a>
</g>
</g>
<!-- Node134&#45;&gt;Node135 -->
<g id="edge1" class="edge">
<title>Node134&#45;&gt;Node135</title>
<path fill="none" stroke="#191970" d="M160.0034,-130C168.5245,-130 177.2335,-130 185.8608,-130"/>
<polygon fill="#191970" stroke="#191970" points="185.9348,-133.5001 195.9347,-130 185.9347,-126.5001 185.9348,-133.5001"/>
</g>
<!-- Node136 -->
<g id="node3" class="node">
<title>Node136</title>
<g id="a_node3"><a xlink:href="class_format_handling_1_1_format_manager.html#ac0a3cee8e52e9ef5c61188094dd50bf2" target="_top" xlink:title="FormatHandling::FormatManager\l::getFormatFromToken">
<polygon fill="#ffffff" stroke="#000000" points="392,-262 392,-292 552,-292 552,-262 392,-262"/>
<text text-anchor="start" x="400" y="-280" font-family="Helvetica,sans-Serif" font-size="10.00" fill="#000000">FormatHandling::FormatManager</text>
<text text-anchor="middle" x="472" y="-269" font-family="Helvetica,sans-Serif" font-size="10.00" fill="#000000">::getFormatFromToken</text>
</a>
</g>
</g>
<!-- Node135&#45;&gt;Node136 -->
<g id="edge2" class="edge">
<title>Node135&#45;&gt;Node136</title>
<path fill="none" stroke="#191970" d="M286.2665,-145.2892C304.495,-171.2656 345.0439,-224.0124 392,-253 394.7762,-254.7138 397.6824,-256.3118 400.6742,-257.8011"/>
<polygon fill="#191970" stroke="#191970" points="399.3082,-261.0245 409.8626,-261.9497 402.1888,-254.6446 399.3082,-261.0245"/>
</g>
<!-- Node138 -->
<g id="node5" class="node">
<title>Node138</title>
<g id="a_node5"><a xlink:href="classreporting_1_1report_manager.html#ab093ae2e909308ebb4118d6f6a03f5fd" target="_top" xlink:title="Method to report an Error. It will be displayed if Level &#160;is equal or higher to VerboseLevel::ERROR. ">
<polygon fill="#ffffff" stroke="#000000" points="411,-213 411,-243 533,-243 533,-213 411,-213"/>
<text text-anchor="start" x="419" y="-231" font-family="Helvetica,sans-Serif" font-size="10.00" fill="#000000">reporting::reportManager</text>
<text text-anchor="middle" x="472" y="-220" font-family="Helvetica,sans-Serif" font-size="10.00" fill="#000000">::report</text>
</a>
</g>
</g>
<!-- Node135&#45;&gt;Node138 -->
<g id="edge4" class="edge">
<title>Node135&#45;&gt;Node138</title>
<path fill="none" stroke="#191970" d="M295.9688,-145.1801C318.3366,-161.5864 356.1675,-187.5816 392,-204 396.3049,-205.9725 400.8133,-207.8323 405.4033,-209.5761"/>
<polygon fill="#191970" stroke="#191970" points="404.3057,-212.9007 414.9001,-212.9913 406.6745,-206.3137 404.3057,-212.9007"/>
</g>
<!-- Node139 -->
<g id="node6" class="node">
<title>Node139</title>
<g id="a_node6"><a xlink:href="class_format_handling_1_1_base_format_handler.html#a189a6503643fc83fb7bd466cc01262b2" target="_top" xlink:title="Function to save a Alignment to a file. ">
<polygon fill="#ffffff" stroke="#000000" points="399.5,-164 399.5,-194 544.5,-194 544.5,-164 399.5,-164"/>
<text text-anchor="start" x="407.5" y="-182" font-family="Helvetica,sans-Serif" font-size="10.00" fill="#000000">FormatHandling::BaseFormat</text>
<text text-anchor="middle" x="472" y="-171" font-family="Helvetica,sans-Serif" font-size="10.00" fill="#000000">Handler::SaveAlignment</text>
</a>
</g>
</g>
<!-- Node135&#45;&gt;Node139 -->
<g id="edge5" class="edge">
<title>Node135&#45;&gt;Node139</title>
<path fill="none" stroke="#191970" d="M336.1385,-145.0346C357.0215,-150.2554 380.6149,-156.1537 402.2105,-161.5526"/>
<polygon fill="#191970" stroke="#191970" points="401.4249,-164.9639 411.9753,-163.9938 403.1227,-158.1729 401.4249,-164.9639"/>
</g>
<!-- Node140 -->
<g id="node7" class="node">
<title>Node140</title>
<g id="a_node7"><a xlink:href="class_format_handling_1_1_format_manager.html#a04370e2eae3630aab799320268b70176" target="_top" xlink:title="FormatHandling::FormatManager\l::replaceINtag">
<polygon fill="#ffffff" stroke="#000000" points="392,-115 392,-145 552,-145 552,-115 392,-115"/>
<text text-anchor="start" x="400" y="-133" font-family="Helvetica,sans-Serif" font-size="10.00" fill="#000000">FormatHandling::FormatManager</text>
<text text-anchor="middle" x="472" y="-122" font-family="Helvetica,sans-Serif" font-size="10.00" fill="#000000">::replaceINtag</text>
</a>
</g>
</g>
<!-- Node135&#45;&gt;Node140 -->
<g id="edge6" class="edge">
<title>Node135&#45;&gt;Node140</title>
<path fill="none" stroke="#191970" d="M356.0034,-130C364.5245,-130 373.2335,-130 381.8608,-130"/>
<polygon fill="#191970" stroke="#191970" points="381.9348,-133.5001 391.9347,-130 381.9347,-126.5001 381.9348,-133.5001"/>
</g>
<!-- Node141 -->
<g id="node8" class="node">
<title>Node141</title>
<g id="a_node8"><a xlink:href="namespaceutils.html#ab0cb109dc7e12b42abd4cba86f7d8e78" target="_top" xlink:title="Function that replaces a substring with another substring in a string. It makes a copy of the origina...">
<polygon fill="#ffffff" stroke="#000000" points="618.5,-98.5 618.5,-117.5 720.5,-117.5 720.5,-98.5 618.5,-98.5"/>
<text text-anchor="middle" x="669.5" y="-105.5" font-family="Helvetica,sans-Serif" font-size="10.00" fill="#000000">utils::ReplaceString</text>
</a>
</g>
</g>
<!-- Node135&#45;&gt;Node141 -->
<g id="edge8" class="edge">
<title>Node135&#45;&gt;Node141</title>
<path fill="none" stroke="#191970" d="M334.0253,-114.9694C352.4304,-110.884 372.9486,-107.0297 392,-105 466.0794,-97.1079 551.9088,-99.8441 608.2679,-103.2486"/>
<polygon fill="#191970" stroke="#191970" points="608.2386,-106.7536 618.439,-103.8897 608.679,-99.7675 608.2386,-106.7536"/>
</g>
<!-- Node142 -->
<g id="node9" class="node">
<title>Node142</title>
<g id="a_node9"><a xlink:href="namespaceutils.html#a6000246220e801bf6b1e6a553d7af13a" target="_top" xlink:title="Function that replaces a substring with another substring in a string. It does not make a copy of the...">
<polygon fill="#ffffff" stroke="#000000" points="404.5,-38.5 404.5,-57.5 539.5,-57.5 539.5,-38.5 404.5,-38.5"/>
<text text-anchor="middle" x="472" y="-45.5" font-family="Helvetica,sans-Serif" font-size="10.00" fill="#000000">utils::ReplaceStringInPlace</text>
</a>
</g>
</g>
<!-- Node135&#45;&gt;Node142 -->
<g id="edge9" class="edge">
<title>Node135&#45;&gt;Node142</title>
<path fill="none" stroke="#191970" d="M303.0462,-114.8068C326.1754,-102.2234 360.6048,-84.4506 392,-72 402.738,-67.7415 414.54,-63.8093 425.7039,-60.4127"/>
<polygon fill="#191970" stroke="#191970" points="426.7117,-63.7646 435.3076,-57.5709 424.7254,-57.0523 426.7117,-63.7646"/>
</g>
<!-- Node143 -->
<g id="node10" class="node">
<title>Node143</title>
<g id="a_node10"><a xlink:href="namespaceutils.html#ad13c1bc858488be55a200a4e94f8f1d1" target="_top" xlink:title="Method to check the existance of a file. Works exactly as fileExists(std::string &amp; path)...">
<polygon fill="#ffffff" stroke="#000000" points="431.5,-.5 431.5,-19.5 512.5,-19.5 512.5,-.5 431.5,-.5"/>
<text text-anchor="middle" x="472" y="-7.5" font-family="Helvetica,sans-Serif" font-size="10.00" fill="#000000">utils::fileExists</text>
</a>
</g>
</g>
<!-- Node135&#45;&gt;Node143 -->
<g id="edge10" class="edge">
<title>Node135&#45;&gt;Node143</title>
<path fill="none" stroke="#191970" d="M288.9667,-114.762C308.8251,-92.4354 349.0138,-51.0948 392,-29 401.0461,-24.3503 411.2537,-20.8171 421.2756,-18.139"/>
<polygon fill="#191970" stroke="#191970" points="422.292,-21.494 431.1857,-15.7362 420.6426,-14.6911 422.292,-21.494"/>
</g>
<!-- Node137 -->
<g id="node4" class="node">
<title>Node137</title>
<g id="a_node4"><a xlink:href="class_format_handling_1_1_base_format_handler.html#a4635f6691269acf1f6280f9b984fd277" target="_top" xlink:title="Function that recognizes acronyms of the format. ">
<polygon fill="#ffffff" stroke="#000000" points="588,-262 588,-292 751,-292 751,-262 588,-262"/>
<text text-anchor="start" x="596" y="-280" font-family="Helvetica,sans-Serif" font-size="10.00" fill="#000000">FormatHandling::BaseFormat</text>
<text text-anchor="middle" x="669.5" y="-269" font-family="Helvetica,sans-Serif" font-size="10.00" fill="#000000">Handler::RecognizeOutputFormat</text>
</a>
</g>
</g>
<!-- Node136&#45;&gt;Node137 -->
<g id="edge3" class="edge">
<title>Node136&#45;&gt;Node137</title>
<path fill="none" stroke="#191970" d="M552.0461,-277C560.5,-277 569.1437,-277 577.7171,-277"/>
<polygon fill="#191970" stroke="#191970" points="577.7335,-280.5001 587.7335,-277 577.7335,-273.5001 577.7335,-280.5001"/>
</g>
<!-- Node140&#45;&gt;Node141 -->
<g id="edge7" class="edge">
<title>Node140&#45;&gt;Node141</title>
<path fill="none" stroke="#191970" d="M552.0461,-121.0835C570.7274,-119.0025 590.3356,-116.8183 608.063,-114.8436"/>
<polygon fill="#191970" stroke="#191970" points="608.7109,-118.2932 618.262,-113.7075 607.9359,-111.3362 608.7109,-118.2932"/>
</g>
</g>
</svg>
