<?xml version="1.0" encoding="UTF-8" standalone="no"?>
<!DOCTYPE svg PUBLIC "-//W3C//DTD SVG 1.1//EN"
 "http://www.w3.org/Graphics/SVG/1.1/DTD/svg11.dtd">
<!-- Generated by graphviz version 2.38.0 (20140413.2041)
 -->
<!-- Title: trimAlManager::out_format_arguments Pages: 1 -->
<svg width="261pt" height="39pt"
 viewBox="0.00 0.00 261.00 39.00" xmlns="http://www.w3.org/2000/svg" xmlns:xlink="http://www.w3.org/1999/xlink">
<g id="graph0" class="graph" transform="scale(1 1) rotate(0) translate(4 35)">
<title>trimAlManager::out_format_arguments</title>
<polygon fill="white" stroke="none" points="-4,4 -4,-35 257,-35 257,4 -4,4"/>
<!-- Node289 -->
<g id="node1" class="node"><title>Node289</title>
<polygon fill="#bfbfbf" stroke="black" points="0,-0.5 0,-30.5 101,-30.5 101,-0.5 0,-0.5"/>
<text text-anchor="start" x="8" y="-18.5" font-family="Helvetica,sans-Serif" font-size="10.00">trimAlManager::out</text>
<text text-anchor="middle" x="50.5" y="-7.5" font-family="Helvetica,sans-Serif" font-size="10.00">_format_arguments</text>
</g>
<!-- Node290 -->
<g id="node2" class="node"><title>Node290</title>
<g id="a_node2"><a xlink:href="class____internal_report_1_1____report_system.html#a94ce85b97d7b6c3e5fbda0d30a35edd0" target="_top" xlink:title="Method to report an Error. It will be displayed if Level &#160;is equal or higher to VerboseLevel::ERROR. ">
<polygon fill="white" stroke="black" points="137,-0.5 137,-30.5 253,-30.5 253,-0.5 137,-0.5"/>
<text text-anchor="start" x="145" y="-18.5" font-family="Helvetica,sans-Serif" font-size="10.00">__internalReport::</text>
<text text-anchor="middle" x="195" y="-7.5" font-family="Helvetica,sans-Serif" font-size="10.00">__reportSystem::report</text>
</a>
</g>
</g>
<!-- Node289&#45;&gt;Node290 -->
<g id="edge1" class="edge"><title>Node289&#45;&gt;Node290</title>
<path fill="none" stroke="midnightblue" d="M101.34,-15.5C109.442,-15.5 117.952,-15.5 126.393,-15.5"/>
<polygon fill="midnightblue" stroke="midnightblue" points="126.624,-19.0001 136.624,-15.5 126.624,-12.0001 126.624,-19.0001"/>
</g>
</g>
</svg>
