<?xml version="1.0" encoding="UTF-8" standalone="no"?>
<!DOCTYPE svg PUBLIC "-//W3C//DTD SVG 1.1//EN"
 "http://www.w3.org/Graphics/SVG/1.1/DTD/svg11.dtd">
<!-- Generated by graphviz version 2.38.0 (20140413.2041)
 -->
<!-- Title: Catch::Matchers::Impl::MatcherUntypedBase Pages: 1 -->
<svg width="761pt" height="629pt"
 viewBox="0.00 0.00 761.00 628.50" xmlns="http://www.w3.org/2000/svg" xmlns:xlink="http://www.w3.org/1999/xlink">
<g id="graph0" class="graph" transform="scale(1 1) rotate(0) translate(4 624.5)">
<title>Catch::Matchers::Impl::MatcherUntypedBase</title>
<polygon fill="white" stroke="none" points="-4,4 -4,-624.5 757,-624.5 757,4 -4,4"/>
<!-- Node0 -->
<g id="node1" class="node"><title>Node0</title>
<polygon fill="#bfbfbf" stroke="black" points="0,-444.5 0,-474.5 117,-474.5 117,-444.5 0,-444.5"/>
<text text-anchor="start" x="8" y="-462.5" font-family="Helvetica,sans-Serif" font-size="10.00">Catch::Matchers::Impl</text>
<text text-anchor="middle" x="58.5" y="-451.5" font-family="Helvetica,sans-Serif" font-size="10.00">::MatcherUntypedBase</text>
</g>
<!-- Node1 -->
<g id="node2" class="node"><title>Node1</title>
<g id="a_node2"><a xlink:href="struct_catch_1_1_matchers_1_1_impl_1_1_matcher_base.html" target="_top" xlink:title="Catch::Matchers::Impl\l::MatcherBase\&lt; ObjectT,\l ComparatorT \&gt;">
<polygon fill="white" stroke="black" points="154,-349 154,-390 281,-390 281,-349 154,-349"/>
<text text-anchor="start" x="162" y="-378" font-family="Helvetica,sans-Serif" font-size="10.00">Catch::Matchers::Impl</text>
<text text-anchor="start" x="162" y="-367" font-family="Helvetica,sans-Serif" font-size="10.00">::MatcherBase&lt; ObjectT,</text>
<text text-anchor="middle" x="217.5" y="-356" font-family="Helvetica,sans-Serif" font-size="10.00"> ComparatorT &gt;</text>
</a>
</g>
</g>
<!-- Node0&#45;&gt;Node1 -->
<g id="edge1" class="edge"><title>Node0&#45;&gt;Node1</title>
<path fill="none" stroke="midnightblue" d="M94.7836,-439.274C120.412,-424.582 154.969,-404.773 180.713,-390.015"/>
<polygon fill="midnightblue" stroke="midnightblue" points="92.7132,-436.426 85.7783,-444.436 96.1946,-442.499 92.7132,-436.426"/>
</g>
<!-- Node11 -->
<g id="node12" class="node"><title>Node11</title>
<g id="a_node12"><a xlink:href="struct_catch_1_1_matchers_1_1_impl_1_1_matcher_base.html" target="_top" xlink:title="Catch::Matchers::Impl\l::MatcherBase\&lt; std::vector\l\&lt; T \&gt;, T \&gt;">
<polygon fill="white" stroke="black" points="432.5,-579 432.5,-620 568.5,-620 568.5,-579 432.5,-579"/>
<text text-anchor="start" x="440.5" y="-608" font-family="Helvetica,sans-Serif" font-size="10.00">Catch::Matchers::Impl</text>
<text text-anchor="start" x="440.5" y="-597" font-family="Helvetica,sans-Serif" font-size="10.00">::MatcherBase&lt; std::vector</text>
<text text-anchor="middle" x="500.5" y="-586" font-family="Helvetica,sans-Serif" font-size="10.00">&lt; T &gt;, T &gt;</text>
</a>
</g>
</g>
<!-- Node0&#45;&gt;Node11 -->
<g id="edge22" class="edge"><title>Node0&#45;&gt;Node11</title>
<path fill="none" stroke="midnightblue" d="M90.3703,-480.205C108.545,-492.03 132.179,-506.787 154,-518.5 216.387,-551.988 230.411,-566.92 299,-584.5 342.45,-595.637 392.798,-599.373 432.171,-600.331"/>
<polygon fill="midnightblue" stroke="midnightblue" points="92.2002,-477.22 81.9188,-474.662 88.361,-483.073 92.2002,-477.22"/>
</g>
<!-- Node12 -->
<g id="node13" class="node"><title>Node12</title>
<g id="a_node13"><a xlink:href="struct_catch_1_1_matchers_1_1_impl_1_1_matcher_base.html" target="_top" xlink:title="Catch::Matchers::Impl\l::MatcherBase\&lt; std::string \&gt;">
<polygon fill="white" stroke="black" points="429.5,-529.5 429.5,-559.5 571.5,-559.5 571.5,-529.5 429.5,-529.5"/>
<text text-anchor="start" x="437.5" y="-547.5" font-family="Helvetica,sans-Serif" font-size="10.00">Catch::Matchers::Impl</text>
<text text-anchor="middle" x="500.5" y="-536.5" font-family="Helvetica,sans-Serif" font-size="10.00">::MatcherBase&lt; std::string &gt;</text>
</a>
</g>
</g>
<!-- Node0&#45;&gt;Node12 -->
<g id="edge20" class="edge"><title>Node0&#45;&gt;Node12</title>
<path fill="none" stroke="midnightblue" d="M108.77,-477.993C123.196,-482.913 139.097,-487.863 154,-491.5 248.032,-514.447 359.01,-529.374 429.316,-537.367"/>
<polygon fill="midnightblue" stroke="midnightblue" points="109.644,-474.591 99.0497,-474.609 107.343,-481.202 109.644,-474.591"/>
</g>
<!-- Node13 -->
<g id="node14" class="node"><title>Node13</title>
<g id="a_node14"><a xlink:href="struct_catch_1_1_matchers_1_1_impl_1_1_matcher_base.html" target="_top" xlink:title="Catch::Matchers::Impl\l::MatcherBase\&lt; std::vector\l\&lt; T \&gt;, std::vector\&lt; T \&gt; \&gt;">
<polygon fill="white" stroke="black" points="432.5,-469 432.5,-510 568.5,-510 568.5,-469 432.5,-469"/>
<text text-anchor="start" x="440.5" y="-498" font-family="Helvetica,sans-Serif" font-size="10.00">Catch::Matchers::Impl</text>
<text text-anchor="start" x="440.5" y="-487" font-family="Helvetica,sans-Serif" font-size="10.00">::MatcherBase&lt; std::vector</text>
<text text-anchor="middle" x="500.5" y="-476" font-family="Helvetica,sans-Serif" font-size="10.00">&lt; T &gt;, std::vector&lt; T &gt; &gt;</text>
</a>
</g>
</g>
<!-- Node0&#45;&gt;Node13 -->
<g id="edge21" class="edge"><title>Node0&#45;&gt;Node13</title>
<path fill="none" stroke="midnightblue" d="M127.405,-468.034C175.286,-473.697 240.967,-480.753 299,-484.5 343.303,-487.36 393.21,-488.612 432.15,-489.147"/>
<polygon fill="midnightblue" stroke="midnightblue" points="127.811,-464.558 117.466,-466.848 126.981,-471.508 127.811,-464.558"/>
</g>
<!-- Node14 -->
<g id="node15" class="node"><title>Node14</title>
<g id="a_node15"><a xlink:href="struct_catch_1_1_matchers_1_1_impl_1_1_matcher_base.html" target="_top" xlink:title="Catch::Matchers::Impl\l::MatcherBase\&lt; T *\&gt;">
<polygon fill="white" stroke="black" points="443.5,-141.5 443.5,-171.5 557.5,-171.5 557.5,-141.5 443.5,-141.5"/>
<text text-anchor="start" x="451.5" y="-159.5" font-family="Helvetica,sans-Serif" font-size="10.00">Catch::Matchers::Impl</text>
<text text-anchor="middle" x="500.5" y="-148.5" font-family="Helvetica,sans-Serif" font-size="10.00">::MatcherBase&lt; T *&gt;</text>
</a>
</g>
</g>
<!-- Node0&#45;&gt;Node14 -->
<g id="edge23" class="edge"><title>Node0&#45;&gt;Node14</title>
<path fill="none" stroke="midnightblue" d="M72.4586,-435.396C103.358,-380.614 187.207,-246.98 299,-188.5 323.441,-175.715 392.93,-166.602 443.255,-161.45"/>
<polygon fill="midnightblue" stroke="midnightblue" points="69.2661,-433.936 67.4711,-444.378 75.3858,-437.335 69.2661,-433.936"/>
</g>
<!-- Node15 -->
<g id="node16" class="node"><title>Node15</title>
<g id="a_node16"><a xlink:href="struct_catch_1_1_matchers_1_1_impl_1_1_matcher_base.html" target="_top" xlink:title="Catch::Matchers::Impl\l::MatcherBase\&lt; ArgT \&gt;">
<polygon fill="white" stroke="black" points="441,-92.5 441,-122.5 560,-122.5 560,-92.5 441,-92.5"/>
<text text-anchor="start" x="449" y="-110.5" font-family="Helvetica,sans-Serif" font-size="10.00">Catch::Matchers::Impl</text>
<text text-anchor="middle" x="500.5" y="-99.5" font-family="Helvetica,sans-Serif" font-size="10.00">::MatcherBase&lt; ArgT &gt;</text>
</a>
</g>
</g>
<!-- Node0&#45;&gt;Node15 -->
<g id="edge19" class="edge"><title>Node0&#45;&gt;Node15</title>
<path fill="none" stroke="midnightblue" d="M62.0957,-434.146C68.5908,-382.915 89.9193,-265.961 154,-195.5 227.297,-114.905 363.113,-103.535 440.841,-104.298"/>
<polygon fill="midnightblue" stroke="midnightblue" points="58.5916,-433.976 60.8945,-444.317 65.5433,-434.797 58.5916,-433.976"/>
</g>
<!-- Node2 -->
<g id="node3" class="node"><title>Node2</title>
<g id="a_node3"><a xlink:href="class_array_comparer.html" target="_top" xlink:title="ArrayComparer\&lt; T *\&gt;">
<polygon fill="white" stroke="black" points="445.5,-251 445.5,-270 555.5,-270 555.5,-251 445.5,-251"/>
<text text-anchor="middle" x="500.5" y="-258" font-family="Helvetica,sans-Serif" font-size="10.00">ArrayComparer&lt; T *&gt;</text>
</a>
</g>
</g>
<!-- Node1&#45;&gt;Node2 -->
<g id="edge2" class="edge"><title>Node1&#45;&gt;Node2</title>
<path fill="none" stroke="midnightblue" d="M265.188,-344.076C276.169,-338.395 287.907,-332.559 299,-327.5 352.015,-303.323 365.442,-297.062 421,-279.5 431.963,-276.035 443.957,-272.84 455.197,-270.098"/>
<polygon fill="midnightblue" stroke="midnightblue" points="263.412,-341.055 256.173,-348.792 266.656,-347.258 263.412,-341.055"/>
</g>
<!-- Node3 -->
<g id="node4" class="node"><title>Node3</title>
<g id="a_node4"><a xlink:href="struct_catch_1_1_matchers_1_1_std_string_1_1_string_matcher_base.html" target="_top" xlink:title="Catch::Matchers::StdString\l::StringMatcherBase\&lt; std\l::string \&gt;">
<polygon fill="white" stroke="black" points="432.5,-191 432.5,-232 568.5,-232 568.5,-191 432.5,-191"/>
<text text-anchor="start" x="440.5" y="-220" font-family="Helvetica,sans-Serif" font-size="10.00">Catch::Matchers::StdString</text>
<text text-anchor="start" x="440.5" y="-209" font-family="Helvetica,sans-Serif" font-size="10.00">::StringMatcherBase&lt; std</text>
<text text-anchor="middle" x="500.5" y="-198" font-family="Helvetica,sans-Serif" font-size="10.00">::string &gt;</text>
</a>
</g>
</g>
<!-- Node1&#45;&gt;Node3 -->
<g id="edge3" class="edge"><title>Node1&#45;&gt;Node3</title>
<path fill="none" stroke="midnightblue" d="M238.676,-340.88C253.458,-321.749 275.057,-297.286 299,-281.5 339.478,-254.813 391.274,-237.073 432.081,-226.129"/>
<polygon fill="midnightblue" stroke="midnightblue" points="235.797,-338.884 232.575,-348.977 241.388,-343.096 235.797,-338.884"/>
</g>
<!-- Node8 -->
<g id="node9" class="node"><title>Node8</title>
<g id="a_node9"><a xlink:href="struct_catch_1_1_matchers_1_1_vector_1_1_contains_element_matcher.html" target="_top" xlink:title="Catch::Matchers::Vector\l::ContainsElementMatcher\l\&lt; std::vector\&lt; T \&gt;, T \&gt;">
<polygon fill="white" stroke="black" points="434,-409 434,-450 567,-450 567,-409 434,-409"/>
<text text-anchor="start" x="442" y="-438" font-family="Helvetica,sans-Serif" font-size="10.00">Catch::Matchers::Vector</text>
<text text-anchor="start" x="442" y="-427" font-family="Helvetica,sans-Serif" font-size="10.00">::ContainsElementMatcher</text>
<text text-anchor="middle" x="500.5" y="-416" font-family="Helvetica,sans-Serif" font-size="10.00">&lt; std::vector&lt; T &gt;, T &gt;</text>
</a>
</g>
</g>
<!-- Node1&#45;&gt;Node8 -->
<g id="edge8" class="edge"><title>Node1&#45;&gt;Node8</title>
<path fill="none" stroke="midnightblue" d="M291.134,-384.749C325.121,-391.911 366.144,-400.595 403,-408.5 412.975,-410.64 423.526,-412.919 433.846,-415.158"/>
<polygon fill="midnightblue" stroke="midnightblue" points="291.792,-381.311 281.285,-382.675 290.349,-388.161 291.792,-381.311"/>
</g>
<!-- Node9 -->
<g id="node10" class="node"><title>Node9</title>
<g id="a_node10"><a xlink:href="struct_catch_1_1_matchers_1_1_vector_1_1_contains_matcher.html" target="_top" xlink:title="Catch::Matchers::Vector\l::ContainsMatcher\&lt; std\l::vector\&lt; T \&gt;, std::vector\&lt; T \&gt; \&gt;">
<polygon fill="white" stroke="black" points="421,-349 421,-390 580,-390 580,-349 421,-349"/>
<text text-anchor="start" x="429" y="-378" font-family="Helvetica,sans-Serif" font-size="10.00">Catch::Matchers::Vector</text>
<text text-anchor="start" x="429" y="-367" font-family="Helvetica,sans-Serif" font-size="10.00">::ContainsMatcher&lt; std</text>
<text text-anchor="middle" x="500.5" y="-356" font-family="Helvetica,sans-Serif" font-size="10.00">::vector&lt; T &gt;, std::vector&lt; T &gt; &gt;</text>
</a>
</g>
</g>
<!-- Node1&#45;&gt;Node9 -->
<g id="edge9" class="edge"><title>Node1&#45;&gt;Node9</title>
<path fill="none" stroke="midnightblue" d="M291.36,-369.5C331.091,-369.5 380.3,-369.5 420.894,-369.5"/>
<polygon fill="midnightblue" stroke="midnightblue" points="291.212,-366 281.212,-369.5 291.212,-373 291.212,-366"/>
</g>
<!-- Node10 -->
<g id="node11" class="node"><title>Node10</title>
<g id="a_node11"><a xlink:href="struct_catch_1_1_matchers_1_1_vector_1_1_equals_matcher.html" target="_top" xlink:title="Catch::Matchers::Vector\l::EqualsMatcher\&lt; std::\lvector\&lt; T \&gt;, std::vector\&lt; T \&gt; \&gt;">
<polygon fill="white" stroke="black" points="424,-289 424,-330 577,-330 577,-289 424,-289"/>
<text text-anchor="start" x="432" y="-318" font-family="Helvetica,sans-Serif" font-size="10.00">Catch::Matchers::Vector</text>
<text text-anchor="start" x="432" y="-307" font-family="Helvetica,sans-Serif" font-size="10.00">::EqualsMatcher&lt; std::</text>
<text text-anchor="middle" x="500.5" y="-296" font-family="Helvetica,sans-Serif" font-size="10.00">vector&lt; T &gt;, std::vector&lt; T &gt; &gt;</text>
</a>
</g>
</g>
<!-- Node1&#45;&gt;Node10 -->
<g id="edge10" class="edge"><title>Node1&#45;&gt;Node10</title>
<path fill="none" stroke="midnightblue" d="M291.087,-354.001C331.88,-345.291 382.731,-334.433 423.991,-325.623"/>
<polygon fill="midnightblue" stroke="midnightblue" points="290.261,-350.598 281.212,-356.11 291.723,-357.444 290.261,-350.598"/>
</g>
<!-- Node1&#45;&gt;Node11 -->
<g id="edge11" class="edge"><title>Node1&#45;&gt;Node11</title>
<path fill="none" stroke="orange" stroke-dasharray="5,2" d="M226.657,-399.808C237.582,-434.909 260.225,-492.28 299,-526.5 319.38,-544.486 382.28,-565.84 432.255,-580.79"/>
<polygon fill="orange" stroke="orange" points="229.975,-398.688 223.76,-390.108 223.268,-400.692 229.975,-398.688"/>
<text text-anchor="middle" x="351" y="-573.5" font-family="Helvetica,sans-Serif" font-size="10.00"> &lt; std::vector&lt; T &gt;, T &gt;</text>
</g>
<!-- Node1&#45;&gt;Node12 -->
<g id="edge12" class="edge"><title>Node1&#45;&gt;Node12</title>
<path fill="none" stroke="orange" stroke-dasharray="5,2" d="M242.995,-397.781C258.142,-414.3 278.544,-434.897 299,-450.5 348.53,-488.279 363.907,-494.582 421,-519.5 429.259,-523.104 438.206,-526.449 447.004,-529.443"/>
<polygon fill="orange" stroke="orange" points="245.304,-395.115 236.005,-390.038 240.109,-399.806 245.304,-395.115"/>
<text text-anchor="middle" x="351" y="-514.5" font-family="Helvetica,sans-Serif" font-size="10.00"> &lt; std::string &gt;</text>
</g>
<!-- Node1&#45;&gt;Node13 -->
<g id="edge13" class="edge"><title>Node1&#45;&gt;Node13</title>
<path fill="none" stroke="orange" stroke-dasharray="5,2" d="M269.225,-394.049C278.97,-398.23 289.196,-402.261 299,-405.5 343.949,-420.35 364.782,-400.565 403,-428.5 415.862,-437.902 408.865,-449.177 421,-459.5 425.112,-462.998 429.675,-466.111 434.473,-468.878"/>
<polygon fill="orange" stroke="orange" points="270.622,-390.839 260.059,-390.015 267.802,-397.247 270.622,-390.839"/>
<text text-anchor="start" x="308" y="-442.5" font-family="Helvetica,sans-Serif" font-size="10.00"> &lt; std::vector&lt; T &gt;,</text>
<text text-anchor="middle" x="351" y="-431.5" font-family="Helvetica,sans-Serif" font-size="10.00"> std::vector&lt; T &gt; &gt;</text>
</g>
<!-- Node1&#45;&gt;Node14 -->
<g id="edge14" class="edge"><title>Node1&#45;&gt;Node14</title>
<path fill="none" stroke="orange" stroke-dasharray="5,2" d="M227.461,-339.189C238.844,-305.775 261.633,-252.639 299,-221.5 302.053,-218.956 393.322,-189.923 451.654,-171.53"/>
<polygon fill="orange" stroke="orange" points="224.074,-338.288 224.291,-348.88 230.727,-340.464 224.074,-338.288"/>
<text text-anchor="middle" x="351" y="-224.5" font-family="Helvetica,sans-Serif" font-size="10.00"> &lt; T *&gt;</text>
</g>
<!-- Node1&#45;&gt;Node15 -->
<g id="edge15" class="edge"><title>Node1&#45;&gt;Node15</title>
<path fill="none" stroke="orange" stroke-dasharray="5,2" d="M223.05,-338.792C230.971,-295.973 251.27,-218.532 299,-173.5 319.725,-153.947 389.249,-133.796 440.642,-120.988"/>
<polygon fill="orange" stroke="orange" points="219.559,-338.44 221.294,-348.892 226.455,-339.639 219.559,-338.44"/>
<text text-anchor="middle" x="351" y="-176.5" font-family="Helvetica,sans-Serif" font-size="10.00"> &lt; ArgT &gt;</text>
</g>
<!-- Node4 -->
<g id="node5" class="node"><title>Node4</title>
<g id="a_node5"><a xlink:href="struct_catch_1_1_matchers_1_1_std_string_1_1_contains_matcher.html" target="_top" xlink:title="Catch::Matchers::StdString\l::ContainsMatcher">
<polygon fill="white" stroke="black" points="617,-245.5 617,-275.5 753,-275.5 753,-245.5 617,-245.5"/>
<text text-anchor="start" x="625" y="-263.5" font-family="Helvetica,sans-Serif" font-size="10.00">Catch::Matchers::StdString</text>
<text text-anchor="middle" x="685" y="-252.5" font-family="Helvetica,sans-Serif" font-size="10.00">::ContainsMatcher</text>
</a>
</g>
</g>
<!-- Node3&#45;&gt;Node4 -->
<g id="edge4" class="edge"><title>Node3&#45;&gt;Node4</title>
<path fill="none" stroke="midnightblue" d="M578.394,-232.145C595.051,-236.618 612.364,-241.266 628.035,-245.474"/>
<polygon fill="midnightblue" stroke="midnightblue" points="579.244,-228.75 568.679,-229.537 577.429,-235.51 579.244,-228.75"/>
</g>
<!-- Node5 -->
<g id="node6" class="node"><title>Node5</title>
<g id="a_node6"><a xlink:href="struct_catch_1_1_matchers_1_1_std_string_1_1_ends_with_matcher.html" target="_top" xlink:title="Catch::Matchers::StdString\l::EndsWithMatcher">
<polygon fill="white" stroke="black" points="617,-196.5 617,-226.5 753,-226.5 753,-196.5 617,-196.5"/>
<text text-anchor="start" x="625" y="-214.5" font-family="Helvetica,sans-Serif" font-size="10.00">Catch::Matchers::StdString</text>
<text text-anchor="middle" x="685" y="-203.5" font-family="Helvetica,sans-Serif" font-size="10.00">::EndsWithMatcher</text>
</a>
</g>
</g>
<!-- Node3&#45;&gt;Node5 -->
<g id="edge5" class="edge"><title>Node3&#45;&gt;Node5</title>
<path fill="none" stroke="midnightblue" d="M578.766,-211.5C591.467,-211.5 604.538,-211.5 616.963,-211.5"/>
<polygon fill="midnightblue" stroke="midnightblue" points="578.679,-208 568.679,-211.5 578.679,-215 578.679,-208"/>
</g>
<!-- Node6 -->
<g id="node7" class="node"><title>Node6</title>
<g id="a_node7"><a xlink:href="struct_catch_1_1_matchers_1_1_std_string_1_1_equals_matcher.html" target="_top" xlink:title="Catch::Matchers::StdString\l::EqualsMatcher">
<polygon fill="white" stroke="black" points="617,-147.5 617,-177.5 753,-177.5 753,-147.5 617,-147.5"/>
<text text-anchor="start" x="625" y="-165.5" font-family="Helvetica,sans-Serif" font-size="10.00">Catch::Matchers::StdString</text>
<text text-anchor="middle" x="685" y="-154.5" font-family="Helvetica,sans-Serif" font-size="10.00">::EqualsMatcher</text>
</a>
</g>
</g>
<!-- Node3&#45;&gt;Node6 -->
<g id="edge6" class="edge"><title>Node3&#45;&gt;Node6</title>
<path fill="none" stroke="midnightblue" d="M578.394,-190.855C595.051,-186.382 612.364,-181.734 628.035,-177.526"/>
<polygon fill="midnightblue" stroke="midnightblue" points="577.429,-187.49 568.679,-193.463 579.244,-194.25 577.429,-187.49"/>
</g>
<!-- Node7 -->
<g id="node8" class="node"><title>Node7</title>
<g id="a_node8"><a xlink:href="struct_catch_1_1_matchers_1_1_std_string_1_1_starts_with_matcher.html" target="_top" xlink:title="Catch::Matchers::StdString\l::StartsWithMatcher">
<polygon fill="white" stroke="black" points="617,-294.5 617,-324.5 753,-324.5 753,-294.5 617,-294.5"/>
<text text-anchor="start" x="625" y="-312.5" font-family="Helvetica,sans-Serif" font-size="10.00">Catch::Matchers::StdString</text>
<text text-anchor="middle" x="685" y="-301.5" font-family="Helvetica,sans-Serif" font-size="10.00">::StartsWithMatcher</text>
</a>
</g>
</g>
<!-- Node3&#45;&gt;Node7 -->
<g id="edge7" class="edge"><title>Node3&#45;&gt;Node7</title>
<path fill="none" stroke="midnightblue" d="M573.343,-237.175C575.632,-238.554 577.859,-239.995 580,-241.5 600.627,-255.998 596.316,-270.084 617,-284.5 622.398,-288.262 628.433,-291.539 634.609,-294.369"/>
<polygon fill="midnightblue" stroke="midnightblue" points="574.696,-233.924 564.249,-232.159 571.315,-240.053 574.696,-233.924"/>
</g>
<!-- Node16 -->
<g id="node17" class="node"><title>Node16</title>
<g id="a_node17"><a xlink:href="struct_catch_1_1_matchers_1_1_impl_1_1_match_all_of.html" target="_top" xlink:title="Catch::Matchers::Impl\l::MatchAllOf\&lt; ArgT \&gt;">
<polygon fill="white" stroke="black" points="628,-49.5 628,-79.5 742,-79.5 742,-49.5 628,-49.5"/>
<text text-anchor="start" x="636" y="-67.5" font-family="Helvetica,sans-Serif" font-size="10.00">Catch::Matchers::Impl</text>
<text text-anchor="middle" x="685" y="-56.5" font-family="Helvetica,sans-Serif" font-size="10.00">::MatchAllOf&lt; ArgT &gt;</text>
</a>
</g>
</g>
<!-- Node15&#45;&gt;Node16 -->
<g id="edge16" class="edge"><title>Node15&#45;&gt;Node16</title>
<path fill="none" stroke="midnightblue" d="M570.067,-91.3445C589.125,-86.8541 609.592,-82.0317 627.848,-77.7303"/>
<polygon fill="midnightblue" stroke="midnightblue" points="569.179,-87.9577 560.249,-93.6578 570.785,-94.7711 569.179,-87.9577"/>
</g>
<!-- Node17 -->
<g id="node18" class="node"><title>Node17</title>
<g id="a_node18"><a xlink:href="struct_catch_1_1_matchers_1_1_impl_1_1_match_any_of.html" target="_top" xlink:title="Catch::Matchers::Impl\l::MatchAnyOf\&lt; ArgT \&gt;">
<polygon fill="white" stroke="black" points="627,-0.5 627,-30.5 743,-30.5 743,-0.5 627,-0.5"/>
<text text-anchor="start" x="635" y="-18.5" font-family="Helvetica,sans-Serif" font-size="10.00">Catch::Matchers::Impl</text>
<text text-anchor="middle" x="685" y="-7.5" font-family="Helvetica,sans-Serif" font-size="10.00">::MatchAnyOf&lt; ArgT &gt;</text>
</a>
</g>
</g>
<!-- Node15&#45;&gt;Node17 -->
<g id="edge17" class="edge"><title>Node15&#45;&gt;Node17</title>
<path fill="none" stroke="midnightblue" d="M532.802,-86.892C555.555,-72.4593 587.421,-53.3541 617,-39.5 623.713,-36.3555 630.96,-33.3666 638.122,-30.6332"/>
<polygon fill="midnightblue" stroke="midnightblue" points="530.783,-84.0287 524.25,-92.3693 534.558,-89.9234 530.783,-84.0287"/>
</g>
<!-- Node18 -->
<g id="node19" class="node"><title>Node18</title>
<g id="a_node19"><a xlink:href="struct_catch_1_1_matchers_1_1_impl_1_1_match_not_of.html" target="_top" xlink:title="Catch::Matchers::Impl\l::MatchNotOf\&lt; ArgT \&gt;">
<polygon fill="white" stroke="black" points="627.5,-98.5 627.5,-128.5 742.5,-128.5 742.5,-98.5 627.5,-98.5"/>
<text text-anchor="start" x="635.5" y="-116.5" font-family="Helvetica,sans-Serif" font-size="10.00">Catch::Matchers::Impl</text>
<text text-anchor="middle" x="685" y="-105.5" font-family="Helvetica,sans-Serif" font-size="10.00">::MatchNotOf&lt; ArgT &gt;</text>
</a>
</g>
</g>
<!-- Node15&#45;&gt;Node18 -->
<g id="edge18" class="edge"><title>Node15&#45;&gt;Node18</title>
<path fill="none" stroke="midnightblue" d="M570.491,-109.768C589.213,-110.384 609.266,-111.043 627.229,-111.634"/>
<polygon fill="midnightblue" stroke="midnightblue" points="570.358,-106.262 560.249,-109.431 570.128,-113.258 570.358,-106.262"/>
</g>
</g>
</svg>
