<?xml version="1.0" encoding="UTF-8" standalone="no"?>
<!DOCTYPE svg PUBLIC "-//W3C//DTD SVG 1.1//EN"
 "http://www.w3.org/Graphics/SVG/1.1/DTD/svg11.dtd">
<!-- Generated by graphviz version 2.38.0 (20140413.2041)
 -->
<!-- Title: statisticsConservation::calculateVectors Pages: 1 -->
<svg width="646pt" height="75pt"
 viewBox="0.00 0.00 646.00 74.50" xmlns="http://www.w3.org/2000/svg" xmlns:xlink="http://www.w3.org/1999/xlink">
<g id="graph0" class="graph" transform="scale(1 1) rotate(0) translate(4 70.5)">
<title>statisticsConservation::calculateVectors</title>
<polygon fill="white" stroke="none" points="-4,4 -4,-70.5 642,-70.5 642,4 -4,4"/>
<!-- Node36 -->
<g id="node1" class="node"><title>Node36</title>
<polygon fill="#bfbfbf" stroke="black" points="0,-14 0,-44 114,-44 114,-14 0,-14"/>
<text text-anchor="start" x="8" y="-32" font-family="Helvetica,sans-Serif" font-size="10.00">statisticsConservation</text>
<text text-anchor="middle" x="57" y="-21" font-family="Helvetica,sans-Serif" font-size="10.00">::calculateVectors</text>
</g>
<!-- Node37 -->
<g id="node2" class="node"><title>Node37</title>
<g id="a_node2"><a xlink:href="classstatistics_conservation.html#a9fe3502be02c8d6591a6de2d5f81c337" target="_top" xlink:title="Computes the matrix identity between alignment&#39;s columns. ">
<polygon fill="white" stroke="black" points="150,-36 150,-66 271,-66 271,-36 150,-36"/>
<text text-anchor="start" x="158" y="-54" font-family="Helvetica,sans-Serif" font-size="10.00">statisticsConservation</text>
<text text-anchor="middle" x="210.5" y="-43" font-family="Helvetica,sans-Serif" font-size="10.00">::calculateMatrixIdentity</text>
</a>
</g>
</g>
<!-- Node36&#45;&gt;Node37 -->
<g id="edge1" class="edge"><title>Node36&#45;&gt;Node37</title>
<path fill="none" stroke="midnightblue" d="M114.413,-37.192C122.757,-38.4037 131.437,-39.6642 140.01,-40.909"/>
<polygon fill="midnightblue" stroke="midnightblue" points="139.598,-44.3858 149.997,-42.3593 140.604,-37.4585 139.598,-44.3858"/>
</g>
<!-- Node39 -->
<g id="node4" class="node"><title>Node39</title>
<g id="a_node4"><a xlink:href="classnew_alignment.html#a670d5ef1ced9ed6041c3f6afdbd2cc02" target="_top" xlink:title="Alignment type getter. &#160;&#160;See SequenceTypes.">
<polygon fill="white" stroke="black" points="307,-0.5 307,-19.5 470,-19.5 470,-0.5 307,-0.5"/>
<text text-anchor="middle" x="388.5" y="-7.5" font-family="Helvetica,sans-Serif" font-size="10.00">newAlignment::getAlignmentType</text>
</a>
</g>
</g>
<!-- Node36&#45;&gt;Node39 -->
<g id="edge5" class="edge"><title>Node36&#45;&gt;Node39</title>
<path fill="none" stroke="midnightblue" d="M114.269,-25.7554C164.207,-22.8758 238.083,-18.6159 296.43,-15.2514"/>
<polygon fill="midnightblue" stroke="midnightblue" points="296.982,-18.7255 306.763,-14.6555 296.578,-11.7371 296.982,-18.7255"/>
</g>
<!-- Node38 -->
<g id="node3" class="node"><title>Node38</title>
<g id="a_node3"><a xlink:href="classutils.html#aac322cd1761fddedec8a5792e358eb32" target="_top" xlink:title="Vector initialization. ">
<polygon fill="white" stroke="black" points="350.5,-41.5 350.5,-60.5 426.5,-60.5 426.5,-41.5 350.5,-41.5"/>
<text text-anchor="middle" x="388.5" y="-48.5" font-family="Helvetica,sans-Serif" font-size="10.00">utils::initlVect</text>
</a>
</g>
</g>
<!-- Node37&#45;&gt;Node38 -->
<g id="edge2" class="edge"><title>Node37&#45;&gt;Node38</title>
<path fill="none" stroke="midnightblue" d="M271.086,-51C293.625,-51 318.95,-51 340.209,-51"/>
<polygon fill="midnightblue" stroke="midnightblue" points="340.289,-54.5001 350.289,-51 340.289,-47.5001 340.289,-54.5001"/>
</g>
<!-- Node37&#45;&gt;Node39 -->
<g id="edge3" class="edge"><title>Node37&#45;&gt;Node39</title>
<path fill="none" stroke="midnightblue" d="M271.086,-37.1193C292.425,-32.1481 316.262,-26.5953 336.781,-21.8152"/>
<polygon fill="midnightblue" stroke="midnightblue" points="337.617,-25.2143 346.562,-19.5367 336.029,-18.3969 337.617,-25.2143"/>
</g>
<!-- Node40 -->
<g id="node5" class="node"><title>Node40</title>
<g id="a_node5"><a xlink:href="classutils.html#a1f1dcbfa7276e54acec72bdbae1b1255" target="_top" xlink:title="Checks an alignment type. ">
<polygon fill="white" stroke="black" points="506,-0.5 506,-19.5 638,-19.5 638,-0.5 506,-0.5"/>
<text text-anchor="middle" x="572" y="-7.5" font-family="Helvetica,sans-Serif" font-size="10.00">utils::checkAlignmentType</text>
</a>
</g>
</g>
<!-- Node39&#45;&gt;Node40 -->
<g id="edge4" class="edge"><title>Node39&#45;&gt;Node40</title>
<path fill="none" stroke="midnightblue" d="M470.166,-10C478.646,-10 487.246,-10 495.664,-10"/>
<polygon fill="midnightblue" stroke="midnightblue" points="495.821,-13.5001 505.821,-10 495.821,-6.5001 495.821,-13.5001"/>
</g>
</g>
</svg>
