<?xml version="1.0" encoding="UTF-8" standalone="no"?>
<!DOCTYPE svg PUBLIC "-//W3C//DTD SVG 1.1//EN"
 "http://www.w3.org/Graphics/SVG/1.1/DTD/svg11.dtd">
<!-- Generated by graphviz version 2.38.0 (20140413.2041)
 -->
<!-- Title: Cleaner::cleanByCutValue Pages: 1 -->
<svg width="355pt" height="241pt"
 viewBox="0.00 0.00 355.00 241.00" xmlns="http://www.w3.org/2000/svg" xmlns:xlink="http://www.w3.org/1999/xlink">
<g id="graph0" class="graph" transform="scale(1 1) rotate(0) translate(4 237)">
<title>Cleaner::cleanByCutValue</title>
<polygon fill="white" stroke="none" points="-4,4 -4,-237 351,-237 351,4 -4,4"/>
<!-- Node54 -->
<g id="node1" class="node"><title>Node54</title>
<polygon fill="#bfbfbf" stroke="black" points="0,-115.5 0,-134.5 132,-134.5 132,-115.5 0,-115.5"/>
<text text-anchor="middle" x="66" y="-122.5" font-family="Helvetica,sans-Serif" font-size="10.00">Cleaner::cleanByCutValue</text>
</g>
<!-- Node55 -->
<g id="node2" class="node"><title>Node55</title>
<g id="a_node2"><a xlink:href="classutils.html#ad50731aeb3c8f79ed8372516210dfc9d" target="_top" xlink:title="Round double to integer method. ">
<polygon fill="white" stroke="black" points="219.5,-213.5 219.5,-232.5 295.5,-232.5 295.5,-213.5 219.5,-213.5"/>
<text text-anchor="middle" x="257.5" y="-220.5" font-family="Helvetica,sans-Serif" font-size="10.00">utils::roundInt</text>
</a>
</g>
</g>
<!-- Node54&#45;&gt;Node55 -->
<g id="edge1" class="edge"><title>Node54&#45;&gt;Node55</title>
<path fill="none" stroke="midnightblue" d="M76.3022,-134.737C93.0013,-151.607 129.891,-186.169 168,-204 180.704,-209.944 195.306,-214.053 208.939,-216.883"/>
<polygon fill="midnightblue" stroke="midnightblue" points="208.653,-220.391 219.129,-218.808 209.952,-213.513 208.653,-220.391"/>
</g>
<!-- Node56 -->
<g id="node3" class="node"><title>Node56</title>
<g id="a_node3"><a xlink:href="class_cleaner.html#a033da9ea63774f43f4c7aff04f23da81" target="_top" xlink:title="Method to detect right and left borders. Borders are the first column found with no gaps...">
<polygon fill="white" stroke="black" points="184.5,-175.5 184.5,-194.5 330.5,-194.5 330.5,-175.5 184.5,-175.5"/>
<text text-anchor="middle" x="257.5" y="-182.5" font-family="Helvetica,sans-Serif" font-size="10.00">Cleaner::removeOnlyTerminal</text>
</a>
</g>
</g>
<!-- Node54&#45;&gt;Node56 -->
<g id="edge2" class="edge"><title>Node54&#45;&gt;Node56</title>
<path fill="none" stroke="midnightblue" d="M87.5073,-134.558C107.647,-143.649 139.422,-157.205 168,-166 176.603,-168.648 185.788,-171.062 194.862,-173.214"/>
<polygon fill="midnightblue" stroke="midnightblue" points="194.104,-176.631 204.633,-175.446 195.663,-169.807 194.104,-176.631"/>
</g>
<!-- Node57 -->
<g id="node4" class="node"><title>Node57</title>
<g id="a_node4"><a xlink:href="class_cleaner.html#a24bd28e4191afc9471adff329bee1466" target="_top" xlink:title="Method for computing the complementary alignment. Complementary Alignment is an alignment containing ...">
<polygon fill="white" stroke="black" points="168,-137.5 168,-156.5 347,-156.5 347,-137.5 168,-137.5"/>
<text text-anchor="middle" x="257.5" y="-144.5" font-family="Helvetica,sans-Serif" font-size="10.00">Cleaner::computeComplementaryAlig</text>
</a>
</g>
</g>
<!-- Node54&#45;&gt;Node57 -->
<g id="edge3" class="edge"><title>Node54&#45;&gt;Node57</title>
<path fill="none" stroke="midnightblue" d="M132.215,-132.571C142.625,-133.78 153.564,-135.05 164.455,-136.314"/>
<polygon fill="midnightblue" stroke="midnightblue" points="164.09,-139.795 174.427,-137.472 164.897,-132.842 164.09,-139.795"/>
</g>
<!-- Node58 -->
<g id="node5" class="node"><title>Node58</title>
<g id="a_node5"><a xlink:href="class_cleaner.html#a2f7d85e29f23f880a7ad7e28863b36c3" target="_top" xlink:title="Method that identifies and removes columns and sequences composed only by gaps. ">
<polygon fill="white" stroke="black" points="203,-88 203,-118 312,-118 312,-88 203,-88"/>
<text text-anchor="start" x="211" y="-106" font-family="Helvetica,sans-Serif" font-size="10.00">Cleaner::removeCols</text>
<text text-anchor="middle" x="257.5" y="-95" font-family="Helvetica,sans-Serif" font-size="10.00">_SeqsAllGaps</text>
</a>
</g>
</g>
<!-- Node54&#45;&gt;Node58 -->
<g id="edge4" class="edge"><title>Node54&#45;&gt;Node58</title>
<path fill="none" stroke="midnightblue" d="M132.215,-117.429C151.817,-115.153 173.292,-112.66 192.794,-110.396"/>
<polygon fill="midnightblue" stroke="midnightblue" points="193.263,-113.865 202.793,-109.235 192.456,-106.912 193.263,-113.865"/>
</g>
<!-- Node59 -->
<g id="node6" class="node"><title>Node59</title>
<g id="a_node6"><a xlink:href="classnew_alignment.html#a3de39c62c08a265178f1fa7df76c3ab7" target="_top" xlink:title="Method that copies information of the alignment to the pointers given. ">
<polygon fill="white" stroke="black" points="190,-39 190,-69 325,-69 325,-39 190,-39"/>
<text text-anchor="start" x="198" y="-57" font-family="Helvetica,sans-Serif" font-size="10.00">newAlignment::fillNewData</text>
<text text-anchor="middle" x="257.5" y="-46" font-family="Helvetica,sans-Serif" font-size="10.00">Structure</text>
</a>
</g>
</g>
<!-- Node54&#45;&gt;Node59 -->
<g id="edge5" class="edge"><title>Node54&#45;&gt;Node59</title>
<path fill="none" stroke="midnightblue" d="M85.6285,-115.478C105.629,-105.502 138.512,-89.8088 168,-79 174.699,-76.5445 181.756,-74.1845 188.842,-71.9615"/>
<polygon fill="midnightblue" stroke="midnightblue" points="189.947,-75.2836 198.491,-69.0188 187.905,-68.588 189.947,-75.2836"/>
</g>
<!-- Node60 -->
<g id="node7" class="node"><title>Node60</title>
<g id="a_node7"><a xlink:href="classnew_alignment.html#acbeb320f0f70222f81a906ccfc33a016" target="_top" xlink:title="Method to intialize data that has been modified on the alignment. The method checks if the sequences ...">
<polygon fill="white" stroke="black" points="192,-0.5 192,-19.5 323,-19.5 323,-0.5 192,-0.5"/>
<text text-anchor="middle" x="257.5" y="-7.5" font-family="Helvetica,sans-Serif" font-size="10.00">newAlignment::fillMatrices</text>
</a>
</g>
</g>
<!-- Node54&#45;&gt;Node60 -->
<g id="edge6" class="edge"><title>Node54&#45;&gt;Node60</title>
<path fill="none" stroke="midnightblue" d="M74.1778,-115.44C89.2661,-96.0671 126.337,-52.1437 168,-30 173.257,-27.2057 178.891,-24.8006 184.676,-22.7306"/>
<polygon fill="midnightblue" stroke="midnightblue" points="186.074,-25.9574 194.515,-19.5539 183.923,-19.296 186.074,-25.9574"/>
</g>
</g>
</svg>
