<?xml version="1.0" encoding="UTF-8" standalone="no"?>
<!DOCTYPE svg PUBLIC "-//W3C//DTD SVG 1.1//EN"
 "http://www.w3.org/Graphics/SVG/1.1/DTD/svg11.dtd">
<!-- Generated by graphviz version 2.38.0 (20140413.2041)
 -->
<!-- Title: trimAlManager::check_inFile_incompatibilities Pages: 1 -->
<svg width="510pt" height="39pt"
 viewBox="0.00 0.00 510.00 39.00" xmlns="http://www.w3.org/2000/svg" xmlns:xlink="http://www.w3.org/1999/xlink">
<g id="graph0" class="graph" transform="scale(1 1) rotate(0) translate(4 35)">
<title>trimAlManager::check_inFile_incompatibilities</title>
<polygon fill="white" stroke="none" points="-4,4 -4,-35 506,-35 506,4 -4,4"/>
<!-- Node143 -->
<g id="node1" class="node"><title>Node143</title>
<polygon fill="#bfbfbf" stroke="black" points="0,-0.5 0,-30.5 120,-30.5 120,-0.5 0,-0.5"/>
<text text-anchor="start" x="8" y="-18.5" font-family="Helvetica,sans-Serif" font-size="10.00">trimAlManager::check</text>
<text text-anchor="middle" x="60" y="-7.5" font-family="Helvetica,sans-Serif" font-size="10.00">_inFile_incompatibilities</text>
</g>
<!-- Node144 -->
<g id="node2" class="node"><title>Node144</title>
<g id="a_node2"><a xlink:href="classtrim_al_manager.html#a16d2da3f90cfe965bea5f1da1360e17a" target="_top" xlink:title="Method to check argument incompatibilities. Take in mind that an incompatibility is between two argum...">
<polygon fill="white" stroke="black" points="156,-0.5 156,-30.5 299,-30.5 299,-0.5 156,-0.5"/>
<text text-anchor="start" x="164" y="-18.5" font-family="Helvetica,sans-Serif" font-size="10.00">trimAlManager::check</text>
<text text-anchor="middle" x="227.5" y="-7.5" font-family="Helvetica,sans-Serif" font-size="10.00">_arguments_incompatibilities</text>
</a>
</g>
</g>
<!-- Node143&#45;&gt;Node144 -->
<g id="edge1" class="edge"><title>Node143&#45;&gt;Node144</title>
<path fill="none" stroke="midnightblue" d="M130.397,-15.5C138.785,-15.5 147.362,-15.5 155.769,-15.5"/>
<polygon fill="midnightblue" stroke="midnightblue" points="130.282,-12.0001 120.282,-15.5 130.282,-19.0001 130.282,-12.0001"/>
</g>
<!-- Node145 -->
<g id="node3" class="node"><title>Node145</title>
<g id="a_node3"><a xlink:href="classtrim_al_manager.html#a748b08a1ec5cd214de804ed0d4234a6e" target="_top" xlink:title="Method to process the information obtained by trimAlManager::parseArguments It checks for argument in...">
<polygon fill="white" stroke="black" points="335,-6 335,-25 502,-25 502,-6 335,-6"/>
<text text-anchor="middle" x="418.5" y="-13" font-family="Helvetica,sans-Serif" font-size="10.00">trimAlManager::processArguments</text>
</a>
</g>
</g>
<!-- Node144&#45;&gt;Node145 -->
<g id="edge2" class="edge"><title>Node144&#45;&gt;Node145</title>
<path fill="none" stroke="midnightblue" d="M309.349,-15.5C317.789,-15.5 326.378,-15.5 334.839,-15.5"/>
<polygon fill="midnightblue" stroke="midnightblue" points="309.145,-12.0001 299.145,-15.5 309.145,-19.0001 309.145,-12.0001"/>
</g>
</g>
</svg>
