<?xml version="1.0" encoding="UTF-8" standalone="no"?>
<!DOCTYPE svg PUBLIC "-//W3C//DTD SVG 1.1//EN"
 "http://www.w3.org/Graphics/SVG/1.1/DTD/svg11.dtd">
<!-- Generated by graphviz version 2.40.1 (20161225.0304)
 -->
<!-- Title: Cleaner::cleanConservation Pages: 1 -->
<svg width="887pt" height="66pt"
 viewBox="0.00 0.00 887.00 66.00" xmlns="http://www.w3.org/2000/svg" xmlns:xlink="http://www.w3.org/1999/xlink">
<g id="graph0" class="graph" transform="scale(1 1) rotate(0) translate(4 62)">
<title>Cleaner::cleanConservation</title>
<polygon fill="#ffffff" stroke="transparent" points="-4,4 -4,-62 883,-62 883,4 -4,4"/>
<!-- Node336 -->
<g id="node1" class="node">
<title>Node336</title>
<polygon fill="#bfbfbf" stroke="#000000" points="0,-19.5 0,-38.5 137,-38.5 137,-19.5 0,-19.5"/>
<text text-anchor="middle" x="68.5" y="-26.5" font-family="Helvetica,sans-Serif" font-size="10.00" fill="#000000">Cleaner::cleanConservation</text>
</g>
<!-- Node337 -->
<g id="node2" class="node">
<title>Node337</title>
<g id="a_node2"><a xlink:href="classtrim_al_manager.html#aebfd21b0435302f0e4fc45a068d1b6ee" target="_top" xlink:title="Method to trim the alignment using non automatic methods: ">
<polygon fill="#ffffff" stroke="#000000" points="173,-14 173,-44 325,-44 325,-14 173,-14"/>
<text text-anchor="start" x="181" y="-32" font-family="Helvetica,sans-Serif" font-size="10.00" fill="#000000">trimAlManager::CleanResidues</text>
<text text-anchor="middle" x="249" y="-21" font-family="Helvetica,sans-Serif" font-size="10.00" fill="#000000">NonAuto</text>
</a>
</g>
</g>
<!-- Node336&#45;&gt;Node337 -->
<g id="edge1" class="edge">
<title>Node336&#45;&gt;Node337</title>
<path fill="none" stroke="#191970" d="M147.4695,-29C155.9153,-29 164.495,-29 172.9065,-29"/>
<polygon fill="#191970" stroke="#191970" points="147.2543,-25.5001 137.2542,-29 147.2542,-32.5001 147.2543,-25.5001"/>
</g>
<!-- Node338 -->
<g id="node3" class="node">
<title>Node338</title>
<g id="a_node3"><a xlink:href="classtrim_al_manager.html#adc529dd893ed4e9df6f3ddbd58776068" target="_top" xlink:title="Core Method of the program. This is where almost all cleaning methods are called from. ">
<polygon fill="#ffffff" stroke="#000000" points="361,-14 361,-44 470,-44 470,-14 361,-14"/>
<text text-anchor="start" x="369" y="-32" font-family="Helvetica,sans-Serif" font-size="10.00" fill="#000000">trimAlManager::clean</text>
<text text-anchor="middle" x="415.5" y="-21" font-family="Helvetica,sans-Serif" font-size="10.00" fill="#000000">_alignment</text>
</a>
</g>
</g>
<!-- Node337&#45;&gt;Node338 -->
<g id="edge2" class="edge">
<title>Node337&#45;&gt;Node338</title>
<path fill="none" stroke="#191970" d="M335.5487,-29C344.1708,-29 352.7456,-29 360.9024,-29"/>
<polygon fill="#191970" stroke="#191970" points="335.4277,-25.5001 325.4277,-29 335.4277,-32.5001 335.4277,-25.5001"/>
</g>
<!-- Node339 -->
<g id="node4" class="node">
<title>Node339</title>
<g id="a_node4"><a xlink:href="classtrim_al_manager.html#a7c641a1feff33d401b4ea5c82e989289" target="_top" xlink:title="trimAlManager::innerPerform">
<polygon fill="#ffffff" stroke="#000000" points="507.5,-38.5 507.5,-57.5 648.5,-57.5 648.5,-38.5 507.5,-38.5"/>
<text text-anchor="middle" x="578" y="-45.5" font-family="Helvetica,sans-Serif" font-size="10.00" fill="#000000">trimAlManager::innerPerform</text>
</a>
</g>
</g>
<!-- Node338&#45;&gt;Node339 -->
<g id="edge3" class="edge">
<title>Node338&#45;&gt;Node339</title>
<path fill="none" stroke="#191970" d="M480.0655,-36.5492C489.0547,-37.6002 498.3286,-38.6846 507.4212,-39.7477"/>
<polygon fill="#191970" stroke="#191970" points="480.401,-33.0647 470.0622,-35.3796 479.588,-40.0173 480.401,-33.0647"/>
</g>
<!-- Node342 -->
<g id="node7" class="node">
<title>Node342</title>
<g id="a_node7"><a xlink:href="classtrim_al_manager.html#ac5795f93b3a2b51bf5d8dddd63b89f73" target="_top" xlink:title="trimAlManager::perform_VCF">
<polygon fill="#ffffff" stroke="#000000" points="506,-.5 506,-19.5 650,-19.5 650,-.5 506,-.5"/>
<text text-anchor="middle" x="578" y="-7.5" font-family="Helvetica,sans-Serif" font-size="10.00" fill="#000000">trimAlManager::perform_VCF</text>
</a>
</g>
</g>
<!-- Node338&#45;&gt;Node342 -->
<g id="edge6" class="edge">
<title>Node338&#45;&gt;Node342</title>
<path fill="none" stroke="#191970" d="M480.2328,-21.4312C488.6937,-20.442 497.4041,-19.4235 505.9757,-18.4213"/>
<polygon fill="#191970" stroke="#191970" points="479.588,-17.9827 470.0622,-22.6204 480.401,-24.9353 479.588,-17.9827"/>
</g>
<!-- Node340 -->
<g id="node5" class="node">
<title>Node340</title>
<g id="a_node5"><a xlink:href="classtrim_al_manager.html#abe8d2841455c644dc9c7d1294b82b00f" target="_top" xlink:title="Method to perform the analysis if all checks have passed. ">
<polygon fill="#ffffff" stroke="#000000" points="686,-38.5 686,-57.5 805,-57.5 805,-38.5 686,-38.5"/>
<text text-anchor="middle" x="745.5" y="-45.5" font-family="Helvetica,sans-Serif" font-size="10.00" fill="#000000">trimAlManager::perform</text>
</a>
</g>
</g>
<!-- Node339&#45;&gt;Node340 -->
<g id="edge4" class="edge">
<title>Node339&#45;&gt;Node340</title>
<path fill="none" stroke="#191970" d="M658.8102,-48C667.9363,-48 677.1089,-48 685.8939,-48"/>
<polygon fill="#191970" stroke="#191970" points="658.5497,-44.5001 648.5496,-48 658.5496,-51.5001 658.5497,-44.5001"/>
</g>
<!-- Node341 -->
<g id="node6" class="node">
<title>Node341</title>
<g id="a_node6"><a xlink:href="trim_al_main_8cpp.html#a0ddf1224851353fc92bfbff6f499fa97" target="_top" xlink:title="main">
<polygon fill="#ffffff" stroke="#000000" points="841,-38.5 841,-57.5 879,-57.5 879,-38.5 841,-38.5"/>
<text text-anchor="middle" x="860" y="-45.5" font-family="Helvetica,sans-Serif" font-size="10.00" fill="#000000">main</text>
</a>
</g>
</g>
<!-- Node340&#45;&gt;Node341 -->
<g id="edge5" class="edge">
<title>Node340&#45;&gt;Node341</title>
<path fill="none" stroke="#191970" d="M815.3198,-48C824.6177,-48 833.4503,-48 840.7697,-48"/>
<polygon fill="#191970" stroke="#191970" points="815.0976,-44.5001 805.0976,-48 815.0975,-51.5001 815.0976,-44.5001"/>
</g>
</g>
</svg>
