<?xml version="1.0" encoding="UTF-8" standalone="no"?>
<!DOCTYPE svg PUBLIC "-//W3C//DTD SVG 1.1//EN"
 "http://www.w3.org/Graphics/SVG/1.1/DTD/svg11.dtd">
<!-- Generated by graphviz version 2.40.1 (20161225.0304)
 -->
<!-- Title: trimAlManager::save_alignment Pages: 1 -->
<svg width="521pt" height="39pt"
 viewBox="0.00 0.00 521.00 39.00" xmlns="http://www.w3.org/2000/svg" xmlns:xlink="http://www.w3.org/1999/xlink">
<g id="graph0" class="graph" transform="scale(1 1) rotate(0) translate(4 35)">
<title>trimAlManager::save_alignment</title>
<polygon fill="#ffffff" stroke="transparent" points="-4,4 -4,-35 517,-35 517,4 -4,4"/>
<!-- Node1306 -->
<g id="node1" class="node">
<title>Node1306</title>
<polygon fill="#bfbfbf" stroke="#000000" points="0,-.5 0,-30.5 107,-30.5 107,-.5 0,-.5"/>
<text text-anchor="start" x="8" y="-18.5" font-family="Helvetica,sans-Serif" font-size="10.00" fill="#000000">trimAlManager::save</text>
<text text-anchor="middle" x="53.5" y="-7.5" font-family="Helvetica,sans-Serif" font-size="10.00" fill="#000000">_alignment</text>
</g>
<!-- Node1307 -->
<g id="node2" class="node">
<title>Node1307</title>
<g id="a_node2"><a xlink:href="classtrim_al_manager.html#a7c641a1feff33d401b4ea5c82e989289" target="_top" xlink:title="trimAlManager::innerPerform">
<polygon fill="#ffffff" stroke="#000000" points="143,-6 143,-25 284,-25 284,-6 143,-6"/>
<text text-anchor="middle" x="213.5" y="-13" font-family="Helvetica,sans-Serif" font-size="10.00" fill="#000000">trimAlManager::innerPerform</text>
</a>
</g>
</g>
<!-- Node1306&#45;&gt;Node1307 -->
<g id="edge1" class="edge">
<title>Node1306&#45;&gt;Node1307</title>
<path fill="none" stroke="#191970" d="M117.3182,-15.5C125.7172,-15.5 134.3645,-15.5 142.8687,-15.5"/>
<polygon fill="#191970" stroke="#191970" points="117.2228,-12.0001 107.2228,-15.5 117.2227,-19.0001 117.2228,-12.0001"/>
</g>
<!-- Node1308 -->
<g id="node3" class="node">
<title>Node1308</title>
<g id="a_node3"><a xlink:href="classtrim_al_manager.html#abe8d2841455c644dc9c7d1294b82b00f" target="_top" xlink:title="Method to perform the analysis if all checks have passed. ">
<polygon fill="#ffffff" stroke="#000000" points="320,-6 320,-25 439,-25 439,-6 320,-6"/>
<text text-anchor="middle" x="379.5" y="-13" font-family="Helvetica,sans-Serif" font-size="10.00" fill="#000000">trimAlManager::perform</text>
</a>
</g>
</g>
<!-- Node1307&#45;&gt;Node1308 -->
<g id="edge2" class="edge">
<title>Node1307&#45;&gt;Node1308</title>
<path fill="none" stroke="#191970" d="M294.4012,-15.5C302.9677,-15.5 311.564,-15.5 319.8249,-15.5"/>
<polygon fill="#191970" stroke="#191970" points="294.3805,-12.0001 284.3804,-15.5 294.3804,-19.0001 294.3805,-12.0001"/>
</g>
<!-- Node1309 -->
<g id="node4" class="node">
<title>Node1309</title>
<g id="a_node4"><a xlink:href="trim_al_main_8cpp.html#a0ddf1224851353fc92bfbff6f499fa97" target="_top" xlink:title="main">
<polygon fill="#ffffff" stroke="#000000" points="475,-6 475,-25 513,-25 513,-6 475,-6"/>
<text text-anchor="middle" x="494" y="-13" font-family="Helvetica,sans-Serif" font-size="10.00" fill="#000000">main</text>
</a>
</g>
</g>
<!-- Node1308&#45;&gt;Node1309 -->
<g id="edge3" class="edge">
<title>Node1308&#45;&gt;Node1309</title>
<path fill="none" stroke="#191970" d="M449.3198,-15.5C458.6177,-15.5 467.4503,-15.5 474.7697,-15.5"/>
<polygon fill="#191970" stroke="#191970" points="449.0976,-12.0001 439.0976,-15.5 449.0975,-19.0001 449.0976,-12.0001"/>
</g>
</g>
</svg>
