<?xml version="1.0" encoding="UTF-8" standalone="no"?>
<!DOCTYPE svg PUBLIC "-//W3C//DTD SVG 1.1//EN"
 "http://www.w3.org/Graphics/SVG/1.1/DTD/svg11.dtd">
<!-- Generated by graphviz version 2.40.1 (20161225.0304)
 -->
<!-- Title: FormatHandling::FormatManager::getFormatFromFile Pages: 1 -->
<svg width="1048pt" height="340pt"
 viewBox="0.00 0.00 1048.00 340.00" xmlns="http://www.w3.org/2000/svg" xmlns:xlink="http://www.w3.org/1999/xlink">
<g id="graph0" class="graph" transform="scale(1 1) rotate(0) translate(4 336)">
<title>FormatHandling::FormatManager::getFormatFromFile</title>
<polygon fill="#ffffff" stroke="transparent" points="-4,4 -4,-336 1044,-336 1044,4 -4,4"/>
<!-- Node30 -->
<g id="node1" class="node">
<title>Node30</title>
<polygon fill="#bfbfbf" stroke="#000000" points="0,-166.5 0,-196.5 160,-196.5 160,-166.5 0,-166.5"/>
<text text-anchor="start" x="8" y="-184.5" font-family="Helvetica,sans-Serif" font-size="10.00" fill="#000000">FormatHandling::FormatManager</text>
<text text-anchor="middle" x="80" y="-173.5" font-family="Helvetica,sans-Serif" font-size="10.00" fill="#000000">::getFormatFromFile</text>
</g>
<!-- Node31 -->
<g id="node2" class="node">
<title>Node31</title>
<g id="a_node2"><a xlink:href="class_format_handling_1_1_format_manager.html#ad31c39b979311f79dda3f2ae097b5625" target="_top" xlink:title="Function to obtain the format name of a given file. ">
<polygon fill="#ffffff" stroke="#000000" points="196,-235.5 196,-265.5 356,-265.5 356,-235.5 196,-235.5"/>
<text text-anchor="start" x="204" y="-253.5" font-family="Helvetica,sans-Serif" font-size="10.00" fill="#000000">FormatHandling::FormatManager</text>
<text text-anchor="middle" x="276" y="-242.5" font-family="Helvetica,sans-Serif" font-size="10.00" fill="#000000">::getFileFormatName</text>
</a>
</g>
</g>
<!-- Node30&#45;&gt;Node31 -->
<g id="edge1" class="edge">
<title>Node30&#45;&gt;Node31</title>
<path fill="none" stroke="#191970" d="M132.5022,-199.9829C163.9749,-211.0626 203.4941,-224.975 233.0873,-235.393"/>
<polygon fill="#191970" stroke="#191970" points="133.6079,-196.6617 123.013,-196.6423 131.2834,-203.2645 133.6079,-196.6617"/>
</g>
<!-- Node40 -->
<g id="node11" class="node">
<title>Node40</title>
<g id="a_node11"><a xlink:href="class_format_handling_1_1_format_manager.html#a057615a4fa5e9644a81540ba526725a6" target="_top" xlink:title="Function that loads an alignment given a file path. It automatically detects the format of the file...">
<polygon fill="#ffffff" stroke="#000000" points="196,-120.5 196,-150.5 356,-150.5 356,-120.5 196,-120.5"/>
<text text-anchor="start" x="204" y="-138.5" font-family="Helvetica,sans-Serif" font-size="10.00" fill="#000000">FormatHandling::FormatManager</text>
<text text-anchor="middle" x="276" y="-127.5" font-family="Helvetica,sans-Serif" font-size="10.00" fill="#000000">::loadAlignment</text>
</a>
</g>
</g>
<!-- Node30&#45;&gt;Node40 -->
<g id="edge11" class="edge">
<title>Node30&#45;&gt;Node40</title>
<path fill="none" stroke="#191970" d="M154.0236,-164.1271C173.1088,-159.6479 193.4866,-154.8654 212.013,-150.5174"/>
<polygon fill="#191970" stroke="#191970" points="153.1135,-160.7455 144.1777,-166.4379 154.7129,-167.5604 153.1135,-160.7455"/>
</g>
<!-- Node32 -->
<g id="node3" class="node">
<title>Node32</title>
<g id="a_node3"><a xlink:href="classtrim_al_manager.html#af7c3b97a17c2f5750f9481cc60c17616" target="_top" xlink:title="Method to check if an output format has been given. If no output format has been given, it will use the inFile format. ">
<polygon fill="#ffffff" stroke="#000000" points="417.5,-301.5 417.5,-331.5 529.5,-331.5 529.5,-301.5 417.5,-301.5"/>
<text text-anchor="start" x="425.5" y="-319.5" font-family="Helvetica,sans-Serif" font-size="10.00" fill="#000000">trimAlManager::check</text>
<text text-anchor="middle" x="473.5" y="-308.5" font-family="Helvetica,sans-Serif" font-size="10.00" fill="#000000">_output_format</text>
</a>
</g>
</g>
<!-- Node31&#45;&gt;Node32 -->
<g id="edge2" class="edge">
<title>Node31&#45;&gt;Node32</title>
<path fill="none" stroke="#191970" d="M331.0079,-268.8824C361.7027,-279.1399 399.464,-291.7589 428.4003,-301.4287"/>
<polygon fill="#191970" stroke="#191970" points="331.9043,-265.4917 321.3105,-265.6417 329.6856,-272.1308 331.9043,-265.4917"/>
</g>
<!-- Node36 -->
<g id="node7" class="node">
<title>Node36</title>
<g id="a_node7"><a xlink:href="read_al_main_8cpp.html#a0ddf1224851353fc92bfbff6f499fa97" target="_top" xlink:title="main">
<polygon fill="#ffffff" stroke="#000000" points="658,-170 658,-189 696,-189 696,-170 658,-170"/>
<text text-anchor="middle" x="677" y="-177" font-family="Helvetica,sans-Serif" font-size="10.00" fill="#000000">main</text>
</a>
</g>
</g>
<!-- Node31&#45;&gt;Node36 -->
<g id="edge6" class="edge">
<title>Node31&#45;&gt;Node36</title>
<path fill="none" stroke="#191970" d="M341.3171,-267.6183C400.4932,-279.4571 488.3647,-287.6328 555,-253.5 579.3717,-241.016 568.5471,-219.1747 591,-203.5 611.0821,-189.4804 639.1345,-183.6241 657.6692,-181.195"/>
<polygon fill="#191970" stroke="#191970" points="341.8491,-264.154 331.3446,-265.5343 340.4172,-271.0059 341.8491,-264.154"/>
</g>
<!-- Node37 -->
<g id="node8" class="node">
<title>Node37</title>
<g id="a_node8"><a xlink:href="classstatistics_1_1_consistency.html#a8f7ddf54c5be583916b983ede82d5b88" target="_top" xlink:title="Method to compare a set of MSA, all containing the same sequences and residues. The number of residue...">
<polygon fill="#ffffff" stroke="#000000" points="415,-213.5 415,-243.5 532,-243.5 532,-213.5 415,-213.5"/>
<text text-anchor="start" x="423" y="-231.5" font-family="Helvetica,sans-Serif" font-size="10.00" fill="#000000">statistics::Consistency</text>
<text text-anchor="middle" x="473.5" y="-220.5" font-family="Helvetica,sans-Serif" font-size="10.00" fill="#000000">::perform</text>
</a>
</g>
</g>
<!-- Node31&#45;&gt;Node37 -->
<g id="edge7" class="edge">
<title>Node31&#45;&gt;Node37</title>
<path fill="none" stroke="#191970" d="M366.2652,-240.4451C382.7706,-238.6066 399.5945,-236.7325 414.8742,-235.0305"/>
<polygon fill="#191970" stroke="#191970" points="365.5971,-236.9978 356.0461,-241.5835 366.3721,-243.9548 365.5971,-236.9978"/>
</g>
<!-- Node33 -->
<g id="node4" class="node">
<title>Node33</title>
<g id="a_node4"><a xlink:href="classtrim_al_manager.html#a3f325b806727751394adb829d97b35f1" target="_top" xlink:title="Method that checks dependencies between arguments. Take in mind that dependencies may be between mult...">
<polygon fill="#ffffff" stroke="#000000" points="621,-276.5 621,-306.5 733,-306.5 733,-276.5 621,-276.5"/>
<text text-anchor="start" x="629" y="-294.5" font-family="Helvetica,sans-Serif" font-size="10.00" fill="#000000">trimAlManager::check</text>
<text text-anchor="middle" x="677" y="-283.5" font-family="Helvetica,sans-Serif" font-size="10.00" fill="#000000">_arguments_needs</text>
</a>
</g>
</g>
<!-- Node32&#45;&gt;Node33 -->
<g id="edge3" class="edge">
<title>Node32&#45;&gt;Node33</title>
<path fill="none" stroke="#191970" d="M539.84,-308.3501C565.9584,-305.1415 595.6333,-301.4959 620.6843,-298.4184"/>
<polygon fill="#191970" stroke="#191970" points="539.1446,-304.9092 529.646,-309.6025 539.9981,-311.8569 539.1446,-304.9092"/>
</g>
<!-- Node34 -->
<g id="node5" class="node">
<title>Node34</title>
<g id="a_node5"><a xlink:href="classtrim_al_manager.html#a748b08a1ec5cd214de804ed0d4234a6e" target="_top" xlink:title="Method to process the information obtained by trimAlManager::parseArguments It checks for argument in...">
<polygon fill="#ffffff" stroke="#000000" points="799,-207 799,-226 966,-226 966,-207 799,-207"/>
<text text-anchor="middle" x="882.5" y="-214" font-family="Helvetica,sans-Serif" font-size="10.00" fill="#000000">trimAlManager::processArguments</text>
</a>
</g>
</g>
<!-- Node33&#45;&gt;Node34 -->
<g id="edge4" class="edge">
<title>Node33&#45;&gt;Node34</title>
<path fill="none" stroke="#191970" d="M728.0726,-272.8604C768.7702,-258.0072 824.0913,-237.8171 856.2809,-226.069"/>
<polygon fill="#191970" stroke="#191970" points="726.7799,-269.6063 718.586,-276.3226 729.1799,-276.182 726.7799,-269.6063"/>
</g>
<!-- Node35 -->
<g id="node6" class="node">
<title>Node35</title>
<g id="a_node6"><a xlink:href="trim_al_main_8cpp.html#a0ddf1224851353fc92bfbff6f499fa97" target="_top" xlink:title="main">
<polygon fill="#ffffff" stroke="#000000" points="1002,-113 1002,-132 1040,-132 1040,-113 1002,-113"/>
<text text-anchor="middle" x="1021" y="-120" font-family="Helvetica,sans-Serif" font-size="10.00" fill="#000000">main</text>
</a>
</g>
</g>
<!-- Node34&#45;&gt;Node35 -->
<g id="edge5" class="edge">
<title>Node34&#45;&gt;Node35</title>
<path fill="none" stroke="#191970" d="M905.1409,-201.1336C933.9785,-181.5615 982.9414,-148.3304 1006.9205,-132.0557"/>
<polygon fill="#191970" stroke="#191970" points="902.8511,-198.4577 896.5423,-206.9695 906.7821,-204.2497 902.8511,-198.4577"/>
</g>
<!-- Node38 -->
<g id="node9" class="node">
<title>Node38</title>
<g id="a_node9"><a xlink:href="classtrim_al_manager.html#a12b7cef964ef258fe7621da44867c51f" target="_top" xlink:title="Method to check if multiple files comparison has been set correctly. It also perform some calculation...">
<polygon fill="#ffffff" stroke="#000000" points="591,-213 591,-232 763,-232 763,-213 591,-213"/>
<text text-anchor="middle" x="677" y="-220" font-family="Helvetica,sans-Serif" font-size="10.00" fill="#000000">trimAlManager::performCompareset</text>
</a>
</g>
</g>
<!-- Node37&#45;&gt;Node38 -->
<g id="edge8" class="edge">
<title>Node37&#45;&gt;Node38</title>
<path fill="none" stroke="#191970" d="M542.1657,-226.4755C557.7848,-226.0149 574.5711,-225.52 590.8152,-225.0411"/>
<polygon fill="#191970" stroke="#191970" points="541.9801,-222.9793 532.0876,-226.7726 542.1865,-229.9763 541.9801,-222.9793"/>
</g>
<!-- Node39 -->
<g id="node10" class="node">
<title>Node39</title>
<g id="a_node10"><a xlink:href="classtrim_al_manager.html#af3b0625b6bcc6df5978e63530a5956e6" target="_top" xlink:title="Method to parse arguments into usable structure in trimal. ">
<polygon fill="#ffffff" stroke="#000000" points="804,-94 804,-113 961,-113 961,-94 804,-94"/>
<text text-anchor="middle" x="882.5" y="-101" font-family="Helvetica,sans-Serif" font-size="10.00" fill="#000000">trimAlManager::parseArguments</text>
</a>
</g>
</g>
<!-- Node38&#45;&gt;Node39 -->
<g id="edge9" class="edge">
<title>Node38&#45;&gt;Node39</title>
<path fill="none" stroke="#191970" d="M734.0817,-210.0409C743.9875,-206.9111 753.991,-203.0979 763,-198.5 809.0332,-175.006 854.2735,-132.1832 873.2196,-113.1094"/>
<polygon fill="#191970" stroke="#191970" points="732.847,-206.7561 724.249,-212.9467 734.8309,-213.4691 732.847,-206.7561"/>
</g>
<!-- Node39&#45;&gt;Node35 -->
<g id="edge10" class="edge">
<title>Node39&#45;&gt;Node35</title>
<path fill="none" stroke="#191970" d="M962.4243,-114.4643C977.1531,-116.4849 991.2219,-118.4149 1001.8785,-119.8768"/>
<polygon fill="#191970" stroke="#191970" points="962.5387,-110.9473 952.1558,-113.0557 961.5873,-117.8824 962.5387,-110.9473"/>
</g>
<!-- Node40&#45;&gt;Node36 -->
<g id="edge14" class="edge">
<title>Node40&#45;&gt;Node36</title>
<path fill="none" stroke="#191970" d="M366.2704,-139.1602C421.0372,-142.0781 492.2412,-147.1098 555,-155.5 591.5874,-160.3914 633.7306,-169.4565 657.6827,-174.9371"/>
<polygon fill="#191970" stroke="#191970" points="366.4092,-135.6628 356.2412,-138.6396 366.0463,-142.6534 366.4092,-135.6628"/>
</g>
<!-- Node40&#45;&gt;Node37 -->
<g id="edge15" class="edge">
<title>Node40&#45;&gt;Node37</title>
<path fill="none" stroke="#191970" d="M306.3159,-156.4028C329.088,-171.3799 361.4751,-191.1786 392,-204.5 399.5705,-207.8038 407.7288,-210.8107 415.8555,-213.4924"/>
<polygon fill="#191970" stroke="#191970" points="308.0457,-153.3497 297.7825,-150.7198 304.1656,-159.1759 308.0457,-153.3497"/>
</g>
<!-- Node41 -->
<g id="node12" class="node">
<title>Node41</title>
<g id="a_node12"><a xlink:href="class_format_handling_1_1_format_manager.html#a853678a6e07f67da8cf7b77795b297be" target="_top" xlink:title="Function that takes multiple files, loads them and saves in a cumulus of formats, using an outPattern...">
<polygon fill="#ffffff" stroke="#000000" points="392,-164.5 392,-194.5 555,-194.5 555,-164.5 392,-164.5"/>
<text text-anchor="start" x="400" y="-182.5" font-family="Helvetica,sans-Serif" font-size="10.00" fill="#000000">FormatHandling::FormatManager</text>
<text text-anchor="middle" x="473.5" y="-171.5" font-family="Helvetica,sans-Serif" font-size="10.00" fill="#000000">::loadAndSaveMultipleAlignments</text>
</a>
</g>
</g>
<!-- Node40&#45;&gt;Node41 -->
<g id="edge12" class="edge">
<title>Node40&#45;&gt;Node41</title>
<path fill="none" stroke="#191970" d="M353.5117,-152.7684C370.8681,-156.6352 389.1434,-160.7066 406.0528,-164.4738"/>
<polygon fill="#191970" stroke="#191970" points="353.9377,-149.2776 343.4159,-150.5192 352.4155,-156.1101 353.9377,-149.2776"/>
</g>
<!-- Node42 -->
<g id="node13" class="node">
<title>Node42</title>
<g id="a_node13"><a xlink:href="classtrim_al_manager.html#a9580aa82de8aba6794647a36c0416a33" target="_top" xlink:title="Method to parse the input file argument. ">
<polygon fill="#ffffff" stroke="#000000" points="607.5,-94 607.5,-113 746.5,-113 746.5,-94 607.5,-94"/>
<text text-anchor="middle" x="677" y="-101" font-family="Helvetica,sans-Serif" font-size="10.00" fill="#000000">trimAlManager::in_argument</text>
</a>
</g>
</g>
<!-- Node40&#45;&gt;Node42 -->
<g id="edge16" class="edge">
<title>Node40&#45;&gt;Node42</title>
<path fill="none" stroke="#191970" d="M366.2953,-124.0944C374.9757,-123.1509 383.6517,-122.2668 392,-121.5 465.3144,-114.7662 549.4724,-109.7878 607.2242,-106.7942"/>
<polygon fill="#191970" stroke="#191970" points="365.6744,-120.6417 356.1226,-125.2258 366.4483,-127.5988 365.6744,-120.6417"/>
</g>
<!-- Node43 -->
<g id="node14" class="node">
<title>Node43</title>
<g id="a_node14"><a xlink:href="classtrim_al_manager.html#a63dad1ad106b0fa09351cd5981b37aeb" target="_top" xlink:title="Method to parse the force select argument. ">
<polygon fill="#ffffff" stroke="#000000" points="623.5,-44.5 623.5,-74.5 730.5,-74.5 730.5,-44.5 623.5,-44.5"/>
<text text-anchor="start" x="631.5" y="-62.5" font-family="Helvetica,sans-Serif" font-size="10.00" fill="#000000">trimAlManager::force</text>
<text text-anchor="middle" x="677" y="-51.5" font-family="Helvetica,sans-Serif" font-size="10.00" fill="#000000">_select_argument</text>
</a>
</g>
</g>
<!-- Node40&#45;&gt;Node43 -->
<g id="edge18" class="edge">
<title>Node40&#45;&gt;Node43</title>
<path fill="none" stroke="#191970" d="M339.5611,-117.925C356.525,-113.5465 374.8958,-109.084 392,-105.5 472.081,-88.72 565.9242,-74.6349 623.4121,-66.6313"/>
<polygon fill="#191970" stroke="#191970" points="338.5467,-114.5725 329.7557,-120.486 340.3157,-121.3453 338.5467,-114.5725"/>
</g>
<!-- Node44 -->
<g id="node15" class="node">
<title>Node44</title>
<g id="a_node15"><a xlink:href="classtrim_al_manager.html#ae49bc2cb7f90419296da65a23df39c8d" target="_top" xlink:title="Method to parse the backtranslation argument. ">
<polygon fill="#ffffff" stroke="#000000" points="420,-.5 420,-30.5 527,-30.5 527,-.5 420,-.5"/>
<text text-anchor="start" x="428" y="-18.5" font-family="Helvetica,sans-Serif" font-size="10.00" fill="#000000">trimAlManager::back</text>
<text text-anchor="middle" x="473.5" y="-7.5" font-family="Helvetica,sans-Serif" font-size="10.00" fill="#000000">_trans_argument</text>
</a>
</g>
</g>
<!-- Node40&#45;&gt;Node44 -->
<g id="edge20" class="edge">
<title>Node40&#45;&gt;Node44</title>
<path fill="none" stroke="#191970" d="M299.7993,-113.4616C322.2253,-93.5991 357.4544,-64.6549 392,-45.5 402.2851,-39.7971 413.8688,-34.7843 425.0048,-30.5706"/>
<polygon fill="#191970" stroke="#191970" points="297.2466,-111.0497 292.1414,-120.3335 301.9217,-116.2596 297.2466,-111.0497"/>
</g>
<!-- Node41&#45;&gt;Node36 -->
<g id="edge13" class="edge">
<title>Node41&#45;&gt;Node36</title>
<path fill="none" stroke="#191970" d="M565.3089,-179.5C599.9934,-179.5 636.2335,-179.5 657.7005,-179.5"/>
<polygon fill="#191970" stroke="#191970" points="565.0987,-176.0001 555.0987,-179.5 565.0986,-183.0001 565.0987,-176.0001"/>
</g>
<!-- Node42&#45;&gt;Node39 -->
<g id="edge17" class="edge">
<title>Node42&#45;&gt;Node39</title>
<path fill="none" stroke="#191970" d="M756.6284,-103.5C772.1164,-103.5 788.3435,-103.5 803.8012,-103.5"/>
<polygon fill="#191970" stroke="#191970" points="756.573,-100.0001 746.5729,-103.5 756.5729,-107.0001 756.573,-100.0001"/>
</g>
<!-- Node43&#45;&gt;Node39 -->
<g id="edge19" class="edge">
<title>Node43&#45;&gt;Node39</title>
<path fill="none" stroke="#191970" d="M740.7543,-73.1506C772.3285,-79.911 809.6713,-87.9065 838.0999,-93.9934"/>
<polygon fill="#191970" stroke="#191970" points="741.2355,-69.6743 730.7243,-71.003 739.7698,-76.5192 741.2355,-69.6743"/>
</g>
<!-- Node44&#45;&gt;Node39 -->
<g id="edge21" class="edge">
<title>Node44&#45;&gt;Node39</title>
<path fill="none" stroke="#191970" d="M537.1191,-11.4883C596.7828,-9.6218 687.8212,-11.6895 763,-34.5 805.869,-47.5072 849.8724,-78.329 870.4787,-93.999"/>
<polygon fill="#191970" stroke="#191970" points="536.9563,-7.9918 527.0884,-11.8485 537.2076,-14.9873 536.9563,-7.9918"/>
</g>
</g>
</svg>
