<?xml version="1.0" encoding="UTF-8" standalone="no"?>
<!DOCTYPE svg PUBLIC "-//W3C//DTD SVG 1.1//EN"
 "http://www.w3.org/Graphics/SVG/1.1/DTD/svg11.dtd">
<!-- Generated by graphviz version 2.38.0 (20140413.2041)
 -->
<!-- Title: statisticsConsistency::forceComparison Pages: 1 -->
<svg width="309pt" height="318pt"
 viewBox="0.00 0.00 309.00 318.00" xmlns="http://www.w3.org/2000/svg" xmlns:xlink="http://www.w3.org/1999/xlink">
<g id="graph0" class="graph" transform="scale(1 1) rotate(0) translate(4 314)">
<title>statisticsConsistency::forceComparison</title>
<polygon fill="white" stroke="none" points="-4,4 -4,-314 305,-314 305,4 -4,4"/>
<!-- Node12 -->
<g id="node1" class="node"><title>Node12</title>
<polygon fill="#bfbfbf" stroke="black" points="0,-143 0,-173 111,-173 111,-143 0,-143"/>
<text text-anchor="start" x="8" y="-161" font-family="Helvetica,sans-Serif" font-size="10.00">statisticsConsistency</text>
<text text-anchor="middle" x="55.5" y="-150" font-family="Helvetica,sans-Serif" font-size="10.00">::forceComparison</text>
</g>
<!-- Node13 -->
<g id="node2" class="node"><title>Node13</title>
<g id="a_node2"><a xlink:href="classsequences_matrix.html#a2954781bf8e8fd338714246fd10bae88" target="_top" xlink:title="Method to get a column out of the matrix. ">
<polygon fill="white" stroke="black" points="152,-290.5 152,-309.5 296,-309.5 296,-290.5 152,-290.5"/>
<text text-anchor="middle" x="224" y="-297.5" font-family="Helvetica,sans-Serif" font-size="10.00">sequencesMatrix::getColumn</text>
</a>
</g>
</g>
<!-- Node12&#45;&gt;Node13 -->
<g id="edge1" class="edge"><title>Node12&#45;&gt;Node13</title>
<path fill="none" stroke="midnightblue" d="M63.3005,-173.131C75.8889,-199.35 105.384,-253.093 147,-281 149.97,-282.992 153.133,-284.775 156.416,-286.372"/>
<polygon fill="midnightblue" stroke="midnightblue" points="155.356,-289.723 165.93,-290.394 158.082,-283.276 155.356,-289.723"/>
</g>
<!-- Node14 -->
<g id="node3" class="node"><title>Node14</title>
<g id="a_node3"><a xlink:href="classnew_alignment.html#ad08d05c08eb66665defed4a16ab08e91" target="_top" xlink:title="Residues number getter. It counts gaps as residue. ">
<polygon fill="white" stroke="black" points="148,-252.5 148,-271.5 300,-271.5 300,-252.5 148,-252.5"/>
<text text-anchor="middle" x="224" y="-259.5" font-family="Helvetica,sans-Serif" font-size="10.00">newAlignment::getNumAminos</text>
</a>
</g>
</g>
<!-- Node12&#45;&gt;Node14 -->
<g id="edge2" class="edge"><title>Node12&#45;&gt;Node14</title>
<path fill="none" stroke="midnightblue" d="M68.2737,-173.046C84.0998,-192.223 114.077,-225.034 147,-243 151.182,-245.282 155.643,-247.296 160.228,-249.071"/>
<polygon fill="midnightblue" stroke="midnightblue" points="159.168,-252.408 169.763,-252.391 161.47,-245.797 159.168,-252.408"/>
</g>
<!-- Node15 -->
<g id="node4" class="node"><title>Node15</title>
<g id="a_node4"><a xlink:href="classnew_alignment.html#acfd820148c267a3d698a39758ecf190d" target="_top" xlink:title="Number of sequences getter. ">
<polygon fill="white" stroke="black" points="147,-214.5 147,-233.5 301,-233.5 301,-214.5 147,-214.5"/>
<text text-anchor="middle" x="224" y="-221.5" font-family="Helvetica,sans-Serif" font-size="10.00">newAlignment::getNumSpecies</text>
</a>
</g>
</g>
<!-- Node12&#45;&gt;Node15 -->
<g id="edge3" class="edge"><title>Node12&#45;&gt;Node15</title>
<path fill="none" stroke="midnightblue" d="M81.5099,-173.017C99.2828,-183.178 123.986,-196.285 147,-205 153.495,-207.459 160.422,-209.694 167.351,-211.695"/>
<polygon fill="midnightblue" stroke="midnightblue" points="166.885,-215.196 177.455,-214.458 168.733,-208.444 166.885,-215.196"/>
</g>
<!-- Node16 -->
<g id="node5" class="node"><title>Node16</title>
<g id="a_node5"><a xlink:href="classnew_alignment.html#ac3d5c9670904bba45707746640aac382" target="_top" xlink:title="Method to map two sets of sequences, own and external. The method accepts a vector of names...">
<polygon fill="white" stroke="black" points="153.5,-165 153.5,-195 294.5,-195 294.5,-165 153.5,-165"/>
<text text-anchor="start" x="161.5" y="-183" font-family="Helvetica,sans-Serif" font-size="10.00">newAlignment::getSequence</text>
<text text-anchor="middle" x="224" y="-172" font-family="Helvetica,sans-Serif" font-size="10.00">NameOrder</text>
</a>
</g>
</g>
<!-- Node12&#45;&gt;Node16 -->
<g id="edge4" class="edge"><title>Node12&#45;&gt;Node16</title>
<path fill="none" stroke="midnightblue" d="M111.018,-165.204C121.402,-166.576 132.465,-168.037 143.443,-169.488"/>
<polygon fill="midnightblue" stroke="midnightblue" points="143.106,-172.974 153.478,-170.814 144.023,-166.034 143.106,-172.974"/>
</g>
<!-- Node17 -->
<g id="node6" class="node"><title>Node17</title>
<g id="a_node6"><a xlink:href="classnew_alignment.html#a0db3e76f82a71c7a2fe5b9279f8fa310" target="_top" xlink:title="Getter for the sequences names. ">
<polygon fill="white" stroke="black" points="151,-126.5 151,-145.5 297,-145.5 297,-126.5 151,-126.5"/>
<text text-anchor="middle" x="224" y="-133.5" font-family="Helvetica,sans-Serif" font-size="10.00">newAlignment::getSequences</text>
</a>
</g>
</g>
<!-- Node12&#45;&gt;Node17 -->
<g id="edge5" class="edge"><title>Node12&#45;&gt;Node17</title>
<path fill="none" stroke="midnightblue" d="M111.018,-150.796C120.621,-149.528 130.805,-148.182 140.965,-146.84"/>
<polygon fill="midnightblue" stroke="midnightblue" points="141.639,-150.281 151.094,-145.501 140.722,-143.341 141.639,-150.281"/>
</g>
<!-- Node18 -->
<g id="node7" class="node"><title>Node18</title>
<g id="a_node7"><a xlink:href="classutils.html#aac322cd1761fddedec8a5792e358eb32" target="_top" xlink:title="Vector initialization. ">
<polygon fill="white" stroke="black" points="186,-88.5 186,-107.5 262,-107.5 262,-88.5 186,-88.5"/>
<text text-anchor="middle" x="224" y="-95.5" font-family="Helvetica,sans-Serif" font-size="10.00">utils::initlVect</text>
</a>
</g>
</g>
<!-- Node12&#45;&gt;Node18 -->
<g id="edge6" class="edge"><title>Node12&#45;&gt;Node18</title>
<path fill="none" stroke="midnightblue" d="M86.1125,-142.947C103.525,-134.513 126.15,-124.263 147,-117 156.246,-113.779 166.303,-110.867 175.982,-108.345"/>
<polygon fill="midnightblue" stroke="midnightblue" points="177.035,-111.69 185.883,-105.862 175.332,-104.9 177.035,-111.69"/>
</g>
<!-- Node19 -->
<g id="node8" class="node"><title>Node19</title>
<g id="a_node8"><a xlink:href="class____internal_report_1_1____report_system.html#acd358cbc59625c6e2f47e0b5f825400d" target="_top" xlink:title="Method to report an Error. &#160;It will be displayed if Level &#160;is equal or higher to VerboseLevel::ERROR...">
<polygon fill="white" stroke="black" points="166,-39 166,-69 282,-69 282,-39 166,-39"/>
<text text-anchor="start" x="174" y="-57" font-family="Helvetica,sans-Serif" font-size="10.00">__internalReport::</text>
<text text-anchor="middle" x="224" y="-46" font-family="Helvetica,sans-Serif" font-size="10.00">__reportSystem::report</text>
</a>
</g>
</g>
<!-- Node12&#45;&gt;Node19 -->
<g id="edge7" class="edge"><title>Node12&#45;&gt;Node19</title>
<path fill="none" stroke="midnightblue" d="M70.1405,-142.873C86.7425,-125.285 116.373,-96.4437 147,-79 150.838,-76.8142 154.895,-74.7857 159.057,-72.9092"/>
<polygon fill="midnightblue" stroke="midnightblue" points="160.421,-76.1324 168.294,-69.0417 157.718,-69.6756 160.421,-76.1324"/>
</g>
<!-- Node20 -->
<g id="node9" class="node"><title>Node20</title>
<g id="a_node9"><a xlink:href="classsequences_matrix.html#a8b3882d2dcc73938707486c189908abf" target="_top" xlink:title="Method that reorders the stored sequences with a given order list. ">
<polygon fill="white" stroke="black" points="157,-0.5 157,-19.5 291,-19.5 291,-0.5 157,-0.5"/>
<text text-anchor="middle" x="224" y="-7.5" font-family="Helvetica,sans-Serif" font-size="10.00">sequencesMatrix::setOrder</text>
</a>
</g>
</g>
<!-- Node12&#45;&gt;Node20 -->
<g id="edge8" class="edge"><title>Node12&#45;&gt;Node20</title>
<path fill="none" stroke="midnightblue" d="M62.9713,-142.739C75.239,-115.702 104.508,-59.4677 147,-30 150.532,-27.5508 154.345,-25.4016 158.317,-23.5155"/>
<polygon fill="midnightblue" stroke="midnightblue" points="159.92,-26.6399 167.815,-19.5751 157.237,-20.1742 159.92,-26.6399"/>
</g>
</g>
</svg>
