<?xml version="1.0" encoding="UTF-8" standalone="no"?>
<!DOCTYPE svg PUBLIC "-//W3C//DTD SVG 1.1//EN"
 "http://www.w3.org/Graphics/SVG/1.1/DTD/svg11.dtd">
<!-- Generated by graphviz version 2.38.0 (20140413.2041)
 -->
<!-- Title: Catch::UnaryExpr&lt; LhsT &gt; Pages: 1 -->
<svg width="206pt" height="95pt"
 viewBox="0.00 0.00 205.50 95.00" xmlns="http://www.w3.org/2000/svg" xmlns:xlink="http://www.w3.org/1999/xlink">
<g id="graph0" class="graph" transform="scale(1 1) rotate(0) translate(4 91)">
<title>Catch::UnaryExpr&lt; LhsT &gt;</title>
<polygon fill="white" stroke="none" points="-4,4 -4,-91 201.5,-91 201.5,4 -4,4"/>
<!-- Node2 -->
<g id="node1" class="node"><title>Node2</title>
<polygon fill="#bfbfbf" stroke="black" points="57,-0.5 57,-19.5 192,-19.5 192,-0.5 57,-0.5"/>
<text text-anchor="middle" x="124.5" y="-7.5" font-family="Helvetica,sans-Serif" font-size="10.00">Catch::UnaryExpr&lt; LhsT &gt;</text>
</g>
<!-- Node3 -->
<g id="node2" class="node"><title>Node3</title>
<g id="a_node2"><a xlink:href="struct_catch_1_1_i_transient_expression.html" target="_top" xlink:title="Catch::ITransientExpression">
<polygon fill="white" stroke="black" points="0,-67.5 0,-86.5 141,-86.5 141,-67.5 0,-67.5"/>
<text text-anchor="middle" x="70.5" y="-74.5" font-family="Helvetica,sans-Serif" font-size="10.00">Catch::ITransientExpression</text>
</a>
</g>
</g>
<!-- Node3&#45;&gt;Node2 -->
<g id="edge1" class="edge"><title>Node3&#45;&gt;Node2</title>
<path fill="none" stroke="midnightblue" d="M84.3984,-59.2705C94.9269,-46.5972 108.964,-29.701 117.333,-19.6273"/>
<polygon fill="midnightblue" stroke="midnightblue" points="81.4807,-57.3053 77.7827,-67.2338 86.8651,-61.7785 81.4807,-57.3053"/>
</g>
<!-- Node4 -->
<g id="node3" class="node"><title>Node4</title>
<polygon fill="white" stroke="#bfbfbf" points="159.5,-67.5 159.5,-86.5 197.5,-86.5 197.5,-67.5 159.5,-67.5"/>
<text text-anchor="middle" x="178.5" y="-74.5" font-family="Helvetica,sans-Serif" font-size="10.00">LhsT</text>
</g>
<!-- Node4&#45;&gt;Node2 -->
<g id="edge2" class="edge"><title>Node4&#45;&gt;Node2</title>
<path fill="none" stroke="#9a32cd" stroke-dasharray="5,2" d="M164.602,-59.2705C154.073,-46.5972 140.036,-29.701 131.667,-19.6273"/>
<polygon fill="#9a32cd" stroke="#9a32cd" points="162.135,-61.7785 171.217,-67.2338 167.519,-57.3053 162.135,-61.7785"/>
<text text-anchor="middle" x="170.5" y="-41" font-family="Helvetica,sans-Serif" font-size="10.00"> m_lhs</text>
</g>
</g>
</svg>
