<?xml version="1.0" encoding="UTF-8" standalone="no"?>
<!DOCTYPE svg PUBLIC "-//W3C//DTD SVG 1.1//EN"
 "http://www.w3.org/Graphics/SVG/1.1/DTD/svg11.dtd">
<!-- Generated by graphviz version 2.40.1 (20161225.0304)
 -->
<!-- Title: statistics::Gaps::isDefinedWindow Pages: 1 -->
<svg width="1991pt" height="666pt"
 viewBox="0.00 0.00 1991.00 665.50" xmlns="http://www.w3.org/2000/svg" xmlns:xlink="http://www.w3.org/1999/xlink">
<g id="graph0" class="graph" transform="scale(1 1) rotate(0) translate(4 661.5)">
<title>statistics::Gaps::isDefinedWindow</title>
<polygon fill="#ffffff" stroke="transparent" points="-4,4 -4,-661.5 1987,-661.5 1987,4 -4,4"/>
<!-- Node197 -->
<g id="node1" class="node">
<title>Node197</title>
<polygon fill="#bfbfbf" stroke="#000000" points="0,-177.5 0,-207.5 133,-207.5 133,-177.5 0,-177.5"/>
<text text-anchor="start" x="8" y="-195.5" font-family="Helvetica,sans-Serif" font-size="10.00" fill="#000000">statistics::Gaps::isDefined</text>
<text text-anchor="middle" x="66.5" y="-184.5" font-family="Helvetica,sans-Serif" font-size="10.00" fill="#000000">Window</text>
</g>
<!-- Node198 -->
<g id="node2" class="node">
<title>Node198</title>
<g id="a_node2"><a xlink:href="classstatistics_1_1_gaps.html#ab5b60db326475f8adc68b130e22b3963" target="_top" xlink:title="statistics::Gaps::getGaps\lWindow">
<polygon fill="#ffffff" stroke="#000000" points="169,-177.5 169,-207.5 297,-207.5 297,-177.5 169,-177.5"/>
<text text-anchor="start" x="177" y="-195.5" font-family="Helvetica,sans-Serif" font-size="10.00" fill="#000000">statistics::Gaps::getGaps</text>
<text text-anchor="middle" x="233" y="-184.5" font-family="Helvetica,sans-Serif" font-size="10.00" fill="#000000">Window</text>
</a>
</g>
</g>
<!-- Node197&#45;&gt;Node198 -->
<g id="edge1" class="edge">
<title>Node197&#45;&gt;Node198</title>
<path fill="none" stroke="#191970" d="M143.2727,-192.5C151.8547,-192.5 160.5292,-192.5 168.9282,-192.5"/>
<polygon fill="#191970" stroke="#191970" points="143.2626,-189.0001 133.2626,-192.5 143.2625,-196.0001 143.2626,-189.0001"/>
</g>
<!-- Node199 -->
<g id="node3" class="node">
<title>Node199</title>
<g id="a_node3"><a xlink:href="class_alignment.html#a3754dfadea173918f5e85b9eb4c3ad8a" target="_top" xlink:title="Method to report the trimming results in HTML. Outputs an HTML file that shows visually what has been...">
<polygon fill="#ffffff" stroke="#000000" points="850,-638 850,-657 1027,-657 1027,-638 850,-638"/>
<text text-anchor="middle" x="938.5" y="-645" font-family="Helvetica,sans-Serif" font-size="10.00" fill="#000000">Alignment::alignmentSummaryHTML</text>
</a>
</g>
</g>
<!-- Node198&#45;&gt;Node199 -->
<g id="edge2" class="edge">
<title>Node198&#45;&gt;Node199</title>
<path fill="none" stroke="#191970" d="M236.8704,-217.739C245.6427,-267.2357 271.2797,-378.1617 333,-446.5 468.1154,-596.1034 717.1528,-634.5813 849.8376,-644.326"/>
<polygon fill="#191970" stroke="#191970" points="240.2761,-216.8862 235.1612,-207.6078 233.3736,-218.0507 240.2761,-216.8862"/>
</g>
<!-- Node204 -->
<g id="node8" class="node">
<title>Node204</title>
<g id="a_node8"><a xlink:href="class_alignment.html#ac4196c026e0f482eaccf9976f82f72e3" target="_top" xlink:title="Method to report the trimming results in SVG. Outputs a SVG file that shows visually what has been do...">
<polygon fill="#ffffff" stroke="#000000" points="853,-600 853,-619 1024,-619 1024,-600 853,-600"/>
<text text-anchor="middle" x="938.5" y="-607" font-family="Helvetica,sans-Serif" font-size="10.00" fill="#000000">Alignment::alignmentSummarySVG</text>
</a>
</g>
</g>
<!-- Node198&#45;&gt;Node204 -->
<g id="edge7" class="edge">
<title>Node198&#45;&gt;Node204</title>
<path fill="none" stroke="#191970" d="M240.4465,-217.1217C253.4583,-256.5358 283.7402,-334.2558 333,-382.5 480.4798,-526.9393 728.4788,-580.9974 856.514,-599.9928"/>
<polygon fill="#191970" stroke="#191970" points="243.755,-215.9768 237.3707,-207.5215 237.0887,-218.1125 243.755,-215.9768"/>
</g>
<!-- Node205 -->
<g id="node9" class="node">
<title>Node205</title>
<g id="a_node9"><a xlink:href="classstatistics_1_1_similarity.html#ae69ec0e79912ae23c8cfe97358c4794d" target="_top" xlink:title="Method to calculate the similarity values of a alignment matrix. ">
<polygon fill="#ffffff" stroke="#000000" points="354.5,-283.5 354.5,-313.5 457.5,-313.5 457.5,-283.5 354.5,-283.5"/>
<text text-anchor="start" x="362.5" y="-301.5" font-family="Helvetica,sans-Serif" font-size="10.00" fill="#000000">statistics::Similarity</text>
<text text-anchor="middle" x="406" y="-290.5" font-family="Helvetica,sans-Serif" font-size="10.00" fill="#000000">::calculateVectors</text>
</a>
</g>
</g>
<!-- Node198&#45;&gt;Node205 -->
<g id="edge9" class="edge">
<title>Node198&#45;&gt;Node205</title>
<path fill="none" stroke="#191970" d="M266.3539,-212.9365C299.9766,-233.5377 351.0911,-264.8564 381.2593,-283.341"/>
<polygon fill="#191970" stroke="#191970" points="268.142,-209.9274 257.7867,-207.6872 264.4848,-215.8961 268.142,-209.9274"/>
</g>
<!-- Node210 -->
<g id="node14" class="node">
<title>Node210</title>
<g id="a_node14"><a xlink:href="class_cleaner.html#a4718e31c0183b5a98751d77479faacf0" target="_top" xlink:title="Method to trim an alignment based on the similarity and gaps distribution values. ...">
<polygon fill="#ffffff" stroke="#000000" points="1109.5,-360 1109.5,-379 1189.5,-379 1189.5,-360 1109.5,-360"/>
<text text-anchor="middle" x="1149.5" y="-367" font-family="Helvetica,sans-Serif" font-size="10.00" fill="#000000">Cleaner::clean</text>
</a>
</g>
</g>
<!-- Node198&#45;&gt;Node210 -->
<g id="edge39" class="edge">
<title>Node198&#45;&gt;Node210</title>
<path fill="none" stroke="#191970" d="M307.6004,-185.9656C376.8389,-180.4689 482.8024,-173.5 575,-173.5 575,-173.5 575,-173.5 742.5,-173.5 805.8631,-173.5 977.8769,-152.4775 1027,-192.5 1073.4788,-230.3681 1025.6948,-275.5682 1063,-322.5 1077.2507,-340.4281 1100.2826,-352.4651 1118.9983,-359.8662"/>
<polygon fill="#191970" stroke="#191970" points="306.9218,-182.5088 297.2346,-186.7994 307.483,-189.4863 306.9218,-182.5088"/>
</g>
<!-- Node211 -->
<g id="node15" class="node">
<title>Node211</title>
<g id="a_node15"><a xlink:href="class_cleaner.html#a6727a235afa29f08a50716f28fa5c8fc" target="_top" xlink:title="Method to clean an alignment. It carries out strict and strictplus. The method: ">
<polygon fill="#ffffff" stroke="#000000" points="867,-202 867,-221 1010,-221 1010,-202 867,-202"/>
<text text-anchor="middle" x="938.5" y="-209" font-family="Helvetica,sans-Serif" font-size="10.00" fill="#000000">Cleaner::cleanCombMethods</text>
</a>
</g>
</g>
<!-- Node198&#45;&gt;Node211 -->
<g id="edge42" class="edge">
<title>Node198&#45;&gt;Node211</title>
<path fill="none" stroke="#191970" d="M307.5181,-194.5069C444.0065,-198.1827 732.4222,-205.9501 866.7934,-209.5689"/>
<polygon fill="#191970" stroke="#191970" points="307.256,-190.9986 297.1654,-194.2281 307.0675,-197.9961 307.256,-190.9986"/>
</g>
<!-- Node218 -->
<g id="node22" class="node">
<title>Node218</title>
<g id="a_node22"><a xlink:href="class_alignment.html#a724218d5e7d168974d9abcafcde632a1" target="_top" xlink:title="Alignment::statSVG">
<polygon fill="#ffffff" stroke="#000000" points="886.5,-562 886.5,-581 990.5,-581 990.5,-562 886.5,-562"/>
<text text-anchor="middle" x="938.5" y="-569" font-family="Helvetica,sans-Serif" font-size="10.00" fill="#000000">Alignment::statSVG</text>
</a>
</g>
</g>
<!-- Node198&#45;&gt;Node218 -->
<g id="edge53" class="edge">
<title>Node198&#45;&gt;Node218</title>
<path fill="none" stroke="#191970" d="M246.5072,-216.6878C263.5232,-245.3421 295.1619,-293.0244 333,-323.5 511.046,-466.9019 783.3583,-538.1031 891.692,-561.9992"/>
<polygon fill="#191970" stroke="#191970" points="249.3629,-214.6361 241.3093,-207.752 243.3121,-218.1558 249.3629,-214.6361"/>
</g>
<!-- Node221 -->
<g id="node25" class="node">
<title>Node221</title>
<g id="a_node25"><a xlink:href="class_cleaner.html#aa57106470d2104a925b9396b8a9f33b3" target="_top" xlink:title="Method that carries the gappyout approach. This methods calculates the slope in gaps distribution on ...">
<polygon fill="#ffffff" stroke="#000000" points="515,-88 515,-107 635,-107 635,-88 515,-88"/>
<text text-anchor="middle" x="575" y="-95" font-family="Helvetica,sans-Serif" font-size="10.00" fill="#000000">Cleaner::clean2ndSlope</text>
</a>
</g>
</g>
<!-- Node198&#45;&gt;Node221 -->
<g id="edge40" class="edge">
<title>Node198&#45;&gt;Node221</title>
<path fill="none" stroke="#191970" d="M256.3476,-170.5168C275.4058,-153.9942 303.8611,-132.4057 333,-121.5 392.1143,-99.3755 464.7161,-94.9068 514.8922,-95.0178"/>
<polygon fill="#191970" stroke="#191970" points="253.9303,-167.9827 248.7806,-177.2418 258.5804,-173.215 253.9303,-167.9827"/>
</g>
<!-- Node222 -->
<g id="node26" class="node">
<title>Node222</title>
<g id="a_node26"><a xlink:href="class_cleaner.html#af7c9e1a177424168fa4214aca9ebd8e2" target="_top" xlink:title="Method to trim an alignment based on the gap distribution values. Column blocks that don&#39;t have a min...">
<polygon fill="#ffffff" stroke="#000000" points="887,-126 887,-145 990,-145 990,-126 887,-126"/>
<text text-anchor="middle" x="938.5" y="-133" font-family="Helvetica,sans-Serif" font-size="10.00" fill="#000000">Cleaner::cleanGaps</text>
</a>
</g>
</g>
<!-- Node198&#45;&gt;Node222 -->
<g id="edge43" class="edge">
<title>Node198&#45;&gt;Node222</title>
<path fill="none" stroke="#191970" d="M279.7872,-174.0658C296.3384,-168.3506 315.2552,-162.714 333,-159.5 535.3811,-122.8439 781.7811,-128.1776 886.9404,-132.7459"/>
<polygon fill="#191970" stroke="#191970" points="278.5929,-170.7756 270.3422,-177.4221 280.9369,-177.3716 278.5929,-170.7756"/>
</g>
<!-- Node223 -->
<g id="node27" class="node">
<title>Node223</title>
<g id="a_node27"><a xlink:href="class_cleaner.html#a3af7bde2142886d6d723c95694b7b9ba" target="_top" xlink:title="Method to remove columns composed only by gaps This method is specially useful when we remove missali...">
<polygon fill="#ffffff" stroke="#000000" points="875,-50 875,-69 1002,-69 1002,-50 875,-50"/>
<text text-anchor="middle" x="938.5" y="-57" font-family="Helvetica,sans-Serif" font-size="10.00" fill="#000000">Cleaner::cleanNoAllGaps</text>
</a>
</g>
</g>
<!-- Node198&#45;&gt;Node223 -->
<g id="edge46" class="edge">
<title>Node198&#45;&gt;Node223</title>
<path fill="none" stroke="#191970" d="M248.6131,-169.1107C266.0477,-145.1843 296.6445,-109.2211 333,-92.5 427.9287,-48.839 739.6889,-53.046 874.9483,-57.1386"/>
<polygon fill="#191970" stroke="#191970" points="245.7206,-167.1391 242.799,-177.3231 251.4338,-171.1838 245.7206,-167.1391"/>
</g>
<!-- Node225 -->
<g id="node29" class="node">
<title>Node225</title>
<g id="a_node29"><a xlink:href="class_cleaner.html#ab7f5b746b97697181f4cd06063cbb49a" target="_top" xlink:title="Method to detect right and left borders. Borders are the first column found with no gaps...">
<polygon fill="#ffffff" stroke="#000000" points="333,-9 333,-28 479,-28 479,-9 333,-9"/>
<text text-anchor="middle" x="406" y="-16" font-family="Helvetica,sans-Serif" font-size="10.00" fill="#000000">Cleaner::removeOnlyTerminal</text>
</a>
</g>
</g>
<!-- Node198&#45;&gt;Node225 -->
<g id="edge50" class="edge">
<title>Node198&#45;&gt;Node225</title>
<path fill="none" stroke="#191970" d="M243.707,-168.1087C259.0587,-135.7793 290.2581,-78.9364 333,-45.5 342.7915,-37.8402 354.9734,-32.1988 366.5629,-28.1144"/>
<polygon fill="#191970" stroke="#191970" points="240.4764,-166.7563 239.4563,-177.3019 246.83,-169.6942 240.4764,-166.7563"/>
</g>
<!-- Node200 -->
<g id="node4" class="node">
<title>Node200</title>
<g id="a_node4"><a xlink:href="classtrim_al_manager.html#a1da8f8b677f19ed8f7e08a663d97bb92" target="_top" xlink:title="trimAlManager::output\l_reports">
<polygon fill="#ffffff" stroke="#000000" points="1093,-594.5 1093,-624.5 1206,-624.5 1206,-594.5 1093,-594.5"/>
<text text-anchor="start" x="1101" y="-612.5" font-family="Helvetica,sans-Serif" font-size="10.00" fill="#000000">trimAlManager::output</text>
<text text-anchor="middle" x="1149.5" y="-601.5" font-family="Helvetica,sans-Serif" font-size="10.00" fill="#000000">_reports</text>
</a>
</g>
</g>
<!-- Node199&#45;&gt;Node200 -->
<g id="edge3" class="edge">
<title>Node199&#45;&gt;Node200</title>
<path fill="none" stroke="#191970" d="M1001.4949,-636.1549C1030.4896,-630.9331 1064.6277,-624.7851 1092.8068,-619.7101"/>
<polygon fill="#191970" stroke="#191970" points="1000.6931,-632.7429 991.4719,-637.96 1001.9339,-639.6321 1000.6931,-632.7429"/>
</g>
<!-- Node201 -->
<g id="node5" class="node">
<title>Node201</title>
<g id="a_node5"><a xlink:href="classtrim_al_manager.html#a7c641a1feff33d401b4ea5c82e989289" target="_top" xlink:title="trimAlManager::innerPerform">
<polygon fill="#ffffff" stroke="#000000" points="1613,-288 1613,-307 1754,-307 1754,-288 1613,-288"/>
<text text-anchor="middle" x="1683.5" y="-295" font-family="Helvetica,sans-Serif" font-size="10.00" fill="#000000">trimAlManager::innerPerform</text>
</a>
</g>
</g>
<!-- Node200&#45;&gt;Node201 -->
<g id="edge4" class="edge">
<title>Node200&#45;&gt;Node201</title>
<path fill="none" stroke="#191970" d="M1216.4405,-603.1212C1306.8736,-591.4697 1469.1427,-559.5133 1577,-474.5 1636.711,-427.4357 1670.5624,-336.9366 1680.4349,-307.2179"/>
<polygon fill="#191970" stroke="#191970" points="1215.8041,-599.6733 1206.312,-604.3797 1216.6673,-606.6199 1215.8041,-599.6733"/>
</g>
<!-- Node202 -->
<g id="node6" class="node">
<title>Node202</title>
<g id="a_node6"><a xlink:href="classtrim_al_manager.html#abe8d2841455c644dc9c7d1294b82b00f" target="_top" xlink:title="Method to perform the analysis if all checks have passed. ">
<polygon fill="#ffffff" stroke="#000000" points="1790,-288 1790,-307 1909,-307 1909,-288 1790,-288"/>
<text text-anchor="middle" x="1849.5" y="-295" font-family="Helvetica,sans-Serif" font-size="10.00" fill="#000000">trimAlManager::perform</text>
</a>
</g>
</g>
<!-- Node201&#45;&gt;Node202 -->
<g id="edge5" class="edge">
<title>Node201&#45;&gt;Node202</title>
<path fill="none" stroke="#191970" d="M1764.4012,-297.5C1772.9677,-297.5 1781.564,-297.5 1789.8249,-297.5"/>
<polygon fill="#191970" stroke="#191970" points="1764.3805,-294.0001 1754.3804,-297.5 1764.3804,-301.0001 1764.3805,-294.0001"/>
</g>
<!-- Node203 -->
<g id="node7" class="node">
<title>Node203</title>
<g id="a_node7"><a xlink:href="trim_al_main_8cpp.html#a0ddf1224851353fc92bfbff6f499fa97" target="_top" xlink:title="main">
<polygon fill="#ffffff" stroke="#000000" points="1945,-288 1945,-307 1983,-307 1983,-288 1945,-288"/>
<text text-anchor="middle" x="1964" y="-295" font-family="Helvetica,sans-Serif" font-size="10.00" fill="#000000">main</text>
</a>
</g>
</g>
<!-- Node202&#45;&gt;Node203 -->
<g id="edge6" class="edge">
<title>Node202&#45;&gt;Node203</title>
<path fill="none" stroke="#191970" d="M1919.3198,-297.5C1928.6177,-297.5 1937.4503,-297.5 1944.7697,-297.5"/>
<polygon fill="#191970" stroke="#191970" points="1919.0976,-294.0001 1909.0976,-297.5 1919.0975,-301.0001 1919.0976,-294.0001"/>
</g>
<!-- Node204&#45;&gt;Node200 -->
<g id="edge8" class="edge">
<title>Node204&#45;&gt;Node200</title>
<path fill="none" stroke="#191970" d="M1034.1422,-609.5C1054.2269,-609.5 1074.7923,-609.5 1092.8925,-609.5"/>
<polygon fill="#191970" stroke="#191970" points="1034.0176,-606.0001 1024.0176,-609.5 1034.0176,-613.0001 1034.0176,-606.0001"/>
</g>
<!-- Node206 -->
<g id="node10" class="node">
<title>Node206</title>
<g id="a_node10"><a xlink:href="classstatistics_1_1_manager.html#a92505ca5aedc5b45c4300a0e8a7d1e17" target="_top" xlink:title="Method to handle similarity stat calculation It checks if the similarity submodule has been created...">
<polygon fill="#ffffff" stroke="#000000" points="671,-305.5 671,-335.5 814,-335.5 814,-305.5 671,-305.5"/>
<text text-anchor="start" x="679" y="-323.5" font-family="Helvetica,sans-Serif" font-size="10.00" fill="#000000">statistics::Manager</text>
<text text-anchor="middle" x="742.5" y="-312.5" font-family="Helvetica,sans-Serif" font-size="10.00" fill="#000000">::calculateConservationStats</text>
</a>
</g>
</g>
<!-- Node205&#45;&gt;Node206 -->
<g id="edge10" class="edge">
<title>Node205&#45;&gt;Node206</title>
<path fill="none" stroke="#191970" d="M467.8619,-302.5445C525.2413,-306.2959 610.6131,-311.8774 670.9142,-315.8198"/>
<polygon fill="#191970" stroke="#191970" points="468.0477,-299.0492 457.8407,-301.8893 467.591,-306.0343 468.0477,-299.0492"/>
</g>
<!-- Node216 -->
<g id="node20" class="node">
<title>Node216</title>
<g id="a_node20"><a xlink:href="classstatistics_1_1_similarity.html#adcb5627b9704850e85433fc40c19db17" target="_top" xlink:title="Allows us compute the conservationWindow&#39;s values. ">
<polygon fill="#ffffff" stroke="#000000" points="523.5,-327.5 523.5,-357.5 626.5,-357.5 626.5,-327.5 523.5,-327.5"/>
<text text-anchor="start" x="531.5" y="-345.5" font-family="Helvetica,sans-Serif" font-size="10.00" fill="#000000">statistics::Similarity</text>
<text text-anchor="middle" x="575" y="-334.5" font-family="Helvetica,sans-Serif" font-size="10.00" fill="#000000">::applyWindow</text>
</a>
</g>
</g>
<!-- Node205&#45;&gt;Node216 -->
<g id="edge25" class="edge">
<title>Node205&#45;&gt;Node216</title>
<path fill="none" stroke="#191970" d="M467.3604,-314.4755C485.7449,-319.262 505.7128,-324.4607 523.4013,-329.066"/>
<polygon fill="#191970" stroke="#191970" points="468.1831,-311.0731 457.6239,-311.9405 466.4194,-317.8473 468.1831,-311.0731"/>
</g>
<!-- Node207 -->
<g id="node11" class="node">
<title>Node207</title>
<g id="a_node11"><a xlink:href="class_cleaner.html#a9cdbd6ebf78a284dd065b31319795b0c" target="_top" xlink:title="Method to trim an alignment based on the similarity distribution values. ">
<polygon fill="#ffffff" stroke="#000000" points="1081,-464 1081,-483 1218,-483 1218,-464 1081,-464"/>
<text text-anchor="middle" x="1149.5" y="-471" font-family="Helvetica,sans-Serif" font-size="10.00" fill="#000000">Cleaner::cleanConservation</text>
</a>
</g>
</g>
<!-- Node206&#45;&gt;Node207 -->
<g id="edge11" class="edge">
<title>Node206&#45;&gt;Node207</title>
<path fill="none" stroke="#191970" d="M757.2523,-344.4239C783.3286,-386.3131 836.1265,-469.2117 850,-476.5 937.6939,-522.5688 1060.7213,-498.413 1117.936,-483.0362"/>
<polygon fill="#191970" stroke="#191970" points="760.0693,-342.3255 751.8227,-335.6738 754.1213,-346.0163 760.0693,-342.3255"/>
</g>
<!-- Node206&#45;&gt;Node210 -->
<g id="edge15" class="edge">
<title>Node206&#45;&gt;Node210</title>
<path fill="none" stroke="#191970" d="M798.3354,-338.4638C814.814,-343.1151 832.9927,-347.62 850,-350.5 941.9518,-366.0712 1051.7423,-369.1563 1109.4694,-369.6034"/>
<polygon fill="#191970" stroke="#191970" points="798.8995,-334.9833 788.3205,-335.562 796.9514,-341.7068 798.8995,-334.9833"/>
</g>
<!-- Node206&#45;&gt;Node211 -->
<g id="edge17" class="edge">
<title>Node206&#45;&gt;Node211</title>
<path fill="none" stroke="#191970" d="M762.9091,-298.0342C783.0297,-277.2999 815.672,-247.2626 850,-230.5 857.9078,-226.6386 866.5908,-223.5573 875.3314,-221.0997"/>
<polygon fill="#191970" stroke="#191970" points="760.186,-295.8189 755.8333,-305.4783 765.2597,-300.6415 760.186,-295.8189"/>
</g>
<!-- Node213 -->
<g id="node17" class="node">
<title>Node213</title>
<g id="a_node17"><a xlink:href="classstatistics_1_1_manager.html#a080c687f8f355900511485eeec32a659" target="_top" xlink:title="Wrapper to Statistics::Similarity::printConservationAcl() It calls to calculateConservationStats() to...">
<polygon fill="#ffffff" stroke="#000000" points="868.5,-300 868.5,-341 1008.5,-341 1008.5,-300 868.5,-300"/>
<text text-anchor="start" x="876.5" y="-329" font-family="Helvetica,sans-Serif" font-size="10.00" fill="#000000">statistics::Manager</text>
<text text-anchor="start" x="876.5" y="-318" font-family="Helvetica,sans-Serif" font-size="10.00" fill="#000000">::printStatisticsConservation</text>
<text text-anchor="middle" x="938.5" y="-307" font-family="Helvetica,sans-Serif" font-size="10.00" fill="#000000">Columns</text>
</a>
</g>
</g>
<!-- Node206&#45;&gt;Node213 -->
<g id="edge20" class="edge">
<title>Node206&#45;&gt;Node213</title>
<path fill="none" stroke="#191970" d="M824.1718,-320.5C838.8717,-320.5 854.0759,-320.5 868.4109,-320.5"/>
<polygon fill="#191970" stroke="#191970" points="824.0925,-317.0001 814.0925,-320.5 824.0924,-324.0001 824.0925,-317.0001"/>
</g>
<!-- Node215 -->
<g id="node19" class="node">
<title>Node215</title>
<g id="a_node19"><a xlink:href="classstatistics_1_1_manager.html#aa20cfb477826035386ea988e3706b09a" target="_top" xlink:title="Wrapper to Statistics::Similarity::printGapsTotal() It calls to calculateConservationStats() to make ...">
<polygon fill="#ffffff" stroke="#000000" points="868.5,-240 868.5,-281 1008.5,-281 1008.5,-240 868.5,-240"/>
<text text-anchor="start" x="876.5" y="-269" font-family="Helvetica,sans-Serif" font-size="10.00" fill="#000000">statistics::Manager</text>
<text text-anchor="start" x="876.5" y="-258" font-family="Helvetica,sans-Serif" font-size="10.00" fill="#000000">::printStatisticsConservation</text>
<text text-anchor="middle" x="938.5" y="-247" font-family="Helvetica,sans-Serif" font-size="10.00" fill="#000000">Total</text>
</a>
</g>
</g>
<!-- Node206&#45;&gt;Node215 -->
<g id="edge23" class="edge">
<title>Node206&#45;&gt;Node215</title>
<path fill="none" stroke="#191970" d="M801.2929,-302.5022C823.4007,-295.7345 848.696,-287.991 871.4961,-281.0114"/>
<polygon fill="#191970" stroke="#191970" points="800.2436,-299.163 791.7061,-305.4369 802.2926,-305.8564 800.2436,-299.163"/>
</g>
<!-- Node208 -->
<g id="node12" class="node">
<title>Node208</title>
<g id="a_node12"><a xlink:href="classtrim_al_manager.html#aebfd21b0435302f0e4fc45a068d1b6ee" target="_top" xlink:title="Method to trim the alignment using non automatic methods: ">
<polygon fill="#ffffff" stroke="#000000" points="1276,-238.5 1276,-268.5 1428,-268.5 1428,-238.5 1276,-238.5"/>
<text text-anchor="start" x="1284" y="-256.5" font-family="Helvetica,sans-Serif" font-size="10.00" fill="#000000">trimAlManager::CleanResidues</text>
<text text-anchor="middle" x="1352" y="-245.5" font-family="Helvetica,sans-Serif" font-size="10.00" fill="#000000">NonAuto</text>
</a>
</g>
</g>
<!-- Node207&#45;&gt;Node208 -->
<g id="edge12" class="edge">
<title>Node207&#45;&gt;Node208</title>
<path fill="none" stroke="#191970" d="M1167.3073,-456.8464C1185.1056,-440.0072 1213.0514,-413.0353 1236,-388.5 1275.262,-346.5234 1318.707,-294.2785 1339.5304,-268.8455"/>
<polygon fill="#191970" stroke="#191970" points="1164.7777,-454.4209 1159.8982,-463.8252 1169.5773,-459.5164 1164.7777,-454.4209"/>
</g>
<!-- Node209 -->
<g id="node13" class="node">
<title>Node209</title>
<g id="a_node13"><a xlink:href="classtrim_al_manager.html#adc529dd893ed4e9df6f3ddbd58776068" target="_top" xlink:title="Core Method of the program. This is where almost all cleaning methods are called from. ">
<polygon fill="#ffffff" stroke="#000000" points="1468,-192.5 1468,-222.5 1577,-222.5 1577,-192.5 1468,-192.5"/>
<text text-anchor="start" x="1476" y="-210.5" font-family="Helvetica,sans-Serif" font-size="10.00" fill="#000000">trimAlManager::clean</text>
<text text-anchor="middle" x="1522.5" y="-199.5" font-family="Helvetica,sans-Serif" font-size="10.00" fill="#000000">_alignment</text>
</a>
</g>
</g>
<!-- Node208&#45;&gt;Node209 -->
<g id="edge13" class="edge">
<title>Node208&#45;&gt;Node209</title>
<path fill="none" stroke="#191970" d="M1417.5053,-235.827C1434.1861,-231.3266 1451.9341,-226.5383 1467.9996,-222.2039"/>
<polygon fill="#191970" stroke="#191970" points="1416.5712,-232.4538 1407.8281,-238.4379 1418.3946,-239.2122 1416.5712,-232.4538"/>
</g>
<!-- Node209&#45;&gt;Node201 -->
<g id="edge14" class="edge">
<title>Node209&#45;&gt;Node201</title>
<path fill="none" stroke="#191970" d="M1558.497,-227.6225C1592.1128,-246.414 1640.8268,-273.6454 1666.3822,-287.931"/>
<polygon fill="#191970" stroke="#191970" points="1559.8844,-224.3884 1549.4478,-222.564 1556.4687,-230.4985 1559.8844,-224.3884"/>
</g>
<!-- Node210&#45;&gt;Node208 -->
<g id="edge16" class="edge">
<title>Node210&#45;&gt;Node208</title>
<path fill="none" stroke="#191970" d="M1176.4128,-355.2242C1193.5599,-346.0431 1216.1952,-333.7651 1236,-322.5 1267.774,-304.4268 1303.8986,-282.758 1327.2727,-268.587"/>
<polygon fill="#191970" stroke="#191970" points="1174.6774,-352.1831 1167.5041,-359.9801 1177.974,-358.3582 1174.6774,-352.1831"/>
</g>
<!-- Node212 -->
<g id="node16" class="node">
<title>Node212</title>
<g id="a_node16"><a xlink:href="classtrim_al_manager.html#a69082911b30a1bd12395bb235bc18a34" target="_top" xlink:title="Method to trim the alignment using automatic or semi&#45;automatic methods: ">
<polygon fill="#ffffff" stroke="#000000" points="1063,-126 1063,-145 1236,-145 1236,-126 1063,-126"/>
<text text-anchor="middle" x="1149.5" y="-133" font-family="Helvetica,sans-Serif" font-size="10.00" fill="#000000">trimAlManager::CleanResiduesAuto</text>
</a>
</g>
</g>
<!-- Node211&#45;&gt;Node212 -->
<g id="edge18" class="edge">
<title>Node211&#45;&gt;Node212</title>
<path fill="none" stroke="#191970" d="M974.8278,-198.4151C1016.9993,-183.2254 1085.5388,-158.5381 1122.9937,-145.0473"/>
<polygon fill="#191970" stroke="#191970" points="973.4455,-195.1928 965.2233,-201.8745 975.8177,-201.7786 973.4455,-195.1928"/>
</g>
<!-- Node212&#45;&gt;Node209 -->
<g id="edge19" class="edge">
<title>Node212&#45;&gt;Node209</title>
<path fill="none" stroke="#191970" d="M1196.8806,-147.4452C1219.5409,-152.9712 1247.0972,-159.4201 1272,-164.5 1339.0147,-178.1702 1416.7102,-191.0501 1467.5856,-199.0853"/>
<polygon fill="#191970" stroke="#191970" points="1197.7129,-144.0457 1187.1667,-145.0601 1196.0436,-150.8438 1197.7129,-144.0457"/>
</g>
<!-- Node214 -->
<g id="node18" class="node">
<title>Node214</title>
<g id="a_node18"><a xlink:href="classtrim_al_manager.html#afc48b86f5ae35b9a5e721b65c58bf610" target="_top" xlink:title="Method to print statistics requested. ">
<polygon fill="#ffffff" stroke="#000000" points="1097.5,-282.5 1097.5,-312.5 1201.5,-312.5 1201.5,-282.5 1097.5,-282.5"/>
<text text-anchor="start" x="1105.5" y="-300.5" font-family="Helvetica,sans-Serif" font-size="10.00" fill="#000000">trimAlManager::print</text>
<text text-anchor="middle" x="1149.5" y="-289.5" font-family="Helvetica,sans-Serif" font-size="10.00" fill="#000000">_statistics</text>
</a>
</g>
</g>
<!-- Node213&#45;&gt;Node214 -->
<g id="edge21" class="edge">
<title>Node213&#45;&gt;Node214</title>
<path fill="none" stroke="#191970" d="M1018.7172,-311.7559C1045.0209,-308.8887 1073.5526,-305.7786 1097.2347,-303.1972"/>
<polygon fill="#191970" stroke="#191970" points="1018.3218,-308.2782 1008.7599,-312.8413 1019.0804,-315.237 1018.3218,-308.2782"/>
</g>
<!-- Node214&#45;&gt;Node201 -->
<g id="edge22" class="edge">
<title>Node214&#45;&gt;Node201</title>
<path fill="none" stroke="#191970" d="M1211.9259,-297.5C1311.9442,-297.5 1507.5088,-297.5 1612.6299,-297.5"/>
<polygon fill="#191970" stroke="#191970" points="1211.6745,-294.0001 1201.6744,-297.5 1211.6744,-301.0001 1211.6745,-294.0001"/>
</g>
<!-- Node215&#45;&gt;Node214 -->
<g id="edge24" class="edge">
<title>Node215&#45;&gt;Node214</title>
<path fill="none" stroke="#191970" d="M1018.7172,-274.5665C1045.0209,-279.179 1073.5526,-284.1822 1097.2347,-288.335"/>
<polygon fill="#191970" stroke="#191970" points="1019.2142,-271.1003 1008.7599,-272.8205 1018.0051,-277.9951 1019.2142,-271.1003"/>
</g>
<!-- Node216&#45;&gt;Node206 -->
<g id="edge26" class="edge">
<title>Node216&#45;&gt;Node206</title>
<path fill="none" stroke="#191970" d="M636.6284,-334.4055C647.7215,-332.9485 659.3724,-331.4183 670.7237,-329.9273"/>
<polygon fill="#191970" stroke="#191970" points="636.0813,-330.9472 626.6223,-335.7198 636.9929,-337.8876 636.0813,-330.9472"/>
</g>
<!-- Node217 -->
<g id="node21" class="node">
<title>Node217</title>
<g id="a_node21"><a xlink:href="classstatistics_1_1_similarity.html#a1b65c85328f09fa0637365d11fb386b4" target="_top" xlink:title="This methods returns a pointer to conservationWindow&#39;s vector. ">
<polygon fill="#ffffff" stroke="#000000" points="678,-441.5 678,-471.5 807,-471.5 807,-441.5 678,-441.5"/>
<text text-anchor="start" x="686" y="-459.5" font-family="Helvetica,sans-Serif" font-size="10.00" fill="#000000">statistics::Similarity</text>
<text text-anchor="middle" x="742.5" y="-448.5" font-family="Helvetica,sans-Serif" font-size="10.00" fill="#000000">::getMdkWindowedVector</text>
</a>
</g>
</g>
<!-- Node216&#45;&gt;Node217 -->
<g id="edge27" class="edge">
<title>Node216&#45;&gt;Node217</title>
<path fill="none" stroke="#191970" d="M605.6621,-363.3685C638.8722,-385.9712 691.0316,-421.4708 720.4321,-441.4806"/>
<polygon fill="#191970" stroke="#191970" points="607.479,-360.3714 597.2427,-357.6383 603.5404,-366.1583 607.479,-360.3714"/>
</g>
<!-- Node217&#45;&gt;Node199 -->
<g id="edge28" class="edge">
<title>Node217&#45;&gt;Node199</title>
<path fill="none" stroke="#191970" d="M750.9138,-481.5696C765.0489,-519.6461 797.3031,-591.5248 850,-628.5 855.5315,-632.3812 861.7016,-635.4946 868.1398,-637.9887"/>
<polygon fill="#191970" stroke="#191970" points="754.0749,-480.0158 747.4055,-471.7836 747.4856,-482.3781 754.0749,-480.0158"/>
</g>
<!-- Node217&#45;&gt;Node204 -->
<g id="edge32" class="edge">
<title>Node217&#45;&gt;Node204</title>
<path fill="none" stroke="#191970" d="M759.9422,-479.9399C787.2634,-516.3887 838.2527,-583.2477 850,-590.5 856.2847,-594.3799 863.2448,-597.4756 870.4204,-599.9443"/>
<polygon fill="#191970" stroke="#191970" points="762.6517,-477.7189 753.86,-471.8065 757.0458,-481.911 762.6517,-477.7189"/>
</g>
<!-- Node217&#45;&gt;Node207 -->
<g id="edge33" class="edge">
<title>Node217&#45;&gt;Node207</title>
<path fill="none" stroke="#191970" d="M773.9031,-476.7848C794.602,-488.9137 822.815,-503.1628 850,-509.5 926.6125,-527.3596 949.1353,-520.7044 1027,-509.5 1061.6663,-504.5116 1100.2042,-491.9677 1124.6295,-483.0947"/>
<polygon fill="#191970" stroke="#191970" points="775.6088,-473.7264 765.2353,-471.572 772.0012,-479.7252 775.6088,-473.7264"/>
</g>
<!-- Node217&#45;&gt;Node210 -->
<g id="edge34" class="edge">
<title>Node217&#45;&gt;Node210</title>
<path fill="none" stroke="#191970" d="M805.2983,-438.7426C819.92,-434.8354 835.4635,-430.8637 850,-427.5 942.1045,-406.1876 1051.3771,-386.3976 1109.0971,-376.3686"/>
<polygon fill="#191970" stroke="#191970" points="804.0888,-435.4438 795.3465,-441.4291 805.9132,-442.2019 804.0888,-435.4438"/>
</g>
<!-- Node217&#45;&gt;Node211 -->
<g id="edge35" class="edge">
<title>Node217&#45;&gt;Node211</title>
<path fill="none" stroke="#191970" d="M760.168,-433.1949C775.9955,-411.4464 798.9669,-377.6142 814,-345.5 836.706,-296.9945 810.4299,-266.591 850,-230.5 854.8765,-226.0523 860.535,-222.5526 866.5876,-219.8095"/>
<polygon fill="#191970" stroke="#191970" points="757.191,-431.3347 754.0722,-441.4601 762.8246,-435.4896 757.191,-431.3347"/>
</g>
<!-- Node217&#45;&gt;Node218 -->
<g id="edge29" class="edge">
<title>Node217&#45;&gt;Node218</title>
<path fill="none" stroke="#191970" d="M776.5211,-477.1843C788.8538,-485.3477 802.5554,-495.2273 814,-505.5 832.2961,-521.9225 829.2156,-534.3679 850,-547.5 860.9012,-554.3877 873.764,-559.3195 886.2557,-562.8435"/>
<polygon fill="#191970" stroke="#191970" points="778.1316,-474.0576 767.8348,-471.5624 774.3282,-479.9342 778.1316,-474.0576"/>
</g>
<!-- Node220 -->
<g id="node24" class="node">
<title>Node220</title>
<g id="a_node24"><a xlink:href="classstatistics_1_1_similarity.html#a26f430acb8a3240977665de9a9ea875a" target="_top" xlink:title="Computes and selects the cut point values based on similarity&#39;s values. ">
<polygon fill="#ffffff" stroke="#000000" points="887,-436.5 887,-466.5 990,-466.5 990,-436.5 887,-436.5"/>
<text text-anchor="start" x="895" y="-454.5" font-family="Helvetica,sans-Serif" font-size="10.00" fill="#000000">statistics::Similarity</text>
<text text-anchor="middle" x="938.5" y="-443.5" font-family="Helvetica,sans-Serif" font-size="10.00" fill="#000000">::calcCutPoint</text>
</a>
</g>
</g>
<!-- Node217&#45;&gt;Node220 -->
<g id="edge36" class="edge">
<title>Node217&#45;&gt;Node220</title>
<path fill="none" stroke="#191970" d="M817.3818,-454.5897C840.5817,-453.9979 865.6148,-453.3593 886.8672,-452.8172"/>
<polygon fill="#191970" stroke="#191970" points="817.1284,-451.095 807.2209,-454.849 817.307,-458.0927 817.1284,-451.095"/>
</g>
<!-- Node219 -->
<g id="node23" class="node">
<title>Node219</title>
<g id="a_node23"><a xlink:href="classtrim_al_manager.html#a63d5bec0938516a2129ccb04276b93d9" target="_top" xlink:title="trimAlManager::svg\l_stats_out">
<polygon fill="#ffffff" stroke="#000000" points="1472,-434.5 1472,-464.5 1573,-464.5 1573,-434.5 1472,-434.5"/>
<text text-anchor="start" x="1480" y="-452.5" font-family="Helvetica,sans-Serif" font-size="10.00" fill="#000000">trimAlManager::svg</text>
<text text-anchor="middle" x="1522.5" y="-441.5" font-family="Helvetica,sans-Serif" font-size="10.00" fill="#000000">_stats_out</text>
</a>
</g>
</g>
<!-- Node218&#45;&gt;Node219 -->
<g id="edge30" class="edge">
<title>Node218&#45;&gt;Node219</title>
<path fill="none" stroke="#191970" d="M994.1838,-559.8674C1107.45,-536.2056 1363.1411,-482.7907 1471.9495,-460.0602"/>
<polygon fill="#191970" stroke="#191970" points="993.3984,-556.4558 984.3255,-561.9269 994.8299,-563.3079 993.3984,-556.4558"/>
</g>
<!-- Node219&#45;&gt;Node201 -->
<g id="edge31" class="edge">
<title>Node219&#45;&gt;Node201</title>
<path fill="none" stroke="#191970" d="M1546.0569,-427.2599C1581.6927,-393.6162 1647.8383,-331.1682 1673.2184,-307.2068"/>
<polygon fill="#191970" stroke="#191970" points="1543.3946,-424.96 1538.5259,-434.37 1548.2,-430.05 1543.3946,-424.96"/>
</g>
<!-- Node220&#45;&gt;Node207 -->
<g id="edge37" class="edge">
<title>Node220&#45;&gt;Node207</title>
<path fill="none" stroke="#191970" d="M1000.3151,-457.9452C1025.5965,-460.5812 1054.9428,-463.641 1080.885,-466.3458"/>
<polygon fill="#191970" stroke="#191970" points="1000.4255,-454.4378 990.1164,-456.8818 999.6995,-461.4001 1000.4255,-454.4378"/>
</g>
<!-- Node220&#45;&gt;Node210 -->
<g id="edge38" class="edge">
<title>Node220&#45;&gt;Node210</title>
<path fill="none" stroke="#191970" d="M994.8396,-433.1051C1005.5692,-429.4036 1016.6701,-425.437 1027,-421.5 1063.0541,-407.7588 1104.199,-389.8168 1128.4499,-379.0024"/>
<polygon fill="#191970" stroke="#191970" points="993.4564,-429.8789 985.1231,-436.4215 995.7176,-436.5037 993.4564,-429.8789"/>
</g>
<!-- Node221&#45;&gt;Node212 -->
<g id="edge41" class="edge">
<title>Node221&#45;&gt;Node212</title>
<path fill="none" stroke="#191970" d="M645.35,-98.0238C734.3959,-99.2454 892.4133,-103.2758 1027,-116.5 1049.9178,-118.7519 1075.0782,-122.4406 1096.6029,-125.9716"/>
<polygon fill="#191970" stroke="#191970" points="645.1474,-94.5209 635.1031,-97.8915 645.057,-101.5204 645.1474,-94.5209"/>
</g>
<!-- Node222&#45;&gt;Node208 -->
<g id="edge45" class="edge">
<title>Node222&#45;&gt;Node208</title>
<path fill="none" stroke="#191970" d="M984.0494,-147.6959C997.859,-151.4355 1013.0612,-155.5945 1027,-159.5 1123.9972,-186.6774 1236.8918,-219.6281 1300.8519,-238.4197"/>
<polygon fill="#191970" stroke="#191970" points="984.8447,-144.2853 974.2779,-145.0565 983.0193,-151.0432 984.8447,-144.2853"/>
</g>
<!-- Node222&#45;&gt;Node212 -->
<g id="edge44" class="edge">
<title>Node222&#45;&gt;Node212</title>
<path fill="none" stroke="#191970" d="M1000.3708,-135.5C1019.8596,-135.5 1041.7596,-135.5 1062.6517,-135.5"/>
<polygon fill="#191970" stroke="#191970" points="1000.1164,-132.0001 990.1164,-135.5 1000.1164,-139.0001 1000.1164,-132.0001"/>
</g>
<!-- Node223&#45;&gt;Node212 -->
<g id="edge47" class="edge">
<title>Node223&#45;&gt;Node212</title>
<path fill="none" stroke="#191970" d="M988.4504,-71.7663C1001.1295,-75.2288 1014.6542,-79.2281 1027,-83.5 1063.8994,-96.2681 1105.4663,-114.8402 1129.4572,-125.9888"/>
<polygon fill="#191970" stroke="#191970" points="989.0663,-68.3082 978.5019,-69.1096 987.2603,-75.0712 989.0663,-68.3082"/>
</g>
<!-- Node224 -->
<g id="node28" class="node">
<title>Node224</title>
<g id="a_node28"><a xlink:href="classtrim_al_manager.html#a10536f715945a1a45f1df33f7cedc81e" target="_top" xlink:title="Method to trim or reduce the number of sequences in an alignment. It performs one or none of the foll...">
<polygon fill="#ffffff" stroke="#000000" points="1272,-136 1272,-155 1432,-155 1432,-136 1272,-136"/>
<text text-anchor="middle" x="1352" y="-143" font-family="Helvetica,sans-Serif" font-size="10.00" fill="#000000">trimAlManager::CleanSequences</text>
</a>
</g>
</g>
<!-- Node223&#45;&gt;Node224 -->
<g id="edge48" class="edge">
<title>Node223&#45;&gt;Node224</title>
<path fill="none" stroke="#191970" d="M1003.4003,-70.8598C1063.812,-81.6882 1156.2641,-98.9088 1236,-116.5 1262.9607,-122.448 1293.2175,-130.0432 1316.0684,-135.9685"/>
<polygon fill="#191970" stroke="#191970" points="1003.7057,-67.359 993.246,-69.0458 1002.4747,-74.2499 1003.7057,-67.359"/>
</g>
<!-- Node224&#45;&gt;Node209 -->
<g id="edge49" class="edge">
<title>Node224&#45;&gt;Node209</title>
<path fill="none" stroke="#191970" d="M1396.8059,-158.0293C1408.3521,-161.5067 1420.7048,-165.4473 1432,-169.5 1451.087,-176.3485 1471.9842,-185.041 1488.8845,-192.3834"/>
<polygon fill="#191970" stroke="#191970" points="1397.496,-154.5835 1386.9138,-155.1014 1395.5093,-161.2956 1397.496,-154.5835"/>
</g>
<!-- Node226 -->
<g id="node30" class="node">
<title>Node226</title>
<g id="a_node30"><a xlink:href="classtrim_al_manager.html#a8ed19b851162fa24a1da66f7e54099e3" target="_top" xlink:title="trimAlManager::postprocess\l_alignment">
<polygon fill="#ffffff" stroke="#000000" points="673,-.5 673,-30.5 812,-30.5 812,-.5 673,-.5"/>
<text text-anchor="start" x="681" y="-18.5" font-family="Helvetica,sans-Serif" font-size="10.00" fill="#000000">trimAlManager::postprocess</text>
<text text-anchor="middle" x="742.5" y="-7.5" font-family="Helvetica,sans-Serif" font-size="10.00" fill="#000000">_alignment</text>
</a>
</g>
</g>
<!-- Node225&#45;&gt;Node226 -->
<g id="edge51" class="edge">
<title>Node225&#45;&gt;Node226</title>
<path fill="none" stroke="#191970" d="M489.3427,-17.757C545.7744,-17.2539 619.476,-16.5968 672.7913,-16.1215"/>
<polygon fill="#191970" stroke="#191970" points="488.9839,-14.2599 479.0155,-17.849 489.0463,-21.2597 488.9839,-14.2599"/>
</g>
<!-- Node226&#45;&gt;Node201 -->
<g id="edge52" class="edge">
<title>Node226&#45;&gt;Node201</title>
<path fill="none" stroke="#191970" d="M822.3623,-16.4362C904.4247,-17.3165 1035.8807,-18.5 1149.5,-18.5 1149.5,-18.5 1149.5,-18.5 1352,-18.5 1523.1313,-18.5 1651.9015,-238.8368 1678.452,-287.8962"/>
<polygon fill="#191970" stroke="#191970" points="822.3941,-12.9364 812.3567,-16.3277 822.3182,-19.936 822.3941,-12.9364"/>
</g>
</g>
</svg>
