<?xml version="1.0" encoding="UTF-8" standalone="no"?>
<!DOCTYPE svg PUBLIC "-//W3C//DTD SVG 1.1//EN"
 "http://www.w3.org/Graphics/SVG/1.1/DTD/svg11.dtd">
<!-- Generated by graphviz version 2.38.0 (20140413.2041)
 -->
<!-- Title: Cleaner::cleanByCutValue Pages: 1 -->
<svg width="516pt" height="203pt"
 viewBox="0.00 0.00 516.00 202.50" xmlns="http://www.w3.org/2000/svg" xmlns:xlink="http://www.w3.org/1999/xlink">
<g id="graph0" class="graph" transform="scale(1 1) rotate(0) translate(4 198.5)">
<title>Cleaner::cleanByCutValue</title>
<polygon fill="white" stroke="none" points="-4,4 -4,-198.5 512,-198.5 512,4 -4,4"/>
<!-- Node54 -->
<g id="node1" class="node"><title>Node54</title>
<polygon fill="#bfbfbf" stroke="black" points="0,-99 0,-118 132,-118 132,-99 0,-99"/>
<text text-anchor="middle" x="66" y="-106" font-family="Helvetica,sans-Serif" font-size="10.00">Cleaner::cleanByCutValue</text>
</g>
<!-- Node55 -->
<g id="node2" class="node"><title>Node55</title>
<g id="a_node2"><a xlink:href="classutils.html#ad50731aeb3c8f79ed8372516210dfc9d" target="_top" xlink:title="Round double to integer method. ">
<polygon fill="white" stroke="black" points="219.5,-175 219.5,-194 295.5,-194 295.5,-175 219.5,-175"/>
<text text-anchor="middle" x="257.5" y="-182" font-family="Helvetica,sans-Serif" font-size="10.00">utils::roundInt</text>
</a>
</g>
</g>
<!-- Node54&#45;&gt;Node55 -->
<g id="edge1" class="edge"><title>Node54&#45;&gt;Node55</title>
<path fill="none" stroke="midnightblue" d="M80.7187,-118.037C99.5543,-130.702 134.868,-152.929 168,-165.5 180.996,-170.431 195.577,-174.223 209.096,-177.074"/>
<polygon fill="midnightblue" stroke="midnightblue" points="208.693,-180.562 219.183,-179.074 210.055,-173.696 208.693,-180.562"/>
</g>
<!-- Node56 -->
<g id="node3" class="node"><title>Node56</title>
<g id="a_node3"><a xlink:href="class_cleaner.html#a033da9ea63774f43f4c7aff04f23da81" target="_top" xlink:title="Method to detect right and left borders. Borders are the first column found with no gaps...">
<polygon fill="white" stroke="black" points="184.5,-137 184.5,-156 330.5,-156 330.5,-137 184.5,-137"/>
<text text-anchor="middle" x="257.5" y="-144" font-family="Helvetica,sans-Serif" font-size="10.00">Cleaner::removeOnlyTerminal</text>
</a>
</g>
</g>
<!-- Node54&#45;&gt;Node56 -->
<g id="edge2" class="edge"><title>Node54&#45;&gt;Node56</title>
<path fill="none" stroke="midnightblue" d="M114.819,-118.089C140.389,-123.216 172.059,-129.567 198.968,-134.963"/>
<polygon fill="midnightblue" stroke="midnightblue" points="198.532,-138.445 209.025,-136.98 199.908,-131.582 198.532,-138.445"/>
</g>
<!-- Node58 -->
<g id="node5" class="node"><title>Node58</title>
<g id="a_node5"><a xlink:href="class_cleaner.html#a24bd28e4191afc9471adff329bee1466" target="_top" xlink:title="Method for computing the complementary alignment. Complementary Alignment is an alignment containing ...">
<polygon fill="white" stroke="black" points="168,-99 168,-118 347,-118 347,-99 168,-99"/>
<text text-anchor="middle" x="257.5" y="-106" font-family="Helvetica,sans-Serif" font-size="10.00">Cleaner::computeComplementaryAlig</text>
</a>
</g>
</g>
<!-- Node54&#45;&gt;Node58 -->
<g id="edge4" class="edge"><title>Node54&#45;&gt;Node58</title>
<path fill="none" stroke="midnightblue" d="M132.215,-108.5C140.449,-108.5 149.013,-108.5 157.623,-108.5"/>
<polygon fill="midnightblue" stroke="midnightblue" points="157.734,-112 167.734,-108.5 157.734,-105 157.734,-112"/>
</g>
<!-- Node59 -->
<g id="node6" class="node"><title>Node59</title>
<g id="a_node6"><a xlink:href="class_cleaner.html#a2f7d85e29f23f880a7ad7e28863b36c3" target="_top" xlink:title="Method that identifies and removes columns and sequences composed only by gaps. ">
<polygon fill="white" stroke="black" points="203,-49.5 203,-79.5 312,-79.5 312,-49.5 203,-49.5"/>
<text text-anchor="start" x="211" y="-67.5" font-family="Helvetica,sans-Serif" font-size="10.00">Cleaner::removeCols</text>
<text text-anchor="middle" x="257.5" y="-56.5" font-family="Helvetica,sans-Serif" font-size="10.00">_SeqsAllGaps</text>
</a>
</g>
</g>
<!-- Node54&#45;&gt;Node59 -->
<g id="edge5" class="edge"><title>Node54&#45;&gt;Node59</title>
<path fill="none" stroke="midnightblue" d="M108.119,-98.9527C132.841,-93.2125 164.826,-85.7859 192.766,-79.2984"/>
<polygon fill="midnightblue" stroke="midnightblue" points="193.907,-82.6267 202.856,-76.9556 192.323,-75.8081 193.907,-82.6267"/>
</g>
<!-- Node60 -->
<g id="node7" class="node"><title>Node60</title>
<g id="a_node7"><a xlink:href="classnew_alignment.html#a3de39c62c08a265178f1fa7df76c3ab7" target="_top" xlink:title="Method that copies information of the alignment to the pointers given. ">
<polygon fill="white" stroke="black" points="190,-0.5 190,-30.5 325,-30.5 325,-0.5 190,-0.5"/>
<text text-anchor="start" x="198" y="-18.5" font-family="Helvetica,sans-Serif" font-size="10.00">newAlignment::fillNewData</text>
<text text-anchor="middle" x="257.5" y="-7.5" font-family="Helvetica,sans-Serif" font-size="10.00">Structure</text>
</a>
</g>
</g>
<!-- Node54&#45;&gt;Node60 -->
<g id="edge7" class="edge"><title>Node54&#45;&gt;Node60</title>
<path fill="none" stroke="midnightblue" d="M78.6888,-98.7939C96.7711,-84.2208 133.094,-56.6754 168,-40.5 173.197,-38.0918 178.675,-35.8676 184.254,-33.8231"/>
<polygon fill="midnightblue" stroke="midnightblue" points="185.401,-37.13 193.706,-30.5513 183.111,-30.5151 185.401,-37.13"/>
</g>
<!-- Node57 -->
<g id="node4" class="node"><title>Node57</title>
<g id="a_node4"><a xlink:href="class_verbose_manager.html#a261de87bbf9653cd729dca4e1fbeb2a3" target="_top" xlink:title="Method to report an Error. It will be displayed if VerboseManager::Level is equal or higher to Verbos...">
<polygon fill="white" stroke="black" points="383,-96 383,-115 508,-115 508,-96 383,-96"/>
<text text-anchor="middle" x="445.5" y="-103" font-family="Helvetica,sans-Serif" font-size="10.00">VerboseManager::Report</text>
</a>
</g>
</g>
<!-- Node56&#45;&gt;Node57 -->
<g id="edge3" class="edge"><title>Node56&#45;&gt;Node57</title>
<path fill="none" stroke="midnightblue" d="M303.542,-136.925C317.48,-133.937 332.881,-130.609 347,-127.5 361.871,-124.226 378.003,-120.612 392.784,-117.275"/>
<polygon fill="midnightblue" stroke="midnightblue" points="393.787,-120.636 402.769,-115.017 392.243,-113.809 393.787,-120.636"/>
</g>
<!-- Node59&#45;&gt;Node57 -->
<g id="edge6" class="edge"><title>Node59&#45;&gt;Node57</title>
<path fill="none" stroke="midnightblue" d="M312.299,-76.3589C337.099,-81.8257 366.452,-88.296 391.192,-93.7494"/>
<polygon fill="midnightblue" stroke="midnightblue" points="390.612,-97.2055 401.132,-95.9403 392.119,-90.3696 390.612,-97.2055"/>
</g>
</g>
</svg>
