<?xml version="1.0" encoding="UTF-8" standalone="no"?>
<!DOCTYPE svg PUBLIC "-//W3C//DTD SVG 1.1//EN"
 "http://www.w3.org/Graphics/SVG/1.1/DTD/svg11.dtd">
<!-- Generated by graphviz version 2.38.0 (20140413.2041)
 -->
<!-- Title: Catch::StringRef Pages: 1 -->
<svg width="201pt" height="95pt"
 viewBox="0.00 0.00 200.50 95.00" xmlns="http://www.w3.org/2000/svg" xmlns:xlink="http://www.w3.org/1999/xlink">
<g id="graph0" class="graph" transform="scale(1 1) rotate(0) translate(4 91)">
<title>Catch::StringRef</title>
<polygon fill="white" stroke="none" points="-4,4 -4,-91 196.5,-91 196.5,4 -4,4"/>
<!-- Node1 -->
<g id="node1" class="node"><title>Node1</title>
<polygon fill="#bfbfbf" stroke="black" points="63.5,-0.5 63.5,-19.5 153.5,-19.5 153.5,-0.5 63.5,-0.5"/>
<text text-anchor="middle" x="108.5" y="-7.5" font-family="Helvetica,sans-Serif" font-size="10.00">Catch::StringRef</text>
</g>
<!-- Node2 -->
<g id="node2" class="node"><title>Node2</title>
<polygon fill="white" stroke="#bfbfbf" points="0,-67.5 0,-86.5 69,-86.5 69,-67.5 0,-67.5"/>
<text text-anchor="middle" x="34.5" y="-74.5" font-family="Helvetica,sans-Serif" font-size="10.00">char const *</text>
</g>
<!-- Node2&#45;&gt;Node1 -->
<g id="edge1" class="edge"><title>Node2&#45;&gt;Node1</title>
<path fill="none" stroke="#9a32cd" stroke-dasharray="5,2" d="M47.4498,-59.1365C53.1985,-52.1919 60.2885,-44.3126 67.5,-38 75.4521,-31.0391 85.32,-24.4869 93.382,-19.5805"/>
<polygon fill="#9a32cd" stroke="#9a32cd" points="44.4806,-57.2458 40.9773,-67.2447 49.9514,-61.6129 44.4806,-57.2458"/>
<text text-anchor="middle" x="86" y="-41" font-family="Helvetica,sans-Serif" font-size="10.00"> m_start</text>
</g>
<!-- Node3 -->
<g id="node3" class="node"><title>Node3</title>
<polygon fill="white" stroke="#bfbfbf" points="87,-67.5 87,-86.5 130,-86.5 130,-67.5 87,-67.5"/>
<text text-anchor="middle" x="108.5" y="-74.5" font-family="Helvetica,sans-Serif" font-size="10.00">size_t</text>
</g>
<!-- Node3&#45;&gt;Node1 -->
<g id="edge2" class="edge"><title>Node3&#45;&gt;Node1</title>
<path fill="none" stroke="#9a32cd" stroke-dasharray="5,2" d="M108.5,-57.037C108.5,-44.6703 108.5,-29.1198 108.5,-19.6273"/>
<polygon fill="#9a32cd" stroke="#9a32cd" points="105,-57.2338 108.5,-67.2338 112,-57.2338 105,-57.2338"/>
<text text-anchor="middle" x="126" y="-41" font-family="Helvetica,sans-Serif" font-size="10.00"> m_size</text>
</g>
<!-- Node4 -->
<g id="node4" class="node"><title>Node4</title>
<polygon fill="white" stroke="#bfbfbf" points="148.5,-67.5 148.5,-86.5 190.5,-86.5 190.5,-67.5 148.5,-67.5"/>
<text text-anchor="middle" x="169.5" y="-74.5" font-family="Helvetica,sans-Serif" font-size="10.00">char *</text>
</g>
<!-- Node4&#45;&gt;Node1 -->
<g id="edge3" class="edge"><title>Node4&#45;&gt;Node1</title>
<path fill="none" stroke="#9a32cd" stroke-dasharray="5,2" d="M161.351,-58.2976C157.706,-51.4979 152.987,-43.9485 147.5,-38 140.8,-30.7359 131.812,-24.3493 124.153,-19.6136"/>
<polygon fill="#9a32cd" stroke="#9a32cd" points="158.31,-60.0439 165.886,-67.4497 164.582,-56.9355 158.31,-60.0439"/>
<text text-anchor="middle" x="174.5" y="-41" font-family="Helvetica,sans-Serif" font-size="10.00"> m_data</text>
</g>
</g>
</svg>
