<?xml version="1.0" encoding="UTF-8" standalone="no"?>
<!DOCTYPE svg PUBLIC "-//W3C//DTD SVG 1.1//EN"
 "http://www.w3.org/Graphics/SVG/1.1/DTD/svg11.dtd">
<!-- Generated by graphviz version 2.40.1 (20161225.0304)
 -->
<!-- Title: Cleaner::cleanGaps Pages: 1 -->
<svg width="778pt" height="550pt"
 viewBox="0.00 0.00 778.00 549.50" xmlns="http://www.w3.org/2000/svg" xmlns:xlink="http://www.w3.org/1999/xlink">
<g id="graph0" class="graph" transform="scale(1 1) rotate(0) translate(4 545.5)">
<title>Cleaner::cleanGaps</title>
<polygon fill="#ffffff" stroke="transparent" points="-4,4 -4,-545.5 774,-545.5 774,4 -4,4"/>
<!-- Node343 -->
<g id="node1" class="node">
<title>Node343</title>
<polygon fill="#bfbfbf" stroke="#000000" points="0,-367.5 0,-386.5 103,-386.5 103,-367.5 0,-367.5"/>
<text text-anchor="middle" x="51.5" y="-374.5" font-family="Helvetica,sans-Serif" font-size="10.00" fill="#000000">Cleaner::cleanGaps</text>
</g>
<!-- Node344 -->
<g id="node2" class="node">
<title>Node344</title>
<g id="a_node2"><a xlink:href="classstatistics_1_1_gaps.html#a487a85bf19dd7940ab1a2986601527c8" target="_top" xlink:title="statistics::Gaps::calcCut\lPoint">
<polygon fill="#ffffff" stroke="#000000" points="142.5,-338 142.5,-368 267.5,-368 267.5,-338 142.5,-338"/>
<text text-anchor="start" x="150.5" y="-356" font-family="Helvetica,sans-Serif" font-size="10.00" fill="#000000">statistics::Gaps::calcCut</text>
<text text-anchor="middle" x="205" y="-345" font-family="Helvetica,sans-Serif" font-size="10.00" fill="#000000">Point</text>
</a>
</g>
</g>
<!-- Node343&#45;&gt;Node344 -->
<g id="edge1" class="edge">
<title>Node343&#45;&gt;Node344</title>
<path fill="none" stroke="#191970" d="M103.0403,-368.9416C112.512,-367.4607 122.56,-365.8896 132.5121,-364.3336"/>
<polygon fill="#191970" stroke="#191970" points="133.0681,-367.7893 142.4074,-362.7865 131.9868,-360.8733 133.0681,-367.7893"/>
</g>
<!-- Node347 -->
<g id="node5" class="node">
<title>Node347</title>
<g id="a_node5"><a xlink:href="classstatistics_1_1_manager.html#a1969a416d3020d25daa56de6c5e305db" target="_top" xlink:title="Method to handle gap stat calculation It checks if the gaps submodule has been created, otherwise, creates it. ">
<polygon fill="#ffffff" stroke="#000000" points="153.5,-452 153.5,-482 256.5,-482 256.5,-452 153.5,-452"/>
<text text-anchor="start" x="161.5" y="-470" font-family="Helvetica,sans-Serif" font-size="10.00" fill="#000000">statistics::Manager</text>
<text text-anchor="middle" x="205" y="-459" font-family="Helvetica,sans-Serif" font-size="10.00" fill="#000000">::calculateGapStats</text>
</a>
</g>
</g>
<!-- Node343&#45;&gt;Node347 -->
<g id="edge4" class="edge">
<title>Node343&#45;&gt;Node347</title>
<path fill="none" stroke="#191970" d="M67.9272,-386.6316C92.2127,-400.8706 138.2664,-427.8728 170.2536,-446.6275"/>
<polygon fill="#191970" stroke="#191970" points="168.8837,-449.8815 179.2805,-451.9202 172.4242,-443.8429 168.8837,-449.8815"/>
</g>
<!-- Node353 -->
<g id="node11" class="node">
<title>Node353</title>
<g id="a_node11"><a xlink:href="class_cleaner.html#a13ae2074afb38708bc5cee9489d8ab6f" target="_top" xlink:title="Method to clean an alignment. &#160;It removes sequences that overpass or equals a certain threshold...">
<polygon fill="#ffffff" stroke="#000000" points="139,-190 139,-220 271,-220 271,-190 139,-190"/>
<text text-anchor="start" x="147" y="-208" font-family="Helvetica,sans-Serif" font-size="10.00" fill="#000000">Cleaner::cleanByCutValue</text>
<text text-anchor="middle" x="205" y="-197" font-family="Helvetica,sans-Serif" font-size="10.00" fill="#000000">Overpass</text>
</a>
</g>
</g>
<!-- Node343&#45;&gt;Node353 -->
<g id="edge12" class="edge">
<title>Node343&#45;&gt;Node353</title>
<path fill="none" stroke="#191970" d="M60.1926,-367.2597C84.0543,-340.5222 151.0415,-265.4616 184.8884,-227.5354"/>
<polygon fill="#191970" stroke="#191970" points="187.5334,-229.8282 191.5805,-220.0368 182.3107,-225.1673 187.5334,-229.8282"/>
</g>
<!-- Node365 -->
<g id="node23" class="node">
<title>Node365</title>
<g id="a_node23"><a xlink:href="classstatistics_1_1_gaps.html#ab5b60db326475f8adc68b130e22b3963" target="_top" xlink:title="statistics::Gaps::getGaps\lWindow">
<polygon fill="#ffffff" stroke="#000000" points="141,-387 141,-417 269,-417 269,-387 141,-387"/>
<text text-anchor="start" x="149" y="-405" font-family="Helvetica,sans-Serif" font-size="10.00" fill="#000000">statistics::Gaps::getGaps</text>
<text text-anchor="middle" x="205" y="-394" font-family="Helvetica,sans-Serif" font-size="10.00" fill="#000000">Window</text>
</a>
</g>
</g>
<!-- Node343&#45;&gt;Node365 -->
<g id="edge26" class="edge">
<title>Node343&#45;&gt;Node365</title>
<path fill="none" stroke="#191970" d="M103.0403,-385.3942C111.9309,-386.8422 121.3293,-388.3728 130.6795,-389.8957"/>
<polygon fill="#191970" stroke="#191970" points="130.3477,-393.3877 140.7803,-391.5408 131.473,-386.4787 130.3477,-393.3877"/>
</g>
<!-- Node345 -->
<g id="node3" class="node">
<title>Node345</title>
<g id="a_node3"><a xlink:href="namespaceutils.html#ad50731aeb3c8f79ed8372516210dfc9d" target="_top" xlink:title="Round double to integer method. ">
<polygon fill="#ffffff" stroke="#000000" points="518,-308.5 518,-327.5 594,-327.5 594,-308.5 518,-308.5"/>
<text text-anchor="middle" x="556" y="-315.5" font-family="Helvetica,sans-Serif" font-size="10.00" fill="#000000">utils::roundInt</text>
</a>
</g>
</g>
<!-- Node344&#45;&gt;Node345 -->
<g id="edge2" class="edge">
<title>Node344&#45;&gt;Node345</title>
<path fill="none" stroke="#191970" d="M267.7376,-342.3561C280.6937,-340.384 294.2697,-338.4818 307,-337 376.5536,-328.9041 457.456,-323.4609 507.702,-320.5457"/>
<polygon fill="#191970" stroke="#191970" points="508.1589,-324.0254 517.9435,-319.962 507.7605,-317.0368 508.1589,-324.0254"/>
</g>
<!-- Node346 -->
<g id="node4" class="node">
<title>Node346</title>
<g id="a_node4"><a xlink:href="namespaceutils.html#a91f98ed74c54fdc1ee7ae6c7e770591c" target="_top" xlink:title="Maximum of two numbers method. ">
<polygon fill="#ffffff" stroke="#000000" points="353.5,-346.5 353.5,-365.5 412.5,-365.5 412.5,-346.5 353.5,-346.5"/>
<text text-anchor="middle" x="383" y="-353.5" font-family="Helvetica,sans-Serif" font-size="10.00" fill="#000000">utils::max</text>
</a>
</g>
</g>
<!-- Node344&#45;&gt;Node346 -->
<g id="edge3" class="edge">
<title>Node344&#45;&gt;Node346</title>
<path fill="none" stroke="#191970" d="M267.5058,-354.0535C292.5845,-354.4761 320.7513,-354.9509 342.9902,-355.3257"/>
<polygon fill="#191970" stroke="#191970" points="343.0167,-358.8265 353.0743,-355.4956 343.1347,-351.8275 343.0167,-358.8265"/>
</g>
<!-- Node348 -->
<g id="node6" class="node">
<title>Node348</title>
<g id="a_node6"><a xlink:href="classstatistics_1_1_gaps.html#a2f1d71bafa5e44e5f2c96771cf2a26ed" target="_top" xlink:title="statistics::Gaps::Gaps">
<polygon fill="#ffffff" stroke="#000000" points="325.5,-472.5 325.5,-491.5 440.5,-491.5 440.5,-472.5 325.5,-472.5"/>
<text text-anchor="middle" x="383" y="-479.5" font-family="Helvetica,sans-Serif" font-size="10.00" fill="#000000">statistics::Gaps::Gaps</text>
</a>
</g>
</g>
<!-- Node347&#45;&gt;Node348 -->
<g id="edge5" class="edge">
<title>Node347&#45;&gt;Node348</title>
<path fill="none" stroke="#191970" d="M256.9635,-471.3789C275.2266,-472.918 296.0222,-474.6704 315.3829,-476.3019"/>
<polygon fill="#191970" stroke="#191970" points="315.0968,-479.7901 325.3554,-477.1423 315.6847,-472.8149 315.0968,-479.7901"/>
</g>
<!-- Node350 -->
<g id="node8" class="node">
<title>Node350</title>
<g id="a_node8"><a xlink:href="classstatistics_1_1_gaps.html#aa3526494d5100e062daa4afba755d0b1" target="_top" xlink:title="statistics::Gaps::Calculate\lVectors">
<polygon fill="#ffffff" stroke="#000000" points="316.5,-511 316.5,-541 449.5,-541 449.5,-511 316.5,-511"/>
<text text-anchor="start" x="324.5" y="-529" font-family="Helvetica,sans-Serif" font-size="10.00" fill="#000000">statistics::Gaps::Calculate</text>
<text text-anchor="middle" x="383" y="-518" font-family="Helvetica,sans-Serif" font-size="10.00" fill="#000000">Vectors</text>
</a>
</g>
</g>
<!-- Node347&#45;&gt;Node350 -->
<g id="edge7" class="edge">
<title>Node347&#45;&gt;Node350</title>
<path fill="none" stroke="#191970" d="M249.9254,-482.0177C267.6962,-487.947 288.3054,-494.8095 307,-501 313.5558,-503.1709 320.4318,-505.4415 327.2564,-507.6913"/>
<polygon fill="#191970" stroke="#191970" points="326.582,-511.1541 337.175,-510.9584 328.7721,-504.5055 326.582,-511.1541"/>
</g>
<!-- Node351 -->
<g id="node9" class="node">
<title>Node351</title>
<g id="a_node9"><a xlink:href="classstatistics_1_1_gaps.html#aee36b772767467cdba2061df2305e85d" target="_top" xlink:title="statistics::Gaps::applyWindow">
<polygon fill="#ffffff" stroke="#000000" points="308,-434.5 308,-453.5 458,-453.5 458,-434.5 308,-434.5"/>
<text text-anchor="middle" x="383" y="-441.5" font-family="Helvetica,sans-Serif" font-size="10.00" fill="#000000">statistics::Gaps::applyWindow</text>
</a>
</g>
</g>
<!-- Node347&#45;&gt;Node351 -->
<g id="edge8" class="edge">
<title>Node347&#45;&gt;Node351</title>
<path fill="none" stroke="#191970" d="M256.9635,-460.2856C270.3035,-458.5619 284.9947,-456.6636 299.4908,-454.7905"/>
<polygon fill="#191970" stroke="#191970" points="300.0075,-458.2529 309.4765,-453.5002 299.1104,-451.3107 300.0075,-458.2529"/>
</g>
<!-- Node349 -->
<g id="node7" class="node">
<title>Node349</title>
<g id="a_node7"><a xlink:href="namespaceutils.html#aac322cd1761fddedec8a5792e358eb32" target="_top" xlink:title="Vector initialization. ">
<polygon fill="#ffffff" stroke="#000000" points="518,-472.5 518,-491.5 594,-491.5 594,-472.5 518,-472.5"/>
<text text-anchor="middle" x="556" y="-479.5" font-family="Helvetica,sans-Serif" font-size="10.00" fill="#000000">utils::initlVect</text>
</a>
</g>
</g>
<!-- Node348&#45;&gt;Node349 -->
<g id="edge6" class="edge">
<title>Node348&#45;&gt;Node349</title>
<path fill="none" stroke="#191970" d="M440.6065,-482C462.3848,-482 486.9239,-482 507.7558,-482"/>
<polygon fill="#191970" stroke="#191970" points="507.9659,-485.5001 517.9659,-482 507.9658,-478.5001 507.9659,-485.5001"/>
</g>
<!-- Node351&#45;&gt;Node345 -->
<g id="edge11" class="edge">
<title>Node351&#45;&gt;Node345</title>
<path fill="none" stroke="#191970" d="M437.7171,-434.496C445.1542,-432.0244 452.4662,-428.9137 459,-425 496.7884,-402.365 528.3933,-360.4062 544.5055,-336.3051"/>
<polygon fill="#191970" stroke="#191970" points="547.5597,-338.0287 550.0811,-327.7383 541.6928,-334.2103 547.5597,-338.0287"/>
</g>
<!-- Node351&#45;&gt;Node349 -->
<g id="edge10" class="edge">
<title>Node351&#45;&gt;Node349</title>
<path fill="none" stroke="#191970" d="M426.6552,-453.589C451.4864,-459.0433 482.6195,-465.8817 508.1187,-471.4827"/>
<polygon fill="#191970" stroke="#191970" points="507.4294,-474.9147 517.9475,-473.6416 508.9312,-468.0777 507.4294,-474.9147"/>
</g>
<!-- Node352 -->
<g id="node10" class="node">
<title>Node352</title>
<g id="a_node10"><a xlink:href="classreporting_1_1report_manager.html#a6d122e673144584e0869bd33b8a5c1c6" target="_top" xlink:title="Method to report an Error. &#160;It will be displayed if Level &#160;is equal or higher to VerboseLevel::ERROR...">
<polygon fill="#ffffff" stroke="#000000" points="495,-423 495,-453 617,-453 617,-423 495,-423"/>
<text text-anchor="start" x="503" y="-441" font-family="Helvetica,sans-Serif" font-size="10.00" fill="#000000">reporting::reportManager</text>
<text text-anchor="middle" x="556" y="-430" font-family="Helvetica,sans-Serif" font-size="10.00" fill="#000000">::report</text>
</a>
</g>
</g>
<!-- Node351&#45;&gt;Node352 -->
<g id="edge9" class="edge">
<title>Node351&#45;&gt;Node352</title>
<path fill="none" stroke="#191970" d="M458.1256,-441.3945C466.9736,-441.0876 475.9831,-440.7752 484.7753,-440.4702"/>
<polygon fill="#191970" stroke="#191970" points="485.1012,-443.9611 494.9739,-440.1165 484.8585,-436.9653 485.1012,-443.9611"/>
</g>
<!-- Node353&#45;&gt;Node345 -->
<g id="edge25" class="edge">
<title>Node353&#45;&gt;Node345</title>
<path fill="none" stroke="#191970" d="M228.013,-220.0597C248.125,-232.6183 278.4894,-250.1524 307,-261 374.4722,-286.6717 456.8174,-302.7427 507.8388,-311.0426"/>
<polygon fill="#191970" stroke="#191970" points="507.4968,-314.5322 517.9228,-312.648 508.5974,-307.6192 507.4968,-314.5322"/>
</g>
<!-- Node354 -->
<g id="node12" class="node">
<title>Node354</title>
<g id="a_node12"><a xlink:href="class_alignment.html#aeeee94970a445f32aa79646c249befef" target="_top" xlink:title="Copy Constructor. &#160;&#160;The copy constructor does not make a copy of all structures present on the origin...">
<polygon fill="#ffffff" stroke="#000000" points="328,-88.5 328,-107.5 438,-107.5 438,-88.5 328,-88.5"/>
<text text-anchor="middle" x="383" y="-95.5" font-family="Helvetica,sans-Serif" font-size="10.00" fill="#000000">Alignment::Alignment</text>
</a>
</g>
</g>
<!-- Node353&#45;&gt;Node354 -->
<g id="edge13" class="edge">
<title>Node353&#45;&gt;Node354</title>
<path fill="none" stroke="#191970" d="M218.2602,-189.8043C236.343,-170.0462 270.6663,-135.8425 307,-117 311.5615,-114.6344 316.432,-112.5532 321.4209,-110.724"/>
<polygon fill="#191970" stroke="#191970" points="322.7219,-113.98 331.1105,-107.5084 320.5171,-107.3363 322.7219,-113.98"/>
</g>
<!-- Node360 -->
<g id="node18" class="node">
<title>Node360</title>
<g id="a_node18"><a xlink:href="namespaceutils.html#a3ff3252e3c5d743757b001734501fe60" target="_top" xlink:title="Quicksort sorting method. ">
<polygon fill="#ffffff" stroke="#000000" points="343,-214.5 343,-233.5 423,-233.5 423,-214.5 343,-214.5"/>
<text text-anchor="middle" x="383" y="-221.5" font-family="Helvetica,sans-Serif" font-size="10.00" fill="#000000">utils::quicksort</text>
</a>
</g>
</g>
<!-- Node353&#45;&gt;Node360 -->
<g id="edge19" class="edge">
<title>Node353&#45;&gt;Node360</title>
<path fill="none" stroke="#191970" d="M271.0277,-212.0479C291.4911,-214.2322 313.6939,-216.6022 332.8914,-218.6513"/>
<polygon fill="#191970" stroke="#191970" points="332.6083,-222.1409 342.9233,-219.7222 333.3513,-215.1804 332.6083,-222.1409"/>
</g>
<!-- Node362 -->
<g id="node20" class="node">
<title>Node362</title>
<g id="a_node20"><a xlink:href="class_cleaner.html#ada8ad076dd037f00ae3f4fd17762641f" target="_top" xlink:title="Method that identifies and removes columns and sequences composed only by gaps. ">
<polygon fill="#ffffff" stroke="#000000" points="310,-127 310,-157 456,-157 456,-127 310,-127"/>
<text text-anchor="start" x="318" y="-145" font-family="Helvetica,sans-Serif" font-size="10.00" fill="#000000">Cleaner::removeAllGapsSeqs</text>
<text text-anchor="middle" x="383" y="-134" font-family="Helvetica,sans-Serif" font-size="10.00" fill="#000000">AndCols</text>
</a>
</g>
</g>
<!-- Node353&#45;&gt;Node362 -->
<g id="edge22" class="edge">
<title>Node353&#45;&gt;Node362</title>
<path fill="none" stroke="#191970" d="M244.5907,-189.8431C263.4314,-182.7348 286.3137,-174.2526 307,-167 313.3409,-164.7769 319.9991,-162.5013 326.6284,-160.2724"/>
<polygon fill="#191970" stroke="#191970" points="327.902,-163.5372 336.2799,-157.0517 325.6862,-156.8971 327.902,-163.5372"/>
</g>
<!-- Node364 -->
<g id="node22" class="node">
<title>Node364</title>
<g id="a_node22"><a xlink:href="class_cleaner.html#a5620f6a511bc0ac844c71b2de3ae1fdb" target="_top" xlink:title="Method to remove blocks of columns with no rejected residue smaller than a given size. ">
<polygon fill="#ffffff" stroke="#000000" points="307,-176.5 307,-195.5 459,-195.5 459,-176.5 307,-176.5"/>
<text text-anchor="middle" x="383" y="-183.5" font-family="Helvetica,sans-Serif" font-size="10.00" fill="#000000">Cleaner::removeSmallerBlocks</text>
</a>
</g>
</g>
<!-- Node353&#45;&gt;Node364 -->
<g id="edge24" class="edge">
<title>Node353&#45;&gt;Node364</title>
<path fill="none" stroke="#191970" d="M271.0277,-197.9521C279.419,-197.0564 288.1027,-196.1295 296.7518,-195.2063"/>
<polygon fill="#191970" stroke="#191970" points="297.2976,-198.668 306.8696,-194.1263 296.5545,-191.7075 297.2976,-198.668"/>
</g>
<!-- Node355 -->
<g id="node13" class="node">
<title>Node355</title>
<g id="a_node13"><a xlink:href="class_cleaner.html#afe42cb635ddd6bd968ae57e378deaac8" target="_top" xlink:title="Copy Constructor &#45; Called by Alignment. ">
<polygon fill="#ffffff" stroke="#000000" points="511,-88.5 511,-107.5 601,-107.5 601,-88.5 511,-88.5"/>
<text text-anchor="middle" x="556" y="-95.5" font-family="Helvetica,sans-Serif" font-size="10.00" fill="#000000">Cleaner::Cleaner</text>
</a>
</g>
</g>
<!-- Node354&#45;&gt;Node355 -->
<g id="edge14" class="edge">
<title>Node354&#45;&gt;Node355</title>
<path fill="none" stroke="#191970" d="M438.2139,-98C458.1711,-98 480.6962,-98 500.6639,-98"/>
<polygon fill="#191970" stroke="#191970" points="500.8455,-101.5001 510.8455,-98 500.8454,-94.5001 500.8455,-101.5001"/>
</g>
<!-- Node356 -->
<g id="node14" class="node">
<title>Node356</title>
<g id="a_node14"><a xlink:href="classstatistics_1_1_manager.html#aee28602da015edb0880d59ce4c0f855d" target="_top" xlink:title="statistics::Manager\l::Manager">
<polygon fill="#ffffff" stroke="#000000" points="506,-39 506,-69 606,-69 606,-39 506,-39"/>
<text text-anchor="start" x="514" y="-57" font-family="Helvetica,sans-Serif" font-size="10.00" fill="#000000">statistics::Manager</text>
<text text-anchor="middle" x="556" y="-46" font-family="Helvetica,sans-Serif" font-size="10.00" fill="#000000">::Manager</text>
</a>
</g>
</g>
<!-- Node354&#45;&gt;Node356 -->
<g id="edge15" class="edge">
<title>Node354&#45;&gt;Node356</title>
<path fill="none" stroke="#191970" d="M420.5384,-88.4527C442.5588,-82.8521 470.8914,-75.6461 495.948,-69.2733"/>
<polygon fill="#191970" stroke="#191970" points="496.9019,-72.6422 505.7307,-66.7853 495.1765,-65.8582 496.9019,-72.6422"/>
</g>
<!-- Node357 -->
<g id="node15" class="node">
<title>Node357</title>
<g id="a_node15"><a xlink:href="classstatistics_1_1_similarity.html#afecab92459785c7568511217969f6cde" target="_top" xlink:title="statistics::Similarity\l::Similarity">
<polygon fill="#ffffff" stroke="#000000" points="660,-88 660,-118 763,-118 763,-88 660,-88"/>
<text text-anchor="start" x="668" y="-106" font-family="Helvetica,sans-Serif" font-size="10.00" fill="#000000">statistics::Similarity</text>
<text text-anchor="middle" x="711.5" y="-95" font-family="Helvetica,sans-Serif" font-size="10.00" fill="#000000">::Similarity</text>
</a>
</g>
</g>
<!-- Node356&#45;&gt;Node357 -->
<g id="edge16" class="edge">
<title>Node356&#45;&gt;Node357</title>
<path fill="none" stroke="#191970" d="M603.924,-69.1014C619.8131,-74.1083 637.6611,-79.7324 654.1839,-84.939"/>
<polygon fill="#191970" stroke="#191970" points="653.1447,-88.2811 663.7343,-87.9484 655.2485,-81.6047 653.1447,-88.2811"/>
</g>
<!-- Node358 -->
<g id="node16" class="node">
<title>Node358</title>
<g id="a_node16"><a xlink:href="classstatistics_1_1_consistency.html#ae39d2aae825d263ac8c3198782b824d2" target="_top" xlink:title="Copy constructor. ">
<polygon fill="#ffffff" stroke="#000000" points="653,-39 653,-69 770,-69 770,-39 653,-39"/>
<text text-anchor="start" x="661" y="-57" font-family="Helvetica,sans-Serif" font-size="10.00" fill="#000000">statistics::Consistency</text>
<text text-anchor="middle" x="711.5" y="-46" font-family="Helvetica,sans-Serif" font-size="10.00" fill="#000000">::Consistency</text>
</a>
</g>
</g>
<!-- Node356&#45;&gt;Node358 -->
<g id="edge17" class="edge">
<title>Node356&#45;&gt;Node358</title>
<path fill="none" stroke="#191970" d="M606.0571,-54C617.7101,-54 630.3177,-54 642.6248,-54"/>
<polygon fill="#191970" stroke="#191970" points="642.8645,-57.5001 652.8645,-54 642.8644,-50.5001 642.8645,-57.5001"/>
</g>
<!-- Node359 -->
<g id="node17" class="node">
<title>Node359</title>
<g id="a_node17"><a xlink:href="classstatistics_1_1_gaps.html#a0233d71123523698b0bbf6fe6119b630" target="_top" xlink:title="statistics::Gaps::Gaps">
<polygon fill="#ffffff" stroke="#000000" points="654,-.5 654,-19.5 769,-19.5 769,-.5 654,-.5"/>
<text text-anchor="middle" x="711.5" y="-7.5" font-family="Helvetica,sans-Serif" font-size="10.00" fill="#000000">statistics::Gaps::Gaps</text>
</a>
</g>
</g>
<!-- Node356&#45;&gt;Node359 -->
<g id="edge18" class="edge">
<title>Node356&#45;&gt;Node359</title>
<path fill="none" stroke="#191970" d="M606.0571,-39.8359C626.017,-34.1881 648.7777,-27.7478 668.0314,-22.2998"/>
<polygon fill="#191970" stroke="#191970" points="669.0776,-25.6413 677.7468,-19.5507 667.1717,-18.9057 669.0776,-25.6413"/>
</g>
<!-- Node360&#45;&gt;Node360 -->
<g id="edge21" class="edge">
<title>Node360&#45;&gt;Node360</title>
<path fill="none" stroke="#191970" d="M356.4898,-233.7571C343.593,-242.5653 352.4297,-252 383,-252 403.5394,-252 414.268,-247.741 415.1856,-242.2746"/>
<polygon fill="#191970" stroke="#191970" points="417.9679,-240.1381 409.5102,-233.7571 412.1426,-244.0197 417.9679,-240.1381"/>
</g>
<!-- Node361 -->
<g id="node19" class="node">
<title>Node361</title>
<g id="a_node19"><a xlink:href="namespaceutils.html#a5edf67302e70aeb92a9085023954f368" target="_top" xlink:title="Swapping elements method. ">
<polygon fill="#ffffff" stroke="#000000" points="524,-214.5 524,-233.5 588,-233.5 588,-214.5 524,-214.5"/>
<text text-anchor="middle" x="556" y="-221.5" font-family="Helvetica,sans-Serif" font-size="10.00" fill="#000000">utils::swap</text>
</a>
</g>
</g>
<!-- Node360&#45;&gt;Node361 -->
<g id="edge20" class="edge">
<title>Node360&#45;&gt;Node361</title>
<path fill="none" stroke="#191970" d="M423.1245,-224C450.2968,-224 486.1373,-224 513.7472,-224"/>
<polygon fill="#191970" stroke="#191970" points="513.8908,-227.5001 523.8907,-224 513.8907,-220.5001 513.8908,-227.5001"/>
</g>
<!-- Node363 -->
<g id="node21" class="node">
<title>Node363</title>
<g id="a_node21"><a xlink:href="classreporting_1_1report_manager.html#a75a240a78f31ba479892a9a0f53996fa" target="_top" xlink:title="Method to report a Warning. &#160;It will be displayed if Level &#160;is equal or higher to VerboseLevel::WARNI...">
<polygon fill="#ffffff" stroke="#000000" points="495,-127 495,-157 617,-157 617,-127 495,-127"/>
<text text-anchor="start" x="503" y="-145" font-family="Helvetica,sans-Serif" font-size="10.00" fill="#000000">reporting::reportManager</text>
<text text-anchor="middle" x="556" y="-134" font-family="Helvetica,sans-Serif" font-size="10.00" fill="#000000">::report</text>
</a>
</g>
</g>
<!-- Node362&#45;&gt;Node363 -->
<g id="edge23" class="edge">
<title>Node362&#45;&gt;Node363</title>
<path fill="none" stroke="#191970" d="M456.1168,-142C465.598,-142 475.299,-142 484.7492,-142"/>
<polygon fill="#191970" stroke="#191970" points="484.8831,-145.5001 494.8831,-142 484.883,-138.5001 484.8831,-145.5001"/>
</g>
<!-- Node365&#45;&gt;Node351 -->
<g id="edge28" class="edge">
<title>Node365&#45;&gt;Node351</title>
<path fill="none" stroke="#191970" d="M268.7593,-417.0443C289.8379,-422.0179 312.9757,-427.4774 332.8829,-432.1746"/>
<polygon fill="#191970" stroke="#191970" points="332.1342,-435.594 342.6707,-434.4841 333.7418,-428.7811 332.1342,-435.594"/>
</g>
<!-- Node366 -->
<g id="node24" class="node">
<title>Node366</title>
<g id="a_node24"><a xlink:href="classstatistics_1_1_gaps.html#ad812a924cf5e3f900aad3ed4a9664300" target="_top" xlink:title="statistics::Gaps::isDefined\lWindow">
<polygon fill="#ffffff" stroke="#000000" points="316.5,-385 316.5,-415 449.5,-415 449.5,-385 316.5,-385"/>
<text text-anchor="start" x="324.5" y="-403" font-family="Helvetica,sans-Serif" font-size="10.00" fill="#000000">statistics::Gaps::isDefined</text>
<text text-anchor="middle" x="383" y="-392" font-family="Helvetica,sans-Serif" font-size="10.00" fill="#000000">Window</text>
</a>
</g>
</g>
<!-- Node365&#45;&gt;Node366 -->
<g id="edge27" class="edge">
<title>Node365&#45;&gt;Node366</title>
<path fill="none" stroke="#191970" d="M269.0106,-401.2808C281.0021,-401.146 293.6522,-401.0039 305.9893,-400.8653"/>
<polygon fill="#191970" stroke="#191970" points="306.2975,-404.3621 316.2575,-400.7499 306.2188,-397.3626 306.2975,-404.3621"/>
</g>
</g>
</svg>
