<?xml version="1.0" encoding="UTF-8" standalone="no"?>
<!DOCTYPE svg PUBLIC "-//W3C//DTD SVG 1.1//EN"
 "http://www.w3.org/Graphics/SVG/1.1/DTD/svg11.dtd">
<!-- Generated by graphviz version 2.38.0 (20140413.2041)
 -->
<!-- Title: statisticsConservation::getMdkWindowedVector Pages: 1 -->
<svg width="1029pt" height="192pt"
 viewBox="0.00 0.00 1029.00 192.00" xmlns="http://www.w3.org/2000/svg" xmlns:xlink="http://www.w3.org/1999/xlink">
<g id="graph0" class="graph" transform="scale(1 1) rotate(0) translate(4 188)">
<title>statisticsConservation::getMdkWindowedVector</title>
<polygon fill="white" stroke="none" points="-4,4 -4,-188 1025,-188 1025,4 -4,4"/>
<!-- Node61 -->
<g id="node1" class="node"><title>Node61</title>
<polygon fill="#bfbfbf" stroke="black" points="0,-77 0,-107 129,-107 129,-77 0,-77"/>
<text text-anchor="start" x="8" y="-95" font-family="Helvetica,sans-Serif" font-size="10.00">statisticsConservation</text>
<text text-anchor="middle" x="64.5" y="-84" font-family="Helvetica,sans-Serif" font-size="10.00">::getMdkWindowedVector</text>
</g>
<!-- Node62 -->
<g id="node2" class="node"><title>Node62</title>
<g id="a_node2"><a xlink:href="classnew_alignment.html#a2607115c839209324dca54d70fc8708d" target="_top" xlink:title="Method to report the trimming results in HTML. Outputs an HTML file that shows visually what has been...">
<polygon fill="white" stroke="black" points="165,-164.5 165,-183.5 360,-183.5 360,-164.5 165,-164.5"/>
<text text-anchor="middle" x="262.5" y="-171.5" font-family="Helvetica,sans-Serif" font-size="10.00">newAlignment::alignmentSummaryHTML</text>
</a>
</g>
</g>
<!-- Node61&#45;&gt;Node62 -->
<g id="edge1" class="edge"><title>Node61&#45;&gt;Node62</title>
<path fill="none" stroke="midnightblue" d="M95.6711,-112.628C114.825,-124.94 140.531,-140.063 165,-150 179.716,-155.976 196.317,-160.756 211.549,-164.429"/>
<polygon fill="midnightblue" stroke="midnightblue" points="97.3804,-109.564 87.0951,-107.022 93.5501,-115.423 97.3804,-109.564"/>
</g>
<!-- Node63 -->
<g id="node3" class="node"><title>Node63</title>
<g id="a_node3"><a xlink:href="classstatistics_conservation.html#aa11412e9db5babc6dc7b2b4c7c471ed6" target="_top" xlink:title="Computes and selects the cut point values based on conservation&#39;s values. ">
<polygon fill="white" stroke="black" points="205.5,-77 205.5,-107 319.5,-107 319.5,-77 205.5,-77"/>
<text text-anchor="start" x="213.5" y="-95" font-family="Helvetica,sans-Serif" font-size="10.00">statisticsConservation</text>
<text text-anchor="middle" x="262.5" y="-84" font-family="Helvetica,sans-Serif" font-size="10.00">::calcCutPoint</text>
</a>
</g>
</g>
<!-- Node61&#45;&gt;Node63 -->
<g id="edge2" class="edge"><title>Node61&#45;&gt;Node63</title>
<path fill="none" stroke="midnightblue" d="M139.388,-92C161.279,-92 184.881,-92 205.445,-92"/>
<polygon fill="midnightblue" stroke="midnightblue" points="139.136,-88.5001 129.136,-92 139.136,-95.5001 139.136,-88.5001"/>
</g>
<!-- Node64 -->
<g id="node4" class="node"><title>Node64</title>
<g id="a_node4"><a xlink:href="class_cleaner.html#a1ac5ba504932526d77575365557a4d64" target="_top" xlink:title="Method to trim an alignment based on the similarity and gaps distribution values. ...">
<polygon fill="white" stroke="black" points="424.5,-101.5 424.5,-120.5 504.5,-120.5 504.5,-101.5 424.5,-101.5"/>
<text text-anchor="middle" x="464.5" y="-108.5" font-family="Helvetica,sans-Serif" font-size="10.00">Cleaner::clean</text>
</a>
</g>
</g>
<!-- Node61&#45;&gt;Node64 -->
<g id="edge9" class="edge"><title>Node61&#45;&gt;Node64</title>
<path fill="none" stroke="midnightblue" d="M124.973,-109.473C138.046,-112.602 151.9,-115.379 165,-117 257.337,-128.423 366.941,-120.877 424.201,-115.347"/>
<polygon fill="midnightblue" stroke="midnightblue" points="125.703,-106.048 115.153,-107.026 124.01,-112.841 125.703,-106.048"/>
</g>
<!-- Node68 -->
<g id="node8" class="node"><title>Node68</title>
<g id="a_node8"><a xlink:href="class_cleaner.html#a694d53fdd5d1ac9455858e48537af3d0" target="_top" xlink:title="Method to trim an alignment based on the similarity distribution values. ">
<polygon fill="white" stroke="black" points="396,-63.5 396,-82.5 533,-82.5 533,-63.5 396,-63.5"/>
<text text-anchor="middle" x="464.5" y="-70.5" font-family="Helvetica,sans-Serif" font-size="10.00">Cleaner::cleanConservation</text>
</a>
</g>
</g>
<!-- Node61&#45;&gt;Node68 -->
<g id="edge11" class="edge"><title>Node61&#45;&gt;Node68</title>
<path fill="none" stroke="midnightblue" d="M127.488,-74.6604C139.821,-71.889 152.747,-69.4568 165,-68 243.874,-58.622 335.286,-62.2638 395.959,-66.6979"/>
<polygon fill="midnightblue" stroke="midnightblue" points="126.686,-71.2534 117.749,-76.9434 128.284,-78.0687 126.686,-71.2534"/>
</g>
<!-- Node69 -->
<g id="node9" class="node"><title>Node69</title>
<g id="a_node9"><a xlink:href="class_cleaner.html#a068b219f913adba5c917a231cff7e437" target="_top" xlink:title="Method to clean an alignment. It carries out strict and strictplus. The method: ">
<polygon fill="white" stroke="black" points="191,-0.5 191,-19.5 334,-19.5 334,-0.5 191,-0.5"/>
<text text-anchor="middle" x="262.5" y="-7.5" font-family="Helvetica,sans-Serif" font-size="10.00">Cleaner::cleanCombMethods</text>
</a>
</g>
</g>
<!-- Node61&#45;&gt;Node69 -->
<g id="edge10" class="edge"><title>Node61&#45;&gt;Node69</title>
<path fill="none" stroke="midnightblue" d="M95.6711,-71.3718C114.825,-59.0597 140.531,-43.937 165,-34 179.716,-28.0239 196.317,-23.2435 211.549,-19.5712"/>
<polygon fill="midnightblue" stroke="midnightblue" points="93.5501,-68.5767 87.0951,-76.9781 97.3804,-74.4359 93.5501,-68.5767"/>
</g>
<!-- Node63&#45;&gt;Node64 -->
<g id="edge3" class="edge"><title>Node63&#45;&gt;Node64</title>
<path fill="none" stroke="midnightblue" d="M329.739,-98.2927C361.127,-101.275 397.543,-104.734 424.446,-107.29"/>
<polygon fill="midnightblue" stroke="midnightblue" points="330.03,-94.8046 319.743,-97.3431 329.368,-101.773 330.03,-94.8046"/>
</g>
<!-- Node63&#45;&gt;Node68 -->
<g id="edge7" class="edge"><title>Node63&#45;&gt;Node68</title>
<path fill="none" stroke="midnightblue" d="M329.958,-85.6865C351.178,-83.6706 374.678,-81.4381 395.973,-79.415"/>
<polygon fill="midnightblue" stroke="midnightblue" points="329.368,-82.2267 319.743,-86.6569 330.03,-89.1954 329.368,-82.2267"/>
</g>
<!-- Node65 -->
<g id="node5" class="node"><title>Node65</title>
<g id="a_node5"><a xlink:href="classtrim_al_manager.html#aebfd21b0435302f0e4fc45a068d1b6ee" target="_top" xlink:title="Method to trim the alignment using non automatic methods: ">
<polygon fill="white" stroke="black" points="569,-77 569,-107 721,-107 721,-77 569,-77"/>
<text text-anchor="start" x="577" y="-95" font-family="Helvetica,sans-Serif" font-size="10.00">trimAlManager::CleanResidues</text>
<text text-anchor="middle" x="645" y="-84" font-family="Helvetica,sans-Serif" font-size="10.00">NonAuto</text>
</a>
</g>
</g>
<!-- Node64&#45;&gt;Node65 -->
<g id="edge4" class="edge"><title>Node64&#45;&gt;Node65</title>
<path fill="none" stroke="midnightblue" d="M514.773,-105.755C531.532,-103.971 550.661,-101.935 568.971,-99.9863"/>
<polygon fill="midnightblue" stroke="midnightblue" points="514.246,-102.291 504.673,-106.83 514.987,-109.252 514.246,-102.291"/>
</g>
<!-- Node66 -->
<g id="node6" class="node"><title>Node66</title>
<g id="a_node6"><a xlink:href="classtrim_al_manager.html#adc529dd893ed4e9df6f3ddbd58776068" target="_top" xlink:title="Core Method of the program. This is where almost all cleaning methods are called from. ">
<polygon fill="white" stroke="black" points="757,-77 757,-107 866,-107 866,-77 757,-77"/>
<text text-anchor="start" x="765" y="-95" font-family="Helvetica,sans-Serif" font-size="10.00">trimAlManager::clean</text>
<text text-anchor="middle" x="811.5" y="-84" font-family="Helvetica,sans-Serif" font-size="10.00">_alignment</text>
</a>
</g>
</g>
<!-- Node65&#45;&gt;Node66 -->
<g id="edge5" class="edge"><title>Node65&#45;&gt;Node66</title>
<path fill="none" stroke="midnightblue" d="M731.208,-92C739.881,-92 748.511,-92 756.709,-92"/>
<polygon fill="midnightblue" stroke="midnightblue" points="731.029,-88.5001 721.029,-92 731.029,-95.5001 731.029,-88.5001"/>
</g>
<!-- Node67 -->
<g id="node7" class="node"><title>Node67</title>
<g id="a_node7"><a xlink:href="classtrim_al_manager.html#abe8d2841455c644dc9c7d1294b82b00f" target="_top" xlink:title="Method to perform the analysis if all checks have passed. ">
<polygon fill="white" stroke="black" points="902,-82.5 902,-101.5 1021,-101.5 1021,-82.5 902,-82.5"/>
<text text-anchor="middle" x="961.5" y="-89.5" font-family="Helvetica,sans-Serif" font-size="10.00">trimAlManager::perform</text>
</a>
</g>
</g>
<!-- Node66&#45;&gt;Node67 -->
<g id="edge6" class="edge"><title>Node66&#45;&gt;Node67</title>
<path fill="none" stroke="midnightblue" d="M876.532,-92C884.977,-92 893.597,-92 901.943,-92"/>
<polygon fill="midnightblue" stroke="midnightblue" points="876.35,-88.5001 866.35,-92 876.35,-95.5001 876.35,-88.5001"/>
</g>
<!-- Node68&#45;&gt;Node65 -->
<g id="edge8" class="edge"><title>Node68&#45;&gt;Node65</title>
<path fill="none" stroke="midnightblue" d="M543.439,-81.2961C551.875,-82.194 560.449,-83.1066 568.851,-84.0009"/>
<polygon fill="midnightblue" stroke="midnightblue" points="543.552,-77.7884 533.238,-80.2102 542.811,-84.7491 543.552,-77.7884"/>
</g>
</g>
</svg>
