<?xml version="1.0" encoding="UTF-8" standalone="no"?>
<!DOCTYPE svg PUBLIC "-//W3C//DTD SVG 1.1//EN"
 "http://www.w3.org/Graphics/SVG/1.1/DTD/svg11.dtd">
<!-- Generated by graphviz version 2.40.1 (20161225.0304)
 -->
<!-- Title: Cleaner::cleanByCutValueOverpassOrEquals Pages: 1 -->
<svg width="995pt" height="39pt"
 viewBox="0.00 0.00 995.00 39.00" xmlns="http://www.w3.org/2000/svg" xmlns:xlink="http://www.w3.org/1999/xlink">
<g id="graph0" class="graph" transform="scale(1 1) rotate(0) translate(4 35)">
<title>Cleaner::cleanByCutValueOverpassOrEquals</title>
<polygon fill="#ffffff" stroke="transparent" points="-4,4 -4,-35 991,-35 991,4 -4,4"/>
<!-- Node215 -->
<g id="node1" class="node">
<title>Node215</title>
<polygon fill="#bfbfbf" stroke="#000000" points="0,-.5 0,-30.5 132,-30.5 132,-.5 0,-.5"/>
<text text-anchor="start" x="8" y="-18.5" font-family="Helvetica,sans-Serif" font-size="10.00" fill="#000000">Cleaner::cleanByCutValue</text>
<text text-anchor="middle" x="66" y="-7.5" font-family="Helvetica,sans-Serif" font-size="10.00" fill="#000000">OverpassOrEquals</text>
</g>
<!-- Node216 -->
<g id="node2" class="node">
<title>Node216</title>
<g id="a_node2"><a xlink:href="class_cleaner.html#a4718e31c0183b5a98751d77479faacf0" target="_top" xlink:title="Method to trim an alignment based on the similarity and gaps distribution values. ...">
<polygon fill="#ffffff" stroke="#000000" points="168,-6 168,-25 248,-25 248,-6 168,-6"/>
<text text-anchor="middle" x="208" y="-13" font-family="Helvetica,sans-Serif" font-size="10.00" fill="#000000">Cleaner::clean</text>
</a>
</g>
</g>
<!-- Node215&#45;&gt;Node216 -->
<g id="edge1" class="edge">
<title>Node215&#45;&gt;Node216</title>
<path fill="none" stroke="#191970" d="M142.2925,-15.5C151.0356,-15.5 159.6711,-15.5 167.6646,-15.5"/>
<polygon fill="#191970" stroke="#191970" points="142.0115,-12.0001 132.0115,-15.5 142.0114,-19.0001 142.0115,-12.0001"/>
</g>
<!-- Node217 -->
<g id="node3" class="node">
<title>Node217</title>
<g id="a_node3"><a xlink:href="classtrim_al_manager.html#aebfd21b0435302f0e4fc45a068d1b6ee" target="_top" xlink:title="Method to trim the alignment using non automatic methods: ">
<polygon fill="#ffffff" stroke="#000000" points="284,-.5 284,-30.5 436,-30.5 436,-.5 284,-.5"/>
<text text-anchor="start" x="292" y="-18.5" font-family="Helvetica,sans-Serif" font-size="10.00" fill="#000000">trimAlManager::CleanResidues</text>
<text text-anchor="middle" x="360" y="-7.5" font-family="Helvetica,sans-Serif" font-size="10.00" fill="#000000">NonAuto</text>
</a>
</g>
</g>
<!-- Node216&#45;&gt;Node217 -->
<g id="edge2" class="edge">
<title>Node216&#45;&gt;Node217</title>
<path fill="none" stroke="#191970" d="M258.4324,-15.5C266.6205,-15.5 275.2567,-15.5 283.8948,-15.5"/>
<polygon fill="#191970" stroke="#191970" points="258.3342,-12.0001 248.3341,-15.5 258.3341,-19.0001 258.3342,-12.0001"/>
</g>
<!-- Node218 -->
<g id="node4" class="node">
<title>Node218</title>
<g id="a_node4"><a xlink:href="classtrim_al_manager.html#adc529dd893ed4e9df6f3ddbd58776068" target="_top" xlink:title="Core Method of the program. This is where almost all cleaning methods are called from. ">
<polygon fill="#ffffff" stroke="#000000" points="472,-.5 472,-30.5 581,-30.5 581,-.5 472,-.5"/>
<text text-anchor="start" x="480" y="-18.5" font-family="Helvetica,sans-Serif" font-size="10.00" fill="#000000">trimAlManager::clean</text>
<text text-anchor="middle" x="526.5" y="-7.5" font-family="Helvetica,sans-Serif" font-size="10.00" fill="#000000">_alignment</text>
</a>
</g>
</g>
<!-- Node217&#45;&gt;Node218 -->
<g id="edge3" class="edge">
<title>Node217&#45;&gt;Node218</title>
<path fill="none" stroke="#191970" d="M446.5487,-15.5C455.1708,-15.5 463.7456,-15.5 471.9024,-15.5"/>
<polygon fill="#191970" stroke="#191970" points="446.4277,-12.0001 436.4277,-15.5 446.4277,-19.0001 446.4277,-12.0001"/>
</g>
<!-- Node219 -->
<g id="node5" class="node">
<title>Node219</title>
<g id="a_node5"><a xlink:href="classtrim_al_manager.html#a7c641a1feff33d401b4ea5c82e989289" target="_top" xlink:title="trimAlManager::innerPerform">
<polygon fill="#ffffff" stroke="#000000" points="617,-6 617,-25 758,-25 758,-6 617,-6"/>
<text text-anchor="middle" x="687.5" y="-13" font-family="Helvetica,sans-Serif" font-size="10.00" fill="#000000">trimAlManager::innerPerform</text>
</a>
</g>
</g>
<!-- Node218&#45;&gt;Node219 -->
<g id="edge4" class="edge">
<title>Node218&#45;&gt;Node219</title>
<path fill="none" stroke="#191970" d="M591.1474,-15.5C599.5802,-15.5 608.2546,-15.5 616.7806,-15.5"/>
<polygon fill="#191970" stroke="#191970" points="591.0073,-12.0001 581.0073,-15.5 591.0072,-19.0001 591.0073,-12.0001"/>
</g>
<!-- Node220 -->
<g id="node6" class="node">
<title>Node220</title>
<g id="a_node6"><a xlink:href="classtrim_al_manager.html#abe8d2841455c644dc9c7d1294b82b00f" target="_top" xlink:title="Method to perform the analysis if all checks have passed. ">
<polygon fill="#ffffff" stroke="#000000" points="794,-6 794,-25 913,-25 913,-6 794,-6"/>
<text text-anchor="middle" x="853.5" y="-13" font-family="Helvetica,sans-Serif" font-size="10.00" fill="#000000">trimAlManager::perform</text>
</a>
</g>
</g>
<!-- Node219&#45;&gt;Node220 -->
<g id="edge5" class="edge">
<title>Node219&#45;&gt;Node220</title>
<path fill="none" stroke="#191970" d="M768.4012,-15.5C776.9677,-15.5 785.564,-15.5 793.8249,-15.5"/>
<polygon fill="#191970" stroke="#191970" points="768.3805,-12.0001 758.3804,-15.5 768.3804,-19.0001 768.3805,-12.0001"/>
</g>
<!-- Node221 -->
<g id="node7" class="node">
<title>Node221</title>
<g id="a_node7"><a xlink:href="trim_al_main_8cpp.html#a0ddf1224851353fc92bfbff6f499fa97" target="_top" xlink:title="main">
<polygon fill="#ffffff" stroke="#000000" points="949,-6 949,-25 987,-25 987,-6 949,-6"/>
<text text-anchor="middle" x="968" y="-13" font-family="Helvetica,sans-Serif" font-size="10.00" fill="#000000">main</text>
</a>
</g>
</g>
<!-- Node220&#45;&gt;Node221 -->
<g id="edge6" class="edge">
<title>Node220&#45;&gt;Node221</title>
<path fill="none" stroke="#191970" d="M923.3198,-15.5C932.6177,-15.5 941.4503,-15.5 948.7697,-15.5"/>
<polygon fill="#191970" stroke="#191970" points="923.0976,-12.0001 913.0976,-15.5 923.0975,-19.0001 923.0976,-12.0001"/>
</g>
</g>
</svg>
