<?xml version="1.0" encoding="UTF-8" standalone="no"?>
<!DOCTYPE svg PUBLIC "-//W3C//DTD SVG 1.1//EN"
 "http://www.w3.org/Graphics/SVG/1.1/DTD/svg11.dtd">
<!-- Generated by graphviz version 2.40.1 (20161225.0304)
 -->
<!-- Title: statistics::Consistency::getValues Pages: 1 -->
<svg width="893pt" height="209pt"
 viewBox="0.00 0.00 893.00 208.50" xmlns="http://www.w3.org/2000/svg" xmlns:xlink="http://www.w3.org/1999/xlink">
<g id="graph0" class="graph" transform="scale(1 1) rotate(0) translate(4 204.5)">
<title>statistics::Consistency::getValues</title>
<polygon fill="#ffffff" stroke="transparent" points="-4,4 -4,-204.5 889,-204.5 889,4 -4,4"/>
<!-- Node89 -->
<g id="node1" class="node">
<title>Node89</title>
<polygon fill="#bfbfbf" stroke="#000000" points="0,-93.5 0,-123.5 117,-123.5 117,-93.5 0,-93.5"/>
<text text-anchor="start" x="8" y="-111.5" font-family="Helvetica,sans-Serif" font-size="10.00" fill="#000000">statistics::Consistency</text>
<text text-anchor="middle" x="58.5" y="-100.5" font-family="Helvetica,sans-Serif" font-size="10.00" fill="#000000">::getValues</text>
</g>
<!-- Node90 -->
<g id="node2" class="node">
<title>Node90</title>
<g id="a_node2"><a xlink:href="class_alignment.html#a3754dfadea173918f5e85b9eb4c3ad8a" target="_top" xlink:title="Method to report the trimming results in HTML. Outputs an HTML file that shows visually what has been...">
<polygon fill="#ffffff" stroke="#000000" points="153,-181 153,-200 330,-200 330,-181 153,-181"/>
<text text-anchor="middle" x="241.5" y="-188" font-family="Helvetica,sans-Serif" font-size="10.00" fill="#000000">Alignment::alignmentSummaryHTML</text>
</a>
</g>
</g>
<!-- Node89&#45;&gt;Node90 -->
<g id="edge1" class="edge">
<title>Node89&#45;&gt;Node90</title>
<path fill="none" stroke="#191970" d="M84.7872,-129.977C102.9346,-143.7741 128.1815,-161.0145 153,-171.5 162.1197,-175.353 172.1106,-178.4602 181.9915,-180.9555"/>
<polygon fill="#191970" stroke="#191970" points="86.5261,-126.8959 76.4818,-123.5251 82.2318,-132.4239 86.5261,-126.8959"/>
</g>
<!-- Node95 -->
<g id="node7" class="node">
<title>Node95</title>
<g id="a_node7"><a xlink:href="class_alignment.html#ac4196c026e0f482eaccf9976f82f72e3" target="_top" xlink:title="Method to report the trimming results in SVG. Outputs a SVG file that shows visually what has been do...">
<polygon fill="#ffffff" stroke="#000000" points="156,-143 156,-162 327,-162 327,-143 156,-143"/>
<text text-anchor="middle" x="241.5" y="-150" font-family="Helvetica,sans-Serif" font-size="10.00" fill="#000000">Alignment::alignmentSummarySVG</text>
</a>
</g>
</g>
<!-- Node89&#45;&gt;Node95 -->
<g id="edge6" class="edge">
<title>Node89&#45;&gt;Node95</title>
<path fill="none" stroke="#191970" d="M123.5948,-126.1508C133.429,-128.6926 143.4689,-131.2175 153,-133.5 166.6015,-136.7573 181.4422,-140.0462 195.0166,-142.951"/>
<polygon fill="#191970" stroke="#191970" points="124.4153,-122.7477 113.8557,-123.6117 122.6493,-129.5213 124.4153,-122.7477"/>
</g>
<!-- Node96 -->
<g id="node8" class="node">
<title>Node96</title>
<g id="a_node8"><a xlink:href="classtrim_al_manager.html#aebfd21b0435302f0e4fc45a068d1b6ee" target="_top" xlink:title="Method to trim the alignment using non automatic methods: ">
<polygon fill="#ffffff" stroke="#000000" points="165.5,-93.5 165.5,-123.5 317.5,-123.5 317.5,-93.5 165.5,-93.5"/>
<text text-anchor="start" x="173.5" y="-111.5" font-family="Helvetica,sans-Serif" font-size="10.00" fill="#000000">trimAlManager::CleanResidues</text>
<text text-anchor="middle" x="241.5" y="-100.5" font-family="Helvetica,sans-Serif" font-size="10.00" fill="#000000">NonAuto</text>
</a>
</g>
</g>
<!-- Node89&#45;&gt;Node96 -->
<g id="edge8" class="edge">
<title>Node89&#45;&gt;Node96</title>
<path fill="none" stroke="#191970" d="M127.4255,-108.5C139.8409,-108.5 152.8478,-108.5 165.4519,-108.5"/>
<polygon fill="#191970" stroke="#191970" points="127.1575,-105.0001 117.1574,-108.5 127.1574,-112.0001 127.1575,-105.0001"/>
</g>
<!-- Node98 -->
<g id="node10" class="node">
<title>Node98</title>
<g id="a_node10"><a xlink:href="classtrim_al_manager.html#afc48b86f5ae35b9a5e721b65c58bf610" target="_top" xlink:title="Method to print statistics requested. ">
<polygon fill="#ffffff" stroke="#000000" points="370.5,-49.5 370.5,-79.5 474.5,-79.5 474.5,-49.5 370.5,-49.5"/>
<text text-anchor="start" x="378.5" y="-67.5" font-family="Helvetica,sans-Serif" font-size="10.00" fill="#000000">trimAlManager::print</text>
<text text-anchor="middle" x="422.5" y="-56.5" font-family="Helvetica,sans-Serif" font-size="10.00" fill="#000000">_statistics</text>
</a>
</g>
</g>
<!-- Node89&#45;&gt;Node98 -->
<g id="edge11" class="edge">
<title>Node89&#45;&gt;Node98</title>
<path fill="none" stroke="#191970" d="M121.1386,-90.9636C131.7083,-88.4741 142.6181,-86.1903 153,-84.5 227.9018,-72.3053 315.7412,-67.5364 370.2673,-65.6778"/>
<polygon fill="#191970" stroke="#191970" points="120.0242,-87.6327 111.1372,-93.401 121.6816,-94.4337 120.0242,-87.6327"/>
</g>
<!-- Node99 -->
<g id="node11" class="node">
<title>Node99</title>
<g id="a_node11"><a xlink:href="class_alignment.html#a724218d5e7d168974d9abcafcde632a1" target="_top" xlink:title="Alignment::statSVG">
<polygon fill="#ffffff" stroke="#000000" points="189.5,-12 189.5,-31 293.5,-31 293.5,-12 189.5,-12"/>
<text text-anchor="middle" x="241.5" y="-19" font-family="Helvetica,sans-Serif" font-size="10.00" fill="#000000">Alignment::statSVG</text>
</a>
</g>
</g>
<!-- Node89&#45;&gt;Node99 -->
<g id="edge13" class="edge">
<title>Node89&#45;&gt;Node99</title>
<path fill="none" stroke="#191970" d="M88.2369,-87.755C106.363,-75.7522 130.3315,-60.9942 153,-50.5 169.8733,-42.6886 189.4461,-36.0431 205.888,-31.0924"/>
<polygon fill="#191970" stroke="#191970" points="86.1892,-84.9141 79.8392,-93.3952 90.0921,-90.7251 86.1892,-84.9141"/>
</g>
<!-- Node91 -->
<g id="node3" class="node">
<title>Node91</title>
<g id="a_node3"><a xlink:href="classtrim_al_manager.html#a1da8f8b677f19ed8f7e08a663d97bb92" target="_top" xlink:title="trimAlManager::output\l_reports">
<polygon fill="#ffffff" stroke="#000000" points="366,-147.5 366,-177.5 479,-177.5 479,-147.5 366,-147.5"/>
<text text-anchor="start" x="374" y="-165.5" font-family="Helvetica,sans-Serif" font-size="10.00" fill="#000000">trimAlManager::output</text>
<text text-anchor="middle" x="422.5" y="-154.5" font-family="Helvetica,sans-Serif" font-size="10.00" fill="#000000">_reports</text>
</a>
</g>
</g>
<!-- Node90&#45;&gt;Node91 -->
<g id="edge2" class="edge">
<title>Node90&#45;&gt;Node91</title>
<path fill="none" stroke="#191970" d="M313.1729,-179.4125C330.6255,-176.7126 349.0554,-173.8616 365.7087,-171.2854"/>
<polygon fill="#191970" stroke="#191970" points="312.3783,-175.9937 303.0309,-180.9814 313.4485,-182.9114 312.3783,-175.9937"/>
</g>
<!-- Node92 -->
<g id="node4" class="node">
<title>Node92</title>
<g id="a_node4"><a xlink:href="classtrim_al_manager.html#a7c641a1feff33d401b4ea5c82e989289" target="_top" xlink:title="trimAlManager::innerPerform">
<polygon fill="#ffffff" stroke="#000000" points="515,-79 515,-98 656,-98 656,-79 515,-79"/>
<text text-anchor="middle" x="585.5" y="-86" font-family="Helvetica,sans-Serif" font-size="10.00" fill="#000000">trimAlManager::innerPerform</text>
</a>
</g>
</g>
<!-- Node91&#45;&gt;Node92 -->
<g id="edge3" class="edge">
<title>Node91&#45;&gt;Node92</title>
<path fill="none" stroke="#191970" d="M467.8395,-143.4165C471.6225,-141.7709 475.3818,-140.1172 479,-138.5 509.3963,-124.9145 544.2611,-108.3588 565.581,-98.1229"/>
<polygon fill="#191970" stroke="#191970" points="466.25,-140.2904 458.454,-147.4648 469.0224,-146.7179 466.25,-140.2904"/>
</g>
<!-- Node93 -->
<g id="node5" class="node">
<title>Node93</title>
<g id="a_node5"><a xlink:href="classtrim_al_manager.html#abe8d2841455c644dc9c7d1294b82b00f" target="_top" xlink:title="Method to perform the analysis if all checks have passed. ">
<polygon fill="#ffffff" stroke="#000000" points="692,-79 692,-98 811,-98 811,-79 692,-79"/>
<text text-anchor="middle" x="751.5" y="-86" font-family="Helvetica,sans-Serif" font-size="10.00" fill="#000000">trimAlManager::perform</text>
</a>
</g>
</g>
<!-- Node92&#45;&gt;Node93 -->
<g id="edge4" class="edge">
<title>Node92&#45;&gt;Node93</title>
<path fill="none" stroke="#191970" d="M666.4012,-88.5C674.9677,-88.5 683.564,-88.5 691.8249,-88.5"/>
<polygon fill="#191970" stroke="#191970" points="666.3805,-85.0001 656.3804,-88.5 666.3804,-92.0001 666.3805,-85.0001"/>
</g>
<!-- Node94 -->
<g id="node6" class="node">
<title>Node94</title>
<g id="a_node6"><a xlink:href="trim_al_main_8cpp.html#a0ddf1224851353fc92bfbff6f499fa97" target="_top" xlink:title="main">
<polygon fill="#ffffff" stroke="#000000" points="847,-79 847,-98 885,-98 885,-79 847,-79"/>
<text text-anchor="middle" x="866" y="-86" font-family="Helvetica,sans-Serif" font-size="10.00" fill="#000000">main</text>
</a>
</g>
</g>
<!-- Node93&#45;&gt;Node94 -->
<g id="edge5" class="edge">
<title>Node93&#45;&gt;Node94</title>
<path fill="none" stroke="#191970" d="M821.3198,-88.5C830.6177,-88.5 839.4503,-88.5 846.7697,-88.5"/>
<polygon fill="#191970" stroke="#191970" points="821.0976,-85.0001 811.0976,-88.5 821.0975,-92.0001 821.0976,-85.0001"/>
</g>
<!-- Node95&#45;&gt;Node91 -->
<g id="edge7" class="edge">
<title>Node95&#45;&gt;Node91</title>
<path fill="none" stroke="#191970" d="M337.4139,-157.7991C347.1759,-158.3384 356.8536,-158.8731 365.9905,-159.3779"/>
<polygon fill="#191970" stroke="#191970" points="337.4074,-154.2935 327.2295,-157.2364 337.0212,-161.2828 337.4074,-154.2935"/>
</g>
<!-- Node97 -->
<g id="node9" class="node">
<title>Node97</title>
<g id="a_node9"><a xlink:href="classtrim_al_manager.html#adc529dd893ed4e9df6f3ddbd58776068" target="_top" xlink:title="Core Method of the program. This is where almost all cleaning methods are called from. ">
<polygon fill="#ffffff" stroke="#000000" points="368,-98.5 368,-128.5 477,-128.5 477,-98.5 368,-98.5"/>
<text text-anchor="start" x="376" y="-116.5" font-family="Helvetica,sans-Serif" font-size="10.00" fill="#000000">trimAlManager::clean</text>
<text text-anchor="middle" x="422.5" y="-105.5" font-family="Helvetica,sans-Serif" font-size="10.00" fill="#000000">_alignment</text>
</a>
</g>
</g>
<!-- Node96&#45;&gt;Node97 -->
<g id="edge9" class="edge">
<title>Node96&#45;&gt;Node97</title>
<path fill="none" stroke="#191970" d="M328.043,-110.8907C341.5782,-111.2646 355.2317,-111.6418 367.7893,-111.9887"/>
<polygon fill="#191970" stroke="#191970" points="327.8286,-107.3835 317.7357,-110.606 327.6352,-114.3809 327.8286,-107.3835"/>
</g>
<!-- Node97&#45;&gt;Node92 -->
<g id="edge10" class="edge">
<title>Node97&#45;&gt;Node92</title>
<path fill="none" stroke="#191970" d="M487.4656,-103.536C499.2848,-101.7232 511.5883,-99.8362 523.3244,-98.0361"/>
<polygon fill="#191970" stroke="#191970" points="486.5839,-100.1302 477.2301,-105.1058 487.6451,-107.0493 486.5839,-100.1302"/>
</g>
<!-- Node98&#45;&gt;Node92 -->
<g id="edge12" class="edge">
<title>Node98&#45;&gt;Node92</title>
<path fill="none" stroke="#191970" d="M484.7294,-73.6626C496.5427,-75.402 508.9292,-77.2258 520.8165,-78.9761"/>
<polygon fill="#191970" stroke="#191970" points="484.9256,-70.1538 474.5224,-72.1597 483.9058,-77.0792 484.9256,-70.1538"/>
</g>
<!-- Node100 -->
<g id="node12" class="node">
<title>Node100</title>
<g id="a_node12"><a xlink:href="classtrim_al_manager.html#a63d5bec0938516a2129ccb04276b93d9" target="_top" xlink:title="trimAlManager::svg\l_stats_out">
<polygon fill="#ffffff" stroke="#000000" points="372,-.5 372,-30.5 473,-30.5 473,-.5 372,-.5"/>
<text text-anchor="start" x="380" y="-18.5" font-family="Helvetica,sans-Serif" font-size="10.00" fill="#000000">trimAlManager::svg</text>
<text text-anchor="middle" x="422.5" y="-7.5" font-family="Helvetica,sans-Serif" font-size="10.00" fill="#000000">_stats_out</text>
</a>
</g>
</g>
<!-- Node99&#45;&gt;Node100 -->
<g id="edge14" class="edge">
<title>Node99&#45;&gt;Node100</title>
<path fill="none" stroke="#191970" d="M303.8489,-19.4332C326.0372,-18.6977 350.7328,-17.879 371.8238,-17.1799"/>
<polygon fill="#191970" stroke="#191970" points="303.7312,-15.9351 293.8527,-19.7646 303.9632,-22.9312 303.7312,-15.9351"/>
</g>
<!-- Node100&#45;&gt;Node92 -->
<g id="edge15" class="edge">
<title>Node100&#45;&gt;Node92</title>
<path fill="none" stroke="#191970" d="M465.7196,-34.5874C470.2063,-36.5797 474.6967,-38.5782 479,-40.5 508.6289,-53.7318 542.8232,-69.1739 564.3024,-78.8947"/>
<polygon fill="#191970" stroke="#191970" points="467.1372,-31.3873 456.5768,-30.5331 464.2996,-37.7864 467.1372,-31.3873"/>
</g>
</g>
</svg>
