<?xml version="1.0" encoding="UTF-8" standalone="no"?>
<!DOCTYPE svg PUBLIC "-//W3C//DTD SVG 1.1//EN"
 "http://www.w3.org/Graphics/SVG/1.1/DTD/svg11.dtd">
<!-- Generated by graphviz version 2.38.0 (20140413.2041)
 -->
<!-- Title: sequencesMatrix Pages: 1 -->
<svg width="366pt" height="229pt"
 viewBox="0.00 0.00 365.50 229.00" xmlns="http://www.w3.org/2000/svg" xmlns:xlink="http://www.w3.org/1999/xlink">
<g id="graph0" class="graph" transform="scale(1 1) rotate(0) translate(4 225)">
<title>sequencesMatrix</title>
<polygon fill="white" stroke="none" points="-4,4 -4,-225 361.5,-225 361.5,4 -4,4"/>
<!-- Node1 -->
<g id="node1" class="node"><title>Node1</title>
<polygon fill="#bfbfbf" stroke="black" points="0,-134.5 0,-153.5 91,-153.5 91,-134.5 0,-134.5"/>
<text text-anchor="middle" x="45.5" y="-141.5" font-family="Helvetica,sans-Serif" font-size="10.00">sequencesMatrix</text>
</g>
<!-- Node2 -->
<g id="node2" class="node"><title>Node2</title>
<g id="a_node2"><a xlink:href="classnew_alignment.html" target="_top" xlink:title="Class containing an alignment &#160;This class stores the alignment sequences with it&#39;s names...">
<polygon fill="white" stroke="black" points="109.5,-67.5 109.5,-86.5 187.5,-86.5 187.5,-67.5 109.5,-67.5"/>
<text text-anchor="middle" x="148.5" y="-74.5" font-family="Helvetica,sans-Serif" font-size="10.00">newAlignment</text>
</a>
</g>
</g>
<!-- Node1&#45;&gt;Node2 -->
<g id="edge3" class="edge"><title>Node1&#45;&gt;Node2</title>
<path fill="none" stroke="#9a32cd" stroke-dasharray="5,2" d="M17.6137,-129.332C7.16452,-122.391 -0.634734,-113.619 6.5,-105 19.3413,-89.487 71.8968,-82.813 109.321,-79.9923"/>
<polygon fill="#9a32cd" stroke="#9a32cd" points="15.9351,-132.406 26.3271,-134.469 19.4897,-126.375 15.9351,-132.406"/>
<text text-anchor="middle" x="46" y="-108" font-family="Helvetica,sans-Serif" font-size="10.00"> SequencesMatrix</text>
</g>
<!-- Node2&#45;&gt;Node1 -->
<g id="edge1" class="edge"><title>Node2&#45;&gt;Node1</title>
<path fill="none" stroke="#9a32cd" stroke-dasharray="5,2" d="M126.804,-92.1338C115.686,-99.3358 101.909,-108.198 89.5,-116 79.6365,-122.202 68.4442,-129.067 59.8161,-134.323"/>
<polygon fill="#9a32cd" stroke="#9a32cd" points="128.948,-94.915 135.43,-86.5341 125.136,-89.0437 128.948,-94.915"/>
<text text-anchor="middle" x="132" y="-108" font-family="Helvetica,sans-Serif" font-size="10.00"> _alignment</text>
</g>
<!-- Node6 -->
<g id="node6" class="node"><title>Node6</title>
<g id="a_node6"><a xlink:href="class_cleaner.html" target="_top" xlink:title="Subclass contained by the alignment object to make cleaning operations on it. ">
<polygon fill="white" stroke="black" points="66.5,-0.5 66.5,-19.5 116.5,-19.5 116.5,-0.5 66.5,-0.5"/>
<text text-anchor="middle" x="91.5" y="-7.5" font-family="Helvetica,sans-Serif" font-size="10.00">Cleaner</text>
</a>
</g>
</g>
<!-- Node2&#45;&gt;Node6 -->
<g id="edge7" class="edge"><title>Node2&#45;&gt;Node6</title>
<path fill="none" stroke="#9a32cd" stroke-dasharray="5,2" d="M99.5032,-73.631C82.514,-70.1588 65.0888,-63.0585 54.5,-49 46.2457,-38.041 60.134,-26.9661 73.1858,-19.6226"/>
<polygon fill="#9a32cd" stroke="#9a32cd" points="98.9614,-77.0889 109.401,-75.2812 100.113,-70.1842 98.9614,-77.0889"/>
<text text-anchor="middle" x="80" y="-41" font-family="Helvetica,sans-Serif" font-size="10.00"> _alignment</text>
</g>
<!-- Node7 -->
<g id="node7" class="node"><title>Node7</title>
<g id="a_node7"><a xlink:href="class_statistics_manager.html" target="_top" xlink:title="StatisticsManager">
<polygon fill="white" stroke="black" points="159,-0.5 159,-19.5 254,-19.5 254,-0.5 159,-0.5"/>
<text text-anchor="middle" x="206.5" y="-7.5" font-family="Helvetica,sans-Serif" font-size="10.00">StatisticsManager</text>
</a>
</g>
</g>
<!-- Node2&#45;&gt;Node7 -->
<g id="edge9" class="edge"><title>Node2&#45;&gt;Node7</title>
<path fill="none" stroke="#9a32cd" stroke-dasharray="5,2" d="M161.187,-58.9279C166.362,-52.2359 172.526,-44.5961 178.5,-38 184.302,-31.5931 191.302,-24.8431 196.852,-19.6949"/>
<polygon fill="#9a32cd" stroke="#9a32cd" points="158.108,-57.196 154.854,-67.2788 163.686,-61.4258 158.108,-57.196"/>
<text text-anchor="middle" x="204" y="-41" font-family="Helvetica,sans-Serif" font-size="10.00"> _alignment</text>
</g>
<!-- Node3 -->
<g id="node3" class="node"><title>Node3</title>
<g id="a_node3"><a xlink:href="classstatistics_gaps.html" target="_top" xlink:title="statisticsGaps">
<polygon fill="white" stroke="black" points="145.5,-134.5 145.5,-153.5 225.5,-153.5 225.5,-134.5 145.5,-134.5"/>
<text text-anchor="middle" x="185.5" y="-141.5" font-family="Helvetica,sans-Serif" font-size="10.00">statisticsGaps</text>
</a>
</g>
</g>
<!-- Node3&#45;&gt;Node2 -->
<g id="edge2" class="edge"><title>Node3&#45;&gt;Node2</title>
<path fill="none" stroke="#9a32cd" stroke-dasharray="5,2" d="M175.558,-125.535C168.395,-112.95 159.035,-96.5072 153.411,-86.6273"/>
<polygon fill="#9a32cd" stroke="#9a32cd" points="172.521,-127.275 180.51,-134.234 178.605,-123.812 172.521,-127.275"/>
<text text-anchor="middle" x="184.5" y="-108" font-family="Helvetica,sans-Serif" font-size="10.00"> sgaps</text>
</g>
<!-- Node4 -->
<g id="node4" class="node"><title>Node4</title>
<g id="a_node4"><a xlink:href="classstatistics_conservation.html" target="_top" xlink:title="statisticsConservation">
<polygon fill="white" stroke="black" points="243.5,-134.5 243.5,-153.5 357.5,-153.5 357.5,-134.5 243.5,-134.5"/>
<text text-anchor="middle" x="300.5" y="-141.5" font-family="Helvetica,sans-Serif" font-size="10.00">statisticsConservation</text>
</a>
</g>
</g>
<!-- Node4&#45;&gt;Node2 -->
<g id="edge4" class="edge"><title>Node4&#45;&gt;Node2</title>
<path fill="none" stroke="#9a32cd" stroke-dasharray="5,2" d="M270.757,-130.281C240.655,-117.409 194.929,-97.8545 168.768,-86.6672"/>
<polygon fill="#9a32cd" stroke="#9a32cd" points="269.745,-133.655 280.316,-134.369 272.497,-127.218 269.745,-133.655"/>
<text text-anchor="middle" x="249.5" y="-108" font-family="Helvetica,sans-Serif" font-size="10.00"> scons</text>
</g>
<!-- Node5 -->
<g id="node5" class="node"><title>Node5</title>
<g id="a_node5"><a xlink:href="classsimilarity_matrix.html" target="_top" xlink:title="similarityMatrix">
<polygon fill="white" stroke="black" points="259,-201.5 259,-220.5 342,-220.5 342,-201.5 259,-201.5"/>
<text text-anchor="middle" x="300.5" y="-208.5" font-family="Helvetica,sans-Serif" font-size="10.00">similarityMatrix</text>
</a>
</g>
</g>
<!-- Node5&#45;&gt;Node4 -->
<g id="edge5" class="edge"><title>Node5&#45;&gt;Node4</title>
<path fill="none" stroke="#9a32cd" stroke-dasharray="5,2" d="M300.5,-191.037C300.5,-178.67 300.5,-163.12 300.5,-153.627"/>
<polygon fill="#9a32cd" stroke="#9a32cd" points="297,-191.234 300.5,-201.234 304,-191.234 297,-191.234"/>
<text text-anchor="middle" x="323.5" y="-175" font-family="Helvetica,sans-Serif" font-size="10.00"> simMatrix</text>
</g>
<!-- Node6&#45;&gt;Node2 -->
<g id="edge6" class="edge"><title>Node6&#45;&gt;Node2</title>
<path fill="none" stroke="#9a32cd" stroke-dasharray="5,2" d="M101.861,-28.0924C106.314,-34.8874 111.801,-42.5952 117.5,-49 123.478,-55.7182 131.081,-62.3639 137.261,-67.381"/>
<polygon fill="#9a32cd" stroke="#9a32cd" points="104.801,-26.1934 96.5078,-19.6005 98.8799,-29.9264 104.801,-26.1934"/>
<text text-anchor="middle" x="138.5" y="-41" font-family="Helvetica,sans-Serif" font-size="10.00"> Cleaning</text>
</g>
<!-- Node7&#45;&gt;Node2 -->
<g id="edge8" class="edge"><title>Node7&#45;&gt;Node2</title>
<path fill="none" stroke="#9a32cd" stroke-dasharray="5,2" d="M227.4,-26.3983C234.264,-33.3367 238.904,-41.6131 233.5,-49 222.986,-63.3708 204.766,-70.2789 187.884,-73.529"/>
<polygon fill="#9a32cd" stroke="#9a32cd" points="229.295,-23.4093 219.448,-19.5 224.708,-28.6969 229.295,-23.4093"/>
<text text-anchor="middle" x="259" y="-41" font-family="Helvetica,sans-Serif" font-size="10.00"> Statistics</text>
</g>
</g>
</svg>
