<?xml version="1.0" encoding="UTF-8" standalone="no"?>
<!DOCTYPE svg PUBLIC "-//W3C//DTD SVG 1.1//EN"
 "http://www.w3.org/Graphics/SVG/1.1/DTD/svg11.dtd">
<!-- Generated by graphviz version 2.40.1 (20161225.0304)
 -->
<!-- Title: trimAlManager::check_output_format Pages: 1 -->
<svg width="866pt" height="127pt"
 viewBox="0.00 0.00 866.00 127.00" xmlns="http://www.w3.org/2000/svg" xmlns:xlink="http://www.w3.org/1999/xlink">
<g id="graph0" class="graph" transform="scale(1 1) rotate(0) translate(4 123)">
<title>trimAlManager::check_output_format</title>
<polygon fill="#ffffff" stroke="transparent" points="-4,4 -4,-123 862,-123 862,4 -4,4"/>
<!-- Node219 -->
<g id="node1" class="node">
<title>Node219</title>
<polygon fill="#bfbfbf" stroke="#000000" points="0,-44.5 0,-74.5 112,-74.5 112,-44.5 0,-44.5"/>
<text text-anchor="start" x="8" y="-62.5" font-family="Helvetica,sans-Serif" font-size="10.00" fill="#000000">trimAlManager::check</text>
<text text-anchor="middle" x="56" y="-51.5" font-family="Helvetica,sans-Serif" font-size="10.00" fill="#000000">_output_format</text>
</g>
<!-- Node220 -->
<g id="node2" class="node">
<title>Node220</title>
<g id="a_node2"><a xlink:href="class_format_handling_1_1_format_manager.html#ad31c39b979311f79dda3f2ae097b5625" target="_top" xlink:title="Function to obtain the format name of a given file. ">
<polygon fill="#ffffff" stroke="#000000" points="148,-44.5 148,-74.5 308,-74.5 308,-44.5 148,-44.5"/>
<text text-anchor="start" x="156" y="-62.5" font-family="Helvetica,sans-Serif" font-size="10.00" fill="#000000">FormatHandling::FormatManager</text>
<text text-anchor="middle" x="228" y="-51.5" font-family="Helvetica,sans-Serif" font-size="10.00" fill="#000000">::getFileFormatName</text>
</a>
</g>
</g>
<!-- Node219&#45;&gt;Node220 -->
<g id="edge1" class="edge">
<title>Node219&#45;&gt;Node220</title>
<path fill="none" stroke="#191970" d="M112.3192,-59.5C120.4878,-59.5 129.0635,-59.5 137.6972,-59.5"/>
<polygon fill="#191970" stroke="#191970" points="137.8382,-63.0001 147.8382,-59.5 137.8381,-56.0001 137.8382,-63.0001"/>
</g>
<!-- Node221 -->
<g id="node3" class="node">
<title>Node221</title>
<g id="a_node3"><a xlink:href="class_format_handling_1_1_format_manager.html#a850c827a60ae4ee1e5bb34b7485f0412" target="_top" xlink:title="FormatHandling::FormatManager\l::getFormatFromFile">
<polygon fill="#ffffff" stroke="#000000" points="344,-44.5 344,-74.5 504,-74.5 504,-44.5 344,-44.5"/>
<text text-anchor="start" x="352" y="-62.5" font-family="Helvetica,sans-Serif" font-size="10.00" fill="#000000">FormatHandling::FormatManager</text>
<text text-anchor="middle" x="424" y="-51.5" font-family="Helvetica,sans-Serif" font-size="10.00" fill="#000000">::getFormatFromFile</text>
</a>
</g>
</g>
<!-- Node220&#45;&gt;Node221 -->
<g id="edge2" class="edge">
<title>Node220&#45;&gt;Node221</title>
<path fill="none" stroke="#191970" d="M308.0034,-59.5C316.5245,-59.5 325.2335,-59.5 333.8608,-59.5"/>
<polygon fill="#191970" stroke="#191970" points="333.9348,-63.0001 343.9347,-59.5 333.9347,-56.0001 333.9348,-63.0001"/>
</g>
<!-- Node222 -->
<g id="node4" class="node">
<title>Node222</title>
<g id="a_node4"><a xlink:href="class_format_handling_1_1_format_manager.html#a0b032188aa2d883026e547ea665c9b45" target="_top" xlink:title="FormatHandling::FormatManager\l::getNonEmptyFile">
<polygon fill="#ffffff" stroke="#000000" points="540,-88.5 540,-118.5 700,-118.5 700,-88.5 540,-88.5"/>
<text text-anchor="start" x="548" y="-106.5" font-family="Helvetica,sans-Serif" font-size="10.00" fill="#000000">FormatHandling::FormatManager</text>
<text text-anchor="middle" x="620" y="-95.5" font-family="Helvetica,sans-Serif" font-size="10.00" fill="#000000">::getNonEmptyFile</text>
</a>
</g>
</g>
<!-- Node221&#45;&gt;Node222 -->
<g id="edge3" class="edge">
<title>Node221&#45;&gt;Node222</title>
<path fill="none" stroke="#191970" d="M490.9039,-74.5192C507.6833,-78.286 525.8194,-82.3574 543.0452,-86.2244"/>
<polygon fill="#191970" stroke="#191970" points="542.5413,-89.6983 553.0651,-88.4738 544.0746,-82.8683 542.5413,-89.6983"/>
</g>
<!-- Node223 -->
<g id="node5" class="node">
<title>Node223</title>
<g id="a_node5"><a xlink:href="classreporting_1_1report_manager.html#ab093ae2e909308ebb4118d6f6a03f5fd" target="_top" xlink:title="Method to report an Error. It will be displayed if Level &#160;is equal or higher to VerboseLevel::ERROR. ">
<polygon fill="#ffffff" stroke="#000000" points="736,-66.5 736,-96.5 858,-96.5 858,-66.5 736,-66.5"/>
<text text-anchor="start" x="744" y="-84.5" font-family="Helvetica,sans-Serif" font-size="10.00" fill="#000000">reporting::reportManager</text>
<text text-anchor="middle" x="797" y="-73.5" font-family="Helvetica,sans-Serif" font-size="10.00" fill="#000000">::report</text>
</a>
</g>
</g>
<!-- Node221&#45;&gt;Node223 -->
<g id="edge6" class="edge">
<title>Node221&#45;&gt;Node223</title>
<path fill="none" stroke="#191970" d="M504.0179,-64.2196C569.8178,-68.1005 662.2121,-73.55 725.5511,-77.2859"/>
<polygon fill="#191970" stroke="#191970" points="725.6608,-80.7983 735.8496,-77.8933 726.073,-73.8105 725.6608,-80.7983"/>
</g>
<!-- Node224 -->
<g id="node6" class="node">
<title>Node224</title>
<g id="a_node6"><a xlink:href="class_format_handling_1_1_base_format_handler.html#a6186050eb30aec3f4fa7e1c834f2add1" target="_top" xlink:title="Function to check if a file is in the implemented format. ">
<polygon fill="#ffffff" stroke="#000000" points="547.5,-.5 547.5,-30.5 692.5,-30.5 692.5,-.5 547.5,-.5"/>
<text text-anchor="start" x="555.5" y="-18.5" font-family="Helvetica,sans-Serif" font-size="10.00" fill="#000000">FormatHandling::BaseFormat</text>
<text text-anchor="middle" x="620" y="-7.5" font-family="Helvetica,sans-Serif" font-size="10.00" fill="#000000">Handler::CheckAlignment</text>
</a>
</g>
</g>
<!-- Node221&#45;&gt;Node224 -->
<g id="edge5" class="edge">
<title>Node221&#45;&gt;Node224</title>
<path fill="none" stroke="#191970" d="M490.9039,-44.4808C507.6833,-40.714 525.8194,-36.6426 543.0452,-32.7756"/>
<polygon fill="#191970" stroke="#191970" points="544.0746,-36.1317 553.0651,-30.5262 542.5413,-29.3017 544.0746,-36.1317"/>
</g>
<!-- Node222&#45;&gt;Node223 -->
<g id="edge4" class="edge">
<title>Node222&#45;&gt;Node223</title>
<path fill="none" stroke="#191970" d="M700.2139,-93.5299C708.7327,-92.4711 717.3547,-91.3994 725.7606,-90.3546"/>
<polygon fill="#191970" stroke="#191970" points="726.3934,-93.803 735.8853,-89.0962 725.5299,-86.8564 726.3934,-93.803"/>
</g>
</g>
</svg>
