<?xml version="1.0" encoding="UTF-8" standalone="no"?>
<!DOCTYPE svg PUBLIC "-//W3C//DTD SVG 1.1//EN"
 "http://www.w3.org/Graphics/SVG/1.1/DTD/svg11.dtd">
<!-- Generated by graphviz version 2.38.0 (20140413.2041)
 -->
<!-- Title: similarityMatrix Pages: 1 -->
<svg width="136pt" height="106pt"
 viewBox="0.00 0.00 135.50 106.00" xmlns="http://www.w3.org/2000/svg" xmlns:xlink="http://www.w3.org/1999/xlink">
<g id="graph0" class="graph" transform="scale(1 1) rotate(0) translate(4 102)">
<title>similarityMatrix</title>
<polygon fill="white" stroke="none" points="-4,4 -4,-102 131.5,-102 131.5,4 -4,4"/>
<!-- Node1 -->
<g id="node1" class="node"><title>Node1</title>
<polygon fill="#bfbfbf" stroke="black" points="5,-0.5 5,-19.5 88,-19.5 88,-0.5 5,-0.5"/>
<text text-anchor="middle" x="46.5" y="-7.5" font-family="Helvetica,sans-Serif" font-size="10.00">similarityMatrix</text>
</g>
<!-- Node2 -->
<g id="node2" class="node"><title>Node2</title>
<polygon fill="white" stroke="#bfbfbf" points="0,-78.5 0,-97.5 35,-97.5 35,-78.5 0,-78.5"/>
<text text-anchor="middle" x="17.5" y="-85.5" font-family="Helvetica,sans-Serif" font-size="10.00">float</text>
</g>
<!-- Node2&#45;&gt;Node1 -->
<g id="edge1" class="edge"><title>Node2&#45;&gt;Node1</title>
<path fill="none" stroke="#9a32cd" stroke-dasharray="5,2" d="M14.5974,-68.3041C13.9303,-58.8494 14.3858,-47.4146 18.5,-38 21.6909,-30.6982 27.8891,-24.3913 33.6444,-19.7134"/>
<polygon fill="#9a32cd" stroke="#9a32cd" points="11.1221,-68.7204 15.7441,-78.2539 18.076,-67.9189 11.1221,-68.7204"/>
<text text-anchor="middle" x="36.5" y="-52" font-family="Helvetica,sans-Serif" font-size="10.00"> distMat</text>
<text text-anchor="middle" x="36.5" y="-41" font-family="Helvetica,sans-Serif" font-size="10.00">simMat</text>
</g>
<!-- Node3 -->
<g id="node3" class="node"><title>Node3</title>
<polygon fill="white" stroke="#bfbfbf" points="62,-78.5 62,-97.5 91,-97.5 91,-78.5 62,-78.5"/>
<text text-anchor="middle" x="76.5" y="-85.5" font-family="Helvetica,sans-Serif" font-size="10.00">int</text>
</g>
<!-- Node3&#45;&gt;Node1 -->
<g id="edge2" class="edge"><title>Node3&#45;&gt;Node1</title>
<path fill="none" stroke="#9a32cd" stroke-dasharray="5,2" d="M69.2662,-68.6744C63.1234,-53.1127 54.5811,-31.4722 49.9012,-19.6165"/>
<polygon fill="#9a32cd" stroke="#9a32cd" points="66.1313,-70.2654 73.0586,-78.2818 72.6424,-67.6952 66.1313,-70.2654"/>
<text text-anchor="middle" x="96" y="-52" font-family="Helvetica,sans-Serif" font-size="10.00"> numPositions</text>
<text text-anchor="middle" x="96" y="-41" font-family="Helvetica,sans-Serif" font-size="10.00">vhash</text>
</g>
</g>
</svg>
