<?xml version="1.0" encoding="UTF-8" standalone="no"?>
<!DOCTYPE svg PUBLIC "-//W3C//DTD SVG 1.1//EN"
 "http://www.w3.org/Graphics/SVG/1.1/DTD/svg11.dtd">
<!-- Generated by graphviz version 2.38.0 (20140413.2041)
 -->
<!-- Title: Catch::BinaryExpr&lt; LhsT, RhsT &gt; Pages: 1 -->
<svg width="435pt" height="173pt"
 viewBox="0.00 0.00 434.50 173.00" xmlns="http://www.w3.org/2000/svg" xmlns:xlink="http://www.w3.org/1999/xlink">
<g id="graph0" class="graph" transform="scale(1 1) rotate(0) translate(4 169)">
<title>Catch::BinaryExpr&lt; LhsT, RhsT &gt;</title>
<polygon fill="white" stroke="none" points="-4,4 -4,-169 430.5,-169 430.5,4 -4,4"/>
<!-- Node2 -->
<g id="node1" class="node"><title>Node2</title>
<polygon fill="#bfbfbf" stroke="black" points="237,-0.5 237,-30.5 340,-30.5 340,-0.5 237,-0.5"/>
<text text-anchor="start" x="245" y="-18.5" font-family="Helvetica,sans-Serif" font-size="10.00">Catch::BinaryExpr&lt;</text>
<text text-anchor="middle" x="288.5" y="-7.5" font-family="Helvetica,sans-Serif" font-size="10.00"> LhsT, RhsT &gt;</text>
</g>
<!-- Node3 -->
<g id="node2" class="node"><title>Node3</title>
<g id="a_node2"><a xlink:href="struct_catch_1_1_i_transient_expression.html" target="_top" xlink:title="Catch::ITransientExpression">
<polygon fill="white" stroke="black" points="0,-78.5 0,-97.5 141,-97.5 141,-78.5 0,-78.5"/>
<text text-anchor="middle" x="70.5" y="-85.5" font-family="Helvetica,sans-Serif" font-size="10.00">Catch::ITransientExpression</text>
</a>
</g>
</g>
<!-- Node3&#45;&gt;Node2 -->
<g id="edge1" class="edge"><title>Node3&#45;&gt;Node2</title>
<path fill="none" stroke="midnightblue" d="M106.44,-75.3773C144.49,-63.0719 204.555,-43.6475 245.191,-30.5059"/>
<polygon fill="midnightblue" stroke="midnightblue" points="105.234,-72.0888 96.7959,-78.4961 107.388,-78.7491 105.234,-72.0888"/>
</g>
<!-- Node4 -->
<g id="node3" class="node"><title>Node4</title>
<g id="a_node3"><a xlink:href="class_catch_1_1_string_ref.html" target="_top" xlink:title="Catch::StringRef">
<polygon fill="white" stroke="black" points="159.5,-78.5 159.5,-97.5 249.5,-97.5 249.5,-78.5 159.5,-78.5"/>
<text text-anchor="middle" x="204.5" y="-85.5" font-family="Helvetica,sans-Serif" font-size="10.00">Catch::StringRef</text>
</a>
</g>
</g>
<!-- Node4&#45;&gt;Node2 -->
<g id="edge2" class="edge"><title>Node4&#45;&gt;Node2</title>
<path fill="none" stroke="#9a32cd" stroke-dasharray="5,2" d="M222.629,-71.7844C237.206,-59.5506 257.525,-42.497 271.728,-30.5762"/>
<polygon fill="#9a32cd" stroke="#9a32cd" points="220.21,-69.2457 214.8,-78.3553 224.71,-74.6075 220.21,-69.2457"/>
<text text-anchor="middle" x="263.5" y="-52" font-family="Helvetica,sans-Serif" font-size="10.00"> m_op</text>
</g>
<!-- Node5 -->
<g id="node4" class="node"><title>Node5</title>
<polygon fill="white" stroke="#bfbfbf" points="96,-145.5 96,-164.5 165,-164.5 165,-145.5 96,-145.5"/>
<text text-anchor="middle" x="130.5" y="-152.5" font-family="Helvetica,sans-Serif" font-size="10.00">char const *</text>
</g>
<!-- Node5&#45;&gt;Node4 -->
<g id="edge3" class="edge"><title>Node5&#45;&gt;Node4</title>
<path fill="none" stroke="#9a32cd" stroke-dasharray="5,2" d="M143.45,-137.136C149.198,-130.192 156.288,-122.313 163.5,-116 171.452,-109.039 181.32,-102.487 189.382,-97.5805"/>
<polygon fill="#9a32cd" stroke="#9a32cd" points="140.481,-135.246 136.977,-145.245 145.951,-139.613 140.481,-135.246"/>
<text text-anchor="middle" x="182" y="-119" font-family="Helvetica,sans-Serif" font-size="10.00"> m_start</text>
</g>
<!-- Node6 -->
<g id="node5" class="node"><title>Node6</title>
<polygon fill="white" stroke="#bfbfbf" points="183,-145.5 183,-164.5 226,-164.5 226,-145.5 183,-145.5"/>
<text text-anchor="middle" x="204.5" y="-152.5" font-family="Helvetica,sans-Serif" font-size="10.00">size_t</text>
</g>
<!-- Node6&#45;&gt;Node4 -->
<g id="edge4" class="edge"><title>Node6&#45;&gt;Node4</title>
<path fill="none" stroke="#9a32cd" stroke-dasharray="5,2" d="M204.5,-135.037C204.5,-122.67 204.5,-107.12 204.5,-97.6273"/>
<polygon fill="#9a32cd" stroke="#9a32cd" points="201,-135.234 204.5,-145.234 208,-135.234 201,-135.234"/>
<text text-anchor="middle" x="222" y="-119" font-family="Helvetica,sans-Serif" font-size="10.00"> m_size</text>
</g>
<!-- Node7 -->
<g id="node6" class="node"><title>Node7</title>
<polygon fill="white" stroke="#bfbfbf" points="244.5,-145.5 244.5,-164.5 286.5,-164.5 286.5,-145.5 244.5,-145.5"/>
<text text-anchor="middle" x="265.5" y="-152.5" font-family="Helvetica,sans-Serif" font-size="10.00">char *</text>
</g>
<!-- Node7&#45;&gt;Node4 -->
<g id="edge5" class="edge"><title>Node7&#45;&gt;Node4</title>
<path fill="none" stroke="#9a32cd" stroke-dasharray="5,2" d="M257.351,-136.298C253.706,-129.498 248.987,-121.948 243.5,-116 236.8,-108.736 227.812,-102.349 220.153,-97.6136"/>
<polygon fill="#9a32cd" stroke="#9a32cd" points="254.31,-138.044 261.886,-145.45 260.582,-134.935 254.31,-138.044"/>
<text text-anchor="middle" x="270.5" y="-119" font-family="Helvetica,sans-Serif" font-size="10.00"> m_data</text>
</g>
<!-- Node8 -->
<g id="node7" class="node"><title>Node8</title>
<polygon fill="white" stroke="#bfbfbf" points="268,-78.5 268,-97.5 309,-97.5 309,-78.5 268,-78.5"/>
<text text-anchor="middle" x="288.5" y="-85.5" font-family="Helvetica,sans-Serif" font-size="10.00">RhsT</text>
</g>
<!-- Node8&#45;&gt;Node2 -->
<g id="edge6" class="edge"><title>Node8&#45;&gt;Node2</title>
<path fill="none" stroke="#9a32cd" stroke-dasharray="5,2" d="M288.5,-68.2362C288.5,-56.4079 288.5,-41.3829 288.5,-30.5762"/>
<polygon fill="#9a32cd" stroke="#9a32cd" points="285,-68.3553 288.5,-78.3553 292,-68.3554 285,-68.3553"/>
<text text-anchor="middle" x="304" y="-52" font-family="Helvetica,sans-Serif" font-size="10.00"> m_rhs</text>
</g>
<!-- Node9 -->
<g id="node8" class="node"><title>Node9</title>
<polygon fill="white" stroke="#bfbfbf" points="327,-78.5 327,-97.5 362,-97.5 362,-78.5 327,-78.5"/>
<text text-anchor="middle" x="344.5" y="-85.5" font-family="Helvetica,sans-Serif" font-size="10.00">bool</text>
</g>
<!-- Node9&#45;&gt;Node2 -->
<g id="edge7" class="edge"><title>Node9&#45;&gt;Node2</title>
<path fill="none" stroke="#9a32cd" stroke-dasharray="5,2" d="M335.152,-69.5296C331.274,-62.8608 326.511,-55.3421 321.5,-49 316.415,-42.5643 310.144,-36.0976 304.438,-30.6463"/>
<polygon fill="#9a32cd" stroke="#9a32cd" points="332.202,-71.4249 340.127,-78.456 338.316,-68.017 332.202,-71.4249"/>
<text text-anchor="middle" x="350" y="-52" font-family="Helvetica,sans-Serif" font-size="10.00"> m_result</text>
</g>
<!-- Node10 -->
<g id="node9" class="node"><title>Node10</title>
<polygon fill="white" stroke="#bfbfbf" points="388.5,-78.5 388.5,-97.5 426.5,-97.5 426.5,-78.5 388.5,-78.5"/>
<text text-anchor="middle" x="407.5" y="-85.5" font-family="Helvetica,sans-Serif" font-size="10.00">LhsT</text>
</g>
<!-- Node10&#45;&gt;Node2 -->
<g id="edge8" class="edge"><title>Node10&#45;&gt;Node2</title>
<path fill="none" stroke="#9a32cd" stroke-dasharray="5,2" d="M395.62,-69.8626C389.915,-62.6382 382.565,-54.6192 374.5,-49 363.63,-41.427 350.769,-35.3483 338.35,-30.5909"/>
<polygon fill="#9a32cd" stroke="#9a32cd" points="393.137,-72.3904 401.898,-78.3481 398.764,-68.2273 393.137,-72.3904"/>
<text text-anchor="middle" x="402.5" y="-52" font-family="Helvetica,sans-Serif" font-size="10.00"> m_lhs</text>
</g>
</g>
</svg>
