<?xml version="1.0" encoding="UTF-8" standalone="no"?>
<!DOCTYPE svg PUBLIC "-//W3C//DTD SVG 1.1//EN"
 "http://www.w3.org/Graphics/SVG/1.1/DTD/svg11.dtd">
<!-- Generated by graphviz version 2.40.1 (20161225.0304)
 -->
<!-- Title: statistics::Manager::calculateGapStats Pages: 1 -->
<svg width="1797pt" height="745pt"
 viewBox="0.00 0.00 1797.00 744.84" xmlns="http://www.w3.org/2000/svg" xmlns:xlink="http://www.w3.org/1999/xlink">
<g id="graph0" class="graph" transform="scale(1 1) rotate(0) translate(4 740.8431)">
<title>statistics::Manager::calculateGapStats</title>
<polygon fill="#ffffff" stroke="transparent" points="-4,4 -4,-740.8431 1793,-740.8431 1793,4 -4,4"/>
<!-- Node85 -->
<g id="node1" class="node">
<title>Node85</title>
<polygon fill="#bfbfbf" stroke="#000000" points="0,-147 0,-177 103,-177 103,-147 0,-147"/>
<text text-anchor="start" x="8" y="-165" font-family="Helvetica,sans-Serif" font-size="10.00" fill="#000000">statistics::Manager</text>
<text text-anchor="middle" x="51.5" y="-154" font-family="Helvetica,sans-Serif" font-size="10.00" fill="#000000">::calculateGapStats</text>
</g>
<!-- Node86 -->
<g id="node2" class="node">
<title>Node86</title>
<g id="a_node2"><a xlink:href="classstatistics_1_1_manager.html#a92505ca5aedc5b45c4300a0e8a7d1e17" target="_top" xlink:title="Method to handle similarity stat calculation It checks if the similarity submodule has been created...">
<polygon fill="#ffffff" stroke="#000000" points="477,-257 477,-287 620,-287 620,-257 477,-257"/>
<text text-anchor="start" x="485" y="-275" font-family="Helvetica,sans-Serif" font-size="10.00" fill="#000000">statistics::Manager</text>
<text text-anchor="middle" x="548.5" y="-264" font-family="Helvetica,sans-Serif" font-size="10.00" fill="#000000">::calculateConservationStats</text>
</a>
</g>
</g>
<!-- Node85&#45;&gt;Node86 -->
<g id="edge1" class="edge">
<title>Node85&#45;&gt;Node86</title>
<path fill="none" stroke="#191970" d="M113.1612,-175.6473C206.6593,-196.3411 383.6505,-235.5142 480.6742,-256.9882"/>
<polygon fill="#191970" stroke="#191970" points="113.8013,-172.2044 103.2812,-173.4606 112.2886,-179.039 113.8013,-172.2044"/>
</g>
<!-- Node87 -->
<g id="node3" class="node">
<title>Node87</title>
<g id="a_node3"><a xlink:href="class_cleaner.html#a4718e31c0183b5a98751d77479faacf0" target="_top" xlink:title="Method to trim an alignment based on the similarity and gaps distribution values. ...">
<polygon fill="#ffffff" stroke="#000000" points="915.5,-228.5 915.5,-247.5 995.5,-247.5 995.5,-228.5 915.5,-228.5"/>
<text text-anchor="middle" x="955.5" y="-235.5" font-family="Helvetica,sans-Serif" font-size="10.00" fill="#000000">Cleaner::clean</text>
</a>
</g>
</g>
<!-- Node85&#45;&gt;Node87 -->
<g id="edge37" class="edge">
<title>Node85&#45;&gt;Node87</title>
<path fill="none" stroke="#191970" d="M113.3177,-162C177.1138,-162 279.5145,-162 368,-162 368,-162 368,-162 548.5,-162 675.2261,-162 710.248,-149.5128 833,-181 873.6712,-191.4326 917.3574,-215.1436 939.9578,-228.4633"/>
<polygon fill="#191970" stroke="#191970" points="113.0311,-158.5001 103.0311,-162 113.031,-165.5001 113.0311,-158.5001"/>
</g>
<!-- Node99 -->
<g id="node15" class="node">
<title>Node99</title>
<g id="a_node15"><a xlink:href="classstatistics_1_1_similarity.html#ae69ec0e79912ae23c8cfe97358c4794d" target="_top" xlink:title="Method to calculate the similarity values of a alignment matrix. ">
<polygon fill="#ffffff" stroke="#000000" points="147.5,-253 147.5,-283 250.5,-283 250.5,-253 147.5,-253"/>
<text text-anchor="start" x="155.5" y="-271" font-family="Helvetica,sans-Serif" font-size="10.00" fill="#000000">statistics::Similarity</text>
<text text-anchor="middle" x="199" y="-260" font-family="Helvetica,sans-Serif" font-size="10.00" fill="#000000">::calculateVectors</text>
</a>
</g>
</g>
<!-- Node85&#45;&gt;Node99 -->
<g id="edge18" class="edge">
<title>Node85&#45;&gt;Node99</title>
<path fill="none" stroke="#191970" d="M81.0427,-183.2307C109.7141,-203.8352 152.5129,-234.5924 177.906,-252.841"/>
<polygon fill="#191970" stroke="#191970" points="82.7963,-180.1808 72.6332,-177.1872 78.7112,-185.8653 82.7963,-180.1808"/>
</g>
<!-- Node108 -->
<g id="node24" class="node">
<title>Node108</title>
<g id="a_node24"><a xlink:href="class_cleaner.html#aa57106470d2104a925b9396b8a9f33b3" target="_top" xlink:title="Method that carries the gappyout approach. This methods calculates the slope in gaps distribution on ...">
<polygon fill="#ffffff" stroke="#000000" points="139,-76.5 139,-95.5 259,-95.5 259,-76.5 139,-76.5"/>
<text text-anchor="middle" x="199" y="-83.5" font-family="Helvetica,sans-Serif" font-size="10.00" fill="#000000">Cleaner::clean2ndSlope</text>
</a>
</g>
</g>
<!-- Node85&#45;&gt;Node108 -->
<g id="edge38" class="edge">
<title>Node85&#45;&gt;Node108</title>
<path fill="none" stroke="#191970" d="M83.3219,-141.4625C99.6327,-131.3575 120.0132,-119.3681 139,-110 149.7653,-104.6883 162.0134,-99.6241 172.624,-95.5285"/>
<polygon fill="#191970" stroke="#191970" points="81.3309,-138.5796 74.7137,-146.8539 85.0465,-144.5121 81.3309,-138.5796"/>
</g>
<!-- Node109 -->
<g id="node25" class="node">
<title>Node109</title>
<g id="a_node25"><a xlink:href="class_cleaner.html#af7c9e1a177424168fa4214aca9ebd8e2" target="_top" xlink:title="Method to trim an alignment based on the gap distribution values. Column blocks that don&#39;t have a min...">
<polygon fill="#ffffff" stroke="#000000" points="693,-114.5 693,-133.5 796,-133.5 796,-114.5 693,-114.5"/>
<text text-anchor="middle" x="744.5" y="-121.5" font-family="Helvetica,sans-Serif" font-size="10.00" fill="#000000">Cleaner::cleanGaps</text>
</a>
</g>
</g>
<!-- Node85&#45;&gt;Node109 -->
<g id="edge40" class="edge">
<title>Node85&#45;&gt;Node109</title>
<path fill="none" stroke="#191970" d="M113.2252,-151.1842C121.8601,-149.9459 130.6376,-148.8317 139,-148 343.4024,-127.6698 588.2332,-124.3902 692.9215,-123.9785"/>
<polygon fill="#191970" stroke="#191970" points="112.5599,-147.7447 103.1876,-152.6853 113.5953,-154.6677 112.5599,-147.7447"/>
</g>
<!-- Node110 -->
<g id="node26" class="node">
<title>Node110</title>
<g id="a_node26"><a xlink:href="class_cleaner.html#a3af7bde2142886d6d723c95694b7b9ba" target="_top" xlink:title="Method to remove columns composed only by gaps This method is specially useful when we remove missali...">
<polygon fill="#ffffff" stroke="#000000" points="681,-38.5 681,-57.5 808,-57.5 808,-38.5 681,-38.5"/>
<text text-anchor="middle" x="744.5" y="-45.5" font-family="Helvetica,sans-Serif" font-size="10.00" fill="#000000">Cleaner::cleanNoAllGaps</text>
</a>
</g>
</g>
<!-- Node85&#45;&gt;Node110 -->
<g id="edge43" class="edge">
<title>Node85&#45;&gt;Node110</title>
<path fill="none" stroke="#191970" d="M65.4802,-138.1453C80.4189,-115.2119 106.4162,-81.901 139,-67 233.9289,-23.5877 545.689,-36.075 680.9483,-43.8746"/>
<polygon fill="#191970" stroke="#191970" points="62.4852,-136.3333 60.1263,-146.6622 68.4115,-140.0587 62.4852,-136.3333"/>
</g>
<!-- Node112 -->
<g id="node28" class="node">
<title>Node112</title>
<g id="a_node28"><a xlink:href="classstatistics_1_1_manager.html#a48e846c0c59f08e43e5483a8eaa2e586" target="_top" xlink:title="Wrapper to Statistics::Gaps::printGapsColumns() It calls to calculateGapStats() to make sure the info...">
<polygon fill="#ffffff" stroke="#000000" points="295.5,-658 295.5,-688 440.5,-688 440.5,-658 295.5,-658"/>
<text text-anchor="start" x="303.5" y="-676" font-family="Helvetica,sans-Serif" font-size="10.00" fill="#000000">statistics::Manager</text>
<text text-anchor="middle" x="368" y="-665" font-family="Helvetica,sans-Serif" font-size="10.00" fill="#000000">::printStatisticsGapsColumns</text>
</a>
</g>
</g>
<!-- Node85&#45;&gt;Node112 -->
<g id="edge47" class="edge">
<title>Node85&#45;&gt;Node112</title>
<path fill="none" stroke="#191970" d="M54.9938,-187.2881C63.0462,-239.2051 86.3989,-360.2225 139,-447 196.1854,-541.3404 301.4336,-624.629 346.5491,-657.7681"/>
<polygon fill="#191970" stroke="#191970" points="58.4403,-186.6695 53.5027,-177.2955 51.517,-187.7026 58.4403,-186.6695"/>
</g>
<!-- Node113 -->
<g id="node29" class="node">
<title>Node113</title>
<g id="a_node29"><a xlink:href="classstatistics_1_1_manager.html#ab93622daa40044bfb03ae1e1e1eabb89" target="_top" xlink:title="Wrapper to Statistics::Gaps::printGapsAcl() It calls to calculateGapStats() to make sure the informat...">
<polygon fill="#ffffff" stroke="#000000" points="484.5,-575 484.5,-605 612.5,-605 612.5,-575 484.5,-575"/>
<text text-anchor="start" x="492.5" y="-593" font-family="Helvetica,sans-Serif" font-size="10.00" fill="#000000">statistics::Manager</text>
<text text-anchor="middle" x="548.5" y="-582" font-family="Helvetica,sans-Serif" font-size="10.00" fill="#000000">::printStatisticsGapsTotal</text>
</a>
</g>
</g>
<!-- Node85&#45;&gt;Node113 -->
<g id="edge49" class="edge">
<title>Node85&#45;&gt;Node113</title>
<path fill="none" stroke="#191970" d="M64.3149,-186.418C79.654,-214.2153 107.2803,-260.0315 139,-293 263.9779,-422.8983 451.7848,-535.4189 521.3356,-574.9265"/>
<polygon fill="#191970" stroke="#191970" points="67.2607,-184.5081 59.4151,-177.3878 61.108,-187.8465 67.2607,-184.5081"/>
</g>
<!-- Node114 -->
<g id="node30" class="node">
<title>Node114</title>
<g id="a_node30"><a xlink:href="class_cleaner.html#ab7f5b746b97697181f4cd06063cbb49a" target="_top" xlink:title="Method to detect right and left borders. Borders are the first column found with no gaps...">
<polygon fill="#ffffff" stroke="#000000" points="295,-.5 295,-19.5 441,-19.5 441,-.5 295,-.5"/>
<text text-anchor="middle" x="368" y="-7.5" font-family="Helvetica,sans-Serif" font-size="10.00" fill="#000000">Cleaner::removeOnlyTerminal</text>
</a>
</g>
</g>
<!-- Node85&#45;&gt;Node114 -->
<g id="edge51" class="edge">
<title>Node85&#45;&gt;Node114</title>
<path fill="none" stroke="#191970" d="M60.6262,-137.6219C73.256,-107.634 99.1206,-57.7855 139,-34 185.6914,-6.1516 247.403,-1.1187 294.9984,-2.5194"/>
<polygon fill="#191970" stroke="#191970" points="57.3526,-136.3811 56.8492,-146.9639 63.8423,-139.0048 57.3526,-136.3811"/>
</g>
<!-- Node86&#45;&gt;Node87 -->
<g id="edge2" class="edge">
<title>Node86&#45;&gt;Node87</title>
<path fill="none" stroke="#191970" d="M630.3321,-264.2779C638.9966,-263.4931 647.6784,-262.7204 656,-262 748.7643,-253.9689 857.7766,-245.4691 915.2785,-241.0588"/>
<polygon fill="#191970" stroke="#191970" points="629.8322,-260.8089 620.1913,-265.2024 630.4678,-267.78 629.8322,-260.8089"/>
</g>
<!-- Node93 -->
<g id="node9" class="node">
<title>Node93</title>
<g id="a_node9"><a xlink:href="class_cleaner.html#a6727a235afa29f08a50716f28fa5c8fc" target="_top" xlink:title="Method to clean an alignment. It carries out strict and strictplus. The method: ">
<polygon fill="#ffffff" stroke="#000000" points="673,-190.5 673,-209.5 816,-209.5 816,-190.5 673,-190.5"/>
<text text-anchor="middle" x="744.5" y="-197.5" font-family="Helvetica,sans-Serif" font-size="10.00" fill="#000000">Cleaner::cleanCombMethods</text>
</a>
</g>
</g>
<!-- Node86&#45;&gt;Node93 -->
<g id="edge8" class="edge">
<title>Node86&#45;&gt;Node93</title>
<path fill="none" stroke="#191970" d="M588.1581,-252.5203C608.1942,-243.1363 633.0636,-232.175 656,-224 671.4454,-218.4949 688.7885,-213.5346 704.0019,-209.5718"/>
<polygon fill="#191970" stroke="#191970" points="586.5695,-249.3999 579.0292,-256.8427 589.5651,-255.7265 586.5695,-249.3999"/>
</g>
<!-- Node95 -->
<g id="node11" class="node">
<title>Node95</title>
<g id="a_node11"><a xlink:href="class_cleaner.html#a9cdbd6ebf78a284dd065b31319795b0c" target="_top" xlink:title="Method to trim an alignment based on the similarity distribution values. ">
<polygon fill="#ffffff" stroke="#000000" points="887,-307.5 887,-326.5 1024,-326.5 1024,-307.5 887,-307.5"/>
<text text-anchor="middle" x="955.5" y="-314.5" font-family="Helvetica,sans-Serif" font-size="10.00" fill="#000000">Cleaner::cleanConservation</text>
</a>
</g>
</g>
<!-- Node86&#45;&gt;Node95 -->
<g id="edge11" class="edge">
<title>Node86&#45;&gt;Node95</title>
<path fill="none" stroke="#191970" d="M630.7069,-281.0892C705.9655,-289.4102 816.0729,-301.5842 886.7646,-309.4003"/>
<polygon fill="#191970" stroke="#191970" points="630.6506,-277.5617 620.3266,-279.9415 629.8813,-284.5194 630.6506,-277.5617"/>
</g>
<!-- Node96 -->
<g id="node12" class="node">
<title>Node96</title>
<g id="a_node12"><a xlink:href="classstatistics_1_1_manager.html#a080c687f8f355900511485eeec32a659" target="_top" xlink:title="Wrapper to Statistics::Similarity::printConservationAcl() It calls to calculateConservationStats() to...">
<polygon fill="#ffffff" stroke="#000000" points="674.5,-490.5 674.5,-531.5 814.5,-531.5 814.5,-490.5 674.5,-490.5"/>
<text text-anchor="start" x="682.5" y="-519.5" font-family="Helvetica,sans-Serif" font-size="10.00" fill="#000000">statistics::Manager</text>
<text text-anchor="start" x="682.5" y="-508.5" font-family="Helvetica,sans-Serif" font-size="10.00" fill="#000000">::printStatisticsConservation</text>
<text text-anchor="middle" x="744.5" y="-497.5" font-family="Helvetica,sans-Serif" font-size="10.00" fill="#000000">Columns</text>
</a>
</g>
</g>
<!-- Node86&#45;&gt;Node96 -->
<g id="edge13" class="edge">
<title>Node86&#45;&gt;Node96</title>
<path fill="none" stroke="#191970" d="M563.3563,-295.6907C592.6866,-342.4543 655.2773,-442.2061 656,-443 672.5644,-461.1981 694.4744,-478.0757 712.3496,-490.4643"/>
<polygon fill="#191970" stroke="#191970" points="566.2403,-293.7016 557.962,-287.0895 560.3101,-297.4208 566.2403,-293.7016"/>
</g>
<!-- Node98 -->
<g id="node14" class="node">
<title>Node98</title>
<g id="a_node14"><a xlink:href="classstatistics_1_1_manager.html#aa20cfb477826035386ea988e3706b09a" target="_top" xlink:title="Wrapper to Statistics::Similarity::printGapsTotal() It calls to calculateConservationStats() to make ...">
<polygon fill="#ffffff" stroke="#000000" points="674.5,-392.5 674.5,-433.5 814.5,-433.5 814.5,-392.5 674.5,-392.5"/>
<text text-anchor="start" x="682.5" y="-421.5" font-family="Helvetica,sans-Serif" font-size="10.00" fill="#000000">statistics::Manager</text>
<text text-anchor="start" x="682.5" y="-410.5" font-family="Helvetica,sans-Serif" font-size="10.00" fill="#000000">::printStatisticsConservation</text>
<text text-anchor="middle" x="744.5" y="-399.5" font-family="Helvetica,sans-Serif" font-size="10.00" fill="#000000">Total</text>
</a>
</g>
</g>
<!-- Node86&#45;&gt;Node98 -->
<g id="edge16" class="edge">
<title>Node86&#45;&gt;Node98</title>
<path fill="none" stroke="#191970" d="M565.5569,-295.3187C584.9157,-320.2559 618.6862,-359.3913 656,-383 661.7581,-386.6432 668.0089,-389.8984 674.4358,-392.795"/>
<polygon fill="#191970" stroke="#191970" points="568.1712,-292.9746 559.3283,-287.1389 562.602,-297.2153 568.1712,-292.9746"/>
</g>
<!-- Node88 -->
<g id="node4" class="node">
<title>Node88</title>
<g id="a_node4"><a xlink:href="classtrim_al_manager.html#aebfd21b0435302f0e4fc45a068d1b6ee" target="_top" xlink:title="Method to trim the alignment using non automatic methods: ">
<polygon fill="#ffffff" stroke="#000000" points="1082,-204 1082,-234 1234,-234 1234,-204 1082,-204"/>
<text text-anchor="start" x="1090" y="-222" font-family="Helvetica,sans-Serif" font-size="10.00" fill="#000000">trimAlManager::CleanResidues</text>
<text text-anchor="middle" x="1158" y="-211" font-family="Helvetica,sans-Serif" font-size="10.00" fill="#000000">NonAuto</text>
</a>
</g>
</g>
<!-- Node87&#45;&gt;Node88 -->
<g id="edge3" class="edge">
<title>Node87&#45;&gt;Node88</title>
<path fill="none" stroke="#191970" d="M1005.6718,-233.2925C1028.5718,-231.1439 1056.1948,-228.5521 1081.5945,-226.1689"/>
<polygon fill="#191970" stroke="#191970" points="1005.1368,-229.8273 995.5075,-234.2462 1005.7907,-236.7966 1005.1368,-229.8273"/>
</g>
<!-- Node89 -->
<g id="node5" class="node">
<title>Node89</title>
<g id="a_node5"><a xlink:href="classtrim_al_manager.html#adc529dd893ed4e9df6f3ddbd58776068" target="_top" xlink:title="Core Method of the program. This is where almost all cleaning methods are called from. ">
<polygon fill="#ffffff" stroke="#000000" points="1274,-177 1274,-207 1383,-207 1383,-177 1274,-177"/>
<text text-anchor="start" x="1282" y="-195" font-family="Helvetica,sans-Serif" font-size="10.00" fill="#000000">trimAlManager::clean</text>
<text text-anchor="middle" x="1328.5" y="-184" font-family="Helvetica,sans-Serif" font-size="10.00" fill="#000000">_alignment</text>
</a>
</g>
</g>
<!-- Node88&#45;&gt;Node89 -->
<g id="edge4" class="edge">
<title>Node88&#45;&gt;Node89</title>
<path fill="none" stroke="#191970" d="M1244.35,-205.3258C1254.4404,-203.7279 1264.5103,-202.1333 1273.9941,-200.6314"/>
<polygon fill="#191970" stroke="#191970" points="1243.6031,-201.9004 1234.2736,-206.9215 1244.698,-208.8142 1243.6031,-201.9004"/>
</g>
<!-- Node90 -->
<g id="node6" class="node">
<title>Node90</title>
<g id="a_node6"><a xlink:href="classtrim_al_manager.html#a7c641a1feff33d401b4ea5c82e989289" target="_top" xlink:title="trimAlManager::innerPerform">
<polygon fill="#ffffff" stroke="#000000" points="1419,-501.5 1419,-520.5 1560,-520.5 1560,-501.5 1419,-501.5"/>
<text text-anchor="middle" x="1489.5" y="-508.5" font-family="Helvetica,sans-Serif" font-size="10.00" fill="#000000">trimAlManager::innerPerform</text>
</a>
</g>
</g>
<!-- Node89&#45;&gt;Node90 -->
<g id="edge5" class="edge">
<title>Node89&#45;&gt;Node90</title>
<path fill="none" stroke="#191970" d="M1340.8918,-216.5528C1373.9202,-281.994 1463.025,-458.5433 1484.6994,-501.4882"/>
<polygon fill="#191970" stroke="#191970" points="1343.8957,-214.7365 1336.2654,-207.386 1337.6465,-217.8905 1343.8957,-214.7365"/>
</g>
<!-- Node91 -->
<g id="node7" class="node">
<title>Node91</title>
<g id="a_node7"><a xlink:href="classtrim_al_manager.html#abe8d2841455c644dc9c7d1294b82b00f" target="_top" xlink:title="Method to perform the analysis if all checks have passed. ">
<polygon fill="#ffffff" stroke="#000000" points="1596,-501.5 1596,-520.5 1715,-520.5 1715,-501.5 1596,-501.5"/>
<text text-anchor="middle" x="1655.5" y="-508.5" font-family="Helvetica,sans-Serif" font-size="10.00" fill="#000000">trimAlManager::perform</text>
</a>
</g>
</g>
<!-- Node90&#45;&gt;Node91 -->
<g id="edge6" class="edge">
<title>Node90&#45;&gt;Node91</title>
<path fill="none" stroke="#191970" d="M1570.4012,-511C1578.9677,-511 1587.564,-511 1595.8249,-511"/>
<polygon fill="#191970" stroke="#191970" points="1570.3805,-507.5001 1560.3804,-511 1570.3804,-514.5001 1570.3805,-507.5001"/>
</g>
<!-- Node92 -->
<g id="node8" class="node">
<title>Node92</title>
<g id="a_node8"><a xlink:href="trim_al_main_8cpp.html#a0ddf1224851353fc92bfbff6f499fa97" target="_top" xlink:title="main">
<polygon fill="#ffffff" stroke="#000000" points="1751,-501.5 1751,-520.5 1789,-520.5 1789,-501.5 1751,-501.5"/>
<text text-anchor="middle" x="1770" y="-508.5" font-family="Helvetica,sans-Serif" font-size="10.00" fill="#000000">main</text>
</a>
</g>
</g>
<!-- Node91&#45;&gt;Node92 -->
<g id="edge7" class="edge">
<title>Node91&#45;&gt;Node92</title>
<path fill="none" stroke="#191970" d="M1725.3198,-511C1734.6177,-511 1743.4503,-511 1750.7697,-511"/>
<polygon fill="#191970" stroke="#191970" points="1725.0976,-507.5001 1715.0976,-511 1725.0975,-514.5001 1725.0976,-507.5001"/>
</g>
<!-- Node94 -->
<g id="node10" class="node">
<title>Node94</title>
<g id="a_node10"><a xlink:href="classtrim_al_manager.html#a69082911b30a1bd12395bb235bc18a34" target="_top" xlink:title="Method to trim the alignment using automatic or semi&#45;automatic methods: ">
<polygon fill="#ffffff" stroke="#000000" points="869,-114.5 869,-133.5 1042,-133.5 1042,-114.5 869,-114.5"/>
<text text-anchor="middle" x="955.5" y="-121.5" font-family="Helvetica,sans-Serif" font-size="10.00" fill="#000000">trimAlManager::CleanResiduesAuto</text>
</a>
</g>
</g>
<!-- Node93&#45;&gt;Node94 -->
<g id="edge9" class="edge">
<title>Node93&#45;&gt;Node94</title>
<path fill="none" stroke="#191970" d="M780.8278,-186.9151C822.9993,-171.7254 891.5388,-147.0381 928.9937,-133.5473"/>
<polygon fill="#191970" stroke="#191970" points="779.4455,-183.6928 771.2233,-190.3745 781.8177,-190.2786 779.4455,-183.6928"/>
</g>
<!-- Node94&#45;&gt;Node89 -->
<g id="edge10" class="edge">
<title>Node94&#45;&gt;Node89</title>
<path fill="none" stroke="#191970" d="M1017.9847,-135.3913C1089.5748,-148.4426 1205.7522,-169.6224 1273.8706,-182.0407"/>
<polygon fill="#191970" stroke="#191970" points="1018.2224,-131.877 1007.7568,-133.5267 1016.9669,-138.7635 1018.2224,-131.877"/>
</g>
<!-- Node95&#45;&gt;Node88 -->
<g id="edge12" class="edge">
<title>Node95&#45;&gt;Node88</title>
<path fill="none" stroke="#191970" d="M984.7248,-302.8567C1022.5691,-284.5418 1088.2511,-252.755 1126.9612,-234.0212"/>
<polygon fill="#191970" stroke="#191970" points="982.7619,-299.9182 975.2853,-307.4249 985.8113,-306.2191 982.7619,-299.9182"/>
</g>
<!-- Node97 -->
<g id="node13" class="node">
<title>Node97</title>
<g id="a_node13"><a xlink:href="classtrim_al_manager.html#afc48b86f5ae35b9a5e721b65c58bf610" target="_top" xlink:title="Method to print statistics requested. ">
<polygon fill="#ffffff" stroke="#000000" points="903.5,-496 903.5,-526 1007.5,-526 1007.5,-496 903.5,-496"/>
<text text-anchor="start" x="911.5" y="-514" font-family="Helvetica,sans-Serif" font-size="10.00" fill="#000000">trimAlManager::print</text>
<text text-anchor="middle" x="955.5" y="-503" font-family="Helvetica,sans-Serif" font-size="10.00" fill="#000000">_statistics</text>
</a>
</g>
</g>
<!-- Node96&#45;&gt;Node97 -->
<g id="edge14" class="edge">
<title>Node96&#45;&gt;Node97</title>
<path fill="none" stroke="#191970" d="M825.065,-511C851.2722,-511 879.657,-511 903.2347,-511"/>
<polygon fill="#191970" stroke="#191970" points="824.76,-507.5001 814.7599,-511 824.7599,-514.5001 824.76,-507.5001"/>
</g>
<!-- Node97&#45;&gt;Node90 -->
<g id="edge15" class="edge">
<title>Node97&#45;&gt;Node90</title>
<path fill="none" stroke="#191970" d="M1017.9259,-511C1117.9442,-511 1313.5088,-511 1418.6299,-511"/>
<polygon fill="#191970" stroke="#191970" points="1017.6745,-507.5001 1007.6744,-511 1017.6744,-514.5001 1017.6745,-507.5001"/>
</g>
<!-- Node98&#45;&gt;Node97 -->
<g id="edge17" class="edge">
<title>Node98&#45;&gt;Node97</title>
<path fill="none" stroke="#191970" d="M797.948,-437.8242C837.3707,-456.1343 889.7326,-480.454 923.0333,-495.9207"/>
<polygon fill="#191970" stroke="#191970" points="799.2764,-434.5821 788.7325,-433.544 796.3277,-440.9308 799.2764,-434.5821"/>
</g>
<!-- Node99&#45;&gt;Node86 -->
<g id="edge19" class="edge">
<title>Node99&#45;&gt;Node86</title>
<path fill="none" stroke="#191970" d="M260.7228,-268.7064C321.1144,-269.3976 413.0496,-270.4498 476.6857,-271.1781"/>
<polygon fill="#191970" stroke="#191970" points="260.6094,-265.205 250.5699,-268.5902 260.5292,-272.2045 260.6094,-265.205"/>
</g>
<!-- Node100 -->
<g id="node16" class="node">
<title>Node100</title>
<g id="a_node16"><a xlink:href="classstatistics_1_1_similarity.html#adcb5627b9704850e85433fc40c19db17" target="_top" xlink:title="Allows us compute the conservationWindow&#39;s values. ">
<polygon fill="#ffffff" stroke="#000000" points="316.5,-297 316.5,-327 419.5,-327 419.5,-297 316.5,-297"/>
<text text-anchor="start" x="324.5" y="-315" font-family="Helvetica,sans-Serif" font-size="10.00" fill="#000000">statistics::Similarity</text>
<text text-anchor="middle" x="368" y="-304" font-family="Helvetica,sans-Serif" font-size="10.00" fill="#000000">::applyWindow</text>
</a>
</g>
</g>
<!-- Node99&#45;&gt;Node100 -->
<g id="edge20" class="edge">
<title>Node99&#45;&gt;Node100</title>
<path fill="none" stroke="#191970" d="M260.3604,-283.9755C278.7449,-288.762 298.7128,-293.9607 316.4013,-298.566"/>
<polygon fill="#191970" stroke="#191970" points="261.1831,-280.5731 250.6239,-281.4405 259.4194,-287.3473 261.1831,-280.5731"/>
</g>
<!-- Node100&#45;&gt;Node86 -->
<g id="edge21" class="edge">
<title>Node100&#45;&gt;Node86</title>
<path fill="none" stroke="#191970" d="M429.7254,-298.3212C446.1143,-294.6893 463.902,-290.7475 480.6002,-287.047"/>
<polygon fill="#191970" stroke="#191970" points="428.7299,-294.9569 419.7241,-300.5376 430.2445,-301.7911 428.7299,-294.9569"/>
</g>
<!-- Node101 -->
<g id="node17" class="node">
<title>Node101</title>
<g id="a_node17"><a xlink:href="classstatistics_1_1_similarity.html#a1b65c85328f09fa0637365d11fb386b4" target="_top" xlink:title="This methods returns a pointer to conservationWindow&#39;s vector. ">
<polygon fill="#ffffff" stroke="#000000" points="484,-395 484,-425 613,-425 613,-395 484,-395"/>
<text text-anchor="start" x="492" y="-413" font-family="Helvetica,sans-Serif" font-size="10.00" fill="#000000">statistics::Similarity</text>
<text text-anchor="middle" x="548.5" y="-402" font-family="Helvetica,sans-Serif" font-size="10.00" fill="#000000">::getMdkWindowedVector</text>
</a>
</g>
</g>
<!-- Node100&#45;&gt;Node101 -->
<g id="edge22" class="edge">
<title>Node100&#45;&gt;Node101</title>
<path fill="none" stroke="#191970" d="M405.0345,-332.1074C439.3534,-350.7404 489.6434,-378.0446 520.6608,-394.8851"/>
<polygon fill="#191970" stroke="#191970" points="406.2658,-328.7933 395.8076,-327.0977 402.9258,-334.9451 406.2658,-328.7933"/>
</g>
<!-- Node101&#45;&gt;Node87 -->
<g id="edge32" class="edge">
<title>Node101&#45;&gt;Node87</title>
<path fill="none" stroke="#191970" d="M574.2129,-388.402C595.1436,-371.692 626.0282,-348.9538 656,-334 743.9457,-290.1213 856.286,-260.4861 915.237,-246.7574"/>
<polygon fill="#191970" stroke="#191970" points="571.9978,-385.692 566.4292,-394.7055 576.4033,-391.1319 571.9978,-385.692"/>
</g>
<!-- Node101&#45;&gt;Node93 -->
<g id="edge33" class="edge">
<title>Node101&#45;&gt;Node93</title>
<path fill="none" stroke="#191970" d="M569.6446,-387.345C612.0005,-341.9637 705.724,-241.5458 735.342,-209.8121"/>
<polygon fill="#191970" stroke="#191970" points="566.8603,-385.1986 562.5958,-394.8973 571.9778,-389.9749 566.8603,-385.1986"/>
</g>
<!-- Node101&#45;&gt;Node95 -->
<g id="edge31" class="edge">
<title>Node101&#45;&gt;Node95</title>
<path fill="none" stroke="#191970" d="M593.8451,-428.7175C651.7015,-449.6403 753.7637,-476.4764 833,-443 890.8942,-418.5404 934.9364,-351.8577 949.9318,-326.7428"/>
<polygon fill="#191970" stroke="#191970" points="594.8537,-425.3586 584.2607,-425.1585 592.4169,-431.9207 594.8537,-425.3586"/>
</g>
<!-- Node102 -->
<g id="node18" class="node">
<title>Node102</title>
<g id="a_node18"><a xlink:href="class_alignment.html#a3754dfadea173918f5e85b9eb4c3ad8a" target="_top" xlink:title="Method to report the trimming results in HTML. Outputs an HTML file that shows visually what has been...">
<polygon fill="#ffffff" stroke="#000000" points="656,-550.5 656,-569.5 833,-569.5 833,-550.5 656,-550.5"/>
<text text-anchor="middle" x="744.5" y="-557.5" font-family="Helvetica,sans-Serif" font-size="10.00" fill="#000000">Alignment::alignmentSummaryHTML</text>
</a>
</g>
</g>
<!-- Node101&#45;&gt;Node102 -->
<g id="edge23" class="edge">
<title>Node101&#45;&gt;Node102</title>
<path fill="none" stroke="#191970" d="M561.566,-434.366C578.9833,-464.3739 612.7075,-514.6031 656,-541 662.3061,-544.8451 669.2797,-547.9187 676.4632,-550.3745"/>
<polygon fill="#191970" stroke="#191970" points="564.46,-432.3732 556.4926,-425.3896 558.366,-435.8175 564.46,-432.3732"/>
</g>
<!-- Node104 -->
<g id="node20" class="node">
<title>Node104</title>
<g id="a_node20"><a xlink:href="class_alignment.html#a724218d5e7d168974d9abcafcde632a1" target="_top" xlink:title="Alignment::statSVG">
<polygon fill="#ffffff" stroke="#000000" points="692.5,-626.5 692.5,-645.5 796.5,-645.5 796.5,-626.5 692.5,-626.5"/>
<text text-anchor="middle" x="744.5" y="-633.5" font-family="Helvetica,sans-Serif" font-size="10.00" fill="#000000">Alignment::statSVG</text>
</a>
</g>
</g>
<!-- Node101&#45;&gt;Node104 -->
<g id="edge26" class="edge">
<title>Node101&#45;&gt;Node104</title>
<path fill="none" stroke="#191970" d="M559.6729,-434.2708C583.8162,-486.2813 639.9689,-604.7714 656,-617 666.3705,-624.9106 679.3193,-629.6889 692.0844,-632.5345"/>
<polygon fill="#191970" stroke="#191970" points="562.7999,-432.6941 555.4231,-425.0894 556.4475,-435.6346 562.7999,-432.6941"/>
</g>
<!-- Node106 -->
<g id="node22" class="node">
<title>Node106</title>
<g id="a_node22"><a xlink:href="class_alignment.html#ac4196c026e0f482eaccf9976f82f72e3" target="_top" xlink:title="Method to report the trimming results in SVG. Outputs a SVG file that shows visually what has been do...">
<polygon fill="#ffffff" stroke="#000000" points="659,-588.5 659,-607.5 830,-607.5 830,-588.5 659,-588.5"/>
<text text-anchor="middle" x="744.5" y="-595.5" font-family="Helvetica,sans-Serif" font-size="10.00" fill="#000000">Alignment::alignmentSummarySVG</text>
</a>
</g>
</g>
<!-- Node101&#45;&gt;Node106 -->
<g id="edge29" class="edge">
<title>Node101&#45;&gt;Node106</title>
<path fill="none" stroke="#191970" d="M557.04,-434.6384C571.3433,-472.0588 603.8179,-542.6942 656,-579 661.5469,-582.8592 667.7272,-585.9581 674.1717,-588.4431"/>
<polygon fill="#191970" stroke="#191970" points="560.2354,-433.1879 553.4863,-425.0208 553.6693,-435.6141 560.2354,-433.1879"/>
</g>
<!-- Node107 -->
<g id="node23" class="node">
<title>Node107</title>
<g id="a_node23"><a xlink:href="classstatistics_1_1_similarity.html#a26f430acb8a3240977665de9a9ea875a" target="_top" xlink:title="Computes and selects the cut point values based on similarity&#39;s values. ">
<polygon fill="#ffffff" stroke="#000000" points="693,-343 693,-373 796,-373 796,-343 693,-343"/>
<text text-anchor="start" x="701" y="-361" font-family="Helvetica,sans-Serif" font-size="10.00" fill="#000000">statistics::Similarity</text>
<text text-anchor="middle" x="744.5" y="-350" font-family="Helvetica,sans-Serif" font-size="10.00" fill="#000000">::calcCutPoint</text>
</a>
</g>
</g>
<!-- Node101&#45;&gt;Node107 -->
<g id="edge34" class="edge">
<title>Node101&#45;&gt;Node107</title>
<path fill="none" stroke="#191970" d="M615.1329,-392.3219C640.562,-385.5754 669.141,-377.9932 692.9573,-371.6746"/>
<polygon fill="#191970" stroke="#191970" points="613.9594,-389.0121 605.1913,-394.9594 615.7545,-395.778 613.9594,-389.0121"/>
</g>
<!-- Node103 -->
<g id="node19" class="node">
<title>Node103</title>
<g id="a_node19"><a xlink:href="classtrim_al_manager.html#a1da8f8b677f19ed8f7e08a663d97bb92" target="_top" xlink:title="trimAlManager::output\l_reports">
<polygon fill="#ffffff" stroke="#000000" points="899,-545 899,-575 1012,-575 1012,-545 899,-545"/>
<text text-anchor="start" x="907" y="-563" font-family="Helvetica,sans-Serif" font-size="10.00" fill="#000000">trimAlManager::output</text>
<text text-anchor="middle" x="955.5" y="-552" font-family="Helvetica,sans-Serif" font-size="10.00" fill="#000000">_reports</text>
</a>
</g>
</g>
<!-- Node102&#45;&gt;Node103 -->
<g id="edge24" class="edge">
<title>Node102&#45;&gt;Node103</title>
<path fill="none" stroke="#191970" d="M843.2771,-560C862.2951,-560 881.6057,-560 898.7233,-560"/>
<polygon fill="#191970" stroke="#191970" points="843.0659,-556.5001 833.0659,-560 843.0658,-563.5001 843.0659,-556.5001"/>
</g>
<!-- Node103&#45;&gt;Node90 -->
<g id="edge25" class="edge">
<title>Node103&#45;&gt;Node90</title>
<path fill="none" stroke="#191970" d="M1022.4841,-555.5362C1106.7282,-549.6876 1255.7619,-538.5634 1383,-525 1395.2388,-523.6954 1408.2457,-522.1329 1420.8112,-520.5322"/>
<polygon fill="#191970" stroke="#191970" points="1022.0224,-552.0596 1012.2873,-556.2403 1022.5047,-559.043 1022.0224,-552.0596"/>
</g>
<!-- Node105 -->
<g id="node21" class="node">
<title>Node105</title>
<g id="a_node21"><a xlink:href="classtrim_al_manager.html#a63d5bec0938516a2129ccb04276b93d9" target="_top" xlink:title="trimAlManager::svg\l_stats_out">
<polygon fill="#ffffff" stroke="#000000" points="1278,-586 1278,-616 1379,-616 1379,-586 1278,-586"/>
<text text-anchor="start" x="1286" y="-604" font-family="Helvetica,sans-Serif" font-size="10.00" fill="#000000">trimAlManager::svg</text>
<text text-anchor="middle" x="1328.5" y="-593" font-family="Helvetica,sans-Serif" font-size="10.00" fill="#000000">_stats_out</text>
</a>
</g>
</g>
<!-- Node104&#45;&gt;Node105 -->
<g id="edge27" class="edge">
<title>Node104&#45;&gt;Node105</title>
<path fill="none" stroke="#191970" d="M806.7367,-632.2701C922.9367,-625.306 1170.7753,-610.4527 1277.6805,-604.0457"/>
<polygon fill="#191970" stroke="#191970" points="806.3555,-628.7865 796.5828,-632.8786 806.7743,-635.774 806.3555,-628.7865"/>
</g>
<!-- Node105&#45;&gt;Node90 -->
<g id="edge28" class="edge">
<title>Node105&#45;&gt;Node90</title>
<path fill="none" stroke="#191970" d="M1364.497,-580.8775C1398.1128,-562.086 1446.8268,-534.8546 1472.3822,-520.569"/>
<polygon fill="#191970" stroke="#191970" points="1362.4687,-578.0015 1355.4478,-585.936 1365.8844,-584.1116 1362.4687,-578.0015"/>
</g>
<!-- Node106&#45;&gt;Node103 -->
<g id="edge30" class="edge">
<title>Node106&#45;&gt;Node103</title>
<path fill="none" stroke="#191970" d="M807.4949,-586.6549C836.4896,-581.4331 870.6277,-575.2851 898.8068,-570.2101"/>
<polygon fill="#191970" stroke="#191970" points="806.6931,-583.2429 797.4719,-588.46 807.9339,-590.1321 806.6931,-583.2429"/>
</g>
<!-- Node107&#45;&gt;Node87 -->
<g id="edge36" class="edge">
<title>Node107&#45;&gt;Node87</title>
<path fill="none" stroke="#191970" d="M806.0546,-340.4267C815.331,-336.8474 824.5969,-332.709 833,-328 851.169,-317.8184 852.4272,-310.6142 869,-298 893.5777,-279.2929 923.4024,-259.1367 940.8353,-247.5973"/>
<polygon fill="#191970" stroke="#191970" points="804.6063,-337.2296 796.4195,-343.9547 807.0132,-343.8029 804.6063,-337.2296"/>
</g>
<!-- Node107&#45;&gt;Node95 -->
<g id="edge35" class="edge">
<title>Node107&#45;&gt;Node95</title>
<path fill="none" stroke="#191970" d="M806.2489,-346.0014C838.2209,-339.7888 876.708,-332.3103 906.5911,-326.5036"/>
<polygon fill="#191970" stroke="#191970" points="805.2652,-342.627 796.1164,-347.9703 806.6004,-349.4985 805.2652,-342.627"/>
</g>
<!-- Node108&#45;&gt;Node94 -->
<g id="edge39" class="edge">
<title>Node108&#45;&gt;Node94</title>
<path fill="none" stroke="#191970" d="M269.2871,-85.2692C386.4324,-84.6865 628.8985,-86.1864 833,-105 856.2524,-107.1433 881.7995,-110.8828 903.5193,-114.4805"/>
<polygon fill="#191970" stroke="#191970" points="269.0073,-81.7706 259.0273,-85.3272 269.047,-88.7705 269.0073,-81.7706"/>
</g>
<!-- Node109&#45;&gt;Node88 -->
<g id="edge42" class="edge">
<title>Node109&#45;&gt;Node88</title>
<path fill="none" stroke="#191970" d="M796.193,-135.8763C871.2403,-153.1181 1010.3468,-185.0773 1092.4837,-203.9479"/>
<polygon fill="#191970" stroke="#191970" points="796.571,-132.372 786.0412,-133.5439 795.0036,-139.1943 796.571,-132.372"/>
</g>
<!-- Node109&#45;&gt;Node94 -->
<g id="edge41" class="edge">
<title>Node109&#45;&gt;Node94</title>
<path fill="none" stroke="#191970" d="M806.3708,-124C825.8596,-124 847.7596,-124 868.6517,-124"/>
<polygon fill="#191970" stroke="#191970" points="806.1164,-120.5001 796.1164,-124 806.1164,-127.5001 806.1164,-120.5001"/>
</g>
<!-- Node110&#45;&gt;Node94 -->
<g id="edge44" class="edge">
<title>Node110&#45;&gt;Node94</title>
<path fill="none" stroke="#191970" d="M794.4504,-60.2663C807.1295,-63.7288 820.6542,-67.7281 833,-72 869.8994,-84.7681 911.4663,-103.3402 935.4572,-114.4888"/>
<polygon fill="#191970" stroke="#191970" points="795.0663,-56.8082 784.5019,-57.6096 793.2603,-63.5712 795.0663,-56.8082"/>
</g>
<!-- Node111 -->
<g id="node27" class="node">
<title>Node111</title>
<g id="a_node27"><a xlink:href="classtrim_al_manager.html#a10536f715945a1a45f1df33f7cedc81e" target="_top" xlink:title="Method to trim or reduce the number of sequences in an alignment. It performs one or none of the foll...">
<polygon fill="#ffffff" stroke="#000000" points="1078,-96.5 1078,-115.5 1238,-115.5 1238,-96.5 1078,-96.5"/>
<text text-anchor="middle" x="1158" y="-103.5" font-family="Helvetica,sans-Serif" font-size="10.00" fill="#000000">trimAlManager::CleanSequences</text>
</a>
</g>
</g>
<!-- Node110&#45;&gt;Node111 -->
<g id="edge45" class="edge">
<title>Node110&#45;&gt;Node111</title>
<path fill="none" stroke="#191970" d="M818.3193,-58.3543C895.4046,-69.1668 1015.2936,-85.9831 1090.097,-96.4755"/>
<polygon fill="#191970" stroke="#191970" points="818.5924,-54.8585 808.2032,-56.9354 817.62,-61.7906 818.5924,-54.8585"/>
</g>
<!-- Node111&#45;&gt;Node89 -->
<g id="edge46" class="edge">
<title>Node111&#45;&gt;Node89</title>
<path fill="none" stroke="#191970" d="M1185.8783,-120.0618C1216.904,-135.7111 1266.8472,-160.9024 1298.6488,-176.9431"/>
<polygon fill="#191970" stroke="#191970" points="1187.4027,-116.9107 1176.8979,-115.5321 1184.2502,-123.1607 1187.4027,-116.9107"/>
</g>
<!-- Node112&#45;&gt;Node97 -->
<g id="edge48" class="edge">
<title>Node112&#45;&gt;Node97</title>
<path fill="none" stroke="#191970" d="M415.3491,-691.4799C506.8757,-723.7959 709.8836,-778.4464 833,-682 885.6112,-640.7856 822.6872,-584.184 869,-536 878.0993,-526.5331 890.5403,-520.5872 903.1503,-516.8709"/>
<polygon fill="#191970" stroke="#191970" points="416.3919,-688.1355 405.7974,-688.0447 414.0229,-694.7225 416.3919,-688.1355"/>
</g>
<!-- Node113&#45;&gt;Node97 -->
<g id="edge50" class="edge">
<title>Node113&#45;&gt;Node97</title>
<path fill="none" stroke="#191970" d="M574.4157,-611.2668C595.0878,-626.7762 625.5339,-646.5054 656,-655 731.7763,-676.1281 769.8321,-701.8856 833,-655 877.3697,-622.0672 829.6862,-574.8286 869,-536 878.3424,-526.7729 890.867,-520.9094 903.4795,-517.1957"/>
<polygon fill="#191970" stroke="#191970" points="576.5123,-608.4638 566.4533,-605.1369 572.2421,-614.0105 576.5123,-608.4638"/>
</g>
<!-- Node115 -->
<g id="node31" class="node">
<title>Node115</title>
<g id="a_node31"><a xlink:href="classtrim_al_manager.html#a8ed19b851162fa24a1da66f7e54099e3" target="_top" xlink:title="trimAlManager::postprocess\l_alignment">
<polygon fill="#ffffff" stroke="#000000" points="1088.5,-6 1088.5,-36 1227.5,-36 1227.5,-6 1088.5,-6"/>
<text text-anchor="start" x="1096.5" y="-24" font-family="Helvetica,sans-Serif" font-size="10.00" fill="#000000">trimAlManager::postprocess</text>
<text text-anchor="middle" x="1158" y="-13" font-family="Helvetica,sans-Serif" font-size="10.00" fill="#000000">_alignment</text>
</a>
</g>
</g>
<!-- Node114&#45;&gt;Node115 -->
<g id="edge52" class="edge">
<title>Node114&#45;&gt;Node115</title>
<path fill="none" stroke="#191970" d="M451.306,-11.16C607.8352,-13.3395 943.1553,-18.0085 1088.4685,-20.0318"/>
<polygon fill="#191970" stroke="#191970" points="451.306,-7.6597 441.2582,-11.0201 451.2085,-14.659 451.306,-7.6597"/>
</g>
<!-- Node115&#45;&gt;Node90 -->
<g id="edge53" class="edge">
<title>Node115&#45;&gt;Node90</title>
<path fill="none" stroke="#191970" d="M1205.2958,-40.1339C1256.3448,-63.1325 1336.5565,-106.4696 1383,-168 1467.145,-279.479 1485.5753,-458.4791 1488.8681,-501.4873"/>
<polygon fill="#191970" stroke="#191970" points="1206.6792,-36.9187 1196.1179,-36.0764 1203.8488,-43.321 1206.6792,-36.9187"/>
</g>
</g>
</svg>
