<?xml version="1.0" encoding="UTF-8" standalone="no"?>
<!DOCTYPE svg PUBLIC "-//W3C//DTD SVG 1.1//EN"
 "http://www.w3.org/Graphics/SVG/1.1/DTD/svg11.dtd">
<!-- Generated by graphviz version 2.38.0 (20140413.2041)
 -->
<!-- Title: Cleaner::cleanByCutValueOverpass Pages: 1 -->
<svg width="799pt" height="104pt"
 viewBox="0.00 0.00 799.00 104.00" xmlns="http://www.w3.org/2000/svg" xmlns:xlink="http://www.w3.org/1999/xlink">
<g id="graph0" class="graph" transform="scale(1 1) rotate(0) translate(4 100)">
<title>Cleaner::cleanByCutValueOverpass</title>
<polygon fill="white" stroke="none" points="-4,4 -4,-100 795,-100 795,4 -4,4"/>
<!-- Node71 -->
<g id="node1" class="node"><title>Node71</title>
<polygon fill="#bfbfbf" stroke="black" points="0,-33 0,-63 132,-63 132,-33 0,-33"/>
<text text-anchor="start" x="8" y="-51" font-family="Helvetica,sans-Serif" font-size="10.00">Cleaner::cleanByCutValue</text>
<text text-anchor="middle" x="66" y="-40" font-family="Helvetica,sans-Serif" font-size="10.00">Overpass</text>
</g>
<!-- Node72 -->
<g id="node2" class="node"><title>Node72</title>
<g id="a_node2"><a xlink:href="class_cleaner.html#ac3be9d53018d9146d6dc6cf7ff89f96d" target="_top" xlink:title="Method to trim an alignment based on the gap distribution values. Column blocks that don&#39;t have a min...">
<polygon fill="white" stroke="black" points="180,-76.5 180,-95.5 283,-95.5 283,-76.5 180,-76.5"/>
<text text-anchor="middle" x="231.5" y="-83.5" font-family="Helvetica,sans-Serif" font-size="10.00">Cleaner::cleanGaps</text>
</a>
</g>
</g>
<!-- Node71&#45;&gt;Node72 -->
<g id="edge1" class="edge"><title>Node71&#45;&gt;Node72</title>
<path fill="none" stroke="midnightblue" d="M141.749,-65.3729C158.135,-69.1812 174.898,-73.0773 189.381,-76.4432"/>
<polygon fill="midnightblue" stroke="midnightblue" points="142.152,-61.8734 131.62,-63.0186 140.568,-68.6916 142.152,-61.8734"/>
</g>
<!-- Node76 -->
<g id="node6" class="node"><title>Node76</title>
<g id="a_node6"><a xlink:href="class_cleaner.html#a1ea9656823727f9ec237c82f9fb529cf" target="_top" xlink:title="Method that carries the gappyout approach. This methods calculates the slope in gaps distribution on ...">
<polygon fill="white" stroke="black" points="171.5,-38.5 171.5,-57.5 291.5,-57.5 291.5,-38.5 171.5,-38.5"/>
<text text-anchor="middle" x="231.5" y="-45.5" font-family="Helvetica,sans-Serif" font-size="10.00">Cleaner::clean2ndSlope</text>
</a>
</g>
</g>
<!-- Node71&#45;&gt;Node76 -->
<g id="edge5" class="edge"><title>Node71&#45;&gt;Node76</title>
<path fill="none" stroke="midnightblue" d="M142.239,-48C152.044,-48 161.976,-48 171.464,-48"/>
<polygon fill="midnightblue" stroke="midnightblue" points="142.089,-44.5001 132.089,-48 142.089,-51.5001 142.089,-44.5001"/>
</g>
<!-- Node77 -->
<g id="node7" class="node"><title>Node77</title>
<g id="a_node7"><a xlink:href="class_cleaner.html#a08e6db52c33baccce53a33d844597d7b" target="_top" xlink:title="Method to remove columns composed only by gaps This method is specially useful when we remove missali...">
<polygon fill="white" stroke="black" points="168,-0.5 168,-19.5 295,-19.5 295,-0.5 168,-0.5"/>
<text text-anchor="middle" x="231.5" y="-7.5" font-family="Helvetica,sans-Serif" font-size="10.00">Cleaner::cleanNoAllGaps</text>
</a>
</g>
</g>
<!-- Node71&#45;&gt;Node77 -->
<g id="edge6" class="edge"><title>Node71&#45;&gt;Node77</title>
<path fill="none" stroke="midnightblue" d="M141.749,-30.6271C158.135,-26.8188 174.898,-22.9227 189.381,-19.5568"/>
<polygon fill="midnightblue" stroke="midnightblue" points="140.568,-27.3084 131.62,-32.9814 142.152,-34.1266 140.568,-27.3084"/>
</g>
<!-- Node73 -->
<g id="node3" class="node"><title>Node73</title>
<g id="a_node3"><a xlink:href="classtrim_al_manager.html#aebfd21b0435302f0e4fc45a068d1b6ee" target="_top" xlink:title="Method to trim the alignment using non automatic methods: ">
<polygon fill="white" stroke="black" points="335,-63 335,-93 487,-93 487,-63 335,-63"/>
<text text-anchor="start" x="343" y="-81" font-family="Helvetica,sans-Serif" font-size="10.00">trimAlManager::CleanResidues</text>
<text text-anchor="middle" x="411" y="-70" font-family="Helvetica,sans-Serif" font-size="10.00">NonAuto</text>
</a>
</g>
</g>
<!-- Node72&#45;&gt;Node73 -->
<g id="edge2" class="edge"><title>Node72&#45;&gt;Node73</title>
<path fill="none" stroke="midnightblue" d="M293.395,-83.2554C306.782,-82.6521 321.111,-82.0063 334.98,-81.3812"/>
<polygon fill="midnightblue" stroke="midnightblue" points="293.197,-79.7607 283.364,-83.7075 293.512,-86.7536 293.197,-79.7607"/>
</g>
<!-- Node74 -->
<g id="node4" class="node"><title>Node74</title>
<g id="a_node4"><a xlink:href="classtrim_al_manager.html#adc529dd893ed4e9df6f3ddbd58776068" target="_top" xlink:title="Core Method of the program. This is where almost all cleaning methods are called from. ">
<polygon fill="white" stroke="black" points="527,-37 527,-67 636,-67 636,-37 527,-37"/>
<text text-anchor="start" x="535" y="-55" font-family="Helvetica,sans-Serif" font-size="10.00">trimAlManager::clean</text>
<text text-anchor="middle" x="581.5" y="-44" font-family="Helvetica,sans-Serif" font-size="10.00">_alignment</text>
</a>
</g>
</g>
<!-- Node73&#45;&gt;Node74 -->
<g id="edge3" class="edge"><title>Node73&#45;&gt;Node74</title>
<path fill="none" stroke="midnightblue" d="M497.403,-64.8221C507.441,-63.2732 517.457,-61.7276 526.882,-60.2735"/>
<polygon fill="midnightblue" stroke="midnightblue" points="496.728,-61.3847 487.379,-66.3688 497.796,-68.3028 496.728,-61.3847"/>
</g>
<!-- Node75 -->
<g id="node5" class="node"><title>Node75</title>
<g id="a_node5"><a xlink:href="classtrim_al_manager.html#abe8d2841455c644dc9c7d1294b82b00f" target="_top" xlink:title="Method to perform the analysis if all checks have passed. ">
<polygon fill="white" stroke="black" points="672,-42.5 672,-61.5 791,-61.5 791,-42.5 672,-42.5"/>
<text text-anchor="middle" x="731.5" y="-49.5" font-family="Helvetica,sans-Serif" font-size="10.00">trimAlManager::perform</text>
</a>
</g>
</g>
<!-- Node74&#45;&gt;Node75 -->
<g id="edge4" class="edge"><title>Node74&#45;&gt;Node75</title>
<path fill="none" stroke="midnightblue" d="M646.532,-52C654.977,-52 663.597,-52 671.943,-52"/>
<polygon fill="midnightblue" stroke="midnightblue" points="646.35,-48.5001 636.35,-52 646.35,-55.5001 646.35,-48.5001"/>
</g>
<!-- Node78 -->
<g id="node8" class="node"><title>Node78</title>
<g id="a_node8"><a xlink:href="classtrim_al_manager.html#a10536f715945a1a45f1df33f7cedc81e" target="_top" xlink:title="Method to trim or reduce the number of sequences in an alignment. It performs one or none of the foll...">
<polygon fill="white" stroke="black" points="331,-16.5 331,-35.5 491,-35.5 491,-16.5 331,-16.5"/>
<text text-anchor="middle" x="411" y="-23.5" font-family="Helvetica,sans-Serif" font-size="10.00">trimAlManager::CleanSequences</text>
</a>
</g>
</g>
<!-- Node77&#45;&gt;Node78 -->
<g id="edge7" class="edge"><title>Node77&#45;&gt;Node78</title>
<path fill="none" stroke="midnightblue" d="M305.262,-16.5589C313.709,-17.3202 322.355,-18.0996 330.882,-18.8682"/>
<polygon fill="midnightblue" stroke="midnightblue" points="305.354,-13.053 295.08,-15.641 304.725,-20.0247 305.354,-13.053"/>
</g>
<!-- Node78&#45;&gt;Node74 -->
<g id="edge8" class="edge"><title>Node78&#45;&gt;Node74</title>
<path fill="none" stroke="midnightblue" d="M483.684,-37.061C498.128,-39.2898 513.076,-41.5963 526.778,-43.7106"/>
<polygon fill="midnightblue" stroke="midnightblue" points="484.203,-33.5998 473.786,-35.5338 483.136,-40.5179 484.203,-33.5998"/>
</g>
</g>
</svg>
