<?xml version="1.0" encoding="UTF-8" standalone="no"?>
<!DOCTYPE svg PUBLIC "-//W3C//DTD SVG 1.1//EN"
 "http://www.w3.org/Graphics/SVG/1.1/DTD/svg11.dtd">
<!-- Generated by graphviz version 2.40.1 (20161225.0304)
 -->
<!-- Title: Cleaner::removeOnlyTerminal Pages: 1 -->
<svg width="735pt" height="39pt"
 viewBox="0.00 0.00 735.00 39.00" xmlns="http://www.w3.org/2000/svg" xmlns:xlink="http://www.w3.org/1999/xlink">
<g id="graph0" class="graph" transform="scale(1 1) rotate(0) translate(4 35)">
<title>Cleaner::removeOnlyTerminal</title>
<polygon fill="#ffffff" stroke="transparent" points="-4,4 -4,-35 731,-35 731,4 -4,4"/>
<!-- Node544 -->
<g id="node1" class="node">
<title>Node544</title>
<polygon fill="#bfbfbf" stroke="#000000" points="0,-6 0,-25 146,-25 146,-6 0,-6"/>
<text text-anchor="middle" x="73" y="-13" font-family="Helvetica,sans-Serif" font-size="10.00" fill="#000000">Cleaner::removeOnlyTerminal</text>
</g>
<!-- Node545 -->
<g id="node2" class="node">
<title>Node545</title>
<g id="a_node2"><a xlink:href="classtrim_al_manager.html#a8ed19b851162fa24a1da66f7e54099e3" target="_top" xlink:title="trimAlManager::postprocess\l_alignment">
<polygon fill="#ffffff" stroke="#000000" points="182,-.5 182,-30.5 321,-30.5 321,-.5 182,-.5"/>
<text text-anchor="start" x="190" y="-18.5" font-family="Helvetica,sans-Serif" font-size="10.00" fill="#000000">trimAlManager::postprocess</text>
<text text-anchor="middle" x="251.5" y="-7.5" font-family="Helvetica,sans-Serif" font-size="10.00" fill="#000000">_alignment</text>
</a>
</g>
</g>
<!-- Node544&#45;&gt;Node545 -->
<g id="edge1" class="edge">
<title>Node544&#45;&gt;Node545</title>
<path fill="none" stroke="#191970" d="M156.1835,-15.5C164.8041,-15.5 173.5006,-15.5 181.9491,-15.5"/>
<polygon fill="#191970" stroke="#191970" points="156.1178,-12.0001 146.1178,-15.5 156.1178,-19.0001 156.1178,-12.0001"/>
</g>
<!-- Node546 -->
<g id="node3" class="node">
<title>Node546</title>
<g id="a_node3"><a xlink:href="classtrim_al_manager.html#a7c641a1feff33d401b4ea5c82e989289" target="_top" xlink:title="trimAlManager::innerPerform">
<polygon fill="#ffffff" stroke="#000000" points="357,-6 357,-25 498,-25 498,-6 357,-6"/>
<text text-anchor="middle" x="427.5" y="-13" font-family="Helvetica,sans-Serif" font-size="10.00" fill="#000000">trimAlManager::innerPerform</text>
</a>
</g>
</g>
<!-- Node545&#45;&gt;Node546 -->
<g id="edge2" class="edge">
<title>Node545&#45;&gt;Node546</title>
<path fill="none" stroke="#191970" d="M331.3185,-15.5C339.7877,-15.5 348.3588,-15.5 356.7144,-15.5"/>
<polygon fill="#191970" stroke="#191970" points="331.0599,-12.0001 321.0599,-15.5 331.0598,-19.0001 331.0599,-12.0001"/>
</g>
<!-- Node547 -->
<g id="node4" class="node">
<title>Node547</title>
<g id="a_node4"><a xlink:href="classtrim_al_manager.html#abe8d2841455c644dc9c7d1294b82b00f" target="_top" xlink:title="Method to perform the analysis if all checks have passed. ">
<polygon fill="#ffffff" stroke="#000000" points="534,-6 534,-25 653,-25 653,-6 534,-6"/>
<text text-anchor="middle" x="593.5" y="-13" font-family="Helvetica,sans-Serif" font-size="10.00" fill="#000000">trimAlManager::perform</text>
</a>
</g>
</g>
<!-- Node546&#45;&gt;Node547 -->
<g id="edge3" class="edge">
<title>Node546&#45;&gt;Node547</title>
<path fill="none" stroke="#191970" d="M508.4012,-15.5C516.9677,-15.5 525.564,-15.5 533.8249,-15.5"/>
<polygon fill="#191970" stroke="#191970" points="508.3805,-12.0001 498.3804,-15.5 508.3804,-19.0001 508.3805,-12.0001"/>
</g>
<!-- Node548 -->
<g id="node5" class="node">
<title>Node548</title>
<g id="a_node5"><a xlink:href="trim_al_main_8cpp.html#a0ddf1224851353fc92bfbff6f499fa97" target="_top" xlink:title="main">
<polygon fill="#ffffff" stroke="#000000" points="689,-6 689,-25 727,-25 727,-6 689,-6"/>
<text text-anchor="middle" x="708" y="-13" font-family="Helvetica,sans-Serif" font-size="10.00" fill="#000000">main</text>
</a>
</g>
</g>
<!-- Node547&#45;&gt;Node548 -->
<g id="edge4" class="edge">
<title>Node547&#45;&gt;Node548</title>
<path fill="none" stroke="#191970" d="M663.3198,-15.5C672.6177,-15.5 681.4503,-15.5 688.7697,-15.5"/>
<polygon fill="#191970" stroke="#191970" points="663.0976,-12.0001 653.0976,-15.5 663.0975,-19.0001 663.0976,-12.0001"/>
</g>
</g>
</svg>
