<?xml version="1.0" encoding="UTF-8" standalone="no"?>
<!DOCTYPE svg PUBLIC "-//W3C//DTD SVG 1.1//EN"
 "http://www.w3.org/Graphics/SVG/1.1/DTD/svg11.dtd">
<!-- Generated by graphviz version 2.40.1 (20161225.0304)
 -->
<!-- Title: trimAlManager::back_trans_argument Pages: 1 -->
<svg width="861pt" height="238pt"
 viewBox="0.00 0.00 861.00 237.91" xmlns="http://www.w3.org/2000/svg" xmlns:xlink="http://www.w3.org/1999/xlink">
<g id="graph0" class="graph" transform="scale(1 1) rotate(0) translate(4 233.9074)">
<title>trimAlManager::back_trans_argument</title>
<polygon fill="#ffffff" stroke="transparent" points="-4,4 -4,-233.9074 857,-233.9074 857,4 -4,4"/>
<!-- Node9 -->
<g id="node1" class="node">
<title>Node9</title>
<polygon fill="#bfbfbf" stroke="#000000" points="0,-1.4074 0,-31.4074 107,-31.4074 107,-1.4074 0,-1.4074"/>
<text text-anchor="start" x="8" y="-19.4074" font-family="Helvetica,sans-Serif" font-size="10.00" fill="#000000">trimAlManager::back</text>
<text text-anchor="middle" x="53.5" y="-8.4074" font-family="Helvetica,sans-Serif" font-size="10.00" fill="#000000">_trans_argument</text>
</g>
<!-- Node10 -->
<g id="node2" class="node">
<title>Node10</title>
<g id="a_node2"><a xlink:href="class_format_handling_1_1_format_manager.html#a057615a4fa5e9644a81540ba526725a6" target="_top" xlink:title="Function that loads an alignment given a file path. It automatically detects the format of the file...">
<polygon fill="#ffffff" stroke="#000000" points="143,-45.4074 143,-75.4074 303,-75.4074 303,-45.4074 143,-45.4074"/>
<text text-anchor="start" x="151" y="-63.4074" font-family="Helvetica,sans-Serif" font-size="10.00" fill="#000000">FormatHandling::FormatManager</text>
<text text-anchor="middle" x="223" y="-52.4074" font-family="Helvetica,sans-Serif" font-size="10.00" fill="#000000">::loadAlignment</text>
</a>
</g>
</g>
<!-- Node9&#45;&gt;Node10 -->
<g id="edge1" class="edge">
<title>Node9&#45;&gt;Node10</title>
<path fill="none" stroke="#191970" d="M107.1309,-30.3293C122.3914,-34.2907 139.2152,-38.658 155.2003,-42.8075"/>
<polygon fill="#191970" stroke="#191970" points="154.4647,-46.2325 165.0233,-45.3574 156.2236,-39.457 154.4647,-46.2325"/>
</g>
<!-- Node13 -->
<g id="node5" class="node">
<title>Node13</title>
<g id="a_node5"><a xlink:href="classreporting_1_1report_manager.html#ab093ae2e909308ebb4118d6f6a03f5fd" target="_top" xlink:title="Method to report an Error. It will be displayed if Level &#160;is equal or higher to VerboseLevel::ERROR. ">
<polygon fill="#ffffff" stroke="#000000" points="731,-111.4074 731,-141.4074 853,-141.4074 853,-111.4074 731,-111.4074"/>
<text text-anchor="start" x="739" y="-129.4074" font-family="Helvetica,sans-Serif" font-size="10.00" fill="#000000">reporting::reportManager</text>
<text text-anchor="middle" x="792" y="-118.4074" font-family="Helvetica,sans-Serif" font-size="10.00" fill="#000000">::report</text>
</a>
</g>
</g>
<!-- Node9&#45;&gt;Node13 -->
<g id="edge9" class="edge">
<title>Node9&#45;&gt;Node13</title>
<path fill="none" stroke="#191970" d="M107.0727,-10.4218C191.1706,-2.2848 359.0255,8.8669 499,-13.4074 595.9607,-28.8369 701.4951,-78.4752 755.5613,-106.5592"/>
<polygon fill="#191970" stroke="#191970" points="753.9351,-109.6584 764.4163,-111.206 757.1879,-103.46 753.9351,-109.6584"/>
</g>
<!-- Node11 -->
<g id="node3" class="node">
<title>Node11</title>
<g id="a_node3"><a xlink:href="class_format_handling_1_1_format_manager.html#a850c827a60ae4ee1e5bb34b7485f0412" target="_top" xlink:title="FormatHandling::FormatManager\l::getFormatFromFile">
<polygon fill="#ffffff" stroke="#000000" points="339,-133.4074 339,-163.4074 499,-163.4074 499,-133.4074 339,-133.4074"/>
<text text-anchor="start" x="347" y="-151.4074" font-family="Helvetica,sans-Serif" font-size="10.00" fill="#000000">FormatHandling::FormatManager</text>
<text text-anchor="middle" x="419" y="-140.4074" font-family="Helvetica,sans-Serif" font-size="10.00" fill="#000000">::getFormatFromFile</text>
</a>
</g>
</g>
<!-- Node10&#45;&gt;Node11 -->
<g id="edge2" class="edge">
<title>Node10&#45;&gt;Node11</title>
<path fill="none" stroke="#191970" d="M256.6936,-75.5351C289.7493,-90.3765 340.2814,-113.0644 376.1709,-129.178"/>
<polygon fill="#191970" stroke="#191970" points="374.8624,-132.4271 385.4187,-133.3301 377.7296,-126.0412 374.8624,-132.4271"/>
</g>
<!-- Node10&#45;&gt;Node13 -->
<g id="edge7" class="edge">
<title>Node10&#45;&gt;Node13</title>
<path fill="none" stroke="#191970" d="M303.2711,-63.3307C397.6065,-67.6986 558.5913,-78.0699 695,-101.4074 706.5839,-103.3892 718.8114,-106.0669 730.5355,-108.9348"/>
<polygon fill="#191970" stroke="#191970" points="729.6882,-112.3307 740.2401,-111.3776 731.3969,-105.5424 729.6882,-112.3307"/>
</g>
<!-- Node15 -->
<g id="node7" class="node">
<title>Node15</title>
<g id="a_node7"><a xlink:href="class_format_handling_1_1_base_format_handler.html#a481d8f3ff416366bff9516f55620c9f4" target="_top" xlink:title="Function to load a file in the current format and return an alignment object. ">
<polygon fill="#ffffff" stroke="#000000" points="346.5,-23.4074 346.5,-53.4074 491.5,-53.4074 491.5,-23.4074 346.5,-23.4074"/>
<text text-anchor="start" x="354.5" y="-41.4074" font-family="Helvetica,sans-Serif" font-size="10.00" fill="#000000">FormatHandling::BaseFormat</text>
<text text-anchor="middle" x="419" y="-30.4074" font-family="Helvetica,sans-Serif" font-size="10.00" fill="#000000">Handler::LoadAlignment</text>
</a>
</g>
</g>
<!-- Node10&#45;&gt;Node15 -->
<g id="edge8" class="edge">
<title>Node10&#45;&gt;Node15</title>
<path fill="none" stroke="#191970" d="M303.0034,-51.4274C314.0252,-50.1903 325.3615,-48.9178 336.4286,-47.6756"/>
<polygon fill="#191970" stroke="#191970" points="336.9526,-51.1389 346.4998,-46.5452 336.1718,-44.1826 336.9526,-51.1389"/>
</g>
<!-- Node12 -->
<g id="node4" class="node">
<title>Node12</title>
<g id="a_node4"><a xlink:href="class_format_handling_1_1_format_manager.html#a0b032188aa2d883026e547ea665c9b45" target="_top" xlink:title="FormatHandling::FormatManager\l::getNonEmptyFile">
<polygon fill="#ffffff" stroke="#000000" points="535,-199.4074 535,-229.4074 695,-229.4074 695,-199.4074 535,-199.4074"/>
<text text-anchor="start" x="543" y="-217.4074" font-family="Helvetica,sans-Serif" font-size="10.00" fill="#000000">FormatHandling::FormatManager</text>
<text text-anchor="middle" x="615" y="-206.4074" font-family="Helvetica,sans-Serif" font-size="10.00" fill="#000000">::getNonEmptyFile</text>
</a>
</g>
</g>
<!-- Node11&#45;&gt;Node12 -->
<g id="edge3" class="edge">
<title>Node11&#45;&gt;Node12</title>
<path fill="none" stroke="#191970" d="M463.9664,-163.5491C492.7254,-173.2333 530.204,-185.8537 560.6316,-196.0997"/>
<polygon fill="#191970" stroke="#191970" points="559.6488,-199.4618 570.2429,-199.3361 561.8827,-192.8278 559.6488,-199.4618"/>
</g>
<!-- Node11&#45;&gt;Node13 -->
<g id="edge6" class="edge">
<title>Node11&#45;&gt;Node13</title>
<path fill="none" stroke="#191970" d="M499.0221,-154.3895C554.2848,-157.2012 629.359,-158.4073 695,-150.4074 706.8392,-148.9645 719.3153,-146.5657 731.2322,-143.8285"/>
<polygon fill="#191970" stroke="#191970" points="732.1781,-147.2009 741.0848,-141.4631 730.544,-140.3943 732.1781,-147.2009"/>
</g>
<!-- Node14 -->
<g id="node6" class="node">
<title>Node14</title>
<g id="a_node6"><a xlink:href="class_format_handling_1_1_base_format_handler.html#a6186050eb30aec3f4fa7e1c834f2add1" target="_top" xlink:title="Function to check if a file is in the implemented format. ">
<polygon fill="#ffffff" stroke="#000000" points="542.5,-111.4074 542.5,-141.4074 687.5,-141.4074 687.5,-111.4074 542.5,-111.4074"/>
<text text-anchor="start" x="550.5" y="-129.4074" font-family="Helvetica,sans-Serif" font-size="10.00" fill="#000000">FormatHandling::BaseFormat</text>
<text text-anchor="middle" x="615" y="-118.4074" font-family="Helvetica,sans-Serif" font-size="10.00" fill="#000000">Handler::CheckAlignment</text>
</a>
</g>
</g>
<!-- Node11&#45;&gt;Node14 -->
<g id="edge5" class="edge">
<title>Node11&#45;&gt;Node14</title>
<path fill="none" stroke="#191970" d="M499.0034,-139.4274C510.0252,-138.1903 521.3615,-136.9178 532.4286,-135.6756"/>
<polygon fill="#191970" stroke="#191970" points="532.9526,-139.1389 542.4998,-134.5452 532.1718,-132.1826 532.9526,-139.1389"/>
</g>
<!-- Node12&#45;&gt;Node13 -->
<g id="edge4" class="edge">
<title>Node12&#45;&gt;Node13</title>
<path fill="none" stroke="#191970" d="M659.61,-199.2996C671.3019,-194.9025 683.7741,-189.814 695,-184.4074 717.7877,-173.4324 742.2209,-158.804 760.8647,-146.9843"/>
<polygon fill="#191970" stroke="#191970" points="762.9898,-149.7794 769.5194,-141.4358 759.2119,-143.8864 762.9898,-149.7794"/>
</g>
</g>
</svg>
