<?xml version="1.0" encoding="UTF-8" standalone="no"?>
<!DOCTYPE svg PUBLIC "-//W3C//DTD SVG 1.1//EN"
 "http://www.w3.org/Graphics/SVG/1.1/DTD/svg11.dtd">
<!-- Generated by graphviz version 2.38.0 (20140413.2041)
 -->
<!-- Title: Cleaner::cleanStrict Pages: 1 -->
<svg width="478pt" height="154pt"
 viewBox="0.00 0.00 478.00 153.50" xmlns="http://www.w3.org/2000/svg" xmlns:xlink="http://www.w3.org/1999/xlink">
<g id="graph0" class="graph" transform="scale(1 1) rotate(0) translate(4 149.5)">
<title>Cleaner::cleanStrict</title>
<polygon fill="white" stroke="none" points="-4,4 -4,-149.5 474,-149.5 474,4 -4,4"/>
<!-- Node137 -->
<g id="node1" class="node"><title>Node137</title>
<polygon fill="#bfbfbf" stroke="black" points="0,-69 0,-88 103,-88 103,-69 0,-69"/>
<text text-anchor="middle" x="51.5" y="-76" font-family="Helvetica,sans-Serif" font-size="10.00">Cleaner::cleanStrict</text>
</g>
<!-- Node138 -->
<g id="node2" class="node"><title>Node138</title>
<g id="a_node2"><a xlink:href="classutils.html#ad50731aeb3c8f79ed8372516210dfc9d" target="_top" xlink:title="Round double to integer method. ">
<polygon fill="white" stroke="black" points="190.5,-126 190.5,-145 266.5,-145 266.5,-126 190.5,-126"/>
<text text-anchor="middle" x="228.5" y="-133" font-family="Helvetica,sans-Serif" font-size="10.00">utils::roundInt</text>
</a>
</g>
</g>
<!-- Node137&#45;&gt;Node138 -->
<g id="edge1" class="edge"><title>Node137&#45;&gt;Node138</title>
<path fill="none" stroke="midnightblue" d="M71.3067,-88.0897C88.5447,-96.5563 114.965,-108.729 139,-116.5 152.226,-120.776 166.878,-124.366 180.391,-127.232"/>
<polygon fill="midnightblue" stroke="midnightblue" points="179.963,-130.717 190.461,-129.283 181.36,-123.858 179.963,-130.717"/>
</g>
<!-- Node139 -->
<g id="node3" class="node"><title>Node139</title>
<g id="a_node3"><a xlink:href="class_cleaner.html#a033da9ea63774f43f4c7aff04f23da81" target="_top" xlink:title="Method to detect right and left borders. Borders are the first column found with no gaps...">
<polygon fill="white" stroke="black" points="155.5,-88 155.5,-107 301.5,-107 301.5,-88 155.5,-88"/>
<text text-anchor="middle" x="228.5" y="-95" font-family="Helvetica,sans-Serif" font-size="10.00">Cleaner::removeOnlyTerminal</text>
</a>
</g>
</g>
<!-- Node137&#45;&gt;Node139 -->
<g id="edge2" class="edge"><title>Node137&#45;&gt;Node139</title>
<path fill="none" stroke="midnightblue" d="M103.117,-83.9956C116.195,-85.4155 130.619,-86.9815 144.869,-88.5287"/>
<polygon fill="midnightblue" stroke="midnightblue" points="144.875,-92.0497 155.194,-89.6496 145.63,-85.0906 144.875,-92.0497"/>
</g>
<!-- Node141 -->
<g id="node5" class="node"><title>Node141</title>
<g id="a_node5"><a xlink:href="class_cleaner.html#a24bd28e4191afc9471adff329bee1466" target="_top" xlink:title="Method for computing the complementary alignment. Complementary Alignment is an alignment containing ...">
<polygon fill="white" stroke="black" points="139,-50 139,-69 318,-69 318,-50 139,-50"/>
<text text-anchor="middle" x="228.5" y="-57" font-family="Helvetica,sans-Serif" font-size="10.00">Cleaner::computeComplementaryAlig</text>
</a>
</g>
</g>
<!-- Node137&#45;&gt;Node141 -->
<g id="edge4" class="edge"><title>Node137&#45;&gt;Node141</title>
<path fill="none" stroke="midnightblue" d="M103.117,-73.0044C111.568,-72.0869 120.581,-71.1083 129.746,-70.1133"/>
<polygon fill="midnightblue" stroke="midnightblue" points="130.168,-73.5881 139.732,-69.0291 129.412,-66.629 130.168,-73.5881"/>
</g>
<!-- Node142 -->
<g id="node6" class="node"><title>Node142</title>
<g id="a_node6"><a xlink:href="class_cleaner.html#ada8ad076dd037f00ae3f4fd17762641f" target="_top" xlink:title="Method that identifies and removes columns and sequences composed only by gaps. ">
<polygon fill="white" stroke="black" points="155.5,-0.5 155.5,-30.5 301.5,-30.5 301.5,-0.5 155.5,-0.5"/>
<text text-anchor="start" x="163.5" y="-18.5" font-family="Helvetica,sans-Serif" font-size="10.00">Cleaner::removeAllGapsSeqs</text>
<text text-anchor="middle" x="228.5" y="-7.5" font-family="Helvetica,sans-Serif" font-size="10.00">AndCols</text>
</a>
</g>
</g>
<!-- Node137&#45;&gt;Node142 -->
<g id="edge5" class="edge"><title>Node137&#45;&gt;Node142</title>
<path fill="none" stroke="midnightblue" d="M72.1101,-68.9515C89.4392,-60.7401 115.534,-48.923 139,-40.5 145.715,-38.0896 152.783,-35.759 159.875,-33.5536"/>
<polygon fill="midnightblue" stroke="midnightblue" points="160.975,-36.8775 169.531,-30.6284 158.945,-30.1782 160.975,-36.8775"/>
</g>
<!-- Node140 -->
<g id="node4" class="node"><title>Node140</title>
<g id="a_node4"><a xlink:href="class____internal_report_1_1____report_system.html#a94ce85b97d7b6c3e5fbda0d30a35edd0" target="_top" xlink:title="Method to report an Error. It will be displayed if Level &#160;is equal or higher to VerboseLevel::ERROR. ">
<polygon fill="white" stroke="black" points="354,-41.5 354,-71.5 470,-71.5 470,-41.5 354,-41.5"/>
<text text-anchor="start" x="362" y="-59.5" font-family="Helvetica,sans-Serif" font-size="10.00">__internalReport::</text>
<text text-anchor="middle" x="412" y="-48.5" font-family="Helvetica,sans-Serif" font-size="10.00">__reportSystem::report</text>
</a>
</g>
</g>
<!-- Node139&#45;&gt;Node140 -->
<g id="edge3" class="edge"><title>Node139&#45;&gt;Node140</title>
<path fill="none" stroke="midnightblue" d="M275.017,-87.9176C288.835,-84.9575 304.05,-81.6471 318,-78.5 326.467,-76.5899 335.356,-74.5419 344.143,-72.4919"/>
<polygon fill="midnightblue" stroke="midnightblue" points="345.054,-75.8734 353.991,-70.1839 343.456,-69.058 345.054,-75.8734"/>
</g>
<!-- Node142&#45;&gt;Node140 -->
<g id="edge6" class="edge"><title>Node142&#45;&gt;Node140</title>
<path fill="none" stroke="midnightblue" d="M296.053,-30.5341C311.573,-34.0399 328.111,-37.7758 343.664,-41.2892"/>
<polygon fill="midnightblue" stroke="midnightblue" points="343.197,-44.7717 353.722,-43.5612 344.739,-37.9437 343.197,-44.7717"/>
</g>
</g>
</svg>
