<?xml version="1.0" encoding="UTF-8" standalone="no"?>
<!DOCTYPE svg PUBLIC "-//W3C//DTD SVG 1.1//EN"
 "http://www.w3.org/Graphics/SVG/1.1/DTD/svg11.dtd">
<!-- Generated by graphviz version 2.40.1 (20161225.0304)
 -->
<!-- Title: trimAlManager::check_vcf_incompatibility Pages: 1 -->
<svg width="576pt" height="39pt"
 viewBox="0.00 0.00 576.00 39.00" xmlns="http://www.w3.org/2000/svg" xmlns:xlink="http://www.w3.org/1999/xlink">
<g id="graph0" class="graph" transform="scale(1 1) rotate(0) translate(4 35)">
<title>trimAlManager::check_vcf_incompatibility</title>
<polygon fill="#ffffff" stroke="transparent" points="-4,4 -4,-35 572,-35 572,4 -4,4"/>
<!-- Node278 -->
<g id="node1" class="node">
<title>Node278</title>
<polygon fill="#bfbfbf" stroke="#000000" points="0,-.5 0,-30.5 112,-30.5 112,-.5 0,-.5"/>
<text text-anchor="start" x="8" y="-18.5" font-family="Helvetica,sans-Serif" font-size="10.00" fill="#000000">trimAlManager::check</text>
<text text-anchor="middle" x="56" y="-7.5" font-family="Helvetica,sans-Serif" font-size="10.00" fill="#000000">_vcf_incompatibility</text>
</g>
<!-- Node279 -->
<g id="node2" class="node">
<title>Node279</title>
<g id="a_node2"><a xlink:href="classtrim_al_manager.html#a16d2da3f90cfe965bea5f1da1360e17a" target="_top" xlink:title="Method to check argument incompatibilities. Take in mind that an incompatibility is between two argum...">
<polygon fill="#ffffff" stroke="#000000" points="148,-.5 148,-30.5 291,-30.5 291,-.5 148,-.5"/>
<text text-anchor="start" x="156" y="-18.5" font-family="Helvetica,sans-Serif" font-size="10.00" fill="#000000">trimAlManager::check</text>
<text text-anchor="middle" x="219.5" y="-7.5" font-family="Helvetica,sans-Serif" font-size="10.00" fill="#000000">_arguments_incompatibilities</text>
</a>
</g>
</g>
<!-- Node278&#45;&gt;Node279 -->
<g id="edge1" class="edge">
<title>Node278&#45;&gt;Node279</title>
<path fill="none" stroke="#191970" d="M122.3613,-15.5C130.7481,-15.5 139.3591,-15.5 147.8237,-15.5"/>
<polygon fill="#191970" stroke="#191970" points="122.2675,-12.0001 112.2674,-15.5 122.2674,-19.0001 122.2675,-12.0001"/>
</g>
<!-- Node280 -->
<g id="node3" class="node">
<title>Node280</title>
<g id="a_node3"><a xlink:href="classtrim_al_manager.html#a748b08a1ec5cd214de804ed0d4234a6e" target="_top" xlink:title="Method to process the information obtained by trimAlManager::parseArguments It checks for argument in...">
<polygon fill="#ffffff" stroke="#000000" points="327,-6 327,-25 494,-25 494,-6 327,-6"/>
<text text-anchor="middle" x="410.5" y="-13" font-family="Helvetica,sans-Serif" font-size="10.00" fill="#000000">trimAlManager::processArguments</text>
</a>
</g>
</g>
<!-- Node279&#45;&gt;Node280 -->
<g id="edge2" class="edge">
<title>Node279&#45;&gt;Node280</title>
<path fill="none" stroke="#191970" d="M301.3706,-15.5C309.8114,-15.5 318.3973,-15.5 326.857,-15.5"/>
<polygon fill="#191970" stroke="#191970" points="301.1648,-12.0001 291.1648,-15.5 301.1647,-19.0001 301.1648,-12.0001"/>
</g>
<!-- Node281 -->
<g id="node4" class="node">
<title>Node281</title>
<g id="a_node4"><a xlink:href="trim_al_main_8cpp.html#a0ddf1224851353fc92bfbff6f499fa97" target="_top" xlink:title="main">
<polygon fill="#ffffff" stroke="#000000" points="530,-6 530,-25 568,-25 568,-6 530,-6"/>
<text text-anchor="middle" x="549" y="-13" font-family="Helvetica,sans-Serif" font-size="10.00" fill="#000000">main</text>
</a>
</g>
</g>
<!-- Node280&#45;&gt;Node281 -->
<g id="edge3" class="edge">
<title>Node280&#45;&gt;Node281</title>
<path fill="none" stroke="#191970" d="M504.301,-15.5C513.7267,-15.5 522.4553,-15.5 529.6511,-15.5"/>
<polygon fill="#191970" stroke="#191970" points="504.2612,-12.0001 494.2611,-15.5 504.2611,-19.0001 504.2612,-12.0001"/>
</g>
</g>
</svg>
