<?xml version="1.0" encoding="UTF-8" standalone="no"?>
<!DOCTYPE svg PUBLIC "-//W3C//DTD SVG 1.1//EN"
 "http://www.w3.org/Graphics/SVG/1.1/DTD/svg11.dtd">
<!-- Generated by graphviz version 2.38.0 (20140413.2041)
 -->
<!-- Title: Cleaner::cleanCompareFile Pages: 1 -->
<svg width="687pt" height="280pt"
 viewBox="0.00 0.00 687.00 280.00" xmlns="http://www.w3.org/2000/svg" xmlns:xlink="http://www.w3.org/1999/xlink">
<g id="graph0" class="graph" transform="scale(1 1) rotate(0) translate(4 276)">
<title>Cleaner::cleanCompareFile</title>
<polygon fill="white" stroke="none" points="-4,4 -4,-276 683,-276 683,4 -4,4"/>
<!-- Node86 -->
<g id="node1" class="node"><title>Node86</title>
<polygon fill="#bfbfbf" stroke="black" points="0,-214.5 0,-233.5 135,-233.5 135,-214.5 0,-214.5"/>
<text text-anchor="middle" x="67.5" y="-221.5" font-family="Helvetica,sans-Serif" font-size="10.00">Cleaner::cleanCompareFile</text>
</g>
<!-- Node87 -->
<g id="node2" class="node"><title>Node87</title>
<g id="a_node2"><a xlink:href="classutils.html#a42f272221edf7752ffda49e4212ef653" target="_top" xlink:title="Integer vector copying. ">
<polygon fill="white" stroke="black" points="387.5,-252.5 387.5,-271.5 469.5,-271.5 469.5,-252.5 387.5,-252.5"/>
<text text-anchor="middle" x="428.5" y="-259.5" font-family="Helvetica,sans-Serif" font-size="10.00">utils::copyVect</text>
</a>
</g>
</g>
<!-- Node86&#45;&gt;Node87 -->
<g id="edge1" class="edge"><title>Node86&#45;&gt;Node87</title>
<path fill="none" stroke="midnightblue" d="M135.164,-233.523C147.086,-235.107 159.402,-236.666 171,-238 242.499,-246.224 325.457,-253.592 377.219,-257.93"/>
<polygon fill="midnightblue" stroke="midnightblue" points="377.203,-261.441 387.459,-258.783 377.784,-254.465 377.203,-261.441"/>
</g>
<!-- Node88 -->
<g id="node3" class="node"><title>Node88</title>
<g id="a_node3"><a xlink:href="classutils.html#a73f038c379c13d23e3220afaa14f9983" target="_top" xlink:title="Quicksort sorting method. ">
<polygon fill="white" stroke="black" points="388.5,-214.5 388.5,-233.5 468.5,-233.5 468.5,-214.5 388.5,-214.5"/>
<text text-anchor="middle" x="428.5" y="-221.5" font-family="Helvetica,sans-Serif" font-size="10.00">utils::quicksort</text>
</a>
</g>
</g>
<!-- Node86&#45;&gt;Node88 -->
<g id="edge2" class="edge"><title>Node86&#45;&gt;Node88</title>
<path fill="none" stroke="midnightblue" d="M135.184,-224C205.677,-224 315.21,-224 378.266,-224"/>
<polygon fill="midnightblue" stroke="midnightblue" points="378.35,-227.5 388.35,-224 378.35,-220.5 378.35,-227.5"/>
</g>
<!-- Node90 -->
<g id="node5" class="node"><title>Node90</title>
<g id="a_node5"><a xlink:href="class_cleaner.html#ad075f0ef730c8023cf8a0e35e7e1e53a" target="_top" xlink:title="Method to clean an alignment. &#160;It removes sequences that overpass or equals a certain threshold...">
<polygon fill="white" stroke="black" points="171,-148.5 171,-167.5 303,-167.5 303,-148.5 171,-148.5"/>
<text text-anchor="middle" x="237" y="-155.5" font-family="Helvetica,sans-Serif" font-size="10.00">Cleaner::cleanByCutValue</text>
</a>
</g>
</g>
<!-- Node86&#45;&gt;Node90 -->
<g id="edge4" class="edge"><title>Node86&#45;&gt;Node90</title>
<path fill="none" stroke="midnightblue" d="M92.8559,-214.403C121.718,-203.031 169.969,-184.018 202.376,-171.249"/>
<polygon fill="midnightblue" stroke="midnightblue" points="203.866,-174.424 211.886,-167.501 201.299,-167.911 203.866,-174.424"/>
</g>
<!-- Node89 -->
<g id="node4" class="node"><title>Node89</title>
<g id="a_node4"><a xlink:href="classutils.html#a3377ecde55631d1bbc4956e5923b7469" target="_top" xlink:title="Swapping elements method. ">
<polygon fill="white" stroke="black" points="584.5,-214.5 584.5,-233.5 648.5,-233.5 648.5,-214.5 584.5,-214.5"/>
<text text-anchor="middle" x="616.5" y="-221.5" font-family="Helvetica,sans-Serif" font-size="10.00">utils::swap</text>
</a>
</g>
</g>
<!-- Node88&#45;&gt;Node89 -->
<g id="edge3" class="edge"><title>Node88&#45;&gt;Node89</title>
<path fill="none" stroke="midnightblue" d="M468.946,-224C499.892,-224 542.838,-224 574.241,-224"/>
<polygon fill="midnightblue" stroke="midnightblue" points="574.414,-227.5 584.414,-224 574.414,-220.5 574.414,-227.5"/>
</g>
<!-- Node90&#45;&gt;Node87 -->
<g id="edge6" class="edge"><title>Node90&#45;&gt;Node87</title>
<path fill="none" stroke="midnightblue" d="M246.372,-167.652C262.43,-185.508 299.485,-223.641 339,-243 350.804,-248.783 364.341,-252.815 377.22,-255.623"/>
<polygon fill="midnightblue" stroke="midnightblue" points="376.873,-259.122 387.361,-257.623 378.227,-252.254 376.873,-259.122"/>
</g>
<!-- Node90&#45;&gt;Node88 -->
<g id="edge7" class="edge"><title>Node90&#45;&gt;Node88</title>
<path fill="none" stroke="midnightblue" d="M255.386,-167.558C275.13,-178.062 308.561,-194.794 339,-205 351.462,-209.178 365.228,-212.655 378.115,-215.442"/>
<polygon fill="midnightblue" stroke="midnightblue" points="377.72,-218.934 388.221,-217.529 379.136,-212.078 377.72,-218.934"/>
</g>
<!-- Node91 -->
<g id="node6" class="node"><title>Node91</title>
<g id="a_node6"><a xlink:href="classutils.html#ad50731aeb3c8f79ed8372516210dfc9d" target="_top" xlink:title="Round double to integer method. ">
<polygon fill="white" stroke="black" points="390.5,-126.5 390.5,-145.5 466.5,-145.5 466.5,-126.5 390.5,-126.5"/>
<text text-anchor="middle" x="428.5" y="-133.5" font-family="Helvetica,sans-Serif" font-size="10.00">utils::roundInt</text>
</a>
</g>
</g>
<!-- Node90&#45;&gt;Node91 -->
<g id="edge5" class="edge"><title>Node90&#45;&gt;Node91</title>
<path fill="none" stroke="midnightblue" d="M303.215,-150.429C328.582,-147.484 357.087,-144.175 380.393,-141.469"/>
<polygon fill="midnightblue" stroke="midnightblue" points="380.842,-144.94 390.372,-140.31 380.035,-137.987 380.842,-144.94"/>
</g>
<!-- Node92 -->
<g id="node7" class="node"><title>Node92</title>
<g id="a_node7"><a xlink:href="class_cleaner.html#a033da9ea63774f43f4c7aff04f23da81" target="_top" xlink:title="Method to detect right and left borders. Borders are the first column found with no gaps...">
<polygon fill="white" stroke="black" points="355.5,-38.5 355.5,-57.5 501.5,-57.5 501.5,-38.5 355.5,-38.5"/>
<text text-anchor="middle" x="428.5" y="-45.5" font-family="Helvetica,sans-Serif" font-size="10.00">Cleaner::removeOnlyTerminal</text>
</a>
</g>
</g>
<!-- Node90&#45;&gt;Node92 -->
<g id="edge8" class="edge"><title>Node90&#45;&gt;Node92</title>
<path fill="none" stroke="midnightblue" d="M245.728,-148.239C261.248,-129.352 298.227,-87.8356 339,-67 343.605,-64.6469 348.488,-62.5848 353.502,-60.7778"/>
<polygon fill="midnightblue" stroke="midnightblue" points="354.836,-64.0246 363.266,-57.6078 352.674,-57.3667 354.836,-64.0246"/>
</g>
<!-- Node94 -->
<g id="node9" class="node"><title>Node94</title>
<g id="a_node9"><a xlink:href="class_cleaner.html#a24bd28e4191afc9471adff329bee1466" target="_top" xlink:title="Method for computing the complementary alignment. Complementary Alignment is an alignment containing ...">
<polygon fill="white" stroke="black" points="339,-0.5 339,-19.5 518,-19.5 518,-0.5 339,-0.5"/>
<text text-anchor="middle" x="428.5" y="-7.5" font-family="Helvetica,sans-Serif" font-size="10.00">Cleaner::computeComplementaryAlig</text>
</a>
</g>
</g>
<!-- Node90&#45;&gt;Node94 -->
<g id="edge10" class="edge"><title>Node90&#45;&gt;Node94</title>
<path fill="none" stroke="midnightblue" d="M242.543,-148.363C254.537,-124.043 289.566,-59.9242 339,-29 342.351,-26.9034 345.899,-25.0354 349.571,-23.3713"/>
<polygon fill="midnightblue" stroke="midnightblue" points="350.927,-26.5987 358.917,-19.6407 348.332,-20.0975 350.927,-26.5987"/>
</g>
<!-- Node95 -->
<g id="node10" class="node"><title>Node95</title>
<g id="a_node10"><a xlink:href="class_cleaner.html#a2f7d85e29f23f880a7ad7e28863b36c3" target="_top" xlink:title="Method that identifies and removes columns and sequences composed only by gaps. ">
<polygon fill="white" stroke="black" points="374,-77 374,-107 483,-107 483,-77 374,-77"/>
<text text-anchor="start" x="382" y="-95" font-family="Helvetica,sans-Serif" font-size="10.00">Cleaner::removeCols</text>
<text text-anchor="middle" x="428.5" y="-84" font-family="Helvetica,sans-Serif" font-size="10.00">_SeqsAllGaps</text>
</a>
</g>
</g>
<!-- Node90&#45;&gt;Node95 -->
<g id="edge11" class="edge"><title>Node90&#45;&gt;Node95</title>
<path fill="none" stroke="midnightblue" d="M259.802,-148.335C280.081,-139.541 311.254,-126.518 339,-117 347.032,-114.245 355.547,-111.555 363.997,-109.023"/>
<polygon fill="midnightblue" stroke="midnightblue" points="365.246,-112.304 373.855,-106.128 363.274,-105.588 365.246,-112.304"/>
</g>
<!-- Node96 -->
<g id="node11" class="node"><title>Node96</title>
<g id="a_node11"><a xlink:href="classnew_alignment.html#a3de39c62c08a265178f1fa7df76c3ab7" target="_top" xlink:title="Method that copies information of the alignment to the pointers given. ">
<polygon fill="white" stroke="black" points="361,-165 361,-195 496,-195 496,-165 361,-165"/>
<text text-anchor="start" x="369" y="-183" font-family="Helvetica,sans-Serif" font-size="10.00">newAlignment::fillNewData</text>
<text text-anchor="middle" x="428.5" y="-172" font-family="Helvetica,sans-Serif" font-size="10.00">Structure</text>
</a>
</g>
</g>
<!-- Node90&#45;&gt;Node96 -->
<g id="edge13" class="edge"><title>Node90&#45;&gt;Node96</title>
<path fill="none" stroke="midnightblue" d="M303.215,-165.571C318.497,-167.345 334.917,-169.252 350.653,-171.078"/>
<polygon fill="midnightblue" stroke="midnightblue" points="350.54,-174.589 360.877,-172.265 351.347,-167.635 350.54,-174.589"/>
</g>
<!-- Node93 -->
<g id="node8" class="node"><title>Node93</title>
<g id="a_node8"><a xlink:href="class_verbose_manager.html#a261de87bbf9653cd729dca4e1fbeb2a3" target="_top" xlink:title="Method to report an Error. It will be displayed if VerboseManager::Level is equal or higher to Verbos...">
<polygon fill="white" stroke="black" points="554,-60.5 554,-79.5 679,-79.5 679,-60.5 554,-60.5"/>
<text text-anchor="middle" x="616.5" y="-67.5" font-family="Helvetica,sans-Serif" font-size="10.00">VerboseManager::Report</text>
</a>
</g>
</g>
<!-- Node92&#45;&gt;Node93 -->
<g id="edge9" class="edge"><title>Node92&#45;&gt;Node93</title>
<path fill="none" stroke="midnightblue" d="M501.679,-56.5373C515.566,-58.1798 530.105,-59.8996 543.972,-61.5397"/>
<polygon fill="midnightblue" stroke="midnightblue" points="543.589,-65.0187 553.93,-62.7176 544.411,-58.0671 543.589,-65.0187"/>
</g>
<!-- Node95&#45;&gt;Node93 -->
<g id="edge12" class="edge"><title>Node95&#45;&gt;Node93</title>
<path fill="none" stroke="midnightblue" d="M483.299,-85.6367C502.206,-83.4003 523.76,-80.851 543.898,-78.4691"/>
<polygon fill="midnightblue" stroke="midnightblue" points="544.445,-81.9289 553.964,-77.2784 543.622,-74.9773 544.445,-81.9289"/>
</g>
</g>
</svg>
