<?xml version="1.0" encoding="UTF-8" standalone="no"?>
<!DOCTYPE svg PUBLIC "-//W3C//DTD SVG 1.1//EN"
 "http://www.w3.org/Graphics/SVG/1.1/DTD/svg11.dtd">
<!-- Generated by graphviz version 2.40.1 (20161225.0304)
 -->
<!-- Title: statistics::Mold::printAccumulative Pages: 1 -->
<svg width="442pt" height="122pt"
 viewBox="0.00 0.00 442.00 122.00" xmlns="http://www.w3.org/2000/svg" xmlns:xlink="http://www.w3.org/1999/xlink">
<g id="graph0" class="graph" transform="scale(1 1) rotate(0) translate(4 118)">
<title>statistics::Mold::printAccumulative</title>
<polygon fill="#ffffff" stroke="transparent" points="-4,4 -4,-118 438,-118 438,4 -4,4"/>
<!-- Node19 -->
<g id="node1" class="node">
<title>Node19</title>
<polygon fill="#bfbfbf" stroke="#000000" points="0,-56.5 0,-75.5 167,-75.5 167,-56.5 0,-56.5"/>
<text text-anchor="middle" x="83.5" y="-63.5" font-family="Helvetica,sans-Serif" font-size="10.00" fill="#000000">statistics::Mold::printAccumulative</text>
</g>
<!-- Node20 -->
<g id="node2" class="node">
<title>Node20</title>
<g id="a_node2"><a xlink:href="namespaceutils.html#a13e9bd8b05840270eda57450710273c2" target="_top" xlink:title="Float vector copying. ">
<polygon fill="#ffffff" stroke="#000000" points="227.5,-94.5 227.5,-113.5 309.5,-113.5 309.5,-94.5 227.5,-94.5"/>
<text text-anchor="middle" x="268.5" y="-101.5" font-family="Helvetica,sans-Serif" font-size="10.00" fill="#000000">utils::copyVect</text>
</a>
</g>
</g>
<!-- Node19&#45;&gt;Node20 -->
<g id="edge1" class="edge">
<title>Node19&#45;&gt;Node20</title>
<path fill="none" stroke="#191970" d="M130.1833,-75.589C156.7595,-81.0479 190.0862,-87.8934 217.367,-93.497"/>
<polygon fill="#191970" stroke="#191970" points="217.0002,-96.9947 227.4999,-95.5784 218.4087,-90.1378 217.0002,-96.9947"/>
</g>
<!-- Node21 -->
<g id="node3" class="node">
<title>Node21</title>
<g id="a_node3"><a xlink:href="classstatistics_1_1_mold.html#a26ed81f5e46988d201b28665d70dc369" target="_top" xlink:title="statistics::Mold::getVector">
<polygon fill="#ffffff" stroke="#000000" points="203,-56.5 203,-75.5 334,-75.5 334,-56.5 203,-56.5"/>
<text text-anchor="middle" x="268.5" y="-63.5" font-family="Helvetica,sans-Serif" font-size="10.00" fill="#000000">statistics::Mold::getVector</text>
</a>
</g>
</g>
<!-- Node19&#45;&gt;Node21 -->
<g id="edge2" class="edge">
<title>Node19&#45;&gt;Node21</title>
<path fill="none" stroke="#191970" d="M167.0695,-66C175.579,-66 184.1902,-66 192.6115,-66"/>
<polygon fill="#191970" stroke="#191970" points="192.7698,-69.5001 202.7698,-66 192.7697,-62.5001 192.7698,-69.5001"/>
</g>
<!-- Node22 -->
<g id="node4" class="node">
<title>Node22</title>
<g id="a_node4"><a xlink:href="namespaceutils.html#a73f038c379c13d23e3220afaa14f9983" target="_top" xlink:title="Quicksort sorting method. ">
<polygon fill="#ffffff" stroke="#000000" points="228.5,-.5 228.5,-19.5 308.5,-19.5 308.5,-.5 228.5,-.5"/>
<text text-anchor="middle" x="268.5" y="-7.5" font-family="Helvetica,sans-Serif" font-size="10.00" fill="#000000">utils::quicksort</text>
</a>
</g>
</g>
<!-- Node19&#45;&gt;Node22 -->
<g id="edge3" class="edge">
<title>Node19&#45;&gt;Node22</title>
<path fill="none" stroke="#191970" d="M115.3026,-56.3733C146.3317,-46.9807 193.6754,-32.6496 227.5147,-22.4064"/>
<polygon fill="#191970" stroke="#191970" points="228.5553,-25.7483 237.1124,-19.5011 226.5272,-19.0485 228.5553,-25.7483"/>
</g>
<!-- Node22&#45;&gt;Node22 -->
<g id="edge5" class="edge">
<title>Node22&#45;&gt;Node22</title>
<path fill="none" stroke="#191970" d="M248.155,-19.7571C238.2574,-28.5653 245.0391,-38 268.5,-38 283.5297,-38 291.7142,-34.128 293.0535,-29.0292"/>
<polygon fill="#191970" stroke="#191970" points="296.1652,-27.4164 288.845,-19.7571 289.791,-30.3096 296.1652,-27.4164"/>
</g>
<!-- Node23 -->
<g id="node5" class="node">
<title>Node23</title>
<g id="a_node5"><a xlink:href="namespaceutils.html#a3377ecde55631d1bbc4956e5923b7469" target="_top" xlink:title="Swapping elements method. ">
<polygon fill="#ffffff" stroke="#000000" points="370,-.5 370,-19.5 434,-19.5 434,-.5 370,-.5"/>
<text text-anchor="middle" x="402" y="-7.5" font-family="Helvetica,sans-Serif" font-size="10.00" fill="#000000">utils::swap</text>
</a>
</g>
</g>
<!-- Node22&#45;&gt;Node23 -->
<g id="edge4" class="edge">
<title>Node22&#45;&gt;Node23</title>
<path fill="none" stroke="#191970" d="M308.5544,-10C324.5571,-10 343.0106,-10 359.2701,-10"/>
<polygon fill="#191970" stroke="#191970" points="359.5902,-13.5001 369.5902,-10 359.5902,-6.5001 359.5902,-13.5001"/>
</g>
</g>
</svg>
