<?xml version="1.0" encoding="UTF-8" standalone="no"?>
<!DOCTYPE svg PUBLIC "-//W3C//DTD SVG 1.1//EN"
 "http://www.w3.org/Graphics/SVG/1.1/DTD/svg11.dtd">
<!-- Generated by graphviz version 2.40.1 (20161225.0304)
 -->
<!-- Title: Cleaner::getCutPointClusters Pages: 1 -->
<svg width="794pt" height="122pt"
 viewBox="0.00 0.00 794.00 122.00" xmlns="http://www.w3.org/2000/svg" xmlns:xlink="http://www.w3.org/1999/xlink">
<g id="graph0" class="graph" transform="scale(1 1) rotate(0) translate(4 118)">
<title>Cleaner::getCutPointClusters</title>
<polygon fill="#ffffff" stroke="transparent" points="-4,4 -4,-118 790,-118 790,4 -4,4"/>
<!-- Node490 -->
<g id="node1" class="node">
<title>Node490</title>
<polygon fill="#bfbfbf" stroke="#000000" points="0,-38.5 0,-57.5 145,-57.5 145,-38.5 0,-38.5"/>
<text text-anchor="middle" x="72.5" y="-45.5" font-family="Helvetica,sans-Serif" font-size="10.00" fill="#000000">Cleaner::getCutPointClusters</text>
</g>
<!-- Node491 -->
<g id="node2" class="node">
<title>Node491</title>
<g id="a_node2"><a xlink:href="class_cleaner.html#a65d829578be97c192561a129435b3c58" target="_top" xlink:title="Method to calculate identities between the sequences from the alignment. See Alignment::identities. ">
<polygon fill="#ffffff" stroke="#000000" points="181,-94.5 181,-113.5 326,-113.5 326,-94.5 181,-94.5"/>
<text text-anchor="middle" x="253.5" y="-101.5" font-family="Helvetica,sans-Serif" font-size="10.00" fill="#000000">Cleaner::calculateSeqIdentity</text>
</a>
</g>
</g>
<!-- Node490&#45;&gt;Node491 -->
<g id="edge1" class="edge">
<title>Node490&#45;&gt;Node491</title>
<path fill="none" stroke="#191970" d="M98.6378,-57.5071C120.5084,-65.3187 152.6054,-76.4501 181,-85 188.7948,-87.3471 197.1098,-89.6818 205.2251,-91.8699"/>
<polygon fill="#191970" stroke="#191970" points="204.4134,-95.2756 214.9766,-94.4573 206.2086,-88.5097 204.4134,-95.2756"/>
</g>
<!-- Node495 -->
<g id="node6" class="node">
<title>Node495</title>
<g id="a_node6"><a xlink:href="namespaceutils.html#a36809b7400f2e78685173f8bbcfe0a39" target="_top" xlink:title="Quicksort sorting method. ">
<polygon fill="#ffffff" stroke="#000000" points="213.5,-38.5 213.5,-57.5 293.5,-57.5 293.5,-38.5 213.5,-38.5"/>
<text text-anchor="middle" x="253.5" y="-45.5" font-family="Helvetica,sans-Serif" font-size="10.00" fill="#000000">utils::quicksort</text>
</a>
</g>
</g>
<!-- Node490&#45;&gt;Node495 -->
<g id="edge5" class="edge">
<title>Node490&#45;&gt;Node495</title>
<path fill="none" stroke="#191970" d="M145.0767,-48C164.6527,-48 185.3943,-48 203.4366,-48"/>
<polygon fill="#191970" stroke="#191970" points="203.4373,-51.5001 213.4373,-48 203.4372,-44.5001 203.4373,-51.5001"/>
</g>
<!-- Node497 -->
<g id="node8" class="node">
<title>Node497</title>
<g id="a_node8"><a xlink:href="namespaceutils.html#ac0a8721fef543bec18cec5c90c16faff" target="_top" xlink:title="Removes a determined char from the string. ">
<polygon fill="#ffffff" stroke="#000000" points="195.5,-.5 195.5,-19.5 311.5,-19.5 311.5,-.5 195.5,-.5"/>
<text text-anchor="middle" x="253.5" y="-7.5" font-family="Helvetica,sans-Serif" font-size="10.00" fill="#000000">utils::removeCharacter</text>
</a>
</g>
</g>
<!-- Node490&#45;&gt;Node497 -->
<g id="edge8" class="edge">
<title>Node490&#45;&gt;Node497</title>
<path fill="none" stroke="#191970" d="M118.1739,-38.411C142.4892,-33.3061 172.5802,-26.9887 198.2084,-21.6082"/>
<polygon fill="#191970" stroke="#191970" points="199.087,-25.0001 208.1545,-19.5201 197.6487,-18.1495 199.087,-25.0001"/>
</g>
<!-- Node492 -->
<g id="node3" class="node">
<title>Node492</title>
<g id="a_node3"><a xlink:href="class_alignment.html#ab2487799d9a7d593d7fbe1b8da9593f5" target="_top" xlink:title="Alignment type getter. &#160;&#160;See SequenceTypes. ">
<polygon fill="#ffffff" stroke="#000000" points="362,-94.5 362,-113.5 507,-113.5 507,-94.5 362,-94.5"/>
<text text-anchor="middle" x="434.5" y="-101.5" font-family="Helvetica,sans-Serif" font-size="10.00" fill="#000000">Alignment::getAlignmentType</text>
</a>
</g>
</g>
<!-- Node491&#45;&gt;Node492 -->
<g id="edge2" class="edge">
<title>Node491&#45;&gt;Node492</title>
<path fill="none" stroke="#191970" d="M326.0767,-104C334.5595,-104 343.2611,-104 351.8671,-104"/>
<polygon fill="#191970" stroke="#191970" points="351.907,-107.5001 361.907,-104 351.907,-100.5001 351.907,-107.5001"/>
</g>
<!-- Node493 -->
<g id="node4" class="node">
<title>Node493</title>
<g id="a_node4"><a xlink:href="namespaceutils.html#aab52f9515717f06cafd6ab7fe2ebdcef" target="_top" xlink:title="Checks an alignment type. ">
<polygon fill="#ffffff" stroke="#000000" points="543,-94.5 543,-113.5 675,-113.5 675,-94.5 543,-94.5"/>
<text text-anchor="middle" x="609" y="-101.5" font-family="Helvetica,sans-Serif" font-size="10.00" fill="#000000">utils::checkAlignmentType</text>
</a>
</g>
</g>
<!-- Node492&#45;&gt;Node493 -->
<g id="edge3" class="edge">
<title>Node492&#45;&gt;Node493</title>
<path fill="none" stroke="#191970" d="M507.2401,-104C515.6172,-104 524.1779,-104 532.6016,-104"/>
<polygon fill="#191970" stroke="#191970" points="532.7871,-107.5001 542.787,-104 532.787,-100.5001 532.7871,-107.5001"/>
</g>
<!-- Node494 -->
<g id="node5" class="node">
<title>Node494</title>
<g id="a_node5"><a xlink:href="namespaceutils.html#a6286fde6f4dd58ef0cfa9d55341b72f8" target="_top" xlink:title="utils::toUpper">
<polygon fill="#ffffff" stroke="#000000" points="711,-94.5 711,-113.5 786,-113.5 786,-94.5 711,-94.5"/>
<text text-anchor="middle" x="748.5" y="-101.5" font-family="Helvetica,sans-Serif" font-size="10.00" fill="#000000">utils::toUpper</text>
</a>
</g>
</g>
<!-- Node493&#45;&gt;Node494 -->
<g id="edge4" class="edge">
<title>Node493&#45;&gt;Node494</title>
<path fill="none" stroke="#191970" d="M675.0733,-104C683.6891,-104 692.3799,-104 700.6179,-104"/>
<polygon fill="#191970" stroke="#191970" points="700.7709,-107.5001 710.7708,-104 700.7708,-100.5001 700.7709,-107.5001"/>
</g>
<!-- Node495&#45;&gt;Node495 -->
<g id="edge7" class="edge">
<title>Node495&#45;&gt;Node495</title>
<path fill="none" stroke="#191970" d="M225.7568,-57.7571C212.2601,-66.5653 221.5078,-76 253.5,-76 275.4946,-76 286.739,-71.5406 287.233,-65.8913"/>
<polygon fill="#191970" stroke="#191970" points="289.9911,-63.7341 281.2432,-57.7571 284.3544,-67.8848 289.9911,-63.7341"/>
</g>
<!-- Node496 -->
<g id="node7" class="node">
<title>Node496</title>
<g id="a_node7"><a xlink:href="namespaceutils.html#a7ef87e474cc361a3cdf4e4f4227afb40" target="_top" xlink:title="Swaps double pointers. ">
<polygon fill="#ffffff" stroke="#000000" points="402.5,-38.5 402.5,-57.5 466.5,-57.5 466.5,-38.5 402.5,-38.5"/>
<text text-anchor="middle" x="434.5" y="-45.5" font-family="Helvetica,sans-Serif" font-size="10.00" fill="#000000">utils::swap</text>
</a>
</g>
</g>
<!-- Node495&#45;&gt;Node496 -->
<g id="edge6" class="edge">
<title>Node495&#45;&gt;Node496</title>
<path fill="none" stroke="#191970" d="M293.6698,-48C322.9233,-48 362.4643,-48 392.2013,-48"/>
<polygon fill="#191970" stroke="#191970" points="392.2778,-51.5001 402.2778,-48 392.2777,-44.5001 392.2778,-51.5001"/>
</g>
</g>
</svg>
