<?xml version="1.0" encoding="UTF-8" standalone="no"?>
<!DOCTYPE svg PUBLIC "-//W3C//DTD SVG 1.1//EN"
 "http://www.w3.org/Graphics/SVG/1.1/DTD/svg11.dtd">
<!-- Generated by graphviz version 2.38.0 (20140413.2041)
 -->
<!-- Title: Cleaner::cleanCompareFile Pages: 1 -->
<svg width="626pt" height="317pt"
 viewBox="0.00 0.00 626.00 317.00" xmlns="http://www.w3.org/2000/svg" xmlns:xlink="http://www.w3.org/1999/xlink">
<g id="graph0" class="graph" transform="scale(1 1) rotate(0) translate(4 313)">
<title>Cleaner::cleanCompareFile</title>
<polygon fill="white" stroke="none" points="-4,4 -4,-313 622,-313 622,4 -4,4"/>
<!-- Node86 -->
<g id="node1" class="node"><title>Node86</title>
<polygon fill="#bfbfbf" stroke="black" points="0,-251.5 0,-270.5 135,-270.5 135,-251.5 0,-251.5"/>
<text text-anchor="middle" x="67.5" y="-258.5" font-family="Helvetica,sans-Serif" font-size="10.00">Cleaner::cleanCompareFile</text>
</g>
<!-- Node87 -->
<g id="node2" class="node"><title>Node87</title>
<g id="a_node2"><a xlink:href="classutils.html#a42f272221edf7752ffda49e4212ef653" target="_top" xlink:title="Integer vector copying. ">
<polygon fill="white" stroke="black" points="387.5,-289.5 387.5,-308.5 469.5,-308.5 469.5,-289.5 387.5,-289.5"/>
<text text-anchor="middle" x="428.5" y="-296.5" font-family="Helvetica,sans-Serif" font-size="10.00">utils::copyVect</text>
</a>
</g>
</g>
<!-- Node86&#45;&gt;Node87 -->
<g id="edge1" class="edge"><title>Node86&#45;&gt;Node87</title>
<path fill="none" stroke="midnightblue" d="M135.164,-270.523C147.086,-272.107 159.402,-273.666 171,-275 242.499,-283.224 325.457,-290.592 377.219,-294.93"/>
<polygon fill="midnightblue" stroke="midnightblue" points="377.203,-298.441 387.459,-295.783 377.784,-291.465 377.203,-298.441"/>
</g>
<!-- Node88 -->
<g id="node3" class="node"><title>Node88</title>
<g id="a_node3"><a xlink:href="classutils.html#a73f038c379c13d23e3220afaa14f9983" target="_top" xlink:title="Quicksort sorting method. ">
<polygon fill="white" stroke="black" points="388.5,-251.5 388.5,-270.5 468.5,-270.5 468.5,-251.5 388.5,-251.5"/>
<text text-anchor="middle" x="428.5" y="-258.5" font-family="Helvetica,sans-Serif" font-size="10.00">utils::quicksort</text>
</a>
</g>
</g>
<!-- Node86&#45;&gt;Node88 -->
<g id="edge2" class="edge"><title>Node86&#45;&gt;Node88</title>
<path fill="none" stroke="midnightblue" d="M135.184,-261C205.677,-261 315.21,-261 378.266,-261"/>
<polygon fill="midnightblue" stroke="midnightblue" points="378.35,-264.5 388.35,-261 378.35,-257.5 378.35,-264.5"/>
</g>
<!-- Node90 -->
<g id="node5" class="node"><title>Node90</title>
<g id="a_node5"><a xlink:href="class_cleaner.html#ad075f0ef730c8023cf8a0e35e7e1e53a" target="_top" xlink:title="Method to clean an alignment. &#160;It removes sequences that overpass or equals a certain threshold...">
<polygon fill="white" stroke="black" points="171,-175.5 171,-194.5 303,-194.5 303,-175.5 171,-175.5"/>
<text text-anchor="middle" x="237" y="-182.5" font-family="Helvetica,sans-Serif" font-size="10.00">Cleaner::cleanByCutValue</text>
</a>
</g>
</g>
<!-- Node86&#45;&gt;Node90 -->
<g id="edge4" class="edge"><title>Node86&#45;&gt;Node90</title>
<path fill="none" stroke="midnightblue" d="M89.714,-251.375C119.039,-238.069 172.129,-213.98 205.646,-198.772"/>
<polygon fill="midnightblue" stroke="midnightblue" points="207.298,-201.867 214.958,-194.547 204.406,-195.492 207.298,-201.867"/>
</g>
<!-- Node89 -->
<g id="node4" class="node"><title>Node89</title>
<g id="a_node4"><a xlink:href="classutils.html#a3377ecde55631d1bbc4956e5923b7469" target="_top" xlink:title="Swapping elements method. ">
<polygon fill="white" stroke="black" points="554,-251.5 554,-270.5 618,-270.5 618,-251.5 554,-251.5"/>
<text text-anchor="middle" x="586" y="-258.5" font-family="Helvetica,sans-Serif" font-size="10.00">utils::swap</text>
</a>
</g>
</g>
<!-- Node88&#45;&gt;Node89 -->
<g id="edge3" class="edge"><title>Node88&#45;&gt;Node89</title>
<path fill="none" stroke="midnightblue" d="M468.739,-261C491.6,-261 520.403,-261 543.62,-261"/>
<polygon fill="midnightblue" stroke="midnightblue" points="543.854,-264.5 553.854,-261 543.853,-257.5 543.854,-264.5"/>
</g>
<!-- Node90&#45;&gt;Node87 -->
<g id="edge6" class="edge"><title>Node90&#45;&gt;Node87</title>
<path fill="none" stroke="midnightblue" d="M245.158,-194.597C260.21,-214.038 297.218,-258.081 339,-280 350.639,-286.106 364.12,-290.25 376.997,-293.063"/>
<polygon fill="midnightblue" stroke="midnightblue" points="376.662,-296.564 387.147,-295.045 378.003,-289.693 376.662,-296.564"/>
</g>
<!-- Node90&#45;&gt;Node88 -->
<g id="edge7" class="edge"><title>Node90&#45;&gt;Node88</title>
<path fill="none" stroke="midnightblue" d="M251.719,-194.537C270.554,-207.202 305.868,-229.429 339,-242 351.528,-246.753 365.528,-250.448 378.63,-253.262"/>
<polygon fill="midnightblue" stroke="midnightblue" points="377.94,-256.693 388.435,-255.245 379.328,-249.832 377.94,-256.693"/>
</g>
<!-- Node91 -->
<g id="node6" class="node"><title>Node91</title>
<g id="a_node6"><a xlink:href="classutils.html#ad50731aeb3c8f79ed8372516210dfc9d" target="_top" xlink:title="Round double to integer method. ">
<polygon fill="white" stroke="black" points="390.5,-213.5 390.5,-232.5 466.5,-232.5 466.5,-213.5 390.5,-213.5"/>
<text text-anchor="middle" x="428.5" y="-220.5" font-family="Helvetica,sans-Serif" font-size="10.00">utils::roundInt</text>
</a>
</g>
</g>
<!-- Node90&#45;&gt;Node91 -->
<g id="edge5" class="edge"><title>Node90&#45;&gt;Node91</title>
<path fill="none" stroke="midnightblue" d="M285.819,-194.589C314.851,-200.411 351.747,-207.809 380.609,-213.597"/>
<polygon fill="midnightblue" stroke="midnightblue" points="379.963,-217.037 390.456,-215.572 381.34,-210.174 379.963,-217.037"/>
</g>
<!-- Node92 -->
<g id="node7" class="node"><title>Node92</title>
<g id="a_node7"><a xlink:href="class_cleaner.html#a033da9ea63774f43f4c7aff04f23da81" target="_top" xlink:title="Method to detect right and left borders. Borders are the first column found with no gaps...">
<polygon fill="white" stroke="black" points="355.5,-175.5 355.5,-194.5 501.5,-194.5 501.5,-175.5 355.5,-175.5"/>
<text text-anchor="middle" x="428.5" y="-182.5" font-family="Helvetica,sans-Serif" font-size="10.00">Cleaner::removeOnlyTerminal</text>
</a>
</g>
</g>
<!-- Node90&#45;&gt;Node92 -->
<g id="edge8" class="edge"><title>Node90&#45;&gt;Node92</title>
<path fill="none" stroke="midnightblue" d="M303.215,-185C316.741,-185 331.159,-185 345.205,-185"/>
<polygon fill="midnightblue" stroke="midnightblue" points="345.349,-188.5 355.349,-185 345.349,-181.5 345.349,-188.5"/>
</g>
<!-- Node93 -->
<g id="node8" class="node"><title>Node93</title>
<g id="a_node8"><a xlink:href="class_cleaner.html#a24bd28e4191afc9471adff329bee1466" target="_top" xlink:title="Method for computing the complementary alignment. Complementary Alignment is an alignment containing ...">
<polygon fill="white" stroke="black" points="339,-137.5 339,-156.5 518,-156.5 518,-137.5 339,-137.5"/>
<text text-anchor="middle" x="428.5" y="-144.5" font-family="Helvetica,sans-Serif" font-size="10.00">Cleaner::computeComplementaryAlig</text>
</a>
</g>
</g>
<!-- Node90&#45;&gt;Node93 -->
<g id="edge9" class="edge"><title>Node90&#45;&gt;Node93</title>
<path fill="none" stroke="midnightblue" d="M285.819,-175.411C311.389,-170.284 343.059,-163.933 369.968,-158.537"/>
<polygon fill="midnightblue" stroke="midnightblue" points="370.908,-161.918 380.025,-156.52 369.532,-155.055 370.908,-161.918"/>
</g>
<!-- Node94 -->
<g id="node9" class="node"><title>Node94</title>
<g id="a_node9"><a xlink:href="class_cleaner.html#a2f7d85e29f23f880a7ad7e28863b36c3" target="_top" xlink:title="Method that identifies and removes columns and sequences composed only by gaps. ">
<polygon fill="white" stroke="black" points="374,-88 374,-118 483,-118 483,-88 374,-88"/>
<text text-anchor="start" x="382" y="-106" font-family="Helvetica,sans-Serif" font-size="10.00">Cleaner::removeCols</text>
<text text-anchor="middle" x="428.5" y="-95" font-family="Helvetica,sans-Serif" font-size="10.00">_SeqsAllGaps</text>
</a>
</g>
</g>
<!-- Node90&#45;&gt;Node94 -->
<g id="edge10" class="edge"><title>Node90&#45;&gt;Node94</title>
<path fill="none" stroke="midnightblue" d="M252.494,-175.347C271.621,-162.96 306.658,-141.467 339,-128 347.032,-124.656 355.654,-121.602 364.252,-118.868"/>
<polygon fill="midnightblue" stroke="midnightblue" points="365.373,-122.185 373.915,-115.917 363.329,-115.49 365.373,-122.185"/>
</g>
<!-- Node95 -->
<g id="node10" class="node"><title>Node95</title>
<g id="a_node10"><a xlink:href="classnew_alignment.html#a3de39c62c08a265178f1fa7df76c3ab7" target="_top" xlink:title="Method that copies information of the alignment to the pointers given. ">
<polygon fill="white" stroke="black" points="361,-39 361,-69 496,-69 496,-39 361,-39"/>
<text text-anchor="start" x="369" y="-57" font-family="Helvetica,sans-Serif" font-size="10.00">newAlignment::fillNewData</text>
<text text-anchor="middle" x="428.5" y="-46" font-family="Helvetica,sans-Serif" font-size="10.00">Structure</text>
</a>
</g>
</g>
<!-- Node90&#45;&gt;Node95 -->
<g id="edge11" class="edge"><title>Node90&#45;&gt;Node95</title>
<path fill="none" stroke="midnightblue" d="M244.305,-175.332C258.548,-154.286 295.386,-104.115 339,-78 342.869,-75.6832 346.966,-73.5853 351.192,-71.6862"/>
<polygon fill="midnightblue" stroke="midnightblue" points="352.679,-74.8596 360.613,-67.8384 350.032,-68.3793 352.679,-74.8596"/>
</g>
<!-- Node96 -->
<g id="node11" class="node"><title>Node96</title>
<g id="a_node11"><a xlink:href="classnew_alignment.html#acbeb320f0f70222f81a906ccfc33a016" target="_top" xlink:title="Method to intialize data that has been modified on the alignment. The method checks if the sequences ...">
<polygon fill="white" stroke="black" points="363,-0.5 363,-19.5 494,-19.5 494,-0.5 363,-0.5"/>
<text text-anchor="middle" x="428.5" y="-7.5" font-family="Helvetica,sans-Serif" font-size="10.00">newAlignment::fillMatrices</text>
</a>
</g>
</g>
<!-- Node90&#45;&gt;Node96 -->
<g id="edge12" class="edge"><title>Node90&#45;&gt;Node96</title>
<path fill="none" stroke="midnightblue" d="M241.209,-175.426C250.993,-147.8 283.227,-67.4723 339,-29 343.335,-26.0094 348.053,-23.4762 352.977,-21.3318"/>
<polygon fill="midnightblue" stroke="midnightblue" points="354.543,-24.4817 362.657,-17.6695 352.066,-17.9345 354.543,-24.4817"/>
</g>
</g>
</svg>
