<?xml version="1.0" encoding="UTF-8" standalone="no"?>
<!DOCTYPE svg PUBLIC "-//W3C//DTD SVG 1.1//EN"
 "http://www.w3.org/Graphics/SVG/1.1/DTD/svg11.dtd">
<!-- Generated by graphviz version 2.40.1 (20161225.0304)
 -->
<!-- Title: Cleaner::clean Pages: 1 -->
<svg width="1384pt" height="678pt"
 viewBox="0.00 0.00 1384.00 678.00" xmlns="http://www.w3.org/2000/svg" xmlns:xlink="http://www.w3.org/1999/xlink">
<g id="graph0" class="graph" transform="scale(1 1) rotate(0) translate(4 674)">
<title>Cleaner::clean</title>
<polygon fill="#ffffff" stroke="transparent" points="-4,4 -4,-674 1380,-674 1380,4 -4,4"/>
<!-- Node88 -->
<g id="node1" class="node">
<title>Node88</title>
<polygon fill="#bfbfbf" stroke="#000000" points="0,-346 0,-365 80,-365 80,-346 0,-346"/>
<text text-anchor="middle" x="40" y="-353" font-family="Helvetica,sans-Serif" font-size="10.00" fill="#000000">Cleaner::clean</text>
</g>
<!-- Node89 -->
<g id="node2" class="node">
<title>Node89</title>
<g id="a_node2"><a xlink:href="classstatistics_1_1_gaps.html#a487a85bf19dd7940ab1a2986601527c8" target="_top" xlink:title="statistics::Gaps::calcCut\lPoint">
<polygon fill="#ffffff" stroke="#000000" points="119.5,-202.5 119.5,-232.5 244.5,-232.5 244.5,-202.5 119.5,-202.5"/>
<text text-anchor="start" x="127.5" y="-220.5" font-family="Helvetica,sans-Serif" font-size="10.00" fill="#000000">statistics::Gaps::calcCut</text>
<text text-anchor="middle" x="182" y="-209.5" font-family="Helvetica,sans-Serif" font-size="10.00" fill="#000000">Point</text>
</a>
</g>
</g>
<!-- Node88&#45;&gt;Node89 -->
<g id="edge1" class="edge">
<title>Node88&#45;&gt;Node89</title>
<path fill="none" stroke="#191970" d="M44.5536,-345.842C54.6995,-325.2332 81.0496,-276.4699 116,-247.5 120.5318,-243.7437 125.6103,-240.3586 130.8847,-237.3345"/>
<polygon fill="#191970" stroke="#191970" points="132.6743,-240.3476 139.8839,-232.5842 129.4065,-234.1571 132.6743,-240.3476"/>
</g>
<!-- Node92 -->
<g id="node5" class="node">
<title>Node92</title>
<g id="a_node5"><a xlink:href="classstatistics_1_1_similarity.html#a26f430acb8a3240977665de9a9ea875a" target="_top" xlink:title="Computes and selects the cut point values based on similarity&#39;s values. ">
<polygon fill="#ffffff" stroke="#000000" points="130.5,-486.5 130.5,-516.5 233.5,-516.5 233.5,-486.5 130.5,-486.5"/>
<text text-anchor="start" x="138.5" y="-504.5" font-family="Helvetica,sans-Serif" font-size="10.00" fill="#000000">statistics::Similarity</text>
<text text-anchor="middle" x="182" y="-493.5" font-family="Helvetica,sans-Serif" font-size="10.00" fill="#000000">::calcCutPoint</text>
</a>
</g>
</g>
<!-- Node88&#45;&gt;Node92 -->
<g id="edge4" class="edge">
<title>Node88&#45;&gt;Node92</title>
<path fill="none" stroke="#191970" d="M46.4533,-365.0126C58.792,-382.8461 87.084,-422.0673 116,-450.5 126.8843,-461.2024 139.9957,-471.7383 151.6545,-480.4302"/>
<polygon fill="#191970" stroke="#191970" points="149.6959,-483.3339 159.8346,-486.4093 153.8267,-477.6826 149.6959,-483.3339"/>
</g>
<!-- Node94 -->
<g id="node7" class="node">
<title>Node94</title>
<g id="a_node7"><a xlink:href="classstatistics_1_1_similarity.html#a1b65c85328f09fa0637365d11fb386b4" target="_top" xlink:title="This methods returns a pointer to conservationWindow&#39;s vector. ">
<polygon fill="#ffffff" stroke="#000000" points="295.5,-571.5 295.5,-601.5 424.5,-601.5 424.5,-571.5 295.5,-571.5"/>
<text text-anchor="start" x="303.5" y="-589.5" font-family="Helvetica,sans-Serif" font-size="10.00" fill="#000000">statistics::Similarity</text>
<text text-anchor="middle" x="360" y="-578.5" font-family="Helvetica,sans-Serif" font-size="10.00" fill="#000000">::getMdkWindowedVector</text>
</a>
</g>
</g>
<!-- Node88&#45;&gt;Node94 -->
<g id="edge56" class="edge">
<title>Node88&#45;&gt;Node94</title>
<path fill="none" stroke="#191970" d="M41.2828,-365.0007C45.724,-394.0349 63.1828,-482.2968 116,-526.5 163.2988,-566.0848 232.7792,-580.2464 285.512,-584.9925"/>
<polygon fill="#191970" stroke="#191970" points="285.2396,-588.4818 295.4886,-585.7971 285.8024,-581.5044 285.2396,-588.4818"/>
</g>
<!-- Node102 -->
<g id="node15" class="node">
<title>Node102</title>
<g id="a_node15"><a xlink:href="classstatistics_1_1_manager.html#a1969a416d3020d25daa56de6c5e305db" target="_top" xlink:title="Method to handle gap stat calculation It checks if the gaps submodule has been created, otherwise, creates it. ">
<polygon fill="#ffffff" stroke="#000000" points="795.5,-395.5 795.5,-425.5 898.5,-425.5 898.5,-395.5 795.5,-395.5"/>
<text text-anchor="start" x="803.5" y="-413.5" font-family="Helvetica,sans-Serif" font-size="10.00" fill="#000000">statistics::Manager</text>
<text text-anchor="middle" x="847" y="-402.5" font-family="Helvetica,sans-Serif" font-size="10.00" fill="#000000">::calculateGapStats</text>
</a>
</g>
</g>
<!-- Node88&#45;&gt;Node102 -->
<g id="edge42" class="edge">
<title>Node88&#45;&gt;Node102</title>
<path fill="none" stroke="#191970" d="M80.1258,-352.8697C171.5943,-347.4796 402.459,-337.3033 594,-357.5 660.1076,-364.4706 734.4165,-381.1187 785.3035,-393.9115"/>
<polygon fill="#191970" stroke="#191970" points="784.6053,-397.3452 795.1592,-396.4146 786.3285,-390.5606 784.6053,-397.3452"/>
</g>
<!-- Node108 -->
<g id="node21" class="node">
<title>Node108</title>
<g id="a_node21"><a xlink:href="classstatistics_1_1_gaps.html#ab5b60db326475f8adc68b130e22b3963" target="_top" xlink:title="statistics::Gaps::getGaps\lWindow">
<polygon fill="#ffffff" stroke="#000000" points="783,-313.5 783,-343.5 911,-343.5 911,-313.5 783,-313.5"/>
<text text-anchor="start" x="791" y="-331.5" font-family="Helvetica,sans-Serif" font-size="10.00" fill="#000000">statistics::Gaps::getGaps</text>
<text text-anchor="middle" x="847" y="-320.5" font-family="Helvetica,sans-Serif" font-size="10.00" fill="#000000">Window</text>
</a>
</g>
</g>
<!-- Node88&#45;&gt;Node108 -->
<g id="edge55" class="edge">
<title>Node88&#45;&gt;Node108</title>
<path fill="none" stroke="#191970" d="M58.5532,-345.9695C106.8522,-322.072 241.0096,-261.5 360,-261.5 360,-261.5 360,-261.5 533,-261.5 626.9161,-261.5 733.223,-290.5218 794.93,-310.364"/>
<polygon fill="#191970" stroke="#191970" points="793.8496,-313.693 804.4419,-313.4639 796.0186,-307.0375 793.8496,-313.693"/>
</g>
<!-- Node113 -->
<g id="node26" class="node">
<title>Node113</title>
<g id="a_node26"><a xlink:href="classstatistics_1_1_manager.html#a92505ca5aedc5b45c4300a0e8a7d1e17" target="_top" xlink:title="Method to handle similarity stat calculation It checks if the similarity submodule has been created...">
<polygon fill="#ffffff" stroke="#000000" points="288.5,-464.5 288.5,-494.5 431.5,-494.5 431.5,-464.5 288.5,-464.5"/>
<text text-anchor="start" x="296.5" y="-482.5" font-family="Helvetica,sans-Serif" font-size="10.00" fill="#000000">statistics::Manager</text>
<text text-anchor="middle" x="360" y="-471.5" font-family="Helvetica,sans-Serif" font-size="10.00" fill="#000000">::calculateConservationStats</text>
</a>
</g>
</g>
<!-- Node88&#45;&gt;Node113 -->
<g id="edge33" class="edge">
<title>Node88&#45;&gt;Node113</title>
<path fill="none" stroke="#191970" d="M64.5785,-365.0242C117.4143,-385.498 242.6196,-434.0151 311.8673,-460.8486"/>
<polygon fill="#191970" stroke="#191970" points="310.6646,-464.1361 321.2537,-464.4858 313.1939,-457.609 310.6646,-464.1361"/>
</g>
<!-- Node118 -->
<g id="node31" class="node">
<title>Node118</title>
<g id="a_node31"><a xlink:href="class_cleaner.html#a5afcae6b995a229b59785e4690b25a0f" target="_top" xlink:title="Method to clean an alignment. &#160;It removes sequences that overpass or equals &#160;the gap threshold but &#160;f...">
<polygon fill="#ffffff" stroke="#000000" points="116,-113.5 116,-143.5 248,-143.5 248,-113.5 116,-113.5"/>
<text text-anchor="start" x="124" y="-131.5" font-family="Helvetica,sans-Serif" font-size="10.00" fill="#000000">Cleaner::cleanByCutValue</text>
<text text-anchor="middle" x="182" y="-120.5" font-family="Helvetica,sans-Serif" font-size="10.00" fill="#000000">OverpassOrEquals</text>
</a>
</g>
</g>
<!-- Node88&#45;&gt;Node118 -->
<g id="edge43" class="edge">
<title>Node88&#45;&gt;Node118</title>
<path fill="none" stroke="#191970" d="M43.2044,-345.7362C52.0892,-319.5144 78.8533,-245.993 116,-193.5 127.232,-177.6278 142.5763,-162.2494 155.6431,-150.4388"/>
<polygon fill="#191970" stroke="#191970" points="158.2426,-152.8129 163.4276,-143.5735 153.6125,-147.5629 158.2426,-152.8129"/>
</g>
<!-- Node90 -->
<g id="node3" class="node">
<title>Node90</title>
<g id="a_node3"><a xlink:href="namespaceutils.html#ad50731aeb3c8f79ed8372516210dfc9d" target="_top" xlink:title="Round double to integer method. ">
<polygon fill="#ffffff" stroke="#000000" points="1161,-176 1161,-195 1237,-195 1237,-176 1161,-176"/>
<text text-anchor="middle" x="1199" y="-183" font-family="Helvetica,sans-Serif" font-size="10.00" fill="#000000">utils::roundInt</text>
</a>
</g>
</g>
<!-- Node89&#45;&gt;Node90 -->
<g id="edge2" class="edge">
<title>Node89&#45;&gt;Node90</title>
<path fill="none" stroke="#191970" d="M244.6144,-208.3301C314.7014,-198.8741 431.7302,-185.5 533,-185.5 533,-185.5 533,-185.5 847,-185.5 955.4746,-185.5 1082.7526,-185.5 1150.6072,-185.5"/>
<polygon fill="#191970" stroke="#191970" points="1150.9753,-189.0001 1160.9753,-185.5 1150.9753,-182.0001 1150.9753,-189.0001"/>
</g>
<!-- Node91 -->
<g id="node4" class="node">
<title>Node91</title>
<g id="a_node4"><a xlink:href="namespaceutils.html#a91f98ed74c54fdc1ee7ae6c7e770591c" target="_top" xlink:title="Maximum of two numbers method. ">
<polygon fill="#ffffff" stroke="#000000" points="330.5,-214 330.5,-233 389.5,-233 389.5,-214 330.5,-214"/>
<text text-anchor="middle" x="360" y="-221" font-family="Helvetica,sans-Serif" font-size="10.00" fill="#000000">utils::max</text>
</a>
</g>
</g>
<!-- Node89&#45;&gt;Node91 -->
<g id="edge3" class="edge">
<title>Node89&#45;&gt;Node91</title>
<path fill="none" stroke="#191970" d="M244.5058,-219.6069C269.5845,-220.4523 297.7513,-221.4017 319.9902,-222.1514"/>
<polygon fill="#191970" stroke="#191970" points="319.962,-225.6523 330.0743,-222.4913 320.1979,-218.6563 319.962,-225.6523"/>
</g>
<!-- Node93 -->
<g id="node6" class="node">
<title>Node93</title>
<g id="a_node6"><a xlink:href="namespaceutils.html#a13e9bd8b05840270eda57450710273c2" target="_top" xlink:title="Float vector copying. ">
<polygon fill="#ffffff" stroke="#000000" points="319,-514 319,-533 401,-533 401,-514 319,-514"/>
<text text-anchor="middle" x="360" y="-521" font-family="Helvetica,sans-Serif" font-size="10.00" fill="#000000">utils::copyVect</text>
</a>
</g>
</g>
<!-- Node92&#45;&gt;Node93 -->
<g id="edge5" class="edge">
<title>Node92&#45;&gt;Node93</title>
<path fill="none" stroke="#191970" d="M233.9635,-507.9225C257.4724,-510.8281 285.1776,-514.2523 308.6169,-517.1493"/>
<polygon fill="#191970" stroke="#191970" points="308.3611,-520.6442 318.7149,-518.3974 309.2198,-513.6971 308.3611,-520.6442"/>
</g>
<!-- Node92&#45;&gt;Node94 -->
<g id="edge6" class="edge">
<title>Node92&#45;&gt;Node94</title>
<path fill="none" stroke="#191970" d="M213.4131,-516.5006C242.8447,-530.5551 287.0005,-551.6407 319.1562,-566.9959"/>
<polygon fill="#191970" stroke="#191970" points="317.7701,-570.2126 328.3022,-571.3634 320.7865,-563.8958 317.7701,-570.2126"/>
</g>
<!-- Node111 -->
<g id="node24" class="node">
<title>Node111</title>
<g id="a_node24"><a xlink:href="namespaceutils.html#a73f038c379c13d23e3220afaa14f9983" target="_top" xlink:title="Quicksort sorting method. ">
<polygon fill="#ffffff" stroke="#000000" points="320,-290 320,-309 400,-309 400,-290 320,-290"/>
<text text-anchor="middle" x="360" y="-297" font-family="Helvetica,sans-Serif" font-size="10.00" fill="#000000">utils::quicksort</text>
</a>
</g>
</g>
<!-- Node92&#45;&gt;Node111 -->
<g id="edge30" class="edge">
<title>Node92&#45;&gt;Node111</title>
<path fill="none" stroke="#191970" d="M195.3789,-486.3172C227.7006,-449.6376 309.9083,-356.3457 344.3963,-317.2076"/>
<polygon fill="#191970" stroke="#191970" points="347.3748,-319.1214 351.3602,-309.3047 342.1229,-314.4935 347.3748,-319.1214"/>
</g>
<!-- Node95 -->
<g id="node8" class="node">
<title>Node95</title>
<g id="a_node8"><a xlink:href="classstatistics_1_1_similarity.html#a4446bf070a858952dac45f5705d16780" target="_top" xlink:title="Returns if a windows size value has been defined or not. ">
<polygon fill="#ffffff" stroke="#000000" points="481.5,-639.5 481.5,-669.5 584.5,-669.5 584.5,-639.5 481.5,-639.5"/>
<text text-anchor="start" x="489.5" y="-657.5" font-family="Helvetica,sans-Serif" font-size="10.00" fill="#000000">statistics::Similarity</text>
<text text-anchor="middle" x="533" y="-646.5" font-family="Helvetica,sans-Serif" font-size="10.00" fill="#000000">::isDefinedWindow</text>
</a>
</g>
</g>
<!-- Node94&#45;&gt;Node95 -->
<g id="edge7" class="edge">
<title>Node94&#45;&gt;Node95</title>
<path fill="none" stroke="#191970" d="M398.3943,-601.5914C424.0397,-611.6717 457.9569,-625.0033 485.3286,-635.7621"/>
<polygon fill="#191970" stroke="#191970" points="484.1258,-639.0499 494.713,-639.4508 486.6865,-632.5351 484.1258,-639.0499"/>
</g>
<!-- Node96 -->
<g id="node9" class="node">
<title>Node96</title>
<g id="a_node9"><a xlink:href="classstatistics_1_1_similarity.html#adcb5627b9704850e85433fc40c19db17" target="_top" xlink:title="Allows us compute the conservationWindow&#39;s values. ">
<polygon fill="#ffffff" stroke="#000000" points="481.5,-590.5 481.5,-620.5 584.5,-620.5 584.5,-590.5 481.5,-590.5"/>
<text text-anchor="start" x="489.5" y="-608.5" font-family="Helvetica,sans-Serif" font-size="10.00" fill="#000000">statistics::Similarity</text>
<text text-anchor="middle" x="533" y="-597.5" font-family="Helvetica,sans-Serif" font-size="10.00" fill="#000000">::applyWindow</text>
</a>
</g>
</g>
<!-- Node94&#45;&gt;Node96 -->
<g id="edge8" class="edge">
<title>Node94&#45;&gt;Node96</title>
<path fill="none" stroke="#191970" d="M424.911,-593.629C440.0238,-595.2887 456.0758,-597.0517 471.0563,-598.6969"/>
<polygon fill="#191970" stroke="#191970" points="470.9093,-602.2017 481.2316,-599.8145 471.6735,-595.2436 470.9093,-602.2017"/>
</g>
<!-- Node97 -->
<g id="node10" class="node">
<title>Node97</title>
<g id="a_node10"><a xlink:href="classstatistics_1_1_similarity.html#ae69ec0e79912ae23c8cfe97358c4794d" target="_top" xlink:title="Method to calculate the similarity values of a alignment matrix. ">
<polygon fill="#ffffff" stroke="#000000" points="637,-549.5 637,-579.5 740,-579.5 740,-549.5 637,-549.5"/>
<text text-anchor="start" x="645" y="-567.5" font-family="Helvetica,sans-Serif" font-size="10.00" fill="#000000">statistics::Similarity</text>
<text text-anchor="middle" x="688.5" y="-556.5" font-family="Helvetica,sans-Serif" font-size="10.00" fill="#000000">::calculateVectors</text>
</a>
</g>
</g>
<!-- Node96&#45;&gt;Node97 -->
<g id="edge9" class="edge">
<title>Node96&#45;&gt;Node97</title>
<path fill="none" stroke="#191970" d="M584.7792,-591.8476C598.2871,-588.286 612.9765,-584.4129 626.9373,-580.732"/>
<polygon fill="#191970" stroke="#191970" points="628.1697,-584.0267 636.9469,-578.0928 626.385,-577.258 628.1697,-584.0267"/>
</g>
<!-- Node107 -->
<g id="node20" class="node">
<title>Node107</title>
<g id="a_node20"><a xlink:href="classreporting_1_1report_manager.html#a6d122e673144584e0869bd33b8a5c1c6" target="_top" xlink:title="Method to report an Error. &#160;It will be displayed if Level &#160;is equal or higher to VerboseLevel::ERROR...">
<polygon fill="#ffffff" stroke="#000000" points="1138,-593.5 1138,-623.5 1260,-623.5 1260,-593.5 1138,-593.5"/>
<text text-anchor="start" x="1146" y="-611.5" font-family="Helvetica,sans-Serif" font-size="10.00" fill="#000000">reporting::reportManager</text>
<text text-anchor="middle" x="1199" y="-600.5" font-family="Helvetica,sans-Serif" font-size="10.00" fill="#000000">::report</text>
</a>
</g>
</g>
<!-- Node96&#45;&gt;Node107 -->
<g id="edge29" class="edge">
<title>Node96&#45;&gt;Node107</title>
<path fill="none" stroke="#191970" d="M584.5693,-612.9773C635.02,-619.8894 714.1021,-629.6537 783,-633.5 922.4241,-641.2834 958.0253,-636.1264 1097,-622.5 1106.9396,-621.5254 1117.3995,-620.3093 1127.6789,-619.0036"/>
<polygon fill="#191970" stroke="#191970" points="1128.4092,-622.4381 1137.8723,-617.6736 1127.5035,-615.4969 1128.4092,-622.4381"/>
</g>
<!-- Node98 -->
<g id="node11" class="node">
<title>Node98</title>
<g id="a_node11"><a xlink:href="classstatistics_1_1_similarity.html#a75bd235b3207235eefa7b52dff063c76" target="_top" xlink:title="Computes the matrix identity between alignment&#39;s columns. ">
<polygon fill="#ffffff" stroke="#000000" points="786.5,-505.5 786.5,-535.5 907.5,-535.5 907.5,-505.5 786.5,-505.5"/>
<text text-anchor="start" x="794.5" y="-523.5" font-family="Helvetica,sans-Serif" font-size="10.00" fill="#000000">statistics::Similarity</text>
<text text-anchor="middle" x="847" y="-512.5" font-family="Helvetica,sans-Serif" font-size="10.00" fill="#000000">::calculateMatrixIdentity</text>
</a>
</g>
</g>
<!-- Node97&#45;&gt;Node98 -->
<g id="edge10" class="edge">
<title>Node97&#45;&gt;Node98</title>
<path fill="none" stroke="#191970" d="M740.3988,-550.0928C754.043,-546.3051 768.9199,-542.1752 783.1133,-538.2351"/>
<polygon fill="#191970" stroke="#191970" points="784.1072,-541.5916 792.8066,-535.5442 782.2348,-534.8467 784.1072,-541.5916"/>
</g>
<!-- Node99 -->
<g id="node12" class="node">
<title>Node99</title>
<g id="a_node12"><a xlink:href="class_alignment.html#ab2487799d9a7d593d7fbe1b8da9593f5" target="_top" xlink:title="Alignment type getter. &#160;&#160;See SequenceTypes. ">
<polygon fill="#ffffff" stroke="#000000" points="949.5,-511 949.5,-530 1094.5,-530 1094.5,-511 949.5,-511"/>
<text text-anchor="middle" x="1022" y="-518" font-family="Helvetica,sans-Serif" font-size="10.00" fill="#000000">Alignment::getAlignmentType</text>
</a>
</g>
</g>
<!-- Node97&#45;&gt;Node99 -->
<g id="edge25" class="edge">
<title>Node97&#45;&gt;Node99</title>
<path fill="none" stroke="#191970" d="M740.4405,-562.0719C785.6863,-559.4792 852.9542,-554.4722 911,-545.5 932.3618,-542.1981 955.7423,-537.1512 975.5128,-532.4544"/>
<polygon fill="#191970" stroke="#191970" points="976.5953,-535.7936 985.4926,-530.0413 974.95,-528.9897 976.5953,-535.7936"/>
</g>
<!-- Node101 -->
<g id="node14" class="node">
<title>Node101</title>
<g id="a_node14"><a xlink:href="namespaceutils.html#a6286fde6f4dd58ef0cfa9d55341b72f8" target="_top" xlink:title="utils::toUpper">
<polygon fill="#ffffff" stroke="#000000" points="1301,-487 1301,-506 1376,-506 1376,-487 1301,-487"/>
<text text-anchor="middle" x="1338.5" y="-494" font-family="Helvetica,sans-Serif" font-size="10.00" fill="#000000">utils::toUpper</text>
</a>
</g>
</g>
<!-- Node97&#45;&gt;Node101 -->
<g id="edge26" class="edge">
<title>Node97&#45;&gt;Node101</title>
<path fill="none" stroke="#191970" d="M711.2267,-549.433C722.1531,-542.0696 735.3718,-532.9853 747,-524.5 763.3738,-512.5517 763.8274,-503.0783 783,-496.5 961.8491,-435.1355 1192.5779,-467.7649 1290.8168,-486.4082"/>
<polygon fill="#191970" stroke="#191970" points="1290.2576,-489.8648 1300.7407,-488.3301 1291.5886,-482.9925 1290.2576,-489.8648"/>
</g>
<!-- Node97&#45;&gt;Node102 -->
<g id="edge14" class="edge">
<title>Node97&#45;&gt;Node102</title>
<path fill="none" stroke="#191970" d="M726.7608,-549.336C734.062,-545.2689 741.2187,-540.3406 747,-534.5 772.1688,-509.073 760.6133,-490.4076 783,-462.5 792.2087,-451.0203 804.3414,-440.3754 815.565,-431.7458"/>
<polygon fill="#191970" stroke="#191970" points="817.9598,-434.3272 823.9071,-425.5591 813.79,-428.7047 817.9598,-434.3272"/>
</g>
<!-- Node97&#45;&gt;Node108 -->
<g id="edge22" class="edge">
<title>Node97&#45;&gt;Node108</title>
<path fill="none" stroke="#191970" d="M705.2227,-549.4284C718.2187,-536.9133 735.8531,-518.0539 747,-498.5 772.8943,-453.0763 754.663,-430.4414 783,-386.5 791.914,-372.6773 804.9386,-360.0519 816.9149,-350.1354"/>
<polygon fill="#191970" stroke="#191970" points="819.3297,-352.6868 824.9753,-343.7215 814.971,-347.2093 819.3297,-352.6868"/>
</g>
<!-- Node110 -->
<g id="node23" class="node">
<title>Node110</title>
<g id="a_node23"><a xlink:href="classstatistics_1_1similarity_matrix.html#a0cdb3ed14678b442824e84e6385e8f84" target="_top" xlink:title="Method to get the similarity distance between two residues, A and B Characters provided must be both ...">
<polygon fill="#ffffff" stroke="#000000" points="783,-593.5 783,-623.5 911,-623.5 911,-593.5 783,-593.5"/>
<text text-anchor="start" x="791" y="-611.5" font-family="Helvetica,sans-Serif" font-size="10.00" fill="#000000">statistics::similarityMatrix</text>
<text text-anchor="middle" x="847" y="-600.5" font-family="Helvetica,sans-Serif" font-size="10.00" fill="#000000">::getDistance</text>
</a>
</g>
</g>
<!-- Node97&#45;&gt;Node110 -->
<g id="edge27" class="edge">
<title>Node97&#45;&gt;Node110</title>
<path fill="none" stroke="#191970" d="M740.3988,-578.9072C754.043,-582.6949 768.9199,-586.8248 783.1133,-590.7649"/>
<polygon fill="#191970" stroke="#191970" points="782.2348,-594.1533 792.8066,-593.4558 784.1072,-587.4084 782.2348,-594.1533"/>
</g>
<!-- Node98&#45;&gt;Node99 -->
<g id="edge11" class="edge">
<title>Node98&#45;&gt;Node99</title>
<path fill="none" stroke="#191970" d="M907.7154,-520.5C917.8896,-520.5 928.5986,-520.5 939.2147,-520.5"/>
<polygon fill="#191970" stroke="#191970" points="939.3441,-524.0001 949.3441,-520.5 939.3441,-517.0001 939.3441,-524.0001"/>
</g>
<!-- Node100 -->
<g id="node13" class="node">
<title>Node100</title>
<g id="a_node13"><a xlink:href="namespaceutils.html#aab52f9515717f06cafd6ab7fe2ebdcef" target="_top" xlink:title="Checks an alignment type. ">
<polygon fill="#ffffff" stroke="#000000" points="1133,-508 1133,-527 1265,-527 1265,-508 1133,-508"/>
<text text-anchor="middle" x="1199" y="-515" font-family="Helvetica,sans-Serif" font-size="10.00" fill="#000000">utils::checkAlignmentType</text>
</a>
</g>
</g>
<!-- Node99&#45;&gt;Node100 -->
<g id="edge12" class="edge">
<title>Node99&#45;&gt;Node100</title>
<path fill="none" stroke="#191970" d="M1094.5034,-519.2711C1103.8282,-519.1131 1113.3981,-518.9509 1122.7802,-518.7919"/>
<polygon fill="#191970" stroke="#191970" points="1122.9274,-522.29 1132.8666,-518.6209 1122.8087,-515.291 1122.9274,-522.29"/>
</g>
<!-- Node100&#45;&gt;Node101 -->
<g id="edge13" class="edge">
<title>Node100&#45;&gt;Node101</title>
<path fill="none" stroke="#191970" d="M1262.2195,-507.9831C1271.7522,-506.5481 1281.4491,-505.0883 1290.5894,-503.7123"/>
<polygon fill="#191970" stroke="#191970" points="1291.2668,-507.1499 1300.6343,-502.2002 1290.2247,-500.2279 1291.2668,-507.1499"/>
</g>
<!-- Node103 -->
<g id="node16" class="node">
<title>Node103</title>
<g id="a_node16"><a xlink:href="classstatistics_1_1_gaps.html#a2f1d71bafa5e44e5f2c96771cf2a26ed" target="_top" xlink:title="statistics::Gaps::Gaps">
<polygon fill="#ffffff" stroke="#000000" points="964.5,-379 964.5,-398 1079.5,-398 1079.5,-379 964.5,-379"/>
<text text-anchor="middle" x="1022" y="-386" font-family="Helvetica,sans-Serif" font-size="10.00" fill="#000000">statistics::Gaps::Gaps</text>
</a>
</g>
</g>
<!-- Node102&#45;&gt;Node103 -->
<g id="edge15" class="edge">
<title>Node102&#45;&gt;Node103</title>
<path fill="none" stroke="#191970" d="M898.5593,-404.0183C915.9982,-401.8259 935.7426,-399.3438 954.2443,-397.0179"/>
<polygon fill="#191970" stroke="#191970" points="954.8874,-400.4647 964.3727,-395.7446 954.0142,-393.5193 954.8874,-400.4647"/>
</g>
<!-- Node105 -->
<g id="node18" class="node">
<title>Node105</title>
<g id="a_node18"><a xlink:href="classstatistics_1_1_gaps.html#aa3526494d5100e062daa4afba755d0b1" target="_top" xlink:title="statistics::Gaps::Calculate\lVectors">
<polygon fill="#ffffff" stroke="#000000" points="955.5,-417.5 955.5,-447.5 1088.5,-447.5 1088.5,-417.5 955.5,-417.5"/>
<text text-anchor="start" x="963.5" y="-435.5" font-family="Helvetica,sans-Serif" font-size="10.00" fill="#000000">statistics::Gaps::Calculate</text>
<text text-anchor="middle" x="1022" y="-424.5" font-family="Helvetica,sans-Serif" font-size="10.00" fill="#000000">Vectors</text>
</a>
</g>
</g>
<!-- Node102&#45;&gt;Node105 -->
<g id="edge17" class="edge">
<title>Node102&#45;&gt;Node105</title>
<path fill="none" stroke="#191970" d="M898.5593,-416.9817C913.1154,-418.8116 929.2776,-420.8435 944.9828,-422.8178"/>
<polygon fill="#191970" stroke="#191970" points="944.8574,-426.3295 955.2159,-424.1043 945.7306,-419.3842 944.8574,-426.3295"/>
</g>
<!-- Node106 -->
<g id="node19" class="node">
<title>Node106</title>
<g id="a_node19"><a xlink:href="classstatistics_1_1_gaps.html#aee36b772767467cdba2061df2305e85d" target="_top" xlink:title="statistics::Gaps::applyWindow">
<polygon fill="#ffffff" stroke="#000000" points="947,-341 947,-360 1097,-360 1097,-341 947,-341"/>
<text text-anchor="middle" x="1022" y="-348" font-family="Helvetica,sans-Serif" font-size="10.00" fill="#000000">statistics::Gaps::applyWindow</text>
</a>
</g>
</g>
<!-- Node102&#45;&gt;Node106 -->
<g id="edge18" class="edge">
<title>Node102&#45;&gt;Node106</title>
<path fill="none" stroke="#191970" d="M880.3468,-395.446C899.5817,-387.1133 924.3694,-376.9645 947,-369.5 954.4444,-367.0445 962.3923,-364.7212 970.2273,-362.5973"/>
<polygon fill="#191970" stroke="#191970" points="971.2619,-365.9444 980.0448,-360.0189 969.4837,-359.174 971.2619,-365.9444"/>
</g>
<!-- Node104 -->
<g id="node17" class="node">
<title>Node104</title>
<g id="a_node17"><a xlink:href="namespaceutils.html#aac322cd1761fddedec8a5792e358eb32" target="_top" xlink:title="Vector initialization. ">
<polygon fill="#ffffff" stroke="#000000" points="1161,-360 1161,-379 1237,-379 1237,-360 1161,-360"/>
<text text-anchor="middle" x="1199" y="-367" font-family="Helvetica,sans-Serif" font-size="10.00" fill="#000000">utils::initlVect</text>
</a>
</g>
</g>
<!-- Node103&#45;&gt;Node104 -->
<g id="edge16" class="edge">
<title>Node103&#45;&gt;Node104</title>
<path fill="none" stroke="#191970" d="M1079.9564,-382.2787C1102.8473,-379.8215 1128.8455,-377.0307 1150.6939,-374.6854"/>
<polygon fill="#191970" stroke="#191970" points="1151.164,-378.1551 1160.7333,-373.6077 1150.4168,-371.1951 1151.164,-378.1551"/>
</g>
<!-- Node106&#45;&gt;Node90 -->
<g id="edge21" class="edge">
<title>Node106&#45;&gt;Node90</title>
<path fill="none" stroke="#191970" d="M1078.4135,-340.9523C1084.9966,-338.4901 1091.3638,-335.3937 1097,-331.5 1144.5408,-298.6569 1177.0268,-235.9642 1191.1043,-204.5023"/>
<polygon fill="#191970" stroke="#191970" points="1194.4059,-205.6855 1195.1678,-195.1181 1187.9823,-202.904 1194.4059,-205.6855"/>
</g>
<!-- Node106&#45;&gt;Node104 -->
<g id="edge20" class="edge">
<title>Node106&#45;&gt;Node104</title>
<path fill="none" stroke="#191970" d="M1097.0639,-358.5577C1115.3223,-360.5176 1134.3618,-362.5614 1150.9757,-364.3449"/>
<polygon fill="#191970" stroke="#191970" points="1150.6616,-367.8312 1160.9781,-365.4186 1151.4088,-360.8711 1150.6616,-367.8312"/>
</g>
<!-- Node106&#45;&gt;Node107 -->
<g id="edge19" class="edge">
<title>Node106&#45;&gt;Node107</title>
<path fill="none" stroke="#191970" d="M1084.4679,-360.1852C1089.0929,-362.6679 1093.3627,-365.7301 1097,-369.5 1149.7192,-424.1408 1098.1316,-469.0527 1133,-536.5 1142.8558,-555.5644 1159.098,-573.3765 1173.0029,-586.5149"/>
<polygon fill="#191970" stroke="#191970" points="1170.6913,-589.1438 1180.432,-593.3114 1175.4163,-583.979 1170.6913,-589.1438"/>
</g>
<!-- Node108&#45;&gt;Node106 -->
<g id="edge24" class="edge">
<title>Node108&#45;&gt;Node106</title>
<path fill="none" stroke="#191970" d="M911.1698,-336.5671C919.5133,-337.616 928.1621,-338.7032 936.7813,-339.7868"/>
<polygon fill="#191970" stroke="#191970" points="936.5074,-343.2798 946.8659,-341.0546 937.3806,-336.3345 936.5074,-343.2798"/>
</g>
<!-- Node109 -->
<g id="node22" class="node">
<title>Node109</title>
<g id="a_node22"><a xlink:href="classstatistics_1_1_gaps.html#ad812a924cf5e3f900aad3ed4a9664300" target="_top" xlink:title="statistics::Gaps::isDefined\lWindow">
<polygon fill="#ffffff" stroke="#000000" points="955.5,-291.5 955.5,-321.5 1088.5,-321.5 1088.5,-291.5 955.5,-291.5"/>
<text text-anchor="start" x="963.5" y="-309.5" font-family="Helvetica,sans-Serif" font-size="10.00" fill="#000000">statistics::Gaps::isDefined</text>
<text text-anchor="middle" x="1022" y="-298.5" font-family="Helvetica,sans-Serif" font-size="10.00" fill="#000000">Window</text>
</a>
</g>
</g>
<!-- Node108&#45;&gt;Node109 -->
<g id="edge23" class="edge">
<title>Node108&#45;&gt;Node109</title>
<path fill="none" stroke="#191970" d="M911.1698,-320.4329C922.3361,-319.0292 934.0492,-317.5567 945.5065,-316.1163"/>
<polygon fill="#191970" stroke="#191970" points="946.0037,-319.5815 955.4891,-314.8614 945.1306,-312.6361 946.0037,-319.5815"/>
</g>
<!-- Node110&#45;&gt;Node107 -->
<g id="edge28" class="edge">
<title>Node110&#45;&gt;Node107</title>
<path fill="none" stroke="#191970" d="M911.1529,-608.5C972.2953,-608.5 1064.1878,-608.5 1127.6198,-608.5"/>
<polygon fill="#191970" stroke="#191970" points="1127.9388,-612.0001 1137.9387,-608.5 1127.9387,-605.0001 1127.9388,-612.0001"/>
</g>
<!-- Node111&#45;&gt;Node111 -->
<g id="edge32" class="edge">
<title>Node111&#45;&gt;Node111</title>
<path fill="none" stroke="#191970" d="M333.4898,-309.2571C320.593,-318.0653 329.4297,-327.5 360,-327.5 380.5394,-327.5 391.268,-323.241 392.1856,-317.7746"/>
<polygon fill="#191970" stroke="#191970" points="394.9679,-315.6381 386.5102,-309.2571 389.1426,-319.5197 394.9679,-315.6381"/>
</g>
<!-- Node112 -->
<g id="node25" class="node">
<title>Node112</title>
<g id="a_node25"><a xlink:href="namespaceutils.html#a3377ecde55631d1bbc4956e5923b7469" target="_top" xlink:title="Swapping elements method. ">
<polygon fill="#ffffff" stroke="#000000" points="501,-290 501,-309 565,-309 565,-290 501,-290"/>
<text text-anchor="middle" x="533" y="-297" font-family="Helvetica,sans-Serif" font-size="10.00" fill="#000000">utils::swap</text>
</a>
</g>
</g>
<!-- Node111&#45;&gt;Node112 -->
<g id="edge31" class="edge">
<title>Node111&#45;&gt;Node112</title>
<path fill="none" stroke="#191970" d="M400.1245,-299.5C427.2968,-299.5 463.1373,-299.5 490.7472,-299.5"/>
<polygon fill="#191970" stroke="#191970" points="490.8908,-303.0001 500.8907,-299.5 490.8907,-296.0001 490.8908,-303.0001"/>
</g>
<!-- Node113&#45;&gt;Node95 -->
<g id="edge41" class="edge">
<title>Node113&#45;&gt;Node95</title>
<path fill="none" stroke="#191970" d="M423.1537,-494.5179C427.8718,-497.299 432.2459,-500.5946 436,-504.5 476.3612,-546.4878 432.8526,-587.3783 472,-630.5 472.8821,-631.4716 473.8085,-632.4044 474.7734,-633.2999"/>
<polygon fill="#191970" stroke="#191970" points="472.7594,-636.1659 482.8293,-639.4598 477.0114,-630.6052 472.7594,-636.1659"/>
</g>
<!-- Node113&#45;&gt;Node96 -->
<g id="edge38" class="edge">
<title>Node113&#45;&gt;Node96</title>
<path fill="none" stroke="#191970" d="M420.878,-494.5386C426.3163,-497.3187 431.4692,-500.6083 436,-504.5 462.8387,-527.553 446.8304,-550.6355 472,-575.5 475.6325,-579.0885 479.7795,-582.3209 484.1634,-585.2151"/>
<polygon fill="#191970" stroke="#191970" points="482.4305,-588.2567 492.8128,-590.3687 486.0136,-582.2433 482.4305,-588.2567"/>
</g>
<!-- Node113&#45;&gt;Node97 -->
<g id="edge40" class="edge">
<title>Node113&#45;&gt;Node97</title>
<path fill="none" stroke="#191970" d="M415.193,-494.5512C422.4047,-497.405 429.528,-500.709 436,-504.5 454.7287,-515.4703 452.2981,-528.3925 472,-537.5 520.6436,-559.9864 581.6459,-565.8649 626.4897,-566.6244"/>
<polygon fill="#191970" stroke="#191970" points="626.6308,-570.1257 636.6614,-566.7142 626.6927,-563.126 626.6308,-570.1257"/>
</g>
<!-- Node113&#45;&gt;Node102 -->
<g id="edge34" class="edge">
<title>Node113&#45;&gt;Node102</title>
<path fill="none" stroke="#191970" d="M406.481,-494.5811C481.6517,-516.2385 632.9817,-548.3676 747,-498.5 767.7313,-489.4329 766.197,-477.6545 783,-462.5 794.549,-452.0841 807.821,-441.1444 819.274,-432.0011"/>
<polygon fill="#191970" stroke="#191970" points="821.5731,-434.6451 827.2414,-425.694 817.2283,-429.1566 821.5731,-434.6451"/>
</g>
<!-- Node114 -->
<g id="node27" class="node">
<title>Node114</title>
<g id="a_node27"><a xlink:href="classstatistics_1_1_similarity.html#ada0548f0ac960fbbb3a3192f83c42189" target="_top" xlink:title="Constructor without any parameters. ">
<polygon fill="#ffffff" stroke="#000000" points="481.5,-464.5 481.5,-494.5 584.5,-494.5 584.5,-464.5 481.5,-464.5"/>
<text text-anchor="start" x="489.5" y="-482.5" font-family="Helvetica,sans-Serif" font-size="10.00" fill="#000000">statistics::Similarity</text>
<text text-anchor="middle" x="533" y="-471.5" font-family="Helvetica,sans-Serif" font-size="10.00" fill="#000000">::Similarity</text>
</a>
</g>
</g>
<!-- Node113&#45;&gt;Node114 -->
<g id="edge35" class="edge">
<title>Node113&#45;&gt;Node114</title>
<path fill="none" stroke="#191970" d="M431.6145,-479.5C444.7438,-479.5 458.3448,-479.5 471.1581,-479.5"/>
<polygon fill="#191970" stroke="#191970" points="471.2413,-483.0001 481.2412,-479.5 471.2412,-476.0001 471.2413,-483.0001"/>
</g>
<!-- Node116 -->
<g id="node29" class="node">
<title>Node116</title>
<g id="a_node29"><a xlink:href="classstatistics_1_1_similarity.html#a95126bfd6b0ed22c828a6ab780096a12" target="_top" xlink:title="Stores a valid similarity matrix point to use. ">
<polygon fill="#ffffff" stroke="#000000" points="481,-415.5 481,-445.5 585,-445.5 585,-415.5 481,-415.5"/>
<text text-anchor="start" x="489" y="-433.5" font-family="Helvetica,sans-Serif" font-size="10.00" fill="#000000">statistics::Similarity</text>
<text text-anchor="middle" x="533" y="-422.5" font-family="Helvetica,sans-Serif" font-size="10.00" fill="#000000">::setSimilarityMatrix</text>
</a>
</g>
</g>
<!-- Node113&#45;&gt;Node116 -->
<g id="edge37" class="edge">
<title>Node113&#45;&gt;Node116</title>
<path fill="none" stroke="#191970" d="M413.3173,-464.3986C431.5787,-459.2263 452.1657,-453.3953 471.0506,-448.0464"/>
<polygon fill="#191970" stroke="#191970" points="472.0819,-451.392 480.7496,-445.2992 470.1743,-444.6569 472.0819,-451.392"/>
</g>
<!-- Node117 -->
<g id="node30" class="node">
<title>Node117</title>
<g id="a_node30"><a xlink:href="classstatistics_1_1_similarity.html#a88b1061ad8e64c1a63a4aa00db7424e3" target="_top" xlink:title="Returns if a similarity matrix is being used or not. ">
<polygon fill="#ffffff" stroke="#000000" points="481.5,-366.5 481.5,-396.5 584.5,-396.5 584.5,-366.5 481.5,-366.5"/>
<text text-anchor="start" x="489.5" y="-384.5" font-family="Helvetica,sans-Serif" font-size="10.00" fill="#000000">statistics::Similarity</text>
<text text-anchor="middle" x="533" y="-373.5" font-family="Helvetica,sans-Serif" font-size="10.00" fill="#000000">::isSimMatrixDef</text>
</a>
</g>
</g>
<!-- Node113&#45;&gt;Node117 -->
<g id="edge39" class="edge">
<title>Node113&#45;&gt;Node117</title>
<path fill="none" stroke="#191970" d="M380.7455,-464.2683C402.6992,-448.5645 438.7061,-423.9728 472,-406.5 475.7624,-404.5255 479.7164,-402.5979 483.7273,-400.7451"/>
<polygon fill="#191970" stroke="#191970" points="485.4075,-403.8287 493.1261,-396.571 482.5663,-397.4312 485.4075,-403.8287"/>
</g>
<!-- Node115 -->
<g id="node28" class="node">
<title>Node115</title>
<g id="a_node28"><a xlink:href="namespaceutils.html#a54839bee4863694819d990565e1e92cd" target="_top" xlink:title="Vector initialization. ">
<polygon fill="#ffffff" stroke="#000000" points="650.5,-470 650.5,-489 726.5,-489 726.5,-470 650.5,-470"/>
<text text-anchor="middle" x="688.5" y="-477" font-family="Helvetica,sans-Serif" font-size="10.00" fill="#000000">utils::initlVect</text>
</a>
</g>
</g>
<!-- Node114&#45;&gt;Node115 -->
<g id="edge36" class="edge">
<title>Node114&#45;&gt;Node115</title>
<path fill="none" stroke="#191970" d="M584.7792,-479.5C602.6521,-479.5 622.5936,-479.5 640.1788,-479.5"/>
<polygon fill="#191970" stroke="#191970" points="640.227,-483.0001 650.227,-479.5 640.227,-476.0001 640.227,-483.0001"/>
</g>
<!-- Node118&#45;&gt;Node90 -->
<g id="edge50" class="edge">
<title>Node118&#45;&gt;Node90</title>
<path fill="none" stroke="#191970" d="M248.2527,-134.2264C318.7801,-139.8208 433.679,-147.5 533,-147.5 533,-147.5 533,-147.5 847,-147.5 956.1832,-147.5 1083.3215,-165.7954 1150.9306,-176.9969"/>
<polygon fill="#191970" stroke="#191970" points="1150.4204,-180.4602 1160.8616,-178.6625 1151.5783,-173.5566 1150.4204,-180.4602"/>
</g>
<!-- Node118&#45;&gt;Node111 -->
<g id="edge51" class="edge">
<title>Node118&#45;&gt;Node111</title>
<path fill="none" stroke="#191970" d="M198.734,-143.5771C212.5343,-156.3333 232.3199,-175.3799 248,-193.5 265.683,-213.9348 264.986,-223.2974 284,-242.5 299.8123,-258.4691 320.3228,-273.5868 336.0506,-284.2355"/>
<polygon fill="#191970" stroke="#191970" points="334.418,-287.3524 344.6866,-289.9615 338.2862,-281.5183 334.418,-287.3524"/>
</g>
<!-- Node119 -->
<g id="node32" class="node">
<title>Node119</title>
<g id="a_node32"><a xlink:href="class_alignment.html#aeeee94970a445f32aa79646c249befef" target="_top" xlink:title="Copy Constructor. &#160;&#160;The copy constructor does not make a copy of all structures present on the origin...">
<polygon fill="#ffffff" stroke="#000000" points="305,-100 305,-119 415,-119 415,-100 305,-100"/>
<text text-anchor="middle" x="360" y="-107" font-family="Helvetica,sans-Serif" font-size="10.00" fill="#000000">Alignment::Alignment</text>
</a>
</g>
</g>
<!-- Node118&#45;&gt;Node119 -->
<g id="edge44" class="edge">
<title>Node118&#45;&gt;Node119</title>
<path fill="none" stroke="#191970" d="M248.0277,-121.4521C263.2211,-119.8303 279.3732,-118.1062 294.5423,-116.4871"/>
<polygon fill="#191970" stroke="#191970" points="295.2911,-119.9271 304.8631,-115.3854 294.548,-112.9666 295.2911,-119.9271"/>
</g>
<!-- Node125 -->
<g id="node38" class="node">
<title>Node125</title>
<g id="a_node38"><a xlink:href="class_cleaner.html#a5620f6a511bc0ac844c71b2de3ae1fdb" target="_top" xlink:title="Method to remove blocks of columns with no rejected residue smaller than a given size. ">
<polygon fill="#ffffff" stroke="#000000" points="284,-62 284,-81 436,-81 436,-62 284,-62"/>
<text text-anchor="middle" x="360" y="-69" font-family="Helvetica,sans-Serif" font-size="10.00" fill="#000000">Cleaner::removeSmallerBlocks</text>
</a>
</g>
</g>
<!-- Node118&#45;&gt;Node125 -->
<g id="edge52" class="edge">
<title>Node118&#45;&gt;Node125</title>
<path fill="none" stroke="#191970" d="M219.4371,-113.4097C238.5756,-105.9883 262.3414,-97.2188 284,-90.5 291.8497,-88.0649 300.2284,-85.7207 308.4488,-83.5603"/>
<polygon fill="#191970" stroke="#191970" points="309.5334,-86.8955 318.3513,-81.0223 307.7954,-80.1147 309.5334,-86.8955"/>
</g>
<!-- Node126 -->
<g id="node39" class="node">
<title>Node126</title>
<g id="a_node39"><a xlink:href="class_cleaner.html#ada8ad076dd037f00ae3f4fd17762641f" target="_top" xlink:title="Method that identifies and removes columns and sequences composed only by gaps. ">
<polygon fill="#ffffff" stroke="#000000" points="287,-7.5 287,-37.5 433,-37.5 433,-7.5 287,-7.5"/>
<text text-anchor="start" x="295" y="-25.5" font-family="Helvetica,sans-Serif" font-size="10.00" fill="#000000">Cleaner::removeAllGapsSeqs</text>
<text text-anchor="middle" x="360" y="-14.5" font-family="Helvetica,sans-Serif" font-size="10.00" fill="#000000">AndCols</text>
</a>
</g>
</g>
<!-- Node118&#45;&gt;Node126 -->
<g id="edge53" class="edge">
<title>Node118&#45;&gt;Node126</title>
<path fill="none" stroke="#191970" d="M199.4354,-113.2384C218.9955,-96.6765 252.1665,-70.2295 284,-52.5 291.1365,-48.5254 298.908,-44.8209 306.6677,-41.4661"/>
<polygon fill="#191970" stroke="#191970" points="308.1925,-44.6227 316.0834,-37.5528 305.5059,-38.1587 308.1925,-44.6227"/>
</g>
<!-- Node120 -->
<g id="node33" class="node">
<title>Node120</title>
<g id="a_node33"><a xlink:href="class_cleaner.html#afe42cb635ddd6bd968ae57e378deaac8" target="_top" xlink:title="Copy Constructor &#45; Called by Alignment. ">
<polygon fill="#ffffff" stroke="#000000" points="488,-100 488,-119 578,-119 578,-100 488,-100"/>
<text text-anchor="middle" x="533" y="-107" font-family="Helvetica,sans-Serif" font-size="10.00" fill="#000000">Cleaner::Cleaner</text>
</a>
</g>
</g>
<!-- Node119&#45;&gt;Node120 -->
<g id="edge45" class="edge">
<title>Node119&#45;&gt;Node120</title>
<path fill="none" stroke="#191970" d="M415.2139,-109.5C435.1711,-109.5 457.6962,-109.5 477.6639,-109.5"/>
<polygon fill="#191970" stroke="#191970" points="477.8455,-113.0001 487.8455,-109.5 477.8454,-106.0001 477.8455,-113.0001"/>
</g>
<!-- Node121 -->
<g id="node34" class="node">
<title>Node121</title>
<g id="a_node34"><a xlink:href="classstatistics_1_1_manager.html#aee28602da015edb0880d59ce4c0f855d" target="_top" xlink:title="statistics::Manager\l::Manager">
<polygon fill="#ffffff" stroke="#000000" points="483,-50.5 483,-80.5 583,-80.5 583,-50.5 483,-50.5"/>
<text text-anchor="start" x="491" y="-68.5" font-family="Helvetica,sans-Serif" font-size="10.00" fill="#000000">statistics::Manager</text>
<text text-anchor="middle" x="533" y="-57.5" font-family="Helvetica,sans-Serif" font-size="10.00" fill="#000000">::Manager</text>
</a>
</g>
</g>
<!-- Node119&#45;&gt;Node121 -->
<g id="edge46" class="edge">
<title>Node119&#45;&gt;Node121</title>
<path fill="none" stroke="#191970" d="M398.287,-99.9859C410.3582,-96.9708 423.7404,-93.6123 436,-90.5 447.8518,-87.4913 460.5107,-84.2494 472.6391,-81.1293"/>
<polygon fill="#191970" stroke="#191970" points="473.862,-84.4287 482.6729,-78.5449 472.116,-77.6499 473.862,-84.4287"/>
</g>
<!-- Node122 -->
<g id="node35" class="node">
<title>Node122</title>
<g id="a_node35"><a xlink:href="classstatistics_1_1_similarity.html#afecab92459785c7568511217969f6cde" target="_top" xlink:title="statistics::Similarity\l::Similarity">
<polygon fill="#ffffff" stroke="#000000" points="637,-.5 637,-30.5 740,-30.5 740,-.5 637,-.5"/>
<text text-anchor="start" x="645" y="-18.5" font-family="Helvetica,sans-Serif" font-size="10.00" fill="#000000">statistics::Similarity</text>
<text text-anchor="middle" x="688.5" y="-7.5" font-family="Helvetica,sans-Serif" font-size="10.00" fill="#000000">::Similarity</text>
</a>
</g>
</g>
<!-- Node121&#45;&gt;Node122 -->
<g id="edge47" class="edge">
<title>Node121&#45;&gt;Node122</title>
<path fill="none" stroke="#191970" d="M579.6551,-50.4984C596.0326,-45.2323 614.6139,-39.2576 631.7292,-33.7543"/>
<polygon fill="#191970" stroke="#191970" points="633.1607,-36.9705 641.6093,-30.5774 631.0179,-30.3066 633.1607,-36.9705"/>
</g>
<!-- Node123 -->
<g id="node36" class="node">
<title>Node123</title>
<g id="a_node36"><a xlink:href="classstatistics_1_1_consistency.html#ae39d2aae825d263ac8c3198782b824d2" target="_top" xlink:title="Copy constructor. ">
<polygon fill="#ffffff" stroke="#000000" points="630,-88.5 630,-118.5 747,-118.5 747,-88.5 630,-88.5"/>
<text text-anchor="start" x="638" y="-106.5" font-family="Helvetica,sans-Serif" font-size="10.00" fill="#000000">statistics::Consistency</text>
<text text-anchor="middle" x="688.5" y="-95.5" font-family="Helvetica,sans-Serif" font-size="10.00" fill="#000000">::Consistency</text>
</a>
</g>
</g>
<!-- Node121&#45;&gt;Node123 -->
<g id="edge48" class="edge">
<title>Node121&#45;&gt;Node123</title>
<path fill="none" stroke="#191970" d="M583.0571,-77.7326C594.8266,-80.6088 607.5699,-83.7229 619.9939,-86.759"/>
<polygon fill="#191970" stroke="#191970" points="619.3194,-90.1971 629.8645,-89.1711 620.9812,-83.3972 619.3194,-90.1971"/>
</g>
<!-- Node124 -->
<g id="node37" class="node">
<title>Node124</title>
<g id="a_node37"><a xlink:href="classstatistics_1_1_gaps.html#a0233d71123523698b0bbf6fe6119b630" target="_top" xlink:title="statistics::Gaps::Gaps">
<polygon fill="#ffffff" stroke="#000000" points="631,-50 631,-69 746,-69 746,-50 631,-50"/>
<text text-anchor="middle" x="688.5" y="-57" font-family="Helvetica,sans-Serif" font-size="10.00" fill="#000000">statistics::Gaps::Gaps</text>
</a>
</g>
</g>
<!-- Node121&#45;&gt;Node124 -->
<g id="edge49" class="edge">
<title>Node121&#45;&gt;Node124</title>
<path fill="none" stroke="#191970" d="M583.0571,-63.5685C595.1068,-63.1036 608.1773,-62.5993 620.8808,-62.1091"/>
<polygon fill="#191970" stroke="#191970" points="621.1059,-65.6031 630.9634,-61.7201 620.8359,-58.6083 621.1059,-65.6031"/>
</g>
<!-- Node127 -->
<g id="node40" class="node">
<title>Node127</title>
<g id="a_node40"><a xlink:href="classreporting_1_1report_manager.html#a75a240a78f31ba479892a9a0f53996fa" target="_top" xlink:title="Method to report a Warning. &#160;It will be displayed if Level &#160;is equal or higher to VerboseLevel::WARNI...">
<polygon fill="#ffffff" stroke="#000000" points="472,-1.5 472,-31.5 594,-31.5 594,-1.5 472,-1.5"/>
<text text-anchor="start" x="480" y="-19.5" font-family="Helvetica,sans-Serif" font-size="10.00" fill="#000000">reporting::reportManager</text>
<text text-anchor="middle" x="533" y="-8.5" font-family="Helvetica,sans-Serif" font-size="10.00" fill="#000000">::report</text>
</a>
</g>
</g>
<!-- Node126&#45;&gt;Node127 -->
<g id="edge54" class="edge">
<title>Node126&#45;&gt;Node127</title>
<path fill="none" stroke="#191970" d="M433.1168,-19.9642C442.598,-19.6353 452.299,-19.2989 461.7492,-18.9711"/>
<polygon fill="#191970" stroke="#191970" points="462.0104,-22.4643 471.8831,-18.6197 461.7677,-15.4685 462.0104,-22.4643"/>
</g>
</g>
</svg>
