<?xml version="1.0" encoding="UTF-8" standalone="no"?>
<!DOCTYPE svg PUBLIC "-//W3C//DTD SVG 1.1//EN"
 "http://www.w3.org/Graphics/SVG/1.1/DTD/svg11.dtd">
<!-- Generated by graphviz version 2.40.1 (20161225.0304)
 -->
<!-- Title: statistics::Manager::Manager Pages: 1 -->
<svg width="1414pt" height="458pt"
 viewBox="0.00 0.00 1414.00 457.50" xmlns="http://www.w3.org/2000/svg" xmlns:xlink="http://www.w3.org/1999/xlink">
<g id="graph0" class="graph" transform="scale(1 1) rotate(0) translate(4 453.5)">
<title>statistics::Manager::Manager</title>
<polygon fill="#ffffff" stroke="transparent" points="-4,4 -4,-453.5 1410,-453.5 1410,4 -4,4"/>
<!-- Node13 -->
<g id="node1" class="node">
<title>Node13</title>
<polygon fill="#bfbfbf" stroke="#000000" points="0,-158.5 0,-188.5 100,-188.5 100,-158.5 0,-158.5"/>
<text text-anchor="start" x="8" y="-176.5" font-family="Helvetica,sans-Serif" font-size="10.00" fill="#000000">statistics::Manager</text>
<text text-anchor="middle" x="50" y="-165.5" font-family="Helvetica,sans-Serif" font-size="10.00" fill="#000000">::Manager</text>
</g>
<!-- Node14 -->
<g id="node2" class="node">
<title>Node14</title>
<g id="a_node2"><a xlink:href="class_alignment.html#aeeee94970a445f32aa79646c249befef" target="_top" xlink:title="Copy Constructor. &#160;&#160;The copy constructor does not make a copy of all structures present on the origin...">
<polygon fill="#ffffff" stroke="#000000" points="136,-164 136,-183 246,-183 246,-164 136,-164"/>
<text text-anchor="middle" x="191" y="-171" font-family="Helvetica,sans-Serif" font-size="10.00" fill="#000000">Alignment::Alignment</text>
</a>
</g>
</g>
<!-- Node13&#45;&gt;Node14 -->
<g id="edge1" class="edge">
<title>Node13&#45;&gt;Node14</title>
<path fill="none" stroke="#191970" d="M110.2969,-173.5C118.7588,-173.5 127.421,-173.5 135.782,-173.5"/>
<polygon fill="#191970" stroke="#191970" points="110.1084,-170.0001 100.1083,-173.5 110.1083,-177.0001 110.1084,-170.0001"/>
</g>
<!-- Node15 -->
<g id="node3" class="node">
<title>Node15</title>
<g id="a_node3"><a xlink:href="class_cleaner.html#a0e1e26d09055de52208ac74adf93b760" target="_top" xlink:title="Method to clean an alignment. &#160;It removes sequences that fall behind a certain threshold. &#160;The function detects if it would clean too many sequences, and relaxes the threshold until we have enough sequences to achieve the given percentage desired to keep. &#160;To achieve this, the method starts in the middle of the sequence and, alternating sides, adds column one by one. ">
<polygon fill="#ffffff" stroke="#000000" points="284.5,-386.5 284.5,-416.5 416.5,-416.5 416.5,-386.5 284.5,-386.5"/>
<text text-anchor="start" x="292.5" y="-404.5" font-family="Helvetica,sans-Serif" font-size="10.00" fill="#000000">Cleaner::cleanByCutValue</text>
<text text-anchor="middle" x="350.5" y="-393.5" font-family="Helvetica,sans-Serif" font-size="10.00" fill="#000000">FallBehind</text>
</a>
</g>
</g>
<!-- Node14&#45;&gt;Node15 -->
<g id="edge2" class="edge">
<title>Node14&#45;&gt;Node15</title>
<path fill="none" stroke="#191970" d="M195.2697,-192.8941C204.6368,-231.2974 230.3911,-317.7694 282,-369.5 288.8602,-376.3764 297.478,-381.9512 306.2641,-386.4023"/>
<polygon fill="#191970" stroke="#191970" points="198.6438,-191.9511 192.9657,-183.0063 191.8265,-193.5397 198.6438,-191.9511"/>
</g>
<!-- Node23 -->
<g id="node11" class="node">
<title>Node23</title>
<g id="a_node11"><a xlink:href="class_cleaner.html#a13ae2074afb38708bc5cee9489d8ab6f" target="_top" xlink:title="Method to clean an alignment. &#160;It removes sequences that overpass or equals a certain threshold...">
<polygon fill="#ffffff" stroke="#000000" points="284.5,-218.5 284.5,-248.5 416.5,-248.5 416.5,-218.5 284.5,-218.5"/>
<text text-anchor="start" x="292.5" y="-236.5" font-family="Helvetica,sans-Serif" font-size="10.00" fill="#000000">Cleaner::cleanByCutValue</text>
<text text-anchor="middle" x="350.5" y="-225.5" font-family="Helvetica,sans-Serif" font-size="10.00" fill="#000000">Overpass</text>
</a>
</g>
</g>
<!-- Node14&#45;&gt;Node23 -->
<g id="edge11" class="edge">
<title>Node14&#45;&gt;Node23</title>
<path fill="none" stroke="#191970" d="M225.7061,-186.5556C250.6503,-195.939 284.3426,-208.6132 310.4316,-218.4272"/>
<polygon fill="#191970" stroke="#191970" points="226.8653,-183.2522 216.2732,-183.0072 224.4006,-189.804 226.8653,-183.2522"/>
</g>
<!-- Node29 -->
<g id="node17" class="node">
<title>Node29</title>
<g id="a_node17"><a xlink:href="class_cleaner.html#a5afcae6b995a229b59785e4690b25a0f" target="_top" xlink:title="Method to clean an alignment. &#160;It removes sequences that overpass or equals &#160;the gap threshold but &#160;f...">
<polygon fill="#ffffff" stroke="#000000" points="284.5,-329.5 284.5,-359.5 416.5,-359.5 416.5,-329.5 284.5,-329.5"/>
<text text-anchor="start" x="292.5" y="-347.5" font-family="Helvetica,sans-Serif" font-size="10.00" fill="#000000">Cleaner::cleanByCutValue</text>
<text text-anchor="middle" x="350.5" y="-336.5" font-family="Helvetica,sans-Serif" font-size="10.00" fill="#000000">OverpassOrEquals</text>
</a>
</g>
</g>
<!-- Node14&#45;&gt;Node29 -->
<g id="edge22" class="edge">
<title>Node14&#45;&gt;Node29</title>
<path fill="none" stroke="#191970" d="M200.4268,-191.9746C215.011,-219.1946 245.2342,-270.5162 282,-304.5 292.6186,-314.3152 306.0503,-322.8079 318.2011,-329.4119"/>
<polygon fill="#191970" stroke="#191970" points="203.5232,-190.3428 195.7782,-183.1133 197.3244,-193.5947 203.5232,-190.3428"/>
</g>
<!-- Node31 -->
<g id="node19" class="node">
<title>Node31</title>
<g id="a_node19"><a xlink:href="class_cleaner.html#abe5d03c820a6bee7935b719b9fc7be60" target="_top" xlink:title="Method to trim an alignment based on a minimum sequence overlap threshold. &#160;The method selects a comb...">
<polygon fill="#ffffff" stroke="#000000" points="285,-126 285,-145 416,-145 416,-126 285,-126"/>
<text text-anchor="middle" x="350.5" y="-133" font-family="Helvetica,sans-Serif" font-size="10.00" fill="#000000">Cleaner::cleanOverlapSeq</text>
</a>
</g>
</g>
<!-- Node14&#45;&gt;Node31 -->
<g id="edge25" class="edge">
<title>Node14&#45;&gt;Node31</title>
<path fill="none" stroke="#191970" d="M241.234,-161.532C263.5855,-156.2069 289.5383,-150.0238 310.5408,-145.0201"/>
<polygon fill="#191970" stroke="#191970" points="240.1651,-158.1886 231.2486,-163.911 241.7875,-164.998 240.1651,-158.1886"/>
</g>
<!-- Node33 -->
<g id="node21" class="node">
<title>Node33</title>
<g id="a_node21"><a xlink:href="class_cleaner.html#afcc9a3a0759ebdaaa6fa07c0d1702a99" target="_top" xlink:title="Method to clean an alignment. It carries out strict and strictplus. It removes sequences that overpas...">
<polygon fill="#ffffff" stroke="#000000" points="299,-164 299,-183 402,-183 402,-164 299,-164"/>
<text text-anchor="middle" x="350.5" y="-171" font-family="Helvetica,sans-Serif" font-size="10.00" fill="#000000">Cleaner::cleanStrict</text>
</a>
</g>
</g>
<!-- Node14&#45;&gt;Node33 -->
<g id="edge28" class="edge">
<title>Node14&#45;&gt;Node33</title>
<path fill="none" stroke="#191970" d="M256.4631,-173.5C270.554,-173.5 285.26,-173.5 298.7433,-173.5"/>
<polygon fill="#191970" stroke="#191970" points="256.3378,-170.0001 246.3377,-173.5 256.3377,-177.0001 256.3378,-170.0001"/>
</g>
<!-- Node35 -->
<g id="node23" class="node">
<title>Node35</title>
<g id="a_node23"><a xlink:href="class_cleaner.html#a4fd1d8eb883d1a7b271d6d4e1b1df71b" target="_top" xlink:title="Method to select the most representative sequence (the longest one) for each cluster from the input a...">
<polygon fill="#ffffff" stroke="#000000" points="293.5,-88 293.5,-107 407.5,-107 407.5,-88 293.5,-88"/>
<text text-anchor="middle" x="350.5" y="-95" font-family="Helvetica,sans-Serif" font-size="10.00" fill="#000000">Cleaner::getClustering</text>
</a>
</g>
</g>
<!-- Node14&#45;&gt;Node35 -->
<g id="edge31" class="edge">
<title>Node14&#45;&gt;Node35</title>
<path fill="none" stroke="#191970" d="M212.0734,-157.8272C229.9166,-145.1784 256.5781,-127.703 282,-116.5 290.3571,-112.8172 299.6064,-109.6759 308.5338,-107.0708"/>
<polygon fill="#191970" stroke="#191970" points="209.66,-155.2526 203.5996,-163.943 213.7567,-160.9287 209.66,-155.2526"/>
</g>
<!-- Node36 -->
<g id="node24" class="node">
<title>Node36</title>
<g id="a_node24"><a xlink:href="classstatistics_1_1_consistency.html#a8f7ddf54c5be583916b983ede82d5b88" target="_top" xlink:title="Method to compare a set of MSA, all containing the same sequences and residues. The number of residue...">
<polygon fill="#ffffff" stroke="#000000" points="468,-.5 468,-30.5 585,-30.5 585,-.5 468,-.5"/>
<text text-anchor="start" x="476" y="-18.5" font-family="Helvetica,sans-Serif" font-size="10.00" fill="#000000">statistics::Consistency</text>
<text text-anchor="middle" x="526.5" y="-7.5" font-family="Helvetica,sans-Serif" font-size="10.00" fill="#000000">::perform</text>
</a>
</g>
</g>
<!-- Node14&#45;&gt;Node36 -->
<g id="edge33" class="edge">
<title>Node14&#45;&gt;Node36</title>
<path fill="none" stroke="#191970" d="M197.9743,-154.2745C209.99,-124.2279 237.6624,-66.856 282,-40.5 338.4845,-6.9234 415.4901,-4.6967 467.8869,-8.2527"/>
<polygon fill="#191970" stroke="#191970" points="194.5579,-153.4094 194.2539,-163.9999 201.0958,-155.9105 194.5579,-153.4094"/>
</g>
<!-- Node39 -->
<g id="node27" class="node">
<title>Node39</title>
<g id="a_node27"><a xlink:href="class_cleaner.html#ac8e92eb8ae8a5caf021801e56cdb9faf" target="_top" xlink:title="Method to remove columns, expressed as ranges. ">
<polygon fill="#ffffff" stroke="#000000" points="286.5,-276 286.5,-295 414.5,-295 414.5,-276 286.5,-276"/>
<text text-anchor="middle" x="350.5" y="-283" font-family="Helvetica,sans-Serif" font-size="10.00" fill="#000000">Cleaner::removeColumns</text>
</a>
</g>
</g>
<!-- Node14&#45;&gt;Node39 -->
<g id="edge37" class="edge">
<title>Node14&#45;&gt;Node39</title>
<path fill="none" stroke="#191970" d="M205.7336,-190.691C222.5774,-209.4622 251.7495,-239.3912 282,-258.5 293.3476,-265.6681 306.9102,-271.4983 318.9619,-275.8822"/>
<polygon fill="#191970" stroke="#191970" points="208.3382,-188.3528 199.1022,-183.1618 203.0852,-192.9795 208.3382,-188.3528"/>
</g>
<!-- Node40 -->
<g id="node28" class="node">
<title>Node40</title>
<g id="a_node28"><a xlink:href="class_cleaner.html#a932af26c56652410dc2a30c553376c0b" target="_top" xlink:title="Method to remove sequences, expressed as ranges. ">
<polygon fill="#ffffff" stroke="#000000" points="282,-50 282,-69 419,-69 419,-50 282,-50"/>
<text text-anchor="middle" x="350.5" y="-57" font-family="Helvetica,sans-Serif" font-size="10.00" fill="#000000">Cleaner::removeSequences</text>
</a>
</g>
</g>
<!-- Node14&#45;&gt;Node40 -->
<g id="edge39" class="edge">
<title>Node14&#45;&gt;Node40</title>
<path fill="none" stroke="#191970" d="M203.4517,-155.5206C219.2649,-134.0368 248.5507,-98.493 282,-78.5 288.4619,-74.6376 295.7336,-71.5371 303.0623,-69.0548"/>
<polygon fill="#191970" stroke="#191970" points="200.5113,-153.615 197.5266,-163.7808 206.1993,-157.6951 200.5113,-153.615"/>
</g>
<!-- Node16 -->
<g id="node4" class="node">
<title>Node16</title>
<g id="a_node4"><a xlink:href="class_cleaner.html#a385f785ecf54bd5e0b07e61325483973" target="_top" xlink:title="Method to trim an alignment based on consistency values obtained from a dataset of alignments...">
<polygon fill="#ffffff" stroke="#000000" points="459,-430 459,-449 594,-449 594,-430 459,-430"/>
<text text-anchor="middle" x="526.5" y="-437" font-family="Helvetica,sans-Serif" font-size="10.00" fill="#000000">Cleaner::cleanCompareFile</text>
</a>
</g>
</g>
<!-- Node15&#45;&gt;Node16 -->
<g id="edge3" class="edge">
<title>Node15&#45;&gt;Node16</title>
<path fill="none" stroke="#191970" d="M426.419,-417.8916C445.4885,-422.0089 465.3294,-426.2927 482.2679,-429.9499"/>
<polygon fill="#191970" stroke="#191970" points="427.0501,-414.4473 416.5366,-415.7579 425.5727,-421.2896 427.0501,-414.4473"/>
</g>
<!-- Node22 -->
<g id="node10" class="node">
<title>Node22</title>
<g id="a_node10"><a xlink:href="class_cleaner.html#a9cdbd6ebf78a284dd065b31319795b0c" target="_top" xlink:title="Method to trim an alignment based on the similarity distribution values. ">
<polygon fill="#ffffff" stroke="#000000" points="458,-392 458,-411 595,-411 595,-392 458,-392"/>
<text text-anchor="middle" x="526.5" y="-399" font-family="Helvetica,sans-Serif" font-size="10.00" fill="#000000">Cleaner::cleanConservation</text>
</a>
</g>
</g>
<!-- Node15&#45;&gt;Node22 -->
<g id="edge9" class="edge">
<title>Node15&#45;&gt;Node22</title>
<path fill="none" stroke="#191970" d="M426.748,-401.5C437.0537,-401.5 447.5784,-401.5 457.743,-401.5"/>
<polygon fill="#191970" stroke="#191970" points="426.5367,-398.0001 416.5366,-401.5 426.5366,-405.0001 426.5367,-398.0001"/>
</g>
<!-- Node17 -->
<g id="node5" class="node">
<title>Node17</title>
<g id="a_node5"><a xlink:href="classtrim_al_manager.html#aebfd21b0435302f0e4fc45a068d1b6ee" target="_top" xlink:title="Method to trim the alignment using non automatic methods: ">
<polygon fill="#ffffff" stroke="#000000" points="644.5,-329.5 644.5,-359.5 796.5,-359.5 796.5,-329.5 644.5,-329.5"/>
<text text-anchor="start" x="652.5" y="-347.5" font-family="Helvetica,sans-Serif" font-size="10.00" fill="#000000">trimAlManager::CleanResidues</text>
<text text-anchor="middle" x="720.5" y="-336.5" font-family="Helvetica,sans-Serif" font-size="10.00" fill="#000000">NonAuto</text>
</a>
</g>
</g>
<!-- Node16&#45;&gt;Node17 -->
<g id="edge4" class="edge">
<title>Node16&#45;&gt;Node17</title>
<path fill="none" stroke="#191970" d="M580.6619,-426.9413C586.5994,-425.0254 592.4853,-422.8806 598,-420.5 636.3738,-403.935 676.812,-376.6401 700.2911,-359.6638"/>
<polygon fill="#191970" stroke="#191970" points="579.242,-423.7136 570.6773,-429.9504 581.2619,-430.4159 579.242,-423.7136"/>
</g>
<!-- Node18 -->
<g id="node6" class="node">
<title>Node18</title>
<g id="a_node6"><a xlink:href="classtrim_al_manager.html#adc529dd893ed4e9df6f3ddbd58776068" target="_top" xlink:title="Core Method of the program. This is where almost all cleaning methods are called from. ">
<polygon fill="#ffffff" stroke="#000000" points="867,-149.5 867,-179.5 976,-179.5 976,-149.5 867,-149.5"/>
<text text-anchor="start" x="875" y="-167.5" font-family="Helvetica,sans-Serif" font-size="10.00" fill="#000000">trimAlManager::clean</text>
<text text-anchor="middle" x="921.5" y="-156.5" font-family="Helvetica,sans-Serif" font-size="10.00" fill="#000000">_alignment</text>
</a>
</g>
</g>
<!-- Node17&#45;&gt;Node18 -->
<g id="edge5" class="edge">
<title>Node17&#45;&gt;Node18</title>
<path fill="none" stroke="#191970" d="M744.989,-322.5696C786.3627,-285.5185 869.0616,-211.4597 904.615,-179.6209"/>
<polygon fill="#191970" stroke="#191970" points="742.406,-320.1843 737.2914,-329.4629 747.0759,-325.399 742.406,-320.1843"/>
</g>
<!-- Node19 -->
<g id="node7" class="node">
<title>Node19</title>
<g id="a_node7"><a xlink:href="classtrim_al_manager.html#a7c641a1feff33d401b4ea5c82e989289" target="_top" xlink:title="trimAlManager::innerPerform">
<polygon fill="#ffffff" stroke="#000000" points="1036,-145 1036,-164 1177,-164 1177,-145 1036,-145"/>
<text text-anchor="middle" x="1106.5" y="-152" font-family="Helvetica,sans-Serif" font-size="10.00" fill="#000000">trimAlManager::innerPerform</text>
</a>
</g>
</g>
<!-- Node18&#45;&gt;Node19 -->
<g id="edge6" class="edge">
<title>Node18&#45;&gt;Node19</title>
<path fill="none" stroke="#191970" d="M986.339,-160.9952C1002.3661,-160.1289 1019.6134,-159.1966 1035.8996,-158.3162"/>
<polygon fill="#191970" stroke="#191970" points="985.802,-157.519 976.0055,-161.5538 986.1799,-164.5088 985.802,-157.519"/>
</g>
<!-- Node20 -->
<g id="node8" class="node">
<title>Node20</title>
<g id="a_node8"><a xlink:href="classtrim_al_manager.html#abe8d2841455c644dc9c7d1294b82b00f" target="_top" xlink:title="Method to perform the analysis if all checks have passed. ">
<polygon fill="#ffffff" stroke="#000000" points="1213,-136 1213,-155 1332,-155 1332,-136 1213,-136"/>
<text text-anchor="middle" x="1272.5" y="-143" font-family="Helvetica,sans-Serif" font-size="10.00" fill="#000000">trimAlManager::perform</text>
</a>
</g>
</g>
<!-- Node19&#45;&gt;Node20 -->
<g id="edge7" class="edge">
<title>Node19&#45;&gt;Node20</title>
<path fill="none" stroke="#191970" d="M1187.4012,-150.1138C1195.9677,-149.6493 1204.564,-149.1833 1212.8249,-148.7354"/>
<polygon fill="#191970" stroke="#191970" points="1187.1763,-146.6207 1177.3804,-150.6571 1187.5553,-153.6105 1187.1763,-146.6207"/>
</g>
<!-- Node21 -->
<g id="node9" class="node">
<title>Node21</title>
<g id="a_node9"><a xlink:href="trim_al_main_8cpp.html#a0ddf1224851353fc92bfbff6f499fa97" target="_top" xlink:title="main">
<polygon fill="#ffffff" stroke="#000000" points="1368,-116 1368,-135 1406,-135 1406,-116 1368,-116"/>
<text text-anchor="middle" x="1387" y="-123" font-family="Helvetica,sans-Serif" font-size="10.00" fill="#000000">main</text>
</a>
</g>
</g>
<!-- Node20&#45;&gt;Node21 -->
<g id="edge8" class="edge">
<title>Node20&#45;&gt;Node21</title>
<path fill="none" stroke="#191970" d="M1337.0027,-134.2332C1348.2481,-132.2689 1359.1141,-130.3709 1367.8272,-128.849"/>
<polygon fill="#191970" stroke="#191970" points="1336.3159,-130.8 1327.0673,-135.9686 1337.5204,-137.6956 1336.3159,-130.8"/>
</g>
<!-- Node22&#45;&gt;Node17 -->
<g id="edge10" class="edge">
<title>Node22&#45;&gt;Node17</title>
<path fill="none" stroke="#191970" d="M573.5038,-389.3041C581.6862,-387.097 590.1025,-384.7732 598,-382.5 623.036,-375.2937 650.7751,-366.737 673.5169,-359.5696"/>
<polygon fill="#191970" stroke="#191970" points="572.4468,-385.9637 563.6897,-391.9271 574.2544,-392.7263 572.4468,-385.9637"/>
</g>
<!-- Node24 -->
<g id="node12" class="node">
<title>Node24</title>
<g id="a_node12"><a xlink:href="class_cleaner.html#aa57106470d2104a925b9396b8a9f33b3" target="_top" xlink:title="Method that carries the gappyout approach. This methods calculates the slope in gaps distribution on ...">
<polygon fill="#ffffff" stroke="#000000" points="466.5,-240 466.5,-259 586.5,-259 586.5,-240 466.5,-240"/>
<text text-anchor="middle" x="526.5" y="-247" font-family="Helvetica,sans-Serif" font-size="10.00" fill="#000000">Cleaner::clean2ndSlope</text>
</a>
</g>
</g>
<!-- Node23&#45;&gt;Node24 -->
<g id="edge12" class="edge">
<title>Node23&#45;&gt;Node24</title>
<path fill="none" stroke="#191970" d="M426.6359,-240.4214C439.9642,-241.6331 453.6622,-242.8784 466.4768,-244.0433"/>
<polygon fill="#191970" stroke="#191970" points="426.8125,-236.9232 416.5366,-239.5033 426.1787,-243.8944 426.8125,-236.9232"/>
</g>
<!-- Node26 -->
<g id="node14" class="node">
<title>Node26</title>
<g id="a_node14"><a xlink:href="class_cleaner.html#af7c9e1a177424168fa4214aca9ebd8e2" target="_top" xlink:title="Method to trim an alignment based on the gap distribution values. Column blocks that don&#39;t have a min...">
<polygon fill="#ffffff" stroke="#000000" points="475,-278 475,-297 578,-297 578,-278 475,-278"/>
<text text-anchor="middle" x="526.5" y="-285" font-family="Helvetica,sans-Serif" font-size="10.00" fill="#000000">Cleaner::cleanGaps</text>
</a>
</g>
</g>
<!-- Node23&#45;&gt;Node26 -->
<g id="edge15" class="edge">
<title>Node23&#45;&gt;Node26</title>
<path fill="none" stroke="#191970" d="M402.8074,-251.743C419.4232,-257.3431 437.9189,-263.3756 455,-268.5 465.9491,-271.7847 477.9269,-275.082 488.8949,-277.986"/>
<polygon fill="#191970" stroke="#191970" points="403.8607,-248.4044 393.2663,-248.5058 401.6115,-255.0333 403.8607,-248.4044"/>
</g>
<!-- Node27 -->
<g id="node15" class="node">
<title>Node27</title>
<g id="a_node15"><a xlink:href="class_cleaner.html#a3af7bde2142886d6d723c95694b7b9ba" target="_top" xlink:title="Method to remove columns composed only by gaps This method is specially useful when we remove missali...">
<polygon fill="#ffffff" stroke="#000000" points="463,-202 463,-221 590,-221 590,-202 463,-202"/>
<text text-anchor="middle" x="526.5" y="-209" font-family="Helvetica,sans-Serif" font-size="10.00" fill="#000000">Cleaner::cleanNoAllGaps</text>
</a>
</g>
</g>
<!-- Node23&#45;&gt;Node27 -->
<g id="edge18" class="edge">
<title>Node23&#45;&gt;Node27</title>
<path fill="none" stroke="#191970" d="M426.5706,-223.9912C438.6253,-222.4843 450.9842,-220.9395 462.7199,-219.4725"/>
<polygon fill="#191970" stroke="#191970" points="426.0253,-220.532 416.5366,-225.2454 426.8936,-227.478 426.0253,-220.532"/>
</g>
<!-- Node25 -->
<g id="node13" class="node">
<title>Node25</title>
<g id="a_node13"><a xlink:href="classtrim_al_manager.html#a69082911b30a1bd12395bb235bc18a34" target="_top" xlink:title="Method to trim the alignment using automatic or semi&#45;automatic methods: ">
<polygon fill="#ffffff" stroke="#000000" points="634,-202 634,-221 807,-221 807,-202 634,-202"/>
<text text-anchor="middle" x="720.5" y="-209" font-family="Helvetica,sans-Serif" font-size="10.00" fill="#000000">trimAlManager::CleanResiduesAuto</text>
</a>
</g>
</g>
<!-- Node24&#45;&gt;Node25 -->
<g id="edge13" class="edge">
<title>Node24&#45;&gt;Node25</title>
<path fill="none" stroke="#191970" d="M585.4052,-237.9619C613.0751,-232.542 645.6619,-226.159 671.8976,-221.0201"/>
<polygon fill="#191970" stroke="#191970" points="584.5951,-234.554 575.4544,-239.911 585.9407,-241.4234 584.5951,-234.554"/>
</g>
<!-- Node25&#45;&gt;Node18 -->
<g id="edge14" class="edge">
<title>Node25&#45;&gt;Node18</title>
<path fill="none" stroke="#191970" d="M771.1534,-199.6557C800.3132,-192.8372 836.97,-184.2657 866.7875,-177.2935"/>
<polygon fill="#191970" stroke="#191970" points="770.1158,-196.3038 761.1753,-201.9888 771.7096,-203.12 770.1158,-196.3038"/>
</g>
<!-- Node26&#45;&gt;Node17 -->
<g id="edge17" class="edge">
<title>Node26&#45;&gt;Node17</title>
<path fill="none" stroke="#191970" d="M568.5833,-299.8647C598.153,-308.5527 637.877,-320.2242 669.2879,-329.4532"/>
<polygon fill="#191970" stroke="#191970" points="569.5524,-296.5015 558.9712,-297.0405 567.579,-303.2176 569.5524,-296.5015"/>
</g>
<!-- Node26&#45;&gt;Node25 -->
<g id="edge16" class="edge">
<title>Node26&#45;&gt;Node25</title>
<path fill="none" stroke="#191970" d="M577.456,-275.1401C584.4192,-273.1087 591.4282,-270.8812 598,-268.5 636.3738,-254.5959 679.1751,-233.2601 702.6576,-221.0184"/>
<polygon fill="#191970" stroke="#191970" points="576.0292,-271.9049 567.343,-277.9712 577.9163,-278.6457 576.0292,-271.9049"/>
</g>
<!-- Node27&#45;&gt;Node25 -->
<g id="edge19" class="edge">
<title>Node27&#45;&gt;Node25</title>
<path fill="none" stroke="#191970" d="M600.0483,-211.5C611.1171,-211.5 622.6193,-211.5 633.9301,-211.5"/>
<polygon fill="#191970" stroke="#191970" points="600.0229,-208.0001 590.0229,-211.5 600.0228,-215.0001 600.0229,-208.0001"/>
</g>
<!-- Node28 -->
<g id="node16" class="node">
<title>Node28</title>
<g id="a_node16"><a xlink:href="classtrim_al_manager.html#a10536f715945a1a45f1df33f7cedc81e" target="_top" xlink:title="Method to trim or reduce the number of sequences in an alignment. It performs one or none of the foll...">
<polygon fill="#ffffff" stroke="#000000" points="640.5,-126 640.5,-145 800.5,-145 800.5,-126 640.5,-126"/>
<text text-anchor="middle" x="720.5" y="-133" font-family="Helvetica,sans-Serif" font-size="10.00" fill="#000000">trimAlManager::CleanSequences</text>
</a>
</g>
</g>
<!-- Node27&#45;&gt;Node28 -->
<g id="edge20" class="edge">
<title>Node27&#45;&gt;Node28</title>
<path fill="none" stroke="#191970" d="M577.456,-199.1401C584.4192,-197.1087 591.4282,-194.8812 598,-192.5 636.3738,-178.5959 679.1751,-157.2601 702.6576,-145.0184"/>
<polygon fill="#191970" stroke="#191970" points="576.0292,-195.9049 567.343,-201.9712 577.9163,-202.6457 576.0292,-195.9049"/>
</g>
<!-- Node28&#45;&gt;Node18 -->
<g id="edge21" class="edge">
<title>Node28&#45;&gt;Node18</title>
<path fill="none" stroke="#191970" d="M796.7941,-146.5076C820.084,-149.8678 845.218,-153.4941 866.7776,-156.6047"/>
<polygon fill="#191970" stroke="#191970" points="796.9907,-142.9998 786.5933,-145.0359 795.991,-149.9281 796.9907,-142.9998"/>
</g>
<!-- Node30 -->
<g id="node18" class="node">
<title>Node30</title>
<g id="a_node18"><a xlink:href="class_cleaner.html#a4718e31c0183b5a98751d77479faacf0" target="_top" xlink:title="Method to trim an alignment based on the similarity and gaps distribution values. ...">
<polygon fill="#ffffff" stroke="#000000" points="486.5,-354 486.5,-373 566.5,-373 566.5,-354 486.5,-354"/>
<text text-anchor="middle" x="526.5" y="-361" font-family="Helvetica,sans-Serif" font-size="10.00" fill="#000000">Cleaner::clean</text>
</a>
</g>
</g>
<!-- Node29&#45;&gt;Node30 -->
<g id="edge23" class="edge">
<title>Node29&#45;&gt;Node30</title>
<path fill="none" stroke="#191970" d="M426.566,-352.7117C447.1831,-354.9374 468.6907,-357.2592 486.4485,-359.1763"/>
<polygon fill="#191970" stroke="#191970" points="426.8546,-349.2226 416.5366,-351.629 426.1032,-356.1821 426.8546,-349.2226"/>
</g>
<!-- Node30&#45;&gt;Node17 -->
<g id="edge24" class="edge">
<title>Node30&#45;&gt;Node17</title>
<path fill="none" stroke="#191970" d="M576.7838,-358.5753C597.3575,-356.5603 621.6146,-354.1846 644.2829,-351.9646"/>
<polygon fill="#191970" stroke="#191970" points="576.3081,-355.105 566.6969,-359.5632 576.9905,-362.0717 576.3081,-355.105"/>
</g>
<!-- Node32 -->
<g id="node20" class="node">
<title>Node32</title>
<g id="a_node20"><a xlink:href="class_cleaner.html#a5ceceb5b637a6d4e6a13c3b5d8d76c1d" target="_top" xlink:title="Method to remove sequences missaligned with the rest of sequences in the alignment. &#160;For each residue in the sequence, it tests it&#39;s similarity. If the similarity of that residue is higher than overlapColumn value, it counts as a hit for the sequence. After calculating the number of hits for the sequence, it removes the sequence if it has a proportion hits/residues lower tan minimumOverlap. ">
<polygon fill="#ffffff" stroke="#000000" points="459,-126 459,-145 594,-145 594,-126 459,-126"/>
<text text-anchor="middle" x="526.5" y="-133" font-family="Helvetica,sans-Serif" font-size="10.00" fill="#000000">Cleaner::cleanSpuriousSeq</text>
</a>
</g>
</g>
<!-- Node31&#45;&gt;Node32 -->
<g id="edge26" class="edge">
<title>Node31&#45;&gt;Node32</title>
<path fill="none" stroke="#191970" d="M426.3108,-135.5C437.1307,-135.5 448.2012,-135.5 458.851,-135.5"/>
<polygon fill="#191970" stroke="#191970" points="426.0359,-132.0001 416.0359,-135.5 426.0359,-139.0001 426.0359,-132.0001"/>
</g>
<!-- Node32&#45;&gt;Node28 -->
<g id="edge27" class="edge">
<title>Node32&#45;&gt;Node28</title>
<path fill="none" stroke="#191970" d="M604.4023,-135.5C616.2873,-135.5 628.5704,-135.5 640.4996,-135.5"/>
<polygon fill="#191970" stroke="#191970" points="604.0795,-132.0001 594.0794,-135.5 604.0794,-139.0001 604.0795,-132.0001"/>
</g>
<!-- Node34 -->
<g id="node22" class="node">
<title>Node34</title>
<g id="a_node22"><a xlink:href="class_cleaner.html#a6727a235afa29f08a50716f28fa5c8fc" target="_top" xlink:title="Method to clean an alignment. It carries out strict and strictplus. The method: ">
<polygon fill="#ffffff" stroke="#000000" points="455,-164 455,-183 598,-183 598,-164 455,-164"/>
<text text-anchor="middle" x="526.5" y="-171" font-family="Helvetica,sans-Serif" font-size="10.00" fill="#000000">Cleaner::cleanCombMethods</text>
</a>
</g>
</g>
<!-- Node33&#45;&gt;Node34 -->
<g id="edge29" class="edge">
<title>Node33&#45;&gt;Node34</title>
<path fill="none" stroke="#191970" d="M412.5909,-173.5C426.2427,-173.5 440.8079,-173.5 454.803,-173.5"/>
<polygon fill="#191970" stroke="#191970" points="412.3539,-170.0001 402.3539,-173.5 412.3538,-177.0001 412.3539,-170.0001"/>
</g>
<!-- Node34&#45;&gt;Node25 -->
<g id="edge30" class="edge">
<title>Node34&#45;&gt;Node25</title>
<path fill="none" stroke="#191970" d="M585.4052,-185.0381C613.0751,-190.458 645.6619,-196.841 671.8976,-201.9799"/>
<polygon fill="#191970" stroke="#191970" points="585.9407,-181.5766 575.4544,-183.089 584.5951,-188.446 585.9407,-181.5766"/>
</g>
<!-- Node35&#45;&gt;Node28 -->
<g id="edge32" class="edge">
<title>Node35&#45;&gt;Node28</title>
<path fill="none" stroke="#191970" d="M417.6504,-101.2479C467.5104,-104.3723 537.1238,-109.453 598,-116.5 620.0203,-119.0491 644.1514,-122.6226 665.1303,-125.9837"/>
<polygon fill="#191970" stroke="#191970" points="417.8324,-97.7525 407.6358,-100.63 417.4013,-104.7393 417.8324,-97.7525"/>
</g>
<!-- Node37 -->
<g id="node25" class="node">
<title>Node37</title>
<g id="a_node25"><a xlink:href="classtrim_al_manager.html#a12b7cef964ef258fe7621da44867c51f" target="_top" xlink:title="Method to check if multiple files comparison has been set correctly. It also perform some calculation...">
<polygon fill="#ffffff" stroke="#000000" points="634.5,-59 634.5,-78 806.5,-78 806.5,-59 634.5,-59"/>
<text text-anchor="middle" x="720.5" y="-66" font-family="Helvetica,sans-Serif" font-size="10.00" fill="#000000">trimAlManager::performCompareset</text>
</a>
</g>
</g>
<!-- Node36&#45;&gt;Node37 -->
<g id="edge34" class="edge">
<title>Node36&#45;&gt;Node37</title>
<path fill="none" stroke="#191970" d="M591.569,-33.2766C622.9576,-41.8518 659.3673,-51.7988 685.4734,-58.9309"/>
<polygon fill="#191970" stroke="#191970" points="592.1426,-29.8051 581.5737,-30.5459 590.2978,-36.5576 592.1426,-29.8051"/>
</g>
<!-- Node38 -->
<g id="node26" class="node">
<title>Node38</title>
<g id="a_node26"><a xlink:href="classtrim_al_manager.html#af3b0625b6bcc6df5978e63530a5956e6" target="_top" xlink:title="Method to parse arguments into usable structure in trimal. ">
<polygon fill="#ffffff" stroke="#000000" points="843,-94 843,-113 1000,-113 1000,-94 843,-94"/>
<text text-anchor="middle" x="921.5" y="-101" font-family="Helvetica,sans-Serif" font-size="10.00" fill="#000000">trimAlManager::parseArguments</text>
</a>
</g>
</g>
<!-- Node37&#45;&gt;Node38 -->
<g id="edge35" class="edge">
<title>Node37&#45;&gt;Node38</title>
<path fill="none" stroke="#191970" d="M785.0603,-79.7418C811.4288,-84.3334 841.5988,-89.5869 866.8522,-93.9842"/>
<polygon fill="#191970" stroke="#191970" points="785.6108,-76.2851 775.1586,-78.0177 784.4099,-83.1814 785.6108,-76.2851"/>
</g>
<!-- Node38&#45;&gt;Node21 -->
<g id="edge36" class="edge">
<title>Node38&#45;&gt;Node21</title>
<path fill="none" stroke="#191970" d="M1010.4822,-107.7054C1122.5924,-113.0038 1307.8563,-121.7596 1367.711,-124.5884"/>
<polygon fill="#191970" stroke="#191970" points="1010.3565,-104.1956 1000.2024,-107.2196 1010.026,-111.1878 1010.3565,-104.1956"/>
</g>
<!-- Node39&#45;&gt;Node17 -->
<g id="edge38" class="edge">
<title>Node39&#45;&gt;Node17</title>
<path fill="none" stroke="#191970" d="M405.3885,-297.1325C421.3531,-300.3524 438.8427,-303.7225 455,-306.5 518.5582,-317.4258 591.0557,-327.652 644.2166,-334.7377"/>
<polygon fill="#191970" stroke="#191970" points="405.6444,-293.6128 395.147,-295.0459 404.2469,-300.4719 405.6444,-293.6128"/>
</g>
<!-- Node40&#45;&gt;Node28 -->
<g id="edge40" class="edge">
<title>Node40&#45;&gt;Node28</title>
<path fill="none" stroke="#191970" d="M429.3754,-70.2195C478.2122,-77.4359 542.0639,-87.9192 598,-100.5 629.9374,-107.6832 665.8902,-118.2588 690.5411,-125.9035"/>
<polygon fill="#191970" stroke="#191970" points="429.5916,-66.714 419.1903,-68.7296 428.5783,-73.6402 429.5916,-66.714"/>
</g>
</g>
</svg>
