<?xml version="1.0" encoding="UTF-8" standalone="no"?>
<!DOCTYPE svg PUBLIC "-//W3C//DTD SVG 1.1//EN"
 "http://www.w3.org/Graphics/SVG/1.1/DTD/svg11.dtd">
<!-- Generated by graphviz version 2.38.0 (20140413.2041)
 -->
<!-- Title: Cleaner::getClustering Pages: 1 -->
<svg width="618pt" height="39pt"
 viewBox="0.00 0.00 618.00 39.00" xmlns="http://www.w3.org/2000/svg" xmlns:xlink="http://www.w3.org/1999/xlink">
<g id="graph0" class="graph" transform="scale(1 1) rotate(0) translate(4 35)">
<title>Cleaner::getClustering</title>
<polygon fill="white" stroke="none" points="-4,4 -4,-35 614,-35 614,4 -4,4"/>
<!-- Node204 -->
<g id="node1" class="node"><title>Node204</title>
<polygon fill="#bfbfbf" stroke="black" points="0,-6 0,-25 114,-25 114,-6 0,-6"/>
<text text-anchor="middle" x="57" y="-13" font-family="Helvetica,sans-Serif" font-size="10.00">Cleaner::getClustering</text>
</g>
<!-- Node205 -->
<g id="node2" class="node"><title>Node205</title>
<g id="a_node2"><a xlink:href="classtrim_al_manager.html#a10536f715945a1a45f1df33f7cedc81e" target="_top" xlink:title="Method to trim or reduce the number of sequences in an alignment. It performs one or none of the foll...">
<polygon fill="white" stroke="black" points="150,-6 150,-25 310,-25 310,-6 150,-6"/>
<text text-anchor="middle" x="230" y="-13" font-family="Helvetica,sans-Serif" font-size="10.00">trimAlManager::CleanSequences</text>
</a>
</g>
</g>
<!-- Node204&#45;&gt;Node205 -->
<g id="edge1" class="edge"><title>Node204&#45;&gt;Node205</title>
<path fill="none" stroke="midnightblue" d="M124.508,-15.5C132.864,-15.5 141.474,-15.5 149.998,-15.5"/>
<polygon fill="midnightblue" stroke="midnightblue" points="124.466,-12.0001 114.466,-15.5 124.466,-19.0001 124.466,-12.0001"/>
</g>
<!-- Node206 -->
<g id="node3" class="node"><title>Node206</title>
<g id="a_node3"><a xlink:href="classtrim_al_manager.html#adc529dd893ed4e9df6f3ddbd58776068" target="_top" xlink:title="Core Method of the program. This is where almost all cleaning methods are called from. ">
<polygon fill="white" stroke="black" points="346,-0.5 346,-30.5 455,-30.5 455,-0.5 346,-0.5"/>
<text text-anchor="start" x="354" y="-18.5" font-family="Helvetica,sans-Serif" font-size="10.00">trimAlManager::clean</text>
<text text-anchor="middle" x="400.5" y="-7.5" font-family="Helvetica,sans-Serif" font-size="10.00">_alignment</text>
</a>
</g>
</g>
<!-- Node205&#45;&gt;Node206 -->
<g id="edge2" class="edge"><title>Node205&#45;&gt;Node206</title>
<path fill="none" stroke="midnightblue" d="M320.409,-15.5C328.997,-15.5 337.513,-15.5 345.599,-15.5"/>
<polygon fill="midnightblue" stroke="midnightblue" points="320.316,-12.0001 310.316,-15.5 320.316,-19.0001 320.316,-12.0001"/>
</g>
<!-- Node207 -->
<g id="node4" class="node"><title>Node207</title>
<g id="a_node4"><a xlink:href="classtrim_al_manager.html#abe8d2841455c644dc9c7d1294b82b00f" target="_top" xlink:title="Method to perform the analysis if all checks have passed. ">
<polygon fill="white" stroke="black" points="491,-6 491,-25 610,-25 610,-6 491,-6"/>
<text text-anchor="middle" x="550.5" y="-13" font-family="Helvetica,sans-Serif" font-size="10.00">trimAlManager::perform</text>
</a>
</g>
</g>
<!-- Node206&#45;&gt;Node207 -->
<g id="edge3" class="edge"><title>Node206&#45;&gt;Node207</title>
<path fill="none" stroke="midnightblue" d="M465.532,-15.5C473.977,-15.5 482.597,-15.5 490.943,-15.5"/>
<polygon fill="midnightblue" stroke="midnightblue" points="465.35,-12.0001 455.35,-15.5 465.35,-19.0001 465.35,-12.0001"/>
</g>
</g>
</svg>
