<?xml version="1.0" encoding="UTF-8" standalone="no"?>
<!DOCTYPE svg PUBLIC "-//W3C//DTD SVG 1.1//EN"
 "http://www.w3.org/Graphics/SVG/1.1/DTD/svg11.dtd">
<!-- Generated by graphviz version 2.40.1 (20161225.0304)
 -->
<!-- Title: trimAlManager::out_argument Pages: 1 -->
<svg width="374pt" height="39pt"
 viewBox="0.00 0.00 374.00 39.00" xmlns="http://www.w3.org/2000/svg" xmlns:xlink="http://www.w3.org/1999/xlink">
<g id="graph0" class="graph" transform="scale(1 1) rotate(0) translate(4 35)">
<title>trimAlManager::out_argument</title>
<polygon fill="#ffffff" stroke="transparent" points="-4,4 -4,-35 370,-35 370,4 -4,4"/>
<!-- Node791 -->
<g id="node1" class="node">
<title>Node791</title>
<polygon fill="#bfbfbf" stroke="#000000" points="0,-.5 0,-30.5 99,-30.5 99,-.5 0,-.5"/>
<text text-anchor="start" x="8" y="-18.5" font-family="Helvetica,sans-Serif" font-size="10.00" fill="#000000">trimAlManager::out</text>
<text text-anchor="middle" x="49.5" y="-7.5" font-family="Helvetica,sans-Serif" font-size="10.00" fill="#000000">_argument</text>
</g>
<!-- Node792 -->
<g id="node2" class="node">
<title>Node792</title>
<g id="a_node2"><a xlink:href="classtrim_al_manager.html#af140d97b6071a83930818030ac74b641" target="_top" xlink:title="Method to parse arguments into usable structure in trimal. ">
<polygon fill="#ffffff" stroke="#000000" points="135,-6 135,-25 292,-25 292,-6 135,-6"/>
<text text-anchor="middle" x="213.5" y="-13" font-family="Helvetica,sans-Serif" font-size="10.00" fill="#000000">trimAlManager::parseArguments</text>
</a>
</g>
</g>
<!-- Node791&#45;&gt;Node792 -->
<g id="edge1" class="edge">
<title>Node791&#45;&gt;Node792</title>
<path fill="none" stroke="#191970" d="M109.1802,-15.5C117.5612,-15.5 126.2788,-15.5 134.945,-15.5"/>
<polygon fill="#191970" stroke="#191970" points="109.1505,-12.0001 99.1505,-15.5 109.1504,-19.0001 109.1505,-12.0001"/>
</g>
<!-- Node793 -->
<g id="node3" class="node">
<title>Node793</title>
<g id="a_node3"><a xlink:href="trim_al_main_8cpp.html#a0ddf1224851353fc92bfbff6f499fa97" target="_top" xlink:title="main">
<polygon fill="#ffffff" stroke="#000000" points="328,-6 328,-25 366,-25 366,-6 328,-6"/>
<text text-anchor="middle" x="347" y="-13" font-family="Helvetica,sans-Serif" font-size="10.00" fill="#000000">main</text>
</a>
</g>
</g>
<!-- Node792&#45;&gt;Node793 -->
<g id="edge2" class="edge">
<title>Node792&#45;&gt;Node793</title>
<path fill="none" stroke="#191970" d="M302.5766,-15.5C311.8353,-15.5 320.4462,-15.5 327.5746,-15.5"/>
<polygon fill="#191970" stroke="#191970" points="302.3153,-12.0001 292.3152,-15.5 302.3152,-19.0001 302.3153,-12.0001"/>
</g>
</g>
</svg>
