<?xml version="1.0" encoding="UTF-8" standalone="no"?>
<!DOCTYPE svg PUBLIC "-//W3C//DTD SVG 1.1//EN"
 "http://www.w3.org/Graphics/SVG/1.1/DTD/svg11.dtd">
<!-- Generated by graphviz version 2.40.1 (20161225.0304)
 -->
<!-- Title: statistics::Consistency::printStatisticsFileAcl Pages: 1 -->
<svg width="343pt" height="84pt"
 viewBox="0.00 0.00 343.00 84.00" xmlns="http://www.w3.org/2000/svg" xmlns:xlink="http://www.w3.org/1999/xlink">
<g id="graph0" class="graph" transform="scale(1 1) rotate(0) translate(4 80)">
<title>statistics::Consistency::printStatisticsFileAcl</title>
<polygon fill="#ffffff" stroke="transparent" points="-4,4 -4,-80 339,-80 339,4 -4,4"/>
<!-- Node152 -->
<g id="node1" class="node">
<title>Node152</title>
<polygon fill="#bfbfbf" stroke="#000000" points="0,-23 0,-53 117,-53 117,-23 0,-23"/>
<text text-anchor="start" x="8" y="-41" font-family="Helvetica,sans-Serif" font-size="10.00" fill="#000000">statistics::Consistency</text>
<text text-anchor="middle" x="58.5" y="-30" font-family="Helvetica,sans-Serif" font-size="10.00" fill="#000000">::printStatisticsFileAcl</text>
</g>
<!-- Node153 -->
<g id="node2" class="node">
<title>Node153</title>
<g id="a_node2"><a xlink:href="namespaceutils.html#a13e9bd8b05840270eda57450710273c2" target="_top" xlink:title="Float vector copying. ">
<polygon fill="#ffffff" stroke="#000000" points="153,-56.5 153,-75.5 235,-75.5 235,-56.5 153,-56.5"/>
<text text-anchor="middle" x="194" y="-63.5" font-family="Helvetica,sans-Serif" font-size="10.00" fill="#000000">utils::copyVect</text>
</a>
</g>
</g>
<!-- Node152&#45;&gt;Node153 -->
<g id="edge1" class="edge">
<title>Node152&#45;&gt;Node153</title>
<path fill="none" stroke="#191970" d="M117.1442,-50.1184C125.6869,-51.8836 134.4263,-53.6896 142.8057,-55.4211"/>
<polygon fill="#191970" stroke="#191970" points="142.3095,-58.8924 152.8109,-57.4886 143.7261,-52.0373 142.3095,-58.8924"/>
</g>
<!-- Node154 -->
<g id="node3" class="node">
<title>Node154</title>
<g id="a_node3"><a xlink:href="namespaceutils.html#a73f038c379c13d23e3220afaa14f9983" target="_top" xlink:title="Quicksort sorting method. ">
<polygon fill="#ffffff" stroke="#000000" points="154,-.5 154,-19.5 234,-19.5 234,-.5 154,-.5"/>
<text text-anchor="middle" x="194" y="-7.5" font-family="Helvetica,sans-Serif" font-size="10.00" fill="#000000">utils::quicksort</text>
</a>
</g>
</g>
<!-- Node152&#45;&gt;Node154 -->
<g id="edge2" class="edge">
<title>Node152&#45;&gt;Node154</title>
<path fill="none" stroke="#191970" d="M117.1442,-25.8816C125.9864,-24.0545 135.0393,-22.1838 143.6858,-20.397"/>
<polygon fill="#191970" stroke="#191970" points="144.5274,-23.7972 153.6122,-18.3458 143.1108,-16.942 144.5274,-23.7972"/>
</g>
<!-- Node154&#45;&gt;Node154 -->
<g id="edge4" class="edge">
<title>Node154&#45;&gt;Node154</title>
<path fill="none" stroke="#191970" d="M177.3541,-19.7571C169.256,-28.5653 174.8047,-38 194,-38 205.9971,-38 212.6634,-34.3146 213.999,-29.4"/>
<polygon fill="#191970" stroke="#191970" points="217.2362,-28.0528 210.6459,-19.7571 210.6245,-30.3519 217.2362,-28.0528"/>
</g>
<!-- Node155 -->
<g id="node4" class="node">
<title>Node155</title>
<g id="a_node4"><a xlink:href="namespaceutils.html#a3377ecde55631d1bbc4956e5923b7469" target="_top" xlink:title="Swapping elements method. ">
<polygon fill="#ffffff" stroke="#000000" points="271,-.5 271,-19.5 335,-19.5 335,-.5 271,-.5"/>
<text text-anchor="middle" x="303" y="-7.5" font-family="Helvetica,sans-Serif" font-size="10.00" fill="#000000">utils::swap</text>
</a>
</g>
</g>
<!-- Node154&#45;&gt;Node155 -->
<g id="edge3" class="edge">
<title>Node154&#45;&gt;Node155</title>
<path fill="none" stroke="#191970" d="M234.2779,-10C242.8146,-10 251.8518,-10 260.4691,-10"/>
<polygon fill="#191970" stroke="#191970" points="260.7101,-13.5001 270.7101,-10 260.71,-6.5001 260.7101,-13.5001"/>
</g>
</g>
</svg>
