<?xml version="1.0" encoding="UTF-8" standalone="no"?>
<!DOCTYPE svg PUBLIC "-//W3C//DTD SVG 1.1//EN"
 "http://www.w3.org/Graphics/SVG/1.1/DTD/svg11.dtd">
<!-- Generated by graphviz version 2.38.0 (20140413.2041)
 -->
<!-- Title: Cleaner::cleanByCutValue Pages: 1 -->
<svg width="313pt" height="218pt"
 viewBox="0.00 0.00 313.00 218.00" xmlns="http://www.w3.org/2000/svg" xmlns:xlink="http://www.w3.org/1999/xlink">
<g id="graph0" class="graph" transform="scale(1 1) rotate(0) translate(4 214)">
<title>Cleaner::cleanByCutValue</title>
<polygon fill="white" stroke="none" points="-4,4 -4,-214 309,-214 309,4 -4,4"/>
<!-- Node47 -->
<g id="node1" class="node"><title>Node47</title>
<polygon fill="#bfbfbf" stroke="black" points="0,-95.5 0,-114.5 132,-114.5 132,-95.5 0,-95.5"/>
<text text-anchor="middle" x="66" y="-102.5" font-family="Helvetica,sans-Serif" font-size="10.00">Cleaner::cleanByCutValue</text>
</g>
<!-- Node48 -->
<g id="node2" class="node"><title>Node48</title>
<g id="a_node2"><a xlink:href="class_cleaner.html#ac3be9d53018d9146d6dc6cf7ff89f96d" target="_top" xlink:title="Method to clean an alignment based on the gap distribution values. Column blocks that don&#39;t have a mi...">
<polygon fill="white" stroke="black" points="185,-190.5 185,-209.5 288,-209.5 288,-190.5 185,-190.5"/>
<text text-anchor="middle" x="236.5" y="-197.5" font-family="Helvetica,sans-Serif" font-size="10.00">Cleaner::cleanGaps</text>
</a>
</g>
</g>
<!-- Node47&#45;&gt;Node48 -->
<g id="edge1" class="edge"><title>Node47&#45;&gt;Node48</title>
<path fill="none" stroke="midnightblue" d="M84.6491,-121.552C103.805,-138.692 135.965,-165.139 168,-181 175.637,-184.781 184.144,-187.915 192.475,-190.473"/>
<polygon fill="midnightblue" stroke="midnightblue" points="86.7905,-118.768 77.0419,-114.619 82.0753,-123.942 86.7905,-118.768"/>
</g>
<!-- Node49 -->
<g id="node3" class="node"><title>Node49</title>
<g id="a_node3"><a xlink:href="class_cleaner.html#a694d53fdd5d1ac9455858e48537af3d0" target="_top" xlink:title="Method to clean an alignment based on the similarity distribution values. ">
<polygon fill="white" stroke="black" points="168,-152.5 168,-171.5 305,-171.5 305,-152.5 168,-152.5"/>
<text text-anchor="middle" x="236.5" y="-159.5" font-family="Helvetica,sans-Serif" font-size="10.00">Cleaner::cleanConservation</text>
</a>
</g>
</g>
<!-- Node47&#45;&gt;Node49 -->
<g id="edge2" class="edge"><title>Node47&#45;&gt;Node49</title>
<path fill="none" stroke="midnightblue" d="M100.265,-118.334C119.839,-125.975 145.158,-135.503 168,-143 178.063,-146.303 189.083,-149.555 199.246,-152.41"/>
<polygon fill="midnightblue" stroke="midnightblue" points="101.462,-115.045 90.8753,-114.643 98.901,-121.559 101.462,-115.045"/>
</g>
<!-- Node50 -->
<g id="node4" class="node"><title>Node50</title>
<g id="a_node4"><a xlink:href="class_cleaner.html#a1ac5ba504932526d77575365557a4d64" target="_top" xlink:title="Method to clean an alignment based on the similarity and gaps distribution values. . ">
<polygon fill="white" stroke="black" points="196.5,-114.5 196.5,-133.5 276.5,-133.5 276.5,-114.5 196.5,-114.5"/>
<text text-anchor="middle" x="236.5" y="-121.5" font-family="Helvetica,sans-Serif" font-size="10.00">Cleaner::clean</text>
</a>
</g>
</g>
<!-- Node47&#45;&gt;Node50 -->
<g id="edge3" class="edge"><title>Node47&#45;&gt;Node50</title>
<path fill="none" stroke="midnightblue" d="M142.153,-113.474C160.861,-115.584 180.174,-117.761 196.345,-119.585"/>
<polygon fill="midnightblue" stroke="midnightblue" points="142.476,-109.989 132.146,-112.346 141.691,-116.944 142.476,-109.989"/>
</g>
<!-- Node51 -->
<g id="node5" class="node"><title>Node51</title>
<g id="a_node5"><a xlink:href="class_cleaner.html#ae2328fe8c189e2827b46e5dfb8e3deb3" target="_top" xlink:title="Method to clean an alignment based on consistency values obtained from a dataset of alignments...">
<polygon fill="white" stroke="black" points="169,-76.5 169,-95.5 304,-95.5 304,-76.5 169,-76.5"/>
<text text-anchor="middle" x="236.5" y="-83.5" font-family="Helvetica,sans-Serif" font-size="10.00">Cleaner::cleanCompareFile</text>
</a>
</g>
</g>
<!-- Node47&#45;&gt;Node51 -->
<g id="edge4" class="edge"><title>Node47&#45;&gt;Node51</title>
<path fill="none" stroke="midnightblue" d="M142.124,-96.529C151.032,-95.5246 160.078,-94.5045 168.857,-93.5146"/>
<polygon fill="midnightblue" stroke="midnightblue" points="141.691,-93.0556 132.146,-97.6541 142.476,-100.011 141.691,-93.0556"/>
</g>
<!-- Node52 -->
<g id="node6" class="node"><title>Node52</title>
<g id="a_node6"><a xlink:href="class_cleaner.html#a1ea9656823727f9ec237c82f9fb529cf" target="_top" xlink:title="Method that carries the gappyout approach. This methods calculates the slope in gaps distribution on ...">
<polygon fill="white" stroke="black" points="176.5,-38.5 176.5,-57.5 296.5,-57.5 296.5,-38.5 176.5,-38.5"/>
<text text-anchor="middle" x="236.5" y="-45.5" font-family="Helvetica,sans-Serif" font-size="10.00">Cleaner::clean2ndSlope</text>
</a>
</g>
</g>
<!-- Node47&#45;&gt;Node52 -->
<g id="edge5" class="edge"><title>Node47&#45;&gt;Node52</title>
<path fill="none" stroke="midnightblue" d="M100.265,-91.6656C119.839,-84.0254 145.158,-74.4965 168,-67 178.063,-63.6972 189.083,-60.445 199.246,-57.5903"/>
<polygon fill="midnightblue" stroke="midnightblue" points="98.901,-88.4409 90.8753,-95.3574 101.462,-94.9555 98.901,-88.4409"/>
</g>
<!-- Node53 -->
<g id="node7" class="node"><title>Node53</title>
<g id="a_node7"><a xlink:href="class_cleaner.html#a08e6db52c33baccce53a33d844597d7b" target="_top" xlink:title="Method to remove columns composed only by gaps This method is specially useful when we remove missali...">
<polygon fill="white" stroke="black" points="173,-0.5 173,-19.5 300,-19.5 300,-0.5 173,-0.5"/>
<text text-anchor="middle" x="236.5" y="-7.5" font-family="Helvetica,sans-Serif" font-size="10.00">Cleaner::cleanNoAllGaps</text>
</a>
</g>
</g>
<!-- Node47&#45;&gt;Node53 -->
<g id="edge6" class="edge"><title>Node47&#45;&gt;Node53</title>
<path fill="none" stroke="midnightblue" d="M84.6491,-88.4479C103.805,-71.3084 135.965,-44.861 168,-29 175.637,-25.2188 184.144,-22.0848 192.475,-19.5268"/>
<polygon fill="midnightblue" stroke="midnightblue" points="82.0753,-86.0581 77.0419,-95.381 86.7905,-91.2318 82.0753,-86.0581"/>
</g>
</g>
</svg>
