<?xml version="1.0" encoding="UTF-8" standalone="no"?>
<!DOCTYPE svg PUBLIC "-//W3C//DTD SVG 1.1//EN"
 "http://www.w3.org/Graphics/SVG/1.1/DTD/svg11.dtd">
<!-- Generated by graphviz version 2.40.1 (20161225.0304)
 -->
<!-- Title: Cleaner::cleanSpuriousSeq Pages: 1 -->
<svg width="816pt" height="173pt"
 viewBox="0.00 0.00 816.00 172.50" xmlns="http://www.w3.org/2000/svg" xmlns:xlink="http://www.w3.org/1999/xlink">
<g id="graph0" class="graph" transform="scale(1 1) rotate(0) translate(4 168.5)">
<title>Cleaner::cleanSpuriousSeq</title>
<polygon fill="#ffffff" stroke="transparent" points="-4,4 -4,-168.5 812,-168.5 812,4 -4,4"/>
<!-- Node422 -->
<g id="node1" class="node">
<title>Node422</title>
<polygon fill="#bfbfbf" stroke="#000000" points="0,-84 0,-103 135,-103 135,-84 0,-84"/>
<text text-anchor="middle" x="67.5" y="-91" font-family="Helvetica,sans-Serif" font-size="10.00" fill="#000000">Cleaner::cleanSpuriousSeq</text>
</g>
<!-- Node423 -->
<g id="node2" class="node">
<title>Node423</title>
<g id="a_node2"><a xlink:href="class_cleaner.html#ab2db8eacfbe545c68fc287c43309e439" target="_top" xlink:title="Method to compute the overlap values. &#160;See Alignment::overlaps. ">
<polygon fill="#ffffff" stroke="#000000" points="171,-109.5 171,-139.5 305,-139.5 305,-109.5 171,-109.5"/>
<text text-anchor="start" x="179" y="-127.5" font-family="Helvetica,sans-Serif" font-size="10.00" fill="#000000">Cleaner::calculateSpurious</text>
<text text-anchor="middle" x="238" y="-116.5" font-family="Helvetica,sans-Serif" font-size="10.00" fill="#000000">Vector</text>
</a>
</g>
</g>
<!-- Node422&#45;&gt;Node423 -->
<g id="edge1" class="edge">
<title>Node422&#45;&gt;Node423</title>
<path fill="none" stroke="#191970" d="M120.0468,-103.054C132.9594,-105.4017 147.0518,-107.964 160.858,-110.4742"/>
<polygon fill="#191970" stroke="#191970" points="160.3747,-113.9436 170.8395,-112.289 161.6269,-107.0565 160.3747,-113.9436"/>
</g>
<!-- Node427 -->
<g id="node6" class="node">
<title>Node427</title>
<g id="a_node6"><a xlink:href="class_cleaner.html#abe5d03c820a6bee7935b719b9fc7be60" target="_top" xlink:title="Method to trim an alignment based on a minimum sequence overlap threshold. &#160;The method selects a comb...">
<polygon fill="#ffffff" stroke="#000000" points="172.5,-62 172.5,-81 303.5,-81 303.5,-62 172.5,-62"/>
<text text-anchor="middle" x="238" y="-69" font-family="Helvetica,sans-Serif" font-size="10.00" fill="#000000">Cleaner::cleanOverlapSeq</text>
</a>
</g>
</g>
<!-- Node422&#45;&gt;Node427 -->
<g id="edge5" class="edge">
<title>Node422&#45;&gt;Node427</title>
<path fill="none" stroke="#191970" d="M135.376,-84.7418C144.2149,-83.6013 153.314,-82.4272 162.2711,-81.2715"/>
<polygon fill="#191970" stroke="#191970" points="162.8324,-84.7282 172.3022,-79.9771 161.9365,-77.7857 162.8324,-84.7282"/>
</g>
<!-- Node424 -->
<g id="node3" class="node">
<title>Node424</title>
<g id="a_node3"><a xlink:href="class_alignment.html#ab2487799d9a7d593d7fbe1b8da9593f5" target="_top" xlink:title="Alignment type getter. &#160;&#160;See SequenceTypes. ">
<polygon fill="#ffffff" stroke="#000000" points="341.5,-134 341.5,-153 486.5,-153 486.5,-134 341.5,-134"/>
<text text-anchor="middle" x="414" y="-141" font-family="Helvetica,sans-Serif" font-size="10.00" fill="#000000">Alignment::getAlignmentType</text>
</a>
</g>
</g>
<!-- Node423&#45;&gt;Node424 -->
<g id="edge2" class="edge">
<title>Node423&#45;&gt;Node424</title>
<path fill="none" stroke="#191970" d="M305.0401,-131.7373C313.5584,-132.6569 322.3549,-133.6065 331.0844,-134.5489"/>
<polygon fill="#191970" stroke="#191970" points="330.9628,-138.056 341.2807,-135.6496 331.7142,-131.0964 330.9628,-138.056"/>
</g>
<!-- Node425 -->
<g id="node4" class="node">
<title>Node425</title>
<g id="a_node4"><a xlink:href="namespaceutils.html#aab52f9515717f06cafd6ab7fe2ebdcef" target="_top" xlink:title="Checks an alignment type. ">
<polygon fill="#ffffff" stroke="#000000" points="523,-142 523,-161 655,-161 655,-142 523,-142"/>
<text text-anchor="middle" x="589" y="-149" font-family="Helvetica,sans-Serif" font-size="10.00" fill="#000000">utils::checkAlignmentType</text>
</a>
</g>
</g>
<!-- Node424&#45;&gt;Node425 -->
<g id="edge3" class="edge">
<title>Node424&#45;&gt;Node425</title>
<path fill="none" stroke="#191970" d="M486.6954,-146.8232C495.335,-147.2182 504.1729,-147.6222 512.8589,-148.0193"/>
<polygon fill="#191970" stroke="#191970" points="512.8153,-151.5208 522.9647,-148.4812 513.135,-144.5281 512.8153,-151.5208"/>
</g>
<!-- Node426 -->
<g id="node5" class="node">
<title>Node426</title>
<g id="a_node5"><a xlink:href="namespaceutils.html#a6286fde6f4dd58ef0cfa9d55341b72f8" target="_top" xlink:title="utils::toUpper">
<polygon fill="#ffffff" stroke="#000000" points="712,-145 712,-164 787,-164 787,-145 712,-145"/>
<text text-anchor="middle" x="749.5" y="-152" font-family="Helvetica,sans-Serif" font-size="10.00" fill="#000000">utils::toUpper</text>
</a>
</g>
</g>
<!-- Node425&#45;&gt;Node426 -->
<g id="edge4" class="edge">
<title>Node425&#45;&gt;Node426</title>
<path fill="none" stroke="#191970" d="M655.2081,-152.7375C670.7728,-153.0285 687.0649,-153.333 701.6431,-153.6055"/>
<polygon fill="#191970" stroke="#191970" points="701.8569,-157.11 711.9206,-153.7976 701.9877,-150.1112 701.8569,-157.11"/>
</g>
<!-- Node428 -->
<g id="node7" class="node">
<title>Node428</title>
<g id="a_node7"><a xlink:href="class_alignment.html#aeeee94970a445f32aa79646c249befef" target="_top" xlink:title="Copy Constructor. &#160;&#160;The copy constructor does not make a copy of all structures present on the origin...">
<polygon fill="#ffffff" stroke="#000000" points="359,-62 359,-81 469,-81 469,-62 359,-62"/>
<text text-anchor="middle" x="414" y="-69" font-family="Helvetica,sans-Serif" font-size="10.00" fill="#000000">Alignment::Alignment</text>
</a>
</g>
</g>
<!-- Node427&#45;&gt;Node428 -->
<g id="edge6" class="edge">
<title>Node427&#45;&gt;Node428</title>
<path fill="none" stroke="#191970" d="M303.5359,-71.5C318.3058,-71.5 333.9805,-71.5 348.7391,-71.5"/>
<polygon fill="#191970" stroke="#191970" points="348.7879,-75.0001 358.7879,-71.5 348.7878,-68.0001 348.7879,-75.0001"/>
</g>
<!-- Node434 -->
<g id="node13" class="node">
<title>Node434</title>
<g id="a_node13"><a xlink:href="class_cleaner.html#ada8ad076dd037f00ae3f4fd17762641f" target="_top" xlink:title="Method that identifies and removes columns and sequences composed only by gaps. ">
<polygon fill="#ffffff" stroke="#000000" points="341,-10.5 341,-40.5 487,-40.5 487,-10.5 341,-10.5"/>
<text text-anchor="start" x="349" y="-28.5" font-family="Helvetica,sans-Serif" font-size="10.00" fill="#000000">Cleaner::removeAllGapsSeqs</text>
<text text-anchor="middle" x="414" y="-17.5" font-family="Helvetica,sans-Serif" font-size="10.00" fill="#000000">AndCols</text>
</a>
</g>
</g>
<!-- Node427&#45;&gt;Node434 -->
<g id="edge12" class="edge">
<title>Node427&#45;&gt;Node434</title>
<path fill="none" stroke="#191970" d="M274.4673,-61.9688C295.2634,-56.5334 321.9879,-49.5486 346.4734,-43.149"/>
<polygon fill="#191970" stroke="#191970" points="347.6553,-46.4577 356.4452,-40.5427 345.8852,-39.6852 347.6553,-46.4577"/>
</g>
<!-- Node429 -->
<g id="node8" class="node">
<title>Node429</title>
<g id="a_node8"><a xlink:href="class_cleaner.html#afe42cb635ddd6bd968ae57e378deaac8" target="_top" xlink:title="Copy Constructor &#45; Called by Alignment. ">
<polygon fill="#ffffff" stroke="#000000" points="544,-99 544,-118 634,-118 634,-99 544,-99"/>
<text text-anchor="middle" x="589" y="-106" font-family="Helvetica,sans-Serif" font-size="10.00" fill="#000000">Cleaner::Cleaner</text>
</a>
</g>
</g>
<!-- Node428&#45;&gt;Node429 -->
<g id="edge7" class="edge">
<title>Node428&#45;&gt;Node429</title>
<path fill="none" stroke="#191970" d="M459.0668,-81.0284C481.8404,-85.8434 509.6739,-91.7282 533.7296,-96.8143"/>
<polygon fill="#191970" stroke="#191970" points="533.2743,-100.2953 543.7821,-98.9396 534.7224,-93.4467 533.2743,-100.2953"/>
</g>
<!-- Node430 -->
<g id="node9" class="node">
<title>Node430</title>
<g id="a_node9"><a xlink:href="classstatistics_1_1_manager.html#aee28602da015edb0880d59ce4c0f855d" target="_top" xlink:title="statistics::Manager\l::Manager">
<polygon fill="#ffffff" stroke="#000000" points="539,-49.5 539,-79.5 639,-79.5 639,-49.5 539,-49.5"/>
<text text-anchor="start" x="547" y="-67.5" font-family="Helvetica,sans-Serif" font-size="10.00" fill="#000000">statistics::Manager</text>
<text text-anchor="middle" x="589" y="-56.5" font-family="Helvetica,sans-Serif" font-size="10.00" fill="#000000">::Manager</text>
</a>
</g>
</g>
<!-- Node428&#45;&gt;Node430 -->
<g id="edge8" class="edge">
<title>Node428&#45;&gt;Node430</title>
<path fill="none" stroke="#191970" d="M469.3711,-69.2852C488.2146,-68.5314 509.3667,-67.6853 528.5849,-66.9166"/>
<polygon fill="#191970" stroke="#191970" points="528.8827,-70.4076 538.7348,-66.5106 528.6029,-63.4132 528.8827,-70.4076"/>
</g>
<!-- Node431 -->
<g id="node10" class="node">
<title>Node431</title>
<g id="a_node10"><a xlink:href="classstatistics_1_1_similarity.html#afecab92459785c7568511217969f6cde" target="_top" xlink:title="statistics::Similarity\l::Similarity">
<polygon fill="#ffffff" stroke="#000000" points="698,-95.5 698,-125.5 801,-125.5 801,-95.5 698,-95.5"/>
<text text-anchor="start" x="706" y="-113.5" font-family="Helvetica,sans-Serif" font-size="10.00" fill="#000000">statistics::Similarity</text>
<text text-anchor="middle" x="749.5" y="-102.5" font-family="Helvetica,sans-Serif" font-size="10.00" fill="#000000">::Similarity</text>
</a>
</g>
</g>
<!-- Node430&#45;&gt;Node431 -->
<g id="edge9" class="edge">
<title>Node430&#45;&gt;Node431</title>
<path fill="none" stroke="#191970" d="M639.3428,-78.9285C654.7975,-83.3579 671.9791,-88.2822 688.0875,-92.8989"/>
<polygon fill="#191970" stroke="#191970" points="687.3762,-96.3359 697.9535,-95.7265 689.3048,-89.6068 687.3762,-96.3359"/>
</g>
<!-- Node432 -->
<g id="node11" class="node">
<title>Node432</title>
<g id="a_node11"><a xlink:href="classstatistics_1_1_consistency.html#ae39d2aae825d263ac8c3198782b824d2" target="_top" xlink:title="Copy constructor. ">
<polygon fill="#ffffff" stroke="#000000" points="691,-46.5 691,-76.5 808,-76.5 808,-46.5 691,-46.5"/>
<text text-anchor="start" x="699" y="-64.5" font-family="Helvetica,sans-Serif" font-size="10.00" fill="#000000">statistics::Consistency</text>
<text text-anchor="middle" x="749.5" y="-53.5" font-family="Helvetica,sans-Serif" font-size="10.00" fill="#000000">::Consistency</text>
</a>
</g>
</g>
<!-- Node430&#45;&gt;Node432 -->
<g id="edge10" class="edge">
<title>Node430&#45;&gt;Node432</title>
<path fill="none" stroke="#191970" d="M639.3428,-63.559C652.5107,-63.3129 666.9322,-63.0433 680.8754,-62.7827"/>
<polygon fill="#191970" stroke="#191970" points="680.9861,-66.2813 690.9189,-62.595 680.8552,-59.2826 680.9861,-66.2813"/>
</g>
<!-- Node433 -->
<g id="node12" class="node">
<title>Node433</title>
<g id="a_node12"><a xlink:href="classstatistics_1_1_gaps.html#a0233d71123523698b0bbf6fe6119b630" target="_top" xlink:title="statistics::Gaps::Gaps">
<polygon fill="#ffffff" stroke="#000000" points="692,-8 692,-27 807,-27 807,-8 692,-8"/>
<text text-anchor="middle" x="749.5" y="-15" font-family="Helvetica,sans-Serif" font-size="10.00" fill="#000000">statistics::Gaps::Gaps</text>
</a>
</g>
</g>
<!-- Node430&#45;&gt;Node433 -->
<g id="edge11" class="edge">
<title>Node430&#45;&gt;Node433</title>
<path fill="none" stroke="#191970" d="M639.3428,-49.7579C661.1481,-43.3725 686.3909,-35.9805 707.2069,-29.8849"/>
<polygon fill="#191970" stroke="#191970" points="708.4222,-33.1761 717.0355,-27.0067 706.4549,-26.4582 708.4222,-33.1761"/>
</g>
<!-- Node435 -->
<g id="node14" class="node">
<title>Node435</title>
<g id="a_node14"><a xlink:href="classreporting_1_1report_manager.html#a75a240a78f31ba479892a9a0f53996fa" target="_top" xlink:title="Method to report a Warning. &#160;It will be displayed if Level &#160;is equal or higher to VerboseLevel::WARNI...">
<polygon fill="#ffffff" stroke="#000000" points="528,-.5 528,-30.5 650,-30.5 650,-.5 528,-.5"/>
<text text-anchor="start" x="536" y="-18.5" font-family="Helvetica,sans-Serif" font-size="10.00" fill="#000000">reporting::reportManager</text>
<text text-anchor="middle" x="589" y="-7.5" font-family="Helvetica,sans-Serif" font-size="10.00" fill="#000000">::report</text>
</a>
</g>
</g>
<!-- Node434&#45;&gt;Node435 -->
<g id="edge13" class="edge">
<title>Node434&#45;&gt;Node435</title>
<path fill="none" stroke="#191970" d="M487.2018,-21.317C497.2118,-20.745 507.4785,-20.1584 517.4584,-19.5881"/>
<polygon fill="#191970" stroke="#191970" points="517.948,-23.0659 527.732,-19.001 517.5486,-16.0773 517.948,-23.0659"/>
</g>
</g>
</svg>
