<?xml version="1.0" encoding="UTF-8" standalone="no"?>
<!DOCTYPE svg PUBLIC "-//W3C//DTD SVG 1.1//EN"
 "http://www.w3.org/Graphics/SVG/1.1/DTD/svg11.dtd">
<!-- Generated by graphviz version 2.40.1 (20161225.0304)
 -->
<!-- Title: FormatHandling::FormatManager::saveAlignment Pages: 1 -->
<svg width="720pt" height="91pt"
 viewBox="0.00 0.00 720.00 91.00" xmlns="http://www.w3.org/2000/svg" xmlns:xlink="http://www.w3.org/1999/xlink">
<g id="graph0" class="graph" transform="scale(1 1) rotate(0) translate(4 87)">
<title>FormatHandling::FormatManager::saveAlignment</title>
<polygon fill="#ffffff" stroke="transparent" points="-4,4 -4,-87 716,-87 716,4 -4,4"/>
<!-- Node69 -->
<g id="node1" class="node">
<title>Node69</title>
<polygon fill="#bfbfbf" stroke="#000000" points="0,-36 0,-66 160,-66 160,-36 0,-36"/>
<text text-anchor="start" x="8" y="-54" font-family="Helvetica,sans-Serif" font-size="10.00" fill="#000000">FormatHandling::FormatManager</text>
<text text-anchor="middle" x="80" y="-43" font-family="Helvetica,sans-Serif" font-size="10.00" fill="#000000">::saveAlignment</text>
</g>
<!-- Node70 -->
<g id="node2" class="node">
<title>Node70</title>
<g id="a_node2"><a xlink:href="read_al_main_8cpp.html#a0ddf1224851353fc92bfbff6f499fa97" target="_top" xlink:title="main">
<polygon fill="#ffffff" stroke="#000000" points="230.5,-63.5 230.5,-82.5 268.5,-82.5 268.5,-63.5 230.5,-63.5"/>
<text text-anchor="middle" x="249.5" y="-70.5" font-family="Helvetica,sans-Serif" font-size="10.00" fill="#000000">main</text>
</a>
</g>
</g>
<!-- Node69&#45;&gt;Node70 -->
<g id="edge1" class="edge">
<title>Node69&#45;&gt;Node70</title>
<path fill="none" stroke="#191970" d="M170.3491,-62.7267C192.9924,-65.6657 215.1004,-68.5352 230.1697,-70.4911"/>
<polygon fill="#191970" stroke="#191970" points="170.65,-59.2365 160.2826,-61.4202 169.7489,-66.1783 170.65,-59.2365"/>
</g>
<!-- Node71 -->
<g id="node3" class="node">
<title>Node71</title>
<g id="a_node3"><a xlink:href="classtrim_al_manager.html#a7ba38127fa10c926b96c60250b80d2b7" target="_top" xlink:title="trimAlManager::save\l_alignment">
<polygon fill="#ffffff" stroke="#000000" points="196,-14 196,-44 303,-44 303,-14 196,-14"/>
<text text-anchor="start" x="204" y="-32" font-family="Helvetica,sans-Serif" font-size="10.00" fill="#000000">trimAlManager::save</text>
<text text-anchor="middle" x="249.5" y="-21" font-family="Helvetica,sans-Serif" font-size="10.00" fill="#000000">_alignment</text>
</a>
</g>
</g>
<!-- Node69&#45;&gt;Node71 -->
<g id="edge2" class="edge">
<title>Node69&#45;&gt;Node71</title>
<path fill="none" stroke="#191970" d="M170.3972,-39.267C179.001,-38.1503 187.5269,-37.0437 195.618,-35.9935"/>
<polygon fill="#191970" stroke="#191970" points="169.7489,-35.8217 160.2826,-40.5798 170.6499,-42.7635 169.7489,-35.8217"/>
</g>
<!-- Node72 -->
<g id="node4" class="node">
<title>Node72</title>
<g id="a_node4"><a xlink:href="classtrim_al_manager.html#a7c641a1feff33d401b4ea5c82e989289" target="_top" xlink:title="trimAlManager::innerPerform">
<polygon fill="#ffffff" stroke="#000000" points="340.5,-38.5 340.5,-57.5 481.5,-57.5 481.5,-38.5 340.5,-38.5"/>
<text text-anchor="middle" x="411" y="-45.5" font-family="Helvetica,sans-Serif" font-size="10.00" fill="#000000">trimAlManager::innerPerform</text>
</a>
</g>
</g>
<!-- Node71&#45;&gt;Node72 -->
<g id="edge3" class="edge">
<title>Node71&#45;&gt;Node72</title>
<path fill="none" stroke="#191970" d="M313.4453,-36.523C322.2385,-37.5575 331.3099,-38.6247 340.217,-39.6726"/>
<polygon fill="#191970" stroke="#191970" points="313.6176,-33.0192 303.2772,-35.3267 312.7997,-39.9713 313.6176,-33.0192"/>
</g>
<!-- Node75 -->
<g id="node7" class="node">
<title>Node75</title>
<g id="a_node7"><a xlink:href="classtrim_al_manager.html#ac5795f93b3a2b51bf5d8dddd63b89f73" target="_top" xlink:title="trimAlManager::perform_VCF">
<polygon fill="#ffffff" stroke="#000000" points="339,-.5 339,-19.5 483,-19.5 483,-.5 339,-.5"/>
<text text-anchor="middle" x="411" y="-7.5" font-family="Helvetica,sans-Serif" font-size="10.00" fill="#000000">trimAlManager::perform_VCF</text>
</a>
</g>
</g>
<!-- Node71&#45;&gt;Node75 -->
<g id="edge6" class="edge">
<title>Node71&#45;&gt;Node75</title>
<path fill="none" stroke="#191970" d="M313.3209,-21.4917C321.6789,-20.5084 330.2902,-19.4953 338.7746,-18.4971"/>
<polygon fill="#191970" stroke="#191970" points="312.7997,-18.0287 303.2772,-22.6733 313.6176,-24.9808 312.7997,-18.0287"/>
</g>
<!-- Node73 -->
<g id="node5" class="node">
<title>Node73</title>
<g id="a_node5"><a xlink:href="classtrim_al_manager.html#abe8d2841455c644dc9c7d1294b82b00f" target="_top" xlink:title="Method to perform the analysis if all checks have passed. ">
<polygon fill="#ffffff" stroke="#000000" points="519,-38.5 519,-57.5 638,-57.5 638,-38.5 519,-38.5"/>
<text text-anchor="middle" x="578.5" y="-45.5" font-family="Helvetica,sans-Serif" font-size="10.00" fill="#000000">trimAlManager::perform</text>
</a>
</g>
</g>
<!-- Node72&#45;&gt;Node73 -->
<g id="edge4" class="edge">
<title>Node72&#45;&gt;Node73</title>
<path fill="none" stroke="#191970" d="M491.8102,-48C500.9363,-48 510.1089,-48 518.8939,-48"/>
<polygon fill="#191970" stroke="#191970" points="491.5497,-44.5001 481.5496,-48 491.5496,-51.5001 491.5497,-44.5001"/>
</g>
<!-- Node74 -->
<g id="node6" class="node">
<title>Node74</title>
<g id="a_node6"><a xlink:href="trim_al_main_8cpp.html#a0ddf1224851353fc92bfbff6f499fa97" target="_top" xlink:title="main">
<polygon fill="#ffffff" stroke="#000000" points="674,-38.5 674,-57.5 712,-57.5 712,-38.5 674,-38.5"/>
<text text-anchor="middle" x="693" y="-45.5" font-family="Helvetica,sans-Serif" font-size="10.00" fill="#000000">main</text>
</a>
</g>
</g>
<!-- Node73&#45;&gt;Node74 -->
<g id="edge5" class="edge">
<title>Node73&#45;&gt;Node74</title>
<path fill="none" stroke="#191970" d="M648.3198,-48C657.6177,-48 666.4503,-48 673.7697,-48"/>
<polygon fill="#191970" stroke="#191970" points="648.0976,-44.5001 638.0976,-48 648.0975,-51.5001 648.0976,-44.5001"/>
</g>
</g>
</svg>
