<?xml version="1.0" encoding="UTF-8" standalone="no"?>
<!DOCTYPE svg PUBLIC "-//W3C//DTD SVG 1.1//EN"
 "http://www.w3.org/Graphics/SVG/1.1/DTD/svg11.dtd">
<!-- Generated by graphviz version 2.40.1 (20161225.0304)
 -->
<!-- Title: FormatHandling::BaseFormatHandler::CheckAlignment Pages: 1 -->
<svg width="1229pt" height="341pt"
 viewBox="0.00 0.00 1229.00 341.00" xmlns="http://www.w3.org/2000/svg" xmlns:xlink="http://www.w3.org/1999/xlink">
<g id="graph0" class="graph" transform="scale(1 1) rotate(0) translate(4 337)">
<title>FormatHandling::BaseFormatHandler::CheckAlignment</title>
<polygon fill="#ffffff" stroke="transparent" points="-4,4 -4,-337 1225,-337 1225,4 -4,4"/>
<!-- Node3 -->
<g id="node1" class="node">
<title>Node3</title>
<polygon fill="#bfbfbf" stroke="#000000" points="0,-110.5 0,-140.5 145,-140.5 145,-110.5 0,-110.5"/>
<text text-anchor="start" x="8" y="-128.5" font-family="Helvetica,sans-Serif" font-size="10.00" fill="#000000">FormatHandling::BaseFormat</text>
<text text-anchor="middle" x="72.5" y="-117.5" font-family="Helvetica,sans-Serif" font-size="10.00" fill="#000000">Handler::CheckAlignment</text>
</g>
<!-- Node4 -->
<g id="node2" class="node">
<title>Node4</title>
<g id="a_node2"><a xlink:href="class_format_handling_1_1_format_manager.html#a850c827a60ae4ee1e5bb34b7485f0412" target="_top" xlink:title="FormatHandling::FormatManager\l::getFormatFromFile">
<polygon fill="#ffffff" stroke="#000000" points="181,-110.5 181,-140.5 341,-140.5 341,-110.5 181,-110.5"/>
<text text-anchor="start" x="189" y="-128.5" font-family="Helvetica,sans-Serif" font-size="10.00" fill="#000000">FormatHandling::FormatManager</text>
<text text-anchor="middle" x="261" y="-117.5" font-family="Helvetica,sans-Serif" font-size="10.00" fill="#000000">::getFormatFromFile</text>
</a>
</g>
</g>
<!-- Node3&#45;&gt;Node4 -->
<g id="edge1" class="edge">
<title>Node3&#45;&gt;Node4</title>
<path fill="none" stroke="#191970" d="M155.372,-125.5C163.8515,-125.5 172.4558,-125.5 180.9048,-125.5"/>
<polygon fill="#191970" stroke="#191970" points="155.1094,-122.0001 145.1094,-125.5 155.1094,-129.0001 155.1094,-122.0001"/>
</g>
<!-- Node5 -->
<g id="node3" class="node">
<title>Node5</title>
<g id="a_node3"><a xlink:href="class_format_handling_1_1_format_manager.html#a057615a4fa5e9644a81540ba526725a6" target="_top" xlink:title="Function that loads an alignment given a file path. It automatically detects the format of the file...">
<polygon fill="#ffffff" stroke="#000000" points="377,-176.5 377,-206.5 537,-206.5 537,-176.5 377,-176.5"/>
<text text-anchor="start" x="385" y="-194.5" font-family="Helvetica,sans-Serif" font-size="10.00" fill="#000000">FormatHandling::FormatManager</text>
<text text-anchor="middle" x="457" y="-183.5" font-family="Helvetica,sans-Serif" font-size="10.00" fill="#000000">::loadAlignment</text>
</a>
</g>
</g>
<!-- Node4&#45;&gt;Node5 -->
<g id="edge2" class="edge">
<title>Node4&#45;&gt;Node5</title>
<path fill="none" stroke="#191970" d="M315.5901,-143.8824C346.0518,-154.1399 383.5263,-166.7589 412.2429,-176.4287"/>
<polygon fill="#191970" stroke="#191970" points="316.5605,-140.5161 305.9664,-140.6417 314.3265,-147.1501 316.5605,-140.5161"/>
</g>
<!-- Node15 -->
<g id="node13" class="node">
<title>Node15</title>
<g id="a_node13"><a xlink:href="class_format_handling_1_1_format_manager.html#ad31c39b979311f79dda3f2ae097b5625" target="_top" xlink:title="Function to obtain the format name of a given file. ">
<polygon fill="#ffffff" stroke="#000000" points="377,-66.5 377,-96.5 537,-96.5 537,-66.5 377,-66.5"/>
<text text-anchor="start" x="385" y="-84.5" font-family="Helvetica,sans-Serif" font-size="10.00" fill="#000000">FormatHandling::FormatManager</text>
<text text-anchor="middle" x="457" y="-73.5" font-family="Helvetica,sans-Serif" font-size="10.00" fill="#000000">::getFileFormatName</text>
</a>
</g>
</g>
<!-- Node4&#45;&gt;Node15 -->
<g id="edge16" class="edge">
<title>Node4&#45;&gt;Node15</title>
<path fill="none" stroke="#191970" d="M337.923,-108.2316C355.1476,-104.3648 373.2841,-100.2934 390.0651,-96.5262"/>
<polygon fill="#191970" stroke="#191970" points="336.8944,-104.8753 327.9039,-110.4808 338.4277,-111.7053 336.8944,-104.8753"/>
</g>
<!-- Node6 -->
<g id="node4" class="node">
<title>Node6</title>
<g id="a_node4"><a xlink:href="class_format_handling_1_1_format_manager.html#a853678a6e07f67da8cf7b77795b297be" target="_top" xlink:title="Function that takes multiple files, loads them and saves in a cumulus of formats, using an outPattern...">
<polygon fill="#ffffff" stroke="#000000" points="573,-176.5 573,-206.5 736,-206.5 736,-176.5 573,-176.5"/>
<text text-anchor="start" x="581" y="-194.5" font-family="Helvetica,sans-Serif" font-size="10.00" fill="#000000">FormatHandling::FormatManager</text>
<text text-anchor="middle" x="654.5" y="-183.5" font-family="Helvetica,sans-Serif" font-size="10.00" fill="#000000">::loadAndSaveMultipleAlignments</text>
</a>
</g>
</g>
<!-- Node5&#45;&gt;Node6 -->
<g id="edge3" class="edge">
<title>Node5&#45;&gt;Node6</title>
<path fill="none" stroke="#191970" d="M547.3211,-191.5C555.7925,-191.5 564.3472,-191.5 572.7335,-191.5"/>
<polygon fill="#191970" stroke="#191970" points="547.0461,-188.0001 537.0461,-191.5 547.0461,-195.0001 547.0461,-188.0001"/>
</g>
<!-- Node7 -->
<g id="node5" class="node">
<title>Node7</title>
<g id="a_node5"><a xlink:href="read_al_main_8cpp.html#a0ddf1224851353fc92bfbff6f499fa97" target="_top" xlink:title="main">
<polygon fill="#ffffff" stroke="#000000" points="839,-138 839,-157 877,-157 877,-138 839,-138"/>
<text text-anchor="middle" x="858" y="-145" font-family="Helvetica,sans-Serif" font-size="10.00" fill="#000000">main</text>
</a>
</g>
</g>
<!-- Node5&#45;&gt;Node7 -->
<g id="edge5" class="edge">
<title>Node5&#45;&gt;Node7</title>
<path fill="none" stroke="#191970" d="M531.8857,-174.4764C545.5111,-171.816 559.6392,-169.3425 573,-167.5 672.5001,-153.7786 792.914,-149.2508 838.8977,-147.9575"/>
<polygon fill="#191970" stroke="#191970" points="531.1901,-171.0461 522.0712,-176.4402 532.5636,-177.9101 531.1901,-171.0461"/>
</g>
<!-- Node8 -->
<g id="node6" class="node">
<title>Node8</title>
<g id="a_node6"><a xlink:href="classstatistics_1_1_consistency.html#a8f7ddf54c5be583916b983ede82d5b88" target="_top" xlink:title="Method to compare a set of MSA, all containing the same sequences and residues. The number of residue...">
<polygon fill="#ffffff" stroke="#000000" points="596,-88.5 596,-118.5 713,-118.5 713,-88.5 596,-88.5"/>
<text text-anchor="start" x="604" y="-106.5" font-family="Helvetica,sans-Serif" font-size="10.00" fill="#000000">statistics::Consistency</text>
<text text-anchor="middle" x="654.5" y="-95.5" font-family="Helvetica,sans-Serif" font-size="10.00" fill="#000000">::perform</text>
</a>
</g>
</g>
<!-- Node5&#45;&gt;Node8 -->
<g id="edge6" class="edge">
<title>Node5&#45;&gt;Node8</title>
<path fill="none" stroke="#191970" d="M494.0754,-171.6446C516.605,-159.9115 546.1178,-145.1256 573,-133.5 585.0397,-128.2932 598.309,-123.1606 610.5815,-118.6531"/>
<polygon fill="#191970" stroke="#191970" points="492.418,-168.5615 485.1859,-176.3041 495.6679,-174.7615 492.418,-168.5615"/>
</g>
<!-- Node12 -->
<g id="node10" class="node">
<title>Node12</title>
<g id="a_node10"><a xlink:href="classtrim_al_manager.html#a9580aa82de8aba6794647a36c0416a33" target="_top" xlink:title="Method to parse the input file argument. ">
<polygon fill="#ffffff" stroke="#000000" points="788.5,-264 788.5,-283 927.5,-283 927.5,-264 788.5,-264"/>
<text text-anchor="middle" x="858" y="-271" font-family="Helvetica,sans-Serif" font-size="10.00" fill="#000000">trimAlManager::in_argument</text>
</a>
</g>
</g>
<!-- Node5&#45;&gt;Node12 -->
<g id="edge10" class="edge">
<title>Node5&#45;&gt;Node12</title>
<path fill="none" stroke="#191970" d="M500.3358,-210.6578C521.8161,-219.4479 548.3718,-229.2757 573,-235.5 645.2301,-253.7548 730.1097,-263.6404 788.3385,-268.7106"/>
<polygon fill="#191970" stroke="#191970" points="501.426,-207.3206 490.8488,-206.7089 498.736,-213.7831 501.426,-207.3206"/>
</g>
<!-- Node13 -->
<g id="node11" class="node">
<title>Node13</title>
<g id="a_node11"><a xlink:href="classtrim_al_manager.html#a63dad1ad106b0fa09351cd5981b37aeb" target="_top" xlink:title="Method to parse the force select argument. ">
<polygon fill="#ffffff" stroke="#000000" points="804.5,-214.5 804.5,-244.5 911.5,-244.5 911.5,-214.5 804.5,-214.5"/>
<text text-anchor="start" x="812.5" y="-232.5" font-family="Helvetica,sans-Serif" font-size="10.00" fill="#000000">trimAlManager::force</text>
<text text-anchor="middle" x="858" y="-221.5" font-family="Helvetica,sans-Serif" font-size="10.00" fill="#000000">_select_argument</text>
</a>
</g>
</g>
<!-- Node5&#45;&gt;Node13 -->
<g id="edge12" class="edge">
<title>Node5&#45;&gt;Node13</title>
<path fill="none" stroke="#191970" d="M527.6435,-208.6844C542.5433,-211.7566 558.2263,-214.5847 573,-216.5 653.1876,-226.896 747.0015,-229.3195 804.4541,-229.7111"/>
<polygon fill="#191970" stroke="#191970" points="527.9828,-205.1785 517.4741,-206.5266 526.5298,-212.0261 527.9828,-205.1785"/>
</g>
<!-- Node14 -->
<g id="node12" class="node">
<title>Node14</title>
<g id="a_node12"><a xlink:href="classtrim_al_manager.html#ae49bc2cb7f90419296da65a23df39c8d" target="_top" xlink:title="Method to parse the backtranslation argument. ">
<polygon fill="#ffffff" stroke="#000000" points="601,-302.5 601,-332.5 708,-332.5 708,-302.5 601,-302.5"/>
<text text-anchor="start" x="609" y="-320.5" font-family="Helvetica,sans-Serif" font-size="10.00" fill="#000000">trimAlManager::back</text>
<text text-anchor="middle" x="654.5" y="-309.5" font-family="Helvetica,sans-Serif" font-size="10.00" fill="#000000">_trans_argument</text>
</a>
</g>
</g>
<!-- Node5&#45;&gt;Node14 -->
<g id="edge14" class="edge">
<title>Node5&#45;&gt;Node14</title>
<path fill="none" stroke="#191970" d="M479.1034,-213.7457C501.252,-235.0302 537.123,-266.8618 573,-287.5 582.9327,-293.2138 594.1508,-298.179 605.0158,-302.3366"/>
<polygon fill="#191970" stroke="#191970" points="481.4691,-211.1639 471.864,-206.6926 476.5843,-216.1778 481.4691,-211.1639"/>
</g>
<!-- Node6&#45;&gt;Node7 -->
<g id="edge4" class="edge">
<title>Node6&#45;&gt;Node7</title>
<path fill="none" stroke="#191970" d="M734.0757,-174.2945C772.2459,-166.0414 814.7922,-156.8422 838.7865,-151.6543"/>
<polygon fill="#191970" stroke="#191970" points="732.9984,-170.9464 723.964,-176.4808 734.4778,-177.7883 732.9984,-170.9464"/>
</g>
<!-- Node9 -->
<g id="node7" class="node">
<title>Node9</title>
<g id="a_node7"><a xlink:href="classtrim_al_manager.html#a12b7cef964ef258fe7621da44867c51f" target="_top" xlink:title="Method to check if multiple files comparison has been set correctly. It also perform some calculation...">
<polygon fill="#ffffff" stroke="#000000" points="772,-97 772,-116 944,-116 944,-97 772,-97"/>
<text text-anchor="middle" x="858" y="-104" font-family="Helvetica,sans-Serif" font-size="10.00" fill="#000000">trimAlManager::performCompareset</text>
</a>
</g>
</g>
<!-- Node8&#45;&gt;Node9 -->
<g id="edge7" class="edge">
<title>Node8&#45;&gt;Node9</title>
<path fill="none" stroke="#191970" d="M723.1657,-104.5123C738.7848,-104.7425 755.5711,-104.99 771.8152,-105.2295"/>
<polygon fill="#191970" stroke="#191970" points="723.1382,-101.0116 713.0876,-104.3637 723.0349,-108.0108 723.1382,-101.0116"/>
</g>
<!-- Node10 -->
<g id="node8" class="node">
<title>Node10</title>
<g id="a_node8"><a xlink:href="classtrim_al_manager.html#af3b0625b6bcc6df5978e63530a5956e6" target="_top" xlink:title="Method to parse arguments into usable structure in trimal. ">
<polygon fill="#ffffff" stroke="#000000" points="985,-220 985,-239 1142,-239 1142,-220 985,-220"/>
<text text-anchor="middle" x="1063.5" y="-227" font-family="Helvetica,sans-Serif" font-size="10.00" fill="#000000">trimAlManager::parseArguments</text>
</a>
</g>
</g>
<!-- Node9&#45;&gt;Node10 -->
<g id="edge8" class="edge">
<title>Node9&#45;&gt;Node10</title>
<path fill="none" stroke="#191970" d="M920.9506,-119.0582C928.9173,-121.6667 936.7937,-124.7843 944,-128.5 991.5627,-153.0245 1036.6887,-199.6143 1054.9627,-219.7866"/>
<polygon fill="#191970" stroke="#191970" points="921.8118,-115.6623 911.227,-116.123 919.7889,-122.3636 921.8118,-115.6623"/>
</g>
<!-- Node11 -->
<g id="node9" class="node">
<title>Node11</title>
<g id="a_node9"><a xlink:href="trim_al_main_8cpp.html#a0ddf1224851353fc92bfbff6f499fa97" target="_top" xlink:title="main">
<polygon fill="#ffffff" stroke="#000000" points="1183,-138 1183,-157 1221,-157 1221,-138 1183,-138"/>
<text text-anchor="middle" x="1202" y="-145" font-family="Helvetica,sans-Serif" font-size="10.00" fill="#000000">main</text>
</a>
</g>
</g>
<!-- Node10&#45;&gt;Node11 -->
<g id="edge9" class="edge">
<title>Node10&#45;&gt;Node11</title>
<path fill="none" stroke="#191970" d="M1088.5485,-214.6698C1116.8356,-197.9223 1162.028,-171.1657 1185.9442,-157.006"/>
<polygon fill="#191970" stroke="#191970" points="1086.4806,-211.8267 1079.6588,-219.9331 1090.0468,-217.8501 1086.4806,-211.8267"/>
</g>
<!-- Node12&#45;&gt;Node10 -->
<g id="edge11" class="edge">
<title>Node12&#45;&gt;Node10</title>
<path fill="none" stroke="#191970" d="M912.6067,-261.808C945.8493,-254.6904 987.7787,-245.7128 1018.9966,-239.0287"/>
<polygon fill="#191970" stroke="#191970" points="911.636,-258.4365 902.5904,-263.9527 913.1016,-265.2813 911.636,-258.4365"/>
</g>
<!-- Node13&#45;&gt;Node10 -->
<g id="edge13" class="edge">
<title>Node13&#45;&gt;Node10</title>
<path fill="none" stroke="#191970" d="M921.928,-229.5C941.8769,-229.5 964.1147,-229.5 984.9457,-229.5"/>
<polygon fill="#191970" stroke="#191970" points="921.7243,-226.0001 911.7243,-229.5 921.7242,-233.0001 921.7243,-226.0001"/>
</g>
<!-- Node14&#45;&gt;Node10 -->
<g id="edge15" class="edge">
<title>Node14&#45;&gt;Node10</title>
<path fill="none" stroke="#191970" d="M718.244,-319.1871C777.8092,-319.0936 868.6167,-314.6391 944,-292.5 984.9549,-280.4721 1028.0762,-253.7041 1049.5836,-239.2339"/>
<polygon fill="#191970" stroke="#191970" points="718.2377,-315.6871 708.229,-319.1621 718.2202,-322.6871 718.2377,-315.6871"/>
</g>
<!-- Node15&#45;&gt;Node7 -->
<g id="edge17" class="edge">
<title>Node15&#45;&gt;Node7</title>
<path fill="none" stroke="#191970" d="M523.9873,-64.4795C582.975,-53.1618 669.5852,-45.7122 736,-78.5 759.5939,-90.1479 750.0456,-110.9966 772,-125.5 792.3169,-138.9217 820.3143,-144.1562 838.7724,-146.197"/>
<polygon fill="#191970" stroke="#191970" points="523.1527,-61.0771 514.0364,-66.4756 524.5294,-67.9404 523.1527,-61.0771"/>
</g>
<!-- Node15&#45;&gt;Node8 -->
<g id="edge18" class="edge">
<title>Node15&#45;&gt;Node8</title>
<path fill="none" stroke="#191970" d="M547.2652,-91.5549C563.7706,-93.3934 580.5945,-95.2675 595.8742,-96.9695"/>
<polygon fill="#191970" stroke="#191970" points="547.3721,-88.0452 537.0461,-90.4165 546.5971,-95.0022 547.3721,-88.0452"/>
</g>
<!-- Node16 -->
<g id="node14" class="node">
<title>Node16</title>
<g id="a_node14"><a xlink:href="classtrim_al_manager.html#af7c3b97a17c2f5750f9481cc60c17616" target="_top" xlink:title="Method to check if an output format has been given. If no output format has been given, it will use the inFile format. ">
<polygon fill="#ffffff" stroke="#000000" points="598.5,-.5 598.5,-30.5 710.5,-30.5 710.5,-.5 598.5,-.5"/>
<text text-anchor="start" x="606.5" y="-18.5" font-family="Helvetica,sans-Serif" font-size="10.00" fill="#000000">trimAlManager::check</text>
<text text-anchor="middle" x="654.5" y="-7.5" font-family="Helvetica,sans-Serif" font-size="10.00" fill="#000000">_output_format</text>
</a>
</g>
</g>
<!-- Node15&#45;&gt;Node16 -->
<g id="edge19" class="edge">
<title>Node15&#45;&gt;Node16</title>
<path fill="none" stroke="#191970" d="M512.0079,-63.1176C542.7027,-52.8601 580.464,-40.2411 609.4003,-30.5713"/>
<polygon fill="#191970" stroke="#191970" points="510.6856,-59.8692 502.3105,-66.3583 512.9043,-66.5083 510.6856,-59.8692"/>
</g>
<!-- Node17 -->
<g id="node15" class="node">
<title>Node17</title>
<g id="a_node15"><a xlink:href="classtrim_al_manager.html#a3f325b806727751394adb829d97b35f1" target="_top" xlink:title="Method that checks dependencies between arguments. Take in mind that dependencies may be between mult...">
<polygon fill="#ffffff" stroke="#000000" points="802,-22.5 802,-52.5 914,-52.5 914,-22.5 802,-22.5"/>
<text text-anchor="start" x="810" y="-40.5" font-family="Helvetica,sans-Serif" font-size="10.00" fill="#000000">trimAlManager::check</text>
<text text-anchor="middle" x="858" y="-29.5" font-family="Helvetica,sans-Serif" font-size="10.00" fill="#000000">_arguments_needs</text>
</a>
</g>
</g>
<!-- Node16&#45;&gt;Node17 -->
<g id="edge20" class="edge">
<title>Node16&#45;&gt;Node17</title>
<path fill="none" stroke="#191970" d="M720.84,-22.6719C746.9584,-25.4955 776.6333,-28.7036 801.6843,-31.4118"/>
<polygon fill="#191970" stroke="#191970" points="720.9643,-19.165 710.646,-21.5698 720.2118,-26.1245 720.9643,-19.165"/>
</g>
<!-- Node18 -->
<g id="node16" class="node">
<title>Node18</title>
<g id="a_node16"><a xlink:href="classtrim_al_manager.html#a748b08a1ec5cd214de804ed0d4234a6e" target="_top" xlink:title="Method to process the information obtained by trimAlManager::parseArguments It checks for argument in...">
<polygon fill="#ffffff" stroke="#000000" points="980,-119 980,-138 1147,-138 1147,-119 980,-119"/>
<text text-anchor="middle" x="1063.5" y="-126" font-family="Helvetica,sans-Serif" font-size="10.00" fill="#000000">trimAlManager::processArguments</text>
</a>
</g>
</g>
<!-- Node17&#45;&gt;Node18 -->
<g id="edge21" class="edge">
<title>Node17&#45;&gt;Node18</title>
<path fill="none" stroke="#191970" d="M901.3126,-56.6798C944.3505,-75.7379 1008.5922,-104.1856 1041.8328,-118.9053"/>
<polygon fill="#191970" stroke="#191970" points="902.4949,-53.3756 891.9341,-52.5268 899.6606,-59.7761 902.4949,-53.3756"/>
</g>
<!-- Node18&#45;&gt;Node11 -->
<g id="edge22" class="edge">
<title>Node18&#45;&gt;Node11</title>
<path fill="none" stroke="#191970" d="M1143.4243,-139.4643C1158.1531,-141.4849 1172.2219,-143.4149 1182.8785,-144.8768"/>
<polygon fill="#191970" stroke="#191970" points="1143.5387,-135.9473 1133.1558,-138.0557 1142.5873,-142.8824 1143.5387,-135.9473"/>
</g>
</g>
</svg>
