<?xml version="1.0" encoding="UTF-8" standalone="no"?>
<!DOCTYPE svg PUBLIC "-//W3C//DTD SVG 1.1//EN"
 "http://www.w3.org/Graphics/SVG/1.1/DTD/svg11.dtd">
<!-- Generated by graphviz version 2.38.0 (20140413.2041)
 -->
<!-- Title: Cleaner::cleanNoAllGaps Pages: 1 -->
<svg width="631pt" height="39pt"
 viewBox="0.00 0.00 631.00 39.00" xmlns="http://www.w3.org/2000/svg" xmlns:xlink="http://www.w3.org/1999/xlink">
<g id="graph0" class="graph" transform="scale(1 1) rotate(0) translate(4 35)">
<title>Cleaner::cleanNoAllGaps</title>
<polygon fill="white" stroke="none" points="-4,4 -4,-35 627,-35 627,4 -4,4"/>
<!-- Node163 -->
<g id="node1" class="node"><title>Node163</title>
<polygon fill="#bfbfbf" stroke="black" points="0,-6 0,-25 127,-25 127,-6 0,-6"/>
<text text-anchor="middle" x="63.5" y="-13" font-family="Helvetica,sans-Serif" font-size="10.00">Cleaner::cleanNoAllGaps</text>
</g>
<!-- Node164 -->
<g id="node2" class="node"><title>Node164</title>
<g id="a_node2"><a xlink:href="classtrim_al_manager.html#a10536f715945a1a45f1df33f7cedc81e" target="_top" xlink:title="Method to trim or reduce the number of sequences in an alignment. It performs one or none of the foll...">
<polygon fill="white" stroke="black" points="163,-6 163,-25 323,-25 323,-6 163,-6"/>
<text text-anchor="middle" x="243" y="-13" font-family="Helvetica,sans-Serif" font-size="10.00">trimAlManager::CleanSequences</text>
</a>
</g>
</g>
<!-- Node163&#45;&gt;Node164 -->
<g id="edge1" class="edge"><title>Node163&#45;&gt;Node164</title>
<path fill="none" stroke="midnightblue" d="M137.262,-15.5C145.709,-15.5 154.355,-15.5 162.882,-15.5"/>
<polygon fill="midnightblue" stroke="midnightblue" points="137.08,-12.0001 127.08,-15.5 137.08,-19.0001 137.08,-12.0001"/>
</g>
<!-- Node165 -->
<g id="node3" class="node"><title>Node165</title>
<g id="a_node3"><a xlink:href="classtrim_al_manager.html#adc529dd893ed4e9df6f3ddbd58776068" target="_top" xlink:title="Core Method of the program. This is where almost all cleaning methods are called from. ">
<polygon fill="white" stroke="black" points="359,-0.5 359,-30.5 468,-30.5 468,-0.5 359,-0.5"/>
<text text-anchor="start" x="367" y="-18.5" font-family="Helvetica,sans-Serif" font-size="10.00">trimAlManager::clean</text>
<text text-anchor="middle" x="413.5" y="-7.5" font-family="Helvetica,sans-Serif" font-size="10.00">_alignment</text>
</a>
</g>
</g>
<!-- Node164&#45;&gt;Node165 -->
<g id="edge2" class="edge"><title>Node164&#45;&gt;Node165</title>
<path fill="none" stroke="midnightblue" d="M333.409,-15.5C341.997,-15.5 350.513,-15.5 358.599,-15.5"/>
<polygon fill="midnightblue" stroke="midnightblue" points="333.316,-12.0001 323.316,-15.5 333.316,-19.0001 333.316,-12.0001"/>
</g>
<!-- Node166 -->
<g id="node4" class="node"><title>Node166</title>
<g id="a_node4"><a xlink:href="classtrim_al_manager.html#abe8d2841455c644dc9c7d1294b82b00f" target="_top" xlink:title="Method to perform the analysis if all checks have passed. ">
<polygon fill="white" stroke="black" points="504,-6 504,-25 623,-25 623,-6 504,-6"/>
<text text-anchor="middle" x="563.5" y="-13" font-family="Helvetica,sans-Serif" font-size="10.00">trimAlManager::perform</text>
</a>
</g>
</g>
<!-- Node165&#45;&gt;Node166 -->
<g id="edge3" class="edge"><title>Node165&#45;&gt;Node166</title>
<path fill="none" stroke="midnightblue" d="M478.532,-15.5C486.977,-15.5 495.597,-15.5 503.943,-15.5"/>
<polygon fill="midnightblue" stroke="midnightblue" points="478.35,-12.0001 468.35,-15.5 478.35,-19.0001 478.35,-12.0001"/>
</g>
</g>
</svg>
