<?xml version="1.0" encoding="UTF-8" standalone="no"?>
<!DOCTYPE svg PUBLIC "-//W3C//DTD SVG 1.1//EN"
 "http://www.w3.org/Graphics/SVG/1.1/DTD/svg11.dtd">
<!-- Generated by graphviz version 2.40.1 (20161225.0304)
 -->
<!-- Title: statistics::Gaps::Gaps Pages: 1 -->
<svg width="1976pt" height="718pt"
 viewBox="0.00 0.00 1976.00 717.50" xmlns="http://www.w3.org/2000/svg" xmlns:xlink="http://www.w3.org/1999/xlink">
<g id="graph0" class="graph" transform="scale(1 1) rotate(0) translate(4 713.5)">
<title>statistics::Gaps::Gaps</title>
<polygon fill="#ffffff" stroke="transparent" points="-4,4 -4,-713.5 1972,-713.5 1972,4 -4,4"/>
<!-- Node33 -->
<g id="node1" class="node">
<title>Node33</title>
<polygon fill="#bfbfbf" stroke="#000000" points="0,-152.5 0,-171.5 115,-171.5 115,-152.5 0,-152.5"/>
<text text-anchor="middle" x="57.5" y="-159.5" font-family="Helvetica,sans-Serif" font-size="10.00" fill="#000000">statistics::Gaps::Gaps</text>
</g>
<!-- Node34 -->
<g id="node2" class="node">
<title>Node34</title>
<g id="a_node2"><a xlink:href="classstatistics_1_1_manager.html#a1969a416d3020d25daa56de6c5e305db" target="_top" xlink:title="Method to handle gap stat calculation It checks if the gaps submodule has been created, otherwise, creates it. ">
<polygon fill="#ffffff" stroke="#000000" points="151,-147 151,-177 254,-177 254,-147 151,-147"/>
<text text-anchor="start" x="159" y="-165" font-family="Helvetica,sans-Serif" font-size="10.00" fill="#000000">statistics::Manager</text>
<text text-anchor="middle" x="202.5" y="-154" font-family="Helvetica,sans-Serif" font-size="10.00" fill="#000000">::calculateGapStats</text>
</a>
</g>
</g>
<!-- Node33&#45;&gt;Node34 -->
<g id="edge1" class="edge">
<title>Node33&#45;&gt;Node34</title>
<path fill="none" stroke="#191970" d="M125.4637,-162C133.917,-162 142.4528,-162 150.6092,-162"/>
<polygon fill="#191970" stroke="#191970" points="125.2245,-158.5001 115.2245,-162 125.2244,-165.5001 125.2245,-158.5001"/>
</g>
<!-- Node35 -->
<g id="node3" class="node">
<title>Node35</title>
<g id="a_node3"><a xlink:href="class_cleaner.html#af7c9e1a177424168fa4214aca9ebd8e2" target="_top" xlink:title="Method to trim an alignment based on the gap distribution values. Column blocks that don&#39;t have a min...">
<polygon fill="#ffffff" stroke="#000000" points="852,-114.5 852,-133.5 955,-133.5 955,-114.5 852,-114.5"/>
<text text-anchor="middle" x="903.5" y="-121.5" font-family="Helvetica,sans-Serif" font-size="10.00" fill="#000000">Cleaner::cleanGaps</text>
</a>
</g>
</g>
<!-- Node34&#45;&gt;Node35 -->
<g id="edge2" class="edge">
<title>Node34&#45;&gt;Node35</title>
<path fill="none" stroke="#191970" d="M264.2248,-151.1802C272.8597,-149.9426 281.6374,-148.8296 290,-148 497.3693,-127.4287 745.8044,-124.2802 851.647,-123.9409"/>
<polygon fill="#191970" stroke="#191970" points="263.5597,-147.7407 254.1872,-152.6809 264.5948,-154.6637 263.5597,-147.7407"/>
</g>
<!-- Node43 -->
<g id="node11" class="node">
<title>Node43</title>
<g id="a_node11"><a xlink:href="class_cleaner.html#a4718e31c0183b5a98751d77479faacf0" target="_top" xlink:title="Method to trim an alignment based on the similarity and gaps distribution values. ...">
<polygon fill="#ffffff" stroke="#000000" points="1059.5,-260.5 1059.5,-279.5 1139.5,-279.5 1139.5,-260.5 1059.5,-260.5"/>
<text text-anchor="middle" x="1099.5" y="-267.5" font-family="Helvetica,sans-Serif" font-size="10.00" fill="#000000">Cleaner::clean</text>
</a>
</g>
</g>
<!-- Node34&#45;&gt;Node43 -->
<g id="edge11" class="edge">
<title>Node34&#45;&gt;Node43</title>
<path fill="none" stroke="#191970" d="M264.2479,-162C332.7375,-162 446.5144,-162 544.5,-162 544.5,-162 544.5,-162 724.5,-162 836.1531,-162 870.4886,-141.7091 975,-181 993.7207,-188.038 994.8077,-196.2607 1011,-208 1037.1237,-226.9395 1068.094,-248.4168 1085.6056,-260.4722"/>
<polygon fill="#191970" stroke="#191970" points="264.0665,-158.5001 254.0665,-162 264.0665,-165.5001 264.0665,-158.5001"/>
</g>
<!-- Node44 -->
<g id="node12" class="node">
<title>Node44</title>
<g id="a_node12"><a xlink:href="class_cleaner.html#aa57106470d2104a925b9396b8a9f33b3" target="_top" xlink:title="Method that carries the gappyout approach. This methods calculates the slope in gaps distribution on ...">
<polygon fill="#ffffff" stroke="#000000" points="664.5,-76.5 664.5,-95.5 784.5,-95.5 784.5,-76.5 664.5,-76.5"/>
<text text-anchor="middle" x="724.5" y="-83.5" font-family="Helvetica,sans-Serif" font-size="10.00" fill="#000000">Cleaner::clean2ndSlope</text>
</a>
</g>
</g>
<!-- Node34&#45;&gt;Node44 -->
<g id="edge13" class="edge">
<title>Node34&#45;&gt;Node44</title>
<path fill="none" stroke="#191970" d="M230.2515,-140.7853C246.6906,-129.4708 268.4631,-116.5607 290,-110 418.8216,-70.7578 578.9027,-74.5278 664.2569,-80.4375"/>
<polygon fill="#191970" stroke="#191970" points="227.8292,-138.2127 221.7027,-146.8566 231.8824,-143.9199 227.8292,-138.2127"/>
</g>
<!-- Node45 -->
<g id="node13" class="node">
<title>Node45</title>
<g id="a_node13"><a xlink:href="class_cleaner.html#a3af7bde2142886d6d723c95694b7b9ba" target="_top" xlink:title="Method to remove columns composed only by gaps This method is specially useful when we remove missali...">
<polygon fill="#ffffff" stroke="#000000" points="840,-38.5 840,-57.5 967,-57.5 967,-38.5 840,-38.5"/>
<text text-anchor="middle" x="903.5" y="-45.5" font-family="Helvetica,sans-Serif" font-size="10.00" fill="#000000">Cleaner::cleanNoAllGaps</text>
</a>
</g>
</g>
<!-- Node34&#45;&gt;Node45 -->
<g id="edge15" class="edge">
<title>Node34&#45;&gt;Node45</title>
<path fill="none" stroke="#191970" d="M219.2563,-138.6786C235.0084,-118.8427 260.529,-91.6254 290,-79 387.4167,-37.2664 703.3558,-41.6489 839.7926,-45.6962"/>
<polygon fill="#191970" stroke="#191970" points="216.4383,-136.6018 213.1205,-146.6638 221.9889,-140.8669 216.4383,-136.6018"/>
</g>
<!-- Node47 -->
<g id="node15" class="node">
<title>Node47</title>
<g id="a_node15"><a xlink:href="class_cleaner.html#ab7f5b746b97697181f4cd06063cbb49a" target="_top" xlink:title="Method to detect right and left borders. Borders are the first column found with no gaps...">
<polygon fill="#ffffff" stroke="#000000" points="290,-.5 290,-19.5 436,-19.5 436,-.5 290,-.5"/>
<text text-anchor="middle" x="363" y="-7.5" font-family="Helvetica,sans-Serif" font-size="10.00" fill="#000000">Cleaner::removeOnlyTerminal</text>
</a>
</g>
</g>
<!-- Node34&#45;&gt;Node47 -->
<g id="edge19" class="edge">
<title>Node34&#45;&gt;Node47</title>
<path fill="none" stroke="#191970" d="M213.1131,-137.6566C226.8466,-108.8931 253.4243,-61.4832 290,-34 298.3191,-27.7489 308.3457,-23.0791 318.267,-19.6072"/>
<polygon fill="#191970" stroke="#191970" points="209.8176,-136.4443 208.7957,-146.9897 216.1707,-139.3832 209.8176,-136.4443"/>
</g>
<!-- Node49 -->
<g id="node17" class="node">
<title>Node49</title>
<g id="a_node17"><a xlink:href="classstatistics_1_1_manager.html#a92505ca5aedc5b45c4300a0e8a7d1e17" target="_top" xlink:title="Method to handle similarity stat calculation It checks if the similarity submodule has been created...">
<polygon fill="#ffffff" stroke="#000000" points="653,-362 653,-392 796,-392 796,-362 653,-362"/>
<text text-anchor="start" x="661" y="-380" font-family="Helvetica,sans-Serif" font-size="10.00" fill="#000000">statistics::Manager</text>
<text text-anchor="middle" x="724.5" y="-369" font-family="Helvetica,sans-Serif" font-size="10.00" fill="#000000">::calculateConservationStats</text>
</a>
</g>
</g>
<!-- Node34&#45;&gt;Node49 -->
<g id="edge23" class="edge">
<title>Node34&#45;&gt;Node49</title>
<path fill="none" stroke="#191970" d="M208.1717,-187.2274C217.9712,-224.5275 241.8275,-293.6693 290,-328 397.7209,-404.7686 560.1037,-399.7318 652.8281,-388.6865"/>
<polygon fill="#191970" stroke="#191970" points="211.4819,-186.0354 205.6707,-177.1764 204.689,-187.7257 211.4819,-186.0354"/>
</g>
<!-- Node55 -->
<g id="node23" class="node">
<title>Node55</title>
<g id="a_node23"><a xlink:href="classstatistics_1_1_manager.html#a48e846c0c59f08e43e5483a8eaa2e586" target="_top" xlink:title="Wrapper to Statistics::Gaps::printGapsColumns() It calls to calculateGapStats() to make sure the info...">
<polygon fill="#ffffff" stroke="#000000" points="472,-679 472,-709 617,-709 617,-679 472,-679"/>
<text text-anchor="start" x="480" y="-697" font-family="Helvetica,sans-Serif" font-size="10.00" fill="#000000">statistics::Manager</text>
<text text-anchor="middle" x="544.5" y="-686" font-family="Helvetica,sans-Serif" font-size="10.00" fill="#000000">::printStatisticsGapsColumns</text>
</a>
</g>
</g>
<!-- Node34&#45;&gt;Node55 -->
<g id="edge34" class="edge">
<title>Node34&#45;&gt;Node55</title>
<path fill="none" stroke="#191970" d="M204.7106,-187.0938C210.5792,-242.5076 230.4165,-377.8647 290,-472 351.3043,-568.8541 467.3989,-647.2479 518.8479,-678.8919"/>
<polygon fill="#191970" stroke="#191970" points="208.1904,-186.7162 203.7155,-177.1128 201.2249,-187.4107 208.1904,-186.7162"/>
</g>
<!-- Node56 -->
<g id="node24" class="node">
<title>Node56</title>
<g id="a_node24"><a xlink:href="classstatistics_1_1_manager.html#ab93622daa40044bfb03ae1e1e1eabb89" target="_top" xlink:title="Wrapper to Statistics::Gaps::printGapsAcl() It calls to calculateGapStats() to make sure the informat...">
<polygon fill="#ffffff" stroke="#000000" points="480.5,-557 480.5,-587 608.5,-587 608.5,-557 480.5,-557"/>
<text text-anchor="start" x="488.5" y="-575" font-family="Helvetica,sans-Serif" font-size="10.00" fill="#000000">statistics::Manager</text>
<text text-anchor="middle" x="544.5" y="-564" font-family="Helvetica,sans-Serif" font-size="10.00" fill="#000000">::printStatisticsGapsTotal</text>
</a>
</g>
</g>
<!-- Node34&#45;&gt;Node56 -->
<g id="edge36" class="edge">
<title>Node34&#45;&gt;Node56</title>
<path fill="none" stroke="#191970" d="M206.5537,-187.1895C215.0423,-233.3817 238.3437,-332.9514 290,-399 350.396,-476.2233 454.9702,-531.6268 509.3577,-556.814"/>
<polygon fill="#191970" stroke="#191970" points="209.9682,-186.3975 204.7907,-177.1539 203.0738,-187.6087 209.9682,-186.3975"/>
</g>
<!-- Node57 -->
<g id="node25" class="node">
<title>Node57</title>
<g id="a_node25"><a xlink:href="classstatistics_1_1_similarity.html#ae69ec0e79912ae23c8cfe97358c4794d" target="_top" xlink:title="Method to calculate the similarity values of a alignment matrix. ">
<polygon fill="#ffffff" stroke="#000000" points="311.5,-288 311.5,-318 414.5,-318 414.5,-288 311.5,-288"/>
<text text-anchor="start" x="319.5" y="-306" font-family="Helvetica,sans-Serif" font-size="10.00" fill="#000000">statistics::Similarity</text>
<text text-anchor="middle" x="363" y="-295" font-family="Helvetica,sans-Serif" font-size="10.00" fill="#000000">::calculateVectors</text>
</a>
</g>
</g>
<!-- Node34&#45;&gt;Node57 -->
<g id="edge38" class="edge">
<title>Node34&#45;&gt;Node57</title>
<path fill="none" stroke="#191970" d="M227.4574,-183.9251C260.2144,-212.7024 316.8913,-262.4933 345.4606,-287.5916"/>
<polygon fill="#191970" stroke="#191970" points="229.499,-181.06 219.6763,-177.0895 224.879,-186.3189 229.499,-181.06"/>
</g>
<!-- Node36 -->
<g id="node4" class="node">
<title>Node36</title>
<g id="a_node4"><a xlink:href="classtrim_al_manager.html#a69082911b30a1bd12395bb235bc18a34" target="_top" xlink:title="Method to trim the alignment using automatic or semi&#45;automatic methods: ">
<polygon fill="#ffffff" stroke="#000000" points="1013,-114.5 1013,-133.5 1186,-133.5 1186,-114.5 1013,-114.5"/>
<text text-anchor="middle" x="1099.5" y="-121.5" font-family="Helvetica,sans-Serif" font-size="10.00" fill="#000000">trimAlManager::CleanResiduesAuto</text>
</a>
</g>
</g>
<!-- Node35&#45;&gt;Node36 -->
<g id="edge3" class="edge">
<title>Node35&#45;&gt;Node36</title>
<path fill="none" stroke="#191970" d="M965.4592,-124C980.5375,-124 996.9382,-124 1012.9276,-124"/>
<polygon fill="#191970" stroke="#191970" points="965.2531,-120.5001 955.2531,-124 965.253,-127.5001 965.2531,-120.5001"/>
</g>
<!-- Node42 -->
<g id="node10" class="node">
<title>Node42</title>
<g id="a_node10"><a xlink:href="classtrim_al_manager.html#aebfd21b0435302f0e4fc45a068d1b6ee" target="_top" xlink:title="Method to trim the alignment using non automatic methods: ">
<polygon fill="#ffffff" stroke="#000000" points="1228,-255 1228,-285 1380,-285 1380,-255 1228,-255"/>
<text text-anchor="start" x="1236" y="-273" font-family="Helvetica,sans-Serif" font-size="10.00" fill="#000000">trimAlManager::CleanResidues</text>
<text text-anchor="middle" x="1304" y="-262" font-family="Helvetica,sans-Serif" font-size="10.00" fill="#000000">NonAuto</text>
</a>
</g>
</g>
<!-- Node35&#45;&gt;Node42 -->
<g id="edge9" class="edge">
<title>Node35&#45;&gt;Node42</title>
<path fill="none" stroke="#191970" d="M942.5861,-136.8742C953.1309,-140.4144 964.5209,-144.2993 975,-148 1080.119,-185.1223 1203.0702,-231.5135 1264.6431,-254.9524"/>
<polygon fill="#191970" stroke="#191970" points="943.386,-133.4514 932.7923,-133.6029 941.1683,-140.0908 943.386,-133.4514"/>
</g>
<!-- Node37 -->
<g id="node5" class="node">
<title>Node37</title>
<g id="a_node5"><a xlink:href="classtrim_al_manager.html#adc529dd893ed4e9df6f3ddbd58776068" target="_top" xlink:title="Core Method of the program. This is where almost all cleaning methods are called from. ">
<polygon fill="#ffffff" stroke="#000000" points="1435,-255 1435,-285 1544,-285 1544,-255 1435,-255"/>
<text text-anchor="start" x="1443" y="-273" font-family="Helvetica,sans-Serif" font-size="10.00" fill="#000000">trimAlManager::clean</text>
<text text-anchor="middle" x="1489.5" y="-262" font-family="Helvetica,sans-Serif" font-size="10.00" fill="#000000">_alignment</text>
</a>
</g>
</g>
<!-- Node36&#45;&gt;Node37 -->
<g id="edge4" class="edge">
<title>Node36&#45;&gt;Node37</title>
<path fill="none" stroke="#191970" d="M1133.3865,-137.2981C1191.7231,-160.1015 1314.9826,-207.8903 1420,-246 1428.1596,-248.961 1436.8882,-252.0424 1445.3076,-254.9712"/>
<polygon fill="#191970" stroke="#191970" points="1134.5178,-133.9825 1123.93,-133.5981 1131.9672,-140.5012 1134.5178,-133.9825"/>
</g>
<!-- Node38 -->
<g id="node6" class="node">
<title>Node38</title>
<g id="a_node6"><a xlink:href="classtrim_al_manager.html#a7c641a1feff33d401b4ea5c82e989289" target="_top" xlink:title="trimAlManager::innerPerform">
<polygon fill="#ffffff" stroke="#000000" points="1596.5,-348.5 1596.5,-367.5 1737.5,-367.5 1737.5,-348.5 1596.5,-348.5"/>
<text text-anchor="middle" x="1667" y="-355.5" font-family="Helvetica,sans-Serif" font-size="10.00" fill="#000000">trimAlManager::innerPerform</text>
</a>
</g>
</g>
<!-- Node37&#45;&gt;Node38 -->
<g id="edge5" class="edge">
<title>Node37&#45;&gt;Node38</title>
<path fill="none" stroke="#191970" d="M1529.0184,-289.5922C1565.9487,-307.9013 1619.5158,-334.4585 1647.8159,-348.489"/>
<polygon fill="#191970" stroke="#191970" points="1530.5274,-286.4338 1520.0133,-285.1277 1527.4181,-292.7054 1530.5274,-286.4338"/>
</g>
<!-- Node41 -->
<g id="node9" class="node">
<title>Node41</title>
<g id="a_node9"><a xlink:href="classtrim_al_manager.html#ac5795f93b3a2b51bf5d8dddd63b89f73" target="_top" xlink:title="trimAlManager::perform_VCF">
<polygon fill="#ffffff" stroke="#000000" points="1595,-282.5 1595,-301.5 1739,-301.5 1739,-282.5 1595,-282.5"/>
<text text-anchor="middle" x="1667" y="-289.5" font-family="Helvetica,sans-Serif" font-size="10.00" fill="#000000">trimAlManager::perform_VCF</text>
</a>
</g>
</g>
<!-- Node37&#45;&gt;Node41 -->
<g id="edge8" class="edge">
<title>Node37&#45;&gt;Node41</title>
<path fill="none" stroke="#191970" d="M1554.1432,-278.0121C1567.3655,-279.6509 1581.3602,-281.3855 1594.8269,-283.0546"/>
<polygon fill="#191970" stroke="#191970" points="1554.5588,-274.5369 1544.2042,-276.7802 1553.6977,-281.4838 1554.5588,-274.5369"/>
</g>
<!-- Node39 -->
<g id="node7" class="node">
<title>Node39</title>
<g id="a_node7"><a xlink:href="classtrim_al_manager.html#abe8d2841455c644dc9c7d1294b82b00f" target="_top" xlink:title="Method to perform the analysis if all checks have passed. ">
<polygon fill="#ffffff" stroke="#000000" points="1775,-348.5 1775,-367.5 1894,-367.5 1894,-348.5 1775,-348.5"/>
<text text-anchor="middle" x="1834.5" y="-355.5" font-family="Helvetica,sans-Serif" font-size="10.00" fill="#000000">trimAlManager::perform</text>
</a>
</g>
</g>
<!-- Node38&#45;&gt;Node39 -->
<g id="edge6" class="edge">
<title>Node38&#45;&gt;Node39</title>
<path fill="none" stroke="#191970" d="M1747.8102,-358C1756.9363,-358 1766.1089,-358 1774.8939,-358"/>
<polygon fill="#191970" stroke="#191970" points="1747.5497,-354.5001 1737.5496,-358 1747.5496,-361.5001 1747.5497,-354.5001"/>
</g>
<!-- Node40 -->
<g id="node8" class="node">
<title>Node40</title>
<g id="a_node8"><a xlink:href="trim_al_main_8cpp.html#a0ddf1224851353fc92bfbff6f499fa97" target="_top" xlink:title="main">
<polygon fill="#ffffff" stroke="#000000" points="1930,-348.5 1930,-367.5 1968,-367.5 1968,-348.5 1930,-348.5"/>
<text text-anchor="middle" x="1949" y="-355.5" font-family="Helvetica,sans-Serif" font-size="10.00" fill="#000000">main</text>
</a>
</g>
</g>
<!-- Node39&#45;&gt;Node40 -->
<g id="edge7" class="edge">
<title>Node39&#45;&gt;Node40</title>
<path fill="none" stroke="#191970" d="M1904.3198,-358C1913.6177,-358 1922.4503,-358 1929.7697,-358"/>
<polygon fill="#191970" stroke="#191970" points="1904.0976,-354.5001 1894.0976,-358 1904.0975,-361.5001 1904.0976,-354.5001"/>
</g>
<!-- Node42&#45;&gt;Node37 -->
<g id="edge10" class="edge">
<title>Node42&#45;&gt;Node37</title>
<path fill="none" stroke="#191970" d="M1390.6131,-270C1405.6558,-270 1420.9147,-270 1434.7978,-270"/>
<polygon fill="#191970" stroke="#191970" points="1390.253,-266.5001 1380.253,-270 1390.253,-273.5001 1390.253,-266.5001"/>
</g>
<!-- Node43&#45;&gt;Node42 -->
<g id="edge12" class="edge">
<title>Node43&#45;&gt;Node42</title>
<path fill="none" stroke="#191970" d="M1149.9518,-270C1173.3701,-270 1201.7144,-270 1227.6723,-270"/>
<polygon fill="#191970" stroke="#191970" points="1149.9027,-266.5001 1139.9026,-270 1149.9026,-273.5001 1149.9027,-266.5001"/>
</g>
<!-- Node44&#45;&gt;Node36 -->
<g id="edge14" class="edge">
<title>Node44&#45;&gt;Node36</title>
<path fill="none" stroke="#191970" d="M794.7138,-89.899C845.0059,-93.0394 914.2905,-98.0753 975,-105 997.3757,-107.5522 1021.9001,-111.1265 1043.2219,-114.4871"/>
<polygon fill="#191970" stroke="#191970" points="794.7948,-86.3974 784.5988,-89.2769 794.3651,-93.3842 794.7948,-86.3974"/>
</g>
<!-- Node45&#45;&gt;Node36 -->
<g id="edge16" class="edge">
<title>Node45&#45;&gt;Node36</title>
<path fill="none" stroke="#191970" d="M943.2552,-60.7806C953.6397,-64.2727 964.7838,-68.1575 975,-72 1011.395,-85.6886 1052.9389,-103.4893 1077.6512,-114.3136"/>
<polygon fill="#191970" stroke="#191970" points="944.1803,-57.3999 933.5868,-57.567 941.9723,-64.0425 944.1803,-57.3999"/>
</g>
<!-- Node46 -->
<g id="node14" class="node">
<title>Node46</title>
<g id="a_node14"><a xlink:href="classtrim_al_manager.html#a10536f715945a1a45f1df33f7cedc81e" target="_top" xlink:title="Method to trim or reduce the number of sequences in an alignment. It performs one or none of the foll...">
<polygon fill="#ffffff" stroke="#000000" points="1224,-127.5 1224,-146.5 1384,-146.5 1384,-127.5 1224,-127.5"/>
<text text-anchor="middle" x="1304" y="-134.5" font-family="Helvetica,sans-Serif" font-size="10.00" fill="#000000">trimAlManager::CleanSequences</text>
</a>
</g>
</g>
<!-- Node45&#45;&gt;Node46 -->
<g id="edge17" class="edge">
<title>Node45&#45;&gt;Node46</title>
<path fill="none" stroke="#191970" d="M967.0566,-59.3882C1024.9006,-70.0715 1112.5268,-87.0535 1188,-105 1216.4542,-111.766 1248.479,-120.702 1271.6592,-127.411"/>
<polygon fill="#191970" stroke="#191970" points="967.4368,-55.8995 956.9686,-57.5331 966.1707,-62.784 967.4368,-55.8995"/>
</g>
<!-- Node46&#45;&gt;Node37 -->
<g id="edge18" class="edge">
<title>Node46&#45;&gt;Node37</title>
<path fill="none" stroke="#191970" d="M1368.8814,-150.8243C1374.3538,-153.6156 1379.5039,-156.9697 1384,-161 1414.5495,-188.3841 1390.0189,-217.9947 1420,-246 1424.3844,-250.0954 1429.5015,-253.496 1434.9345,-256.3189"/>
<polygon fill="#191970" stroke="#191970" points="1369.987,-147.4861 1359.4262,-146.638 1367.1531,-153.8868 1369.987,-147.4861"/>
</g>
<!-- Node48 -->
<g id="node16" class="node">
<title>Node48</title>
<g id="a_node16"><a xlink:href="classtrim_al_manager.html#a8ed19b851162fa24a1da66f7e54099e3" target="_top" xlink:title="trimAlManager::postprocess\l_alignment">
<polygon fill="#ffffff" stroke="#000000" points="1420,-206 1420,-236 1559,-236 1559,-206 1420,-206"/>
<text text-anchor="start" x="1428" y="-224" font-family="Helvetica,sans-Serif" font-size="10.00" fill="#000000">trimAlManager::postprocess</text>
<text text-anchor="middle" x="1489.5" y="-213" font-family="Helvetica,sans-Serif" font-size="10.00" fill="#000000">_alignment</text>
</a>
</g>
</g>
<!-- Node47&#45;&gt;Node48 -->
<g id="edge20" class="edge">
<title>Node47&#45;&gt;Node48</title>
<path fill="none" stroke="#191970" d="M446.1386,-10C519.4093,-10 629.0438,-10 724.5,-10 724.5,-10 724.5,-10 1099.5,-10 1234.7487,-10 1269.9962,-45.231 1384,-118 1422.8382,-142.7905 1459.2178,-183.641 1477.3951,-205.7111"/>
<polygon fill="#191970" stroke="#191970" points="446.0464,-6.5001 436.0464,-10 446.0464,-13.5001 446.0464,-6.5001"/>
</g>
<!-- Node48&#45;&gt;Node38 -->
<g id="edge21" class="edge">
<title>Node48&#45;&gt;Node38</title>
<path fill="none" stroke="#191970" d="M1552.774,-241.3009C1554.9491,-242.7632 1557.0348,-244.3274 1559,-246 1584.148,-267.4044 1572.5107,-286.8173 1595,-311 1609.9436,-327.0688 1631.4657,-340.1807 1647.0841,-348.4333"/>
<polygon fill="#191970" stroke="#191970" points="1554.4019,-238.1979 1544.0067,-236.1506 1550.8563,-244.2336 1554.4019,-238.1979"/>
</g>
<!-- Node48&#45;&gt;Node41 -->
<g id="edge22" class="edge">
<title>Node48&#45;&gt;Node41</title>
<path fill="none" stroke="#191970" d="M1542.1836,-239.5904C1547.8768,-241.7065 1553.5707,-243.8693 1559,-246 1589.354,-257.9123 1623.953,-272.903 1645.6337,-282.4708"/>
<polygon fill="#191970" stroke="#191970" points="1543.2435,-236.2511 1532.6499,-236.0869 1540.8289,-242.8215 1543.2435,-236.2511"/>
</g>
<!-- Node49&#45;&gt;Node43 -->
<g id="edge26" class="edge">
<title>Node49&#45;&gt;Node43</title>
<path fill="none" stroke="#191970" d="M785.8634,-359.1382C800.9379,-354.7962 817.0423,-350.1961 832,-346 895.4282,-328.2063 911.6446,-325.0511 975,-307 1006.7698,-297.9482 1042.9503,-287.1394 1068.0891,-279.5489"/>
<polygon fill="#191970" stroke="#191970" points="784.766,-355.812 776.1284,-361.9474 786.7068,-362.5376 784.766,-355.812"/>
</g>
<!-- Node50 -->
<g id="node18" class="node">
<title>Node50</title>
<g id="a_node18"><a xlink:href="class_cleaner.html#a9cdbd6ebf78a284dd065b31319795b0c" target="_top" xlink:title="Method to trim an alignment based on the similarity distribution values. ">
<polygon fill="#ffffff" stroke="#000000" points="1031,-326.5 1031,-345.5 1168,-345.5 1168,-326.5 1031,-326.5"/>
<text text-anchor="middle" x="1099.5" y="-333.5" font-family="Helvetica,sans-Serif" font-size="10.00" fill="#000000">Cleaner::cleanConservation</text>
</a>
</g>
</g>
<!-- Node49&#45;&gt;Node50 -->
<g id="edge24" class="edge">
<title>Node49&#45;&gt;Node50</title>
<path fill="none" stroke="#191970" d="M806.4782,-368.0371C873.6022,-360.6982 967.4798,-350.4342 1030.7307,-343.5188"/>
<polygon fill="#191970" stroke="#191970" points="805.9204,-364.5771 796.3601,-369.1433 806.6813,-371.5356 805.9204,-364.5771"/>
</g>
<!-- Node51 -->
<g id="node19" class="node">
<title>Node51</title>
<g id="a_node19"><a xlink:href="class_cleaner.html#a6727a235afa29f08a50716f28fa5c8fc" target="_top" xlink:title="Method to clean an alignment. It carries out strict and strictplus. The method: ">
<polygon fill="#ffffff" stroke="#000000" points="832,-190.5 832,-209.5 975,-209.5 975,-190.5 832,-190.5"/>
<text text-anchor="middle" x="903.5" y="-197.5" font-family="Helvetica,sans-Serif" font-size="10.00" fill="#000000">Cleaner::cleanCombMethods</text>
</a>
</g>
</g>
<!-- Node49&#45;&gt;Node51 -->
<g id="edge27" class="edge">
<title>Node49&#45;&gt;Node51</title>
<path fill="none" stroke="#191970" d="M779.5236,-356.9276C785.5467,-353.2431 791.217,-348.9582 796,-344 824.768,-314.1782 807.1598,-291.1648 832,-258 847.427,-237.4029 871.7297,-219.7728 887.6423,-209.5243"/>
<polygon fill="#191970" stroke="#191970" points="777.5717,-354.0072 770.5091,-361.9047 780.9552,-360.1352 777.5717,-354.0072"/>
</g>
<!-- Node52 -->
<g id="node20" class="node">
<title>Node52</title>
<g id="a_node20"><a xlink:href="classstatistics_1_1_manager.html#a080c687f8f355900511485eeec32a659" target="_top" xlink:title="Wrapper to Statistics::Similarity::printConservationAcl() It calls to calculateConservationStats() to...">
<polygon fill="#ffffff" stroke="#000000" points="833.5,-604.5 833.5,-645.5 973.5,-645.5 973.5,-604.5 833.5,-604.5"/>
<text text-anchor="start" x="841.5" y="-633.5" font-family="Helvetica,sans-Serif" font-size="10.00" fill="#000000">statistics::Manager</text>
<text text-anchor="start" x="841.5" y="-622.5" font-family="Helvetica,sans-Serif" font-size="10.00" fill="#000000">::printStatisticsConservation</text>
<text text-anchor="middle" x="903.5" y="-611.5" font-family="Helvetica,sans-Serif" font-size="10.00" fill="#000000">Columns</text>
</a>
</g>
</g>
<!-- Node49&#45;&gt;Node52 -->
<g id="edge29" class="edge">
<title>Node49&#45;&gt;Node52</title>
<path fill="none" stroke="#191970" d="M730.5607,-401.8683C742.595,-446.3423 773.5312,-539.9853 832,-595 835.7255,-598.5054 839.9204,-601.6312 844.3633,-604.4127"/>
<polygon fill="#191970" stroke="#191970" points="733.9399,-400.9562 728.0263,-392.1653 727.1671,-402.7253 733.9399,-400.9562"/>
</g>
<!-- Node54 -->
<g id="node22" class="node">
<title>Node54</title>
<g id="a_node22"><a xlink:href="classstatistics_1_1_manager.html#aa20cfb477826035386ea988e3706b09a" target="_top" xlink:title="Wrapper to Statistics::Similarity::printGapsTotal() It calls to calculateConservationStats() to make ...">
<polygon fill="#ffffff" stroke="#000000" points="833.5,-544.5 833.5,-585.5 973.5,-585.5 973.5,-544.5 833.5,-544.5"/>
<text text-anchor="start" x="841.5" y="-573.5" font-family="Helvetica,sans-Serif" font-size="10.00" fill="#000000">statistics::Manager</text>
<text text-anchor="start" x="841.5" y="-562.5" font-family="Helvetica,sans-Serif" font-size="10.00" fill="#000000">::printStatisticsConservation</text>
<text text-anchor="middle" x="903.5" y="-551.5" font-family="Helvetica,sans-Serif" font-size="10.00" fill="#000000">Total</text>
</a>
</g>
</g>
<!-- Node49&#45;&gt;Node54 -->
<g id="edge32" class="edge">
<title>Node49&#45;&gt;Node54</title>
<path fill="none" stroke="#191970" d="M736.5355,-401.297C753.8098,-434.1156 788.4095,-492.7769 832,-530 838.3061,-535.3849 845.5838,-540.1682 853.0312,-544.3362"/>
<polygon fill="#191970" stroke="#191970" points="739.63,-399.6613 731.9345,-392.3792 733.4092,-402.8709 739.63,-399.6613"/>
</g>
<!-- Node50&#45;&gt;Node42 -->
<g id="edge25" class="edge">
<title>Node50&#45;&gt;Node42</title>
<path fill="none" stroke="#191970" d="M1138.7761,-323.3241C1172.5654,-312.419 1221.3803,-296.6645 1257.1908,-285.1071"/>
<polygon fill="#191970" stroke="#191970" points="1137.6777,-320.0007 1129.2361,-326.403 1139.8277,-326.6624 1137.6777,-320.0007"/>
</g>
<!-- Node51&#45;&gt;Node36 -->
<g id="edge28" class="edge">
<title>Node51&#45;&gt;Node36</title>
<path fill="none" stroke="#191970" d="M937.7424,-186.7223C976.9556,-171.5172 1040.2326,-146.9812 1074.878,-133.5473"/>
<polygon fill="#191970" stroke="#191970" points="936.3818,-183.4959 928.3235,-190.3745 938.9125,-190.0225 936.3818,-183.4959"/>
</g>
<!-- Node53 -->
<g id="node21" class="node">
<title>Node53</title>
<g id="a_node21"><a xlink:href="classtrim_al_manager.html#afc48b86f5ae35b9a5e721b65c58bf610" target="_top" xlink:title="Method to print statistics requested. ">
<polygon fill="#ffffff" stroke="#000000" points="1047.5,-610 1047.5,-640 1151.5,-640 1151.5,-610 1047.5,-610"/>
<text text-anchor="start" x="1055.5" y="-628" font-family="Helvetica,sans-Serif" font-size="10.00" fill="#000000">trimAlManager::print</text>
<text text-anchor="middle" x="1099.5" y="-617" font-family="Helvetica,sans-Serif" font-size="10.00" fill="#000000">_statistics</text>
</a>
</g>
</g>
<!-- Node52&#45;&gt;Node53 -->
<g id="edge30" class="edge">
<title>Node52&#45;&gt;Node53</title>
<path fill="none" stroke="#191970" d="M983.7857,-625C1005.2203,-625 1027.8243,-625 1047.3104,-625"/>
<polygon fill="#191970" stroke="#191970" points="983.7069,-621.5001 973.7069,-625 983.7069,-628.5001 983.7069,-621.5001"/>
</g>
<!-- Node53&#45;&gt;Node38 -->
<g id="edge31" class="edge">
<title>Node53&#45;&gt;Node38</title>
<path fill="none" stroke="#191970" d="M1144.5868,-606.0328C1200.9571,-582.1261 1300.234,-539.3861 1384,-500 1484.9834,-452.5184 1603.7637,-391.0501 1648.6178,-367.6336"/>
<polygon fill="#191970" stroke="#191970" points="1143.0892,-602.866 1135.2457,-609.9885 1145.8189,-609.3119 1143.0892,-602.866"/>
</g>
<!-- Node54&#45;&gt;Node53 -->
<g id="edge33" class="edge">
<title>Node54&#45;&gt;Node53</title>
<path fill="none" stroke="#191970" d="M980.3069,-588.5123C1003.8763,-595.7274 1029.1635,-603.4684 1050.3551,-609.9557"/>
<polygon fill="#191970" stroke="#191970" points="981.2644,-585.1452 970.6779,-585.5647 979.2153,-591.8386 981.2644,-585.1452"/>
</g>
<!-- Node55&#45;&gt;Node53 -->
<g id="edge35" class="edge">
<title>Node55&#45;&gt;Node53</title>
<path fill="none" stroke="#191970" d="M627.4803,-697.3006C714.8936,-699.0313 856.0909,-696.8495 975,-672 1007.6786,-665.1709 1043.1327,-651.0766 1067.8174,-640.0947"/>
<polygon fill="#191970" stroke="#191970" points="627.4295,-693.7987 617.3549,-697.0778 627.2754,-700.797 627.4295,-693.7987"/>
</g>
<!-- Node56&#45;&gt;Node53 -->
<g id="edge37" class="edge">
<title>Node56&#45;&gt;Node53</title>
<path fill="none" stroke="#191970" d="M593.4623,-590.7233C649.9529,-611.2394 746.1092,-642.8499 832,-655 894.929,-663.9019 911.8881,-662.4966 975,-655 999.7274,-652.0628 1026.6484,-645.9535 1049.1106,-640.0098"/>
<polygon fill="#191970" stroke="#191970" points="594.3204,-587.3101 583.7267,-587.1544 591.9111,-593.8825 594.3204,-587.3101"/>
</g>
<!-- Node57&#45;&gt;Node49 -->
<g id="edge39" class="edge">
<title>Node57&#45;&gt;Node49</title>
<path fill="none" stroke="#191970" d="M424.7139,-317.5365C440.1345,-321.0635 456.6525,-324.7518 472,-328 532.834,-340.8752 602.196,-354.2416 652.8092,-363.7553"/>
<polygon fill="#191970" stroke="#191970" points="425.2921,-314.0782 414.7621,-315.2483 423.7235,-320.9002 425.2921,-314.0782"/>
</g>
<!-- Node58 -->
<g id="node26" class="node">
<title>Node58</title>
<g id="a_node26"><a xlink:href="classstatistics_1_1_similarity.html#adcb5627b9704850e85433fc40c19db17" target="_top" xlink:title="Allows us compute the conservationWindow&#39;s values. ">
<polygon fill="#ffffff" stroke="#000000" points="493,-288 493,-318 596,-318 596,-288 493,-288"/>
<text text-anchor="start" x="501" y="-306" font-family="Helvetica,sans-Serif" font-size="10.00" fill="#000000">statistics::Similarity</text>
<text text-anchor="middle" x="544.5" y="-295" font-family="Helvetica,sans-Serif" font-size="10.00" fill="#000000">::applyWindow</text>
</a>
</g>
</g>
<!-- Node57&#45;&gt;Node58 -->
<g id="edge40" class="edge">
<title>Node57&#45;&gt;Node58</title>
<path fill="none" stroke="#191970" d="M424.825,-303C446.9608,-303 471.6606,-303 492.846,-303"/>
<polygon fill="#191970" stroke="#191970" points="424.5252,-299.5001 414.5251,-303 424.5251,-306.5001 424.5252,-299.5001"/>
</g>
<!-- Node58&#45;&gt;Node49 -->
<g id="edge41" class="edge">
<title>Node58&#45;&gt;Node49</title>
<path fill="none" stroke="#191970" d="M590.8445,-322.0527C621.0713,-334.4793 659.9677,-350.4701 687.9972,-361.9933"/>
<polygon fill="#191970" stroke="#191970" points="591.9398,-318.7188 581.36,-318.1536 589.2781,-325.1931 591.9398,-318.7188"/>
</g>
<!-- Node59 -->
<g id="node27" class="node">
<title>Node59</title>
<g id="a_node27"><a xlink:href="classstatistics_1_1_similarity.html#a1b65c85328f09fa0637365d11fb386b4" target="_top" xlink:title="This methods returns a pointer to conservationWindow&#39;s vector. ">
<polygon fill="#ffffff" stroke="#000000" points="660,-304 660,-334 789,-334 789,-304 660,-304"/>
<text text-anchor="start" x="668" y="-322" font-family="Helvetica,sans-Serif" font-size="10.00" fill="#000000">statistics::Similarity</text>
<text text-anchor="middle" x="724.5" y="-311" font-family="Helvetica,sans-Serif" font-size="10.00" fill="#000000">::getMdkWindowedVector</text>
</a>
</g>
</g>
<!-- Node58&#45;&gt;Node59 -->
<g id="edge42" class="edge">
<title>Node58&#45;&gt;Node59</title>
<path fill="none" stroke="#191970" d="M606.0722,-308.4731C623.3868,-310.0122 642.2657,-311.6903 659.7593,-313.2453"/>
<polygon fill="#191970" stroke="#191970" points="606.3514,-304.9842 596.0808,-307.585 605.7316,-311.9567 606.3514,-304.9842"/>
</g>
<!-- Node59&#45;&gt;Node43 -->
<g id="edge54" class="edge">
<title>Node59&#45;&gt;Node43</title>
<path fill="none" stroke="#191970" d="M752.0492,-298.0342C772.7901,-283.6314 802.5898,-265.7629 832,-258 910.4347,-237.2969 1006.2304,-250.3935 1059.2758,-260.8308"/>
<polygon fill="#191970" stroke="#191970" points="749.8541,-295.3007 743.7424,-303.955 753.9171,-301.0009 749.8541,-295.3007"/>
</g>
<!-- Node59&#45;&gt;Node50 -->
<g id="edge53" class="edge">
<title>Node59&#45;&gt;Node50</title>
<path fill="none" stroke="#191970" d="M799.541,-322.4019C867.084,-325.4638 965.5052,-329.9256 1030.9663,-332.8931"/>
<polygon fill="#191970" stroke="#191970" points="799.5402,-318.8983 789.3919,-321.9418 799.2231,-325.8911 799.5402,-318.8983"/>
</g>
<!-- Node59&#45;&gt;Node51 -->
<g id="edge55" class="edge">
<title>Node59&#45;&gt;Node51</title>
<path fill="none" stroke="#191970" d="M744.8567,-296.4013C765.1114,-275.1136 798.0013,-243.6382 832,-224 842.4312,-217.9748 854.5993,-213.1806 865.9086,-209.5107"/>
<polygon fill="#191970" stroke="#191970" points="742.2643,-294.0492 737.9875,-303.7425 747.3757,-298.832 742.2643,-294.0492"/>
</g>
<!-- Node60 -->
<g id="node28" class="node">
<title>Node60</title>
<g id="a_node28"><a xlink:href="class_alignment.html#a3754dfadea173918f5e85b9eb4c3ad8a" target="_top" xlink:title="Method to report the trimming results in HTML. Outputs an HTML file that shows visually what has been...">
<polygon fill="#ffffff" stroke="#000000" points="1011,-392.5 1011,-411.5 1188,-411.5 1188,-392.5 1011,-392.5"/>
<text text-anchor="middle" x="1099.5" y="-399.5" font-family="Helvetica,sans-Serif" font-size="10.00" fill="#000000">Alignment::alignmentSummaryHTML</text>
</a>
</g>
</g>
<!-- Node59&#45;&gt;Node60 -->
<g id="edge43" class="edge">
<title>Node59&#45;&gt;Node60</title>
<path fill="none" stroke="#191970" d="M799.5152,-335.6034C876.5406,-352.6516 993.7426,-378.5924 1056.412,-392.4632"/>
<polygon fill="#191970" stroke="#191970" points="799.912,-332.1066 789.3919,-333.3627 798.3992,-338.9411 799.912,-332.1066"/>
</g>
<!-- Node62 -->
<g id="node30" class="node">
<title>Node62</title>
<g id="a_node30"><a xlink:href="class_alignment.html#a724218d5e7d168974d9abcafcde632a1" target="_top" xlink:title="Alignment::statSVG">
<polygon fill="#ffffff" stroke="#000000" points="1252,-471.5 1252,-490.5 1356,-490.5 1356,-471.5 1252,-471.5"/>
<text text-anchor="middle" x="1304" y="-478.5" font-family="Helvetica,sans-Serif" font-size="10.00" fill="#000000">Alignment::statSVG</text>
</a>
</g>
</g>
<!-- Node59&#45;&gt;Node62 -->
<g id="edge47" class="edge">
<title>Node59&#45;&gt;Node62</title>
<path fill="none" stroke="#191970" d="M774.6435,-338.6074C782.2226,-342.7384 789.6263,-347.5326 796,-353 817.6133,-371.5399 809.0077,-389.2007 832,-406 959.4582,-499.1271 1158.1539,-495.2587 1251.8106,-487.1286"/>
<polygon fill="#191970" stroke="#191970" points="776.2164,-335.4807 765.717,-334.0621 773.0401,-341.7186 776.2164,-335.4807"/>
</g>
<!-- Node64 -->
<g id="node32" class="node">
<title>Node64</title>
<g id="a_node32"><a xlink:href="class_alignment.html#ac4196c026e0f482eaccf9976f82f72e3" target="_top" xlink:title="Method to report the trimming results in SVG. Outputs a SVG file that shows visually what has been do...">
<polygon fill="#ffffff" stroke="#000000" points="1014,-430.5 1014,-449.5 1185,-449.5 1185,-430.5 1014,-430.5"/>
<text text-anchor="middle" x="1099.5" y="-437.5" font-family="Helvetica,sans-Serif" font-size="10.00" fill="#000000">Alignment::alignmentSummarySVG</text>
</a>
</g>
</g>
<!-- Node59&#45;&gt;Node64 -->
<g id="edge51" class="edge">
<title>Node59&#45;&gt;Node64</title>
<path fill="none" stroke="#191970" d="M766.2107,-338.475C776.0199,-343.1543 786.4092,-348.1914 796,-353 812.1728,-361.1087 815.1749,-365.3498 832,-372 908.7079,-402.3192 930.8687,-401.4467 1011,-421 1024.4347,-424.2783 1039.0906,-427.5479 1052.5406,-430.4273"/>
<polygon fill="#191970" stroke="#191970" points="767.5635,-335.243 757.0286,-334.1176 764.5623,-341.567 767.5635,-335.243"/>
</g>
<!-- Node65 -->
<g id="node33" class="node">
<title>Node65</title>
<g id="a_node33"><a xlink:href="classstatistics_1_1_similarity.html#a26f430acb8a3240977665de9a9ea875a" target="_top" xlink:title="Computes and selects the cut point values based on similarity&#39;s values. ">
<polygon fill="#ffffff" stroke="#000000" points="852,-267 852,-297 955,-297 955,-267 852,-267"/>
<text text-anchor="start" x="860" y="-285" font-family="Helvetica,sans-Serif" font-size="10.00" fill="#000000">statistics::Similarity</text>
<text text-anchor="middle" x="903.5" y="-274" font-family="Helvetica,sans-Serif" font-size="10.00" fill="#000000">::calcCutPoint</text>
</a>
</g>
</g>
<!-- Node59&#45;&gt;Node65 -->
<g id="edge56" class="edge">
<title>Node59&#45;&gt;Node65</title>
<path fill="none" stroke="#191970" d="M799.4096,-303.5159C817.0698,-299.8655 835.509,-296.054 851.8759,-292.6709"/>
<polygon fill="#191970" stroke="#191970" points="798.2076,-300.1903 789.1231,-305.6422 799.6246,-307.0454 798.2076,-300.1903"/>
</g>
<!-- Node61 -->
<g id="node29" class="node">
<title>Node61</title>
<g id="a_node29"><a xlink:href="classtrim_al_manager.html#a1da8f8b677f19ed8f7e08a663d97bb92" target="_top" xlink:title="trimAlManager::output\l_reports">
<polygon fill="#ffffff" stroke="#000000" points="1247.5,-387 1247.5,-417 1360.5,-417 1360.5,-387 1247.5,-387"/>
<text text-anchor="start" x="1255.5" y="-405" font-family="Helvetica,sans-Serif" font-size="10.00" fill="#000000">trimAlManager::output</text>
<text text-anchor="middle" x="1304" y="-394" font-family="Helvetica,sans-Serif" font-size="10.00" fill="#000000">_reports</text>
</a>
</g>
</g>
<!-- Node60&#45;&gt;Node61 -->
<g id="edge44" class="edge">
<title>Node60&#45;&gt;Node61</title>
<path fill="none" stroke="#191970" d="M1198.4077,-402C1215.1622,-402 1232.0364,-402 1247.2285,-402"/>
<polygon fill="#191970" stroke="#191970" points="1198.0073,-398.5001 1188.0073,-402 1198.0073,-405.5001 1198.0073,-398.5001"/>
</g>
<!-- Node61&#45;&gt;Node38 -->
<g id="edge45" class="edge">
<title>Node61&#45;&gt;Node38</title>
<path fill="none" stroke="#191970" d="M1370.7738,-399.821C1422.4002,-397.4624 1495.5325,-392.6521 1559,-383 1583.5449,-379.2672 1610.7766,-372.9483 1631.7549,-367.5975"/>
<polygon fill="#191970" stroke="#191970" points="1370.5816,-396.326 1360.7445,-400.2608 1370.8883,-403.3193 1370.5816,-396.326"/>
</g>
<!-- Node61&#45;&gt;Node41 -->
<g id="edge46" class="edge">
<title>Node61&#45;&gt;Node41</title>
<path fill="none" stroke="#191970" d="M1333.0927,-380.9158C1355.706,-365.5544 1388.437,-345.4972 1420,-334 1476.8099,-313.3064 1544.7471,-302.7025 1594.9797,-297.3323"/>
<polygon fill="#191970" stroke="#191970" points="1330.8836,-378.188 1324.6486,-386.754 1334.8645,-383.9458 1330.8836,-378.188"/>
</g>
<!-- Node63 -->
<g id="node31" class="node">
<title>Node63</title>
<g id="a_node31"><a xlink:href="classtrim_al_manager.html#a63d5bec0938516a2129ccb04276b93d9" target="_top" xlink:title="trimAlManager::svg\l_stats_out">
<polygon fill="#ffffff" stroke="#000000" points="1439,-343 1439,-373 1540,-373 1540,-343 1439,-343"/>
<text text-anchor="start" x="1447" y="-361" font-family="Helvetica,sans-Serif" font-size="10.00" fill="#000000">trimAlManager::svg</text>
<text text-anchor="middle" x="1489.5" y="-350" font-family="Helvetica,sans-Serif" font-size="10.00" fill="#000000">_stats_out</text>
</a>
</g>
</g>
<!-- Node62&#45;&gt;Node63 -->
<g id="edge48" class="edge">
<title>Node62&#45;&gt;Node63</title>
<path fill="none" stroke="#191970" d="M1326.8913,-465.8214C1362.6219,-442.1294 1431.2349,-396.634 1466.8295,-373.0322"/>
<polygon fill="#191970" stroke="#191970" points="1324.956,-462.9051 1318.5559,-471.3484 1328.8244,-468.7391 1324.956,-462.9051"/>
</g>
<!-- Node63&#45;&gt;Node38 -->
<g id="edge49" class="edge">
<title>Node63&#45;&gt;Node38</title>
<path fill="none" stroke="#191970" d="M1550.3901,-358C1565.1698,-358 1581.0967,-358 1596.2874,-358"/>
<polygon fill="#191970" stroke="#191970" points="1550.3644,-354.5001 1540.3644,-358 1550.3643,-361.5001 1550.3644,-354.5001"/>
</g>
<!-- Node63&#45;&gt;Node41 -->
<g id="edge50" class="edge">
<title>Node63&#45;&gt;Node41</title>
<path fill="none" stroke="#191970" d="M1539.7422,-339.3184C1572.844,-327.0101 1614.812,-311.4051 1641.2952,-301.5578"/>
<polygon fill="#191970" stroke="#191970" points="1538.3753,-336.0925 1530.2221,-342.8583 1540.8149,-342.6536 1538.3753,-336.0925"/>
</g>
<!-- Node64&#45;&gt;Node61 -->
<g id="edge52" class="edge">
<title>Node64&#45;&gt;Node61</title>
<path fill="none" stroke="#191970" d="M1160.7188,-428.6244C1188.1636,-423.5246 1220.3364,-417.5463 1247.2348,-412.5481"/>
<polygon fill="#191970" stroke="#191970" points="1160.0323,-425.1919 1150.84,-430.46 1161.3112,-432.0741 1160.0323,-425.1919"/>
</g>
<!-- Node65&#45;&gt;Node43 -->
<g id="edge58" class="edge">
<title>Node65&#45;&gt;Node43</title>
<path fill="none" stroke="#191970" d="M965.423,-278.2088C996.0928,-276.3311 1032.2416,-274.1179 1059.2714,-272.463"/>
<polygon fill="#191970" stroke="#191970" points="965.0205,-274.7268 955.2531,-278.8314 965.4483,-281.7137 965.0205,-274.7268"/>
</g>
<!-- Node65&#45;&gt;Node50 -->
<g id="edge57" class="edge">
<title>Node65&#45;&gt;Node50</title>
<path fill="none" stroke="#191970" d="M965.2252,-299.0059C998.0766,-308.0568 1037.26,-318.8522 1064.7937,-326.4381"/>
<polygon fill="#191970" stroke="#191970" points="965.8235,-295.5404 955.2531,-296.2585 963.9642,-302.289 965.8235,-295.5404"/>
</g>
</g>
</svg>
