<?xml version="1.0" encoding="UTF-8" standalone="no"?>
<!DOCTYPE svg PUBLIC "-//W3C//DTD SVG 1.1//EN"
 "http://www.w3.org/Graphics/SVG/1.1/DTD/svg11.dtd">
<!-- Generated by graphviz version 2.40.1 (20161225.0304)
 -->
<!-- Title: Cleaner::removeColumns Pages: 1 -->
<svg width="476pt" height="88pt"
 viewBox="0.00 0.00 476.00 88.00" xmlns="http://www.w3.org/2000/svg" xmlns:xlink="http://www.w3.org/1999/xlink">
<g id="graph0" class="graph" transform="scale(1 1) rotate(0) translate(4 84)">
<title>Cleaner::removeColumns</title>
<polygon fill="#ffffff" stroke="transparent" points="-4,4 -4,-84 472,-84 472,4 -4,4"/>
<!-- Node372 -->
<g id="node1" class="node">
<title>Node372</title>
<g id="a_node1"><a xlink:title="Method to remove columns, expressed as ranges.">
<polygon fill="#bfbfbf" stroke="#000000" points="0,-30 0,-49 128,-49 128,-30 0,-30"/>
<text text-anchor="middle" x="64" y="-37" font-family="Helvetica,sans-Serif" font-size="10.00" fill="#000000">Cleaner::removeColumns</text>
</a>
</g>
</g>
<!-- Node373 -->
<g id="node2" class="node">
<title>Node373</title>
<g id="a_node2"><a xlink:href="class_cleaner.html#ada8ad076dd037f00ae3f4fd17762641f" target="_top" xlink:title="Method that identifies and removes columns and sequences composed only by gaps.">
<polygon fill="#ffffff" stroke="#000000" points="164,-49.5 164,-79.5 310,-79.5 310,-49.5 164,-49.5"/>
<text text-anchor="start" x="172" y="-67.5" font-family="Helvetica,sans-Serif" font-size="10.00" fill="#000000">Cleaner::removeAllGapsSeqs</text>
<text text-anchor="middle" x="237" y="-56.5" font-family="Helvetica,sans-Serif" font-size="10.00" fill="#000000">AndCols</text>
</a>
</g>
</g>
<!-- Node372&#45;&gt;Node373 -->
<g id="edge1" class="edge">
<title>Node372&#45;&gt;Node373</title>
<path fill="none" stroke="#191970" d="M128.4188,-48.8091C136.7046,-50.0064 145.2801,-51.2457 153.8125,-52.4787"/>
<polygon fill="#191970" stroke="#191970" points="153.3914,-55.9541 163.7892,-53.9204 154.3926,-49.0261 153.3914,-55.9541"/>
</g>
<!-- Node375 -->
<g id="node4" class="node">
<title>Node375</title>
<g id="a_node4"><a xlink:href="class_alignment.html#ae04b9e10e25daafb2b4592e19e63cecd" target="_top" xlink:title="Updates the sequence number and residue number based on saveResidues and saveSequences.">
<polygon fill="#ffffff" stroke="#000000" points="165,-.5 165,-30.5 309,-30.5 309,-.5 165,-.5"/>
<text text-anchor="start" x="173" y="-18.5" font-family="Helvetica,sans-Serif" font-size="10.00" fill="#000000">Alignment::updateSequences</text>
<text text-anchor="middle" x="237" y="-7.5" font-family="Helvetica,sans-Serif" font-size="10.00" fill="#000000">AndResiduesNums</text>
</a>
</g>
</g>
<!-- Node372&#45;&gt;Node375 -->
<g id="edge3" class="edge">
<title>Node372&#45;&gt;Node375</title>
<path fill="none" stroke="#191970" d="M128.4188,-30.5633C137.0739,-29.3626 146.045,-28.118 154.953,-26.8822"/>
<polygon fill="#191970" stroke="#191970" points="155.5392,-30.3345 164.9634,-25.4935 154.5772,-23.4009 155.5392,-30.3345"/>
</g>
<!-- Node374 -->
<g id="node3" class="node">
<title>Node374</title>
<g id="a_node3"><a xlink:href="classreporting_1_1report_manager.html#a6d122e673144584e0869bd33b8a5c1c6" target="_top" xlink:title="Method to report an Error. &#160;It will be displayed if Level &#160;is equal or higher to VerboseLevel::ERROR.">
<polygon fill="#ffffff" stroke="#000000" points="346,-49.5 346,-79.5 468,-79.5 468,-49.5 346,-49.5"/>
<text text-anchor="start" x="354" y="-67.5" font-family="Helvetica,sans-Serif" font-size="10.00" fill="#000000">reporting::reportManager</text>
<text text-anchor="middle" x="407" y="-56.5" font-family="Helvetica,sans-Serif" font-size="10.00" fill="#000000">::report</text>
</a>
</g>
</g>
<!-- Node373&#45;&gt;Node374 -->
<g id="edge2" class="edge">
<title>Node373&#45;&gt;Node374</title>
<path fill="none" stroke="#191970" d="M310.0819,-64.5C318.591,-64.5 327.2628,-64.5 335.7468,-64.5"/>
<polygon fill="#191970" stroke="#191970" points="335.9788,-68.0001 345.9788,-64.5 335.9788,-61.0001 335.9788,-68.0001"/>
</g>
</g>
</svg>
