<?xml version="1.0" encoding="UTF-8" standalone="no"?>
<!DOCTYPE svg PUBLIC "-//W3C//DTD SVG 1.1//EN"
 "http://www.w3.org/Graphics/SVG/1.1/DTD/svg11.dtd">
<!-- Generated by graphviz version 2.40.1 (20161225.0304)
 -->
<!-- Title: trimAlManager::menu Pages: 1 -->
<svg width="525pt" height="56pt"
 viewBox="0.00 0.00 525.00 55.50" xmlns="http://www.w3.org/2000/svg" xmlns:xlink="http://www.w3.org/1999/xlink">
<g id="graph0" class="graph" transform="scale(1 1) rotate(0) translate(4 51.5)">
<title>trimAlManager::menu</title>
<polygon fill="#ffffff" stroke="transparent" points="-4,4 -4,-51.5 521,-51.5 521,4 -4,4"/>
<!-- Node574 -->
<g id="node1" class="node">
<title>Node574</title>
<g id="a_node1"><a xlink:title="Method to show the menu of the program.">
<polygon fill="#bfbfbf" stroke="#000000" points="407,-.5 407,-19.5 517,-19.5 517,-.5 407,-.5"/>
<text text-anchor="middle" x="462" y="-7.5" font-family="Helvetica,sans-Serif" font-size="10.00" fill="#000000">trimAlManager::menu</text>
</a>
</g>
</g>
<!-- Node575 -->
<g id="node2" class="node">
<title>Node575</title>
<g id="a_node2"><a xlink:href="classtrim_al_manager.html#ac00c17dd71558993a44020e3ec7c2b16" target="_top" xlink:title="Method to parse information arguments as help and menu.">
<polygon fill="#ffffff" stroke="#000000" points="267,-17 267,-47 371,-47 371,-17 267,-17"/>
<text text-anchor="start" x="275" y="-35" font-family="Helvetica,sans-Serif" font-size="10.00" fill="#000000">trimAlManager::help</text>
<text text-anchor="middle" x="319" y="-24" font-family="Helvetica,sans-Serif" font-size="10.00" fill="#000000">_arguments</text>
</a>
</g>
</g>
<!-- Node574&#45;&gt;Node575 -->
<g id="edge1" class="edge">
<title>Node574&#45;&gt;Node575</title>
<path fill="none" stroke="#191970" d="M396.784,-20.0332C388.2544,-21.3455 379.6045,-22.6762 371.3251,-23.95"/>
<polygon fill="#191970" stroke="#191970" points="397.361,-23.4857 406.7125,-18.5058 396.2965,-16.5671 397.361,-23.4857"/>
</g>
<!-- Node576 -->
<g id="node3" class="node">
<title>Node576</title>
<g id="a_node3"><a xlink:href="classtrim_al_manager.html#af140d97b6071a83930818030ac74b641" target="_top" xlink:title="Method to parse arguments into usable structure in trimal.">
<polygon fill="#ffffff" stroke="#000000" points="74,-.5 74,-19.5 231,-19.5 231,-.5 74,-.5"/>
<text text-anchor="middle" x="152.5" y="-7.5" font-family="Helvetica,sans-Serif" font-size="10.00" fill="#000000">trimAlManager::parseArguments</text>
</a>
</g>
</g>
<!-- Node574&#45;&gt;Node576 -->
<g id="edge4" class="edge">
<title>Node574&#45;&gt;Node576</title>
<path fill="none" stroke="#191970" d="M396.6227,-8.3903C388.0058,-8.2289 379.2908,-8.0911 371,-8 324.7806,-7.4922 313.2205,-7.5964 267,-8 255.3698,-8.1016 243.0758,-8.2612 231.0287,-8.4469"/>
<polygon fill="#191970" stroke="#191970" points="396.5945,-11.8904 406.662,-8.5894 396.7334,-4.8918 396.5945,-11.8904"/>
</g>
<!-- Node575&#45;&gt;Node576 -->
<g id="edge2" class="edge">
<title>Node575&#45;&gt;Node576</title>
<path fill="none" stroke="#191970" d="M256.5547,-23.749C246.1537,-22.3747 235.2897,-20.9392 224.6706,-19.5361"/>
<polygon fill="#191970" stroke="#191970" points="256.4028,-27.2592 266.7752,-25.0994 257.3199,-20.3196 256.4028,-27.2592"/>
</g>
<!-- Node577 -->
<g id="node4" class="node">
<title>Node577</title>
<g id="a_node4"><a xlink:href="trim_al_main_8cpp.html#a0ddf1224851353fc92bfbff6f499fa97" target="_top" xlink:title=" ">
<polygon fill="#ffffff" stroke="#000000" points="0,-.5 0,-19.5 38,-19.5 38,-.5 0,-.5"/>
<text text-anchor="middle" x="19" y="-7.5" font-family="Helvetica,sans-Serif" font-size="10.00" fill="#000000">main</text>
</a>
</g>
</g>
<!-- Node576&#45;&gt;Node577 -->
<g id="edge3" class="edge">
<title>Node576&#45;&gt;Node577</title>
<path fill="none" stroke="#191970" d="M63.4234,-10C54.1647,-10 45.5538,-10 38.4254,-10"/>
<polygon fill="#191970" stroke="#191970" points="63.6848,-13.5001 73.6848,-10 63.6847,-6.5001 63.6848,-13.5001"/>
</g>
</g>
</svg>
