<?xml version="1.0" encoding="UTF-8" standalone="no"?>
<!DOCTYPE svg PUBLIC "-//W3C//DTD SVG 1.1//EN"
 "http://www.w3.org/Graphics/SVG/1.1/DTD/svg11.dtd">
<!-- Generated by graphviz version 2.40.1 (20161225.0304)
 -->
<!-- Title: trimAlManager::html_out_argument Pages: 1 -->
<svg width="379pt" height="39pt"
 viewBox="0.00 0.00 379.00 39.00" xmlns="http://www.w3.org/2000/svg" xmlns:xlink="http://www.w3.org/1999/xlink">
<g id="graph0" class="graph" transform="scale(1 1) rotate(0) translate(4 35)">
<title>trimAlManager::html_out_argument</title>
<polygon fill="#ffffff" stroke="transparent" points="-4,4 -4,-35 375,-35 375,4 -4,4"/>
<!-- Node637 -->
<g id="node1" class="node">
<title>Node637</title>
<polygon fill="#bfbfbf" stroke="#000000" points="0,-.5 0,-30.5 104,-30.5 104,-.5 0,-.5"/>
<text text-anchor="start" x="8" y="-18.5" font-family="Helvetica,sans-Serif" font-size="10.00" fill="#000000">trimAlManager::html</text>
<text text-anchor="middle" x="52" y="-7.5" font-family="Helvetica,sans-Serif" font-size="10.00" fill="#000000">_out_argument</text>
</g>
<!-- Node638 -->
<g id="node2" class="node">
<title>Node638</title>
<g id="a_node2"><a xlink:href="classtrim_al_manager.html#af3b0625b6bcc6df5978e63530a5956e6" target="_top" xlink:title="Method to parse arguments into usable structure in trimal. ">
<polygon fill="#ffffff" stroke="#000000" points="140,-6 140,-25 297,-25 297,-6 140,-6"/>
<text text-anchor="middle" x="218.5" y="-13" font-family="Helvetica,sans-Serif" font-size="10.00" fill="#000000">trimAlManager::parseArguments</text>
</a>
</g>
</g>
<!-- Node637&#45;&gt;Node638 -->
<g id="edge1" class="edge">
<title>Node637&#45;&gt;Node638</title>
<path fill="none" stroke="#191970" d="M114.2666,-15.5C122.6427,-15.5 131.322,-15.5 139.9342,-15.5"/>
<polygon fill="#191970" stroke="#191970" points="114.2248,-12.0001 104.2248,-15.5 114.2248,-19.0001 114.2248,-12.0001"/>
</g>
<!-- Node639 -->
<g id="node3" class="node">
<title>Node639</title>
<g id="a_node3"><a xlink:href="trim_al_main_8cpp.html#a0ddf1224851353fc92bfbff6f499fa97" target="_top" xlink:title="main">
<polygon fill="#ffffff" stroke="#000000" points="333,-6 333,-25 371,-25 371,-6 333,-6"/>
<text text-anchor="middle" x="352" y="-13" font-family="Helvetica,sans-Serif" font-size="10.00" fill="#000000">main</text>
</a>
</g>
</g>
<!-- Node638&#45;&gt;Node639 -->
<g id="edge2" class="edge">
<title>Node638&#45;&gt;Node639</title>
<path fill="none" stroke="#191970" d="M307.5766,-15.5C316.8353,-15.5 325.4462,-15.5 332.5746,-15.5"/>
<polygon fill="#191970" stroke="#191970" points="307.3153,-12.0001 297.3152,-15.5 307.3152,-19.0001 307.3153,-12.0001"/>
</g>
</g>
</svg>
