<?xml version="1.0" encoding="UTF-8" standalone="no"?>
<!DOCTYPE svg PUBLIC "-//W3C//DTD SVG 1.1//EN"
 "http://www.w3.org/Graphics/SVG/1.1/DTD/svg11.dtd">
<!-- Generated by graphviz version 2.40.1 (20161225.0304)
 -->
<!-- Title: trimAlManager::menu Pages: 1 -->
<svg width="525pt" height="56pt"
 viewBox="0.00 0.00 525.00 55.50" xmlns="http://www.w3.org/2000/svg" xmlns:xlink="http://www.w3.org/1999/xlink">
<g id="graph0" class="graph" transform="scale(1 1) rotate(0) translate(4 51.5)">
<title>trimAlManager::menu</title>
<polygon fill="#ffffff" stroke="transparent" points="-4,4 -4,-51.5 521,-51.5 521,4 -4,4"/>
<!-- Node822 -->
<g id="node1" class="node">
<title>Node822</title>
<polygon fill="#bfbfbf" stroke="#000000" points="0,-.5 0,-19.5 110,-19.5 110,-.5 0,-.5"/>
<text text-anchor="middle" x="55" y="-7.5" font-family="Helvetica,sans-Serif" font-size="10.00" fill="#000000">trimAlManager::menu</text>
</g>
<!-- Node823 -->
<g id="node2" class="node">
<title>Node823</title>
<g id="a_node2"><a xlink:href="classtrim_al_manager.html#a29848e9632746b1cc2b42d36bf54a35c" target="_top" xlink:title="Method to parse information arguments as help and menu. ">
<polygon fill="#ffffff" stroke="#000000" points="146,-17 146,-47 250,-47 250,-17 146,-17"/>
<text text-anchor="start" x="154" y="-35" font-family="Helvetica,sans-Serif" font-size="10.00" fill="#000000">trimAlManager::help</text>
<text text-anchor="middle" x="198" y="-24" font-family="Helvetica,sans-Serif" font-size="10.00" fill="#000000">_arguments</text>
</a>
</g>
</g>
<!-- Node822&#45;&gt;Node823 -->
<g id="edge1" class="edge">
<title>Node822&#45;&gt;Node823</title>
<path fill="none" stroke="#191970" d="M120.216,-20.0332C128.7456,-21.3455 137.3955,-22.6762 145.6749,-23.95"/>
<polygon fill="#191970" stroke="#191970" points="120.7035,-16.5671 110.2875,-18.5058 119.639,-23.4857 120.7035,-16.5671"/>
</g>
<!-- Node824 -->
<g id="node3" class="node">
<title>Node824</title>
<g id="a_node3"><a xlink:href="classtrim_al_manager.html#af3b0625b6bcc6df5978e63530a5956e6" target="_top" xlink:title="Method to parse arguments into usable structure in trimal. ">
<polygon fill="#ffffff" stroke="#000000" points="286,-.5 286,-19.5 443,-19.5 443,-.5 286,-.5"/>
<text text-anchor="middle" x="364.5" y="-7.5" font-family="Helvetica,sans-Serif" font-size="10.00" fill="#000000">trimAlManager::parseArguments</text>
</a>
</g>
</g>
<!-- Node822&#45;&gt;Node824 -->
<g id="edge4" class="edge">
<title>Node822&#45;&gt;Node824</title>
<path fill="none" stroke="#191970" d="M120.3773,-8.3903C128.9942,-8.2289 137.7092,-8.0911 146,-8 192.2194,-7.4922 203.7795,-7.5964 250,-8 261.6302,-8.1016 273.9242,-8.2612 285.9713,-8.4469"/>
<polygon fill="#191970" stroke="#191970" points="120.2666,-4.8918 110.338,-8.5894 120.4055,-11.8904 120.2666,-4.8918"/>
</g>
<!-- Node823&#45;&gt;Node824 -->
<g id="edge2" class="edge">
<title>Node823&#45;&gt;Node824</title>
<path fill="none" stroke="#191970" d="M260.4453,-23.749C270.8463,-22.3747 281.7103,-20.9392 292.3294,-19.5361"/>
<polygon fill="#191970" stroke="#191970" points="259.6801,-20.3196 250.2248,-25.0994 260.5972,-27.2592 259.6801,-20.3196"/>
</g>
<!-- Node825 -->
<g id="node4" class="node">
<title>Node825</title>
<g id="a_node4"><a xlink:href="trim_al_main_8cpp.html#a0ddf1224851353fc92bfbff6f499fa97" target="_top" xlink:title="main">
<polygon fill="#ffffff" stroke="#000000" points="479,-.5 479,-19.5 517,-19.5 517,-.5 479,-.5"/>
<text text-anchor="middle" x="498" y="-7.5" font-family="Helvetica,sans-Serif" font-size="10.00" fill="#000000">main</text>
</a>
</g>
</g>
<!-- Node824&#45;&gt;Node825 -->
<g id="edge3" class="edge">
<title>Node824&#45;&gt;Node825</title>
<path fill="none" stroke="#191970" d="M453.5766,-10C462.8353,-10 471.4462,-10 478.5746,-10"/>
<polygon fill="#191970" stroke="#191970" points="453.3153,-6.5001 443.3152,-10 453.3152,-13.5001 453.3153,-6.5001"/>
</g>
</g>
</svg>
