<?xml version="1.0" encoding="UTF-8" standalone="no"?>
<!DOCTYPE svg PUBLIC "-//W3C//DTD SVG 1.1//EN"
 "http://www.w3.org/Graphics/SVG/1.1/DTD/svg11.dtd">
<!-- Generated by graphviz version 2.38.0 (20140413.2041)
 -->
<!-- Title: ReadWriteBaseState::LoadAlignment Pages: 1 -->
<svg width="823pt" height="176pt"
 viewBox="0.00 0.00 823.00 175.50" xmlns="http://www.w3.org/2000/svg" xmlns:xlink="http://www.w3.org/1999/xlink">
<g id="graph0" class="graph" transform="scale(1 1) rotate(0) translate(4 171.5)">
<title>ReadWriteBaseState::LoadAlignment</title>
<polygon fill="white" stroke="none" points="-4,4 -4,-171.5 819,-171.5 819,4 -4,4"/>
<!-- Node3 -->
<g id="node1" class="node"><title>Node3</title>
<polygon fill="#bfbfbf" stroke="black" points="0,-54.5 0,-84.5 109,-84.5 109,-54.5 0,-54.5"/>
<text text-anchor="start" x="8" y="-72.5" font-family="Helvetica,sans-Serif" font-size="10.00">ReadWriteBaseState</text>
<text text-anchor="middle" x="54.5" y="-61.5" font-family="Helvetica,sans-Serif" font-size="10.00">::LoadAlignment</text>
</g>
<!-- Node4 -->
<g id="node2" class="node"><title>Node4</title>
<g id="a_node2"><a xlink:href="class_read_write_m_s.html#a9dde337280e5598f9006b3b436112caf" target="_top" xlink:title="Function that creates an alignment from a filepath. It automatically detects the format of the file...">
<polygon fill="white" stroke="black" points="145,-79 145,-98 291,-98 291,-79 145,-79"/>
<text text-anchor="middle" x="218" y="-86" font-family="Helvetica,sans-Serif" font-size="10.00">ReadWriteMS::loadAlignment</text>
</a>
</g>
</g>
<!-- Node3&#45;&gt;Node4 -->
<g id="edge1" class="edge"><title>Node3&#45;&gt;Node4</title>
<path fill="none" stroke="midnightblue" d="M119.321,-77.0083C127.679,-77.9916 136.29,-79.0047 144.775,-80.0029"/>
<polygon fill="midnightblue" stroke="midnightblue" points="119.618,-73.5192 109.277,-75.8267 118.8,-80.4713 119.618,-73.5192"/>
</g>
<!-- Node12 -->
<g id="node10" class="node"><title>Node12</title>
<g id="a_node10"><a xlink:href="class_read_write_m_s.html#a15d072b1a26e6eb21e28fa016cc2f340" target="_top" xlink:title="Function that takes multile files, loads them and saves in a cumulus of formats, using an outPattern...">
<polygon fill="white" stroke="black" points="151,-41 151,-60 285,-60 285,-41 151,-41"/>
<text text-anchor="middle" x="218" y="-48" font-family="Helvetica,sans-Serif" font-size="10.00">ReadWriteMS::processFile</text>
</a>
</g>
</g>
<!-- Node3&#45;&gt;Node12 -->
<g id="edge11" class="edge"><title>Node3&#45;&gt;Node12</title>
<path fill="none" stroke="midnightblue" d="M119.436,-61.9781C129.75,-60.7647 140.446,-59.5064 150.811,-58.2869"/>
<polygon fill="midnightblue" stroke="midnightblue" points="118.8,-58.5287 109.277,-63.1733 119.618,-65.4808 118.8,-58.5287"/>
</g>
<!-- Node5 -->
<g id="node3" class="node"><title>Node5</title>
<g id="a_node3"><a xlink:href="group___parsing_arguments_functions.html#gac594aa4b43e39df57eaa2ded49d7d9e1" target="_top" xlink:title="Method to parse the input file argument. ">
<polygon fill="white" stroke="black" points="327,-148 327,-167 466,-167 466,-148 327,-148"/>
<text text-anchor="middle" x="396.5" y="-155" font-family="Helvetica,sans-Serif" font-size="10.00">trimAlManager::in_argument</text>
</a>
</g>
</g>
<!-- Node4&#45;&gt;Node5 -->
<g id="edge2" class="edge"><title>Node4&#45;&gt;Node5</title>
<path fill="none" stroke="midnightblue" d="M246.524,-102.762C268.041,-113.536 298.913,-128.181 327,-138.5 336.499,-141.99 346.941,-145.193 356.747,-147.936"/>
<polygon fill="midnightblue" stroke="midnightblue" points="247.843,-99.5064 237.34,-98.1132 244.682,-105.752 247.843,-99.5064"/>
</g>
<!-- Node7 -->
<g id="node5" class="node"><title>Node7</title>
<g id="a_node5"><a xlink:href="group___parsing_arguments_functions.html#ga28508aa820509b23c2f91634bc638082" target="_top" xlink:title="Method to parse the force select argument. ">
<polygon fill="white" stroke="black" points="343,-98.5 343,-128.5 450,-128.5 450,-98.5 343,-98.5"/>
<text text-anchor="start" x="351" y="-116.5" font-family="Helvetica,sans-Serif" font-size="10.00">trimAlManager::force</text>
<text text-anchor="middle" x="396.5" y="-105.5" font-family="Helvetica,sans-Serif" font-size="10.00">_select_argument</text>
</a>
</g>
</g>
<!-- Node4&#45;&gt;Node7 -->
<g id="edge4" class="edge"><title>Node4&#45;&gt;Node7</title>
<path fill="none" stroke="midnightblue" d="M296.422,-99.4663C312.064,-101.682 328.166,-103.963 342.724,-106.025"/>
<polygon fill="midnightblue" stroke="midnightblue" points="296.623,-95.9599 286.231,-98.0227 295.641,-102.891 296.623,-95.9599"/>
</g>
<!-- Node8 -->
<g id="node6" class="node"><title>Node8</title>
<g id="a_node6"><a xlink:href="group___parsing_arguments_functions.html#gacf6ecf63ed1194adc345de441e2c1fec" target="_top" xlink:title="Method to parse the backtranslation argument. ">
<polygon fill="white" stroke="black" points="343,-49.5 343,-79.5 450,-79.5 450,-49.5 343,-49.5"/>
<text text-anchor="start" x="351" y="-67.5" font-family="Helvetica,sans-Serif" font-size="10.00">trimAlManager::back</text>
<text text-anchor="middle" x="396.5" y="-56.5" font-family="Helvetica,sans-Serif" font-size="10.00">_trans_argument</text>
</a>
</g>
</g>
<!-- Node4&#45;&gt;Node8 -->
<g id="edge6" class="edge"><title>Node4&#45;&gt;Node8</title>
<path fill="none" stroke="midnightblue" d="M299.171,-77.5986C313.945,-75.5896 329.025,-73.5391 342.734,-71.675"/>
<polygon fill="midnightblue" stroke="midnightblue" points="298.448,-74.1646 289.011,-78.9801 299.391,-81.1007 298.448,-74.1646"/>
</g>
<!-- Node9 -->
<g id="node7" class="node"><title>Node9</title>
<g id="a_node7"><a xlink:href="group___check_needs.html#ga7cab8308b05c5921e61217f9c93fab27" target="_top" xlink:title="Method to check if multiple files comparison has been set correctly. It also perform some calculation...">
<polygon fill="white" stroke="black" points="329.5,-0.5 329.5,-30.5 463.5,-30.5 463.5,-0.5 329.5,-0.5"/>
<text text-anchor="start" x="337.5" y="-18.5" font-family="Helvetica,sans-Serif" font-size="10.00">trimAlManager::check</text>
<text text-anchor="middle" x="396.5" y="-7.5" font-family="Helvetica,sans-Serif" font-size="10.00">_multiple_files_comparison</text>
</a>
</g>
</g>
<!-- Node4&#45;&gt;Node9 -->
<g id="edge8" class="edge"><title>Node4&#45;&gt;Node9</title>
<path fill="none" stroke="midnightblue" d="M276.608,-75.7569C281.583,-73.9245 286.449,-71.8481 291,-69.5 309.509,-59.9494 308.883,-49.7739 327,-39.5 332.809,-36.2055 339.15,-33.2464 345.551,-30.6251"/>
<polygon fill="midnightblue" stroke="midnightblue" points="275.332,-72.4932 266.961,-78.9876 277.555,-79.1309 275.332,-72.4932"/>
</g>
<!-- Node6 -->
<g id="node4" class="node"><title>Node6</title>
<g id="a_node4"><a xlink:href="group___parsing_arguments_functions.html#gaf140d97b6071a83930818030ac74b641" target="_top" xlink:title="Method to parse arguments into usable structure in trimal. ">
<polygon fill="white" stroke="black" points="502,-104 502,-123 659,-123 659,-104 502,-104"/>
<text text-anchor="middle" x="580.5" y="-111" font-family="Helvetica,sans-Serif" font-size="10.00">trimAlManager::parseArguments</text>
</a>
</g>
</g>
<!-- Node5&#45;&gt;Node6 -->
<g id="edge3" class="edge"><title>Node5&#45;&gt;Node6</title>
<path fill="none" stroke="midnightblue" d="M447.008,-145.531C476.262,-138.459 512.795,-129.626 540.086,-123.029"/>
<polygon fill="midnightblue" stroke="midnightblue" points="445.889,-142.201 436.991,-147.953 447.534,-149.005 445.889,-142.201"/>
</g>
<!-- Node7&#45;&gt;Node6 -->
<g id="edge5" class="edge"><title>Node7&#45;&gt;Node6</title>
<path fill="none" stroke="midnightblue" d="M460.216,-113.5C473.653,-113.5 488.003,-113.5 501.924,-113.5"/>
<polygon fill="midnightblue" stroke="midnightblue" points="460.142,-110 450.142,-113.5 460.142,-117 460.142,-110"/>
</g>
<!-- Node8&#45;&gt;Node6 -->
<g id="edge7" class="edge"><title>Node8&#45;&gt;Node6</title>
<path fill="none" stroke="midnightblue" d="M459.884,-81.2958C487.962,-88.8551 520.085,-97.5038 543.968,-103.934"/>
<polygon fill="midnightblue" stroke="midnightblue" points="460.708,-77.893 450.142,-78.6728 458.888,-84.6523 460.708,-77.893"/>
</g>
<!-- Node10 -->
<g id="node8" class="node"><title>Node10</title>
<g id="a_node8"><a xlink:href="group___check_needs.html#ga3f325b806727751394adb829d97b35f1" target="_top" xlink:title="Method that checks dependencies between arguments. Take in mind that dependencies may be between mult...">
<polygon fill="white" stroke="black" points="524.5,-0.5 524.5,-30.5 636.5,-30.5 636.5,-0.5 524.5,-0.5"/>
<text text-anchor="start" x="532.5" y="-18.5" font-family="Helvetica,sans-Serif" font-size="10.00">trimAlManager::check</text>
<text text-anchor="middle" x="580.5" y="-7.5" font-family="Helvetica,sans-Serif" font-size="10.00">_arguments_needs</text>
</a>
</g>
</g>
<!-- Node9&#45;&gt;Node10 -->
<g id="edge9" class="edge"><title>Node9&#45;&gt;Node10</title>
<path fill="none" stroke="midnightblue" d="M474.123,-15.5C491.005,-15.5 508.564,-15.5 524.396,-15.5"/>
<polygon fill="midnightblue" stroke="midnightblue" points="473.721,-12.0001 463.721,-15.5 473.721,-19.0001 473.721,-12.0001"/>
</g>
<!-- Node11 -->
<g id="node9" class="node"><title>Node11</title>
<g id="a_node9"><a xlink:href="group___trimal_parsing_arguments.html#gae8565b76a7e277d37e3c78a6c6165343" target="_top" xlink:title="Method to process the information obtained by trimAlManager::parseArguments It checks for argument in...">
<polygon fill="white" stroke="black" points="695,-0.5 695,-30.5 815,-30.5 815,-0.5 695,-0.5"/>
<text text-anchor="start" x="703" y="-18.5" font-family="Helvetica,sans-Serif" font-size="10.00">trimAlManager::process</text>
<text text-anchor="middle" x="755" y="-7.5" font-family="Helvetica,sans-Serif" font-size="10.00">_arguments</text>
</a>
</g>
</g>
<!-- Node10&#45;&gt;Node11 -->
<g id="edge10" class="edge"><title>Node10&#45;&gt;Node11</title>
<path fill="none" stroke="midnightblue" d="M646.738,-15.5C662.49,-15.5 679.237,-15.5 694.699,-15.5"/>
<polygon fill="midnightblue" stroke="midnightblue" points="646.554,-12.0001 636.554,-15.5 646.554,-19.0001 646.554,-12.0001"/>
</g>
</g>
</svg>
