<?xml version="1.0" encoding="UTF-8" standalone="no"?>
<!DOCTYPE svg PUBLIC "-//W3C//DTD SVG 1.1//EN"
 "http://www.w3.org/Graphics/SVG/1.1/DTD/svg11.dtd">
<!-- Generated by graphviz version 2.40.1 (20161225.0304)
 -->
<!-- Title: similarityMatrix::~similarityMatrix Pages: 1 -->
<svg width="257pt" height="39pt"
 viewBox="0.00 0.00 257.00 39.00" xmlns="http://www.w3.org/2000/svg" xmlns:xlink="http://www.w3.org/1999/xlink">
<g id="graph0" class="graph" transform="scale(1 1) rotate(0) translate(4 35)">
<title>similarityMatrix::~similarityMatrix</title>
<polygon fill="#ffffff" stroke="transparent" points="-4,4 -4,-35 253,-35 253,4 -4,4"/>
<!-- Node2 -->
<g id="node1" class="node">
<title>Node2</title>
<g id="a_node1"><a xlink:title="Destructor.">
<polygon fill="#bfbfbf" stroke="#000000" points="0,-.5 0,-30.5 89,-30.5 89,-.5 0,-.5"/>
<text text-anchor="start" x="8" y="-18.5" font-family="Helvetica,sans-Serif" font-size="10.00" fill="#000000">similarityMatrix::</text>
<text text-anchor="middle" x="44.5" y="-7.5" font-family="Helvetica,sans-Serif" font-size="10.00" fill="#000000">~similarityMatrix</text>
</a>
</g>
</g>
<!-- Node3 -->
<g id="node2" class="node">
<title>Node3</title>
<g id="a_node2"><a xlink:href="classsimilarity_matrix.html#acc8f6dbae19b4332929ef6a240524975" target="_top" xlink:title="Method to deallocate memory allocated on the similarityMatrix::memoryAllocation method....">
<polygon fill="#ffffff" stroke="#000000" points="125,-.5 125,-30.5 249,-30.5 249,-.5 125,-.5"/>
<text text-anchor="start" x="133" y="-18.5" font-family="Helvetica,sans-Serif" font-size="10.00" fill="#000000">similarityMatrix::memory</text>
<text text-anchor="middle" x="187" y="-7.5" font-family="Helvetica,sans-Serif" font-size="10.00" fill="#000000">Deletion</text>
</a>
</g>
</g>
<!-- Node2&#45;&gt;Node3 -->
<g id="edge1" class="edge">
<title>Node2&#45;&gt;Node3</title>
<path fill="none" stroke="#191970" d="M89.1969,-15.5C97.3515,-15.5 106.0476,-15.5 114.7633,-15.5"/>
<polygon fill="#191970" stroke="#191970" points="114.9727,-19.0001 124.9727,-15.5 114.9726,-12.0001 114.9727,-19.0001"/>
</g>
</g>
</svg>
