<?xml version="1.0" encoding="UTF-8" standalone="no"?>
<!DOCTYPE svg PUBLIC "-//W3C//DTD SVG 1.1//EN"
 "http://www.w3.org/Graphics/SVG/1.1/DTD/svg11.dtd">
<!-- Generated by graphviz version 2.40.1 (20161225.0304)
 -->
<!-- Title: trimAlManager::check_backtranslation_infile_names_correspondence Pages: 1 -->
<svg width="491pt" height="142pt"
 viewBox="0.00 0.00 491.00 142.00" xmlns="http://www.w3.org/2000/svg" xmlns:xlink="http://www.w3.org/1999/xlink">
<g id="graph0" class="graph" transform="scale(1 1) rotate(0) translate(4 138)">
<title>trimAlManager::check_backtranslation_infile_names_correspondence</title>
<polygon fill="#ffffff" stroke="transparent" points="-4,4 -4,-138 487,-138 487,4 -4,4"/>
<!-- Node94 -->
<g id="node1" class="node">
<title>Node94</title>
<g id="a_node1"><a xlink:title="Method to check if the origAlig and backtranslationAlig are compatible in names to make the backtrans...">
<polygon fill="#bfbfbf" stroke="#000000" points="0,-27.5 0,-68.5 125,-68.5 125,-27.5 0,-27.5"/>
<text text-anchor="start" x="8" y="-56.5" font-family="Helvetica,sans-Serif" font-size="10.00" fill="#000000">trimAlManager::check</text>
<text text-anchor="start" x="8" y="-45.5" font-family="Helvetica,sans-Serif" font-size="10.00" fill="#000000">_backtranslation_infile</text>
<text text-anchor="middle" x="62.5" y="-34.5" font-family="Helvetica,sans-Serif" font-size="10.00" fill="#000000">_names_correspondence</text>
</a>
</g>
</g>
<!-- Node95 -->
<g id="node2" class="node">
<title>Node95</title>
<g id="a_node2"><a xlink:href="class_alignment.html#a34d8f8630fbf51e06897a31bba175b37" target="_top" xlink:title="Function to check CDS file. .">
<polygon fill="#ffffff" stroke="#000000" points="161,-76.5 161,-95.5 325,-95.5 325,-76.5 161,-76.5"/>
<text text-anchor="middle" x="243" y="-83.5" font-family="Helvetica,sans-Serif" font-size="10.00" fill="#000000">Alignment::checkCorrespondence</text>
</a>
</g>
</g>
<!-- Node94&#45;&gt;Node95 -->
<g id="edge1" class="edge">
<title>Node94&#45;&gt;Node95</title>
<path fill="none" stroke="#191970" d="M125.1236,-61.1839C145.5933,-65.4933 168.1615,-70.2445 188.0244,-74.4262"/>
<polygon fill="#191970" stroke="#191970" points="187.3304,-77.8567 197.837,-76.492 188.7726,-71.0069 187.3304,-77.8567"/>
</g>
<!-- Node99 -->
<g id="node6" class="node">
<title>Node99</title>
<g id="a_node6"><a xlink:href="class_alignment.html#a66fdd6d16ef1ccb5e8da24c6e20feca7" target="_top" xlink:title="Number of sequences getter.">
<polygon fill="#ffffff" stroke="#000000" points="175,-38.5 175,-57.5 311,-57.5 311,-38.5 175,-38.5"/>
<text text-anchor="middle" x="243" y="-45.5" font-family="Helvetica,sans-Serif" font-size="10.00" fill="#000000">Alignment::getNumSpecies</text>
</a>
</g>
</g>
<!-- Node94&#45;&gt;Node99 -->
<g id="edge5" class="edge">
<title>Node94&#45;&gt;Node99</title>
<path fill="none" stroke="#191970" d="M125.1236,-48C137.9436,-48 151.5866,-48 164.8727,-48"/>
<polygon fill="#191970" stroke="#191970" points="164.9436,-51.5001 174.9436,-48 164.9435,-44.5001 164.9436,-51.5001"/>
</g>
<!-- Node100 -->
<g id="node7" class="node">
<title>Node100</title>
<g id="a_node7"><a xlink:href="class_alignment.html#ab44caa194f61bbbabf7572f3a70cf2fc" target="_top" xlink:title="Getter for the sequences names.">
<polygon fill="#ffffff" stroke="#000000" points="179,-.5 179,-19.5 307,-19.5 307,-.5 179,-.5"/>
<text text-anchor="middle" x="243" y="-7.5" font-family="Helvetica,sans-Serif" font-size="10.00" fill="#000000">Alignment::getSequences</text>
</a>
</g>
</g>
<!-- Node94&#45;&gt;Node100 -->
<g id="edge6" class="edge">
<title>Node94&#45;&gt;Node100</title>
<path fill="none" stroke="#191970" d="M125.1236,-34.8161C145.5933,-30.5067 168.1615,-25.7555 188.0244,-21.5738"/>
<polygon fill="#191970" stroke="#191970" points="188.7726,-24.9931 197.837,-19.508 187.3304,-18.1433 188.7726,-24.9931"/>
</g>
<!-- Node96 -->
<g id="node3" class="node">
<title>Node96</title>
<g id="a_node3"><a xlink:href="namespaceutils.html#ab04f5770187b0a8c36c3c8ca55f1e67f" target="_top" xlink:title="Minimum of two numbers method.">
<polygon fill="#ffffff" stroke="#000000" points="394,-114.5 394,-133.5 450,-133.5 450,-114.5 394,-114.5"/>
<text text-anchor="middle" x="422" y="-121.5" font-family="Helvetica,sans-Serif" font-size="10.00" fill="#000000">utils::min</text>
</a>
</g>
</g>
<!-- Node95&#45;&gt;Node96 -->
<g id="edge2" class="edge">
<title>Node95&#45;&gt;Node96</title>
<path fill="none" stroke="#191970" d="M288.1693,-95.589C317.7786,-101.8748 356.0483,-109.9991 384.0749,-115.9489"/>
<polygon fill="#191970" stroke="#191970" points="383.3932,-119.3821 393.9021,-118.0351 384.8469,-112.5347 383.3932,-119.3821"/>
</g>
<!-- Node97 -->
<g id="node4" class="node">
<title>Node97</title>
<g id="a_node4"><a xlink:href="namespaceutils.html#ac0a8721fef543bec18cec5c90c16faff" target="_top" xlink:title="Removes a determined char from the string.">
<polygon fill="#ffffff" stroke="#000000" points="364,-76.5 364,-95.5 480,-95.5 480,-76.5 364,-76.5"/>
<text text-anchor="middle" x="422" y="-83.5" font-family="Helvetica,sans-Serif" font-size="10.00" fill="#000000">utils::removeCharacter</text>
</a>
</g>
</g>
<!-- Node95&#45;&gt;Node97 -->
<g id="edge3" class="edge">
<title>Node95&#45;&gt;Node97</title>
<path fill="none" stroke="#191970" d="M325.1655,-86C334.7496,-86 344.4467,-86 353.8131,-86"/>
<polygon fill="#191970" stroke="#191970" points="353.8259,-89.5001 363.8259,-86 353.8258,-82.5001 353.8259,-89.5001"/>
</g>
<!-- Node98 -->
<g id="node5" class="node">
<title>Node98</title>
<g id="a_node5"><a xlink:href="classreporting_1_1report_manager.html#a6d122e673144584e0869bd33b8a5c1c6" target="_top" xlink:title="Method to report an Error. &#160;It will be displayed if Level &#160;is equal or higher to VerboseLevel::ERROR.">
<polygon fill="#ffffff" stroke="#000000" points="361,-27 361,-57 483,-57 483,-27 361,-27"/>
<text text-anchor="start" x="369" y="-45" font-family="Helvetica,sans-Serif" font-size="10.00" fill="#000000">reporting::reportManager</text>
<text text-anchor="middle" x="422" y="-34" font-family="Helvetica,sans-Serif" font-size="10.00" fill="#000000">::report</text>
</a>
</g>
</g>
<!-- Node95&#45;&gt;Node98 -->
<g id="edge4" class="edge">
<title>Node95&#45;&gt;Node98</title>
<path fill="none" stroke="#191970" d="M285.1842,-76.4345C297.9878,-73.4749 312.083,-70.1605 325,-67 334.6286,-64.6441 344.7783,-62.0979 354.7398,-59.5629"/>
<polygon fill="#191970" stroke="#191970" points="355.7906,-62.9069 364.6121,-57.0392 354.0568,-56.125 355.7906,-62.9069"/>
</g>
</g>
</svg>
