<?xml version="1.0" encoding="UTF-8" standalone="no"?>
<!DOCTYPE svg PUBLIC "-//W3C//DTD SVG 1.1//EN"
 "http://www.w3.org/Graphics/SVG/1.1/DTD/svg11.dtd">
<!-- Generated by graphviz version 2.40.1 (20161225.0304)
 -->
<!-- Title: trimAlManager::svg_out_argument Pages: 1 -->
<svg width="376pt" height="39pt"
 viewBox="0.00 0.00 376.00 39.00" xmlns="http://www.w3.org/2000/svg" xmlns:xlink="http://www.w3.org/1999/xlink">
<g id="graph0" class="graph" transform="scale(1 1) rotate(0) translate(4 35)">
<title>trimAlManager::svg_out_argument</title>
<polygon fill="#ffffff" stroke="transparent" points="-4,4 -4,-35 372,-35 372,4 -4,4"/>
<!-- Node1363 -->
<g id="node1" class="node">
<title>Node1363</title>
<polygon fill="#bfbfbf" stroke="#000000" points="0,-.5 0,-30.5 101,-30.5 101,-.5 0,-.5"/>
<text text-anchor="start" x="8" y="-18.5" font-family="Helvetica,sans-Serif" font-size="10.00" fill="#000000">trimAlManager::svg</text>
<text text-anchor="middle" x="50.5" y="-7.5" font-family="Helvetica,sans-Serif" font-size="10.00" fill="#000000">_out_argument</text>
</g>
<!-- Node1364 -->
<g id="node2" class="node">
<title>Node1364</title>
<g id="a_node2"><a xlink:href="classtrim_al_manager.html#af3b0625b6bcc6df5978e63530a5956e6" target="_top" xlink:title="Method to parse arguments into usable structure in trimal. ">
<polygon fill="#ffffff" stroke="#000000" points="137,-6 137,-25 294,-25 294,-6 137,-6"/>
<text text-anchor="middle" x="215.5" y="-13" font-family="Helvetica,sans-Serif" font-size="10.00" fill="#000000">trimAlManager::parseArguments</text>
</a>
</g>
</g>
<!-- Node1363&#45;&gt;Node1364 -->
<g id="edge1" class="edge">
<title>Node1363&#45;&gt;Node1364</title>
<path fill="none" stroke="#191970" d="M111.6056,-15.5C119.8516,-15.5 128.4039,-15.5 136.9008,-15.5"/>
<polygon fill="#191970" stroke="#191970" points="111.3518,-12.0001 101.3518,-15.5 111.3518,-19.0001 111.3518,-12.0001"/>
</g>
<!-- Node1365 -->
<g id="node3" class="node">
<title>Node1365</title>
<g id="a_node3"><a xlink:href="trim_al_main_8cpp.html#a0ddf1224851353fc92bfbff6f499fa97" target="_top" xlink:title="main">
<polygon fill="#ffffff" stroke="#000000" points="330,-6 330,-25 368,-25 368,-6 330,-6"/>
<text text-anchor="middle" x="349" y="-13" font-family="Helvetica,sans-Serif" font-size="10.00" fill="#000000">main</text>
</a>
</g>
</g>
<!-- Node1364&#45;&gt;Node1365 -->
<g id="edge2" class="edge">
<title>Node1364&#45;&gt;Node1365</title>
<path fill="none" stroke="#191970" d="M304.5766,-15.5C313.8353,-15.5 322.4462,-15.5 329.5746,-15.5"/>
<polygon fill="#191970" stroke="#191970" points="304.3153,-12.0001 294.3152,-15.5 304.3152,-19.0001 304.3153,-12.0001"/>
</g>
</g>
</svg>
