<?xml version="1.0" encoding="UTF-8" standalone="no"?>
<!DOCTYPE svg PUBLIC "-//W3C//DTD SVG 1.1//EN"
 "http://www.w3.org/Graphics/SVG/1.1/DTD/svg11.dtd">
<!-- Generated by graphviz version 2.38.0 (20140413.2041)
 -->
<!-- Title: ReadWriteMS::processFile Pages: 1 -->
<svg width="313pt" height="116pt"
 viewBox="0.00 0.00 313.00 115.50" xmlns="http://www.w3.org/2000/svg" xmlns:xlink="http://www.w3.org/1999/xlink">
<g id="graph0" class="graph" transform="scale(1 1) rotate(0) translate(4 111.5)">
<title>ReadWriteMS::processFile</title>
<polygon fill="white" stroke="none" points="-4,4 -4,-111.5 309,-111.5 309,4 -4,4"/>
<!-- Node19 -->
<g id="node1" class="node"><title>Node19</title>
<polygon fill="#bfbfbf" stroke="black" points="0,-38.5 0,-57.5 134,-57.5 134,-38.5 0,-38.5"/>
<text text-anchor="middle" x="67" y="-45.5" font-family="Helvetica,sans-Serif" font-size="10.00">ReadWriteMS::processFile</text>
</g>
<!-- Node20 -->
<g id="node2" class="node"><title>Node20</title>
<g id="a_node2"><a xlink:href="class_read_write_base_state.html#ac6d87d2b73337cb4afa1499bf218f4ab" target="_top" xlink:title="Function to load a file in the current format and return an alignment object. ">
<polygon fill="white" stroke="black" points="183,-77 183,-107 292,-107 292,-77 183,-77"/>
<text text-anchor="start" x="191" y="-95" font-family="Helvetica,sans-Serif" font-size="10.00">ReadWriteBaseState</text>
<text text-anchor="middle" x="237.5" y="-84" font-family="Helvetica,sans-Serif" font-size="10.00">::LoadAlignment</text>
</a>
</g>
</g>
<!-- Node19&#45;&gt;Node20 -->
<g id="edge1" class="edge"><title>Node19&#45;&gt;Node20</title>
<path fill="none" stroke="midnightblue" d="M104.562,-57.5473C124.549,-62.7666 149.876,-69.3801 172.984,-75.4142"/>
<polygon fill="midnightblue" stroke="midnightblue" points="172.17,-78.8189 182.73,-77.959 173.938,-72.046 172.17,-78.8189"/>
</g>
<!-- Node21 -->
<g id="node3" class="node"><title>Node21</title>
<g id="a_node3"><a xlink:href="classutils.html#ab0cb109dc7e12b42abd4cba86f7d8e78" target="_top" xlink:title="Function that replaces a substring with another substring in a string. It makes a copy of the origina...">
<polygon fill="white" stroke="black" points="186.5,-38.5 186.5,-57.5 288.5,-57.5 288.5,-38.5 186.5,-38.5"/>
<text text-anchor="middle" x="237.5" y="-45.5" font-family="Helvetica,sans-Serif" font-size="10.00">utils::ReplaceString</text>
</a>
</g>
</g>
<!-- Node19&#45;&gt;Node21 -->
<g id="edge2" class="edge"><title>Node19&#45;&gt;Node21</title>
<path fill="none" stroke="midnightblue" d="M134.112,-48C147.998,-48 162.574,-48 176.233,-48"/>
<polygon fill="midnightblue" stroke="midnightblue" points="176.473,-51.5001 186.473,-48 176.473,-44.5001 176.473,-51.5001"/>
</g>
<!-- Node22 -->
<g id="node4" class="node"><title>Node22</title>
<g id="a_node4"><a xlink:href="classutils.html#a6000246220e801bf6b1e6a553d7af13a" target="_top" xlink:title="Function that replaces a substring with another substring in a string. It does not make a copy of the...">
<polygon fill="white" stroke="black" points="170,-0.5 170,-19.5 305,-19.5 305,-0.5 170,-0.5"/>
<text text-anchor="middle" x="237.5" y="-7.5" font-family="Helvetica,sans-Serif" font-size="10.00">utils::ReplaceStringInPlace</text>
</a>
</g>
</g>
<!-- Node19&#45;&gt;Node22 -->
<g id="edge3" class="edge"><title>Node19&#45;&gt;Node22</title>
<path fill="none" stroke="midnightblue" d="M110.52,-38.411C132.955,-33.3513 160.673,-27.1004 184.393,-21.7512"/>
<polygon fill="midnightblue" stroke="midnightblue" points="185.301,-25.1343 194.286,-19.5201 183.761,-18.3058 185.301,-25.1343"/>
</g>
</g>
</svg>
