<?xml version="1.0" encoding="UTF-8" standalone="no"?>
<!DOCTYPE svg PUBLIC "-//W3C//DTD SVG 1.1//EN"
 "http://www.w3.org/Graphics/SVG/1.1/DTD/svg11.dtd">
<!-- Generated by graphviz version 2.40.1 (20161225.0304)
 -->
<!-- Title: statistics::Gaps::calcCutPoint Pages: 1 -->
<svg width="1032pt" height="78pt"
 viewBox="0.00 0.00 1032.00 77.50" xmlns="http://www.w3.org/2000/svg" xmlns:xlink="http://www.w3.org/1999/xlink">
<g id="graph0" class="graph" transform="scale(1 1) rotate(0) translate(4 73.5)">
<title>statistics::Gaps::calcCutPoint</title>
<polygon fill="#ffffff" stroke="transparent" points="-4,4 -4,-73.5 1028,-73.5 1028,4 -4,4"/>
<!-- Node106 -->
<g id="node1" class="node">
<title>Node106</title>
<polygon fill="#bfbfbf" stroke="#000000" points="0,-20 0,-50 125,-50 125,-20 0,-20"/>
<text text-anchor="start" x="8" y="-38" font-family="Helvetica,sans-Serif" font-size="10.00" fill="#000000">statistics::Gaps::calcCut</text>
<text text-anchor="middle" x="62.5" y="-27" font-family="Helvetica,sans-Serif" font-size="10.00" fill="#000000">Point</text>
</g>
<!-- Node107 -->
<g id="node2" class="node">
<title>Node107</title>
<g id="a_node2"><a xlink:href="class_cleaner.html#a4718e31c0183b5a98751d77479faacf0" target="_top" xlink:title="Method to trim an alignment based on the similarity and gaps distribution values. ...">
<polygon fill="#ffffff" stroke="#000000" points="172.5,-44.5 172.5,-63.5 252.5,-63.5 252.5,-44.5 172.5,-44.5"/>
<text text-anchor="middle" x="212.5" y="-51.5" font-family="Helvetica,sans-Serif" font-size="10.00" fill="#000000">Cleaner::clean</text>
</a>
</g>
</g>
<!-- Node106&#45;&gt;Node107 -->
<g id="edge1" class="edge">
<title>Node106&#45;&gt;Node107</title>
<path fill="none" stroke="#191970" d="M135.3763,-44.231C148.0663,-45.8384 160.8374,-47.4561 172.235,-48.8998"/>
<polygon fill="#191970" stroke="#191970" points="135.605,-40.7321 125.2444,-42.9476 134.7253,-47.6766 135.605,-40.7321"/>
</g>
<!-- Node113 -->
<g id="node8" class="node">
<title>Node113</title>
<g id="a_node8"><a xlink:href="class_cleaner.html#af7c9e1a177424168fa4214aca9ebd8e2" target="_top" xlink:title="Method to trim an alignment based on the gap distribution values. Column blocks that don&#39;t have a min...">
<polygon fill="#ffffff" stroke="#000000" points="161,-6.5 161,-25.5 264,-25.5 264,-6.5 161,-6.5"/>
<text text-anchor="middle" x="212.5" y="-13.5" font-family="Helvetica,sans-Serif" font-size="10.00" fill="#000000">Cleaner::cleanGaps</text>
</a>
</g>
</g>
<!-- Node106&#45;&gt;Node113 -->
<g id="edge7" class="edge">
<title>Node106&#45;&gt;Node113</title>
<path fill="none" stroke="#191970" d="M135.3421,-25.7733C143.9822,-24.6789 152.6605,-23.5797 160.9179,-22.5337"/>
<polygon fill="#191970" stroke="#191970" points="134.7253,-22.3234 125.2444,-27.0524 135.605,-29.2679 134.7253,-22.3234"/>
</g>
<!-- Node108 -->
<g id="node3" class="node">
<title>Node108</title>
<g id="a_node3"><a xlink:href="classtrim_al_manager.html#aebfd21b0435302f0e4fc45a068d1b6ee" target="_top" xlink:title="Method to trim the alignment using non automatic methods: ">
<polygon fill="#ffffff" stroke="#000000" points="310.5,-39 310.5,-69 462.5,-69 462.5,-39 310.5,-39"/>
<text text-anchor="start" x="318.5" y="-57" font-family="Helvetica,sans-Serif" font-size="10.00" fill="#000000">trimAlManager::CleanResidues</text>
<text text-anchor="middle" x="386.5" y="-46" font-family="Helvetica,sans-Serif" font-size="10.00" fill="#000000">NonAuto</text>
</a>
</g>
</g>
<!-- Node107&#45;&gt;Node108 -->
<g id="edge2" class="edge">
<title>Node107&#45;&gt;Node108</title>
<path fill="none" stroke="#191970" d="M263.2777,-54C278.044,-54 294.5051,-54 310.4658,-54"/>
<polygon fill="#191970" stroke="#191970" points="262.8565,-50.5001 252.8564,-54 262.8564,-57.5001 262.8565,-50.5001"/>
</g>
<!-- Node109 -->
<g id="node4" class="node">
<title>Node109</title>
<g id="a_node4"><a xlink:href="classtrim_al_manager.html#adc529dd893ed4e9df6f3ddbd58776068" target="_top" xlink:title="Core Method of the program. This is where almost all cleaning methods are called from. ">
<polygon fill="#ffffff" stroke="#000000" points="509,-17 509,-47 618,-47 618,-17 509,-17"/>
<text text-anchor="start" x="517" y="-35" font-family="Helvetica,sans-Serif" font-size="10.00" fill="#000000">trimAlManager::clean</text>
<text text-anchor="middle" x="563.5" y="-24" font-family="Helvetica,sans-Serif" font-size="10.00" fill="#000000">_alignment</text>
</a>
</g>
</g>
<!-- Node108&#45;&gt;Node109 -->
<g id="edge3" class="edge">
<title>Node108&#45;&gt;Node109</title>
<path fill="none" stroke="#191970" d="M472.8525,-43.2669C485.1085,-41.7436 497.4193,-40.2134 508.8442,-38.7934"/>
<polygon fill="#191970" stroke="#191970" points="472.0831,-39.8355 462.5911,-44.5423 472.9465,-46.7821 472.0831,-39.8355"/>
</g>
<!-- Node110 -->
<g id="node5" class="node">
<title>Node110</title>
<g id="a_node5"><a xlink:href="classtrim_al_manager.html#a7c641a1feff33d401b4ea5c82e989289" target="_top" xlink:title="trimAlManager::innerPerform">
<polygon fill="#ffffff" stroke="#000000" points="654,-22.5 654,-41.5 795,-41.5 795,-22.5 654,-22.5"/>
<text text-anchor="middle" x="724.5" y="-29.5" font-family="Helvetica,sans-Serif" font-size="10.00" fill="#000000">trimAlManager::innerPerform</text>
</a>
</g>
</g>
<!-- Node109&#45;&gt;Node110 -->
<g id="edge4" class="edge">
<title>Node109&#45;&gt;Node110</title>
<path fill="none" stroke="#191970" d="M628.1474,-32C636.5802,-32 645.2546,-32 653.7806,-32"/>
<polygon fill="#191970" stroke="#191970" points="628.0073,-28.5001 618.0073,-32 628.0072,-35.5001 628.0073,-28.5001"/>
</g>
<!-- Node111 -->
<g id="node6" class="node">
<title>Node111</title>
<g id="a_node6"><a xlink:href="classtrim_al_manager.html#abe8d2841455c644dc9c7d1294b82b00f" target="_top" xlink:title="Method to perform the analysis if all checks have passed. ">
<polygon fill="#ffffff" stroke="#000000" points="831,-22.5 831,-41.5 950,-41.5 950,-22.5 831,-22.5"/>
<text text-anchor="middle" x="890.5" y="-29.5" font-family="Helvetica,sans-Serif" font-size="10.00" fill="#000000">trimAlManager::perform</text>
</a>
</g>
</g>
<!-- Node110&#45;&gt;Node111 -->
<g id="edge5" class="edge">
<title>Node110&#45;&gt;Node111</title>
<path fill="none" stroke="#191970" d="M805.4012,-32C813.9677,-32 822.564,-32 830.8249,-32"/>
<polygon fill="#191970" stroke="#191970" points="805.3805,-28.5001 795.3804,-32 805.3804,-35.5001 805.3805,-28.5001"/>
</g>
<!-- Node112 -->
<g id="node7" class="node">
<title>Node112</title>
<g id="a_node7"><a xlink:href="trim_al_main_8cpp.html#a0ddf1224851353fc92bfbff6f499fa97" target="_top" xlink:title="main">
<polygon fill="#ffffff" stroke="#000000" points="986,-22.5 986,-41.5 1024,-41.5 1024,-22.5 986,-22.5"/>
<text text-anchor="middle" x="1005" y="-29.5" font-family="Helvetica,sans-Serif" font-size="10.00" fill="#000000">main</text>
</a>
</g>
</g>
<!-- Node111&#45;&gt;Node112 -->
<g id="edge6" class="edge">
<title>Node111&#45;&gt;Node112</title>
<path fill="none" stroke="#191970" d="M960.3198,-32C969.6177,-32 978.4503,-32 985.7697,-32"/>
<polygon fill="#191970" stroke="#191970" points="960.0976,-28.5001 950.0976,-32 960.0975,-35.5001 960.0976,-28.5001"/>
</g>
<!-- Node113&#45;&gt;Node108 -->
<g id="edge10" class="edge">
<title>Node113&#45;&gt;Node108</title>
<path fill="none" stroke="#191970" d="M266.2433,-27.7371C282.4567,-31.2779 300.484,-35.2149 317.5432,-38.9405"/>
<polygon fill="#191970" stroke="#191970" points="266.9241,-24.3033 256.4075,-25.589 265.4305,-31.1421 266.9241,-24.3033"/>
</g>
<!-- Node114 -->
<g id="node9" class="node">
<title>Node114</title>
<g id="a_node9"><a xlink:href="classtrim_al_manager.html#a69082911b30a1bd12395bb235bc18a34" target="_top" xlink:title="Method to trim the alignment using automatic or semi&#45;automatic methods: ">
<polygon fill="#ffffff" stroke="#000000" points="300,-.5 300,-19.5 473,-19.5 473,-.5 300,-.5"/>
<text text-anchor="middle" x="386.5" y="-7.5" font-family="Helvetica,sans-Serif" font-size="10.00" fill="#000000">trimAlManager::CleanResiduesAuto</text>
</a>
</g>
</g>
<!-- Node113&#45;&gt;Node114 -->
<g id="edge8" class="edge">
<title>Node113&#45;&gt;Node114</title>
<path fill="none" stroke="#191970" d="M274.4515,-13.8637C282.6748,-13.5802 291.2246,-13.2854 299.7708,-12.9907"/>
<polygon fill="#191970" stroke="#191970" points="274.108,-10.3734 264.2346,-14.216 274.3493,-17.3693 274.108,-10.3734"/>
</g>
<!-- Node114&#45;&gt;Node109 -->
<g id="edge9" class="edge">
<title>Node114&#45;&gt;Node109</title>
<path fill="none" stroke="#191970" d="M473.2724,-20.7853C485.4121,-22.2942 497.5952,-23.8084 508.9074,-25.2145"/>
<polygon fill="#191970" stroke="#191970" points="473.4607,-17.2818 463.1053,-19.5216 472.5972,-24.2284 473.4607,-17.2818"/>
</g>
</g>
</svg>
