<?xml version="1.0" encoding="UTF-8" standalone="no"?>
<!DOCTYPE svg PUBLIC "-//W3C//DTD SVG 1.1//EN"
 "http://www.w3.org/Graphics/SVG/1.1/DTD/svg11.dtd">
<!-- Generated by graphviz version 2.38.0 (20140413.2041)
 -->
<!-- Title: trimAlManager::check_thresholds_incompatibilities Pages: 1 -->
<svg width="532pt" height="39pt"
 viewBox="0.00 0.00 532.00 39.00" xmlns="http://www.w3.org/2000/svg" xmlns:xlink="http://www.w3.org/1999/xlink">
<g id="graph0" class="graph" transform="scale(1 1) rotate(0) translate(4 35)">
<title>trimAlManager::check_thresholds_incompatibilities</title>
<polygon fill="white" stroke="none" points="-4,4 -4,-35 528,-35 528,4 -4,4"/>
<!-- Node198 -->
<g id="node1" class="node"><title>Node198</title>
<polygon fill="#bfbfbf" stroke="black" points="0,-0.5 0,-30.5 142,-30.5 142,-0.5 0,-0.5"/>
<text text-anchor="start" x="8" y="-18.5" font-family="Helvetica,sans-Serif" font-size="10.00">trimAlManager::check</text>
<text text-anchor="middle" x="71" y="-7.5" font-family="Helvetica,sans-Serif" font-size="10.00">_thresholds_incompatibilities</text>
</g>
<!-- Node199 -->
<g id="node2" class="node"><title>Node199</title>
<g id="a_node2"><a xlink:href="classtrim_al_manager.html#a16d2da3f90cfe965bea5f1da1360e17a" target="_top" xlink:title="Method to check argument incompatibilities. Take in mind that an incompatibility is between two argum...">
<polygon fill="white" stroke="black" points="178,-0.5 178,-30.5 321,-30.5 321,-0.5 178,-0.5"/>
<text text-anchor="start" x="186" y="-18.5" font-family="Helvetica,sans-Serif" font-size="10.00">trimAlManager::check</text>
<text text-anchor="middle" x="249.5" y="-7.5" font-family="Helvetica,sans-Serif" font-size="10.00">_arguments_incompatibilities</text>
</a>
</g>
</g>
<!-- Node198&#45;&gt;Node199 -->
<g id="edge1" class="edge"><title>Node198&#45;&gt;Node199</title>
<path fill="none" stroke="midnightblue" d="M152.088,-15.5C160.73,-15.5 169.478,-15.5 177.996,-15.5"/>
<polygon fill="midnightblue" stroke="midnightblue" points="152.011,-12.0001 142.011,-15.5 152.011,-19.0001 152.011,-12.0001"/>
</g>
<!-- Node200 -->
<g id="node3" class="node"><title>Node200</title>
<g id="a_node3"><a xlink:href="classtrim_al_manager.html#a748b08a1ec5cd214de804ed0d4234a6e" target="_top" xlink:title="Method to process the information obtained by trimAlManager::parseArguments It checks for argument in...">
<polygon fill="white" stroke="black" points="357,-6 357,-25 524,-25 524,-6 357,-6"/>
<text text-anchor="middle" x="440.5" y="-13" font-family="Helvetica,sans-Serif" font-size="10.00">trimAlManager::processArguments</text>
</a>
</g>
</g>
<!-- Node199&#45;&gt;Node200 -->
<g id="edge2" class="edge"><title>Node199&#45;&gt;Node200</title>
<path fill="none" stroke="midnightblue" d="M331.349,-15.5C339.789,-15.5 348.378,-15.5 356.839,-15.5"/>
<polygon fill="midnightblue" stroke="midnightblue" points="331.145,-12.0001 321.145,-15.5 331.145,-19.0001 331.145,-12.0001"/>
</g>
</g>
</svg>
