<?xml version="1.0" encoding="UTF-8" standalone="no"?>
<!DOCTYPE svg PUBLIC "-//W3C//DTD SVG 1.1//EN"
 "http://www.w3.org/Graphics/SVG/1.1/DTD/svg11.dtd">
<!-- Generated by graphviz version 2.38.0 (20140413.2041)
 -->
<!-- Title: utils::ReplaceStringInPlace Pages: 1 -->
<svg width="676pt" height="144pt"
 viewBox="0.00 0.00 676.00 143.50" xmlns="http://www.w3.org/2000/svg" xmlns:xlink="http://www.w3.org/1999/xlink">
<g id="graph0" class="graph" transform="scale(1 1) rotate(0) translate(4 139.5)">
<title>utils::ReplaceStringInPlace</title>
<polygon fill="white" stroke="none" points="-4,4 -4,-139.5 672,-139.5 672,4 -4,4"/>
<!-- Node190 -->
<g id="node1" class="node"><title>Node190</title>
<polygon fill="#bfbfbf" stroke="black" points="0,-72 0,-91 135,-91 135,-72 0,-72"/>
<text text-anchor="middle" x="67.5" y="-79" font-family="Helvetica,sans-Serif" font-size="10.00">utils::ReplaceStringInPlace</text>
</g>
<!-- Node191 -->
<g id="node2" class="node"><title>Node191</title>
<g id="a_node2"><a xlink:href="class_read_write_m_s.html#a96e81b9c1bb49a746bc923b0ecf9b0d0" target="_top" xlink:title="Function to save an alignment to a file. It searches among the available_states one that can write th...">
<polygon fill="white" stroke="black" points="171,-116 171,-135 320,-135 320,-116 171,-116"/>
<text text-anchor="middle" x="245.5" y="-123" font-family="Helvetica,sans-Serif" font-size="10.00">ReadWriteMS::saveAlignment</text>
</a>
</g>
</g>
<!-- Node190&#45;&gt;Node191 -->
<g id="edge1" class="edge"><title>Node190&#45;&gt;Node191</title>
<path fill="none" stroke="midnightblue" d="M116.747,-93.5617C144.974,-100.618 180.11,-109.402 206.385,-115.971"/>
<polygon fill="midnightblue" stroke="midnightblue" points="117.24,-90.0773 106.689,-91.0473 115.542,-96.8683 117.24,-90.0773"/>
</g>
<!-- Node193 -->
<g id="node4" class="node"><title>Node193</title>
<g id="a_node4"><a xlink:href="class_read_write_m_s.html#ab019d93e740d838c7e64415630ca5ad5" target="_top" xlink:title="Function that takes multiple files, loads them and saves in a cumulus of formats, using an outPattern...">
<polygon fill="white" stroke="black" points="174.5,-66.5 174.5,-96.5 316.5,-96.5 316.5,-66.5 174.5,-66.5"/>
<text text-anchor="start" x="182.5" y="-84.5" font-family="Helvetica,sans-Serif" font-size="10.00">ReadWriteMS::loadAndSave</text>
<text text-anchor="middle" x="245.5" y="-73.5" font-family="Helvetica,sans-Serif" font-size="10.00">MultipleAlignments</text>
</a>
</g>
</g>
<!-- Node190&#45;&gt;Node193 -->
<g id="edge3" class="edge"><title>Node190&#45;&gt;Node193</title>
<path fill="none" stroke="midnightblue" d="M145.086,-81.5C154.812,-81.5 164.728,-81.5 174.347,-81.5"/>
<polygon fill="midnightblue" stroke="midnightblue" points="145.038,-78.0001 135.038,-81.5 145.038,-85.0001 145.038,-78.0001"/>
</g>
<!-- Node194 -->
<g id="node5" class="node"><title>Node194</title>
<g id="a_node5"><a xlink:href="classtrim_al_manager.html#a09d07645fa0057989875f2b2d25ec4d7" target="_top" xlink:title="Method to show the menu of the program. ">
<polygon fill="white" stroke="black" points="190.5,-28 190.5,-47 300.5,-47 300.5,-28 190.5,-28"/>
<text text-anchor="middle" x="245.5" y="-35" font-family="Helvetica,sans-Serif" font-size="10.00">trimAlManager::menu</text>
</a>
</g>
</g>
<!-- Node190&#45;&gt;Node194 -->
<g id="edge4" class="edge"><title>Node190&#45;&gt;Node194</title>
<path fill="none" stroke="midnightblue" d="M116.747,-69.4383C144.974,-62.3815 180.11,-53.5976 206.385,-47.0287"/>
<polygon fill="midnightblue" stroke="midnightblue" points="115.542,-66.1317 106.689,-71.9527 117.24,-72.9227 115.542,-66.1317"/>
</g>
<!-- Node192 -->
<g id="node3" class="node"><title>Node192</title>
<g id="a_node3"><a xlink:href="classtrim_al_manager.html#abe8d2841455c644dc9c7d1294b82b00f" target="_top" xlink:title="Method to perform the analysis if all checks have passed. ">
<polygon fill="white" stroke="black" points="356,-116 356,-135 475,-135 475,-116 356,-116"/>
<text text-anchor="middle" x="415.5" y="-123" font-family="Helvetica,sans-Serif" font-size="10.00">trimAlManager::perform</text>
</a>
</g>
</g>
<!-- Node191&#45;&gt;Node192 -->
<g id="edge2" class="edge"><title>Node191&#45;&gt;Node192</title>
<path fill="none" stroke="midnightblue" d="M330.274,-125.5C338.887,-125.5 347.503,-125.5 355.759,-125.5"/>
<polygon fill="midnightblue" stroke="midnightblue" points="330.187,-122 320.187,-125.5 330.187,-129 330.187,-122"/>
</g>
<!-- Node195 -->
<g id="node6" class="node"><title>Node195</title>
<g id="a_node6"><a xlink:href="classtrim_al_manager.html#af140d97b6071a83930818030ac74b641" target="_top" xlink:title="Method to parse arguments into usable structure in trimal. ">
<polygon fill="white" stroke="black" points="511,-28 511,-47 668,-47 668,-28 511,-28"/>
<text text-anchor="middle" x="589.5" y="-35" font-family="Helvetica,sans-Serif" font-size="10.00">trimAlManager::parseArguments</text>
</a>
</g>
</g>
<!-- Node194&#45;&gt;Node195 -->
<g id="edge5" class="edge"><title>Node194&#45;&gt;Node195</title>
<path fill="none" stroke="midnightblue" d="M310.659,-38.868C325.544,-39.131 341.324,-39.366 356,-39.5 408.887,-39.9829 422.113,-39.9659 475,-39.5 486.627,-39.3976 498.924,-39.2361 510.963,-39.0483"/>
<polygon fill="midnightblue" stroke="midnightblue" points="310.584,-35.3662 300.522,-38.6824 310.456,-42.365 310.584,-35.3662"/>
</g>
<!-- Node196 -->
<g id="node7" class="node"><title>Node196</title>
<g id="a_node7"><a xlink:href="classtrim_al_manager.html#aa972a9eca4e513eb6f5b2f0d8b608093" target="_top" xlink:title="Method to parse information arguments as help and menu. ">
<polygon fill="white" stroke="black" points="363.5,-0.5 363.5,-30.5 467.5,-30.5 467.5,-0.5 363.5,-0.5"/>
<text text-anchor="start" x="371.5" y="-18.5" font-family="Helvetica,sans-Serif" font-size="10.00">trimAlManager::help</text>
<text text-anchor="middle" x="415.5" y="-7.5" font-family="Helvetica,sans-Serif" font-size="10.00">_arguments</text>
</a>
</g>
</g>
<!-- Node194&#45;&gt;Node196 -->
<g id="edge6" class="edge"><title>Node194&#45;&gt;Node196</title>
<path fill="none" stroke="midnightblue" d="M310.684,-29.0949C328.122,-26.8114 346.768,-24.3696 363.378,-22.1945"/>
<polygon fill="midnightblue" stroke="midnightblue" points="310.042,-25.6491 300.581,-30.418 310.951,-32.5898 310.042,-25.6491"/>
</g>
<!-- Node196&#45;&gt;Node195 -->
<g id="edge7" class="edge"><title>Node196&#45;&gt;Node195</title>
<path fill="none" stroke="midnightblue" d="M477.756,-23.3351C489.493,-24.8363 501.902,-26.4235 514.001,-27.9711"/>
<polygon fill="midnightblue" stroke="midnightblue" points="478.003,-19.8383 467.64,-22.0412 477.115,-26.7817 478.003,-19.8383"/>
</g>
</g>
</svg>
