<?xml version="1.0" encoding="UTF-8" standalone="no"?>
<!DOCTYPE svg PUBLIC "-//W3C//DTD SVG 1.1//EN"
 "http://www.w3.org/Graphics/SVG/1.1/DTD/svg11.dtd">
<!-- Generated by graphviz version 2.40.1 (20161225.0304)
 -->
<!-- Title: trimAlManager::CleanResiduesAuto Pages: 1 -->
<svg width="732pt" height="39pt"
 viewBox="0.00 0.00 732.00 39.00" xmlns="http://www.w3.org/2000/svg" xmlns:xlink="http://www.w3.org/1999/xlink">
<g id="graph0" class="graph" transform="scale(1 1) rotate(0) translate(4 35)">
<title>trimAlManager::CleanResiduesAuto</title>
<polygon fill="#ffffff" stroke="transparent" points="-4,4 -4,-35 728,-35 728,4 -4,4"/>
<!-- Node419 -->
<g id="node1" class="node">
<title>Node419</title>
<polygon fill="#bfbfbf" stroke="#000000" points="0,-6 0,-25 173,-25 173,-6 0,-6"/>
<text text-anchor="middle" x="86.5" y="-13" font-family="Helvetica,sans-Serif" font-size="10.00" fill="#000000">trimAlManager::CleanResiduesAuto</text>
</g>
<!-- Node420 -->
<g id="node2" class="node">
<title>Node420</title>
<g id="a_node2"><a xlink:href="classtrim_al_manager.html#adc529dd893ed4e9df6f3ddbd58776068" target="_top" xlink:title="Core Method of the program. This is where almost all cleaning methods are called from. ">
<polygon fill="#ffffff" stroke="#000000" points="209,-.5 209,-30.5 318,-30.5 318,-.5 209,-.5"/>
<text text-anchor="start" x="217" y="-18.5" font-family="Helvetica,sans-Serif" font-size="10.00" fill="#000000">trimAlManager::clean</text>
<text text-anchor="middle" x="263.5" y="-7.5" font-family="Helvetica,sans-Serif" font-size="10.00" fill="#000000">_alignment</text>
</a>
</g>
</g>
<!-- Node419&#45;&gt;Node420 -->
<g id="edge1" class="edge">
<title>Node419&#45;&gt;Node420</title>
<path fill="none" stroke="#191970" d="M183.3747,-15.5C192.0296,-15.5 200.5767,-15.5 208.6809,-15.5"/>
<polygon fill="#191970" stroke="#191970" points="183.1852,-12.0001 173.1852,-15.5 183.1851,-19.0001 183.1852,-12.0001"/>
</g>
<!-- Node421 -->
<g id="node3" class="node">
<title>Node421</title>
<g id="a_node3"><a xlink:href="classtrim_al_manager.html#a7c641a1feff33d401b4ea5c82e989289" target="_top" xlink:title="trimAlManager::innerPerform">
<polygon fill="#ffffff" stroke="#000000" points="354,-6 354,-25 495,-25 495,-6 354,-6"/>
<text text-anchor="middle" x="424.5" y="-13" font-family="Helvetica,sans-Serif" font-size="10.00" fill="#000000">trimAlManager::innerPerform</text>
</a>
</g>
</g>
<!-- Node420&#45;&gt;Node421 -->
<g id="edge2" class="edge">
<title>Node420&#45;&gt;Node421</title>
<path fill="none" stroke="#191970" d="M328.1474,-15.5C336.5802,-15.5 345.2546,-15.5 353.7806,-15.5"/>
<polygon fill="#191970" stroke="#191970" points="328.0073,-12.0001 318.0073,-15.5 328.0072,-19.0001 328.0073,-12.0001"/>
</g>
<!-- Node422 -->
<g id="node4" class="node">
<title>Node422</title>
<g id="a_node4"><a xlink:href="classtrim_al_manager.html#abe8d2841455c644dc9c7d1294b82b00f" target="_top" xlink:title="Method to perform the analysis if all checks have passed. ">
<polygon fill="#ffffff" stroke="#000000" points="531,-6 531,-25 650,-25 650,-6 531,-6"/>
<text text-anchor="middle" x="590.5" y="-13" font-family="Helvetica,sans-Serif" font-size="10.00" fill="#000000">trimAlManager::perform</text>
</a>
</g>
</g>
<!-- Node421&#45;&gt;Node422 -->
<g id="edge3" class="edge">
<title>Node421&#45;&gt;Node422</title>
<path fill="none" stroke="#191970" d="M505.4012,-15.5C513.9677,-15.5 522.564,-15.5 530.8249,-15.5"/>
<polygon fill="#191970" stroke="#191970" points="505.3805,-12.0001 495.3804,-15.5 505.3804,-19.0001 505.3805,-12.0001"/>
</g>
<!-- Node423 -->
<g id="node5" class="node">
<title>Node423</title>
<g id="a_node5"><a xlink:href="trim_al_main_8cpp.html#a0ddf1224851353fc92bfbff6f499fa97" target="_top" xlink:title="main">
<polygon fill="#ffffff" stroke="#000000" points="686,-6 686,-25 724,-25 724,-6 686,-6"/>
<text text-anchor="middle" x="705" y="-13" font-family="Helvetica,sans-Serif" font-size="10.00" fill="#000000">main</text>
</a>
</g>
</g>
<!-- Node422&#45;&gt;Node423 -->
<g id="edge4" class="edge">
<title>Node422&#45;&gt;Node423</title>
<path fill="none" stroke="#191970" d="M660.3198,-15.5C669.6177,-15.5 678.4503,-15.5 685.7697,-15.5"/>
<polygon fill="#191970" stroke="#191970" points="660.0976,-12.0001 650.0976,-15.5 660.0975,-19.0001 660.0976,-12.0001"/>
</g>
</g>
</svg>
