<?xml version="1.0" encoding="UTF-8" standalone="no"?>
<!DOCTYPE svg PUBLIC "-//W3C//DTD SVG 1.1//EN"
 "http://www.w3.org/Graphics/SVG/1.1/DTD/svg11.dtd">
<!-- Generated by graphviz version 2.40.1 (20161225.0304)
 -->
<!-- Title: trimAlManager::svg_stats_out Pages: 1 -->
<svg width="518pt" height="53pt"
 viewBox="0.00 0.00 518.00 52.50" xmlns="http://www.w3.org/2000/svg" xmlns:xlink="http://www.w3.org/1999/xlink">
<g id="graph0" class="graph" transform="scale(1 1) rotate(0) translate(4 48.5)">
<title>trimAlManager::svg_stats_out</title>
<polygon fill="#ffffff" stroke="transparent" points="-4,4 -4,-48.5 514,-48.5 514,4 -4,4"/>
<!-- Node1115 -->
<g id="node1" class="node">
<title>Node1115</title>
<g id="a_node1"><a xlink:title=" ">
<polygon fill="#bfbfbf" stroke="#000000" points="409,-14 409,-44 510,-44 510,-14 409,-14"/>
<text text-anchor="start" x="417" y="-32" font-family="Helvetica,sans-Serif" font-size="10.00" fill="#000000">trimAlManager::svg</text>
<text text-anchor="middle" x="459.5" y="-21" font-family="Helvetica,sans-Serif" font-size="10.00" fill="#000000">_stats_out</text>
</a>
</g>
</g>
<!-- Node1116 -->
<g id="node2" class="node">
<title>Node1116</title>
<g id="a_node2"><a xlink:href="classtrim_al_manager.html#abe8d2841455c644dc9c7d1294b82b00f" target="_top" xlink:title="Method to perform the analysis if all checks have passed.">
<polygon fill="#ffffff" stroke="#000000" points="74,-19.5 74,-38.5 193,-38.5 193,-19.5 74,-19.5"/>
<text text-anchor="middle" x="133.5" y="-26.5" font-family="Helvetica,sans-Serif" font-size="10.00" fill="#000000">trimAlManager::perform</text>
</a>
</g>
</g>
<!-- Node1115&#45;&gt;Node1116 -->
<g id="edge1" class="edge">
<title>Node1115&#45;&gt;Node1116</title>
<path fill="none" stroke="#191970" d="M398.6662,-29C339.8833,-29 251.3982,-29 193.052,-29"/>
<polygon fill="#191970" stroke="#191970" points="398.9202,-32.5001 408.9202,-29 398.9202,-25.5001 398.9202,-32.5001"/>
</g>
<!-- Node1118 -->
<g id="node4" class="node">
<title>Node1118</title>
<g id="a_node4"><a xlink:href="classtrim_al_manager.html#ac5795f93b3a2b51bf5d8dddd63b89f73" target="_top" xlink:title=" ">
<polygon fill="#ffffff" stroke="#000000" points="229,-.5 229,-19.5 373,-19.5 373,-.5 229,-.5"/>
<text text-anchor="middle" x="301" y="-7.5" font-family="Helvetica,sans-Serif" font-size="10.00" fill="#000000">trimAlManager::perform_VCF</text>
</a>
</g>
</g>
<!-- Node1115&#45;&gt;Node1118 -->
<g id="edge3" class="edge">
<title>Node1115&#45;&gt;Node1118</title>
<path fill="none" stroke="#191970" d="M398.8123,-21.7251C390.3877,-20.7152 381.6666,-19.6698 373.0595,-18.638"/>
<polygon fill="#191970" stroke="#191970" points="398.5683,-25.2209 408.9138,-22.936 399.4015,-18.2706 398.5683,-25.2209"/>
</g>
<!-- Node1117 -->
<g id="node3" class="node">
<title>Node1117</title>
<g id="a_node3"><a xlink:href="trim_al_main_8cpp.html#a0ddf1224851353fc92bfbff6f499fa97" target="_top" xlink:title=" ">
<polygon fill="#ffffff" stroke="#000000" points="0,-19.5 0,-38.5 38,-38.5 38,-19.5 0,-19.5"/>
<text text-anchor="middle" x="19" y="-26.5" font-family="Helvetica,sans-Serif" font-size="10.00" fill="#000000">main</text>
</a>
</g>
</g>
<!-- Node1116&#45;&gt;Node1117 -->
<g id="edge2" class="edge">
<title>Node1116&#45;&gt;Node1117</title>
<path fill="none" stroke="#191970" d="M63.6802,-29C54.3823,-29 45.5497,-29 38.2303,-29"/>
<polygon fill="#191970" stroke="#191970" points="63.9025,-32.5001 73.9024,-29 63.9024,-25.5001 63.9025,-32.5001"/>
</g>
<!-- Node1118&#45;&gt;Node1116 -->
<g id="edge4" class="edge">
<title>Node1118&#45;&gt;Node1116</title>
<path fill="none" stroke="#191970" d="M218.8378,-19.3199C210.1593,-20.3043 201.4581,-21.2913 193.107,-22.2386"/>
<polygon fill="#191970" stroke="#191970" points="219.4511,-22.7729 228.9928,-18.168 218.662,-15.8175 219.4511,-22.7729"/>
</g>
</g>
</svg>
