<?xml version="1.0" encoding="UTF-8" standalone="no"?>
<!DOCTYPE svg PUBLIC "-//W3C//DTD SVG 1.1//EN"
 "http://www.w3.org/Graphics/SVG/1.1/DTD/svg11.dtd">
<!-- Generated by graphviz version 2.38.0 (20140413.2041)
 -->
<!-- Title: statisticsConservation::isDefinedWindow Pages: 1 -->
<svg width="1179pt" height="192pt"
 viewBox="0.00 0.00 1179.00 192.00" xmlns="http://www.w3.org/2000/svg" xmlns:xlink="http://www.w3.org/1999/xlink">
<g id="graph0" class="graph" transform="scale(1 1) rotate(0) translate(4 188)">
<title>statisticsConservation::isDefinedWindow</title>
<polygon fill="white" stroke="none" points="-4,4 -4,-188 1175,-188 1175,4 -4,4"/>
<!-- Node71 -->
<g id="node1" class="node"><title>Node71</title>
<polygon fill="#bfbfbf" stroke="black" points="0,-77 0,-107 114,-107 114,-77 0,-77"/>
<text text-anchor="start" x="8" y="-95" font-family="Helvetica,sans-Serif" font-size="10.00">statisticsConservation</text>
<text text-anchor="middle" x="57" y="-84" font-family="Helvetica,sans-Serif" font-size="10.00">::isDefinedWindow</text>
</g>
<!-- Node72 -->
<g id="node2" class="node"><title>Node72</title>
<g id="a_node2"><a xlink:href="classstatistics_conservation.html#a0e674b4b4b91773fb1c32a532797f328" target="_top" xlink:title="This methods returns a pointer to conservationWindow&#39;s vector. ">
<polygon fill="white" stroke="black" points="150,-77 150,-107 279,-107 279,-77 150,-77"/>
<text text-anchor="start" x="158" y="-95" font-family="Helvetica,sans-Serif" font-size="10.00">statisticsConservation</text>
<text text-anchor="middle" x="214.5" y="-84" font-family="Helvetica,sans-Serif" font-size="10.00">::getMdkWindowedVector</text>
</a>
</g>
</g>
<!-- Node71&#45;&gt;Node72 -->
<g id="edge1" class="edge"><title>Node71&#45;&gt;Node72</title>
<path fill="none" stroke="midnightblue" d="M124.319,-92C132.762,-92 141.389,-92 149.79,-92"/>
<polygon fill="midnightblue" stroke="midnightblue" points="124.139,-88.5001 114.139,-92 124.139,-95.5001 124.139,-88.5001"/>
</g>
<!-- Node73 -->
<g id="node3" class="node"><title>Node73</title>
<g id="a_node3"><a xlink:href="classnew_alignment.html#a2607115c839209324dca54d70fc8708d" target="_top" xlink:title="Method to report the trimming results in HTML. Outputs an HTML file that shows visually what has been...">
<polygon fill="white" stroke="black" points="315,-164.5 315,-183.5 510,-183.5 510,-164.5 315,-164.5"/>
<text text-anchor="middle" x="412.5" y="-171.5" font-family="Helvetica,sans-Serif" font-size="10.00">newAlignment::alignmentSummaryHTML</text>
</a>
</g>
</g>
<!-- Node72&#45;&gt;Node73 -->
<g id="edge2" class="edge"><title>Node72&#45;&gt;Node73</title>
<path fill="none" stroke="midnightblue" d="M245.671,-112.628C264.825,-124.94 290.531,-140.063 315,-150 329.716,-155.976 346.317,-160.756 361.549,-164.429"/>
<polygon fill="midnightblue" stroke="midnightblue" points="247.38,-109.564 237.095,-107.022 243.55,-115.423 247.38,-109.564"/>
</g>
<!-- Node74 -->
<g id="node4" class="node"><title>Node74</title>
<g id="a_node4"><a xlink:href="classstatistics_conservation.html#aa11412e9db5babc6dc7b2b4c7c471ed6" target="_top" xlink:title="Computes and selects the cut point values based on conservation&#39;s values. ">
<polygon fill="white" stroke="black" points="355.5,-77 355.5,-107 469.5,-107 469.5,-77 355.5,-77"/>
<text text-anchor="start" x="363.5" y="-95" font-family="Helvetica,sans-Serif" font-size="10.00">statisticsConservation</text>
<text text-anchor="middle" x="412.5" y="-84" font-family="Helvetica,sans-Serif" font-size="10.00">::calcCutPoint</text>
</a>
</g>
</g>
<!-- Node72&#45;&gt;Node74 -->
<g id="edge3" class="edge"><title>Node72&#45;&gt;Node74</title>
<path fill="none" stroke="midnightblue" d="M289.388,-92C311.279,-92 334.881,-92 355.445,-92"/>
<polygon fill="midnightblue" stroke="midnightblue" points="289.136,-88.5001 279.136,-92 289.136,-95.5001 289.136,-88.5001"/>
</g>
<!-- Node75 -->
<g id="node5" class="node"><title>Node75</title>
<g id="a_node5"><a xlink:href="class_cleaner.html#a1ac5ba504932526d77575365557a4d64" target="_top" xlink:title="Method to trim an alignment based on the similarity and gaps distribution values. ...">
<polygon fill="white" stroke="black" points="574.5,-101.5 574.5,-120.5 654.5,-120.5 654.5,-101.5 574.5,-101.5"/>
<text text-anchor="middle" x="614.5" y="-108.5" font-family="Helvetica,sans-Serif" font-size="10.00">Cleaner::clean</text>
</a>
</g>
</g>
<!-- Node72&#45;&gt;Node75 -->
<g id="edge10" class="edge"><title>Node72&#45;&gt;Node75</title>
<path fill="none" stroke="midnightblue" d="M274.973,-109.473C288.046,-112.602 301.9,-115.379 315,-117 407.337,-128.423 516.941,-120.877 574.201,-115.347"/>
<polygon fill="midnightblue" stroke="midnightblue" points="275.703,-106.048 265.153,-107.026 274.01,-112.841 275.703,-106.048"/>
</g>
<!-- Node79 -->
<g id="node9" class="node"><title>Node79</title>
<g id="a_node9"><a xlink:href="class_cleaner.html#a694d53fdd5d1ac9455858e48537af3d0" target="_top" xlink:title="Method to trim an alignment based on the similarity distribution values. ">
<polygon fill="white" stroke="black" points="546,-63.5 546,-82.5 683,-82.5 683,-63.5 546,-63.5"/>
<text text-anchor="middle" x="614.5" y="-70.5" font-family="Helvetica,sans-Serif" font-size="10.00">Cleaner::cleanConservation</text>
</a>
</g>
</g>
<!-- Node72&#45;&gt;Node79 -->
<g id="edge12" class="edge"><title>Node72&#45;&gt;Node79</title>
<path fill="none" stroke="midnightblue" d="M277.488,-74.6604C289.821,-71.889 302.747,-69.4568 315,-68 393.874,-58.622 485.286,-62.2638 545.959,-66.6979"/>
<polygon fill="midnightblue" stroke="midnightblue" points="276.686,-71.2534 267.749,-76.9434 278.284,-78.0687 276.686,-71.2534"/>
</g>
<!-- Node80 -->
<g id="node10" class="node"><title>Node80</title>
<g id="a_node10"><a xlink:href="class_cleaner.html#a068b219f913adba5c917a231cff7e437" target="_top" xlink:title="Method to clean an alignment. It carries out strict and strictplus. The method: ">
<polygon fill="white" stroke="black" points="341,-0.5 341,-19.5 484,-19.5 484,-0.5 341,-0.5"/>
<text text-anchor="middle" x="412.5" y="-7.5" font-family="Helvetica,sans-Serif" font-size="10.00">Cleaner::cleanCombMethods</text>
</a>
</g>
</g>
<!-- Node72&#45;&gt;Node80 -->
<g id="edge11" class="edge"><title>Node72&#45;&gt;Node80</title>
<path fill="none" stroke="midnightblue" d="M245.671,-71.3718C264.825,-59.0597 290.531,-43.937 315,-34 329.716,-28.0239 346.317,-23.2435 361.549,-19.5712"/>
<polygon fill="midnightblue" stroke="midnightblue" points="243.55,-68.5767 237.095,-76.9781 247.38,-74.4359 243.55,-68.5767"/>
</g>
<!-- Node74&#45;&gt;Node75 -->
<g id="edge4" class="edge"><title>Node74&#45;&gt;Node75</title>
<path fill="none" stroke="midnightblue" d="M479.739,-98.2927C511.127,-101.275 547.543,-104.734 574.446,-107.29"/>
<polygon fill="midnightblue" stroke="midnightblue" points="480.03,-94.8046 469.743,-97.3431 479.368,-101.773 480.03,-94.8046"/>
</g>
<!-- Node74&#45;&gt;Node79 -->
<g id="edge8" class="edge"><title>Node74&#45;&gt;Node79</title>
<path fill="none" stroke="midnightblue" d="M479.958,-85.6865C501.178,-83.6706 524.678,-81.4381 545.973,-79.415"/>
<polygon fill="midnightblue" stroke="midnightblue" points="479.368,-82.2267 469.743,-86.6569 480.03,-89.1954 479.368,-82.2267"/>
</g>
<!-- Node76 -->
<g id="node6" class="node"><title>Node76</title>
<g id="a_node6"><a xlink:href="classtrim_al_manager.html#aebfd21b0435302f0e4fc45a068d1b6ee" target="_top" xlink:title="Method to trim the alignment using non automatic methods: ">
<polygon fill="white" stroke="black" points="719,-77 719,-107 871,-107 871,-77 719,-77"/>
<text text-anchor="start" x="727" y="-95" font-family="Helvetica,sans-Serif" font-size="10.00">trimAlManager::CleanResidues</text>
<text text-anchor="middle" x="795" y="-84" font-family="Helvetica,sans-Serif" font-size="10.00">NonAuto</text>
</a>
</g>
</g>
<!-- Node75&#45;&gt;Node76 -->
<g id="edge5" class="edge"><title>Node75&#45;&gt;Node76</title>
<path fill="none" stroke="midnightblue" d="M664.773,-105.755C681.532,-103.971 700.661,-101.935 718.971,-99.9863"/>
<polygon fill="midnightblue" stroke="midnightblue" points="664.246,-102.291 654.673,-106.83 664.987,-109.252 664.246,-102.291"/>
</g>
<!-- Node77 -->
<g id="node7" class="node"><title>Node77</title>
<g id="a_node7"><a xlink:href="classtrim_al_manager.html#adc529dd893ed4e9df6f3ddbd58776068" target="_top" xlink:title="Core Method of the program. This is where almost all cleaning methods are called from. ">
<polygon fill="white" stroke="black" points="907,-77 907,-107 1016,-107 1016,-77 907,-77"/>
<text text-anchor="start" x="915" y="-95" font-family="Helvetica,sans-Serif" font-size="10.00">trimAlManager::clean</text>
<text text-anchor="middle" x="961.5" y="-84" font-family="Helvetica,sans-Serif" font-size="10.00">_alignment</text>
</a>
</g>
</g>
<!-- Node76&#45;&gt;Node77 -->
<g id="edge6" class="edge"><title>Node76&#45;&gt;Node77</title>
<path fill="none" stroke="midnightblue" d="M881.208,-92C889.881,-92 898.511,-92 906.709,-92"/>
<polygon fill="midnightblue" stroke="midnightblue" points="881.029,-88.5001 871.029,-92 881.029,-95.5001 881.029,-88.5001"/>
</g>
<!-- Node78 -->
<g id="node8" class="node"><title>Node78</title>
<g id="a_node8"><a xlink:href="classtrim_al_manager.html#abe8d2841455c644dc9c7d1294b82b00f" target="_top" xlink:title="Method to perform the analysis if all checks have passed. ">
<polygon fill="white" stroke="black" points="1052,-82.5 1052,-101.5 1171,-101.5 1171,-82.5 1052,-82.5"/>
<text text-anchor="middle" x="1111.5" y="-89.5" font-family="Helvetica,sans-Serif" font-size="10.00">trimAlManager::perform</text>
</a>
</g>
</g>
<!-- Node77&#45;&gt;Node78 -->
<g id="edge7" class="edge"><title>Node77&#45;&gt;Node78</title>
<path fill="none" stroke="midnightblue" d="M1026.53,-92C1034.98,-92 1043.6,-92 1051.94,-92"/>
<polygon fill="midnightblue" stroke="midnightblue" points="1026.35,-88.5001 1016.35,-92 1026.35,-95.5001 1026.35,-88.5001"/>
</g>
<!-- Node79&#45;&gt;Node76 -->
<g id="edge9" class="edge"><title>Node79&#45;&gt;Node76</title>
<path fill="none" stroke="midnightblue" d="M693.439,-81.2961C701.875,-82.194 710.449,-83.1066 718.851,-84.0009"/>
<polygon fill="midnightblue" stroke="midnightblue" points="693.552,-77.7884 683.238,-80.2102 692.811,-84.7491 693.552,-77.7884"/>
</g>
</g>
</svg>
