<?xml version="1.0" encoding="UTF-8" standalone="no"?>
<!DOCTYPE svg PUBLIC "-//W3C//DTD SVG 1.1//EN"
 "http://www.w3.org/Graphics/SVG/1.1/DTD/svg11.dtd">
<!-- Generated by graphviz version 2.38.0 (20140413.2041)
 -->
<!-- Title: statisticsConservation::calculateVectors Pages: 1 -->
<svg width="1329pt" height="169pt"
 viewBox="0.00 0.00 1329.00 168.96" xmlns="http://www.w3.org/2000/svg" xmlns:xlink="http://www.w3.org/1999/xlink">
<g id="graph0" class="graph" transform="scale(1 1) rotate(0) translate(4 164.957)">
<title>statisticsConservation::calculateVectors</title>
<polygon fill="white" stroke="none" points="-4,4 -4,-164.957 1325,-164.957 1325,4 -4,4"/>
<!-- Node41 -->
<g id="node1" class="node"><title>Node41</title>
<polygon fill="#bfbfbf" stroke="black" points="0,-61.4316 0,-91.4316 114,-91.4316 114,-61.4316 0,-61.4316"/>
<text text-anchor="start" x="8" y="-79.4316" font-family="Helvetica,sans-Serif" font-size="10.00">statisticsConservation</text>
<text text-anchor="middle" x="57" y="-68.4316" font-family="Helvetica,sans-Serif" font-size="10.00">::calculateVectors</text>
</g>
<!-- Node42 -->
<g id="node2" class="node"><title>Node42</title>
<g id="a_node2"><a xlink:href="classstatistics_conservation.html#a31f6ff0c30b2a207aba13f7687709467" target="_top" xlink:title="Allows us compute the conservationWindow&#39;s values. ">
<polygon fill="white" stroke="black" points="150,-61.4316 150,-91.4316 264,-91.4316 264,-61.4316 150,-61.4316"/>
<text text-anchor="start" x="158" y="-79.4316" font-family="Helvetica,sans-Serif" font-size="10.00">statisticsConservation</text>
<text text-anchor="middle" x="207" y="-68.4316" font-family="Helvetica,sans-Serif" font-size="10.00">::applyWindow</text>
</a>
</g>
</g>
<!-- Node41&#45;&gt;Node42 -->
<g id="edge1" class="edge"><title>Node41&#45;&gt;Node42</title>
<path fill="none" stroke="midnightblue" d="M124.558,-76.4316C132.984,-76.4316 141.539,-76.4316 149.782,-76.4316"/>
<polygon fill="midnightblue" stroke="midnightblue" points="124.375,-72.9317 114.375,-76.4316 124.375,-79.9317 124.375,-72.9317"/>
</g>
<!-- Node43 -->
<g id="node3" class="node"><title>Node43</title>
<g id="a_node3"><a xlink:href="classstatistics_conservation.html#a0e674b4b4b91773fb1c32a532797f328" target="_top" xlink:title="This methods returns a pointer to conservationWindow&#39;s vector. ">
<polygon fill="white" stroke="black" points="300,-61.4316 300,-91.4316 429,-91.4316 429,-61.4316 300,-61.4316"/>
<text text-anchor="start" x="308" y="-79.4316" font-family="Helvetica,sans-Serif" font-size="10.00">statisticsConservation</text>
<text text-anchor="middle" x="364.5" y="-68.4316" font-family="Helvetica,sans-Serif" font-size="10.00">::getMdkWindowedVector</text>
</a>
</g>
</g>
<!-- Node42&#45;&gt;Node43 -->
<g id="edge2" class="edge"><title>Node42&#45;&gt;Node43</title>
<path fill="none" stroke="midnightblue" d="M274.319,-76.4316C282.762,-76.4316 291.389,-76.4316 299.79,-76.4316"/>
<polygon fill="midnightblue" stroke="midnightblue" points="274.139,-72.9317 264.139,-76.4316 274.139,-79.9317 274.139,-72.9317"/>
</g>
<!-- Node44 -->
<g id="node4" class="node"><title>Node44</title>
<g id="a_node4"><a xlink:href="class_cleaner.html#a694d53fdd5d1ac9455858e48537af3d0" target="_top" xlink:title="Method to trim an alignment based on the similarity distribution values. ">
<polygon fill="white" stroke="black" points="696,-129.932 696,-148.932 833,-148.932 833,-129.932 696,-129.932"/>
<text text-anchor="middle" x="764.5" y="-136.932" font-family="Helvetica,sans-Serif" font-size="10.00">Cleaner::cleanConservation</text>
</a>
</g>
</g>
<!-- Node43&#45;&gt;Node44 -->
<g id="edge3" class="edge"><title>Node43&#45;&gt;Node44</title>
<path fill="none" stroke="midnightblue" d="M388.611,-98.269C407.507,-114.527 435.79,-135.404 465,-144.432 550.792,-170.947 657.176,-159.283 716.988,-148.973"/>
<polygon fill="midnightblue" stroke="midnightblue" points="390.92,-95.6386 381.112,-91.6322 386.281,-100.881 390.92,-95.6386"/>
</g>
<!-- Node48 -->
<g id="node8" class="node"><title>Node48</title>
<g id="a_node8"><a xlink:href="class_cleaner.html#a1ac5ba504932526d77575365557a4d64" target="_top" xlink:title="Method to trim an alignment based on the similarity and gaps distribution values. ...">
<polygon fill="white" stroke="black" points="724.5,-91.9316 724.5,-110.932 804.5,-110.932 804.5,-91.9316 724.5,-91.9316"/>
<text text-anchor="middle" x="764.5" y="-98.9316" font-family="Helvetica,sans-Serif" font-size="10.00">Cleaner::clean</text>
</a>
</g>
</g>
<!-- Node43&#45;&gt;Node48 -->
<g id="edge7" class="edge"><title>Node43&#45;&gt;Node48</title>
<path fill="none" stroke="midnightblue" d="M392.92,-55.4842C411.995,-42.281 438.64,-26.447 465,-19.4316 548.751,2.85826 578.151,9.06215 660,-19.4316 702.002,-34.0535 739.782,-73.605 755.619,-91.9051"/>
<polygon fill="midnightblue" stroke="midnightblue" points="390.833,-52.6733 384.717,-61.3242 394.893,-58.3758 390.833,-52.6733"/>
</g>
<!-- Node49 -->
<g id="node9" class="node"><title>Node49</title>
<g id="a_node9"><a xlink:href="class_cleaner.html#a068b219f913adba5c917a231cff7e437" target="_top" xlink:title="Method to clean an alignment. It carries out strict and strictplus. The method: ">
<polygon fill="white" stroke="black" points="491,-66.9316 491,-85.9316 634,-85.9316 634,-66.9316 491,-66.9316"/>
<text text-anchor="middle" x="562.5" y="-73.9316" font-family="Helvetica,sans-Serif" font-size="10.00">Cleaner::cleanCombMethods</text>
</a>
</g>
</g>
<!-- Node43&#45;&gt;Node49 -->
<g id="edge9" class="edge"><title>Node43&#45;&gt;Node49</title>
<path fill="none" stroke="midnightblue" d="M439.448,-76.4316C456.249,-76.4316 474.056,-76.4316 490.722,-76.4316"/>
<polygon fill="midnightblue" stroke="midnightblue" points="439.136,-72.9317 429.136,-76.4316 439.136,-79.9317 439.136,-72.9317"/>
</g>
<!-- Node50 -->
<g id="node10" class="node"><title>Node50</title>
<g id="a_node10"><a xlink:href="classnew_alignment.html#a2607115c839209324dca54d70fc8708d" target="_top" xlink:title="Method to report the trimming results in HTML. Outputs an HTML file that shows visually what has been...">
<polygon fill="white" stroke="black" points="465,-28.9316 465,-47.9316 660,-47.9316 660,-28.9316 465,-28.9316"/>
<text text-anchor="middle" x="562.5" y="-35.9316" font-family="Helvetica,sans-Serif" font-size="10.00">newAlignment::alignmentSummaryHTML</text>
</a>
</g>
</g>
<!-- Node43&#45;&gt;Node50 -->
<g id="edge10" class="edge"><title>Node43&#45;&gt;Node50</title>
<path fill="none" stroke="midnightblue" d="M439.121,-62.1581C463.621,-57.4082 490.291,-52.2375 512.462,-47.939"/>
<polygon fill="midnightblue" stroke="midnightblue" points="438.287,-58.7546 429.136,-64.0941 439.619,-65.6267 438.287,-58.7546"/>
</g>
<!-- Node51 -->
<g id="node11" class="node"><title>Node51</title>
<g id="a_node11"><a xlink:href="classstatistics_conservation.html#aa11412e9db5babc6dc7b2b4c7c471ed6" target="_top" xlink:title="Computes and selects the cut point values based on conservation&#39;s values. ">
<polygon fill="white" stroke="black" points="505.5,-105.432 505.5,-135.432 619.5,-135.432 619.5,-105.432 505.5,-105.432"/>
<text text-anchor="start" x="513.5" y="-123.432" font-family="Helvetica,sans-Serif" font-size="10.00">statisticsConservation</text>
<text text-anchor="middle" x="562.5" y="-112.432" font-family="Helvetica,sans-Serif" font-size="10.00">::calcCutPoint</text>
</a>
</g>
</g>
<!-- Node43&#45;&gt;Node51 -->
<g id="edge11" class="edge"><title>Node43&#45;&gt;Node51</title>
<path fill="none" stroke="midnightblue" d="M439.091,-92.9521C461.065,-97.885 484.787,-103.21 505.445,-107.848"/>
<polygon fill="midnightblue" stroke="midnightblue" points="439.659,-89.4926 429.136,-90.7171 438.126,-96.3226 439.659,-89.4926"/>
</g>
<!-- Node45 -->
<g id="node5" class="node"><title>Node45</title>
<g id="a_node5"><a xlink:href="classtrim_al_manager.html#aebfd21b0435302f0e4fc45a068d1b6ee" target="_top" xlink:title="Method to trim the alignment using non automatic methods: ">
<polygon fill="white" stroke="black" points="869,-105.432 869,-135.432 1021,-135.432 1021,-105.432 869,-105.432"/>
<text text-anchor="start" x="877" y="-123.432" font-family="Helvetica,sans-Serif" font-size="10.00">trimAlManager::CleanResidues</text>
<text text-anchor="middle" x="945" y="-112.432" font-family="Helvetica,sans-Serif" font-size="10.00">NonAuto</text>
</a>
</g>
</g>
<!-- Node44&#45;&gt;Node45 -->
<g id="edge4" class="edge"><title>Node44&#45;&gt;Node45</title>
<path fill="none" stroke="midnightblue" d="M843.439,-131.136C851.875,-130.238 860.449,-129.325 868.851,-128.431"/>
<polygon fill="midnightblue" stroke="midnightblue" points="842.811,-127.683 833.238,-132.221 843.552,-134.643 842.811,-127.683"/>
</g>
<!-- Node46 -->
<g id="node6" class="node"><title>Node46</title>
<g id="a_node6"><a xlink:href="classtrim_al_manager.html#adc529dd893ed4e9df6f3ddbd58776068" target="_top" xlink:title="Core Method of the program. This is where almost all cleaning methods are called from. ">
<polygon fill="white" stroke="black" points="1057,-105.432 1057,-135.432 1166,-135.432 1166,-105.432 1057,-105.432"/>
<text text-anchor="start" x="1065" y="-123.432" font-family="Helvetica,sans-Serif" font-size="10.00">trimAlManager::clean</text>
<text text-anchor="middle" x="1111.5" y="-112.432" font-family="Helvetica,sans-Serif" font-size="10.00">_alignment</text>
</a>
</g>
</g>
<!-- Node45&#45;&gt;Node46 -->
<g id="edge5" class="edge"><title>Node45&#45;&gt;Node46</title>
<path fill="none" stroke="midnightblue" d="M1031.21,-120.432C1039.88,-120.432 1048.51,-120.432 1056.71,-120.432"/>
<polygon fill="midnightblue" stroke="midnightblue" points="1031.03,-116.932 1021.03,-120.432 1031.03,-123.932 1031.03,-116.932"/>
</g>
<!-- Node47 -->
<g id="node7" class="node"><title>Node47</title>
<g id="a_node7"><a xlink:href="classtrim_al_manager.html#abe8d2841455c644dc9c7d1294b82b00f" target="_top" xlink:title="Method to perform the analysis if all checks have passed. ">
<polygon fill="white" stroke="black" points="1202,-110.932 1202,-129.932 1321,-129.932 1321,-110.932 1202,-110.932"/>
<text text-anchor="middle" x="1261.5" y="-117.932" font-family="Helvetica,sans-Serif" font-size="10.00">trimAlManager::perform</text>
</a>
</g>
</g>
<!-- Node46&#45;&gt;Node47 -->
<g id="edge6" class="edge"><title>Node46&#45;&gt;Node47</title>
<path fill="none" stroke="midnightblue" d="M1176.53,-120.432C1184.98,-120.432 1193.6,-120.432 1201.94,-120.432"/>
<polygon fill="midnightblue" stroke="midnightblue" points="1176.35,-116.932 1166.35,-120.432 1176.35,-123.932 1176.35,-116.932"/>
</g>
<!-- Node48&#45;&gt;Node45 -->
<g id="edge8" class="edge"><title>Node48&#45;&gt;Node45</title>
<path fill="none" stroke="midnightblue" d="M814.773,-106.676C831.532,-108.46 850.661,-110.496 868.971,-112.445"/>
<polygon fill="midnightblue" stroke="midnightblue" points="814.987,-103.179 804.673,-105.601 814.246,-110.14 814.987,-103.179"/>
</g>
<!-- Node51&#45;&gt;Node44 -->
<g id="edge13" class="edge"><title>Node51&#45;&gt;Node44</title>
<path fill="none" stroke="midnightblue" d="M629.958,-126.745C651.178,-128.761 674.678,-130.993 695.973,-133.017"/>
<polygon fill="midnightblue" stroke="midnightblue" points="630.03,-123.236 619.743,-125.775 629.368,-130.205 630.03,-123.236"/>
</g>
<!-- Node51&#45;&gt;Node48 -->
<g id="edge12" class="edge"><title>Node51&#45;&gt;Node48</title>
<path fill="none" stroke="midnightblue" d="M629.739,-114.139C661.127,-111.157 697.543,-107.698 724.446,-105.142"/>
<polygon fill="midnightblue" stroke="midnightblue" points="629.368,-110.658 619.743,-115.088 630.03,-117.627 629.368,-110.658"/>
</g>
</g>
</svg>
