<?xml version="1.0" encoding="UTF-8" standalone="no"?>
<!DOCTYPE svg PUBLIC "-//W3C//DTD SVG 1.1//EN"
 "http://www.w3.org/Graphics/SVG/1.1/DTD/svg11.dtd">
<!-- Generated by graphviz version 2.40.1 (20161225.0304)
 -->
<!-- Title: statistics::Consistency::compareAndChoose Pages: 1 -->
<svg width="310pt" height="340pt"
 viewBox="0.00 0.00 310.00 340.00" xmlns="http://www.w3.org/2000/svg" xmlns:xlink="http://www.w3.org/1999/xlink">
<g id="graph0" class="graph" transform="scale(1 1) rotate(0) translate(4 336)">
<title>statistics::Consistency::compareAndChoose</title>
<polygon fill="#ffffff" stroke="transparent" points="-4,4 -4,-336 306,-336 306,4 -4,4"/>
<!-- Node57 -->
<g id="node1" class="node">
<title>Node57</title>
<polygon fill="#bfbfbf" stroke="#000000" points="0,-153.5 0,-183.5 117,-183.5 117,-153.5 0,-153.5"/>
<text text-anchor="start" x="8" y="-171.5" font-family="Helvetica,sans-Serif" font-size="10.00" fill="#000000">statistics::Consistency</text>
<text text-anchor="middle" x="58.5" y="-160.5" font-family="Helvetica,sans-Serif" font-size="10.00" fill="#000000">::compareAndChoose</text>
</g>
<!-- Node58 -->
<g id="node2" class="node">
<title>Node58</title>
<g id="a_node2"><a xlink:href="class_alignment_1_1sequences_matrix.html#ade52c6977160c699b42c8a44735397e8" target="_top" xlink:title="Method to get a column out of the matrix. ">
<polygon fill="#ffffff" stroke="#000000" points="157.5,-301.5 157.5,-331.5 297.5,-331.5 297.5,-301.5 157.5,-301.5"/>
<text text-anchor="start" x="165.5" y="-319.5" font-family="Helvetica,sans-Serif" font-size="10.00" fill="#000000">Alignment::sequencesMatrix</text>
<text text-anchor="middle" x="227.5" y="-308.5" font-family="Helvetica,sans-Serif" font-size="10.00" fill="#000000">::getColumn</text>
</a>
</g>
</g>
<!-- Node57&#45;&gt;Node58 -->
<g id="edge1" class="edge">
<title>Node57&#45;&gt;Node58</title>
<path fill="none" stroke="#191970" d="M66.2374,-183.7009C80.1418,-209.5442 111.7883,-262.0956 153,-291.5 155.6654,-293.4017 158.4858,-295.1666 161.4087,-296.8036"/>
<polygon fill="#191970" stroke="#191970" points="159.926,-299.9756 170.4327,-301.3398 163.07,-293.7213 159.926,-299.9756"/>
</g>
<!-- Node59 -->
<g id="node3" class="node">
<title>Node59</title>
<g id="a_node3"><a xlink:href="class_alignment.html#a5b534495c7c6fac732b290359f3b8992" target="_top" xlink:title="Residues number getter. It counts gaps as residue. ">
<polygon fill="#ffffff" stroke="#000000" points="160.5,-263 160.5,-282 294.5,-282 294.5,-263 160.5,-263"/>
<text text-anchor="middle" x="227.5" y="-270" font-family="Helvetica,sans-Serif" font-size="10.00" fill="#000000">Alignment::getNumAminos</text>
</a>
</g>
</g>
<!-- Node57&#45;&gt;Node59 -->
<g id="edge2" class="edge">
<title>Node57&#45;&gt;Node59</title>
<path fill="none" stroke="#191970" d="M70.9544,-183.5025C87.6533,-202.6318 119.1423,-235.3921 153,-253.5 157.2631,-255.78 161.8111,-257.7952 166.4781,-259.5748"/>
<polygon fill="#191970" stroke="#191970" points="165.5771,-262.966 176.1718,-262.9063 167.8523,-256.3461 165.5771,-262.966"/>
</g>
<!-- Node60 -->
<g id="node4" class="node">
<title>Node60</title>
<g id="a_node4"><a xlink:href="class_alignment.html#af9c7aec9082ef16573d7fe37a93a638a" target="_top" xlink:title="Number of sequences getter. ">
<polygon fill="#ffffff" stroke="#000000" points="159.5,-225 159.5,-244 295.5,-244 295.5,-225 159.5,-225"/>
<text text-anchor="middle" x="227.5" y="-232" font-family="Helvetica,sans-Serif" font-size="10.00" fill="#000000">Alignment::getNumSpecies</text>
</a>
</g>
</g>
<!-- Node57&#45;&gt;Node60 -->
<g id="edge3" class="edge">
<title>Node57&#45;&gt;Node60</title>
<path fill="none" stroke="#191970" d="M85.1154,-183.6401C103.6872,-193.7262 129.2959,-206.696 153,-215.5 159.71,-217.9922 166.8779,-220.274 174.0173,-222.3241"/>
<polygon fill="#191970" stroke="#191970" points="173.1202,-225.7073 183.6897,-224.9743 174.9701,-218.9561 173.1202,-225.7073"/>
</g>
<!-- Node61 -->
<g id="node5" class="node">
<title>Node61</title>
<g id="a_node5"><a xlink:href="class_alignment.html#ab24c9f56fb953e3e01eec2c850c6aee5" target="_top" xlink:title="Method to map two sets of sequences, own and external. The method accepts a vector of names...">
<polygon fill="#ffffff" stroke="#000000" points="153,-175.5 153,-205.5 302,-205.5 302,-175.5 153,-175.5"/>
<text text-anchor="start" x="161" y="-193.5" font-family="Helvetica,sans-Serif" font-size="10.00" fill="#000000">Alignment::getSequenceName</text>
<text text-anchor="middle" x="227.5" y="-182.5" font-family="Helvetica,sans-Serif" font-size="10.00" fill="#000000">Order</text>
</a>
</g>
</g>
<!-- Node57&#45;&gt;Node61 -->
<g id="edge4" class="edge">
<title>Node57&#45;&gt;Node61</title>
<path fill="none" stroke="#191970" d="M117.1337,-176.1328C125.4248,-177.2121 134.0836,-178.3393 142.746,-179.4669"/>
<polygon fill="#191970" stroke="#191970" points="142.5265,-182.9678 152.8947,-180.7881 143.4302,-176.0264 142.5265,-182.9678"/>
</g>
<!-- Node62 -->
<g id="node6" class="node">
<title>Node62</title>
<g id="a_node6"><a xlink:href="class_alignment.html#af5deab9f747b96c43a1004c2e1170095" target="_top" xlink:title="Getter for the sequences names. ">
<polygon fill="#ffffff" stroke="#000000" points="163.5,-137 163.5,-156 291.5,-156 291.5,-137 163.5,-137"/>
<text text-anchor="middle" x="227.5" y="-144" font-family="Helvetica,sans-Serif" font-size="10.00" fill="#000000">Alignment::getSequences</text>
</a>
</g>
</g>
<!-- Node57&#45;&gt;Node62 -->
<g id="edge5" class="edge">
<title>Node57&#45;&gt;Node62</title>
<path fill="none" stroke="#191970" d="M117.1337,-160.8672C128.8271,-159.345 141.2518,-157.7276 153.3864,-156.1479"/>
<polygon fill="#191970" stroke="#191970" points="154.0243,-159.5945 163.4888,-154.8328 153.1206,-152.6531 154.0243,-159.5945"/>
</g>
<!-- Node63 -->
<g id="node7" class="node">
<title>Node63</title>
<g id="a_node7"><a xlink:href="namespaceutils.html#a54839bee4863694819d990565e1e92cd" target="_top" xlink:title="Vector initialization. ">
<polygon fill="#ffffff" stroke="#000000" points="189.5,-99 189.5,-118 265.5,-118 265.5,-99 189.5,-99"/>
<text text-anchor="middle" x="227.5" y="-106" font-family="Helvetica,sans-Serif" font-size="10.00" fill="#000000">utils::initlVect</text>
</a>
</g>
</g>
<!-- Node57&#45;&gt;Node63 -->
<g id="edge6" class="edge">
<title>Node57&#45;&gt;Node63</title>
<path fill="none" stroke="#191970" d="M89.9331,-153.3586C108.0844,-144.9976 131.5096,-134.8498 153,-127.5 161.4422,-124.6127 170.555,-121.9379 179.4126,-119.5613"/>
<polygon fill="#191970" stroke="#191970" points="180.4538,-122.9072 189.2554,-117.0095 178.697,-116.1312 180.4538,-122.9072"/>
</g>
<!-- Node64 -->
<g id="node8" class="node">
<title>Node64</title>
<g id="a_node8"><a xlink:href="classreporting_1_1report_manager.html#a6d122e673144584e0869bd33b8a5c1c6" target="_top" xlink:title="Method to report an Error. &#160;It will be displayed if Level &#160;is equal or higher to VerboseLevel::ERROR...">
<polygon fill="#ffffff" stroke="#000000" points="166.5,-49.5 166.5,-79.5 288.5,-79.5 288.5,-49.5 166.5,-49.5"/>
<text text-anchor="start" x="174.5" y="-67.5" font-family="Helvetica,sans-Serif" font-size="10.00" fill="#000000">reporting::reportManager</text>
<text text-anchor="middle" x="227.5" y="-56.5" font-family="Helvetica,sans-Serif" font-size="10.00" fill="#000000">::report</text>
</a>
</g>
</g>
<!-- Node57&#45;&gt;Node64 -->
<g id="edge7" class="edge">
<title>Node57&#45;&gt;Node64</title>
<path fill="none" stroke="#191970" d="M72.8964,-153.4425C90.3793,-135.9205 121.4605,-107.1431 153,-89.5 156.8547,-87.3437 160.926,-85.3329 165.0974,-83.4654"/>
<polygon fill="#191970" stroke="#191970" points="166.4644,-86.6875 174.344,-79.6049 163.7675,-80.2279 166.4644,-86.6875"/>
</g>
<!-- Node65 -->
<g id="node9" class="node">
<title>Node65</title>
<g id="a_node9"><a xlink:href="class_alignment_1_1sequences_matrix.html#a1cc36c365ace94585d966db0404e5081" target="_top" xlink:title="Method that reorders the stored sequences with a given order list. ">
<polygon fill="#ffffff" stroke="#000000" points="157.5,-.5 157.5,-30.5 297.5,-30.5 297.5,-.5 157.5,-.5"/>
<text text-anchor="start" x="165.5" y="-18.5" font-family="Helvetica,sans-Serif" font-size="10.00" fill="#000000">Alignment::sequencesMatrix</text>
<text text-anchor="middle" x="227.5" y="-7.5" font-family="Helvetica,sans-Serif" font-size="10.00" fill="#000000">::setOrder</text>
</a>
</g>
</g>
<!-- Node57&#45;&gt;Node65 -->
<g id="edge8" class="edge">
<title>Node57&#45;&gt;Node65</title>
<path fill="none" stroke="#191970" d="M65.8578,-153.1007C79.3999,-126.3515 110.7945,-71.2275 153,-40.5 155.6471,-38.5728 158.4526,-36.7873 161.3636,-35.1337"/>
<polygon fill="#191970" stroke="#191970" points="163.0324,-38.2117 170.3601,-30.5595 159.8598,-31.9719 163.0324,-38.2117"/>
</g>
</g>
</svg>
