<?xml version="1.0" encoding="UTF-8" standalone="no"?>
<!DOCTYPE svg PUBLIC "-//W3C//DTD SVG 1.1//EN"
 "http://www.w3.org/Graphics/SVG/1.1/DTD/svg11.dtd">
<!-- Generated by graphviz version 2.40.1 (20161225.0304)
 -->
<!-- Title: trimAlManager::matrix_argument Pages: 1 -->
<svg width="279pt" height="39pt"
 viewBox="0.00 0.00 279.00 39.00" xmlns="http://www.w3.org/2000/svg" xmlns:xlink="http://www.w3.org/1999/xlink">
<g id="graph0" class="graph" transform="scale(1 1) rotate(0) translate(4 35)">
<title>trimAlManager::matrix_argument</title>
<polygon fill="#ffffff" stroke="transparent" points="-4,4 -4,-35 275,-35 275,4 -4,4"/>
<!-- Node763 -->
<g id="node1" class="node">
<title>Node763</title>
<polygon fill="#bfbfbf" stroke="#000000" points="0,-.5 0,-30.5 113,-30.5 113,-.5 0,-.5"/>
<text text-anchor="start" x="8" y="-18.5" font-family="Helvetica,sans-Serif" font-size="10.00" fill="#000000">trimAlManager::matrix</text>
<text text-anchor="middle" x="56.5" y="-7.5" font-family="Helvetica,sans-Serif" font-size="10.00" fill="#000000">_argument</text>
</g>
<!-- Node764 -->
<g id="node2" class="node">
<title>Node764</title>
<g id="a_node2"><a xlink:href="classreporting_1_1report_manager.html#abc8beece0a415330af73749d14fb5ccb" target="_top" xlink:title="Method to report an Error. It will be displayed if Level &#160;is equal or higher to VerboseLevel::ERROR. ">
<polygon fill="#ffffff" stroke="#000000" points="149,-.5 149,-30.5 271,-30.5 271,-.5 149,-.5"/>
<text text-anchor="start" x="157" y="-18.5" font-family="Helvetica,sans-Serif" font-size="10.00" fill="#000000">reporting::reportManager</text>
<text text-anchor="middle" x="210" y="-7.5" font-family="Helvetica,sans-Serif" font-size="10.00" fill="#000000">::report</text>
</a>
</g>
</g>
<!-- Node763&#45;&gt;Node764 -->
<g id="edge1" class="edge">
<title>Node763&#45;&gt;Node764</title>
<path fill="none" stroke="#191970" d="M113.2216,-15.5C121.5698,-15.5 130.2578,-15.5 138.8518,-15.5"/>
<polygon fill="#191970" stroke="#191970" points="138.871,-19.0001 148.871,-15.5 138.871,-12.0001 138.871,-19.0001"/>
</g>
</g>
</svg>
