<?xml version="1.0" encoding="UTF-8" standalone="no"?>
<!DOCTYPE svg PUBLIC "-//W3C//DTD SVG 1.1//EN"
 "http://www.w3.org/Graphics/SVG/1.1/DTD/svg11.dtd">
<!-- Generated by graphviz version 2.40.1 (20161225.0304)
 -->
<!-- Title: trimAlManager::performCompareset Pages: 1 -->
<svg width="731pt" height="464pt"
 viewBox="0.00 0.00 731.00 464.00" xmlns="http://www.w3.org/2000/svg" xmlns:xlink="http://www.w3.org/1999/xlink">
<g id="graph0" class="graph" transform="scale(1 1) rotate(0) translate(4 460)">
<title>trimAlManager::performCompareset</title>
<polygon fill="#ffffff" stroke="transparent" points="-4,4 -4,-460 727,-460 727,4 -4,4"/>
<!-- Node886 -->
<g id="node1" class="node">
<title>Node886</title>
<g id="a_node1"><a xlink:title="Method to check if multiple files comparison has been set correctly. It also perform some calculation...">
<polygon fill="#bfbfbf" stroke="#000000" points="0,-272.5 0,-291.5 172,-291.5 172,-272.5 0,-272.5"/>
<text text-anchor="middle" x="86" y="-279.5" font-family="Helvetica,sans-Serif" font-size="10.00" fill="#000000">trimAlManager::performCompareset</text>
</a>
</g>
</g>
<!-- Node887 -->
<g id="node2" class="node">
<title>Node887</title>
<g id="a_node2"><a xlink:href="classstatistics_1_1_consistency.html#a2e281b6a138074a23ebf261731e3aa27" target="_top" xlink:title="Method to compare a set of MSA, all containing the same sequences and residues. The number of residue...">
<polygon fill="#ffffff" stroke="#000000" points="208,-267 208,-297 325,-297 325,-267 208,-267"/>
<text text-anchor="start" x="216" y="-285" font-family="Helvetica,sans-Serif" font-size="10.00" fill="#000000">statistics::Consistency</text>
<text text-anchor="middle" x="266.5" y="-274" font-family="Helvetica,sans-Serif" font-size="10.00" fill="#000000">::perform</text>
</a>
</g>
</g>
<!-- Node886&#45;&gt;Node887 -->
<g id="edge1" class="edge">
<title>Node886&#45;&gt;Node887</title>
<path fill="none" stroke="#191970" d="M172.0209,-282C180.671,-282 189.3731,-282 197.8083,-282"/>
<polygon fill="#191970" stroke="#191970" points="197.9436,-285.5001 207.9436,-282 197.9435,-278.5001 197.9436,-285.5001"/>
</g>
<!-- Node888 -->
<g id="node3" class="node">
<title>Node888</title>
<g id="a_node3"><a xlink:href="namespaceutils.html#ae9637f7928b61ba73fd10daf132bc593" target="_top" xlink:title="String comparing method.">
<polygon fill="#ffffff" stroke="#000000" points="410.5,-436.5 410.5,-455.5 488.5,-455.5 488.5,-436.5 410.5,-436.5"/>
<text text-anchor="middle" x="449.5" y="-443.5" font-family="Helvetica,sans-Serif" font-size="10.00" fill="#000000">utils::compare</text>
</a>
</g>
</g>
<!-- Node887&#45;&gt;Node888 -->
<g id="edge2" class="edge">
<title>Node887&#45;&gt;Node888</title>
<path fill="none" stroke="#191970" d="M271.8156,-297.1203C283.1605,-327.048 312.7185,-393.8024 361,-427 372.4538,-434.8755 386.5581,-439.577 400.1138,-442.3577"/>
<polygon fill="#191970" stroke="#191970" points="399.8686,-445.8674 410.3201,-444.1304 401.0666,-438.9706 399.8686,-445.8674"/>
</g>
<!-- Node889 -->
<g id="node4" class="node">
<title>Node889</title>
<g id="a_node4"><a xlink:href="class_format_manager.html#a8e4018869bcf89ebee07b1356c2e36f6" target="_top" xlink:title="Function that loads an alignment given a file path. It automatically detects the format of the file.">
<polygon fill="#ffffff" stroke="#000000" points="373.5,-398.5 373.5,-417.5 525.5,-417.5 525.5,-398.5 373.5,-398.5"/>
<text text-anchor="middle" x="449.5" y="-405.5" font-family="Helvetica,sans-Serif" font-size="10.00" fill="#000000">FormatManager::loadAlignment</text>
</a>
</g>
</g>
<!-- Node887&#45;&gt;Node889 -->
<g id="edge3" class="edge">
<title>Node887&#45;&gt;Node889</title>
<path fill="none" stroke="#191970" d="M276.4548,-297.3097C291.8564,-319.7563 323.6177,-361.3789 361,-384 368.5208,-388.551 376.9146,-392.2554 385.455,-395.2666"/>
<polygon fill="#191970" stroke="#191970" points="384.5295,-398.6455 395.121,-398.38 386.6756,-391.9826 384.5295,-398.6455"/>
</g>
<!-- Node891 -->
<g id="node6" class="node">
<title>Node891</title>
<g id="a_node6"><a xlink:href="classreporting_1_1report_manager.html#a6d122e673144584e0869bd33b8a5c1c6" target="_top" xlink:title="Method to report an Error. &#160;It will be displayed if Level &#160;is equal or higher to VerboseLevel::ERROR.">
<polygon fill="#ffffff" stroke="#000000" points="587.5,-355 587.5,-385 709.5,-385 709.5,-355 587.5,-355"/>
<text text-anchor="start" x="595.5" y="-373" font-family="Helvetica,sans-Serif" font-size="10.00" fill="#000000">reporting::reportManager</text>
<text text-anchor="middle" x="648.5" y="-362" font-family="Helvetica,sans-Serif" font-size="10.00" fill="#000000">::report</text>
</a>
</g>
</g>
<!-- Node887&#45;&gt;Node891 -->
<g id="edge6" class="edge">
<title>Node887&#45;&gt;Node891</title>
<path fill="none" stroke="#191970" d="M281.2614,-297.0216C298.6137,-313.5854 329.1128,-339.4203 361,-351 431.3367,-376.5423 517.6436,-378.7209 577.238,-376.1193"/>
<polygon fill="#191970" stroke="#191970" points="577.4887,-379.6113 587.3043,-375.6234 577.1442,-372.6198 577.4887,-379.6113"/>
</g>
<!-- Node892 -->
<g id="node7" class="node">
<title>Node892</title>
<g id="a_node7"><a xlink:href="class_alignment.html#abe1ee0139489feb6a5df99361e8dc0a7" target="_top" xlink:title="Residues number getter. It counts gaps as residue.">
<polygon fill="#ffffff" stroke="#000000" points="581.5,-38.5 581.5,-57.5 715.5,-57.5 715.5,-38.5 581.5,-38.5"/>
<text text-anchor="middle" x="648.5" y="-45.5" font-family="Helvetica,sans-Serif" font-size="10.00" fill="#000000">Alignment::getNumAminos</text>
</a>
</g>
</g>
<!-- Node887&#45;&gt;Node892 -->
<g id="edge7" class="edge">
<title>Node887&#45;&gt;Node892</title>
<path fill="none" stroke="#191970" d="M275.4332,-266.6875C290.3961,-242.1669 322.6848,-193.8249 361,-164 432.312,-108.49 533.7539,-75.8955 595.127,-60.0358"/>
<polygon fill="#191970" stroke="#191970" points="596.1553,-63.386 604.9923,-57.5416 594.4395,-56.5996 596.1553,-63.386"/>
</g>
<!-- Node893 -->
<g id="node8" class="node">
<title>Node893</title>
<g id="a_node8"><a xlink:href="class_alignment.html#a1bc7622776f3935f6cb9d3c895e43a29" target="_top" xlink:title="Alignment type getter. &#160;&#160;See SequenceTypes.">
<polygon fill="#ffffff" stroke="#000000" points="377,-25.5 377,-44.5 522,-44.5 522,-25.5 377,-25.5"/>
<text text-anchor="middle" x="449.5" y="-32.5" font-family="Helvetica,sans-Serif" font-size="10.00" fill="#000000">Alignment::getAlignmentType</text>
</a>
</g>
</g>
<!-- Node887&#45;&gt;Node893 -->
<g id="edge8" class="edge">
<title>Node887&#45;&gt;Node893</title>
<path fill="none" stroke="#191970" d="M272.3328,-266.748C285.0454,-234.7829 317.6238,-159.3968 361,-107 379.7545,-84.3452 406.5263,-63.7485 425.7057,-50.444"/>
<polygon fill="#191970" stroke="#191970" points="427.8739,-53.2025 434.1848,-44.6923 423.9443,-47.4096 427.8739,-53.2025"/>
</g>
<!-- Node895 -->
<g id="node10" class="node">
<title>Node895</title>
<g id="a_node10"><a xlink:href="classstatistics_1_1_consistency.html#a35c4f5aab5ad2e8d4722f07b17b9dbd2" target="_top" xlink:title="Method to compare a set of alignments to select the most consistent one respect the others....">
<polygon fill="#ffffff" stroke="#000000" points="391,-223 391,-253 508,-253 508,-223 391,-223"/>
<text text-anchor="start" x="399" y="-241" font-family="Helvetica,sans-Serif" font-size="10.00" fill="#000000">statistics::Consistency</text>
<text text-anchor="middle" x="449.5" y="-230" font-family="Helvetica,sans-Serif" font-size="10.00" fill="#000000">::compareAndChoose</text>
</a>
</g>
</g>
<!-- Node887&#45;&gt;Node895 -->
<g id="edge10" class="edge">
<title>Node887&#45;&gt;Node895</title>
<path fill="none" stroke="#191970" d="M325.1574,-267.8966C342.9696,-263.6139 362.6963,-258.8708 381.0909,-254.4481"/>
<polygon fill="#191970" stroke="#191970" points="381.9561,-257.8399 390.8608,-252.0991 380.3196,-251.0339 381.9561,-257.8399"/>
</g>
<!-- Node903 -->
<g id="node18" class="node">
<title>Node903</title>
<g id="a_node18"><a xlink:href="classstatistics_1_1_consistency.html#a12d0b624abec361767bd3a6001998f02" target="_top" xlink:title="Method to obtain the consistency values vector for a given alignment against a set of alignments with...">
<polygon fill="#ffffff" stroke="#000000" points="391,-174 391,-204 508,-204 508,-174 391,-174"/>
<text text-anchor="start" x="399" y="-192" font-family="Helvetica,sans-Serif" font-size="10.00" fill="#000000">statistics::Consistency</text>
<text text-anchor="middle" x="449.5" y="-181" font-family="Helvetica,sans-Serif" font-size="10.00" fill="#000000">::forceComparison</text>
</a>
</g>
</g>
<!-- Node887&#45;&gt;Node903 -->
<g id="edge19" class="edge">
<title>Node887&#45;&gt;Node903</title>
<path fill="none" stroke="#191970" d="M283.4381,-266.9834C301.5,-251.6798 331.5091,-228.2286 361,-214 367.4259,-210.8997 374.3051,-208.1199 381.2836,-205.6434"/>
<polygon fill="#191970" stroke="#191970" points="382.4537,-208.9427 390.8279,-202.4525 380.2341,-202.3039 382.4537,-208.9427"/>
</g>
<!-- Node904 -->
<g id="node19" class="node">
<title>Node904</title>
<g id="a_node19"><a xlink:href="classstatistics_1_1_consistency.html#a6fe619f559c7271eedd869581684f479" target="_top" xlink:title="Applies a new window to the alignment.">
<polygon fill="#ffffff" stroke="#000000" points="391,-311 391,-341 508,-341 508,-311 391,-311"/>
<text text-anchor="start" x="399" y="-329" font-family="Helvetica,sans-Serif" font-size="10.00" fill="#000000">statistics::Consistency</text>
<text text-anchor="middle" x="449.5" y="-318" font-family="Helvetica,sans-Serif" font-size="10.00" fill="#000000">::applyWindow</text>
</a>
</g>
</g>
<!-- Node887&#45;&gt;Node904 -->
<g id="edge28" class="edge">
<title>Node887&#45;&gt;Node904</title>
<path fill="none" stroke="#191970" d="M325.1574,-296.1034C342.9696,-300.3861 362.6963,-305.1292 381.0909,-309.5519"/>
<polygon fill="#191970" stroke="#191970" points="380.3196,-312.9661 390.8608,-311.9009 381.9561,-306.1601 380.3196,-312.9661"/>
</g>
<!-- Node905 -->
<g id="node20" class="node">
<title>Node905</title>
<g id="a_node20"><a xlink:href="class_format_manager.html#a70bde367b5bb05bcc6c200f6981a3eaa" target="_top" xlink:title="Function to obtain the format name of a given file.">
<polygon fill="#ffffff" stroke="#000000" points="361,-272.5 361,-291.5 538,-291.5 538,-272.5 361,-272.5"/>
<text text-anchor="middle" x="449.5" y="-279.5" font-family="Helvetica,sans-Serif" font-size="10.00" fill="#000000">FormatManager::getFileFormatName</text>
</a>
</g>
</g>
<!-- Node887&#45;&gt;Node905 -->
<g id="edge30" class="edge">
<title>Node887&#45;&gt;Node905</title>
<path fill="none" stroke="#191970" d="M325.1574,-282C333.3479,-282 341.9431,-282 350.6274,-282"/>
<polygon fill="#191970" stroke="#191970" points="350.8442,-285.5001 360.8441,-282 350.8441,-278.5001 350.8442,-285.5001"/>
</g>
<!-- Node890 -->
<g id="node5" class="node">
<title>Node890</title>
<g id="a_node5"><a xlink:href="class_base_format_handler.html#a9bc237244e07e621a6089d55a3e96417" target="_top" xlink:title="Function to load a file in the current format and return an alignment object.">
<polygon fill="#ffffff" stroke="#000000" points="593.5,-404 593.5,-434 703.5,-434 703.5,-404 593.5,-404"/>
<text text-anchor="start" x="601.5" y="-422" font-family="Helvetica,sans-Serif" font-size="10.00" fill="#000000">BaseFormatHandler::</text>
<text text-anchor="middle" x="648.5" y="-411" font-family="Helvetica,sans-Serif" font-size="10.00" fill="#000000">LoadAlignment</text>
</a>
</g>
</g>
<!-- Node889&#45;&gt;Node890 -->
<g id="edge4" class="edge">
<title>Node889&#45;&gt;Node890</title>
<path fill="none" stroke="#191970" d="M525.5852,-412.2057C544.6565,-413.2599 564.9446,-414.3814 583.4254,-415.4029"/>
<polygon fill="#191970" stroke="#191970" points="583.3094,-418.9018 593.4874,-415.9591 583.6958,-411.9124 583.3094,-418.9018"/>
</g>
<!-- Node889&#45;&gt;Node891 -->
<g id="edge5" class="edge">
<title>Node889&#45;&gt;Node891</title>
<path fill="none" stroke="#191970" d="M499.4592,-398.46C523.0397,-393.9572 551.6041,-388.5027 577.3917,-383.5785"/>
<polygon fill="#191970" stroke="#191970" points="578.3301,-386.9626 587.4961,-381.649 577.0171,-380.0868 578.3301,-386.9626"/>
</g>
<!-- Node894 -->
<g id="node9" class="node">
<title>Node894</title>
<g id="a_node9"><a xlink:href="namespaceutils.html#aab52f9515717f06cafd6ab7fe2ebdcef" target="_top" xlink:title="Checks an alignment type.">
<polygon fill="#ffffff" stroke="#000000" points="582.5,-.5 582.5,-19.5 714.5,-19.5 714.5,-.5 582.5,-.5"/>
<text text-anchor="middle" x="648.5" y="-7.5" font-family="Helvetica,sans-Serif" font-size="10.00" fill="#000000">utils::checkAlignmentType</text>
</a>
</g>
</g>
<!-- Node893&#45;&gt;Node894 -->
<g id="edge9" class="edge">
<title>Node893&#45;&gt;Node894</title>
<path fill="none" stroke="#191970" d="M522.1883,-25.8683C538.4628,-23.8238 555.7714,-21.6493 572.1882,-19.5869"/>
<polygon fill="#191970" stroke="#191970" points="572.7918,-23.0387 582.2775,-18.3194 571.9192,-16.0933 572.7918,-23.0387"/>
</g>
<!-- Node895&#45;&gt;Node891 -->
<g id="edge13" class="edge">
<title>Node895&#45;&gt;Node891</title>
<path fill="none" stroke="#191970" d="M508.4171,-246.7945C519.133,-250.4686 529.5699,-255.6626 538,-263 568.0226,-289.1312 544.6192,-318.1492 574,-345 575.7183,-346.5704 577.5386,-348.0424 579.4395,-349.4224"/>
<polygon fill="#191970" stroke="#191970" points="577.8877,-352.5795 588.225,-354.9015 581.592,-346.6399 577.8877,-352.5795"/>
</g>
<!-- Node896 -->
<g id="node11" class="node">
<title>Node896</title>
<g id="a_node11"><a xlink:href="namespaceutils.html#a40640e1942f00797e9fe8284e8fbdb14" target="_top" xlink:title="Maximum of two numbers method.">
<polygon fill="#ffffff" stroke="#000000" points="619,-316.5 619,-335.5 678,-335.5 678,-316.5 619,-316.5"/>
<text text-anchor="middle" x="648.5" y="-323.5" font-family="Helvetica,sans-Serif" font-size="10.00" fill="#000000">utils::max</text>
</a>
</g>
</g>
<!-- Node895&#45;&gt;Node896 -->
<g id="edge11" class="edge">
<title>Node895&#45;&gt;Node896</title>
<path fill="none" stroke="#191970" d="M508.3579,-249.1705C518.7278,-252.6291 529.0534,-257.136 538,-263 559.1323,-276.8509 552.6922,-293.4207 574,-307 584.3604,-313.6026 596.9009,-317.9135 608.7148,-320.7271"/>
<polygon fill="#191970" stroke="#191970" points="608.3332,-324.2226 618.8366,-322.8342 609.7599,-317.3695 608.3332,-324.2226"/>
</g>
<!-- Node897 -->
<g id="node12" class="node">
<title>Node897</title>
<g id="a_node12"><a xlink:href="class_alignment.html#a66fdd6d16ef1ccb5e8da24c6e20feca7" target="_top" xlink:title="Number of sequences getter.">
<polygon fill="#ffffff" stroke="#000000" points="580.5,-164.5 580.5,-183.5 716.5,-183.5 716.5,-164.5 580.5,-164.5"/>
<text text-anchor="middle" x="648.5" y="-171.5" font-family="Helvetica,sans-Serif" font-size="10.00" fill="#000000">Alignment::getNumSpecies</text>
</a>
</g>
</g>
<!-- Node895&#45;&gt;Node897 -->
<g id="edge12" class="edge">
<title>Node895&#45;&gt;Node897</title>
<path fill="none" stroke="#191970" d="M508.3123,-224.389C518.3713,-221.4013 528.6017,-217.9342 538,-214 555.0866,-206.8474 556.8599,-200.0233 574,-193 579.9171,-190.5754 586.2285,-188.3929 592.5794,-186.4468"/>
<polygon fill="#191970" stroke="#191970" points="593.8978,-189.7096 602.5411,-183.5824 591.9633,-182.9822 593.8978,-189.7096"/>
</g>
<!-- Node898 -->
<g id="node13" class="node">
<title>Node898</title>
<g id="a_node13"><a xlink:href="class_alignment.html#ab44caa194f61bbbabf7572f3a70cf2fc" target="_top" xlink:title="Getter for the sequences names.">
<polygon fill="#ffffff" stroke="#000000" points="584.5,-126.5 584.5,-145.5 712.5,-145.5 712.5,-126.5 584.5,-126.5"/>
<text text-anchor="middle" x="648.5" y="-133.5" font-family="Helvetica,sans-Serif" font-size="10.00" fill="#000000">Alignment::getSequences</text>
</a>
</g>
</g>
<!-- Node895&#45;&gt;Node898 -->
<g id="edge14" class="edge">
<title>Node895&#45;&gt;Node898</title>
<path fill="none" stroke="#191970" d="M508.1152,-228.846C518.7362,-225.3769 529.2149,-220.594 538,-214 562.5676,-195.5599 549.2938,-173.254 574,-155 576.6302,-153.0567 579.4394,-151.3113 582.3691,-149.7438"/>
<polygon fill="#191970" stroke="#191970" points="583.8438,-152.918 591.4616,-145.5546 580.9146,-146.5603 583.8438,-152.918"/>
</g>
<!-- Node899 -->
<g id="node14" class="node">
<title>Node899</title>
<g id="a_node14"><a xlink:href="class_alignment.html#a436ad8aea24b90789806a981e66da83f" target="_top" xlink:title="Method to map two sets of sequences, own and external. The method accepts a vector of names,...">
<polygon fill="#ffffff" stroke="#000000" points="574,-77 574,-107 723,-107 723,-77 574,-77"/>
<text text-anchor="start" x="582" y="-95" font-family="Helvetica,sans-Serif" font-size="10.00" fill="#000000">Alignment::getSequenceName</text>
<text text-anchor="middle" x="648.5" y="-84" font-family="Helvetica,sans-Serif" font-size="10.00" fill="#000000">Order</text>
</a>
</g>
</g>
<!-- Node895&#45;&gt;Node899 -->
<g id="edge15" class="edge">
<title>Node895&#45;&gt;Node899</title>
<path fill="none" stroke="#191970" d="M508.2783,-230.4562C519.1302,-226.8628 529.6541,-221.6224 538,-214 571.9544,-182.9892 540.9742,-148.9979 574,-117 575.632,-115.4188 577.367,-113.9375 579.1848,-112.5498"/>
<polygon fill="#191970" stroke="#191970" points="581.1586,-115.4411 587.6213,-107.0456 577.3337,-109.5785 581.1586,-115.4411"/>
</g>
<!-- Node900 -->
<g id="node15" class="node">
<title>Node900</title>
<g id="a_node15"><a xlink:href="classsequences_matrix.html#a8b3882d2dcc73938707486c189908abf" target="_top" xlink:title="Method that reorders the stored sequences with a given order list.">
<polygon fill="#ffffff" stroke="#000000" points="581.5,-278.5 581.5,-297.5 715.5,-297.5 715.5,-278.5 581.5,-278.5"/>
<text text-anchor="middle" x="648.5" y="-285.5" font-family="Helvetica,sans-Serif" font-size="10.00" fill="#000000">sequencesMatrix::setOrder</text>
</a>
</g>
</g>
<!-- Node895&#45;&gt;Node900 -->
<g id="edge16" class="edge">
<title>Node895&#45;&gt;Node900</title>
<path fill="none" stroke="#191970" d="M508.1302,-252.7312C537.6397,-260.1457 572.9541,-269.0186 600.7793,-276.0099"/>
<polygon fill="#191970" stroke="#191970" points="600.1157,-279.4519 610.6672,-278.4943 601.8216,-272.6629 600.1157,-279.4519"/>
</g>
<!-- Node901 -->
<g id="node16" class="node">
<title>Node901</title>
<g id="a_node16"><a xlink:href="namespaceutils.html#aac322cd1761fddedec8a5792e358eb32" target="_top" xlink:title="Vector initialization.">
<polygon fill="#ffffff" stroke="#000000" points="610.5,-240.5 610.5,-259.5 686.5,-259.5 686.5,-240.5 610.5,-240.5"/>
<text text-anchor="middle" x="648.5" y="-247.5" font-family="Helvetica,sans-Serif" font-size="10.00" fill="#000000">utils::initlVect</text>
</a>
</g>
</g>
<!-- Node895&#45;&gt;Node901 -->
<g id="edge17" class="edge">
<title>Node895&#45;&gt;Node901</title>
<path fill="none" stroke="#191970" d="M508.1302,-241.5355C537.4086,-243.301 572.4014,-245.4111 600.1242,-247.0829"/>
<polygon fill="#191970" stroke="#191970" points="600.1737,-250.5921 610.3663,-247.7005 600.5951,-243.6048 600.1737,-250.5921"/>
</g>
<!-- Node902 -->
<g id="node17" class="node">
<title>Node902</title>
<g id="a_node17"><a xlink:href="classsequences_matrix.html#a2954781bf8e8fd338714246fd10bae88" target="_top" xlink:title="Method to get a column out of the matrix.">
<polygon fill="#ffffff" stroke="#000000" points="576.5,-202.5 576.5,-221.5 720.5,-221.5 720.5,-202.5 576.5,-202.5"/>
<text text-anchor="middle" x="648.5" y="-209.5" font-family="Helvetica,sans-Serif" font-size="10.00" fill="#000000">sequencesMatrix::getColumn</text>
</a>
</g>
</g>
<!-- Node895&#45;&gt;Node902 -->
<g id="edge18" class="edge">
<title>Node895&#45;&gt;Node902</title>
<path fill="none" stroke="#191970" d="M508.1302,-230.3398C526.2895,-227.9672 546.647,-225.3074 566.1048,-222.7652"/>
<polygon fill="#191970" stroke="#191970" points="566.7192,-226.2148 576.1815,-221.4486 565.8123,-219.2737 566.7192,-226.2148"/>
</g>
<!-- Node903&#45;&gt;Node891 -->
<g id="edge23" class="edge">
<title>Node903&#45;&gt;Node891</title>
<path fill="none" stroke="#191970" d="M508.3837,-196.5374C519.3565,-200.2962 529.9005,-205.8426 538,-214 580.5432,-256.8474 532.5071,-301.1347 574,-345 575.5616,-346.6508 577.2353,-348.1927 579,-349.6328"/>
<polygon fill="#191970" stroke="#191970" points="577.0331,-352.5279 587.2543,-355.317 581.0033,-346.7627 577.0331,-352.5279"/>
</g>
<!-- Node903&#45;&gt;Node892 -->
<g id="edge20" class="edge">
<title>Node903&#45;&gt;Node892</title>
<path fill="none" stroke="#191970" d="M483.1945,-173.9236C501.1219,-164.6451 522.5833,-151.3864 538,-135 561.4322,-110.0939 547.1285,-88.1496 574,-67 576.3108,-65.1812 578.7757,-63.5348 581.351,-62.0445"/>
<polygon fill="#191970" stroke="#191970" points="583.0431,-65.1126 590.4688,-57.5555 579.9512,-58.8325 583.0431,-65.1126"/>
</g>
<!-- Node903&#45;&gt;Node897 -->
<g id="edge21" class="edge">
<title>Node903&#45;&gt;Node897</title>
<path fill="none" stroke="#191970" d="M508.1302,-184.5806C527.6384,-183.1102 549.6835,-181.4485 570.4247,-179.8851"/>
<polygon fill="#191970" stroke="#191970" points="570.7766,-183.3686 580.4852,-179.1267 570.2504,-176.3884 570.7766,-183.3686"/>
</g>
<!-- Node903&#45;&gt;Node898 -->
<g id="edge24" class="edge">
<title>Node903&#45;&gt;Node898</title>
<path fill="none" stroke="#191970" d="M503.6815,-173.9898C525.5058,-167.9995 550.9282,-161.0919 574,-155 582.6267,-152.7222 591.8276,-150.3385 600.7147,-148.0596"/>
<polygon fill="#191970" stroke="#191970" points="601.7455,-151.4087 610.5679,-145.5423 600.0127,-144.6266 601.7455,-151.4087"/>
</g>
<!-- Node903&#45;&gt;Node899 -->
<g id="edge25" class="edge">
<title>Node903&#45;&gt;Node899</title>
<path fill="none" stroke="#191970" d="M474.3308,-173.8451C504.6671,-155.4715 554.3718,-125.8608 574,-117 578.9738,-114.7547 584.2122,-112.6007 589.5109,-110.5642"/>
<polygon fill="#191970" stroke="#191970" points="590.9034,-113.7811 599.0699,-107.0314 588.4767,-107.2152 590.9034,-113.7811"/>
</g>
<!-- Node903&#45;&gt;Node900 -->
<g id="edge26" class="edge">
<title>Node903&#45;&gt;Node900</title>
<path fill="none" stroke="#191970" d="M508.4251,-199.2504C518.9018,-202.7995 529.2484,-207.5751 538,-214 561.5503,-231.2892 550.2303,-252.0137 574,-269 576.715,-270.9402 579.6102,-272.6827 582.6246,-274.2475"/>
<polygon fill="#191970" stroke="#191970" points="581.4067,-277.5369 591.9639,-278.4292 584.2673,-271.1481 581.4067,-277.5369"/>
</g>
<!-- Node903&#45;&gt;Node901 -->
<g id="edge22" class="edge">
<title>Node903&#45;&gt;Node901</title>
<path fill="none" stroke="#191970" d="M508.0235,-204.0478C518.1146,-207.0633 528.4306,-210.4172 538,-214 554.5709,-220.2042 557.351,-225.0085 574,-231 582.3952,-234.0212 591.4856,-236.7601 600.3356,-239.1581"/>
<polygon fill="#191970" stroke="#191970" points="599.6167,-242.5875 610.1757,-241.7175 601.3788,-235.8129 599.6167,-242.5875"/>
</g>
<!-- Node903&#45;&gt;Node902 -->
<g id="edge27" class="edge">
<title>Node903&#45;&gt;Node902</title>
<path fill="none" stroke="#191970" d="M508.1302,-195.7764C526.2895,-197.8752 546.647,-200.228 566.1048,-202.4769"/>
<polygon fill="#191970" stroke="#191970" points="565.8458,-205.9702 576.1815,-203.6416 566.6495,-199.0165 565.8458,-205.9702"/>
</g>
<!-- Node904&#45;&gt;Node891 -->
<g id="edge29" class="edge">
<title>Node904&#45;&gt;Node891</title>
<path fill="none" stroke="#191970" d="M508.1302,-338.9635C529.802,-343.7552 554.6045,-349.2392 577.2722,-354.2511"/>
<polygon fill="#191970" stroke="#191970" points="576.6583,-357.6999 587.1781,-356.4414 578.1696,-350.8649 576.6583,-357.6999"/>
</g>
<!-- Node905&#45;&gt;Node891 -->
<g id="edge31" class="edge">
<title>Node905&#45;&gt;Node891</title>
<path fill="none" stroke="#191970" d="M514.7483,-291.5782C522.9053,-294.2446 530.874,-297.6504 538,-302 559.2746,-314.9856 553.4115,-330.9519 574,-345 576.9054,-346.9824 579.9812,-348.8191 583.1636,-350.5193"/>
<polygon fill="#191970" stroke="#191970" points="581.834,-353.7639 592.3615,-354.9571 584.8759,-347.4594 581.834,-353.7639"/>
</g>
</g>
</svg>
