<?xml version="1.0" encoding="UTF-8" standalone="no"?>
<!DOCTYPE svg PUBLIC "-//W3C//DTD SVG 1.1//EN"
 "http://www.w3.org/Graphics/SVG/1.1/DTD/svg11.dtd">
<!-- Generated by graphviz version 2.38.0 (20140413.2041)
 -->
<!-- Title: Catch::Matchers::Impl::MatcherUntypedBase Pages: 1 -->
<svg width="152pt" height="174pt"
 viewBox="0.00 0.00 151.50 174.00" xmlns="http://www.w3.org/2000/svg" xmlns:xlink="http://www.w3.org/1999/xlink">
<g id="graph0" class="graph" transform="scale(1 1) rotate(0) translate(4 170)">
<title>Catch::Matchers::Impl::MatcherUntypedBase</title>
<polygon fill="white" stroke="none" points="-4,4 -4,-170 147.5,-170 147.5,4 -4,4"/>
<!-- Node19 -->
<g id="node1" class="node"><title>Node19</title>
<polygon fill="#bfbfbf" stroke="black" points="0,-0.5 0,-30.5 117,-30.5 117,-0.5 0,-0.5"/>
<text text-anchor="start" x="8" y="-18.5" font-family="Helvetica,sans-Serif" font-size="10.00">Catch::Matchers::Impl</text>
<text text-anchor="middle" x="58.5" y="-7.5" font-family="Helvetica,sans-Serif" font-size="10.00">::MatcherUntypedBase</text>
</g>
<!-- Node20 -->
<g id="node2" class="node"><title>Node20</title>
<g id="a_node2"><a xlink:title="STL class. ">
<polygon fill="white" stroke="#bfbfbf" points="28.5,-78.5 28.5,-97.5 88.5,-97.5 88.5,-78.5 28.5,-78.5"/>
<text text-anchor="middle" x="58.5" y="-85.5" font-family="Helvetica,sans-Serif" font-size="10.00">std::string</text>
</a>
</g>
</g>
<!-- Node20&#45;&gt;Node19 -->
<g id="edge1" class="edge"><title>Node20&#45;&gt;Node19</title>
<path fill="none" stroke="#9a32cd" stroke-dasharray="5,2" d="M58.5,-68.2362C58.5,-56.4079 58.5,-41.3829 58.5,-30.5762"/>
<polygon fill="#9a32cd" stroke="#9a32cd" points="55.0001,-68.3553 58.5,-78.3553 62.0001,-68.3554 55.0001,-68.3553"/>
<text text-anchor="middle" x="101" y="-52" font-family="Helvetica,sans-Serif" font-size="10.00"> m_cachedToString</text>
</g>
<!-- Node21 -->
<g id="node3" class="node"><title>Node21</title>
<g id="a_node3"><a xlink:title="STL class. ">
<polygon fill="white" stroke="#bfbfbf" points="11,-135.5 11,-165.5 106,-165.5 106,-135.5 11,-135.5"/>
<text text-anchor="start" x="19" y="-153.5" font-family="Helvetica,sans-Serif" font-size="10.00">std::basic_string&lt;</text>
<text text-anchor="middle" x="58.5" y="-142.5" font-family="Helvetica,sans-Serif" font-size="10.00"> char &gt;</text>
</a>
</g>
</g>
<!-- Node21&#45;&gt;Node20 -->
<g id="edge2" class="edge"><title>Node21&#45;&gt;Node20</title>
<path fill="none" stroke="midnightblue" d="M58.5,-125.352C58.5,-115.513 58.5,-104.775 58.5,-97.5399"/>
<polygon fill="midnightblue" stroke="midnightblue" points="55.0001,-125.468 58.5,-135.468 62.0001,-125.468 55.0001,-125.468"/>
</g>
</g>
</svg>
