<?xml version="1.0" encoding="UTF-8" standalone="no"?>
<!DOCTYPE svg PUBLIC "-//W3C//DTD SVG 1.1//EN"
 "http://www.w3.org/Graphics/SVG/1.1/DTD/svg11.dtd">
<!-- Generated by graphviz version 2.38.0 (20140413.2041)
 -->
<!-- Title: utils::roundInt Pages: 1 -->
<svg width="927pt" height="259pt"
 viewBox="0.00 0.00 927.00 259.00" xmlns="http://www.w3.org/2000/svg" xmlns:xlink="http://www.w3.org/1999/xlink">
<g id="graph0" class="graph" transform="scale(1 1) rotate(0) translate(4 255)">
<title>utils::roundInt</title>
<polygon fill="white" stroke="none" points="-4,4 -4,-255 923,-255 923,4 -4,4"/>
<!-- Node198 -->
<g id="node1" class="node"><title>Node198</title>
<polygon fill="#bfbfbf" stroke="black" points="0,-68.5 0,-87.5 76,-87.5 76,-68.5 0,-68.5"/>
<text text-anchor="middle" x="38" y="-75.5" font-family="Helvetica,sans-Serif" font-size="10.00">utils::roundInt</text>
</g>
<!-- Node199 -->
<g id="node2" class="node"><title>Node199</title>
<g id="a_node2"><a xlink:href="class_cleaner.html#a66bda5807c06cfaf1609e4c1f5955671" target="_top" xlink:title="Method to clean an alignment. &#160;It removes sequences that overpass or equals a certain threshold...">
<polygon fill="white" stroke="black" points="112,-169 112,-199 244,-199 244,-169 112,-169"/>
<text text-anchor="start" x="120" y="-187" font-family="Helvetica,sans-Serif" font-size="10.00">Cleaner::cleanByCutValue</text>
<text text-anchor="middle" x="178" y="-176" font-family="Helvetica,sans-Serif" font-size="10.00">Overpass</text>
</a>
</g>
</g>
<!-- Node198&#45;&gt;Node199 -->
<g id="edge1" class="edge"><title>Node198&#45;&gt;Node199</title>
<path fill="none" stroke="midnightblue" d="M59.9209,-94.0696C86.3315,-114.356 131.428,-148.995 157.265,-168.841"/>
<polygon fill="midnightblue" stroke="midnightblue" points="61.7979,-91.0981 51.7354,-87.7822 57.5338,-96.6495 61.7979,-91.0981"/>
</g>
<!-- Node207 -->
<g id="node10" class="node"><title>Node207</title>
<g id="a_node10"><a xlink:href="class_cleaner.html#aa85792ad5a7c3209509a689fb0410e92" target="_top" xlink:title="Method to clean an alignment. &#160;It removes sequences that fall behind a certain threshold. &#160;The function detects if it would clean too many sequences, and relaxes the threshold until we have enough sequences to achieve the given percentage desired to keep. &#160;To achieve this, the method starts in the middle of the sequence and, alternating sides, adds column one by one. ">
<polygon fill="white" stroke="black" points="112,-88 112,-118 244,-118 244,-88 112,-88"/>
<text text-anchor="start" x="120" y="-106" font-family="Helvetica,sans-Serif" font-size="10.00">Cleaner::cleanByCutValue</text>
<text text-anchor="middle" x="178" y="-95" font-family="Helvetica,sans-Serif" font-size="10.00">FallBehind</text>
</a>
</g>
</g>
<!-- Node198&#45;&gt;Node207 -->
<g id="edge10" class="edge"><title>Node198&#45;&gt;Node207</title>
<path fill="none" stroke="midnightblue" d="M86.2046,-86.5516C94.5092,-88.056 103.283,-89.6455 111.973,-91.2198"/>
<polygon fill="midnightblue" stroke="midnightblue" points="86.8086,-83.1041 76.3448,-84.7654 85.5607,-89.992 86.8086,-83.1041"/>
</g>
<!-- Node210 -->
<g id="node13" class="node"><title>Node210</title>
<g id="a_node13"><a xlink:href="class_cleaner.html#ae7ad16bc3ad459a12c908801fa20da66" target="_top" xlink:title="Method to clean an alignment. &#160;It removes sequences that overpass or equals &#160;the gap threshold but &#160;f...">
<polygon fill="white" stroke="black" points="112,-39 112,-69 244,-69 244,-39 112,-39"/>
<text text-anchor="start" x="120" y="-57" font-family="Helvetica,sans-Serif" font-size="10.00">Cleaner::cleanByCutValue</text>
<text text-anchor="middle" x="178" y="-46" font-family="Helvetica,sans-Serif" font-size="10.00">OverpassOrEquals</text>
</a>
</g>
</g>
<!-- Node198&#45;&gt;Node210 -->
<g id="edge15" class="edge"><title>Node198&#45;&gt;Node210</title>
<path fill="none" stroke="midnightblue" d="M86.2046,-69.7905C94.5092,-68.3462 103.283,-66.8203 111.973,-65.309"/>
<polygon fill="midnightblue" stroke="midnightblue" points="85.5972,-66.3435 76.3448,-71.5053 86.7966,-73.24 85.5972,-66.3435"/>
</g>
<!-- Node212 -->
<g id="node15" class="node"><title>Node212</title>
<g id="a_node15"><a xlink:href="class_cleaner.html#a740bce047dce09be0f6bd1da9f826da3" target="_top" xlink:title="Method to clean an alignment. It carries out strict and strictplus. It removes sequences that overpas...">
<polygon fill="white" stroke="black" points="126.5,-0.5 126.5,-19.5 229.5,-19.5 229.5,-0.5 126.5,-0.5"/>
<text text-anchor="middle" x="178" y="-7.5" font-family="Helvetica,sans-Serif" font-size="10.00">Cleaner::cleanStrict</text>
</a>
</g>
</g>
<!-- Node198&#45;&gt;Node212 -->
<g id="edge18" class="edge"><title>Node198&#45;&gt;Node212</title>
<path fill="none" stroke="midnightblue" d="M58.7269,-62.3152C72.878,-51.6919 92.7666,-38.0024 112,-29 119.88,-25.3118 128.635,-22.1683 137.102,-19.5627"/>
<polygon fill="midnightblue" stroke="midnightblue" points="56.5168,-59.5994 50.7144,-68.4642 60.7784,-65.1526 56.5168,-59.5994"/>
</g>
<!-- Node200 -->
<g id="node3" class="node"><title>Node200</title>
<g id="a_node3"><a xlink:href="class_cleaner.html#ac3be9d53018d9146d6dc6cf7ff89f96d" target="_top" xlink:title="Method to trim an alignment based on the gap distribution values. Column blocks that don&#39;t have a min...">
<polygon fill="white" stroke="black" points="300,-193.5 300,-212.5 403,-212.5 403,-193.5 300,-193.5"/>
<text text-anchor="middle" x="351.5" y="-200.5" font-family="Helvetica,sans-Serif" font-size="10.00">Cleaner::cleanGaps</text>
</a>
</g>
</g>
<!-- Node199&#45;&gt;Node200 -->
<g id="edge2" class="edge"><title>Node199&#45;&gt;Node200</title>
<path fill="none" stroke="midnightblue" d="M254.333,-192.346C269.692,-194.047 285.503,-195.799 299.757,-197.378"/>
<polygon fill="midnightblue" stroke="midnightblue" points="254.651,-188.86 244.326,-191.237 253.88,-195.817 254.651,-188.86"/>
</g>
<!-- Node204 -->
<g id="node7" class="node"><title>Node204</title>
<g id="a_node7"><a xlink:href="class_cleaner.html#a1ea9656823727f9ec237c82f9fb529cf" target="_top" xlink:title="Method that carries the gappyout approach. This methods calculates the slope in gaps distribution on ...">
<polygon fill="white" stroke="black" points="291.5,-155.5 291.5,-174.5 411.5,-174.5 411.5,-155.5 291.5,-155.5"/>
<text text-anchor="middle" x="351.5" y="-162.5" font-family="Helvetica,sans-Serif" font-size="10.00">Cleaner::clean2ndSlope</text>
</a>
</g>
</g>
<!-- Node199&#45;&gt;Node204 -->
<g id="edge6" class="edge"><title>Node199&#45;&gt;Node204</title>
<path fill="none" stroke="midnightblue" d="M254.564,-175.629C266.857,-174.267 279.434,-172.873 291.265,-171.563"/>
<polygon fill="midnightblue" stroke="midnightblue" points="253.88,-172.183 244.326,-176.763 254.651,-179.14 253.88,-172.183"/>
</g>
<!-- Node205 -->
<g id="node8" class="node"><title>Node205</title>
<g id="a_node8"><a xlink:href="class_cleaner.html#a08e6db52c33baccce53a33d844597d7b" target="_top" xlink:title="Method to remove columns composed only by gaps This method is specially useful when we remove missali...">
<polygon fill="white" stroke="black" points="288,-231.5 288,-250.5 415,-250.5 415,-231.5 288,-231.5"/>
<text text-anchor="middle" x="351.5" y="-238.5" font-family="Helvetica,sans-Serif" font-size="10.00">Cleaner::cleanNoAllGaps</text>
</a>
</g>
</g>
<!-- Node199&#45;&gt;Node205 -->
<g id="edge7" class="edge"><title>Node199&#45;&gt;Node205</title>
<path fill="none" stroke="midnightblue" d="M226.206,-202.839C243.057,-209.276 262.261,-216.287 280,-222 290.377,-225.342 301.738,-228.582 312.251,-231.413"/>
<polygon fill="midnightblue" stroke="midnightblue" points="227.174,-199.461 216.585,-199.129 224.656,-205.992 227.174,-199.461"/>
</g>
<!-- Node201 -->
<g id="node4" class="node"><title>Node201</title>
<g id="a_node4"><a xlink:href="classtrim_al_manager.html#aebfd21b0435302f0e4fc45a068d1b6ee" target="_top" xlink:title="Method to trim the alignment using non automatic methods: ">
<polygon fill="white" stroke="black" points="463,-112 463,-142 615,-142 615,-112 463,-112"/>
<text text-anchor="start" x="471" y="-130" font-family="Helvetica,sans-Serif" font-size="10.00">trimAlManager::CleanResidues</text>
<text text-anchor="middle" x="539" y="-119" font-family="Helvetica,sans-Serif" font-size="10.00">NonAuto</text>
</a>
</g>
</g>
<!-- Node200&#45;&gt;Node201 -->
<g id="edge3" class="edge"><title>Node200&#45;&gt;Node201</title>
<path fill="none" stroke="midnightblue" d="M403.049,-190.676C409.823,-188.647 416.627,-186.411 423,-184 454.262,-172.172 488.371,-154.636 511.258,-142.141"/>
<polygon fill="midnightblue" stroke="midnightblue" points="401.85,-187.378 393.199,-193.495 403.777,-194.108 401.85,-187.378"/>
</g>
<!-- Node202 -->
<g id="node5" class="node"><title>Node202</title>
<g id="a_node5"><a xlink:href="classtrim_al_manager.html#adc529dd893ed4e9df6f3ddbd58776068" target="_top" xlink:title="Core Method of the program. This is where almost all cleaning methods are called from. ">
<polygon fill="white" stroke="black" points="655,-151 655,-181 764,-181 764,-151 655,-151"/>
<text text-anchor="start" x="663" y="-169" font-family="Helvetica,sans-Serif" font-size="10.00">trimAlManager::clean</text>
<text text-anchor="middle" x="709.5" y="-158" font-family="Helvetica,sans-Serif" font-size="10.00">_alignment</text>
</a>
</g>
</g>
<!-- Node201&#45;&gt;Node202 -->
<g id="edge4" class="edge"><title>Node201&#45;&gt;Node202</title>
<path fill="none" stroke="midnightblue" d="M614.903,-144.337C628.408,-147.462 642.238,-150.663 654.981,-153.613"/>
<polygon fill="midnightblue" stroke="midnightblue" points="615.678,-140.924 605.146,-142.078 614.1,-147.743 615.678,-140.924"/>
</g>
<!-- Node203 -->
<g id="node6" class="node"><title>Node203</title>
<g id="a_node6"><a xlink:href="classtrim_al_manager.html#abe8d2841455c644dc9c7d1294b82b00f" target="_top" xlink:title="Method to perform the analysis if all checks have passed. ">
<polygon fill="white" stroke="black" points="800,-156.5 800,-175.5 919,-175.5 919,-156.5 800,-156.5"/>
<text text-anchor="middle" x="859.5" y="-163.5" font-family="Helvetica,sans-Serif" font-size="10.00">trimAlManager::perform</text>
</a>
</g>
</g>
<!-- Node202&#45;&gt;Node203 -->
<g id="edge5" class="edge"><title>Node202&#45;&gt;Node203</title>
<path fill="none" stroke="midnightblue" d="M774.532,-166C782.977,-166 791.597,-166 799.943,-166"/>
<polygon fill="midnightblue" stroke="midnightblue" points="774.35,-162.5 764.35,-166 774.35,-169.5 774.35,-162.5"/>
</g>
<!-- Node206 -->
<g id="node9" class="node"><title>Node206</title>
<g id="a_node9"><a xlink:href="classtrim_al_manager.html#a10536f715945a1a45f1df33f7cedc81e" target="_top" xlink:title="Method to trim or reduce the number of sequences in an alignment. It performs one or none of the foll...">
<polygon fill="white" stroke="black" points="459,-196.5 459,-215.5 619,-215.5 619,-196.5 459,-196.5"/>
<text text-anchor="middle" x="539" y="-203.5" font-family="Helvetica,sans-Serif" font-size="10.00">trimAlManager::CleanSequences</text>
</a>
</g>
</g>
<!-- Node205&#45;&gt;Node206 -->
<g id="edge8" class="edge"><title>Node205&#45;&gt;Node206</title>
<path fill="none" stroke="midnightblue" d="M413.248,-229.538C437.235,-225.012 464.478,-219.872 487.373,-215.552"/>
<polygon fill="midnightblue" stroke="midnightblue" points="412.366,-226.143 403.189,-231.436 413.664,-233.021 412.366,-226.143"/>
</g>
<!-- Node206&#45;&gt;Node202 -->
<g id="edge9" class="edge"><title>Node206&#45;&gt;Node202</title>
<path fill="none" stroke="midnightblue" d="M590.355,-194.046C610.665,-189.225 634.128,-183.655 654.767,-178.756"/>
<polygon fill="midnightblue" stroke="midnightblue" points="589.281,-190.704 580.36,-196.419 590.898,-197.515 589.281,-190.704"/>
</g>
<!-- Node208 -->
<g id="node11" class="node"><title>Node208</title>
<g id="a_node11"><a xlink:href="class_cleaner.html#a694d53fdd5d1ac9455858e48537af3d0" target="_top" xlink:title="Method to trim an alignment based on the similarity distribution values. ">
<polygon fill="white" stroke="black" points="283,-79.5 283,-98.5 420,-98.5 420,-79.5 283,-79.5"/>
<text text-anchor="middle" x="351.5" y="-86.5" font-family="Helvetica,sans-Serif" font-size="10.00">Cleaner::cleanConservation</text>
</a>
</g>
</g>
<!-- Node207&#45;&gt;Node208 -->
<g id="edge11" class="edge"><title>Node207&#45;&gt;Node208</title>
<path fill="none" stroke="midnightblue" d="M254.469,-96.8393C263.897,-96.0697 273.493,-95.2863 282.793,-94.5271"/>
<polygon fill="midnightblue" stroke="midnightblue" points="254.008,-93.3652 244.326,-97.6673 254.578,-100.342 254.008,-93.3652"/>
</g>
<!-- Node209 -->
<g id="node12" class="node"><title>Node209</title>
<g id="a_node12"><a xlink:href="class_cleaner.html#ae2328fe8c189e2827b46e5dfb8e3deb3" target="_top" xlink:title="Method to trim an alignment based on consistency values obtained from a dataset of alignments...">
<polygon fill="white" stroke="black" points="284,-117.5 284,-136.5 419,-136.5 419,-117.5 284,-117.5"/>
<text text-anchor="middle" x="351.5" y="-124.5" font-family="Helvetica,sans-Serif" font-size="10.00">Cleaner::cleanCompareFile</text>
</a>
</g>
</g>
<!-- Node207&#45;&gt;Node209 -->
<g id="edge13" class="edge"><title>Node207&#45;&gt;Node209</title>
<path fill="none" stroke="midnightblue" d="M254.466,-113.561C264.281,-114.934 274.278,-116.333 283.934,-117.685"/>
<polygon fill="midnightblue" stroke="midnightblue" points="254.715,-110.062 244.326,-112.142 253.744,-116.994 254.715,-110.062"/>
</g>
<!-- Node208&#45;&gt;Node201 -->
<g id="edge12" class="edge"><title>Node208&#45;&gt;Node201</title>
<path fill="none" stroke="midnightblue" d="M409.307,-100.637C426.718,-104.204 446.127,-108.18 464.486,-111.94"/>
<polygon fill="midnightblue" stroke="midnightblue" points="409.808,-97.1671 399.309,-98.589 408.404,-104.025 409.808,-97.1671"/>
</g>
<!-- Node209&#45;&gt;Node201 -->
<g id="edge14" class="edge"><title>Node209&#45;&gt;Node201</title>
<path fill="none" stroke="midnightblue" d="M429.266,-127C440.334,-127 451.716,-127 462.755,-127"/>
<polygon fill="midnightblue" stroke="midnightblue" points="429.208,-123.5 419.208,-127 429.208,-130.5 429.208,-123.5"/>
</g>
<!-- Node211 -->
<g id="node14" class="node"><title>Node211</title>
<g id="a_node14"><a xlink:href="class_cleaner.html#a1ac5ba504932526d77575365557a4d64" target="_top" xlink:title="Method to trim an alignment based on the similarity and gaps distribution values. ...">
<polygon fill="white" stroke="black" points="311.5,-41.5 311.5,-60.5 391.5,-60.5 391.5,-41.5 311.5,-41.5"/>
<text text-anchor="middle" x="351.5" y="-48.5" font-family="Helvetica,sans-Serif" font-size="10.00">Cleaner::clean</text>
</a>
</g>
</g>
<!-- Node210&#45;&gt;Node211 -->
<g id="edge16" class="edge"><title>Node210&#45;&gt;Node211</title>
<path fill="none" stroke="midnightblue" d="M254.511,-52.6791C274.158,-52.3354 294.533,-51.979 311.429,-51.6835"/>
<polygon fill="midnightblue" stroke="midnightblue" points="254.263,-49.1828 244.326,-52.8573 254.386,-56.1817 254.263,-49.1828"/>
</g>
<!-- Node211&#45;&gt;Node201 -->
<g id="edge17" class="edge"><title>Node211&#45;&gt;Node201</title>
<path fill="none" stroke="midnightblue" d="M401.537,-62.8748C408.808,-65.0208 416.153,-67.4095 423,-70 454.262,-81.828 488.371,-99.3645 511.258,-111.859"/>
<polygon fill="midnightblue" stroke="midnightblue" points="402.298,-59.4528 391.723,-60.1026 400.395,-66.1892 402.298,-59.4528"/>
</g>
<!-- Node213 -->
<g id="node16" class="node"><title>Node213</title>
<g id="a_node16"><a xlink:href="class_cleaner.html#a068b219f913adba5c917a231cff7e437" target="_top" xlink:title="Method to clean an alignment. It carries out strict and strictplus. The method: ">
<polygon fill="white" stroke="black" points="280,-0.5 280,-19.5 423,-19.5 423,-0.5 280,-0.5"/>
<text text-anchor="middle" x="351.5" y="-7.5" font-family="Helvetica,sans-Serif" font-size="10.00">Cleaner::cleanCombMethods</text>
</a>
</g>
</g>
<!-- Node212&#45;&gt;Node213 -->
<g id="edge19" class="edge"><title>Node212&#45;&gt;Node213</title>
<path fill="none" stroke="midnightblue" d="M239.699,-10C252.636,-10 266.407,-10 279.685,-10"/>
<polygon fill="midnightblue" stroke="midnightblue" points="239.528,-6.5001 229.528,-10 239.528,-13.5001 239.528,-6.5001"/>
</g>
</g>
</svg>
