<?xml version="1.0" encoding="UTF-8" standalone="no"?>
<!DOCTYPE svg PUBLIC "-//W3C//DTD SVG 1.1//EN"
 "http://www.w3.org/Graphics/SVG/1.1/DTD/svg11.dtd">
<!-- Generated by graphviz version 2.40.1 (20161225.0304)
 -->
<!-- Title: Cleaner::cleanCombMethods Pages: 1 -->
<svg width="1127pt" height="492pt"
 viewBox="0.00 0.00 1127.00 492.00" xmlns="http://www.w3.org/2000/svg" xmlns:xlink="http://www.w3.org/1999/xlink">
<g id="graph0" class="graph" transform="scale(1 1) rotate(0) translate(4 488)">
<title>Cleaner::cleanCombMethods</title>
<polygon fill="#ffffff" stroke="transparent" points="-4,4 -4,-488 1123,-488 1123,4 -4,4"/>
<!-- Node150 -->
<g id="node1" class="node">
<title>Node150</title>
<g id="a_node1"><a xlink:title="Method to clean an alignment. It carries out strict and strictplus. The method:">
<polygon fill="#bfbfbf" stroke="#000000" points="0,-226.5 0,-245.5 143,-245.5 143,-226.5 0,-226.5"/>
<text text-anchor="middle" x="71.5" y="-233.5" font-family="Helvetica,sans-Serif" font-size="10.00" fill="#000000">Cleaner::cleanCombMethods</text>
</a>
</g>
</g>
<!-- Node151 -->
<g id="node2" class="node">
<title>Node151</title>
<g id="a_node2"><a xlink:href="classstatistics_1_1_gaps.html#a70d46d69ad3564e1ec068d5f9d7e3e84" target="_top" xlink:title=" ">
<polygon fill="#ffffff" stroke="#000000" points="188,-427 188,-457 313,-457 313,-427 188,-427"/>
<text text-anchor="start" x="196" y="-445" font-family="Helvetica,sans-Serif" font-size="10.00" fill="#000000">statistics::Gaps::calcCut</text>
<text text-anchor="middle" x="250.5" y="-434" font-family="Helvetica,sans-Serif" font-size="10.00" fill="#000000">Point2ndSlope</text>
</a>
</g>
</g>
<!-- Node150&#45;&gt;Node151 -->
<g id="edge1" class="edge">
<title>Node150&#45;&gt;Node151</title>
<path fill="none" stroke="#191970" d="M74.9858,-245.8387C85.8273,-275.1269 121.7016,-362.7629 179,-412 183.4477,-415.8219 188.452,-419.2118 193.6949,-422.206"/>
<polygon fill="#191970" stroke="#191970" points="192.1996,-425.3734 202.6871,-426.878 195.427,-419.1617 192.1996,-425.3734"/>
</g>
<!-- Node153 -->
<g id="node4" class="node">
<title>Node153</title>
<g id="a_node4"><a xlink:href="namespaceutils.html#aac322cd1761fddedec8a5792e358eb32" target="_top" xlink:title="Vector initialization.">
<polygon fill="#ffffff" stroke="#000000" points="1015,-388.5 1015,-407.5 1091,-407.5 1091,-388.5 1015,-388.5"/>
<text text-anchor="middle" x="1053" y="-395.5" font-family="Helvetica,sans-Serif" font-size="10.00" fill="#000000">utils::initlVect</text>
</a>
</g>
</g>
<!-- Node150&#45;&gt;Node153 -->
<g id="edge37" class="edge">
<title>Node150&#45;&gt;Node153</title>
<path fill="none" stroke="#191970" d="M79.685,-245.5027C96.4347,-264.3659 136.6295,-306.7211 179,-330 272.7981,-381.534 302.9774,-398 410,-398 410,-398 410,-398 701,-398 809.4746,-398 936.7526,-398 1004.6072,-398"/>
<polygon fill="#191970" stroke="#191970" points="1004.9753,-401.5001 1014.9753,-398 1004.9753,-394.5001 1004.9753,-401.5001"/>
</g>
<!-- Node154 -->
<g id="node5" class="node">
<title>Node154</title>
<g id="a_node5"><a xlink:href="classstatistics_1_1_manager.html#a92505ca5aedc5b45c4300a0e8a7d1e17" target="_top" xlink:title="Method to handle similarity stat calculation It checks if the similarity submodule has been created,...">
<polygon fill="#ffffff" stroke="#000000" points="179,-221 179,-251 322,-251 322,-221 179,-221"/>
<text text-anchor="start" x="187" y="-239" font-family="Helvetica,sans-Serif" font-size="10.00" fill="#000000">statistics::Manager</text>
<text text-anchor="middle" x="250.5" y="-228" font-family="Helvetica,sans-Serif" font-size="10.00" fill="#000000">::calculateConservationStats</text>
</a>
</g>
</g>
<!-- Node150&#45;&gt;Node154 -->
<g id="edge4" class="edge">
<title>Node150&#45;&gt;Node154</title>
<path fill="none" stroke="#191970" d="M143.0172,-236C151.4862,-236 160.1793,-236 168.776,-236"/>
<polygon fill="#191970" stroke="#191970" points="168.8043,-239.5001 178.8042,-236 168.8042,-232.5001 168.8043,-239.5001"/>
</g>
<!-- Node166 -->
<g id="node17" class="node">
<title>Node166</title>
<g id="a_node17"><a xlink:href="classstatistics_1_1_gaps.html#ab5b60db326475f8adc68b130e22b3963" target="_top" xlink:title=" ">
<polygon fill="#ffffff" stroke="#000000" points="637,-85 637,-115 765,-115 765,-85 637,-85"/>
<text text-anchor="start" x="645" y="-103" font-family="Helvetica,sans-Serif" font-size="10.00" fill="#000000">statistics::Gaps::getGaps</text>
<text text-anchor="middle" x="701" y="-92" font-family="Helvetica,sans-Serif" font-size="10.00" fill="#000000">Window</text>
</a>
</g>
</g>
<!-- Node150&#45;&gt;Node166 -->
<g id="edge33" class="edge">
<title>Node150&#45;&gt;Node166</title>
<path fill="none" stroke="#191970" d="M88.9254,-226.4597C132.6312,-203.0793 251.0745,-143.0815 358,-119 448.9466,-98.5172 556.7097,-95.9641 626.8458,-97.0816"/>
<polygon fill="#191970" stroke="#191970" points="626.85,-100.5823 636.9142,-97.2715 626.982,-93.5835 626.85,-100.5823"/>
</g>
<!-- Node172 -->
<g id="node23" class="node">
<title>Node172</title>
<g id="a_node23"><a xlink:href="class_cleaner.html#afcc9a3a0759ebdaaa6fa07c0d1702a99" target="_top" xlink:title="Method to clean an alignment. It carries out strict and strictplus. It removes sequences that overpas...">
<polygon fill="#ffffff" stroke="#000000" points="649.5,-38.5 649.5,-57.5 752.5,-57.5 752.5,-38.5 649.5,-38.5"/>
<text text-anchor="middle" x="701" y="-45.5" font-family="Helvetica,sans-Serif" font-size="10.00" fill="#000000">Cleaner::cleanStrict</text>
</a>
</g>
</g>
<!-- Node150&#45;&gt;Node172 -->
<g id="edge29" class="edge">
<title>Node150&#45;&gt;Node172</title>
<path fill="none" stroke="#191970" d="M77.3697,-226.4773C91.6456,-204.2424 130.5904,-148.9102 179,-124 330.3548,-46.117 537.0951,-41.2643 639.0119,-44.4507"/>
<polygon fill="#191970" stroke="#191970" points="639.0187,-47.953 649.135,-44.8048 639.2635,-40.9573 639.0187,-47.953"/>
</g>
<!-- Node174 -->
<g id="node25" class="node">
<title>Node174</title>
<g id="a_node25"><a xlink:href="classstatistics_1_1_similarity.html#a1b65c85328f09fa0637365d11fb386b4" target="_top" xlink:title="This methods returns a pointer to conservationWindow&#39;s vector.">
<polygon fill="#ffffff" stroke="#000000" points="186,-290 186,-320 315,-320 315,-290 186,-290"/>
<text text-anchor="start" x="194" y="-308" font-family="Helvetica,sans-Serif" font-size="10.00" fill="#000000">statistics::Similarity</text>
<text text-anchor="middle" x="250.5" y="-297" font-family="Helvetica,sans-Serif" font-size="10.00" fill="#000000">::getMdkWindowedVector</text>
</a>
</g>
</g>
<!-- Node150&#45;&gt;Node174 -->
<g id="edge34" class="edge">
<title>Node150&#45;&gt;Node174</title>
<path fill="none" stroke="#191970" d="M96.3892,-245.5942C123.6096,-256.0869 167.9033,-273.1611 202.035,-286.318"/>
<polygon fill="#191970" stroke="#191970" points="200.7801,-289.5852 211.3698,-289.9163 203.2979,-283.0537 200.7801,-289.5852"/>
</g>
<!-- Node175 -->
<g id="node26" class="node">
<title>Node175</title>
<g id="a_node26"><a xlink:href="namespaceutils.html#a73f038c379c13d23e3220afaa14f9983" target="_top" xlink:title="Quicksort sorting method.">
<polygon fill="#ffffff" stroke="#000000" points="210.5,-.5 210.5,-19.5 290.5,-19.5 290.5,-.5 210.5,-.5"/>
<text text-anchor="middle" x="250.5" y="-7.5" font-family="Helvetica,sans-Serif" font-size="10.00" fill="#000000">utils::quicksort</text>
</a>
</g>
</g>
<!-- Node150&#45;&gt;Node175 -->
<g id="edge38" class="edge">
<title>Node150&#45;&gt;Node175</title>
<path fill="none" stroke="#191970" d="M73.8739,-226.3638C82.3007,-194.1613 113.8275,-89.2059 179,-34 185.3217,-28.645 192.8863,-24.471 200.6933,-21.2213"/>
<polygon fill="#191970" stroke="#191970" points="202.0923,-24.436 210.2689,-17.6985 199.6754,-17.8665 202.0923,-24.436"/>
</g>
<!-- Node152 -->
<g id="node3" class="node">
<title>Node152</title>
<g id="a_node3"><a xlink:href="namespaceutils.html#a40640e1942f00797e9fe8284e8fbdb14" target="_top" xlink:title="Maximum of two numbers method.">
<polygon fill="#ffffff" stroke="#000000" points="380.5,-464.5 380.5,-483.5 439.5,-483.5 439.5,-464.5 380.5,-464.5"/>
<text text-anchor="middle" x="410" y="-471.5" font-family="Helvetica,sans-Serif" font-size="10.00" fill="#000000">utils::max</text>
</a>
</g>
</g>
<!-- Node151&#45;&gt;Node152 -->
<g id="edge2" class="edge">
<title>Node151&#45;&gt;Node152</title>
<path fill="none" stroke="#191970" d="M313.0808,-454.5554C332.3059,-458.4125 352.9284,-462.5499 370.1872,-466.0125"/>
<polygon fill="#191970" stroke="#191970" points="369.963,-469.5372 380.4561,-468.0727 371.34,-462.6739 369.963,-469.5372"/>
</g>
<!-- Node151&#45;&gt;Node153 -->
<g id="edge3" class="edge">
<title>Node151&#45;&gt;Node153</title>
<path fill="none" stroke="#191970" d="M313.202,-440.0104C373.6961,-438.2639 467.8555,-436 549.5,-436 549.5,-436 549.5,-436 701,-436 810.1832,-436 937.3215,-417.7046 1004.9306,-406.5031"/>
<polygon fill="#191970" stroke="#191970" points="1005.5783,-409.9434 1014.8616,-404.8375 1004.4204,-403.0398 1005.5783,-409.9434"/>
</g>
<!-- Node155 -->
<g id="node6" class="node">
<title>Node155</title>
<g id="a_node6"><a xlink:href="classstatistics_1_1_manager.html#a1969a416d3020d25daa56de6c5e305db" target="_top" xlink:title="Method to handle gap stat calculation It checks if the gaps submodule has been created,...">
<polygon fill="#ffffff" stroke="#000000" points="649.5,-134 649.5,-164 752.5,-164 752.5,-134 649.5,-134"/>
<text text-anchor="start" x="657.5" y="-152" font-family="Helvetica,sans-Serif" font-size="10.00" fill="#000000">statistics::Manager</text>
<text text-anchor="middle" x="701" y="-141" font-family="Helvetica,sans-Serif" font-size="10.00" fill="#000000">::calculateGapStats</text>
</a>
</g>
</g>
<!-- Node154&#45;&gt;Node155 -->
<g id="edge5" class="edge">
<title>Node154&#45;&gt;Node155</title>
<path fill="none" stroke="#191970" d="M262.035,-220.9055C279.8242,-199.0195 316.2937,-159.41 358,-144 451.3119,-109.5224 568.8812,-122.1654 639.3271,-135.1166"/>
<polygon fill="#191970" stroke="#191970" points="638.8929,-138.5966 649.3704,-137.0241 640.1991,-131.7196 638.8929,-138.5966"/>
</g>
<!-- Node160 -->
<g id="node11" class="node">
<title>Node160</title>
<g id="a_node11"><a xlink:href="classstatistics_1_1_similarity.html#a95126bfd6b0ed22c828a6ab780096a12" target="_top" xlink:title="Stores a valid similarity matrix point to use.">
<polygon fill="#ffffff" stroke="#000000" points="358,-202 358,-232 462,-232 462,-202 358,-202"/>
<text text-anchor="start" x="366" y="-220" font-family="Helvetica,sans-Serif" font-size="10.00" fill="#000000">statistics::Similarity</text>
<text text-anchor="middle" x="410" y="-209" font-family="Helvetica,sans-Serif" font-size="10.00" fill="#000000">::setSimilarityMatrix</text>
</a>
</g>
</g>
<!-- Node154&#45;&gt;Node160 -->
<g id="edge11" class="edge">
<title>Node154&#45;&gt;Node160</title>
<path fill="none" stroke="#191970" d="M322.3178,-227.4449C330.7828,-226.4365 339.3683,-225.4138 347.6875,-224.4228"/>
<polygon fill="#191970" stroke="#191970" points="348.1613,-227.8912 357.6771,-223.2328 347.3333,-220.9403 348.1613,-227.8912"/>
</g>
<!-- Node161 -->
<g id="node12" class="node">
<title>Node161</title>
<g id="a_node12"><a xlink:href="classstatistics_1_1_similarity.html#adcb5627b9704850e85433fc40c19db17" target="_top" xlink:title="Allows us compute the conservationWindow&#39;s values.">
<polygon fill="#ffffff" stroke="#000000" points="358.5,-339 358.5,-369 461.5,-369 461.5,-339 358.5,-339"/>
<text text-anchor="start" x="366.5" y="-357" font-family="Helvetica,sans-Serif" font-size="10.00" fill="#000000">statistics::Similarity</text>
<text text-anchor="middle" x="410" y="-346" font-family="Helvetica,sans-Serif" font-size="10.00" fill="#000000">::applyWindow</text>
</a>
</g>
</g>
<!-- Node154&#45;&gt;Node161 -->
<g id="edge12" class="edge">
<title>Node154&#45;&gt;Node161</title>
<path fill="none" stroke="#191970" d="M279.7362,-251.0538C293.4231,-258.9056 309.4374,-269.3097 322,-281 341.783,-299.4094 337.0688,-312.9074 358,-330 359.5306,-331.2499 361.137,-332.4504 362.7982,-333.6017"/>
<polygon fill="#191970" stroke="#191970" points="361.115,-336.6757 371.4633,-338.9478 364.7905,-330.7183 361.115,-336.6757"/>
</g>
<!-- Node162 -->
<g id="node13" class="node">
<title>Node162</title>
<g id="a_node13"><a xlink:href="classstatistics_1_1_similarity.html#ae69ec0e79912ae23c8cfe97358c4794d" target="_top" xlink:title="Method to calculate the similarity values of a alignment matrix.">
<polygon fill="#ffffff" stroke="#000000" points="498,-234 498,-264 601,-264 601,-234 498,-234"/>
<text text-anchor="start" x="506" y="-252" font-family="Helvetica,sans-Serif" font-size="10.00" fill="#000000">statistics::Similarity</text>
<text text-anchor="middle" x="549.5" y="-241" font-family="Helvetica,sans-Serif" font-size="10.00" fill="#000000">::calculateVectors</text>
</a>
</g>
</g>
<!-- Node154&#45;&gt;Node162 -->
<g id="edge27" class="edge">
<title>Node154&#45;&gt;Node162</title>
<path fill="none" stroke="#191970" d="M322.1929,-240.1936C334.1484,-240.8378 346.4231,-241.4654 358,-242 401.2877,-243.999 450.1013,-245.776 487.6113,-247.0394"/>
<polygon fill="#191970" stroke="#191970" points="487.7661,-250.5464 497.8772,-247.3818 487.9995,-243.5503 487.7661,-250.5464"/>
</g>
<!-- Node170 -->
<g id="node21" class="node">
<title>Node170</title>
<g id="a_node21"><a xlink:href="classstatistics_1_1_similarity.html#a88b1061ad8e64c1a63a4aa00db7424e3" target="_top" xlink:title="Returns if a similarity matrix is being used or not.">
<polygon fill="#ffffff" stroke="#000000" points="358.5,-153 358.5,-183 461.5,-183 461.5,-153 358.5,-153"/>
<text text-anchor="start" x="366.5" y="-171" font-family="Helvetica,sans-Serif" font-size="10.00" fill="#000000">statistics::Similarity</text>
<text text-anchor="middle" x="410" y="-160" font-family="Helvetica,sans-Serif" font-size="10.00" fill="#000000">::isSimMatrixDef</text>
</a>
</g>
</g>
<!-- Node154&#45;&gt;Node170 -->
<g id="edge26" class="edge">
<title>Node154&#45;&gt;Node170</title>
<path fill="none" stroke="#191970" d="M285.8982,-220.9086C309.3359,-210.9164 340.2672,-197.7293 365.386,-187.0204"/>
<polygon fill="#191970" stroke="#191970" points="366.8745,-190.1907 374.7007,-183.0492 364.1292,-183.7514 366.8745,-190.1907"/>
</g>
<!-- Node171 -->
<g id="node22" class="node">
<title>Node171</title>
<g id="a_node22"><a xlink:href="classstatistics_1_1_similarity.html#a4446bf070a858952dac45f5705d16780" target="_top" xlink:title="Returns if a windows size value has been defined or not.">
<polygon fill="#ffffff" stroke="#000000" points="358.5,-290 358.5,-320 461.5,-320 461.5,-290 358.5,-290"/>
<text text-anchor="start" x="366.5" y="-308" font-family="Helvetica,sans-Serif" font-size="10.00" fill="#000000">statistics::Similarity</text>
<text text-anchor="middle" x="410" y="-297" font-family="Helvetica,sans-Serif" font-size="10.00" fill="#000000">::isDefinedWindow</text>
</a>
</g>
</g>
<!-- Node154&#45;&gt;Node171 -->
<g id="edge28" class="edge">
<title>Node154&#45;&gt;Node171</title>
<path fill="none" stroke="#191970" d="M285.503,-251.1423C309.084,-261.3435 340.3823,-274.8833 365.6978,-285.8348"/>
<polygon fill="#191970" stroke="#191970" points="364.511,-289.1348 375.0787,-289.893 367.2904,-282.7102 364.511,-289.1348"/>
</g>
<!-- Node156 -->
<g id="node7" class="node">
<title>Node156</title>
<g id="a_node7"><a xlink:href="classstatistics_1_1_gaps.html#aa3526494d5100e062daa4afba755d0b1" target="_top" xlink:title=" ">
<polygon fill="#ffffff" stroke="#000000" points="809.5,-173 809.5,-203 942.5,-203 942.5,-173 809.5,-173"/>
<text text-anchor="start" x="817.5" y="-191" font-family="Helvetica,sans-Serif" font-size="10.00" fill="#000000">statistics::Gaps::Calculate</text>
<text text-anchor="middle" x="876" y="-180" font-family="Helvetica,sans-Serif" font-size="10.00" fill="#000000">Vectors</text>
</a>
</g>
</g>
<!-- Node155&#45;&gt;Node156 -->
<g id="edge6" class="edge">
<title>Node155&#45;&gt;Node156</title>
<path fill="none" stroke="#191970" d="M752.5593,-160.4903C767.254,-163.7652 783.5856,-167.4048 799.4314,-170.9361"/>
<polygon fill="#191970" stroke="#191970" points="798.694,-174.3576 809.2159,-173.1167 800.2167,-167.5252 798.694,-174.3576"/>
</g>
<!-- Node157 -->
<g id="node8" class="node">
<title>Node157</title>
<g id="a_node8"><a xlink:href="classstatistics_1_1_gaps.html#aee36b772767467cdba2061df2305e85d" target="_top" xlink:title=" ">
<polygon fill="#ffffff" stroke="#000000" points="801,-134.5 801,-153.5 951,-153.5 951,-134.5 801,-134.5"/>
<text text-anchor="middle" x="876" y="-141.5" font-family="Helvetica,sans-Serif" font-size="10.00" fill="#000000">statistics::Gaps::applyWindow</text>
</a>
</g>
</g>
<!-- Node155&#45;&gt;Node157 -->
<g id="edge7" class="edge">
<title>Node155&#45;&gt;Node157</title>
<path fill="none" stroke="#191970" d="M752.5593,-147.5269C764.4924,-147.1859 777.5051,-146.8141 790.4604,-146.444"/>
<polygon fill="#191970" stroke="#191970" points="790.9204,-149.9324 800.8163,-146.1481 790.7204,-142.9352 790.9204,-149.9324"/>
</g>
<!-- Node157&#45;&gt;Node153 -->
<g id="edge9" class="edge">
<title>Node157&#45;&gt;Node153</title>
<path fill="none" stroke="#191970" d="M936.6298,-153.6661C941.9536,-156.3535 946.8757,-159.74 951,-164 1000.192,-214.8117 955.47,-255.6949 987,-319 999.0773,-343.2486 1019.9912,-366.4781 1035.0433,-381.3941"/>
<polygon fill="#191970" stroke="#191970" points="1032.6756,-383.9733 1042.3024,-388.3978 1037.536,-378.9357 1032.6756,-383.9733"/>
</g>
<!-- Node158 -->
<g id="node9" class="node">
<title>Node158</title>
<g id="a_node9"><a xlink:href="classreporting_1_1report_manager.html#a6d122e673144584e0869bd33b8a5c1c6" target="_top" xlink:title="Method to report an Error. &#160;It will be displayed if Level &#160;is equal or higher to VerboseLevel::ERROR.">
<polygon fill="#ffffff" stroke="#000000" points="992,-174 992,-204 1114,-204 1114,-174 992,-174"/>
<text text-anchor="start" x="1000" y="-192" font-family="Helvetica,sans-Serif" font-size="10.00" fill="#000000">reporting::reportManager</text>
<text text-anchor="middle" x="1053" y="-181" font-family="Helvetica,sans-Serif" font-size="10.00" fill="#000000">::report</text>
</a>
</g>
</g>
<!-- Node157&#45;&gt;Node158 -->
<g id="edge8" class="edge">
<title>Node157&#45;&gt;Node158</title>
<path fill="none" stroke="#191970" d="M913.5371,-153.5433C934.0508,-158.7587 960.106,-165.3829 984.1291,-171.4905"/>
<polygon fill="#191970" stroke="#191970" points="983.3691,-174.9085 993.9232,-173.9805 985.0939,-168.1243 983.3691,-174.9085"/>
</g>
<!-- Node159 -->
<g id="node10" class="node">
<title>Node159</title>
<g id="a_node10"><a xlink:href="namespaceutils.html#ad50731aeb3c8f79ed8372516210dfc9d" target="_top" xlink:title="Round double to integer method.">
<polygon fill="#ffffff" stroke="#000000" points="1015,-89.5 1015,-108.5 1091,-108.5 1091,-89.5 1015,-89.5"/>
<text text-anchor="middle" x="1053" y="-96.5" font-family="Helvetica,sans-Serif" font-size="10.00" fill="#000000">utils::roundInt</text>
</a>
</g>
</g>
<!-- Node157&#45;&gt;Node159 -->
<g id="edge10" class="edge">
<title>Node157&#45;&gt;Node159</title>
<path fill="none" stroke="#191970" d="M913.7725,-134.4425C925.6844,-131.4254 938.8929,-128.0766 951,-125 968.9151,-120.4475 988.5967,-115.4335 1005.8523,-111.0335"/>
<polygon fill="#191970" stroke="#191970" points="1006.8752,-114.3847 1015.7,-108.5219 1005.1452,-107.6018 1006.8752,-114.3847"/>
</g>
<!-- Node161&#45;&gt;Node158 -->
<g id="edge25" class="edge">
<title>Node161&#45;&gt;Node158</title>
<path fill="none" stroke="#191970" d="M461.7926,-363.8803C562.6593,-380.3984 789.6777,-404.0256 951,-319 962.6685,-312.85 1010.2155,-248.441 1036.0674,-212.6554"/>
<polygon fill="#191970" stroke="#191970" points="1039.1335,-214.387 1042.1375,-204.2269 1033.4533,-210.2961 1039.1335,-214.387"/>
</g>
<!-- Node161&#45;&gt;Node162 -->
<g id="edge13" class="edge">
<title>Node161&#45;&gt;Node162</title>
<path fill="none" stroke="#191970" d="M446.6,-338.8923C451.9164,-336.1923 457.2068,-333.2067 462,-330 487.0661,-313.2305 511.9406,-289.3146 528.7235,-271.8174"/>
<polygon fill="#191970" stroke="#191970" points="531.5197,-273.9539 535.8369,-264.2785 526.4283,-269.1499 531.5197,-273.9539"/>
</g>
<!-- Node162&#45;&gt;Node155 -->
<g id="edge17" class="edge">
<title>Node162&#45;&gt;Node155</title>
<path fill="none" stroke="#191970" d="M566.0358,-233.7882C582.9986,-218.6756 610.571,-195.4425 637,-179 642.8804,-175.3416 649.2786,-171.8381 655.6805,-168.5992"/>
<polygon fill="#191970" stroke="#191970" points="657.5469,-171.5831 665.0027,-164.0557 654.48,-165.2907 657.5469,-171.5831"/>
</g>
<!-- Node163 -->
<g id="node14" class="node">
<title>Node163</title>
<g id="a_node14"><a xlink:href="classstatistics_1_1_similarity.html#a75bd235b3207235eefa7b52dff063c76" target="_top" xlink:title="Computes the matrix identity between alignment&#39;s columns.">
<polygon fill="#ffffff" stroke="#000000" points="640.5,-222 640.5,-252 761.5,-252 761.5,-222 640.5,-222"/>
<text text-anchor="start" x="648.5" y="-240" font-family="Helvetica,sans-Serif" font-size="10.00" fill="#000000">statistics::Similarity</text>
<text text-anchor="middle" x="701" y="-229" font-family="Helvetica,sans-Serif" font-size="10.00" fill="#000000">::calculateMatrixIdentity</text>
</a>
</g>
</g>
<!-- Node162&#45;&gt;Node163 -->
<g id="edge14" class="edge">
<title>Node162&#45;&gt;Node163</title>
<path fill="none" stroke="#191970" d="M601.214,-244.9038C610.5661,-244.1631 620.4635,-243.3791 630.2492,-242.604"/>
<polygon fill="#191970" stroke="#191970" points="630.6866,-246.0804 640.379,-241.8017 630.1338,-239.1023 630.6866,-246.0804"/>
</g>
<!-- Node164 -->
<g id="node15" class="node">
<title>Node164</title>
<g id="a_node15"><a xlink:href="class_alignment.html#a1bc7622776f3935f6cb9d3c895e43a29" target="_top" xlink:title="Alignment type getter. &#160;&#160;See SequenceTypes.">
<polygon fill="#ffffff" stroke="#000000" points="803.5,-290.5 803.5,-309.5 948.5,-309.5 948.5,-290.5 803.5,-290.5"/>
<text text-anchor="middle" x="876" y="-297.5" font-family="Helvetica,sans-Serif" font-size="10.00" fill="#000000">Alignment::getAlignmentType</text>
</a>
</g>
</g>
<!-- Node162&#45;&gt;Node164 -->
<g id="edge21" class="edge">
<title>Node162&#45;&gt;Node164</title>
<path fill="none" stroke="#191970" d="M568.6491,-264.2062C585.5316,-276.576 611.3686,-293.0754 637,-300 688.4999,-313.9131 748.5519,-313.8516 795.577,-310.3427"/>
<polygon fill="#191970" stroke="#191970" points="796.0261,-313.8178 805.7095,-309.5188 795.4587,-306.8409 796.0261,-313.8178"/>
</g>
<!-- Node162&#45;&gt;Node166 -->
<g id="edge18" class="edge">
<title>Node162&#45;&gt;Node166</title>
<path fill="none" stroke="#191970" d="M556.4864,-233.8652C569.0924,-208.0983 598.0008,-155.5399 637,-125 639.2892,-123.2073 641.7228,-121.5294 644.2523,-119.9606"/>
<polygon fill="#191970" stroke="#191970" points="646.0952,-122.941 653.1527,-115.039 642.7078,-116.8152 646.0952,-122.941"/>
</g>
<!-- Node168 -->
<g id="node19" class="node">
<title>Node168</title>
<g id="a_node19"><a xlink:href="namespaceutils.html#a6286fde6f4dd58ef0cfa9d55341b72f8" target="_top" xlink:title=" ">
<polygon fill="#ffffff" stroke="#000000" points="663.5,-271.5 663.5,-290.5 738.5,-290.5 738.5,-271.5 663.5,-271.5"/>
<text text-anchor="middle" x="701" y="-278.5" font-family="Helvetica,sans-Serif" font-size="10.00" fill="#000000">utils::toUpper</text>
</a>
</g>
</g>
<!-- Node162&#45;&gt;Node168 -->
<g id="edge22" class="edge">
<title>Node162&#45;&gt;Node168</title>
<path fill="none" stroke="#191970" d="M601.214,-259.9231C618.1088,-263.4916 636.7831,-267.436 653.3634,-270.9382"/>
<polygon fill="#191970" stroke="#191970" points="652.8743,-274.412 663.3818,-273.0542 654.321,-267.5631 652.8743,-274.412"/>
</g>
<!-- Node169 -->
<g id="node20" class="node">
<title>Node169</title>
<g id="a_node20"><a xlink:href="classstatistics_1_1similarity_matrix.html#a2a17eb464ec28ba83edbcbe271e7ff62" target="_top" xlink:title="Method to get the similarity distance between two residues, A and B Characters provided must be both ...">
<polygon fill="#ffffff" stroke="#000000" points="812,-222 812,-252 940,-252 940,-222 812,-222"/>
<text text-anchor="start" x="820" y="-240" font-family="Helvetica,sans-Serif" font-size="10.00" fill="#000000">statistics::similarityMatrix</text>
<text text-anchor="middle" x="876" y="-229" font-family="Helvetica,sans-Serif" font-size="10.00" fill="#000000">::getDistance</text>
</a>
</g>
</g>
<!-- Node162&#45;&gt;Node169 -->
<g id="edge23" class="edge">
<title>Node162&#45;&gt;Node169</title>
<path fill="none" stroke="#191970" d="M578.1727,-233.8708C594.84,-225.9371 616.5344,-217.0455 637,-213 694.4811,-201.6374 760.8608,-209.9772 809.0557,-219.815"/>
<polygon fill="#191970" stroke="#191970" points="808.5462,-223.2846 819.0542,-221.9304 809.9953,-216.4362 808.5462,-223.2846"/>
</g>
<!-- Node163&#45;&gt;Node164 -->
<g id="edge15" class="edge">
<title>Node163&#45;&gt;Node164</title>
<path fill="none" stroke="#191970" d="M742.9169,-252.0901C772.4949,-262.7382 811.7144,-276.8572 839.9045,-287.0056"/>
<polygon fill="#191970" stroke="#191970" points="838.7874,-290.3233 849.3819,-290.4175 841.1585,-283.7371 838.7874,-290.3233"/>
</g>
<!-- Node165 -->
<g id="node16" class="node">
<title>Node165</title>
<g id="a_node16"><a xlink:href="namespaceutils.html#aab52f9515717f06cafd6ab7fe2ebdcef" target="_top" xlink:title="Checks an alignment type.">
<polygon fill="#ffffff" stroke="#000000" points="987,-290.5 987,-309.5 1119,-309.5 1119,-290.5 987,-290.5"/>
<text text-anchor="middle" x="1053" y="-297.5" font-family="Helvetica,sans-Serif" font-size="10.00" fill="#000000">utils::checkAlignmentType</text>
</a>
</g>
</g>
<!-- Node164&#45;&gt;Node165 -->
<g id="edge16" class="edge">
<title>Node164&#45;&gt;Node165</title>
<path fill="none" stroke="#191970" d="M948.5034,-300C957.8282,-300 967.3981,-300 976.7802,-300"/>
<polygon fill="#191970" stroke="#191970" points="976.8666,-303.5001 986.8666,-300 976.8665,-296.5001 976.8666,-303.5001"/>
</g>
<!-- Node166&#45;&gt;Node157 -->
<g id="edge20" class="edge">
<title>Node166&#45;&gt;Node157</title>
<path fill="none" stroke="#191970" d="M760.7356,-115.0192C782.7744,-120.5604 807.4348,-126.7607 828.2724,-131.9999"/>
<polygon fill="#191970" stroke="#191970" points="827.6149,-135.4435 838.1665,-134.4876 829.3218,-128.6548 827.6149,-135.4435"/>
</g>
<!-- Node167 -->
<g id="node18" class="node">
<title>Node167</title>
<g id="a_node18"><a xlink:href="classstatistics_1_1_gaps.html#ad812a924cf5e3f900aad3ed4a9664300" target="_top" xlink:title=" ">
<polygon fill="#ffffff" stroke="#000000" points="809.5,-85 809.5,-115 942.5,-115 942.5,-85 809.5,-85"/>
<text text-anchor="start" x="817.5" y="-103" font-family="Helvetica,sans-Serif" font-size="10.00" fill="#000000">statistics::Gaps::isDefined</text>
<text text-anchor="middle" x="876" y="-92" font-family="Helvetica,sans-Serif" font-size="10.00" fill="#000000">Window</text>
</a>
</g>
</g>
<!-- Node166&#45;&gt;Node167 -->
<g id="edge19" class="edge">
<title>Node166&#45;&gt;Node167</title>
<path fill="none" stroke="#191970" d="M765.1698,-100C776.2233,-100 787.8127,-100 799.1593,-100"/>
<polygon fill="#191970" stroke="#191970" points="799.4891,-103.5001 809.4891,-100 799.489,-96.5001 799.4891,-103.5001"/>
</g>
<!-- Node169&#45;&gt;Node158 -->
<g id="edge24" class="edge">
<title>Node169&#45;&gt;Node158</title>
<path fill="none" stroke="#191970" d="M931.5183,-221.9442C949.3934,-217.0967 969.3634,-211.6811 987.8657,-206.6635"/>
<polygon fill="#191970" stroke="#191970" points="988.9434,-209.9978 997.6787,-204.0024 987.1112,-203.2418 988.9434,-209.9978"/>
</g>
<!-- Node172&#45;&gt;Node159 -->
<g id="edge30" class="edge">
<title>Node172&#45;&gt;Node159</title>
<path fill="none" stroke="#191970" d="M729.5457,-38.4094C776.8279,-24.0688 873.8363,-1.2323 951,-26 985.317,-37.0149 1017.8952,-64.2999 1036.6391,-82.2132"/>
<polygon fill="#191970" stroke="#191970" points="1034.4291,-84.9488 1044.0123,-89.467 1039.3383,-79.9588 1034.4291,-84.9488"/>
</g>
<!-- Node173 -->
<g id="node24" class="node">
<title>Node173</title>
<g id="a_node24"><a xlink:href="class_cleaner.html#ada8ad076dd037f00ae3f4fd17762641f" target="_top" xlink:title="Method that identifies and removes columns and sequences composed only by gaps.">
<polygon fill="#ffffff" stroke="#000000" points="803,-36 803,-66 949,-66 949,-36 803,-36"/>
<text text-anchor="start" x="811" y="-54" font-family="Helvetica,sans-Serif" font-size="10.00" fill="#000000">Cleaner::removeAllGapsSeqs</text>
<text text-anchor="middle" x="876" y="-43" font-family="Helvetica,sans-Serif" font-size="10.00" fill="#000000">AndCols</text>
</a>
</g>
</g>
<!-- Node172&#45;&gt;Node173 -->
<g id="edge31" class="edge">
<title>Node172&#45;&gt;Node173</title>
<path fill="none" stroke="#191970" d="M752.5593,-48.8839C765.0926,-49.0987 778.8168,-49.334 792.4146,-49.5671"/>
<polygon fill="#191970" stroke="#191970" points="792.708,-53.0726 802.7666,-49.7446 792.8281,-46.0736 792.708,-53.0726"/>
</g>
<!-- Node173&#45;&gt;Node158 -->
<g id="edge32" class="edge">
<title>Node173&#45;&gt;Node158</title>
<path fill="none" stroke="#191970" d="M932.4718,-66.0729C938.9737,-68.8836 945.3051,-72.1708 951,-76 971.4022,-89.7184 970.6272,-99.6594 987,-118 1001.6155,-134.3721 1018.467,-152.488 1031.4838,-166.3227"/>
<polygon fill="#191970" stroke="#191970" points="1029.2508,-169.0561 1038.659,-173.9281 1034.3425,-164.2524 1029.2508,-169.0561"/>
</g>
<!-- Node174&#45;&gt;Node161 -->
<g id="edge36" class="edge">
<title>Node174&#45;&gt;Node161</title>
<path fill="none" stroke="#191970" d="M299.6567,-320.1014C315.9546,-325.1083 334.2617,-330.7324 351.2095,-335.939"/>
<polygon fill="#191970" stroke="#191970" points="350.4186,-339.3574 361.0056,-338.9484 352.4743,-332.666 350.4186,-339.3574"/>
</g>
<!-- Node174&#45;&gt;Node171 -->
<g id="edge35" class="edge">
<title>Node174&#45;&gt;Node171</title>
<path fill="none" stroke="#191970" d="M315.3748,-305C326.2244,-305 337.4548,-305 348.2239,-305"/>
<polygon fill="#191970" stroke="#191970" points="348.3802,-308.5001 358.3801,-305 348.3801,-301.5001 348.3802,-308.5001"/>
</g>
<!-- Node176 -->
<g id="node27" class="node">
<title>Node176</title>
<g id="a_node27"><a xlink:href="namespaceutils.html#a3377ecde55631d1bbc4956e5923b7469" target="_top" xlink:title="Swapping elements method.">
<polygon fill="#ffffff" stroke="#000000" points="378,-.5 378,-19.5 442,-19.5 442,-.5 378,-.5"/>
<text text-anchor="middle" x="410" y="-7.5" font-family="Helvetica,sans-Serif" font-size="10.00" fill="#000000">utils::swap</text>
</a>
</g>
</g>
<!-- Node175&#45;&gt;Node176 -->
<g id="edge39" class="edge">
<title>Node175&#45;&gt;Node176</title>
<path fill="none" stroke="#191970" d="M290.7486,-10C314.2225,-10 343.8049,-10 367.6329,-10"/>
<polygon fill="#191970" stroke="#191970" points="367.7948,-13.5001 377.7948,-10 367.7948,-6.5001 367.7948,-13.5001"/>
</g>
</g>
</svg>
