<?xml version="1.0" encoding="UTF-8" standalone="no"?>
<!DOCTYPE svg PUBLIC "-//W3C//DTD SVG 1.1//EN"
 "http://www.w3.org/Graphics/SVG/1.1/DTD/svg11.dtd">
<!-- Generated by graphviz version 2.40.1 (20161225.0304)
 -->
<!-- Title: statistics::Similarity::getMdkWindowedVector Pages: 1 -->
<svg width="933pt" height="280pt"
 viewBox="0.00 0.00 933.00 279.50" xmlns="http://www.w3.org/2000/svg" xmlns:xlink="http://www.w3.org/1999/xlink">
<g id="graph0" class="graph" transform="scale(1 1) rotate(0) translate(4 275.5)">
<title>statistics::Similarity::getMdkWindowedVector</title>
<polygon fill="#ffffff" stroke="transparent" points="-4,4 -4,-275.5 929,-275.5 929,4 -4,4"/>
<!-- Node128 -->
<g id="node1" class="node">
<title>Node128</title>
<g id="a_node1"><a xlink:title="This methods returns a pointer to conservationWindow&#39;s vector.">
<polygon fill="#bfbfbf" stroke="#000000" points="0,-24.5 0,-54.5 129,-54.5 129,-24.5 0,-24.5"/>
<text text-anchor="start" x="8" y="-42.5" font-family="Helvetica,sans-Serif" font-size="10.00" fill="#000000">statistics::Similarity</text>
<text text-anchor="middle" x="64.5" y="-31.5" font-family="Helvetica,sans-Serif" font-size="10.00" fill="#000000">::getMdkWindowedVector</text>
</a>
</g>
</g>
<!-- Node129 -->
<g id="node2" class="node">
<title>Node129</title>
<g id="a_node2"><a xlink:href="classstatistics_1_1_similarity.html#adcb5627b9704850e85433fc40c19db17" target="_top" xlink:title="Allows us compute the conservationWindow&#39;s values.">
<polygon fill="#ffffff" stroke="#000000" points="165,-49.5 165,-79.5 268,-79.5 268,-49.5 165,-49.5"/>
<text text-anchor="start" x="173" y="-67.5" font-family="Helvetica,sans-Serif" font-size="10.00" fill="#000000">statistics::Similarity</text>
<text text-anchor="middle" x="216.5" y="-56.5" font-family="Helvetica,sans-Serif" font-size="10.00" fill="#000000">::applyWindow</text>
</a>
</g>
</g>
<!-- Node128&#45;&gt;Node129 -->
<g id="edge1" class="edge">
<title>Node128&#45;&gt;Node129</title>
<path fill="none" stroke="#191970" d="M129.4026,-50.1748C137.7779,-51.5523 146.337,-52.96 154.6612,-54.3291"/>
<polygon fill="#191970" stroke="#191970" points="154.2346,-57.8059 164.6701,-55.9753 155.3707,-50.8987 154.2346,-57.8059"/>
</g>
<!-- Node144 -->
<g id="node17" class="node">
<title>Node144</title>
<g id="a_node17"><a xlink:href="classstatistics_1_1_similarity.html#a4446bf070a858952dac45f5705d16780" target="_top" xlink:title="Returns if a windows size value has been defined or not.">
<polygon fill="#ffffff" stroke="#000000" points="165,-.5 165,-30.5 268,-30.5 268,-.5 165,-.5"/>
<text text-anchor="start" x="173" y="-18.5" font-family="Helvetica,sans-Serif" font-size="10.00" fill="#000000">statistics::Similarity</text>
<text text-anchor="middle" x="216.5" y="-7.5" font-family="Helvetica,sans-Serif" font-size="10.00" fill="#000000">::isDefinedWindow</text>
</a>
</g>
</g>
<!-- Node128&#45;&gt;Node144 -->
<g id="edge20" class="edge">
<title>Node128&#45;&gt;Node144</title>
<path fill="none" stroke="#191970" d="M129.4026,-29.2522C137.7779,-27.9298 146.337,-26.5784 154.6612,-25.264"/>
<polygon fill="#191970" stroke="#191970" points="155.3384,-28.7005 164.6701,-23.6837 154.2466,-21.7862 155.3384,-28.7005"/>
</g>
<!-- Node130 -->
<g id="node3" class="node">
<title>Node130</title>
<g id="a_node3"><a xlink:href="classstatistics_1_1_similarity.html#ae69ec0e79912ae23c8cfe97358c4794d" target="_top" xlink:title="Method to calculate the similarity values of a alignment matrix.">
<polygon fill="#ffffff" stroke="#000000" points="304,-115.5 304,-145.5 407,-145.5 407,-115.5 304,-115.5"/>
<text text-anchor="start" x="312" y="-133.5" font-family="Helvetica,sans-Serif" font-size="10.00" fill="#000000">statistics::Similarity</text>
<text text-anchor="middle" x="355.5" y="-122.5" font-family="Helvetica,sans-Serif" font-size="10.00" fill="#000000">::calculateVectors</text>
</a>
</g>
</g>
<!-- Node129&#45;&gt;Node130 -->
<g id="edge2" class="edge">
<title>Node129&#45;&gt;Node130</title>
<path fill="none" stroke="#191970" d="M248.3894,-79.6417C268.0785,-88.9905 293.5305,-101.0756 314.6833,-111.1194"/>
<polygon fill="#191970" stroke="#191970" points="313.2243,-114.3011 323.759,-115.4287 316.2268,-107.9777 313.2243,-114.3011"/>
</g>
<!-- Node134 -->
<g id="node7" class="node">
<title>Node134</title>
<g id="a_node7"><a xlink:href="classreporting_1_1report_manager.html#a6d122e673144584e0869bd33b8a5c1c6" target="_top" xlink:title="Method to report an Error. &#160;It will be displayed if Level &#160;is equal or higher to VerboseLevel::ERROR.">
<polygon fill="#ffffff" stroke="#000000" points="798,-22.5 798,-52.5 920,-52.5 920,-22.5 798,-22.5"/>
<text text-anchor="start" x="806" y="-40.5" font-family="Helvetica,sans-Serif" font-size="10.00" fill="#000000">reporting::reportManager</text>
<text text-anchor="middle" x="859" y="-29.5" font-family="Helvetica,sans-Serif" font-size="10.00" fill="#000000">::report</text>
</a>
</g>
</g>
<!-- Node129&#45;&gt;Node134 -->
<g id="edge19" class="edge">
<title>Node129&#45;&gt;Node134</title>
<path fill="none" stroke="#191970" d="M268.3209,-53.9818C364.6142,-35.7954 577.6514,-1.9384 757,-18.5 766.9548,-19.4193 777.3874,-20.8329 787.6227,-22.4835"/>
<polygon fill="#191970" stroke="#191970" points="787.3228,-25.9825 797.7672,-24.2034 788.493,-19.081 787.3228,-25.9825"/>
</g>
<!-- Node131 -->
<g id="node4" class="node">
<title>Node131</title>
<g id="a_node4"><a xlink:href="classstatistics_1_1_manager.html#a1969a416d3020d25daa56de6c5e305db" target="_top" xlink:title="Method to handle gap stat calculation It checks if the gaps submodule has been created,...">
<polygon fill="#ffffff" stroke="#000000" points="455.5,-115.5 455.5,-145.5 558.5,-145.5 558.5,-115.5 455.5,-115.5"/>
<text text-anchor="start" x="463.5" y="-133.5" font-family="Helvetica,sans-Serif" font-size="10.00" fill="#000000">statistics::Manager</text>
<text text-anchor="middle" x="507" y="-122.5" font-family="Helvetica,sans-Serif" font-size="10.00" fill="#000000">::calculateGapStats</text>
</a>
</g>
</g>
<!-- Node130&#45;&gt;Node131 -->
<g id="edge3" class="edge">
<title>Node130&#45;&gt;Node131</title>
<path fill="none" stroke="#191970" d="M407.214,-130.5C419.3352,-130.5 432.3726,-130.5 444.8953,-130.5"/>
<polygon fill="#191970" stroke="#191970" points="445.2621,-134.0001 455.262,-130.5 445.262,-127.0001 445.2621,-134.0001"/>
</g>
<!-- Node137 -->
<g id="node10" class="node">
<title>Node137</title>
<g id="a_node10"><a xlink:href="classstatistics_1_1_similarity.html#a75bd235b3207235eefa7b52dff063c76" target="_top" xlink:title="Computes the matrix identity between alignment&#39;s columns.">
<polygon fill="#ffffff" stroke="#000000" points="446.5,-164.5 446.5,-194.5 567.5,-194.5 567.5,-164.5 446.5,-164.5"/>
<text text-anchor="start" x="454.5" y="-182.5" font-family="Helvetica,sans-Serif" font-size="10.00" fill="#000000">statistics::Similarity</text>
<text text-anchor="middle" x="507" y="-171.5" font-family="Helvetica,sans-Serif" font-size="10.00" fill="#000000">::calculateMatrixIdentity</text>
</a>
</g>
</g>
<!-- Node130&#45;&gt;Node137 -->
<g id="edge9" class="edge">
<title>Node130&#45;&gt;Node137</title>
<path fill="none" stroke="#191970" d="M402.1912,-145.6014C417.5269,-150.5615 434.7356,-156.1274 450.7066,-161.2929"/>
<polygon fill="#191970" stroke="#191970" points="449.8712,-164.7011 460.463,-164.4484 452.0254,-158.0408 449.8712,-164.7011"/>
</g>
<!-- Node138 -->
<g id="node11" class="node">
<title>Node138</title>
<g id="a_node11"><a xlink:href="class_alignment.html#a1bc7622776f3935f6cb9d3c895e43a29" target="_top" xlink:title="Alignment type getter. &#160;&#160;See SequenceTypes.">
<polygon fill="#ffffff" stroke="#000000" points="609.5,-209 609.5,-228 754.5,-228 754.5,-209 609.5,-209"/>
<text text-anchor="middle" x="682" y="-216" font-family="Helvetica,sans-Serif" font-size="10.00" fill="#000000">Alignment::getAlignmentType</text>
</a>
</g>
</g>
<!-- Node130&#45;&gt;Node138 -->
<g id="edge12" class="edge">
<title>Node130&#45;&gt;Node138</title>
<path fill="none" stroke="#191970" d="M367.8568,-145.6926C383.3135,-163.4334 411.5941,-191.9468 443,-204.5 492.2609,-224.1901 551.811,-227.7263 599.1454,-226.322"/>
<polygon fill="#191970" stroke="#191970" points="599.4975,-229.8113 609.3587,-225.9375 599.2341,-222.8162 599.4975,-229.8113"/>
</g>
<!-- Node140 -->
<g id="node13" class="node">
<title>Node140</title>
<g id="a_node13"><a xlink:href="classsimilarity_matrix.html#aef258a851d1a443a39597060420d8908" target="_top" xlink:title="Method to get the similarity distance between two residues, A and B Characters provided must be both ...">
<polygon fill="#ffffff" stroke="#000000" points="611.5,-28 611.5,-47 752.5,-47 752.5,-28 611.5,-28"/>
<text text-anchor="middle" x="682" y="-35" font-family="Helvetica,sans-Serif" font-size="10.00" fill="#000000">similarityMatrix::getDistance</text>
</a>
</g>
</g>
<!-- Node130&#45;&gt;Node140 -->
<g id="edge13" class="edge">
<title>Node130&#45;&gt;Node140</title>
<path fill="none" stroke="#191970" d="M367.9016,-115.4179C383.4025,-97.7858 411.7265,-69.3795 443,-56.5 492.841,-35.9738 553.4144,-31.3522 601.1087,-31.7968"/>
<polygon fill="#191970" stroke="#191970" points="601.3317,-35.301 611.39,-31.9722 601.4512,-28.3021 601.3317,-35.301"/>
</g>
<!-- Node141 -->
<g id="node14" class="node">
<title>Node141</title>
<g id="a_node14"><a xlink:href="classstatistics_1_1_gaps.html#ab5b60db326475f8adc68b130e22b3963" target="_top" xlink:title=" ">
<polygon fill="#ffffff" stroke="#000000" points="443,-66.5 443,-96.5 571,-96.5 571,-66.5 443,-66.5"/>
<text text-anchor="start" x="451" y="-84.5" font-family="Helvetica,sans-Serif" font-size="10.00" fill="#000000">statistics::Gaps::getGaps</text>
<text text-anchor="middle" x="507" y="-73.5" font-family="Helvetica,sans-Serif" font-size="10.00" fill="#000000">Window</text>
</a>
</g>
</g>
<!-- Node130&#45;&gt;Node141 -->
<g id="edge15" class="edge">
<title>Node130&#45;&gt;Node141</title>
<path fill="none" stroke="#191970" d="M402.1912,-115.3986C417.5269,-110.4385 434.7356,-104.8726 450.7066,-99.7071"/>
<polygon fill="#191970" stroke="#191970" points="452.0254,-102.9592 460.463,-96.5516 449.8712,-96.2989 452.0254,-102.9592"/>
</g>
<!-- Node143 -->
<g id="node16" class="node">
<title>Node143</title>
<g id="a_node16"><a xlink:href="namespaceutils.html#a6286fde6f4dd58ef0cfa9d55341b72f8" target="_top" xlink:title=" ">
<polygon fill="#ffffff" stroke="#000000" points="469.5,-252 469.5,-271 544.5,-271 544.5,-252 469.5,-252"/>
<text text-anchor="middle" x="507" y="-259" font-family="Helvetica,sans-Serif" font-size="10.00" fill="#000000">utils::toUpper</text>
</a>
</g>
</g>
<!-- Node130&#45;&gt;Node143 -->
<g id="edge18" class="edge">
<title>Node130&#45;&gt;Node143</title>
<path fill="none" stroke="#191970" d="M364.3097,-145.7737C378.255,-168.7061 407.5065,-212.0511 443,-237.5 448.702,-241.5883 455.1839,-245.0684 461.7815,-248.003"/>
<polygon fill="#191970" stroke="#191970" points="460.8704,-251.4101 471.4529,-251.9198 463.498,-244.922 460.8704,-251.4101"/>
</g>
<!-- Node132 -->
<g id="node5" class="node">
<title>Node132</title>
<g id="a_node5"><a xlink:href="classstatistics_1_1_gaps.html#aee36b772767467cdba2061df2305e85d" target="_top" xlink:title=" ">
<polygon fill="#ffffff" stroke="#000000" points="607,-116 607,-135 757,-135 757,-116 607,-116"/>
<text text-anchor="middle" x="682" y="-123" font-family="Helvetica,sans-Serif" font-size="10.00" fill="#000000">statistics::Gaps::applyWindow</text>
</a>
</g>
</g>
<!-- Node131&#45;&gt;Node132 -->
<g id="edge4" class="edge">
<title>Node131&#45;&gt;Node132</title>
<path fill="none" stroke="#191970" d="M558.5593,-129.0269C570.4924,-128.6859 583.5051,-128.3141 596.4604,-127.944"/>
<polygon fill="#191970" stroke="#191970" points="596.9204,-131.4324 606.8163,-127.6481 596.7204,-124.4352 596.9204,-131.4324"/>
</g>
<!-- Node136 -->
<g id="node9" class="node">
<title>Node136</title>
<g id="a_node9"><a xlink:href="classstatistics_1_1_gaps.html#aa3526494d5100e062daa4afba755d0b1" target="_top" xlink:title=" ">
<polygon fill="#ffffff" stroke="#000000" points="615.5,-154.5 615.5,-184.5 748.5,-184.5 748.5,-154.5 615.5,-154.5"/>
<text text-anchor="start" x="623.5" y="-172.5" font-family="Helvetica,sans-Serif" font-size="10.00" fill="#000000">statistics::Gaps::Calculate</text>
<text text-anchor="middle" x="682" y="-161.5" font-family="Helvetica,sans-Serif" font-size="10.00" fill="#000000">Vectors</text>
</a>
</g>
</g>
<!-- Node131&#45;&gt;Node136 -->
<g id="edge8" class="edge">
<title>Node131&#45;&gt;Node136</title>
<path fill="none" stroke="#191970" d="M558.5593,-141.9903C573.254,-145.2652 589.5856,-148.9048 605.4314,-152.4361"/>
<polygon fill="#191970" stroke="#191970" points="604.694,-155.8576 615.2159,-154.6167 606.2167,-149.0252 604.694,-155.8576"/>
</g>
<!-- Node133 -->
<g id="node6" class="node">
<title>Node133</title>
<g id="a_node6"><a xlink:href="namespaceutils.html#aac322cd1761fddedec8a5792e358eb32" target="_top" xlink:title="Vector initialization.">
<polygon fill="#ffffff" stroke="#000000" points="821,-97 821,-116 897,-116 897,-97 821,-97"/>
<text text-anchor="middle" x="859" y="-104" font-family="Helvetica,sans-Serif" font-size="10.00" fill="#000000">utils::initlVect</text>
</a>
</g>
</g>
<!-- Node132&#45;&gt;Node133 -->
<g id="edge5" class="edge">
<title>Node132&#45;&gt;Node133</title>
<path fill="none" stroke="#191970" d="M757.0639,-117.4423C775.3223,-115.4824 794.3618,-113.4386 810.9757,-111.6551"/>
<polygon fill="#191970" stroke="#191970" points="811.4088,-115.1289 820.9781,-110.5814 810.6616,-108.1688 811.4088,-115.1289"/>
</g>
<!-- Node132&#45;&gt;Node134 -->
<g id="edge6" class="edge">
<title>Node132&#45;&gt;Node134</title>
<path fill="none" stroke="#191970" d="M727.2514,-115.995C737.2647,-113.1919 747.6665,-109.7163 757,-105.5 784.4932,-93.0801 812.8126,-73.5658 832.6139,-58.6214"/>
<polygon fill="#191970" stroke="#191970" points="834.7488,-61.395 840.5515,-52.5305 830.4873,-55.8416 834.7488,-61.395"/>
</g>
<!-- Node135 -->
<g id="node8" class="node">
<title>Node135</title>
<g id="a_node8"><a xlink:href="namespaceutils.html#ad50731aeb3c8f79ed8372516210dfc9d" target="_top" xlink:title="Round double to integer method.">
<polygon fill="#ffffff" stroke="#000000" points="821,-135 821,-154 897,-154 897,-135 821,-135"/>
<text text-anchor="middle" x="859" y="-142" font-family="Helvetica,sans-Serif" font-size="10.00" fill="#000000">utils::roundInt</text>
</a>
</g>
</g>
<!-- Node132&#45;&gt;Node135 -->
<g id="edge7" class="edge">
<title>Node132&#45;&gt;Node135</title>
<path fill="none" stroke="#191970" d="M757.0639,-133.5577C775.3223,-135.5176 794.3618,-137.5614 810.9757,-139.3449"/>
<polygon fill="#191970" stroke="#191970" points="810.6616,-142.8312 820.9781,-140.4186 811.4088,-135.8711 810.6616,-142.8312"/>
</g>
<!-- Node137&#45;&gt;Node138 -->
<g id="edge10" class="edge">
<title>Node137&#45;&gt;Node138</title>
<path fill="none" stroke="#191970" d="M567.7154,-193.0309C587.807,-197.5084 609.9838,-202.4507 629.4134,-206.7807"/>
<polygon fill="#191970" stroke="#191970" points="628.7758,-210.2244 639.2977,-208.9835 630.2985,-203.392 628.7758,-210.2244"/>
</g>
<!-- Node139 -->
<g id="node12" class="node">
<title>Node139</title>
<g id="a_node12"><a xlink:href="namespaceutils.html#aab52f9515717f06cafd6ab7fe2ebdcef" target="_top" xlink:title="Checks an alignment type.">
<polygon fill="#ffffff" stroke="#000000" points="793,-209 793,-228 925,-228 925,-209 793,-209"/>
<text text-anchor="middle" x="859" y="-216" font-family="Helvetica,sans-Serif" font-size="10.00" fill="#000000">utils::checkAlignmentType</text>
</a>
</g>
</g>
<!-- Node138&#45;&gt;Node139 -->
<g id="edge11" class="edge">
<title>Node138&#45;&gt;Node139</title>
<path fill="none" stroke="#191970" d="M754.5034,-218.5C763.8282,-218.5 773.3981,-218.5 782.7802,-218.5"/>
<polygon fill="#191970" stroke="#191970" points="782.8666,-222.0001 792.8666,-218.5 782.8665,-215.0001 782.8666,-222.0001"/>
</g>
<!-- Node140&#45;&gt;Node134 -->
<g id="edge14" class="edge">
<title>Node140&#45;&gt;Node134</title>
<path fill="none" stroke="#191970" d="M752.7182,-37.5C764.2619,-37.5 776.2266,-37.5 787.7823,-37.5"/>
<polygon fill="#191970" stroke="#191970" points="787.8112,-41.0001 797.8112,-37.5 787.8112,-34.0001 787.8112,-41.0001"/>
</g>
<!-- Node141&#45;&gt;Node132 -->
<g id="edge16" class="edge">
<title>Node141&#45;&gt;Node132</title>
<path fill="none" stroke="#191970" d="M566.7356,-96.5192C588.7744,-102.0604 613.4348,-108.2607 634.2724,-113.4999"/>
<polygon fill="#191970" stroke="#191970" points="633.6149,-116.9435 644.1665,-115.9876 635.3218,-110.1548 633.6149,-116.9435"/>
</g>
<!-- Node142 -->
<g id="node15" class="node">
<title>Node142</title>
<g id="a_node15"><a xlink:href="classstatistics_1_1_gaps.html#ad812a924cf5e3f900aad3ed4a9664300" target="_top" xlink:title=" ">
<polygon fill="#ffffff" stroke="#000000" points="615.5,-66.5 615.5,-96.5 748.5,-96.5 748.5,-66.5 615.5,-66.5"/>
<text text-anchor="start" x="623.5" y="-84.5" font-family="Helvetica,sans-Serif" font-size="10.00" fill="#000000">statistics::Gaps::isDefined</text>
<text text-anchor="middle" x="682" y="-73.5" font-family="Helvetica,sans-Serif" font-size="10.00" fill="#000000">Window</text>
</a>
</g>
</g>
<!-- Node141&#45;&gt;Node142 -->
<g id="edge17" class="edge">
<title>Node141&#45;&gt;Node142</title>
<path fill="none" stroke="#191970" d="M571.1698,-81.5C582.2233,-81.5 593.8127,-81.5 605.1593,-81.5"/>
<polygon fill="#191970" stroke="#191970" points="605.4891,-85.0001 615.4891,-81.5 605.489,-78.0001 605.4891,-85.0001"/>
</g>
</g>
</svg>
