<?xml version="1.0" encoding="UTF-8" standalone="no"?>
<!DOCTYPE svg PUBLIC "-//W3C//DTD SVG 1.1//EN"
 "http://www.w3.org/Graphics/SVG/1.1/DTD/svg11.dtd">
<!-- Generated by graphviz version 2.40.1 (20161225.0304)
 -->
<!-- Title: reporting::reportManager::report Pages: 1 -->
<svg width="967pt" height="490pt"
 viewBox="0.00 0.00 967.00 489.84" xmlns="http://www.w3.org/2000/svg" xmlns:xlink="http://www.w3.org/1999/xlink">
<g id="graph0" class="graph" transform="scale(1 1) rotate(0) translate(4 485.842)">
<title>reporting::reportManager::report</title>
<polygon fill="#ffffff" stroke="transparent" points="-4,4 -4,-485.842 963,-485.842 963,4 -4,4"/>
<!-- Node109 -->
<g id="node1" class="node">
<title>Node109</title>
<polygon fill="#bfbfbf" stroke="#000000" points="0,-252.5 0,-282.5 122,-282.5 122,-252.5 0,-252.5"/>
<text text-anchor="start" x="8" y="-270.5" font-family="Helvetica,sans-Serif" font-size="10.00" fill="#000000">reporting::reportManager</text>
<text text-anchor="middle" x="61" y="-259.5" font-family="Helvetica,sans-Serif" font-size="10.00" fill="#000000">::report</text>
</g>
<!-- Node110 -->
<g id="node2" class="node">
<title>Node110</title>
<g id="a_node2"><a xlink:href="classtrim_al_manager.html#ae49bc2cb7f90419296da65a23df39c8d" target="_top" xlink:title="Method to parse the backtranslation argument. ">
<polygon fill="#ffffff" stroke="#000000" points="362,-323.5 362,-353.5 469,-353.5 469,-323.5 362,-323.5"/>
<text text-anchor="start" x="370" y="-341.5" font-family="Helvetica,sans-Serif" font-size="10.00" fill="#000000">trimAlManager::back</text>
<text text-anchor="middle" x="415.5" y="-330.5" font-family="Helvetica,sans-Serif" font-size="10.00" fill="#000000">_trans_argument</text>
</a>
</g>
</g>
<!-- Node109&#45;&gt;Node110 -->
<g id="edge1" class="edge">
<title>Node109&#45;&gt;Node110</title>
<path fill="none" stroke="#191970" d="M123.549,-285.1392C134.9672,-288.1098 146.8079,-291.0272 158,-293.5 228.0156,-308.9693 309.6927,-322.4851 361.9663,-330.5662"/>
<polygon fill="#191970" stroke="#191970" points="124.2128,-281.6946 113.6506,-282.5248 122.4252,-288.4625 124.2128,-281.6946"/>
</g>
<!-- Node111 -->
<g id="node3" class="node">
<title>Node111</title>
<g id="a_node3"><a xlink:href="classtrim_al_manager.html#af140d97b6071a83930818030ac74b641" target="_top" xlink:title="Method to parse arguments into usable structure in trimal. ">
<polygon fill="#ffffff" stroke="#000000" points="723,-300 723,-319 880,-319 880,-300 723,-300"/>
<text text-anchor="middle" x="801.5" y="-307" font-family="Helvetica,sans-Serif" font-size="10.00" fill="#000000">trimAlManager::parseArguments</text>
</a>
</g>
</g>
<!-- Node109&#45;&gt;Node111 -->
<g id="edge33" class="edge">
<title>Node109&#45;&gt;Node111</title>
<path fill="none" stroke="#191970" d="M79.0277,-290.4876C96.7551,-311.337 125.7813,-341.0944 158,-356.5 300.1888,-424.4885 352.5341,-392.8223 510,-399.5 586.3758,-402.7389 609.5027,-423.7466 682,-399.5 730.5235,-383.2714 775.1316,-338.7236 793.1158,-319.0518"/>
<polygon fill="#191970" stroke="#191970" points="81.6593,-288.1778 72.5844,-282.71 76.2688,-292.6436 81.6593,-288.1778"/>
</g>
<!-- Node113 -->
<g id="node5" class="node">
<title>Node113</title>
<g id="a_node5"><a xlink:href="classtrim_al_manager.html#adc529dd893ed4e9df6f3ddbd58776068" target="_top" xlink:title="Core Method of the program. This is where almost all cleaning methods are called from. ">
<polygon fill="#ffffff" stroke="#000000" points="361,-.5 361,-30.5 470,-30.5 470,-.5 361,-.5"/>
<text text-anchor="start" x="369" y="-18.5" font-family="Helvetica,sans-Serif" font-size="10.00" fill="#000000">trimAlManager::clean</text>
<text text-anchor="middle" x="415.5" y="-7.5" font-family="Helvetica,sans-Serif" font-size="10.00" fill="#000000">_alignment</text>
</a>
</g>
</g>
<!-- Node109&#45;&gt;Node113 -->
<g id="edge4" class="edge">
<title>Node109&#45;&gt;Node113</title>
<path fill="none" stroke="#191970" d="M66.2259,-242.4155C76.2993,-200.6012 102.499,-116.9625 158,-73.5 216.5379,-27.6593 304.3092,-16.6274 360.7443,-14.695"/>
<polygon fill="#191970" stroke="#191970" points="62.776,-241.8011 63.9532,-252.3304 69.5991,-243.3652 62.776,-241.8011"/>
</g>
<!-- Node117 -->
<g id="node9" class="node">
<title>Node117</title>
<g id="a_node9"><a xlink:href="classtrim_al_manager.html#a13b1c52c612f6883e7857c846567dfa2" target="_top" xlink:title="Method to parse the comparset argument. ">
<polygon fill="#ffffff" stroke="#000000" points="527.5,-360.5 527.5,-390.5 664.5,-390.5 664.5,-360.5 527.5,-360.5"/>
<text text-anchor="start" x="535.5" y="-378.5" font-family="Helvetica,sans-Serif" font-size="10.00" fill="#000000">trimAlManager::compareset</text>
<text text-anchor="middle" x="596" y="-367.5" font-family="Helvetica,sans-Serif" font-size="10.00" fill="#000000">_argument</text>
</a>
</g>
</g>
<!-- Node109&#45;&gt;Node117 -->
<g id="edge9" class="edge">
<title>Node109&#45;&gt;Node117</title>
<path fill="none" stroke="#191970" d="M91.3277,-288.0257C109.8644,-299.7081 134.4633,-313.719 158,-322.5 282.3322,-368.8857 438.9833,-376.7617 527.2649,-377.0068"/>
<polygon fill="#191970" stroke="#191970" points="93.0509,-284.9727 82.7461,-282.5108 89.2665,-290.8616 93.0509,-284.9727"/>
</g>
<!-- Node118 -->
<g id="node10" class="node">
<title>Node118</title>
<g id="a_node10"><a xlink:href="classtrim_al_manager.html#a63dad1ad106b0fa09351cd5981b37aeb" target="_top" xlink:title="Method to parse the force select argument. ">
<polygon fill="#ffffff" stroke="#000000" points="362,-274.5 362,-304.5 469,-304.5 469,-274.5 362,-274.5"/>
<text text-anchor="start" x="370" y="-292.5" font-family="Helvetica,sans-Serif" font-size="10.00" fill="#000000">trimAlManager::force</text>
<text text-anchor="middle" x="415.5" y="-281.5" font-family="Helvetica,sans-Serif" font-size="10.00" fill="#000000">_select_argument</text>
</a>
</g>
</g>
<!-- Node109&#45;&gt;Node118 -->
<g id="edge11" class="edge">
<title>Node109&#45;&gt;Node118</title>
<path fill="none" stroke="#191970" d="M132.5198,-271.9385C200.3247,-276.1464 300.6613,-282.3732 361.8554,-286.1709"/>
<polygon fill="#191970" stroke="#191970" points="132.5421,-268.4332 122.3445,-271.307 132.1085,-275.4198 132.5421,-268.4332"/>
</g>
<!-- Node119 -->
<g id="node11" class="node">
<title>Node119</title>
<g id="a_node11"><a xlink:href="class_format_handling_1_1_format_manager.html#ac691b15ee0b0e6a22a22f82569672745" target="_top" xlink:title="Function to obtain the format name of a given file. ">
<polygon fill="#ffffff" stroke="#000000" points="159.5,-181.5 159.5,-211.5 319.5,-211.5 319.5,-181.5 159.5,-181.5"/>
<text text-anchor="start" x="167.5" y="-199.5" font-family="Helvetica,sans-Serif" font-size="10.00" fill="#000000">FormatHandling::FormatManager</text>
<text text-anchor="middle" x="239.5" y="-188.5" font-family="Helvetica,sans-Serif" font-size="10.00" fill="#000000">::getFileFormatName</text>
</a>
</g>
</g>
<!-- Node109&#45;&gt;Node119 -->
<g id="edge13" class="edge">
<title>Node109&#45;&gt;Node119</title>
<path fill="none" stroke="#191970" d="M97.8285,-247.8806C115.6882,-238.8279 137.6365,-228.37 158,-220.5 166.255,-217.3097 175.1174,-214.2964 183.849,-211.5526"/>
<polygon fill="#191970" stroke="#191970" points="96.1916,-244.7866 88.8918,-252.4653 99.3869,-251.0148 96.1916,-244.7866"/>
</g>
<!-- Node126 -->
<g id="node18" class="node">
<title>Node126</title>
<g id="a_node18"><a xlink:href="class_format_handling_1_1_format_manager.html#ae02b932789b35289dc506e8ed0297695" target="_top" xlink:title="Function that loads an alignment given a file path. It automatically detects the format of the file...">
<polygon fill="#ffffff" stroke="#000000" points="159.5,-230.5 159.5,-260.5 319.5,-260.5 319.5,-230.5 159.5,-230.5"/>
<text text-anchor="start" x="167.5" y="-248.5" font-family="Helvetica,sans-Serif" font-size="10.00" fill="#000000">FormatHandling::FormatManager</text>
<text text-anchor="middle" x="239.5" y="-237.5" font-family="Helvetica,sans-Serif" font-size="10.00" fill="#000000">::loadAlignment</text>
</a>
</g>
</g>
<!-- Node109&#45;&gt;Node126 -->
<g id="edge22" class="edge">
<title>Node109&#45;&gt;Node126</title>
<path fill="none" stroke="#191970" d="M132.6226,-258.6726C141.4169,-257.5887 150.4491,-256.4755 159.3589,-255.3773"/>
<polygon fill="#191970" stroke="#191970" points="131.9263,-255.2318 122.4296,-259.9288 132.7826,-262.1792 131.9263,-255.2318"/>
</g>
<!-- Node128 -->
<g id="node20" class="node">
<title>Node128</title>
<g id="a_node20"><a xlink:href="class_format_handling_1_1_format_manager.html#aac5df1a01a25e54aa856ef68085bd72a" target="_top" xlink:title="Function that takes multiple files, loads them and saves in a cumulus of formats, using an outPattern...">
<polygon fill="#ffffff" stroke="#000000" points="158,-132.5 158,-162.5 321,-162.5 321,-132.5 158,-132.5"/>
<text text-anchor="start" x="166" y="-150.5" font-family="Helvetica,sans-Serif" font-size="10.00" fill="#000000">FormatHandling::FormatManager</text>
<text text-anchor="middle" x="239.5" y="-139.5" font-family="Helvetica,sans-Serif" font-size="10.00" fill="#000000">::loadAndSaveMultipleAlignments</text>
</a>
</g>
</g>
<!-- Node109&#45;&gt;Node128 -->
<g id="edge29" class="edge">
<title>Node109&#45;&gt;Node128</title>
<path fill="none" stroke="#191970" d="M78.8801,-244.0764C96.6892,-222.2903 125.9384,-190.4278 158,-171.5 163.7158,-168.1256 169.9404,-165.196 176.3183,-162.659"/>
<polygon fill="#191970" stroke="#191970" points="75.9236,-242.1694 72.4129,-252.1657 81.3911,-246.5405 75.9236,-242.1694"/>
</g>
<!-- Node129 -->
<g id="node21" class="node">
<title>Node129</title>
<g id="a_node21"><a xlink:href="classtrim_al_manager.html#a64cc70f78e37b1dfa11627252d23edaa" target="_top" xlink:title="Method to parse the custom matrix argument. ">
<polygon fill="#ffffff" stroke="#000000" points="183,-449.5 183,-479.5 296,-479.5 296,-449.5 183,-449.5"/>
<text text-anchor="start" x="191" y="-467.5" font-family="Helvetica,sans-Serif" font-size="10.00" fill="#000000">trimAlManager::matrix</text>
<text text-anchor="middle" x="239.5" y="-456.5" font-family="Helvetica,sans-Serif" font-size="10.00" fill="#000000">_argument</text>
</a>
</g>
</g>
<!-- Node109&#45;&gt;Node129 -->
<g id="edge31" class="edge">
<title>Node109&#45;&gt;Node129</title>
<path fill="none" stroke="#191970" d="M69.3059,-292.5257C82.5376,-328.7333 111.7334,-395.6371 158,-434.5 165.2734,-440.6094 173.9027,-445.5288 182.7801,-449.4737"/>
<polygon fill="#191970" stroke="#191970" points="72.4856,-291.019 65.8531,-282.757 65.8858,-293.3518 72.4856,-291.019"/>
</g>
<!-- Node130 -->
<g id="node22" class="node">
<title>Node130</title>
<g id="a_node22"><a xlink:href="class_format_handling_1_1_format_manager.html#a2987b0f448390cf5cb7a287117896c64" target="_top" xlink:title="Function to save an alignment to a file. It searches among the available_states one that can write th...">
<polygon fill="#ffffff" stroke="#000000" points="159.5,-83.5 159.5,-113.5 319.5,-113.5 319.5,-83.5 159.5,-83.5"/>
<text text-anchor="start" x="167.5" y="-101.5" font-family="Helvetica,sans-Serif" font-size="10.00" fill="#000000">FormatHandling::FormatManager</text>
<text text-anchor="middle" x="239.5" y="-90.5" font-family="Helvetica,sans-Serif" font-size="10.00" fill="#000000">::saveAlignment</text>
</a>
</g>
</g>
<!-- Node109&#45;&gt;Node130 -->
<g id="edge34" class="edge">
<title>Node109&#45;&gt;Node130</title>
<path fill="none" stroke="#191970" d="M70.9598,-243.0145C85.3703,-210.6442 115.0931,-154.034 158,-122.5 162.6353,-119.0933 167.7498,-116.1676 173.0899,-113.6554"/>
<polygon fill="#191970" stroke="#191970" points="67.7326,-241.6594 66.9816,-252.2276 74.1591,-244.4345 67.7326,-241.6594"/>
</g>
<!-- Node110&#45;&gt;Node111 -->
<g id="edge2" class="edge">
<title>Node110&#45;&gt;Node111</title>
<path fill="none" stroke="#191970" d="M479.5551,-333.6876C546.3515,-328.6692 651.1296,-320.7973 722.8928,-315.4057"/>
<polygon fill="#191970" stroke="#191970" points="478.8813,-330.2282 469.1716,-334.4677 479.4058,-337.2086 478.8813,-330.2282"/>
</g>
<!-- Node112 -->
<g id="node4" class="node">
<title>Node112</title>
<g id="a_node4"><a xlink:href="trim_al_main_8cpp.html#a0ddf1224851353fc92bfbff6f499fa97" target="_top" xlink:title="main">
<polygon fill="#ffffff" stroke="#000000" points="921,-143 921,-162 959,-162 959,-143 921,-143"/>
<text text-anchor="middle" x="940" y="-150" font-family="Helvetica,sans-Serif" font-size="10.00" fill="#000000">main</text>
</a>
</g>
</g>
<!-- Node111&#45;&gt;Node112 -->
<g id="edge3" class="edge">
<title>Node111&#45;&gt;Node112</title>
<path fill="none" stroke="#191970" d="M816.8015,-292.1546C845.9139,-259.1535 908.4137,-188.3054 931.3395,-162.3173"/>
<polygon fill="#191970" stroke="#191970" points="814.1546,-289.8644 810.1638,-299.6789 819.4039,-294.4953 814.1546,-289.8644"/>
</g>
<!-- Node114 -->
<g id="node6" class="node">
<title>Node114</title>
<g id="a_node6"><a xlink:href="classtrim_al_manager.html#a7c641a1feff33d401b4ea5c82e989289" target="_top" xlink:title="trimAlManager::innerPerform">
<polygon fill="#ffffff" stroke="#000000" points="525.5,-55 525.5,-74 666.5,-74 666.5,-55 525.5,-55"/>
<text text-anchor="middle" x="596" y="-62" font-family="Helvetica,sans-Serif" font-size="10.00" fill="#000000">trimAlManager::innerPerform</text>
</a>
</g>
</g>
<!-- Node113&#45;&gt;Node114 -->
<g id="edge5" class="edge">
<title>Node113&#45;&gt;Node114</title>
<path fill="none" stroke="#191970" d="M480.0109,-33.0126C507.2632,-40.4108 537.9325,-48.7365 560.8866,-54.9678"/>
<polygon fill="#191970" stroke="#191970" points="480.7135,-29.5768 470.1458,-30.3346 478.8795,-36.3323 480.7135,-29.5768"/>
</g>
<!-- Node116 -->
<g id="node8" class="node">
<title>Node116</title>
<g id="a_node8"><a xlink:href="classtrim_al_manager.html#ac5795f93b3a2b51bf5d8dddd63b89f73" target="_top" xlink:title="trimAlManager::perform_VCF">
<polygon fill="#ffffff" stroke="#000000" points="524,-12 524,-31 668,-31 668,-12 524,-12"/>
<text text-anchor="middle" x="596" y="-19" font-family="Helvetica,sans-Serif" font-size="10.00" fill="#000000">trimAlManager::perform_VCF</text>
</a>
</g>
</g>
<!-- Node113&#45;&gt;Node116 -->
<g id="edge8" class="edge">
<title>Node113&#45;&gt;Node116</title>
<path fill="none" stroke="#191970" d="M480.261,-17.6527C494.4038,-18.1228 509.4563,-18.6232 523.8662,-19.1022"/>
<polygon fill="#191970" stroke="#191970" points="480.2566,-14.1507 470.1458,-17.3165 480.024,-21.1469 480.2566,-14.1507"/>
</g>
<!-- Node115 -->
<g id="node7" class="node">
<title>Node115</title>
<g id="a_node7"><a xlink:href="classtrim_al_manager.html#abe8d2841455c644dc9c7d1294b82b00f" target="_top" xlink:title="Method to perform the analysis if all checks have passed. ">
<polygon fill="#ffffff" stroke="#000000" points="742,-80 742,-99 861,-99 861,-80 742,-80"/>
<text text-anchor="middle" x="801.5" y="-87" font-family="Helvetica,sans-Serif" font-size="10.00" fill="#000000">trimAlManager::perform</text>
</a>
</g>
</g>
<!-- Node114&#45;&gt;Node115 -->
<g id="edge6" class="edge">
<title>Node114&#45;&gt;Node115</title>
<path fill="none" stroke="#191970" d="M676.9042,-74.3424C698.5864,-76.9801 721.6292,-79.7834 741.9251,-82.2524"/>
<polygon fill="#191970" stroke="#191970" points="677.071,-70.8369 666.7214,-73.1036 676.2256,-77.7857 677.071,-70.8369"/>
</g>
<!-- Node115&#45;&gt;Node112 -->
<g id="edge7" class="edge">
<title>Node115&#45;&gt;Node112</title>
<path fill="none" stroke="#191970" d="M831.9596,-103.3553C859.1232,-115.7113 898.0412,-133.4141 920.9986,-143.8568"/>
<polygon fill="#191970" stroke="#191970" points="833.0869,-100.023 822.5352,-99.0683 830.1885,-106.3948 833.0869,-100.023"/>
</g>
<!-- Node117&#45;&gt;Node111 -->
<g id="edge10" class="edge">
<title>Node117&#45;&gt;Node111</title>
<path fill="none" stroke="#191970" d="M652.4342,-357.3751C690.9844,-344.9941 740.5344,-329.0802 771.664,-319.0824"/>
<polygon fill="#191970" stroke="#191970" points="651.339,-354.0507 642.8883,-360.441 653.4795,-360.7154 651.339,-354.0507"/>
</g>
<!-- Node118&#45;&gt;Node111 -->
<g id="edge12" class="edge">
<title>Node118&#45;&gt;Node111</title>
<path fill="none" stroke="#191970" d="M479.5551,-292.8189C546.3515,-296.2799 651.1296,-301.7088 722.8928,-305.4271"/>
<polygon fill="#191970" stroke="#191970" points="479.3394,-289.3031 469.1716,-292.2809 478.9771,-296.2938 479.3394,-289.3031"/>
</g>
<!-- Node120 -->
<g id="node12" class="node">
<title>Node120</title>
<g id="a_node12"><a xlink:href="classtrim_al_manager.html#af7c3b97a17c2f5750f9481cc60c17616" target="_top" xlink:title="Method to check if an output format has been given. If no output format has been given, it will use the inFile format. ">
<polygon fill="#ffffff" stroke="#000000" points="359.5,-137.5 359.5,-167.5 471.5,-167.5 471.5,-137.5 359.5,-137.5"/>
<text text-anchor="start" x="367.5" y="-155.5" font-family="Helvetica,sans-Serif" font-size="10.00" fill="#000000">trimAlManager::check</text>
<text text-anchor="middle" x="415.5" y="-144.5" font-family="Helvetica,sans-Serif" font-size="10.00" fill="#000000">_output_format</text>
</a>
</g>
</g>
<!-- Node119&#45;&gt;Node120 -->
<g id="edge14" class="edge">
<title>Node119&#45;&gt;Node120</title>
<path fill="none" stroke="#191970" d="M309.694,-178.9515C326.1576,-174.8356 343.489,-170.5027 359.251,-166.5622"/>
<polygon fill="#191970" stroke="#191970" points="308.4295,-175.6598 299.577,-181.4808 310.1273,-182.4508 308.4295,-175.6598"/>
</g>
<!-- Node123 -->
<g id="node15" class="node">
<title>Node123</title>
<g id="a_node15"><a xlink:href="read_al_main_8cpp.html#a0ddf1224851353fc92bfbff6f499fa97" target="_top" xlink:title="main">
<polygon fill="#ffffff" stroke="#000000" points="396.5,-99 396.5,-118 434.5,-118 434.5,-99 396.5,-99"/>
<text text-anchor="middle" x="415.5" y="-106" font-family="Helvetica,sans-Serif" font-size="10.00" fill="#000000">main</text>
</a>
</g>
</g>
<!-- Node119&#45;&gt;Node123 -->
<g id="edge18" class="edge">
<title>Node119&#45;&gt;Node123</title>
<path fill="none" stroke="#191970" d="M311.3295,-177.2006C314.6874,-175.4562 317.9321,-173.5601 321,-171.5 341.9763,-157.4141 336.1399,-141.7575 357,-127.5 368.8135,-119.4257 384.288,-114.5984 396.3541,-111.8312"/>
<polygon fill="#191970" stroke="#191970" points="309.7881,-174.0577 302.2204,-181.4726 312.7603,-180.3954 309.7881,-174.0577"/>
</g>
<!-- Node124 -->
<g id="node16" class="node">
<title>Node124</title>
<g id="a_node16"><a xlink:href="classstatistics_1_1_consistency.html#ae8679e43ec228926ac2844af133cc2d5" target="_top" xlink:title="Method to compare a set of MSA, all containing the same sequences and residues. The number of residue...">
<polygon fill="#ffffff" stroke="#000000" points="357,-186.5 357,-216.5 474,-216.5 474,-186.5 357,-186.5"/>
<text text-anchor="start" x="365" y="-204.5" font-family="Helvetica,sans-Serif" font-size="10.00" fill="#000000">statistics::Consistency</text>
<text text-anchor="middle" x="415.5" y="-193.5" font-family="Helvetica,sans-Serif" font-size="10.00" fill="#000000">::perform</text>
</a>
</g>
</g>
<!-- Node119&#45;&gt;Node124 -->
<g id="edge19" class="edge">
<title>Node119&#45;&gt;Node124</title>
<path fill="none" stroke="#191970" d="M329.6029,-199.0597C338.904,-199.324 348.1738,-199.5873 356.9963,-199.838"/>
<polygon fill="#191970" stroke="#191970" points="329.613,-195.5587 319.5176,-198.7732 329.4141,-202.5559 329.613,-195.5587"/>
</g>
<!-- Node121 -->
<g id="node13" class="node">
<title>Node121</title>
<g id="a_node13"><a xlink:href="classtrim_al_manager.html#a3f325b806727751394adb829d97b35f1" target="_top" xlink:title="Method that checks dependencies between arguments. Take in mind that dependencies may be between mult...">
<polygon fill="#ffffff" stroke="#000000" points="540,-137.5 540,-167.5 652,-167.5 652,-137.5 540,-137.5"/>
<text text-anchor="start" x="548" y="-155.5" font-family="Helvetica,sans-Serif" font-size="10.00" fill="#000000">trimAlManager::check</text>
<text text-anchor="middle" x="596" y="-144.5" font-family="Helvetica,sans-Serif" font-size="10.00" fill="#000000">_arguments_needs</text>
</a>
</g>
</g>
<!-- Node120&#45;&gt;Node121 -->
<g id="edge15" class="edge">
<title>Node120&#45;&gt;Node121</title>
<path fill="none" stroke="#191970" d="M481.7481,-152.5C500.8477,-152.5 521.4938,-152.5 539.9128,-152.5"/>
<polygon fill="#191970" stroke="#191970" points="481.6219,-149.0001 471.6219,-152.5 481.6219,-156.0001 481.6219,-149.0001"/>
</g>
<!-- Node122 -->
<g id="node14" class="node">
<title>Node122</title>
<g id="a_node14"><a xlink:href="classtrim_al_manager.html#a748b08a1ec5cd214de804ed0d4234a6e" target="_top" xlink:title="Method to process the information obtained by trimAlManager::parseArguments It checks for argument in...">
<polygon fill="#ffffff" stroke="#000000" points="718,-143 718,-162 885,-162 885,-143 718,-143"/>
<text text-anchor="middle" x="801.5" y="-150" font-family="Helvetica,sans-Serif" font-size="10.00" fill="#000000">trimAlManager::processArguments</text>
</a>
</g>
</g>
<!-- Node121&#45;&gt;Node122 -->
<g id="edge16" class="edge">
<title>Node121&#45;&gt;Node122</title>
<path fill="none" stroke="#191970" d="M662.3246,-152.5C679.9531,-152.5 699.2248,-152.5 717.6559,-152.5"/>
<polygon fill="#191970" stroke="#191970" points="662.1538,-149.0001 652.1538,-152.5 662.1537,-156.0001 662.1538,-149.0001"/>
</g>
<!-- Node122&#45;&gt;Node112 -->
<g id="edge17" class="edge">
<title>Node122&#45;&gt;Node112</title>
<path fill="none" stroke="#191970" d="M895.301,-152.5C904.7267,-152.5 913.4553,-152.5 920.6511,-152.5"/>
<polygon fill="#191970" stroke="#191970" points="895.2612,-149.0001 885.2611,-152.5 895.2611,-156.0001 895.2612,-149.0001"/>
</g>
<!-- Node125 -->
<g id="node17" class="node">
<title>Node125</title>
<g id="a_node17"><a xlink:href="classtrim_al_manager.html#a12b7cef964ef258fe7621da44867c51f" target="_top" xlink:title="Method to check if multiple files comparison has been set correctly. It also perform some calculation...">
<polygon fill="#ffffff" stroke="#000000" points="510,-196 510,-215 682,-215 682,-196 510,-196"/>
<text text-anchor="middle" x="596" y="-203" font-family="Helvetica,sans-Serif" font-size="10.00" fill="#000000">trimAlManager::performCompareset</text>
</a>
</g>
</g>
<!-- Node124&#45;&gt;Node125 -->
<g id="edge20" class="edge">
<title>Node124&#45;&gt;Node125</title>
<path fill="none" stroke="#191970" d="M484.185,-203.0221C492.575,-203.208 501.2291,-203.3998 509.8336,-203.5905"/>
<polygon fill="#191970" stroke="#191970" points="484.1783,-199.5212 474.1032,-202.7987 484.0231,-206.5195 484.1783,-199.5212"/>
</g>
<!-- Node125&#45;&gt;Node111 -->
<g id="edge21" class="edge">
<title>Node125&#45;&gt;Node111</title>
<path fill="none" stroke="#191970" d="M648.2994,-217.9705C659.6466,-221.4248 671.414,-225.5999 682,-230.5 724.4308,-250.1405 768.9885,-283.5392 789.666,-299.8966"/>
<polygon fill="#191970" stroke="#191970" points="649.0553,-214.5455 638.4761,-215.1204 647.1048,-221.2683 649.0553,-214.5455"/>
</g>
<!-- Node126&#45;&gt;Node110 -->
<g id="edge23" class="edge">
<title>Node126&#45;&gt;Node110</title>
<path fill="none" stroke="#191970" d="M272.5392,-266.0576C295.7671,-280.1522 327.7903,-298.8734 357,-313.5 363.8143,-316.9122 371.2051,-320.3012 378.3667,-323.4317"/>
<polygon fill="#191970" stroke="#191970" points="274.1398,-262.9341 263.7812,-260.7096 270.4917,-268.9083 274.1398,-262.9341"/>
</g>
<!-- Node126&#45;&gt;Node118 -->
<g id="edge24" class="edge">
<title>Node126&#45;&gt;Node118</title>
<path fill="none" stroke="#191970" d="M309.682,-263.0455C327.0714,-267.3929 345.4298,-271.9824 361.8848,-276.0962"/>
<polygon fill="#191970" stroke="#191970" points="310.1273,-259.5492 299.577,-260.5192 308.4295,-266.3402 310.1273,-259.5492"/>
</g>
<!-- Node126&#45;&gt;Node123 -->
<g id="edge27" class="edge">
<title>Node126&#45;&gt;Node123</title>
<path fill="none" stroke="#191970" d="M315.7162,-224.8854C317.5605,-223.5164 319.3276,-222.0566 321,-220.5 353.4436,-190.303 324.8052,-157.9621 357,-127.5 367.7042,-117.3719 383.8674,-112.642 396.4935,-110.4334"/>
<polygon fill="#191970" stroke="#191970" points="313.7381,-221.9957 307.19,-230.3247 317.503,-227.8971 313.7381,-221.9957"/>
</g>
<!-- Node126&#45;&gt;Node124 -->
<g id="edge28" class="edge">
<title>Node126&#45;&gt;Node124</title>
<path fill="none" stroke="#191970" d="M309.718,-227.9455C325.3546,-224.0364 341.7728,-219.9318 356.885,-216.1538"/>
<polygon fill="#191970" stroke="#191970" points="308.4295,-224.6598 299.577,-230.4808 310.1273,-231.4508 308.4295,-224.6598"/>
</g>
<!-- Node127 -->
<g id="node19" class="node">
<title>Node127</title>
<g id="a_node19"><a xlink:href="classtrim_al_manager.html#a9580aa82de8aba6794647a36c0416a33" target="_top" xlink:title="Method to parse the input file argument. ">
<polygon fill="#ffffff" stroke="#000000" points="526.5,-240 526.5,-259 665.5,-259 665.5,-240 526.5,-240"/>
<text text-anchor="middle" x="596" y="-247" font-family="Helvetica,sans-Serif" font-size="10.00" fill="#000000">trimAlManager::in_argument</text>
</a>
</g>
</g>
<!-- Node126&#45;&gt;Node127 -->
<g id="edge25" class="edge">
<title>Node126&#45;&gt;Node127</title>
<path fill="none" stroke="#191970" d="M329.5326,-246.5102C390.6443,-247.1959 470.2538,-248.0891 526.4914,-248.7201"/>
<polygon fill="#191970" stroke="#191970" points="329.5442,-243.0102 319.5056,-246.3977 329.4656,-250.0098 329.5442,-243.0102"/>
</g>
<!-- Node127&#45;&gt;Node111 -->
<g id="edge26" class="edge">
<title>Node127&#45;&gt;Node111</title>
<path fill="none" stroke="#191970" d="M638.4811,-261.9032C677.158,-273.1958 733.4572,-289.6335 768.7507,-299.9382"/>
<polygon fill="#191970" stroke="#191970" points="639.1423,-258.4502 628.5621,-259.0072 637.1803,-265.1697 639.1423,-258.4502"/>
</g>
<!-- Node128&#45;&gt;Node123 -->
<g id="edge30" class="edge">
<title>Node128&#45;&gt;Node123</title>
<path fill="none" stroke="#191970" d="M317.1283,-130.2983C346.3564,-123.8216 377.1324,-117.0019 396.3161,-112.751"/>
<polygon fill="#191970" stroke="#191970" points="316.3004,-126.8967 307.2944,-132.4774 317.8148,-133.731 316.3004,-126.8967"/>
</g>
<!-- Node129&#45;&gt;Node111 -->
<g id="edge32" class="edge">
<title>Node129&#45;&gt;Node111</title>
<path fill="none" stroke="#191970" d="M306.2209,-474.3791C396.1972,-484.5897 559.2842,-491.9414 682,-434.5 737.7423,-408.4079 780.8393,-343.9476 795.7984,-319.2997"/>
<polygon fill="#191970" stroke="#191970" points="306.4918,-470.8868 296.1502,-473.1894 305.6705,-477.8385 306.4918,-470.8868"/>
</g>
<!-- Node130&#45;&gt;Node123 -->
<g id="edge35" class="edge">
<title>Node130&#45;&gt;Node123</title>
<path fill="none" stroke="#191970" d="M329.5687,-103.6175C354.827,-105.0527 379.8579,-106.4749 396.3318,-107.4109"/>
<polygon fill="#191970" stroke="#191970" points="329.7001,-100.1194 319.5176,-103.0465 329.3029,-107.1082 329.7001,-100.1194"/>
</g>
<!-- Node131 -->
<g id="node23" class="node">
<title>Node131</title>
<g id="a_node23"><a xlink:href="classtrim_al_manager.html#a7ba38127fa10c926b96c60250b80d2b7" target="_top" xlink:title="trimAlManager::save\l_alignment">
<polygon fill="#ffffff" stroke="#000000" points="362,-49.5 362,-79.5 469,-79.5 469,-49.5 362,-49.5"/>
<text text-anchor="start" x="370" y="-67.5" font-family="Helvetica,sans-Serif" font-size="10.00" fill="#000000">trimAlManager::save</text>
<text text-anchor="middle" x="415.5" y="-56.5" font-family="Helvetica,sans-Serif" font-size="10.00" fill="#000000">_alignment</text>
</a>
</g>
</g>
<!-- Node130&#45;&gt;Node131 -->
<g id="edge36" class="edge">
<title>Node130&#45;&gt;Node131</title>
<path fill="none" stroke="#191970" d="M327.1591,-81.5659C339.03,-79.2726 350.9091,-76.9778 361.9325,-74.8483"/>
<polygon fill="#191970" stroke="#191970" points="326.3631,-78.1548 317.2085,-83.4881 327.6908,-85.0278 326.3631,-78.1548"/>
</g>
<!-- Node131&#45;&gt;Node114 -->
<g id="edge37" class="edge">
<title>Node131&#45;&gt;Node114</title>
<path fill="none" stroke="#191970" d="M479.3192,-64.5C494.2606,-64.5 510.262,-64.5 525.4769,-64.5"/>
<polygon fill="#191970" stroke="#191970" points="479.1673,-61.0001 469.1672,-64.5 479.1672,-68.0001 479.1673,-61.0001"/>
</g>
<!-- Node131&#45;&gt;Node116 -->
<g id="edge38" class="edge">
<title>Node131&#45;&gt;Node116</title>
<path fill="none" stroke="#191970" d="M479.1671,-49.3328C504.7478,-43.2388 533.4569,-36.3995 556.0147,-31.0256"/>
<polygon fill="#191970" stroke="#191970" points="478.0839,-45.9928 469.1672,-51.715 479.7061,-52.8022 478.0839,-45.9928"/>
</g>
</g>
</svg>
