<?xml version="1.0" encoding="UTF-8" standalone="no"?>
<!DOCTYPE svg PUBLIC "-//W3C//DTD SVG 1.1//EN"
 "http://www.w3.org/Graphics/SVG/1.1/DTD/svg11.dtd">
<!-- Generated by graphviz version 2.40.1 (20161225.0304)
 -->
<!-- Title: Cleaner::selectMethod Pages: 1 -->
<svg width="886pt" height="66pt"
 viewBox="0.00 0.00 886.00 66.00" xmlns="http://www.w3.org/2000/svg" xmlns:xlink="http://www.w3.org/1999/xlink">
<g id="graph0" class="graph" transform="scale(1 1) rotate(0) translate(4 62)">
<title>Cleaner::selectMethod</title>
<polygon fill="#ffffff" stroke="transparent" points="-4,4 -4,-62 882,-62 882,4 -4,4"/>
<!-- Node606 -->
<g id="node1" class="node">
<title>Node606</title>
<polygon fill="#bfbfbf" stroke="#000000" points="0,-19.5 0,-38.5 115,-38.5 115,-19.5 0,-19.5"/>
<text text-anchor="middle" x="57.5" y="-26.5" font-family="Helvetica,sans-Serif" font-size="10.00" fill="#000000">Cleaner::selectMethod</text>
</g>
<!-- Node607 -->
<g id="node2" class="node">
<title>Node607</title>
<g id="a_node2"><a xlink:href="classtrim_al_manager.html#a69082911b30a1bd12395bb235bc18a34" target="_top" xlink:title="Method to trim the alignment using automatic or semi&#45;automatic methods: ">
<polygon fill="#ffffff" stroke="#000000" points="151,-19.5 151,-38.5 324,-38.5 324,-19.5 151,-19.5"/>
<text text-anchor="middle" x="237.5" y="-26.5" font-family="Helvetica,sans-Serif" font-size="10.00" fill="#000000">trimAlManager::CleanResiduesAuto</text>
</a>
</g>
</g>
<!-- Node606&#45;&gt;Node607 -->
<g id="edge1" class="edge">
<title>Node606&#45;&gt;Node607</title>
<path fill="none" stroke="#191970" d="M125.6953,-29C133.9152,-29 142.3933,-29 150.8323,-29"/>
<polygon fill="#191970" stroke="#191970" points="125.444,-25.5001 115.4439,-29 125.4439,-32.5001 125.444,-25.5001"/>
</g>
<!-- Node608 -->
<g id="node3" class="node">
<title>Node608</title>
<g id="a_node3"><a xlink:href="classtrim_al_manager.html#adc529dd893ed4e9df6f3ddbd58776068" target="_top" xlink:title="Core Method of the program. This is where almost all cleaning methods are called from. ">
<polygon fill="#ffffff" stroke="#000000" points="360,-14 360,-44 469,-44 469,-14 360,-14"/>
<text text-anchor="start" x="368" y="-32" font-family="Helvetica,sans-Serif" font-size="10.00" fill="#000000">trimAlManager::clean</text>
<text text-anchor="middle" x="414.5" y="-21" font-family="Helvetica,sans-Serif" font-size="10.00" fill="#000000">_alignment</text>
</a>
</g>
</g>
<!-- Node607&#45;&gt;Node608 -->
<g id="edge2" class="edge">
<title>Node607&#45;&gt;Node608</title>
<path fill="none" stroke="#191970" d="M334.3747,-29C343.0296,-29 351.5767,-29 359.6809,-29"/>
<polygon fill="#191970" stroke="#191970" points="334.1852,-25.5001 324.1852,-29 334.1851,-32.5001 334.1852,-25.5001"/>
</g>
<!-- Node609 -->
<g id="node4" class="node">
<title>Node609</title>
<g id="a_node4"><a xlink:href="classtrim_al_manager.html#a7c641a1feff33d401b4ea5c82e989289" target="_top" xlink:title="trimAlManager::innerPerform">
<polygon fill="#ffffff" stroke="#000000" points="506.5,-38.5 506.5,-57.5 647.5,-57.5 647.5,-38.5 506.5,-38.5"/>
<text text-anchor="middle" x="577" y="-45.5" font-family="Helvetica,sans-Serif" font-size="10.00" fill="#000000">trimAlManager::innerPerform</text>
</a>
</g>
</g>
<!-- Node608&#45;&gt;Node609 -->
<g id="edge3" class="edge">
<title>Node608&#45;&gt;Node609</title>
<path fill="none" stroke="#191970" d="M479.0655,-36.5492C488.0547,-37.6002 497.3286,-38.6846 506.4212,-39.7477"/>
<polygon fill="#191970" stroke="#191970" points="479.401,-33.0647 469.0622,-35.3796 478.588,-40.0173 479.401,-33.0647"/>
</g>
<!-- Node612 -->
<g id="node7" class="node">
<title>Node612</title>
<g id="a_node7"><a xlink:href="classtrim_al_manager.html#ac5795f93b3a2b51bf5d8dddd63b89f73" target="_top" xlink:title="trimAlManager::perform_VCF">
<polygon fill="#ffffff" stroke="#000000" points="505,-.5 505,-19.5 649,-19.5 649,-.5 505,-.5"/>
<text text-anchor="middle" x="577" y="-7.5" font-family="Helvetica,sans-Serif" font-size="10.00" fill="#000000">trimAlManager::perform_VCF</text>
</a>
</g>
</g>
<!-- Node608&#45;&gt;Node612 -->
<g id="edge6" class="edge">
<title>Node608&#45;&gt;Node612</title>
<path fill="none" stroke="#191970" d="M479.2328,-21.4312C487.6937,-20.442 496.4041,-19.4235 504.9757,-18.4213"/>
<polygon fill="#191970" stroke="#191970" points="478.588,-17.9827 469.0622,-22.6204 479.401,-24.9353 478.588,-17.9827"/>
</g>
<!-- Node610 -->
<g id="node5" class="node">
<title>Node610</title>
<g id="a_node5"><a xlink:href="classtrim_al_manager.html#abe8d2841455c644dc9c7d1294b82b00f" target="_top" xlink:title="Method to perform the analysis if all checks have passed. ">
<polygon fill="#ffffff" stroke="#000000" points="685,-38.5 685,-57.5 804,-57.5 804,-38.5 685,-38.5"/>
<text text-anchor="middle" x="744.5" y="-45.5" font-family="Helvetica,sans-Serif" font-size="10.00" fill="#000000">trimAlManager::perform</text>
</a>
</g>
</g>
<!-- Node609&#45;&gt;Node610 -->
<g id="edge4" class="edge">
<title>Node609&#45;&gt;Node610</title>
<path fill="none" stroke="#191970" d="M657.8102,-48C666.9363,-48 676.1089,-48 684.8939,-48"/>
<polygon fill="#191970" stroke="#191970" points="657.5497,-44.5001 647.5496,-48 657.5496,-51.5001 657.5497,-44.5001"/>
</g>
<!-- Node611 -->
<g id="node6" class="node">
<title>Node611</title>
<g id="a_node6"><a xlink:href="trim_al_main_8cpp.html#a0ddf1224851353fc92bfbff6f499fa97" target="_top" xlink:title="main">
<polygon fill="#ffffff" stroke="#000000" points="840,-38.5 840,-57.5 878,-57.5 878,-38.5 840,-38.5"/>
<text text-anchor="middle" x="859" y="-45.5" font-family="Helvetica,sans-Serif" font-size="10.00" fill="#000000">main</text>
</a>
</g>
</g>
<!-- Node610&#45;&gt;Node611 -->
<g id="edge5" class="edge">
<title>Node610&#45;&gt;Node611</title>
<path fill="none" stroke="#191970" d="M814.3198,-48C823.6177,-48 832.4503,-48 839.7697,-48"/>
<polygon fill="#191970" stroke="#191970" points="814.0976,-44.5001 804.0976,-48 814.0975,-51.5001 814.0976,-44.5001"/>
</g>
</g>
</svg>
