<?xml version="1.0" encoding="UTF-8" standalone="no"?>
<!DOCTYPE svg PUBLIC "-//W3C//DTD SVG 1.1//EN"
 "http://www.w3.org/Graphics/SVG/1.1/DTD/svg11.dtd">
<!-- Generated by graphviz version 2.40.1 (20161225.0304)
 -->
<!-- Title: statistics::Manager::printStatisticsGapsTotal Pages: 1 -->
<svg width="664pt" height="144pt"
 viewBox="0.00 0.00 664.00 143.50" xmlns="http://www.w3.org/2000/svg" xmlns:xlink="http://www.w3.org/1999/xlink">
<g id="graph0" class="graph" transform="scale(1 1) rotate(0) translate(4 139.5)">
<title>statistics::Manager::printStatisticsGapsTotal</title>
<polygon fill="#ffffff" stroke="transparent" points="-4,4 -4,-139.5 660,-139.5 660,4 -4,4"/>
<!-- Node197 -->
<g id="node1" class="node">
<title>Node197</title>
<polygon fill="#bfbfbf" stroke="#000000" points="0,-17 0,-47 128,-47 128,-17 0,-17"/>
<text text-anchor="start" x="8" y="-35" font-family="Helvetica,sans-Serif" font-size="10.00" fill="#000000">statistics::Manager</text>
<text text-anchor="middle" x="64" y="-24" font-family="Helvetica,sans-Serif" font-size="10.00" fill="#000000">::printStatisticsGapsTotal</text>
</g>
<!-- Node198 -->
<g id="node2" class="node">
<title>Node198</title>
<g id="a_node2"><a xlink:href="classstatistics_1_1_manager.html#a1969a416d3020d25daa56de6c5e305db" target="_top" xlink:title="Method to handle gap stat calculation It checks if the gaps submodule has been created, otherwise, creates it. ">
<polygon fill="#ffffff" stroke="#000000" points="186.5,-39 186.5,-69 289.5,-69 289.5,-39 186.5,-39"/>
<text text-anchor="start" x="194.5" y="-57" font-family="Helvetica,sans-Serif" font-size="10.00" fill="#000000">statistics::Manager</text>
<text text-anchor="middle" x="238" y="-46" font-family="Helvetica,sans-Serif" font-size="10.00" fill="#000000">::calculateGapStats</text>
</a>
</g>
</g>
<!-- Node197&#45;&gt;Node198 -->
<g id="edge1" class="edge">
<title>Node197&#45;&gt;Node198</title>
<path fill="none" stroke="#191970" d="M128.2968,-40.1295C144.0207,-42.1176 160.8084,-44.2401 176.4025,-46.2118"/>
<polygon fill="#191970" stroke="#191970" points="176.0945,-49.7007 186.4546,-47.4828 176.9727,-42.7559 176.0945,-49.7007"/>
</g>
<!-- Node205 -->
<g id="node9" class="node">
<title>Node205</title>
<g id="a_node9"><a xlink:href="classstatistics_1_1_gaps.html#af901354f7cb3588d17a73cbee2df8c30" target="_top" xlink:title="statistics::Gaps::printGapsAcl">
<polygon fill="#ffffff" stroke="#000000" points="164,-.5 164,-19.5 312,-19.5 312,-.5 164,-.5"/>
<text text-anchor="middle" x="238" y="-7.5" font-family="Helvetica,sans-Serif" font-size="10.00" fill="#000000">statistics::Gaps::printGapsAcl</text>
</a>
</g>
</g>
<!-- Node197&#45;&gt;Node205 -->
<g id="edge9" class="edge">
<title>Node197&#45;&gt;Node205</title>
<path fill="none" stroke="#191970" d="M128.2968,-23.8705C136.6466,-22.8148 145.2963,-21.7212 153.908,-20.6323"/>
<polygon fill="#191970" stroke="#191970" points="154.4977,-24.0857 163.9797,-19.3589 153.6196,-17.141 154.4977,-24.0857"/>
</g>
<!-- Node199 -->
<g id="node3" class="node">
<title>Node199</title>
<g id="a_node3"><a xlink:href="classstatistics_1_1_gaps.html#aee36b772767467cdba2061df2305e85d" target="_top" xlink:title="statistics::Gaps::applyWindow">
<polygon fill="#ffffff" stroke="#000000" points="348,-88.5 348,-107.5 498,-107.5 498,-88.5 348,-88.5"/>
<text text-anchor="middle" x="423" y="-95.5" font-family="Helvetica,sans-Serif" font-size="10.00" fill="#000000">statistics::Gaps::applyWindow</text>
</a>
</g>
</g>
<!-- Node198&#45;&gt;Node199 -->
<g id="edge2" class="edge">
<title>Node198&#45;&gt;Node199</title>
<path fill="none" stroke="#191970" d="M289.5328,-66.2565C315.5831,-72.4522 347.0658,-79.94 372.9108,-86.0869"/>
<polygon fill="#191970" stroke="#191970" points="372.3406,-89.5488 382.8791,-88.4577 373.9604,-82.7388 372.3406,-89.5488"/>
</g>
<!-- Node203 -->
<g id="node7" class="node">
<title>Node203</title>
<g id="a_node7"><a xlink:href="classstatistics_1_1_gaps.html#aa3526494d5100e062daa4afba755d0b1" target="_top" xlink:title="statistics::Gaps::Calculate\lVectors">
<polygon fill="#ffffff" stroke="#000000" points="356.5,-39 356.5,-69 489.5,-69 489.5,-39 356.5,-39"/>
<text text-anchor="start" x="364.5" y="-57" font-family="Helvetica,sans-Serif" font-size="10.00" fill="#000000">statistics::Gaps::Calculate</text>
<text text-anchor="middle" x="423" y="-46" font-family="Helvetica,sans-Serif" font-size="10.00" fill="#000000">Vectors</text>
</a>
</g>
</g>
<!-- Node198&#45;&gt;Node203 -->
<g id="edge6" class="edge">
<title>Node198&#45;&gt;Node203</title>
<path fill="none" stroke="#191970" d="M289.5328,-54C307.0237,-54 326.9636,-54 346.0017,-54"/>
<polygon fill="#191970" stroke="#191970" points="346.1597,-57.5001 356.1597,-54 346.1596,-50.5001 346.1597,-57.5001"/>
</g>
<!-- Node204 -->
<g id="node8" class="node">
<title>Node204</title>
<g id="a_node8"><a xlink:href="classstatistics_1_1_gaps.html#a2f1d71bafa5e44e5f2c96771cf2a26ed" target="_top" xlink:title="statistics::Gaps::Gaps">
<polygon fill="#ffffff" stroke="#000000" points="365.5,-.5 365.5,-19.5 480.5,-19.5 480.5,-.5 365.5,-.5"/>
<text text-anchor="middle" x="423" y="-7.5" font-family="Helvetica,sans-Serif" font-size="10.00" fill="#000000">statistics::Gaps::Gaps</text>
</a>
</g>
</g>
<!-- Node198&#45;&gt;Node204 -->
<g id="edge7" class="edge">
<title>Node198&#45;&gt;Node204</title>
<path fill="none" stroke="#191970" d="M289.5328,-41.7435C315.5831,-35.5478 347.0658,-28.06 372.9108,-21.9131"/>
<polygon fill="#191970" stroke="#191970" points="373.9604,-25.2612 382.8791,-19.5423 372.3406,-18.4512 373.9604,-25.2612"/>
</g>
<!-- Node200 -->
<g id="node4" class="node">
<title>Node200</title>
<g id="a_node4"><a xlink:href="namespaceutils.html#aac322cd1761fddedec8a5792e358eb32" target="_top" xlink:title="Vector initialization. ">
<polygon fill="#ffffff" stroke="#000000" points="557,-25.5 557,-44.5 633,-44.5 633,-25.5 557,-25.5"/>
<text text-anchor="middle" x="595" y="-32.5" font-family="Helvetica,sans-Serif" font-size="10.00" fill="#000000">utils::initlVect</text>
</a>
</g>
</g>
<!-- Node199&#45;&gt;Node200 -->
<g id="edge3" class="edge">
<title>Node199&#45;&gt;Node200</title>
<path fill="none" stroke="#191970" d="M469.7243,-88.4771C479.2535,-85.8954 489.086,-82.7513 498,-79 515.2831,-71.7268 517.094,-65.1112 534,-57 540.6991,-53.7859 547.9985,-50.7668 555.1434,-48.0557"/>
<polygon fill="#191970" stroke="#191970" points="556.526,-51.277 564.7197,-44.5604 554.1258,-44.7013 556.526,-51.277"/>
</g>
<!-- Node201 -->
<g id="node5" class="node">
<title>Node201</title>
<g id="a_node5"><a xlink:href="classreporting_1_1report_manager.html#a6d122e673144584e0869bd33b8a5c1c6" target="_top" xlink:title="Method to report an Error. &#160;It will be displayed if Level &#160;is equal or higher to VerboseLevel::ERROR...">
<polygon fill="#ffffff" stroke="#000000" points="534,-105 534,-135 656,-135 656,-105 534,-105"/>
<text text-anchor="start" x="542" y="-123" font-family="Helvetica,sans-Serif" font-size="10.00" fill="#000000">reporting::reportManager</text>
<text text-anchor="middle" x="595" y="-112" font-family="Helvetica,sans-Serif" font-size="10.00" fill="#000000">::report</text>
</a>
</g>
</g>
<!-- Node199&#45;&gt;Node201 -->
<g id="edge4" class="edge">
<title>Node199&#45;&gt;Node201</title>
<path fill="none" stroke="#191970" d="M497.4413,-107.5216C506.1857,-108.64 515.0923,-109.7793 523.7909,-110.8919"/>
<polygon fill="#191970" stroke="#191970" points="523.5211,-114.3858 533.8844,-112.1829 524.4093,-107.4424 523.5211,-114.3858"/>
</g>
<!-- Node202 -->
<g id="node6" class="node">
<title>Node202</title>
<g id="a_node6"><a xlink:href="namespaceutils.html#ad50731aeb3c8f79ed8372516210dfc9d" target="_top" xlink:title="Round double to integer method. ">
<polygon fill="#ffffff" stroke="#000000" points="557,-66.5 557,-85.5 633,-85.5 633,-66.5 557,-66.5"/>
<text text-anchor="middle" x="595" y="-73.5" font-family="Helvetica,sans-Serif" font-size="10.00" fill="#000000">utils::roundInt</text>
</a>
</g>
</g>
<!-- Node199&#45;&gt;Node202 -->
<g id="edge5" class="edge">
<title>Node199&#45;&gt;Node202</title>
<path fill="none" stroke="#191970" d="M497.4413,-88.4784C514.1128,-86.346 531.3746,-84.1381 546.6588,-82.1832"/>
<polygon fill="#191970" stroke="#191970" points="547.4176,-85.6147 556.8927,-80.8742 546.5294,-78.6713 547.4176,-85.6147"/>
</g>
<!-- Node204&#45;&gt;Node200 -->
<g id="edge8" class="edge">
<title>Node204&#45;&gt;Node200</title>
<path fill="none" stroke="#191970" d="M480.752,-18.3942C502.2084,-21.5129 526.3039,-25.0151 546.8157,-27.9965"/>
<polygon fill="#191970" stroke="#191970" points="546.4757,-31.4837 556.8752,-29.4586 547.4826,-24.5565 546.4757,-31.4837"/>
</g>
</g>
</svg>
