<?xml version="1.0" encoding="UTF-8" standalone="no"?>
<!DOCTYPE svg PUBLIC "-//W3C//DTD SVG 1.1//EN"
 "http://www.w3.org/Graphics/SVG/1.1/DTD/svg11.dtd">
<!-- Generated by graphviz version 2.40.1 (20161225.0304)
 -->
<!-- Title: statistics::Gaps::printGapsColumns Pages: 1 -->
<svg width="869pt" height="39pt"
 viewBox="0.00 0.00 869.00 39.00" xmlns="http://www.w3.org/2000/svg" xmlns:xlink="http://www.w3.org/1999/xlink">
<g id="graph0" class="graph" transform="scale(1 1) rotate(0) translate(4 35)">
<title>statistics::Gaps::printGapsColumns</title>
<polygon fill="#ffffff" stroke="transparent" points="-4,4 -4,-35 865,-35 865,4 -4,4"/>
<!-- Node244 -->
<g id="node1" class="node">
<title>Node244</title>
<polygon fill="#bfbfbf" stroke="#000000" points="0,-.5 0,-30.5 134,-30.5 134,-.5 0,-.5"/>
<text text-anchor="start" x="8" y="-18.5" font-family="Helvetica,sans-Serif" font-size="10.00" fill="#000000">statistics::Gaps::printGaps</text>
<text text-anchor="middle" x="67" y="-7.5" font-family="Helvetica,sans-Serif" font-size="10.00" fill="#000000">Columns</text>
</g>
<!-- Node245 -->
<g id="node2" class="node">
<title>Node245</title>
<g id="a_node2"><a xlink:href="classstatistics_1_1_manager.html#a48e846c0c59f08e43e5483a8eaa2e586" target="_top" xlink:title="Wrapper to Statistics::Gaps::printGapsColumns() It calls to calculateGapStats() to make sure the info...">
<polygon fill="#ffffff" stroke="#000000" points="170,-.5 170,-30.5 315,-30.5 315,-.5 170,-.5"/>
<text text-anchor="start" x="178" y="-18.5" font-family="Helvetica,sans-Serif" font-size="10.00" fill="#000000">statistics::Manager</text>
<text text-anchor="middle" x="242.5" y="-7.5" font-family="Helvetica,sans-Serif" font-size="10.00" fill="#000000">::printStatisticsGapsColumns</text>
</a>
</g>
</g>
<!-- Node244&#45;&gt;Node245 -->
<g id="edge1" class="edge">
<title>Node244&#45;&gt;Node245</title>
<path fill="none" stroke="#191970" d="M144.3625,-15.5C152.847,-15.5 161.4628,-15.5 169.8868,-15.5"/>
<polygon fill="#191970" stroke="#191970" points="144.1003,-12.0001 134.1002,-15.5 144.1002,-19.0001 144.1003,-12.0001"/>
</g>
<!-- Node246 -->
<g id="node3" class="node">
<title>Node246</title>
<g id="a_node3"><a xlink:href="classtrim_al_manager.html#afc48b86f5ae35b9a5e721b65c58bf610" target="_top" xlink:title="Method to print statistics requested. ">
<polygon fill="#ffffff" stroke="#000000" points="351,-.5 351,-30.5 455,-30.5 455,-.5 351,-.5"/>
<text text-anchor="start" x="359" y="-18.5" font-family="Helvetica,sans-Serif" font-size="10.00" fill="#000000">trimAlManager::print</text>
<text text-anchor="middle" x="403" y="-7.5" font-family="Helvetica,sans-Serif" font-size="10.00" fill="#000000">_statistics</text>
</a>
</g>
</g>
<!-- Node245&#45;&gt;Node246 -->
<g id="edge2" class="edge">
<title>Node245&#45;&gt;Node246</title>
<path fill="none" stroke="#191970" d="M325.3431,-15.5C333.9573,-15.5 342.5316,-15.5 350.6684,-15.5"/>
<polygon fill="#191970" stroke="#191970" points="325.2364,-12.0001 315.2364,-15.5 325.2363,-19.0001 325.2364,-12.0001"/>
</g>
<!-- Node247 -->
<g id="node4" class="node">
<title>Node247</title>
<g id="a_node4"><a xlink:href="classtrim_al_manager.html#a7c641a1feff33d401b4ea5c82e989289" target="_top" xlink:title="trimAlManager::innerPerform">
<polygon fill="#ffffff" stroke="#000000" points="491,-6 491,-25 632,-25 632,-6 491,-6"/>
<text text-anchor="middle" x="561.5" y="-13" font-family="Helvetica,sans-Serif" font-size="10.00" fill="#000000">trimAlManager::innerPerform</text>
</a>
</g>
</g>
<!-- Node246&#45;&gt;Node247 -->
<g id="edge3" class="edge">
<title>Node246&#45;&gt;Node247</title>
<path fill="none" stroke="#191970" d="M465.374,-15.5C473.7302,-15.5 482.3488,-15.5 490.8346,-15.5"/>
<polygon fill="#191970" stroke="#191970" points="465.3381,-12.0001 455.3381,-15.5 465.3381,-19.0001 465.3381,-12.0001"/>
</g>
<!-- Node248 -->
<g id="node5" class="node">
<title>Node248</title>
<g id="a_node5"><a xlink:href="classtrim_al_manager.html#abe8d2841455c644dc9c7d1294b82b00f" target="_top" xlink:title="Method to perform the analysis if all checks have passed. ">
<polygon fill="#ffffff" stroke="#000000" points="668,-6 668,-25 787,-25 787,-6 668,-6"/>
<text text-anchor="middle" x="727.5" y="-13" font-family="Helvetica,sans-Serif" font-size="10.00" fill="#000000">trimAlManager::perform</text>
</a>
</g>
</g>
<!-- Node247&#45;&gt;Node248 -->
<g id="edge4" class="edge">
<title>Node247&#45;&gt;Node248</title>
<path fill="none" stroke="#191970" d="M642.4012,-15.5C650.9677,-15.5 659.564,-15.5 667.8249,-15.5"/>
<polygon fill="#191970" stroke="#191970" points="642.3805,-12.0001 632.3804,-15.5 642.3804,-19.0001 642.3805,-12.0001"/>
</g>
<!-- Node249 -->
<g id="node6" class="node">
<title>Node249</title>
<g id="a_node6"><a xlink:href="trim_al_main_8cpp.html#a0ddf1224851353fc92bfbff6f499fa97" target="_top" xlink:title="main">
<polygon fill="#ffffff" stroke="#000000" points="823,-6 823,-25 861,-25 861,-6 823,-6"/>
<text text-anchor="middle" x="842" y="-13" font-family="Helvetica,sans-Serif" font-size="10.00" fill="#000000">main</text>
</a>
</g>
</g>
<!-- Node248&#45;&gt;Node249 -->
<g id="edge5" class="edge">
<title>Node248&#45;&gt;Node249</title>
<path fill="none" stroke="#191970" d="M797.3198,-15.5C806.6177,-15.5 815.4503,-15.5 822.7697,-15.5"/>
<polygon fill="#191970" stroke="#191970" points="797.0976,-12.0001 787.0976,-15.5 797.0975,-19.0001 797.0976,-12.0001"/>
</g>
</g>
</svg>
