<?xml version="1.0" encoding="UTF-8" standalone="no"?>
<!DOCTYPE svg PUBLIC "-//W3C//DTD SVG 1.1//EN"
 "http://www.w3.org/Graphics/SVG/1.1/DTD/svg11.dtd">
<!-- Generated by graphviz version 2.40.1 (20161225.0304)
 -->
<!-- Title: FormatHandling::BaseFormatHandler::LoadAlignment Pages: 1 -->
<svg width="980pt" height="204pt"
 viewBox="0.00 0.00 980.00 203.50" xmlns="http://www.w3.org/2000/svg" xmlns:xlink="http://www.w3.org/1999/xlink">
<g id="graph0" class="graph" transform="scale(1 1) rotate(0) translate(4 199.5)">
<title>FormatHandling::BaseFormatHandler::LoadAlignment</title>
<polygon fill="#ffffff" stroke="transparent" points="-4,4 -4,-199.5 976,-199.5 976,4 -4,4"/>
<!-- Node19 -->
<g id="node1" class="node">
<title>Node19</title>
<polygon fill="#bfbfbf" stroke="#000000" points="0,-125.5 0,-155.5 145,-155.5 145,-125.5 0,-125.5"/>
<text text-anchor="start" x="8" y="-143.5" font-family="Helvetica,sans-Serif" font-size="10.00" fill="#000000">FormatHandling::BaseFormat</text>
<text text-anchor="middle" x="72.5" y="-132.5" font-family="Helvetica,sans-Serif" font-size="10.00" fill="#000000">Handler::LoadAlignment</text>
</g>
<!-- Node20 -->
<g id="node2" class="node">
<title>Node20</title>
<g id="a_node2"><a xlink:href="class_format_handling_1_1_format_manager.html#ae02b932789b35289dc506e8ed0297695" target="_top" xlink:title="Function that loads an alignment given a file path. It automatically detects the format of the file...">
<polygon fill="#ffffff" stroke="#000000" points="182.5,-101.5 182.5,-131.5 342.5,-131.5 342.5,-101.5 182.5,-101.5"/>
<text text-anchor="start" x="190.5" y="-119.5" font-family="Helvetica,sans-Serif" font-size="10.00" fill="#000000">FormatHandling::FormatManager</text>
<text text-anchor="middle" x="262.5" y="-108.5" font-family="Helvetica,sans-Serif" font-size="10.00" fill="#000000">::loadAlignment</text>
</a>
</g>
</g>
<!-- Node19&#45;&gt;Node20 -->
<g id="edge1" class="edge">
<title>Node19&#45;&gt;Node20</title>
<path fill="none" stroke="#191970" d="M155.2113,-130.0523C164.1997,-128.9169 173.3374,-127.7627 182.2951,-126.6311"/>
<polygon fill="#191970" stroke="#191970" points="154.6266,-126.5982 145.1441,-131.3239 155.5039,-133.543 154.6266,-126.5982"/>
</g>
<!-- Node29 -->
<g id="node11" class="node">
<title>Node29</title>
<g id="a_node11"><a xlink:href="class_format_handling_1_1_format_manager.html#aac5df1a01a25e54aa856ef68085bd72a" target="_top" xlink:title="Function that takes multiple files, loads them and saves in a cumulus of formats, using an outPattern...">
<polygon fill="#ffffff" stroke="#000000" points="181,-160.5 181,-190.5 344,-190.5 344,-160.5 181,-160.5"/>
<text text-anchor="start" x="189" y="-178.5" font-family="Helvetica,sans-Serif" font-size="10.00" fill="#000000">FormatHandling::FormatManager</text>
<text text-anchor="middle" x="262.5" y="-167.5" font-family="Helvetica,sans-Serif" font-size="10.00" fill="#000000">::loadAndSaveMultipleAlignments</text>
</a>
</g>
</g>
<!-- Node19&#45;&gt;Node29 -->
<g id="edge13" class="edge">
<title>Node19&#45;&gt;Node29</title>
<path fill="none" stroke="#191970" d="M155.1413,-155.7234C163.7257,-157.3047 172.447,-158.9113 181.0185,-160.4902"/>
<polygon fill="#191970" stroke="#191970" points="155.6128,-152.2514 145.1441,-153.8818 154.3446,-159.1356 155.6128,-152.2514"/>
</g>
<!-- Node21 -->
<g id="node3" class="node">
<title>Node21</title>
<g id="a_node3"><a xlink:href="read_al_main_8cpp.html#a0ddf1224851353fc92bfbff6f499fa97" target="_top" xlink:title="main">
<polygon fill="#ffffff" stroke="#000000" points="419.5,-176 419.5,-195 457.5,-195 457.5,-176 419.5,-176"/>
<text text-anchor="middle" x="438.5" y="-183" font-family="Helvetica,sans-Serif" font-size="10.00" fill="#000000">main</text>
</a>
</g>
</g>
<!-- Node20&#45;&gt;Node21 -->
<g id="edge2" class="edge">
<title>Node20&#45;&gt;Node21</title>
<path fill="none" stroke="#191970" d="M306.9034,-135.6183C336.9989,-148.5375 372.5997,-163.7299 380,-166.5 393.001,-171.3666 407.8835,-176.1902 419.3839,-179.7594"/>
<polygon fill="#191970" stroke="#191970" points="307.9379,-132.2534 297.3684,-131.5222 305.175,-138.6851 307.9379,-132.2534"/>
</g>
<!-- Node22 -->
<g id="node4" class="node">
<title>Node22</title>
<g id="a_node4"><a xlink:href="classstatistics_1_1_consistency.html#ae8679e43ec228926ac2844af133cc2d5" target="_top" xlink:title="Method to compare a set of MSA, all containing the same sequences and residues. The number of residue...">
<polygon fill="#ffffff" stroke="#000000" points="380,-126.5 380,-156.5 497,-156.5 497,-126.5 380,-126.5"/>
<text text-anchor="start" x="388" y="-144.5" font-family="Helvetica,sans-Serif" font-size="10.00" fill="#000000">statistics::Consistency</text>
<text text-anchor="middle" x="438.5" y="-133.5" font-family="Helvetica,sans-Serif" font-size="10.00" fill="#000000">::perform</text>
</a>
</g>
</g>
<!-- Node20&#45;&gt;Node22 -->
<g id="edge3" class="edge">
<title>Node20&#45;&gt;Node22</title>
<path fill="none" stroke="#191970" d="M352.6029,-129.2987C361.904,-130.6199 371.1738,-131.9366 379.9963,-133.1898"/>
<polygon fill="#191970" stroke="#191970" points="352.9104,-125.8073 342.5176,-127.8661 351.9259,-132.7378 352.9104,-125.8073"/>
</g>
<!-- Node26 -->
<g id="node8" class="node">
<title>Node26</title>
<g id="a_node8"><a xlink:href="classtrim_al_manager.html#a9580aa82de8aba6794647a36c0416a33" target="_top" xlink:title="Method to parse the input file argument. ">
<polygon fill="#ffffff" stroke="#000000" points="549.5,-94 549.5,-113 688.5,-113 688.5,-94 549.5,-94"/>
<text text-anchor="middle" x="619" y="-101" font-family="Helvetica,sans-Serif" font-size="10.00" fill="#000000">trimAlManager::in_argument</text>
</a>
</g>
</g>
<!-- Node20&#45;&gt;Node26 -->
<g id="edge7" class="edge">
<title>Node20&#45;&gt;Node26</title>
<path fill="none" stroke="#191970" d="M352.5326,-113.2169C413.6443,-110.9884 493.2538,-108.0854 549.4914,-106.0347"/>
<polygon fill="#191970" stroke="#191970" points="352.3713,-109.7204 342.5056,-113.5825 352.6265,-116.7157 352.3713,-109.7204"/>
</g>
<!-- Node27 -->
<g id="node9" class="node">
<title>Node27</title>
<g id="a_node9"><a xlink:href="classtrim_al_manager.html#a63dad1ad106b0fa09351cd5981b37aeb" target="_top" xlink:title="Method to parse the force select argument. ">
<polygon fill="#ffffff" stroke="#000000" points="565.5,-44.5 565.5,-74.5 672.5,-74.5 672.5,-44.5 565.5,-44.5"/>
<text text-anchor="start" x="573.5" y="-62.5" font-family="Helvetica,sans-Serif" font-size="10.00" fill="#000000">trimAlManager::force</text>
<text text-anchor="middle" x="619" y="-51.5" font-family="Helvetica,sans-Serif" font-size="10.00" fill="#000000">_select_argument</text>
</a>
</g>
</g>
<!-- Node20&#45;&gt;Node27 -->
<g id="edge9" class="edge">
<title>Node20&#45;&gt;Node27</title>
<path fill="none" stroke="#191970" d="M352.6499,-102.0861C419.7102,-91.364 508.995,-77.0885 565.2439,-68.0949"/>
<polygon fill="#191970" stroke="#191970" points="351.8275,-98.6731 342.5056,-103.7081 352.9328,-105.5853 351.8275,-98.6731"/>
</g>
<!-- Node28 -->
<g id="node10" class="node">
<title>Node28</title>
<g id="a_node10"><a xlink:href="classtrim_al_manager.html#ae49bc2cb7f90419296da65a23df39c8d" target="_top" xlink:title="Method to parse the backtranslation argument. ">
<polygon fill="#ffffff" stroke="#000000" points="385,-.5 385,-30.5 492,-30.5 492,-.5 385,-.5"/>
<text text-anchor="start" x="393" y="-18.5" font-family="Helvetica,sans-Serif" font-size="10.00" fill="#000000">trimAlManager::back</text>
<text text-anchor="middle" x="438.5" y="-7.5" font-family="Helvetica,sans-Serif" font-size="10.00" fill="#000000">_trans_argument</text>
</a>
</g>
</g>
<!-- Node20&#45;&gt;Node28 -->
<g id="edge11" class="edge">
<title>Node20&#45;&gt;Node28</title>
<path fill="none" stroke="#191970" d="M295.0105,-96.0196C318.4012,-81.4907 350.836,-61.7633 380,-45.5 389.0715,-40.4413 399.0856,-35.1883 408.226,-30.5183"/>
<polygon fill="#191970" stroke="#191970" points="293.1494,-93.0554 286.5143,-101.3153 296.8522,-98.9959 293.1494,-93.0554"/>
</g>
<!-- Node23 -->
<g id="node5" class="node">
<title>Node23</title>
<g id="a_node5"><a xlink:href="classtrim_al_manager.html#a12b7cef964ef258fe7621da44867c51f" target="_top" xlink:title="Method to check if multiple files comparison has been set correctly. It also perform some calculation...">
<polygon fill="#ffffff" stroke="#000000" points="533,-132 533,-151 705,-151 705,-132 533,-132"/>
<text text-anchor="middle" x="619" y="-139" font-family="Helvetica,sans-Serif" font-size="10.00" fill="#000000">trimAlManager::performCompareset</text>
</a>
</g>
</g>
<!-- Node22&#45;&gt;Node23 -->
<g id="edge4" class="edge">
<title>Node22&#45;&gt;Node23</title>
<path fill="none" stroke="#191970" d="M507.185,-141.5C515.575,-141.5 524.2291,-141.5 532.8336,-141.5"/>
<polygon fill="#191970" stroke="#191970" points="507.1032,-138.0001 497.1032,-141.5 507.1031,-145.0001 507.1032,-138.0001"/>
</g>
<!-- Node24 -->
<g id="node6" class="node">
<title>Node24</title>
<g id="a_node6"><a xlink:href="classtrim_al_manager.html#af140d97b6071a83930818030ac74b641" target="_top" xlink:title="Method to parse arguments into usable structure in trimal. ">
<polygon fill="#ffffff" stroke="#000000" points="741,-72 741,-91 898,-91 898,-72 741,-72"/>
<text text-anchor="middle" x="819.5" y="-79" font-family="Helvetica,sans-Serif" font-size="10.00" fill="#000000">trimAlManager::parseArguments</text>
</a>
</g>
</g>
<!-- Node23&#45;&gt;Node24 -->
<g id="edge5" class="edge">
<title>Node23&#45;&gt;Node24</title>
<path fill="none" stroke="#191970" d="M677.4387,-129.6343C686.7087,-127.4522 696.1524,-125.0503 705,-122.5 736.8528,-113.3183 772.7012,-99.9779 795.664,-91.033"/>
<polygon fill="#191970" stroke="#191970" points="676.4516,-126.2696 667.4845,-131.9124 678.0133,-133.0932 676.4516,-126.2696"/>
</g>
<!-- Node25 -->
<g id="node7" class="node">
<title>Node25</title>
<g id="a_node7"><a xlink:href="trim_al_main_8cpp.html#a0ddf1224851353fc92bfbff6f499fa97" target="_top" xlink:title="main">
<polygon fill="#ffffff" stroke="#000000" points="934,-72 934,-91 972,-91 972,-72 934,-72"/>
<text text-anchor="middle" x="953" y="-79" font-family="Helvetica,sans-Serif" font-size="10.00" fill="#000000">main</text>
</a>
</g>
</g>
<!-- Node24&#45;&gt;Node25 -->
<g id="edge6" class="edge">
<title>Node24&#45;&gt;Node25</title>
<path fill="none" stroke="#191970" d="M908.5766,-81.5C917.8353,-81.5 926.4462,-81.5 933.5746,-81.5"/>
<polygon fill="#191970" stroke="#191970" points="908.3153,-78.0001 898.3152,-81.5 908.3152,-85.0001 908.3153,-78.0001"/>
</g>
<!-- Node26&#45;&gt;Node24 -->
<g id="edge8" class="edge">
<title>Node26&#45;&gt;Node24</title>
<path fill="none" stroke="#191970" d="M698.5673,-94.7694C712.4641,-93.2446 726.9152,-91.6589 740.7887,-90.1366"/>
<polygon fill="#191970" stroke="#191970" points="698.121,-91.2973 688.5625,-95.8672 698.8846,-98.2555 698.121,-91.2973"/>
</g>
<!-- Node27&#45;&gt;Node24 -->
<g id="edge10" class="edge">
<title>Node27&#45;&gt;Node24</title>
<path fill="none" stroke="#191970" d="M682.7518,-66.4952C701.1777,-68.517 721.5087,-70.7478 740.7337,-72.8573"/>
<polygon fill="#191970" stroke="#191970" points="683.0524,-63.0073 672.7303,-65.3956 682.2889,-69.9655 683.0524,-63.0073"/>
</g>
<!-- Node28&#45;&gt;Node24 -->
<g id="edge12" class="edge">
<title>Node28&#45;&gt;Node24</title>
<path fill="none" stroke="#191970" d="M502.2976,-14.4C556.8247,-14.7945 637.0132,-18.5569 705,-34.5 740.5648,-42.8401 779.3872,-60.8295 801.4574,-71.9749"/>
<polygon fill="#191970" stroke="#191970" points="502.0974,-10.8994 492.0848,-14.3634 502.0722,-17.8994 502.0974,-10.8994"/>
</g>
<!-- Node29&#45;&gt;Node21 -->
<g id="edge14" class="edge">
<title>Node29&#45;&gt;Node21</title>
<path fill="none" stroke="#191970" d="M354.2697,-180.7142C378.9659,-182.1174 403.2655,-183.498 419.3693,-184.413"/>
<polygon fill="#191970" stroke="#191970" points="354.2423,-177.2071 344.0598,-180.1341 353.8451,-184.1958 354.2423,-177.2071"/>
</g>
</g>
</svg>
