<?xml version="1.0" encoding="UTF-8" standalone="no"?>
<!DOCTYPE svg PUBLIC "-//W3C//DTD SVG 1.1//EN"
 "http://www.w3.org/Graphics/SVG/1.1/DTD/svg11.dtd">
<!-- Generated by graphviz version 2.38.0 (20140413.2041)
 -->
<!-- Title: trimAlManager::check_clusters_incompatibilities Pages: 1 -->
<svg width="329pt" height="78pt"
 viewBox="0.00 0.00 329.00 77.50" xmlns="http://www.w3.org/2000/svg" xmlns:xlink="http://www.w3.org/1999/xlink">
<g id="graph0" class="graph" transform="scale(1 1) rotate(0) translate(4 73.5)">
<title>trimAlManager::check_clusters_incompatibilities</title>
<polygon fill="white" stroke="none" points="-4,4 -4,-73.5 325,-73.5 325,4 -4,4"/>
<!-- Node102 -->
<g id="node1" class="node"><title>Node102</title>
<polygon fill="#bfbfbf" stroke="black" points="0,-22.5 0,-52.5 131,-52.5 131,-22.5 0,-22.5"/>
<text text-anchor="start" x="8" y="-40.5" font-family="Helvetica,sans-Serif" font-size="10.00">trimAlManager::check</text>
<text text-anchor="middle" x="65.5" y="-29.5" font-family="Helvetica,sans-Serif" font-size="10.00">_clusters_incompatibilities</text>
</g>
<!-- Node103 -->
<g id="node2" class="node"><title>Node103</title>
<g id="a_node2"><a xlink:href="classnew_alignment.html#acfd820148c267a3d698a39758ecf190d" target="_top" xlink:title="Number of sequences getter. ">
<polygon fill="white" stroke="black" points="167,-50 167,-69 321,-69 321,-50 167,-50"/>
<text text-anchor="middle" x="244" y="-57" font-family="Helvetica,sans-Serif" font-size="10.00">newAlignment::getNumSpecies</text>
</a>
</g>
</g>
<!-- Node102&#45;&gt;Node103 -->
<g id="edge1" class="edge"><title>Node102&#45;&gt;Node103</title>
<path fill="none" stroke="midnightblue" d="M131.22,-45.5671C139.564,-46.6071 148.211,-47.685 156.832,-48.7595"/>
<polygon fill="midnightblue" stroke="midnightblue" points="156.563,-52.253 166.92,-50.0169 157.429,-45.3068 156.563,-52.253"/>
</g>
<!-- Node104 -->
<g id="node3" class="node"><title>Node104</title>
<g id="a_node3"><a xlink:href="class____internal_report_1_1____report_system.html#acd358cbc59625c6e2f47e0b5f825400d" target="_top" xlink:title="Method to report an Error. &#160;It will be displayed if Level &#160;is equal or higher to VerboseLevel::ERROR...">
<polygon fill="white" stroke="black" points="186,-0.5 186,-30.5 302,-30.5 302,-0.5 186,-0.5"/>
<text text-anchor="start" x="194" y="-18.5" font-family="Helvetica,sans-Serif" font-size="10.00">__internalReport::</text>
<text text-anchor="middle" x="244" y="-7.5" font-family="Helvetica,sans-Serif" font-size="10.00">__reportSystem::report</text>
</a>
</g>
</g>
<!-- Node102&#45;&gt;Node104 -->
<g id="edge2" class="edge"><title>Node102&#45;&gt;Node104</title>
<path fill="none" stroke="midnightblue" d="M131.22,-29.4329C145.769,-27.6195 161.238,-25.6913 175.882,-23.866"/>
<polygon fill="midnightblue" stroke="midnightblue" points="176.377,-27.3315 185.867,-22.6214 175.511,-20.3853 176.377,-27.3315"/>
</g>
</g>
</svg>
