<?xml version="1.0" encoding="UTF-8" standalone="no"?>
<!DOCTYPE svg PUBLIC "-//W3C//DTD SVG 1.1//EN"
 "http://www.w3.org/Graphics/SVG/1.1/DTD/svg11.dtd">
<!-- Generated by graphviz version 2.40.1 (20161225.0304)
 -->
<!-- Title: FormatHandling::FormatManager::saveAlignment Pages: 1 -->
<svg width="339pt" height="154pt"
 viewBox="0.00 0.00 339.00 153.50" xmlns="http://www.w3.org/2000/svg" xmlns:xlink="http://www.w3.org/1999/xlink">
<g id="graph0" class="graph" transform="scale(1 1) rotate(0) translate(4 149.5)">
<title>FormatHandling::FormatManager::saveAlignment</title>
<polygon fill="#ffffff" stroke="transparent" points="-4,4 -4,-149.5 335,-149.5 335,4 -4,4"/>
<!-- Node55 -->
<g id="node1" class="node">
<title>Node55</title>
<g id="a_node1"><a xlink:title="Function to save an alignment to a file. It searches among the available_states one that can write th...">
<polygon fill="#bfbfbf" stroke="#000000" points="0,-63.5 0,-93.5 160,-93.5 160,-63.5 0,-63.5"/>
<text text-anchor="start" x="8" y="-81.5" font-family="Helvetica,sans-Serif" font-size="10.00" fill="#000000">FormatHandling::FormatManager</text>
<text text-anchor="middle" x="80" y="-70.5" font-family="Helvetica,sans-Serif" font-size="10.00" fill="#000000">::saveAlignment</text>
</a>
</g>
</g>
<!-- Node56 -->
<g id="node2" class="node">
<title>Node56</title>
<g id="a_node2"><a xlink:href="namespaceutils.html#a40640e1942f00797e9fe8284e8fbdb14" target="_top" xlink:title="Maximum of two numbers method.">
<polygon fill="#ffffff" stroke="#000000" points="234,-126 234,-145 293,-145 293,-126 234,-126"/>
<text text-anchor="middle" x="263.5" y="-133" font-family="Helvetica,sans-Serif" font-size="10.00" fill="#000000">utils::max</text>
</a>
</g>
</g>
<!-- Node55&#45;&gt;Node56 -->
<g id="edge1" class="edge">
<title>Node55&#45;&gt;Node56</title>
<path fill="none" stroke="#191970" d="M124.4791,-93.5575C146.0117,-100.7221 172.2799,-109.2799 196,-116.5 205.0661,-119.2596 214.8599,-122.0977 224.1005,-124.7115"/>
<polygon fill="#191970" stroke="#191970" points="223.2762,-128.1153 233.8498,-127.4453 225.1662,-121.3752 223.2762,-128.1153"/>
</g>
<!-- Node57 -->
<g id="node3" class="node">
<title>Node57</title>
<g id="a_node3"><a xlink:href="namespaceutils.html#ab0cb109dc7e12b42abd4cba86f7d8e78" target="_top" xlink:title="Function that replaces a substring with another substring in a string. It makes a copy of the origina...">
<polygon fill="#ffffff" stroke="#000000" points="212.5,-88 212.5,-107 314.5,-107 314.5,-88 212.5,-88"/>
<text text-anchor="middle" x="263.5" y="-95" font-family="Helvetica,sans-Serif" font-size="10.00" fill="#000000">utils::ReplaceString</text>
</a>
</g>
</g>
<!-- Node55&#45;&gt;Node57 -->
<g id="edge2" class="edge">
<title>Node55&#45;&gt;Node57</title>
<path fill="none" stroke="#191970" d="M160.2188,-86.806C174.3593,-88.2702 188.871,-89.7727 202.3817,-91.1717"/>
<polygon fill="#191970" stroke="#191970" points="202.1882,-94.6703 212.4955,-92.2189 202.9092,-87.7075 202.1882,-94.6703"/>
</g>
<!-- Node58 -->
<g id="node4" class="node">
<title>Node58</title>
<g id="a_node4"><a xlink:href="namespaceutils.html#a6000246220e801bf6b1e6a553d7af13a" target="_top" xlink:title="Function that replaces a substring with another substring in a string. It does not make a copy of the...">
<polygon fill="#ffffff" stroke="#000000" points="196,-50 196,-69 331,-69 331,-50 196,-50"/>
<text text-anchor="middle" x="263.5" y="-57" font-family="Helvetica,sans-Serif" font-size="10.00" fill="#000000">utils::ReplaceStringInPlace</text>
</a>
</g>
</g>
<!-- Node55&#45;&gt;Node58 -->
<g id="edge3" class="edge">
<title>Node55&#45;&gt;Node58</title>
<path fill="none" stroke="#191970" d="M160.2188,-70.194C168.652,-69.3208 177.2172,-68.4339 185.6234,-67.5635"/>
<polygon fill="#191970" stroke="#191970" points="186.1924,-71.0234 195.7787,-66.512 185.4714,-64.0606 186.1924,-71.0234"/>
</g>
<!-- Node59 -->
<g id="node5" class="node">
<title>Node59</title>
<g id="a_node5"><a xlink:href="classreporting_1_1report_manager.html#a6d122e673144584e0869bd33b8a5c1c6" target="_top" xlink:title="Method to report an Error. &#160;It will be displayed if Level &#160;is equal or higher to VerboseLevel::ERROR.">
<polygon fill="#ffffff" stroke="#000000" points="202.5,-.5 202.5,-30.5 324.5,-30.5 324.5,-.5 202.5,-.5"/>
<text text-anchor="start" x="210.5" y="-18.5" font-family="Helvetica,sans-Serif" font-size="10.00" fill="#000000">reporting::reportManager</text>
<text text-anchor="middle" x="263.5" y="-7.5" font-family="Helvetica,sans-Serif" font-size="10.00" fill="#000000">::report</text>
</a>
</g>
</g>
<!-- Node55&#45;&gt;Node59 -->
<g id="edge4" class="edge">
<title>Node55&#45;&gt;Node59</title>
<path fill="none" stroke="#191970" d="M123.9528,-63.4099C149.7328,-54.559 182.4977,-43.31 209.7998,-33.9366"/>
<polygon fill="#191970" stroke="#191970" points="211.2666,-37.1336 219.5882,-30.576 208.9935,-30.5129 211.2666,-37.1336"/>
</g>
</g>
</svg>
