<?xml version="1.0" encoding="UTF-8" standalone="no"?>
<!DOCTYPE svg PUBLIC "-//W3C//DTD SVG 1.1//EN"
 "http://www.w3.org/Graphics/SVG/1.1/DTD/svg11.dtd">
<!-- Generated by graphviz version 2.40.1 (20161225.0304)
 -->
<!-- Title: statistics::Similarity::applyWindow Pages: 1 -->
<svg width="768pt" height="272pt"
 viewBox="0.00 0.00 768.00 271.65" xmlns="http://www.w3.org/2000/svg" xmlns:xlink="http://www.w3.org/1999/xlink">
<g id="graph0" class="graph" transform="scale(1 1) rotate(0) translate(4 267.6469)">
<title>statistics::Similarity::applyWindow</title>
<polygon fill="#ffffff" stroke="transparent" points="-4,4 -4,-267.6469 764,-267.6469 764,4 -4,4"/>
<!-- Node7 -->
<g id="node1" class="node">
<title>Node7</title>
<g id="a_node1"><a xlink:title="Allows us compute the conservationWindow&#39;s values.">
<polygon fill="#bfbfbf" stroke="#000000" points="0,-33.1469 0,-63.1469 103,-63.1469 103,-33.1469 0,-33.1469"/>
<text text-anchor="start" x="8" y="-51.1469" font-family="Helvetica,sans-Serif" font-size="10.00" fill="#000000">statistics::Similarity</text>
<text text-anchor="middle" x="51.5" y="-40.1469" font-family="Helvetica,sans-Serif" font-size="10.00" fill="#000000">::applyWindow</text>
</a>
</g>
</g>
<!-- Node8 -->
<g id="node2" class="node">
<title>Node8</title>
<g id="a_node2"><a xlink:href="classstatistics_1_1_similarity.html#ae69ec0e79912ae23c8cfe97358c4794d" target="_top" xlink:title="Method to calculate the similarity values of a alignment matrix.">
<polygon fill="#ffffff" stroke="#000000" points="139,-96.1469 139,-126.1469 242,-126.1469 242,-96.1469 139,-96.1469"/>
<text text-anchor="start" x="147" y="-114.1469" font-family="Helvetica,sans-Serif" font-size="10.00" fill="#000000">statistics::Similarity</text>
<text text-anchor="middle" x="190.5" y="-103.1469" font-family="Helvetica,sans-Serif" font-size="10.00" fill="#000000">::calculateVectors</text>
</a>
</g>
</g>
<!-- Node7&#45;&gt;Node8 -->
<g id="edge1" class="edge">
<title>Node7&#45;&gt;Node8</title>
<path fill="none" stroke="#191970" d="M84.794,-63.2369C103.6532,-71.7847 127.4473,-82.569 147.6831,-91.7407"/>
<polygon fill="#191970" stroke="#191970" points="146.4429,-95.0212 156.996,-95.9616 149.3327,-88.6455 146.4429,-95.0212"/>
</g>
<!-- Node15 -->
<g id="node9" class="node">
<title>Node15</title>
<g id="a_node9"><a xlink:href="classreporting_1_1report_manager.html#a6d122e673144584e0869bd33b8a5c1c6" target="_top" xlink:title="Method to report an Error. &#160;It will be displayed if Level &#160;is equal or higher to VerboseLevel::ERROR.">
<polygon fill="#ffffff" stroke="#000000" points="633,-17.1469 633,-47.1469 755,-47.1469 755,-17.1469 633,-17.1469"/>
<text text-anchor="start" x="641" y="-35.1469" font-family="Helvetica,sans-Serif" font-size="10.00" fill="#000000">reporting::reportManager</text>
<text text-anchor="middle" x="694" y="-24.1469" font-family="Helvetica,sans-Serif" font-size="10.00" fill="#000000">::report</text>
</a>
</g>
</g>
<!-- Node7&#45;&gt;Node15 -->
<g id="edge18" class="edge">
<title>Node7&#45;&gt;Node15</title>
<path fill="none" stroke="#191970" d="M103.0713,-37.5356C199.3944,-19.202 413.0861,14.4591 592,-7.1469 605.4145,-8.7668 619.6103,-11.544 633.0109,-14.6726"/>
<polygon fill="#191970" stroke="#191970" points="632.5335,-18.1584 643.0773,-17.1202 634.1873,-11.3565 632.5335,-18.1584"/>
</g>
<!-- Node9 -->
<g id="node3" class="node">
<title>Node9</title>
<g id="a_node3"><a xlink:href="classstatistics_1_1_similarity.html#a75bd235b3207235eefa7b52dff063c76" target="_top" xlink:title="Computes the matrix identity between alignment&#39;s columns.">
<polygon fill="#ffffff" stroke="#000000" points="281.5,-233.1469 281.5,-263.1469 402.5,-263.1469 402.5,-233.1469 281.5,-233.1469"/>
<text text-anchor="start" x="289.5" y="-251.1469" font-family="Helvetica,sans-Serif" font-size="10.00" fill="#000000">statistics::Similarity</text>
<text text-anchor="middle" x="342" y="-240.1469" font-family="Helvetica,sans-Serif" font-size="10.00" fill="#000000">::calculateMatrixIdentity</text>
</a>
</g>
</g>
<!-- Node8&#45;&gt;Node9 -->
<g id="edge2" class="edge">
<title>Node8&#45;&gt;Node9</title>
<path fill="none" stroke="#191970" d="M199.8074,-126.4441C214.1828,-149.0179 243.736,-191.4539 278,-218.1469 282.7132,-221.8186 287.9485,-225.1788 293.3369,-228.2132"/>
<polygon fill="#191970" stroke="#191970" points="292.0028,-231.4656 302.4845,-233.0098 295.2535,-225.2662 292.0028,-231.4656"/>
</g>
<!-- Node10 -->
<g id="node4" class="node">
<title>Node10</title>
<g id="a_node4"><a xlink:href="class_alignment.html#a1bc7622776f3935f6cb9d3c895e43a29" target="_top" xlink:title="Alignment type getter. &#160;&#160;See SequenceTypes.">
<polygon fill="#ffffff" stroke="#000000" points="444.5,-220.6469 444.5,-239.6469 589.5,-239.6469 589.5,-220.6469 444.5,-220.6469"/>
<text text-anchor="middle" x="517" y="-227.6469" font-family="Helvetica,sans-Serif" font-size="10.00" fill="#000000">Alignment::getAlignmentType</text>
</a>
</g>
</g>
<!-- Node8&#45;&gt;Node10 -->
<g id="edge14" class="edge">
<title>Node8&#45;&gt;Node10</title>
<path fill="none" stroke="#191970" d="M203.7104,-126.2775C219.5665,-143.4059 247.8177,-170.7879 278,-185.1469 326.9437,-208.4314 386.8977,-219.6793 434.5133,-225.107"/>
<polygon fill="#191970" stroke="#191970" points="434.1612,-228.5893 444.4783,-226.1792 434.9101,-221.6294 434.1612,-228.5893"/>
</g>
<!-- Node12 -->
<g id="node6" class="node">
<title>Node12</title>
<g id="a_node6"><a xlink:href="classstatistics_1_1_manager.html#a1969a416d3020d25daa56de6c5e305db" target="_top" xlink:title="Method to handle gap stat calculation It checks if the gaps submodule has been created,...">
<polygon fill="#ffffff" stroke="#000000" points="290.5,-145.1469 290.5,-175.1469 393.5,-175.1469 393.5,-145.1469 290.5,-145.1469"/>
<text text-anchor="start" x="298.5" y="-163.1469" font-family="Helvetica,sans-Serif" font-size="10.00" fill="#000000">statistics::Manager</text>
<text text-anchor="middle" x="342" y="-152.1469" font-family="Helvetica,sans-Serif" font-size="10.00" fill="#000000">::calculateGapStats</text>
</a>
</g>
</g>
<!-- Node8&#45;&gt;Node12 -->
<g id="edge5" class="edge">
<title>Node8&#45;&gt;Node12</title>
<path fill="none" stroke="#191970" d="M237.1912,-126.2483C252.5269,-131.2084 269.7356,-136.7742 285.7066,-141.9397"/>
<polygon fill="#191970" stroke="#191970" points="284.8712,-145.348 295.463,-145.0953 287.0254,-138.6877 284.8712,-145.348"/>
</g>
<!-- Node18 -->
<g id="node12" class="node">
<title>Node18</title>
<g id="a_node12"><a xlink:href="classstatistics_1_1_gaps.html#ab5b60db326475f8adc68b130e22b3963" target="_top" xlink:title=" ">
<polygon fill="#ffffff" stroke="#000000" points="278,-96.1469 278,-126.1469 406,-126.1469 406,-96.1469 278,-96.1469"/>
<text text-anchor="start" x="286" y="-114.1469" font-family="Helvetica,sans-Serif" font-size="10.00" fill="#000000">statistics::Gaps::getGaps</text>
<text text-anchor="middle" x="342" y="-103.1469" font-family="Helvetica,sans-Serif" font-size="10.00" fill="#000000">Window</text>
</a>
</g>
</g>
<!-- Node8&#45;&gt;Node18 -->
<g id="edge11" class="edge">
<title>Node8&#45;&gt;Node18</title>
<path fill="none" stroke="#191970" d="M242.214,-111.1469C250.4698,-111.1469 259.1506,-111.1469 267.8044,-111.1469"/>
<polygon fill="#191970" stroke="#191970" points="267.9237,-114.647 277.9236,-111.1469 267.9236,-107.647 267.9237,-114.647"/>
</g>
<!-- Node20 -->
<g id="node14" class="node">
<title>Node20</title>
<g id="a_node14"><a xlink:href="namespaceutils.html#a6286fde6f4dd58ef0cfa9d55341b72f8" target="_top" xlink:title=" ">
<polygon fill="#ffffff" stroke="#000000" points="304.5,-57.6469 304.5,-76.6469 379.5,-76.6469 379.5,-57.6469 304.5,-57.6469"/>
<text text-anchor="middle" x="342" y="-64.6469" font-family="Helvetica,sans-Serif" font-size="10.00" fill="#000000">utils::toUpper</text>
</a>
</g>
</g>
<!-- Node8&#45;&gt;Node20 -->
<g id="edge15" class="edge">
<title>Node8&#45;&gt;Node20</title>
<path fill="none" stroke="#191970" d="M242.214,-96.1276C260.7013,-90.7584 281.3194,-84.7703 298.993,-79.6374"/>
<polygon fill="#191970" stroke="#191970" points="300.3932,-82.8754 309.0202,-76.7251 298.4408,-76.1531 300.3932,-82.8754"/>
</g>
<!-- Node21 -->
<g id="node15" class="node">
<title>Node21</title>
<g id="a_node15"><a xlink:href="classstatistics_1_1similarity_matrix.html#a2a17eb464ec28ba83edbcbe271e7ff62" target="_top" xlink:title="Method to get the similarity distance between two residues, A and B Characters provided must be both ...">
<polygon fill="#ffffff" stroke="#000000" points="453,-17.1469 453,-47.1469 581,-47.1469 581,-17.1469 453,-17.1469"/>
<text text-anchor="start" x="461" y="-35.1469" font-family="Helvetica,sans-Serif" font-size="10.00" fill="#000000">statistics::similarityMatrix</text>
<text text-anchor="middle" x="517" y="-24.1469" font-family="Helvetica,sans-Serif" font-size="10.00" fill="#000000">::getDistance</text>
</a>
</g>
</g>
<!-- Node8&#45;&gt;Node21 -->
<g id="edge16" class="edge">
<title>Node8&#45;&gt;Node21</title>
<path fill="none" stroke="#191970" d="M205.6872,-96.0557C222.0064,-80.9159 249.4668,-58.4149 278,-48.1469 330.8785,-29.1178 394.5294,-25.7204 442.8444,-26.7539"/>
<polygon fill="#191970" stroke="#191970" points="442.8175,-30.2545 452.9122,-27.0377 443.0148,-23.2572 442.8175,-30.2545"/>
</g>
<!-- Node9&#45;&gt;Node10 -->
<g id="edge3" class="edge">
<title>Node9&#45;&gt;Node10</title>
<path fill="none" stroke="#191970" d="M402.7154,-241.9019C412.8896,-240.8554 423.5986,-239.7539 434.2147,-238.6619"/>
<polygon fill="#191970" stroke="#191970" points="434.7547,-242.1249 444.3441,-237.62 434.0384,-235.1617 434.7547,-242.1249"/>
</g>
<!-- Node11 -->
<g id="node5" class="node">
<title>Node11</title>
<g id="a_node5"><a xlink:href="namespaceutils.html#aab52f9515717f06cafd6ab7fe2ebdcef" target="_top" xlink:title="Checks an alignment type.">
<polygon fill="#ffffff" stroke="#000000" points="628,-220.6469 628,-239.6469 760,-239.6469 760,-220.6469 628,-220.6469"/>
<text text-anchor="middle" x="694" y="-227.6469" font-family="Helvetica,sans-Serif" font-size="10.00" fill="#000000">utils::checkAlignmentType</text>
</a>
</g>
</g>
<!-- Node10&#45;&gt;Node11 -->
<g id="edge4" class="edge">
<title>Node10&#45;&gt;Node11</title>
<path fill="none" stroke="#191970" d="M589.5034,-230.1469C598.8282,-230.1469 608.3981,-230.1469 617.7802,-230.1469"/>
<polygon fill="#191970" stroke="#191970" points="617.8666,-233.647 627.8666,-230.1469 617.8665,-226.647 617.8666,-233.647"/>
</g>
<!-- Node13 -->
<g id="node7" class="node">
<title>Node13</title>
<g id="a_node7"><a xlink:href="classstatistics_1_1_gaps.html#aee36b772767467cdba2061df2305e85d" target="_top" xlink:title=" ">
<polygon fill="#ffffff" stroke="#000000" points="442,-115.6469 442,-134.6469 592,-134.6469 592,-115.6469 442,-115.6469"/>
<text text-anchor="middle" x="517" y="-122.6469" font-family="Helvetica,sans-Serif" font-size="10.00" fill="#000000">statistics::Gaps::applyWindow</text>
</a>
</g>
</g>
<!-- Node12&#45;&gt;Node13 -->
<g id="edge6" class="edge">
<title>Node12&#45;&gt;Node13</title>
<path fill="none" stroke="#191970" d="M393.5593,-149.835C414.2742,-145.692 438.2419,-140.8985 459.5159,-136.6437"/>
<polygon fill="#191970" stroke="#191970" points="460.2778,-140.0607 469.3972,-134.6674 458.905,-133.1966 460.2778,-140.0607"/>
</g>
<!-- Node17 -->
<g id="node11" class="node">
<title>Node17</title>
<g id="a_node11"><a xlink:href="classstatistics_1_1_gaps.html#aa3526494d5100e062daa4afba755d0b1" target="_top" xlink:title=" ">
<polygon fill="#ffffff" stroke="#000000" points="450.5,-154.1469 450.5,-184.1469 583.5,-184.1469 583.5,-154.1469 450.5,-154.1469"/>
<text text-anchor="start" x="458.5" y="-172.1469" font-family="Helvetica,sans-Serif" font-size="10.00" fill="#000000">statistics::Gaps::Calculate</text>
<text text-anchor="middle" x="517" y="-161.1469" font-family="Helvetica,sans-Serif" font-size="10.00" fill="#000000">Vectors</text>
</a>
</g>
</g>
<!-- Node12&#45;&gt;Node17 -->
<g id="edge10" class="edge">
<title>Node12&#45;&gt;Node17</title>
<path fill="none" stroke="#191970" d="M393.5593,-162.7985C408.1154,-163.5471 424.2776,-164.3783 439.9828,-165.186"/>
<polygon fill="#191970" stroke="#191970" points="440.0493,-168.6939 450.2159,-165.7123 440.4089,-161.7032 440.0493,-168.6939"/>
</g>
<!-- Node14 -->
<g id="node8" class="node">
<title>Node14</title>
<g id="a_node8"><a xlink:href="namespaceutils.html#aac322cd1761fddedec8a5792e358eb32" target="_top" xlink:title="Vector initialization.">
<polygon fill="#ffffff" stroke="#000000" points="656,-134.6469 656,-153.6469 732,-153.6469 732,-134.6469 656,-134.6469"/>
<text text-anchor="middle" x="694" y="-141.6469" font-family="Helvetica,sans-Serif" font-size="10.00" fill="#000000">utils::initlVect</text>
</a>
</g>
</g>
<!-- Node13&#45;&gt;Node14 -->
<g id="edge7" class="edge">
<title>Node13&#45;&gt;Node14</title>
<path fill="none" stroke="#191970" d="M592.0639,-133.2046C610.3223,-135.1645 629.3618,-137.2083 645.9757,-138.9917"/>
<polygon fill="#191970" stroke="#191970" points="645.6616,-142.478 655.9781,-140.0654 646.4088,-135.518 645.6616,-142.478"/>
</g>
<!-- Node13&#45;&gt;Node15 -->
<g id="edge8" class="edge">
<title>Node13&#45;&gt;Node15</title>
<path fill="none" stroke="#191970" d="M563.1479,-115.6468C572.91,-112.8689 582.9815,-109.4024 592,-105.1469 620.6053,-91.6489 649.5865,-69.9676 669.3083,-53.7344"/>
<polygon fill="#191970" stroke="#191970" points="671.7485,-56.256 677.1655,-47.1506 667.2527,-50.8906 671.7485,-56.256"/>
</g>
<!-- Node16 -->
<g id="node10" class="node">
<title>Node16</title>
<g id="a_node10"><a xlink:href="namespaceutils.html#ad50731aeb3c8f79ed8372516210dfc9d" target="_top" xlink:title="Round double to integer method.">
<polygon fill="#ffffff" stroke="#000000" points="656,-96.6469 656,-115.6469 732,-115.6469 732,-96.6469 656,-96.6469"/>
<text text-anchor="middle" x="694" y="-103.6469" font-family="Helvetica,sans-Serif" font-size="10.00" fill="#000000">utils::roundInt</text>
</a>
</g>
</g>
<!-- Node13&#45;&gt;Node16 -->
<g id="edge9" class="edge">
<title>Node13&#45;&gt;Node16</title>
<path fill="none" stroke="#191970" d="M592.0639,-117.0892C610.3223,-115.1292 629.3618,-113.0854 645.9757,-111.302"/>
<polygon fill="#191970" stroke="#191970" points="646.4088,-114.7757 655.9781,-110.2283 645.6616,-107.8157 646.4088,-114.7757"/>
</g>
<!-- Node18&#45;&gt;Node13 -->
<g id="edge12" class="edge">
<title>Node18&#45;&gt;Node13</title>
<path fill="none" stroke="#191970" d="M406.1698,-116.2805C414.5133,-116.9479 423.1621,-117.6398 431.7813,-118.3294"/>
<polygon fill="#191970" stroke="#191970" points="431.6186,-121.8274 441.8659,-119.1361 432.1769,-114.8497 431.6186,-121.8274"/>
</g>
<!-- Node19 -->
<g id="node13" class="node">
<title>Node19</title>
<g id="a_node13"><a xlink:href="classstatistics_1_1_gaps.html#ad812a924cf5e3f900aad3ed4a9664300" target="_top" xlink:title=" ">
<polygon fill="#ffffff" stroke="#000000" points="450.5,-66.1469 450.5,-96.1469 583.5,-96.1469 583.5,-66.1469 450.5,-66.1469"/>
<text text-anchor="start" x="458.5" y="-84.1469" font-family="Helvetica,sans-Serif" font-size="10.00" fill="#000000">statistics::Gaps::isDefined</text>
<text text-anchor="middle" x="517" y="-73.1469" font-family="Helvetica,sans-Serif" font-size="10.00" fill="#000000">Window</text>
</a>
</g>
</g>
<!-- Node18&#45;&gt;Node19 -->
<g id="edge13" class="edge">
<title>Node18&#45;&gt;Node19</title>
<path fill="none" stroke="#191970" d="M406.1698,-100.1463C417.3361,-98.2321 429.0492,-96.2241 440.5065,-94.26"/>
<polygon fill="#191970" stroke="#191970" points="441.2242,-97.6881 450.4891,-92.5487 440.0414,-90.7888 441.2242,-97.6881"/>
</g>
<!-- Node21&#45;&gt;Node15 -->
<g id="edge17" class="edge">
<title>Node21&#45;&gt;Node15</title>
<path fill="none" stroke="#191970" d="M581.1513,-32.1469C594.5538,-32.1469 608.7642,-32.1469 622.4167,-32.1469"/>
<polygon fill="#191970" stroke="#191970" points="622.7255,-35.647 632.7254,-32.1469 622.7254,-28.647 622.7255,-35.647"/>
</g>
</g>
</svg>
