<?xml version="1.0" encoding="UTF-8" standalone="no"?>
<!DOCTYPE svg PUBLIC "-//W3C//DTD SVG 1.1//EN"
 "http://www.w3.org/Graphics/SVG/1.1/DTD/svg11.dtd">
<!-- Generated by graphviz version 2.38.0 (20140413.2041)
 -->
<!-- Title: StatisticsManager Pages: 1 -->
<svg width="806pt" height="511pt"
 viewBox="0.00 0.00 806.00 511.00" xmlns="http://www.w3.org/2000/svg" xmlns:xlink="http://www.w3.org/1999/xlink">
<g id="graph0" class="graph" transform="scale(1 1) rotate(0) translate(4 507)">
<title>StatisticsManager</title>
<polygon fill="white" stroke="none" points="-4,4 -4,-507 802,-507 802,4 -4,4"/>
<!-- Node1 -->
<g id="node1" class="node"><title>Node1</title>
<polygon fill="#bfbfbf" stroke="black" points="43.5,-316.5 43.5,-335.5 138.5,-335.5 138.5,-316.5 43.5,-316.5"/>
<text text-anchor="middle" x="91" y="-323.5" font-family="Helvetica,sans-Serif" font-size="10.00">StatisticsManager</text>
</g>
<!-- Node2 -->
<g id="node2" class="node"><title>Node2</title>
<g id="a_node2"><a xlink:href="classnew_alignment.html" target="_top" xlink:title="Class containing an alignment &#160;This class stores the alignment sequences with it&#39;s names...">
<polygon fill="white" stroke="black" points="317,-68.5 317,-87.5 395,-87.5 395,-68.5 317,-68.5"/>
<text text-anchor="middle" x="356" y="-75.5" font-family="Helvetica,sans-Serif" font-size="10.00">newAlignment</text>
</a>
</g>
</g>
<!-- Node1&#45;&gt;Node2 -->
<g id="edge24" class="edge"><title>Node1&#45;&gt;Node2</title>
<path fill="none" stroke="#9a32cd" stroke-dasharray="5,2" d="M101.473,-307.734C130.27,-260.83 211.267,-132.838 253,-107 272.222,-95.0992 296.515,-88.1822 316.681,-84.2017"/>
<polygon fill="#9a32cd" stroke="#9a32cd" points="98.3777,-306.087 96.1534,-316.446 104.352,-309.735 98.3777,-306.087"/>
<text text-anchor="middle" x="208.5" y="-194" font-family="Helvetica,sans-Serif" font-size="10.00"> Statistics</text>
</g>
<!-- Node2&#45;&gt;Node1 -->
<g id="edge1" class="edge"><title>Node2&#45;&gt;Node1</title>
<path fill="none" stroke="#9a32cd" stroke-dasharray="5,2" d="M306.756,-82.1478C258.381,-85.957 188.51,-93.5918 165,-107 128.763,-127.667 121.914,-141.439 106,-180 86.0147,-228.426 88.542,-293.342 90.2417,-316.419"/>
<polygon fill="#9a32cd" stroke="#9a32cd" points="307.021,-85.6378 316.728,-81.3923 306.492,-78.6578 307.021,-85.6378"/>
<text text-anchor="middle" x="131.5" y="-194" font-family="Helvetica,sans-Serif" font-size="10.00"> _alignment</text>
</g>
<!-- Node5 -->
<g id="node5" class="node"><title>Node5</title>
<g id="a_node5"><a xlink:href="classsequences_matrix.html" target="_top" xlink:title="sequencesMatrix">
<polygon fill="white" stroke="black" points="65.5,-0.5 65.5,-19.5 156.5,-19.5 156.5,-0.5 65.5,-0.5"/>
<text text-anchor="middle" x="111" y="-7.5" font-family="Helvetica,sans-Serif" font-size="10.00">sequencesMatrix</text>
</a>
</g>
</g>
<!-- Node2&#45;&gt;Node5 -->
<g id="edge5" class="edge"><title>Node2&#45;&gt;Node5</title>
<path fill="none" stroke="#9a32cd" stroke-dasharray="5,2" d="M332.881,-63.4883C317.293,-54.948 295.998,-44.3596 276,-38 236.72,-25.5086 190.25,-18.5675 156.651,-14.8627"/>
<polygon fill="#9a32cd" stroke="#9a32cd" points="331.353,-66.6441 341.786,-68.4851 334.778,-60.5394 331.353,-66.6441"/>
<text text-anchor="middle" x="329.5" y="-41" font-family="Helvetica,sans-Serif" font-size="10.00"> _alignment</text>
</g>
<!-- Node13 -->
<g id="node13" class="node"><title>Node13</title>
<g id="a_node13"><a xlink:href="class_cleaner.html" target="_top" xlink:title="Subclass contained by the alignment object to make cleaning operations on it. ">
<polygon fill="white" stroke="black" points="554,-0.5 554,-19.5 604,-19.5 604,-0.5 554,-0.5"/>
<text text-anchor="middle" x="579" y="-7.5" font-family="Helvetica,sans-Serif" font-size="10.00">Cleaner</text>
</a>
</g>
</g>
<!-- Node2&#45;&gt;Node13 -->
<g id="edge19" class="edge"><title>Node2&#45;&gt;Node13</title>
<path fill="none" stroke="#9a32cd" stroke-dasharray="5,2" d="M405.171,-71.5498C434.919,-67.3429 473.294,-60.2848 506,-49 527.881,-41.4504 551.301,-28.2386 565.551,-19.5541"/>
<polygon fill="#9a32cd" stroke="#9a32cd" points="404.473,-68.1123 395.032,-72.9212 405.411,-75.0492 404.473,-68.1123"/>
<text text-anchor="middle" x="556.5" y="-41" font-family="Helvetica,sans-Serif" font-size="10.00"> _alignment</text>
</g>
<!-- Node3 -->
<g id="node3" class="node"><title>Node3</title>
<g id="a_node3"><a xlink:href="classstatistics_gaps.html" target="_top" xlink:title="statisticsGaps">
<polygon fill="white" stroke="black" points="358,-249 358,-268 438,-268 438,-249 358,-249"/>
<text text-anchor="middle" x="398" y="-256" font-family="Helvetica,sans-Serif" font-size="10.00">statisticsGaps</text>
</a>
</g>
</g>
<!-- Node3&#45;&gt;Node2 -->
<g id="edge2" class="edge"><title>Node3&#45;&gt;Node2</title>
<path fill="none" stroke="#9a32cd" stroke-dasharray="5,2" d="M393.678,-239.132C384.725,-201.081 364.449,-114.908 358.005,-87.523"/>
<polygon fill="#9a32cd" stroke="#9a32cd" points="390.277,-239.958 395.974,-248.891 397.091,-238.355 390.277,-239.958"/>
<text text-anchor="middle" x="403" y="-194" font-family="Helvetica,sans-Serif" font-size="10.00"> sgaps</text>
</g>
<!-- Node4 -->
<g id="node4" class="node"><title>Node4</title>
<polygon fill="white" stroke="#bfbfbf" points="298.5,-483.5 298.5,-502.5 327.5,-502.5 327.5,-483.5 298.5,-483.5"/>
<text text-anchor="middle" x="313" y="-490.5" font-family="Helvetica,sans-Serif" font-size="10.00">int</text>
</g>
<!-- Node4&#45;&gt;Node1 -->
<g id="edge25" class="edge"><title>Node4&#45;&gt;Node1</title>
<path fill="none" stroke="#9a32cd" stroke-dasharray="5,2" d="M288.292,-488.901C267.95,-485.481 238.986,-478.556 217,-465 159.283,-429.415 111.826,-359.954 96.3453,-335.648"/>
<polygon fill="#9a32cd" stroke="#9a32cd" points="287.922,-492.385 298.333,-490.423 288.971,-485.464 287.922,-492.385"/>
<text text-anchor="middle" x="241.5" y="-418.5" font-family="Helvetica,sans-Serif" font-size="10.00"> shWindow</text>
<text text-anchor="middle" x="241.5" y="-407.5" font-family="Helvetica,sans-Serif" font-size="10.00">ghWindow</text>
</g>
<!-- Node4&#45;&gt;Node2 -->
<g id="edge10" class="edge"><title>Node4&#45;&gt;Node2</title>
<path fill="none" stroke="#9a32cd" stroke-dasharray="5,2" d="M304.931,-473.908C303.825,-470.97 302.797,-467.93 302,-465 288.269,-414.514 248.747,-275.662 276,-231 285.111,-216.068 299.6,-226.267 311,-213 344.108,-174.472 353.096,-110.639 355.324,-87.6139"/>
<polygon fill="#9a32cd" stroke="#9a32cd" points="301.715,-475.289 308.775,-483.189 308.182,-472.611 301.715,-475.289"/>
<text text-anchor="middle" x="312.5" y="-278" font-family="Helvetica,sans-Serif" font-size="10.00"> saveSequences</text>
<text text-anchor="middle" x="312.5" y="-267" font-family="Helvetica,sans-Serif" font-size="10.00">dataType</text>
<text text-anchor="middle" x="312.5" y="-256" font-family="Helvetica,sans-Serif" font-size="10.00">saveResidues</text>
<text text-anchor="middle" x="312.5" y="-245" font-family="Helvetica,sans-Serif" font-size="10.00">residNumber</text>
<text text-anchor="middle" x="312.5" y="-234" font-family="Helvetica,sans-Serif" font-size="10.00">sequenNumber</text>
</g>
<!-- Node4&#45;&gt;Node3 -->
<g id="edge3" class="edge"><title>Node4&#45;&gt;Node3</title>
<path fill="none" stroke="#9a32cd" stroke-dasharray="5,2" d="M309.495,-473.435C305.552,-448.278 301.234,-402.332 314,-366 328.988,-323.343 368.744,-284.765 387.685,-268.142"/>
<polygon fill="#9a32cd" stroke="#9a32cd" points="306.069,-474.162 311.218,-483.422 312.967,-472.972 306.069,-474.162"/>
<text text-anchor="middle" x="366.5" y="-457" font-family="Helvetica,sans-Serif" font-size="10.00"> numColumnsWithGaps</text>
<text text-anchor="middle" x="366.5" y="-446" font-family="Helvetica,sans-Serif" font-size="10.00">columnLength</text>
<text text-anchor="middle" x="366.5" y="-435" font-family="Helvetica,sans-Serif" font-size="10.00">halfWindow</text>
<text text-anchor="middle" x="366.5" y="-424" font-family="Helvetica,sans-Serif" font-size="10.00">gapsWindow</text>
<text text-anchor="middle" x="366.5" y="-413" font-family="Helvetica,sans-Serif" font-size="10.00">maxGaps</text>
<text text-anchor="middle" x="366.5" y="-402" font-family="Helvetica,sans-Serif" font-size="10.00">gapsInColumn</text>
<text text-anchor="middle" x="366.5" y="-391" font-family="Helvetica,sans-Serif" font-size="10.00">dataType</text>
<text text-anchor="middle" x="366.5" y="-380" font-family="Helvetica,sans-Serif" font-size="10.00">aminosXInColumn</text>
<text text-anchor="middle" x="366.5" y="-369" font-family="Helvetica,sans-Serif" font-size="10.00">columns</text>
</g>
<!-- Node4&#45;&gt;Node5 -->
<g id="edge6" class="edge"><title>Node4&#45;&gt;Node5</title>
<path fill="none" stroke="#9a32cd" stroke-dasharray="5,2" d="M288.137,-490.872C241.604,-488.397 143.407,-481.356 114,-465 44.4765,-426.33 0,-406.554 0,-327 0,-327 0,-327 0,-77 0,-44.9393 34.635,-28.1027 65.2112,-19.4857"/>
<polygon fill="#9a32cd" stroke="#9a32cd" points="288.107,-494.374 298.27,-491.381 288.458,-487.383 288.107,-494.374"/>
<text text-anchor="middle" x="28" y="-205" font-family="Helvetica,sans-Serif" font-size="10.00"> matrix</text>
<text text-anchor="middle" x="28" y="-194" font-family="Helvetica,sans-Serif" font-size="10.00">seqsNumber</text>
<text text-anchor="middle" x="28" y="-183" font-family="Helvetica,sans-Serif" font-size="10.00">resNumber</text>
</g>
<!-- Node9 -->
<g id="node9" class="node"><title>Node9</title>
<g id="a_node9"><a xlink:href="classstatistics_conservation.html" target="_top" xlink:title="statisticsConservation">
<polygon fill="white" stroke="black" points="437,-187 437,-206 551,-206 551,-187 437,-187"/>
<text text-anchor="middle" x="494" y="-194" font-family="Helvetica,sans-Serif" font-size="10.00">statisticsConservation</text>
</a>
</g>
</g>
<!-- Node4&#45;&gt;Node9 -->
<g id="edge13" class="edge"><title>Node4&#45;&gt;Node9</title>
<path fill="none" stroke="#9a32cd" stroke-dasharray="5,2" d="M338.023,-488.998C365.99,-485.088 408.712,-477.267 419,-465 465.109,-410.022 409.501,-372.458 431,-304 437.565,-283.095 473.673,-227.879 488.071,-206.31"/>
<polygon fill="#9a32cd" stroke="#9a32cd" points="337.233,-485.572 327.777,-490.349 338.149,-492.512 337.233,-485.572"/>
<text text-anchor="middle" x="458.5" y="-340" font-family="Helvetica,sans-Serif" font-size="10.00"> halfWindow</text>
<text text-anchor="middle" x="458.5" y="-329" font-family="Helvetica,sans-Serif" font-size="10.00">dataType</text>
<text text-anchor="middle" x="458.5" y="-318" font-family="Helvetica,sans-Serif" font-size="10.00">sequences</text>
<text text-anchor="middle" x="458.5" y="-307" font-family="Helvetica,sans-Serif" font-size="10.00">columns</text>
</g>
<!-- Node12 -->
<g id="node12" class="node"><title>Node12</title>
<g id="a_node12"><a xlink:href="classsimilarity_matrix.html" target="_top" xlink:title="similarityMatrix">
<polygon fill="white" stroke="black" points="559.5,-316.5 559.5,-335.5 642.5,-335.5 642.5,-316.5 559.5,-316.5"/>
<text text-anchor="middle" x="601" y="-323.5" font-family="Helvetica,sans-Serif" font-size="10.00">similarityMatrix</text>
</a>
</g>
</g>
<!-- Node4&#45;&gt;Node12 -->
<g id="edge17" class="edge"><title>Node4&#45;&gt;Node12</title>
<path fill="none" stroke="#9a32cd" stroke-dasharray="5,2" d="M337.999,-490.881C365.913,-488.765 411.791,-482.653 447,-465 455.665,-460.656 559.343,-365.398 591.53,-335.736"/>
<polygon fill="#9a32cd" stroke="#9a32cd" points="337.654,-487.395 327.899,-491.53 338.103,-494.381 337.654,-487.395"/>
<text text-anchor="middle" x="590.5" y="-418.5" font-family="Helvetica,sans-Serif" font-size="10.00"> numPositions</text>
<text text-anchor="middle" x="590.5" y="-407.5" font-family="Helvetica,sans-Serif" font-size="10.00">vhash</text>
</g>
<!-- Node4&#45;&gt;Node13 -->
<g id="edge20" class="edge"><title>Node4&#45;&gt;Node13</title>
<path fill="none" stroke="#9a32cd" stroke-dasharray="5,2" d="M337.728,-492.161C421.327,-492.462 689.725,-491.353 717,-465 761.334,-422.164 731,-388.648 731,-327 731,-327 731,-327 731,-77 731,-22.3385 647.272,-12.4596 604.1,-10.999"/>
<polygon fill="#9a32cd" stroke="#9a32cd" points="337.64,-488.661 327.624,-492.114 337.607,-495.661 337.64,-488.661"/>
<text text-anchor="middle" x="764.5" y="-205" font-family="Helvetica,sans-Serif" font-size="10.00"> right_boundary</text>
<text text-anchor="middle" x="764.5" y="-194" font-family="Helvetica,sans-Serif" font-size="10.00">blockSize</text>
<text text-anchor="middle" x="764.5" y="-183" font-family="Helvetica,sans-Serif" font-size="10.00">left_boundary</text>
</g>
<!-- Node5&#45;&gt;Node2 -->
<g id="edge4" class="edge"><title>Node5&#45;&gt;Node2</title>
<path fill="none" stroke="#9a32cd" stroke-dasharray="5,2" d="M136.501,-24.2221C153.294,-32.435 175.982,-42.6089 197,-49 236.957,-61.1497 284.264,-68.6417 316.83,-72.782"/>
<polygon fill="#9a32cd" stroke="#9a32cd" points="137.863,-20.9901 127.352,-19.6566 134.737,-27.2535 137.863,-20.9901"/>
<text text-anchor="middle" x="236.5" y="-41" font-family="Helvetica,sans-Serif" font-size="10.00"> SequencesMatrix</text>
</g>
<!-- Node6 -->
<g id="node6" class="node"><title>Node6</title>
<g id="a_node6"><a xlink:title="STL class. ">
<polygon fill="white" stroke="#bfbfbf" points="242,-187 242,-206 302,-206 302,-187 242,-187"/>
<text text-anchor="middle" x="272" y="-194" font-family="Helvetica,sans-Serif" font-size="10.00">std::string</text>
</a>
</g>
</g>
<!-- Node6&#45;&gt;Node2 -->
<g id="edge22" class="edge"><title>Node6&#45;&gt;Node2</title>
<path fill="none" stroke="#9a32cd" stroke-dasharray="5,2" d="M264.188,-177.491C257.126,-158.133 249.934,-127.398 265,-107 276.882,-90.9116 297.862,-83.7764 316.685,-80.7251"/>
<polygon fill="#9a32cd" stroke="#9a32cd" points="261,-178.946 267.956,-186.938 267.502,-176.353 261,-178.946"/>
<text text-anchor="middle" x="290.5" y="-154" font-family="Helvetica,sans-Serif" font-size="10.00"> seqsName</text>
<text text-anchor="middle" x="290.5" y="-143" font-family="Helvetica,sans-Serif" font-size="10.00">seqsInfo</text>
<text text-anchor="middle" x="290.5" y="-132" font-family="Helvetica,sans-Serif" font-size="10.00">sequences</text>
<text text-anchor="middle" x="290.5" y="-121" font-family="Helvetica,sans-Serif" font-size="10.00">aligInfo</text>
<text text-anchor="middle" x="290.5" y="-110" font-family="Helvetica,sans-Serif" font-size="10.00">filename</text>
</g>
<!-- Node6&#45;&gt;Node5 -->
<g id="edge7" class="edge"><title>Node6&#45;&gt;Node5</title>
<path fill="none" stroke="#9a32cd" stroke-dasharray="5,2" d="M257.581,-178.977C224.473,-141.035 143.918,-48.7229 118.687,-19.8095"/>
<polygon fill="#9a32cd" stroke="#9a32cd" points="255.023,-181.368 264.235,-186.601 260.297,-176.765 255.023,-181.368"/>
<text text-anchor="middle" x="204.5" y="-75.5" font-family="Helvetica,sans-Serif" font-size="10.00"> seqsName</text>
</g>
<!-- Node7 -->
<g id="node7" class="node"><title>Node7</title>
<g id="a_node7"><a xlink:title="STL class. ">
<polygon fill="white" stroke="#bfbfbf" points="156.5,-311 156.5,-341 251.5,-341 251.5,-311 156.5,-311"/>
<text text-anchor="start" x="164.5" y="-329" font-family="Helvetica,sans-Serif" font-size="10.00">std::basic_string&lt;</text>
<text text-anchor="middle" x="204" y="-318" font-family="Helvetica,sans-Serif" font-size="10.00"> char &gt;</text>
</a>
</g>
</g>
<!-- Node7&#45;&gt;Node6 -->
<g id="edge8" class="edge"><title>Node7&#45;&gt;Node6</title>
<path fill="none" stroke="midnightblue" d="M216.317,-301.905C231.664,-273.13 257.124,-225.392 267.445,-206.04"/>
<polygon fill="midnightblue" stroke="midnightblue" points="213.155,-300.397 211.537,-310.868 219.331,-303.692 213.155,-300.397"/>
</g>
<!-- Node8 -->
<g id="node8" class="node"><title>Node8</title>
<polygon fill="white" stroke="#bfbfbf" points="686.5,-483.5 686.5,-502.5 721.5,-502.5 721.5,-483.5 686.5,-483.5"/>
<text text-anchor="middle" x="704" y="-490.5" font-family="Helvetica,sans-Serif" font-size="10.00">float</text>
</g>
<!-- Node8&#45;&gt;Node2 -->
<g id="edge9" class="edge"><title>Node8&#45;&gt;Node2</title>
<path fill="none" stroke="#9a32cd" stroke-dasharray="5,2" d="M730.891,-479.783C736.541,-475.898 741.763,-471.007 745,-465 794.591,-372.965 770.43,-323.122 721,-231 711.562,-213.41 609.059,-115.506 591,-107 557.175,-91.0681 452.668,-83.6373 395.077,-80.6726"/>
<polygon fill="#9a32cd" stroke="#9a32cd" points="728.734,-476.991 721.886,-485.075 732.281,-483.026 728.734,-476.991"/>
<text text-anchor="middle" x="769.5" y="-261.5" font-family="Helvetica,sans-Serif" font-size="10.00"> identities</text>
<text text-anchor="middle" x="769.5" y="-250.5" font-family="Helvetica,sans-Serif" font-size="10.00">overlaps</text>
</g>
<!-- Node8&#45;&gt;Node12 -->
<g id="edge16" class="edge"><title>Node8&#45;&gt;Node12</title>
<path fill="none" stroke="#9a32cd" stroke-dasharray="5,2" d="M693.025,-474.418C671.065,-439.241 622.447,-361.356 606.316,-335.516"/>
<polygon fill="#9a32cd" stroke="#9a32cd" points="690.198,-476.499 698.462,-483.129 696.136,-472.793 690.198,-476.499"/>
<text text-anchor="middle" x="704" y="-418.5" font-family="Helvetica,sans-Serif" font-size="10.00"> distMat</text>
<text text-anchor="middle" x="704" y="-407.5" font-family="Helvetica,sans-Serif" font-size="10.00">simMat</text>
</g>
<!-- Node9&#45;&gt;Node2 -->
<g id="edge11" class="edge"><title>Node9&#45;&gt;Node2</title>
<path fill="none" stroke="#9a32cd" stroke-dasharray="5,2" d="M478.141,-179.741C459.422,-161.452 427.033,-130.764 397,-107 388.213,-100.047 377.777,-92.9351 369.633,-87.6188"/>
<polygon fill="#9a32cd" stroke="#9a32cd" points="475.696,-182.246 485.279,-186.764 480.605,-177.256 475.696,-182.246"/>
<text text-anchor="middle" x="474" y="-132" font-family="Helvetica,sans-Serif" font-size="10.00"> scons</text>
</g>
<!-- Node10 -->
<g id="node10" class="node"><title>Node10</title>
<polygon fill="white" stroke="#bfbfbf" points="661,-316.5 661,-335.5 703,-335.5 703,-316.5 661,-316.5"/>
<text text-anchor="middle" x="682" y="-323.5" font-family="Helvetica,sans-Serif" font-size="10.00">float *</text>
</g>
<!-- Node10&#45;&gt;Node9 -->
<g id="edge12" class="edge"><title>Node10&#45;&gt;Node9</title>
<path fill="none" stroke="#9a32cd" stroke-dasharray="5,2" d="M666.758,-308.615C661.032,-301.928 654.762,-293.915 650,-286 636.341,-263.296 647.081,-248.286 627,-231 614.954,-220.631 579.303,-211.966 547.942,-206.048"/>
<polygon fill="#9a32cd" stroke="#9a32cd" points="664.306,-311.124 673.568,-316.268 669.535,-306.47 664.306,-311.124"/>
<text text-anchor="middle" x="683.5" y="-267" font-family="Helvetica,sans-Serif" font-size="10.00"> MDK_Window</text>
<text text-anchor="middle" x="683.5" y="-256" font-family="Helvetica,sans-Serif" font-size="10.00">Q</text>
<text text-anchor="middle" x="683.5" y="-245" font-family="Helvetica,sans-Serif" font-size="10.00">MDK</text>
</g>
<!-- Node11 -->
<g id="node11" class="node"><title>Node11</title>
<polygon fill="white" stroke="#bfbfbf" points="495,-316.5 495,-335.5 541,-335.5 541,-316.5 495,-316.5"/>
<text text-anchor="middle" x="518" y="-323.5" font-family="Helvetica,sans-Serif" font-size="10.00">float **</text>
</g>
<!-- Node11&#45;&gt;Node9 -->
<g id="edge14" class="edge"><title>Node11&#45;&gt;Node9</title>
<path fill="none" stroke="#9a32cd" stroke-dasharray="5,2" d="M505.235,-307.789C501.146,-301.297 497.129,-293.631 495,-286 487.113,-257.731 490.438,-222.381 492.635,-206.252"/>
<polygon fill="#9a32cd" stroke="#9a32cd" points="502.533,-310.039 511.065,-316.319 508.312,-306.089 502.533,-310.039"/>
<text text-anchor="middle" x="526.5" y="-256" font-family="Helvetica,sans-Serif" font-size="10.00"> matrixIdentity</text>
</g>
<!-- Node12&#45;&gt;Node9 -->
<g id="edge15" class="edge"><title>Node12&#45;&gt;Node9</title>
<path fill="none" stroke="#9a32cd" stroke-dasharray="5,2" d="M591.694,-307.567C588.221,-300.879 584.318,-293.14 581,-286 569.835,-261.971 575.911,-250.525 558,-231 547.572,-219.633 532.39,-211.455 519.43,-206.027"/>
<polygon fill="#9a32cd" stroke="#9a32cd" points="588.6,-309.204 596.357,-316.421 594.794,-305.942 588.6,-309.204"/>
<text text-anchor="middle" x="604" y="-256" font-family="Helvetica,sans-Serif" font-size="10.00"> simMatrix</text>
</g>
<!-- Node13&#45;&gt;Node2 -->
<g id="edge18" class="edge"><title>Node13&#45;&gt;Node2</title>
<path fill="none" stroke="#9a32cd" stroke-dasharray="5,2" d="M543.701,-18.1774C520.805,-23.1049 490.426,-30.1552 464,-38 433.423,-47.0771 398.88,-60.0422 377.272,-68.4896"/>
<polygon fill="#9a32cd" stroke="#9a32cd" points="544.597,-21.5654 553.653,-16.0676 543.145,-14.7176 544.597,-21.5654"/>
<text text-anchor="middle" x="485" y="-41" font-family="Helvetica,sans-Serif" font-size="10.00"> Cleaning</text>
</g>
<!-- Node14 -->
<g id="node14" class="node"><title>Node14</title>
<polygon fill="white" stroke="#bfbfbf" points="591.5,-187 591.5,-206 626.5,-206 626.5,-187 591.5,-187"/>
<text text-anchor="middle" x="609" y="-194" font-family="Helvetica,sans-Serif" font-size="10.00">bool</text>
</g>
<!-- Node14&#45;&gt;Node2 -->
<g id="edge23" class="edge"><title>Node14&#45;&gt;Node2</title>
<path fill="none" stroke="#9a32cd" stroke-dasharray="5,2" d="M582.195,-182.876C571.168,-177.159 558.539,-169.909 548,-162 520.351,-141.25 523.445,-123.376 493,-107 462.641,-90.67 423.809,-83.8411 395.246,-80.9974"/>
<polygon fill="#9a32cd" stroke="#9a32cd" points="580.872,-186.128 591.379,-187.484 584.01,-179.871 580.872,-186.128"/>
<text text-anchor="middle" x="569.5" y="-132" font-family="Helvetica,sans-Serif" font-size="10.00"> isAligned</text>
</g>
<!-- Node14&#45;&gt;Node13 -->
<g id="edge21" class="edge"><title>Node14&#45;&gt;Node13</title>
<path fill="none" stroke="#9a32cd" stroke-dasharray="5,2" d="M606.934,-176.778C603.515,-147.157 596.048,-87.7377 586,-38 584.773,-31.9244 583.023,-25.1744 581.579,-19.9433"/>
<polygon fill="#9a32cd" stroke="#9a32cd" points="603.478,-177.363 608.078,-186.907 610.433,-176.578 603.478,-177.363"/>
<text text-anchor="middle" x="631.5" y="-81" font-family="Helvetica,sans-Serif" font-size="10.00"> keepSequences</text>
<text text-anchor="middle" x="631.5" y="-70" font-family="Helvetica,sans-Serif" font-size="10.00">terminalGapOnly</text>
</g>
</g>
</svg>
