<?xml version="1.0" encoding="UTF-8" standalone="no"?>
<!DOCTYPE svg PUBLIC "-//W3C//DTD SVG 1.1//EN"
 "http://www.w3.org/Graphics/SVG/1.1/DTD/svg11.dtd">
<!-- Generated by graphviz version 2.40.1 (20161225.0304)
 -->
<!-- Title: trimAlManager::check_residue_and_sequence_overlap Pages: 1 -->
<svg width="555pt" height="50pt"
 viewBox="0.00 0.00 555.00 50.00" xmlns="http://www.w3.org/2000/svg" xmlns:xlink="http://www.w3.org/1999/xlink">
<g id="graph0" class="graph" transform="scale(1 1) rotate(0) translate(4 46)">
<title>trimAlManager::check_residue_and_sequence_overlap</title>
<polygon fill="#ffffff" stroke="transparent" points="-4,4 -4,-46 551,-46 551,4 -4,4"/>
<!-- Node227 -->
<g id="node1" class="node">
<title>Node227</title>
<polygon fill="#bfbfbf" stroke="#000000" points="0,-.5 0,-41.5 122,-41.5 122,-.5 0,-.5"/>
<text text-anchor="start" x="8" y="-29.5" font-family="Helvetica,sans-Serif" font-size="10.00" fill="#000000">trimAlManager::check</text>
<text text-anchor="start" x="8" y="-18.5" font-family="Helvetica,sans-Serif" font-size="10.00" fill="#000000">_residue_and_sequence</text>
<text text-anchor="middle" x="61" y="-7.5" font-family="Helvetica,sans-Serif" font-size="10.00" fill="#000000">_overlap</text>
</g>
<!-- Node228 -->
<g id="node2" class="node">
<title>Node228</title>
<g id="a_node2"><a xlink:href="classtrim_al_manager.html#a3f325b806727751394adb829d97b35f1" target="_top" xlink:title="Method that checks dependencies between arguments. Take in mind that dependencies may be between mult...">
<polygon fill="#ffffff" stroke="#000000" points="158,-6 158,-36 270,-36 270,-6 158,-6"/>
<text text-anchor="start" x="166" y="-24" font-family="Helvetica,sans-Serif" font-size="10.00" fill="#000000">trimAlManager::check</text>
<text text-anchor="middle" x="214" y="-13" font-family="Helvetica,sans-Serif" font-size="10.00" fill="#000000">_arguments_needs</text>
</a>
</g>
</g>
<!-- Node227&#45;&gt;Node228 -->
<g id="edge1" class="edge">
<title>Node227&#45;&gt;Node228</title>
<path fill="none" stroke="#191970" d="M132.5374,-21C140.9448,-21 149.4326,-21 157.5921,-21"/>
<polygon fill="#191970" stroke="#191970" points="132.3494,-17.5001 122.3494,-21 132.3493,-24.5001 132.3494,-17.5001"/>
</g>
<!-- Node229 -->
<g id="node3" class="node">
<title>Node229</title>
<g id="a_node3"><a xlink:href="classtrim_al_manager.html#a748b08a1ec5cd214de804ed0d4234a6e" target="_top" xlink:title="Method to process the information obtained by trimAlManager::parseArguments It checks for argument in...">
<polygon fill="#ffffff" stroke="#000000" points="306,-11.5 306,-30.5 473,-30.5 473,-11.5 306,-11.5"/>
<text text-anchor="middle" x="389.5" y="-18.5" font-family="Helvetica,sans-Serif" font-size="10.00" fill="#000000">trimAlManager::processArguments</text>
</a>
</g>
</g>
<!-- Node228&#45;&gt;Node229 -->
<g id="edge2" class="edge">
<title>Node228&#45;&gt;Node229</title>
<path fill="none" stroke="#191970" d="M280.1146,-21C288.5308,-21 297.2302,-21 305.876,-21"/>
<polygon fill="#191970" stroke="#191970" points="280.0119,-17.5001 270.0118,-21 280.0118,-24.5001 280.0119,-17.5001"/>
</g>
<!-- Node230 -->
<g id="node4" class="node">
<title>Node230</title>
<g id="a_node4"><a xlink:href="trim_al_main_8cpp.html#a0ddf1224851353fc92bfbff6f499fa97" target="_top" xlink:title="main">
<polygon fill="#ffffff" stroke="#000000" points="509,-11.5 509,-30.5 547,-30.5 547,-11.5 509,-11.5"/>
<text text-anchor="middle" x="528" y="-18.5" font-family="Helvetica,sans-Serif" font-size="10.00" fill="#000000">main</text>
</a>
</g>
</g>
<!-- Node229&#45;&gt;Node230 -->
<g id="edge3" class="edge">
<title>Node229&#45;&gt;Node230</title>
<path fill="none" stroke="#191970" d="M483.301,-21C492.7267,-21 501.4553,-21 508.6511,-21"/>
<polygon fill="#191970" stroke="#191970" points="483.2612,-17.5001 473.2611,-21 483.2611,-24.5001 483.2612,-17.5001"/>
</g>
</g>
</svg>
