<?xml version="1.0" encoding="UTF-8" standalone="no"?>
<!DOCTYPE svg PUBLIC "-//W3C//DTD SVG 1.1//EN"
 "http://www.w3.org/Graphics/SVG/1.1/DTD/svg11.dtd">
<!-- Generated by graphviz version 2.40.1 (20161225.0304)
 -->
<!-- Title: trimAlManager::check_backtranslations Pages: 1 -->
<svg width="278pt" height="78pt"
 viewBox="0.00 0.00 278.00 77.50" xmlns="http://www.w3.org/2000/svg" xmlns:xlink="http://www.w3.org/1999/xlink">
<g id="graph0" class="graph" transform="scale(1 1) rotate(0) translate(4 73.5)">
<title>trimAlManager::check_backtranslations</title>
<polygon fill="#ffffff" stroke="transparent" points="-4,4 -4,-73.5 274,-73.5 274,4 -4,4"/>
<!-- Node128 -->
<g id="node1" class="node">
<title>Node128</title>
<polygon fill="#bfbfbf" stroke="#000000" points="0,-22.5 0,-52.5 112,-52.5 112,-22.5 0,-22.5"/>
<text text-anchor="start" x="8" y="-40.5" font-family="Helvetica,sans-Serif" font-size="10.00" fill="#000000">trimAlManager::check</text>
<text text-anchor="middle" x="56" y="-29.5" font-family="Helvetica,sans-Serif" font-size="10.00" fill="#000000">_backtranslations</text>
</g>
<!-- Node129 -->
<g id="node2" class="node">
<title>Node129</title>
<g id="a_node2"><a xlink:href="class_alignment.html#a4fdfd8529dd7d554260377352a68a571" target="_top" xlink:title="isAligned getter. ">
<polygon fill="#ffffff" stroke="#000000" points="148,-50 148,-69 270,-69 270,-50 148,-50"/>
<text text-anchor="middle" x="209" y="-57" font-family="Helvetica,sans-Serif" font-size="10.00" fill="#000000">Alignment::isFileAligned</text>
</a>
</g>
</g>
<!-- Node128&#45;&gt;Node129 -->
<g id="edge1" class="edge">
<title>Node128&#45;&gt;Node129</title>
<path fill="none" stroke="#191970" d="M112.1028,-45.5671C120.4394,-46.7658 129.1247,-48.0147 137.7216,-49.2508"/>
<polygon fill="#191970" stroke="#191970" points="137.3506,-52.7334 147.7469,-50.6924 138.3469,-45.8046 137.3506,-52.7334"/>
</g>
<!-- Node130 -->
<g id="node3" class="node">
<title>Node130</title>
<g id="a_node3"><a xlink:href="classreporting_1_1report_manager.html#a6d122e673144584e0869bd33b8a5c1c6" target="_top" xlink:title="Method to report an Error. &#160;It will be displayed if Level &#160;is equal or higher to VerboseLevel::ERROR...">
<polygon fill="#ffffff" stroke="#000000" points="148,-.5 148,-30.5 270,-30.5 270,-.5 148,-.5"/>
<text text-anchor="start" x="156" y="-18.5" font-family="Helvetica,sans-Serif" font-size="10.00" fill="#000000">reporting::reportManager</text>
<text text-anchor="middle" x="209" y="-7.5" font-family="Helvetica,sans-Serif" font-size="10.00" fill="#000000">::report</text>
</a>
</g>
</g>
<!-- Node128&#45;&gt;Node130 -->
<g id="edge2" class="edge">
<title>Node128&#45;&gt;Node130</title>
<path fill="none" stroke="#191970" d="M112.1028,-29.4329C120.4394,-28.2342 129.1247,-26.9853 137.7216,-25.7492"/>
<polygon fill="#191970" stroke="#191970" points="138.3469,-29.1954 147.7469,-24.3076 137.3506,-22.2666 138.3469,-29.1954"/>
</g>
</g>
</svg>
