<?xml version="1.0" encoding="UTF-8" standalone="no"?>
<!DOCTYPE svg PUBLIC "-//W3C//DTD SVG 1.1//EN"
 "http://www.w3.org/Graphics/SVG/1.1/DTD/svg11.dtd">
<!-- Generated by graphviz version 2.40.1 (20161225.0304)
 -->
<!-- Title: trimAlManager::check_thresholds_dependencies Pages: 1 -->
<svg width="565pt" height="39pt"
 viewBox="0.00 0.00 565.00 39.00" xmlns="http://www.w3.org/2000/svg" xmlns:xlink="http://www.w3.org/1999/xlink">
<g id="graph0" class="graph" transform="scale(1 1) rotate(0) translate(4 35)">
<title>trimAlManager::check_thresholds_dependencies</title>
<polygon fill="#ffffff" stroke="transparent" points="-4,4 -4,-35 561,-35 561,4 -4,4"/>
<!-- Node266 -->
<g id="node1" class="node">
<title>Node266</title>
<polygon fill="#bfbfbf" stroke="#000000" points="0,-.5 0,-30.5 132,-30.5 132,-.5 0,-.5"/>
<text text-anchor="start" x="8" y="-18.5" font-family="Helvetica,sans-Serif" font-size="10.00" fill="#000000">trimAlManager::check</text>
<text text-anchor="middle" x="66" y="-7.5" font-family="Helvetica,sans-Serif" font-size="10.00" fill="#000000">_thresholds_dependencies</text>
</g>
<!-- Node267 -->
<g id="node2" class="node">
<title>Node267</title>
<g id="a_node2"><a xlink:href="classtrim_al_manager.html#a3f325b806727751394adb829d97b35f1" target="_top" xlink:title="Method that checks dependencies between arguments. Take in mind that dependencies may be between mult...">
<polygon fill="#ffffff" stroke="#000000" points="168,-.5 168,-30.5 280,-30.5 280,-.5 168,-.5"/>
<text text-anchor="start" x="176" y="-18.5" font-family="Helvetica,sans-Serif" font-size="10.00" fill="#000000">trimAlManager::check</text>
<text text-anchor="middle" x="224" y="-7.5" font-family="Helvetica,sans-Serif" font-size="10.00" fill="#000000">_arguments_needs</text>
</a>
</g>
</g>
<!-- Node266&#45;&gt;Node267 -->
<g id="edge1" class="edge">
<title>Node266&#45;&gt;Node267</title>
<path fill="none" stroke="#191970" d="M142.1495,-15.5C150.7567,-15.5 159.409,-15.5 167.6971,-15.5"/>
<polygon fill="#191970" stroke="#191970" points="142.0908,-12.0001 132.0907,-15.5 142.0907,-19.0001 142.0908,-12.0001"/>
</g>
<!-- Node268 -->
<g id="node3" class="node">
<title>Node268</title>
<g id="a_node3"><a xlink:href="classtrim_al_manager.html#a748b08a1ec5cd214de804ed0d4234a6e" target="_top" xlink:title="Method to process the information obtained by trimAlManager::parseArguments It checks for argument in...">
<polygon fill="#ffffff" stroke="#000000" points="316,-6 316,-25 483,-25 483,-6 316,-6"/>
<text text-anchor="middle" x="399.5" y="-13" font-family="Helvetica,sans-Serif" font-size="10.00" fill="#000000">trimAlManager::processArguments</text>
</a>
</g>
</g>
<!-- Node267&#45;&gt;Node268 -->
<g id="edge2" class="edge">
<title>Node267&#45;&gt;Node268</title>
<path fill="none" stroke="#191970" d="M290.1146,-15.5C298.5308,-15.5 307.2302,-15.5 315.876,-15.5"/>
<polygon fill="#191970" stroke="#191970" points="290.0119,-12.0001 280.0118,-15.5 290.0118,-19.0001 290.0119,-12.0001"/>
</g>
<!-- Node269 -->
<g id="node4" class="node">
<title>Node269</title>
<g id="a_node4"><a xlink:href="trim_al_main_8cpp.html#a0ddf1224851353fc92bfbff6f499fa97" target="_top" xlink:title="main">
<polygon fill="#ffffff" stroke="#000000" points="519,-6 519,-25 557,-25 557,-6 519,-6"/>
<text text-anchor="middle" x="538" y="-13" font-family="Helvetica,sans-Serif" font-size="10.00" fill="#000000">main</text>
</a>
</g>
</g>
<!-- Node268&#45;&gt;Node269 -->
<g id="edge3" class="edge">
<title>Node268&#45;&gt;Node269</title>
<path fill="none" stroke="#191970" d="M493.301,-15.5C502.7267,-15.5 511.4553,-15.5 518.6511,-15.5"/>
<polygon fill="#191970" stroke="#191970" points="493.2612,-12.0001 483.2611,-15.5 493.2611,-19.0001 493.2612,-12.0001"/>
</g>
</g>
</svg>
