<?xml version="1.0" encoding="UTF-8" standalone="no"?>
<!DOCTYPE svg PUBLIC "-//W3C//DTD SVG 1.1//EN"
 "http://www.w3.org/Graphics/SVG/1.1/DTD/svg11.dtd">
<!-- Generated by graphviz version 2.40.1 (20161225.0304)
 -->
<!-- Title: statistics::Manager::calculateGapStats Pages: 1 -->
<svg width="455pt" height="144pt"
 viewBox="0.00 0.00 455.00 143.50" xmlns="http://www.w3.org/2000/svg" xmlns:xlink="http://www.w3.org/1999/xlink">
<g id="graph0" class="graph" transform="scale(1 1) rotate(0) translate(4 139.5)">
<title>statistics::Manager::calculateGapStats</title>
<polygon fill="#ffffff" stroke="transparent" points="-4,4 -4,-139.5 451,-139.5 451,4 -4,4"/>
<!-- Node78 -->
<g id="node1" class="node">
<title>Node78</title>
<polygon fill="#bfbfbf" stroke="#000000" points="0,-39 0,-69 103,-69 103,-39 0,-39"/>
<text text-anchor="start" x="8" y="-57" font-family="Helvetica,sans-Serif" font-size="10.00" fill="#000000">statistics::Manager</text>
<text text-anchor="middle" x="51.5" y="-46" font-family="Helvetica,sans-Serif" font-size="10.00" fill="#000000">::calculateGapStats</text>
</g>
<!-- Node79 -->
<g id="node2" class="node">
<title>Node79</title>
<g id="a_node2"><a xlink:href="classstatistics_1_1_gaps.html#aee36b772767467cdba2061df2305e85d" target="_top" xlink:title="statistics::Gaps::applyWindow">
<polygon fill="#ffffff" stroke="#000000" points="139,-88.5 139,-107.5 289,-107.5 289,-88.5 139,-88.5"/>
<text text-anchor="middle" x="214" y="-95.5" font-family="Helvetica,sans-Serif" font-size="10.00" fill="#000000">statistics::Gaps::applyWindow</text>
</a>
</g>
</g>
<!-- Node78&#45;&gt;Node79 -->
<g id="edge1" class="edge">
<title>Node78&#45;&gt;Node79</title>
<path fill="none" stroke="#191970" d="M103.2484,-69.0648C114.9847,-72.4035 127.4064,-75.876 139,-79 147.5751,-81.3106 156.7236,-83.6951 165.5773,-85.9611"/>
<polygon fill="#191970" stroke="#191970" points="164.8477,-89.3869 175.4019,-88.459 166.5726,-82.6028 164.8477,-89.3869"/>
</g>
<!-- Node83 -->
<g id="node6" class="node">
<title>Node83</title>
<g id="a_node6"><a xlink:href="classstatistics_1_1_gaps.html#aa3526494d5100e062daa4afba755d0b1" target="_top" xlink:title="statistics::Gaps::Calculate\lVectors">
<polygon fill="#ffffff" stroke="#000000" points="147.5,-39 147.5,-69 280.5,-69 280.5,-39 147.5,-39"/>
<text text-anchor="start" x="155.5" y="-57" font-family="Helvetica,sans-Serif" font-size="10.00" fill="#000000">statistics::Gaps::Calculate</text>
<text text-anchor="middle" x="214" y="-46" font-family="Helvetica,sans-Serif" font-size="10.00" fill="#000000">Vectors</text>
</a>
</g>
</g>
<!-- Node78&#45;&gt;Node83 -->
<g id="edge5" class="edge">
<title>Node78&#45;&gt;Node83</title>
<path fill="none" stroke="#191970" d="M103.3628,-54C114.2107,-54 125.8663,-54 137.3966,-54"/>
<polygon fill="#191970" stroke="#191970" points="137.4738,-57.5001 147.4737,-54 137.4737,-50.5001 137.4738,-57.5001"/>
</g>
<!-- Node84 -->
<g id="node7" class="node">
<title>Node84</title>
<g id="a_node7"><a xlink:href="classstatistics_1_1_gaps.html#a2f1d71bafa5e44e5f2c96771cf2a26ed" target="_top" xlink:title="statistics::Gaps::Gaps">
<polygon fill="#ffffff" stroke="#000000" points="156.5,-.5 156.5,-19.5 271.5,-19.5 271.5,-.5 156.5,-.5"/>
<text text-anchor="middle" x="214" y="-7.5" font-family="Helvetica,sans-Serif" font-size="10.00" fill="#000000">statistics::Gaps::Gaps</text>
</a>
</g>
</g>
<!-- Node78&#45;&gt;Node84 -->
<g id="edge6" class="edge">
<title>Node78&#45;&gt;Node84</title>
<path fill="none" stroke="#191970" d="M103.2484,-38.9352C114.9847,-35.5965 127.4064,-32.124 139,-29 147.5751,-26.6894 156.7236,-24.3049 165.5773,-22.0389"/>
<polygon fill="#191970" stroke="#191970" points="166.5726,-25.3972 175.4019,-19.541 164.8477,-18.6131 166.5726,-25.3972"/>
</g>
<!-- Node80 -->
<g id="node3" class="node">
<title>Node80</title>
<g id="a_node3"><a xlink:href="namespaceutils.html#aac322cd1761fddedec8a5792e358eb32" target="_top" xlink:title="Vector initialization. ">
<polygon fill="#ffffff" stroke="#000000" points="348,-25.5 348,-44.5 424,-44.5 424,-25.5 348,-25.5"/>
<text text-anchor="middle" x="386" y="-32.5" font-family="Helvetica,sans-Serif" font-size="10.00" fill="#000000">utils::initlVect</text>
</a>
</g>
</g>
<!-- Node79&#45;&gt;Node80 -->
<g id="edge2" class="edge">
<title>Node79&#45;&gt;Node80</title>
<path fill="none" stroke="#191970" d="M260.7243,-88.4771C270.2535,-85.8954 280.086,-82.7513 289,-79 306.2831,-71.7268 308.094,-65.1112 325,-57 331.6991,-53.7859 338.9985,-50.7668 346.1434,-48.0557"/>
<polygon fill="#191970" stroke="#191970" points="347.526,-51.277 355.7197,-44.5604 345.1258,-44.7013 347.526,-51.277"/>
</g>
<!-- Node81 -->
<g id="node4" class="node">
<title>Node81</title>
<g id="a_node4"><a xlink:href="classreporting_1_1report_manager.html#a6d122e673144584e0869bd33b8a5c1c6" target="_top" xlink:title="Method to report an Error. &#160;It will be displayed if Level &#160;is equal or higher to VerboseLevel::ERROR...">
<polygon fill="#ffffff" stroke="#000000" points="325,-105 325,-135 447,-135 447,-105 325,-105"/>
<text text-anchor="start" x="333" y="-123" font-family="Helvetica,sans-Serif" font-size="10.00" fill="#000000">reporting::reportManager</text>
<text text-anchor="middle" x="386" y="-112" font-family="Helvetica,sans-Serif" font-size="10.00" fill="#000000">::report</text>
</a>
</g>
</g>
<!-- Node79&#45;&gt;Node81 -->
<g id="edge3" class="edge">
<title>Node79&#45;&gt;Node81</title>
<path fill="none" stroke="#191970" d="M288.4413,-107.5216C297.1857,-108.64 306.0923,-109.7793 314.7909,-110.8919"/>
<polygon fill="#191970" stroke="#191970" points="314.5211,-114.3858 324.8844,-112.1829 315.4093,-107.4424 314.5211,-114.3858"/>
</g>
<!-- Node82 -->
<g id="node5" class="node">
<title>Node82</title>
<g id="a_node5"><a xlink:href="namespaceutils.html#ad50731aeb3c8f79ed8372516210dfc9d" target="_top" xlink:title="Round double to integer method. ">
<polygon fill="#ffffff" stroke="#000000" points="348,-66.5 348,-85.5 424,-85.5 424,-66.5 348,-66.5"/>
<text text-anchor="middle" x="386" y="-73.5" font-family="Helvetica,sans-Serif" font-size="10.00" fill="#000000">utils::roundInt</text>
</a>
</g>
</g>
<!-- Node79&#45;&gt;Node82 -->
<g id="edge4" class="edge">
<title>Node79&#45;&gt;Node82</title>
<path fill="none" stroke="#191970" d="M288.4413,-88.4784C305.1128,-86.346 322.3746,-84.1381 337.6588,-82.1832"/>
<polygon fill="#191970" stroke="#191970" points="338.4176,-85.6147 347.8927,-80.8742 337.5294,-78.6713 338.4176,-85.6147"/>
</g>
<!-- Node84&#45;&gt;Node80 -->
<g id="edge7" class="edge">
<title>Node84&#45;&gt;Node80</title>
<path fill="none" stroke="#191970" d="M271.752,-18.3942C293.2084,-21.5129 317.3039,-25.0151 337.8157,-27.9965"/>
<polygon fill="#191970" stroke="#191970" points="337.4757,-31.4837 347.8752,-29.4586 338.4826,-24.5565 337.4757,-31.4837"/>
</g>
</g>
</svg>
