<?xml version="1.0" encoding="UTF-8" standalone="no"?>
<!DOCTYPE svg PUBLIC "-//W3C//DTD SVG 1.1//EN"
 "http://www.w3.org/Graphics/SVG/1.1/DTD/svg11.dtd">
<!-- Generated by graphviz version 2.40.1 (20161225.0304)
 -->
<!-- Title: Cleaner::removeSmallerBlocks Pages: 1 -->
<svg width="1261pt" height="218pt"
 viewBox="0.00 0.00 1261.00 218.00" xmlns="http://www.w3.org/2000/svg" xmlns:xlink="http://www.w3.org/1999/xlink">
<g id="graph0" class="graph" transform="scale(1 1) rotate(0) translate(4 214)">
<title>Cleaner::removeSmallerBlocks</title>
<polygon fill="#ffffff" stroke="transparent" points="-4,4 -4,-214 1257,-214 1257,4 -4,4"/>
<!-- Node566 -->
<g id="node1" class="node">
<title>Node566</title>
<polygon fill="#bfbfbf" stroke="#000000" points="0,-108.5 0,-127.5 152,-127.5 152,-108.5 0,-108.5"/>
<text text-anchor="middle" x="76" y="-115.5" font-family="Helvetica,sans-Serif" font-size="10.00" fill="#000000">Cleaner::removeSmallerBlocks</text>
</g>
<!-- Node567 -->
<g id="node2" class="node">
<title>Node567</title>
<g id="a_node2"><a xlink:href="class_cleaner.html#a0e1e26d09055de52208ac74adf93b760" target="_top" xlink:title="Method to clean an alignment. &#160;It removes sequences that fall behind a certain threshold. &#160;The function detects if it would clean too many sequences, and relaxes the threshold until we have enough sequences to achieve the given percentage desired to keep. &#160;To achieve this, the method starts in the middle of the sequence and, alternating sides, adds column one by one. ">
<polygon fill="#ffffff" stroke="#000000" points="188,-152 188,-182 320,-182 320,-152 188,-152"/>
<text text-anchor="start" x="196" y="-170" font-family="Helvetica,sans-Serif" font-size="10.00" fill="#000000">Cleaner::cleanByCutValue</text>
<text text-anchor="middle" x="254" y="-159" font-family="Helvetica,sans-Serif" font-size="10.00" fill="#000000">FallBehind</text>
</a>
</g>
</g>
<!-- Node566&#45;&gt;Node567 -->
<g id="edge1" class="edge">
<title>Node566&#45;&gt;Node567</title>
<path fill="none" stroke="#191970" d="M120.6001,-130.2776C144.4889,-136.8537 174.1152,-145.0092 199.3759,-151.963"/>
<polygon fill="#191970" stroke="#191970" points="121.3131,-126.8437 110.7427,-127.564 119.4552,-133.5926 121.3131,-126.8437"/>
</g>
<!-- Node575 -->
<g id="node10" class="node">
<title>Node575</title>
<g id="a_node10"><a xlink:href="class_cleaner.html#a13ae2074afb38708bc5cee9489d8ab6f" target="_top" xlink:title="Method to clean an alignment. &#160;It removes sequences that overpass or equals a certain threshold...">
<polygon fill="#ffffff" stroke="#000000" points="188,-46 188,-76 320,-76 320,-46 188,-46"/>
<text text-anchor="start" x="196" y="-64" font-family="Helvetica,sans-Serif" font-size="10.00" fill="#000000">Cleaner::cleanByCutValue</text>
<text text-anchor="middle" x="254" y="-53" font-family="Helvetica,sans-Serif" font-size="10.00" fill="#000000">Overpass</text>
</a>
</g>
</g>
<!-- Node566&#45;&gt;Node575 -->
<g id="edge10" class="edge">
<title>Node566&#45;&gt;Node575</title>
<path fill="none" stroke="#191970" d="M115.3224,-105.408C142.3768,-96.7445 178.4419,-85.1956 207.0116,-76.0468"/>
<polygon fill="#191970" stroke="#191970" points="114.2494,-102.0764 105.7932,-108.4595 116.3842,-108.743 114.2494,-102.0764"/>
</g>
<!-- Node581 -->
<g id="node16" class="node">
<title>Node581</title>
<g id="a_node16"><a xlink:href="class_cleaner.html#a5afcae6b995a229b59785e4690b25a0f" target="_top" xlink:title="Method to clean an alignment. &#160;It removes sequences that overpass or equals &#160;the gap threshold but &#160;f...">
<polygon fill="#ffffff" stroke="#000000" points="188,-103 188,-133 320,-133 320,-103 188,-103"/>
<text text-anchor="start" x="196" y="-121" font-family="Helvetica,sans-Serif" font-size="10.00" fill="#000000">Cleaner::cleanByCutValue</text>
<text text-anchor="middle" x="254" y="-110" font-family="Helvetica,sans-Serif" font-size="10.00" fill="#000000">OverpassOrEquals</text>
</a>
</g>
</g>
<!-- Node566&#45;&gt;Node581 -->
<g id="edge21" class="edge">
<title>Node566&#45;&gt;Node581</title>
<path fill="none" stroke="#191970" d="M162.1057,-118C170.7415,-118 179.4136,-118 187.7965,-118"/>
<polygon fill="#191970" stroke="#191970" points="162.0044,-114.5001 152.0043,-118 162.0043,-121.5001 162.0044,-114.5001"/>
</g>
<!-- Node568 -->
<g id="node3" class="node">
<title>Node568</title>
<g id="a_node3"><a xlink:href="class_cleaner.html#a385f785ecf54bd5e0b07e61325483973" target="_top" xlink:title="Method to trim an alignment based on consistency values obtained from a dataset of alignments...">
<polygon fill="#ffffff" stroke="#000000" points="357,-190.5 357,-209.5 492,-209.5 492,-190.5 357,-190.5"/>
<text text-anchor="middle" x="424.5" y="-197.5" font-family="Helvetica,sans-Serif" font-size="10.00" fill="#000000">Cleaner::cleanCompareFile</text>
</a>
</g>
</g>
<!-- Node567&#45;&gt;Node568 -->
<g id="edge2" class="edge">
<title>Node567&#45;&gt;Node568</title>
<path fill="none" stroke="#191970" d="M330.3333,-181.7742C345.5525,-184.7198 361.155,-187.7397 375.1718,-190.4526"/>
<polygon fill="#191970" stroke="#191970" points="330.8909,-178.3172 320.408,-179.8532 329.5607,-185.1897 330.8909,-178.3172"/>
</g>
<!-- Node574 -->
<g id="node9" class="node">
<title>Node574</title>
<g id="a_node9"><a xlink:href="class_cleaner.html#a9cdbd6ebf78a284dd065b31319795b0c" target="_top" xlink:title="Method to trim an alignment based on the similarity distribution values. ">
<polygon fill="#ffffff" stroke="#000000" points="356,-152.5 356,-171.5 493,-171.5 493,-152.5 356,-152.5"/>
<text text-anchor="middle" x="424.5" y="-159.5" font-family="Helvetica,sans-Serif" font-size="10.00" fill="#000000">Cleaner::cleanConservation</text>
</a>
</g>
</g>
<!-- Node567&#45;&gt;Node574 -->
<g id="edge8" class="edge">
<title>Node567&#45;&gt;Node574</title>
<path fill="none" stroke="#191970" d="M330.563,-164.7548C338.9526,-164.5087 347.4555,-164.2594 355.7424,-164.0164"/>
<polygon fill="#191970" stroke="#191970" points="330.301,-161.2608 320.408,-165.0526 330.5063,-168.2578 330.301,-161.2608"/>
</g>
<!-- Node569 -->
<g id="node4" class="node">
<title>Node569</title>
<g id="a_node4"><a xlink:href="classtrim_al_manager.html#aebfd21b0435302f0e4fc45a068d1b6ee" target="_top" xlink:title="Method to trim the alignment using non automatic methods: ">
<polygon fill="#ffffff" stroke="#000000" points="539.5,-109 539.5,-139 691.5,-139 691.5,-109 539.5,-109"/>
<text text-anchor="start" x="547.5" y="-127" font-family="Helvetica,sans-Serif" font-size="10.00" fill="#000000">trimAlManager::CleanResidues</text>
<text text-anchor="middle" x="615.5" y="-116" font-family="Helvetica,sans-Serif" font-size="10.00" fill="#000000">NonAuto</text>
</a>
</g>
</g>
<!-- Node568&#45;&gt;Node569 -->
<g id="edge3" class="edge">
<title>Node568&#45;&gt;Node569</title>
<path fill="none" stroke="#191970" d="M473.0596,-187.6049C479.8135,-185.5699 486.62,-183.3509 493,-181 525.7953,-168.9157 561.913,-151.5889 586.3758,-139.2159"/>
<polygon fill="#191970" stroke="#191970" points="471.8863,-184.3009 463.2576,-190.4487 473.8368,-191.0236 471.8863,-184.3009"/>
</g>
<!-- Node570 -->
<g id="node5" class="node">
<title>Node570</title>
<g id="a_node5"><a xlink:href="classtrim_al_manager.html#adc529dd893ed4e9df6f3ddbd58776068" target="_top" xlink:title="Core Method of the program. This is where almost all cleaning methods are called from. ">
<polygon fill="#ffffff" stroke="#000000" points="738,-33 738,-63 847,-63 847,-33 738,-33"/>
<text text-anchor="start" x="746" y="-51" font-family="Helvetica,sans-Serif" font-size="10.00" fill="#000000">trimAlManager::clean</text>
<text text-anchor="middle" x="792.5" y="-40" font-family="Helvetica,sans-Serif" font-size="10.00" fill="#000000">_alignment</text>
</a>
</g>
</g>
<!-- Node569&#45;&gt;Node570 -->
<g id="edge4" class="edge">
<title>Node569&#45;&gt;Node570</title>
<path fill="none" stroke="#191970" d="M659.9048,-104.9335C690.0367,-91.9955 729.3291,-75.1242 757.3007,-63.1138"/>
<polygon fill="#191970" stroke="#191970" points="658.2773,-101.8233 650.4695,-108.9848 661.0392,-108.2554 658.2773,-101.8233"/>
</g>
<!-- Node571 -->
<g id="node6" class="node">
<title>Node571</title>
<g id="a_node6"><a xlink:href="classtrim_al_manager.html#a7c641a1feff33d401b4ea5c82e989289" target="_top" xlink:title="trimAlManager::innerPerform">
<polygon fill="#ffffff" stroke="#000000" points="883,-38.5 883,-57.5 1024,-57.5 1024,-38.5 883,-38.5"/>
<text text-anchor="middle" x="953.5" y="-45.5" font-family="Helvetica,sans-Serif" font-size="10.00" fill="#000000">trimAlManager::innerPerform</text>
</a>
</g>
</g>
<!-- Node570&#45;&gt;Node571 -->
<g id="edge5" class="edge">
<title>Node570&#45;&gt;Node571</title>
<path fill="none" stroke="#191970" d="M857.1474,-48C865.5802,-48 874.2546,-48 882.7806,-48"/>
<polygon fill="#191970" stroke="#191970" points="857.0073,-44.5001 847.0073,-48 857.0072,-51.5001 857.0073,-44.5001"/>
</g>
<!-- Node572 -->
<g id="node7" class="node">
<title>Node572</title>
<g id="a_node7"><a xlink:href="classtrim_al_manager.html#abe8d2841455c644dc9c7d1294b82b00f" target="_top" xlink:title="Method to perform the analysis if all checks have passed. ">
<polygon fill="#ffffff" stroke="#000000" points="1060,-38.5 1060,-57.5 1179,-57.5 1179,-38.5 1060,-38.5"/>
<text text-anchor="middle" x="1119.5" y="-45.5" font-family="Helvetica,sans-Serif" font-size="10.00" fill="#000000">trimAlManager::perform</text>
</a>
</g>
</g>
<!-- Node571&#45;&gt;Node572 -->
<g id="edge6" class="edge">
<title>Node571&#45;&gt;Node572</title>
<path fill="none" stroke="#191970" d="M1034.4012,-48C1042.9677,-48 1051.564,-48 1059.8249,-48"/>
<polygon fill="#191970" stroke="#191970" points="1034.3805,-44.5001 1024.3804,-48 1034.3804,-51.5001 1034.3805,-44.5001"/>
</g>
<!-- Node573 -->
<g id="node8" class="node">
<title>Node573</title>
<g id="a_node8"><a xlink:href="trim_al_main_8cpp.html#a0ddf1224851353fc92bfbff6f499fa97" target="_top" xlink:title="main">
<polygon fill="#ffffff" stroke="#000000" points="1215,-38.5 1215,-57.5 1253,-57.5 1253,-38.5 1215,-38.5"/>
<text text-anchor="middle" x="1234" y="-45.5" font-family="Helvetica,sans-Serif" font-size="10.00" fill="#000000">main</text>
</a>
</g>
</g>
<!-- Node572&#45;&gt;Node573 -->
<g id="edge7" class="edge">
<title>Node572&#45;&gt;Node573</title>
<path fill="none" stroke="#191970" d="M1189.3198,-48C1198.6177,-48 1207.4503,-48 1214.7697,-48"/>
<polygon fill="#191970" stroke="#191970" points="1189.0976,-44.5001 1179.0976,-48 1189.0975,-51.5001 1189.0976,-44.5001"/>
</g>
<!-- Node574&#45;&gt;Node569 -->
<g id="edge9" class="edge">
<title>Node574&#45;&gt;Node569</title>
<path fill="none" stroke="#191970" d="M482.7398,-150.413C500.7312,-146.8336 520.8151,-142.8378 539.806,-139.0595"/>
<polygon fill="#191970" stroke="#191970" points="481.8222,-147.0269 472.6974,-152.411 483.1881,-153.8924 481.8222,-147.0269"/>
</g>
<!-- Node576 -->
<g id="node11" class="node">
<title>Node576</title>
<g id="a_node11"><a xlink:href="class_cleaner.html#aa57106470d2104a925b9396b8a9f33b3" target="_top" xlink:title="Method that carries the gappyout approach. This methods calculates the slope in gaps distribution on ...">
<polygon fill="#ffffff" stroke="#000000" points="364.5,-38.5 364.5,-57.5 484.5,-57.5 484.5,-38.5 364.5,-38.5"/>
<text text-anchor="middle" x="424.5" y="-45.5" font-family="Helvetica,sans-Serif" font-size="10.00" fill="#000000">Cleaner::clean2ndSlope</text>
</a>
</g>
</g>
<!-- Node575&#45;&gt;Node576 -->
<g id="edge11" class="edge">
<title>Node575&#45;&gt;Node576</title>
<path fill="none" stroke="#191970" d="M330.7013,-55.1518C341.9966,-54.2906 353.4942,-53.4139 364.39,-52.5832"/>
<polygon fill="#191970" stroke="#191970" points="330.1129,-51.6864 320.408,-55.9366 330.6451,-58.6662 330.1129,-51.6864"/>
</g>
<!-- Node578 -->
<g id="node13" class="node">
<title>Node578</title>
<g id="a_node13"><a xlink:href="class_cleaner.html#af7c9e1a177424168fa4214aca9ebd8e2" target="_top" xlink:title="Method to trim an alignment based on the gap distribution values. Column blocks that don&#39;t have a min...">
<polygon fill="#ffffff" stroke="#000000" points="373,-76.5 373,-95.5 476,-95.5 476,-76.5 373,-76.5"/>
<text text-anchor="middle" x="424.5" y="-83.5" font-family="Helvetica,sans-Serif" font-size="10.00" fill="#000000">Cleaner::cleanGaps</text>
</a>
</g>
</g>
<!-- Node575&#45;&gt;Node578 -->
<g id="edge14" class="edge">
<title>Node575&#45;&gt;Node578</title>
<path fill="none" stroke="#191970" d="M330.7013,-72.2465C344.9472,-74.3354 359.5148,-76.4714 372.7912,-78.4181"/>
<polygon fill="#191970" stroke="#191970" points="330.81,-68.7251 320.408,-70.7372 329.7944,-75.6511 330.81,-68.7251"/>
</g>
<!-- Node579 -->
<g id="node14" class="node">
<title>Node579</title>
<g id="a_node14"><a xlink:href="class_cleaner.html#a3af7bde2142886d6d723c95694b7b9ba" target="_top" xlink:title="Method to remove columns composed only by gaps This method is specially useful when we remove missali...">
<polygon fill="#ffffff" stroke="#000000" points="361,-.5 361,-19.5 488,-19.5 488,-.5 361,-.5"/>
<text text-anchor="middle" x="424.5" y="-7.5" font-family="Helvetica,sans-Serif" font-size="10.00" fill="#000000">Cleaner::cleanNoAllGaps</text>
</a>
</g>
</g>
<!-- Node575&#45;&gt;Node579 -->
<g id="edge17" class="edge">
<title>Node575&#45;&gt;Node579</title>
<path fill="none" stroke="#191970" d="M310.8306,-42.8012C325.5151,-38.2004 341.3216,-33.3369 356,-29 366.7704,-25.8178 378.5392,-22.4971 389.2357,-19.5386"/>
<polygon fill="#191970" stroke="#191970" points="309.3599,-39.5947 300.8713,-45.9347 311.4608,-46.272 309.3599,-39.5947"/>
</g>
<!-- Node577 -->
<g id="node12" class="node">
<title>Node577</title>
<g id="a_node12"><a xlink:href="classtrim_al_manager.html#a69082911b30a1bd12395bb235bc18a34" target="_top" xlink:title="Method to trim the alignment using automatic or semi&#45;automatic methods: ">
<polygon fill="#ffffff" stroke="#000000" points="529,-38.5 529,-57.5 702,-57.5 702,-38.5 529,-38.5"/>
<text text-anchor="middle" x="615.5" y="-45.5" font-family="Helvetica,sans-Serif" font-size="10.00" fill="#000000">trimAlManager::CleanResiduesAuto</text>
</a>
</g>
</g>
<!-- Node576&#45;&gt;Node577 -->
<g id="edge12" class="edge">
<title>Node576&#45;&gt;Node577</title>
<path fill="none" stroke="#191970" d="M494.6881,-48C505.7655,-48 517.3326,-48 528.7324,-48"/>
<polygon fill="#191970" stroke="#191970" points="494.6715,-44.5001 484.6714,-48 494.6714,-51.5001 494.6715,-44.5001"/>
</g>
<!-- Node577&#45;&gt;Node570 -->
<g id="edge13" class="edge">
<title>Node577&#45;&gt;Node570</title>
<path fill="none" stroke="#191970" d="M712.3747,-48C721.0296,-48 729.5767,-48 737.6809,-48"/>
<polygon fill="#191970" stroke="#191970" points="712.1852,-44.5001 702.1852,-48 712.1851,-51.5001 712.1852,-44.5001"/>
</g>
<!-- Node578&#45;&gt;Node569 -->
<g id="edge16" class="edge">
<title>Node578&#45;&gt;Node569</title>
<path fill="none" stroke="#191970" d="M482.7398,-97.587C500.7312,-101.1664 520.8151,-105.1622 539.806,-108.9405"/>
<polygon fill="#191970" stroke="#191970" points="483.1881,-94.1076 472.6974,-95.589 481.8222,-100.9731 483.1881,-94.1076"/>
</g>
<!-- Node578&#45;&gt;Node577 -->
<g id="edge15" class="edge">
<title>Node578&#45;&gt;Node577</title>
<path fill="none" stroke="#191970" d="M482.8531,-74.3905C510.0176,-68.986 541.9324,-62.6365 567.6492,-57.5201"/>
<polygon fill="#191970" stroke="#191970" points="481.8222,-71.0269 472.6974,-76.411 483.1881,-77.8924 481.8222,-71.0269"/>
</g>
<!-- Node579&#45;&gt;Node577 -->
<g id="edge18" class="edge">
<title>Node579&#45;&gt;Node577</title>
<path fill="none" stroke="#191970" d="M482.8531,-21.6095C510.0176,-27.014 541.9324,-33.3635 567.6492,-38.4799"/>
<polygon fill="#191970" stroke="#191970" points="483.1881,-18.1076 472.6974,-19.589 481.8222,-24.9731 483.1881,-18.1076"/>
</g>
<!-- Node580 -->
<g id="node15" class="node">
<title>Node580</title>
<g id="a_node15"><a xlink:href="classtrim_al_manager.html#a10536f715945a1a45f1df33f7cedc81e" target="_top" xlink:title="Method to trim or reduce the number of sequences in an alignment. It performs one or none of the foll...">
<polygon fill="#ffffff" stroke="#000000" points="535.5,-.5 535.5,-19.5 695.5,-19.5 695.5,-.5 535.5,-.5"/>
<text text-anchor="middle" x="615.5" y="-7.5" font-family="Helvetica,sans-Serif" font-size="10.00" fill="#000000">trimAlManager::CleanSequences</text>
</a>
</g>
</g>
<!-- Node579&#45;&gt;Node580 -->
<g id="edge19" class="edge">
<title>Node579&#45;&gt;Node580</title>
<path fill="none" stroke="#191970" d="M498.153,-10C510.2817,-10 522.9071,-10 535.1885,-10"/>
<polygon fill="#191970" stroke="#191970" points="498.1003,-6.5001 488.1002,-10 498.1002,-13.5001 498.1003,-6.5001"/>
</g>
<!-- Node580&#45;&gt;Node570 -->
<g id="edge20" class="edge">
<title>Node580&#45;&gt;Node570</title>
<path fill="none" stroke="#191970" d="M670.1116,-21.7245C691.5972,-26.3373 716.2217,-31.6239 737.7234,-36.24"/>
<polygon fill="#191970" stroke="#191970" points="670.6765,-18.2661 660.1646,-19.589 669.2071,-25.1102 670.6765,-18.2661"/>
</g>
<!-- Node582 -->
<g id="node17" class="node">
<title>Node582</title>
<g id="a_node17"><a xlink:href="class_cleaner.html#a4718e31c0183b5a98751d77479faacf0" target="_top" xlink:title="Method to trim an alignment based on the similarity and gaps distribution values. ...">
<polygon fill="#ffffff" stroke="#000000" points="384.5,-114.5 384.5,-133.5 464.5,-133.5 464.5,-114.5 384.5,-114.5"/>
<text text-anchor="middle" x="424.5" y="-121.5" font-family="Helvetica,sans-Serif" font-size="10.00" fill="#000000">Cleaner::clean</text>
</a>
</g>
</g>
<!-- Node581&#45;&gt;Node582 -->
<g id="edge22" class="edge">
<title>Node581&#45;&gt;Node582</title>
<path fill="none" stroke="#191970" d="M330.5898,-120.6952C349.0587,-121.3452 368.0754,-122.0144 384.1243,-122.5792"/>
<polygon fill="#191970" stroke="#191970" points="330.5249,-117.1909 320.408,-120.3369 330.2787,-124.1866 330.5249,-117.1909"/>
</g>
<!-- Node582&#45;&gt;Node569 -->
<g id="edge23" class="edge">
<title>Node582&#45;&gt;Node569</title>
<path fill="none" stroke="#191970" d="M474.5446,-124C494.3158,-124 517.477,-124 539.2462,-124"/>
<polygon fill="#191970" stroke="#191970" points="474.5399,-120.5001 464.5399,-124 474.5398,-127.5001 474.5399,-120.5001"/>
</g>
</g>
</svg>
