<?xml version="1.0" encoding="UTF-8" standalone="no"?>
<!DOCTYPE svg PUBLIC "-//W3C//DTD SVG 1.1//EN"
 "http://www.w3.org/Graphics/SVG/1.1/DTD/svg11.dtd">
<!-- Generated by graphviz version 2.40.1 (20161225.0304)
 -->
<!-- Title: trimAlManager::check_codon_behaviour_incompatibility Pages: 1 -->
<svg width="627pt" height="39pt"
 viewBox="0.00 0.00 627.00 39.00" xmlns="http://www.w3.org/2000/svg" xmlns:xlink="http://www.w3.org/1999/xlink">
<g id="graph0" class="graph" transform="scale(1 1) rotate(0) translate(4 35)">
<title>trimAlManager::check_codon_behaviour_incompatibility</title>
<polygon fill="#ffffff" stroke="transparent" points="-4,4 -4,-35 623,-35 623,4 -4,4"/>
<!-- Node160 -->
<g id="node1" class="node">
<title>Node160</title>
<polygon fill="#bfbfbf" stroke="#000000" points="0,-.5 0,-30.5 163,-30.5 163,-.5 0,-.5"/>
<text text-anchor="start" x="8" y="-18.5" font-family="Helvetica,sans-Serif" font-size="10.00" fill="#000000">trimAlManager::check</text>
<text text-anchor="middle" x="81.5" y="-7.5" font-family="Helvetica,sans-Serif" font-size="10.00" fill="#000000">_codon_behaviour_incompatibility</text>
</g>
<!-- Node161 -->
<g id="node2" class="node">
<title>Node161</title>
<g id="a_node2"><a xlink:href="classtrim_al_manager.html#a16d2da3f90cfe965bea5f1da1360e17a" target="_top" xlink:title="Method to check argument incompatibilities. Take in mind that an incompatibility is between two argum...">
<polygon fill="#ffffff" stroke="#000000" points="199,-.5 199,-30.5 342,-30.5 342,-.5 199,-.5"/>
<text text-anchor="start" x="207" y="-18.5" font-family="Helvetica,sans-Serif" font-size="10.00" fill="#000000">trimAlManager::check</text>
<text text-anchor="middle" x="270.5" y="-7.5" font-family="Helvetica,sans-Serif" font-size="10.00" fill="#000000">_arguments_incompatibilities</text>
</a>
</g>
</g>
<!-- Node160&#45;&gt;Node161 -->
<g id="edge1" class="edge">
<title>Node160&#45;&gt;Node161</title>
<path fill="none" stroke="#191970" d="M173.1048,-15.5C181.719,-15.5 190.3654,-15.5 198.7572,-15.5"/>
<polygon fill="#191970" stroke="#191970" points="173.0244,-12.0001 163.0243,-15.5 173.0243,-19.0001 173.0244,-12.0001"/>
</g>
<!-- Node162 -->
<g id="node3" class="node">
<title>Node162</title>
<g id="a_node3"><a xlink:href="classtrim_al_manager.html#a748b08a1ec5cd214de804ed0d4234a6e" target="_top" xlink:title="Method to process the information obtained by trimAlManager::parseArguments It checks for argument in...">
<polygon fill="#ffffff" stroke="#000000" points="378,-6 378,-25 545,-25 545,-6 378,-6"/>
<text text-anchor="middle" x="461.5" y="-13" font-family="Helvetica,sans-Serif" font-size="10.00" fill="#000000">trimAlManager::processArguments</text>
</a>
</g>
</g>
<!-- Node161&#45;&gt;Node162 -->
<g id="edge2" class="edge">
<title>Node161&#45;&gt;Node162</title>
<path fill="none" stroke="#191970" d="M352.3706,-15.5C360.8114,-15.5 369.3973,-15.5 377.857,-15.5"/>
<polygon fill="#191970" stroke="#191970" points="352.1648,-12.0001 342.1648,-15.5 352.1647,-19.0001 352.1648,-12.0001"/>
</g>
<!-- Node163 -->
<g id="node4" class="node">
<title>Node163</title>
<g id="a_node4"><a xlink:href="trim_al_main_8cpp.html#a0ddf1224851353fc92bfbff6f499fa97" target="_top" xlink:title="main">
<polygon fill="#ffffff" stroke="#000000" points="581,-6 581,-25 619,-25 619,-6 581,-6"/>
<text text-anchor="middle" x="600" y="-13" font-family="Helvetica,sans-Serif" font-size="10.00" fill="#000000">main</text>
</a>
</g>
</g>
<!-- Node162&#45;&gt;Node163 -->
<g id="edge3" class="edge">
<title>Node162&#45;&gt;Node163</title>
<path fill="none" stroke="#191970" d="M555.301,-15.5C564.7267,-15.5 573.4553,-15.5 580.6511,-15.5"/>
<polygon fill="#191970" stroke="#191970" points="555.2612,-12.0001 545.2611,-15.5 555.2611,-19.0001 555.2612,-12.0001"/>
</g>
</g>
</svg>
