<?xml version="1.0" encoding="UTF-8" standalone="no"?>
<!DOCTYPE svg PUBLIC "-//W3C//DTD SVG 1.1//EN"
 "http://www.w3.org/Graphics/SVG/1.1/DTD/svg11.dtd">
<!-- Generated by graphviz version 2.38.0 (20140413.2041)
 -->
<!-- Title: utils::copyVect Pages: 1 -->
<svg width="901pt" height="195pt"
 viewBox="0.00 0.00 901.00 195.24" xmlns="http://www.w3.org/2000/svg" xmlns:xlink="http://www.w3.org/1999/xlink">
<g id="graph0" class="graph" transform="scale(1 1) rotate(0) translate(4 191.24)">
<title>utils::copyVect</title>
<polygon fill="white" stroke="none" points="-4,4 -4,-191.24 897,-191.24 897,4 -4,4"/>
<!-- Node33 -->
<g id="node1" class="node"><title>Node33</title>
<polygon fill="#bfbfbf" stroke="black" points="0,-76.7396 0,-95.7396 82,-95.7396 82,-76.7396 0,-76.7396"/>
<text text-anchor="middle" x="41" y="-83.7396" font-family="Helvetica,sans-Serif" font-size="10.00">utils::copyVect</text>
</g>
<!-- Node34 -->
<g id="node2" class="node"><title>Node34</title>
<g id="a_node2"><a xlink:href="class_cleaner.html#ae2328fe8c189e2827b46e5dfb8e3deb3" target="_top" xlink:title="Method to trim an alignment based on consistency values obtained from a dataset of alignments...">
<polygon fill="white" stroke="black" points="269,-167.74 269,-186.74 404,-186.74 404,-167.74 269,-167.74"/>
<text text-anchor="middle" x="336.5" y="-174.74" font-family="Helvetica,sans-Serif" font-size="10.00">Cleaner::cleanCompareFile</text>
</a>
</g>
</g>
<!-- Node33&#45;&gt;Node34 -->
<g id="edge1" class="edge"><title>Node33&#45;&gt;Node34</title>
<path fill="none" stroke="midnightblue" d="M54.767,-104.227C68.2746,-121.664 91.3031,-147.192 118,-159.24 165.314,-180.591 224.277,-184.245 268.872,-183.028"/>
<polygon fill="midnightblue" stroke="midnightblue" points="57.3862,-101.884 48.6022,-95.9606 51.7748,-106.069 57.3862,-101.884"/>
</g>
<!-- Node38 -->
<g id="node6" class="node"><title>Node38</title>
<g id="a_node6"><a xlink:href="classstatistics_conservation.html#aa11412e9db5babc6dc7b2b4c7c471ed6" target="_top" xlink:title="Computes and selects the cut point values based on conservation&#39;s values. ">
<polygon fill="white" stroke="black" points="118,-120.24 118,-150.24 232,-150.24 232,-120.24 118,-120.24"/>
<text text-anchor="start" x="126" y="-138.24" font-family="Helvetica,sans-Serif" font-size="10.00">statisticsConservation</text>
<text text-anchor="middle" x="175" y="-127.24" font-family="Helvetica,sans-Serif" font-size="10.00">::calcCutPoint</text>
</a>
</g>
</g>
<!-- Node33&#45;&gt;Node38 -->
<g id="edge5" class="edge"><title>Node33&#45;&gt;Node38</title>
<path fill="none" stroke="midnightblue" d="M77.4716,-99.4071C94.7447,-105.819 115.596,-113.559 133.492,-120.203"/>
<polygon fill="midnightblue" stroke="midnightblue" points="78.3573,-96.0026 67.7643,-95.8036 75.9212,-102.565 78.3573,-96.0026"/>
</g>
<!-- Node41 -->
<g id="node9" class="node"><title>Node41</title>
<g id="a_node9"><a xlink:href="classstatistics_conservation.html#aa71aed41c077d770d924144bb745c961" target="_top" xlink:title="Computes and prints the accumulative statistics associated to the alignment. ">
<polygon fill="white" stroke="black" points="118,-71.2396 118,-101.24 232,-101.24 232,-71.2396 118,-71.2396"/>
<text text-anchor="start" x="126" y="-89.2396" font-family="Helvetica,sans-Serif" font-size="10.00">statisticsConservation</text>
<text text-anchor="middle" x="175" y="-78.2396" font-family="Helvetica,sans-Serif" font-size="10.00">::printConservationAcl</text>
</a>
</g>
</g>
<!-- Node33&#45;&gt;Node41 -->
<g id="edge10" class="edge"><title>Node33&#45;&gt;Node41</title>
<path fill="none" stroke="midnightblue" d="M92.5833,-86.2396C100.863,-86.2396 109.485,-86.2396 117.889,-86.2396"/>
<polygon fill="midnightblue" stroke="midnightblue" points="92.3216,-82.7397 82.3216,-86.2396 92.3216,-89.7397 92.3216,-82.7397"/>
</g>
<!-- Node42 -->
<g id="node10" class="node"><title>Node42</title>
<g id="a_node10"><a xlink:href="classstatistics_consistency.html#ac6d4e75bff714792d1eec48f7e9a4b8f" target="_top" xlink:title="Print the accumulated consistency value from the selected alignment. ">
<polygon fill="white" stroke="black" points="118.5,-22.2396 118.5,-52.2396 231.5,-52.2396 231.5,-22.2396 118.5,-22.2396"/>
<text text-anchor="start" x="126.5" y="-40.2396" font-family="Helvetica,sans-Serif" font-size="10.00">statisticsConsistency</text>
<text text-anchor="middle" x="175" y="-29.2396" font-family="Helvetica,sans-Serif" font-size="10.00">::printStatisticsFileAcl</text>
</a>
</g>
</g>
<!-- Node33&#45;&gt;Node42 -->
<g id="edge11" class="edge"><title>Node33&#45;&gt;Node42</title>
<path fill="none" stroke="midnightblue" d="M77.4716,-73.0722C94.7447,-66.6602 115.596,-58.92 133.492,-52.2766"/>
<polygon fill="midnightblue" stroke="midnightblue" points="75.9212,-69.9142 67.7643,-76.6756 78.3573,-76.4767 75.9212,-69.9142"/>
</g>
<!-- Node43 -->
<g id="node11" class="node"><title>Node43</title>
<g id="a_node11"><a xlink:href="classtrim_al_manager.html#afc48b86f5ae35b9a5e721b65c58bf610" target="_top" xlink:title="Method to print statistics requested. ">
<polygon fill="white" stroke="black" points="284.5,-22.2396 284.5,-52.2396 388.5,-52.2396 388.5,-22.2396 284.5,-22.2396"/>
<text text-anchor="start" x="292.5" y="-40.2396" font-family="Helvetica,sans-Serif" font-size="10.00">trimAlManager::print</text>
<text text-anchor="middle" x="336.5" y="-29.2396" font-family="Helvetica,sans-Serif" font-size="10.00">_statistics</text>
</a>
</g>
</g>
<!-- Node33&#45;&gt;Node43 -->
<g id="edge14" class="edge"><title>Node33&#45;&gt;Node43</title>
<path fill="none" stroke="midnightblue" d="M54.0862,-68.1106C67.3267,-50.0554 90.3964,-23.4584 118,-12.2396 177.508,11.946 253.235,-6.69613 297.832,-22.1602"/>
<polygon fill="midnightblue" stroke="midnightblue" points="50.9731,-66.4531 48.0862,-76.647 56.7,-70.4784 50.9731,-66.4531"/>
</g>
<!-- Node35 -->
<g id="node3" class="node"><title>Node35</title>
<g id="a_node3"><a xlink:href="classtrim_al_manager.html#aebfd21b0435302f0e4fc45a068d1b6ee" target="_top" xlink:title="Method to trim the alignment using non automatic methods: ">
<polygon fill="white" stroke="black" points="441,-102.24 441,-132.24 593,-132.24 593,-102.24 441,-102.24"/>
<text text-anchor="start" x="449" y="-120.24" font-family="Helvetica,sans-Serif" font-size="10.00">trimAlManager::CleanResidues</text>
<text text-anchor="middle" x="517" y="-109.24" font-family="Helvetica,sans-Serif" font-size="10.00">NonAuto</text>
</a>
</g>
</g>
<!-- Node34&#45;&gt;Node35 -->
<g id="edge2" class="edge"><title>Node34&#45;&gt;Node35</title>
<path fill="none" stroke="midnightblue" d="M376.85,-164.523C386.093,-161.506 395.9,-158.28 405,-155.24 427.313,-147.784 452.087,-139.321 472.559,-132.277"/>
<polygon fill="midnightblue" stroke="midnightblue" points="375.528,-161.272 367.102,-167.696 377.695,-167.928 375.528,-161.272"/>
</g>
<!-- Node36 -->
<g id="node4" class="node"><title>Node36</title>
<g id="a_node4"><a xlink:href="classtrim_al_manager.html#adc529dd893ed4e9df6f3ddbd58776068" target="_top" xlink:title="Core Method of the program. This is where almost all cleaning methods are called from. ">
<polygon fill="white" stroke="black" points="629,-84.2396 629,-114.24 738,-114.24 738,-84.2396 629,-84.2396"/>
<text text-anchor="start" x="637" y="-102.24" font-family="Helvetica,sans-Serif" font-size="10.00">trimAlManager::clean</text>
<text text-anchor="middle" x="683.5" y="-91.2396" font-family="Helvetica,sans-Serif" font-size="10.00">_alignment</text>
</a>
</g>
</g>
<!-- Node35&#45;&gt;Node36 -->
<g id="edge3" class="edge"><title>Node35&#45;&gt;Node36</title>
<path fill="none" stroke="midnightblue" d="M603.208,-107.916C611.881,-106.967 620.511,-106.023 628.709,-105.126"/>
<polygon fill="midnightblue" stroke="midnightblue" points="602.589,-104.463 593.029,-109.03 603.351,-111.421 602.589,-104.463"/>
</g>
<!-- Node37 -->
<g id="node5" class="node"><title>Node37</title>
<g id="a_node5"><a xlink:href="classtrim_al_manager.html#abe8d2841455c644dc9c7d1294b82b00f" target="_top" xlink:title="Method to perform the analysis if all checks have passed. ">
<polygon fill="white" stroke="black" points="774,-62.7396 774,-81.7396 893,-81.7396 893,-62.7396 774,-62.7396"/>
<text text-anchor="middle" x="833.5" y="-69.7396" font-family="Helvetica,sans-Serif" font-size="10.00">trimAlManager::perform</text>
</a>
</g>
</g>
<!-- Node36&#45;&gt;Node37 -->
<g id="edge4" class="edge"><title>Node36&#45;&gt;Node37</title>
<path fill="none" stroke="midnightblue" d="M748.465,-87.5704C759.136,-85.6236 770.091,-83.625 780.42,-81.7407"/>
<polygon fill="midnightblue" stroke="midnightblue" points="747.56,-84.1777 738.35,-89.4156 748.816,-91.064 747.56,-84.1777"/>
</g>
<!-- Node39 -->
<g id="node7" class="node"><title>Node39</title>
<g id="a_node7"><a xlink:href="class_cleaner.html#a694d53fdd5d1ac9455858e48537af3d0" target="_top" xlink:title="Method to trim an alignment based on the similarity distribution values. ">
<polygon fill="white" stroke="black" points="268,-126.74 268,-145.74 405,-145.74 405,-126.74 268,-126.74"/>
<text text-anchor="middle" x="336.5" y="-133.74" font-family="Helvetica,sans-Serif" font-size="10.00">Cleaner::cleanConservation</text>
</a>
</g>
</g>
<!-- Node38&#45;&gt;Node39 -->
<g id="edge6" class="edge"><title>Node38&#45;&gt;Node39</title>
<path fill="none" stroke="midnightblue" d="M242.342,-135.656C250.734,-135.708 259.329,-135.762 267.742,-135.815"/>
<polygon fill="midnightblue" stroke="midnightblue" points="242.256,-132.155 232.234,-135.592 242.212,-139.155 242.256,-132.155"/>
</g>
<!-- Node40 -->
<g id="node8" class="node"><title>Node40</title>
<g id="a_node8"><a xlink:href="class_cleaner.html#a1ac5ba504932526d77575365557a4d64" target="_top" xlink:title="Method to trim an alignment based on the similarity and gaps distribution values. ...">
<polygon fill="white" stroke="black" points="296.5,-88.7396 296.5,-107.74 376.5,-107.74 376.5,-88.7396 296.5,-88.7396"/>
<text text-anchor="middle" x="336.5" y="-95.7396" font-family="Helvetica,sans-Serif" font-size="10.00">Cleaner::clean</text>
</a>
</g>
</g>
<!-- Node38&#45;&gt;Node40 -->
<g id="edge8" class="edge"><title>Node38&#45;&gt;Node40</title>
<path fill="none" stroke="midnightblue" d="M242.053,-119.917C260.489,-115.64 279.933,-111.13 296.281,-107.337"/>
<polygon fill="midnightblue" stroke="midnightblue" points="241.184,-116.526 232.234,-122.195 242.766,-123.344 241.184,-116.526"/>
</g>
<!-- Node39&#45;&gt;Node35 -->
<g id="edge7" class="edge"><title>Node39&#45;&gt;Node35</title>
<path fill="none" stroke="midnightblue" d="M415.439,-127.944C423.875,-127.046 432.449,-126.133 440.851,-125.239"/>
<polygon fill="midnightblue" stroke="midnightblue" points="414.811,-124.491 405.238,-129.029 415.552,-131.451 414.811,-124.491"/>
</g>
<!-- Node40&#45;&gt;Node35 -->
<g id="edge9" class="edge"><title>Node40&#45;&gt;Node35</title>
<path fill="none" stroke="midnightblue" d="M386.773,-103.484C403.532,-105.268 422.661,-107.304 440.971,-109.253"/>
<polygon fill="midnightblue" stroke="midnightblue" points="386.987,-99.9875 376.673,-102.409 386.246,-106.948 386.987,-99.9875"/>
</g>
<!-- Node42&#45;&gt;Node43 -->
<g id="edge12" class="edge"><title>Node42&#45;&gt;Node43</title>
<path fill="none" stroke="midnightblue" d="M241.945,-37.2396C256.078,-37.2396 270.808,-37.2396 284.286,-37.2396"/>
<polygon fill="midnightblue" stroke="midnightblue" points="241.785,-33.7397 231.785,-37.2396 241.785,-40.7397 241.785,-33.7397"/>
</g>
<!-- Node43&#45;&gt;Node37 -->
<g id="edge13" class="edge"><title>Node43&#45;&gt;Node37</title>
<path fill="none" stroke="midnightblue" d="M398.736,-41.5695C494.684,-48.3537 679.224,-61.4019 773.668,-68.0798"/>
<polygon fill="midnightblue" stroke="midnightblue" points="398.831,-38.0675 388.609,-40.8534 398.337,-45.0501 398.831,-38.0675"/>
</g>
</g>
</svg>
