<?xml version="1.0" encoding="UTF-8" standalone="no"?>
<!DOCTYPE svg PUBLIC "-//W3C//DTD SVG 1.1//EN"
 "http://www.w3.org/Graphics/SVG/1.1/DTD/svg11.dtd">
<!-- Generated by graphviz version 2.40.1 (20161225.0304)
 -->
<!-- Title: Cleaner::cleanByCutValueOverpass Pages: 1 -->
<svg width="1066pt" height="116pt"
 viewBox="0.00 0.00 1066.00 115.50" xmlns="http://www.w3.org/2000/svg" xmlns:xlink="http://www.w3.org/1999/xlink">
<g id="graph0" class="graph" transform="scale(1 1) rotate(0) translate(4 111.5)">
<title>Cleaner::cleanByCutValueOverpass</title>
<polygon fill="#ffffff" stroke="transparent" points="-4,4 -4,-111.5 1062,-111.5 1062,4 -4,4"/>
<!-- Node125 -->
<g id="node1" class="node">
<title>Node125</title>
<g id="a_node1"><a xlink:title="Method to clean an alignment. &#160;It removes sequences that overpass or equals a certain threshold....">
<polygon fill="#bfbfbf" stroke="#000000" points="926,-33 926,-63 1058,-63 1058,-33 926,-33"/>
<text text-anchor="start" x="934" y="-51" font-family="Helvetica,sans-Serif" font-size="10.00" fill="#000000">Cleaner::cleanByCutValue</text>
<text text-anchor="middle" x="992" y="-40" font-family="Helvetica,sans-Serif" font-size="10.00" fill="#000000">Overpass</text>
</a>
</g>
</g>
<!-- Node126 -->
<g id="node2" class="node">
<title>Node126</title>
<g id="a_node2"><a xlink:href="class_cleaner.html#aa57106470d2104a925b9396b8a9f33b3" target="_top" xlink:title="Method that carries the gappyout approach. This methods calculates the slope in gaps distribution on ...">
<polygon fill="#ffffff" stroke="#000000" points="766.5,-38.5 766.5,-57.5 886.5,-57.5 886.5,-38.5 766.5,-38.5"/>
<text text-anchor="middle" x="826.5" y="-45.5" font-family="Helvetica,sans-Serif" font-size="10.00" fill="#000000">Cleaner::clean2ndSlope</text>
</a>
</g>
</g>
<!-- Node125&#45;&gt;Node126 -->
<g id="edge1" class="edge">
<title>Node125&#45;&gt;Node126</title>
<path fill="none" stroke="#191970" d="M915.605,-48C905.9147,-48 896.1076,-48 886.7193,-48"/>
<polygon fill="#191970" stroke="#191970" points="915.6385,-51.5001 925.6384,-48 915.6384,-44.5001 915.6385,-51.5001"/>
</g>
<!-- Node132 -->
<g id="node8" class="node">
<title>Node132</title>
<g id="a_node8"><a xlink:href="class_cleaner.html#af7c9e1a177424168fa4214aca9ebd8e2" target="_top" xlink:title="Method to trim an alignment based on the gap distribution values. Column blocks that don&#39;t have a min...">
<polygon fill="#ffffff" stroke="#000000" points="775,-76.5 775,-95.5 878,-95.5 878,-76.5 775,-76.5"/>
<text text-anchor="middle" x="826.5" y="-83.5" font-family="Helvetica,sans-Serif" font-size="10.00" fill="#000000">Cleaner::cleanGaps</text>
</a>
</g>
</g>
<!-- Node125&#45;&gt;Node132 -->
<g id="edge8" class="edge">
<title>Node125&#45;&gt;Node132</title>
<path fill="none" stroke="#191970" d="M916.8057,-65.2652C900.0707,-69.1076 882.9201,-73.0455 868.1224,-76.4432"/>
<polygon fill="#191970" stroke="#191970" points="917.6269,-68.6678 926.59,-63.0186 916.0604,-61.8453 917.6269,-68.6678"/>
</g>
<!-- Node134 -->
<g id="node10" class="node">
<title>Node134</title>
<g id="a_node10"><a xlink:href="class_cleaner.html#a3af7bde2142886d6d723c95694b7b9ba" target="_top" xlink:title="Method to remove columns composed only by gaps This method is specially useful when we remove missali...">
<polygon fill="#ffffff" stroke="#000000" points="763,-.5 763,-19.5 890,-19.5 890,-.5 763,-.5"/>
<text text-anchor="middle" x="826.5" y="-7.5" font-family="Helvetica,sans-Serif" font-size="10.00" fill="#000000">Cleaner::cleanNoAllGaps</text>
</a>
</g>
</g>
<!-- Node125&#45;&gt;Node134 -->
<g id="edge12" class="edge">
<title>Node125&#45;&gt;Node134</title>
<path fill="none" stroke="#191970" d="M916.8057,-30.7348C900.0707,-26.8924 882.9201,-22.9545 868.1224,-19.5568"/>
<polygon fill="#191970" stroke="#191970" points="916.0604,-34.1547 926.59,-32.9814 917.6269,-27.3322 916.0604,-34.1547"/>
</g>
<!-- Node127 -->
<g id="node3" class="node">
<title>Node127</title>
<g id="a_node3"><a xlink:href="classtrim_al_manager.html#a69082911b30a1bd12395bb235bc18a34" target="_top" xlink:title="Method to trim the alignment using automatic or semi&#45;automatic methods:">
<polygon fill="#ffffff" stroke="#000000" points="554,-38.5 554,-57.5 727,-57.5 727,-38.5 554,-38.5"/>
<text text-anchor="middle" x="640.5" y="-45.5" font-family="Helvetica,sans-Serif" font-size="10.00" fill="#000000">trimAlManager::CleanResiduesAuto</text>
</a>
</g>
</g>
<!-- Node126&#45;&gt;Node127 -->
<g id="edge2" class="edge">
<title>Node126&#45;&gt;Node127</title>
<path fill="none" stroke="#191970" d="M756.2149,-48C746.7176,-48 736.8836,-48 727.1431,-48"/>
<polygon fill="#191970" stroke="#191970" points="756.368,-51.5001 766.368,-48 756.368,-44.5001 756.368,-51.5001"/>
</g>
<!-- Node128 -->
<g id="node4" class="node">
<title>Node128</title>
<g id="a_node4"><a xlink:href="classtrim_al_manager.html#adc529dd893ed4e9df6f3ddbd58776068" target="_top" xlink:title="Core Method of the program. This is where almost all cleaning methods are called from.">
<polygon fill="#ffffff" stroke="#000000" points="409,-33 409,-63 518,-63 518,-33 409,-33"/>
<text text-anchor="start" x="417" y="-51" font-family="Helvetica,sans-Serif" font-size="10.00" fill="#000000">trimAlManager::clean</text>
<text text-anchor="middle" x="463.5" y="-40" font-family="Helvetica,sans-Serif" font-size="10.00" fill="#000000">_alignment</text>
</a>
</g>
</g>
<!-- Node127&#45;&gt;Node128 -->
<g id="edge3" class="edge">
<title>Node127&#45;&gt;Node128</title>
<path fill="none" stroke="#191970" d="M543.6253,-48C534.9704,-48 526.4233,-48 518.3191,-48"/>
<polygon fill="#191970" stroke="#191970" points="543.8149,-51.5001 553.8148,-48 543.8148,-44.5001 543.8149,-51.5001"/>
</g>
<!-- Node129 -->
<g id="node5" class="node">
<title>Node129</title>
<g id="a_node5"><a xlink:href="classtrim_al_manager.html#abe8d2841455c644dc9c7d1294b82b00f" target="_top" xlink:title="Method to perform the analysis if all checks have passed.">
<polygon fill="#ffffff" stroke="#000000" points="74,-38.5 74,-57.5 193,-57.5 193,-38.5 74,-38.5"/>
<text text-anchor="middle" x="133.5" y="-45.5" font-family="Helvetica,sans-Serif" font-size="10.00" fill="#000000">trimAlManager::perform</text>
</a>
</g>
</g>
<!-- Node128&#45;&gt;Node129 -->
<g id="edge4" class="edge">
<title>Node128&#45;&gt;Node129</title>
<path fill="none" stroke="#191970" d="M398.5755,-48C338.9161,-48 251.2051,-48 193.243,-48"/>
<polygon fill="#191970" stroke="#191970" points="398.6368,-51.5001 408.6368,-48 398.6367,-44.5001 398.6368,-51.5001"/>
</g>
<!-- Node131 -->
<g id="node7" class="node">
<title>Node131</title>
<g id="a_node7"><a xlink:href="classtrim_al_manager.html#ac5795f93b3a2b51bf5d8dddd63b89f73" target="_top" xlink:title=" ">
<polygon fill="#ffffff" stroke="#000000" points="229,-19.5 229,-38.5 373,-38.5 373,-19.5 229,-19.5"/>
<text text-anchor="middle" x="301" y="-26.5" font-family="Helvetica,sans-Serif" font-size="10.00" fill="#000000">trimAlManager::perform_VCF</text>
</a>
</g>
</g>
<!-- Node128&#45;&gt;Node131 -->
<g id="edge6" class="edge">
<title>Node128&#45;&gt;Node131</title>
<path fill="none" stroke="#191970" d="M398.7672,-40.4312C390.3063,-39.442 381.5959,-38.4235 373.0243,-37.4213"/>
<polygon fill="#191970" stroke="#191970" points="398.599,-43.9353 408.9378,-41.6204 399.412,-36.9827 398.599,-43.9353"/>
</g>
<!-- Node130 -->
<g id="node6" class="node">
<title>Node130</title>
<g id="a_node6"><a xlink:href="trim_al_main_8cpp.html#a0ddf1224851353fc92bfbff6f499fa97" target="_top" xlink:title=" ">
<polygon fill="#ffffff" stroke="#000000" points="0,-38.5 0,-57.5 38,-57.5 38,-38.5 0,-38.5"/>
<text text-anchor="middle" x="19" y="-45.5" font-family="Helvetica,sans-Serif" font-size="10.00" fill="#000000">main</text>
</a>
</g>
</g>
<!-- Node129&#45;&gt;Node130 -->
<g id="edge5" class="edge">
<title>Node129&#45;&gt;Node130</title>
<path fill="none" stroke="#191970" d="M63.6802,-48C54.3823,-48 45.5497,-48 38.2303,-48"/>
<polygon fill="#191970" stroke="#191970" points="63.9025,-51.5001 73.9024,-48 63.9024,-44.5001 63.9025,-51.5001"/>
</g>
<!-- Node131&#45;&gt;Node129 -->
<g id="edge7" class="edge">
<title>Node131&#45;&gt;Node129</title>
<path fill="none" stroke="#191970" d="M218.8378,-38.3199C210.1593,-39.3043 201.4581,-40.2913 193.107,-41.2386"/>
<polygon fill="#191970" stroke="#191970" points="219.4511,-41.7729 228.9928,-37.168 218.662,-34.8175 219.4511,-41.7729"/>
</g>
<!-- Node132&#45;&gt;Node127 -->
<g id="edge9" class="edge">
<title>Node132&#45;&gt;Node127</title>
<path fill="none" stroke="#191970" d="M769.6745,-74.3905C743.221,-68.986 712.1417,-62.6365 687.0981,-57.5201"/>
<polygon fill="#191970" stroke="#191970" points="769.0661,-77.8384 779.5643,-76.411 770.4673,-70.9801 769.0661,-77.8384"/>
</g>
<!-- Node133 -->
<g id="node9" class="node">
<title>Node133</title>
<g id="a_node9"><a xlink:href="classtrim_al_manager.html#aebfd21b0435302f0e4fc45a068d1b6ee" target="_top" xlink:title="Method to trim the alignment using non automatic methods:">
<polygon fill="#ffffff" stroke="#000000" points="564.5,-77 564.5,-107 716.5,-107 716.5,-77 564.5,-77"/>
<text text-anchor="start" x="572.5" y="-95" font-family="Helvetica,sans-Serif" font-size="10.00" fill="#000000">trimAlManager::CleanResidues</text>
<text text-anchor="middle" x="640.5" y="-84" font-family="Helvetica,sans-Serif" font-size="10.00" fill="#000000">NonAuto</text>
</a>
</g>
</g>
<!-- Node132&#45;&gt;Node133 -->
<g id="edge10" class="edge">
<title>Node132&#45;&gt;Node133</title>
<path fill="none" stroke="#191970" d="M764.3441,-88.005C749.0794,-88.4974 732.5645,-89.0302 716.7215,-89.5412"/>
<polygon fill="#191970" stroke="#191970" points="764.8067,-91.492 774.6886,-87.6713 764.581,-84.4957 764.8067,-91.492"/>
</g>
<!-- Node133&#45;&gt;Node128 -->
<g id="edge11" class="edge">
<title>Node133&#45;&gt;Node128</title>
<path fill="none" stroke="#191970" d="M570.0207,-74.4797C552.7085,-70.1761 534.4355,-65.6337 518.0058,-61.5495"/>
<polygon fill="#191970" stroke="#191970" points="569.5327,-77.9649 580.0817,-76.9808 571.2214,-71.1716 569.5327,-77.9649"/>
</g>
<!-- Node134&#45;&gt;Node127 -->
<g id="edge15" class="edge">
<title>Node134&#45;&gt;Node127</title>
<path fill="none" stroke="#191970" d="M769.6745,-21.6095C743.221,-27.014 712.1417,-33.3635 687.0981,-38.4799"/>
<polygon fill="#191970" stroke="#191970" points="770.4673,-25.0199 779.5643,-19.589 769.0661,-18.1616 770.4673,-25.0199"/>
</g>
<!-- Node135 -->
<g id="node11" class="node">
<title>Node135</title>
<g id="a_node11"><a xlink:href="classtrim_al_manager.html#a10536f715945a1a45f1df33f7cedc81e" target="_top" xlink:title="Method to trim or reduce the number of sequences in an alignment. It performs one or none of the foll...">
<polygon fill="#ffffff" stroke="#000000" points="560.5,-.5 560.5,-19.5 720.5,-19.5 720.5,-.5 560.5,-.5"/>
<text text-anchor="middle" x="640.5" y="-7.5" font-family="Helvetica,sans-Serif" font-size="10.00" fill="#000000">trimAlManager::CleanSequences</text>
</a>
</g>
</g>
<!-- Node134&#45;&gt;Node135 -->
<g id="edge13" class="edge">
<title>Node134&#45;&gt;Node135</title>
<path fill="none" stroke="#191970" d="M752.7492,-10C742.1884,-10 731.2812,-10 720.6053,-10"/>
<polygon fill="#191970" stroke="#191970" points="752.7496,-13.5001 762.7496,-10 752.7495,-6.5001 752.7496,-13.5001"/>
</g>
<!-- Node135&#45;&gt;Node128 -->
<g id="edge14" class="edge">
<title>Node135&#45;&gt;Node128</title>
<path fill="none" stroke="#191970" d="M585.8884,-21.7245C564.4028,-26.3373 539.7783,-31.6239 518.2766,-36.24"/>
<polygon fill="#191970" stroke="#191970" points="586.7929,-25.1102 595.8354,-19.589 585.3235,-18.2661 586.7929,-25.1102"/>
</g>
</g>
</svg>
