<?xml version="1.0" encoding="UTF-8" standalone="no"?>
<!DOCTYPE svg PUBLIC "-//W3C//DTD SVG 1.1//EN"
 "http://www.w3.org/Graphics/SVG/1.1/DTD/svg11.dtd">
<!-- Generated by graphviz version 2.40.1 (20161225.0304)
 -->
<!-- Title: Cleaner::setTrimTerminalGapsFlag Pages: 1 -->
<svg width="544pt" height="66pt"
 viewBox="0.00 0.00 544.00 66.00" xmlns="http://www.w3.org/2000/svg" xmlns:xlink="http://www.w3.org/1999/xlink">
<g id="graph0" class="graph" transform="scale(1 1) rotate(0) translate(4 62)">
<title>Cleaner::setTrimTerminalGapsFlag</title>
<polygon fill="#ffffff" stroke="transparent" points="-4,4 -4,-62 540,-62 540,4 -4,4"/>
<!-- Node616 -->
<g id="node1" class="node">
<title>Node616</title>
<polygon fill="#bfbfbf" stroke="#000000" points="0,-14 0,-44 127,-44 127,-14 0,-14"/>
<text text-anchor="start" x="8" y="-32" font-family="Helvetica,sans-Serif" font-size="10.00" fill="#000000">Cleaner::setTrimTerminal</text>
<text text-anchor="middle" x="63.5" y="-21" font-family="Helvetica,sans-Serif" font-size="10.00" fill="#000000">GapsFlag</text>
</g>
<!-- Node617 -->
<g id="node2" class="node">
<title>Node617</title>
<g id="a_node2"><a xlink:href="classtrim_al_manager.html#a7c641a1feff33d401b4ea5c82e989289" target="_top" xlink:title="trimAlManager::innerPerform">
<polygon fill="#ffffff" stroke="#000000" points="164.5,-38.5 164.5,-57.5 305.5,-57.5 305.5,-38.5 164.5,-38.5"/>
<text text-anchor="middle" x="235" y="-45.5" font-family="Helvetica,sans-Serif" font-size="10.00" fill="#000000">trimAlManager::innerPerform</text>
</a>
</g>
</g>
<!-- Node616&#45;&gt;Node617 -->
<g id="edge1" class="edge">
<title>Node616&#45;&gt;Node617</title>
<path fill="none" stroke="#191970" d="M137.3999,-37.1872C146.3776,-38.1818 155.5321,-39.196 164.4594,-40.185"/>
<polygon fill="#191970" stroke="#191970" points="137.6849,-33.6974 127.3603,-36.0749 136.914,-40.6548 137.6849,-33.6974"/>
</g>
<!-- Node620 -->
<g id="node5" class="node">
<title>Node620</title>
<g id="a_node5"><a xlink:href="classtrim_al_manager.html#ac5795f93b3a2b51bf5d8dddd63b89f73" target="_top" xlink:title="trimAlManager::perform_VCF">
<polygon fill="#ffffff" stroke="#000000" points="163,-.5 163,-19.5 307,-19.5 307,-.5 163,-.5"/>
<text text-anchor="middle" x="235" y="-7.5" font-family="Helvetica,sans-Serif" font-size="10.00" fill="#000000">trimAlManager::perform_VCF</text>
</a>
</g>
</g>
<!-- Node616&#45;&gt;Node620 -->
<g id="edge4" class="edge">
<title>Node616&#45;&gt;Node620</title>
<path fill="none" stroke="#191970" d="M137.4728,-20.8048C145.8434,-19.8774 154.3666,-18.9331 162.7152,-18.0082"/>
<polygon fill="#191970" stroke="#191970" points="136.914,-17.3452 127.3603,-21.9251 137.6849,-24.3026 136.914,-17.3452"/>
</g>
<!-- Node618 -->
<g id="node3" class="node">
<title>Node618</title>
<g id="a_node3"><a xlink:href="classtrim_al_manager.html#abe8d2841455c644dc9c7d1294b82b00f" target="_top" xlink:title="Method to perform the analysis if all checks have passed. ">
<polygon fill="#ffffff" stroke="#000000" points="343,-38.5 343,-57.5 462,-57.5 462,-38.5 343,-38.5"/>
<text text-anchor="middle" x="402.5" y="-45.5" font-family="Helvetica,sans-Serif" font-size="10.00" fill="#000000">trimAlManager::perform</text>
</a>
</g>
</g>
<!-- Node617&#45;&gt;Node618 -->
<g id="edge2" class="edge">
<title>Node617&#45;&gt;Node618</title>
<path fill="none" stroke="#191970" d="M315.8102,-48C324.9363,-48 334.1089,-48 342.8939,-48"/>
<polygon fill="#191970" stroke="#191970" points="315.5497,-44.5001 305.5496,-48 315.5496,-51.5001 315.5497,-44.5001"/>
</g>
<!-- Node619 -->
<g id="node4" class="node">
<title>Node619</title>
<g id="a_node4"><a xlink:href="trim_al_main_8cpp.html#a0ddf1224851353fc92bfbff6f499fa97" target="_top" xlink:title="main">
<polygon fill="#ffffff" stroke="#000000" points="498,-38.5 498,-57.5 536,-57.5 536,-38.5 498,-38.5"/>
<text text-anchor="middle" x="517" y="-45.5" font-family="Helvetica,sans-Serif" font-size="10.00" fill="#000000">main</text>
</a>
</g>
</g>
<!-- Node618&#45;&gt;Node619 -->
<g id="edge3" class="edge">
<title>Node618&#45;&gt;Node619</title>
<path fill="none" stroke="#191970" d="M472.3198,-48C481.6177,-48 490.4503,-48 497.7697,-48"/>
<polygon fill="#191970" stroke="#191970" points="472.0976,-44.5001 462.0976,-48 472.0975,-51.5001 472.0976,-44.5001"/>
</g>
</g>
</svg>
