<?xml version="1.0" encoding="UTF-8" standalone="no"?>
<!DOCTYPE svg PUBLIC "-//W3C//DTD SVG 1.1//EN"
 "http://www.w3.org/Graphics/SVG/1.1/DTD/svg11.dtd">
<!-- Generated by graphviz version 2.38.0 (20140413.2041)
 -->
<!-- Title: Cleaner::removeSequences Pages: 1 -->
<svg width="521pt" height="78pt"
 viewBox="0.00 0.00 521.00 77.50" xmlns="http://www.w3.org/2000/svg" xmlns:xlink="http://www.w3.org/1999/xlink">
<g id="graph0" class="graph" transform="scale(1 1) rotate(0) translate(4 73.5)">
<title>Cleaner::removeSequences</title>
<polygon fill="white" stroke="none" points="-4,4 -4,-73.5 517,-73.5 517,4 -4,4"/>
<!-- Node223 -->
<g id="node1" class="node"><title>Node223</title>
<polygon fill="#bfbfbf" stroke="black" points="0,-28 0,-47 137,-47 137,-28 0,-28"/>
<text text-anchor="middle" x="68.5" y="-35" font-family="Helvetica,sans-Serif" font-size="10.00">Cleaner::removeSequences</text>
</g>
<!-- Node224 -->
<g id="node2" class="node"><title>Node224</title>
<g id="a_node2"><a xlink:href="class_cleaner.html#a24bd28e4191afc9471adff329bee1466" target="_top" xlink:title="Method for computing the complementary alignment. Complementary Alignment is an alignment containing ...">
<polygon fill="white" stroke="black" points="173,-50 173,-69 352,-69 352,-50 173,-50"/>
<text text-anchor="middle" x="262.5" y="-57" font-family="Helvetica,sans-Serif" font-size="10.00">Cleaner::computeComplementaryAlig</text>
</a>
</g>
</g>
<!-- Node223&#45;&gt;Node224 -->
<g id="edge1" class="edge"><title>Node223&#45;&gt;Node224</title>
<path fill="none" stroke="midnightblue" d="M137.192,-45.2564C147.256,-46.4095 157.775,-47.6148 168.25,-48.8151"/>
<polygon fill="midnightblue" stroke="midnightblue" points="167.931,-52.3013 178.264,-49.9626 168.728,-45.3469 167.931,-52.3013"/>
</g>
<!-- Node225 -->
<g id="node3" class="node"><title>Node225</title>
<g id="a_node3"><a xlink:href="class_cleaner.html#a2f7d85e29f23f880a7ad7e28863b36c3" target="_top" xlink:title="Method that identifies and removes columns and sequences composed only by gaps. ">
<polygon fill="white" stroke="black" points="208,-0.5 208,-30.5 317,-30.5 317,-0.5 208,-0.5"/>
<text text-anchor="start" x="216" y="-18.5" font-family="Helvetica,sans-Serif" font-size="10.00">Cleaner::removeCols</text>
<text text-anchor="middle" x="262.5" y="-7.5" font-family="Helvetica,sans-Serif" font-size="10.00">_SeqsAllGaps</text>
</a>
</g>
</g>
<!-- Node223&#45;&gt;Node225 -->
<g id="edge2" class="edge"><title>Node223&#45;&gt;Node225</title>
<path fill="none" stroke="midnightblue" d="M137.192,-29.7436C156.959,-27.4787 178.484,-25.0122 197.983,-22.778"/>
<polygon fill="midnightblue" stroke="midnightblue" points="198.438,-26.2489 207.974,-21.6331 197.641,-19.2944 198.438,-26.2489"/>
</g>
<!-- Node226 -->
<g id="node4" class="node"><title>Node226</title>
<g id="a_node4"><a xlink:href="class_verbose_manager.html#a261de87bbf9653cd729dca4e1fbeb2a3" target="_top" xlink:title="Method to report an Error. It will be displayed if VerboseManager::Level is equal or higher to Verbos...">
<polygon fill="white" stroke="black" points="388,-6 388,-25 513,-25 513,-6 388,-6"/>
<text text-anchor="middle" x="450.5" y="-13" font-family="Helvetica,sans-Serif" font-size="10.00">VerboseManager::Report</text>
</a>
</g>
</g>
<!-- Node225&#45;&gt;Node226 -->
<g id="edge3" class="edge"><title>Node225&#45;&gt;Node226</title>
<path fill="none" stroke="midnightblue" d="M317.299,-15.5C336.206,-15.5 357.76,-15.5 377.898,-15.5"/>
<polygon fill="midnightblue" stroke="midnightblue" points="377.964,-19.0001 387.964,-15.5 377.964,-12.0001 377.964,-19.0001"/>
</g>
</g>
</svg>
