<?xml version="1.0" encoding="UTF-8" standalone="no"?>
<!DOCTYPE svg PUBLIC "-//W3C//DTD SVG 1.1//EN"
 "http://www.w3.org/Graphics/SVG/1.1/DTD/svg11.dtd">
<!-- Generated by graphviz version 2.38.0 (20140413.2041)
 -->
<!-- Title: trimAlManager::check_backtranslation_infile_names_corresponde Pages: 1 -->
<svg width="472pt" height="50pt"
 viewBox="0.00 0.00 472.00 50.00" xmlns="http://www.w3.org/2000/svg" xmlns:xlink="http://www.w3.org/1999/xlink">
<g id="graph0" class="graph" transform="scale(1 1) rotate(0) translate(4 46)">
<title>trimAlManager::check_backtranslation_infile_names_corresponde</title>
<polygon fill="white" stroke="none" points="-4,4 -4,-46 468,-46 468,4 -4,4"/>
<!-- Node87 -->
<g id="node1" class="node"><title>Node87</title>
<polygon fill="#bfbfbf" stroke="black" points="0,-0.5 0,-41.5 113,-41.5 113,-0.5 0,-0.5"/>
<text text-anchor="start" x="8" y="-29.5" font-family="Helvetica,sans-Serif" font-size="10.00">trimAlManager::check</text>
<text text-anchor="start" x="8" y="-18.5" font-family="Helvetica,sans-Serif" font-size="10.00">_backtranslation_infile</text>
<text text-anchor="middle" x="56.5" y="-7.5" font-family="Helvetica,sans-Serif" font-size="10.00">_names_corresponde</text>
</g>
<!-- Node88 -->
<g id="node2" class="node"><title>Node88</title>
<g id="a_node2"><a xlink:href="classtrim_al_manager.html#a3f325b806727751394adb829d97b35f1" target="_top" xlink:title="Method that checks dependencies between arguments. Take in mind that dependencies may be between mult...">
<polygon fill="white" stroke="black" points="149,-6 149,-36 261,-36 261,-6 149,-6"/>
<text text-anchor="start" x="157" y="-24" font-family="Helvetica,sans-Serif" font-size="10.00">trimAlManager::check</text>
<text text-anchor="middle" x="205" y="-13" font-family="Helvetica,sans-Serif" font-size="10.00">_arguments_needs</text>
</a>
</g>
</g>
<!-- Node87&#45;&gt;Node88 -->
<g id="edge1" class="edge"><title>Node87&#45;&gt;Node88</title>
<path fill="none" stroke="midnightblue" d="M123.527,-21C131.986,-21 140.575,-21 148.836,-21"/>
<polygon fill="midnightblue" stroke="midnightblue" points="123.303,-17.5001 113.303,-21 123.303,-24.5001 123.303,-17.5001"/>
</g>
<!-- Node89 -->
<g id="node3" class="node"><title>Node89</title>
<g id="a_node3"><a xlink:href="classtrim_al_manager.html#a748b08a1ec5cd214de804ed0d4234a6e" target="_top" xlink:title="Method to process the information obtained by trimAlManager::parseArguments It checks for argument in...">
<polygon fill="white" stroke="black" points="297,-11.5 297,-30.5 464,-30.5 464,-11.5 297,-11.5"/>
<text text-anchor="middle" x="380.5" y="-18.5" font-family="Helvetica,sans-Serif" font-size="10.00">trimAlManager::processArguments</text>
</a>
</g>
</g>
<!-- Node88&#45;&gt;Node89 -->
<g id="edge2" class="edge"><title>Node88&#45;&gt;Node89</title>
<path fill="none" stroke="midnightblue" d="M271.636,-21C279.87,-21 288.376,-21 296.829,-21"/>
<polygon fill="midnightblue" stroke="midnightblue" points="271.374,-17.5001 261.374,-21 271.373,-24.5001 271.374,-17.5001"/>
</g>
</g>
</svg>
