<?xml version="1.0" encoding="UTF-8" standalone="no"?>
<!DOCTYPE svg PUBLIC "-//W3C//DTD SVG 1.1//EN"
 "http://www.w3.org/Graphics/SVG/1.1/DTD/svg11.dtd">
<!-- Generated by graphviz version 2.38.0 (20140413.2041)
 -->
<!-- Title: Cleaner::cleanCombMethods Pages: 1 -->
<svg width="1174pt" height="252pt"
 viewBox="0.00 0.00 1174.00 252.00" xmlns="http://www.w3.org/2000/svg" xmlns:xlink="http://www.w3.org/1999/xlink">
<g id="graph0" class="graph" transform="scale(1 1) rotate(0) translate(4 248)">
<title>Cleaner::cleanCombMethods</title>
<polygon fill="white" stroke="none" points="-4,4 -4,-248 1170,-248 1170,4 -4,4"/>
<!-- Node91 -->
<g id="node1" class="node"><title>Node91</title>
<polygon fill="#bfbfbf" stroke="black" points="0,-60.5 0,-79.5 143,-79.5 143,-60.5 0,-60.5"/>
<text text-anchor="middle" x="71.5" y="-67.5" font-family="Helvetica,sans-Serif" font-size="10.00">Cleaner::cleanCombMethods</text>
</g>
<!-- Node92 -->
<g id="node2" class="node"><title>Node92</title>
<g id="a_node2"><a xlink:href="class_cleaner.html#a740bce047dce09be0f6bd1da9f826da3" target="_top" xlink:title="Method to clean an alignment. It carries out strict and strictplus. It removes sequences that overpas...">
<polygon fill="white" stroke="black" points="192,-180.5 192,-199.5 295,-199.5 295,-180.5 192,-180.5"/>
<text text-anchor="middle" x="243.5" y="-187.5" font-family="Helvetica,sans-Serif" font-size="10.00">Cleaner::cleanStrict</text>
</a>
</g>
</g>
<!-- Node91&#45;&gt;Node92 -->
<g id="edge1" class="edge"><title>Node91&#45;&gt;Node92</title>
<path fill="none" stroke="midnightblue" d="M86.1244,-79.6173C115.469,-100.331 184.866,-149.317 220.518,-174.484"/>
<polygon fill="midnightblue" stroke="midnightblue" points="218.623,-177.429 228.811,-180.337 222.659,-171.711 218.623,-177.429"/>
</g>
<!-- Node96 -->
<g id="node6" class="node"><title>Node96</title>
<g id="a_node6"><a xlink:href="classstatistics_conservation.html#a0e674b4b4b91773fb1c32a532797f328" target="_top" xlink:title="This methods returns a pointer to conservationWindow&#39;s vector. ">
<polygon fill="white" stroke="black" points="179,-77 179,-107 308,-107 308,-77 179,-77"/>
<text text-anchor="start" x="187" y="-95" font-family="Helvetica,sans-Serif" font-size="10.00">statisticsConservation</text>
<text text-anchor="middle" x="243.5" y="-84" font-family="Helvetica,sans-Serif" font-size="10.00">::getMdkWindowedVector</text>
</a>
</g>
</g>
<!-- Node91&#45;&gt;Node96 -->
<g id="edge5" class="edge"><title>Node91&#45;&gt;Node96</title>
<path fill="none" stroke="midnightblue" d="M143.118,-79.1389C151.642,-80.2419 160.365,-81.3707 168.93,-82.4791"/>
<polygon fill="midnightblue" stroke="midnightblue" points="168.524,-85.9557 178.89,-83.7682 169.422,-79.0136 168.524,-85.9557"/>
</g>
<!-- Node101 -->
<g id="node11" class="node"><title>Node101</title>
<g id="a_node11"><a xlink:href="classutils.html#aac322cd1761fddedec8a5792e358eb32" target="_top" xlink:title="Vector initialization. ">
<polygon fill="white" stroke="black" points="878.5,-61.5 878.5,-80.5 954.5,-80.5 954.5,-61.5 878.5,-61.5"/>
<text text-anchor="middle" x="916.5" y="-68.5" font-family="Helvetica,sans-Serif" font-size="10.00">utils::initlVect</text>
</a>
</g>
</g>
<!-- Node91&#45;&gt;Node101 -->
<g id="edge15" class="edge"><title>Node91&#45;&gt;Node101</title>
<path fill="none" stroke="midnightblue" d="M143.136,-62.8268C212.522,-56.4068 321.434,-48 416,-48 416,-48 416,-48 585,-48 686.068,-48 804.103,-58.8363 868.195,-65.6328"/>
<polygon fill="midnightblue" stroke="midnightblue" points="868.068,-69.1393 878.385,-66.7278 868.816,-62.1794 868.068,-69.1393"/>
</g>
<!-- Node104 -->
<g id="node14" class="node"><title>Node104</title>
<g id="a_node14"><a xlink:href="classutils.html#a73f038c379c13d23e3220afaa14f9983" target="_top" xlink:title="Quicksort sorting method. ">
<polygon fill="white" stroke="black" points="203.5,-0.5 203.5,-19.5 283.5,-19.5 283.5,-0.5 203.5,-0.5"/>
<text text-anchor="middle" x="243.5" y="-7.5" font-family="Helvetica,sans-Serif" font-size="10.00">utils::quicksort</text>
</a>
</g>
</g>
<!-- Node91&#45;&gt;Node104 -->
<g id="edge16" class="edge"><title>Node91&#45;&gt;Node104</title>
<path fill="none" stroke="midnightblue" d="M99.437,-60.4928C128.2,-50.3412 173.954,-34.1926 205.953,-22.8989"/>
<polygon fill="midnightblue" stroke="midnightblue" points="207.143,-26.1906 215.408,-19.5618 204.813,-19.5896 207.143,-26.1906"/>
</g>
<!-- Node93 -->
<g id="node3" class="node"><title>Node93</title>
<g id="a_node3"><a xlink:href="classutils.html#ad50731aeb3c8f79ed8372516210dfc9d" target="_top" xlink:title="Round double to integer method. ">
<polygon fill="white" stroke="black" points="379,-224.5 379,-243.5 455,-243.5 455,-224.5 379,-224.5"/>
<text text-anchor="middle" x="417" y="-231.5" font-family="Helvetica,sans-Serif" font-size="10.00">utils::roundInt</text>
</a>
</g>
</g>
<!-- Node92&#45;&gt;Node93 -->
<g id="edge2" class="edge"><title>Node92&#45;&gt;Node93</title>
<path fill="none" stroke="midnightblue" d="M281.713,-199.547C307.333,-206.12 341.572,-214.905 369.065,-221.958"/>
<polygon fill="midnightblue" stroke="midnightblue" points="368.304,-225.376 378.86,-224.471 370.043,-218.596 368.304,-225.376"/>
</g>
<!-- Node94 -->
<g id="node4" class="node"><title>Node94</title>
<g id="a_node4"><a xlink:href="class_cleaner.html#ada8ad076dd037f00ae3f4fd17762641f" target="_top" xlink:title="Method that identifies and removes columns and sequences composed only by gaps. ">
<polygon fill="white" stroke="black" points="344,-175 344,-205 490,-205 490,-175 344,-175"/>
<text text-anchor="start" x="352" y="-193" font-family="Helvetica,sans-Serif" font-size="10.00">Cleaner::removeAllGapsSeqs</text>
<text text-anchor="middle" x="417" y="-182" font-family="Helvetica,sans-Serif" font-size="10.00">AndCols</text>
</a>
</g>
</g>
<!-- Node92&#45;&gt;Node94 -->
<g id="edge3" class="edge"><title>Node92&#45;&gt;Node94</title>
<path fill="none" stroke="midnightblue" d="M295.028,-190C307.232,-190 320.588,-190 333.83,-190"/>
<polygon fill="midnightblue" stroke="midnightblue" points="333.913,-193.5 343.913,-190 333.913,-186.5 333.913,-193.5"/>
</g>
<!-- Node95 -->
<g id="node5" class="node"><title>Node95</title>
<g id="a_node5"><a xlink:href="class____internal_report_1_1____report_system.html#acd358cbc59625c6e2f47e0b5f825400d" target="_top" xlink:title="Method to report an Error. &#160;It will be displayed if Level &#160;is equal or higher to VerboseLevel::ERROR...">
<polygon fill="white" stroke="black" points="526,-150 526,-180 642,-180 642,-150 526,-150"/>
<text text-anchor="start" x="534" y="-168" font-family="Helvetica,sans-Serif" font-size="10.00">__internalReport::</text>
<text text-anchor="middle" x="584" y="-157" font-family="Helvetica,sans-Serif" font-size="10.00">__reportSystem::report</text>
</a>
</g>
</g>
<!-- Node94&#45;&gt;Node95 -->
<g id="edge4" class="edge"><title>Node94&#45;&gt;Node95</title>
<path fill="none" stroke="midnightblue" d="M490.371,-179.035C498.743,-177.766 507.257,-176.476 515.559,-175.218"/>
<polygon fill="midnightblue" stroke="midnightblue" points="516.196,-178.662 525.559,-173.703 515.147,-171.741 516.196,-178.662"/>
</g>
<!-- Node97 -->
<g id="node7" class="node"><title>Node97</title>
<g id="a_node7"><a xlink:href="classstatistics_conservation.html#a48c32412653c299b159b56311065fc80" target="_top" xlink:title="Returns if a windows size value has been defined or not. ">
<polygon fill="white" stroke="black" points="360,-126 360,-156 474,-156 474,-126 360,-126"/>
<text text-anchor="start" x="368" y="-144" font-family="Helvetica,sans-Serif" font-size="10.00">statisticsConservation</text>
<text text-anchor="middle" x="417" y="-133" font-family="Helvetica,sans-Serif" font-size="10.00">::isDefinedWindow</text>
</a>
</g>
</g>
<!-- Node96&#45;&gt;Node97 -->
<g id="edge6" class="edge"><title>Node96&#45;&gt;Node97</title>
<path fill="none" stroke="midnightblue" d="M297.355,-107.101C315.125,-112.179 335.116,-117.89 353.552,-123.158"/>
<polygon fill="midnightblue" stroke="midnightblue" points="352.743,-126.566 363.319,-125.948 354.666,-119.836 352.743,-126.566"/>
</g>
<!-- Node98 -->
<g id="node8" class="node"><title>Node98</title>
<g id="a_node8"><a xlink:href="classstatistics_conservation.html#a31f6ff0c30b2a207aba13f7687709467" target="_top" xlink:title="Allows us compute the conservationWindow&#39;s values. ">
<polygon fill="white" stroke="black" points="360,-77 360,-107 474,-107 474,-77 360,-77"/>
<text text-anchor="start" x="368" y="-95" font-family="Helvetica,sans-Serif" font-size="10.00">statisticsConservation</text>
<text text-anchor="middle" x="417" y="-84" font-family="Helvetica,sans-Serif" font-size="10.00">::applyWindow</text>
</a>
</g>
</g>
<!-- Node96&#45;&gt;Node98 -->
<g id="edge7" class="edge"><title>Node96&#45;&gt;Node98</title>
<path fill="none" stroke="midnightblue" d="M308.36,-92C321.869,-92 336.154,-92 349.748,-92"/>
<polygon fill="midnightblue" stroke="midnightblue" points="349.985,-95.5001 359.985,-92 349.985,-88.5001 349.985,-95.5001"/>
</g>
<!-- Node98&#45;&gt;Node95 -->
<g id="edge14" class="edge"><title>Node98&#45;&gt;Node95</title>
<path fill="none" stroke="midnightblue" d="M466.816,-107.07C474.65,-109.831 482.607,-112.845 490,-116 509.686,-124.401 530.854,-135.388 548.014,-144.83"/>
<polygon fill="midnightblue" stroke="midnightblue" points="546.66,-148.082 557.1,-149.889 550.066,-141.966 546.66,-148.082"/>
</g>
<!-- Node99 -->
<g id="node9" class="node"><title>Node99</title>
<g id="a_node9"><a xlink:href="classstatistics_conservation.html#ada98c86595cb14a2e8bc058703aa8066" target="_top" xlink:title="Method to calculate the conservation values of a alignment matrix. ">
<polygon fill="white" stroke="black" points="527,-77 527,-107 641,-107 641,-77 527,-77"/>
<text text-anchor="start" x="535" y="-95" font-family="Helvetica,sans-Serif" font-size="10.00">statisticsConservation</text>
<text text-anchor="middle" x="584" y="-84" font-family="Helvetica,sans-Serif" font-size="10.00">::calculateVectors</text>
</a>
</g>
</g>
<!-- Node98&#45;&gt;Node99 -->
<g id="edge8" class="edge"><title>Node98&#45;&gt;Node99</title>
<path fill="none" stroke="midnightblue" d="M474.322,-92C487.995,-92 502.737,-92 516.819,-92"/>
<polygon fill="midnightblue" stroke="midnightblue" points="516.932,-95.5001 526.932,-92 516.932,-88.5001 516.932,-95.5001"/>
</g>
<!-- Node100 -->
<g id="node10" class="node"><title>Node100</title>
<g id="a_node10"><a xlink:href="classstatistics_conservation.html#a9fe3502be02c8d6591a6de2d5f81c337" target="_top" xlink:title="Computes the matrix identity between alignment&#39;s columns. ">
<polygon fill="white" stroke="black" points="678,-77 678,-107 799,-107 799,-77 678,-77"/>
<text text-anchor="start" x="686" y="-95" font-family="Helvetica,sans-Serif" font-size="10.00">statisticsConservation</text>
<text text-anchor="middle" x="738.5" y="-84" font-family="Helvetica,sans-Serif" font-size="10.00">::calculateMatrixIdentity</text>
</a>
</g>
</g>
<!-- Node99&#45;&gt;Node100 -->
<g id="edge9" class="edge"><title>Node99&#45;&gt;Node100</title>
<path fill="none" stroke="midnightblue" d="M641.352,-92C649.89,-92 658.785,-92 667.568,-92"/>
<polygon fill="midnightblue" stroke="midnightblue" points="667.799,-95.5001 677.799,-92 667.799,-88.5001 667.799,-95.5001"/>
</g>
<!-- Node102 -->
<g id="node12" class="node"><title>Node102</title>
<g id="a_node12"><a xlink:href="classnew_alignment.html#a670d5ef1ced9ed6041c3f6afdbd2cc02" target="_top" xlink:title="Alignment type getter. &#160;&#160;See SequenceTypes.">
<polygon fill="white" stroke="black" points="835,-102.5 835,-121.5 998,-121.5 998,-102.5 835,-102.5"/>
<text text-anchor="middle" x="916.5" y="-109.5" font-family="Helvetica,sans-Serif" font-size="10.00">newAlignment::getAlignmentType</text>
</a>
</g>
</g>
<!-- Node99&#45;&gt;Node102 -->
<g id="edge13" class="edge"><title>Node99&#45;&gt;Node102</title>
<path fill="none" stroke="midnightblue" d="M633.78,-107.054C647.905,-110.738 663.443,-114.152 678,-116 726.201,-122.119 780.342,-121.759 824.745,-119.586"/>
<polygon fill="midnightblue" stroke="midnightblue" points="825.135,-123.071 834.937,-119.048 824.766,-116.08 825.135,-123.071"/>
</g>
<!-- Node100&#45;&gt;Node101 -->
<g id="edge10" class="edge"><title>Node100&#45;&gt;Node101</title>
<path fill="none" stroke="midnightblue" d="M799.086,-84.8904C821.625,-82.201 846.95,-79.1793 868.209,-76.6426"/>
<polygon fill="midnightblue" stroke="midnightblue" points="868.774,-80.1001 878.289,-75.4399 867.945,-73.1494 868.774,-80.1001"/>
</g>
<!-- Node100&#45;&gt;Node102 -->
<g id="edge11" class="edge"><title>Node100&#45;&gt;Node102</title>
<path fill="none" stroke="midnightblue" d="M799.086,-98.7711C807.328,-99.7078 815.944,-100.687 824.597,-101.67"/>
<polygon fill="midnightblue" stroke="midnightblue" points="824.42,-105.172 834.752,-102.824 825.211,-98.2173 824.42,-105.172"/>
</g>
<!-- Node103 -->
<g id="node13" class="node"><title>Node103</title>
<g id="a_node13"><a xlink:href="classutils.html#a1f1dcbfa7276e54acec72bdbae1b1255" target="_top" xlink:title="Checks an alignment type. ">
<polygon fill="white" stroke="black" points="1034,-102.5 1034,-121.5 1166,-121.5 1166,-102.5 1034,-102.5"/>
<text text-anchor="middle" x="1100" y="-109.5" font-family="Helvetica,sans-Serif" font-size="10.00">utils::checkAlignmentType</text>
</a>
</g>
</g>
<!-- Node102&#45;&gt;Node103 -->
<g id="edge12" class="edge"><title>Node102&#45;&gt;Node103</title>
<path fill="none" stroke="midnightblue" d="M998.166,-112C1006.65,-112 1015.25,-112 1023.66,-112"/>
<polygon fill="midnightblue" stroke="midnightblue" points="1023.82,-115.5 1033.82,-112 1023.82,-108.5 1023.82,-115.5"/>
</g>
<!-- Node105 -->
<g id="node15" class="node"><title>Node105</title>
<g id="a_node15"><a xlink:href="classutils.html#a3377ecde55631d1bbc4956e5923b7469" target="_top" xlink:title="Swapping elements method. ">
<polygon fill="white" stroke="black" points="385,-0.5 385,-19.5 449,-19.5 449,-0.5 385,-0.5"/>
<text text-anchor="middle" x="417" y="-7.5" font-family="Helvetica,sans-Serif" font-size="10.00">utils::swap</text>
</a>
</g>
</g>
<!-- Node104&#45;&gt;Node105 -->
<g id="edge17" class="edge"><title>Node104&#45;&gt;Node105</title>
<path fill="none" stroke="midnightblue" d="M283.846,-10C311.029,-10 347.116,-10 374.711,-10"/>
<polygon fill="midnightblue" stroke="midnightblue" points="374.835,-13.5001 384.835,-10 374.835,-6.5001 374.835,-13.5001"/>
</g>
</g>
</svg>
