<?xml version="1.0" encoding="UTF-8" standalone="no"?>
<!DOCTYPE svg PUBLIC "-//W3C//DTD SVG 1.1//EN"
 "http://www.w3.org/Graphics/SVG/1.1/DTD/svg11.dtd">
<!-- Generated by graphviz version 2.40.1 (20161225.0304)
 -->
<!-- Title: statistics::Similarity::getMdkWindowedVector Pages: 1 -->
<svg width="1044pt" height="379pt"
 viewBox="0.00 0.00 1044.00 378.50" xmlns="http://www.w3.org/2000/svg" xmlns:xlink="http://www.w3.org/1999/xlink">
<g id="graph0" class="graph" transform="scale(1 1) rotate(0) translate(4 374.5)">
<title>statistics::Similarity::getMdkWindowedVector</title>
<polygon fill="#ffffff" stroke="transparent" points="-4,4 -4,-374.5 1040,-374.5 1040,4 -4,4"/>
<!-- Node187 -->
<g id="node1" class="node">
<title>Node187</title>
<polygon fill="#bfbfbf" stroke="#000000" points="0,-148.5 0,-178.5 129,-178.5 129,-148.5 0,-148.5"/>
<text text-anchor="start" x="8" y="-166.5" font-family="Helvetica,sans-Serif" font-size="10.00" fill="#000000">statistics::Similarity</text>
<text text-anchor="middle" x="64.5" y="-155.5" font-family="Helvetica,sans-Serif" font-size="10.00" fill="#000000">::getMdkWindowedVector</text>
</g>
<!-- Node188 -->
<g id="node2" class="node">
<title>Node188</title>
<g id="a_node2"><a xlink:href="classstatistics_1_1_similarity.html#adcb5627b9704850e85433fc40c19db17" target="_top" xlink:title="Allows us compute the conservationWindow&#39;s values. ">
<polygon fill="#ffffff" stroke="#000000" points="165,-173.5 165,-203.5 268,-203.5 268,-173.5 165,-173.5"/>
<text text-anchor="start" x="173" y="-191.5" font-family="Helvetica,sans-Serif" font-size="10.00" fill="#000000">statistics::Similarity</text>
<text text-anchor="middle" x="216.5" y="-180.5" font-family="Helvetica,sans-Serif" font-size="10.00" fill="#000000">::applyWindow</text>
</a>
</g>
</g>
<!-- Node187&#45;&gt;Node188 -->
<g id="edge1" class="edge">
<title>Node187&#45;&gt;Node188</title>
<path fill="none" stroke="#191970" d="M129.4026,-174.1748C137.7779,-175.5523 146.337,-176.96 154.6612,-178.3291"/>
<polygon fill="#191970" stroke="#191970" points="154.2346,-181.8059 164.6701,-179.9753 155.3707,-174.8987 154.2346,-181.8059"/>
</g>
<!-- Node204 -->
<g id="node18" class="node">
<title>Node204</title>
<g id="a_node18"><a xlink:href="classstatistics_1_1_similarity.html#a4446bf070a858952dac45f5705d16780" target="_top" xlink:title="Returns if a windows size value has been defined or not. ">
<polygon fill="#ffffff" stroke="#000000" points="165,-124.5 165,-154.5 268,-154.5 268,-124.5 165,-124.5"/>
<text text-anchor="start" x="173" y="-142.5" font-family="Helvetica,sans-Serif" font-size="10.00" fill="#000000">statistics::Similarity</text>
<text text-anchor="middle" x="216.5" y="-131.5" font-family="Helvetica,sans-Serif" font-size="10.00" fill="#000000">::isDefinedWindow</text>
</a>
</g>
</g>
<!-- Node187&#45;&gt;Node204 -->
<g id="edge23" class="edge">
<title>Node187&#45;&gt;Node204</title>
<path fill="none" stroke="#191970" d="M129.4026,-153.2522C137.7779,-151.9298 146.337,-150.5784 154.6612,-149.264"/>
<polygon fill="#191970" stroke="#191970" points="155.3384,-152.7005 164.6701,-147.6837 154.2466,-145.7862 155.3384,-152.7005"/>
</g>
<!-- Node189 -->
<g id="node3" class="node">
<title>Node189</title>
<g id="a_node3"><a xlink:href="classstatistics_1_1_similarity.html#ae69ec0e79912ae23c8cfe97358c4794d" target="_top" xlink:title="Method to calculate the similarity values of a alignment matrix. ">
<polygon fill="#ffffff" stroke="#000000" points="304,-126.5 304,-156.5 407,-156.5 407,-126.5 304,-126.5"/>
<text text-anchor="start" x="312" y="-144.5" font-family="Helvetica,sans-Serif" font-size="10.00" fill="#000000">statistics::Similarity</text>
<text text-anchor="middle" x="355.5" y="-133.5" font-family="Helvetica,sans-Serif" font-size="10.00" fill="#000000">::calculateVectors</text>
</a>
</g>
</g>
<!-- Node188&#45;&gt;Node189 -->
<g id="edge2" class="edge">
<title>Node188&#45;&gt;Node189</title>
<path fill="none" stroke="#191970" d="M260.8626,-173.4997C273.7773,-169.1329 288.0303,-164.3135 301.4702,-159.7691"/>
<polygon fill="#191970" stroke="#191970" points="302.7301,-163.0378 311.0821,-156.519 300.4878,-156.4066 302.7301,-163.0378"/>
</g>
<!-- Node193 -->
<g id="node7" class="node">
<title>Node193</title>
<g id="a_node7"><a xlink:href="classreporting_1_1report_manager.html#a6d122e673144584e0869bd33b8a5c1c6" target="_top" xlink:title="Method to report an Error. &#160;It will be displayed if Level &#160;is equal or higher to VerboseLevel::ERROR...">
<polygon fill="#ffffff" stroke="#000000" points="798,-216.5 798,-246.5 920,-246.5 920,-216.5 798,-216.5"/>
<text text-anchor="start" x="806" y="-234.5" font-family="Helvetica,sans-Serif" font-size="10.00" fill="#000000">reporting::reportManager</text>
<text text-anchor="middle" x="859" y="-223.5" font-family="Helvetica,sans-Serif" font-size="10.00" fill="#000000">::report</text>
</a>
</g>
</g>
<!-- Node188&#45;&gt;Node193 -->
<g id="edge22" class="edge">
<title>Node188&#45;&gt;Node193</title>
<path fill="none" stroke="#191970" d="M268.1089,-195.8477C313.9417,-202.0872 382.7942,-210.7614 443,-215.5 563.8709,-225.0133 704.962,-228.9291 787.8714,-230.4984"/>
<polygon fill="#191970" stroke="#191970" points="787.8738,-233.9989 797.9363,-230.6827 788.0021,-227.0001 787.8738,-233.9989"/>
</g>
<!-- Node190 -->
<g id="node4" class="node">
<title>Node190</title>
<g id="a_node4"><a xlink:href="classstatistics_1_1_manager.html#a1969a416d3020d25daa56de6c5e305db" target="_top" xlink:title="Method to handle gap stat calculation It checks if the gaps submodule has been created, otherwise, creates it. ">
<polygon fill="#ffffff" stroke="#000000" points="455.5,-282.5 455.5,-312.5 558.5,-312.5 558.5,-282.5 455.5,-282.5"/>
<text text-anchor="start" x="463.5" y="-300.5" font-family="Helvetica,sans-Serif" font-size="10.00" fill="#000000">statistics::Manager</text>
<text text-anchor="middle" x="507" y="-289.5" font-family="Helvetica,sans-Serif" font-size="10.00" fill="#000000">::calculateGapStats</text>
</a>
</g>
</g>
<!-- Node189&#45;&gt;Node190 -->
<g id="edge3" class="edge">
<title>Node189&#45;&gt;Node190</title>
<path fill="none" stroke="#191970" d="M370.3023,-156.742C397.1849,-184.4231 454.1309,-243.0605 485.3715,-275.229"/>
<polygon fill="#191970" stroke="#191970" points="482.883,-277.6904 492.3607,-282.4258 487.9046,-272.8136 482.883,-277.6904"/>
</g>
<!-- Node197 -->
<g id="node11" class="node">
<title>Node197</title>
<g id="a_node11"><a xlink:href="classstatistics_1_1_similarity.html#a75bd235b3207235eefa7b52dff063c76" target="_top" xlink:title="Computes the matrix identity between alignment&#39;s columns. ">
<polygon fill="#ffffff" stroke="#000000" points="446.5,-.5 446.5,-30.5 567.5,-30.5 567.5,-.5 446.5,-.5"/>
<text text-anchor="start" x="454.5" y="-18.5" font-family="Helvetica,sans-Serif" font-size="10.00" fill="#000000">statistics::Similarity</text>
<text text-anchor="middle" x="507" y="-7.5" font-family="Helvetica,sans-Serif" font-size="10.00" fill="#000000">::calculateMatrixIdentity</text>
</a>
</g>
</g>
<!-- Node189&#45;&gt;Node197 -->
<g id="edge11" class="edge">
<title>Node189&#45;&gt;Node197</title>
<path fill="none" stroke="#191970" d="M366.1747,-126.4804C381.3384,-106.0053 410.8658,-69.1771 443,-45.5 448.0569,-41.774 453.6503,-38.3386 459.3634,-35.2266"/>
<polygon fill="#191970" stroke="#191970" points="461.0759,-38.2819 468.3799,-30.6072 457.884,-32.0519 461.0759,-38.2819"/>
</g>
<!-- Node198 -->
<g id="node12" class="node">
<title>Node198</title>
<g id="a_node12"><a xlink:href="class_alignment.html#ab2487799d9a7d593d7fbe1b8da9593f5" target="_top" xlink:title="Alignment type getter. &#160;&#160;See SequenceTypes. ">
<polygon fill="#ffffff" stroke="#000000" points="609.5,-50 609.5,-69 754.5,-69 754.5,-50 609.5,-50"/>
<text text-anchor="middle" x="682" y="-57" font-family="Helvetica,sans-Serif" font-size="10.00" fill="#000000">Alignment::getAlignmentType</text>
</a>
</g>
</g>
<!-- Node189&#45;&gt;Node198 -->
<g id="edge15" class="edge">
<title>Node189&#45;&gt;Node198</title>
<path fill="none" stroke="#191970" d="M372.8656,-126.2375C389.5877,-112.502 416.2221,-93.0544 443,-83.5 492.9475,-65.6786 552.2485,-59.6406 599.2849,-58.0767"/>
<polygon fill="#191970" stroke="#191970" points="599.5306,-61.5714 609.4322,-57.8018 599.341,-54.574 599.5306,-61.5714"/>
</g>
<!-- Node200 -->
<g id="node14" class="node">
<title>Node200</title>
<g id="a_node14"><a xlink:href="namespaceutils.html#a6286fde6f4dd58ef0cfa9d55341b72f8" target="_top" xlink:title="utils::toUpper">
<polygon fill="#ffffff" stroke="#000000" points="961,-69 961,-88 1036,-88 1036,-69 961,-69"/>
<text text-anchor="middle" x="998.5" y="-76" font-family="Helvetica,sans-Serif" font-size="10.00" fill="#000000">utils::toUpper</text>
</a>
</g>
</g>
<!-- Node189&#45;&gt;Node200 -->
<g id="edge21" class="edge">
<title>Node189&#45;&gt;Node200</title>
<path fill="none" stroke="#191970" d="M403.7135,-126.4435C416.383,-122.9932 430.1118,-119.6977 443,-117.5 628.9734,-85.7875 854.1965,-79.7608 950.7728,-78.6876"/>
<polygon fill="#191970" stroke="#191970" points="950.8441,-82.1872 960.8092,-78.589 950.7753,-75.1875 950.8441,-82.1872"/>
</g>
<!-- Node201 -->
<g id="node15" class="node">
<title>Node201</title>
<g id="a_node15"><a xlink:href="classstatistics_1_1similarity_matrix.html#a0cdb3ed14678b442824e84e6385e8f84" target="_top" xlink:title="Method to get the similarity distance between two residues, A and B Characters provided must be both ...">
<polygon fill="#ffffff" stroke="#000000" points="443,-126.5 443,-156.5 571,-156.5 571,-126.5 443,-126.5"/>
<text text-anchor="start" x="451" y="-144.5" font-family="Helvetica,sans-Serif" font-size="10.00" fill="#000000">statistics::similarityMatrix</text>
<text text-anchor="middle" x="507" y="-133.5" font-family="Helvetica,sans-Serif" font-size="10.00" fill="#000000">::getDistance</text>
</a>
</g>
</g>
<!-- Node189&#45;&gt;Node201 -->
<g id="edge16" class="edge">
<title>Node189&#45;&gt;Node201</title>
<path fill="none" stroke="#191970" d="M407.214,-141.5C415.4698,-141.5 424.1506,-141.5 432.8044,-141.5"/>
<polygon fill="#191970" stroke="#191970" points="432.9237,-145.0001 442.9236,-141.5 432.9236,-138.0001 432.9237,-145.0001"/>
</g>
<!-- Node202 -->
<g id="node16" class="node">
<title>Node202</title>
<g id="a_node16"><a xlink:href="classstatistics_1_1_gaps.html#ab5b60db326475f8adc68b130e22b3963" target="_top" xlink:title="statistics::Gaps::getGaps\lWindow">
<polygon fill="#ffffff" stroke="#000000" points="443,-175.5 443,-205.5 571,-205.5 571,-175.5 443,-175.5"/>
<text text-anchor="start" x="451" y="-193.5" font-family="Helvetica,sans-Serif" font-size="10.00" fill="#000000">statistics::Gaps::getGaps</text>
<text text-anchor="middle" x="507" y="-182.5" font-family="Helvetica,sans-Serif" font-size="10.00" fill="#000000">Window</text>
</a>
</g>
</g>
<!-- Node189&#45;&gt;Node202 -->
<g id="edge18" class="edge">
<title>Node189&#45;&gt;Node202</title>
<path fill="none" stroke="#191970" d="M402.1912,-156.6014C417.5269,-161.5615 434.7356,-167.1274 450.7066,-172.2929"/>
<polygon fill="#191970" stroke="#191970" points="449.8712,-175.7011 460.463,-175.4484 452.0254,-169.0408 449.8712,-175.7011"/>
</g>
<!-- Node191 -->
<g id="node5" class="node">
<title>Node191</title>
<g id="a_node5"><a xlink:href="classstatistics_1_1_gaps.html#aee36b772767467cdba2061df2305e85d" target="_top" xlink:title="statistics::Gaps::applyWindow">
<polygon fill="#ffffff" stroke="#000000" points="607,-263 607,-282 757,-282 757,-263 607,-263"/>
<text text-anchor="middle" x="682" y="-270" font-family="Helvetica,sans-Serif" font-size="10.00" fill="#000000">statistics::Gaps::applyWindow</text>
</a>
</g>
</g>
<!-- Node190&#45;&gt;Node191 -->
<g id="edge4" class="edge">
<title>Node190&#45;&gt;Node191</title>
<path fill="none" stroke="#191970" d="M558.5593,-290.1344C573.1154,-288.0549 589.2776,-285.7461 604.9828,-283.5025"/>
<polygon fill="#191970" stroke="#191970" points="605.8114,-286.9197 615.2159,-282.0406 604.8214,-279.9901 605.8114,-286.9197"/>
</g>
<!-- Node195 -->
<g id="node9" class="node">
<title>Node195</title>
<g id="a_node9"><a xlink:href="classstatistics_1_1_gaps.html#aa3526494d5100e062daa4afba755d0b1" target="_top" xlink:title="statistics::Gaps::Calculate\lVectors">
<polygon fill="#ffffff" stroke="#000000" points="615.5,-301.5 615.5,-331.5 748.5,-331.5 748.5,-301.5 615.5,-301.5"/>
<text text-anchor="start" x="623.5" y="-319.5" font-family="Helvetica,sans-Serif" font-size="10.00" fill="#000000">statistics::Gaps::Calculate</text>
<text text-anchor="middle" x="682" y="-308.5" font-family="Helvetica,sans-Serif" font-size="10.00" fill="#000000">Vectors</text>
</a>
</g>
</g>
<!-- Node190&#45;&gt;Node195 -->
<g id="edge8" class="edge">
<title>Node190&#45;&gt;Node195</title>
<path fill="none" stroke="#191970" d="M558.5593,-303.0979C573.1154,-304.6782 589.2776,-306.433 604.9828,-308.1381"/>
<polygon fill="#191970" stroke="#191970" points="604.8965,-311.6492 615.2159,-309.2492 605.6521,-304.6901 604.8965,-311.6492"/>
</g>
<!-- Node196 -->
<g id="node10" class="node">
<title>Node196</title>
<g id="a_node10"><a xlink:href="classstatistics_1_1_gaps.html#a2f1d71bafa5e44e5f2c96771cf2a26ed" target="_top" xlink:title="statistics::Gaps::Gaps">
<polygon fill="#ffffff" stroke="#000000" points="624.5,-351 624.5,-370 739.5,-370 739.5,-351 624.5,-351"/>
<text text-anchor="middle" x="682" y="-358" font-family="Helvetica,sans-Serif" font-size="10.00" fill="#000000">statistics::Gaps::Gaps</text>
</a>
</g>
</g>
<!-- Node190&#45;&gt;Node196 -->
<g id="edge9" class="edge">
<title>Node190&#45;&gt;Node196</title>
<path fill="none" stroke="#191970" d="M537.5512,-312.5287C557.0859,-321.7386 583.1453,-333.2942 607,-341.5 614.1536,-343.9608 621.7897,-346.2584 629.3497,-348.3456"/>
<polygon fill="#191970" stroke="#191970" points="628.6336,-351.7767 639.1972,-350.9642 630.4325,-345.0118 628.6336,-351.7767"/>
</g>
<!-- Node192 -->
<g id="node6" class="node">
<title>Node192</title>
<g id="a_node6"><a xlink:href="namespaceutils.html#aac322cd1761fddedec8a5792e358eb32" target="_top" xlink:title="Vector initialization. ">
<polygon fill="#ffffff" stroke="#000000" points="821,-329 821,-348 897,-348 897,-329 821,-329"/>
<text text-anchor="middle" x="859" y="-336" font-family="Helvetica,sans-Serif" font-size="10.00" fill="#000000">utils::initlVect</text>
</a>
</g>
</g>
<!-- Node191&#45;&gt;Node192 -->
<g id="edge5" class="edge">
<title>Node191&#45;&gt;Node192</title>
<path fill="none" stroke="#191970" d="M722.8514,-282.1014C734.0361,-285.0789 746.0825,-288.6118 757,-292.5 782.6342,-301.6294 810.7548,-314.5406 830.9657,-324.3616"/>
<polygon fill="#191970" stroke="#191970" points="829.6881,-327.6336 840.2065,-328.9045 832.7764,-321.3516 829.6881,-327.6336"/>
</g>
<!-- Node191&#45;&gt;Node193 -->
<g id="edge6" class="edge">
<title>Node191&#45;&gt;Node193</title>
<path fill="none" stroke="#191970" d="M723.0522,-262.9907C742.2699,-258.5392 765.7256,-253.1059 787.708,-248.014"/>
<polygon fill="#191970" stroke="#191970" points="788.7316,-251.3696 797.6838,-245.7032 787.1519,-244.5502 788.7316,-251.3696"/>
</g>
<!-- Node194 -->
<g id="node8" class="node">
<title>Node194</title>
<g id="a_node8"><a xlink:href="namespaceutils.html#ad50731aeb3c8f79ed8372516210dfc9d" target="_top" xlink:title="Round double to integer method. ">
<polygon fill="#ffffff" stroke="#000000" points="821,-266 821,-285 897,-285 897,-266 821,-266"/>
<text text-anchor="middle" x="859" y="-273" font-family="Helvetica,sans-Serif" font-size="10.00" fill="#000000">utils::roundInt</text>
</a>
</g>
</g>
<!-- Node191&#45;&gt;Node194 -->
<g id="edge7" class="edge">
<title>Node191&#45;&gt;Node194</title>
<path fill="none" stroke="#191970" d="M757.0639,-273.7723C775.3223,-274.0817 794.3618,-274.4044 810.9757,-274.686"/>
<polygon fill="#191970" stroke="#191970" points="810.9202,-278.1855 820.9781,-274.8556 811.0389,-271.1865 810.9202,-278.1855"/>
</g>
<!-- Node196&#45;&gt;Node192 -->
<g id="edge10" class="edge">
<title>Node196&#45;&gt;Node192</title>
<path fill="none" stroke="#191970" d="M739.9564,-353.2964C762.8473,-350.4512 788.8455,-347.2198 810.6939,-344.5041"/>
<polygon fill="#191970" stroke="#191970" points="811.2414,-347.9631 820.7333,-343.2563 810.3779,-341.0166 811.2414,-347.9631"/>
</g>
<!-- Node197&#45;&gt;Node198 -->
<g id="edge12" class="edge">
<title>Node197&#45;&gt;Node198</title>
<path fill="none" stroke="#191970" d="M566.7356,-30.5192C588.7744,-36.0604 613.4348,-42.2607 634.2724,-47.4999"/>
<polygon fill="#191970" stroke="#191970" points="633.6149,-50.9435 644.1665,-49.9876 635.3218,-44.1548 633.6149,-50.9435"/>
</g>
<!-- Node199 -->
<g id="node13" class="node">
<title>Node199</title>
<g id="a_node13"><a xlink:href="namespaceutils.html#aab52f9515717f06cafd6ab7fe2ebdcef" target="_top" xlink:title="Checks an alignment type. ">
<polygon fill="#ffffff" stroke="#000000" points="793,-50 793,-69 925,-69 925,-50 793,-50"/>
<text text-anchor="middle" x="859" y="-57" font-family="Helvetica,sans-Serif" font-size="10.00" fill="#000000">utils::checkAlignmentType</text>
</a>
</g>
</g>
<!-- Node198&#45;&gt;Node199 -->
<g id="edge13" class="edge">
<title>Node198&#45;&gt;Node199</title>
<path fill="none" stroke="#191970" d="M754.5034,-59.5C763.8282,-59.5 773.3981,-59.5 782.7802,-59.5"/>
<polygon fill="#191970" stroke="#191970" points="782.8666,-63.0001 792.8666,-59.5 782.8665,-56.0001 782.8666,-63.0001"/>
</g>
<!-- Node199&#45;&gt;Node200 -->
<g id="edge14" class="edge">
<title>Node199&#45;&gt;Node200</title>
<path fill="none" stroke="#191970" d="M925.0733,-68.4992C933.6891,-69.6727 942.3799,-70.8564 950.6179,-71.9784"/>
<polygon fill="#191970" stroke="#191970" points="950.3899,-75.4796 960.7708,-73.3613 951.3347,-68.5436 950.3899,-75.4796"/>
</g>
<!-- Node201&#45;&gt;Node193 -->
<g id="edge17" class="edge">
<title>Node201&#45;&gt;Node193</title>
<path fill="none" stroke="#191970" d="M571.1581,-139.8181C622.7247,-140.3644 696.3099,-145.4734 757,-166.5 785.1723,-176.2605 813.4715,-195.1896 833.0903,-210.1142"/>
<polygon fill="#191970" stroke="#191970" points="831.1618,-213.0486 841.2012,-216.4341 835.4643,-207.5269 831.1618,-213.0486"/>
</g>
<!-- Node202&#45;&gt;Node191 -->
<g id="edge19" class="edge">
<title>Node202&#45;&gt;Node191</title>
<path fill="none" stroke="#191970" d="M539.0977,-205.5401C571.4689,-220.7083 621.0261,-243.9294 652.4553,-258.6562"/>
<polygon fill="#191970" stroke="#191970" points="651.0479,-261.8618 661.5882,-262.9356 654.018,-255.5232 651.0479,-261.8618"/>
</g>
<!-- Node203 -->
<g id="node17" class="node">
<title>Node203</title>
<g id="a_node17"><a xlink:href="classstatistics_1_1_gaps.html#ad812a924cf5e3f900aad3ed4a9664300" target="_top" xlink:title="statistics::Gaps::isDefined\lWindow">
<polygon fill="#ffffff" stroke="#000000" points="615.5,-175.5 615.5,-205.5 748.5,-205.5 748.5,-175.5 615.5,-175.5"/>
<text text-anchor="start" x="623.5" y="-193.5" font-family="Helvetica,sans-Serif" font-size="10.00" fill="#000000">statistics::Gaps::isDefined</text>
<text text-anchor="middle" x="682" y="-182.5" font-family="Helvetica,sans-Serif" font-size="10.00" fill="#000000">Window</text>
</a>
</g>
</g>
<!-- Node202&#45;&gt;Node203 -->
<g id="edge20" class="edge">
<title>Node202&#45;&gt;Node203</title>
<path fill="none" stroke="#191970" d="M571.1698,-190.5C582.2233,-190.5 593.8127,-190.5 605.1593,-190.5"/>
<polygon fill="#191970" stroke="#191970" points="605.4891,-194.0001 615.4891,-190.5 605.489,-187.0001 605.4891,-194.0001"/>
</g>
</g>
</svg>
