<?xml version="1.0" encoding="UTF-8" standalone="no"?>
<!DOCTYPE svg PUBLIC "-//W3C//DTD SVG 1.1//EN"
 "http://www.w3.org/Graphics/SVG/1.1/DTD/svg11.dtd">
<!-- Generated by graphviz version 2.40.1 (20161225.0304)
 -->
<!-- Title: trimAlManager::compareset_argument Pages: 1 -->
<svg width="412pt" height="39pt"
 viewBox="0.00 0.00 412.00 39.00" xmlns="http://www.w3.org/2000/svg" xmlns:xlink="http://www.w3.org/1999/xlink">
<g id="graph0" class="graph" transform="scale(1 1) rotate(0) translate(4 35)">
<title>trimAlManager::compareset_argument</title>
<polygon fill="#ffffff" stroke="transparent" points="-4,4 -4,-35 408,-35 408,4 -4,4"/>
<!-- Node515 -->
<g id="node1" class="node">
<title>Node515</title>
<polygon fill="#bfbfbf" stroke="#000000" points="0,-.5 0,-30.5 137,-30.5 137,-.5 0,-.5"/>
<text text-anchor="start" x="8" y="-18.5" font-family="Helvetica,sans-Serif" font-size="10.00" fill="#000000">trimAlManager::compareset</text>
<text text-anchor="middle" x="68.5" y="-7.5" font-family="Helvetica,sans-Serif" font-size="10.00" fill="#000000">_argument</text>
</g>
<!-- Node516 -->
<g id="node2" class="node">
<title>Node516</title>
<g id="a_node2"><a xlink:href="classtrim_al_manager.html#af140d97b6071a83930818030ac74b641" target="_top" xlink:title="Method to parse arguments into usable structure in trimal. ">
<polygon fill="#ffffff" stroke="#000000" points="173,-6 173,-25 330,-25 330,-6 173,-6"/>
<text text-anchor="middle" x="251.5" y="-13" font-family="Helvetica,sans-Serif" font-size="10.00" fill="#000000">trimAlManager::parseArguments</text>
</a>
</g>
</g>
<!-- Node515&#45;&gt;Node516 -->
<g id="edge1" class="edge">
<title>Node515&#45;&gt;Node516</title>
<path fill="none" stroke="#191970" d="M147.39,-15.5C155.8501,-15.5 164.4569,-15.5 172.9136,-15.5"/>
<polygon fill="#191970" stroke="#191970" points="147.1631,-12.0001 137.1631,-15.5 147.1631,-19.0001 147.1631,-12.0001"/>
</g>
<!-- Node517 -->
<g id="node3" class="node">
<title>Node517</title>
<g id="a_node3"><a xlink:href="trim_al_main_8cpp.html#a0ddf1224851353fc92bfbff6f499fa97" target="_top" xlink:title="main">
<polygon fill="#ffffff" stroke="#000000" points="366,-6 366,-25 404,-25 404,-6 366,-6"/>
<text text-anchor="middle" x="385" y="-13" font-family="Helvetica,sans-Serif" font-size="10.00" fill="#000000">main</text>
</a>
</g>
</g>
<!-- Node516&#45;&gt;Node517 -->
<g id="edge2" class="edge">
<title>Node516&#45;&gt;Node517</title>
<path fill="none" stroke="#191970" d="M340.5766,-15.5C349.8353,-15.5 358.4462,-15.5 365.5746,-15.5"/>
<polygon fill="#191970" stroke="#191970" points="340.3153,-12.0001 330.3152,-15.5 340.3152,-19.0001 340.3153,-12.0001"/>
</g>
</g>
</svg>
