<?xml version="1.0" encoding="UTF-8" standalone="no"?>
<!DOCTYPE svg PUBLIC "-//W3C//DTD SVG 1.1//EN"
 "http://www.w3.org/Graphics/SVG/1.1/DTD/svg11.dtd">
<!-- Generated by graphviz version 2.40.1 (20161225.0304)
 -->
<!-- Title: statistics::similarityMatrix::memoryAllocation Pages: 1 -->
<svg width="910pt" height="235pt"
 viewBox="0.00 0.00 910.00 235.00" xmlns="http://www.w3.org/2000/svg" xmlns:xlink="http://www.w3.org/1999/xlink">
<g id="graph0" class="graph" transform="scale(1 1) rotate(0) translate(4 231)">
<title>statistics::similarityMatrix::memoryAllocation</title>
<polygon fill="#ffffff" stroke="transparent" points="-4,4 -4,-231 906,-231 906,4 -4,4"/>
<!-- Node72 -->
<g id="node1" class="node">
<title>Node72</title>
<g id="a_node1"><a xlink:title="Method to allocate memory for the similiarity matrix.">
<polygon fill="#bfbfbf" stroke="#000000" points="774,-98.5 774,-128.5 902,-128.5 902,-98.5 774,-98.5"/>
<text text-anchor="start" x="782" y="-116.5" font-family="Helvetica,sans-Serif" font-size="10.00" fill="#000000">statistics::similarityMatrix</text>
<text text-anchor="middle" x="838" y="-105.5" font-family="Helvetica,sans-Serif" font-size="10.00" fill="#000000">::memoryAllocation</text>
</a>
</g>
</g>
<!-- Node73 -->
<g id="node2" class="node">
<title>Node73</title>
<g id="a_node2"><a xlink:href="classstatistics_1_1similarity_matrix.html#a2788d7d1bb700b9e59d654fb24f6172c" target="_top" xlink:title="Method to load alternative similarity matrices also included on the suite. Currently,...">
<polygon fill="#ffffff" stroke="#000000" points="582.5,-196.5 582.5,-226.5 728.5,-226.5 728.5,-196.5 582.5,-196.5"/>
<text text-anchor="start" x="590.5" y="-214.5" font-family="Helvetica,sans-Serif" font-size="10.00" fill="#000000">statistics::similarityMatrix</text>
<text text-anchor="middle" x="655.5" y="-203.5" font-family="Helvetica,sans-Serif" font-size="10.00" fill="#000000">::alternativeSimilarityMatrices</text>
</a>
</g>
</g>
<!-- Node72&#45;&gt;Node73 -->
<g id="edge1" class="edge">
<title>Node72&#45;&gt;Node73</title>
<path fill="none" stroke="#191970" d="M813.8284,-135.2449C794.5128,-151.6256 766.1086,-173.5707 738,-187.5 731.1836,-190.8779 723.8088,-193.8624 716.3686,-196.4763"/>
<polygon fill="#191970" stroke="#191970" points="816.2387,-137.788 821.5227,-128.6048 811.6653,-132.4885 816.2387,-137.788"/>
</g>
<!-- Node78 -->
<g id="node7" class="node">
<title>Node78</title>
<g id="a_node7"><a xlink:href="classstatistics_1_1similarity_matrix.html#a6d239debb5982c5cef97308403f658b7" target="_top" xlink:title="Method to load the default AA similarity matrix.">
<polygon fill="#ffffff" stroke="#000000" points="591.5,-147.5 591.5,-177.5 719.5,-177.5 719.5,-147.5 591.5,-147.5"/>
<text text-anchor="start" x="599.5" y="-165.5" font-family="Helvetica,sans-Serif" font-size="10.00" fill="#000000">statistics::similarityMatrix</text>
<text text-anchor="middle" x="655.5" y="-154.5" font-family="Helvetica,sans-Serif" font-size="10.00" fill="#000000">::defaultAASimMatrix</text>
</a>
</g>
</g>
<!-- Node72&#45;&gt;Node78 -->
<g id="edge7" class="edge">
<title>Node72&#45;&gt;Node78</title>
<path fill="none" stroke="#191970" d="M771.896,-131.2485C752.1166,-136.5591 730.6275,-142.3288 711.5594,-147.4484"/>
<polygon fill="#191970" stroke="#191970" points="773.0045,-134.5749 781.7548,-128.6014 771.1893,-127.8143 773.0045,-134.5749"/>
</g>
<!-- Node79 -->
<g id="node8" class="node">
<title>Node79</title>
<g id="a_node8"><a xlink:href="classstatistics_1_1similarity_matrix.html#abcee67b7f79ef0975ca006647198f5d7" target="_top" xlink:title="Method to load the default DEG NT similarity matrix.">
<polygon fill="#ffffff" stroke="#000000" points="573,-98.5 573,-128.5 738,-128.5 738,-98.5 573,-98.5"/>
<text text-anchor="start" x="581" y="-116.5" font-family="Helvetica,sans-Serif" font-size="10.00" fill="#000000">statistics::similarityMatrix</text>
<text text-anchor="middle" x="655.5" y="-105.5" font-family="Helvetica,sans-Serif" font-size="10.00" fill="#000000">::defaultNTDegeneratedSimMatrix</text>
</a>
</g>
</g>
<!-- Node72&#45;&gt;Node79 -->
<g id="edge9" class="edge">
<title>Node72&#45;&gt;Node79</title>
<path fill="none" stroke="#191970" d="M763.7084,-113.5C755.2428,-113.5 746.5753,-113.5 738.0114,-113.5"/>
<polygon fill="#191970" stroke="#191970" points="763.914,-117.0001 773.9139,-113.5 763.9139,-110.0001 763.914,-117.0001"/>
</g>
<!-- Node80 -->
<g id="node9" class="node">
<title>Node80</title>
<g id="a_node9"><a xlink:href="classstatistics_1_1similarity_matrix.html#a72f692ab289725eef0702bfd7e93a38a" target="_top" xlink:title="Method to load the default NT similarity matrix.">
<polygon fill="#ffffff" stroke="#000000" points="591.5,-49.5 591.5,-79.5 719.5,-79.5 719.5,-49.5 591.5,-49.5"/>
<text text-anchor="start" x="599.5" y="-67.5" font-family="Helvetica,sans-Serif" font-size="10.00" fill="#000000">statistics::similarityMatrix</text>
<text text-anchor="middle" x="655.5" y="-56.5" font-family="Helvetica,sans-Serif" font-size="10.00" fill="#000000">::defaultNTSimMatrix</text>
</a>
</g>
</g>
<!-- Node72&#45;&gt;Node80 -->
<g id="edge11" class="edge">
<title>Node72&#45;&gt;Node80</title>
<path fill="none" stroke="#191970" d="M771.896,-95.7515C752.1166,-90.4409 730.6275,-84.6712 711.5594,-79.5516"/>
<polygon fill="#191970" stroke="#191970" points="771.1893,-99.1857 781.7548,-98.3986 773.0045,-92.4251 771.1893,-99.1857"/>
</g>
<!-- Node81 -->
<g id="node10" class="node">
<title>Node81</title>
<g id="a_node10"><a xlink:href="classstatistics_1_1similarity_matrix.html#a8d3f892581b552e6e5321ce1ff073624" target="_top" xlink:title="Method to load a custom matrix.">
<polygon fill="#ffffff" stroke="#000000" points="591.5,-.5 591.5,-30.5 719.5,-30.5 719.5,-.5 591.5,-.5"/>
<text text-anchor="start" x="599.5" y="-18.5" font-family="Helvetica,sans-Serif" font-size="10.00" fill="#000000">statistics::similarityMatrix</text>
<text text-anchor="middle" x="655.5" y="-7.5" font-family="Helvetica,sans-Serif" font-size="10.00" fill="#000000">::loadSimMatrix</text>
</a>
</g>
</g>
<!-- Node72&#45;&gt;Node81 -->
<g id="edge13" class="edge">
<title>Node72&#45;&gt;Node81</title>
<path fill="none" stroke="#191970" d="M813.3842,-91.8623C794.0266,-75.7911 765.7741,-54.344 738,-40.5 730.4991,-36.7612 722.3322,-33.4618 714.1494,-30.5886"/>
<polygon fill="#191970" stroke="#191970" points="811.2094,-94.6067 821.1084,-98.383 815.7249,-89.2578 811.2094,-94.6067"/>
</g>
<!-- Node74 -->
<g id="node3" class="node">
<title>Node74</title>
<g id="a_node3"><a xlink:href="classtrim_al_manager.html#a3e8b2b5b4e1a44c498c47448840b6c69" target="_top" xlink:title="Method to create, load and use a similarity matrix, depending on alignment residue nature,...">
<polygon fill="#ffffff" stroke="#000000" points="409,-98.5 409,-128.5 537,-128.5 537,-98.5 409,-98.5"/>
<text text-anchor="start" x="417" y="-116.5" font-family="Helvetica,sans-Serif" font-size="10.00" fill="#000000">trimAlManager::create</text>
<text text-anchor="middle" x="473" y="-105.5" font-family="Helvetica,sans-Serif" font-size="10.00" fill="#000000">_or_use_similarity_matrix</text>
</a>
</g>
</g>
<!-- Node73&#45;&gt;Node74 -->
<g id="edge2" class="edge">
<title>Node73&#45;&gt;Node74</title>
<path fill="none" stroke="#191970" d="M584.945,-192.8309C580.8452,-191.1757 576.8342,-189.4001 573,-187.5 540.8759,-171.5808 508.3656,-145.192 489.4773,-128.6048"/>
<polygon fill="#191970" stroke="#191970" points="584.0394,-196.2296 594.6314,-196.4763 586.505,-189.6782 584.0394,-196.2296"/>
</g>
<!-- Node75 -->
<g id="node4" class="node">
<title>Node75</title>
<g id="a_node4"><a xlink:href="classtrim_al_manager.html#abe8d2841455c644dc9c7d1294b82b00f" target="_top" xlink:title="Method to perform the analysis if all checks have passed.">
<polygon fill="#ffffff" stroke="#000000" points="74,-104 74,-123 193,-123 193,-104 74,-104"/>
<text text-anchor="middle" x="133.5" y="-111" font-family="Helvetica,sans-Serif" font-size="10.00" fill="#000000">trimAlManager::perform</text>
</a>
</g>
</g>
<!-- Node74&#45;&gt;Node75 -->
<g id="edge3" class="edge">
<title>Node74&#45;&gt;Node75</title>
<path fill="none" stroke="#191970" d="M398.6854,-113.5C337.0194,-113.5 250.4621,-113.5 193.2259,-113.5"/>
<polygon fill="#191970" stroke="#191970" points="398.7436,-117.0001 408.7435,-113.5 398.7435,-110.0001 398.7436,-117.0001"/>
</g>
<!-- Node77 -->
<g id="node6" class="node">
<title>Node77</title>
<g id="a_node6"><a xlink:href="classtrim_al_manager.html#ac5795f93b3a2b51bf5d8dddd63b89f73" target="_top" xlink:title=" ">
<polygon fill="#ffffff" stroke="#000000" points="229,-85 229,-104 373,-104 373,-85 229,-85"/>
<text text-anchor="middle" x="301" y="-92" font-family="Helvetica,sans-Serif" font-size="10.00" fill="#000000">trimAlManager::perform_VCF</text>
</a>
</g>
</g>
<!-- Node74&#45;&gt;Node77 -->
<g id="edge5" class="edge">
<title>Node74&#45;&gt;Node77</title>
<path fill="none" stroke="#191970" d="M399.0059,-105.3262C390.4509,-104.3812 381.7343,-103.4183 373.2037,-102.476"/>
<polygon fill="#191970" stroke="#191970" points="398.6297,-108.8059 408.9535,-106.4251 399.3983,-101.8482 398.6297,-108.8059"/>
</g>
<!-- Node76 -->
<g id="node5" class="node">
<title>Node76</title>
<g id="a_node5"><a xlink:href="trim_al_main_8cpp.html#a0ddf1224851353fc92bfbff6f499fa97" target="_top" xlink:title=" ">
<polygon fill="#ffffff" stroke="#000000" points="0,-104 0,-123 38,-123 38,-104 0,-104"/>
<text text-anchor="middle" x="19" y="-111" font-family="Helvetica,sans-Serif" font-size="10.00" fill="#000000">main</text>
</a>
</g>
</g>
<!-- Node75&#45;&gt;Node76 -->
<g id="edge4" class="edge">
<title>Node75&#45;&gt;Node76</title>
<path fill="none" stroke="#191970" d="M63.6802,-113.5C54.3823,-113.5 45.5497,-113.5 38.2303,-113.5"/>
<polygon fill="#191970" stroke="#191970" points="63.9025,-117.0001 73.9024,-113.5 63.9024,-110.0001 63.9025,-117.0001"/>
</g>
<!-- Node77&#45;&gt;Node75 -->
<g id="edge6" class="edge">
<title>Node77&#45;&gt;Node75</title>
<path fill="none" stroke="#191970" d="M218.8378,-103.8199C210.1593,-104.8043 201.4581,-105.7913 193.107,-106.7386"/>
<polygon fill="#191970" stroke="#191970" points="219.4511,-107.2729 228.9928,-102.668 218.662,-100.3175 219.4511,-107.2729"/>
</g>
<!-- Node78&#45;&gt;Node74 -->
<g id="edge8" class="edge">
<title>Node78&#45;&gt;Node74</title>
<path fill="none" stroke="#191970" d="M589.396,-144.7515C569.6166,-139.4409 548.1275,-133.6712 529.0594,-128.5516"/>
<polygon fill="#191970" stroke="#191970" points="588.6893,-148.1857 599.2548,-147.3986 590.5045,-141.4251 588.6893,-148.1857"/>
</g>
<!-- Node79&#45;&gt;Node74 -->
<g id="edge10" class="edge">
<title>Node79&#45;&gt;Node74</title>
<path fill="none" stroke="#191970" d="M562.6591,-113.5C554.0177,-113.5 545.3953,-113.5 537.1021,-113.5"/>
<polygon fill="#191970" stroke="#191970" points="562.7936,-117.0001 572.7935,-113.5 562.7935,-110.0001 562.7936,-117.0001"/>
</g>
<!-- Node80&#45;&gt;Node74 -->
<g id="edge12" class="edge">
<title>Node80&#45;&gt;Node74</title>
<path fill="none" stroke="#191970" d="M589.396,-82.2485C569.6166,-87.5591 548.1275,-93.3288 529.0594,-98.4484"/>
<polygon fill="#191970" stroke="#191970" points="590.5045,-85.5749 599.2548,-79.6014 588.6893,-78.8143 590.5045,-85.5749"/>
</g>
<!-- Node81&#45;&gt;Node74 -->
<g id="edge14" class="edge">
<title>Node81&#45;&gt;Node74</title>
<path fill="none" stroke="#191970" d="M587.3074,-34.1515C582.389,-36.1065 577.5708,-38.2217 573,-40.5 541.2581,-56.3217 508.8915,-82.0739 489.8916,-98.383"/>
<polygon fill="#191970" stroke="#191970" points="588.7064,-37.3653 596.8506,-30.5886 586.258,-30.8074 588.7064,-37.3653"/>
</g>
</g>
</svg>
