<?xml version="1.0" encoding="UTF-8" standalone="no"?>
<!DOCTYPE svg PUBLIC "-//W3C//DTD SVG 1.1//EN"
 "http://www.w3.org/Graphics/SVG/1.1/DTD/svg11.dtd">
<!-- Generated by graphviz version 2.40.1 (20161225.0304)
 -->
<!-- Title: statistics::Manager::setSimilarityMatrix Pages: 1 -->
<svg width="682pt" height="39pt"
 viewBox="0.00 0.00 682.00 39.00" xmlns="http://www.w3.org/2000/svg" xmlns:xlink="http://www.w3.org/1999/xlink">
<g id="graph0" class="graph" transform="scale(1 1) rotate(0) translate(4 35)">
<title>statistics::Manager::setSimilarityMatrix</title>
<polygon fill="#ffffff" stroke="transparent" points="-4,4 -4,-35 678,-35 678,4 -4,4"/>
<!-- Node215 -->
<g id="node1" class="node">
<title>Node215</title>
<polygon fill="#bfbfbf" stroke="#000000" points="0,-.5 0,-30.5 104,-30.5 104,-.5 0,-.5"/>
<text text-anchor="start" x="8" y="-18.5" font-family="Helvetica,sans-Serif" font-size="10.00" fill="#000000">statistics::Manager</text>
<text text-anchor="middle" x="52" y="-7.5" font-family="Helvetica,sans-Serif" font-size="10.00" fill="#000000">::setSimilarityMatrix</text>
</g>
<!-- Node216 -->
<g id="node2" class="node">
<title>Node216</title>
<g id="a_node2"><a xlink:href="classtrim_al_manager.html#a3e8b2b5b4e1a44c498c47448840b6c69" target="_top" xlink:title="Method to create, load and use a similarity matrix, depending on alignment residue nature...">
<polygon fill="#ffffff" stroke="#000000" points="140,-.5 140,-30.5 268,-30.5 268,-.5 140,-.5"/>
<text text-anchor="start" x="148" y="-18.5" font-family="Helvetica,sans-Serif" font-size="10.00" fill="#000000">trimAlManager::create</text>
<text text-anchor="middle" x="204" y="-7.5" font-family="Helvetica,sans-Serif" font-size="10.00" fill="#000000">_or_use_similarity_matrix</text>
</a>
</g>
</g>
<!-- Node215&#45;&gt;Node216 -->
<g id="edge1" class="edge">
<title>Node215&#45;&gt;Node216</title>
<path fill="none" stroke="#191970" d="M114.3845,-15.5C122.7602,-15.5 131.3639,-15.5 139.7707,-15.5"/>
<polygon fill="#191970" stroke="#191970" points="114.3098,-12.0001 104.3098,-15.5 114.3097,-19.0001 114.3098,-12.0001"/>
</g>
<!-- Node217 -->
<g id="node3" class="node">
<title>Node217</title>
<g id="a_node3"><a xlink:href="classtrim_al_manager.html#a7c641a1feff33d401b4ea5c82e989289" target="_top" xlink:title="trimAlManager::innerPerform">
<polygon fill="#ffffff" stroke="#000000" points="304,-6 304,-25 445,-25 445,-6 304,-6"/>
<text text-anchor="middle" x="374.5" y="-13" font-family="Helvetica,sans-Serif" font-size="10.00" fill="#000000">trimAlManager::innerPerform</text>
</a>
</g>
</g>
<!-- Node216&#45;&gt;Node217 -->
<g id="edge2" class="edge">
<title>Node216&#45;&gt;Node217</title>
<path fill="none" stroke="#191970" d="M278.6319,-15.5C287.0476,-15.5 295.6035,-15.5 303.9647,-15.5"/>
<polygon fill="#191970" stroke="#191970" points="278.4588,-12.0001 268.4587,-15.5 278.4587,-19.0001 278.4588,-12.0001"/>
</g>
<!-- Node218 -->
<g id="node4" class="node">
<title>Node218</title>
<g id="a_node4"><a xlink:href="classtrim_al_manager.html#abe8d2841455c644dc9c7d1294b82b00f" target="_top" xlink:title="Method to perform the analysis if all checks have passed. ">
<polygon fill="#ffffff" stroke="#000000" points="481,-6 481,-25 600,-25 600,-6 481,-6"/>
<text text-anchor="middle" x="540.5" y="-13" font-family="Helvetica,sans-Serif" font-size="10.00" fill="#000000">trimAlManager::perform</text>
</a>
</g>
</g>
<!-- Node217&#45;&gt;Node218 -->
<g id="edge3" class="edge">
<title>Node217&#45;&gt;Node218</title>
<path fill="none" stroke="#191970" d="M455.4012,-15.5C463.9677,-15.5 472.564,-15.5 480.8249,-15.5"/>
<polygon fill="#191970" stroke="#191970" points="455.3805,-12.0001 445.3804,-15.5 455.3804,-19.0001 455.3805,-12.0001"/>
</g>
<!-- Node219 -->
<g id="node5" class="node">
<title>Node219</title>
<g id="a_node5"><a xlink:href="trim_al_main_8cpp.html#a0ddf1224851353fc92bfbff6f499fa97" target="_top" xlink:title="main">
<polygon fill="#ffffff" stroke="#000000" points="636,-6 636,-25 674,-25 674,-6 636,-6"/>
<text text-anchor="middle" x="655" y="-13" font-family="Helvetica,sans-Serif" font-size="10.00" fill="#000000">main</text>
</a>
</g>
</g>
<!-- Node218&#45;&gt;Node219 -->
<g id="edge4" class="edge">
<title>Node218&#45;&gt;Node219</title>
<path fill="none" stroke="#191970" d="M610.3198,-15.5C619.6177,-15.5 628.4503,-15.5 635.7697,-15.5"/>
<polygon fill="#191970" stroke="#191970" points="610.0976,-12.0001 600.0976,-15.5 610.0975,-19.0001 610.0976,-12.0001"/>
</g>
</g>
</svg>
