<?xml version="1.0" encoding="UTF-8" standalone="no"?>
<!DOCTYPE svg PUBLIC "-//W3C//DTD SVG 1.1//EN"
 "http://www.w3.org/Graphics/SVG/1.1/DTD/svg11.dtd">
<!-- Generated by graphviz version 2.38.0 (20140413.2041)
 -->
<!-- Title: compareFiles::algorithm Pages: 1 -->
<svg width="290pt" height="66pt"
 viewBox="0.00 0.00 290.00 66.00" xmlns="http://www.w3.org/2000/svg" xmlns:xlink="http://www.w3.org/1999/xlink">
<g id="graph0" class="graph" transform="scale(1 1) rotate(0) translate(4 62)">
<title>compareFiles::algorithm</title>
<polygon fill="white" stroke="none" points="-4,4 -4,-62 286,-62 286,4 -4,4"/>
<!-- Node0 -->
<g id="node1" class="node"><title>Node0</title>
<polygon fill="#bfbfbf" stroke="black" points="0,-19.5 0,-38.5 121,-38.5 121,-19.5 0,-19.5"/>
<text text-anchor="middle" x="60.5" y="-26.5" font-family="Helvetica,sans-Serif" font-size="10.00">compareFiles::algorithm</text>
</g>
<!-- Node1 -->
<g id="node2" class="node"><title>Node1</title>
<g id="a_node2"><a xlink:href="class_verbose_manager.html#a261de87bbf9653cd729dca4e1fbeb2a3" target="_top" xlink:title="Method to report an Error. It will be displayed if VerboseManager::Level is equal or higher to Verbos...">
<polygon fill="white" stroke="black" points="157,-38.5 157,-57.5 282,-57.5 282,-38.5 157,-38.5"/>
<text text-anchor="middle" x="219.5" y="-45.5" font-family="Helvetica,sans-Serif" font-size="10.00">VerboseManager::Report</text>
</a>
</g>
</g>
<!-- Node0&#45;&gt;Node1 -->
<g id="edge1" class="edge"><title>Node0&#45;&gt;Node1</title>
<path fill="none" stroke="midnightblue" d="M121.303,-36.2373C129.649,-37.2473 138.294,-38.2936 146.831,-39.3267"/>
<polygon fill="midnightblue" stroke="midnightblue" points="146.431,-42.8037 156.779,-40.5305 147.272,-35.8544 146.431,-42.8037"/>
</g>
<!-- Node2 -->
<g id="node3" class="node"><title>Node2</title>
<g id="a_node3"><a xlink:href="classutils.html#aac322cd1761fddedec8a5792e358eb32" target="_top" xlink:title="Vector initialization. ">
<polygon fill="white" stroke="black" points="181.5,-0.5 181.5,-19.5 257.5,-19.5 257.5,-0.5 181.5,-0.5"/>
<text text-anchor="middle" x="219.5" y="-7.5" font-family="Helvetica,sans-Serif" font-size="10.00">utils::initlVect</text>
</a>
</g>
</g>
<!-- Node0&#45;&gt;Node2 -->
<g id="edge2" class="edge"><title>Node0&#45;&gt;Node2</title>
<path fill="none" stroke="midnightblue" d="M121.303,-21.7627C137.795,-19.7669 155.455,-17.6296 171.138,-15.7317"/>
<polygon fill="midnightblue" stroke="midnightblue" points="171.618,-19.1992 181.125,-14.5231 170.777,-12.2499 171.618,-19.1992"/>
</g>
</g>
</svg>
