<?xml version="1.0" encoding="UTF-8" standalone="no"?>
<!DOCTYPE svg PUBLIC "-//W3C//DTD SVG 1.1//EN"
 "http://www.w3.org/Graphics/SVG/1.1/DTD/svg11.dtd">
<!-- Generated by graphviz version 2.38.0 (20140413.2041)
 -->
<!-- Title: statisticsConsistency Pages: 1 -->
<svg width="1196pt" height="759pt"
 viewBox="0.00 0.00 1195.50 759.00" xmlns="http://www.w3.org/2000/svg" xmlns:xlink="http://www.w3.org/1999/xlink">
<g id="graph0" class="graph" transform="scale(1 1) rotate(0) translate(4 755)">
<title>statisticsConsistency</title>
<polygon fill="white" stroke="none" points="-4,4 -4,-755 1191.5,-755 1191.5,4 -4,4"/>
<!-- Node1 -->
<g id="node1" class="node"><title>Node1</title>
<polygon fill="#bfbfbf" stroke="black" points="341,-336.5 341,-355.5 452,-355.5 452,-336.5 341,-336.5"/>
<text text-anchor="middle" x="396.5" y="-343.5" font-family="Helvetica,sans-Serif" font-size="10.00">statisticsConsistency</text>
</g>
<!-- Node10 -->
<g id="node10" class="node"><title>Node10</title>
<g id="a_node10"><a xlink:href="class_statistics_manager.html" target="_top" xlink:title="Class to handle the interaction with statistics and statistics objects. ">
<polygon fill="white" stroke="black" points="543,-163 543,-182 638,-182 638,-163 543,-163"/>
<text text-anchor="middle" x="590.5" y="-170" font-family="Helvetica,sans-Serif" font-size="10.00">StatisticsManager</text>
</a>
</g>
</g>
<!-- Node1&#45;&gt;Node10 -->
<g id="edge29" class="edge"><title>Node1&#45;&gt;Node10</title>
<path fill="none" stroke="#9a32cd" stroke-dasharray="5,2" d="M397.925,-326.215C400.848,-300.775 409.715,-255.51 436.5,-229 454.481,-211.204 466.652,-219.443 490.5,-211 517.417,-201.471 548.137,-189.836 568.344,-182.077"/>
<polygon fill="#9a32cd" stroke="#9a32cd" points="394.422,-326.083 396.958,-336.37 401.39,-326.747 394.422,-326.083"/>
<text text-anchor="middle" x="464.5" y="-270.5" font-family="Helvetica,sans-Serif" font-size="10.00"> consistency</text>
</g>
<!-- Node2 -->
<g id="node2" class="node"><title>Node2</title>
<g id="a_node2"><a xlink:href="classnew_alignment.html" target="_top" xlink:title="Class containing an alignment &#160;This class stores the alignment sequences with it&#39;s names...">
<polygon fill="white" stroke="black" points="435.5,-67.5 435.5,-86.5 513.5,-86.5 513.5,-67.5 435.5,-67.5"/>
<text text-anchor="middle" x="474.5" y="-74.5" font-family="Helvetica,sans-Serif" font-size="10.00">newAlignment</text>
</a>
</g>
</g>
<!-- Node2&#45;&gt;Node1 -->
<g id="edge1" class="edge"><title>Node2&#45;&gt;Node1</title>
<path fill="none" stroke="#9a32cd" stroke-dasharray="5,2" d="M439.782,-90.6167C420.662,-99.5596 398.613,-113.631 387.5,-134 349.57,-203.523 382.054,-305.94 393.131,-336.248"/>
<polygon fill="#9a32cd" stroke="#9a32cd" points="441.395,-93.7313 449.154,-86.5176 438.59,-87.3179 441.395,-93.7313"/>
<text text-anchor="middle" x="444" y="-175.5" font-family="Helvetica,sans-Serif" font-size="10.00"> compareAlignmentsArray</text>
<text text-anchor="middle" x="444" y="-164.5" font-family="Helvetica,sans-Serif" font-size="10.00">_alignment</text>
</g>
<!-- Node3 -->
<g id="node3" class="node"><title>Node3</title>
<g id="a_node3"><a xlink:href="classsequences_matrix.html" target="_top" xlink:title="Class that represents a sequences matrix. ">
<polygon fill="white" stroke="black" points="143,-0.5 143,-19.5 234,-19.5 234,-0.5 143,-0.5"/>
<text text-anchor="middle" x="188.5" y="-7.5" font-family="Helvetica,sans-Serif" font-size="10.00">sequencesMatrix</text>
</a>
</g>
</g>
<!-- Node2&#45;&gt;Node3 -->
<g id="edge3" class="edge"><title>Node2&#45;&gt;Node3</title>
<path fill="none" stroke="#9a32cd" stroke-dasharray="5,2" d="M425.049,-74.2001C363.756,-71.3428 263.258,-64.4249 229.5,-49 215.023,-42.3851 202.268,-28.6504 194.971,-19.6328"/>
<polygon fill="#9a32cd" stroke="#9a32cd" points="425.126,-77.707 435.272,-74.6561 425.438,-70.7139 425.126,-77.707"/>
<text text-anchor="middle" x="255" y="-41" font-family="Helvetica,sans-Serif" font-size="10.00"> _alignment</text>
</g>
<!-- Node8 -->
<g id="node8" class="node"><title>Node8</title>
<g id="a_node8"><a xlink:href="class_cleaner.html" target="_top" xlink:title="Submodule contained by newAlignment . ">
<polygon fill="white" stroke="black" points="426.5,-0.5 426.5,-19.5 476.5,-19.5 476.5,-0.5 426.5,-0.5"/>
<text text-anchor="middle" x="451.5" y="-7.5" font-family="Helvetica,sans-Serif" font-size="10.00">Cleaner</text>
</a>
</g>
</g>
<!-- Node2&#45;&gt;Node8 -->
<g id="edge9" class="edge"><title>Node2&#45;&gt;Node8</title>
<path fill="none" stroke="#9a32cd" stroke-dasharray="5,2" d="M426.487,-62.8297C420.571,-59.2646 415.285,-54.7402 411.5,-49 403.802,-37.325 417.894,-26.6071 431.427,-19.5519"/>
<polygon fill="#9a32cd" stroke="#9a32cd" points="425.003,-66.0011 435.505,-67.3965 428.165,-59.7562 425.003,-66.0011"/>
<text text-anchor="middle" x="437" y="-41" font-family="Helvetica,sans-Serif" font-size="10.00"> _alignment</text>
</g>
<!-- Node2&#45;&gt;Node10 -->
<g id="edge16" class="edge"><title>Node2&#45;&gt;Node10</title>
<path fill="none" stroke="#9a32cd" stroke-dasharray="5,2" d="M485.813,-94.7049C491.028,-101.733 497.59,-109.719 504.5,-116 516.465,-126.877 554.885,-150.34 576.096,-162.995"/>
<polygon fill="#9a32cd" stroke="#9a32cd" points="488.644,-92.646 480.003,-86.5152 482.935,-96.6964 488.644,-92.646"/>
<text text-anchor="middle" x="530" y="-108" font-family="Helvetica,sans-Serif" font-size="10.00"> _alignment</text>
</g>
<!-- Node11 -->
<g id="node11" class="node"><title>Node11</title>
<g id="a_node11"><a xlink:href="classstatistics_gaps.html" target="_top" xlink:title="Class to handle Gaps statistics. ">
<polygon fill="white" stroke="black" points="601.5,-0.5 601.5,-19.5 681.5,-19.5 681.5,-0.5 601.5,-0.5"/>
<text text-anchor="middle" x="641.5" y="-7.5" font-family="Helvetica,sans-Serif" font-size="10.00">statisticsGaps</text>
</a>
</g>
</g>
<!-- Node2&#45;&gt;Node11 -->
<g id="edge18" class="edge"><title>Node2&#45;&gt;Node11</title>
<path fill="none" stroke="#9a32cd" stroke-dasharray="5,2" d="M506.348,-63.6041C539.506,-50.6984 590.559,-30.8272 619.498,-19.5637"/>
<polygon fill="#9a32cd" stroke="#9a32cd" points="504.726,-60.4796 496.676,-67.3685 507.265,-67.0029 504.726,-60.4796"/>
<text text-anchor="middle" x="594" y="-41" font-family="Helvetica,sans-Serif" font-size="10.00"> _alignment</text>
</g>
<!-- Node12 -->
<g id="node12" class="node"><title>Node12</title>
<g id="a_node12"><a xlink:href="classstatistics_conservation.html" target="_top" xlink:title="Class to handle Conservation / Similarity statistics. ">
<polygon fill="white" stroke="black" points="921.5,-0.5 921.5,-19.5 1035.5,-19.5 1035.5,-0.5 921.5,-0.5"/>
<text text-anchor="middle" x="978.5" y="-7.5" font-family="Helvetica,sans-Serif" font-size="10.00">statisticsConservation</text>
</a>
</g>
</g>
<!-- Node2&#45;&gt;Node12 -->
<g id="edge22" class="edge"><title>Node2&#45;&gt;Node12</title>
<path fill="none" stroke="#9a32cd" stroke-dasharray="5,2" d="M523.705,-69.6541C617.538,-57.5526 821.57,-31.239 921.304,-18.3765"/>
<polygon fill="#9a32cd" stroke="#9a32cd" points="523.099,-66.2032 513.629,-70.9536 523.994,-73.1457 523.099,-66.2032"/>
<text text-anchor="middle" x="783" y="-41" font-family="Helvetica,sans-Serif" font-size="10.00"> _alignment</text>
</g>
<!-- Node3&#45;&gt;Node2 -->
<g id="edge2" class="edge"><title>Node3&#45;&gt;Node2</title>
<path fill="none" stroke="#9a32cd" stroke-dasharray="5,2" d="M226.249,-22.3635C253.858,-30.437 292.302,-41.1881 326.5,-49 363.166,-57.3756 405.411,-64.8716 435.357,-69.8275"/>
<polygon fill="#9a32cd" stroke="#9a32cd" points="227.177,-18.9882 216.595,-19.5206 225.199,-25.7031 227.177,-18.9882"/>
<text text-anchor="middle" x="366" y="-41" font-family="Helvetica,sans-Serif" font-size="10.00"> SequencesMatrix</text>
</g>
<!-- Node4 -->
<g id="node4" class="node"><title>Node4</title>
<polygon fill="white" stroke="#bfbfbf" points="653,-481.5 653,-500.5 682,-500.5 682,-481.5 653,-481.5"/>
<text text-anchor="middle" x="667.5" y="-488.5" font-family="Helvetica,sans-Serif" font-size="10.00">int</text>
</g>
<!-- Node4&#45;&gt;Node1 -->
<g id="edge38" class="edge"><title>Node4&#45;&gt;Node1</title>
<path fill="none" stroke="#9a32cd" stroke-dasharray="5,2" d="M642.738,-489.144C602.029,-487.225 523.474,-481.207 503.5,-463 473.625,-435.767 508.124,-404.514 480.5,-375 471.991,-365.909 460.457,-359.768 448.665,-355.62"/>
<polygon fill="#9a32cd" stroke="#9a32cd" points="642.767,-492.648 652.906,-489.575 643.064,-485.655 642.767,-492.648"/>
<text text-anchor="middle" x="529.5" y="-455" font-family="Helvetica,sans-Serif" font-size="10.00"> refCounter</text>
<text text-anchor="middle" x="529.5" y="-444" font-family="Helvetica,sans-Serif" font-size="10.00">residues</text>
<text text-anchor="middle" x="529.5" y="-433" font-family="Helvetica,sans-Serif" font-size="10.00">i</text>
<text text-anchor="middle" x="529.5" y="-422" font-family="Helvetica,sans-Serif" font-size="10.00">halfWindow</text>
<text text-anchor="middle" x="529.5" y="-411" font-family="Helvetica,sans-Serif" font-size="10.00">prevType</text>
<text text-anchor="middle" x="529.5" y="-400" font-family="Helvetica,sans-Serif" font-size="10.00">numFiles</text>
<text text-anchor="middle" x="529.5" y="-389" font-family="Helvetica,sans-Serif" font-size="10.00">maxAminos</text>
<text text-anchor="middle" x="529.5" y="-378" font-family="Helvetica,sans-Serif" font-size="10.00">referFile</text>
</g>
<!-- Node4&#45;&gt;Node2 -->
<g id="edge12" class="edge"><title>Node4&#45;&gt;Node2</title>
<path fill="none" stroke="#9a32cd" stroke-dasharray="5,2" d="M652.495,-473.674C649.45,-470.208 646.318,-466.528 643.5,-463 613.48,-425.417 613.166,-410.307 580.5,-375 566.897,-360.297 520.499,-334.896 511.5,-317 474.896,-244.205 523.297,-212.226 500.5,-134 497.94,-125.214 494.504,-124.229 490.5,-116 485.677,-106.087 480.867,-94.3495 477.799,-86.5696"/>
<polygon fill="#9a32cd" stroke="#9a32cd" points="649.972,-476.103 659.258,-481.204 655.18,-471.426 649.972,-476.103"/>
<text text-anchor="middle" x="562.5" y="-309" font-family="Helvetica,sans-Serif" font-size="10.00"> originalSequenNumber</text>
<text text-anchor="middle" x="562.5" y="-298" font-family="Helvetica,sans-Serif" font-size="10.00">saveSequences</text>
<text text-anchor="middle" x="562.5" y="-287" font-family="Helvetica,sans-Serif" font-size="10.00">SeqRef</text>
<text text-anchor="middle" x="562.5" y="-276" font-family="Helvetica,sans-Serif" font-size="10.00">dataType</text>
<text text-anchor="middle" x="562.5" y="-265" font-family="Helvetica,sans-Serif" font-size="10.00">saveResidues</text>
<text text-anchor="middle" x="562.5" y="-254" font-family="Helvetica,sans-Serif" font-size="10.00">residNumber</text>
<text text-anchor="middle" x="562.5" y="-243" font-family="Helvetica,sans-Serif" font-size="10.00">sequenNumber</text>
<text text-anchor="middle" x="562.5" y="-232" font-family="Helvetica,sans-Serif" font-size="10.00">originalResidNumber</text>
</g>
<!-- Node4&#45;&gt;Node3 -->
<g id="edge4" class="edge"><title>Node4&#45;&gt;Node3</title>
<path fill="none" stroke="#9a32cd" stroke-dasharray="5,2" d="M642.837,-488.071C624.204,-485.343 599.232,-478.778 583.5,-463 554.521,-433.935 583.18,-405.305 555.5,-375 547.776,-366.544 471.319,-338.758 460.5,-335 432.184,-325.164 420.532,-333.491 395.5,-317 345.072,-283.779 345.424,-260.264 310.5,-211 261.43,-141.782 252.479,-122.156 209.5,-49 203.62,-38.9915 197.215,-27.2731 193.044,-19.5239"/>
<polygon fill="#9a32cd" stroke="#9a32cd" points="642.615,-491.569 652.958,-489.274 643.442,-484.618 642.615,-491.569"/>
<text text-anchor="middle" x="338.5" y="-181" font-family="Helvetica,sans-Serif" font-size="10.00"> matrix</text>
<text text-anchor="middle" x="338.5" y="-170" font-family="Helvetica,sans-Serif" font-size="10.00">seqsNumber</text>
<text text-anchor="middle" x="338.5" y="-159" font-family="Helvetica,sans-Serif" font-size="10.00">resNumber</text>
</g>
<!-- Node4&#45;&gt;Node8 -->
<g id="edge10" class="edge"><title>Node4&#45;&gt;Node8</title>
<path fill="none" stroke="#9a32cd" stroke-dasharray="5,2" d="M673.067,-471.585C690.683,-409.538 739.596,-204.337 661.5,-67 650.998,-48.5319 643.037,-46.3473 623.5,-38 574.44,-17.0385 511.27,-12.1466 476.766,-11.1298"/>
<polygon fill="#9a32cd" stroke="#9a32cd" points="669.628,-470.875 670.179,-481.455 676.346,-472.84 669.628,-470.875"/>
<text text-anchor="middle" x="736" y="-181" font-family="Helvetica,sans-Serif" font-size="10.00"> right_boundary</text>
<text text-anchor="middle" x="736" y="-170" font-family="Helvetica,sans-Serif" font-size="10.00">blockSize</text>
<text text-anchor="middle" x="736" y="-159" font-family="Helvetica,sans-Serif" font-size="10.00">left_boundary</text>
</g>
<!-- Node4&#45;&gt;Node10 -->
<g id="edge20" class="edge"><title>Node4&#45;&gt;Node10</title>
<path fill="none" stroke="#9a32cd" stroke-dasharray="5,2" d="M664.112,-471.597C653.501,-414.057 621.381,-240.672 617.5,-229 611.752,-211.715 601.732,-192.912 595.648,-182.23"/>
<polygon fill="#9a32cd" stroke="#9a32cd" points="660.679,-472.279 665.933,-481.479 667.563,-471.01 660.679,-472.279"/>
<text text-anchor="middle" x="668" y="-349" font-family="Helvetica,sans-Serif" font-size="10.00"> shWindow</text>
<text text-anchor="middle" x="668" y="-338" font-family="Helvetica,sans-Serif" font-size="10.00">ghWindow</text>
</g>
<!-- Node4&#45;&gt;Node11 -->
<g id="edge19" class="edge"><title>Node4&#45;&gt;Node11</title>
<path fill="none" stroke="#9a32cd" stroke-dasharray="5,2" d="M691.661,-481.835C701.605,-477.502 712.617,-471.321 720.5,-463 749.922,-431.944 736.985,-411.376 759.5,-375 777.111,-346.549 796.163,-348.481 807.5,-317 816.659,-291.567 816.775,-55.5037 801.5,-38 786.173,-20.4364 723.792,-14.2976 681.603,-12.1522"/>
<polygon fill="#9a32cd" stroke="#9a32cd" points="690.242,-478.632 682.227,-485.562 692.814,-485.143 690.242,-478.632"/>
<text text-anchor="middle" x="867" y="-203" font-family="Helvetica,sans-Serif" font-size="10.00"> numColumnsWithGaps</text>
<text text-anchor="middle" x="867" y="-192" font-family="Helvetica,sans-Serif" font-size="10.00">refCounter</text>
<text text-anchor="middle" x="867" y="-181" font-family="Helvetica,sans-Serif" font-size="10.00">halfWindow</text>
<text text-anchor="middle" x="867" y="-170" font-family="Helvetica,sans-Serif" font-size="10.00">gapsWindow</text>
<text text-anchor="middle" x="867" y="-159" font-family="Helvetica,sans-Serif" font-size="10.00">maxGaps</text>
<text text-anchor="middle" x="867" y="-148" font-family="Helvetica,sans-Serif" font-size="10.00">gapsInColumn</text>
<text text-anchor="middle" x="867" y="-137" font-family="Helvetica,sans-Serif" font-size="10.00">aminosXInColumn</text>
</g>
<!-- Node4&#45;&gt;Node12 -->
<g id="edge24" class="edge"><title>Node4&#45;&gt;Node12</title>
<path fill="none" stroke="#9a32cd" stroke-dasharray="5,2" d="M692.4,-490.505C752.796,-491.277 905.151,-490.379 946.5,-463 995.417,-430.61 1009.5,-405.668 1009.5,-347 1009.5,-347 1009.5,-347 1009.5,-76 1009.5,-53.9958 994.848,-31.5247 985.69,-19.6291"/>
<polygon fill="#9a32cd" stroke="#9a32cd" points="692.293,-487.003 682.24,-490.347 692.185,-494.002 692.293,-487.003"/>
<text text-anchor="middle" x="1035.5" y="-175.5" font-family="Helvetica,sans-Serif" font-size="10.00"> refCounter</text>
<text text-anchor="middle" x="1035.5" y="-164.5" font-family="Helvetica,sans-Serif" font-size="10.00">halfWindow</text>
</g>
<!-- Node15 -->
<g id="node15" class="node"><title>Node15</title>
<g id="a_node15"><a xlink:href="classsimilarity_matrix.html" target="_top" xlink:title="Class that contains the similarity information of an alignment. ">
<polygon fill="white" stroke="black" points="811,-336.5 811,-355.5 894,-355.5 894,-336.5 811,-336.5"/>
<text text-anchor="middle" x="852.5" y="-343.5" font-family="Helvetica,sans-Serif" font-size="10.00">similarityMatrix</text>
</a>
</g>
</g>
<!-- Node4&#45;&gt;Node15 -->
<g id="edge28" class="edge"><title>Node4&#45;&gt;Node15</title>
<path fill="none" stroke="#9a32cd" stroke-dasharray="5,2" d="M692.268,-488.896C712.282,-486.67 739.784,-480.38 756.5,-463 784.523,-433.865 752.539,-405.121 779.5,-375 787.738,-365.796 799.344,-359.598 810.882,-355.431"/>
<polygon fill="#9a32cd" stroke="#9a32cd" points="691.706,-485.43 682.035,-489.758 692.294,-492.406 691.706,-485.43"/>
<text text-anchor="middle" x="811" y="-422" font-family="Helvetica,sans-Serif" font-size="10.00"> numPositions</text>
<text text-anchor="middle" x="811" y="-411" font-family="Helvetica,sans-Serif" font-size="10.00">vhash</text>
</g>
<!-- Node5 -->
<g id="node5" class="node"><title>Node5</title>
<g id="a_node5"><a xlink:title="STL class. ">
<polygon fill="white" stroke="#bfbfbf" points="17.5,-481.5 17.5,-500.5 77.5,-500.5 77.5,-481.5 17.5,-481.5"/>
<text text-anchor="middle" x="47.5" y="-488.5" font-family="Helvetica,sans-Serif" font-size="10.00">std::string</text>
</a>
</g>
</g>
<!-- Node5&#45;&gt;Node1 -->
<g id="edge40" class="edge"><title>Node5&#45;&gt;Node1</title>
<path fill="none" stroke="#9a32cd" stroke-dasharray="5,2" d="M59.3002,-473.345C78.7436,-447.362 120.207,-397.8 168.5,-375 198.072,-361.039 283.326,-353.474 340.783,-349.84"/>
<polygon fill="#9a32cd" stroke="#9a32cd" points="56.4378,-471.33 53.366,-481.47 62.0906,-475.459 56.4378,-471.33"/>
<text text-anchor="middle" x="180.5" y="-416.5" font-family="Helvetica,sans-Serif" font-size="10.00"> nline</text>
</g>
<!-- Node5&#45;&gt;Node2 -->
<g id="edge13" class="edge"><title>Node5&#45;&gt;Node2</title>
<path fill="none" stroke="#9a32cd" stroke-dasharray="5,2" d="M48.783,-470.872C52.8982,-423.913 69.6013,-301.509 134.5,-229 147.232,-214.775 159.184,-223.629 173.5,-211 203.741,-184.322 188.576,-157.287 221.5,-134 286.326,-88.1498 382.025,-78.9034 435.212,-77.5822"/>
<polygon fill="#9a32cd" stroke="#9a32cd" points="45.2728,-470.867 47.9863,-481.109 52.2517,-471.41 45.2728,-470.867"/>
<text text-anchor="middle" x="160" y="-292.5" font-family="Helvetica,sans-Serif" font-size="10.00"> seqsName</text>
<text text-anchor="middle" x="160" y="-281.5" font-family="Helvetica,sans-Serif" font-size="10.00">seqsInfo</text>
<text text-anchor="middle" x="160" y="-270.5" font-family="Helvetica,sans-Serif" font-size="10.00">sequences</text>
<text text-anchor="middle" x="160" y="-259.5" font-family="Helvetica,sans-Serif" font-size="10.00">aligInfo</text>
<text text-anchor="middle" x="160" y="-248.5" font-family="Helvetica,sans-Serif" font-size="10.00">filename</text>
</g>
<!-- Node5&#45;&gt;Node3 -->
<g id="edge5" class="edge"><title>Node5&#45;&gt;Node3</title>
<path fill="none" stroke="#9a32cd" stroke-dasharray="5,2" d="M39.4586,-471.941C28.3062,-445.205 9.5,-393.262 9.5,-347 9.5,-347 9.5,-347 9.5,-76 9.5,-47.6495 89.8344,-28.1125 142.868,-18.3039"/>
<polygon fill="#9a32cd" stroke="#9a32cd" points="36.2672,-473.379 43.4333,-481.183 42.6978,-470.614 36.2672,-473.379"/>
<text text-anchor="middle" x="35" y="-170" font-family="Helvetica,sans-Serif" font-size="10.00"> seqsName</text>
</g>
<!-- Node6 -->
<g id="node6" class="node"><title>Node6</title>
<g id="a_node6"><a xlink:title="STL class. ">
<polygon fill="white" stroke="#bfbfbf" points="0,-538.5 0,-568.5 95,-568.5 95,-538.5 0,-538.5"/>
<text text-anchor="start" x="8" y="-556.5" font-family="Helvetica,sans-Serif" font-size="10.00">std::basic_string&lt;</text>
<text text-anchor="middle" x="47.5" y="-545.5" font-family="Helvetica,sans-Serif" font-size="10.00"> char &gt;</text>
</a>
</g>
</g>
<!-- Node6&#45;&gt;Node5 -->
<g id="edge6" class="edge"><title>Node6&#45;&gt;Node5</title>
<path fill="none" stroke="midnightblue" d="M47.5,-528.352C47.5,-518.513 47.5,-507.775 47.5,-500.54"/>
<polygon fill="midnightblue" stroke="midnightblue" points="44.0001,-528.468 47.5,-538.468 51.0001,-528.468 44.0001,-528.468"/>
</g>
<!-- Node7 -->
<g id="node7" class="node"><title>Node7</title>
<polygon fill="white" stroke="#bfbfbf" points="962,-481.5 962,-500.5 997,-500.5 997,-481.5 962,-481.5"/>
<text text-anchor="middle" x="979.5" y="-488.5" font-family="Helvetica,sans-Serif" font-size="10.00">float</text>
</g>
<!-- Node7&#45;&gt;Node2 -->
<g id="edge7" class="edge"><title>Node7&#45;&gt;Node2</title>
<path fill="none" stroke="#9a32cd" stroke-dasharray="5,2" d="M973.873,-471.578C965.408,-443.943 949.727,-393.073 943.5,-375 920.911,-309.442 943.676,-270.997 888.5,-229 853.344,-202.241 727.669,-234.885 690.5,-211 642.588,-180.212 668.639,-132.011 618.5,-105 585.918,-87.4475 543.856,-81.1254 513.615,-78.9379"/>
<polygon fill="#9a32cd" stroke="#9a32cd" points="970.551,-472.685 976.823,-481.223 977.245,-470.637 970.551,-472.685"/>
<text text-anchor="middle" x="952" y="-276" font-family="Helvetica,sans-Serif" font-size="10.00"> identities</text>
<text text-anchor="middle" x="952" y="-265" font-family="Helvetica,sans-Serif" font-size="10.00">overlaps</text>
</g>
<!-- Node7&#45;&gt;Node15 -->
<g id="edge27" class="edge"><title>Node7&#45;&gt;Node15</title>
<path fill="none" stroke="#9a32cd" stroke-dasharray="5,2" d="M979.399,-471.329C978.233,-446.052 972.352,-401.113 946.5,-375 932.723,-361.084 912.355,-354.02 894.097,-350.461"/>
<polygon fill="#9a32cd" stroke="#9a32cd" points="975.903,-471.513 979.658,-481.42 982.901,-471.334 975.903,-471.513"/>
<text text-anchor="middle" x="996.5" y="-422" font-family="Helvetica,sans-Serif" font-size="10.00"> distMat</text>
<text text-anchor="middle" x="996.5" y="-411" font-family="Helvetica,sans-Serif" font-size="10.00">simMat</text>
</g>
<!-- Node8&#45;&gt;Node2 -->
<g id="edge8" class="edge"><title>Node8&#45;&gt;Node2</title>
<path fill="none" stroke="#9a32cd" stroke-dasharray="5,2" d="M462.283,-28.65C463.858,-31.6957 465.337,-34.8853 466.5,-38 470.131,-47.7267 472.289,-59.5023 473.431,-67.3419"/>
<polygon fill="#9a32cd" stroke="#9a32cd" points="465.174,-26.6524 457.2,-19.6773 459.084,-30.1032 465.174,-26.6524"/>
<text text-anchor="middle" x="491.5" y="-41" font-family="Helvetica,sans-Serif" font-size="10.00"> Cleaning</text>
</g>
<!-- Node9 -->
<g id="node9" class="node"><title>Node9</title>
<polygon fill="white" stroke="#bfbfbf" points="121,-481.5 121,-500.5 156,-500.5 156,-481.5 121,-481.5"/>
<text text-anchor="middle" x="138.5" y="-488.5" font-family="Helvetica,sans-Serif" font-size="10.00">bool</text>
</g>
<!-- Node9&#45;&gt;Node1 -->
<g id="edge39" class="edge"><title>Node9&#45;&gt;Node1</title>
<path fill="none" stroke="#9a32cd" stroke-dasharray="5,2" d="M165.544,-482.279C176.334,-478.058 188.15,-471.841 196.5,-463 225.401,-432.399 198.776,-401.472 231.5,-375 248.047,-361.614 299.691,-354.379 340.843,-350.639"/>
<polygon fill="#9a32cd" stroke="#9a32cd" points="164.327,-478.997 156.051,-485.612 166.646,-485.601 164.327,-478.997"/>
<text text-anchor="middle" x="261" y="-416.5" font-family="Helvetica,sans-Serif" font-size="10.00"> appearErrors</text>
</g>
<!-- Node9&#45;&gt;Node2 -->
<g id="edge14" class="edge"><title>Node9&#45;&gt;Node2</title>
<path fill="none" stroke="#9a32cd" stroke-dasharray="5,2" d="M137.357,-471.426C136.651,-447.875 137.934,-406.54 152.5,-375 194.042,-285.05 238.546,-285.818 303.5,-211 332.488,-177.61 336.034,-166.046 366.5,-134 379.725,-120.09 382.026,-114.848 398.5,-105 411.72,-97.0967 427.611,-91.0003 441.437,-86.6171"/>
<polygon fill="#9a32cd" stroke="#9a32cd" points="133.861,-471.609 137.814,-481.439 140.854,-471.289 133.861,-471.609"/>
<text text-anchor="middle" x="308" y="-270.5" font-family="Helvetica,sans-Serif" font-size="10.00"> isAligned</text>
</g>
<!-- Node9&#45;&gt;Node8 -->
<g id="edge11" class="edge"><title>Node9&#45;&gt;Node8</title>
<path fill="none" stroke="#9a32cd" stroke-dasharray="5,2" d="M132.571,-471.761C115.42,-415.248 71.6813,-240.473 148.5,-134 207.654,-52.0108 265.888,-87.1874 359.5,-49 384.141,-38.9479 412.429,-27.2384 431.059,-19.5032"/>
<polygon fill="#9a32cd" stroke="#9a32cd" points="129.272,-472.937 135.604,-481.432 135.951,-470.843 129.272,-472.937"/>
<text text-anchor="middle" x="185" y="-175.5" font-family="Helvetica,sans-Serif" font-size="10.00"> keepSequences</text>
<text text-anchor="middle" x="185" y="-164.5" font-family="Helvetica,sans-Serif" font-size="10.00">terminalGapOnly</text>
</g>
<!-- Node10&#45;&gt;Node2 -->
<g id="edge15" class="edge"><title>Node10&#45;&gt;Node2</title>
<path fill="none" stroke="#9a32cd" stroke-dasharray="5,2" d="M586.31,-153.128C581.992,-138.187 573.82,-117.587 559.5,-105 546.824,-93.8579 529.532,-87.3092 513.854,-83.4622"/>
<polygon fill="#9a32cd" stroke="#9a32cd" points="582.921,-154.001 588.806,-162.811 589.699,-152.254 582.921,-154.001"/>
<text text-anchor="middle" x="592" y="-108" font-family="Helvetica,sans-Serif" font-size="10.00"> Statistics</text>
</g>
<!-- Node11&#45;&gt;Node10 -->
<g id="edge17" class="edge"><title>Node11&#45;&gt;Node10</title>
<path fill="none" stroke="#9a32cd" stroke-dasharray="5,2" d="M638.876,-29.6051C635.543,-50.9039 628.935,-86.6366 618.5,-116 612.357,-133.288 602.025,-152.089 595.777,-162.771"/>
<polygon fill="#9a32cd" stroke="#9a32cd" points="642.349,-30.0473 640.36,-19.6409 635.425,-29.0165 642.349,-30.0473"/>
<text text-anchor="middle" x="645" y="-74.5" font-family="Helvetica,sans-Serif" font-size="10.00"> gaps</text>
</g>
<!-- Node12&#45;&gt;Node10 -->
<g id="edge21" class="edge"><title>Node12&#45;&gt;Node10</title>
<path fill="none" stroke="#9a32cd" stroke-dasharray="5,2" d="M947.995,-23.6188C871.909,-55.0926 675.259,-136.439 611.087,-162.984"/>
<polygon fill="#9a32cd" stroke="#9a32cd" points="949.588,-26.7473 957.491,-19.6905 946.913,-20.2789 949.588,-26.7473"/>
<text text-anchor="middle" x="872" y="-74.5" font-family="Helvetica,sans-Serif" font-size="10.00"> conservation</text>
</g>
<!-- Node13 -->
<g id="node13" class="node"><title>Node13</title>
<polygon fill="white" stroke="#bfbfbf" points="1059.5,-481.5 1059.5,-500.5 1101.5,-500.5 1101.5,-481.5 1059.5,-481.5"/>
<text text-anchor="middle" x="1080.5" y="-488.5" font-family="Helvetica,sans-Serif" font-size="10.00">float *</text>
</g>
<!-- Node13&#45;&gt;Node1 -->
<g id="edge31" class="edge"><title>Node13&#45;&gt;Node1</title>
<path fill="none" stroke="#9a32cd" stroke-dasharray="5,2" d="M1049.52,-486.24C989.986,-478.999 865.361,-463.763 864.5,-463 834.327,-436.263 873.483,-400.794 842.5,-375 835.093,-368.834 570.363,-355.365 452.328,-349.65"/>
<polygon fill="#9a32cd" stroke="#9a32cd" points="1049.15,-489.72 1059.5,-487.453 1049.99,-482.772 1049.15,-489.72"/>
<text text-anchor="middle" x="903.5" y="-422" font-family="Helvetica,sans-Serif" font-size="10.00"> values</text>
<text text-anchor="middle" x="903.5" y="-411" font-family="Helvetica,sans-Serif" font-size="10.00">values_windowed</text>
</g>
<!-- Node13&#45;&gt;Node12 -->
<g id="edge23" class="edge"><title>Node13&#45;&gt;Node12</title>
<path fill="none" stroke="#9a32cd" stroke-dasharray="5,2" d="M1084.16,-471.288C1089.15,-444.053 1097.5,-391.846 1097.5,-347 1097.5,-347 1097.5,-347 1097.5,-76 1097.5,-44.2199 1064.41,-27.882 1033.12,-19.5373"/>
<polygon fill="#9a32cd" stroke="#9a32cd" points="1080.68,-470.861 1082.26,-481.337 1087.55,-472.163 1080.68,-470.861"/>
<text text-anchor="middle" x="1131" y="-175.5" font-family="Helvetica,sans-Serif" font-size="10.00"> MDK_Window</text>
<text text-anchor="middle" x="1131" y="-164.5" font-family="Helvetica,sans-Serif" font-size="10.00">MDK</text>
</g>
<!-- Node14 -->
<g id="node14" class="node"><title>Node14</title>
<polygon fill="white" stroke="#bfbfbf" points="1125.5,-67.5 1125.5,-86.5 1171.5,-86.5 1171.5,-67.5 1125.5,-67.5"/>
<text text-anchor="middle" x="1148.5" y="-74.5" font-family="Helvetica,sans-Serif" font-size="10.00">float **</text>
</g>
<!-- Node14&#45;&gt;Node12 -->
<g id="edge25" class="edge"><title>Node14&#45;&gt;Node12</title>
<path fill="none" stroke="#9a32cd" stroke-dasharray="5,2" d="M1135.89,-59.0115C1129.42,-51.4606 1120.91,-43.1355 1111.5,-38 1088.44,-25.4164 1060.24,-18.6724 1035.74,-15.0682"/>
<polygon fill="#9a32cd" stroke="#9a32cd" points="1133.52,-61.6507 1142.49,-67.2823 1138.99,-57.2835 1133.52,-61.6507"/>
<text text-anchor="middle" x="1156" y="-41" font-family="Helvetica,sans-Serif" font-size="10.00"> matrixIdentity</text>
</g>
<!-- Node15&#45;&gt;Node10 -->
<g id="edge30" class="edge"><title>Node15&#45;&gt;Node10</title>
<path fill="none" stroke="#9a32cd" stroke-dasharray="5,2" d="M830.983,-330.916C778.621,-296.64 645.763,-209.674 603.571,-182.056"/>
<polygon fill="#9a32cd" stroke="#9a32cd" points="829.224,-333.947 839.507,-336.495 833.057,-328.09 829.224,-333.947"/>
<text text-anchor="middle" x="847" y="-270.5" font-family="Helvetica,sans-Serif" font-size="10.00"> _similarityMatrix</text>
</g>
<!-- Node15&#45;&gt;Node12 -->
<g id="edge26" class="edge"><title>Node15&#45;&gt;Node12</title>
<path fill="none" stroke="#9a32cd" stroke-dasharray="5,2" d="M863.752,-327.641C879.433,-302.745 907.807,-255.038 924.5,-211 941.657,-165.739 936.802,-151.709 949.5,-105 958.102,-73.3578 970.113,-36.3039 975.582,-19.7546"/>
<polygon fill="#9a32cd" stroke="#9a32cd" points="860.663,-325.974 858.235,-336.287 866.565,-329.739 860.663,-325.974"/>
<text text-anchor="middle" x="972.5" y="-108" font-family="Helvetica,sans-Serif" font-size="10.00"> simMatrix</text>
</g>
<!-- Node16 -->
<g id="node16" class="node"><title>Node16</title>
<polygon fill="white" stroke="#bfbfbf" points="283,-481.5 283,-500.5 318,-500.5 318,-481.5 283,-481.5"/>
<text text-anchor="middle" x="300.5" y="-488.5" font-family="Helvetica,sans-Serif" font-size="10.00">char</text>
</g>
<!-- Node16&#45;&gt;Node1 -->
<g id="edge32" class="edge"><title>Node16&#45;&gt;Node1</title>
<path fill="none" stroke="#9a32cd" stroke-dasharray="5,2" d="M296.6,-471.425C292.533,-446.613 289.465,-402.587 311.5,-375 318.966,-365.652 329.631,-359.395 340.895,-355.214"/>
<polygon fill="#9a32cd" stroke="#9a32cd" points="293.176,-472.156 298.452,-481.344 300.057,-470.872 293.176,-472.156"/>
<text text-anchor="middle" x="348" y="-422" font-family="Helvetica,sans-Serif" font-size="10.00"> filesToCompare</text>
<text text-anchor="middle" x="348" y="-411" font-family="Helvetica,sans-Serif" font-size="10.00">c</text>
</g>
<!-- Node17 -->
<g id="node17" class="node"><title>Node17</title>
<g id="a_node17"><a xlink:title="STL class. ">
<polygon fill="white" stroke="#bfbfbf" points="350,-481.5 350,-500.5 421,-500.5 421,-481.5 350,-481.5"/>
<text text-anchor="middle" x="385.5" y="-488.5" font-family="Helvetica,sans-Serif" font-size="10.00">std::ifstream</text>
</a>
</g>
</g>
<!-- Node17&#45;&gt;Node1 -->
<g id="edge33" class="edge"><title>Node17&#45;&gt;Node1</title>
<path fill="none" stroke="#9a32cd" stroke-dasharray="5,2" d="M386.922,-471.509C389.322,-440.314 394.084,-378.409 395.834,-355.653"/>
<polygon fill="#9a32cd" stroke="#9a32cd" points="383.433,-471.244 386.155,-481.483 390.412,-471.781 383.433,-471.244"/>
<text text-anchor="middle" x="415" y="-416.5" font-family="Helvetica,sans-Serif" font-size="10.00"> compare</text>
</g>
<!-- Node18 -->
<g id="node18" class="node"><title>Node18</title>
<g id="a_node18"><a xlink:title="STL class. ">
<polygon fill="white" stroke="#bfbfbf" points="335.5,-538.5 335.5,-568.5 435.5,-568.5 435.5,-538.5 335.5,-538.5"/>
<text text-anchor="start" x="343.5" y="-556.5" font-family="Helvetica,sans-Serif" font-size="10.00">std::basic_ifstream</text>
<text text-anchor="middle" x="385.5" y="-545.5" font-family="Helvetica,sans-Serif" font-size="10.00">&lt; char &gt;</text>
</a>
</g>
</g>
<!-- Node18&#45;&gt;Node17 -->
<g id="edge34" class="edge"><title>Node18&#45;&gt;Node17</title>
<path fill="none" stroke="midnightblue" d="M385.5,-528.352C385.5,-518.513 385.5,-507.775 385.5,-500.54"/>
<polygon fill="midnightblue" stroke="midnightblue" points="382,-528.468 385.5,-538.468 389,-528.468 382,-528.468"/>
</g>
<!-- Node19 -->
<g id="node19" class="node"><title>Node19</title>
<g id="a_node19"><a xlink:title="STL class. ">
<polygon fill="white" stroke="#bfbfbf" points="337,-606.5 337,-636.5 434,-636.5 434,-606.5 337,-606.5"/>
<text text-anchor="start" x="345" y="-624.5" font-family="Helvetica,sans-Serif" font-size="10.00">std::basic_istream</text>
<text text-anchor="middle" x="385.5" y="-613.5" font-family="Helvetica,sans-Serif" font-size="10.00">&lt; Char &gt;</text>
</a>
</g>
</g>
<!-- Node19&#45;&gt;Node18 -->
<g id="edge35" class="edge"><title>Node19&#45;&gt;Node18</title>
<path fill="none" stroke="midnightblue" d="M385.5,-596.032C385.5,-586.861 385.5,-576.745 385.5,-568.793"/>
<polygon fill="midnightblue" stroke="midnightblue" points="382,-596.179 385.5,-606.179 389,-596.179 382,-596.179"/>
</g>
<!-- Node20 -->
<g id="node20" class="node"><title>Node20</title>
<g id="a_node20"><a xlink:title="STL class. ">
<polygon fill="white" stroke="#bfbfbf" points="327.5,-674.5 327.5,-693.5 443.5,-693.5 443.5,-674.5 327.5,-674.5"/>
<text text-anchor="middle" x="385.5" y="-681.5" font-family="Helvetica,sans-Serif" font-size="10.00">std::basic_ios&lt; Char &gt;</text>
</a>
</g>
</g>
<!-- Node20&#45;&gt;Node19 -->
<g id="edge36" class="edge"><title>Node20&#45;&gt;Node19</title>
<path fill="none" stroke="midnightblue" d="M385.5,-664.215C385.5,-655.356 385.5,-644.958 385.5,-636.759"/>
<polygon fill="midnightblue" stroke="midnightblue" points="382,-664.332 385.5,-674.332 389,-664.332 382,-664.332"/>
</g>
<!-- Node21 -->
<g id="node21" class="node"><title>Node21</title>
<g id="a_node21"><a xlink:title="STL class. ">
<polygon fill="white" stroke="#bfbfbf" points="348,-731.5 348,-750.5 423,-750.5 423,-731.5 348,-731.5"/>
<text text-anchor="middle" x="385.5" y="-738.5" font-family="Helvetica,sans-Serif" font-size="10.00">std::ios_base</text>
</a>
</g>
</g>
<!-- Node21&#45;&gt;Node20 -->
<g id="edge37" class="edge"><title>Node21&#45;&gt;Node20</title>
<path fill="none" stroke="midnightblue" d="M385.5,-721.117C385.5,-711.817 385.5,-701.056 385.5,-693.715"/>
<polygon fill="midnightblue" stroke="midnightblue" points="382,-721.406 385.5,-731.406 389,-721.406 382,-721.406"/>
</g>
<!-- Node22 -->
<g id="node22" class="node"><title>Node22</title>
<polygon fill="white" stroke="#bfbfbf" points="439.5,-481.5 439.5,-500.5 481.5,-500.5 481.5,-481.5 439.5,-481.5"/>
<text text-anchor="middle" x="460.5" y="-488.5" font-family="Helvetica,sans-Serif" font-size="10.00">char *</text>
</g>
<!-- Node22&#45;&gt;Node1 -->
<g id="edge41" class="edge"><title>Node22&#45;&gt;Node1</title>
<path fill="none" stroke="#9a32cd" stroke-dasharray="5,2" d="M461.194,-471.063C461.178,-446.808 458.012,-404.401 438.5,-375 432.976,-366.676 424.043,-360.213 415.833,-355.604"/>
<polygon fill="#9a32cd" stroke="#9a32cd" points="457.689,-471.313 461.007,-481.375 464.688,-471.44 457.689,-471.313"/>
<text text-anchor="middle" x="471" y="-416.5" font-family="Helvetica,sans-Serif" font-size="10.00"> line</text>
</g>
</g>
</svg>
