<?xml version="1.0" encoding="UTF-8" standalone="no"?>
<!DOCTYPE svg PUBLIC "-//W3C//DTD SVG 1.1//EN"
 "http://www.w3.org/Graphics/SVG/1.1/DTD/svg11.dtd">
<!-- Generated by graphviz version 2.40.1 (20161225.0304)
 -->
<!-- Title: trimAlManager::clusters_argument Pages: 1 -->
<svg width="395pt" height="39pt"
 viewBox="0.00 0.00 395.00 39.00" xmlns="http://www.w3.org/2000/svg" xmlns:xlink="http://www.w3.org/1999/xlink">
<g id="graph0" class="graph" transform="scale(1 1) rotate(0) translate(4 35)">
<title>trimAlManager::clusters_argument</title>
<polygon fill="#ffffff" stroke="transparent" points="-4,4 -4,-35 391,-35 391,4 -4,4"/>
<!-- Node506 -->
<g id="node1" class="node">
<title>Node506</title>
<polygon fill="#bfbfbf" stroke="#000000" points="0,-.5 0,-30.5 120,-30.5 120,-.5 0,-.5"/>
<text text-anchor="start" x="8" y="-18.5" font-family="Helvetica,sans-Serif" font-size="10.00" fill="#000000">trimAlManager::clusters</text>
<text text-anchor="middle" x="60" y="-7.5" font-family="Helvetica,sans-Serif" font-size="10.00" fill="#000000">_argument</text>
</g>
<!-- Node507 -->
<g id="node2" class="node">
<title>Node507</title>
<g id="a_node2"><a xlink:href="classtrim_al_manager.html#af140d97b6071a83930818030ac74b641" target="_top" xlink:title="Method to parse arguments into usable structure in trimal. ">
<polygon fill="#ffffff" stroke="#000000" points="156,-6 156,-25 313,-25 313,-6 156,-6"/>
<text text-anchor="middle" x="234.5" y="-13" font-family="Helvetica,sans-Serif" font-size="10.00" fill="#000000">trimAlManager::parseArguments</text>
</a>
</g>
</g>
<!-- Node506&#45;&gt;Node507 -->
<g id="edge1" class="edge">
<title>Node506&#45;&gt;Node507</title>
<path fill="none" stroke="#191970" d="M130.2101,-15.5C138.6452,-15.5 147.3014,-15.5 155.8466,-15.5"/>
<polygon fill="#191970" stroke="#191970" points="130.053,-12.0001 120.053,-15.5 130.053,-19.0001 130.053,-12.0001"/>
</g>
<!-- Node508 -->
<g id="node3" class="node">
<title>Node508</title>
<g id="a_node3"><a xlink:href="trim_al_main_8cpp.html#a0ddf1224851353fc92bfbff6f499fa97" target="_top" xlink:title="main">
<polygon fill="#ffffff" stroke="#000000" points="349,-6 349,-25 387,-25 387,-6 349,-6"/>
<text text-anchor="middle" x="368" y="-13" font-family="Helvetica,sans-Serif" font-size="10.00" fill="#000000">main</text>
</a>
</g>
</g>
<!-- Node507&#45;&gt;Node508 -->
<g id="edge2" class="edge">
<title>Node507&#45;&gt;Node508</title>
<path fill="none" stroke="#191970" d="M323.5766,-15.5C332.8353,-15.5 341.4462,-15.5 348.5746,-15.5"/>
<polygon fill="#191970" stroke="#191970" points="323.3153,-12.0001 313.3152,-15.5 323.3152,-19.0001 323.3153,-12.0001"/>
</g>
</g>
</svg>
