<?xml version="1.0" encoding="UTF-8" standalone="no"?>
<!DOCTYPE svg PUBLIC "-//W3C//DTD SVG 1.1//EN"
 "http://www.w3.org/Graphics/SVG/1.1/DTD/svg11.dtd">
<!-- Generated by graphviz version 2.40.1 (20161225.0304)
 -->
<!-- Title: statistics::Similarity::calculateMatrixIdentity Pages: 1 -->
<svg width="1729pt" height="382pt"
 viewBox="0.00 0.00 1729.00 382.00" xmlns="http://www.w3.org/2000/svg" xmlns:xlink="http://www.w3.org/1999/xlink">
<g id="graph0" class="graph" transform="scale(1 1) rotate(0) translate(4 378)">
<title>statistics::Similarity::calculateMatrixIdentity</title>
<polygon fill="#ffffff" stroke="transparent" points="-4,4 -4,-378 1725,-378 1725,4 -4,4"/>
<!-- Node125 -->
<g id="node1" class="node">
<title>Node125</title>
<polygon fill="#bfbfbf" stroke="#000000" points="0,-257 0,-287 121,-287 121,-257 0,-257"/>
<text text-anchor="start" x="8" y="-275" font-family="Helvetica,sans-Serif" font-size="10.00" fill="#000000">statistics::Similarity</text>
<text text-anchor="middle" x="60.5" y="-264" font-family="Helvetica,sans-Serif" font-size="10.00" fill="#000000">::calculateMatrixIdentity</text>
</g>
<!-- Node126 -->
<g id="node2" class="node">
<title>Node126</title>
<g id="a_node2"><a xlink:href="classstatistics_1_1_similarity.html#ae69ec0e79912ae23c8cfe97358c4794d" target="_top" xlink:title="Method to calculate the similarity values of a alignment matrix. ">
<polygon fill="#ffffff" stroke="#000000" points="157,-257 157,-287 260,-287 260,-257 157,-257"/>
<text text-anchor="start" x="165" y="-275" font-family="Helvetica,sans-Serif" font-size="10.00" fill="#000000">statistics::Similarity</text>
<text text-anchor="middle" x="208.5" y="-264" font-family="Helvetica,sans-Serif" font-size="10.00" fill="#000000">::calculateVectors</text>
</a>
</g>
</g>
<!-- Node125&#45;&gt;Node126 -->
<g id="edge1" class="edge">
<title>Node125&#45;&gt;Node126</title>
<path fill="none" stroke="#191970" d="M131.1765,-272C139.7869,-272 148.4575,-272 156.7205,-272"/>
<polygon fill="#191970" stroke="#191970" points="131.1243,-268.5001 121.1243,-272 131.1243,-275.5001 131.1243,-268.5001"/>
</g>
<!-- Node127 -->
<g id="node3" class="node">
<title>Node127</title>
<g id="a_node3"><a xlink:href="classstatistics_1_1_manager.html#a92505ca5aedc5b45c4300a0e8a7d1e17" target="_top" xlink:title="Method to handle similarity stat calculation It checks if the similarity submodule has been created...">
<polygon fill="#ffffff" stroke="#000000" points="614,-279 614,-309 757,-309 757,-279 614,-279"/>
<text text-anchor="start" x="622" y="-297" font-family="Helvetica,sans-Serif" font-size="10.00" fill="#000000">statistics::Manager</text>
<text text-anchor="middle" x="685.5" y="-286" font-family="Helvetica,sans-Serif" font-size="10.00" fill="#000000">::calculateConservationStats</text>
</a>
</g>
</g>
<!-- Node126&#45;&gt;Node127 -->
<g id="edge2" class="edge">
<title>Node126&#45;&gt;Node127</title>
<path fill="none" stroke="#191970" d="M270.1224,-274.8421C358.3278,-278.9103 520.2252,-286.3773 613.7228,-290.6895"/>
<polygon fill="#191970" stroke="#191970" points="270.1512,-271.3398 260.0006,-274.3753 269.8287,-278.3324 270.1512,-271.3398"/>
</g>
<!-- Node141 -->
<g id="node17" class="node">
<title>Node141</title>
<g id="a_node17"><a xlink:href="classstatistics_1_1_similarity.html#adcb5627b9704850e85433fc40c19db17" target="_top" xlink:title="Allows us compute the conservationWindow&#39;s values. ">
<polygon fill="#ffffff" stroke="#000000" points="296,-235 296,-265 399,-265 399,-235 296,-235"/>
<text text-anchor="start" x="304" y="-253" font-family="Helvetica,sans-Serif" font-size="10.00" fill="#000000">statistics::Similarity</text>
<text text-anchor="middle" x="347.5" y="-242" font-family="Helvetica,sans-Serif" font-size="10.00" fill="#000000">::applyWindow</text>
</a>
</g>
</g>
<!-- Node126&#45;&gt;Node141 -->
<g id="edge20" class="edge">
<title>Node126&#45;&gt;Node141</title>
<path fill="none" stroke="#191970" d="M270.1632,-262.2404C278.6896,-260.8909 287.3753,-259.5161 295.6983,-258.1988"/>
<polygon fill="#191970" stroke="#191970" points="269.5883,-258.7877 260.2585,-263.808 270.6827,-265.7016 269.5883,-258.7877"/>
</g>
<!-- Node128 -->
<g id="node4" class="node">
<title>Node128</title>
<g id="a_node4"><a xlink:href="class_cleaner.html#a4718e31c0183b5a98751d77479faacf0" target="_top" xlink:title="Method to trim an alignment based on the similarity and gaps distribution values. ...">
<polygon fill="#ffffff" stroke="#000000" points="838.5,-196.5 838.5,-215.5 918.5,-215.5 918.5,-196.5 838.5,-196.5"/>
<text text-anchor="middle" x="878.5" y="-203.5" font-family="Helvetica,sans-Serif" font-size="10.00" fill="#000000">Cleaner::clean</text>
</a>
</g>
</g>
<!-- Node127&#45;&gt;Node128 -->
<g id="edge3" class="edge">
<title>Node127&#45;&gt;Node128</title>
<path fill="none" stroke="#191970" d="M716.5276,-273.415C740.4328,-258.3005 774.7455,-238.1871 807,-225 816.8677,-220.9657 827.8527,-217.5501 838.1933,-214.7762"/>
<polygon fill="#191970" stroke="#191970" points="714.4356,-270.5984 707.9012,-278.9381 718.2102,-276.4936 714.4356,-270.5984"/>
</g>
<!-- Node135 -->
<g id="node11" class="node">
<title>Node135</title>
<g id="a_node11"><a xlink:href="class_cleaner.html#a6727a235afa29f08a50716f28fa5c8fc" target="_top" xlink:title="Method to clean an alignment. It carries out strict and strictplus. The method: ">
<polygon fill="#ffffff" stroke="#000000" points="807,-234.5 807,-253.5 950,-253.5 950,-234.5 807,-234.5"/>
<text text-anchor="middle" x="878.5" y="-241.5" font-family="Helvetica,sans-Serif" font-size="10.00" fill="#000000">Cleaner::cleanCombMethods</text>
</a>
</g>
</g>
<!-- Node127&#45;&gt;Node135 -->
<g id="edge10" class="edge">
<title>Node127&#45;&gt;Node135</title>
<path fill="none" stroke="#191970" d="M753.3054,-276.4338C782.9999,-268.741 816.682,-260.015 841.6247,-253.5532"/>
<polygon fill="#191970" stroke="#191970" points="752.209,-273.1022 743.4064,-278.9984 753.9646,-279.8785 752.209,-273.1022"/>
</g>
<!-- Node137 -->
<g id="node13" class="node">
<title>Node137</title>
<g id="a_node13"><a xlink:href="class_cleaner.html#a9cdbd6ebf78a284dd065b31319795b0c" target="_top" xlink:title="Method to trim an alignment based on the similarity distribution values. ">
<polygon fill="#ffffff" stroke="#000000" points="810,-158.5 810,-177.5 947,-177.5 947,-158.5 810,-158.5"/>
<text text-anchor="middle" x="878.5" y="-165.5" font-family="Helvetica,sans-Serif" font-size="10.00" fill="#000000">Cleaner::cleanConservation</text>
</a>
</g>
</g>
<!-- Node127&#45;&gt;Node137 -->
<g id="edge13" class="edge">
<title>Node127&#45;&gt;Node137</title>
<path fill="none" stroke="#191970" d="M705.3766,-271.0787C727.7229,-246.7221 766.2442,-208.7847 807,-187 814.1362,-183.1856 822.0903,-180.0979 830.0275,-177.6102"/>
<polygon fill="#191970" stroke="#191970" points="702.5346,-269.0041 698.4386,-278.7752 707.7339,-273.6911 702.5346,-269.0041"/>
</g>
<!-- Node138 -->
<g id="node14" class="node">
<title>Node138</title>
<g id="a_node14"><a xlink:href="classstatistics_1_1_manager.html#a080c687f8f355900511485eeec32a659" target="_top" xlink:title="Wrapper to Statistics::Similarity::printConservationAcl() It calls to calculateConservationStats() to...">
<polygon fill="#ffffff" stroke="#000000" points="808.5,-332.5 808.5,-373.5 948.5,-373.5 948.5,-332.5 808.5,-332.5"/>
<text text-anchor="start" x="816.5" y="-361.5" font-family="Helvetica,sans-Serif" font-size="10.00" fill="#000000">statistics::Manager</text>
<text text-anchor="start" x="816.5" y="-350.5" font-family="Helvetica,sans-Serif" font-size="10.00" fill="#000000">::printStatisticsConservation</text>
<text text-anchor="middle" x="878.5" y="-339.5" font-family="Helvetica,sans-Serif" font-size="10.00" fill="#000000">Columns</text>
</a>
</g>
</g>
<!-- Node127&#45;&gt;Node138 -->
<g id="edge15" class="edge">
<title>Node127&#45;&gt;Node138</title>
<path fill="none" stroke="#191970" d="M744.4818,-312.0307C765.5569,-318.4734 789.4597,-325.7804 811.1843,-332.4216"/>
<polygon fill="#191970" stroke="#191970" points="745.2878,-308.6173 734.7014,-309.0408 743.2413,-315.3115 745.2878,-308.6173"/>
</g>
<!-- Node140 -->
<g id="node16" class="node">
<title>Node140</title>
<g id="a_node16"><a xlink:href="classstatistics_1_1_manager.html#aa20cfb477826035386ea988e3706b09a" target="_top" xlink:title="Wrapper to Statistics::Similarity::printGapsTotal() It calls to calculateConservationStats() to make ...">
<polygon fill="#ffffff" stroke="#000000" points="808.5,-272.5 808.5,-313.5 948.5,-313.5 948.5,-272.5 808.5,-272.5"/>
<text text-anchor="start" x="816.5" y="-301.5" font-family="Helvetica,sans-Serif" font-size="10.00" fill="#000000">statistics::Manager</text>
<text text-anchor="start" x="816.5" y="-290.5" font-family="Helvetica,sans-Serif" font-size="10.00" fill="#000000">::printStatisticsConservation</text>
<text text-anchor="middle" x="878.5" y="-279.5" font-family="Helvetica,sans-Serif" font-size="10.00" fill="#000000">Total</text>
</a>
</g>
</g>
<!-- Node127&#45;&gt;Node140 -->
<g id="edge18" class="edge">
<title>Node127&#45;&gt;Node140</title>
<path fill="none" stroke="#191970" d="M767.4041,-293.5756C781.0147,-293.5051 795.0219,-293.4325 808.3086,-293.3637"/>
<polygon fill="#191970" stroke="#191970" points="767.0735,-290.0772 757.0918,-293.6291 767.1098,-297.0771 767.0735,-290.0772"/>
</g>
<!-- Node129 -->
<g id="node5" class="node">
<title>Node129</title>
<g id="a_node5"><a xlink:href="classtrim_al_manager.html#aebfd21b0435302f0e4fc45a068d1b6ee" target="_top" xlink:title="Method to trim the alignment using non automatic methods: ">
<polygon fill="#ffffff" stroke="#000000" points="998.5,-153 998.5,-183 1150.5,-183 1150.5,-153 998.5,-153"/>
<text text-anchor="start" x="1006.5" y="-171" font-family="Helvetica,sans-Serif" font-size="10.00" fill="#000000">trimAlManager::CleanResidues</text>
<text text-anchor="middle" x="1074.5" y="-160" font-family="Helvetica,sans-Serif" font-size="10.00" fill="#000000">NonAuto</text>
</a>
</g>
</g>
<!-- Node128&#45;&gt;Node129 -->
<g id="edge4" class="edge">
<title>Node128&#45;&gt;Node129</title>
<path fill="none" stroke="#191970" d="M928.6892,-196.2694C949.863,-192.1643 974.981,-187.2945 998.352,-182.7634"/>
<polygon fill="#191970" stroke="#191970" points="927.7875,-192.879 918.6365,-198.2184 929.1199,-199.751 927.7875,-192.879"/>
</g>
<!-- Node130 -->
<g id="node6" class="node">
<title>Node130</title>
<g id="a_node6"><a xlink:href="classtrim_al_manager.html#adc529dd893ed4e9df6f3ddbd58776068" target="_top" xlink:title="Core Method of the program. This is where almost all cleaning methods are called from. ">
<polygon fill="#ffffff" stroke="#000000" points="1201,-148 1201,-178 1310,-178 1310,-148 1201,-148"/>
<text text-anchor="start" x="1209" y="-166" font-family="Helvetica,sans-Serif" font-size="10.00" fill="#000000">trimAlManager::clean</text>
<text text-anchor="middle" x="1255.5" y="-155" font-family="Helvetica,sans-Serif" font-size="10.00" fill="#000000">_alignment</text>
</a>
</g>
</g>
<!-- Node129&#45;&gt;Node130 -->
<g id="edge5" class="edge">
<title>Node129&#45;&gt;Node130</title>
<path fill="none" stroke="#191970" d="M1161.043,-165.6093C1174.5782,-165.2354 1188.2317,-164.8582 1200.7893,-164.5113"/>
<polygon fill="#191970" stroke="#191970" points="1160.6352,-162.1191 1150.7357,-165.894 1160.8286,-169.1165 1160.6352,-162.1191"/>
</g>
<!-- Node131 -->
<g id="node7" class="node">
<title>Node131</title>
<g id="a_node7"><a xlink:href="classtrim_al_manager.html#a7c641a1feff33d401b4ea5c82e989289" target="_top" xlink:title="trimAlManager::innerPerform">
<polygon fill="#ffffff" stroke="#000000" points="1349.5,-136.5 1349.5,-155.5 1490.5,-155.5 1490.5,-136.5 1349.5,-136.5"/>
<text text-anchor="middle" x="1420" y="-143.5" font-family="Helvetica,sans-Serif" font-size="10.00" fill="#000000">trimAlManager::innerPerform</text>
</a>
</g>
</g>
<!-- Node130&#45;&gt;Node131 -->
<g id="edge6" class="edge">
<title>Node130&#45;&gt;Node131</title>
<path fill="none" stroke="#191970" d="M1320.434,-156.2895C1329.9354,-155.3076 1339.7598,-154.2923 1349.3684,-153.2993"/>
<polygon fill="#191970" stroke="#191970" points="1319.8633,-152.8297 1310.2761,-157.3392 1320.583,-159.7927 1319.8633,-152.8297"/>
</g>
<!-- Node134 -->
<g id="node10" class="node">
<title>Node134</title>
<g id="a_node10"><a xlink:href="classtrim_al_manager.html#ac5795f93b3a2b51bf5d8dddd63b89f73" target="_top" xlink:title="trimAlManager::perform_VCF">
<polygon fill="#ffffff" stroke="#000000" points="1348,-93.5 1348,-112.5 1492,-112.5 1492,-93.5 1348,-93.5"/>
<text text-anchor="middle" x="1420" y="-100.5" font-family="Helvetica,sans-Serif" font-size="10.00" fill="#000000">trimAlManager::perform_VCF</text>
</a>
</g>
</g>
<!-- Node130&#45;&gt;Node134 -->
<g id="edge9" class="edge">
<title>Node130&#45;&gt;Node134</title>
<path fill="none" stroke="#191970" d="M1302.8631,-144.0488C1317.2986,-138.4129 1333.2503,-132.3248 1348,-127 1361.7565,-122.0337 1377.1198,-116.8621 1390.1102,-112.5968"/>
<polygon fill="#191970" stroke="#191970" points="1301.1748,-140.9515 1293.1451,-147.8634 1303.7325,-147.4675 1301.1748,-140.9515"/>
</g>
<!-- Node132 -->
<g id="node8" class="node">
<title>Node132</title>
<g id="a_node8"><a xlink:href="classtrim_al_manager.html#abe8d2841455c644dc9c7d1294b82b00f" target="_top" xlink:title="Method to perform the analysis if all checks have passed. ">
<polygon fill="#ffffff" stroke="#000000" points="1528,-136.5 1528,-155.5 1647,-155.5 1647,-136.5 1528,-136.5"/>
<text text-anchor="middle" x="1587.5" y="-143.5" font-family="Helvetica,sans-Serif" font-size="10.00" fill="#000000">trimAlManager::perform</text>
</a>
</g>
</g>
<!-- Node131&#45;&gt;Node132 -->
<g id="edge7" class="edge">
<title>Node131&#45;&gt;Node132</title>
<path fill="none" stroke="#191970" d="M1500.8102,-146C1509.9363,-146 1519.1089,-146 1527.8939,-146"/>
<polygon fill="#191970" stroke="#191970" points="1500.5497,-142.5001 1490.5496,-146 1500.5496,-149.5001 1500.5497,-142.5001"/>
</g>
<!-- Node133 -->
<g id="node9" class="node">
<title>Node133</title>
<g id="a_node9"><a xlink:href="trim_al_main_8cpp.html#a0ddf1224851353fc92bfbff6f499fa97" target="_top" xlink:title="main">
<polygon fill="#ffffff" stroke="#000000" points="1683,-136.5 1683,-155.5 1721,-155.5 1721,-136.5 1683,-136.5"/>
<text text-anchor="middle" x="1702" y="-143.5" font-family="Helvetica,sans-Serif" font-size="10.00" fill="#000000">main</text>
</a>
</g>
</g>
<!-- Node132&#45;&gt;Node133 -->
<g id="edge8" class="edge">
<title>Node132&#45;&gt;Node133</title>
<path fill="none" stroke="#191970" d="M1657.3198,-146C1666.6177,-146 1675.4503,-146 1682.7697,-146"/>
<polygon fill="#191970" stroke="#191970" points="1657.0976,-142.5001 1647.0976,-146 1657.0975,-149.5001 1657.0976,-142.5001"/>
</g>
<!-- Node136 -->
<g id="node12" class="node">
<title>Node136</title>
<g id="a_node12"><a xlink:href="classtrim_al_manager.html#a69082911b30a1bd12395bb235bc18a34" target="_top" xlink:title="Method to trim the alignment using automatic or semi&#45;automatic methods: ">
<polygon fill="#ffffff" stroke="#000000" points="988,-218.5 988,-237.5 1161,-237.5 1161,-218.5 988,-218.5"/>
<text text-anchor="middle" x="1074.5" y="-225.5" font-family="Helvetica,sans-Serif" font-size="10.00" fill="#000000">trimAlManager::CleanResiduesAuto</text>
</a>
</g>
</g>
<!-- Node135&#45;&gt;Node136 -->
<g id="edge11" class="edge">
<title>Node135&#45;&gt;Node136</title>
<path fill="none" stroke="#191970" d="M960.2556,-237.3261C969.3447,-236.5841 978.6256,-235.8265 987.7737,-235.0797"/>
<polygon fill="#191970" stroke="#191970" points="959.7745,-233.8536 950.0925,-238.1557 960.3441,-240.8304 959.7745,-233.8536"/>
</g>
<!-- Node136&#45;&gt;Node130 -->
<g id="edge12" class="edge">
<title>Node136&#45;&gt;Node130</title>
<path fill="none" stroke="#191970" d="M1110.7654,-214.9765C1140.4423,-204.3191 1182.4472,-189.2344 1213.5663,-178.0591"/>
<polygon fill="#191970" stroke="#191970" points="1109.4357,-211.7351 1101.2072,-218.409 1111.8017,-218.3232 1109.4357,-211.7351"/>
</g>
<!-- Node137&#45;&gt;Node129 -->
<g id="edge14" class="edge">
<title>Node137&#45;&gt;Node129</title>
<path fill="none" stroke="#191970" d="M957.2769,-168C970.802,-168 984.8355,-168 998.2917,-168"/>
<polygon fill="#191970" stroke="#191970" points="957.0513,-164.5001 947.0513,-168 957.0513,-171.5001 957.0513,-164.5001"/>
</g>
<!-- Node139 -->
<g id="node15" class="node">
<title>Node139</title>
<g id="a_node15"><a xlink:href="classtrim_al_manager.html#afc48b86f5ae35b9a5e721b65c58bf610" target="_top" xlink:title="Method to print statistics requested. ">
<polygon fill="#ffffff" stroke="#000000" points="1022.5,-278 1022.5,-308 1126.5,-308 1126.5,-278 1022.5,-278"/>
<text text-anchor="start" x="1030.5" y="-296" font-family="Helvetica,sans-Serif" font-size="10.00" fill="#000000">trimAlManager::print</text>
<text text-anchor="middle" x="1074.5" y="-285" font-family="Helvetica,sans-Serif" font-size="10.00" fill="#000000">_statistics</text>
</a>
</g>
</g>
<!-- Node138&#45;&gt;Node139 -->
<g id="edge16" class="edge">
<title>Node138&#45;&gt;Node139</title>
<path fill="none" stroke="#191970" d="M955.3069,-329.4877C978.8763,-322.2726 1004.1635,-314.5316 1025.3551,-308.0443"/>
<polygon fill="#191970" stroke="#191970" points="954.2153,-326.1614 945.6779,-332.4353 956.2644,-332.8548 954.2153,-326.1614"/>
</g>
<!-- Node139&#45;&gt;Node131 -->
<g id="edge17" class="edge">
<title>Node139&#45;&gt;Node131</title>
<path fill="none" stroke="#191970" d="M1119.4753,-273.8643C1194.2956,-242.0305 1341.6393,-179.3402 1397.6638,-155.5034"/>
<polygon fill="#191970" stroke="#191970" points="1117.6824,-270.8235 1109.8509,-277.9592 1120.4229,-277.2647 1117.6824,-270.8235"/>
</g>
<!-- Node140&#45;&gt;Node139 -->
<g id="edge19" class="edge">
<title>Node140&#45;&gt;Node139</title>
<path fill="none" stroke="#191970" d="M958.7857,-293C980.2203,-293 1002.8243,-293 1022.3104,-293"/>
<polygon fill="#191970" stroke="#191970" points="958.7069,-289.5001 948.7069,-293 958.7069,-296.5001 958.7069,-289.5001"/>
</g>
<!-- Node141&#45;&gt;Node127 -->
<g id="edge21" class="edge">
<title>Node141&#45;&gt;Node127</title>
<path fill="none" stroke="#191970" d="M409.2745,-258.0417C466.959,-265.5509 553.0375,-276.7564 613.743,-284.6588"/>
<polygon fill="#191970" stroke="#191970" points="409.571,-254.5508 399.2029,-256.7305 408.6673,-261.4922 409.571,-254.5508"/>
</g>
<!-- Node142 -->
<g id="node18" class="node">
<title>Node142</title>
<g id="a_node18"><a xlink:href="classstatistics_1_1_similarity.html#a1b65c85328f09fa0637365d11fb386b4" target="_top" xlink:title="This methods returns a pointer to conservationWindow&#39;s vector. ">
<polygon fill="#ffffff" stroke="#000000" points="435,-131 435,-161 564,-161 564,-131 435,-131"/>
<text text-anchor="start" x="443" y="-149" font-family="Helvetica,sans-Serif" font-size="10.00" fill="#000000">statistics::Similarity</text>
<text text-anchor="middle" x="499.5" y="-138" font-family="Helvetica,sans-Serif" font-size="10.00" fill="#000000">::getMdkWindowedVector</text>
</a>
</g>
</g>
<!-- Node141&#45;&gt;Node142 -->
<g id="edge22" class="edge">
<title>Node141&#45;&gt;Node142</title>
<path fill="none" stroke="#191970" d="M378.2338,-228.9716C407.6306,-208.858 451.2429,-179.018 477.3712,-161.1407"/>
<polygon fill="#191970" stroke="#191970" points="375.8788,-226.342 369.6021,-234.8775 379.8316,-232.1192 375.8788,-226.342"/>
</g>
<!-- Node142&#45;&gt;Node128 -->
<g id="edge34" class="edge">
<title>Node142&#45;&gt;Node128</title>
<path fill="none" stroke="#191970" d="M534.4354,-165.9679C553.2385,-175.6753 577.1974,-186.4262 600,-192 682.7678,-212.2317 783.3647,-211.262 838.1549,-208.6802"/>
<polygon fill="#191970" stroke="#191970" points="535.8518,-162.7574 525.377,-161.1671 532.5738,-168.9425 535.8518,-162.7574"/>
</g>
<!-- Node142&#45;&gt;Node135 -->
<g id="edge35" class="edge">
<title>Node142&#45;&gt;Node135</title>
<path fill="none" stroke="#191970" d="M523.4557,-167.6057C542.6857,-183.5992 571.1511,-204.3808 600,-215 667.1749,-239.7269 749.2141,-245.6028 806.793,-246.1329"/>
<polygon fill="#191970" stroke="#191970" points="525.6874,-164.909 515.8055,-161.0881 521.1478,-170.2375 525.6874,-164.909"/>
</g>
<!-- Node142&#45;&gt;Node137 -->
<g id="edge33" class="edge">
<title>Node142&#45;&gt;Node137</title>
<path fill="none" stroke="#191970" d="M574.4877,-140.1506C629.1484,-137.1063 704.8967,-135.4148 771,-143 796.5087,-145.9271 824.7665,-152.6395 845.9065,-158.3726"/>
<polygon fill="#191970" stroke="#191970" points="573.9684,-136.6749 564.1902,-140.7539 574.3779,-143.6629 573.9684,-136.6749"/>
</g>
<!-- Node143 -->
<g id="node19" class="node">
<title>Node143</title>
<g id="a_node19"><a xlink:href="class_alignment.html#a3754dfadea173918f5e85b9eb4c3ad8a" target="_top" xlink:title="Method to report the trimming results in HTML. Outputs an HTML file that shows visually what has been...">
<polygon fill="#ffffff" stroke="#000000" points="986,-82.5 986,-101.5 1163,-101.5 1163,-82.5 986,-82.5"/>
<text text-anchor="middle" x="1074.5" y="-89.5" font-family="Helvetica,sans-Serif" font-size="10.00" fill="#000000">Alignment::alignmentSummaryHTML</text>
</a>
</g>
</g>
<!-- Node142&#45;&gt;Node143 -->
<g id="edge23" class="edge">
<title>Node142&#45;&gt;Node143</title>
<path fill="none" stroke="#191970" d="M574.2213,-136.8216C582.9085,-135.8306 591.6462,-134.8682 600,-134 734.2853,-120.0432 890.2623,-106.8072 985.6578,-99.0484"/>
<polygon fill="#191970" stroke="#191970" points="573.6049,-133.3695 564.0727,-137.9943 574.4084,-140.3232 573.6049,-133.3695"/>
</g>
<!-- Node145 -->
<g id="node21" class="node">
<title>Node145</title>
<g id="a_node21"><a xlink:href="class_alignment.html#a724218d5e7d168974d9abcafcde632a1" target="_top" xlink:title="Alignment::statSVG">
<polygon fill="#ffffff" stroke="#000000" points="633.5,-38.5 633.5,-57.5 737.5,-57.5 737.5,-38.5 633.5,-38.5"/>
<text text-anchor="middle" x="685.5" y="-45.5" font-family="Helvetica,sans-Serif" font-size="10.00" fill="#000000">Alignment::statSVG</text>
</a>
</g>
</g>
<!-- Node142&#45;&gt;Node145 -->
<g id="edge27" class="edge">
<title>Node142&#45;&gt;Node145</title>
<path fill="none" stroke="#191970" d="M523.7742,-124.1867C543.1765,-107.769 571.7185,-85.8074 600,-72 612.469,-65.9125 626.7383,-61.1389 640.0008,-57.5078"/>
<polygon fill="#191970" stroke="#191970" points="521.3385,-121.6653 516.0459,-130.8435 525.9069,-126.9691 521.3385,-121.6653"/>
</g>
<!-- Node147 -->
<g id="node23" class="node">
<title>Node147</title>
<g id="a_node23"><a xlink:href="class_alignment.html#ac4196c026e0f482eaccf9976f82f72e3" target="_top" xlink:title="Method to report the trimming results in SVG. Outputs a SVG file that shows visually what has been do...">
<polygon fill="#ffffff" stroke="#000000" points="600,-.5 600,-19.5 771,-19.5 771,-.5 600,-.5"/>
<text text-anchor="middle" x="685.5" y="-7.5" font-family="Helvetica,sans-Serif" font-size="10.00" fill="#000000">Alignment::alignmentSummarySVG</text>
</a>
</g>
</g>
<!-- Node142&#45;&gt;Node147 -->
<g id="edge31" class="edge">
<title>Node142&#45;&gt;Node147</title>
<path fill="none" stroke="#191970" d="M513.5021,-121.8782C530.4582,-94.915 561.5786,-52.0253 600,-29 606.5215,-25.0918 613.7571,-21.9854 621.1791,-19.5167"/>
<polygon fill="#191970" stroke="#191970" points="510.3423,-120.3363 508.1065,-130.6926 516.3126,-123.991 510.3423,-120.3363"/>
</g>
<!-- Node148 -->
<g id="node24" class="node">
<title>Node148</title>
<g id="a_node24"><a xlink:href="classstatistics_1_1_similarity.html#a26f430acb8a3240977665de9a9ea875a" target="_top" xlink:title="Computes and selects the cut point values based on similarity&#39;s values. ">
<polygon fill="#ffffff" stroke="#000000" points="634,-153 634,-183 737,-183 737,-153 634,-153"/>
<text text-anchor="start" x="642" y="-171" font-family="Helvetica,sans-Serif" font-size="10.00" fill="#000000">statistics::Similarity</text>
<text text-anchor="middle" x="685.5" y="-160" font-family="Helvetica,sans-Serif" font-size="10.00" fill="#000000">::calcCutPoint</text>
</a>
</g>
</g>
<!-- Node142&#45;&gt;Node148 -->
<g id="edge36" class="edge">
<title>Node142&#45;&gt;Node148</title>
<path fill="none" stroke="#191970" d="M574.0899,-154.8225C594.1734,-157.1979 615.4501,-159.7145 633.9684,-161.9049"/>
<polygon fill="#191970" stroke="#191970" points="574.3737,-151.3317 564.0318,-153.6328 573.5514,-158.2833 574.3737,-151.3317"/>
</g>
<!-- Node144 -->
<g id="node20" class="node">
<title>Node144</title>
<g id="a_node20"><a xlink:href="classtrim_al_manager.html#a1da8f8b677f19ed8f7e08a663d97bb92" target="_top" xlink:title="trimAlManager::output\l_reports">
<polygon fill="#ffffff" stroke="#000000" points="1199,-88 1199,-118 1312,-118 1312,-88 1199,-88"/>
<text text-anchor="start" x="1207" y="-106" font-family="Helvetica,sans-Serif" font-size="10.00" fill="#000000">trimAlManager::output</text>
<text text-anchor="middle" x="1255.5" y="-95" font-family="Helvetica,sans-Serif" font-size="10.00" fill="#000000">_reports</text>
</a>
</g>
</g>
<!-- Node143&#45;&gt;Node144 -->
<g id="edge24" class="edge">
<title>Node143&#45;&gt;Node144</title>
<path fill="none" stroke="#191970" d="M1173.1289,-97.994C1181.9494,-98.5301 1190.6661,-99.0598 1198.9401,-99.5627"/>
<polygon fill="#191970" stroke="#191970" points="1173.3381,-94.5004 1163.1442,-97.3872 1172.9134,-101.4875 1173.3381,-94.5004"/>
</g>
<!-- Node144&#45;&gt;Node131 -->
<g id="edge25" class="edge">
<title>Node144&#45;&gt;Node131</title>
<path fill="none" stroke="#191970" d="M1321.9465,-120.369C1342.9204,-125.8515 1365.3189,-131.7065 1383.4059,-136.4344"/>
<polygon fill="#191970" stroke="#191970" points="1322.6717,-116.941 1312.1116,-117.7982 1320.9013,-123.7135 1322.6717,-116.941"/>
</g>
<!-- Node144&#45;&gt;Node134 -->
<g id="edge26" class="edge">
<title>Node144&#45;&gt;Node134</title>
<path fill="none" stroke="#191970" d="M1322.2672,-103C1330.7053,-103 1339.3689,-103 1347.8853,-103"/>
<polygon fill="#191970" stroke="#191970" points="1322.1116,-99.5001 1312.1116,-103 1322.1115,-106.5001 1322.1116,-99.5001"/>
</g>
<!-- Node146 -->
<g id="node22" class="node">
<title>Node146</title>
<g id="a_node22"><a xlink:href="classtrim_al_manager.html#a63d5bec0938516a2129ccb04276b93d9" target="_top" xlink:title="trimAlManager::svg\l_stats_out">
<polygon fill="#ffffff" stroke="#000000" points="1205,-39 1205,-69 1306,-69 1306,-39 1205,-39"/>
<text text-anchor="start" x="1213" y="-57" font-family="Helvetica,sans-Serif" font-size="10.00" fill="#000000">trimAlManager::svg</text>
<text text-anchor="middle" x="1255.5" y="-46" font-family="Helvetica,sans-Serif" font-size="10.00" fill="#000000">_stats_out</text>
</a>
</g>
</g>
<!-- Node145&#45;&gt;Node146 -->
<g id="edge28" class="edge">
<title>Node145&#45;&gt;Node146</title>
<path fill="none" stroke="#191970" d="M747.8733,-48.6566C861.6168,-49.8539 1100.6126,-52.3696 1204.9598,-53.468"/>
<polygon fill="#191970" stroke="#191970" points="747.6311,-45.1539 737.5948,-48.5484 747.5573,-52.1535 747.6311,-45.1539"/>
</g>
<!-- Node146&#45;&gt;Node131 -->
<g id="edge29" class="edge">
<title>Node146&#45;&gt;Node131</title>
<path fill="none" stroke="#191970" d="M1306.3606,-74.126C1308.31,-75.3583 1310.1987,-76.6494 1312,-78 1332.2155,-93.1576 1327.195,-107.6622 1348,-122 1357.0049,-128.2058 1367.7392,-132.9103 1378.1349,-136.4348"/>
<polygon fill="#191970" stroke="#191970" points="1307.931,-70.9929 1297.5069,-69.0983 1304.4743,-77.0799 1307.931,-70.9929"/>
</g>
<!-- Node146&#45;&gt;Node134 -->
<g id="edge30" class="edge">
<title>Node146&#45;&gt;Node134</title>
<path fill="none" stroke="#191970" d="M1316.0729,-72.043C1340.3992,-79.2891 1367.4497,-87.3467 1387.854,-93.4246"/>
<polygon fill="#191970" stroke="#191970" points="1316.7807,-68.6019 1306.1977,-69.1014 1314.7824,-75.3106 1316.7807,-68.6019"/>
</g>
<!-- Node147&#45;&gt;Node144 -->
<g id="edge32" class="edge">
<title>Node147&#45;&gt;Node144</title>
<path fill="none" stroke="#191970" d="M781.378,-17.4702C878.4436,-26.24 1032.4376,-43.4745 1163,-73 1180.1254,-76.8727 1198.6025,-82.5501 1214.5067,-87.9266"/>
<polygon fill="#191970" stroke="#191970" points="781.5615,-13.9728 771.2902,-16.5708 780.9398,-20.9451 781.5615,-13.9728"/>
</g>
<!-- Node148&#45;&gt;Node128 -->
<g id="edge37" class="edge">
<title>Node148&#45;&gt;Node128</title>
<path fill="none" stroke="#191970" d="M747.119,-180.1322C776.9464,-186.005 811.9111,-192.8892 838.2685,-198.0788"/>
<polygon fill="#191970" stroke="#191970" points="747.7083,-176.6811 737.2205,-178.1833 746.3559,-183.5493 747.7083,-176.6811"/>
</g>
<!-- Node148&#45;&gt;Node137 -->
<g id="edge38" class="edge">
<title>Node148&#45;&gt;Node137</title>
<path fill="none" stroke="#191970" d="M747.4151,-168C767.3469,-168 789.5474,-168 809.929,-168"/>
<polygon fill="#191970" stroke="#191970" points="747.2205,-164.5001 737.2205,-168 747.2204,-171.5001 747.2205,-164.5001"/>
</g>
</g>
</svg>
