<?xml version="1.0" encoding="UTF-8" standalone="no"?>
<!DOCTYPE svg PUBLIC "-//W3C//DTD SVG 1.1//EN"
 "http://www.w3.org/Graphics/SVG/1.1/DTD/svg11.dtd">
<!-- Generated by graphviz version 2.40.1 (20161225.0304)
 -->
<!-- Title: statistics::Manager::Manager Pages: 1 -->
<svg width="1041pt" height="88pt"
 viewBox="0.00 0.00 1041.00 88.00" xmlns="http://www.w3.org/2000/svg" xmlns:xlink="http://www.w3.org/1999/xlink">
<g id="graph0" class="graph" transform="scale(1 1) rotate(0) translate(4 84)">
<title>statistics::Manager::Manager</title>
<polygon fill="#ffffff" stroke="transparent" points="-4,4 -4,-84 1037,-84 1037,4 -4,4"/>
<!-- Node1 -->
<g id="node1" class="node">
<title>Node1</title>
<polygon fill="#bfbfbf" stroke="#000000" points="0,-24.5 0,-54.5 100,-54.5 100,-24.5 0,-24.5"/>
<text text-anchor="start" x="8" y="-42.5" font-family="Helvetica,sans-Serif" font-size="10.00" fill="#000000">statistics::Manager</text>
<text text-anchor="middle" x="50" y="-31.5" font-family="Helvetica,sans-Serif" font-size="10.00" fill="#000000">::Manager</text>
</g>
<!-- Node2 -->
<g id="node2" class="node">
<title>Node2</title>
<g id="a_node2"><a xlink:href="class_alignment.html#a091e21f0cfb741cb5cdc3535c6cc287f" target="_top" xlink:title="Constructor. ">
<polygon fill="#ffffff" stroke="#000000" points="136,-30 136,-49 246,-49 246,-30 136,-30"/>
<text text-anchor="middle" x="191" y="-37" font-family="Helvetica,sans-Serif" font-size="10.00" fill="#000000">Alignment::Alignment</text>
</a>
</g>
</g>
<!-- Node1&#45;&gt;Node2 -->
<g id="edge1" class="edge">
<title>Node1&#45;&gt;Node2</title>
<path fill="none" stroke="#191970" d="M110.2969,-39.5C118.7588,-39.5 127.421,-39.5 135.782,-39.5"/>
<polygon fill="#191970" stroke="#191970" points="110.1084,-36.0001 100.1083,-39.5 110.1083,-43.0001 110.1084,-36.0001"/>
</g>
<!-- Node3 -->
<g id="node3" class="node">
<title>Node3</title>
<g id="a_node3"><a xlink:href="class_alignment.html#a57cb9cad92f31ec56982a4191d2cbce4" target="_top" xlink:title="Method to back translate a protein alignment using the sequences present on the current alignment...">
<polygon fill="#ffffff" stroke="#000000" points="282,-52 282,-71 431,-71 431,-52 282,-52"/>
<text text-anchor="middle" x="356.5" y="-59" font-family="Helvetica,sans-Serif" font-size="10.00" fill="#000000">Alignment::getTranslationCDS</text>
</a>
</g>
</g>
<!-- Node2&#45;&gt;Node3 -->
<g id="edge2" class="edge">
<title>Node2&#45;&gt;Node3</title>
<path fill="none" stroke="#191970" d="M256.1739,-48.1636C265.587,-49.4149 275.3182,-50.7085 284.8493,-51.9754"/>
<polygon fill="#191970" stroke="#191970" points="256.4831,-44.674 246.1091,-46.8257 255.5607,-51.613 256.4831,-44.674"/>
</g>
<!-- Node8 -->
<g id="node8" class="node">
<title>Node8</title>
<g id="a_node8"><a xlink:href="class_format_handling_1_1_format_manager.html#a6ca3a3864ce03fa917629d815df1f246" target="_top" xlink:title="Function to divide an alignment into different alignments, each one with a sequence from the original...">
<polygon fill="#ffffff" stroke="#000000" points="467,-.5 467,-30.5 627,-30.5 627,-.5 467,-.5"/>
<text text-anchor="start" x="475" y="-18.5" font-family="Helvetica,sans-Serif" font-size="10.00" fill="#000000">FormatHandling::FormatManager</text>
<text text-anchor="middle" x="547" y="-7.5" font-family="Helvetica,sans-Serif" font-size="10.00" fill="#000000">::splitAlignmentKeeping</text>
</a>
</g>
</g>
<!-- Node2&#45;&gt;Node8 -->
<g id="edge7" class="edge">
<title>Node2&#45;&gt;Node8</title>
<path fill="none" stroke="#191970" d="M256.2324,-35.1023C315.5413,-31.104 403.247,-25.1912 466.8141,-20.9058"/>
<polygon fill="#191970" stroke="#191970" points="255.9763,-31.6115 246.2344,-35.7763 256.4472,-38.5957 255.9763,-31.6115"/>
</g>
<!-- Node4 -->
<g id="node4" class="node">
<title>Node4</title>
<g id="a_node4"><a xlink:href="classtrim_al_manager.html#a8ed19b851162fa24a1da66f7e54099e3" target="_top" xlink:title="trimAlManager::postprocess\l_alignment">
<polygon fill="#ffffff" stroke="#000000" points="477.5,-49.5 477.5,-79.5 616.5,-79.5 616.5,-49.5 477.5,-49.5"/>
<text text-anchor="start" x="485.5" y="-67.5" font-family="Helvetica,sans-Serif" font-size="10.00" fill="#000000">trimAlManager::postprocess</text>
<text text-anchor="middle" x="547" y="-56.5" font-family="Helvetica,sans-Serif" font-size="10.00" fill="#000000">_alignment</text>
</a>
</g>
</g>
<!-- Node3&#45;&gt;Node4 -->
<g id="edge3" class="edge">
<title>Node3&#45;&gt;Node4</title>
<path fill="none" stroke="#191970" d="M441.3191,-62.8357C453.3974,-63.0259 465.7022,-63.2197 477.4439,-63.4046"/>
<polygon fill="#191970" stroke="#191970" points="441.2978,-59.3351 431.2439,-62.6771 441.1875,-66.3342 441.2978,-59.3351"/>
</g>
<!-- Node5 -->
<g id="node5" class="node">
<title>Node5</title>
<g id="a_node5"><a xlink:href="classtrim_al_manager.html#a7c641a1feff33d401b4ea5c82e989289" target="_top" xlink:title="trimAlManager::innerPerform">
<polygon fill="#ffffff" stroke="#000000" points="663,-52 663,-71 804,-71 804,-52 663,-52"/>
<text text-anchor="middle" x="733.5" y="-59" font-family="Helvetica,sans-Serif" font-size="10.00" fill="#000000">trimAlManager::innerPerform</text>
</a>
</g>
</g>
<!-- Node4&#45;&gt;Node5 -->
<g id="edge4" class="edge">
<title>Node4&#45;&gt;Node5</title>
<path fill="none" stroke="#191970" d="M626.7324,-63.2174C638.7702,-63.0238 651.115,-62.8252 662.9415,-62.635"/>
<polygon fill="#191970" stroke="#191970" points="626.6533,-59.7182 616.7109,-63.3786 626.766,-66.7173 626.6533,-59.7182"/>
</g>
<!-- Node6 -->
<g id="node6" class="node">
<title>Node6</title>
<g id="a_node6"><a xlink:href="classtrim_al_manager.html#abe8d2841455c644dc9c7d1294b82b00f" target="_top" xlink:title="Method to perform the analysis if all checks have passed. ">
<polygon fill="#ffffff" stroke="#000000" points="840,-30 840,-49 959,-49 959,-30 840,-30"/>
<text text-anchor="middle" x="899.5" y="-37" font-family="Helvetica,sans-Serif" font-size="10.00" fill="#000000">trimAlManager::perform</text>
</a>
</g>
</g>
<!-- Node5&#45;&gt;Node6 -->
<g id="edge5" class="edge">
<title>Node5&#45;&gt;Node6</title>
<path fill="none" stroke="#191970" d="M814.4012,-50.7782C822.9677,-49.6428 831.564,-48.5036 839.8249,-47.4088"/>
<polygon fill="#191970" stroke="#191970" points="813.8339,-47.3226 804.3804,-52.1062 814.7536,-54.262 813.8339,-47.3226"/>
</g>
<!-- Node7 -->
<g id="node7" class="node">
<title>Node7</title>
<g id="a_node7"><a xlink:href="trim_al_main_8cpp.html#a0ddf1224851353fc92bfbff6f499fa97" target="_top" xlink:title="main">
<polygon fill="#ffffff" stroke="#000000" points="995,-30 995,-49 1033,-49 1033,-30 995,-30"/>
<text text-anchor="middle" x="1014" y="-37" font-family="Helvetica,sans-Serif" font-size="10.00" fill="#000000">main</text>
</a>
</g>
</g>
<!-- Node6&#45;&gt;Node7 -->
<g id="edge6" class="edge">
<title>Node6&#45;&gt;Node7</title>
<path fill="none" stroke="#191970" d="M969.3198,-39.5C978.6177,-39.5 987.4503,-39.5 994.7697,-39.5"/>
<polygon fill="#191970" stroke="#191970" points="969.0976,-36.0001 959.0976,-39.5 969.0975,-43.0001 969.0976,-36.0001"/>
</g>
<!-- Node8&#45;&gt;Node6 -->
<g id="edge8" class="edge">
<title>Node8&#45;&gt;Node6</title>
<path fill="none" stroke="#191970" d="M637.4564,-21.6587C701.0357,-25.9875 784.3152,-31.6576 839.7484,-35.4318"/>
<polygon fill="#191970" stroke="#191970" points="637.6435,-18.1635 627.4288,-20.976 637.1679,-25.1473 637.6435,-18.1635"/>
</g>
</g>
</svg>
