<?xml version="1.0" encoding="UTF-8" standalone="no"?>
<!DOCTYPE svg PUBLIC "-//W3C//DTD SVG 1.1//EN"
 "http://www.w3.org/Graphics/SVG/1.1/DTD/svg11.dtd">
<!-- Generated by graphviz version 2.40.1 (20161225.0304)
 -->
<!-- Title: statistics::Gaps::isDefinedWindow Pages: 1 -->
<svg width="2024pt" height="654pt"
 viewBox="0.00 0.00 2024.00 654.00" xmlns="http://www.w3.org/2000/svg" xmlns:xlink="http://www.w3.org/1999/xlink">
<g id="graph0" class="graph" transform="scale(1 1) rotate(0) translate(4 650)">
<title>statistics::Gaps::isDefinedWindow</title>
<polygon fill="#ffffff" stroke="transparent" points="-4,4 -4,-650 2020,-650 2020,4 -4,4"/>
<!-- Node204 -->
<g id="node1" class="node">
<title>Node204</title>
<polygon fill="#bfbfbf" stroke="#000000" points="0,-166 0,-196 133,-196 133,-166 0,-166"/>
<text text-anchor="start" x="8" y="-184" font-family="Helvetica,sans-Serif" font-size="10.00" fill="#000000">statistics::Gaps::isDefined</text>
<text text-anchor="middle" x="66.5" y="-173" font-family="Helvetica,sans-Serif" font-size="10.00" fill="#000000">Window</text>
</g>
<!-- Node205 -->
<g id="node2" class="node">
<title>Node205</title>
<g id="a_node2"><a xlink:href="classstatistics_1_1_gaps.html#ab5b60db326475f8adc68b130e22b3963" target="_top" xlink:title="statistics::Gaps::getGaps\lWindow">
<polygon fill="#ffffff" stroke="#000000" points="169,-166 169,-196 297,-196 297,-166 169,-166"/>
<text text-anchor="start" x="177" y="-184" font-family="Helvetica,sans-Serif" font-size="10.00" fill="#000000">statistics::Gaps::getGaps</text>
<text text-anchor="middle" x="233" y="-173" font-family="Helvetica,sans-Serif" font-size="10.00" fill="#000000">Window</text>
</a>
</g>
</g>
<!-- Node204&#45;&gt;Node205 -->
<g id="edge1" class="edge">
<title>Node204&#45;&gt;Node205</title>
<path fill="none" stroke="#191970" d="M143.2727,-181C151.8547,-181 160.5292,-181 168.9282,-181"/>
<polygon fill="#191970" stroke="#191970" points="143.2626,-177.5001 133.2626,-181 143.2625,-184.5001 143.2626,-177.5001"/>
</g>
<!-- Node206 -->
<g id="node3" class="node">
<title>Node206</title>
<g id="a_node3"><a xlink:href="class_alignment.html#a3754dfadea173918f5e85b9eb4c3ad8a" target="_top" xlink:title="Method to report the trimming results in HTML. Outputs an HTML file that shows visually what has been...">
<polygon fill="#ffffff" stroke="#000000" points="850,-588.5 850,-607.5 1027,-607.5 1027,-588.5 850,-588.5"/>
<text text-anchor="middle" x="938.5" y="-595.5" font-family="Helvetica,sans-Serif" font-size="10.00" fill="#000000">Alignment::alignmentSummaryHTML</text>
</a>
</g>
</g>
<!-- Node205&#45;&gt;Node206 -->
<g id="edge2" class="edge">
<title>Node205&#45;&gt;Node206</title>
<path fill="none" stroke="#191970" d="M241.954,-205.8409C256.4153,-243.2672 287.9196,-314.754 333,-362 477.1862,-513.113 729.4764,-569.0863 858.1206,-588.4967"/>
<polygon fill="#191970" stroke="#191970" points="245.135,-204.3569 238.33,-196.2364 238.5857,-206.8281 245.135,-204.3569"/>
</g>
<!-- Node212 -->
<g id="node9" class="node">
<title>Node212</title>
<g id="a_node9"><a xlink:href="class_alignment.html#ac4196c026e0f482eaccf9976f82f72e3" target="_top" xlink:title="Method to report the trimming results in SVG. Outputs a SVG file that shows visually what has been do...">
<polygon fill="#ffffff" stroke="#000000" points="853,-550.5 853,-569.5 1024,-569.5 1024,-550.5 853,-550.5"/>
<text text-anchor="middle" x="938.5" y="-557.5" font-family="Helvetica,sans-Serif" font-size="10.00" fill="#000000">Alignment::alignmentSummarySVG</text>
</a>
</g>
</g>
<!-- Node205&#45;&gt;Node212 -->
<g id="edge8" class="edge">
<title>Node205&#45;&gt;Node212</title>
<path fill="none" stroke="#191970" d="M251.2434,-204.2181C270.1956,-227.4877 301.445,-263.557 333,-290 469.459,-404.3526 505.9718,-438.1923 671,-505 729.4506,-528.6623 799.369,-542.5832 853.0629,-550.4979"/>
<polygon fill="#191970" stroke="#191970" points="253.8376,-201.8592 244.8395,-196.2658 248.3855,-206.2496 253.8376,-201.8592"/>
</g>
<!-- Node213 -->
<g id="node10" class="node">
<title>Node213</title>
<g id="a_node10"><a xlink:href="classstatistics_1_1_similarity.html#ae69ec0e79912ae23c8cfe97358c4794d" target="_top" xlink:title="Method to calculate the similarity values of a alignment matrix. ">
<polygon fill="#ffffff" stroke="#000000" points="354.5,-250 354.5,-280 457.5,-280 457.5,-250 354.5,-250"/>
<text text-anchor="start" x="362.5" y="-268" font-family="Helvetica,sans-Serif" font-size="10.00" fill="#000000">statistics::Similarity</text>
<text text-anchor="middle" x="406" y="-257" font-family="Helvetica,sans-Serif" font-size="10.00" fill="#000000">::calculateVectors</text>
</a>
</g>
</g>
<!-- Node205&#45;&gt;Node213 -->
<g id="edge10" class="edge">
<title>Node205&#45;&gt;Node213</title>
<path fill="none" stroke="#191970" d="M273.1766,-200.5077C304.2335,-215.5873 346.5909,-236.154 375.0477,-249.9711"/>
<polygon fill="#191970" stroke="#191970" points="274.4534,-197.2369 263.9289,-196.0175 271.3958,-203.5339 274.4534,-197.2369"/>
</g>
<!-- Node218 -->
<g id="node15" class="node">
<title>Node218</title>
<g id="a_node15"><a xlink:href="class_cleaner.html#a4718e31c0183b5a98751d77479faacf0" target="_top" xlink:title="Method to trim an alignment based on the similarity and gaps distribution values. ...">
<polygon fill="#ffffff" stroke="#000000" points="1109.5,-267.5 1109.5,-286.5 1189.5,-286.5 1189.5,-267.5 1109.5,-267.5"/>
<text text-anchor="middle" x="1149.5" y="-274.5" font-family="Helvetica,sans-Serif" font-size="10.00" fill="#000000">Cleaner::clean</text>
</a>
</g>
</g>
<!-- Node205&#45;&gt;Node218 -->
<g id="edge42" class="edge">
<title>Node205&#45;&gt;Node218</title>
<path fill="none" stroke="#191970" d="M307.593,-181C505.1688,-181 1027,-181 1027,-181 1030.2725,-182.1295 1106.8571,-243.0101 1137.2414,-267.2224"/>
<polygon fill="#191970" stroke="#191970" points="307.3038,-177.5001 297.3038,-181 307.3038,-184.5001 307.3038,-177.5001"/>
</g>
<!-- Node219 -->
<g id="node16" class="node">
<title>Node219</title>
<g id="a_node16"><a xlink:href="class_cleaner.html#a6727a235afa29f08a50716f28fa5c8fc" target="_top" xlink:title="Method to clean an alignment. It carries out strict and strictplus. The method: ">
<polygon fill="#ffffff" stroke="#000000" points="867,-190.5 867,-209.5 1010,-209.5 1010,-190.5 867,-190.5"/>
<text text-anchor="middle" x="938.5" y="-197.5" font-family="Helvetica,sans-Serif" font-size="10.00" fill="#000000">Cleaner::cleanCombMethods</text>
</a>
</g>
</g>
<!-- Node205&#45;&gt;Node219 -->
<g id="edge45" class="edge">
<title>Node205&#45;&gt;Node219</title>
<path fill="none" stroke="#191970" d="M278.8797,-162.4591C295.6223,-156.6069 314.8933,-150.9104 333,-148 546.2908,-113.7163 805.7305,-167.5369 901.0593,-190.4602"/>
<polygon fill="#191970" stroke="#191970" points="277.559,-159.2148 269.342,-165.903 279.9363,-165.7987 277.559,-159.2148"/>
</g>
<!-- Node226 -->
<g id="node23" class="node">
<title>Node226</title>
<g id="a_node23"><a xlink:href="class_alignment.html#a724218d5e7d168974d9abcafcde632a1" target="_top" xlink:title="Alignment::statSVG">
<polygon fill="#ffffff" stroke="#000000" points="886.5,-626.5 886.5,-645.5 990.5,-645.5 990.5,-626.5 886.5,-626.5"/>
<text text-anchor="middle" x="938.5" y="-633.5" font-family="Helvetica,sans-Serif" font-size="10.00" fill="#000000">Alignment::statSVG</text>
</a>
</g>
</g>
<!-- Node205&#45;&gt;Node226 -->
<g id="edge57" class="edge">
<title>Node205&#45;&gt;Node226</title>
<path fill="none" stroke="#191970" d="M237.3053,-206.1521C246.7277,-254.4719 273.2897,-361.3819 333,-428 481.7451,-593.9532 768.913,-627.545 886.436,-634.3102"/>
<polygon fill="#191970" stroke="#191970" points="240.7301,-205.4249 235.4547,-196.2369 233.849,-206.7094 240.7301,-205.4249"/>
</g>
<!-- Node229 -->
<g id="node26" class="node">
<title>Node229</title>
<g id="a_node26"><a xlink:href="class_cleaner.html#aa57106470d2104a925b9396b8a9f33b3" target="_top" xlink:title="Method that carries the gappyout approach. This methods calculates the slope in gaps distribution on ...">
<polygon fill="#ffffff" stroke="#000000" points="515,-76.5 515,-95.5 635,-95.5 635,-76.5 515,-76.5"/>
<text text-anchor="middle" x="575" y="-83.5" font-family="Helvetica,sans-Serif" font-size="10.00" fill="#000000">Cleaner::clean2ndSlope</text>
</a>
</g>
</g>
<!-- Node205&#45;&gt;Node229 -->
<g id="edge43" class="edge">
<title>Node205&#45;&gt;Node229</title>
<path fill="none" stroke="#191970" d="M256.3476,-159.0168C275.4058,-142.4942 303.8611,-120.9057 333,-110 392.1143,-87.8755 464.7161,-83.4068 514.8922,-83.5178"/>
<polygon fill="#191970" stroke="#191970" points="253.9303,-156.4827 248.7806,-165.7418 258.5804,-161.715 253.9303,-156.4827"/>
</g>
<!-- Node230 -->
<g id="node27" class="node">
<title>Node230</title>
<g id="a_node27"><a xlink:href="class_cleaner.html#af7c9e1a177424168fa4214aca9ebd8e2" target="_top" xlink:title="Method to trim an alignment based on the gap distribution values. Column blocks that don&#39;t have a min...">
<polygon fill="#ffffff" stroke="#000000" points="887,-114.5 887,-133.5 990,-133.5 990,-114.5 887,-114.5"/>
<text text-anchor="middle" x="938.5" y="-121.5" font-family="Helvetica,sans-Serif" font-size="10.00" fill="#000000">Cleaner::cleanGaps</text>
</a>
</g>
</g>
<!-- Node205&#45;&gt;Node230 -->
<g id="edge46" class="edge">
<title>Node205&#45;&gt;Node230</title>
<path fill="none" stroke="#191970" d="M307.1993,-175.0052C450.6778,-163.413 762.8919,-138.188 886.555,-128.1968"/>
<polygon fill="#191970" stroke="#191970" points="306.851,-171.5218 297.1654,-175.8158 307.4148,-178.4991 306.851,-171.5218"/>
</g>
<!-- Node231 -->
<g id="node28" class="node">
<title>Node231</title>
<g id="a_node28"><a xlink:href="class_cleaner.html#a3af7bde2142886d6d723c95694b7b9ba" target="_top" xlink:title="Method to remove columns composed only by gaps This method is specially useful when we remove missali...">
<polygon fill="#ffffff" stroke="#000000" points="875,-38.5 875,-57.5 1002,-57.5 1002,-38.5 875,-38.5"/>
<text text-anchor="middle" x="938.5" y="-45.5" font-family="Helvetica,sans-Serif" font-size="10.00" fill="#000000">Cleaner::cleanNoAllGaps</text>
</a>
</g>
</g>
<!-- Node205&#45;&gt;Node231 -->
<g id="edge49" class="edge">
<title>Node205&#45;&gt;Node231</title>
<path fill="none" stroke="#191970" d="M248.6131,-157.6107C266.0477,-133.6843 296.6445,-97.7211 333,-81 427.9287,-37.339 739.6889,-41.546 874.9483,-45.6386"/>
<polygon fill="#191970" stroke="#191970" points="245.7206,-155.6391 242.799,-165.8231 251.4338,-159.6838 245.7206,-155.6391"/>
</g>
<!-- Node233 -->
<g id="node30" class="node">
<title>Node233</title>
<g id="a_node30"><a xlink:href="class_cleaner.html#ab7f5b746b97697181f4cd06063cbb49a" target="_top" xlink:title="Method to detect right and left borders. Borders are the first column found with no gaps...">
<polygon fill="#ffffff" stroke="#000000" points="333,-.5 333,-19.5 479,-19.5 479,-.5 333,-.5"/>
<text text-anchor="middle" x="406" y="-7.5" font-family="Helvetica,sans-Serif" font-size="10.00" fill="#000000">Cleaner::removeOnlyTerminal</text>
</a>
</g>
</g>
<!-- Node205&#45;&gt;Node233 -->
<g id="edge53" class="edge">
<title>Node205&#45;&gt;Node233</title>
<path fill="none" stroke="#191970" d="M243.5289,-156.3767C258.6797,-123.7854 289.653,-66.6482 333,-34 341.3121,-27.7395 351.3359,-23.066 361.2567,-19.5935"/>
<polygon fill="#191970" stroke="#191970" points="240.2675,-155.0948 239.3388,-165.6489 246.6464,-157.9775 240.2675,-155.0948"/>
</g>
<!-- Node207 -->
<g id="node4" class="node">
<title>Node207</title>
<g id="a_node4"><a xlink:href="classtrim_al_manager.html#a1da8f8b677f19ed8f7e08a663d97bb92" target="_top" xlink:title="trimAlManager::output\l_reports">
<polygon fill="#ffffff" stroke="#000000" points="1295.5,-449 1295.5,-479 1408.5,-479 1408.5,-449 1295.5,-449"/>
<text text-anchor="start" x="1303.5" y="-467" font-family="Helvetica,sans-Serif" font-size="10.00" fill="#000000">trimAlManager::output</text>
<text text-anchor="middle" x="1352" y="-456" font-family="Helvetica,sans-Serif" font-size="10.00" fill="#000000">_reports</text>
</a>
</g>
</g>
<!-- Node206&#45;&gt;Node207 -->
<g id="edge3" class="edge">
<title>Node206&#45;&gt;Node207</title>
<path fill="none" stroke="#191970" d="M995.0307,-586.2678C1005.6712,-583.9451 1016.691,-581.4617 1027,-579 1120.4248,-556.691 1146.3564,-558.4949 1236,-524 1268.5876,-511.4603 1303.946,-492.2948 1326.9489,-479.013"/>
<polygon fill="#191970" stroke="#191970" points="994.0157,-582.9063 984.9807,-588.4397 995.4944,-589.7484 994.0157,-582.9063"/>
</g>
<!-- Node208 -->
<g id="node5" class="node">
<title>Node208</title>
<g id="a_node5"><a xlink:href="classtrim_al_manager.html#a7c641a1feff33d401b4ea5c82e989289" target="_top" xlink:title="trimAlManager::innerPerform">
<polygon fill="#ffffff" stroke="#000000" points="1644.5,-311.5 1644.5,-330.5 1785.5,-330.5 1785.5,-311.5 1644.5,-311.5"/>
<text text-anchor="middle" x="1715" y="-318.5" font-family="Helvetica,sans-Serif" font-size="10.00" fill="#000000">trimAlManager::innerPerform</text>
</a>
</g>
</g>
<!-- Node207&#45;&gt;Node208 -->
<g id="edge4" class="edge">
<title>Node207&#45;&gt;Node208</title>
<path fill="none" stroke="#191970" d="M1378.199,-442.6192C1400.7719,-425.1526 1434.8626,-400.9834 1468,-386 1529.8176,-358.0487 1605.9705,-340.2904 1657.2428,-330.5253"/>
<polygon fill="#191970" stroke="#191970" points="1375.8391,-440.0222 1370.1376,-448.9521 1380.1634,-445.5268 1375.8391,-440.0222"/>
</g>
<!-- Node211 -->
<g id="node8" class="node">
<title>Node211</title>
<g id="a_node8"><a xlink:href="classtrim_al_manager.html#ac5795f93b3a2b51bf5d8dddd63b89f73" target="_top" xlink:title="trimAlManager::perform_VCF">
<polygon fill="#ffffff" stroke="#000000" points="1643,-368.5 1643,-387.5 1787,-387.5 1787,-368.5 1643,-368.5"/>
<text text-anchor="middle" x="1715" y="-375.5" font-family="Helvetica,sans-Serif" font-size="10.00" fill="#000000">trimAlManager::perform_VCF</text>
</a>
</g>
</g>
<!-- Node207&#45;&gt;Node211 -->
<g id="edge7" class="edge">
<title>Node207&#45;&gt;Node211</title>
<path fill="none" stroke="#191970" d="M1393.1045,-444.6662C1414.9352,-435.089 1442.4662,-424.0881 1468,-417 1525.7272,-400.9751 1592.9926,-390.8941 1642.738,-385.0054"/>
<polygon fill="#191970" stroke="#191970" points="1391.5216,-441.5397 1383.8122,-448.8072 1394.371,-447.9336 1391.5216,-441.5397"/>
</g>
<!-- Node209 -->
<g id="node6" class="node">
<title>Node209</title>
<g id="a_node6"><a xlink:href="classtrim_al_manager.html#abe8d2841455c644dc9c7d1294b82b00f" target="_top" xlink:title="Method to perform the analysis if all checks have passed. ">
<polygon fill="#ffffff" stroke="#000000" points="1823,-311.5 1823,-330.5 1942,-330.5 1942,-311.5 1823,-311.5"/>
<text text-anchor="middle" x="1882.5" y="-318.5" font-family="Helvetica,sans-Serif" font-size="10.00" fill="#000000">trimAlManager::perform</text>
</a>
</g>
</g>
<!-- Node208&#45;&gt;Node209 -->
<g id="edge5" class="edge">
<title>Node208&#45;&gt;Node209</title>
<path fill="none" stroke="#191970" d="M1795.8102,-321C1804.9363,-321 1814.1089,-321 1822.8939,-321"/>
<polygon fill="#191970" stroke="#191970" points="1795.5497,-317.5001 1785.5496,-321 1795.5496,-324.5001 1795.5497,-317.5001"/>
</g>
<!-- Node210 -->
<g id="node7" class="node">
<title>Node210</title>
<g id="a_node7"><a xlink:href="trim_al_main_8cpp.html#a0ddf1224851353fc92bfbff6f499fa97" target="_top" xlink:title="main">
<polygon fill="#ffffff" stroke="#000000" points="1978,-311.5 1978,-330.5 2016,-330.5 2016,-311.5 1978,-311.5"/>
<text text-anchor="middle" x="1997" y="-318.5" font-family="Helvetica,sans-Serif" font-size="10.00" fill="#000000">main</text>
</a>
</g>
</g>
<!-- Node209&#45;&gt;Node210 -->
<g id="edge6" class="edge">
<title>Node209&#45;&gt;Node210</title>
<path fill="none" stroke="#191970" d="M1952.3198,-321C1961.6177,-321 1970.4503,-321 1977.7697,-321"/>
<polygon fill="#191970" stroke="#191970" points="1952.0976,-317.5001 1942.0976,-321 1952.0975,-324.5001 1952.0976,-317.5001"/>
</g>
<!-- Node212&#45;&gt;Node207 -->
<g id="edge9" class="edge">
<title>Node212&#45;&gt;Node207</title>
<path fill="none" stroke="#191970" d="M989.6893,-548.1157C1067.36,-530.0833 1214.4688,-495.9299 1295.2905,-477.1659"/>
<polygon fill="#191970" stroke="#191970" points="988.6091,-544.7733 979.6597,-550.4442 990.1922,-551.5919 988.6091,-544.7733"/>
</g>
<!-- Node214 -->
<g id="node11" class="node">
<title>Node214</title>
<g id="a_node11"><a xlink:href="classstatistics_1_1_manager.html#a92505ca5aedc5b45c4300a0e8a7d1e17" target="_top" xlink:title="Method to handle similarity stat calculation It checks if the similarity submodule has been created...">
<polygon fill="#ffffff" stroke="#000000" points="671,-272 671,-302 814,-302 814,-272 671,-272"/>
<text text-anchor="start" x="679" y="-290" font-family="Helvetica,sans-Serif" font-size="10.00" fill="#000000">statistics::Manager</text>
<text text-anchor="middle" x="742.5" y="-279" font-family="Helvetica,sans-Serif" font-size="10.00" fill="#000000">::calculateConservationStats</text>
</a>
</g>
</g>
<!-- Node213&#45;&gt;Node214 -->
<g id="edge11" class="edge">
<title>Node213&#45;&gt;Node214</title>
<path fill="none" stroke="#191970" d="M467.8619,-269.0445C525.2413,-272.7959 610.6131,-278.3774 670.9142,-282.3198"/>
<polygon fill="#191970" stroke="#191970" points="468.0477,-265.5492 457.8407,-268.3893 467.591,-272.5343 468.0477,-265.5492"/>
</g>
<!-- Node224 -->
<g id="node21" class="node">
<title>Node224</title>
<g id="a_node21"><a xlink:href="classstatistics_1_1_similarity.html#adcb5627b9704850e85433fc40c19db17" target="_top" xlink:title="Allows us compute the conservationWindow&#39;s values. ">
<polygon fill="#ffffff" stroke="#000000" points="523.5,-294 523.5,-324 626.5,-324 626.5,-294 523.5,-294"/>
<text text-anchor="start" x="531.5" y="-312" font-family="Helvetica,sans-Serif" font-size="10.00" fill="#000000">statistics::Similarity</text>
<text text-anchor="middle" x="575" y="-301" font-family="Helvetica,sans-Serif" font-size="10.00" fill="#000000">::applyWindow</text>
</a>
</g>
</g>
<!-- Node213&#45;&gt;Node224 -->
<g id="edge27" class="edge">
<title>Node213&#45;&gt;Node224</title>
<path fill="none" stroke="#191970" d="M467.3604,-280.9755C485.7449,-285.762 505.7128,-290.9607 523.4013,-295.566"/>
<polygon fill="#191970" stroke="#191970" points="468.1831,-277.5731 457.6239,-278.4405 466.4194,-284.3473 468.1831,-277.5731"/>
</g>
<!-- Node215 -->
<g id="node12" class="node">
<title>Node215</title>
<g id="a_node12"><a xlink:href="class_cleaner.html#a9cdbd6ebf78a284dd065b31319795b0c" target="_top" xlink:title="Method to trim an alignment based on the similarity distribution values. ">
<polygon fill="#ffffff" stroke="#000000" points="1081,-394.5 1081,-413.5 1218,-413.5 1218,-394.5 1081,-394.5"/>
<text text-anchor="middle" x="1149.5" y="-401.5" font-family="Helvetica,sans-Serif" font-size="10.00" fill="#000000">Cleaner::cleanConservation</text>
</a>
</g>
</g>
<!-- Node214&#45;&gt;Node215 -->
<g id="edge12" class="edge">
<title>Node214&#45;&gt;Node215</title>
<path fill="none" stroke="#191970" d="M762.1457,-310.054C781.9245,-331.4925 814.5177,-362.2709 850,-377 924.4969,-407.9244 1018.1609,-411.3563 1080.7227,-409.2164"/>
<polygon fill="#191970" stroke="#191970" points="764.5034,-307.4416 755.2134,-302.3478 759.2992,-312.1231 764.5034,-307.4416"/>
</g>
<!-- Node214&#45;&gt;Node218 -->
<g id="edge17" class="edge">
<title>Node214&#45;&gt;Node218</title>
<path fill="none" stroke="#191970" d="M795.6892,-269.0729C812.8213,-264.1344 832.0266,-259.4609 850,-257 927.9395,-246.3286 948.5907,-250.6413 1027,-257 1054.7072,-259.2469 1085.5961,-264.3078 1109.4247,-268.7762"/>
<polygon fill="#191970" stroke="#191970" points="794.4526,-265.7891 785.8666,-271.9965 796.4496,-272.4983 794.4526,-265.7891"/>
</g>
<!-- Node214&#45;&gt;Node219 -->
<g id="edge19" class="edge">
<title>Node214&#45;&gt;Node219</title>
<path fill="none" stroke="#191970" d="M772.7051,-266.3641C793.6505,-252.8018 822.5995,-235.5027 850,-224 863.9447,-218.1461 879.7271,-213.3318 894.0631,-209.5917"/>
<polygon fill="#191970" stroke="#191970" points="770.6833,-263.5046 764.2464,-271.9199 774.5262,-269.3554 770.6833,-263.5046"/>
</g>
<!-- Node221 -->
<g id="node18" class="node">
<title>Node221</title>
<g id="a_node18"><a xlink:href="classstatistics_1_1_manager.html#a080c687f8f355900511485eeec32a659" target="_top" xlink:title="Wrapper to Statistics::Similarity::printConservationAcl() It calls to calculateConservationStats() to...">
<polygon fill="#ffffff" stroke="#000000" points="868.5,-266.5 868.5,-307.5 1008.5,-307.5 1008.5,-266.5 868.5,-266.5"/>
<text text-anchor="start" x="876.5" y="-295.5" font-family="Helvetica,sans-Serif" font-size="10.00" fill="#000000">statistics::Manager</text>
<text text-anchor="start" x="876.5" y="-284.5" font-family="Helvetica,sans-Serif" font-size="10.00" fill="#000000">::printStatisticsConservation</text>
<text text-anchor="middle" x="938.5" y="-273.5" font-family="Helvetica,sans-Serif" font-size="10.00" fill="#000000">Columns</text>
</a>
</g>
</g>
<!-- Node214&#45;&gt;Node221 -->
<g id="edge22" class="edge">
<title>Node214&#45;&gt;Node221</title>
<path fill="none" stroke="#191970" d="M824.1718,-287C838.8717,-287 854.0759,-287 868.4109,-287"/>
<polygon fill="#191970" stroke="#191970" points="824.0925,-283.5001 814.0925,-287 824.0924,-290.5001 824.0925,-283.5001"/>
</g>
<!-- Node223 -->
<g id="node20" class="node">
<title>Node223</title>
<g id="a_node20"><a xlink:href="classstatistics_1_1_manager.html#aa20cfb477826035386ea988e3706b09a" target="_top" xlink:title="Wrapper to Statistics::Similarity::printGapsTotal() It calls to calculateConservationStats() to make ...">
<polygon fill="#ffffff" stroke="#000000" points="868.5,-326.5 868.5,-367.5 1008.5,-367.5 1008.5,-326.5 868.5,-326.5"/>
<text text-anchor="start" x="876.5" y="-355.5" font-family="Helvetica,sans-Serif" font-size="10.00" fill="#000000">statistics::Manager</text>
<text text-anchor="start" x="876.5" y="-344.5" font-family="Helvetica,sans-Serif" font-size="10.00" fill="#000000">::printStatisticsConservation</text>
<text text-anchor="middle" x="938.5" y="-333.5" font-family="Helvetica,sans-Serif" font-size="10.00" fill="#000000">Total</text>
</a>
</g>
</g>
<!-- Node214&#45;&gt;Node223 -->
<g id="edge25" class="edge">
<title>Node214&#45;&gt;Node223</title>
<path fill="none" stroke="#191970" d="M801.2929,-304.9978C823.4007,-311.7655 848.696,-319.509 871.4961,-326.4886"/>
<polygon fill="#191970" stroke="#191970" points="802.2926,-301.6436 791.7061,-302.0631 800.2436,-308.337 802.2926,-301.6436"/>
</g>
<!-- Node216 -->
<g id="node13" class="node">
<title>Node216</title>
<g id="a_node13"><a xlink:href="classtrim_al_manager.html#aebfd21b0435302f0e4fc45a068d1b6ee" target="_top" xlink:title="Method to trim the alignment using non automatic methods: ">
<polygon fill="#ffffff" stroke="#000000" points="1276,-262 1276,-292 1428,-292 1428,-262 1276,-262"/>
<text text-anchor="start" x="1284" y="-280" font-family="Helvetica,sans-Serif" font-size="10.00" fill="#000000">trimAlManager::CleanResidues</text>
<text text-anchor="middle" x="1352" y="-269" font-family="Helvetica,sans-Serif" font-size="10.00" fill="#000000">NonAuto</text>
</a>
</g>
</g>
<!-- Node215&#45;&gt;Node216 -->
<g id="edge13" class="edge">
<title>Node215&#45;&gt;Node216</title>
<path fill="none" stroke="#191970" d="M1173.3112,-389.0666C1212.2299,-364.6583 1289.0318,-316.4912 1328.0441,-292.0242"/>
<polygon fill="#191970" stroke="#191970" points="1171.3326,-386.1761 1164.7204,-394.4544 1175.0518,-392.1063 1171.3326,-386.1761"/>
</g>
<!-- Node217 -->
<g id="node14" class="node">
<title>Node217</title>
<g id="a_node14"><a xlink:href="classtrim_al_manager.html#adc529dd893ed4e9df6f3ddbd58776068" target="_top" xlink:title="Core Method of the program. This is where almost all cleaning methods are called from. ">
<polygon fill="#ffffff" stroke="#000000" points="1483,-262 1483,-292 1592,-292 1592,-262 1483,-262"/>
<text text-anchor="start" x="1491" y="-280" font-family="Helvetica,sans-Serif" font-size="10.00" fill="#000000">trimAlManager::clean</text>
<text text-anchor="middle" x="1537.5" y="-269" font-family="Helvetica,sans-Serif" font-size="10.00" fill="#000000">_alignment</text>
</a>
</g>
</g>
<!-- Node216&#45;&gt;Node217 -->
<g id="edge14" class="edge">
<title>Node216&#45;&gt;Node217</title>
<path fill="none" stroke="#191970" d="M1438.6131,-277C1453.6558,-277 1468.9147,-277 1482.7978,-277"/>
<polygon fill="#191970" stroke="#191970" points="1438.253,-273.5001 1428.253,-277 1438.253,-280.5001 1438.253,-273.5001"/>
</g>
<!-- Node217&#45;&gt;Node208 -->
<g id="edge15" class="edge">
<title>Node217&#45;&gt;Node208</title>
<path fill="none" stroke="#191970" d="M1601.9897,-292.9862C1626.9829,-299.1817 1654.7566,-306.0664 1676.5159,-311.4603"/>
<polygon fill="#191970" stroke="#191970" points="1602.7526,-289.5694 1592.2042,-290.5605 1601.0683,-296.3638 1602.7526,-289.5694"/>
</g>
<!-- Node217&#45;&gt;Node211 -->
<g id="edge16" class="edge">
<title>Node217&#45;&gt;Node211</title>
<path fill="none" stroke="#191970" d="M1570.7177,-297.4468C1591.361,-310.0008 1618.5373,-326.2531 1643,-340 1660.8667,-350.0402 1681.5925,-360.8978 1696.2067,-368.4257"/>
<polygon fill="#191970" stroke="#191970" points="1572.3721,-294.3563 1562.0124,-292.1366 1568.7268,-300.3322 1572.3721,-294.3563"/>
</g>
<!-- Node218&#45;&gt;Node216 -->
<g id="edge18" class="edge">
<title>Node218&#45;&gt;Node216</title>
<path fill="none" stroke="#191970" d="M1199.6718,-277C1222.5718,-277 1250.1948,-277 1275.5945,-277"/>
<polygon fill="#191970" stroke="#191970" points="1199.5075,-273.5001 1189.5075,-277 1199.5074,-280.5001 1199.5075,-273.5001"/>
</g>
<!-- Node220 -->
<g id="node17" class="node">
<title>Node220</title>
<g id="a_node17"><a xlink:href="classtrim_al_manager.html#a69082911b30a1bd12395bb235bc18a34" target="_top" xlink:title="Method to trim the alignment using automatic or semi&#45;automatic methods: ">
<polygon fill="#ffffff" stroke="#000000" points="1063,-114.5 1063,-133.5 1236,-133.5 1236,-114.5 1063,-114.5"/>
<text text-anchor="middle" x="1149.5" y="-121.5" font-family="Helvetica,sans-Serif" font-size="10.00" fill="#000000">trimAlManager::CleanResiduesAuto</text>
</a>
</g>
</g>
<!-- Node219&#45;&gt;Node220 -->
<g id="edge20" class="edge">
<title>Node219&#45;&gt;Node220</title>
<path fill="none" stroke="#191970" d="M974.8278,-186.9151C1016.9993,-171.7254 1085.5388,-147.0381 1122.9937,-133.5473"/>
<polygon fill="#191970" stroke="#191970" points="973.4455,-183.6928 965.2233,-190.3745 975.8177,-190.2786 973.4455,-183.6928"/>
</g>
<!-- Node220&#45;&gt;Node217 -->
<g id="edge21" class="edge">
<title>Node220&#45;&gt;Node217</title>
<path fill="none" stroke="#191970" d="M1181.3485,-137.5448C1238.4361,-161.6784 1362.1217,-213.3083 1468,-253 1476.0084,-256.0022 1484.5854,-259.0769 1492.8849,-261.9804"/>
<polygon fill="#191970" stroke="#191970" points="1182.699,-134.3158 1172.1258,-133.64 1179.9698,-140.7619 1182.699,-134.3158"/>
</g>
<!-- Node222 -->
<g id="node19" class="node">
<title>Node222</title>
<g id="a_node19"><a xlink:href="classtrim_al_manager.html#afc48b86f5ae35b9a5e721b65c58bf610" target="_top" xlink:title="Method to print statistics requested. ">
<polygon fill="#ffffff" stroke="#000000" points="1097.5,-306 1097.5,-336 1201.5,-336 1201.5,-306 1097.5,-306"/>
<text text-anchor="start" x="1105.5" y="-324" font-family="Helvetica,sans-Serif" font-size="10.00" fill="#000000">trimAlManager::print</text>
<text text-anchor="middle" x="1149.5" y="-313" font-family="Helvetica,sans-Serif" font-size="10.00" fill="#000000">_statistics</text>
</a>
</g>
</g>
<!-- Node221&#45;&gt;Node222 -->
<g id="edge23" class="edge">
<title>Node221&#45;&gt;Node222</title>
<path fill="none" stroke="#191970" d="M1018.7172,-299.926C1045.0209,-304.1645 1073.5526,-308.762 1097.2347,-312.5781"/>
<polygon fill="#191970" stroke="#191970" points="1019.1894,-296.457 1008.7599,-298.3215 1018.0758,-303.3679 1019.1894,-296.457"/>
</g>
<!-- Node222&#45;&gt;Node208 -->
<g id="edge24" class="edge">
<title>Node222&#45;&gt;Node208</title>
<path fill="none" stroke="#191970" d="M1211.9112,-321C1317.949,-321 1532.6052,-321 1644.1302,-321"/>
<polygon fill="#191970" stroke="#191970" points="1211.6873,-317.5001 1201.6873,-321 1211.6872,-324.5001 1211.6873,-317.5001"/>
</g>
<!-- Node223&#45;&gt;Node222 -->
<g id="edge26" class="edge">
<title>Node223&#45;&gt;Node222</title>
<path fill="none" stroke="#191970" d="M1018.7172,-337.1154C1045.0209,-333.8742 1073.5526,-330.3584 1097.2347,-327.4403"/>
<polygon fill="#191970" stroke="#191970" points="1018.2568,-333.6456 1008.7599,-338.3424 1019.113,-340.593 1018.2568,-333.6456"/>
</g>
<!-- Node224&#45;&gt;Node214 -->
<g id="edge28" class="edge">
<title>Node224&#45;&gt;Node214</title>
<path fill="none" stroke="#191970" d="M636.6284,-300.9055C647.7215,-299.4485 659.3724,-297.9183 670.7237,-296.4273"/>
<polygon fill="#191970" stroke="#191970" points="636.0813,-297.4472 626.6223,-302.2198 636.9929,-304.3876 636.0813,-297.4472"/>
</g>
<!-- Node225 -->
<g id="node22" class="node">
<title>Node225</title>
<g id="a_node22"><a xlink:href="classstatistics_1_1_similarity.html#a1b65c85328f09fa0637365d11fb386b4" target="_top" xlink:title="This methods returns a pointer to conservationWindow&#39;s vector. ">
<polygon fill="#ffffff" stroke="#000000" points="678,-465 678,-495 807,-495 807,-465 678,-465"/>
<text text-anchor="start" x="686" y="-483" font-family="Helvetica,sans-Serif" font-size="10.00" fill="#000000">statistics::Similarity</text>
<text text-anchor="middle" x="742.5" y="-472" font-family="Helvetica,sans-Serif" font-size="10.00" fill="#000000">::getMdkWindowedVector</text>
</a>
</g>
</g>
<!-- Node224&#45;&gt;Node225 -->
<g id="edge29" class="edge">
<title>Node224&#45;&gt;Node225</title>
<path fill="none" stroke="#191970" d="M597.15,-331.6128C631.7642,-366.9503 697.7809,-434.3465 727.428,-464.6131"/>
<polygon fill="#191970" stroke="#191970" points="599.3625,-328.8698 589.8645,-324.1751 594.3618,-333.7681 599.3625,-328.8698"/>
</g>
<!-- Node225&#45;&gt;Node206 -->
<g id="edge30" class="edge">
<title>Node225&#45;&gt;Node206</title>
<path fill="none" stroke="#191970" d="M760.8649,-502.934C780.4766,-525.8141 813.6817,-560.1906 850,-579 857.5353,-582.9026 865.8294,-586.0042 874.227,-588.469"/>
<polygon fill="#191970" stroke="#191970" points="763.3815,-500.488 754.2739,-495.0748 758.0179,-504.9861 763.3815,-500.488"/>
</g>
<!-- Node225&#45;&gt;Node212 -->
<g id="edge35" class="edge">
<title>Node225&#45;&gt;Node212</title>
<path fill="none" stroke="#191970" d="M778.9205,-500.0443C804.3081,-513.8093 836.0348,-530.5427 850,-536 864.6793,-541.7364 881.2404,-546.6253 896.0325,-550.4643"/>
<polygon fill="#191970" stroke="#191970" points="780.3551,-496.8403 769.8986,-495.1337 777.0085,-502.9886 780.3551,-496.8403"/>
</g>
<!-- Node225&#45;&gt;Node215 -->
<g id="edge36" class="edge">
<title>Node225&#45;&gt;Node215</title>
<path fill="none" stroke="#191970" d="M798.4041,-497.7464C857.0761,-513.3691 951.1478,-529.8189 1027,-503 1078.5607,-484.7698 1124.3259,-434.5995 1141.8809,-413.5223"/>
<polygon fill="#191970" stroke="#191970" points="799.1569,-494.3236 788.5872,-495.0518 797.3041,-501.074 799.1569,-494.3236"/>
</g>
<!-- Node225&#45;&gt;Node218 -->
<g id="edge37" class="edge">
<title>Node225&#45;&gt;Node218</title>
<path fill="none" stroke="#191970" d="M809.4534,-462.2994C882.9256,-441.768 994.7438,-406.9086 1027,-377 1055.5907,-350.4902 1032.8694,-321.7456 1063,-297 1075.8642,-286.4349 1093.2694,-281.2245 1109.0946,-278.7312"/>
<polygon fill="#191970" stroke="#191970" points="808.5008,-458.9314 799.7998,-464.9764 810.3714,-465.6768 808.5008,-458.9314"/>
</g>
<!-- Node225&#45;&gt;Node219 -->
<g id="edge38" class="edge">
<title>Node225&#45;&gt;Node219</title>
<path fill="none" stroke="#191970" d="M752.2731,-455.6109C773.0161,-404.6255 821.8459,-288.8489 850,-257 868.8825,-235.6395 897.6153,-219.1459 917.1816,-209.5195"/>
<polygon fill="#191970" stroke="#191970" points="749.0208,-454.3174 748.5134,-464.9001 755.5095,-456.9437 749.0208,-454.3174"/>
</g>
<!-- Node225&#45;&gt;Node226 -->
<g id="edge31" class="edge">
<title>Node225&#45;&gt;Node226</title>
<path fill="none" stroke="#191970" d="M754.5272,-504.0971C771.4077,-535.2962 805.155,-588.9796 850,-617 860.7949,-623.745 873.6187,-628.1238 886.1067,-630.9585"/>
<polygon fill="#191970" stroke="#191970" points="757.5929,-502.4069 749.8364,-495.1898 751.3992,-505.6687 757.5929,-502.4069"/>
</g>
<!-- Node228 -->
<g id="node25" class="node">
<title>Node228</title>
<g id="a_node25"><a xlink:href="classstatistics_1_1_similarity.html#a26f430acb8a3240977665de9a9ea875a" target="_top" xlink:title="Computes and selects the cut point values based on similarity&#39;s values. ">
<polygon fill="#ffffff" stroke="#000000" points="887,-463 887,-493 990,-493 990,-463 887,-463"/>
<text text-anchor="start" x="895" y="-481" font-family="Helvetica,sans-Serif" font-size="10.00" fill="#000000">statistics::Similarity</text>
<text text-anchor="middle" x="938.5" y="-470" font-family="Helvetica,sans-Serif" font-size="10.00" fill="#000000">::calcCutPoint</text>
</a>
</g>
</g>
<!-- Node225&#45;&gt;Node228 -->
<g id="edge39" class="edge">
<title>Node225&#45;&gt;Node228</title>
<path fill="none" stroke="#191970" d="M817.3818,-479.2359C840.5817,-478.9992 865.6148,-478.7437 886.8672,-478.5269"/>
<polygon fill="#191970" stroke="#191970" points="817.1847,-475.7376 807.2209,-479.3396 817.2562,-482.7373 817.1847,-475.7376"/>
</g>
<!-- Node227 -->
<g id="node24" class="node">
<title>Node227</title>
<g id="a_node24"><a xlink:href="classtrim_al_manager.html#a63d5bec0938516a2129ccb04276b93d9" target="_top" xlink:title="trimAlManager::svg\l_stats_out">
<polygon fill="#ffffff" stroke="#000000" points="1487,-426 1487,-456 1588,-456 1588,-426 1487,-426"/>
<text text-anchor="start" x="1495" y="-444" font-family="Helvetica,sans-Serif" font-size="10.00" fill="#000000">trimAlManager::svg</text>
<text text-anchor="middle" x="1537.5" y="-433" font-family="Helvetica,sans-Serif" font-size="10.00" fill="#000000">_stats_out</text>
</a>
</g>
</g>
<!-- Node226&#45;&gt;Node227 -->
<g id="edge32" class="edge">
<title>Node226&#45;&gt;Node227</title>
<path fill="none" stroke="#191970" d="M995.4075,-624.2641C1005.935,-621.9565 1016.8178,-619.4795 1027,-617 1210.416,-572.3355 1257.2037,-560.2923 1432,-489 1457.1538,-478.7408 1485.1169,-465.9535 1505.9312,-456.1574"/>
<polygon fill="#191970" stroke="#191970" points="994.4899,-620.8816 985.4574,-626.4191 995.9717,-627.723 994.4899,-620.8816"/>
</g>
<!-- Node227&#45;&gt;Node208 -->
<g id="edge33" class="edge">
<title>Node227&#45;&gt;Node208</title>
<path fill="none" stroke="#191970" d="M1562.8265,-419.2713C1583.637,-401.9275 1614.2651,-377.5469 1643,-359 1659.7442,-348.1925 1679.8855,-337.7625 1694.6023,-330.5726"/>
<polygon fill="#191970" stroke="#191970" points="1560.4898,-416.6632 1555.0855,-425.7761 1564.9931,-422.0224 1560.4898,-416.6632"/>
</g>
<!-- Node227&#45;&gt;Node211 -->
<g id="edge34" class="edge">
<title>Node227&#45;&gt;Node211</title>
<path fill="none" stroke="#191970" d="M1589.7463,-422.4562C1621.9832,-411.0144 1662.0019,-396.8106 1688.0016,-387.5825"/>
<polygon fill="#191970" stroke="#191970" points="1588.269,-419.2666 1580.0157,-425.9099 1590.6104,-425.8634 1588.269,-419.2666"/>
</g>
<!-- Node228&#45;&gt;Node215 -->
<g id="edge40" class="edge">
<title>Node228&#45;&gt;Node215</title>
<path fill="none" stroke="#191970" d="M993.2422,-459.615C1004.4234,-455.8116 1016.1009,-451.8043 1027,-448 1060.283,-436.3825 1098.4913,-422.585 1123.2628,-413.5783"/>
<polygon fill="#191970" stroke="#191970" points="991.9212,-456.3671 983.576,-462.8947 994.1704,-462.996 991.9212,-456.3671"/>
</g>
<!-- Node228&#45;&gt;Node218 -->
<g id="edge41" class="edge">
<title>Node228&#45;&gt;Node218</title>
<path fill="none" stroke="#191970" d="M999.8457,-466.2986C1010.0207,-461.9837 1019.6377,-456.0791 1027,-448 1073.4698,-397.0053 1014.0492,-345.6181 1063,-297 1075.1391,-284.9434 1093.0136,-279.5821 1109.3677,-277.3766"/>
<polygon fill="#191970" stroke="#191970" points="998.5351,-463.0519 990.3932,-469.8312 1000.9857,-469.609 998.5351,-463.0519"/>
</g>
<!-- Node229&#45;&gt;Node220 -->
<g id="edge44" class="edge">
<title>Node229&#45;&gt;Node220</title>
<path fill="none" stroke="#191970" d="M645.35,-86.5238C734.3959,-87.7454 892.4133,-91.7758 1027,-105 1049.9178,-107.2519 1075.0782,-110.9406 1096.6029,-114.4716"/>
<polygon fill="#191970" stroke="#191970" points="645.1474,-83.0209 635.1031,-86.3915 645.057,-90.0204 645.1474,-83.0209"/>
</g>
<!-- Node230&#45;&gt;Node216 -->
<g id="edge48" class="edge">
<title>Node230&#45;&gt;Node216</title>
<path fill="none" stroke="#191970" d="M987.2686,-136.1654C1000.2671,-139.6957 1014.2413,-143.753 1027,-148 1134.9974,-183.9492 1259.139,-236.4394 1317.8418,-261.956"/>
<polygon fill="#191970" stroke="#191970" points="988.1194,-132.77 977.5551,-133.574 986.3149,-139.5334 988.1194,-132.77"/>
</g>
<!-- Node230&#45;&gt;Node220 -->
<g id="edge47" class="edge">
<title>Node230&#45;&gt;Node220</title>
<path fill="none" stroke="#191970" d="M1000.3708,-124C1019.8596,-124 1041.7596,-124 1062.6517,-124"/>
<polygon fill="#191970" stroke="#191970" points="1000.1164,-120.5001 990.1164,-124 1000.1164,-127.5001 1000.1164,-120.5001"/>
</g>
<!-- Node231&#45;&gt;Node220 -->
<g id="edge50" class="edge">
<title>Node231&#45;&gt;Node220</title>
<path fill="none" stroke="#191970" d="M988.4504,-60.2663C1001.1295,-63.7288 1014.6542,-67.7281 1027,-72 1063.8994,-84.7681 1105.4663,-103.3402 1129.4572,-114.4888"/>
<polygon fill="#191970" stroke="#191970" points="989.0663,-56.8082 978.5019,-57.6096 987.2603,-63.5712 989.0663,-56.8082"/>
</g>
<!-- Node232 -->
<g id="node29" class="node">
<title>Node232</title>
<g id="a_node29"><a xlink:href="classtrim_al_manager.html#a10536f715945a1a45f1df33f7cedc81e" target="_top" xlink:title="Method to trim or reduce the number of sequences in an alignment. It performs one or none of the foll...">
<polygon fill="#ffffff" stroke="#000000" points="1272,-84.5 1272,-103.5 1432,-103.5 1432,-84.5 1272,-84.5"/>
<text text-anchor="middle" x="1352" y="-91.5" font-family="Helvetica,sans-Serif" font-size="10.00" fill="#000000">trimAlManager::CleanSequences</text>
</a>
</g>
</g>
<!-- Node231&#45;&gt;Node232 -->
<g id="edge51" class="edge">
<title>Node231&#45;&gt;Node232</title>
<path fill="none" stroke="#191970" d="M1012.2437,-56.2037C1085.2645,-64.3269 1196.7479,-76.7289 1271.9054,-85.0898"/>
<polygon fill="#191970" stroke="#191970" points="1012.5289,-52.7139 1002.2032,-55.0867 1011.7549,-59.671 1012.5289,-52.7139"/>
</g>
<!-- Node232&#45;&gt;Node217 -->
<g id="edge52" class="edge">
<title>Node232&#45;&gt;Node217</title>
<path fill="none" stroke="#191970" d="M1369.1099,-110.9651C1386.2708,-128.5233 1412.8327,-157.2241 1432,-185 1451.4222,-213.1453 1442.0268,-230.7565 1468,-253 1472.46,-256.8195 1477.5611,-260.0413 1482.929,-262.7568"/>
<polygon fill="#191970" stroke="#191970" points="1371.4683,-108.3724 1361.947,-103.7252 1366.4921,-113.2956 1371.4683,-108.3724"/>
</g>
<!-- Node234 -->
<g id="node31" class="node">
<title>Node234</title>
<g id="a_node31"><a xlink:href="classtrim_al_manager.html#a8ed19b851162fa24a1da66f7e54099e3" target="_top" xlink:title="trimAlManager::postprocess\l_alignment">
<polygon fill="#ffffff" stroke="#000000" points="1468,-213 1468,-243 1607,-243 1607,-213 1468,-213"/>
<text text-anchor="start" x="1476" y="-231" font-family="Helvetica,sans-Serif" font-size="10.00" fill="#000000">trimAlManager::postprocess</text>
<text text-anchor="middle" x="1537.5" y="-220" font-family="Helvetica,sans-Serif" font-size="10.00" fill="#000000">_alignment</text>
</a>
</g>
</g>
<!-- Node233&#45;&gt;Node234 -->
<g id="edge54" class="edge">
<title>Node233&#45;&gt;Node234</title>
<path fill="none" stroke="#191970" d="M489.4291,-10C557.522,-10 656.2313,-10 742.5,-10 742.5,-10 742.5,-10 1149.5,-10 1278.3362,-10 1325.4229,-2.6115 1432,-75 1484.3138,-110.5322 1518.3642,-181.3415 1531.4517,-212.5815"/>
<polygon fill="#191970" stroke="#191970" points="489.1904,-6.5001 479.1904,-10 489.1904,-13.5001 489.1904,-6.5001"/>
</g>
<!-- Node234&#45;&gt;Node208 -->
<g id="edge55" class="edge">
<title>Node234&#45;&gt;Node208</title>
<path fill="none" stroke="#191970" d="M1593.3322,-246.8658C1598.0091,-248.8125 1602.6201,-250.8647 1607,-253 1643.0485,-270.5742 1682.1106,-297.2901 1701.9045,-311.4356"/>
<polygon fill="#191970" stroke="#191970" points="1594.2777,-243.475 1583.6924,-243.0251 1591.6868,-249.9778 1594.2777,-243.475"/>
</g>
<!-- Node234&#45;&gt;Node211 -->
<g id="edge56" class="edge">
<title>Node234&#45;&gt;Node211</title>
<path fill="none" stroke="#191970" d="M1601.7261,-248.5445C1603.5759,-249.9347 1605.3416,-251.4178 1607,-253 1637.2775,-281.8857 1614.822,-309.0628 1643,-340 1654.8017,-352.9573 1672.0631,-362.2777 1686.7262,-368.4445"/>
<polygon fill="#191970" stroke="#191970" points="1603.4513,-245.4927 1593.1477,-243.0256 1599.6639,-251.3797 1603.4513,-245.4927"/>
</g>
</g>
</svg>
