<?xml version="1.0" encoding="UTF-8" standalone="no"?>
<!DOCTYPE svg PUBLIC "-//W3C//DTD SVG 1.1//EN"
 "http://www.w3.org/Graphics/SVG/1.1/DTD/svg11.dtd">
<!-- Generated by graphviz version 2.40.1 (20161225.0304)
 -->
<!-- Title: Cleaner::calculateSeqIdentity Pages: 1 -->
<svg width="613pt" height="28pt"
 viewBox="0.00 0.00 613.00 28.00" xmlns="http://www.w3.org/2000/svg" xmlns:xlink="http://www.w3.org/1999/xlink">
<g id="graph0" class="graph" transform="scale(1 1) rotate(0) translate(4 24)">
<title>Cleaner::calculateSeqIdentity</title>
<polygon fill="#ffffff" stroke="transparent" points="-4,4 -4,-24 609,-24 609,4 -4,4"/>
<!-- Node58 -->
<g id="node1" class="node">
<title>Node58</title>
<polygon fill="#bfbfbf" stroke="#000000" points="0,-.5 0,-19.5 145,-19.5 145,-.5 0,-.5"/>
<text text-anchor="middle" x="72.5" y="-7.5" font-family="Helvetica,sans-Serif" font-size="10.00" fill="#000000">Cleaner::calculateSeqIdentity</text>
</g>
<!-- Node59 -->
<g id="node2" class="node">
<title>Node59</title>
<g id="a_node2"><a xlink:href="class_alignment.html#ab2487799d9a7d593d7fbe1b8da9593f5" target="_top" xlink:title="Alignment type getter. &#160;&#160;See SequenceTypes. ">
<polygon fill="#ffffff" stroke="#000000" points="181,-.5 181,-19.5 326,-19.5 326,-.5 181,-.5"/>
<text text-anchor="middle" x="253.5" y="-7.5" font-family="Helvetica,sans-Serif" font-size="10.00" fill="#000000">Alignment::getAlignmentType</text>
</a>
</g>
</g>
<!-- Node58&#45;&gt;Node59 -->
<g id="edge1" class="edge">
<title>Node58&#45;&gt;Node59</title>
<path fill="none" stroke="#191970" d="M145.0767,-10C153.5595,-10 162.2611,-10 170.8671,-10"/>
<polygon fill="#191970" stroke="#191970" points="170.907,-13.5001 180.907,-10 170.907,-6.5001 170.907,-13.5001"/>
</g>
<!-- Node60 -->
<g id="node3" class="node">
<title>Node60</title>
<g id="a_node3"><a xlink:href="namespaceutils.html#aab52f9515717f06cafd6ab7fe2ebdcef" target="_top" xlink:title="Checks an alignment type. ">
<polygon fill="#ffffff" stroke="#000000" points="362,-.5 362,-19.5 494,-19.5 494,-.5 362,-.5"/>
<text text-anchor="middle" x="428" y="-7.5" font-family="Helvetica,sans-Serif" font-size="10.00" fill="#000000">utils::checkAlignmentType</text>
</a>
</g>
</g>
<!-- Node59&#45;&gt;Node60 -->
<g id="edge2" class="edge">
<title>Node59&#45;&gt;Node60</title>
<path fill="none" stroke="#191970" d="M326.2401,-10C334.6172,-10 343.1779,-10 351.6016,-10"/>
<polygon fill="#191970" stroke="#191970" points="351.7871,-13.5001 361.787,-10 351.787,-6.5001 351.7871,-13.5001"/>
</g>
<!-- Node61 -->
<g id="node4" class="node">
<title>Node61</title>
<g id="a_node4"><a xlink:href="namespaceutils.html#a6286fde6f4dd58ef0cfa9d55341b72f8" target="_top" xlink:title="utils::toUpper">
<polygon fill="#ffffff" stroke="#000000" points="530,-.5 530,-19.5 605,-19.5 605,-.5 530,-.5"/>
<text text-anchor="middle" x="567.5" y="-7.5" font-family="Helvetica,sans-Serif" font-size="10.00" fill="#000000">utils::toUpper</text>
</a>
</g>
</g>
<!-- Node60&#45;&gt;Node61 -->
<g id="edge3" class="edge">
<title>Node60&#45;&gt;Node61</title>
<path fill="none" stroke="#191970" d="M494.0733,-10C502.6891,-10 511.3799,-10 519.6179,-10"/>
<polygon fill="#191970" stroke="#191970" points="519.7709,-13.5001 529.7708,-10 519.7708,-6.5001 519.7709,-13.5001"/>
</g>
</g>
</svg>
