<?xml version="1.0" encoding="UTF-8" standalone="no"?>
<!DOCTYPE svg PUBLIC "-//W3C//DTD SVG 1.1//EN"
 "http://www.w3.org/Graphics/SVG/1.1/DTD/svg11.dtd">
<!-- Generated by graphviz version 2.38.0 (20140413.2041)
 -->
<!-- Title: Cleaner::cleanCombMethods Pages: 1 -->
<svg width="1174pt" height="242pt"
 viewBox="0.00 0.00 1174.00 242.29" xmlns="http://www.w3.org/2000/svg" xmlns:xlink="http://www.w3.org/1999/xlink">
<g id="graph0" class="graph" transform="scale(1 1) rotate(0) translate(4 238.292)">
<title>Cleaner::cleanCombMethods</title>
<polygon fill="white" stroke="none" points="-4,4 -4,-238.292 1170,-238.292 1170,4 -4,4"/>
<!-- Node91 -->
<g id="node1" class="node"><title>Node91</title>
<polygon fill="#bfbfbf" stroke="black" points="0,-48.2922 0,-67.2922 143,-67.2922 143,-48.2922 0,-48.2922"/>
<text text-anchor="middle" x="71.5" y="-55.2922" font-family="Helvetica,sans-Serif" font-size="10.00">Cleaner::cleanCombMethods</text>
</g>
<!-- Node92 -->
<g id="node2" class="node"><title>Node92</title>
<g id="a_node2"><a xlink:href="classstatistics_conservation.html#a0e674b4b4b91773fb1c32a532797f328" target="_top" xlink:title="This methods returns a pointer to conservationWindow&#39;s vector. ">
<polygon fill="white" stroke="black" points="179,-154.792 179,-184.792 308,-184.792 308,-154.792 179,-154.792"/>
<text text-anchor="start" x="187" y="-172.792" font-family="Helvetica,sans-Serif" font-size="10.00">statisticsConservation</text>
<text text-anchor="middle" x="243.5" y="-161.792" font-family="Helvetica,sans-Serif" font-size="10.00">::getMdkWindowedVector</text>
</a>
</g>
</g>
<!-- Node91&#45;&gt;Node92 -->
<g id="edge1" class="edge"><title>Node91&#45;&gt;Node92</title>
<path fill="none" stroke="midnightblue" d="M86.9941,-67.3413C114.349,-85.3636 174.152,-124.763 211.109,-149.111"/>
<polygon fill="midnightblue" stroke="midnightblue" points="209.253,-152.079 219.529,-154.658 213.104,-146.234 209.253,-152.079"/>
</g>
<!-- Node97 -->
<g id="node7" class="node"><title>Node97</title>
<g id="a_node7"><a xlink:href="classutils.html#aac322cd1761fddedec8a5792e358eb32" target="_top" xlink:title="Vector initialization. ">
<polygon fill="white" stroke="black" points="878.5,-57.2922 878.5,-76.2922 954.5,-76.2922 954.5,-57.2922 878.5,-57.2922"/>
<text text-anchor="middle" x="916.5" y="-64.2922" font-family="Helvetica,sans-Serif" font-size="10.00">utils::initlVect</text>
</a>
</g>
</g>
<!-- Node91&#45;&gt;Node97 -->
<g id="edge11" class="edge"><title>Node91&#45;&gt;Node97</title>
<path fill="none" stroke="midnightblue" d="M94.0391,-48.2104C115.213,-39.2493 148.673,-26.2995 179,-19.7922 282.32,2.37673 310.329,-0.792244 416,-0.792244 416,-0.792244 416,-0.792244 585,-0.792244 692.803,-0.792244 816.623,-34.9781 877.566,-54.1427"/>
<polygon fill="midnightblue" stroke="midnightblue" points="876.556,-57.494 887.146,-57.1953 878.681,-50.8244 876.556,-57.494"/>
</g>
<!-- Node101 -->
<g id="node11" class="node"><title>Node101</title>
<g id="a_node11"><a xlink:href="classutils.html#a73f038c379c13d23e3220afaa14f9983" target="_top" xlink:title="Quicksort sorting method. ">
<polygon fill="white" stroke="black" points="203.5,-29.2922 203.5,-48.2922 283.5,-48.2922 283.5,-29.2922 203.5,-29.2922"/>
<text text-anchor="middle" x="243.5" y="-36.2922" font-family="Helvetica,sans-Serif" font-size="10.00">utils::quicksort</text>
</a>
</g>
</g>
<!-- Node91&#45;&gt;Node101 -->
<g id="edge12" class="edge"><title>Node91&#45;&gt;Node101</title>
<path fill="none" stroke="midnightblue" d="M143.118,-49.8996C160.031,-48.0094 177.725,-46.0318 193.418,-44.2778"/>
<polygon fill="midnightblue" stroke="midnightblue" points="193.864,-47.7499 203.414,-43.1607 193.087,-40.7932 193.864,-47.7499"/>
</g>
<!-- Node103 -->
<g id="node13" class="node"><title>Node103</title>
<g id="a_node13"><a xlink:href="class_cleaner.html#a740bce047dce09be0f6bd1da9f826da3" target="_top" xlink:title="Method to clean an alignment. It carries out strict and strictplus. It removes sequences that overpas...">
<polygon fill="white" stroke="black" points="192,-67.2922 192,-86.2922 295,-86.2922 295,-67.2922 192,-67.2922"/>
<text text-anchor="middle" x="243.5" y="-74.2922" font-family="Helvetica,sans-Serif" font-size="10.00">Cleaner::cleanStrict</text>
</a>
</g>
</g>
<!-- Node91&#45;&gt;Node103 -->
<g id="edge14" class="edge"><title>Node91&#45;&gt;Node103</title>
<path fill="none" stroke="midnightblue" d="M143.118,-65.6849C155.876,-67.1107 169.078,-68.5863 181.531,-69.978"/>
<polygon fill="midnightblue" stroke="midnightblue" points="181.462,-73.492 191.788,-71.1245 182.239,-66.5353 181.462,-73.492"/>
</g>
<!-- Node93 -->
<g id="node3" class="node"><title>Node93</title>
<g id="a_node3"><a xlink:href="classstatistics_conservation.html#a48c32412653c299b159b56311065fc80" target="_top" xlink:title="Returns if a windows size value has been defined or not. ">
<polygon fill="white" stroke="black" points="360,-203.792 360,-233.792 474,-233.792 474,-203.792 360,-203.792"/>
<text text-anchor="start" x="368" y="-221.792" font-family="Helvetica,sans-Serif" font-size="10.00">statisticsConservation</text>
<text text-anchor="middle" x="417" y="-210.792" font-family="Helvetica,sans-Serif" font-size="10.00">::isDefinedWindow</text>
</a>
</g>
</g>
<!-- Node92&#45;&gt;Node93 -->
<g id="edge2" class="edge"><title>Node92&#45;&gt;Node93</title>
<path fill="none" stroke="midnightblue" d="M297.355,-184.894C315.125,-189.971 335.116,-195.682 353.552,-200.95"/>
<polygon fill="midnightblue" stroke="midnightblue" points="352.743,-204.359 363.319,-203.741 354.666,-197.628 352.743,-204.359"/>
</g>
<!-- Node94 -->
<g id="node4" class="node"><title>Node94</title>
<g id="a_node4"><a xlink:href="classstatistics_conservation.html#a31f6ff0c30b2a207aba13f7687709467" target="_top" xlink:title="Allows us compute the conservationWindow&#39;s values. ">
<polygon fill="white" stroke="black" points="360,-154.792 360,-184.792 474,-184.792 474,-154.792 360,-154.792"/>
<text text-anchor="start" x="368" y="-172.792" font-family="Helvetica,sans-Serif" font-size="10.00">statisticsConservation</text>
<text text-anchor="middle" x="417" y="-161.792" font-family="Helvetica,sans-Serif" font-size="10.00">::applyWindow</text>
</a>
</g>
</g>
<!-- Node92&#45;&gt;Node94 -->
<g id="edge3" class="edge"><title>Node92&#45;&gt;Node94</title>
<path fill="none" stroke="midnightblue" d="M308.36,-169.792C321.869,-169.792 336.154,-169.792 349.748,-169.792"/>
<polygon fill="midnightblue" stroke="midnightblue" points="349.985,-173.292 359.985,-169.792 349.985,-166.292 349.985,-173.292"/>
</g>
<!-- Node95 -->
<g id="node5" class="node"><title>Node95</title>
<g id="a_node5"><a xlink:href="classstatistics_conservation.html#ada98c86595cb14a2e8bc058703aa8066" target="_top" xlink:title="Method to calculate the conservation values of a alignment matrix. ">
<polygon fill="white" stroke="black" points="527,-154.792 527,-184.792 641,-184.792 641,-154.792 527,-154.792"/>
<text text-anchor="start" x="535" y="-172.792" font-family="Helvetica,sans-Serif" font-size="10.00">statisticsConservation</text>
<text text-anchor="middle" x="584" y="-161.792" font-family="Helvetica,sans-Serif" font-size="10.00">::calculateVectors</text>
</a>
</g>
</g>
<!-- Node94&#45;&gt;Node95 -->
<g id="edge4" class="edge"><title>Node94&#45;&gt;Node95</title>
<path fill="none" stroke="midnightblue" d="M474.322,-169.792C487.995,-169.792 502.737,-169.792 516.819,-169.792"/>
<polygon fill="midnightblue" stroke="midnightblue" points="516.932,-173.292 526.932,-169.792 516.932,-166.292 516.932,-173.292"/>
</g>
<!-- Node100 -->
<g id="node10" class="node"><title>Node100</title>
<g id="a_node10"><a xlink:href="class____internal_report_1_1____report_system.html#acd358cbc59625c6e2f47e0b5f825400d" target="_top" xlink:title="Method to report an Error. &#160;It will be displayed if Level &#160;is equal or higher to VerboseLevel::ERROR...">
<polygon fill="white" stroke="black" points="526,-105.792 526,-135.792 642,-135.792 642,-105.792 526,-105.792"/>
<text text-anchor="start" x="534" y="-123.792" font-family="Helvetica,sans-Serif" font-size="10.00">__internalReport::</text>
<text text-anchor="middle" x="584" y="-112.792" font-family="Helvetica,sans-Serif" font-size="10.00">__reportSystem::report</text>
</a>
</g>
</g>
<!-- Node94&#45;&gt;Node100 -->
<g id="edge10" class="edge"><title>Node94&#45;&gt;Node100</title>
<path fill="none" stroke="midnightblue" d="M468.852,-154.691C485.869,-149.637 505.004,-143.955 522.673,-138.707"/>
<polygon fill="midnightblue" stroke="midnightblue" points="523.726,-142.046 532.316,-135.844 521.733,-135.336 523.726,-142.046"/>
</g>
<!-- Node96 -->
<g id="node6" class="node"><title>Node96</title>
<g id="a_node6"><a xlink:href="classstatistics_conservation.html#a9fe3502be02c8d6591a6de2d5f81c337" target="_top" xlink:title="Computes the matrix identity between alignment&#39;s columns. ">
<polygon fill="white" stroke="black" points="678,-110.792 678,-140.792 799,-140.792 799,-110.792 678,-110.792"/>
<text text-anchor="start" x="686" y="-128.792" font-family="Helvetica,sans-Serif" font-size="10.00">statisticsConservation</text>
<text text-anchor="middle" x="738.5" y="-117.792" font-family="Helvetica,sans-Serif" font-size="10.00">::calculateMatrixIdentity</text>
</a>
</g>
</g>
<!-- Node95&#45;&gt;Node96 -->
<g id="edge5" class="edge"><title>Node95&#45;&gt;Node96</title>
<path fill="none" stroke="midnightblue" d="M637.055,-154.773C649.501,-151.182 662.905,-147.315 675.741,-143.611"/>
<polygon fill="midnightblue" stroke="midnightblue" points="676.783,-146.954 685.421,-140.818 674.842,-140.228 676.783,-146.954"/>
</g>
<!-- Node98 -->
<g id="node8" class="node"><title>Node98</title>
<g id="a_node8"><a xlink:href="classnew_alignment.html#a670d5ef1ced9ed6041c3f6afdbd2cc02" target="_top" xlink:title="Alignment type getter. &#160;&#160;See SequenceTypes.">
<polygon fill="white" stroke="black" points="835,-138.292 835,-157.292 998,-157.292 998,-138.292 835,-138.292"/>
<text text-anchor="middle" x="916.5" y="-145.292" font-family="Helvetica,sans-Serif" font-size="10.00">newAlignment::getAlignmentType</text>
</a>
</g>
</g>
<!-- Node95&#45;&gt;Node98 -->
<g id="edge9" class="edge"><title>Node95&#45;&gt;Node98</title>
<path fill="none" stroke="midnightblue" d="M641.065,-166.06C691.378,-162.711 766.134,-157.735 824.923,-153.822"/>
<polygon fill="midnightblue" stroke="midnightblue" points="825.212,-157.31 834.958,-153.154 824.747,-150.326 825.212,-157.31"/>
</g>
<!-- Node96&#45;&gt;Node97 -->
<g id="edge6" class="edge"><title>Node96&#45;&gt;Node97</title>
<path fill="none" stroke="midnightblue" d="M784.368,-110.751C813.121,-101.112 850.037,-88.7372 877.37,-79.5743"/>
<polygon fill="midnightblue" stroke="midnightblue" points="878.605,-82.8519 886.974,-76.3549 876.38,-76.2149 878.605,-82.8519"/>
</g>
<!-- Node96&#45;&gt;Node98 -->
<g id="edge7" class="edge"><title>Node96&#45;&gt;Node98</title>
<path fill="none" stroke="midnightblue" d="M799.086,-133.24C808.809,-134.456 819.05,-135.736 829.26,-137.012"/>
<polygon fill="midnightblue" stroke="midnightblue" points="829.082,-140.517 839.439,-138.285 829.951,-133.571 829.082,-140.517"/>
</g>
<!-- Node99 -->
<g id="node9" class="node"><title>Node99</title>
<g id="a_node9"><a xlink:href="classutils.html#a1f1dcbfa7276e54acec72bdbae1b1255" target="_top" xlink:title="Checks an alignment type. ">
<polygon fill="white" stroke="black" points="1034,-138.292 1034,-157.292 1166,-157.292 1166,-138.292 1034,-138.292"/>
<text text-anchor="middle" x="1100" y="-145.292" font-family="Helvetica,sans-Serif" font-size="10.00">utils::checkAlignmentType</text>
</a>
</g>
</g>
<!-- Node98&#45;&gt;Node99 -->
<g id="edge8" class="edge"><title>Node98&#45;&gt;Node99</title>
<path fill="none" stroke="midnightblue" d="M998.166,-147.792C1006.65,-147.792 1015.25,-147.792 1023.66,-147.792"/>
<polygon fill="midnightblue" stroke="midnightblue" points="1023.82,-151.292 1033.82,-147.792 1023.82,-144.292 1023.82,-151.292"/>
</g>
<!-- Node102 -->
<g id="node12" class="node"><title>Node102</title>
<g id="a_node12"><a xlink:href="classutils.html#a3377ecde55631d1bbc4956e5923b7469" target="_top" xlink:title="Swapping elements method. ">
<polygon fill="white" stroke="black" points="385,-29.2922 385,-48.2922 449,-48.2922 449,-29.2922 385,-29.2922"/>
<text text-anchor="middle" x="417" y="-36.2922" font-family="Helvetica,sans-Serif" font-size="10.00">utils::swap</text>
</a>
</g>
</g>
<!-- Node101&#45;&gt;Node102 -->
<g id="edge13" class="edge"><title>Node101&#45;&gt;Node102</title>
<path fill="none" stroke="midnightblue" d="M283.846,-38.7922C311.029,-38.7922 347.116,-38.7922 374.711,-38.7922"/>
<polygon fill="midnightblue" stroke="midnightblue" points="374.835,-42.2923 384.835,-38.7922 374.835,-35.2923 374.835,-42.2923"/>
</g>
<!-- Node104 -->
<g id="node14" class="node"><title>Node104</title>
<g id="a_node14"><a xlink:href="classutils.html#ad50731aeb3c8f79ed8372516210dfc9d" target="_top" xlink:title="Round double to integer method. ">
<polygon fill="white" stroke="black" points="379,-67.2922 379,-86.2922 455,-86.2922 455,-67.2922 379,-67.2922"/>
<text text-anchor="middle" x="417" y="-74.2922" font-family="Helvetica,sans-Serif" font-size="10.00">utils::roundInt</text>
</a>
</g>
</g>
<!-- Node103&#45;&gt;Node104 -->
<g id="edge15" class="edge"><title>Node103&#45;&gt;Node104</title>
<path fill="none" stroke="midnightblue" d="M295.028,-76.7922C318.334,-76.7922 345.841,-76.7922 368.732,-76.7922"/>
<polygon fill="midnightblue" stroke="midnightblue" points="368.893,-80.2923 378.893,-76.7922 368.893,-73.2923 368.893,-80.2923"/>
</g>
<!-- Node105 -->
<g id="node15" class="node"><title>Node105</title>
<g id="a_node15"><a xlink:href="class_cleaner.html#ada8ad076dd037f00ae3f4fd17762641f" target="_top" xlink:title="Method that identifies and removes columns and sequences composed only by gaps. ">
<polygon fill="white" stroke="black" points="344,-105.792 344,-135.792 490,-135.792 490,-105.792 344,-105.792"/>
<text text-anchor="start" x="352" y="-123.792" font-family="Helvetica,sans-Serif" font-size="10.00">Cleaner::removeAllGapsSeqs</text>
<text text-anchor="middle" x="417" y="-112.792" font-family="Helvetica,sans-Serif" font-size="10.00">AndCols</text>
</a>
</g>
</g>
<!-- Node103&#45;&gt;Node105 -->
<g id="edge16" class="edge"><title>Node103&#45;&gt;Node105</title>
<path fill="none" stroke="midnightblue" d="M281.713,-86.3396C300.936,-91.2714 325.01,-97.448 347.447,-103.204"/>
<polygon fill="midnightblue" stroke="midnightblue" points="346.723,-106.632 357.279,-105.727 348.463,-99.8515 346.723,-106.632"/>
</g>
<!-- Node105&#45;&gt;Node100 -->
<g id="edge17" class="edge"><title>Node105&#45;&gt;Node100</title>
<path fill="none" stroke="midnightblue" d="M490.371,-120.792C498.651,-120.792 507.07,-120.792 515.286,-120.792"/>
<polygon fill="midnightblue" stroke="midnightblue" points="515.559,-124.292 525.559,-120.792 515.559,-117.292 515.559,-124.292"/>
</g>
</g>
</svg>
