<?xml version="1.0" encoding="UTF-8" standalone="no"?>
<!DOCTYPE svg PUBLIC "-//W3C//DTD SVG 1.1//EN"
 "http://www.w3.org/Graphics/SVG/1.1/DTD/svg11.dtd">
<!-- Generated by graphviz version 2.40.1 (20161225.0304)
 -->
<!-- Title: statistics::Similarity::getMdkWindowedVector Pages: 1 -->
<svg width="1292pt" height="257pt"
 viewBox="0.00 0.00 1292.00 256.62" xmlns="http://www.w3.org/2000/svg" xmlns:xlink="http://www.w3.org/1999/xlink">
<g id="graph0" class="graph" transform="scale(1 1) rotate(0) translate(4 252.6158)">
<title>statistics::Similarity::getMdkWindowedVector</title>
<polygon fill="#ffffff" stroke="transparent" points="-4,4 -4,-252.6158 1288,-252.6158 1288,4 -4,4"/>
<!-- Node205 -->
<g id="node1" class="node">
<title>Node205</title>
<polygon fill="#bfbfbf" stroke="#000000" points="0,-109.0501 0,-139.0501 129,-139.0501 129,-109.0501 0,-109.0501"/>
<text text-anchor="start" x="8" y="-127.0501" font-family="Helvetica,sans-Serif" font-size="10.00" fill="#000000">statistics::Similarity</text>
<text text-anchor="middle" x="64.5" y="-116.0501" font-family="Helvetica,sans-Serif" font-size="10.00" fill="#000000">::getMdkWindowedVector</text>
</g>
<!-- Node206 -->
<g id="node2" class="node">
<title>Node206</title>
<g id="a_node2"><a xlink:href="class_alignment.html#a3754dfadea173918f5e85b9eb4c3ad8a" target="_top" xlink:title="Method to report the trimming results in HTML. Outputs an HTML file that shows visually what has been...">
<polygon fill="#ffffff" stroke="#000000" points="165,-38.5501 165,-57.5501 342,-57.5501 342,-38.5501 165,-38.5501"/>
<text text-anchor="middle" x="253.5" y="-45.5501" font-family="Helvetica,sans-Serif" font-size="10.00" fill="#000000">Alignment::alignmentSummaryHTML</text>
</a>
</g>
</g>
<!-- Node205&#45;&gt;Node206 -->
<g id="edge1" class="edge">
<title>Node205&#45;&gt;Node206</title>
<path fill="none" stroke="#191970" d="M95.3218,-103.2986C114.6149,-91.1536 140.4008,-76.4134 165,-67.0501 174.987,-63.2487 185.9126,-60.1262 196.5736,-57.5902"/>
<polygon fill="#191970" stroke="#191970" points="93.2043,-100.4985 86.6744,-108.8419 96.9821,-106.3917 93.2043,-100.4985"/>
</g>
<!-- Node212 -->
<g id="node8" class="node">
<title>Node212</title>
<g id="a_node8"><a xlink:href="class_alignment.html#ac4196c026e0f482eaccf9976f82f72e3" target="_top" xlink:title="Method to report the trimming results in SVG. Outputs a SVG file that shows visually what has been do...">
<polygon fill="#ffffff" stroke="#000000" points="168,-76.5501 168,-95.5501 339,-95.5501 339,-76.5501 168,-76.5501"/>
<text text-anchor="middle" x="253.5" y="-83.5501" font-family="Helvetica,sans-Serif" font-size="10.00" fill="#000000">Alignment::alignmentSummarySVG</text>
</a>
</g>
</g>
<!-- Node205&#45;&gt;Node212 -->
<g id="edge7" class="edge">
<title>Node205&#45;&gt;Node212</title>
<path fill="none" stroke="#191970" d="M138.9151,-109.0883C161.4938,-104.5487 185.6763,-99.6866 205.9789,-95.6046"/>
<polygon fill="#191970" stroke="#191970" points="138.1283,-105.6764 129.0145,-111.0789 139.5082,-112.539 138.1283,-105.6764"/>
</g>
<!-- Node213 -->
<g id="node9" class="node">
<title>Node213</title>
<g id="a_node9"><a xlink:href="classstatistics_1_1_similarity.html#a26f430acb8a3240977665de9a9ea875a" target="_top" xlink:title="Computes and selects the cut point values based on similarity&#39;s values. ">
<polygon fill="#ffffff" stroke="#000000" points="202,-191.0501 202,-221.0501 305,-221.0501 305,-191.0501 202,-191.0501"/>
<text text-anchor="start" x="210" y="-209.0501" font-family="Helvetica,sans-Serif" font-size="10.00" fill="#000000">statistics::Similarity</text>
<text text-anchor="middle" x="253.5" y="-198.0501" font-family="Helvetica,sans-Serif" font-size="10.00" fill="#000000">::calcCutPoint</text>
</a>
</g>
</g>
<!-- Node205&#45;&gt;Node213 -->
<g id="edge9" class="edge">
<title>Node205&#45;&gt;Node213</title>
<path fill="none" stroke="#191970" d="M99.7384,-143.942C118.738,-154.2408 142.784,-166.6009 165,-176.0501 177.6897,-181.4474 191.7093,-186.5679 204.7767,-191.0004"/>
<polygon fill="#191970" stroke="#191970" points="101.2991,-140.8063 90.8469,-139.0736 97.9373,-146.9462 101.2991,-140.8063"/>
</g>
<!-- Node214 -->
<g id="node10" class="node">
<title>Node214</title>
<g id="a_node10"><a xlink:href="class_cleaner.html#a4718e31c0183b5a98751d77479faacf0" target="_top" xlink:title="Method to trim an alignment based on the similarity and gaps distribution values. ...">
<polygon fill="#ffffff" stroke="#000000" points="409.5,-158.5501 409.5,-177.5501 489.5,-177.5501 489.5,-158.5501 409.5,-158.5501"/>
<text text-anchor="middle" x="449.5" y="-165.5501" font-family="Helvetica,sans-Serif" font-size="10.00" fill="#000000">Cleaner::clean</text>
</a>
</g>
</g>
<!-- Node205&#45;&gt;Node214 -->
<g id="edge17" class="edge">
<title>Node205&#45;&gt;Node214</title>
<path fill="none" stroke="#191970" d="M139.2135,-134.7392C147.902,-135.8988 156.6422,-137.0276 165,-138.0501 252.0121,-148.6952 354.2785,-158.9221 409.4041,-164.2473"/>
<polygon fill="#191970" stroke="#191970" points="139.4422,-131.2384 129.0636,-133.3682 138.5051,-138.1754 139.4422,-131.2384"/>
</g>
<!-- Node217 -->
<g id="node13" class="node">
<title>Node217</title>
<g id="a_node13"><a xlink:href="class_cleaner.html#a9cdbd6ebf78a284dd065b31319795b0c" target="_top" xlink:title="Method to trim an alignment based on the similarity distribution values. ">
<polygon fill="#ffffff" stroke="#000000" points="381,-196.5501 381,-215.5501 518,-215.5501 518,-196.5501 381,-196.5501"/>
<text text-anchor="middle" x="449.5" y="-203.5501" font-family="Helvetica,sans-Serif" font-size="10.00" fill="#000000">Cleaner::cleanConservation</text>
</a>
</g>
</g>
<!-- Node205&#45;&gt;Node217 -->
<g id="edge21" class="edge">
<title>Node205&#45;&gt;Node217</title>
<path fill="none" stroke="#191970" d="M78.2482,-147.5977C94.9697,-173.6303 125.8739,-214.121 165,-231.0501 254.6463,-269.8381 374.7961,-234.1245 425.416,-215.6025"/>
<polygon fill="#191970" stroke="#191970" points="81.1884,-145.698 72.9348,-139.055 75.2443,-149.395 81.1884,-145.698"/>
</g>
<!-- Node218 -->
<g id="node14" class="node">
<title>Node218</title>
<g id="a_node14"><a xlink:href="class_cleaner.html#a6727a235afa29f08a50716f28fa5c8fc" target="_top" xlink:title="Method to clean an alignment. It carries out strict and strictplus. The method: ">
<polygon fill="#ffffff" stroke="#000000" points="378,-114.5501 378,-133.5501 521,-133.5501 521,-114.5501 378,-114.5501"/>
<text text-anchor="middle" x="449.5" y="-121.5501" font-family="Helvetica,sans-Serif" font-size="10.00" fill="#000000">Cleaner::cleanCombMethods</text>
</a>
</g>
</g>
<!-- Node205&#45;&gt;Node218 -->
<g id="edge18" class="edge">
<title>Node205&#45;&gt;Node218</title>
<path fill="none" stroke="#191970" d="M139.7255,-124.0501C208.6594,-124.0501 310.011,-124.0501 377.8082,-124.0501"/>
<polygon fill="#191970" stroke="#191970" points="139.3747,-120.5502 129.3746,-124.0501 139.3746,-127.5502 139.3747,-120.5502"/>
</g>
<!-- Node220 -->
<g id="node16" class="node">
<title>Node220</title>
<g id="a_node16"><a xlink:href="class_alignment.html#a724218d5e7d168974d9abcafcde632a1" target="_top" xlink:title="Alignment::statSVG">
<polygon fill="#ffffff" stroke="#000000" points="397.5,-.5501 397.5,-19.5501 501.5,-19.5501 501.5,-.5501 397.5,-.5501"/>
<text text-anchor="middle" x="449.5" y="-7.5501" font-family="Helvetica,sans-Serif" font-size="10.00" fill="#000000">Alignment::statSVG</text>
</a>
</g>
</g>
<!-- Node205&#45;&gt;Node220 -->
<g id="edge22" class="edge">
<title>Node205&#45;&gt;Node220</title>
<path fill="none" stroke="#191970" d="M81.2824,-100.6925C99.1527,-77.9026 129.69,-44.48 165,-29.0501 240.6387,4.003 338.4477,2.058 397.4531,-3.3156"/>
<polygon fill="#191970" stroke="#191970" points="78.3462,-98.7711 75.0701,-108.8467 83.9144,-103.0132 78.3462,-98.7711"/>
</g>
<!-- Node207 -->
<g id="node3" class="node">
<title>Node207</title>
<g id="a_node3"><a xlink:href="classtrim_al_manager.html#a1da8f8b677f19ed8f7e08a663d97bb92" target="_top" xlink:title="trimAlManager::output\l_reports">
<polygon fill="#ffffff" stroke="#000000" points="587,-59.0501 587,-89.0501 700,-89.0501 700,-59.0501 587,-59.0501"/>
<text text-anchor="start" x="595" y="-77.0501" font-family="Helvetica,sans-Serif" font-size="10.00" fill="#000000">trimAlManager::output</text>
<text text-anchor="middle" x="643.5" y="-66.0501" font-family="Helvetica,sans-Serif" font-size="10.00" fill="#000000">_reports</text>
</a>
</g>
</g>
<!-- Node206&#45;&gt;Node207 -->
<g id="edge2" class="edge">
<title>Node206&#45;&gt;Node207</title>
<path fill="none" stroke="#191970" d="M352.7802,-54.6687C426.9431,-59.6129 525.671,-66.1948 586.877,-70.2752"/>
<polygon fill="#191970" stroke="#191970" points="352.6957,-51.1554 342.485,-53.9824 352.23,-58.1399 352.6957,-51.1554"/>
</g>
<!-- Node208 -->
<g id="node4" class="node">
<title>Node208</title>
<g id="a_node4"><a xlink:href="classtrim_al_manager.html#a7c641a1feff33d401b4ea5c82e989289" target="_top" xlink:title="trimAlManager::innerPerform">
<polygon fill="#ffffff" stroke="#000000" points="912.5,-26.5501 912.5,-45.5501 1053.5,-45.5501 1053.5,-26.5501 912.5,-26.5501"/>
<text text-anchor="middle" x="983" y="-33.5501" font-family="Helvetica,sans-Serif" font-size="10.00" fill="#000000">trimAlManager::innerPerform</text>
</a>
</g>
</g>
<!-- Node207&#45;&gt;Node208 -->
<g id="edge3" class="edge">
<title>Node207&#45;&gt;Node208</title>
<path fill="none" stroke="#191970" d="M673.8404,-53.2453C697.6962,-38.2141 732.4047,-19.1826 766,-11.0501 832.3448,5.0103 912.6737,-13.8738 954.5217,-26.5018"/>
<polygon fill="#191970" stroke="#191970" points="671.7633,-50.4199 665.2537,-58.7792 675.5554,-56.3039 671.7633,-50.4199"/>
</g>
<!-- Node211 -->
<g id="node7" class="node">
<title>Node211</title>
<g id="a_node7"><a xlink:href="classtrim_al_manager.html#ac5795f93b3a2b51bf5d8dddd63b89f73" target="_top" xlink:title="trimAlManager::perform_VCF">
<polygon fill="#ffffff" stroke="#000000" points="911,-70.5501 911,-89.5501 1055,-89.5501 1055,-70.5501 911,-70.5501"/>
<text text-anchor="middle" x="983" y="-77.5501" font-family="Helvetica,sans-Serif" font-size="10.00" fill="#000000">trimAlManager::perform_VCF</text>
</a>
</g>
</g>
<!-- Node207&#45;&gt;Node211 -->
<g id="edge6" class="edge">
<title>Node207&#45;&gt;Node211</title>
<path fill="none" stroke="#191970" d="M710.4533,-75.2333C768.2766,-76.2552 851.6268,-77.7283 910.9026,-78.7759"/>
<polygon fill="#191970" stroke="#191970" points="710.385,-71.7317 700.3247,-75.0543 710.2612,-78.7306 710.385,-71.7317"/>
</g>
<!-- Node209 -->
<g id="node5" class="node">
<title>Node209</title>
<g id="a_node5"><a xlink:href="classtrim_al_manager.html#abe8d2841455c644dc9c7d1294b82b00f" target="_top" xlink:title="Method to perform the analysis if all checks have passed. ">
<polygon fill="#ffffff" stroke="#000000" points="1091,-26.5501 1091,-45.5501 1210,-45.5501 1210,-26.5501 1091,-26.5501"/>
<text text-anchor="middle" x="1150.5" y="-33.5501" font-family="Helvetica,sans-Serif" font-size="10.00" fill="#000000">trimAlManager::perform</text>
</a>
</g>
</g>
<!-- Node208&#45;&gt;Node209 -->
<g id="edge4" class="edge">
<title>Node208&#45;&gt;Node209</title>
<path fill="none" stroke="#191970" d="M1063.8102,-36.0501C1072.9363,-36.0501 1082.1089,-36.0501 1090.8939,-36.0501"/>
<polygon fill="#191970" stroke="#191970" points="1063.5497,-32.5502 1053.5496,-36.0501 1063.5496,-39.5502 1063.5497,-32.5502"/>
</g>
<!-- Node210 -->
<g id="node6" class="node">
<title>Node210</title>
<g id="a_node6"><a xlink:href="trim_al_main_8cpp.html#a0ddf1224851353fc92bfbff6f499fa97" target="_top" xlink:title="main">
<polygon fill="#ffffff" stroke="#000000" points="1246,-26.5501 1246,-45.5501 1284,-45.5501 1284,-26.5501 1246,-26.5501"/>
<text text-anchor="middle" x="1265" y="-33.5501" font-family="Helvetica,sans-Serif" font-size="10.00" fill="#000000">main</text>
</a>
</g>
</g>
<!-- Node209&#45;&gt;Node210 -->
<g id="edge5" class="edge">
<title>Node209&#45;&gt;Node210</title>
<path fill="none" stroke="#191970" d="M1220.3198,-36.0501C1229.6177,-36.0501 1238.4503,-36.0501 1245.7697,-36.0501"/>
<polygon fill="#191970" stroke="#191970" points="1220.0976,-32.5502 1210.0976,-36.0501 1220.0975,-39.5502 1220.0976,-32.5502"/>
</g>
<!-- Node212&#45;&gt;Node207 -->
<g id="edge8" class="edge">
<title>Node212&#45;&gt;Node207</title>
<path fill="none" stroke="#191970" d="M349.4129,-83.0989C423.8737,-80.8078 524.5858,-77.709 586.7344,-75.7967"/>
<polygon fill="#191970" stroke="#191970" points="348.9748,-79.6106 339.0872,-83.4166 349.1901,-86.6073 348.9748,-79.6106"/>
</g>
<!-- Node213&#45;&gt;Node214 -->
<g id="edge10" class="edge">
<title>Node213&#45;&gt;Node214</title>
<path fill="none" stroke="#191970" d="M315.423,-194.0446C346.0928,-188.0984 382.2416,-181.09 409.2714,-175.8495"/>
<polygon fill="#191970" stroke="#191970" points="314.4041,-190.6769 305.2531,-196.0163 315.7365,-197.5489 314.4041,-190.6769"/>
</g>
<!-- Node213&#45;&gt;Node217 -->
<g id="edge15" class="edge">
<title>Node213&#45;&gt;Node217</title>
<path fill="none" stroke="#191970" d="M315.2586,-206.0501C336.0975,-206.0501 359.4813,-206.0501 380.8218,-206.0501"/>
<polygon fill="#191970" stroke="#191970" points="315.2531,-202.5502 305.2531,-206.0501 315.253,-209.5502 315.2531,-202.5502"/>
</g>
<!-- Node215 -->
<g id="node11" class="node">
<title>Node215</title>
<g id="a_node11"><a xlink:href="classtrim_al_manager.html#aebfd21b0435302f0e4fc45a068d1b6ee" target="_top" xlink:title="Method to trim the alignment using non automatic methods: ">
<polygon fill="#ffffff" stroke="#000000" points="567.5,-153.0501 567.5,-183.0501 719.5,-183.0501 719.5,-153.0501 567.5,-153.0501"/>
<text text-anchor="start" x="575.5" y="-171.0501" font-family="Helvetica,sans-Serif" font-size="10.00" fill="#000000">trimAlManager::CleanResidues</text>
<text text-anchor="middle" x="643.5" y="-160.0501" font-family="Helvetica,sans-Serif" font-size="10.00" fill="#000000">NonAuto</text>
</a>
</g>
</g>
<!-- Node214&#45;&gt;Node215 -->
<g id="edge11" class="edge">
<title>Node214&#45;&gt;Node215</title>
<path fill="none" stroke="#191970" d="M499.7838,-168.0501C520.3575,-168.0501 544.6146,-168.0501 567.2829,-168.0501"/>
<polygon fill="#191970" stroke="#191970" points="499.697,-164.5502 489.6969,-168.0501 499.6969,-171.5502 499.697,-164.5502"/>
</g>
<!-- Node216 -->
<g id="node12" class="node">
<title>Node216</title>
<g id="a_node12"><a xlink:href="classtrim_al_manager.html#adc529dd893ed4e9df6f3ddbd58776068" target="_top" xlink:title="Core Method of the program. This is where almost all cleaning methods are called from. ">
<polygon fill="#ffffff" stroke="#000000" points="766,-109.0501 766,-139.0501 875,-139.0501 875,-109.0501 766,-109.0501"/>
<text text-anchor="start" x="774" y="-127.0501" font-family="Helvetica,sans-Serif" font-size="10.00" fill="#000000">trimAlManager::clean</text>
<text text-anchor="middle" x="820.5" y="-116.0501" font-family="Helvetica,sans-Serif" font-size="10.00" fill="#000000">_alignment</text>
</a>
</g>
</g>
<!-- Node215&#45;&gt;Node216 -->
<g id="edge12" class="edge">
<title>Node215&#45;&gt;Node216</title>
<path fill="none" stroke="#191970" d="M713.9793,-150.5298C731.2915,-146.2262 749.5645,-141.6837 765.9942,-137.5995"/>
<polygon fill="#191970" stroke="#191970" points="712.7786,-147.2217 703.9183,-153.0308 714.4673,-154.0149 712.7786,-147.2217"/>
</g>
<!-- Node216&#45;&gt;Node208 -->
<g id="edge13" class="edge">
<title>Node216&#45;&gt;Node208</title>
<path fill="none" stroke="#191970" d="M846.9725,-102.7156C864.3958,-89.4254 888.1316,-72.6999 911,-61.0501 923.0261,-54.9236 936.8991,-49.7104 949.2381,-45.6552"/>
<polygon fill="#191970" stroke="#191970" points="844.7182,-100.0346 838.9578,-108.9267 849.0061,-105.5676 844.7182,-100.0346"/>
</g>
<!-- Node216&#45;&gt;Node211 -->
<g id="edge14" class="edge">
<title>Node216&#45;&gt;Node211</title>
<path fill="none" stroke="#191970" d="M884.7756,-106.6462C906.219,-100.84 929.3134,-94.5867 947.718,-89.6033"/>
<polygon fill="#191970" stroke="#191970" points="883.7998,-103.2843 875.0622,-109.2763 885.6294,-110.041 883.7998,-103.2843"/>
</g>
<!-- Node217&#45;&gt;Node215 -->
<g id="edge16" class="edge">
<title>Node217&#45;&gt;Node215</title>
<path fill="none" stroke="#191970" d="M508.5105,-194.4913C527.0577,-190.8583 547.8057,-186.7943 567.3655,-182.963"/>
<polygon fill="#191970" stroke="#191970" points="507.5951,-191.104 498.4544,-196.4611 508.9407,-197.9735 507.5951,-191.104"/>
</g>
<!-- Node219 -->
<g id="node15" class="node">
<title>Node219</title>
<g id="a_node15"><a xlink:href="classtrim_al_manager.html#a69082911b30a1bd12395bb235bc18a34" target="_top" xlink:title="Method to trim the alignment using automatic or semi&#45;automatic methods: ">
<polygon fill="#ffffff" stroke="#000000" points="557,-114.5501 557,-133.5501 730,-133.5501 730,-114.5501 557,-114.5501"/>
<text text-anchor="middle" x="643.5" y="-121.5501" font-family="Helvetica,sans-Serif" font-size="10.00" fill="#000000">trimAlManager::CleanResiduesAuto</text>
</a>
</g>
</g>
<!-- Node218&#45;&gt;Node219 -->
<g id="edge19" class="edge">
<title>Node218&#45;&gt;Node219</title>
<path fill="none" stroke="#191970" d="M531.4097,-124.0501C539.8688,-124.0501 548.4848,-124.0501 556.9919,-124.0501"/>
<polygon fill="#191970" stroke="#191970" points="531.1873,-120.5502 521.1873,-124.0501 531.1872,-127.5502 531.1873,-120.5502"/>
</g>
<!-- Node219&#45;&gt;Node216 -->
<g id="edge20" class="edge">
<title>Node219&#45;&gt;Node216</title>
<path fill="none" stroke="#191970" d="M740.3747,-124.0501C749.0296,-124.0501 757.5767,-124.0501 765.6809,-124.0501"/>
<polygon fill="#191970" stroke="#191970" points="740.1852,-120.5502 730.1852,-124.0501 740.1851,-127.5502 740.1852,-120.5502"/>
</g>
<!-- Node221 -->
<g id="node17" class="node">
<title>Node221</title>
<g id="a_node17"><a xlink:href="classtrim_al_manager.html#a63d5bec0938516a2129ccb04276b93d9" target="_top" xlink:title="trimAlManager::svg\l_stats_out">
<polygon fill="#ffffff" stroke="#000000" points="770,-21.0501 770,-51.0501 871,-51.0501 871,-21.0501 770,-21.0501"/>
<text text-anchor="start" x="778" y="-39.0501" font-family="Helvetica,sans-Serif" font-size="10.00" fill="#000000">trimAlManager::svg</text>
<text text-anchor="middle" x="820.5" y="-28.0501" font-family="Helvetica,sans-Serif" font-size="10.00" fill="#000000">_stats_out</text>
</a>
</g>
</g>
<!-- Node220&#45;&gt;Node221 -->
<g id="edge23" class="edge">
<title>Node220&#45;&gt;Node221</title>
<path fill="none" stroke="#191970" d="M512.235,-14.4466C584.8134,-19.5329 702.8942,-27.8081 769.8849,-32.5029"/>
<polygon fill="#191970" stroke="#191970" points="512.0886,-10.9278 501.8684,-13.7201 511.5992,-17.9107 512.0886,-10.9278"/>
</g>
<!-- Node221&#45;&gt;Node208 -->
<g id="edge24" class="edge">
<title>Node221&#45;&gt;Node208</title>
<path fill="none" stroke="#191970" d="M881.3324,-36.0501C891.4057,-36.0501 901.9269,-36.0501 912.22,-36.0501"/>
<polygon fill="#191970" stroke="#191970" points="881.0253,-32.5502 871.0253,-36.0501 881.0252,-39.5502 881.0253,-32.5502"/>
</g>
<!-- Node221&#45;&gt;Node211 -->
<g id="edge25" class="edge">
<title>Node221&#45;&gt;Node211</title>
<path fill="none" stroke="#191970" d="M880.8453,-52.3897C903.3607,-58.4862 928.174,-65.2049 947.7071,-70.4938"/>
<polygon fill="#191970" stroke="#191970" points="881.5925,-48.966 871.0253,-49.7307 879.7629,-55.7227 881.5925,-48.966"/>
</g>
</g>
</svg>
