<?xml version="1.0" encoding="UTF-8" standalone="no"?>
<!DOCTYPE svg PUBLIC "-//W3C//DTD SVG 1.1//EN"
 "http://www.w3.org/Graphics/SVG/1.1/DTD/svg11.dtd">
<!-- Generated by graphviz version 2.38.0 (20140413.2041)
 -->
<!-- Title: trimAlManager::check_arguments_needs Pages: 1 -->
<svg width="743pt" height="953pt"
 viewBox="0.00 0.00 743.00 952.50" xmlns="http://www.w3.org/2000/svg" xmlns:xlink="http://www.w3.org/1999/xlink">
<g id="graph0" class="graph" transform="scale(1 1) rotate(0) translate(4 948.5)">
<title>trimAlManager::check_arguments_needs</title>
<polygon fill="white" stroke="none" points="-4,4 -4,-948.5 739,-948.5 739,4 -4,4"/>
<!-- Node37 -->
<g id="node1" class="node"><title>Node37</title>
<polygon fill="#bfbfbf" stroke="black" points="0,-500 0,-530 112,-530 112,-500 0,-500"/>
<text text-anchor="start" x="8" y="-518" font-family="Helvetica,sans-Serif" font-size="10.00">trimAlManager::check</text>
<text text-anchor="middle" x="56" y="-507" font-family="Helvetica,sans-Serif" font-size="10.00">_arguments_needs</text>
</g>
<!-- Node38 -->
<g id="node2" class="node"><title>Node38</title>
<g id="a_node2"><a xlink:href="classtrim_al_manager.html#abb94df3621dbe1859675bb385d3d5b7d" target="_top" xlink:title="Method to check dependency of force select argument. ">
<polygon fill="white" stroke="black" points="398,-756 398,-786 510,-786 510,-756 398,-756"/>
<text text-anchor="start" x="406" y="-774" font-family="Helvetica,sans-Serif" font-size="10.00">trimAlManager::check</text>
<text text-anchor="middle" x="454" y="-763" font-family="Helvetica,sans-Serif" font-size="10.00">_force_selection</text>
</a>
</g>
</g>
<!-- Node37&#45;&gt;Node38 -->
<g id="edge1" class="edge"><title>Node37&#45;&gt;Node38</title>
<path fill="none" stroke="midnightblue" d="M59.1345,-530.113C65.3012,-567.766 86.7855,-666.164 148,-714 166.686,-728.602 303.976,-750.085 387.863,-762.074"/>
<polygon fill="midnightblue" stroke="midnightblue" points="387.424,-765.547 397.817,-763.488 388.408,-758.616 387.424,-765.547"/>
</g>
<!-- Node40 -->
<g id="node4" class="node"><title>Node40</title>
<g id="a_node4"><a xlink:href="classtrim_al_manager.html#a640fb579367d6ea2e45265cacf57a3ef" target="_top" xlink:title="Method to check dependency between custom coding sequence file and infile arguments. ">
<polygon fill="white" stroke="black" points="395,-619.5 395,-660.5 513,-660.5 513,-619.5 395,-619.5"/>
<text text-anchor="start" x="403" y="-648.5" font-family="Helvetica,sans-Serif" font-size="10.00">trimAlManager::check</text>
<text text-anchor="start" x="403" y="-637.5" font-family="Helvetica,sans-Serif" font-size="10.00">_input_file_with_coding</text>
<text text-anchor="middle" x="454" y="-626.5" font-family="Helvetica,sans-Serif" font-size="10.00">_sequences_argument</text>
</a>
</g>
</g>
<!-- Node37&#45;&gt;Node40 -->
<g id="edge3" class="edge"><title>Node37&#45;&gt;Node40</title>
<path fill="none" stroke="midnightblue" d="M79.7039,-530.033C97.6108,-541.31 123.559,-556.396 148,-566 226.543,-596.864 321.685,-617.468 384.593,-628.93"/>
<polygon fill="midnightblue" stroke="midnightblue" points="384.331,-632.439 394.791,-630.76 385.567,-625.549 384.331,-632.439"/>
</g>
<!-- Node41 -->
<g id="node5" class="node"><title>Node41</title>
<g id="a_node5"><a xlink:href="classtrim_al_manager.html#a3beec34d7074f4a67ccaf4e8bb875122" target="_top" xlink:title="Method to check if an alignment needs to be aligned depending on the methods that have been asked to ...">
<polygon fill="white" stroke="black" points="181.5,-384 181.5,-414 293.5,-414 293.5,-384 181.5,-384"/>
<text text-anchor="start" x="189.5" y="-402" font-family="Helvetica,sans-Serif" font-size="10.00">trimAlManager::check</text>
<text text-anchor="middle" x="237.5" y="-391" font-family="Helvetica,sans-Serif" font-size="10.00">_file_aligned</text>
</a>
</g>
</g>
<!-- Node37&#45;&gt;Node41 -->
<g id="edge5" class="edge"><title>Node37&#45;&gt;Node41</title>
<path fill="none" stroke="midnightblue" d="M68.1681,-499.722C83.7876,-479.444 114.079,-443.891 148,-424 155.325,-419.704 163.427,-416.115 171.666,-413.123"/>
<polygon fill="midnightblue" stroke="midnightblue" points="172.99,-416.371 181.363,-409.879 170.769,-409.732 172.99,-416.371"/>
</g>
<!-- Node43 -->
<g id="node7" class="node"><title>Node43</title>
<g id="a_node7"><a xlink:href="classtrim_al_manager.html#af66e0cf7f3819c3481c22067b8eb78d4" target="_top" xlink:title="Method to check if given a similarity matrix, there is a need to use it. ">
<polygon fill="white" stroke="black" points="398,-570 398,-600 510,-600 510,-570 398,-570"/>
<text text-anchor="start" x="406" y="-588" font-family="Helvetica,sans-Serif" font-size="10.00">trimAlManager::check</text>
<text text-anchor="middle" x="454" y="-577" font-family="Helvetica,sans-Serif" font-size="10.00">_similarity_matrix</text>
</a>
</g>
</g>
<!-- Node37&#45;&gt;Node43 -->
<g id="edge8" class="edge"><title>Node37&#45;&gt;Node43</title>
<path fill="none" stroke="midnightblue" d="M112.15,-529.829C123.933,-532.747 136.342,-535.634 148,-538 230.191,-554.68 325.905,-568.535 387.873,-576.782"/>
<polygon fill="midnightblue" stroke="midnightblue" points="387.529,-580.267 397.901,-578.107 388.446,-573.327 387.529,-580.267"/>
</g>
<!-- Node44 -->
<g id="node8" class="node"><title>Node44</title>
<g id="a_node8"><a xlink:href="classtrim_al_manager.html#abbaa9a8505b45e825e55d6d163878d06" target="_top" xlink:title="Method to check if both output patterns (alignment output and html report output) are the same...">
<polygon fill="white" stroke="black" points="398,-521 398,-551 510,-551 510,-521 398,-521"/>
<text text-anchor="start" x="406" y="-539" font-family="Helvetica,sans-Serif" font-size="10.00">trimAlManager::check</text>
<text text-anchor="middle" x="454" y="-528" font-family="Helvetica,sans-Serif" font-size="10.00">_outputs_coincidence</text>
</a>
</g>
</g>
<!-- Node37&#45;&gt;Node44 -->
<g id="edge10" class="edge"><title>Node37&#45;&gt;Node44</title>
<path fill="none" stroke="midnightblue" d="M112.062,-517.92C184.265,-521.749 310.767,-528.457 387.713,-532.538"/>
<polygon fill="midnightblue" stroke="midnightblue" points="387.597,-536.037 397.769,-533.071 387.968,-529.046 387.597,-536.037"/>
</g>
<!-- Node45 -->
<g id="node9" class="node"><title>Node45</title>
<g id="a_node9"><a xlink:href="classtrim_al_manager.html#ab06dfadf8538ec6782a704b11e6d150a" target="_top" xlink:title="Method to check if column numbering makes sense based on the functionality asked. ...">
<polygon fill="white" stroke="black" points="398,-472 398,-502 510,-502 510,-472 398,-472"/>
<text text-anchor="start" x="406" y="-490" font-family="Helvetica,sans-Serif" font-size="10.00">trimAlManager::check</text>
<text text-anchor="middle" x="454" y="-479" font-family="Helvetica,sans-Serif" font-size="10.00">_col_numbering</text>
</a>
</g>
</g>
<!-- Node37&#45;&gt;Node45 -->
<g id="edge12" class="edge"><title>Node37&#45;&gt;Node45</title>
<path fill="none" stroke="midnightblue" d="M112.062,-511.107C184.265,-506.001 310.767,-497.057 387.713,-491.616"/>
<polygon fill="midnightblue" stroke="midnightblue" points="388.04,-495.102 397.769,-490.905 387.547,-488.119 388.04,-495.102"/>
</g>
<!-- Node46 -->
<g id="node10" class="node"><title>Node46</title>
<g id="a_node10"><a xlink:href="classtrim_al_manager.html#ab8cd1b2685c225bec9421f055536d853" target="_top" xlink:title="Method to check if both of them (residue overlap and sequence overlap) have been defined by the user ...">
<polygon fill="white" stroke="black" points="393,-297.5 393,-338.5 515,-338.5 515,-297.5 393,-297.5"/>
<text text-anchor="start" x="401" y="-326.5" font-family="Helvetica,sans-Serif" font-size="10.00">trimAlManager::check</text>
<text text-anchor="start" x="401" y="-315.5" font-family="Helvetica,sans-Serif" font-size="10.00">_residue_and_sequence</text>
<text text-anchor="middle" x="454" y="-304.5" font-family="Helvetica,sans-Serif" font-size="10.00">_overlap</text>
</a>
</g>
</g>
<!-- Node37&#45;&gt;Node46 -->
<g id="edge14" class="edge"><title>Node37&#45;&gt;Node46</title>
<path fill="none" stroke="midnightblue" d="M62.2021,-499.845C73.099,-470.545 101.256,-406.27 148,-375 218.125,-328.089 316.606,-317.244 382.5,-315.892"/>
<polygon fill="midnightblue" stroke="midnightblue" points="382.834,-319.388 392.786,-315.753 382.739,-312.389 382.834,-319.388"/>
</g>
<!-- Node47 -->
<g id="node11" class="node"><title>Node47</title>
<g id="a_node11"><a xlink:href="classtrim_al_manager.html#af5b7eb54478c5ea21410381d52052e14" target="_top" xlink:title="Method to check if, being asked to give an HTML report, it makes logic, depending on the functionalit...">
<polygon fill="white" stroke="black" points="181.5,-273 181.5,-303 293.5,-303 293.5,-273 181.5,-273"/>
<text text-anchor="start" x="189.5" y="-291" font-family="Helvetica,sans-Serif" font-size="10.00">trimAlManager::check</text>
<text text-anchor="middle" x="237.5" y="-280" font-family="Helvetica,sans-Serif" font-size="10.00">_output_relevance</text>
</a>
</g>
</g>
<!-- Node37&#45;&gt;Node47 -->
<g id="edge16" class="edge"><title>Node37&#45;&gt;Node47</title>
<path fill="none" stroke="midnightblue" d="M61.0107,-499.879C70.6747,-466.015 98.2095,-383.128 148,-333 158.263,-322.667 171.392,-314.253 184.377,-307.617"/>
<polygon fill="midnightblue" stroke="midnightblue" points="186.273,-310.589 193.764,-303.097 183.236,-304.282 186.273,-310.589"/>
</g>
<!-- Node48 -->
<g id="node12" class="node"><title>Node48</title>
<g id="a_node12"><a xlink:href="classtrim_al_manager.html#a4783de3644b5e5c6cb7f611f835c5ac2" target="_top" xlink:title="Method to check if there is an output file to allow statistics to be given on terminal. ">
<polygon fill="white" stroke="black" points="170,-914 170,-944 305,-944 305,-914 170,-914"/>
<text text-anchor="start" x="178" y="-932" font-family="Helvetica,sans-Serif" font-size="10.00">trimAlManager::check</text>
<text text-anchor="middle" x="237.5" y="-921" font-family="Helvetica,sans-Serif" font-size="10.00">_output_file_with_statistics</text>
</a>
</g>
</g>
<!-- Node37&#45;&gt;Node48 -->
<g id="edge18" class="edge"><title>Node37&#45;&gt;Node48</title>
<path fill="none" stroke="midnightblue" d="M58.5286,-530.375C65.3071,-595.546 94.6947,-848.212 148,-904 151.697,-907.869 155.942,-911.153 160.53,-913.94"/>
<polygon fill="midnightblue" stroke="midnightblue" points="159.231,-917.209 169.719,-918.708 162.455,-910.995 159.231,-917.209"/>
</g>
<!-- Node49 -->
<g id="node13" class="node"><title>Node49</title>
<g id="a_node13"><a xlink:href="classtrim_al_manager.html#a27f1472f092b9c3a33a779ef538d11e1" target="_top" xlink:title="Check if only one method, either automatic or manual has been asked. ">
<polygon fill="white" stroke="black" points="148,-864 148,-894 327,-894 327,-864 148,-864"/>
<text text-anchor="start" x="156" y="-882" font-family="Helvetica,sans-Serif" font-size="10.00">trimAlManager::check</text>
<text text-anchor="middle" x="237.5" y="-871" font-family="Helvetica,sans-Serif" font-size="10.00">_automated_manual_incompatibilities</text>
</a>
</g>
</g>
<!-- Node37&#45;&gt;Node49 -->
<g id="edge20" class="edge"><title>Node37&#45;&gt;Node49</title>
<path fill="none" stroke="midnightblue" d="M59.1204,-530.336C67.6521,-589.934 101.273,-805.197 148,-853 149.812,-854.854 151.749,-856.577 153.787,-858.179"/>
<polygon fill="midnightblue" stroke="midnightblue" points="151.854,-861.097 162.105,-863.775 155.762,-855.289 151.854,-861.097"/>
</g>
<!-- Node50 -->
<g id="node14" class="node"><title>Node50</title>
<g id="a_node14"><a xlink:href="classtrim_al_manager.html#a7cab8308b05c5921e61217f9c93fab27" target="_top" xlink:title="Method to check if multiple files comparison has been set correctly. It also perform some calculation...">
<polygon fill="white" stroke="black" points="170.5,-35 170.5,-65 304.5,-65 304.5,-35 170.5,-35"/>
<text text-anchor="start" x="178.5" y="-53" font-family="Helvetica,sans-Serif" font-size="10.00">trimAlManager::check</text>
<text text-anchor="middle" x="237.5" y="-42" font-family="Helvetica,sans-Serif" font-size="10.00">_multiple_files_comparison</text>
</a>
</g>
</g>
<!-- Node37&#45;&gt;Node50 -->
<g id="edge22" class="edge"><title>Node37&#45;&gt;Node50</title>
<path fill="none" stroke="midnightblue" d="M58.0841,-499.565C63.3331,-429.151 88.3333,-139.085 148,-75 151.876,-70.8372 156.387,-67.3488 161.281,-64.4278"/>
<polygon fill="midnightblue" stroke="midnightblue" points="163.127,-67.4157 170.45,-59.7596 159.951,-61.1776 163.127,-67.4157"/>
</g>
<!-- Node51 -->
<g id="node15" class="node"><title>Node51</title>
<g id="a_node15"><a xlink:href="classtrim_al_manager.html#a1b39cb8f30d914ee709305bf9fc12a2a" target="_top" xlink:title="Method to check if the block size is bigger than allowed depending on size of alignment. ">
<polygon fill="white" stroke="black" points="181.5,-674 181.5,-704 293.5,-704 293.5,-674 181.5,-674"/>
<text text-anchor="start" x="189.5" y="-692" font-family="Helvetica,sans-Serif" font-size="10.00">trimAlManager::check</text>
<text text-anchor="middle" x="237.5" y="-681" font-family="Helvetica,sans-Serif" font-size="10.00">_block_size</text>
</a>
</g>
</g>
<!-- Node37&#45;&gt;Node51 -->
<g id="edge23" class="edge"><title>Node37&#45;&gt;Node51</title>
<path fill="none" stroke="midnightblue" d="M64.6656,-530.174C78.3795,-556.093 109.33,-609.352 148,-643 160.109,-653.536 175.052,-662.473 189.189,-669.588"/>
<polygon fill="midnightblue" stroke="midnightblue" points="187.798,-672.803 198.325,-673.999 190.842,-666.499 187.798,-672.803"/>
</g>
<!-- Node53 -->
<g id="node17" class="node"><title>Node53</title>
<g id="a_node17"><a xlink:href="classtrim_al_manager.html#ac2c6938833505b9ded4c84636dee2663" target="_top" xlink:title="Method to check backtranslation needs. ">
<polygon fill="white" stroke="black" points="181.5,-433 181.5,-463 293.5,-463 293.5,-433 181.5,-433"/>
<text text-anchor="start" x="189.5" y="-451" font-family="Helvetica,sans-Serif" font-size="10.00">trimAlManager::check</text>
<text text-anchor="middle" x="237.5" y="-440" font-family="Helvetica,sans-Serif" font-size="10.00">_backtranslations</text>
</a>
</g>
</g>
<!-- Node37&#45;&gt;Node53 -->
<g id="edge26" class="edge"><title>Node37&#45;&gt;Node53</title>
<path fill="none" stroke="midnightblue" d="M97.3153,-499.931C113.12,-494.025 131.409,-487.192 148,-481 160.487,-476.339 173.966,-471.311 186.549,-466.619"/>
<polygon fill="midnightblue" stroke="midnightblue" points="187.818,-469.882 195.965,-463.108 185.372,-463.323 187.818,-469.882"/>
</g>
<!-- Node54 -->
<g id="node18" class="node"><title>Node54</title>
<g id="a_node18"><a xlink:href="classtrim_al_manager.html#ad3e1ebff95c17424f4159e9adb8548ae" target="_top" xlink:title="Method to check the type of sequences present in the backtranslationAlig. ">
<polygon fill="white" stroke="black" points="174,-216 174,-246 301,-246 301,-216 174,-216"/>
<text text-anchor="start" x="182" y="-234" font-family="Helvetica,sans-Serif" font-size="10.00">trimAlManager::check</text>
<text text-anchor="middle" x="237.5" y="-223" font-family="Helvetica,sans-Serif" font-size="10.00">_coding_sequences_type</text>
</a>
</g>
</g>
<!-- Node37&#45;&gt;Node54 -->
<g id="edge29" class="edge"><title>Node37&#45;&gt;Node54</title>
<path fill="none" stroke="midnightblue" d="M58.151,-499.992C62.2252,-457.156 79.648,-332.977 148,-264 153.158,-258.795 159.212,-254.401 165.692,-250.695"/>
<polygon fill="midnightblue" stroke="midnightblue" points="167.444,-253.73 174.748,-246.055 164.252,-247.5 167.444,-253.73"/>
</g>
<!-- Node57 -->
<g id="node21" class="node"><title>Node57</title>
<g id="a_node21"><a xlink:href="classtrim_al_manager.html#a55f0bbc922fb6854118da00a5bfa0c1b" target="_top" xlink:title="Method to check and prepare the coding sequence. ">
<polygon fill="white" stroke="black" points="159.5,-156 159.5,-186 315.5,-186 315.5,-156 159.5,-156"/>
<text text-anchor="start" x="167.5" y="-174" font-family="Helvetica,sans-Serif" font-size="10.00">trimAlManager::check</text>
<text text-anchor="middle" x="237.5" y="-163" font-family="Helvetica,sans-Serif" font-size="10.00">_and_prepare_coding_sequence</text>
</a>
</g>
</g>
<!-- Node37&#45;&gt;Node57 -->
<g id="edge33" class="edge"><title>Node37&#45;&gt;Node57</title>
<path fill="none" stroke="midnightblue" d="M57.0771,-499.991C58.1298,-451.249 67.9081,-295.446 148,-207 153.905,-200.479 161.162,-195.114 168.958,-190.707"/>
<polygon fill="midnightblue" stroke="midnightblue" points="170.624,-193.787 177.945,-186.128 167.446,-187.55 170.624,-193.787"/>
</g>
<!-- Node61 -->
<g id="node25" class="node"><title>Node61</title>
<g id="a_node25"><a xlink:href="classtrim_al_manager.html#ad96c97918919040f8986ba8c26a1f728" target="_top" xlink:title="Method to check if the origAlig and backtranslationAlig are compatible in names to make the backtrans...">
<polygon fill="white" stroke="black" points="181,-84.5 181,-125.5 294,-125.5 294,-84.5 181,-84.5"/>
<text text-anchor="start" x="189" y="-113.5" font-family="Helvetica,sans-Serif" font-size="10.00">trimAlManager::check</text>
<text text-anchor="start" x="189" y="-102.5" font-family="Helvetica,sans-Serif" font-size="10.00">_backtranslation_infile</text>
<text text-anchor="middle" x="237.5" y="-91.5" font-family="Helvetica,sans-Serif" font-size="10.00">_names_corresponde</text>
</a>
</g>
</g>
<!-- Node37&#45;&gt;Node61 -->
<g id="edge38" class="edge"><title>Node37&#45;&gt;Node61</title>
<path fill="none" stroke="midnightblue" d="M56.401,-499.68C55.0826,-445.112 57.6387,-257.593 148,-147 154.524,-139.016 162.921,-132.458 171.938,-127.098"/>
<polygon fill="midnightblue" stroke="midnightblue" points="173.617,-130.169 180.733,-122.319 170.275,-124.018 173.617,-130.169"/>
</g>
<!-- Node65 -->
<g id="node29" class="node"><title>Node65</title>
<g id="a_node29"><a xlink:href="classtrim_al_manager.html#ab6003417954bc032c4f82892d0f38a16" target="_top" xlink:title="Method to check and warn if windowsize and compareset has been given. ">
<polygon fill="white" stroke="black" points="159,-813 159,-843 316,-843 316,-813 159,-813"/>
<text text-anchor="start" x="167" y="-831" font-family="Helvetica,sans-Serif" font-size="10.00">trimAlManager::check</text>
<text text-anchor="middle" x="237.5" y="-820" font-family="Helvetica,sans-Serif" font-size="10.00">_compareset_window_argument</text>
</a>
</g>
</g>
<!-- Node37&#45;&gt;Node65 -->
<g id="edge45" class="edge"><title>Node37&#45;&gt;Node65</title>
<path fill="none" stroke="midnightblue" d="M57.0532,-530.066C58.0671,-577.504 67.8191,-725.246 148,-803 149.504,-804.459 151.087,-805.834 152.736,-807.13"/>
<polygon fill="midnightblue" stroke="midnightblue" points="151.22,-810.326 161.479,-812.972 155.109,-804.506 151.22,-810.326"/>
</g>
<!-- Node66 -->
<g id="node30" class="node"><title>Node66</title>
<g id="a_node30"><a xlink:href="classtrim_al_manager.html#af7c3b97a17c2f5750f9481cc60c17616" target="_top" xlink:title="Method to check if an output format has been given. If no output format has been given, it will use the inFile format. ">
<polygon fill="white" stroke="black" points="181.5,-763 181.5,-793 293.5,-793 293.5,-763 181.5,-763"/>
<text text-anchor="start" x="189.5" y="-781" font-family="Helvetica,sans-Serif" font-size="10.00">trimAlManager::check</text>
<text text-anchor="middle" x="237.5" y="-770" font-family="Helvetica,sans-Serif" font-size="10.00">_output_format</text>
</a>
</g>
</g>
<!-- Node37&#45;&gt;Node66 -->
<g id="edge47" class="edge"><title>Node37&#45;&gt;Node66</title>
<path fill="none" stroke="midnightblue" d="M58.6007,-530.118C63.7215,-570.973 83.3594,-684.7 148,-747 154.873,-753.624 163.24,-758.84 172.056,-762.945"/>
<polygon fill="midnightblue" stroke="midnightblue" points="170.786,-766.208 181.362,-766.834 173.485,-759.749 170.786,-766.208"/>
</g>
<!-- Node39 -->
<g id="node3" class="node"><title>Node39</title>
<g id="a_node3"><a xlink:href="class____internal_report_1_1____report_system.html#acd358cbc59625c6e2f47e0b5f825400d" target="_top" xlink:title="Method to report an Error. &#160;It will be displayed if Level &#160;is equal or higher to VerboseLevel::ERROR...">
<polygon fill="white" stroke="black" points="600,-521 600,-551 716,-551 716,-521 600,-521"/>
<text text-anchor="start" x="608" y="-539" font-family="Helvetica,sans-Serif" font-size="10.00">__internalReport::</text>
<text text-anchor="middle" x="658" y="-528" font-family="Helvetica,sans-Serif" font-size="10.00">__reportSystem::report</text>
</a>
</g>
</g>
<!-- Node38&#45;&gt;Node39 -->
<g id="edge2" class="edge"><title>Node38&#45;&gt;Node39</title>
<path fill="none" stroke="midnightblue" d="M510.261,-759.775C522.625,-755.396 535.017,-749.345 545,-741 603.786,-691.86 636.803,-603.603 650.069,-560.726"/>
<polygon fill="midnightblue" stroke="midnightblue" points="653.438,-561.677 652.951,-551.093 646.732,-559.67 653.438,-561.677"/>
</g>
<!-- Node40&#45;&gt;Node39 -->
<g id="edge4" class="edge"><title>Node40&#45;&gt;Node39</title>
<path fill="none" stroke="midnightblue" d="M513.029,-623.153C523.858,-619.313 534.929,-614.9 545,-610 575.526,-595.148 607.575,-573.239 629.53,-557.113"/>
<polygon fill="midnightblue" stroke="midnightblue" points="631.778,-559.803 637.713,-551.027 627.6,-554.187 631.778,-559.803"/>
</g>
<!-- Node41&#45;&gt;Node39 -->
<g id="edge7" class="edge"><title>Node41&#45;&gt;Node39</title>
<path fill="none" stroke="midnightblue" d="M283.974,-383.98C346.468,-366.139 460.728,-343.751 545,-386 597.357,-412.249 631.502,-475.874 647.13,-511.245"/>
<polygon fill="midnightblue" stroke="midnightblue" points="644.075,-513.005 651.216,-520.831 650.514,-510.26 644.075,-513.005"/>
</g>
<!-- Node42 -->
<g id="node6" class="node"><title>Node42</title>
<g id="a_node6"><a xlink:href="classnew_alignment.html#ab865e218a05742c00d604f4a71ce9e10" target="_top" xlink:title="isAligned getter. ">
<polygon fill="white" stroke="black" points="384,-395.5 384,-414.5 524,-414.5 524,-395.5 384,-395.5"/>
<text text-anchor="middle" x="454" y="-402.5" font-family="Helvetica,sans-Serif" font-size="10.00">newAlignment::isFileAligned</text>
</a>
</g>
</g>
<!-- Node41&#45;&gt;Node42 -->
<g id="edge6" class="edge"><title>Node41&#45;&gt;Node42</title>
<path fill="none" stroke="midnightblue" d="M293.739,-400.545C318.064,-401.226 347.099,-402.038 373.676,-402.781"/>
<polygon fill="midnightblue" stroke="midnightblue" points="373.632,-406.281 383.726,-403.062 373.828,-399.284 373.632,-406.281"/>
</g>
<!-- Node43&#45;&gt;Node39 -->
<g id="edge9" class="edge"><title>Node43&#45;&gt;Node39</title>
<path fill="none" stroke="midnightblue" d="M510.197,-571.611C534.85,-565.631 564.121,-558.53 590.014,-552.249"/>
<polygon fill="midnightblue" stroke="midnightblue" points="590.863,-555.645 599.756,-549.886 589.213,-548.842 590.863,-555.645"/>
</g>
<!-- Node44&#45;&gt;Node39 -->
<g id="edge11" class="edge"><title>Node44&#45;&gt;Node39</title>
<path fill="none" stroke="midnightblue" d="M510.197,-536C534.741,-536 563.863,-536 589.672,-536"/>
<polygon fill="midnightblue" stroke="midnightblue" points="589.756,-539.5 599.756,-536 589.756,-532.5 589.756,-539.5"/>
</g>
<!-- Node45&#45;&gt;Node39 -->
<g id="edge13" class="edge"><title>Node45&#45;&gt;Node39</title>
<path fill="none" stroke="midnightblue" d="M510.197,-500.389C534.85,-506.369 564.121,-513.47 590.014,-519.751"/>
<polygon fill="midnightblue" stroke="midnightblue" points="589.213,-523.158 599.756,-522.114 590.863,-516.355 589.213,-523.158"/>
</g>
<!-- Node46&#45;&gt;Node39 -->
<g id="edge15" class="edge"><title>Node46&#45;&gt;Node39</title>
<path fill="none" stroke="midnightblue" d="M515.171,-335.074C525.803,-339.792 536.253,-345.689 545,-353 597.733,-397.078 632.633,-472.682 648.013,-511.47"/>
<polygon fill="midnightblue" stroke="midnightblue" points="644.801,-512.869 651.667,-520.938 651.331,-510.348 644.801,-512.869"/>
</g>
<!-- Node47&#45;&gt;Node39 -->
<g id="edge17" class="edge"><title>Node47&#45;&gt;Node39</title>
<path fill="none" stroke="midnightblue" d="M287.087,-272.974C351.612,-256.144 466.544,-237.346 545,-288 623.183,-338.478 647.361,-458.115 654.353,-510.588"/>
<polygon fill="midnightblue" stroke="midnightblue" points="650.904,-511.219 655.597,-520.717 657.852,-510.365 650.904,-511.219"/>
</g>
<!-- Node48&#45;&gt;Node39 -->
<g id="edge19" class="edge"><title>Node48&#45;&gt;Node39</title>
<path fill="none" stroke="midnightblue" d="M305.124,-939.872C373.237,-947.032 478.244,-946.577 545,-891 647.353,-805.788 657.496,-627.721 657.56,-561.513"/>
<polygon fill="midnightblue" stroke="midnightblue" points="661.058,-561.16 657.486,-551.185 654.058,-561.21 661.058,-561.16"/>
</g>
<!-- Node49&#45;&gt;Node39 -->
<g id="edge21" class="edge"><title>Node49&#45;&gt;Node39</title>
<path fill="none" stroke="midnightblue" d="M311.406,-894.021C378.985,-903.557 478.788,-905.927 545,-855 639.804,-782.082 654.645,-623.141 656.755,-561.315"/>
<polygon fill="midnightblue" stroke="midnightblue" points="660.255,-561.355 657.012,-551.269 653.257,-561.176 660.255,-561.355"/>
</g>
<!-- Node51&#45;&gt;Node39 -->
<g id="edge25" class="edge"><title>Node51&#45;&gt;Node39</title>
<path fill="none" stroke="midnightblue" d="M277.881,-704.012C339.135,-724.73 459.113,-754.564 545,-708 603.088,-676.507 635.788,-600.395 649.402,-560.826"/>
<polygon fill="midnightblue" stroke="midnightblue" points="652.784,-561.744 652.599,-551.151 646.138,-559.548 652.784,-561.744"/>
</g>
<!-- Node52 -->
<g id="node16" class="node"><title>Node52</title>
<g id="a_node16"><a xlink:href="classnew_alignment.html#ad08d05c08eb66665defed4a16ab08e91" target="_top" xlink:title="Residues number getter. It counts gaps as residue. ">
<polygon fill="white" stroke="black" points="378,-679.5 378,-698.5 530,-698.5 530,-679.5 378,-679.5"/>
<text text-anchor="middle" x="454" y="-686.5" font-family="Helvetica,sans-Serif" font-size="10.00">newAlignment::getNumAminos</text>
</a>
</g>
</g>
<!-- Node51&#45;&gt;Node52 -->
<g id="edge24" class="edge"><title>Node51&#45;&gt;Node52</title>
<path fill="none" stroke="midnightblue" d="M293.739,-689C316.213,-689 342.708,-689 367.57,-689"/>
<polygon fill="midnightblue" stroke="midnightblue" points="367.738,-692.5 377.738,-689 367.738,-685.5 367.738,-692.5"/>
</g>
<!-- Node53&#45;&gt;Node39 -->
<g id="edge27" class="edge"><title>Node53&#45;&gt;Node39</title>
<path fill="none" stroke="midnightblue" d="M293.75,-442.195C356.343,-437.541 460.613,-435.664 545,-463 578.138,-473.734 610.914,-496.972 632.364,-514.363"/>
<polygon fill="midnightblue" stroke="midnightblue" points="630.352,-517.242 640.282,-520.937 634.824,-511.856 630.352,-517.242"/>
</g>
<!-- Node53&#45;&gt;Node42 -->
<g id="edge28" class="edge"><title>Node53&#45;&gt;Node42</title>
<path fill="none" stroke="midnightblue" d="M293.739,-436.926C324.989,-430.662 364.013,-422.839 395.61,-416.505"/>
<polygon fill="midnightblue" stroke="midnightblue" points="396.472,-419.902 405.589,-414.504 395.096,-413.038 396.472,-419.902"/>
</g>
<!-- Node54&#45;&gt;Node39 -->
<g id="edge32" class="edge"><title>Node54&#45;&gt;Node39</title>
<path fill="none" stroke="midnightblue" d="M301.163,-227.42C379.403,-224.233 507.534,-223.64 545,-251 631.135,-313.902 651.051,-453.252 655.636,-510.593"/>
<polygon fill="midnightblue" stroke="midnightblue" points="652.17,-511.192 656.364,-520.921 659.153,-510.7 652.17,-511.192"/>
</g>
<!-- Node55 -->
<g id="node19" class="node"><title>Node55</title>
<g id="a_node19"><a xlink:href="classnew_alignment.html#a670d5ef1ced9ed6041c3f6afdbd2cc02" target="_top" xlink:title="Alignment type getter. &#160;&#160;See SequenceTypes.">
<polygon fill="white" stroke="black" points="372.5,-183.5 372.5,-202.5 535.5,-202.5 535.5,-183.5 372.5,-183.5"/>
<text text-anchor="middle" x="454" y="-190.5" font-family="Helvetica,sans-Serif" font-size="10.00">newAlignment::getAlignmentType</text>
</a>
</g>
</g>
<!-- Node54&#45;&gt;Node55 -->
<g id="edge30" class="edge"><title>Node54&#45;&gt;Node55</title>
<path fill="none" stroke="midnightblue" d="M301.119,-219.907C328.762,-215.01 361.22,-209.259 389.018,-204.335"/>
<polygon fill="midnightblue" stroke="midnightblue" points="389.796,-207.752 399.032,-202.561 388.574,-200.859 389.796,-207.752"/>
</g>
<!-- Node56 -->
<g id="node20" class="node"><title>Node56</title>
<g id="a_node20"><a xlink:href="classutils.html#a1f1dcbfa7276e54acec72bdbae1b1255" target="_top" xlink:title="Checks an alignment type. ">
<polygon fill="white" stroke="black" points="592,-183.5 592,-202.5 724,-202.5 724,-183.5 592,-183.5"/>
<text text-anchor="middle" x="658" y="-190.5" font-family="Helvetica,sans-Serif" font-size="10.00">utils::checkAlignmentType</text>
</a>
</g>
</g>
<!-- Node55&#45;&gt;Node56 -->
<g id="edge31" class="edge"><title>Node55&#45;&gt;Node56</title>
<path fill="none" stroke="midnightblue" d="M535.707,-193C550.885,-193 566.702,-193 581.708,-193"/>
<polygon fill="midnightblue" stroke="midnightblue" points="581.949,-196.5 591.949,-193 581.949,-189.5 581.949,-196.5"/>
</g>
<!-- Node58 -->
<g id="node22" class="node"><title>Node58</title>
<g id="a_node22"><a xlink:href="classnew_alignment.html#ad50ba126247276cd0bf89119e439c483" target="_top" xlink:title="Method to check if the CDS file is correct. Based on nature of residues: DNA/RNA (Most of the residue...">
<polygon fill="white" stroke="black" points="380.5,-134 380.5,-164 527.5,-164 527.5,-134 380.5,-134"/>
<text text-anchor="start" x="388.5" y="-152" font-family="Helvetica,sans-Serif" font-size="10.00">newAlignment::prepareCoding</text>
<text text-anchor="middle" x="454" y="-141" font-family="Helvetica,sans-Serif" font-size="10.00">Sequence</text>
</a>
</g>
</g>
<!-- Node57&#45;&gt;Node58 -->
<g id="edge34" class="edge"><title>Node57&#45;&gt;Node58</title>
<path fill="none" stroke="midnightblue" d="M315.636,-163.089C333.39,-161.268 352.341,-159.324 370.319,-157.48"/>
<polygon fill="midnightblue" stroke="midnightblue" points="370.892,-160.94 380.483,-156.438 370.178,-153.976 370.892,-160.94"/>
</g>
<!-- Node58&#45;&gt;Node39 -->
<g id="edge35" class="edge"><title>Node58&#45;&gt;Node39</title>
<path fill="none" stroke="midnightblue" d="M527.847,-162.031C534.137,-165.21 539.998,-169.142 545,-174 642.025,-268.242 655.445,-444.61 656.968,-510.395"/>
<polygon fill="midnightblue" stroke="midnightblue" points="653.472,-510.72 657.127,-520.665 660.472,-510.612 653.472,-510.72"/>
</g>
<!-- Node59 -->
<g id="node23" class="node"><title>Node59</title>
<g id="a_node23"><a xlink:href="classnew_alignment.html#acfd820148c267a3d698a39758ecf190d" target="_top" xlink:title="Number of sequences getter. ">
<polygon fill="white" stroke="black" points="581,-133.5 581,-152.5 735,-152.5 735,-133.5 581,-133.5"/>
<text text-anchor="middle" x="658" y="-140.5" font-family="Helvetica,sans-Serif" font-size="10.00">newAlignment::getNumSpecies</text>
</a>
</g>
</g>
<!-- Node58&#45;&gt;Node59 -->
<g id="edge36" class="edge"><title>Node58&#45;&gt;Node59</title>
<path fill="none" stroke="midnightblue" d="M527.641,-146.842C541.567,-146.429 556.275,-145.992 570.584,-145.567"/>
<polygon fill="midnightblue" stroke="midnightblue" points="571.025,-149.055 580.916,-145.26 570.817,-142.058 571.025,-149.055"/>
</g>
<!-- Node60 -->
<g id="node24" class="node"><title>Node60</title>
<g id="a_node24"><a xlink:href="classnew_alignment.html#a0db3e76f82a71c7a2fe5b9279f8fa310" target="_top" xlink:title="Getter for the sequences names. ">
<polygon fill="white" stroke="black" points="585,-83.5 585,-102.5 731,-102.5 731,-83.5 585,-83.5"/>
<text text-anchor="middle" x="658" y="-90.5" font-family="Helvetica,sans-Serif" font-size="10.00">newAlignment::getSequences</text>
</a>
</g>
</g>
<!-- Node58&#45;&gt;Node60 -->
<g id="edge37" class="edge"><title>Node58&#45;&gt;Node60</title>
<path fill="none" stroke="midnightblue" d="M509.132,-133.993C541.576,-124.999 582.31,-113.706 612.805,-105.252"/>
<polygon fill="midnightblue" stroke="midnightblue" points="614.027,-108.546 622.728,-102.501 612.156,-101.8 614.027,-108.546"/>
</g>
<!-- Node61&#45;&gt;Node59 -->
<g id="edge39" class="edge"><title>Node61&#45;&gt;Node59</title>
<path fill="none" stroke="midnightblue" d="M294.026,-106.67C355.547,-108.932 457.613,-113.908 545,-124 562.117,-125.977 580.595,-128.817 597.512,-131.702"/>
<polygon fill="midnightblue" stroke="midnightblue" points="597.365,-135.229 607.818,-133.496 598.566,-128.332 597.365,-135.229"/>
</g>
<!-- Node61&#45;&gt;Node60 -->
<g id="edge40" class="edge"><title>Node61&#45;&gt;Node60</title>
<path fill="none" stroke="midnightblue" d="M294.166,-97.3931C315.632,-94.8138 340.415,-92.2659 363,-91 443.762,-86.4734 464.114,-90.2779 545,-91 554.526,-91.085 564.507,-91.2108 574.42,-91.3585"/>
<polygon fill="midnightblue" stroke="midnightblue" points="574.651,-94.8624 584.704,-91.5196 574.761,-87.8633 574.651,-94.8624"/>
</g>
<!-- Node62 -->
<g id="node26" class="node"><title>Node62</title>
<g id="a_node26"><a xlink:href="classnew_alignment.html#ae8501233fe4f4ef6bfe30c99c744c7c2" target="_top" xlink:title="Function to check CDS file. . ">
<polygon fill="white" stroke="black" points="363,-19.5 363,-38.5 545,-38.5 545,-19.5 363,-19.5"/>
<text text-anchor="middle" x="454" y="-26.5" font-family="Helvetica,sans-Serif" font-size="10.00">newAlignment::checkCorrespondence</text>
</a>
</g>
</g>
<!-- Node61&#45;&gt;Node62 -->
<g id="edge41" class="edge"><title>Node61&#45;&gt;Node62</title>
<path fill="none" stroke="midnightblue" d="M294.382,-87.2504C305.348,-83.2587 316.653,-78.7765 327,-74 343.818,-66.2361 345.898,-60.1166 363,-53 374.081,-48.3889 386.301,-44.4342 398.069,-41.1429"/>
<polygon fill="midnightblue" stroke="midnightblue" points="399.058,-44.5015 407.813,-38.5344 397.248,-37.7396 399.058,-44.5015"/>
</g>
<!-- Node62&#45;&gt;Node39 -->
<g id="edge44" class="edge"><title>Node62&#45;&gt;Node39</title>
<path fill="none" stroke="midnightblue" d="M467.494,-38.6685C486.988,-54.4227 524.523,-87.5553 545,-124 583.665,-192.817 635.517,-432.298 651.851,-510.839"/>
<polygon fill="midnightblue" stroke="midnightblue" points="648.462,-511.735 653.915,-520.819 655.317,-510.317 648.462,-511.735"/>
</g>
<!-- Node63 -->
<g id="node27" class="node"><title>Node63</title>
<g id="a_node27"><a xlink:href="classutils.html#a1dce160519187ef2c6e14beb93a2050d" target="_top" xlink:title="Removes a determined char from the string. ">
<polygon fill="white" stroke="black" points="600,-38.5 600,-57.5 716,-57.5 716,-38.5 600,-38.5"/>
<text text-anchor="middle" x="658" y="-45.5" font-family="Helvetica,sans-Serif" font-size="10.00">utils::removeCharacter</text>
</a>
</g>
</g>
<!-- Node62&#45;&gt;Node63 -->
<g id="edge42" class="edge"><title>Node62&#45;&gt;Node63</title>
<path fill="none" stroke="midnightblue" d="M545.071,-37.472C560.056,-38.8815 575.365,-40.3215 589.659,-41.6659"/>
<polygon fill="midnightblue" stroke="midnightblue" points="589.585,-45.1743 599.869,-42.6263 590.24,-38.2051 589.585,-45.1743"/>
</g>
<!-- Node64 -->
<g id="node28" class="node"><title>Node64</title>
<g id="a_node28"><a xlink:href="classutils.html#ab04f5770187b0a8c36c3c8ca55f1e67f" target="_top" xlink:title="Minimum of two numbers method. ">
<polygon fill="white" stroke="black" points="630,-0.5 630,-19.5 686,-19.5 686,-0.5 630,-0.5"/>
<text text-anchor="middle" x="658" y="-7.5" font-family="Helvetica,sans-Serif" font-size="10.00">utils::min</text>
</a>
</g>
</g>
<!-- Node62&#45;&gt;Node64 -->
<g id="edge43" class="edge"><title>Node62&#45;&gt;Node64</title>
<path fill="none" stroke="midnightblue" d="M545.071,-20.528C571.352,-18.056 598.631,-15.4902 619.679,-13.5104"/>
<polygon fill="midnightblue" stroke="midnightblue" points="620.15,-16.9816 629.779,-12.5604 619.495,-10.0123 620.15,-16.9816"/>
</g>
<!-- Node65&#45;&gt;Node39 -->
<g id="edge46" class="edge"><title>Node65&#45;&gt;Node39</title>
<path fill="none" stroke="midnightblue" d="M316.341,-839.577C394.832,-849.509 509.339,-858.694 545,-834 636.969,-770.315 653.522,-621.053 656.422,-561.343"/>
<polygon fill="midnightblue" stroke="midnightblue" points="659.922,-561.408 656.819,-551.277 652.927,-561.131 659.922,-561.408"/>
</g>
<!-- Node67 -->
<g id="node31" class="node"><title>Node67</title>
<g id="a_node31"><a xlink:href="class_read_write_m_s.html#a5235fb14e8fb57c0d21a2b5a2c9d1666" target="_top" xlink:title="Function to obtain the format name of a given file. ">
<polygon fill="white" stroke="black" points="369,-805.5 369,-824.5 539,-824.5 539,-805.5 369,-805.5"/>
<text text-anchor="middle" x="454" y="-812.5" font-family="Helvetica,sans-Serif" font-size="10.00">ReadWriteMS::getFileFormatName</text>
</a>
</g>
</g>
<!-- Node66&#45;&gt;Node67 -->
<g id="edge48" class="edge"><title>Node66&#45;&gt;Node67</title>
<path fill="none" stroke="midnightblue" d="M293.739,-787.528C322.401,-792.472 357.601,-798.544 387.613,-803.721"/>
<polygon fill="midnightblue" stroke="midnightblue" points="387.126,-807.189 397.576,-805.44 388.316,-800.291 387.126,-807.189"/>
</g>
<!-- Node67&#45;&gt;Node39 -->
<g id="edge49" class="edge"><title>Node67&#45;&gt;Node39</title>
<path fill="none" stroke="midnightblue" d="M529.425,-805.495C535.02,-802.966 540.305,-799.844 545,-796 619.913,-734.667 645.853,-613.776 653.832,-561.3"/>
<polygon fill="midnightblue" stroke="midnightblue" points="657.327,-561.581 655.273,-551.187 650.397,-560.593 657.327,-561.581"/>
</g>
</g>
</svg>
