<?xml version="1.0" encoding="UTF-8" standalone="no"?>
<!DOCTYPE svg PUBLIC "-//W3C//DTD SVG 1.1//EN"
 "http://www.w3.org/Graphics/SVG/1.1/DTD/svg11.dtd">
<!-- Generated by graphviz version 2.40.1 (20161225.0304)
 -->
<!-- Title: statistics::Gaps::applyWindow Pages: 1 -->
<svg width="2075pt" height="875pt"
 viewBox="0.00 0.00 2075.00 874.74" xmlns="http://www.w3.org/2000/svg" xmlns:xlink="http://www.w3.org/1999/xlink">
<g id="graph0" class="graph" transform="scale(1 1) rotate(0) translate(4 870.735)">
<title>statistics::Gaps::applyWindow</title>
<polygon fill="#ffffff" stroke="transparent" points="-4,4 -4,-870.735 2071,-870.735 2071,4 -4,4"/>
<!-- Node72 -->
<g id="node1" class="node">
<title>Node72</title>
<polygon fill="#bfbfbf" stroke="#000000" points="0,-356.735 0,-375.735 150,-375.735 150,-356.735 0,-356.735"/>
<text text-anchor="middle" x="75" y="-363.735" font-family="Helvetica,sans-Serif" font-size="10.00" fill="#000000">statistics::Gaps::applyWindow</text>
</g>
<!-- Node73 -->
<g id="node2" class="node">
<title>Node73</title>
<g id="a_node2"><a xlink:href="classstatistics_1_1_manager.html#a1969a416d3020d25daa56de6c5e305db" target="_top" xlink:title="Method to handle gap stat calculation It checks if the gaps submodule has been created, otherwise, creates it. ">
<polygon fill="#ffffff" stroke="#000000" points="198.5,-452.235 198.5,-482.235 301.5,-482.235 301.5,-452.235 198.5,-452.235"/>
<text text-anchor="start" x="206.5" y="-470.235" font-family="Helvetica,sans-Serif" font-size="10.00" fill="#000000">statistics::Manager</text>
<text text-anchor="middle" x="250" y="-459.235" font-family="Helvetica,sans-Serif" font-size="10.00" fill="#000000">::calculateGapStats</text>
</a>
</g>
</g>
<!-- Node72&#45;&gt;Node73 -->
<g id="edge1" class="edge">
<title>Node72&#45;&gt;Node73</title>
<path fill="none" stroke="#191970" d="M100.4729,-380.9365C133.4384,-399.9623 190.5827,-432.9428 223.8672,-452.1527"/>
<polygon fill="#191970" stroke="#191970" points="101.8742,-377.7042 91.4636,-375.7369 98.3751,-383.7669 101.8742,-377.7042"/>
</g>
<!-- Node105 -->
<g id="node34" class="node">
<title>Node105</title>
<g id="a_node34"><a xlink:href="classstatistics_1_1_gaps.html#ab5b60db326475f8adc68b130e22b3963" target="_top" xlink:title="statistics::Gaps::getGaps\lWindow">
<polygon fill="#ffffff" stroke="#000000" points="186,-275.235 186,-305.235 314,-305.235 314,-275.235 186,-275.235"/>
<text text-anchor="start" x="194" y="-293.235" font-family="Helvetica,sans-Serif" font-size="10.00" fill="#000000">statistics::Gaps::getGaps</text>
<text text-anchor="middle" x="250" y="-282.235" font-family="Helvetica,sans-Serif" font-size="10.00" fill="#000000">Window</text>
</a>
</g>
</g>
<!-- Node72&#45;&gt;Node105 -->
<g id="edge59" class="edge">
<title>Node72&#45;&gt;Node105</title>
<path fill="none" stroke="#191970" d="M106.5273,-352.5432C137.1976,-339.2235 183.6804,-319.0367 215.3668,-305.2757"/>
<polygon fill="#191970" stroke="#191970" points="104.942,-349.4158 97.1639,-356.6096 107.7305,-355.8364 104.942,-349.4158"/>
</g>
<!-- Node74 -->
<g id="node3" class="node">
<title>Node74</title>
<g id="a_node3"><a xlink:href="class_cleaner.html#af7c9e1a177424168fa4214aca9ebd8e2" target="_top" xlink:title="Method to trim an alignment based on the gap distribution values. Column blocks that don&#39;t have a min...">
<polygon fill="#ffffff" stroke="#000000" points="553,-359.735 553,-378.735 656,-378.735 656,-359.735 553,-359.735"/>
<text text-anchor="middle" x="604.5" y="-366.735" font-family="Helvetica,sans-Serif" font-size="10.00" fill="#000000">Cleaner::cleanGaps</text>
</a>
</g>
</g>
<!-- Node73&#45;&gt;Node74 -->
<g id="edge2" class="edge">
<title>Node73&#45;&gt;Node74</title>
<path fill="none" stroke="#191970" d="M311.3209,-450.2831C386.1637,-429.5932 510.1274,-395.3239 570.0128,-378.7689"/>
<polygon fill="#191970" stroke="#191970" points="310.2532,-446.9469 301.5473,-452.985 312.1184,-453.6939 310.2532,-446.9469"/>
</g>
<!-- Node82 -->
<g id="node11" class="node">
<title>Node82</title>
<g id="a_node11"><a xlink:href="class_cleaner.html#a4718e31c0183b5a98751d77479faacf0" target="_top" xlink:title="Method to trim an alignment based on the similarity and gaps distribution values. ...">
<polygon fill="#ffffff" stroke="#000000" points="1168.5,-539.735 1168.5,-558.735 1248.5,-558.735 1248.5,-539.735 1168.5,-539.735"/>
<text text-anchor="middle" x="1208.5" y="-546.735" font-family="Helvetica,sans-Serif" font-size="10.00" fill="#000000">Cleaner::clean</text>
</a>
</g>
</g>
<!-- Node73&#45;&gt;Node82 -->
<g id="edge11" class="edge">
<title>Node73&#45;&gt;Node82</title>
<path fill="none" stroke="#191970" d="M276.2903,-488.8176C295.769,-504.0637 323.4329,-524.1998 350,-538.235 584.2512,-661.9888 648.2229,-698.5022 909,-745.235 986.4331,-759.1115 1017.1948,-783.3702 1086,-745.235 1090.8587,-742.5421 1179.0168,-597.7776 1202.6899,-558.808"/>
<polygon fill="#191970" stroke="#191970" points="278.2196,-485.8805 268.2106,-482.4061 273.8683,-491.3638 278.2196,-485.8805"/>
</g>
<!-- Node83 -->
<g id="node12" class="node">
<title>Node83</title>
<g id="a_node12"><a xlink:href="class_cleaner.html#aa57106470d2104a925b9396b8a9f33b3" target="_top" xlink:title="Method that carries the gappyout approach. This methods calculates the slope in gaps distribution on ...">
<polygon fill="#ffffff" stroke="#000000" points="363,-242.735 363,-261.735 483,-261.735 483,-242.735 363,-242.735"/>
<text text-anchor="middle" x="423" y="-249.735" font-family="Helvetica,sans-Serif" font-size="10.00" fill="#000000">Cleaner::clean2ndSlope</text>
</a>
</g>
</g>
<!-- Node73&#45;&gt;Node83 -->
<g id="edge13" class="edge">
<title>Node73&#45;&gt;Node83</title>
<path fill="none" stroke="#191970" d="M259.6002,-442.579C278.4717,-395.2916 321.0766,-294.4727 350,-271.235 354.7983,-267.38 360.2953,-264.3001 366.0727,-261.8406"/>
<polygon fill="#191970" stroke="#191970" points="256.2689,-441.4855 255.8442,-452.0718 262.7779,-444.0609 256.2689,-441.4855"/>
</g>
<!-- Node84 -->
<g id="node13" class="node">
<title>Node84</title>
<g id="a_node13"><a xlink:href="class_cleaner.html#a3af7bde2142886d6d723c95694b7b9ba" target="_top" xlink:title="Method to remove columns composed only by gaps This method is specially useful when we remove missali...">
<polygon fill="#ffffff" stroke="#000000" points="359.5,-280.735 359.5,-299.735 486.5,-299.735 486.5,-280.735 359.5,-280.735"/>
<text text-anchor="middle" x="423" y="-287.735" font-family="Helvetica,sans-Serif" font-size="10.00" fill="#000000">Cleaner::cleanNoAllGaps</text>
</a>
</g>
</g>
<!-- Node73&#45;&gt;Node84 -->
<g id="edge15" class="edge">
<title>Node73&#45;&gt;Node84</title>
<path fill="none" stroke="#191970" d="M271.8188,-444.9117C309.8954,-405.9548 386.965,-327.1032 413.6528,-299.7984"/>
<polygon fill="#191970" stroke="#191970" points="269.2367,-442.5462 264.7499,-452.1441 274.2427,-447.4391 269.2367,-442.5462"/>
</g>
<!-- Node86 -->
<g id="node15" class="node">
<title>Node86</title>
<g id="a_node15"><a xlink:href="class_cleaner.html#ab7f5b746b97697181f4cd06063cbb49a" target="_top" xlink:title="Method to detect right and left borders. Borders are the first column found with no gaps...">
<polygon fill="#ffffff" stroke="#000000" points="350,-204.735 350,-223.735 496,-223.735 496,-204.735 350,-204.735"/>
<text text-anchor="middle" x="423" y="-211.735" font-family="Helvetica,sans-Serif" font-size="10.00" fill="#000000">Cleaner::removeOnlyTerminal</text>
</a>
</g>
</g>
<!-- Node73&#45;&gt;Node86 -->
<g id="edge19" class="edge">
<title>Node73&#45;&gt;Node86</title>
<path fill="none" stroke="#191970" d="M260.3682,-442.5852C285.5175,-382.8451 347.8636,-235.0742 350,-233.235 354.4661,-229.3902 359.6178,-226.31 365.0759,-223.8444"/>
<polygon fill="#191970" stroke="#191970" points="257.0489,-441.4494 256.3958,-452.0241 263.5008,-444.1648 257.0489,-441.4494"/>
</g>
<!-- Node88 -->
<g id="node17" class="node">
<title>Node88</title>
<g id="a_node17"><a xlink:href="classstatistics_1_1_manager.html#a92505ca5aedc5b45c4300a0e8a7d1e17" target="_top" xlink:title="Method to handle similarity stat calculation It checks if the similarity submodule has been created...">
<polygon fill="#ffffff" stroke="#000000" points="721.5,-509.235 721.5,-539.235 864.5,-539.235 864.5,-509.235 721.5,-509.235"/>
<text text-anchor="start" x="729.5" y="-527.235" font-family="Helvetica,sans-Serif" font-size="10.00" fill="#000000">statistics::Manager</text>
<text text-anchor="middle" x="793" y="-516.235" font-family="Helvetica,sans-Serif" font-size="10.00" fill="#000000">::calculateConservationStats</text>
</a>
</g>
</g>
<!-- Node73&#45;&gt;Node88 -->
<g id="edge23" class="edge">
<title>Node73&#45;&gt;Node88</title>
<path fill="none" stroke="#191970" d="M284.3197,-487.1602C303.0732,-496.9663 327.09,-507.8213 350,-513.235 478.0302,-543.489 632.6788,-538.2336 721.2605,-531.4083"/>
<polygon fill="#191970" stroke="#191970" points="285.7614,-483.9616 275.2959,-482.3111 282.4479,-490.1278 285.7614,-483.9616"/>
</g>
<!-- Node94 -->
<g id="node23" class="node">
<title>Node94</title>
<g id="a_node23"><a xlink:href="classstatistics_1_1_manager.html#a48e846c0c59f08e43e5483a8eaa2e586" target="_top" xlink:title="Wrapper to Statistics::Gaps::printGapsColumns() It calls to calculateGapStats() to make sure the info...">
<polygon fill="#ffffff" stroke="#000000" points="532,-836.235 532,-866.235 677,-866.235 677,-836.235 532,-836.235"/>
<text text-anchor="start" x="540" y="-854.235" font-family="Helvetica,sans-Serif" font-size="10.00" fill="#000000">statistics::Manager</text>
<text text-anchor="middle" x="604.5" y="-843.235" font-family="Helvetica,sans-Serif" font-size="10.00" fill="#000000">::printStatisticsGapsColumns</text>
</a>
</g>
</g>
<!-- Node73&#45;&gt;Node94 -->
<g id="edge34" class="edge">
<title>Node73&#45;&gt;Node94</title>
<path fill="none" stroke="#191970" d="M253.8792,-492.4124C265.3983,-563.821 301.637,-765.2616 350,-808.235 399.157,-851.9139 475.5866,-859.6457 531.8679,-858.2901"/>
<polygon fill="#191970" stroke="#191970" points="257.3274,-491.8095 252.3024,-482.4822 250.414,-492.9074 257.3274,-491.8095"/>
</g>
<!-- Node95 -->
<g id="node24" class="node">
<title>Node95</title>
<g id="a_node24"><a xlink:href="classstatistics_1_1_manager.html#ab93622daa40044bfb03ae1e1e1eabb89" target="_top" xlink:title="Wrapper to Statistics::Gaps::printGapsAcl() It calls to calculateGapStats() to make sure the informat...">
<polygon fill="#ffffff" stroke="#000000" points="540.5,-787.235 540.5,-817.235 668.5,-817.235 668.5,-787.235 540.5,-787.235"/>
<text text-anchor="start" x="548.5" y="-805.235" font-family="Helvetica,sans-Serif" font-size="10.00" fill="#000000">statistics::Manager</text>
<text text-anchor="middle" x="604.5" y="-794.235" font-family="Helvetica,sans-Serif" font-size="10.00" fill="#000000">::printStatisticsGapsTotal</text>
</a>
</g>
</g>
<!-- Node73&#45;&gt;Node95 -->
<g id="edge36" class="edge">
<title>Node73&#45;&gt;Node95</title>
<path fill="none" stroke="#191970" d="M254.6862,-492.4876C267.5367,-558.8773 305.3639,-735.7202 350,-772.235 402.9445,-815.5466 484.0926,-817.6546 540.4696,-812.429"/>
<polygon fill="#191970" stroke="#191970" points="258.0871,-491.6371 252.7753,-482.47 251.2111,-492.9487 258.0871,-491.6371"/>
</g>
<!-- Node96 -->
<g id="node25" class="node">
<title>Node96</title>
<g id="a_node25"><a xlink:href="classstatistics_1_1_similarity.html#ae69ec0e79912ae23c8cfe97358c4794d" target="_top" xlink:title="Method to calculate the similarity values of a alignment matrix. ">
<polygon fill="#ffffff" stroke="#000000" points="371.5,-474.235 371.5,-504.235 474.5,-504.235 474.5,-474.235 371.5,-474.235"/>
<text text-anchor="start" x="379.5" y="-492.235" font-family="Helvetica,sans-Serif" font-size="10.00" fill="#000000">statistics::Similarity</text>
<text text-anchor="middle" x="423" y="-481.235" font-family="Helvetica,sans-Serif" font-size="10.00" fill="#000000">::calculateVectors</text>
</a>
</g>
</g>
<!-- Node73&#45;&gt;Node96 -->
<g id="edge38" class="edge">
<title>Node73&#45;&gt;Node96</title>
<path fill="none" stroke="#191970" d="M311.9133,-475.1084C331.4125,-477.5881 352.7296,-480.2989 371.4292,-482.6769"/>
<polygon fill="#191970" stroke="#191970" points="312.2674,-471.6253 301.9057,-473.8358 311.3843,-478.5694 312.2674,-471.6253"/>
</g>
<!-- Node75 -->
<g id="node4" class="node">
<title>Node75</title>
<g id="a_node4"><a xlink:href="classtrim_al_manager.html#a69082911b30a1bd12395bb235bc18a34" target="_top" xlink:title="Method to trim the alignment using automatic or semi&#45;automatic methods: ">
<polygon fill="#ffffff" stroke="#000000" points="1122,-204.735 1122,-223.735 1295,-223.735 1295,-204.735 1122,-204.735"/>
<text text-anchor="middle" x="1208.5" y="-211.735" font-family="Helvetica,sans-Serif" font-size="10.00" fill="#000000">trimAlManager::CleanResiduesAuto</text>
</a>
</g>
</g>
<!-- Node74&#45;&gt;Node75 -->
<g id="edge3" class="edge">
<title>Node74&#45;&gt;Node75</title>
<path fill="none" stroke="#191970" d="M651.8616,-357.081C768.2917,-327.2024 1066.6198,-250.6447 1171.422,-223.7501"/>
<polygon fill="#191970" stroke="#191970" points="650.6432,-353.7801 641.8271,-359.6561 652.3833,-360.5605 650.6432,-353.7801"/>
</g>
<!-- Node81 -->
<g id="node10" class="node">
<title>Node81</title>
<g id="a_node10"><a xlink:href="classtrim_al_manager.html#aebfd21b0435302f0e4fc45a068d1b6ee" target="_top" xlink:title="Method to trim the alignment using non automatic methods: ">
<polygon fill="#ffffff" stroke="#000000" points="1331,-379.235 1331,-409.235 1483,-409.235 1483,-379.235 1331,-379.235"/>
<text text-anchor="start" x="1339" y="-397.235" font-family="Helvetica,sans-Serif" font-size="10.00" fill="#000000">trimAlManager::CleanResidues</text>
<text text-anchor="middle" x="1407" y="-386.235" font-family="Helvetica,sans-Serif" font-size="10.00" fill="#000000">NonAuto</text>
</a>
</g>
</g>
<!-- Node74&#45;&gt;Node81 -->
<g id="edge9" class="edge">
<title>Node74&#45;&gt;Node81</title>
<path fill="none" stroke="#191970" d="M644.3729,-381.6333C664.6928,-387.3156 689.9246,-393.407 713,-396.235 830.499,-410.6351 1176.5069,-401.7505 1330.9993,-396.8426"/>
<polygon fill="#191970" stroke="#191970" points="645.106,-378.2024 634.5284,-378.8059 643.1736,-384.9304 645.106,-378.2024"/>
</g>
<!-- Node76 -->
<g id="node5" class="node">
<title>Node76</title>
<g id="a_node5"><a xlink:href="classtrim_al_manager.html#adc529dd893ed4e9df6f3ddbd58776068" target="_top" xlink:title="Core Method of the program. This is where almost all cleaning methods are called from. ">
<polygon fill="#ffffff" stroke="#000000" points="1534,-214.235 1534,-244.235 1643,-244.235 1643,-214.235 1534,-214.235"/>
<text text-anchor="start" x="1542" y="-232.235" font-family="Helvetica,sans-Serif" font-size="10.00" fill="#000000">trimAlManager::clean</text>
<text text-anchor="middle" x="1588.5" y="-221.235" font-family="Helvetica,sans-Serif" font-size="10.00" fill="#000000">_alignment</text>
</a>
</g>
</g>
<!-- Node75&#45;&gt;Node76 -->
<g id="edge4" class="edge">
<title>Node75&#45;&gt;Node76</title>
<path fill="none" stroke="#191970" d="M1305.2651,-218.0547C1377.7495,-220.9159 1474.3039,-224.7273 1533.8886,-227.0793"/>
<polygon fill="#191970" stroke="#191970" points="1305.3337,-214.5548 1295.2034,-217.6575 1305.0575,-221.5493 1305.3337,-214.5548"/>
</g>
<!-- Node77 -->
<g id="node6" class="node">
<title>Node77</title>
<g id="a_node6"><a xlink:href="classtrim_al_manager.html#a7c641a1feff33d401b4ea5c82e989289" target="_top" xlink:title="trimAlManager::innerPerform">
<polygon fill="#ffffff" stroke="#000000" points="1695.5,-175.735 1695.5,-194.735 1836.5,-194.735 1836.5,-175.735 1695.5,-175.735"/>
<text text-anchor="middle" x="1766" y="-182.735" font-family="Helvetica,sans-Serif" font-size="10.00" fill="#000000">trimAlManager::innerPerform</text>
</a>
</g>
</g>
<!-- Node76&#45;&gt;Node77 -->
<g id="edge5" class="edge">
<title>Node76&#45;&gt;Node77</title>
<path fill="none" stroke="#191970" d="M1652.9897,-213.2488C1677.9829,-207.0533 1705.7566,-200.1686 1727.5159,-194.7747"/>
<polygon fill="#191970" stroke="#191970" points="1652.0683,-209.8712 1643.2042,-215.6746 1653.7526,-216.6656 1652.0683,-209.8712"/>
</g>
<!-- Node80 -->
<g id="node9" class="node">
<title>Node80</title>
<g id="a_node9"><a xlink:href="classtrim_al_manager.html#ac5795f93b3a2b51bf5d8dddd63b89f73" target="_top" xlink:title="trimAlManager::perform_VCF">
<polygon fill="#ffffff" stroke="#000000" points="1694,-109.735 1694,-128.735 1838,-128.735 1838,-109.735 1694,-109.735"/>
<text text-anchor="middle" x="1766" y="-116.735" font-family="Helvetica,sans-Serif" font-size="10.00" fill="#000000">trimAlManager::perform_VCF</text>
</a>
</g>
</g>
<!-- Node76&#45;&gt;Node80 -->
<g id="edge8" class="edge">
<title>Node76&#45;&gt;Node80</title>
<path fill="none" stroke="#191970" d="M1621.5608,-208.7466C1659.9424,-184.9609 1721.6415,-146.7248 1750.3587,-128.9282"/>
<polygon fill="#191970" stroke="#191970" points="1619.4649,-205.9279 1612.8084,-214.1706 1623.1523,-211.878 1619.4649,-205.9279"/>
</g>
<!-- Node78 -->
<g id="node7" class="node">
<title>Node78</title>
<g id="a_node7"><a xlink:href="classtrim_al_manager.html#abe8d2841455c644dc9c7d1294b82b00f" target="_top" xlink:title="Method to perform the analysis if all checks have passed. ">
<polygon fill="#ffffff" stroke="#000000" points="1874,-175.735 1874,-194.735 1993,-194.735 1993,-175.735 1874,-175.735"/>
<text text-anchor="middle" x="1933.5" y="-182.735" font-family="Helvetica,sans-Serif" font-size="10.00" fill="#000000">trimAlManager::perform</text>
</a>
</g>
</g>
<!-- Node77&#45;&gt;Node78 -->
<g id="edge6" class="edge">
<title>Node77&#45;&gt;Node78</title>
<path fill="none" stroke="#191970" d="M1846.8102,-185.235C1855.9363,-185.235 1865.1089,-185.235 1873.8939,-185.235"/>
<polygon fill="#191970" stroke="#191970" points="1846.5497,-181.7351 1836.5496,-185.235 1846.5496,-188.7351 1846.5497,-181.7351"/>
</g>
<!-- Node79 -->
<g id="node8" class="node">
<title>Node79</title>
<g id="a_node8"><a xlink:href="trim_al_main_8cpp.html#a0ddf1224851353fc92bfbff6f499fa97" target="_top" xlink:title="main">
<polygon fill="#ffffff" stroke="#000000" points="2029,-175.735 2029,-194.735 2067,-194.735 2067,-175.735 2029,-175.735"/>
<text text-anchor="middle" x="2048" y="-182.735" font-family="Helvetica,sans-Serif" font-size="10.00" fill="#000000">main</text>
</a>
</g>
</g>
<!-- Node78&#45;&gt;Node79 -->
<g id="edge7" class="edge">
<title>Node78&#45;&gt;Node79</title>
<path fill="none" stroke="#191970" d="M2003.3198,-185.235C2012.6177,-185.235 2021.4503,-185.235 2028.7697,-185.235"/>
<polygon fill="#191970" stroke="#191970" points="2003.0976,-181.7351 1993.0976,-185.235 2003.0975,-188.7351 2003.0976,-181.7351"/>
</g>
<!-- Node81&#45;&gt;Node76 -->
<g id="edge10" class="edge">
<title>Node81&#45;&gt;Node76</title>
<path fill="none" stroke="#191970" d="M1431.1987,-372.2362C1468.6124,-338.2237 1539.5427,-273.7417 1571.7907,-244.4253"/>
<polygon fill="#191970" stroke="#191970" points="1428.7948,-369.6914 1423.7498,-379.008 1433.5035,-374.871 1428.7948,-369.6914"/>
</g>
<!-- Node82&#45;&gt;Node81 -->
<g id="edge12" class="edge">
<title>Node82&#45;&gt;Node81</title>
<path fill="none" stroke="#191970" d="M1228.8258,-533.3635C1267.2009,-503.398 1349.8449,-438.865 1387.5417,-409.4291"/>
<polygon fill="#191970" stroke="#191970" points="1226.6447,-530.6259 1220.9171,-539.5391 1230.9529,-536.1432 1226.6447,-530.6259"/>
</g>
<!-- Node83&#45;&gt;Node75 -->
<g id="edge14" class="edge">
<title>Node83&#45;&gt;Node75</title>
<path fill="none" stroke="#191970" d="M482.5925,-239.3678C487.239,-237.5733 491.7653,-235.539 496,-233.235 515.0658,-222.8617 511.7714,-208.1036 532,-200.235 762.7332,-110.4836 1072.0506,-177.9947 1174.1902,-204.665"/>
<polygon fill="#191970" stroke="#191970" points="481.2367,-236.1336 472.9411,-242.7239 483.5359,-242.7452 481.2367,-236.1336"/>
</g>
<!-- Node84&#45;&gt;Node75 -->
<g id="edge16" class="edge">
<title>Node84&#45;&gt;Node75</title>
<path fill="none" stroke="#191970" d="M470.1038,-278.0957C478.7248,-275.8396 487.6377,-273.4846 496,-271.235 512.0357,-266.9213 515.7667,-264.7326 532,-261.235 740.3129,-216.3525 992.2361,-211.4417 1121.9677,-212.4166"/>
<polygon fill="#191970" stroke="#191970" points="468.9614,-274.7764 460.1679,-280.6863 470.7275,-281.55 468.9614,-274.7764"/>
</g>
<!-- Node85 -->
<g id="node14" class="node">
<title>Node85</title>
<g id="a_node14"><a xlink:href="classtrim_al_manager.html#a10536f715945a1a45f1df33f7cedc81e" target="_top" xlink:title="Method to trim or reduce the number of sequences in an alignment. It performs one or none of the foll...">
<polygon fill="#ffffff" stroke="#000000" points="713,-242.735 713,-261.735 873,-261.735 873,-242.735 713,-242.735"/>
<text text-anchor="middle" x="793" y="-249.735" font-family="Helvetica,sans-Serif" font-size="10.00" fill="#000000">trimAlManager::CleanSequences</text>
</a>
</g>
</g>
<!-- Node84&#45;&gt;Node85 -->
<g id="edge17" class="edge">
<title>Node84&#45;&gt;Node85</title>
<path fill="none" stroke="#191970" d="M496.7777,-282.6579C559.2379,-276.243 648.5981,-267.0655 712.8134,-260.4704"/>
<polygon fill="#191970" stroke="#191970" points="496.1953,-279.1992 486.6053,-283.7026 496.9106,-286.1625 496.1953,-279.1992"/>
</g>
<!-- Node85&#45;&gt;Node76 -->
<g id="edge18" class="edge">
<title>Node85&#45;&gt;Node76</title>
<path fill="none" stroke="#191970" d="M883.3019,-251.3803C1015.1472,-249.851 1268.0453,-245.854 1483,-236.235 1499.5041,-235.4965 1517.4432,-234.4121 1533.7684,-233.3162"/>
<polygon fill="#191970" stroke="#191970" points="883.2061,-247.8811 873.2467,-251.4949 883.2859,-254.8806 883.2061,-247.8811"/>
</g>
<!-- Node87 -->
<g id="node16" class="node">
<title>Node87</title>
<g id="a_node16"><a xlink:href="classtrim_al_manager.html#a8ed19b851162fa24a1da66f7e54099e3" target="_top" xlink:title="trimAlManager::postprocess\l_alignment">
<polygon fill="#ffffff" stroke="#000000" points="1519,-38.235 1519,-68.235 1658,-68.235 1658,-38.235 1519,-38.235"/>
<text text-anchor="start" x="1527" y="-56.235" font-family="Helvetica,sans-Serif" font-size="10.00" fill="#000000">trimAlManager::postprocess</text>
<text text-anchor="middle" x="1588.5" y="-45.235" font-family="Helvetica,sans-Serif" font-size="10.00" fill="#000000">_alignment</text>
</a>
</g>
</g>
<!-- Node86&#45;&gt;Node87 -->
<g id="edge20" class="edge">
<title>Node86&#45;&gt;Node87</title>
<path fill="none" stroke="#191970" d="M460.4495,-201.0963C472.0722,-196.5604 484.7726,-191.1241 496,-185.235 513.0292,-176.3028 514.6487,-169.5242 532,-161.235 690.4218,-85.5528 735.4442,-69.7618 909,-43.235 1129.4253,-9.5446 1394.7466,-31.0508 1518.5273,-44.6156"/>
<polygon fill="#191970" stroke="#191970" points="459.103,-197.8637 450.9959,-204.6847 461.5872,-204.4081 459.103,-197.8637"/>
</g>
<!-- Node87&#45;&gt;Node77 -->
<g id="edge21" class="edge">
<title>Node87&#45;&gt;Node77</title>
<path fill="none" stroke="#191970" d="M1614.1931,-75.135C1635.2133,-92.7568 1665.9445,-117.8539 1694,-138.235 1712.8403,-151.9217 1735.4553,-166.3806 1750.2485,-175.5882"/>
<polygon fill="#191970" stroke="#191970" points="1616.2677,-72.3064 1606.3645,-68.5412 1611.7582,-77.6603 1616.2677,-72.3064"/>
</g>
<!-- Node87&#45;&gt;Node80 -->
<g id="edge22" class="edge">
<title>Node87&#45;&gt;Node80</title>
<path fill="none" stroke="#191970" d="M1638.7422,-71.9166C1671.844,-84.2249 1713.812,-99.8299 1740.2952,-109.6772"/>
<polygon fill="#191970" stroke="#191970" points="1639.8149,-68.5814 1629.2221,-68.3768 1637.3753,-75.1426 1639.8149,-68.5814"/>
</g>
<!-- Node88&#45;&gt;Node82 -->
<g id="edge26" class="edge">
<title>Node88&#45;&gt;Node82</title>
<path fill="none" stroke="#191970" d="M824.093,-544.7819C846.6201,-558.3859 878.3765,-575.0058 909,-582.235 985.5623,-600.3089 1008.0132,-592.5554 1086,-582.235 1119.4078,-577.814 1156.639,-566.8901 1181.1904,-558.8155"/>
<polygon fill="#191970" stroke="#191970" points="825.6801,-541.6481 815.3346,-539.3632 821.9971,-547.601 825.6801,-541.6481"/>
</g>
<!-- Node89 -->
<g id="node18" class="node">
<title>Node89</title>
<g id="a_node18"><a xlink:href="class_cleaner.html#a9cdbd6ebf78a284dd065b31319795b0c" target="_top" xlink:title="Method to trim an alignment based on the similarity distribution values. ">
<polygon fill="#ffffff" stroke="#000000" points="1140,-413.735 1140,-432.735 1277,-432.735 1277,-413.735 1140,-413.735"/>
<text text-anchor="middle" x="1208.5" y="-420.735" font-family="Helvetica,sans-Serif" font-size="10.00" fill="#000000">Cleaner::cleanConservation</text>
</a>
</g>
</g>
<!-- Node88&#45;&gt;Node89 -->
<g id="edge24" class="edge">
<title>Node88&#45;&gt;Node89</title>
<path fill="none" stroke="#191970" d="M823.4556,-503.5956C846.0654,-489.3189 878.1908,-471.1676 909,-461.235 985.5736,-436.5486 1077.9983,-427.8044 1139.7346,-424.7597"/>
<polygon fill="#191970" stroke="#191970" points="821.4966,-500.6942 814.9801,-509.048 825.2838,-506.5812 821.4966,-500.6942"/>
</g>
<!-- Node90 -->
<g id="node19" class="node">
<title>Node90</title>
<g id="a_node19"><a xlink:href="class_cleaner.html#a6727a235afa29f08a50716f28fa5c8fc" target="_top" xlink:title="Method to clean an alignment. It carries out strict and strictplus. The method: ">
<polygon fill="#ffffff" stroke="#000000" points="926,-318.735 926,-337.735 1069,-337.735 1069,-318.735 926,-318.735"/>
<text text-anchor="middle" x="997.5" y="-325.735" font-family="Helvetica,sans-Serif" font-size="10.00" fill="#000000">Cleaner::cleanCombMethods</text>
</a>
</g>
</g>
<!-- Node88&#45;&gt;Node90 -->
<g id="edge27" class="edge">
<title>Node88&#45;&gt;Node90</title>
<path fill="none" stroke="#191970" d="M816.1099,-502.0856C860.4054,-459.6313 955.6598,-368.3361 987.1549,-338.1502"/>
<polygon fill="#191970" stroke="#191970" points="813.5049,-499.7344 808.7072,-509.1807 818.3486,-504.7881 813.5049,-499.7344"/>
</g>
<!-- Node91 -->
<g id="node20" class="node">
<title>Node91</title>
<g id="a_node20"><a xlink:href="classstatistics_1_1_manager.html#a080c687f8f355900511485eeec32a659" target="_top" xlink:title="Wrapper to Statistics::Similarity::printConservationAcl() It calls to calculateConservationStats() to...">
<polygon fill="#ffffff" stroke="#000000" points="927.5,-694.735 927.5,-735.735 1067.5,-735.735 1067.5,-694.735 927.5,-694.735"/>
<text text-anchor="start" x="935.5" y="-723.735" font-family="Helvetica,sans-Serif" font-size="10.00" fill="#000000">statistics::Manager</text>
<text text-anchor="start" x="935.5" y="-712.735" font-family="Helvetica,sans-Serif" font-size="10.00" fill="#000000">::printStatisticsConservation</text>
<text text-anchor="middle" x="997.5" y="-701.735" font-family="Helvetica,sans-Serif" font-size="10.00" fill="#000000">Columns</text>
</a>
</g>
</g>
<!-- Node88&#45;&gt;Node91 -->
<g id="edge29" class="edge">
<title>Node88&#45;&gt;Node91</title>
<path fill="none" stroke="#191970" d="M804.3959,-548.5905C822.016,-583.6998 859.1172,-648.3552 909,-685.235 914.6094,-689.3822 920.8313,-692.9827 927.3017,-696.103"/>
<polygon fill="#191970" stroke="#191970" points="807.4932,-546.9571 799.9483,-539.519 801.2079,-550.0387 807.4932,-546.9571"/>
</g>
<!-- Node93 -->
<g id="node22" class="node">
<title>Node93</title>
<g id="a_node22"><a xlink:href="classstatistics_1_1_manager.html#aa20cfb477826035386ea988e3706b09a" target="_top" xlink:title="Wrapper to Statistics::Similarity::printGapsTotal() It calls to calculateConservationStats() to make ...">
<polygon fill="#ffffff" stroke="#000000" points="927.5,-634.735 927.5,-675.735 1067.5,-675.735 1067.5,-634.735 927.5,-634.735"/>
<text text-anchor="start" x="935.5" y="-663.735" font-family="Helvetica,sans-Serif" font-size="10.00" fill="#000000">statistics::Manager</text>
<text text-anchor="start" x="935.5" y="-652.735" font-family="Helvetica,sans-Serif" font-size="10.00" fill="#000000">::printStatisticsConservation</text>
<text text-anchor="middle" x="997.5" y="-641.735" font-family="Helvetica,sans-Serif" font-size="10.00" fill="#000000">Total</text>
</a>
</g>
</g>
<!-- Node88&#45;&gt;Node93 -->
<g id="edge32" class="edge">
<title>Node88&#45;&gt;Node93</title>
<path fill="none" stroke="#191970" d="M815.2122,-546.2941C837.4421,-567.4392 873.3721,-599.1696 909,-620.235 917.9601,-625.5328 927.87,-630.3428 937.7194,-634.5842"/>
<polygon fill="#191970" stroke="#191970" points="817.5734,-543.7089 807.9436,-539.2912 812.7167,-548.7499 817.5734,-543.7089"/>
</g>
<!-- Node89&#45;&gt;Node81 -->
<g id="edge25" class="edge">
<title>Node89&#45;&gt;Node81</title>
<path fill="none" stroke="#191970" d="M1283.7293,-412.2443C1299.0872,-410.0006 1315.2615,-407.6376 1330.6578,-405.3883"/>
<polygon fill="#191970" stroke="#191970" points="1283.1602,-408.7902 1273.7713,-413.6992 1284.1722,-415.7167 1283.1602,-408.7902"/>
</g>
<!-- Node90&#45;&gt;Node75 -->
<g id="edge28" class="edge">
<title>Node90&#45;&gt;Node75</title>
<path fill="none" stroke="#191970" d="M1055.4232,-315.8361C1065.8507,-312.6823 1076.437,-308.8454 1086,-304.235 1131.8797,-282.1165 1178.2073,-242.1948 1198.2306,-223.8854"/>
<polygon fill="#191970" stroke="#191970" points="1054.1748,-312.5522 1045.513,-318.6533 1056.089,-319.2854 1054.1748,-312.5522"/>
</g>
<!-- Node92 -->
<g id="node21" class="node">
<title>Node92</title>
<g id="a_node21"><a xlink:href="classtrim_al_manager.html#afc48b86f5ae35b9a5e721b65c58bf610" target="_top" xlink:title="Method to print statistics requested. ">
<polygon fill="#ffffff" stroke="#000000" points="1156.5,-700.235 1156.5,-730.235 1260.5,-730.235 1260.5,-700.235 1156.5,-700.235"/>
<text text-anchor="start" x="1164.5" y="-718.235" font-family="Helvetica,sans-Serif" font-size="10.00" fill="#000000">trimAlManager::print</text>
<text text-anchor="middle" x="1208.5" y="-707.235" font-family="Helvetica,sans-Serif" font-size="10.00" fill="#000000">_statistics</text>
</a>
</g>
</g>
<!-- Node91&#45;&gt;Node92 -->
<g id="edge30" class="edge">
<title>Node91&#45;&gt;Node92</title>
<path fill="none" stroke="#191970" d="M1078.065,-715.235C1104.2722,-715.235 1132.657,-715.235 1156.2347,-715.235"/>
<polygon fill="#191970" stroke="#191970" points="1077.76,-711.7351 1067.7599,-715.235 1077.7599,-718.7351 1077.76,-711.7351"/>
</g>
<!-- Node92&#45;&gt;Node77 -->
<g id="edge31" class="edge">
<title>Node92&#45;&gt;Node77</title>
<path fill="none" stroke="#191970" d="M1231.7175,-693.1628C1327.4639,-602.1393 1689.725,-257.7476 1755.6674,-195.058"/>
<polygon fill="#191970" stroke="#191970" points="1229.1229,-690.8002 1224.2869,-700.2269 1233.946,-695.8735 1229.1229,-690.8002"/>
</g>
<!-- Node93&#45;&gt;Node92 -->
<g id="edge33" class="edge">
<title>Node93&#45;&gt;Node92</title>
<path fill="none" stroke="#191970" d="M1077.7172,-678.0456C1104.0209,-685.5253 1132.5526,-693.6386 1156.2347,-700.3729"/>
<polygon fill="#191970" stroke="#191970" points="1078.336,-674.5829 1067.7599,-675.2142 1076.4213,-681.3159 1078.336,-674.5829"/>
</g>
<!-- Node94&#45;&gt;Node92 -->
<g id="edge35" class="edge">
<title>Node94&#45;&gt;Node92</title>
<path fill="none" stroke="#191970" d="M687.2109,-857.0917C785.6652,-861.0746 953.4138,-858.3008 1086,-807.235 1130.4277,-790.1236 1172.6171,-751.962 1193.9774,-730.5535"/>
<polygon fill="#191970" stroke="#191970" points="687.1668,-853.5865 677.0232,-856.6453 686.8603,-860.5798 687.1668,-853.5865"/>
</g>
<!-- Node95&#45;&gt;Node92 -->
<g id="edge37" class="edge">
<title>Node95&#45;&gt;Node92</title>
<path fill="none" stroke="#191970" d="M678.7078,-808.107C774.5807,-813.54 945.8118,-815.8896 1086,-778.235 1123.4162,-768.185 1162.5328,-745.6261 1186.2144,-730.4144"/>
<polygon fill="#191970" stroke="#191970" points="678.7231,-804.6019 668.5331,-807.5027 678.308,-811.5896 678.7231,-804.6019"/>
</g>
<!-- Node96&#45;&gt;Node88 -->
<g id="edge39" class="edge">
<title>Node96&#45;&gt;Node88</title>
<path fill="none" stroke="#191970" d="M484.9647,-495.0966C550.1324,-501.2611 652.5599,-510.9501 721.2053,-517.4436"/>
<polygon fill="#191970" stroke="#191970" points="485.1217,-491.5959 474.8365,-494.1385 484.4624,-498.5648 485.1217,-491.5959"/>
</g>
<!-- Node97 -->
<g id="node26" class="node">
<title>Node97</title>
<g id="a_node26"><a xlink:href="classstatistics_1_1_similarity.html#adcb5627b9704850e85433fc40c19db17" target="_top" xlink:title="Allows us compute the conservationWindow&#39;s values. ">
<polygon fill="#ffffff" stroke="#000000" points="553,-436.235 553,-466.235 656,-466.235 656,-436.235 553,-436.235"/>
<text text-anchor="start" x="561" y="-454.235" font-family="Helvetica,sans-Serif" font-size="10.00" fill="#000000">statistics::Similarity</text>
<text text-anchor="middle" x="604.5" y="-443.235" font-family="Helvetica,sans-Serif" font-size="10.00" fill="#000000">::applyWindow</text>
</a>
</g>
</g>
<!-- Node96&#45;&gt;Node97 -->
<g id="edge40" class="edge">
<title>Node96&#45;&gt;Node97</title>
<path fill="none" stroke="#191970" d="M484.5247,-476.3538C506.7372,-471.7033 531.5648,-466.5052 552.846,-462.0496"/>
<polygon fill="#191970" stroke="#191970" points="483.5957,-472.9724 474.5251,-478.4474 485.0302,-479.8238 483.5957,-472.9724"/>
</g>
<!-- Node97&#45;&gt;Node88 -->
<g id="edge41" class="edge">
<title>Node97&#45;&gt;Node88</title>
<path fill="none" stroke="#191970" d="M652.9872,-470.0126C684.3682,-482.1654 724.6869,-497.7796 753.9927,-509.1288"/>
<polygon fill="#191970" stroke="#191970" points="654.1465,-466.7083 643.5573,-466.3607 651.6185,-473.2359 654.1465,-466.7083"/>
</g>
<!-- Node98 -->
<g id="node27" class="node">
<title>Node98</title>
<g id="a_node27"><a xlink:href="classstatistics_1_1_similarity.html#a1b65c85328f09fa0637365d11fb386b4" target="_top" xlink:title="This methods returns a pointer to conservationWindow&#39;s vector. ">
<polygon fill="#ffffff" stroke="#000000" points="728.5,-357.235 728.5,-387.235 857.5,-387.235 857.5,-357.235 728.5,-357.235"/>
<text text-anchor="start" x="736.5" y="-375.235" font-family="Helvetica,sans-Serif" font-size="10.00" fill="#000000">statistics::Similarity</text>
<text text-anchor="middle" x="793" y="-364.235" font-family="Helvetica,sans-Serif" font-size="10.00" fill="#000000">::getMdkWindowedVector</text>
</a>
</g>
</g>
<!-- Node97&#45;&gt;Node98 -->
<g id="edge42" class="edge">
<title>Node97&#45;&gt;Node98</title>
<path fill="none" stroke="#191970" d="M649.7785,-432.2589C682.6137,-418.4977 726.4288,-400.1349 756.914,-387.3586"/>
<polygon fill="#191970" stroke="#191970" points="648.269,-429.0965 640.3991,-436.1898 650.9748,-435.5524 648.269,-429.0965"/>
</g>
<!-- Node98&#45;&gt;Node82 -->
<g id="edge54" class="edge">
<title>Node98&#45;&gt;Node82</title>
<path fill="none" stroke="#191970" d="M815.9819,-394.6631C832.5594,-411.3043 855.0802,-434.8876 873,-457.235 890.814,-479.4505 884.7508,-495.3072 909,-510.235 951.5876,-536.452 1096.992,-545.2523 1168.3474,-548.0352"/>
<polygon fill="#191970" stroke="#191970" points="818.3777,-392.1094 808.8212,-387.535 813.4392,-397.0705 818.3777,-392.1094"/>
</g>
<!-- Node98&#45;&gt;Node89 -->
<g id="edge53" class="edge">
<title>Node98&#45;&gt;Node89</title>
<path fill="none" stroke="#191970" d="M868.0785,-381.4504C945.4363,-390.9456 1064.9897,-405.6201 1139.8886,-414.8134"/>
<polygon fill="#191970" stroke="#191970" points="868.2738,-377.9482 857.9219,-380.2038 867.421,-384.8961 868.2738,-377.9482"/>
</g>
<!-- Node98&#45;&gt;Node90 -->
<g id="edge55" class="edge">
<title>Node98&#45;&gt;Node90</title>
<path fill="none" stroke="#191970" d="M867.7171,-356.159C896.4382,-349.9794 928.2909,-343.126 953.2525,-337.7553"/>
<polygon fill="#191970" stroke="#191970" points="866.7451,-352.7879 857.7051,-358.3132 868.2176,-359.6313 866.7451,-352.7879"/>
</g>
<!-- Node99 -->
<g id="node28" class="node">
<title>Node99</title>
<g id="a_node28"><a xlink:href="class_alignment.html#a3754dfadea173918f5e85b9eb4c3ad8a" target="_top" xlink:title="Method to report the trimming results in HTML. Outputs an HTML file that shows visually what has been...">
<polygon fill="#ffffff" stroke="#000000" points="909,-90.735 909,-109.735 1086,-109.735 1086,-90.735 909,-90.735"/>
<text text-anchor="middle" x="997.5" y="-97.735" font-family="Helvetica,sans-Serif" font-size="10.00" fill="#000000">Alignment::alignmentSummaryHTML</text>
</a>
</g>
</g>
<!-- Node98&#45;&gt;Node99 -->
<g id="edge43" class="edge">
<title>Node98&#45;&gt;Node99</title>
<path fill="none" stroke="#191970" d="M815.7972,-349.5904C833.9038,-330.34 858.5113,-301.1353 873,-271.235 903.2738,-208.759 859.3949,-167.8054 909,-119.235 912.8177,-115.497 917.1823,-112.4167 921.8814,-109.8854"/>
<polygon fill="#191970" stroke="#191970" points="813.1268,-347.3181 808.7268,-356.9561 818.1768,-352.1656 813.1268,-347.3181"/>
</g>
<!-- Node101 -->
<g id="node30" class="node">
<title>Node101</title>
<g id="a_node30"><a xlink:href="class_alignment.html#a724218d5e7d168974d9abcafcde632a1" target="_top" xlink:title="Alignment::statSVG">
<polygon fill="#ffffff" stroke="#000000" points="945.5,-128.735 945.5,-147.735 1049.5,-147.735 1049.5,-128.735 945.5,-128.735"/>
<text text-anchor="middle" x="997.5" y="-135.735" font-family="Helvetica,sans-Serif" font-size="10.00" fill="#000000">Alignment::statSVG</text>
</a>
</g>
</g>
<!-- Node98&#45;&gt;Node101 -->
<g id="edge47" class="edge">
<title>Node98&#45;&gt;Node101</title>
<path fill="none" stroke="#191970" d="M813.1637,-349.1627C856.9443,-299.0664 959.1742,-182.0895 989.1181,-147.826"/>
<polygon fill="#191970" stroke="#191970" points="810.3629,-347.0487 806.4178,-356.8816 815.6338,-351.655 810.3629,-347.0487"/>
</g>
<!-- Node103 -->
<g id="node32" class="node">
<title>Node103</title>
<g id="a_node32"><a xlink:href="class_alignment.html#ac4196c026e0f482eaccf9976f82f72e3" target="_top" xlink:title="Method to report the trimming results in SVG. Outputs a SVG file that shows visually what has been do...">
<polygon fill="#ffffff" stroke="#000000" points="912,-52.735 912,-71.735 1083,-71.735 1083,-52.735 912,-52.735"/>
<text text-anchor="middle" x="997.5" y="-59.735" font-family="Helvetica,sans-Serif" font-size="10.00" fill="#000000">Alignment::alignmentSummarySVG</text>
</a>
</g>
</g>
<!-- Node98&#45;&gt;Node103 -->
<g id="edge51" class="edge">
<title>Node98&#45;&gt;Node103</title>
<path fill="none" stroke="#191970" d="M816.1572,-349.7598C834.4755,-330.6091 859.1923,-301.4558 873,-271.235 908.7172,-193.0612 848.967,-142.7403 909,-81.235 912.6223,-77.5239 916.7812,-74.4539 921.2784,-71.9213"/>
<polygon fill="#191970" stroke="#191970" points="813.4853,-347.4861 808.9953,-357.0825 818.4897,-352.3806 813.4853,-347.4861"/>
</g>
<!-- Node104 -->
<g id="node33" class="node">
<title>Node104</title>
<g id="a_node33"><a xlink:href="classstatistics_1_1_similarity.html#a26f430acb8a3240977665de9a9ea875a" target="_top" xlink:title="Computes and selects the cut point values based on similarity&#39;s values. ">
<polygon fill="#ffffff" stroke="#000000" points="946,-471.235 946,-501.235 1049,-501.235 1049,-471.235 946,-471.235"/>
<text text-anchor="start" x="954" y="-489.235" font-family="Helvetica,sans-Serif" font-size="10.00" fill="#000000">statistics::Similarity</text>
<text text-anchor="middle" x="997.5" y="-478.235" font-family="Helvetica,sans-Serif" font-size="10.00" fill="#000000">::calcCutPoint</text>
</a>
</g>
</g>
<!-- Node98&#45;&gt;Node104 -->
<g id="edge56" class="edge">
<title>Node98&#45;&gt;Node104</title>
<path fill="none" stroke="#191970" d="M828.8938,-392.2443C869.3509,-414.7974 934.2042,-450.9504 970.5574,-471.2157"/>
<polygon fill="#191970" stroke="#191970" points="830.5948,-389.1854 820.156,-387.3733 827.1863,-395.2996 830.5948,-389.1854"/>
</g>
<!-- Node100 -->
<g id="node29" class="node">
<title>Node100</title>
<g id="a_node29"><a xlink:href="classtrim_al_manager.html#a1da8f8b677f19ed8f7e08a663d97bb92" target="_top" xlink:title="trimAlManager::output\l_reports">
<polygon fill="#ffffff" stroke="#000000" points="1350.5,-82.235 1350.5,-112.235 1463.5,-112.235 1463.5,-82.235 1350.5,-82.235"/>
<text text-anchor="start" x="1358.5" y="-100.235" font-family="Helvetica,sans-Serif" font-size="10.00" fill="#000000">trimAlManager::output</text>
<text text-anchor="middle" x="1407" y="-89.235" font-family="Helvetica,sans-Serif" font-size="10.00" fill="#000000">_reports</text>
</a>
</g>
</g>
<!-- Node99&#45;&gt;Node100 -->
<g id="edge44" class="edge">
<title>Node99&#45;&gt;Node100</title>
<path fill="none" stroke="#191970" d="M1096.1445,-99.5124C1175.7105,-98.9295 1284.8165,-98.1301 1350.3619,-97.65"/>
<polygon fill="#191970" stroke="#191970" points="1096.0773,-96.0127 1086.1032,-99.5859 1096.1286,-103.0125 1096.0773,-96.0127"/>
</g>
<!-- Node100&#45;&gt;Node77 -->
<g id="edge45" class="edge">
<title>Node100&#45;&gt;Node77</title>
<path fill="none" stroke="#191970" d="M1433.9143,-118.5519C1455.5659,-134.4183 1487.477,-155.0251 1519,-165.235 1576.403,-183.8271 1645.0442,-188.0506 1695.381,-188.069"/>
<polygon fill="#191970" stroke="#191970" points="1435.9615,-115.7123 1425.8593,-112.5194 1431.7654,-121.3153 1435.9615,-115.7123"/>
</g>
<!-- Node100&#45;&gt;Node80 -->
<g id="edge46" class="edge">
<title>Node100&#45;&gt;Node80</title>
<path fill="none" stroke="#191970" d="M1474.0418,-101.3434C1536.621,-105.1784 1629.737,-110.8846 1693.8991,-114.8166"/>
<polygon fill="#191970" stroke="#191970" points="1474.08,-97.8393 1463.8846,-100.721 1473.6518,-104.8262 1474.08,-97.8393"/>
</g>
<!-- Node102 -->
<g id="node31" class="node">
<title>Node102</title>
<g id="a_node31"><a xlink:href="classtrim_al_manager.html#a63d5bec0938516a2129ccb04276b93d9" target="_top" xlink:title="trimAlManager::svg\l_stats_out">
<polygon fill="#ffffff" stroke="#000000" points="1538,-126.235 1538,-156.235 1639,-156.235 1639,-126.235 1538,-126.235"/>
<text text-anchor="start" x="1546" y="-144.235" font-family="Helvetica,sans-Serif" font-size="10.00" fill="#000000">trimAlManager::svg</text>
<text text-anchor="middle" x="1588.5" y="-133.235" font-family="Helvetica,sans-Serif" font-size="10.00" fill="#000000">_stats_out</text>
</a>
</g>
</g>
<!-- Node101&#45;&gt;Node102 -->
<g id="edge48" class="edge">
<title>Node101&#45;&gt;Node102</title>
<path fill="none" stroke="#191970" d="M1059.9635,-138.5521C1177.5981,-139.1492 1429.8496,-140.4297 1537.7957,-140.9776"/>
<polygon fill="#191970" stroke="#191970" points="1059.7057,-135.0508 1049.6881,-138.4999 1059.6701,-142.0508 1059.7057,-135.0508"/>
</g>
<!-- Node102&#45;&gt;Node77 -->
<g id="edge49" class="edge">
<title>Node102&#45;&gt;Node77</title>
<path fill="none" stroke="#191970" d="M1649.1219,-156.2624C1675.0947,-162.7008 1704.6522,-170.0277 1727.5449,-175.7025"/>
<polygon fill="#191970" stroke="#191970" points="1649.9128,-152.8526 1639.3644,-153.8437 1648.2285,-159.647 1649.9128,-152.8526"/>
</g>
<!-- Node102&#45;&gt;Node80 -->
<g id="edge50" class="edge">
<title>Node102&#45;&gt;Node80</title>
<path fill="none" stroke="#191970" d="M1649.5657,-133.6663C1663.8676,-131.8937 1679.2355,-129.9889 1693.9659,-128.1632"/>
<polygon fill="#191970" stroke="#191970" points="1648.8579,-130.2272 1639.3644,-134.9307 1649.719,-137.174 1648.8579,-130.2272"/>
</g>
<!-- Node103&#45;&gt;Node100 -->
<g id="edge52" class="edge">
<title>Node103&#45;&gt;Node100</title>
<path fill="none" stroke="#191970" d="M1093.4111,-70.4326C1173.2432,-77.2558 1284.1961,-86.739 1350.4815,-92.4044"/>
<polygon fill="#191970" stroke="#191970" points="1093.6064,-66.9366 1083.3446,-69.5722 1093.0102,-73.9111 1093.6064,-66.9366"/>
</g>
<!-- Node104&#45;&gt;Node82 -->
<g id="edge58" class="edge">
<title>Node104&#45;&gt;Node82</title>
<path fill="none" stroke="#191970" d="M1057.3953,-504.1184C1096.177,-515.6978 1145.1402,-530.3172 1176.6362,-539.7212"/>
<polygon fill="#191970" stroke="#191970" points="1058.3551,-500.7524 1047.7717,-501.2451 1056.3523,-507.4598 1058.3551,-500.7524"/>
</g>
<!-- Node104&#45;&gt;Node89 -->
<g id="edge57" class="edge">
<title>Node104&#45;&gt;Node89</title>
<path fill="none" stroke="#191970" d="M1057.3953,-468.3516C1096.177,-456.7722 1145.1402,-442.1529 1176.6362,-432.7489"/>
<polygon fill="#191970" stroke="#191970" points="1056.3523,-465.0102 1047.7717,-471.225 1058.3551,-471.7177 1056.3523,-465.0102"/>
</g>
<!-- Node105&#45;&gt;Node74 -->
<g id="edge63" class="edge">
<title>Node105&#45;&gt;Node74</title>
<path fill="none" stroke="#191970" d="M281.3509,-310.4257C300.4345,-321.7063 325.7379,-334.926 350,-342.235 418.0694,-362.7412 500.4661,-368.1616 552.6914,-369.3431"/>
<polygon fill="#191970" stroke="#191970" points="283.1492,-307.4229 272.781,-305.2432 279.5269,-313.4129 283.1492,-307.4229"/>
</g>
<!-- Node105&#45;&gt;Node82 -->
<g id="edge64" class="edge">
<title>Node105&#45;&gt;Node82</title>
<path fill="none" stroke="#191970" d="M271.7964,-312.8187C290.7252,-331.0148 319.7806,-355.7183 350,-369.235 484.6674,-429.47 534.6078,-387.6603 677,-426.235 766.7228,-450.5414 796.7735,-446.0325 873,-499.235 893.1606,-513.3062 886.803,-530.6645 909,-541.235 994.0011,-581.7137 1108.5234,-568.9521 1168.3305,-558.0003"/>
<polygon fill="#191970" stroke="#191970" points="273.9124,-309.9905 264.3301,-305.4704 269.0022,-314.9795 273.9124,-309.9905"/>
</g>
<!-- Node105&#45;&gt;Node83 -->
<g id="edge65" class="edge">
<title>Node105&#45;&gt;Node83</title>
<path fill="none" stroke="#191970" d="M324.199,-273.937C343.0779,-269.7902 362.7548,-265.4681 379.5332,-261.7826"/>
<polygon fill="#191970" stroke="#191970" points="323.4351,-270.5213 314.4188,-276.0852 324.9369,-277.3583 323.4351,-270.5213"/>
</g>
<!-- Node105&#45;&gt;Node84 -->
<g id="edge67" class="edge">
<title>Node105&#45;&gt;Node84</title>
<path fill="none" stroke="#191970" d="M324.5278,-290.235C336.1418,-290.235 348.0493,-290.235 359.3911,-290.235"/>
<polygon fill="#191970" stroke="#191970" points="324.4188,-286.7351 314.4188,-290.235 324.4188,-293.7351 324.4188,-286.7351"/>
</g>
<!-- Node105&#45;&gt;Node86 -->
<g id="edge68" class="edge">
<title>Node105&#45;&gt;Node86</title>
<path fill="none" stroke="#191970" d="M281.1829,-269.6149C300.3861,-257.6493 325.8706,-243.0506 350,-233.235 359.0979,-229.5341 369.1307,-226.3709 378.7696,-223.748"/>
<polygon fill="#191970" stroke="#191970" points="279.1393,-266.7662 272.5622,-275.0723 282.8835,-272.6806 279.1393,-266.7662"/>
</g>
<!-- Node105&#45;&gt;Node90 -->
<g id="edge66" class="edge">
<title>Node105&#45;&gt;Node90</title>
<path fill="none" stroke="#191970" d="M324.1818,-305.6796C332.8559,-307.0843 341.6032,-308.32 350,-309.235 558.2269,-331.927 806.1976,-331.6573 925.8646,-329.8258"/>
<polygon fill="#191970" stroke="#191970" points="324.5026,-302.1841 314.0581,-303.962 323.3317,-309.0855 324.5026,-302.1841"/>
</g>
<!-- Node105&#45;&gt;Node96 -->
<g id="edge69" class="edge">
<title>Node105&#45;&gt;Node96</title>
<path fill="none" stroke="#191970" d="M266.1819,-313.8367C285.0875,-340.8141 317.8865,-385.811 350,-421.235 367.5658,-440.6116 389.8073,-460.7882 405.0972,-474.0795"/>
<polygon fill="#191970" stroke="#191970" points="268.9088,-311.6277 260.3241,-305.4185 263.1629,-315.6259 268.9088,-311.6277"/>
</g>
<!-- Node105&#45;&gt;Node99 -->
<g id="edge60" class="edge">
<title>Node105&#45;&gt;Node99</title>
<path fill="none" stroke="#191970" d="M259.251,-265.3302C273.269,-231.3792 303.3099,-171.458 350,-142.235 547.6607,-18.521 849.0179,-67.4151 957.1397,-90.6649"/>
<polygon fill="#191970" stroke="#191970" points="255.8603,-264.3848 255.4143,-274.9702 262.3641,-266.9733 255.8603,-264.3848"/>
</g>
<!-- Node105&#45;&gt;Node101 -->
<g id="edge61" class="edge">
<title>Node105&#45;&gt;Node101</title>
<path fill="none" stroke="#191970" d="M267.6817,-266.9972C285.8344,-244.8933 316.1513,-212.5238 350,-195.235 549.9905,-93.0866 830.3188,-115.304 945.2377,-130.2618"/>
<polygon fill="#191970" stroke="#191970" points="264.8603,-264.921 261.3381,-274.9132 270.3228,-269.2984 264.8603,-264.921"/>
</g>
<!-- Node105&#45;&gt;Node103 -->
<g id="edge62" class="edge">
<title>Node105&#45;&gt;Node103</title>
<path fill="none" stroke="#191970" d="M253.9318,-265.3259C262.4887,-220.1685 287.3204,-125.299 350,-80.235 546.5394,61.0685 870.3389,-22.5241 968.4436,-52.717"/>
<polygon fill="#191970" stroke="#191970" points="250.4851,-264.7178 252.1765,-275.1767 257.3766,-265.9458 250.4851,-264.7178"/>
</g>
</g>
</svg>
