<?xml version="1.0" encoding="UTF-8" standalone="no"?>
<!DOCTYPE svg PUBLIC "-//W3C//DTD SVG 1.1//EN"
 "http://www.w3.org/Graphics/SVG/1.1/DTD/svg11.dtd">
<!-- Generated by graphviz version 2.40.1 (20161225.0304)
 -->
<!-- Title: trimAlManager::force_select_argument Pages: 1 -->
<svg width="861pt" height="220pt"
 viewBox="0.00 0.00 861.00 220.00" xmlns="http://www.w3.org/2000/svg" xmlns:xlink="http://www.w3.org/1999/xlink">
<g id="graph0" class="graph" transform="scale(1 1) rotate(0) translate(4 216)">
<title>trimAlManager::force_select_argument</title>
<polygon fill="#ffffff" stroke="transparent" points="-4,4 -4,-216 857,-216 857,4 -4,4"/>
<!-- Node598 -->
<g id="node1" class="node">
<title>Node598</title>
<polygon fill="#bfbfbf" stroke="#000000" points="0,-24.5 0,-54.5 107,-54.5 107,-24.5 0,-24.5"/>
<text text-anchor="start" x="8" y="-42.5" font-family="Helvetica,sans-Serif" font-size="10.00" fill="#000000">trimAlManager::force</text>
<text text-anchor="middle" x="53.5" y="-31.5" font-family="Helvetica,sans-Serif" font-size="10.00" fill="#000000">_select_argument</text>
</g>
<!-- Node599 -->
<g id="node2" class="node">
<title>Node599</title>
<g id="a_node2"><a xlink:href="class_format_handling_1_1_format_manager.html#a057615a4fa5e9644a81540ba526725a6" target="_top" xlink:title="Function that loads an alignment given a file path. It automatically detects the format of the file...">
<polygon fill="#ffffff" stroke="#000000" points="143,-49.5 143,-79.5 303,-79.5 303,-49.5 143,-49.5"/>
<text text-anchor="start" x="151" y="-67.5" font-family="Helvetica,sans-Serif" font-size="10.00" fill="#000000">FormatHandling::FormatManager</text>
<text text-anchor="middle" x="223" y="-56.5" font-family="Helvetica,sans-Serif" font-size="10.00" fill="#000000">::loadAlignment</text>
</a>
</g>
</g>
<!-- Node598&#45;&gt;Node599 -->
<g id="edge1" class="edge">
<title>Node598&#45;&gt;Node599</title>
<path fill="none" stroke="#191970" d="M107.1309,-47.4102C115.3757,-48.6262 124.0767,-49.9095 132.8553,-51.2043"/>
<polygon fill="#191970" stroke="#191970" points="132.3757,-54.6714 142.7794,-52.6681 133.3971,-47.7463 132.3757,-54.6714"/>
</g>
<!-- Node605 -->
<g id="node8" class="node">
<title>Node605</title>
<g id="a_node8"><a xlink:href="classreporting_1_1report_manager.html#a6d122e673144584e0869bd33b8a5c1c6" target="_top" xlink:title="Method to report an Error. &#160;It will be displayed if Level &#160;is equal or higher to VerboseLevel::ERROR...">
<polygon fill="#ffffff" stroke="#000000" points="162,-.5 162,-30.5 284,-30.5 284,-.5 162,-.5"/>
<text text-anchor="start" x="170" y="-18.5" font-family="Helvetica,sans-Serif" font-size="10.00" fill="#000000">reporting::reportManager</text>
<text text-anchor="middle" x="223" y="-7.5" font-family="Helvetica,sans-Serif" font-size="10.00" fill="#000000">::report</text>
</a>
</g>
</g>
<!-- Node598&#45;&gt;Node605 -->
<g id="edge9" class="edge">
<title>Node598&#45;&gt;Node605</title>
<path fill="none" stroke="#191970" d="M107.1309,-31.9063C121.2367,-29.909 136.6781,-27.7226 151.5581,-25.6157"/>
<polygon fill="#191970" stroke="#191970" points="152.3362,-29.0405 161.7467,-24.173 151.3548,-22.1096 152.3362,-29.0405"/>
</g>
<!-- Node600 -->
<g id="node3" class="node">
<title>Node600</title>
<g id="a_node3"><a xlink:href="class_format_handling_1_1_format_manager.html#a850c827a60ae4ee1e5bb34b7485f0412" target="_top" xlink:title="FormatHandling::FormatManager\l::getFormatFromFile">
<polygon fill="#ffffff" stroke="#000000" points="339,-115.5 339,-145.5 499,-145.5 499,-115.5 339,-115.5"/>
<text text-anchor="start" x="347" y="-133.5" font-family="Helvetica,sans-Serif" font-size="10.00" fill="#000000">FormatHandling::FormatManager</text>
<text text-anchor="middle" x="419" y="-122.5" font-family="Helvetica,sans-Serif" font-size="10.00" fill="#000000">::getFormatFromFile</text>
</a>
</g>
</g>
<!-- Node599&#45;&gt;Node600 -->
<g id="edge2" class="edge">
<title>Node599&#45;&gt;Node600</title>
<path fill="none" stroke="#191970" d="M267.9664,-79.6417C296.7254,-89.3259 334.204,-101.9463 364.6316,-112.1923"/>
<polygon fill="#191970" stroke="#191970" points="363.6488,-115.5544 374.2429,-115.4287 365.8827,-108.9204 363.6488,-115.5544"/>
</g>
<!-- Node602 -->
<g id="node5" class="node">
<title>Node602</title>
<g id="a_node5"><a xlink:href="classreporting_1_1report_manager.html#ab093ae2e909308ebb4118d6f6a03f5fd" target="_top" xlink:title="Method to report an Error. It will be displayed if Level &#160;is equal or higher to VerboseLevel::ERROR. ">
<polygon fill="#ffffff" stroke="#000000" points="731,-137.5 731,-167.5 853,-167.5 853,-137.5 731,-137.5"/>
<text text-anchor="start" x="739" y="-155.5" font-family="Helvetica,sans-Serif" font-size="10.00" fill="#000000">reporting::reportManager</text>
<text text-anchor="middle" x="792" y="-144.5" font-family="Helvetica,sans-Serif" font-size="10.00" fill="#000000">::report</text>
</a>
</g>
</g>
<!-- Node599&#45;&gt;Node602 -->
<g id="edge7" class="edge">
<title>Node599&#45;&gt;Node602</title>
<path fill="none" stroke="#191970" d="M303.1941,-54.1466C399.1876,-44.7956 563.4591,-38.5521 695,-83.5 723.3212,-93.1774 750.6416,-113.9872 769.0302,-130.2371"/>
<polygon fill="#191970" stroke="#191970" points="767.0698,-133.1853 776.822,-137.3261 771.7805,-128.0076 767.0698,-133.1853"/>
</g>
<!-- Node604 -->
<g id="node7" class="node">
<title>Node604</title>
<g id="a_node7"><a xlink:href="class_format_handling_1_1_base_format_handler.html#a481d8f3ff416366bff9516f55620c9f4" target="_top" xlink:title="Function to load a file in the current format and return an alignment object. ">
<polygon fill="#ffffff" stroke="#000000" points="346.5,-5.5 346.5,-35.5 491.5,-35.5 491.5,-5.5 346.5,-5.5"/>
<text text-anchor="start" x="354.5" y="-23.5" font-family="Helvetica,sans-Serif" font-size="10.00" fill="#000000">FormatHandling::BaseFormat</text>
<text text-anchor="middle" x="419" y="-12.5" font-family="Helvetica,sans-Serif" font-size="10.00" fill="#000000">Handler::LoadAlignment</text>
</a>
</g>
</g>
<!-- Node599&#45;&gt;Node604 -->
<g id="edge8" class="edge">
<title>Node599&#45;&gt;Node604</title>
<path fill="none" stroke="#191970" d="M289.9039,-49.4808C306.6833,-45.714 324.8194,-41.6426 342.0452,-37.7756"/>
<polygon fill="#191970" stroke="#191970" points="343.0746,-41.1317 352.0651,-35.5262 341.5413,-34.3017 343.0746,-41.1317"/>
</g>
<!-- Node601 -->
<g id="node4" class="node">
<title>Node601</title>
<g id="a_node4"><a xlink:href="class_format_handling_1_1_format_manager.html#a0b032188aa2d883026e547ea665c9b45" target="_top" xlink:title="FormatHandling::FormatManager\l::getNonEmptyFile">
<polygon fill="#ffffff" stroke="#000000" points="535,-181.5 535,-211.5 695,-211.5 695,-181.5 535,-181.5"/>
<text text-anchor="start" x="543" y="-199.5" font-family="Helvetica,sans-Serif" font-size="10.00" fill="#000000">FormatHandling::FormatManager</text>
<text text-anchor="middle" x="615" y="-188.5" font-family="Helvetica,sans-Serif" font-size="10.00" fill="#000000">::getNonEmptyFile</text>
</a>
</g>
</g>
<!-- Node600&#45;&gt;Node601 -->
<g id="edge3" class="edge">
<title>Node600&#45;&gt;Node601</title>
<path fill="none" stroke="#191970" d="M463.9664,-145.6417C492.7254,-155.3259 530.204,-167.9463 560.6316,-178.1923"/>
<polygon fill="#191970" stroke="#191970" points="559.6488,-181.5544 570.2429,-181.4287 561.8827,-174.9204 559.6488,-181.5544"/>
</g>
<!-- Node600&#45;&gt;Node602 -->
<g id="edge6" class="edge">
<title>Node600&#45;&gt;Node602</title>
<path fill="none" stroke="#191970" d="M499.0179,-135.2196C564.8178,-139.1005 657.2121,-144.55 720.5511,-148.2859"/>
<polygon fill="#191970" stroke="#191970" points="720.6608,-151.7983 730.8496,-148.8933 721.073,-144.8105 720.6608,-151.7983"/>
</g>
<!-- Node603 -->
<g id="node6" class="node">
<title>Node603</title>
<g id="a_node6"><a xlink:href="class_format_handling_1_1_base_format_handler.html#a6186050eb30aec3f4fa7e1c834f2add1" target="_top" xlink:title="Function to check if a file is in the implemented format. ">
<polygon fill="#ffffff" stroke="#000000" points="542.5,-93.5 542.5,-123.5 687.5,-123.5 687.5,-93.5 542.5,-93.5"/>
<text text-anchor="start" x="550.5" y="-111.5" font-family="Helvetica,sans-Serif" font-size="10.00" fill="#000000">FormatHandling::BaseFormat</text>
<text text-anchor="middle" x="615" y="-100.5" font-family="Helvetica,sans-Serif" font-size="10.00" fill="#000000">Handler::CheckAlignment</text>
</a>
</g>
</g>
<!-- Node600&#45;&gt;Node603 -->
<g id="edge5" class="edge">
<title>Node600&#45;&gt;Node603</title>
<path fill="none" stroke="#191970" d="M499.0034,-121.52C510.0252,-120.2829 521.3615,-119.0104 532.4286,-117.7682"/>
<polygon fill="#191970" stroke="#191970" points="532.9526,-121.2315 542.4998,-116.6378 532.1718,-114.2752 532.9526,-121.2315"/>
</g>
<!-- Node601&#45;&gt;Node602 -->
<g id="edge4" class="edge">
<title>Node601&#45;&gt;Node602</title>
<path fill="none" stroke="#191970" d="M675.4183,-181.4808C690.2879,-177.7844 706.3374,-173.7947 721.6319,-169.9926"/>
<polygon fill="#191970" stroke="#191970" points="722.6934,-173.3354 731.5537,-167.5262 721.0046,-166.5421 722.6934,-173.3354"/>
</g>
</g>
</svg>
