<?xml version="1.0" encoding="UTF-8" standalone="no"?>
<!DOCTYPE svg PUBLIC "-//W3C//DTD SVG 1.1//EN"
 "http://www.w3.org/Graphics/SVG/1.1/DTD/svg11.dtd">
<!-- Generated by graphviz version 2.40.1 (20161225.0304)
 -->
<!-- Title: Cleaner::removeOnlyTerminal Pages: 1 -->
<svg width="678pt" height="253pt"
 viewBox="0.00 0.00 678.00 253.00" xmlns="http://www.w3.org/2000/svg" xmlns:xlink="http://www.w3.org/1999/xlink">
<g id="graph0" class="graph" transform="scale(1 1) rotate(0) translate(4 249)">
<title>Cleaner::removeOnlyTerminal</title>
<polygon fill="#ffffff" stroke="transparent" points="-4,4 -4,-249 674,-249 674,4 -4,4"/>
<!-- Node533 -->
<g id="node1" class="node">
<title>Node533</title>
<polygon fill="#bfbfbf" stroke="#000000" points="0,-72 0,-91 146,-91 146,-72 0,-72"/>
<text text-anchor="middle" x="73" y="-79" font-family="Helvetica,sans-Serif" font-size="10.00" fill="#000000">Cleaner::removeOnlyTerminal</text>
</g>
<!-- Node534 -->
<g id="node2" class="node">
<title>Node534</title>
<g id="a_node2"><a xlink:href="classstatistics_1_1_manager.html#a1969a416d3020d25daa56de6c5e305db" target="_top" xlink:title="Method to handle gap stat calculation It checks if the gaps submodule has been created, otherwise, creates it. ">
<polygon fill="#ffffff" stroke="#000000" points="202.5,-153.5 202.5,-183.5 305.5,-183.5 305.5,-153.5 202.5,-153.5"/>
<text text-anchor="start" x="210.5" y="-171.5" font-family="Helvetica,sans-Serif" font-size="10.00" fill="#000000">statistics::Manager</text>
<text text-anchor="middle" x="254" y="-160.5" font-family="Helvetica,sans-Serif" font-size="10.00" fill="#000000">::calculateGapStats</text>
</a>
</g>
</g>
<!-- Node533&#45;&gt;Node534 -->
<g id="edge1" class="edge">
<title>Node533&#45;&gt;Node534</title>
<path fill="none" stroke="#191970" d="M93.0617,-91.1429C121.996,-105.0506 176.0697,-131.0418 213.505,-149.0356"/>
<polygon fill="#191970" stroke="#191970" points="212.1093,-152.248 222.6385,-153.4257 215.1419,-145.939 212.1093,-152.248"/>
</g>
<!-- Node539 -->
<g id="node7" class="node">
<title>Node539</title>
<g id="a_node7"><a xlink:href="classreporting_1_1report_manager.html#a6d122e673144584e0869bd33b8a5c1c6" target="_top" xlink:title="Method to report an Error. &#160;It will be displayed if Level &#160;is equal or higher to VerboseLevel::ERROR...">
<polygon fill="#ffffff" stroke="#000000" points="548,-66.5 548,-96.5 670,-96.5 670,-66.5 548,-66.5"/>
<text text-anchor="start" x="556" y="-84.5" font-family="Helvetica,sans-Serif" font-size="10.00" fill="#000000">reporting::reportManager</text>
<text text-anchor="middle" x="609" y="-73.5" font-family="Helvetica,sans-Serif" font-size="10.00" fill="#000000">::report</text>
</a>
</g>
</g>
<!-- Node533&#45;&gt;Node539 -->
<g id="edge12" class="edge">
<title>Node533&#45;&gt;Node539</title>
<path fill="none" stroke="#191970" d="M146.2843,-79.2064C158.2206,-78.9124 170.4533,-78.6589 182,-78.5 328.6528,-76.4822 365.3509,-76.2328 512,-78.5 520.3547,-78.6292 529.1128,-78.8209 537.8043,-79.046"/>
<polygon fill="#191970" stroke="#191970" points="537.8566,-82.5487 547.9488,-79.324 538.0484,-75.5513 537.8566,-82.5487"/>
</g>
<!-- Node541 -->
<g id="node9" class="node">
<title>Node541</title>
<g id="a_node9"><a xlink:href="classstatistics_1_1_gaps.html#ab5b60db326475f8adc68b130e22b3963" target="_top" xlink:title="statistics::Gaps::getGaps\lWindow">
<polygon fill="#ffffff" stroke="#000000" points="190,-88.5 190,-118.5 318,-118.5 318,-88.5 190,-88.5"/>
<text text-anchor="start" x="198" y="-106.5" font-family="Helvetica,sans-Serif" font-size="10.00" fill="#000000">statistics::Gaps::getGaps</text>
<text text-anchor="middle" x="254" y="-95.5" font-family="Helvetica,sans-Serif" font-size="10.00" fill="#000000">Window</text>
</a>
</g>
</g>
<!-- Node533&#45;&gt;Node541 -->
<g id="edge9" class="edge">
<title>Node533&#45;&gt;Node541</title>
<path fill="none" stroke="#191970" d="M146.0979,-90.3848C157.2154,-91.7361 168.697,-93.1317 179.837,-94.4857"/>
<polygon fill="#191970" stroke="#191970" points="179.6021,-97.9828 189.9514,-95.7151 180.4468,-91.034 179.6021,-97.9828"/>
</g>
<!-- Node543 -->
<g id="node11" class="node">
<title>Node543</title>
<g id="a_node11"><a xlink:href="class_alignment.html#a0b32dd76a1a98278068a7b65797ae6b9" target="_top" xlink:title="Updates the sequence number and residue number based on saveResidues and saveSequences. ">
<polygon fill="#ffffff" stroke="#000000" points="182,-.5 182,-30.5 326,-30.5 326,-.5 182,-.5"/>
<text text-anchor="start" x="190" y="-18.5" font-family="Helvetica,sans-Serif" font-size="10.00" fill="#000000">Alignment::updateSequences</text>
<text text-anchor="middle" x="254" y="-7.5" font-family="Helvetica,sans-Serif" font-size="10.00" fill="#000000">AndResiduesNums</text>
</a>
</g>
</g>
<!-- Node533&#45;&gt;Node543 -->
<g id="edge13" class="edge">
<title>Node533&#45;&gt;Node543</title>
<path fill="none" stroke="#191970" d="M99.319,-71.903C126.358,-62.0435 169.1451,-46.4416 202.8711,-34.1437"/>
<polygon fill="#191970" stroke="#191970" points="204.374,-37.3212 212.5698,-30.6071 201.9759,-30.7447 204.374,-37.3212"/>
</g>
<!-- Node535 -->
<g id="node3" class="node">
<title>Node535</title>
<g id="a_node3"><a xlink:href="classstatistics_1_1_gaps.html#a2f1d71bafa5e44e5f2c96771cf2a26ed" target="_top" xlink:title="statistics::Gaps::Gaps">
<polygon fill="#ffffff" stroke="#000000" points="379.5,-176 379.5,-195 494.5,-195 494.5,-176 379.5,-176"/>
<text text-anchor="middle" x="437" y="-183" font-family="Helvetica,sans-Serif" font-size="10.00" fill="#000000">statistics::Gaps::Gaps</text>
</a>
</g>
</g>
<!-- Node534&#45;&gt;Node535 -->
<g id="edge2" class="edge">
<title>Node534&#45;&gt;Node535</title>
<path fill="none" stroke="#191970" d="M305.951,-173.326C325.6567,-175.1566 348.3928,-177.2687 369.3377,-179.2144"/>
<polygon fill="#191970" stroke="#191970" points="369.1738,-182.7142 379.4547,-180.1543 369.8214,-175.7442 369.1738,-182.7142"/>
</g>
<!-- Node537 -->
<g id="node5" class="node">
<title>Node537</title>
<g id="a_node5"><a xlink:href="classstatistics_1_1_gaps.html#aa3526494d5100e062daa4afba755d0b1" target="_top" xlink:title="statistics::Gaps::Calculate\lVectors">
<polygon fill="#ffffff" stroke="#000000" points="370.5,-214.5 370.5,-244.5 503.5,-244.5 503.5,-214.5 370.5,-214.5"/>
<text text-anchor="start" x="378.5" y="-232.5" font-family="Helvetica,sans-Serif" font-size="10.00" fill="#000000">statistics::Gaps::Calculate</text>
<text text-anchor="middle" x="437" y="-221.5" font-family="Helvetica,sans-Serif" font-size="10.00" fill="#000000">Vectors</text>
</a>
</g>
</g>
<!-- Node534&#45;&gt;Node537 -->
<g id="edge4" class="edge">
<title>Node534&#45;&gt;Node537</title>
<path fill="none" stroke="#191970" d="M299.236,-183.5787C324.4051,-191.9684 355.912,-202.4707 382.4403,-211.3134"/>
<polygon fill="#191970" stroke="#191970" points="381.374,-214.6473 391.9676,-214.4892 383.5876,-208.0065 381.374,-214.6473"/>
</g>
<!-- Node538 -->
<g id="node6" class="node">
<title>Node538</title>
<g id="a_node6"><a xlink:href="classstatistics_1_1_gaps.html#aee36b772767467cdba2061df2305e85d" target="_top" xlink:title="statistics::Gaps::applyWindow">
<polygon fill="#ffffff" stroke="#000000" points="362,-138 362,-157 512,-157 512,-138 362,-138"/>
<text text-anchor="middle" x="437" y="-145" font-family="Helvetica,sans-Serif" font-size="10.00" fill="#000000">statistics::Gaps::applyWindow</text>
</a>
</g>
</g>
<!-- Node534&#45;&gt;Node538 -->
<g id="edge5" class="edge">
<title>Node534&#45;&gt;Node538</title>
<path fill="none" stroke="#191970" d="M305.951,-162.5384C320.1668,-160.9071 335.9598,-159.0948 351.5196,-157.3092"/>
<polygon fill="#191970" stroke="#191970" points="352.1563,-160.7592 361.6921,-156.1419 351.3582,-153.8049 352.1563,-160.7592"/>
</g>
<!-- Node536 -->
<g id="node4" class="node">
<title>Node536</title>
<g id="a_node4"><a xlink:href="namespaceutils.html#aac322cd1761fddedec8a5792e358eb32" target="_top" xlink:title="Vector initialization. ">
<polygon fill="#ffffff" stroke="#000000" points="571,-176 571,-195 647,-195 647,-176 571,-176"/>
<text text-anchor="middle" x="609" y="-183" font-family="Helvetica,sans-Serif" font-size="10.00" fill="#000000">utils::initlVect</text>
</a>
</g>
</g>
<!-- Node535&#45;&gt;Node536 -->
<g id="edge3" class="edge">
<title>Node535&#45;&gt;Node536</title>
<path fill="none" stroke="#191970" d="M494.752,-185.5C516.2084,-185.5 540.3039,-185.5 560.8157,-185.5"/>
<polygon fill="#191970" stroke="#191970" points="560.8752,-189.0001 570.8752,-185.5 560.8751,-182.0001 560.8752,-189.0001"/>
</g>
<!-- Node538&#45;&gt;Node536 -->
<g id="edge7" class="edge">
<title>Node538&#45;&gt;Node536</title>
<path fill="none" stroke="#191970" d="M480.4029,-157.089C504.8938,-162.4998 535.5508,-169.2729 560.7884,-174.8486"/>
<polygon fill="#191970" stroke="#191970" points="560.3614,-178.3386 570.881,-177.0784 561.8715,-171.5034 560.3614,-178.3386"/>
</g>
<!-- Node538&#45;&gt;Node539 -->
<g id="edge6" class="edge">
<title>Node538&#45;&gt;Node539</title>
<path fill="none" stroke="#191970" d="M481.0788,-137.9224C491.3493,-135.2551 502.1569,-132.0892 512,-128.5 532.66,-120.9665 554.7924,-110.4455 572.6918,-101.2672"/>
<polygon fill="#191970" stroke="#191970" points="574.3808,-104.3339 581.636,-96.6129 571.1495,-98.1243 574.3808,-104.3339"/>
</g>
<!-- Node540 -->
<g id="node8" class="node">
<title>Node540</title>
<g id="a_node8"><a xlink:href="namespaceutils.html#ad50731aeb3c8f79ed8372516210dfc9d" target="_top" xlink:title="Round double to integer method. ">
<polygon fill="#ffffff" stroke="#000000" points="571,-138 571,-157 647,-157 647,-138 571,-138"/>
<text text-anchor="middle" x="609" y="-145" font-family="Helvetica,sans-Serif" font-size="10.00" fill="#000000">utils::roundInt</text>
</a>
</g>
</g>
<!-- Node538&#45;&gt;Node540 -->
<g id="edge8" class="edge">
<title>Node538&#45;&gt;Node540</title>
<path fill="none" stroke="#191970" d="M512.1915,-147.5C528.6435,-147.5 545.6317,-147.5 560.696,-147.5"/>
<polygon fill="#191970" stroke="#191970" points="560.7876,-151.0001 570.7876,-147.5 560.7876,-144.0001 560.7876,-151.0001"/>
</g>
<!-- Node541&#45;&gt;Node538 -->
<g id="edge11" class="edge">
<title>Node541&#45;&gt;Node538</title>
<path fill="none" stroke="#191970" d="M316.4664,-118.5192C339.7222,-124.1108 365.7695,-130.3735 387.6839,-135.6426"/>
<polygon fill="#191970" stroke="#191970" points="386.8958,-139.0528 397.437,-137.9876 388.5323,-132.2467 386.8958,-139.0528"/>
</g>
<!-- Node542 -->
<g id="node10" class="node">
<title>Node542</title>
<g id="a_node10"><a xlink:href="classstatistics_1_1_gaps.html#ad812a924cf5e3f900aad3ed4a9664300" target="_top" xlink:title="statistics::Gaps::isDefined\lWindow">
<polygon fill="#ffffff" stroke="#000000" points="370.5,-88.5 370.5,-118.5 503.5,-118.5 503.5,-88.5 370.5,-88.5"/>
<text text-anchor="start" x="378.5" y="-106.5" font-family="Helvetica,sans-Serif" font-size="10.00" fill="#000000">statistics::Gaps::isDefined</text>
<text text-anchor="middle" x="437" y="-95.5" font-family="Helvetica,sans-Serif" font-size="10.00" fill="#000000">Window</text>
</a>
</g>
</g>
<!-- Node541&#45;&gt;Node542 -->
<g id="edge10" class="edge">
<title>Node541&#45;&gt;Node542</title>
<path fill="none" stroke="#191970" d="M318.0045,-103.5C331.6066,-103.5 346.1023,-103.5 360.1273,-103.5"/>
<polygon fill="#191970" stroke="#191970" points="360.237,-107.0001 370.237,-103.5 360.237,-100.0001 360.237,-107.0001"/>
</g>
</g>
</svg>
