<?xml version="1.0" encoding="UTF-8" standalone="no"?>
<!DOCTYPE svg PUBLIC "-//W3C//DTD SVG 1.1//EN"
 "http://www.w3.org/Graphics/SVG/1.1/DTD/svg11.dtd">
<!-- Generated by graphviz version 2.40.1 (20161225.0304)
 -->
<!-- Title: Cleaner::cleanSpuriousSeq Pages: 1 -->
<svg width="893pt" height="66pt"
 viewBox="0.00 0.00 893.00 66.00" xmlns="http://www.w3.org/2000/svg" xmlns:xlink="http://www.w3.org/1999/xlink">
<g id="graph0" class="graph" transform="scale(1 1) rotate(0) translate(4 62)">
<title>Cleaner::cleanSpuriousSeq</title>
<polygon fill="#ffffff" stroke="transparent" points="-4,4 -4,-62 889,-62 889,4 -4,4"/>
<!-- Node436 -->
<g id="node1" class="node">
<title>Node436</title>
<polygon fill="#bfbfbf" stroke="#000000" points="0,-19.5 0,-38.5 135,-38.5 135,-19.5 0,-19.5"/>
<text text-anchor="middle" x="67.5" y="-26.5" font-family="Helvetica,sans-Serif" font-size="10.00" fill="#000000">Cleaner::cleanSpuriousSeq</text>
</g>
<!-- Node437 -->
<g id="node2" class="node">
<title>Node437</title>
<g id="a_node2"><a xlink:href="classtrim_al_manager.html#a10536f715945a1a45f1df33f7cedc81e" target="_top" xlink:title="Method to trim or reduce the number of sequences in an alignment. It performs one or none of the foll...">
<polygon fill="#ffffff" stroke="#000000" points="171,-19.5 171,-38.5 331,-38.5 331,-19.5 171,-19.5"/>
<text text-anchor="middle" x="251" y="-26.5" font-family="Helvetica,sans-Serif" font-size="10.00" fill="#000000">trimAlManager::CleanSequences</text>
</a>
</g>
</g>
<!-- Node436&#45;&gt;Node437 -->
<g id="edge1" class="edge">
<title>Node436&#45;&gt;Node437</title>
<path fill="none" stroke="#191970" d="M145.27,-29C153.7336,-29 162.3597,-29 170.851,-29"/>
<polygon fill="#191970" stroke="#191970" points="145.0469,-25.5001 135.0469,-29 145.0468,-32.5001 145.0469,-25.5001"/>
</g>
<!-- Node438 -->
<g id="node3" class="node">
<title>Node438</title>
<g id="a_node3"><a xlink:href="classtrim_al_manager.html#adc529dd893ed4e9df6f3ddbd58776068" target="_top" xlink:title="Core Method of the program. This is where almost all cleaning methods are called from. ">
<polygon fill="#ffffff" stroke="#000000" points="367,-14 367,-44 476,-44 476,-14 367,-14"/>
<text text-anchor="start" x="375" y="-32" font-family="Helvetica,sans-Serif" font-size="10.00" fill="#000000">trimAlManager::clean</text>
<text text-anchor="middle" x="421.5" y="-21" font-family="Helvetica,sans-Serif" font-size="10.00" fill="#000000">_alignment</text>
</a>
</g>
</g>
<!-- Node437&#45;&gt;Node438 -->
<g id="edge2" class="edge">
<title>Node437&#45;&gt;Node438</title>
<path fill="none" stroke="#191970" d="M341.4703,-29C350.1602,-29 358.7775,-29 366.9593,-29"/>
<polygon fill="#191970" stroke="#191970" points="341.2575,-25.5001 331.2574,-29 341.2574,-32.5001 341.2575,-25.5001"/>
</g>
<!-- Node439 -->
<g id="node4" class="node">
<title>Node439</title>
<g id="a_node4"><a xlink:href="classtrim_al_manager.html#a7c641a1feff33d401b4ea5c82e989289" target="_top" xlink:title="trimAlManager::innerPerform">
<polygon fill="#ffffff" stroke="#000000" points="513.5,-38.5 513.5,-57.5 654.5,-57.5 654.5,-38.5 513.5,-38.5"/>
<text text-anchor="middle" x="584" y="-45.5" font-family="Helvetica,sans-Serif" font-size="10.00" fill="#000000">trimAlManager::innerPerform</text>
</a>
</g>
</g>
<!-- Node438&#45;&gt;Node439 -->
<g id="edge3" class="edge">
<title>Node438&#45;&gt;Node439</title>
<path fill="none" stroke="#191970" d="M486.0655,-36.5492C495.0547,-37.6002 504.3286,-38.6846 513.4212,-39.7477"/>
<polygon fill="#191970" stroke="#191970" points="486.401,-33.0647 476.0622,-35.3796 485.588,-40.0173 486.401,-33.0647"/>
</g>
<!-- Node442 -->
<g id="node7" class="node">
<title>Node442</title>
<g id="a_node7"><a xlink:href="classtrim_al_manager.html#ac5795f93b3a2b51bf5d8dddd63b89f73" target="_top" xlink:title="trimAlManager::perform_VCF">
<polygon fill="#ffffff" stroke="#000000" points="512,-.5 512,-19.5 656,-19.5 656,-.5 512,-.5"/>
<text text-anchor="middle" x="584" y="-7.5" font-family="Helvetica,sans-Serif" font-size="10.00" fill="#000000">trimAlManager::perform_VCF</text>
</a>
</g>
</g>
<!-- Node438&#45;&gt;Node442 -->
<g id="edge6" class="edge">
<title>Node438&#45;&gt;Node442</title>
<path fill="none" stroke="#191970" d="M486.2328,-21.4312C494.6937,-20.442 503.4041,-19.4235 511.9757,-18.4213"/>
<polygon fill="#191970" stroke="#191970" points="485.588,-17.9827 476.0622,-22.6204 486.401,-24.9353 485.588,-17.9827"/>
</g>
<!-- Node440 -->
<g id="node5" class="node">
<title>Node440</title>
<g id="a_node5"><a xlink:href="classtrim_al_manager.html#abe8d2841455c644dc9c7d1294b82b00f" target="_top" xlink:title="Method to perform the analysis if all checks have passed. ">
<polygon fill="#ffffff" stroke="#000000" points="692,-38.5 692,-57.5 811,-57.5 811,-38.5 692,-38.5"/>
<text text-anchor="middle" x="751.5" y="-45.5" font-family="Helvetica,sans-Serif" font-size="10.00" fill="#000000">trimAlManager::perform</text>
</a>
</g>
</g>
<!-- Node439&#45;&gt;Node440 -->
<g id="edge4" class="edge">
<title>Node439&#45;&gt;Node440</title>
<path fill="none" stroke="#191970" d="M664.8102,-48C673.9363,-48 683.1089,-48 691.8939,-48"/>
<polygon fill="#191970" stroke="#191970" points="664.5497,-44.5001 654.5496,-48 664.5496,-51.5001 664.5497,-44.5001"/>
</g>
<!-- Node441 -->
<g id="node6" class="node">
<title>Node441</title>
<g id="a_node6"><a xlink:href="trim_al_main_8cpp.html#a0ddf1224851353fc92bfbff6f499fa97" target="_top" xlink:title="main">
<polygon fill="#ffffff" stroke="#000000" points="847,-38.5 847,-57.5 885,-57.5 885,-38.5 847,-38.5"/>
<text text-anchor="middle" x="866" y="-45.5" font-family="Helvetica,sans-Serif" font-size="10.00" fill="#000000">main</text>
</a>
</g>
</g>
<!-- Node440&#45;&gt;Node441 -->
<g id="edge5" class="edge">
<title>Node440&#45;&gt;Node441</title>
<path fill="none" stroke="#191970" d="M821.3198,-48C830.6177,-48 839.4503,-48 846.7697,-48"/>
<polygon fill="#191970" stroke="#191970" points="821.0976,-44.5001 811.0976,-48 821.0975,-51.5001 821.0976,-44.5001"/>
</g>
</g>
</svg>
