<?xml version="1.0" encoding="UTF-8" standalone="no"?>
<!DOCTYPE svg PUBLIC "-//W3C//DTD SVG 1.1//EN"
 "http://www.w3.org/Graphics/SVG/1.1/DTD/svg11.dtd">
<!-- Generated by graphviz version 2.38.0 (20140413.2041)
 -->
<!-- Title: statisticsConservation2 Pages: 1 -->
<svg width="897pt" height="522pt"
 viewBox="0.00 0.00 897.00 522.00" xmlns="http://www.w3.org/2000/svg" xmlns:xlink="http://www.w3.org/1999/xlink">
<g id="graph0" class="graph" transform="scale(1 1) rotate(0) translate(4 518)">
<title>statisticsConservation2</title>
<polygon fill="white" stroke="none" points="-4,4 -4,-518 893,-518 893,4 -4,4"/>
<!-- Node1 -->
<g id="node1" class="node"><title>Node1</title>
<polygon fill="#bfbfbf" stroke="black" points="318.5,-220 318.5,-239 437.5,-239 437.5,-220 318.5,-220"/>
<text text-anchor="middle" x="378" y="-227" font-family="Helvetica,sans-Serif" font-size="10.00">statisticsConservation2</text>
</g>
<!-- Node2 -->
<g id="node2" class="node"><title>Node2</title>
<g id="a_node2"><a xlink:href="classnew_alignment.html" target="_top" xlink:title="Class containing an alignment &#160;This class stores the alignment sequences with it&#39;s names...">
<polygon fill="white" stroke="black" points="346,-68.5 346,-87.5 424,-87.5 424,-68.5 346,-68.5"/>
<text text-anchor="middle" x="385" y="-75.5" font-family="Helvetica,sans-Serif" font-size="10.00">newAlignment</text>
</a>
</g>
</g>
<!-- Node1&#45;&gt;Node2 -->
<g id="edge11" class="edge"><title>Node1&#45;&gt;Node2</title>
<path fill="none" stroke="#9a32cd" stroke-dasharray="5,2" d="M366.626,-211.314C352.088,-187.009 330.747,-141.693 348,-107 352.089,-98.7773 359.874,-92.3254 367.251,-87.6978"/>
<polygon fill="#9a32cd" stroke="#9a32cd" points="363.674,-213.193 371.95,-219.808 369.605,-209.476 363.674,-213.193"/>
<text text-anchor="middle" x="363" y="-132" font-family="Helvetica,sans-Serif" font-size="10.00"> scons</text>
</g>
<!-- Node2&#45;&gt;Node1 -->
<g id="edge1" class="edge"><title>Node2&#45;&gt;Node1</title>
<path fill="none" stroke="#9a32cd" stroke-dasharray="5,2" d="M384.446,-97.8775C383.922,-114.704 383.059,-140 382,-162 380.999,-182.795 379.428,-207.223 378.584,-219.895"/>
<polygon fill="#9a32cd" stroke="#9a32cd" points="387.949,-97.8274 384.753,-87.7262 380.953,-97.6158 387.949,-97.8274"/>
<text text-anchor="middle" x="410.5" y="-132" font-family="Helvetica,sans-Serif" font-size="10.00"> _alignment</text>
</g>
<!-- Node3 -->
<g id="node3" class="node"><title>Node3</title>
<g id="a_node3"><a xlink:href="classstatistics_gaps.html" target="_top" xlink:title="statisticsGaps">
<polygon fill="white" stroke="black" points="241,-0.5 241,-19.5 321,-19.5 321,-0.5 241,-0.5"/>
<text text-anchor="middle" x="281" y="-7.5" font-family="Helvetica,sans-Serif" font-size="10.00">statisticsGaps</text>
</a>
</g>
</g>
<!-- Node2&#45;&gt;Node3 -->
<g id="edge3" class="edge"><title>Node2&#45;&gt;Node3</title>
<path fill="none" stroke="#9a32cd" stroke-dasharray="5,2" d="M362.921,-62.9883C342.231,-49.8584 311.963,-30.6498 294.6,-19.6305"/>
<polygon fill="#9a32cd" stroke="#9a32cd" points="361.085,-65.9685 371.404,-68.3717 364.836,-60.0582 361.085,-65.9685"/>
<text text-anchor="middle" x="365.5" y="-41" font-family="Helvetica,sans-Serif" font-size="10.00"> _alignment</text>
</g>
<!-- Node5 -->
<g id="node5" class="node"><title>Node5</title>
<g id="a_node5"><a xlink:href="classsequences_matrix.html" target="_top" xlink:title="sequencesMatrix">
<polygon fill="white" stroke="black" points="625.5,-0.5 625.5,-19.5 716.5,-19.5 716.5,-0.5 625.5,-0.5"/>
<text text-anchor="middle" x="671" y="-7.5" font-family="Helvetica,sans-Serif" font-size="10.00">sequencesMatrix</text>
</a>
</g>
</g>
<!-- Node2&#45;&gt;Node5 -->
<g id="edge6" class="edge"><title>Node2&#45;&gt;Node5</title>
<path fill="none" stroke="#9a32cd" stroke-dasharray="5,2" d="M433.979,-68.8148C459.571,-64.0247 491.256,-57.284 519,-49 531.811,-45.1746 534.205,-41.8792 547,-38 572.618,-30.2334 601.85,-23.7572 625.496,-19.0959"/>
<polygon fill="#9a32cd" stroke="#9a32cd" points="433.339,-65.3738 424.133,-70.6183 434.6,-72.2592 433.339,-65.3738"/>
<text text-anchor="middle" x="572.5" y="-41" font-family="Helvetica,sans-Serif" font-size="10.00"> _alignment</text>
</g>
<!-- Node9 -->
<g id="node9" class="node"><title>Node9</title>
<g id="a_node9"><a xlink:href="class_cleaner.html" target="_top" xlink:title="Subclass contained by the alignment object to make cleaning operations on it. ">
<polygon fill="white" stroke="black" points="64,-0.5 64,-19.5 114,-19.5 114,-0.5 64,-0.5"/>
<text text-anchor="middle" x="89" y="-7.5" font-family="Helvetica,sans-Serif" font-size="10.00">Cleaner</text>
</a>
</g>
</g>
<!-- Node2&#45;&gt;Node9 -->
<g id="edge13" class="edge"><title>Node2&#45;&gt;Node9</title>
<path fill="none" stroke="#9a32cd" stroke-dasharray="5,2" d="M335.732,-69.9346C303.482,-64.9541 260.52,-57.6451 223,-49 205.867,-45.0523 201.907,-42.8246 185,-38 161.026,-31.1588 133.648,-23.471 114.28,-18.0536"/>
<polygon fill="#9a32cd" stroke="#9a32cd" points="335.392,-73.4232 345.805,-71.4686 336.446,-66.503 335.392,-73.4232"/>
<text text-anchor="middle" x="248.5" y="-41" font-family="Helvetica,sans-Serif" font-size="10.00"> _alignment</text>
</g>
<!-- Node11 -->
<g id="node11" class="node"><title>Node11</title>
<g id="a_node11"><a xlink:href="class_statistics_manager.html" target="_top" xlink:title="StatisticsManager">
<polygon fill="white" stroke="black" points="428.5,-0.5 428.5,-19.5 523.5,-19.5 523.5,-0.5 428.5,-0.5"/>
<text text-anchor="middle" x="476" y="-7.5" font-family="Helvetica,sans-Serif" font-size="10.00">StatisticsManager</text>
</a>
</g>
</g>
<!-- Node2&#45;&gt;Node11 -->
<g id="edge20" class="edge"><title>Node2&#45;&gt;Node11</title>
<path fill="none" stroke="#9a32cd" stroke-dasharray="5,2" d="M427.943,-64.6852C437.208,-60.6927 446.47,-55.5479 454,-49 463.204,-40.9966 469.497,-28.1537 472.922,-19.647"/>
<polygon fill="#9a32cd" stroke="#9a32cd" points="426.394,-61.5331 418.359,-68.4393 428.947,-68.0509 426.394,-61.5331"/>
<text text-anchor="middle" x="489.5" y="-41" font-family="Helvetica,sans-Serif" font-size="10.00"> _alignment</text>
</g>
<!-- Node3&#45;&gt;Node2 -->
<g id="edge2" class="edge"><title>Node3&#45;&gt;Node2</title>
<path fill="none" stroke="#9a32cd" stroke-dasharray="5,2" d="M277.14,-29.8649C276.829,-36.5288 277.821,-43.6804 282,-49 290.041,-59.2373 320.281,-66.6715 345.931,-71.2959"/>
<polygon fill="#9a32cd" stroke="#9a32cd" points="280.668,-29.9042 278.565,-19.5203 273.733,-28.9495 280.668,-29.9042"/>
<text text-anchor="middle" x="297" y="-41" font-family="Helvetica,sans-Serif" font-size="10.00"> sgaps</text>
</g>
<!-- Node4 -->
<g id="node4" class="node"><title>Node4</title>
<polygon fill="white" stroke="#bfbfbf" points="329.5,-494.5 329.5,-513.5 358.5,-513.5 358.5,-494.5 329.5,-494.5"/>
<text text-anchor="middle" x="344" y="-501.5" font-family="Helvetica,sans-Serif" font-size="10.00">int</text>
</g>
<!-- Node4&#45;&gt;Node1 -->
<g id="edge23" class="edge"><title>Node4&#45;&gt;Node1</title>
<path fill="none" stroke="#9a32cd" stroke-dasharray="5,2" d="M344.289,-484.166C345.107,-447.751 348.218,-365.259 360,-297 363.621,-276.02 370.909,-252.065 375.014,-239.416"/>
<polygon fill="#9a32cd" stroke="#9a32cd" points="340.787,-484.229 344.096,-494.293 347.786,-484.362 340.787,-484.229"/>
<text text-anchor="middle" x="374" y="-428" font-family="Helvetica,sans-Serif" font-size="10.00"> residues</text>
<text text-anchor="middle" x="374" y="-417" font-family="Helvetica,sans-Serif" font-size="10.00">halfWindow</text>
<text text-anchor="middle" x="374" y="-406" font-family="Helvetica,sans-Serif" font-size="10.00">sequences</text>
</g>
<!-- Node4&#45;&gt;Node2 -->
<g id="edge16" class="edge"><title>Node4&#45;&gt;Node2</title>
<path fill="none" stroke="#9a32cd" stroke-dasharray="5,2" d="M368.836,-502.174C409.809,-499.331 490.826,-487.16 529,-436 538.333,-423.492 537.23,-319.8 532,-297 511.025,-205.552 505.678,-174.002 440,-107 431.674,-98.5066 420.229,-92.1145 409.933,-87.5982"/>
<polygon fill="#9a32cd" stroke="#9a32cd" points="368.429,-498.691 358.64,-502.743 368.82,-505.68 368.429,-498.691"/>
<text text-anchor="middle" x="587" y="-377" font-family="Helvetica,sans-Serif" font-size="10.00"> originalSequenNumber</text>
<text text-anchor="middle" x="587" y="-366" font-family="Helvetica,sans-Serif" font-size="10.00">saveSequences</text>
<text text-anchor="middle" x="587" y="-355" font-family="Helvetica,sans-Serif" font-size="10.00">SeqRef</text>
<text text-anchor="middle" x="587" y="-344" font-family="Helvetica,sans-Serif" font-size="10.00">dataType</text>
<text text-anchor="middle" x="587" y="-333" font-family="Helvetica,sans-Serif" font-size="10.00">saveResidues</text>
<text text-anchor="middle" x="587" y="-322" font-family="Helvetica,sans-Serif" font-size="10.00">residNumber</text>
<text text-anchor="middle" x="587" y="-311" font-family="Helvetica,sans-Serif" font-size="10.00">sequenNumber</text>
<text text-anchor="middle" x="587" y="-300" font-family="Helvetica,sans-Serif" font-size="10.00">originalResidNumber</text>
</g>
<!-- Node4&#45;&gt;Node3 -->
<g id="edge4" class="edge"><title>Node4&#45;&gt;Node3</title>
<path fill="none" stroke="#9a32cd" stroke-dasharray="5,2" d="M319.184,-499.145C287.301,-492.633 233.827,-476.004 215,-436 193.196,-389.669 174.98,-55.3371 188,-38 200.216,-21.7331 221.661,-14.8115 240.881,-12.0352"/>
<polygon fill="#9a32cd" stroke="#9a32cd" points="318.616,-502.6 329.087,-500.985 319.894,-495.717 318.616,-502.6"/>
<text text-anchor="middle" x="245.5" y="-271" font-family="Helvetica,sans-Serif" font-size="10.00"> numColumnsWithGaps</text>
<text text-anchor="middle" x="245.5" y="-260" font-family="Helvetica,sans-Serif" font-size="10.00">halfWindow</text>
<text text-anchor="middle" x="245.5" y="-249" font-family="Helvetica,sans-Serif" font-size="10.00">gapsWindow</text>
<text text-anchor="middle" x="245.5" y="-238" font-family="Helvetica,sans-Serif" font-size="10.00">maxGaps</text>
<text text-anchor="middle" x="245.5" y="-227" font-family="Helvetica,sans-Serif" font-size="10.00">gapsInColumn</text>
<text text-anchor="middle" x="245.5" y="-216" font-family="Helvetica,sans-Serif" font-size="10.00">dataType</text>
<text text-anchor="middle" x="245.5" y="-205" font-family="Helvetica,sans-Serif" font-size="10.00">aminosXInColumn</text>
<text text-anchor="middle" x="245.5" y="-194" font-family="Helvetica,sans-Serif" font-size="10.00">sequenNumber</text>
<text text-anchor="middle" x="245.5" y="-183" font-family="Helvetica,sans-Serif" font-size="10.00">residNumber</text>
</g>
<!-- Node4&#45;&gt;Node5 -->
<g id="edge7" class="edge"><title>Node4&#45;&gt;Node5</title>
<path fill="none" stroke="#9a32cd" stroke-dasharray="5,2" d="M369.017,-502.369C441.277,-500.36 649.325,-493.2 715,-476 771.065,-461.317 833,-478.456 833,-420.5 833,-420.5 833,-420.5 833,-77 833,-26.4347 764.473,-13.7253 716.557,-11.019"/>
<polygon fill="#9a32cd" stroke="#9a32cd" points="368.531,-498.881 358.628,-502.648 368.719,-505.878 368.531,-498.881"/>
<text text-anchor="middle" x="861" y="-238" font-family="Helvetica,sans-Serif" font-size="10.00"> matrix</text>
<text text-anchor="middle" x="861" y="-227" font-family="Helvetica,sans-Serif" font-size="10.00">seqsNumber</text>
<text text-anchor="middle" x="861" y="-216" font-family="Helvetica,sans-Serif" font-size="10.00">resNumber</text>
</g>
<!-- Node4&#45;&gt;Node9 -->
<g id="edge14" class="edge"><title>Node4&#45;&gt;Node9</title>
<path fill="none" stroke="#9a32cd" stroke-dasharray="5,2" d="M319.191,-502.371C240.244,-499.705 0,-486.196 0,-420.5 0,-420.5 0,-420.5 0,-77 0,-45.0676 37.4219,-26.7964 63.7342,-17.8962"/>
<polygon fill="#9a32cd" stroke="#9a32cd" points="319.116,-505.87 329.219,-502.679 319.331,-498.873 319.116,-505.87"/>
<text text-anchor="middle" x="33.5" y="-238" font-family="Helvetica,sans-Serif" font-size="10.00"> right_boundary</text>
<text text-anchor="middle" x="33.5" y="-227" font-family="Helvetica,sans-Serif" font-size="10.00">blockSize</text>
<text text-anchor="middle" x="33.5" y="-216" font-family="Helvetica,sans-Serif" font-size="10.00">left_boundary</text>
</g>
<!-- Node4&#45;&gt;Node11 -->
<g id="edge21" class="edge"><title>Node4&#45;&gt;Node11</title>
<path fill="none" stroke="#9a32cd" stroke-dasharray="5,2" d="M369.016,-503.247C457.155,-503.454 748,-498.246 748,-420.5 748,-420.5 748,-420.5 748,-77 748,-52.1707 730.419,-48.6723 708,-38 691.776,-30.2767 586.799,-20.3047 523.749,-14.9005"/>
<polygon fill="#9a32cd" stroke="#9a32cd" points="368.875,-499.746 358.858,-503.196 368.84,-506.746 368.875,-499.746"/>
<text text-anchor="middle" x="772.5" y="-232.5" font-family="Helvetica,sans-Serif" font-size="10.00"> shWindow</text>
<text text-anchor="middle" x="772.5" y="-221.5" font-family="Helvetica,sans-Serif" font-size="10.00">ghWindow</text>
</g>
<!-- Node14 -->
<g id="node14" class="node"><title>Node14</title>
<g id="a_node14"><a xlink:href="classsimilarity_matrix.html" target="_top" xlink:title="similarityMatrix">
<polygon fill="white" stroke="black" points="224.5,-410 224.5,-429 307.5,-429 307.5,-410 224.5,-410"/>
<text text-anchor="middle" x="266" y="-417" font-family="Helvetica,sans-Serif" font-size="10.00">similarityMatrix</text>
</a>
</g>
</g>
<!-- Node4&#45;&gt;Node14 -->
<g id="edge27" class="edge"><title>Node4&#45;&gt;Node14</title>
<path fill="none" stroke="#9a32cd" stroke-dasharray="5,2" d="M319.271,-501.473C301.585,-498.944 278.887,-492.449 267,-476 257.065,-462.253 260.318,-441.176 263.321,-429.345"/>
<polygon fill="#9a32cd" stroke="#9a32cd" points="319.172,-504.983 329.493,-502.59 319.932,-498.025 319.172,-504.983"/>
<text text-anchor="middle" x="298.5" y="-468" font-family="Helvetica,sans-Serif" font-size="10.00"> numPositions</text>
<text text-anchor="middle" x="298.5" y="-457" font-family="Helvetica,sans-Serif" font-size="10.00">vhash</text>
</g>
<!-- Node5&#45;&gt;Node2 -->
<g id="edge5" class="edge"><title>Node5&#45;&gt;Node2</title>
<path fill="none" stroke="#9a32cd" stroke-dasharray="5,2" d="M647.951,-24.911C631.719,-34.4703 611.291,-45.9637 602,-49 542.063,-68.5876 468.614,-74.5457 424.379,-76.3141"/>
<polygon fill="#9a32cd" stroke="#9a32cd" points="650.101,-27.7045 656.907,-19.5847 646.523,-21.6881 650.101,-27.7045"/>
<text text-anchor="middle" x="664.5" y="-41" font-family="Helvetica,sans-Serif" font-size="10.00"> SequencesMatrix</text>
</g>
<!-- Node6 -->
<g id="node6" class="node"><title>Node6</title>
<g id="a_node6"><a xlink:title="STL class. ">
<polygon fill="white" stroke="#bfbfbf" points="639,-220 639,-239 699,-239 699,-220 639,-220"/>
<text text-anchor="middle" x="669" y="-227" font-family="Helvetica,sans-Serif" font-size="10.00">std::string</text>
</a>
</g>
</g>
<!-- Node6&#45;&gt;Node2 -->
<g id="edge17" class="edge"><title>Node6&#45;&gt;Node2</title>
<path fill="none" stroke="#9a32cd" stroke-dasharray="5,2" d="M652.266,-213.134C638.56,-200.151 619.045,-180.727 604,-162 585.703,-139.224 592.572,-122.803 568,-107 544.82,-92.092 470.568,-84.5921 424.075,-81.2653"/>
<polygon fill="#9a32cd" stroke="#9a32cd" points="649.892,-215.707 659.587,-219.981 654.673,-210.594 649.892,-215.707"/>
<text text-anchor="middle" x="629.5" y="-154" font-family="Helvetica,sans-Serif" font-size="10.00"> seqsName</text>
<text text-anchor="middle" x="629.5" y="-143" font-family="Helvetica,sans-Serif" font-size="10.00">seqsInfo</text>
<text text-anchor="middle" x="629.5" y="-132" font-family="Helvetica,sans-Serif" font-size="10.00">sequences</text>
<text text-anchor="middle" x="629.5" y="-121" font-family="Helvetica,sans-Serif" font-size="10.00">aligInfo</text>
<text text-anchor="middle" x="629.5" y="-110" font-family="Helvetica,sans-Serif" font-size="10.00">filename</text>
</g>
<!-- Node6&#45;&gt;Node5 -->
<g id="edge8" class="edge"><title>Node6&#45;&gt;Node5</title>
<path fill="none" stroke="#9a32cd" stroke-dasharray="5,2" d="M673.785,-210.194C681.947,-177.917 698.239,-108.649 704,-49 704.47,-44.1338 706.094,-42.4179 704,-38 700.386,-30.3741 693.447,-24.1859 686.861,-19.6671"/>
<polygon fill="#9a32cd" stroke="#9a32cd" points="670.366,-209.436 671.267,-219.992 677.146,-211.178 670.366,-209.436"/>
<text text-anchor="middle" x="727.5" y="-75.5" font-family="Helvetica,sans-Serif" font-size="10.00"> seqsName</text>
</g>
<!-- Node7 -->
<g id="node7" class="node"><title>Node7</title>
<g id="a_node7"><a xlink:title="STL class. ">
<polygon fill="white" stroke="#bfbfbf" points="623.5,-404.5 623.5,-434.5 718.5,-434.5 718.5,-404.5 623.5,-404.5"/>
<text text-anchor="start" x="631.5" y="-422.5" font-family="Helvetica,sans-Serif" font-size="10.00">std::basic_string&lt;</text>
<text text-anchor="middle" x="671" y="-411.5" font-family="Helvetica,sans-Serif" font-size="10.00"> char &gt;</text>
</a>
</g>
</g>
<!-- Node7&#45;&gt;Node6 -->
<g id="edge9" class="edge"><title>Node7&#45;&gt;Node6</title>
<path fill="none" stroke="midnightblue" d="M670.741,-394.121C670.29,-351.794 669.384,-266.612 669.093,-239.206"/>
<polygon fill="midnightblue" stroke="midnightblue" points="667.243,-394.407 670.85,-404.369 674.243,-394.333 667.243,-394.407"/>
</g>
<!-- Node8 -->
<g id="node8" class="node"><title>Node8</title>
<polygon fill="white" stroke="#bfbfbf" points="137.5,-494.5 137.5,-513.5 172.5,-513.5 172.5,-494.5 137.5,-494.5"/>
<text text-anchor="middle" x="155" y="-501.5" font-family="Helvetica,sans-Serif" font-size="10.00">float</text>
</g>
<!-- Node8&#45;&gt;Node2 -->
<g id="edge10" class="edge"><title>Node8&#45;&gt;Node2</title>
<path fill="none" stroke="#9a32cd" stroke-dasharray="5,2" d="M149.253,-484.573C133.621,-430.446 96.4225,-270.09 173,-180 218.283,-126.726 298.039,-99.5028 345.756,-87.3352"/>
<polygon fill="#9a32cd" stroke="#9a32cd" points="145.989,-485.873 152.213,-494.447 152.694,-483.863 145.989,-485.873"/>
<text text-anchor="middle" x="151.5" y="-344" font-family="Helvetica,sans-Serif" font-size="10.00"> identities</text>
<text text-anchor="middle" x="151.5" y="-333" font-family="Helvetica,sans-Serif" font-size="10.00">overlaps</text>
</g>
<!-- Node8&#45;&gt;Node14 -->
<g id="edge26" class="edge"><title>Node8&#45;&gt;Node14</title>
<path fill="none" stroke="#9a32cd" stroke-dasharray="5,2" d="M174.547,-488.472C197.699,-471.264 235.505,-443.165 254.435,-429.095"/>
<polygon fill="#9a32cd" stroke="#9a32cd" points="172.399,-485.707 166.461,-494.482 176.575,-491.326 172.399,-485.707"/>
<text text-anchor="middle" x="239" y="-468" font-family="Helvetica,sans-Serif" font-size="10.00"> distMat</text>
<text text-anchor="middle" x="239" y="-457" font-family="Helvetica,sans-Serif" font-size="10.00">simMat</text>
</g>
<!-- Node9&#45;&gt;Node2 -->
<g id="edge12" class="edge"><title>Node9&#45;&gt;Node2</title>
<path fill="none" stroke="#9a32cd" stroke-dasharray="5,2" d="M105.991,-26.3023C116.033,-34.4446 129.413,-43.8205 143,-49 179.062,-62.747 286.695,-71.1238 345.527,-74.8007"/>
<polygon fill="#9a32cd" stroke="#9a32cd" points="107.99,-23.4087 98.1033,-19.6011 103.458,-28.7432 107.99,-23.4087"/>
<text text-anchor="middle" x="164" y="-41" font-family="Helvetica,sans-Serif" font-size="10.00"> Cleaning</text>
</g>
<!-- Node10 -->
<g id="node10" class="node"><title>Node10</title>
<polygon fill="white" stroke="#bfbfbf" points="85.5,-220 85.5,-239 120.5,-239 120.5,-220 85.5,-220"/>
<text text-anchor="middle" x="103" y="-227" font-family="Helvetica,sans-Serif" font-size="10.00">bool</text>
</g>
<!-- Node10&#45;&gt;Node2 -->
<g id="edge18" class="edge"><title>Node10&#45;&gt;Node2</title>
<path fill="none" stroke="#9a32cd" stroke-dasharray="5,2" d="M96.4675,-210.225C88.3258,-183.814 78.3763,-135.071 104,-107 119.989,-89.4838 272.349,-82.4501 345.791,-80.0597"/>
<polygon fill="#9a32cd" stroke="#9a32cd" points="93.1596,-211.37 99.632,-219.758 99.8031,-209.164 93.1596,-211.37"/>
<text text-anchor="middle" x="125.5" y="-132" font-family="Helvetica,sans-Serif" font-size="10.00"> isAligned</text>
</g>
<!-- Node10&#45;&gt;Node9 -->
<g id="edge15" class="edge"><title>Node10&#45;&gt;Node9</title>
<path fill="none" stroke="#9a32cd" stroke-dasharray="5,2" d="M96.1782,-209.901C91.7223,-196.73 86.316,-178.536 84,-162 76.4692,-108.229 84.3862,-42.6886 87.6929,-19.5686"/>
<polygon fill="#9a32cd" stroke="#9a32cd" points="92.9842,-211.368 99.6089,-219.636 99.5863,-209.042 92.9842,-211.368"/>
<text text-anchor="middle" x="119.5" y="-81" font-family="Helvetica,sans-Serif" font-size="10.00"> keepSequences</text>
<text text-anchor="middle" x="119.5" y="-70" font-family="Helvetica,sans-Serif" font-size="10.00">terminalGapOnly</text>
</g>
<!-- Node11&#45;&gt;Node2 -->
<g id="edge19" class="edge"><title>Node11&#45;&gt;Node2</title>
<path fill="none" stroke="#9a32cd" stroke-dasharray="5,2" d="M433.628,-23.3208C424.892,-27.1151 416.178,-31.9403 409,-38 399.159,-46.308 392.162,-59.7188 388.351,-68.4472"/>
<polygon fill="#9a32cd" stroke="#9a32cd" points="435.032,-26.5296 443.045,-19.5986 432.458,-20.0197 435.032,-26.5296"/>
<text text-anchor="middle" x="431.5" y="-41" font-family="Helvetica,sans-Serif" font-size="10.00"> Statistics</text>
</g>
<!-- Node12 -->
<g id="node12" class="node"><title>Node12</title>
<polygon fill="white" stroke="#bfbfbf" points="414,-410 414,-429 456,-429 456,-410 414,-410"/>
<text text-anchor="middle" x="435" y="-417" font-family="Helvetica,sans-Serif" font-size="10.00">float *</text>
</g>
<!-- Node12&#45;&gt;Node1 -->
<g id="edge22" class="edge"><title>Node12&#45;&gt;Node1</title>
<path fill="none" stroke="#9a32cd" stroke-dasharray="5,2" d="M407.335,-405.233C394.956,-398.674 382.381,-390.918 379,-385 351.189,-336.324 368.122,-264.149 375.277,-239.289"/>
<polygon fill="#9a32cd" stroke="#9a32cd" points="406.109,-408.536 416.607,-409.964 409.291,-402.301 406.109,-408.536"/>
<text text-anchor="middle" x="412.5" y="-349.5" font-family="Helvetica,sans-Serif" font-size="10.00"> MDK_Window</text>
<text text-anchor="middle" x="412.5" y="-338.5" font-family="Helvetica,sans-Serif" font-size="10.00">Q</text>
<text text-anchor="middle" x="412.5" y="-327.5" font-family="Helvetica,sans-Serif" font-size="10.00">MDK</text>
</g>
<!-- Node13 -->
<g id="node13" class="node"><title>Node13</title>
<polygon fill="white" stroke="#bfbfbf" points="474,-410 474,-429 520,-429 520,-410 474,-410"/>
<text text-anchor="middle" x="497" y="-417" font-family="Helvetica,sans-Serif" font-size="10.00">float **</text>
</g>
<!-- Node13&#45;&gt;Node1 -->
<g id="edge24" class="edge"><title>Node13&#45;&gt;Node1</title>
<path fill="none" stroke="#9a32cd" stroke-dasharray="5,2" d="M481.165,-402.48C476.698,-397.252 472.191,-391.19 469,-385 450.479,-349.068 466.3,-331.958 446,-297 431.655,-272.296 405.644,-250.612 390.285,-239.148"/>
<polygon fill="#9a32cd" stroke="#9a32cd" points="478.627,-404.891 487.958,-409.909 483.792,-400.167 478.627,-404.891"/>
<text text-anchor="middle" x="500.5" y="-338.5" font-family="Helvetica,sans-Serif" font-size="10.00"> matrixIdentity</text>
</g>
<!-- Node14&#45;&gt;Node1 -->
<g id="edge25" class="edge"><title>Node14&#45;&gt;Node1</title>
<path fill="none" stroke="#9a32cd" stroke-dasharray="5,2" d="M264.418,-399.704C263.21,-374.432 264.344,-328.981 284,-297 289.05,-288.783 339.913,-255.159 364.641,-239.107"/>
<polygon fill="#9a32cd" stroke="#9a32cd" points="260.932,-400.027 265.081,-409.775 267.917,-399.567 260.932,-400.027"/>
<text text-anchor="middle" x="307" y="-338.5" font-family="Helvetica,sans-Serif" font-size="10.00"> simMatrix</text>
</g>
</g>
</svg>
