<?xml version="1.0" encoding="UTF-8" standalone="no"?>
<!DOCTYPE svg PUBLIC "-//W3C//DTD SVG 1.1//EN"
 "http://www.w3.org/Graphics/SVG/1.1/DTD/svg11.dtd">
<!-- Generated by graphviz version 2.38.0 (20140413.2041)
 -->
<!-- Title: trimAlManager Pages: 1 -->
<svg width="1174pt" height="1106pt"
 viewBox="0.00 0.00 1174.00 1105.70" xmlns="http://www.w3.org/2000/svg" xmlns:xlink="http://www.w3.org/1999/xlink">
<g id="graph0" class="graph" transform="scale(1 1) rotate(0) translate(4 1101.7)">
<title>trimAlManager</title>
<polygon fill="white" stroke="none" points="-4,4 -4,-1101.7 1170,-1101.7 1170,4 -4,4"/>
<!-- Node1 -->
<g id="node1" class="node"><title>Node1</title>
<polygon fill="#bfbfbf" stroke="black" points="1086,-392.199 1086,-411.199 1166,-411.199 1166,-392.199 1086,-392.199"/>
<text text-anchor="middle" x="1126" y="-399.199" font-family="Helvetica,sans-Serif" font-size="10.00">trimAlManager</text>
</g>
<!-- Node2 -->
<g id="node2" class="node"><title>Node2</title>
<g id="a_node2"><a xlink:href="classnew_alignment.html" target="_top" xlink:title="Class containing an alignment &#160;This class stores the alignment sequences with it&#39;s names...">
<polygon fill="white" stroke="black" points="671,-654.199 671,-673.199 749,-673.199 749,-654.199 671,-654.199"/>
<text text-anchor="middle" x="710" y="-661.199" font-family="Helvetica,sans-Serif" font-size="10.00">newAlignment</text>
</a>
</g>
</g>
<!-- Node2&#45;&gt;Node1 -->
<g id="edge1" class="edge"><title>Node2&#45;&gt;Node1</title>
<path fill="none" stroke="#9a32cd" stroke-dasharray="5,2" d="M756.48,-651.462C822.336,-633.219 940.378,-598.392 977,-573.699 1045.92,-527.229 1101.77,-440.516 1119.28,-411.467"/>
<polygon fill="#9a32cd" stroke="#9a32cd" points="755.48,-648.107 746.768,-654.137 757.339,-654.856 755.48,-648.107"/>
<text text-anchor="middle" x="922" y="-653.699" font-family="Helvetica,sans-Serif" font-size="10.00"> backtranslationAlig</text>
<text text-anchor="middle" x="922" y="-642.699" font-family="Helvetica,sans-Serif" font-size="10.00">singleAlig</text>
<text text-anchor="middle" x="922" y="-631.699" font-family="Helvetica,sans-Serif" font-size="10.00">compareAlignmentsArray</text>
<text text-anchor="middle" x="922" y="-620.699" font-family="Helvetica,sans-Serif" font-size="10.00">origAlig</text>
</g>
<!-- Node6 -->
<g id="node6" class="node"><title>Node6</title>
<g id="a_node6"><a xlink:href="classsequences_matrix.html" target="_top" xlink:title="sequencesMatrix">
<polygon fill="white" stroke="black" points="876.5,-826.199 876.5,-845.199 967.5,-845.199 967.5,-826.199 876.5,-826.199"/>
<text text-anchor="middle" x="922" y="-833.199" font-family="Helvetica,sans-Serif" font-size="10.00">sequencesMatrix</text>
</a>
</g>
</g>
<!-- Node2&#45;&gt;Node6 -->
<g id="edge6" class="edge"><title>Node2&#45;&gt;Node6</title>
<path fill="none" stroke="#9a32cd" stroke-dasharray="5,2" d="M731.867,-679.421C742.313,-687.177 755.214,-696.586 767,-704.699 802.744,-729.305 815.799,-729.757 849,-757.699 874.944,-779.533 900.789,-810.276 913.274,-825.841"/>
<polygon fill="#9a32cd" stroke="#9a32cd" points="733.855,-676.538 723.748,-673.359 729.667,-682.147 733.855,-676.538"/>
<text text-anchor="middle" x="808" y="-760.699" font-family="Helvetica,sans-Serif" font-size="10.00"> _alignment</text>
</g>
<!-- Node13 -->
<g id="node13" class="node"><title>Node13</title>
<g id="a_node13"><a xlink:href="class_cleaner.html" target="_top" xlink:title="Subclass contained by the alignment object to make cleaning operations on it. ">
<polygon fill="white" stroke="black" points="897,-545.199 897,-564.199 947,-564.199 947,-545.199 897,-545.199"/>
<text text-anchor="middle" x="922" y="-552.199" font-family="Helvetica,sans-Serif" font-size="10.00">Cleaner</text>
</a>
</g>
</g>
<!-- Node2&#45;&gt;Node13 -->
<g id="edge19" class="edge"><title>Node2&#45;&gt;Node13</title>
<path fill="none" stroke="#9a32cd" stroke-dasharray="5,2" d="M724.055,-645.771C734.354,-632.854 749.814,-615.959 767,-605.699 799.5,-586.297 813.097,-594.684 849,-582.699 865.666,-577.136 884.129,-569.934 898.186,-564.228"/>
<polygon fill="#9a32cd" stroke="#9a32cd" points="721.095,-643.88 717.791,-653.946 726.651,-648.137 721.095,-643.88"/>
<text text-anchor="middle" x="808" y="-608.699" font-family="Helvetica,sans-Serif" font-size="10.00"> _alignment</text>
</g>
<!-- Node15 -->
<g id="node15" class="node"><title>Node15</title>
<g id="a_node15"><a xlink:href="class_statistics_manager.html" target="_top" xlink:title="StatisticsManager">
<polygon fill="white" stroke="black" points="874.5,-693.199 874.5,-712.199 969.5,-712.199 969.5,-693.199 874.5,-693.199"/>
<text text-anchor="middle" x="922" y="-700.199" font-family="Helvetica,sans-Serif" font-size="10.00">StatisticsManager</text>
</a>
</g>
</g>
<!-- Node2&#45;&gt;Node15 -->
<g id="edge24" class="edge"><title>Node2&#45;&gt;Node15</title>
<path fill="none" stroke="#9a32cd" stroke-dasharray="5,2" d="M759.271,-654.942C786.48,-652.047 820.603,-651.903 849,-662.699 859.005,-666.503 858.003,-672.901 867,-678.699 875.71,-684.312 885.953,-689.232 895.163,-693.131"/>
<polygon fill="#9a32cd" stroke="#9a32cd" points="758.71,-651.485 749.208,-656.17 759.558,-658.433 758.71,-651.485"/>
<text text-anchor="middle" x="808" y="-665.699" font-family="Helvetica,sans-Serif" font-size="10.00"> _alignment</text>
</g>
<!-- Node3 -->
<g id="node3" class="node"><title>Node3</title>
<polygon fill="white" stroke="#bfbfbf" points="435,-764.199 435,-783.199 476,-783.199 476,-764.199 435,-764.199"/>
<text text-anchor="middle" x="455.5" y="-771.199" font-family="Helvetica,sans-Serif" font-size="10.00">string</text>
</g>
<!-- Node3&#45;&gt;Node1 -->
<g id="edge26" class="edge"><title>Node3&#45;&gt;Node1</title>
<path fill="none" stroke="#9a32cd" stroke-dasharray="5,2" d="M486.242,-777.546C505.522,-779.843 531.202,-782.533 554,-783.699 685.109,-790.405 720.718,-796.598 849,-768.699 908.219,-755.82 931.953,-762.239 977,-721.699 1078.69,-630.186 1115.63,-454.556 1123.37,-411.437"/>
<polygon fill="#9a32cd" stroke="#9a32cd" points="486.6,-774.064 476.249,-776.323 485.749,-781.012 486.6,-774.064"/>
<text text-anchor="middle" x="808" y="-796.699" font-family="Helvetica,sans-Serif" font-size="10.00"> sequencesNames</text>
<text text-anchor="middle" x="808" y="-785.699" font-family="Helvetica,sans-Serif" font-size="10.00">nline</text>
</g>
<!-- Node3&#45;&gt;Node2 -->
<g id="edge2" class="edge"><title>Node3&#45;&gt;Node2</title>
<path fill="none" stroke="#9a32cd" stroke-dasharray="5,2" d="M483.438,-759.452C502.68,-749.729 529.41,-737.131 554,-728.699 596.729,-714.047 612.052,-724.771 653,-705.699 670.626,-697.489 688.095,-683.136 698.717,-673.525"/>
<polygon fill="#9a32cd" stroke="#9a32cd" points="481.674,-756.423 474.372,-764.1 484.868,-762.652 481.674,-756.423"/>
<text text-anchor="middle" x="603.5" y="-775.699" font-family="Helvetica,sans-Serif" font-size="10.00"> seqsName</text>
<text text-anchor="middle" x="603.5" y="-764.699" font-family="Helvetica,sans-Serif" font-size="10.00">seqsInfo</text>
<text text-anchor="middle" x="603.5" y="-753.699" font-family="Helvetica,sans-Serif" font-size="10.00">sequences</text>
<text text-anchor="middle" x="603.5" y="-742.699" font-family="Helvetica,sans-Serif" font-size="10.00">aligInfo</text>
<text text-anchor="middle" x="603.5" y="-731.699" font-family="Helvetica,sans-Serif" font-size="10.00">filename</text>
</g>
<!-- Node4 -->
<g id="node4" class="node"><title>Node4</title>
<g id="a_node4"><a xlink:href="classstatistics_gaps.html" target="_top" xlink:title="statisticsGaps">
<polygon fill="white" stroke="black" points="277,-705.199 277,-724.199 357,-724.199 357,-705.199 277,-705.199"/>
<text text-anchor="middle" x="317" y="-712.199" font-family="Helvetica,sans-Serif" font-size="10.00">statisticsGaps</text>
</a>
</g>
</g>
<!-- Node4&#45;&gt;Node2 -->
<g id="edge3" class="edge"><title>Node4&#45;&gt;Node2</title>
<path fill="none" stroke="#9a32cd" stroke-dasharray="5,2" d="M352.166,-701.567C353.801,-700.936 355.418,-700.311 357,-699.699 365.006,-696.603 366.64,-694.646 375,-692.699 480.156,-668.216 608.288,-663.988 670.885,-663.515"/>
<polygon fill="#9a32cd" stroke="#9a32cd" points="350.835,-698.329 342.763,-705.191 353.353,-704.86 350.835,-698.329"/>
<text text-anchor="middle" x="455.5" y="-695.699" font-family="Helvetica,sans-Serif" font-size="10.00"> sgaps</text>
</g>
<!-- Node5 -->
<g id="node5" class="node"><title>Node5</title>
<polygon fill="white" stroke="#bfbfbf" points="3,-723.199 3,-742.199 32,-742.199 32,-723.199 3,-723.199"/>
<text text-anchor="middle" x="17.5" y="-730.199" font-family="Helvetica,sans-Serif" font-size="10.00">int</text>
</g>
<!-- Node5&#45;&gt;Node1 -->
<g id="edge32" class="edge"><title>Node5&#45;&gt;Node1</title>
<path fill="none" stroke="#9a32cd" stroke-dasharray="5,2" d="M18.425,-752.881C19.317,-782.703 24.9492,-838.966 53,-875.699 103.342,-941.624 133.552,-965.699 216.5,-965.699 216.5,-965.699 216.5,-965.699 923,-965.699 1005.25,-965.699 1027.61,-922.352 1068,-850.699 1112.56,-771.637 1123.11,-469.671 1124.75,-411.447"/>
<polygon fill="#9a32cd" stroke="#9a32cd" points="21.9195,-752.46 18.279,-742.51 14.9202,-752.558 21.9195,-752.46"/>
<text text-anchor="middle" x="603.5" y="-1089.7" font-family="Helvetica,sans-Serif" font-size="10.00"> num</text>
<text text-anchor="middle" x="603.5" y="-1078.7" font-family="Helvetica,sans-Serif" font-size="10.00">compareset</text>
<text text-anchor="middle" x="603.5" y="-1067.7" font-family="Helvetica,sans-Serif" font-size="10.00">clusters</text>
<text text-anchor="middle" x="603.5" y="-1056.7" font-family="Helvetica,sans-Serif" font-size="10.00">delSequences</text>
<text text-anchor="middle" x="603.5" y="-1045.7" font-family="Helvetica,sans-Serif" font-size="10.00">alternative_matrix</text>
<text text-anchor="middle" x="603.5" y="-1034.7" font-family="Helvetica,sans-Serif" font-size="10.00">similarityWindow</text>
<text text-anchor="middle" x="603.5" y="-1023.7" font-family="Helvetica,sans-Serif" font-size="10.00">i</text>
<text text-anchor="middle" x="603.5" y="-1012.7" font-family="Helvetica,sans-Serif" font-size="10.00">delColumns</text>
<text text-anchor="middle" x="603.5" y="-1001.7" font-family="Helvetica,sans-Serif" font-size="10.00">numfiles</text>
<text text-anchor="start" x="564" y="-990.699" font-family="Helvetica,sans-Serif" font-size="10.00">automatedMethod</text>
<text text-anchor="middle" x="603.5" y="-979.699" font-family="Helvetica,sans-Serif" font-size="10.00">Count</text>
<text text-anchor="middle" x="603.5" y="-968.699" font-family="Helvetica,sans-Serif" font-size="10.00">...</text>
</g>
<!-- Node5&#45;&gt;Node2 -->
<g id="edge10" class="edge"><title>Node5&#45;&gt;Node2</title>
<path fill="none" stroke="#9a32cd" stroke-dasharray="5,2" d="M28.1366,-751.29C33.9793,-760.448 42.3683,-770.599 53,-775.699 95.0751,-795.885 111.623,-780.894 158,-775.699 211.896,-769.662 223.822,-759.344 277,-748.699 391.563,-725.766 421.205,-725.44 536,-703.699 588.156,-693.821 601.443,-692.333 653,-679.699 660.857,-677.774 669.272,-675.489 677.129,-673.258"/>
<polygon fill="#9a32cd" stroke="#9a32cd" points="31.0122,-749.27 22.9826,-742.358 24.9492,-752.769 31.0122,-749.27"/>
<text text-anchor="middle" x="317" y="-806.699" font-family="Helvetica,sans-Serif" font-size="10.00"> saveSequences</text>
<text text-anchor="middle" x="317" y="-795.699" font-family="Helvetica,sans-Serif" font-size="10.00">dataType</text>
<text text-anchor="middle" x="317" y="-784.699" font-family="Helvetica,sans-Serif" font-size="10.00">saveResidues</text>
<text text-anchor="middle" x="317" y="-773.699" font-family="Helvetica,sans-Serif" font-size="10.00">residuesNumber</text>
<text text-anchor="middle" x="317" y="-762.699" font-family="Helvetica,sans-Serif" font-size="10.00">residNumber</text>
<text text-anchor="middle" x="317" y="-751.699" font-family="Helvetica,sans-Serif" font-size="10.00">sequenNumber</text>
</g>
<!-- Node5&#45;&gt;Node4 -->
<g id="edge4" class="edge"><title>Node5&#45;&gt;Node4</title>
<path fill="none" stroke="#9a32cd" stroke-dasharray="5,2" d="M24.6825,-713.552C29.9746,-700.615 38.9971,-684.519 53,-676.699 93.7435,-653.945 117.04,-654.337 158,-676.699 170.985,-683.788 163.276,-697.152 176,-704.699 206.284,-722.663 246.985,-723.533 276.695,-720.884"/>
<polygon fill="#9a32cd" stroke="#9a32cd" points="21.3634,-712.437 21.2143,-723.031 27.9373,-714.843 21.3634,-712.437"/>
<text text-anchor="middle" x="105.5" y="-767.699" font-family="Helvetica,sans-Serif" font-size="10.00"> numColumnsWithGaps</text>
<text text-anchor="middle" x="105.5" y="-756.699" font-family="Helvetica,sans-Serif" font-size="10.00">columnLength</text>
<text text-anchor="middle" x="105.5" y="-745.699" font-family="Helvetica,sans-Serif" font-size="10.00">halfWindow</text>
<text text-anchor="middle" x="105.5" y="-734.699" font-family="Helvetica,sans-Serif" font-size="10.00">gapsWindow</text>
<text text-anchor="middle" x="105.5" y="-723.699" font-family="Helvetica,sans-Serif" font-size="10.00">maxGaps</text>
<text text-anchor="middle" x="105.5" y="-712.699" font-family="Helvetica,sans-Serif" font-size="10.00">gapsInColumn</text>
<text text-anchor="middle" x="105.5" y="-701.699" font-family="Helvetica,sans-Serif" font-size="10.00">dataType</text>
<text text-anchor="middle" x="105.5" y="-690.699" font-family="Helvetica,sans-Serif" font-size="10.00">aminosXInColumn</text>
<text text-anchor="middle" x="105.5" y="-679.699" font-family="Helvetica,sans-Serif" font-size="10.00">columns</text>
</g>
<!-- Node5&#45;&gt;Node6 -->
<g id="edge7" class="edge"><title>Node5&#45;&gt;Node6</title>
<path fill="none" stroke="#9a32cd" stroke-dasharray="5,2" d="M21.3854,-752.439C25.309,-772.968 34.1329,-804.952 53,-825.699 107.297,-885.408 135.795,-904.699 216.5,-904.699 216.5,-904.699 216.5,-904.699 711,-904.699 773.862,-904.699 790.021,-895.449 849,-873.699 869.555,-866.119 891.614,-853.788 905.82,-845.237"/>
<polygon fill="#9a32cd" stroke="#9a32cd" points="24.7985,-751.631 19.6771,-742.356 17.8968,-752.8 24.7985,-751.631"/>
<text text-anchor="middle" x="455.5" y="-929.699" font-family="Helvetica,sans-Serif" font-size="10.00"> matrix</text>
<text text-anchor="middle" x="455.5" y="-918.699" font-family="Helvetica,sans-Serif" font-size="10.00">seqsNumber</text>
<text text-anchor="middle" x="455.5" y="-907.699" font-family="Helvetica,sans-Serif" font-size="10.00">resNumber</text>
</g>
<!-- Node9 -->
<g id="node9" class="node"><title>Node9</title>
<g id="a_node9"><a xlink:href="classstatistics_conservation.html" target="_top" xlink:title="statisticsConservation">
<polygon fill="white" stroke="black" points="398.5,-614.199 398.5,-633.199 512.5,-633.199 512.5,-614.199 398.5,-614.199"/>
<text text-anchor="middle" x="455.5" y="-621.199" font-family="Helvetica,sans-Serif" font-size="10.00">statisticsConservation</text>
</a>
</g>
</g>
<!-- Node5&#45;&gt;Node9 -->
<g id="edge13" class="edge"><title>Node5&#45;&gt;Node9</title>
<path fill="none" stroke="#9a32cd" stroke-dasharray="5,2" d="M22.3708,-712.812C26.8084,-695.295 35.8069,-670.353 53,-655.699 96.0763,-618.984 119.885,-630.096 176,-622.699 252.578,-612.605 342.033,-615.498 398.473,-619.101"/>
<polygon fill="#9a32cd" stroke="#9a32cd" points="18.844,-712.545 20.073,-723.068 25.6747,-714.075 18.844,-712.545"/>
<text text-anchor="middle" x="217.5" y="-658.699" font-family="Helvetica,sans-Serif" font-size="10.00"> halfWindow</text>
<text text-anchor="middle" x="217.5" y="-647.699" font-family="Helvetica,sans-Serif" font-size="10.00">dataType</text>
<text text-anchor="middle" x="217.5" y="-636.699" font-family="Helvetica,sans-Serif" font-size="10.00">sequences</text>
<text text-anchor="middle" x="217.5" y="-625.699" font-family="Helvetica,sans-Serif" font-size="10.00">columns</text>
</g>
<!-- Node12 -->
<g id="node12" class="node"><title>Node12</title>
<g id="a_node12"><a xlink:href="classsimilarity_matrix.html" target="_top" xlink:title="similarityMatrix">
<polygon fill="white" stroke="black" points="176,-436.199 176,-455.199 259,-455.199 259,-436.199 176,-436.199"/>
<text text-anchor="middle" x="217.5" y="-443.199" font-family="Helvetica,sans-Serif" font-size="10.00">similarityMatrix</text>
</a>
</g>
</g>
<!-- Node5&#45;&gt;Node12 -->
<g id="edge17" class="edge"><title>Node5&#45;&gt;Node12</title>
<path fill="none" stroke="#9a32cd" stroke-dasharray="5,2" d="M18.597,-712.92C19.2605,-661.028 23.7923,-522.702 53,-489.699 83.5859,-455.139 138.151,-446.42 175.779,-444.845"/>
<polygon fill="#9a32cd" stroke="#9a32cd" points="15.0953,-713.097 18.5038,-723.128 22.095,-713.161 15.0953,-713.097"/>
<text text-anchor="middle" x="105.5" y="-503.699" font-family="Helvetica,sans-Serif" font-size="10.00"> numPositions</text>
<text text-anchor="middle" x="105.5" y="-492.699" font-family="Helvetica,sans-Serif" font-size="10.00">vhash</text>
</g>
<!-- Node5&#45;&gt;Node13 -->
<g id="edge20" class="edge"><title>Node5&#45;&gt;Node13</title>
<path fill="none" stroke="#9a32cd" stroke-dasharray="5,2" d="M20.2427,-712.846C23.266,-688.747 31.4034,-647.958 53,-620.699 92.3361,-571.049 115.756,-568.272 176,-548.699 314.392,-503.736 785.011,-542.444 896.96,-552.479"/>
<polygon fill="#9a32cd" stroke="#9a32cd" points="16.7488,-712.602 19.1579,-722.92 23.7085,-713.352 16.7488,-712.602"/>
<text text-anchor="middle" x="455.5" y="-553.699" font-family="Helvetica,sans-Serif" font-size="10.00"> right_boundary</text>
<text text-anchor="middle" x="455.5" y="-542.699" font-family="Helvetica,sans-Serif" font-size="10.00">blockSize</text>
<text text-anchor="middle" x="455.5" y="-531.699" font-family="Helvetica,sans-Serif" font-size="10.00">left_boundary</text>
</g>
<!-- Node5&#45;&gt;Node15 -->
<g id="edge25" class="edge"><title>Node5&#45;&gt;Node15</title>
<path fill="none" stroke="#9a32cd" stroke-dasharray="5,2" d="M24.3882,-752.047C29.651,-766.03 38.7651,-784.232 53,-794.699 112.796,-838.667 142.279,-828.699 216.5,-828.699 216.5,-828.699 216.5,-828.699 604.5,-828.699 681.036,-828.699 694.673,-796.732 767,-771.699 803.392,-759.103 813.889,-759.52 849,-743.699 869.459,-734.48 891.72,-721.272 905.989,-712.36"/>
<polygon fill="#9a32cd" stroke="#9a32cd" points="27.6309,-750.712 21.0934,-742.375 21.0048,-752.969 27.6309,-750.712"/>
<text text-anchor="middle" x="455.5" y="-842.699" font-family="Helvetica,sans-Serif" font-size="10.00"> shWindow</text>
<text text-anchor="middle" x="455.5" y="-831.699" font-family="Helvetica,sans-Serif" font-size="10.00">ghWindow</text>
</g>
<!-- Node6&#45;&gt;Node1 -->
<g id="edge27" class="edge"><title>Node6&#45;&gt;Node1</title>
<path fill="none" stroke="#9a32cd" stroke-dasharray="5,2" d="M977.985,-838.312C1008.76,-836.662 1045.37,-828.975 1068,-804.699 1123.41,-745.26 1125.27,-467.328 1125.07,-411.486"/>
<polygon fill="#9a32cd" stroke="#9a32cd" points="977.678,-834.82 967.802,-838.655 977.914,-841.816 977.678,-834.82"/>
<text text-anchor="middle" x="1031.5" y="-838.699" font-family="Helvetica,sans-Serif" font-size="10.00"> seqMatrix</text>
</g>
<!-- Node6&#45;&gt;Node2 -->
<g id="edge5" class="edge"><title>Node6&#45;&gt;Node2</title>
<path fill="none" stroke="#9a32cd" stroke-dasharray="5,2" d="M865.943,-833.68C828.07,-831.221 782,-825.772 767,-813.699 721.742,-777.273 713.057,-700.346 711.393,-673.327"/>
<polygon fill="#9a32cd" stroke="#9a32cd" points="866.186,-837.2 876.375,-834.297 866.599,-830.213 866.186,-837.2"/>
<text text-anchor="middle" x="808" y="-834.699" font-family="Helvetica,sans-Serif" font-size="10.00"> SequencesMatrix</text>
</g>
<!-- Node7 -->
<g id="node7" class="node"><title>Node7</title>
<polygon fill="white" stroke="#bfbfbf" points="686.5,-857.199 686.5,-876.199 733.5,-876.199 733.5,-857.199 686.5,-857.199"/>
<text text-anchor="middle" x="710" y="-864.199" font-family="Helvetica,sans-Serif" font-size="10.00">string *</text>
</g>
<!-- Node7&#45;&gt;Node6 -->
<g id="edge8" class="edge"><title>Node7&#45;&gt;Node6</title>
<path fill="none" stroke="#9a32cd" stroke-dasharray="5,2" d="M744.021,-862.42C772.001,-858.73 813.171,-853.15 849,-847.699 857.895,-846.346 867.394,-844.82 876.479,-843.322"/>
<polygon fill="#9a32cd" stroke="#9a32cd" points="743.441,-858.966 733.981,-863.737 744.352,-865.907 743.441,-858.966"/>
<text text-anchor="middle" x="808" y="-861.699" font-family="Helvetica,sans-Serif" font-size="10.00"> seqsName</text>
</g>
<!-- Node8 -->
<g id="node8" class="node"><title>Node8</title>
<polygon fill="white" stroke="#bfbfbf" points="0,-396.199 0,-415.199 35,-415.199 35,-396.199 0,-396.199"/>
<text text-anchor="middle" x="17.5" y="-403.199" font-family="Helvetica,sans-Serif" font-size="10.00">float</text>
</g>
<!-- Node8&#45;&gt;Node1 -->
<g id="edge30" class="edge"><title>Node8&#45;&gt;Node1</title>
<path fill="none" stroke="#9a32cd" stroke-dasharray="5,2" d="M44.7079,-391.805C120.742,-352.381 349.027,-240.247 554,-202.699 741.028,-168.439 797.214,-204.811 977,-266.699 1019.85,-281.45 1034.37,-282.323 1068,-312.699 1094.01,-336.19 1112.94,-374.17 1120.87,-391.943"/>
<polygon fill="#9a32cd" stroke="#9a32cd" points="42.6484,-388.932 35.4032,-396.662 45.8877,-395.137 42.6484,-388.932"/>
<text text-anchor="middle" x="603.5" y="-282.699" font-family="Helvetica,sans-Serif" font-size="10.00"> maxIdentity</text>
<text text-anchor="middle" x="603.5" y="-271.699" font-family="Helvetica,sans-Serif" font-size="10.00">sequenceOverlap</text>
<text text-anchor="middle" x="603.5" y="-260.699" font-family="Helvetica,sans-Serif" font-size="10.00">similarityThreshold</text>
<text text-anchor="middle" x="603.5" y="-249.699" font-family="Helvetica,sans-Serif" font-size="10.00">conservationThreshold</text>
<text text-anchor="middle" x="603.5" y="-238.699" font-family="Helvetica,sans-Serif" font-size="10.00">compareVect</text>
<text text-anchor="middle" x="603.5" y="-227.699" font-family="Helvetica,sans-Serif" font-size="10.00">gapThreshold</text>
<text text-anchor="middle" x="603.5" y="-216.699" font-family="Helvetica,sans-Serif" font-size="10.00">consistencyThreshold</text>
<text text-anchor="middle" x="603.5" y="-205.699" font-family="Helvetica,sans-Serif" font-size="10.00">residuesOverlap</text>
</g>
<!-- Node8&#45;&gt;Node2 -->
<g id="edge9" class="edge"><title>Node8&#45;&gt;Node2</title>
<path fill="none" stroke="#9a32cd" stroke-dasharray="5,2" d="M22.814,-425.637C27.4035,-441.572 36.3771,-462.959 53,-473.699 109.802,-510.401 304.804,-444.699 357,-487.699 383.124,-509.221 350.919,-537.913 375,-561.699 420.102,-606.248 594.892,-600.358 653,-625.699 669.801,-633.026 686.92,-645.534 697.732,-654.188"/>
<polygon fill="#9a32cd" stroke="#9a32cd" points="26.1397,-424.511 20.297,-415.673 19.3529,-426.226 26.1397,-424.511"/>
<text text-anchor="middle" x="317" y="-501.699" font-family="Helvetica,sans-Serif" font-size="10.00"> identities</text>
<text text-anchor="middle" x="317" y="-490.699" font-family="Helvetica,sans-Serif" font-size="10.00">overlaps</text>
</g>
<!-- Node8&#45;&gt;Node12 -->
<g id="edge16" class="edge"><title>Node8&#45;&gt;Node12</title>
<path fill="none" stroke="#9a32cd" stroke-dasharray="5,2" d="M45.3294,-401.426C73.9343,-397.889 120.221,-395.113 158,-406.699 176.905,-412.497 195.31,-426.575 206.277,-436.131"/>
<polygon fill="#9a32cd" stroke="#9a32cd" points="44.7242,-397.976 35.2866,-402.791 45.6669,-404.913 44.7242,-397.976"/>
<text text-anchor="middle" x="105.5" y="-420.699" font-family="Helvetica,sans-Serif" font-size="10.00"> distMat</text>
<text text-anchor="middle" x="105.5" y="-409.699" font-family="Helvetica,sans-Serif" font-size="10.00">simMat</text>
</g>
<!-- Node9&#45;&gt;Node2 -->
<g id="edge11" class="edge"><title>Node9&#45;&gt;Node2</title>
<path fill="none" stroke="#9a32cd" stroke-dasharray="5,2" d="M522.533,-627.111C560.944,-629.999 610.094,-635.249 653,-644.699 663.628,-647.04 675.056,-650.7 684.799,-654.185"/>
<polygon fill="#9a32cd" stroke="#9a32cd" points="522.73,-623.616 512.505,-626.392 522.23,-630.598 522.73,-623.616"/>
<text text-anchor="middle" x="603.5" y="-647.699" font-family="Helvetica,sans-Serif" font-size="10.00"> scons</text>
</g>
<!-- Node10 -->
<g id="node10" class="node"><title>Node10</title>
<polygon fill="white" stroke="#bfbfbf" points="196.5,-676.199 196.5,-695.199 238.5,-695.199 238.5,-676.199 196.5,-676.199"/>
<text text-anchor="middle" x="217.5" y="-683.199" font-family="Helvetica,sans-Serif" font-size="10.00">float *</text>
</g>
<!-- Node10&#45;&gt;Node9 -->
<g id="edge12" class="edge"><title>Node10&#45;&gt;Node9</title>
<path fill="none" stroke="#9a32cd" stroke-dasharray="5,2" d="M248,-673.05C257.184,-669.398 267.416,-665.616 277,-662.699 317.899,-650.252 365.231,-640.055 400.727,-633.213"/>
<polygon fill="#9a32cd" stroke="#9a32cd" points="246.463,-669.897 238.526,-676.915 249.108,-676.378 246.463,-669.897"/>
<text text-anchor="middle" x="317" y="-687.699" font-family="Helvetica,sans-Serif" font-size="10.00"> MDK_Window</text>
<text text-anchor="middle" x="317" y="-676.699" font-family="Helvetica,sans-Serif" font-size="10.00">Q</text>
<text text-anchor="middle" x="317" y="-665.699" font-family="Helvetica,sans-Serif" font-size="10.00">MDK</text>
</g>
<!-- Node11 -->
<g id="node11" class="node"><title>Node11</title>
<polygon fill="white" stroke="#bfbfbf" points="194.5,-558.199 194.5,-577.199 240.5,-577.199 240.5,-558.199 194.5,-558.199"/>
<text text-anchor="middle" x="217.5" y="-565.199" font-family="Helvetica,sans-Serif" font-size="10.00">float **</text>
</g>
<!-- Node11&#45;&gt;Node9 -->
<g id="edge14" class="edge"><title>Node11&#45;&gt;Node9</title>
<path fill="none" stroke="#9a32cd" stroke-dasharray="5,2" d="M251.011,-571.765C279.335,-575.733 321.341,-582.648 357,-592.699 365.262,-595.028 366.885,-596.901 375,-599.699 389.857,-604.822 406.474,-609.933 420.66,-614.114"/>
<polygon fill="#9a32cd" stroke="#9a32cd" points="251.247,-568.265 240.867,-570.388 250.305,-575.202 251.247,-568.265"/>
<text text-anchor="middle" x="317" y="-595.699" font-family="Helvetica,sans-Serif" font-size="10.00"> matrixIdentity</text>
</g>
<!-- Node12&#45;&gt;Node1 -->
<g id="edge37" class="edge"><title>Node12&#45;&gt;Node1</title>
<path fill="none" stroke="#9a32cd" stroke-dasharray="5,2" d="M269.088,-444.008C316.871,-442.557 390.549,-440.699 454.5,-440.699 454.5,-440.699 454.5,-440.699 923,-440.699 988.117,-440.699 1004.52,-434.218 1068,-419.699 1077.91,-417.432 1088.59,-414.262 1097.99,-411.214"/>
<polygon fill="#9a32cd" stroke="#9a32cd" points="268.889,-440.512 259.002,-444.32 269.105,-447.509 268.889,-440.512"/>
<text text-anchor="middle" x="710" y="-443.699" font-family="Helvetica,sans-Serif" font-size="10.00"> similMatrix</text>
</g>
<!-- Node12&#45;&gt;Node9 -->
<g id="edge15" class="edge"><title>Node12&#45;&gt;Node9</title>
<path fill="none" stroke="#9a32cd" stroke-dasharray="5,2" d="M231.268,-463.594C242.28,-478.213 259.182,-498.82 277,-513.699 308.652,-540.131 321.896,-539.06 357,-560.699 386.851,-579.1 421.166,-601.592 440.086,-614.113"/>
<polygon fill="#9a32cd" stroke="#9a32cd" points="233.963,-461.35 225.217,-455.369 228.324,-465.499 233.963,-461.35"/>
<text text-anchor="middle" x="317" y="-563.699" font-family="Helvetica,sans-Serif" font-size="10.00"> simMatrix</text>
</g>
<!-- Node13&#45;&gt;Node2 -->
<g id="edge18" class="edge"><title>Node13&#45;&gt;Node2</title>
<path fill="none" stroke="#9a32cd" stroke-dasharray="5,2" d="M886.847,-550.269C853.626,-547.736 803.034,-548.756 767,-571.699 736.085,-591.383 719.683,-634.855 713.692,-654.151"/>
<polygon fill="#9a32cd" stroke="#9a32cd" points="886.705,-553.771 896.982,-551.193 887.341,-546.799 886.705,-553.771"/>
<text text-anchor="middle" x="808" y="-574.699" font-family="Helvetica,sans-Serif" font-size="10.00"> Cleaning</text>
</g>
<!-- Node14 -->
<g id="node14" class="node"><title>Node14</title>
<polygon fill="white" stroke="#bfbfbf" points="438,-469.199 438,-488.199 473,-488.199 473,-469.199 438,-469.199"/>
<text text-anchor="middle" x="455.5" y="-476.199" font-family="Helvetica,sans-Serif" font-size="10.00">bool</text>
</g>
<!-- Node14&#45;&gt;Node1 -->
<g id="edge33" class="edge"><title>Node14&#45;&gt;Node1</title>
<path fill="none" stroke="#9a32cd" stroke-dasharray="5,2" d="M466.376,-460.048C481.718,-432.718 513.743,-381.783 554,-351.699 594.628,-321.338 717.134,-278.966 767,-269.699 908.979,-243.314 1068.76,-357.587 1113.06,-392.093"/>
<polygon fill="#9a32cd" stroke="#9a32cd" points="463.226,-458.514 461.495,-468.966 469.366,-461.875 463.226,-458.514"/>
<text text-anchor="middle" x="808" y="-382.699" font-family="Helvetica,sans-Serif" font-size="10.00"> keepSeqs</text>
<text text-anchor="middle" x="808" y="-371.699" font-family="Helvetica,sans-Serif" font-size="10.00">soverlap</text>
<text text-anchor="middle" x="808" y="-360.699" font-family="Helvetica,sans-Serif" font-size="10.00">columnNumbering</text>
<text text-anchor="middle" x="808" y="-349.699" font-family="Helvetica,sans-Serif" font-size="10.00">ignoreStopCodon</text>
<text text-anchor="middle" x="808" y="-338.699" font-family="Helvetica,sans-Serif" font-size="10.00">splitByStopCodon</text>
<text text-anchor="middle" x="808" y="-327.699" font-family="Helvetica,sans-Serif" font-size="10.00">selectSeqs</text>
<text text-anchor="middle" x="808" y="-316.699" font-family="Helvetica,sans-Serif" font-size="10.00">sgt</text>
<text text-anchor="middle" x="808" y="-305.699" font-family="Helvetica,sans-Serif" font-size="10.00">sgc</text>
<text text-anchor="middle" x="808" y="-294.699" font-family="Helvetica,sans-Serif" font-size="10.00">strict</text>
<text text-anchor="middle" x="808" y="-283.699" font-family="Helvetica,sans-Serif" font-size="10.00">shortNames</text>
<text text-anchor="middle" x="808" y="-272.699" font-family="Helvetica,sans-Serif" font-size="10.00">...</text>
</g>
<!-- Node14&#45;&gt;Node2 -->
<g id="edge22" class="edge"><title>Node14&#45;&gt;Node2</title>
<path fill="none" stroke="#9a32cd" stroke-dasharray="5,2" d="M483.08,-483.38C524.342,-491.912 604.132,-513.642 653,-560.699 681.737,-588.371 699.297,-634.047 705.949,-653.938"/>
<polygon fill="#9a32cd" stroke="#9a32cd" points="483.714,-479.938 473.227,-481.444 482.364,-486.806 483.714,-479.938"/>
<text text-anchor="middle" x="603.5" y="-563.699" font-family="Helvetica,sans-Serif" font-size="10.00"> isAligned</text>
</g>
<!-- Node14&#45;&gt;Node13 -->
<g id="edge21" class="edge"><title>Node14&#45;&gt;Node13</title>
<path fill="none" stroke="#9a32cd" stroke-dasharray="5,2" d="M483.182,-478.197C547.704,-477.738 716.619,-481.066 849,-523.699 867.265,-529.581 887.252,-538.388 901.523,-545.113"/>
<polygon fill="#9a32cd" stroke="#9a32cd" points="483.02,-474.698 473.059,-478.308 483.097,-481.698 483.02,-474.698"/>
<text text-anchor="middle" x="710" y="-511.699" font-family="Helvetica,sans-Serif" font-size="10.00"> keepSequences</text>
<text text-anchor="middle" x="710" y="-500.699" font-family="Helvetica,sans-Serif" font-size="10.00">terminalGapOnly</text>
</g>
<!-- Node19 -->
<g id="node19" class="node"><title>Node19</title>
<g id="a_node19"><a xlink:href="class_read_write_m_s.html" target="_top" xlink:title="Class that handles the load and save functions of an alignment. ">
<polygon fill="white" stroke="black" points="671,-339.199 671,-358.199 749,-358.199 749,-339.199 671,-339.199"/>
<text text-anchor="middle" x="710" y="-346.199" font-family="Helvetica,sans-Serif" font-size="10.00">ReadWriteMS</text>
</a>
</g>
</g>
<!-- Node14&#45;&gt;Node19 -->
<g id="edge35" class="edge"><title>Node14&#45;&gt;Node19</title>
<path fill="none" stroke="#9a32cd" stroke-dasharray="5,2" d="M470.49,-461.073C487.872,-440.378 519.483,-406.498 554,-387.699 590.797,-367.658 638.112,-357.691 670.735,-352.886"/>
<polygon fill="#9a32cd" stroke="#9a32cd" points="467.581,-459.101 463.945,-469.052 472.993,-463.54 467.581,-459.101"/>
<text text-anchor="middle" x="603.5" y="-456.699" font-family="Helvetica,sans-Serif" font-size="10.00"> format</text>
<text text-anchor="middle" x="603.5" y="-445.699" font-family="Helvetica,sans-Serif" font-size="10.00">hasOutputFile</text>
<text text-anchor="middle" x="603.5" y="-434.699" font-family="Helvetica,sans-Serif" font-size="10.00">shortNames</text>
<text text-anchor="middle" x="603.5" y="-423.699" font-family="Helvetica,sans-Serif" font-size="10.00">type</text>
<text text-anchor="middle" x="603.5" y="-412.699" font-family="Helvetica,sans-Serif" font-size="10.00">reverse</text>
<text text-anchor="middle" x="603.5" y="-401.699" font-family="Helvetica,sans-Serif" font-size="10.00">info</text>
<text text-anchor="middle" x="603.5" y="-390.699" font-family="Helvetica,sans-Serif" font-size="10.00">keepHeader</text>
</g>
<!-- Node15&#45;&gt;Node2 -->
<g id="edge23" class="edge"><title>Node15&#45;&gt;Node2</title>
<path fill="none" stroke="#9a32cd" stroke-dasharray="5,2" d="M864.413,-693.301C835.263,-688.327 799.175,-681.965 767,-675.699 761.242,-674.578 755.163,-673.336 749.218,-672.089"/>
<polygon fill="#9a32cd" stroke="#9a32cd" points="863.972,-696.776 874.417,-695 865.144,-689.875 863.972,-696.776"/>
<text text-anchor="middle" x="808" y="-692.699" font-family="Helvetica,sans-Serif" font-size="10.00"> Statistics</text>
</g>
<!-- Node16 -->
<g id="node16" class="node"><title>Node16</title>
<polygon fill="white" stroke="#bfbfbf" points="869.5,-156.199 869.5,-175.199 974.5,-175.199 974.5,-156.199 869.5,-156.199"/>
<text text-anchor="middle" x="922" y="-163.199" font-family="Helvetica,sans-Serif" font-size="10.00">vector&lt; std::string &gt;</text>
</g>
<!-- Node16&#45;&gt;Node1 -->
<g id="edge28" class="edge"><title>Node16&#45;&gt;Node1</title>
<path fill="none" stroke="#9a32cd" stroke-dasharray="5,2" d="M984.818,-156.089C1013.19,-155.165 1045.46,-159.517 1068,-178.699 1101.63,-207.313 1119.68,-352.715 1123.98,-391.938"/>
<polygon fill="#9a32cd" stroke="#9a32cd" points="984.36,-152.609 974.566,-156.651 984.743,-159.599 984.36,-152.609"/>
<text text-anchor="middle" x="1031.5" y="-181.699" font-family="Helvetica,sans-Serif" font-size="10.00"> oformats</text>
</g>
<!-- Node17 -->
<g id="node17" class="node"><title>Node17</title>
<polygon fill="white" stroke="#bfbfbf" points="904.5,-46.1991 904.5,-65.1991 939.5,-65.1991 939.5,-46.1991 904.5,-46.1991"/>
<text text-anchor="middle" x="922" y="-53.1991" font-family="Helvetica,sans-Serif" font-size="10.00">char</text>
</g>
<!-- Node17&#45;&gt;Node1 -->
<g id="edge29" class="edge"><title>Node17&#45;&gt;Node1</title>
<path fill="none" stroke="#9a32cd" stroke-dasharray="5,2" d="M949.241,-45.784C981.238,-35.5771 1035.11,-24.7427 1068,-52.6991 1121.45,-98.1239 1124.89,-340.505 1125.02,-392.055"/>
<polygon fill="#9a32cd" stroke="#9a32cd" points="948.023,-42.5012 939.675,-49.0259 950.269,-49.1309 948.023,-42.5012"/>
<text text-anchor="middle" x="1031.5" y="-143.699" font-family="Helvetica,sans-Serif" font-size="10.00"> filesToCompare</text>
<text text-anchor="middle" x="1031.5" y="-132.699" font-family="Helvetica,sans-Serif" font-size="10.00">infile</text>
<text text-anchor="middle" x="1031.5" y="-121.699" font-family="Helvetica,sans-Serif" font-size="10.00">forceFile</text>
<text text-anchor="middle" x="1031.5" y="-110.699" font-family="Helvetica,sans-Serif" font-size="10.00">line</text>
<text text-anchor="middle" x="1031.5" y="-99.6991" font-family="Helvetica,sans-Serif" font-size="10.00">outfile</text>
<text text-anchor="middle" x="1031.5" y="-88.6991" font-family="Helvetica,sans-Serif" font-size="10.00">matrixFile</text>
<text text-anchor="middle" x="1031.5" y="-77.6991" font-family="Helvetica,sans-Serif" font-size="10.00">htmlOutFile</text>
<text text-anchor="middle" x="1031.5" y="-66.6991" font-family="Helvetica,sans-Serif" font-size="10.00">backtransFile</text>
<text text-anchor="middle" x="1031.5" y="-55.6991" font-family="Helvetica,sans-Serif" font-size="10.00">c</text>
</g>
<!-- Node18 -->
<g id="node18" class="node"><title>Node18</title>
<polygon fill="white" stroke="#bfbfbf" points="896,-8.19912 896,-27.1991 948,-27.1991 948,-8.19912 896,-8.19912"/>
<text text-anchor="middle" x="922" y="-15.1991" font-family="Helvetica,sans-Serif" font-size="10.00">ifstream</text>
</g>
<!-- Node18&#45;&gt;Node1 -->
<g id="edge31" class="edge"><title>Node18&#45;&gt;Node1</title>
<path fill="none" stroke="#9a32cd" stroke-dasharray="5,2" d="M958.206,-6.62879C990.714,1.1994 1038.32,6.23794 1068,-19.6991 1125.94,-70.3326 1125.8,-337.189 1125.16,-391.894"/>
<polygon fill="#9a32cd" stroke="#9a32cd" points="957.016,-3.32187 948.224,-9.23271 958.783,-10.0952 957.016,-3.32187"/>
<text text-anchor="middle" x="1031.5" y="-22.6991" font-family="Helvetica,sans-Serif" font-size="10.00"> compare</text>
</g>
<!-- Node19&#45;&gt;Node1 -->
<g id="edge34" class="edge"><title>Node19&#45;&gt;Node1</title>
<path fill="none" stroke="#9a32cd" stroke-dasharray="5,2" d="M725.918,-365.763C736.262,-376.26 751.01,-388.797 767,-394.699 824.444,-415.903 1005.48,-408.618 1085.87,-404.134"/>
<polygon fill="#9a32cd" stroke="#9a32cd" points="728.306,-363.192 718.92,-358.277 723.193,-367.973 728.306,-363.192"/>
<text text-anchor="middle" x="922" y="-411.699" font-family="Helvetica,sans-Serif" font-size="10.00"> ReadWriteMachine</text>
</g>
<!-- Node20 -->
<g id="node20" class="node"><title>Node20</title>
<polygon fill="white" stroke="#bfbfbf" points="375,-280.199 375,-299.199 536,-299.199 536,-280.199 375,-280.199"/>
<text text-anchor="middle" x="455.5" y="-287.199" font-family="Helvetica,sans-Serif" font-size="10.00">vector&lt; ReadWriteBaseState * &gt;</text>
</g>
<!-- Node20&#45;&gt;Node19 -->
<g id="edge36" class="edge"><title>Node20&#45;&gt;Node19</title>
<path fill="none" stroke="#9a32cd" stroke-dasharray="5,2" d="M546.066,-293.953C580.233,-297.529 619.097,-304.01 653,-315.699 668.789,-321.143 685.039,-331.322 695.94,-338.942"/>
<polygon fill="#9a32cd" stroke="#9a32cd" points="546.388,-290.468 536.095,-292.977 545.706,-297.434 546.388,-290.468"/>
<text text-anchor="middle" x="603.5" y="-318.699" font-family="Helvetica,sans-Serif" font-size="10.00"> available_states</text>
</g>
</g>
</svg>
