<?xml version="1.0" encoding="UTF-8" standalone="no"?>
<!DOCTYPE svg PUBLIC "-//W3C//DTD SVG 1.1//EN"
 "http://www.w3.org/Graphics/SVG/1.1/DTD/svg11.dtd">
<!-- Generated by graphviz version 2.38.0 (20140413.2041)
 -->
<!-- Title: Cleaner::cleanByCutValue Pages: 1 -->
<svg width="516pt" height="279pt"
 viewBox="0.00 0.00 516.00 278.50" xmlns="http://www.w3.org/2000/svg" xmlns:xlink="http://www.w3.org/1999/xlink">
<g id="graph0" class="graph" transform="scale(1 1) rotate(0) translate(4 274.5)">
<title>Cleaner::cleanByCutValue</title>
<polygon fill="white" stroke="none" points="-4,4 -4,-274.5 512,-274.5 512,4 -4,4"/>
<!-- Node62 -->
<g id="node1" class="node"><title>Node62</title>
<polygon fill="#bfbfbf" stroke="black" points="0,-137 0,-156 132,-156 132,-137 0,-137"/>
<text text-anchor="middle" x="66" y="-144" font-family="Helvetica,sans-Serif" font-size="10.00">Cleaner::cleanByCutValue</text>
</g>
<!-- Node63 -->
<g id="node2" class="node"><title>Node63</title>
<g id="a_node2"><a xlink:href="classutils.html#ad50731aeb3c8f79ed8372516210dfc9d" target="_top" xlink:title="Round double to integer method. ">
<polygon fill="white" stroke="black" points="219.5,-251 219.5,-270 295.5,-270 295.5,-251 219.5,-251"/>
<text text-anchor="middle" x="257.5" y="-258" font-family="Helvetica,sans-Serif" font-size="10.00">utils::roundInt</text>
</a>
</g>
</g>
<!-- Node62&#45;&gt;Node63 -->
<g id="edge1" class="edge"><title>Node62&#45;&gt;Node63</title>
<path fill="none" stroke="midnightblue" d="M74.1582,-156.097C89.2104,-175.538 126.218,-219.581 168,-241.5 180.654,-248.138 195.484,-252.458 209.348,-255.268"/>
<polygon fill="midnightblue" stroke="midnightblue" points="208.763,-258.719 219.227,-257.06 210.012,-251.832 208.763,-258.719"/>
</g>
<!-- Node64 -->
<g id="node3" class="node"><title>Node64</title>
<g id="a_node3"><a xlink:href="classutils.html#a42f272221edf7752ffda49e4212ef653" target="_top" xlink:title="Integer vector copying. ">
<polygon fill="white" stroke="black" points="216.5,-213 216.5,-232 298.5,-232 298.5,-213 216.5,-213"/>
<text text-anchor="middle" x="257.5" y="-220" font-family="Helvetica,sans-Serif" font-size="10.00">utils::copyVect</text>
</a>
</g>
</g>
<!-- Node62&#45;&gt;Node64 -->
<g id="edge2" class="edge"><title>Node62&#45;&gt;Node64</title>
<path fill="none" stroke="midnightblue" d="M80.7187,-156.037C99.5543,-168.702 134.868,-190.929 168,-203.5 180.057,-208.075 193.478,-211.669 206.15,-214.441"/>
<polygon fill="midnightblue" stroke="midnightblue" points="205.611,-217.903 216.111,-216.491 207.022,-211.047 205.611,-217.903"/>
</g>
<!-- Node65 -->
<g id="node4" class="node"><title>Node65</title>
<g id="a_node4"><a xlink:href="classutils.html#a73f038c379c13d23e3220afaa14f9983" target="_top" xlink:title="Quicksort sorting method. ">
<polygon fill="white" stroke="black" points="217.5,-175 217.5,-194 297.5,-194 297.5,-175 217.5,-175"/>
<text text-anchor="middle" x="257.5" y="-182" font-family="Helvetica,sans-Serif" font-size="10.00">utils::quicksort</text>
</a>
</g>
</g>
<!-- Node62&#45;&gt;Node65 -->
<g id="edge3" class="edge"><title>Node62&#45;&gt;Node65</title>
<path fill="none" stroke="midnightblue" d="M114.819,-156.089C143.04,-161.748 178.693,-168.898 207.173,-174.609"/>
<polygon fill="midnightblue" stroke="midnightblue" points="206.822,-178.108 217.315,-176.642 208.198,-171.244 206.822,-178.108"/>
</g>
<!-- Node67 -->
<g id="node6" class="node"><title>Node67</title>
<g id="a_node6"><a xlink:href="class_cleaner.html#a033da9ea63774f43f4c7aff04f23da81" target="_top" xlink:title="Method to detect right and left borders. Borders are the first column found with no gaps...">
<polygon fill="white" stroke="black" points="184.5,-137 184.5,-156 330.5,-156 330.5,-137 184.5,-137"/>
<text text-anchor="middle" x="257.5" y="-144" font-family="Helvetica,sans-Serif" font-size="10.00">Cleaner::removeOnlyTerminal</text>
</a>
</g>
</g>
<!-- Node62&#45;&gt;Node67 -->
<g id="edge5" class="edge"><title>Node62&#45;&gt;Node67</title>
<path fill="none" stroke="midnightblue" d="M132.215,-146.5C145.741,-146.5 160.159,-146.5 174.205,-146.5"/>
<polygon fill="midnightblue" stroke="midnightblue" points="174.349,-150 184.349,-146.5 174.349,-143 174.349,-150"/>
</g>
<!-- Node69 -->
<g id="node8" class="node"><title>Node69</title>
<g id="a_node8"><a xlink:href="class_cleaner.html#a24bd28e4191afc9471adff329bee1466" target="_top" xlink:title="Method for computing the complementary alignment. Complementary Alignment is an alignment containing ...">
<polygon fill="white" stroke="black" points="168,-99 168,-118 347,-118 347,-99 168,-99"/>
<text text-anchor="middle" x="257.5" y="-106" font-family="Helvetica,sans-Serif" font-size="10.00">Cleaner::computeComplementaryAlig</text>
</a>
</g>
</g>
<!-- Node62&#45;&gt;Node69 -->
<g id="edge7" class="edge"><title>Node62&#45;&gt;Node69</title>
<path fill="none" stroke="midnightblue" d="M114.819,-136.911C140.389,-131.784 172.059,-125.433 198.968,-120.037"/>
<polygon fill="midnightblue" stroke="midnightblue" points="199.908,-123.418 209.025,-118.02 198.532,-116.555 199.908,-123.418"/>
</g>
<!-- Node70 -->
<g id="node9" class="node"><title>Node70</title>
<g id="a_node9"><a xlink:href="class_cleaner.html#a2f7d85e29f23f880a7ad7e28863b36c3" target="_top" xlink:title="Method that identifies and removes columns and sequences composed only by gaps. ">
<polygon fill="white" stroke="black" points="203,-49.5 203,-79.5 312,-79.5 312,-49.5 203,-49.5"/>
<text text-anchor="start" x="211" y="-67.5" font-family="Helvetica,sans-Serif" font-size="10.00">Cleaner::removeCols</text>
<text text-anchor="middle" x="257.5" y="-56.5" font-family="Helvetica,sans-Serif" font-size="10.00">_SeqsAllGaps</text>
</a>
</g>
</g>
<!-- Node62&#45;&gt;Node70 -->
<g id="edge8" class="edge"><title>Node62&#45;&gt;Node70</title>
<path fill="none" stroke="midnightblue" d="M81.4944,-136.847C100.621,-124.46 135.658,-102.967 168,-89.5 176.032,-86.1557 184.654,-83.1024 193.252,-80.3677"/>
<polygon fill="midnightblue" stroke="midnightblue" points="194.373,-83.6848 202.915,-77.4171 192.329,-76.9899 194.373,-83.6848"/>
</g>
<!-- Node71 -->
<g id="node10" class="node"><title>Node71</title>
<g id="a_node10"><a xlink:href="classnew_alignment.html#a3de39c62c08a265178f1fa7df76c3ab7" target="_top" xlink:title="Method that copies information of the alignment to the pointers given. ">
<polygon fill="white" stroke="black" points="190,-0.5 190,-30.5 325,-30.5 325,-0.5 190,-0.5"/>
<text text-anchor="start" x="198" y="-18.5" font-family="Helvetica,sans-Serif" font-size="10.00">newAlignment::fillNewData</text>
<text text-anchor="middle" x="257.5" y="-7.5" font-family="Helvetica,sans-Serif" font-size="10.00">Structure</text>
</a>
</g>
</g>
<!-- Node62&#45;&gt;Node71 -->
<g id="edge10" class="edge"><title>Node62&#45;&gt;Node71</title>
<path fill="none" stroke="midnightblue" d="M73.3484,-136.959C87.6772,-116.18 124.677,-66.6124 168,-40.5 171.874,-38.1652 175.974,-36.0411 180.202,-34.1095"/>
<polygon fill="midnightblue" stroke="midnightblue" points="181.744,-37.2589 189.628,-30.1815 179.051,-30.7975 181.744,-37.2589"/>
</g>
<!-- Node66 -->
<g id="node5" class="node"><title>Node66</title>
<g id="a_node5"><a xlink:href="classutils.html#a3377ecde55631d1bbc4956e5923b7469" target="_top" xlink:title="Swapping elements method. ">
<polygon fill="white" stroke="black" points="413.5,-175 413.5,-194 477.5,-194 477.5,-175 413.5,-175"/>
<text text-anchor="middle" x="445.5" y="-182" font-family="Helvetica,sans-Serif" font-size="10.00">utils::swap</text>
</a>
</g>
</g>
<!-- Node65&#45;&gt;Node66 -->
<g id="edge4" class="edge"><title>Node65&#45;&gt;Node66</title>
<path fill="none" stroke="midnightblue" d="M297.946,-184.5C328.892,-184.5 371.838,-184.5 403.241,-184.5"/>
<polygon fill="midnightblue" stroke="midnightblue" points="403.414,-188 413.414,-184.5 403.414,-181 403.414,-188"/>
</g>
<!-- Node68 -->
<g id="node7" class="node"><title>Node68</title>
<g id="a_node7"><a xlink:href="class_verbose_manager.html#a261de87bbf9653cd729dca4e1fbeb2a3" target="_top" xlink:title="Method to report an Error. It will be displayed if VerboseManager::Level is equal or higher to Verbos...">
<polygon fill="white" stroke="black" points="383,-96 383,-115 508,-115 508,-96 383,-96"/>
<text text-anchor="middle" x="445.5" y="-103" font-family="Helvetica,sans-Serif" font-size="10.00">VerboseManager::Report</text>
</a>
</g>
</g>
<!-- Node67&#45;&gt;Node68 -->
<g id="edge6" class="edge"><title>Node67&#45;&gt;Node68</title>
<path fill="none" stroke="midnightblue" d="M303.542,-136.925C317.48,-133.937 332.881,-130.609 347,-127.5 361.871,-124.226 378.003,-120.612 392.784,-117.275"/>
<polygon fill="midnightblue" stroke="midnightblue" points="393.787,-120.636 402.769,-115.017 392.243,-113.809 393.787,-120.636"/>
</g>
<!-- Node70&#45;&gt;Node68 -->
<g id="edge9" class="edge"><title>Node70&#45;&gt;Node68</title>
<path fill="none" stroke="midnightblue" d="M312.299,-76.3589C337.099,-81.8257 366.452,-88.296 391.192,-93.7494"/>
<polygon fill="midnightblue" stroke="midnightblue" points="390.612,-97.2055 401.132,-95.9403 392.119,-90.3696 390.612,-97.2055"/>
</g>
</g>
</svg>
