<?xml version="1.0" encoding="UTF-8" standalone="no"?>
<!DOCTYPE svg PUBLIC "-//W3C//DTD SVG 1.1//EN"
 "http://www.w3.org/Graphics/SVG/1.1/DTD/svg11.dtd">
<!-- Generated by graphviz version 2.40.1 (20161225.0304)
 -->
<!-- Title: statistics::Consistency::isWindowDefined Pages: 1 -->
<svg width="1045pt" height="163pt"
 viewBox="0.00 0.00 1045.00 162.50" xmlns="http://www.w3.org/2000/svg" xmlns:xlink="http://www.w3.org/1999/xlink">
<g id="graph0" class="graph" transform="scale(1 1) rotate(0) translate(4 158.5)">
<title>statistics::Consistency::isWindowDefined</title>
<polygon fill="#ffffff" stroke="transparent" points="-4,4 -4,-158.5 1041,-158.5 1041,4 -4,4"/>
<!-- Node63 -->
<g id="node1" class="node">
<title>Node63</title>
<g id="a_node1"><a xlink:title="Method to check wether or not a window has been applied.">
<polygon fill="#bfbfbf" stroke="#000000" points="920,-69.5 920,-99.5 1037,-99.5 1037,-69.5 920,-69.5"/>
<text text-anchor="start" x="928" y="-87.5" font-family="Helvetica,sans-Serif" font-size="10.00" fill="#000000">statistics::Consistency</text>
<text text-anchor="middle" x="978.5" y="-76.5" font-family="Helvetica,sans-Serif" font-size="10.00" fill="#000000">::isWindowDefined</text>
</a>
</g>
</g>
<!-- Node64 -->
<g id="node2" class="node">
<title>Node64</title>
<g id="a_node2"><a xlink:href="classstatistics_1_1_consistency.html#ad3a0a265cb9460cd4633b027fe2437c9" target="_top" xlink:title="Stat Getter &#160;.">
<polygon fill="#ffffff" stroke="#000000" points="767,-69.5 767,-99.5 884,-99.5 884,-69.5 767,-69.5"/>
<text text-anchor="start" x="775" y="-87.5" font-family="Helvetica,sans-Serif" font-size="10.00" fill="#000000">statistics::Consistency</text>
<text text-anchor="middle" x="825.5" y="-76.5" font-family="Helvetica,sans-Serif" font-size="10.00" fill="#000000">::getValues</text>
</a>
</g>
</g>
<!-- Node63&#45;&gt;Node64 -->
<g id="edge1" class="edge">
<title>Node63&#45;&gt;Node64</title>
<path fill="none" stroke="#191970" d="M909.5068,-84.5C901.0073,-84.5 892.383,-84.5 884.0591,-84.5"/>
<polygon fill="#191970" stroke="#191970" points="909.7838,-88.0001 919.7838,-84.5 909.7837,-81.0001 909.7838,-88.0001"/>
</g>
<!-- Node65 -->
<g id="node3" class="node">
<title>Node65</title>
<g id="a_node3"><a xlink:href="class_alignment.html#a4e80b4d399ffdbe2ed2cfab91975f348" target="_top" xlink:title="Method to report the trimming results in HTML. Outputs an HTML file that shows visually what has been...">
<polygon fill="#ffffff" stroke="#000000" points="554,-135 554,-154 731,-154 731,-135 554,-135"/>
<text text-anchor="middle" x="642.5" y="-142" font-family="Helvetica,sans-Serif" font-size="10.00" fill="#000000">Alignment::alignmentSummaryHTML</text>
</a>
</g>
</g>
<!-- Node64&#45;&gt;Node65 -->
<g id="edge2" class="edge">
<title>Node64&#45;&gt;Node65</title>
<path fill="none" stroke="#191970" d="M785.631,-103.8843C769.0242,-111.4063 749.3635,-119.6092 731,-125.5 719.6276,-129.1481 707.2077,-132.3047 695.3645,-134.9401"/>
<polygon fill="#191970" stroke="#191970" points="787.4054,-106.9205 795.0229,-99.5569 784.476,-100.5629 787.4054,-106.9205"/>
</g>
<!-- Node66 -->
<g id="node4" class="node">
<title>Node66</title>
<g id="a_node4"><a xlink:href="class_alignment.html#a2fcaadf2c0799bc668050f7735860364" target="_top" xlink:title="Method to report the trimming results in SVG. Outputs a SVG file that shows visually what has been do...">
<polygon fill="#ffffff" stroke="#000000" points="557,-97 557,-116 728,-116 728,-97 557,-97"/>
<text text-anchor="middle" x="642.5" y="-104" font-family="Helvetica,sans-Serif" font-size="10.00" fill="#000000">Alignment::alignmentSummarySVG</text>
</a>
</g>
</g>
<!-- Node64&#45;&gt;Node66 -->
<g id="edge3" class="edge">
<title>Node64&#45;&gt;Node66</title>
<path fill="none" stroke="#191970" d="M756.5897,-92.7843C745.2507,-94.1475 733.418,-95.57 721.8491,-96.9608"/>
<polygon fill="#191970" stroke="#191970" points="757.3318,-96.2204 766.8426,-91.5517 756.4963,-89.2704 757.3318,-96.2204"/>
</g>
<!-- Node67 -->
<g id="node5" class="node">
<title>Node67</title>
<g id="a_node5"><a xlink:href="classtrim_al_manager.html#aebfd21b0435302f0e4fc45a068d1b6ee" target="_top" xlink:title="Method to trim the alignment using non automatic methods:">
<polygon fill="#ffffff" stroke="#000000" points="566.5,-47.5 566.5,-77.5 718.5,-77.5 718.5,-47.5 566.5,-47.5"/>
<text text-anchor="start" x="574.5" y="-65.5" font-family="Helvetica,sans-Serif" font-size="10.00" fill="#000000">trimAlManager::CleanResidues</text>
<text text-anchor="middle" x="642.5" y="-54.5" font-family="Helvetica,sans-Serif" font-size="10.00" fill="#000000">NonAuto</text>
</a>
</g>
</g>
<!-- Node64&#45;&gt;Node67 -->
<g id="edge4" class="edge">
<title>Node64&#45;&gt;Node67</title>
<path fill="none" stroke="#191970" d="M756.5745,-76.2139C744.1591,-74.7213 731.1522,-73.1576 718.5481,-71.6424"/>
<polygon fill="#191970" stroke="#191970" points="756.4963,-79.7296 766.8426,-77.4483 757.3318,-72.7796 756.4963,-79.7296"/>
</g>
<!-- Node72 -->
<g id="node10" class="node">
<title>Node72</title>
<g id="a_node10"><a xlink:href="classtrim_al_manager.html#afc48b86f5ae35b9a5e721b65c58bf610" target="_top" xlink:title="Method to print statistics requested.">
<polygon fill="#ffffff" stroke="#000000" points="411.5,-.5 411.5,-30.5 515.5,-30.5 515.5,-.5 411.5,-.5"/>
<text text-anchor="start" x="419.5" y="-18.5" font-family="Helvetica,sans-Serif" font-size="10.00" fill="#000000">trimAlManager::print</text>
<text text-anchor="middle" x="463.5" y="-7.5" font-family="Helvetica,sans-Serif" font-size="10.00" fill="#000000">_statistics</text>
</a>
</g>
</g>
<!-- Node64&#45;&gt;Node72 -->
<g id="edge10" class="edge">
<title>Node64&#45;&gt;Node72</title>
<path fill="none" stroke="#191970" d="M791.6143,-64.2361C774.1207,-54.7664 752.0734,-44.3184 731,-38.5 658.0992,-18.372 570.1541,-14.519 515.518,-14.3963"/>
<polygon fill="#191970" stroke="#191970" points="790.3888,-67.5594 800.8294,-69.3608 793.791,-61.4418 790.3888,-67.5594"/>
</g>
<!-- Node68 -->
<g id="node6" class="node">
<title>Node68</title>
<g id="a_node6"><a xlink:href="classtrim_al_manager.html#adc529dd893ed4e9df6f3ddbd58776068" target="_top" xlink:title="Core Method of the program. This is where almost all cleaning methods are called from.">
<polygon fill="#ffffff" stroke="#000000" points="409,-49.5 409,-79.5 518,-79.5 518,-49.5 409,-49.5"/>
<text text-anchor="start" x="417" y="-67.5" font-family="Helvetica,sans-Serif" font-size="10.00" fill="#000000">trimAlManager::clean</text>
<text text-anchor="middle" x="463.5" y="-56.5" font-family="Helvetica,sans-Serif" font-size="10.00" fill="#000000">_alignment</text>
</a>
</g>
</g>
<!-- Node67&#45;&gt;Node68 -->
<g id="edge5" class="edge">
<title>Node67&#45;&gt;Node68</title>
<path fill="none" stroke="#191970" d="M556.0329,-63.4661C543.1474,-63.6101 530.178,-63.755 518.1947,-63.8889"/>
<polygon fill="#191970" stroke="#191970" points="556.3681,-66.9627 566.3283,-63.3511 556.2898,-59.9631 556.3681,-66.9627"/>
</g>
<!-- Node69 -->
<g id="node7" class="node">
<title>Node69</title>
<g id="a_node7"><a xlink:href="classtrim_al_manager.html#abe8d2841455c644dc9c7d1294b82b00f" target="_top" xlink:title="Method to perform the analysis if all checks have passed.">
<polygon fill="#ffffff" stroke="#000000" points="74,-44 74,-63 193,-63 193,-44 74,-44"/>
<text text-anchor="middle" x="133.5" y="-51" font-family="Helvetica,sans-Serif" font-size="10.00" fill="#000000">trimAlManager::perform</text>
</a>
</g>
</g>
<!-- Node68&#45;&gt;Node69 -->
<g id="edge6" class="edge">
<title>Node68&#45;&gt;Node69</title>
<path fill="none" stroke="#191970" d="M398.7993,-71.2899C351.626,-75.126 286.2186,-78.1367 229,-72.5 210.1578,-70.6438 189.5232,-66.7751 172.2711,-63.0101"/>
<polygon fill="#191970" stroke="#191970" points="399.21,-74.7678 408.8785,-70.4353 398.6185,-67.7928 399.21,-74.7678"/>
</g>
<!-- Node71 -->
<g id="node9" class="node">
<title>Node71</title>
<g id="a_node9"><a xlink:href="classtrim_al_manager.html#ac5795f93b3a2b51bf5d8dddd63b89f73" target="_top" xlink:title=" ">
<polygon fill="#ffffff" stroke="#000000" points="229,-44 229,-63 373,-63 373,-44 229,-44"/>
<text text-anchor="middle" x="301" y="-51" font-family="Helvetica,sans-Serif" font-size="10.00" fill="#000000">trimAlManager::perform_VCF</text>
</a>
</g>
</g>
<!-- Node68&#45;&gt;Node71 -->
<g id="edge8" class="edge">
<title>Node68&#45;&gt;Node71</title>
<path fill="none" stroke="#191970" d="M398.7672,-60.1181C390.3063,-59.5453 381.5959,-58.9557 373.0243,-58.3755"/>
<polygon fill="#191970" stroke="#191970" points="398.7242,-63.6231 408.9378,-60.8066 399.197,-56.6391 398.7242,-63.6231"/>
</g>
<!-- Node70 -->
<g id="node8" class="node">
<title>Node70</title>
<g id="a_node8"><a xlink:href="trim_al_main_8cpp.html#a0ddf1224851353fc92bfbff6f499fa97" target="_top" xlink:title=" ">
<polygon fill="#ffffff" stroke="#000000" points="0,-44 0,-63 38,-63 38,-44 0,-44"/>
<text text-anchor="middle" x="19" y="-51" font-family="Helvetica,sans-Serif" font-size="10.00" fill="#000000">main</text>
</a>
</g>
</g>
<!-- Node69&#45;&gt;Node70 -->
<g id="edge7" class="edge">
<title>Node69&#45;&gt;Node70</title>
<path fill="none" stroke="#191970" d="M63.6802,-53.5C54.3823,-53.5 45.5497,-53.5 38.2303,-53.5"/>
<polygon fill="#191970" stroke="#191970" points="63.9025,-57.0001 73.9024,-53.5 63.9024,-50.0001 63.9025,-57.0001"/>
</g>
<!-- Node71&#45;&gt;Node69 -->
<g id="edge9" class="edge">
<title>Node71&#45;&gt;Node69</title>
<path fill="none" stroke="#191970" d="M218.8378,-53.5C210.1593,-53.5 201.4581,-53.5 193.107,-53.5"/>
<polygon fill="#191970" stroke="#191970" points="218.9929,-57.0001 228.9928,-53.5 218.9928,-50.0001 218.9929,-57.0001"/>
</g>
<!-- Node72&#45;&gt;Node69 -->
<g id="edge11" class="edge">
<title>Node72&#45;&gt;Node69</title>
<path fill="none" stroke="#191970" d="M401.0483,-18.5924C353.6786,-21.4138 287.0396,-26.4028 229,-34.5 211.5876,-36.9292 192.5616,-40.5205 176.1067,-43.9286"/>
<polygon fill="#191970" stroke="#191970" points="401.3729,-22.0795 411.1533,-18.0059 400.9673,-15.0913 401.3729,-22.0795"/>
</g>
</g>
</svg>
