<?xml version="1.0" encoding="UTF-8" standalone="no"?>
<!DOCTYPE svg PUBLIC "-//W3C//DTD SVG 1.1//EN"
 "http://www.w3.org/Graphics/SVG/1.1/DTD/svg11.dtd">
<!-- Generated by graphviz version 2.38.0 (20140413.2041)
 -->
<!-- Title: Cleaner::cleanGaps Pages: 1 -->
<svg width="619pt" height="154pt"
 viewBox="0.00 0.00 619.00 153.50" xmlns="http://www.w3.org/2000/svg" xmlns:xlink="http://www.w3.org/1999/xlink">
<g id="graph0" class="graph" transform="scale(1 1) rotate(0) translate(4 149.5)">
<title>Cleaner::cleanGaps</title>
<polygon fill="white" stroke="none" points="-4,4 -4,-149.5 615,-149.5 615,4 -4,4"/>
<!-- Node143 -->
<g id="node1" class="node"><title>Node143</title>
<polygon fill="#bfbfbf" stroke="black" points="0,-69 0,-88 103,-88 103,-69 0,-69"/>
<text text-anchor="middle" x="51.5" y="-76" font-family="Helvetica,sans-Serif" font-size="10.00">Cleaner::cleanGaps</text>
</g>
<!-- Node144 -->
<g id="node2" class="node"><title>Node144</title>
<g id="a_node2"><a xlink:href="class_cleaner.html#a66bda5807c06cfaf1609e4c1f5955671" target="_top" xlink:title="Method to clean an alignment. &#160;It removes sequences that overpass or equals a certain threshold...">
<polygon fill="white" stroke="black" points="139,-63.5 139,-93.5 271,-93.5 271,-63.5 139,-63.5"/>
<text text-anchor="start" x="147" y="-81.5" font-family="Helvetica,sans-Serif" font-size="10.00">Cleaner::cleanByCutValue</text>
<text text-anchor="middle" x="205" y="-70.5" font-family="Helvetica,sans-Serif" font-size="10.00">Overpass</text>
</a>
</g>
</g>
<!-- Node143&#45;&gt;Node144 -->
<g id="edge1" class="edge"><title>Node143&#45;&gt;Node144</title>
<path fill="none" stroke="midnightblue" d="M103.369,-78.5C111.524,-78.5 120.113,-78.5 128.694,-78.5"/>
<polygon fill="midnightblue" stroke="midnightblue" points="128.737,-82.0001 138.737,-78.5 128.737,-75.0001 128.737,-82.0001"/>
</g>
<!-- Node145 -->
<g id="node3" class="node"><title>Node145</title>
<g id="a_node3"><a xlink:href="classutils.html#ad50731aeb3c8f79ed8372516210dfc9d" target="_top" xlink:title="Round double to integer method. ">
<polygon fill="white" stroke="black" points="345,-126 345,-145 421,-145 421,-126 345,-126"/>
<text text-anchor="middle" x="383" y="-133" font-family="Helvetica,sans-Serif" font-size="10.00">utils::roundInt</text>
</a>
</g>
</g>
<!-- Node144&#45;&gt;Node145 -->
<g id="edge2" class="edge"><title>Node144&#45;&gt;Node145</title>
<path fill="none" stroke="midnightblue" d="M243.066,-93.5814C262.016,-101.001 285.549,-109.771 307,-116.5 315.941,-119.305 325.579,-121.992 334.87,-124.418"/>
<polygon fill="midnightblue" stroke="midnightblue" points="334.212,-127.862 344.766,-126.94 335.941,-121.078 334.212,-127.862"/>
</g>
<!-- Node146 -->
<g id="node4" class="node"><title>Node146</title>
<g id="a_node4"><a xlink:href="classutils.html#a73f038c379c13d23e3220afaa14f9983" target="_top" xlink:title="Quicksort sorting method. ">
<polygon fill="white" stroke="black" points="343,-88 343,-107 423,-107 423,-88 343,-88"/>
<text text-anchor="middle" x="383" y="-95" font-family="Helvetica,sans-Serif" font-size="10.00">utils::quicksort</text>
</a>
</g>
</g>
<!-- Node144&#45;&gt;Node146 -->
<g id="edge3" class="edge"><title>Node144&#45;&gt;Node146</title>
<path fill="none" stroke="midnightblue" d="M271.036,-85.5209C291.455,-87.7252 313.647,-90.121 332.782,-92.1867"/>
<polygon fill="midnightblue" stroke="midnightblue" points="332.456,-95.6718 342.774,-93.2654 333.208,-88.7122 332.456,-95.6718"/>
</g>
<!-- Node148 -->
<g id="node6" class="node"><title>Node148</title>
<g id="a_node6"><a xlink:href="class_cleaner.html#ae6d263df982b8e0a605f49e52a5a48d9" target="_top" xlink:title="Method to remove column blocks smaller than a given size. ">
<polygon fill="white" stroke="black" points="307,-50 307,-69 459,-69 459,-50 307,-50"/>
<text text-anchor="middle" x="383" y="-57" font-family="Helvetica,sans-Serif" font-size="10.00">Cleaner::removeSmallerBlocks</text>
</a>
</g>
</g>
<!-- Node144&#45;&gt;Node148 -->
<g id="edge5" class="edge"><title>Node144&#45;&gt;Node148</title>
<path fill="none" stroke="midnightblue" d="M271.036,-71.4791C279.411,-70.5749 288.085,-69.6386 296.724,-68.706"/>
<polygon fill="midnightblue" stroke="midnightblue" points="297.262,-72.1683 306.829,-67.6151 296.511,-65.2087 297.262,-72.1683"/>
</g>
<!-- Node149 -->
<g id="node7" class="node"><title>Node149</title>
<g id="a_node7"><a xlink:href="class_cleaner.html#ada8ad076dd037f00ae3f4fd17762641f" target="_top" xlink:title="Method that identifies and removes columns and sequences composed only by gaps. ">
<polygon fill="white" stroke="black" points="310,-0.5 310,-30.5 456,-30.5 456,-0.5 310,-0.5"/>
<text text-anchor="start" x="318" y="-18.5" font-family="Helvetica,sans-Serif" font-size="10.00">Cleaner::removeAllGapsSeqs</text>
<text text-anchor="middle" x="383" y="-7.5" font-family="Helvetica,sans-Serif" font-size="10.00">AndCols</text>
</a>
</g>
</g>
<!-- Node144&#45;&gt;Node149 -->
<g id="edge6" class="edge"><title>Node144&#45;&gt;Node149</title>
<path fill="none" stroke="midnightblue" d="M245.204,-63.3532C263.86,-56.2471 286.518,-47.7639 307,-40.5 313.258,-38.2808 319.828,-36.0076 326.371,-33.78"/>
<polygon fill="midnightblue" stroke="midnightblue" points="327.543,-37.0785 335.895,-30.5607 325.301,-30.4471 327.543,-37.0785"/>
</g>
<!-- Node147 -->
<g id="node5" class="node"><title>Node147</title>
<g id="a_node5"><a xlink:href="classutils.html#a3377ecde55631d1bbc4956e5923b7469" target="_top" xlink:title="Swapping elements method. ">
<polygon fill="white" stroke="black" points="521,-88 521,-107 585,-107 585,-88 521,-88"/>
<text text-anchor="middle" x="553" y="-95" font-family="Helvetica,sans-Serif" font-size="10.00">utils::swap</text>
</a>
</g>
</g>
<!-- Node146&#45;&gt;Node147 -->
<g id="edge4" class="edge"><title>Node146&#45;&gt;Node147</title>
<path fill="none" stroke="midnightblue" d="M423.389,-97.5C449.673,-97.5 484.168,-97.5 510.816,-97.5"/>
<polygon fill="midnightblue" stroke="midnightblue" points="510.976,-101 520.976,-97.5 510.976,-94.0001 510.976,-101"/>
</g>
<!-- Node150 -->
<g id="node8" class="node"><title>Node150</title>
<g id="a_node8"><a xlink:href="class____internal_report_1_1____report_system.html#acd358cbc59625c6e2f47e0b5f825400d" target="_top" xlink:title="Method to report an Error. &#160;It will be displayed if Level &#160;is equal or higher to VerboseLevel::ERROR...">
<polygon fill="white" stroke="black" points="495,-0.5 495,-30.5 611,-30.5 611,-0.5 495,-0.5"/>
<text text-anchor="start" x="503" y="-18.5" font-family="Helvetica,sans-Serif" font-size="10.00">__internalReport::</text>
<text text-anchor="middle" x="553" y="-7.5" font-family="Helvetica,sans-Serif" font-size="10.00">__reportSystem::report</text>
</a>
</g>
</g>
<!-- Node149&#45;&gt;Node150 -->
<g id="edge7" class="edge"><title>Node149&#45;&gt;Node150</title>
<path fill="none" stroke="midnightblue" d="M456.222,-15.5C465.692,-15.5 475.366,-15.5 484.749,-15.5"/>
<polygon fill="midnightblue" stroke="midnightblue" points="484.793,-19.0001 494.793,-15.5 484.793,-12.0001 484.793,-19.0001"/>
</g>
</g>
</svg>
