<?xml version="1.0" encoding="UTF-8" standalone="no"?>
<!DOCTYPE svg PUBLIC "-//W3C//DTD SVG 1.1//EN"
 "http://www.w3.org/Graphics/SVG/1.1/DTD/svg11.dtd">
<!-- Generated by graphviz version 2.40.1 (20161225.0304)
 -->
<!-- Title: statistics::Consistency::isWindowDefined Pages: 1 -->
<svg width="1046pt" height="209pt"
 viewBox="0.00 0.00 1046.00 208.50" xmlns="http://www.w3.org/2000/svg" xmlns:xlink="http://www.w3.org/1999/xlink">
<g id="graph0" class="graph" transform="scale(1 1) rotate(0) translate(4 204.5)">
<title>statistics::Consistency::isWindowDefined</title>
<polygon fill="#ffffff" stroke="transparent" points="-4,4 -4,-204.5 1042,-204.5 1042,4 -4,4"/>
<!-- Node102 -->
<g id="node1" class="node">
<title>Node102</title>
<polygon fill="#bfbfbf" stroke="#000000" points="0,-93.5 0,-123.5 117,-123.5 117,-93.5 0,-93.5"/>
<text text-anchor="start" x="8" y="-111.5" font-family="Helvetica,sans-Serif" font-size="10.00" fill="#000000">statistics::Consistency</text>
<text text-anchor="middle" x="58.5" y="-100.5" font-family="Helvetica,sans-Serif" font-size="10.00" fill="#000000">::isWindowDefined</text>
</g>
<!-- Node103 -->
<g id="node2" class="node">
<title>Node103</title>
<g id="a_node2"><a xlink:href="classstatistics_1_1_consistency.html#ad3a0a265cb9460cd4633b027fe2437c9" target="_top" xlink:title="Stat Getter &#160;. ">
<polygon fill="#ffffff" stroke="#000000" points="153,-93.5 153,-123.5 270,-123.5 270,-93.5 153,-93.5"/>
<text text-anchor="start" x="161" y="-111.5" font-family="Helvetica,sans-Serif" font-size="10.00" fill="#000000">statistics::Consistency</text>
<text text-anchor="middle" x="211.5" y="-100.5" font-family="Helvetica,sans-Serif" font-size="10.00" fill="#000000">::getValues</text>
</a>
</g>
</g>
<!-- Node102&#45;&gt;Node103 -->
<g id="edge1" class="edge">
<title>Node102&#45;&gt;Node103</title>
<path fill="none" stroke="#191970" d="M127.4932,-108.5C135.9927,-108.5 144.617,-108.5 152.9409,-108.5"/>
<polygon fill="#191970" stroke="#191970" points="127.2163,-105.0001 117.2162,-108.5 127.2162,-112.0001 127.2163,-105.0001"/>
</g>
<!-- Node104 -->
<g id="node3" class="node">
<title>Node104</title>
<g id="a_node3"><a xlink:href="class_alignment.html#a3754dfadea173918f5e85b9eb4c3ad8a" target="_top" xlink:title="Method to report the trimming results in HTML. Outputs an HTML file that shows visually what has been...">
<polygon fill="#ffffff" stroke="#000000" points="306,-181 306,-200 483,-200 483,-181 306,-181"/>
<text text-anchor="middle" x="394.5" y="-188" font-family="Helvetica,sans-Serif" font-size="10.00" fill="#000000">Alignment::alignmentSummaryHTML</text>
</a>
</g>
</g>
<!-- Node103&#45;&gt;Node104 -->
<g id="edge2" class="edge">
<title>Node103&#45;&gt;Node104</title>
<path fill="none" stroke="#191970" d="M237.7872,-129.977C255.9346,-143.7741 281.1815,-161.0145 306,-171.5 315.1197,-175.353 325.1106,-178.4602 334.9915,-180.9555"/>
<polygon fill="#191970" stroke="#191970" points="239.5261,-126.8959 229.4818,-123.5251 235.2318,-132.4239 239.5261,-126.8959"/>
</g>
<!-- Node109 -->
<g id="node8" class="node">
<title>Node109</title>
<g id="a_node8"><a xlink:href="class_alignment.html#ac4196c026e0f482eaccf9976f82f72e3" target="_top" xlink:title="Method to report the trimming results in SVG. Outputs a SVG file that shows visually what has been do...">
<polygon fill="#ffffff" stroke="#000000" points="309,-143 309,-162 480,-162 480,-143 309,-143"/>
<text text-anchor="middle" x="394.5" y="-150" font-family="Helvetica,sans-Serif" font-size="10.00" fill="#000000">Alignment::alignmentSummarySVG</text>
</a>
</g>
</g>
<!-- Node103&#45;&gt;Node109 -->
<g id="edge7" class="edge">
<title>Node103&#45;&gt;Node109</title>
<path fill="none" stroke="#191970" d="M276.5948,-126.1508C286.429,-128.6926 296.4689,-131.2175 306,-133.5 319.6015,-136.7573 334.4422,-140.0462 348.0166,-142.951"/>
<polygon fill="#191970" stroke="#191970" points="277.4153,-122.7477 266.8557,-123.6117 275.6493,-129.5213 277.4153,-122.7477"/>
</g>
<!-- Node110 -->
<g id="node9" class="node">
<title>Node110</title>
<g id="a_node9"><a xlink:href="classtrim_al_manager.html#aebfd21b0435302f0e4fc45a068d1b6ee" target="_top" xlink:title="Method to trim the alignment using non automatic methods: ">
<polygon fill="#ffffff" stroke="#000000" points="318.5,-93.5 318.5,-123.5 470.5,-123.5 470.5,-93.5 318.5,-93.5"/>
<text text-anchor="start" x="326.5" y="-111.5" font-family="Helvetica,sans-Serif" font-size="10.00" fill="#000000">trimAlManager::CleanResidues</text>
<text text-anchor="middle" x="394.5" y="-100.5" font-family="Helvetica,sans-Serif" font-size="10.00" fill="#000000">NonAuto</text>
</a>
</g>
</g>
<!-- Node103&#45;&gt;Node110 -->
<g id="edge9" class="edge">
<title>Node103&#45;&gt;Node110</title>
<path fill="none" stroke="#191970" d="M280.4255,-108.5C292.8409,-108.5 305.8478,-108.5 318.4519,-108.5"/>
<polygon fill="#191970" stroke="#191970" points="280.1575,-105.0001 270.1574,-108.5 280.1574,-112.0001 280.1575,-105.0001"/>
</g>
<!-- Node112 -->
<g id="node11" class="node">
<title>Node112</title>
<g id="a_node11"><a xlink:href="classtrim_al_manager.html#afc48b86f5ae35b9a5e721b65c58bf610" target="_top" xlink:title="Method to print statistics requested. ">
<polygon fill="#ffffff" stroke="#000000" points="523.5,-49.5 523.5,-79.5 627.5,-79.5 627.5,-49.5 523.5,-49.5"/>
<text text-anchor="start" x="531.5" y="-67.5" font-family="Helvetica,sans-Serif" font-size="10.00" fill="#000000">trimAlManager::print</text>
<text text-anchor="middle" x="575.5" y="-56.5" font-family="Helvetica,sans-Serif" font-size="10.00" fill="#000000">_statistics</text>
</a>
</g>
</g>
<!-- Node103&#45;&gt;Node112 -->
<g id="edge12" class="edge">
<title>Node103&#45;&gt;Node112</title>
<path fill="none" stroke="#191970" d="M274.1386,-90.9636C284.7083,-88.4741 295.6181,-86.1903 306,-84.5 380.9018,-72.3053 468.7412,-67.5364 523.2673,-65.6778"/>
<polygon fill="#191970" stroke="#191970" points="273.0242,-87.6327 264.1372,-93.401 274.6816,-94.4337 273.0242,-87.6327"/>
</g>
<!-- Node113 -->
<g id="node12" class="node">
<title>Node113</title>
<g id="a_node12"><a xlink:href="class_alignment.html#a724218d5e7d168974d9abcafcde632a1" target="_top" xlink:title="Alignment::statSVG">
<polygon fill="#ffffff" stroke="#000000" points="342.5,-12 342.5,-31 446.5,-31 446.5,-12 342.5,-12"/>
<text text-anchor="middle" x="394.5" y="-19" font-family="Helvetica,sans-Serif" font-size="10.00" fill="#000000">Alignment::statSVG</text>
</a>
</g>
</g>
<!-- Node103&#45;&gt;Node113 -->
<g id="edge14" class="edge">
<title>Node103&#45;&gt;Node113</title>
<path fill="none" stroke="#191970" d="M241.2369,-87.755C259.363,-75.7522 283.3315,-60.9942 306,-50.5 322.8733,-42.6886 342.4461,-36.0431 358.888,-31.0924"/>
<polygon fill="#191970" stroke="#191970" points="239.1892,-84.9141 232.8392,-93.3952 243.0921,-90.7251 239.1892,-84.9141"/>
</g>
<!-- Node105 -->
<g id="node4" class="node">
<title>Node105</title>
<g id="a_node4"><a xlink:href="classtrim_al_manager.html#a1da8f8b677f19ed8f7e08a663d97bb92" target="_top" xlink:title="trimAlManager::output\l_reports">
<polygon fill="#ffffff" stroke="#000000" points="519,-147.5 519,-177.5 632,-177.5 632,-147.5 519,-147.5"/>
<text text-anchor="start" x="527" y="-165.5" font-family="Helvetica,sans-Serif" font-size="10.00" fill="#000000">trimAlManager::output</text>
<text text-anchor="middle" x="575.5" y="-154.5" font-family="Helvetica,sans-Serif" font-size="10.00" fill="#000000">_reports</text>
</a>
</g>
</g>
<!-- Node104&#45;&gt;Node105 -->
<g id="edge3" class="edge">
<title>Node104&#45;&gt;Node105</title>
<path fill="none" stroke="#191970" d="M466.1729,-179.4125C483.6255,-176.7126 502.0554,-173.8616 518.7087,-171.2854"/>
<polygon fill="#191970" stroke="#191970" points="465.3783,-175.9937 456.0309,-180.9814 466.4485,-182.9114 465.3783,-175.9937"/>
</g>
<!-- Node106 -->
<g id="node5" class="node">
<title>Node106</title>
<g id="a_node5"><a xlink:href="classtrim_al_manager.html#a7c641a1feff33d401b4ea5c82e989289" target="_top" xlink:title="trimAlManager::innerPerform">
<polygon fill="#ffffff" stroke="#000000" points="668,-79 668,-98 809,-98 809,-79 668,-79"/>
<text text-anchor="middle" x="738.5" y="-86" font-family="Helvetica,sans-Serif" font-size="10.00" fill="#000000">trimAlManager::innerPerform</text>
</a>
</g>
</g>
<!-- Node105&#45;&gt;Node106 -->
<g id="edge4" class="edge">
<title>Node105&#45;&gt;Node106</title>
<path fill="none" stroke="#191970" d="M620.8395,-143.4165C624.6225,-141.7709 628.3818,-140.1172 632,-138.5 662.3963,-124.9145 697.2611,-108.3588 718.581,-98.1229"/>
<polygon fill="#191970" stroke="#191970" points="619.25,-140.2904 611.454,-147.4648 622.0224,-146.7179 619.25,-140.2904"/>
</g>
<!-- Node107 -->
<g id="node6" class="node">
<title>Node107</title>
<g id="a_node6"><a xlink:href="classtrim_al_manager.html#abe8d2841455c644dc9c7d1294b82b00f" target="_top" xlink:title="Method to perform the analysis if all checks have passed. ">
<polygon fill="#ffffff" stroke="#000000" points="845,-79 845,-98 964,-98 964,-79 845,-79"/>
<text text-anchor="middle" x="904.5" y="-86" font-family="Helvetica,sans-Serif" font-size="10.00" fill="#000000">trimAlManager::perform</text>
</a>
</g>
</g>
<!-- Node106&#45;&gt;Node107 -->
<g id="edge5" class="edge">
<title>Node106&#45;&gt;Node107</title>
<path fill="none" stroke="#191970" d="M819.4012,-88.5C827.9677,-88.5 836.564,-88.5 844.8249,-88.5"/>
<polygon fill="#191970" stroke="#191970" points="819.3805,-85.0001 809.3804,-88.5 819.3804,-92.0001 819.3805,-85.0001"/>
</g>
<!-- Node108 -->
<g id="node7" class="node">
<title>Node108</title>
<g id="a_node7"><a xlink:href="trim_al_main_8cpp.html#a0ddf1224851353fc92bfbff6f499fa97" target="_top" xlink:title="main">
<polygon fill="#ffffff" stroke="#000000" points="1000,-79 1000,-98 1038,-98 1038,-79 1000,-79"/>
<text text-anchor="middle" x="1019" y="-86" font-family="Helvetica,sans-Serif" font-size="10.00" fill="#000000">main</text>
</a>
</g>
</g>
<!-- Node107&#45;&gt;Node108 -->
<g id="edge6" class="edge">
<title>Node107&#45;&gt;Node108</title>
<path fill="none" stroke="#191970" d="M974.3198,-88.5C983.6177,-88.5 992.4503,-88.5 999.7697,-88.5"/>
<polygon fill="#191970" stroke="#191970" points="974.0976,-85.0001 964.0976,-88.5 974.0975,-92.0001 974.0976,-85.0001"/>
</g>
<!-- Node109&#45;&gt;Node105 -->
<g id="edge8" class="edge">
<title>Node109&#45;&gt;Node105</title>
<path fill="none" stroke="#191970" d="M490.4139,-157.7991C500.1759,-158.3384 509.8536,-158.8731 518.9905,-159.3779"/>
<polygon fill="#191970" stroke="#191970" points="490.4074,-154.2935 480.2295,-157.2364 490.0212,-161.2828 490.4074,-154.2935"/>
</g>
<!-- Node111 -->
<g id="node10" class="node">
<title>Node111</title>
<g id="a_node10"><a xlink:href="classtrim_al_manager.html#adc529dd893ed4e9df6f3ddbd58776068" target="_top" xlink:title="Core Method of the program. This is where almost all cleaning methods are called from. ">
<polygon fill="#ffffff" stroke="#000000" points="521,-98.5 521,-128.5 630,-128.5 630,-98.5 521,-98.5"/>
<text text-anchor="start" x="529" y="-116.5" font-family="Helvetica,sans-Serif" font-size="10.00" fill="#000000">trimAlManager::clean</text>
<text text-anchor="middle" x="575.5" y="-105.5" font-family="Helvetica,sans-Serif" font-size="10.00" fill="#000000">_alignment</text>
</a>
</g>
</g>
<!-- Node110&#45;&gt;Node111 -->
<g id="edge10" class="edge">
<title>Node110&#45;&gt;Node111</title>
<path fill="none" stroke="#191970" d="M481.043,-110.8907C494.5782,-111.2646 508.2317,-111.6418 520.7893,-111.9887"/>
<polygon fill="#191970" stroke="#191970" points="480.8286,-107.3835 470.7357,-110.606 480.6352,-114.3809 480.8286,-107.3835"/>
</g>
<!-- Node111&#45;&gt;Node106 -->
<g id="edge11" class="edge">
<title>Node111&#45;&gt;Node106</title>
<path fill="none" stroke="#191970" d="M640.4656,-103.536C652.2848,-101.7232 664.5883,-99.8362 676.3244,-98.0361"/>
<polygon fill="#191970" stroke="#191970" points="639.5839,-100.1302 630.2301,-105.1058 640.6451,-107.0493 639.5839,-100.1302"/>
</g>
<!-- Node112&#45;&gt;Node106 -->
<g id="edge13" class="edge">
<title>Node112&#45;&gt;Node106</title>
<path fill="none" stroke="#191970" d="M637.7294,-73.6626C649.5427,-75.402 661.9292,-77.2258 673.8165,-78.9761"/>
<polygon fill="#191970" stroke="#191970" points="637.9256,-70.1538 627.5224,-72.1597 636.9058,-77.0792 637.9256,-70.1538"/>
</g>
<!-- Node114 -->
<g id="node13" class="node">
<title>Node114</title>
<g id="a_node13"><a xlink:href="classtrim_al_manager.html#a63d5bec0938516a2129ccb04276b93d9" target="_top" xlink:title="trimAlManager::svg\l_stats_out">
<polygon fill="#ffffff" stroke="#000000" points="525,-.5 525,-30.5 626,-30.5 626,-.5 525,-.5"/>
<text text-anchor="start" x="533" y="-18.5" font-family="Helvetica,sans-Serif" font-size="10.00" fill="#000000">trimAlManager::svg</text>
<text text-anchor="middle" x="575.5" y="-7.5" font-family="Helvetica,sans-Serif" font-size="10.00" fill="#000000">_stats_out</text>
</a>
</g>
</g>
<!-- Node113&#45;&gt;Node114 -->
<g id="edge15" class="edge">
<title>Node113&#45;&gt;Node114</title>
<path fill="none" stroke="#191970" d="M456.8489,-19.4332C479.0372,-18.6977 503.7328,-17.879 524.8238,-17.1799"/>
<polygon fill="#191970" stroke="#191970" points="456.7312,-15.9351 446.8527,-19.7646 456.9632,-22.9312 456.7312,-15.9351"/>
</g>
<!-- Node114&#45;&gt;Node106 -->
<g id="edge16" class="edge">
<title>Node114&#45;&gt;Node106</title>
<path fill="none" stroke="#191970" d="M618.7196,-34.5874C623.2063,-36.5797 627.6967,-38.5782 632,-40.5 661.6289,-53.7318 695.8232,-69.1739 717.3024,-78.8947"/>
<polygon fill="#191970" stroke="#191970" points="620.1372,-31.3873 609.5768,-30.5331 617.2996,-37.7864 620.1372,-31.3873"/>
</g>
</g>
</svg>
