<?xml version="1.0" encoding="UTF-8" standalone="no"?>
<!DOCTYPE svg PUBLIC "-//W3C//DTD SVG 1.1//EN"
 "http://www.w3.org/Graphics/SVG/1.1/DTD/svg11.dtd">
<!-- Generated by graphviz version 2.40.1 (20161225.0304)
 -->
<!-- Title: FormatHandling::FormatManager::loadAlignment Pages: 1 -->
<svg width="349pt" height="137pt"
 viewBox="0.00 0.00 349.00 137.00" xmlns="http://www.w3.org/2000/svg" xmlns:xlink="http://www.w3.org/1999/xlink">
<g id="graph0" class="graph" transform="scale(1 1) rotate(0) translate(4 133)">
<title>FormatHandling::FormatManager::loadAlignment</title>
<polygon fill="#ffffff" stroke="transparent" points="-4,4 -4,-133 345,-133 345,4 -4,4"/>
<!-- Node40 -->
<g id="node1" class="node">
<title>Node40</title>
<polygon fill="#bfbfbf" stroke="#000000" points="0,-49.5 0,-79.5 160,-79.5 160,-49.5 0,-49.5"/>
<text text-anchor="start" x="8" y="-67.5" font-family="Helvetica,sans-Serif" font-size="10.00" fill="#000000">FormatHandling::FormatManager</text>
<text text-anchor="middle" x="80" y="-56.5" font-family="Helvetica,sans-Serif" font-size="10.00" fill="#000000">::loadAlignment</text>
</g>
<!-- Node41 -->
<g id="node2" class="node">
<title>Node41</title>
<g id="a_node2"><a xlink:href="class_format_handling_1_1_base_format_handler.html#a6186050eb30aec3f4fa7e1c834f2add1" target="_top" xlink:title="Function to check if a file is in the implemented format. ">
<polygon fill="#ffffff" stroke="#000000" points="196,-98.5 196,-128.5 341,-128.5 341,-98.5 196,-98.5"/>
<text text-anchor="start" x="204" y="-116.5" font-family="Helvetica,sans-Serif" font-size="10.00" fill="#000000">FormatHandling::BaseFormat</text>
<text text-anchor="middle" x="268.5" y="-105.5" font-family="Helvetica,sans-Serif" font-size="10.00" fill="#000000">Handler::CheckAlignment</text>
</a>
</g>
</g>
<!-- Node40&#45;&gt;Node41 -->
<g id="edge1" class="edge">
<title>Node40&#45;&gt;Node41</title>
<path fill="none" stroke="#191970" d="M137.8372,-79.5346C157.7402,-84.7083 180.2032,-90.5475 200.8192,-95.9066"/>
<polygon fill="#191970" stroke="#191970" points="200.2132,-99.3653 210.7721,-98.4938 201.9743,-92.5905 200.2132,-99.3653"/>
</g>
<!-- Node42 -->
<g id="node3" class="node">
<title>Node42</title>
<g id="a_node3"><a xlink:href="class_format_handling_1_1_base_format_handler.html#acb1e7d713993916bb7b7b8c8ebebb922" target="_top" xlink:title="Function to load a file in the current format and return an alignment object. ">
<polygon fill="#ffffff" stroke="#000000" points="196,-49.5 196,-79.5 341,-79.5 341,-49.5 196,-49.5"/>
<text text-anchor="start" x="204" y="-67.5" font-family="Helvetica,sans-Serif" font-size="10.00" fill="#000000">FormatHandling::BaseFormat</text>
<text text-anchor="middle" x="268.5" y="-56.5" font-family="Helvetica,sans-Serif" font-size="10.00" fill="#000000">Handler::LoadAlignment</text>
</a>
</g>
</g>
<!-- Node40&#45;&gt;Node42 -->
<g id="edge2" class="edge">
<title>Node40&#45;&gt;Node42</title>
<path fill="none" stroke="#191970" d="M160.2143,-64.5C168.6206,-64.5 177.1792,-64.5 185.6146,-64.5"/>
<polygon fill="#191970" stroke="#191970" points="185.8243,-68.0001 195.8243,-64.5 185.8242,-61.0001 185.8243,-68.0001"/>
</g>
<!-- Node43 -->
<g id="node4" class="node">
<title>Node43</title>
<g id="a_node4"><a xlink:href="classreporting_1_1report_manager.html#abc8beece0a415330af73749d14fb5ccb" target="_top" xlink:title="Method to report an Error. It will be displayed if Level &#160;is equal or higher to VerboseLevel::ERROR. ">
<polygon fill="#ffffff" stroke="#000000" points="207.5,-.5 207.5,-30.5 329.5,-30.5 329.5,-.5 207.5,-.5"/>
<text text-anchor="start" x="215.5" y="-18.5" font-family="Helvetica,sans-Serif" font-size="10.00" fill="#000000">reporting::reportManager</text>
<text text-anchor="middle" x="268.5" y="-7.5" font-family="Helvetica,sans-Serif" font-size="10.00" fill="#000000">::report</text>
</a>
</g>
</g>
<!-- Node40&#45;&gt;Node43 -->
<g id="edge3" class="edge">
<title>Node40&#45;&gt;Node43</title>
<path fill="none" stroke="#191970" d="M137.8372,-49.4654C157.7402,-44.2917 180.2032,-38.4525 200.8192,-33.0934"/>
<polygon fill="#191970" stroke="#191970" points="201.9743,-36.4095 210.7721,-30.5062 200.2132,-29.6347 201.9743,-36.4095"/>
</g>
</g>
</svg>
