<?xml version="1.0" encoding="UTF-8" standalone="no"?>
<!DOCTYPE svg PUBLIC "-//W3C//DTD SVG 1.1//EN"
 "http://www.w3.org/Graphics/SVG/1.1/DTD/svg11.dtd">
<!-- Generated by graphviz version 2.40.1 (20161225.0304)
 -->
<!-- Title: statistics::Mold::getVector Pages: 1 -->
<svg width="342pt" height="78pt"
 viewBox="0.00 0.00 342.00 77.50" xmlns="http://www.w3.org/2000/svg" xmlns:xlink="http://www.w3.org/1999/xlink">
<g id="graph0" class="graph" transform="scale(1 1) rotate(0) translate(4 73.5)">
<title>statistics::Mold::getVector</title>
<polygon fill="#ffffff" stroke="transparent" points="-4,4 -4,-73.5 338,-73.5 338,4 -4,4"/>
<!-- Node14 -->
<g id="node1" class="node">
<title>Node14</title>
<polygon fill="#bfbfbf" stroke="#000000" points="0,-28 0,-47 131,-47 131,-28 0,-28"/>
<text text-anchor="middle" x="65.5" y="-35" font-family="Helvetica,sans-Serif" font-size="10.00" fill="#000000">statistics::Mold::getVector</text>
</g>
<!-- Node15 -->
<g id="node2" class="node">
<title>Node15</title>
<g id="a_node2"><a xlink:href="classstatistics_1_1_mold.html#aaa904aa63337f5907e815a8b71ff3f08" target="_top" xlink:title="statistics::Mold::printAccumulative">
<polygon fill="#ffffff" stroke="#000000" points="167,-50 167,-69 334,-69 334,-50 167,-50"/>
<text text-anchor="middle" x="250.5" y="-57" font-family="Helvetica,sans-Serif" font-size="10.00" fill="#000000">statistics::Mold::printAccumulative</text>
</a>
</g>
</g>
<!-- Node14&#45;&gt;Node15 -->
<g id="edge1" class="edge">
<title>Node14&#45;&gt;Node15</title>
<path fill="none" stroke="#191970" d="M141.4768,-46.5351C151.0122,-47.669 160.7897,-48.8317 170.3861,-49.9729"/>
<polygon fill="#191970" stroke="#191970" points="141.5883,-43.0238 131.245,-45.3183 140.7617,-49.9748 141.5883,-43.0238"/>
</g>
<!-- Node16 -->
<g id="node3" class="node">
<title>Node16</title>
<g id="a_node3"><a xlink:href="classstatistics_1_1_mold.html#a849f62316a29acf52ed8adc411ab7838" target="_top" xlink:title="statistics::Mold::printBy\lColumn">
<polygon fill="#ffffff" stroke="#000000" points="190.5,-.5 190.5,-30.5 310.5,-30.5 310.5,-.5 190.5,-.5"/>
<text text-anchor="start" x="198.5" y="-18.5" font-family="Helvetica,sans-Serif" font-size="10.00" fill="#000000">statistics::Mold::printBy</text>
<text text-anchor="middle" x="250.5" y="-7.5" font-family="Helvetica,sans-Serif" font-size="10.00" fill="#000000">Column</text>
</a>
</g>
</g>
<!-- Node14&#45;&gt;Node16 -->
<g id="edge2" class="edge">
<title>Node14&#45;&gt;Node16</title>
<path fill="none" stroke="#191970" d="M141.2823,-28.4881C157.5819,-26.5497 174.5979,-24.5262 190.214,-22.6691"/>
<polygon fill="#191970" stroke="#191970" points="140.7617,-25.0252 131.245,-29.6817 141.5883,-31.9762 140.7617,-25.0252"/>
</g>
</g>
</svg>
