<?xml version="1.0" encoding="UTF-8" standalone="no"?>
<!DOCTYPE svg PUBLIC "-//W3C//DTD SVG 1.1//EN"
 "http://www.w3.org/Graphics/SVG/1.1/DTD/svg11.dtd">
<!-- Generated by graphviz version 2.40.1 (20161225.0304)
 -->
<!-- Title: reporting::reportManager::report Pages: 1 -->
<svg width="1503pt" height="411pt"
 viewBox="0.00 0.00 1503.00 410.50" xmlns="http://www.w3.org/2000/svg" xmlns:xlink="http://www.w3.org/1999/xlink">
<g id="graph0" class="graph" transform="scale(1 1) rotate(0) translate(4 406.5)">
<title>reporting::reportManager::report</title>
<polygon fill="#ffffff" stroke="transparent" points="-4,4 -4,-406.5 1499,-406.5 1499,4 -4,4"/>
<!-- Node133 -->
<g id="node1" class="node">
<title>Node133</title>
<polygon fill="#bfbfbf" stroke="#000000" points="0,-164 0,-194 122,-194 122,-164 0,-164"/>
<text text-anchor="start" x="8" y="-182" font-family="Helvetica,sans-Serif" font-size="10.00" fill="#000000">reporting::reportManager</text>
<text text-anchor="middle" x="61" y="-171" font-family="Helvetica,sans-Serif" font-size="10.00" fill="#000000">::report</text>
</g>
<!-- Node134 -->
<g id="node2" class="node">
<title>Node134</title>
<g id="a_node2"><a xlink:href="class_alignment.html#a12f7c76645e480ee17e7c1093d906ef8" target="_top" xlink:title="Function to check CDS file. . ">
<polygon fill="#ffffff" stroke="#000000" points="158,-301.5 158,-320.5 322,-320.5 322,-301.5 158,-301.5"/>
<text text-anchor="middle" x="240" y="-308.5" font-family="Helvetica,sans-Serif" font-size="10.00" fill="#000000">Alignment::checkCorrespondence</text>
</a>
</g>
</g>
<!-- Node133&#45;&gt;Node134 -->
<g id="edge1" class="edge">
<title>Node133&#45;&gt;Node134</title>
<path fill="none" stroke="#191970" d="M89.9243,-200.3296C129.263,-229.3392 198.0237,-280.0454 226.7741,-301.2468"/>
<polygon fill="#191970" stroke="#191970" points="91.6592,-197.2603 81.5336,-194.1421 87.5046,-202.8941 91.6592,-197.2603"/>
</g>
<!-- Node139 -->
<g id="node7" class="node">
<title>Node139</title>
<g id="a_node7"><a xlink:href="classreporting_1_1report_manager.html#a2ba6b65c5e44d1c0a336fe62f3ee3c5a" target="_top" xlink:title="Method to print all Info, Warning and Error codes and their respective message. This method is useful...">
<polygon fill="#ffffff" stroke="#000000" points="173,-115 173,-145 307,-145 307,-115 173,-115"/>
<text text-anchor="start" x="181" y="-133" font-family="Helvetica,sans-Serif" font-size="10.00" fill="#000000">reporting::reportManager</text>
<text text-anchor="middle" x="240" y="-122" font-family="Helvetica,sans-Serif" font-size="10.00" fill="#000000">::PrintCodesAndMessages</text>
</a>
</g>
</g>
<!-- Node133&#45;&gt;Node139 -->
<g id="edge6" class="edge">
<title>Node133&#45;&gt;Node139</title>
<path fill="none" stroke="#191970" d="M125.8362,-161.2515C145.2363,-155.9409 166.3133,-150.1712 185.0157,-145.0516"/>
<polygon fill="#191970" stroke="#191970" points="124.8875,-157.8824 116.1665,-163.8986 126.7358,-164.634 124.8875,-157.8824"/>
</g>
<!-- Node140 -->
<g id="node8" class="node">
<title>Node140</title>
<g id="a_node8"><a xlink:href="class_cleaner.html#ada8ad076dd037f00ae3f4fd17762641f" target="_top" xlink:title="Method that identifies and removes columns and sequences composed only by gaps. ">
<polygon fill="#ffffff" stroke="#000000" points="167,-164 167,-194 313,-194 313,-164 167,-164"/>
<text text-anchor="start" x="175" y="-182" font-family="Helvetica,sans-Serif" font-size="10.00" fill="#000000">Cleaner::removeAllGapsSeqs</text>
<text text-anchor="middle" x="240" y="-171" font-family="Helvetica,sans-Serif" font-size="10.00" fill="#000000">AndCols</text>
</a>
</g>
</g>
<!-- Node133&#45;&gt;Node140 -->
<g id="edge7" class="edge">
<title>Node133&#45;&gt;Node140</title>
<path fill="none" stroke="#191970" d="M132.3709,-179C143.7016,-179 155.4368,-179 166.8086,-179"/>
<polygon fill="#191970" stroke="#191970" points="132.101,-175.5001 122.101,-179 132.101,-182.5001 132.101,-175.5001"/>
</g>
<!-- Node135 -->
<g id="node3" class="node">
<title>Node135</title>
<g id="a_node3"><a xlink:href="classtrim_al_manager.html#a8873f972344b34acf6441c1f46338082" target="_top" xlink:title="Method to check if the origAlig and backtranslationAlig are compatible in names to make the backtrans...">
<polygon fill="#ffffff" stroke="#000000" points="364,-352.5 364,-393.5 489,-393.5 489,-352.5 364,-352.5"/>
<text text-anchor="start" x="372" y="-381.5" font-family="Helvetica,sans-Serif" font-size="10.00" fill="#000000">trimAlManager::check</text>
<text text-anchor="start" x="372" y="-370.5" font-family="Helvetica,sans-Serif" font-size="10.00" fill="#000000">_backtranslation_infile</text>
<text text-anchor="middle" x="426.5" y="-359.5" font-family="Helvetica,sans-Serif" font-size="10.00" fill="#000000">_names_correspondence</text>
</a>
</g>
</g>
<!-- Node134&#45;&gt;Node135 -->
<g id="edge2" class="edge">
<title>Node134&#45;&gt;Node135</title>
<path fill="none" stroke="#191970" d="M278.495,-323.7973C303.2964,-332.0422 336.1,-342.9474 364.5207,-352.3956"/>
<polygon fill="#191970" stroke="#191970" points="279.3254,-320.3851 268.7319,-320.5516 277.1171,-327.0276 279.3254,-320.3851"/>
</g>
<!-- Node136 -->
<g id="node4" class="node">
<title>Node136</title>
<g id="a_node4"><a xlink:href="classtrim_al_manager.html#a3f325b806727751394adb829d97b35f1" target="_top" xlink:title="Method that checks dependencies between arguments. Take in mind that dependencies may be between mult...">
<polygon fill="#ffffff" stroke="#000000" points="546.5,-372 546.5,-402 658.5,-402 658.5,-372 546.5,-372"/>
<text text-anchor="start" x="554.5" y="-390" font-family="Helvetica,sans-Serif" font-size="10.00" fill="#000000">trimAlManager::check</text>
<text text-anchor="middle" x="602.5" y="-379" font-family="Helvetica,sans-Serif" font-size="10.00" fill="#000000">_arguments_needs</text>
</a>
</g>
</g>
<!-- Node135&#45;&gt;Node136 -->
<g id="edge3" class="edge">
<title>Node135&#45;&gt;Node136</title>
<path fill="none" stroke="#191970" d="M499.2531,-378.7872C514.9646,-380.037 531.345,-381.3399 546.3078,-382.5302"/>
<polygon fill="#191970" stroke="#191970" points="499.2927,-375.2794 489.0466,-377.9753 498.7375,-382.2573 499.2927,-375.2794"/>
</g>
<!-- Node137 -->
<g id="node5" class="node">
<title>Node137</title>
<g id="a_node5"><a xlink:href="classtrim_al_manager.html#a748b08a1ec5cd214de804ed0d4234a6e" target="_top" xlink:title="Method to process the information obtained by trimAlManager::parseArguments It checks for argument in...">
<polygon fill="#ffffff" stroke="#000000" points="919,-298.5 919,-317.5 1086,-317.5 1086,-298.5 919,-298.5"/>
<text text-anchor="middle" x="1002.5" y="-305.5" font-family="Helvetica,sans-Serif" font-size="10.00" fill="#000000">trimAlManager::processArguments</text>
</a>
</g>
</g>
<!-- Node136&#45;&gt;Node137 -->
<g id="edge4" class="edge">
<title>Node136&#45;&gt;Node137</title>
<path fill="none" stroke="#191970" d="M668.5609,-373.953C749.0243,-358.0614 883.0114,-331.599 954.3509,-317.5095"/>
<polygon fill="#191970" stroke="#191970" points="667.6718,-370.5609 658.5395,-375.9322 669.0281,-377.4282 667.6718,-370.5609"/>
</g>
<!-- Node138 -->
<g id="node6" class="node">
<title>Node138</title>
<g id="a_node6"><a xlink:href="trim_al_main_8cpp.html#a0ddf1224851353fc92bfbff6f499fa97" target="_top" xlink:title="main">
<polygon fill="#ffffff" stroke="#000000" points="1457,-233.5 1457,-252.5 1495,-252.5 1495,-233.5 1457,-233.5"/>
<text text-anchor="middle" x="1476" y="-240.5" font-family="Helvetica,sans-Serif" font-size="10.00" fill="#000000">main</text>
</a>
</g>
</g>
<!-- Node137&#45;&gt;Node138 -->
<g id="edge5" class="edge">
<title>Node137&#45;&gt;Node138</title>
<path fill="none" stroke="#191970" d="M1081.8162,-297.1118C1194.4923,-281.6441 1394.1823,-254.2316 1456.7213,-245.6465"/>
<polygon fill="#191970" stroke="#191970" points="1081.2891,-293.6513 1071.8581,-298.4788 1082.2412,-300.5862 1081.2891,-293.6513"/>
</g>
<!-- Node141 -->
<g id="node9" class="node">
<title>Node141</title>
<g id="a_node9"><a xlink:href="class_cleaner.html#a0e1e26d09055de52208ac74adf93b760" target="_top" xlink:title="Method to clean an alignment. &#160;It removes sequences that fall behind a certain threshold. &#160;The function detects if it would clean too many sequences, and relaxes the threshold until we have enough sequences to achieve the given percentage desired to keep. &#160;To achieve this, the method starts in the middle of the sequence and, alternating sides, adds column one by one. ">
<polygon fill="#ffffff" stroke="#000000" points="360.5,-290 360.5,-320 492.5,-320 492.5,-290 360.5,-290"/>
<text text-anchor="start" x="368.5" y="-308" font-family="Helvetica,sans-Serif" font-size="10.00" fill="#000000">Cleaner::cleanByCutValue</text>
<text text-anchor="middle" x="426.5" y="-297" font-family="Helvetica,sans-Serif" font-size="10.00" fill="#000000">FallBehind</text>
</a>
</g>
</g>
<!-- Node140&#45;&gt;Node141 -->
<g id="edge8" class="edge">
<title>Node140&#45;&gt;Node141</title>
<path fill="none" stroke="#191970" d="M262.7351,-201.0898C285.4528,-222.3063 322.0782,-254.2591 358,-276 366.5072,-281.1488 376.0939,-285.8239 385.3411,-289.8444"/>
<polygon fill="#191970" stroke="#191970" points="264.9757,-198.3916 255.3035,-194.0673 260.168,-203.4794 264.9757,-198.3916"/>
</g>
<!-- Node149 -->
<g id="node17" class="node">
<title>Node149</title>
<g id="a_node17"><a xlink:href="class_cleaner.html#a13ae2074afb38708bc5cee9489d8ab6f" target="_top" xlink:title="Method to clean an alignment. &#160;It removes sequences that overpass or equals a certain threshold...">
<polygon fill="#ffffff" stroke="#000000" points="360.5,-140 360.5,-170 492.5,-170 492.5,-140 360.5,-140"/>
<text text-anchor="start" x="368.5" y="-158" font-family="Helvetica,sans-Serif" font-size="10.00" fill="#000000">Cleaner::cleanByCutValue</text>
<text text-anchor="middle" x="426.5" y="-147" font-family="Helvetica,sans-Serif" font-size="10.00" fill="#000000">Overpass</text>
</a>
</g>
</g>
<!-- Node140&#45;&gt;Node149 -->
<g id="edge18" class="edge">
<title>Node140&#45;&gt;Node149</title>
<path fill="none" stroke="#191970" d="M323.4464,-168.2616C335.7622,-166.6767 348.3087,-165.0621 360.2137,-163.5301"/>
<polygon fill="#191970" stroke="#191970" points="322.6459,-164.8356 313.1745,-169.5834 323.5394,-171.7784 322.6459,-164.8356"/>
</g>
<!-- Node155 -->
<g id="node23" class="node">
<title>Node155</title>
<g id="a_node23"><a xlink:href="class_cleaner.html#a5afcae6b995a229b59785e4690b25a0f" target="_top" xlink:title="Method to clean an alignment. &#160;It removes sequences that overpass or equals &#160;the gap threshold but &#160;f...">
<polygon fill="#ffffff" stroke="#000000" points="360.5,-237 360.5,-267 492.5,-267 492.5,-237 360.5,-237"/>
<text text-anchor="start" x="368.5" y="-255" font-family="Helvetica,sans-Serif" font-size="10.00" fill="#000000">Cleaner::cleanByCutValue</text>
<text text-anchor="middle" x="426.5" y="-244" font-family="Helvetica,sans-Serif" font-size="10.00" fill="#000000">OverpassOrEquals</text>
</a>
</g>
</g>
<!-- Node140&#45;&gt;Node155 -->
<g id="edge29" class="edge">
<title>Node140&#45;&gt;Node155</title>
<path fill="none" stroke="#191970" d="M287.9728,-197.7775C319.0208,-209.9304 358.9117,-225.5445 387.9066,-236.8937"/>
<polygon fill="#191970" stroke="#191970" points="289.2307,-194.5114 278.6429,-194.1256 286.6792,-201.0299 289.2307,-194.5114"/>
</g>
<!-- Node157 -->
<g id="node25" class="node">
<title>Node157</title>
<g id="a_node25"><a xlink:href="class_cleaner.html#abe5d03c820a6bee7935b719b9fc7be60" target="_top" xlink:title="Method to trim an alignment based on a minimum sequence overlap threshold. &#160;The method selects a comb...">
<polygon fill="#ffffff" stroke="#000000" points="361,-38.5 361,-57.5 492,-57.5 492,-38.5 361,-38.5"/>
<text text-anchor="middle" x="426.5" y="-45.5" font-family="Helvetica,sans-Serif" font-size="10.00" fill="#000000">Cleaner::cleanOverlapSeq</text>
</a>
</g>
</g>
<!-- Node140&#45;&gt;Node157 -->
<g id="edge32" class="edge">
<title>Node140&#45;&gt;Node157</title>
<path fill="none" stroke="#191970" d="M315.7915,-158.7918C317.9592,-157.3064 320.037,-155.7118 322,-154 350.776,-128.9058 330.4098,-102.3924 358,-76 366.634,-67.7409 378.035,-61.7873 389.0532,-57.5541"/>
<polygon fill="#191970" stroke="#191970" points="313.8439,-155.8779 307.0371,-163.9969 317.4213,-161.8947 313.8439,-155.8779"/>
</g>
<!-- Node159 -->
<g id="node27" class="node">
<title>Node159</title>
<g id="a_node27"><a xlink:href="class_cleaner.html#afcc9a3a0759ebdaaa6fa07c0d1702a99" target="_top" xlink:title="Method to clean an alignment. It carries out strict and strictplus. It removes sequences that overpas...">
<polygon fill="#ffffff" stroke="#000000" points="375,-85.5 375,-104.5 478,-104.5 478,-85.5 375,-85.5"/>
<text text-anchor="middle" x="426.5" y="-92.5" font-family="Helvetica,sans-Serif" font-size="10.00" fill="#000000">Cleaner::cleanStrict</text>
</a>
</g>
</g>
<!-- Node140&#45;&gt;Node159 -->
<g id="edge35" class="edge">
<title>Node140&#45;&gt;Node159</title>
<path fill="none" stroke="#191970" d="M306.7529,-160.4628C311.9835,-158.4629 317.1233,-156.3076 322,-154 339.3819,-145.7752 341.4104,-139.7243 358,-130 373.8995,-120.6803 392.5626,-111.2378 406.3897,-104.5131"/>
<polygon fill="#191970" stroke="#191970" points="305.4878,-157.1985 297.277,-163.8942 307.8713,-163.7802 305.4878,-157.1985"/>
</g>
<!-- Node161 -->
<g id="node29" class="node">
<title>Node161</title>
<g id="a_node29"><a xlink:href="class_cleaner.html#ac8e92eb8ae8a5caf021801e56cdb9faf" target="_top" xlink:title="Method to remove columns, expressed as ranges. ">
<polygon fill="#ffffff" stroke="#000000" points="362.5,-191.5 362.5,-210.5 490.5,-210.5 490.5,-191.5 362.5,-191.5"/>
<text text-anchor="middle" x="426.5" y="-198.5" font-family="Helvetica,sans-Serif" font-size="10.00" fill="#000000">Cleaner::removeColumns</text>
</a>
</g>
</g>
<!-- Node140&#45;&gt;Node161 -->
<g id="edge38" class="edge">
<title>Node140&#45;&gt;Node161</title>
<path fill="none" stroke="#191970" d="M323.1499,-188.8086C336.2865,-190.3582 349.6938,-191.9397 362.3122,-193.4282"/>
<polygon fill="#191970" stroke="#191970" points="323.5157,-185.3275 313.1745,-187.6318 322.6955,-192.2793 323.5157,-185.3275"/>
</g>
<!-- Node162 -->
<g id="node30" class="node">
<title>Node162</title>
<g id="a_node30"><a xlink:href="class_cleaner.html#a932af26c56652410dc2a30c553376c0b" target="_top" xlink:title="Method to remove sequences, expressed as ranges. ">
<polygon fill="#ffffff" stroke="#000000" points="358,-.5 358,-19.5 495,-19.5 495,-.5 358,-.5"/>
<text text-anchor="middle" x="426.5" y="-7.5" font-family="Helvetica,sans-Serif" font-size="10.00" fill="#000000">Cleaner::removeSequences</text>
</a>
</g>
</g>
<!-- Node140&#45;&gt;Node162 -->
<g id="edge40" class="edge">
<title>Node140&#45;&gt;Node162</title>
<path fill="none" stroke="#191970" d="M317.5452,-158.0553C319.1013,-156.7819 320.5903,-155.4317 322,-154 362.5621,-112.8037 316.9189,-69.6788 358,-29 361.8586,-25.1792 366.4143,-22.1105 371.3136,-19.6483"/>
<polygon fill="#191970" stroke="#191970" points="315.4829,-155.2262 309.2628,-163.8029 319.4738,-160.9771 315.4829,-155.2262"/>
</g>
<!-- Node142 -->
<g id="node10" class="node">
<title>Node142</title>
<g id="a_node10"><a xlink:href="class_cleaner.html#a385f785ecf54bd5e0b07e61325483973" target="_top" xlink:title="Method to trim an alignment based on consistency values obtained from a dataset of alignments...">
<polygon fill="#ffffff" stroke="#000000" points="535,-333.5 535,-352.5 670,-352.5 670,-333.5 535,-333.5"/>
<text text-anchor="middle" x="602.5" y="-340.5" font-family="Helvetica,sans-Serif" font-size="10.00" fill="#000000">Cleaner::cleanCompareFile</text>
</a>
</g>
</g>
<!-- Node141&#45;&gt;Node142 -->
<g id="edge9" class="edge">
<title>Node141&#45;&gt;Node142</title>
<path fill="none" stroke="#191970" d="M502.419,-321.3916C521.4885,-325.5089 541.3294,-329.7927 558.2679,-333.4499"/>
<polygon fill="#191970" stroke="#191970" points="503.0501,-317.9473 492.5366,-319.2579 501.5727,-324.7896 503.0501,-317.9473"/>
</g>
<!-- Node148 -->
<g id="node16" class="node">
<title>Node148</title>
<g id="a_node16"><a xlink:href="class_cleaner.html#a9cdbd6ebf78a284dd065b31319795b0c" target="_top" xlink:title="Method to trim an alignment based on the similarity distribution values. ">
<polygon fill="#ffffff" stroke="#000000" points="534,-295.5 534,-314.5 671,-314.5 671,-295.5 534,-295.5"/>
<text text-anchor="middle" x="602.5" y="-302.5" font-family="Helvetica,sans-Serif" font-size="10.00" fill="#000000">Cleaner::cleanConservation</text>
</a>
</g>
</g>
<!-- Node141&#45;&gt;Node148 -->
<g id="edge16" class="edge">
<title>Node141&#45;&gt;Node148</title>
<path fill="none" stroke="#191970" d="M502.748,-305C513.0537,-305 523.5784,-305 533.743,-305"/>
<polygon fill="#191970" stroke="#191970" points="502.5367,-301.5001 492.5366,-305 502.5366,-308.5001 502.5367,-301.5001"/>
</g>
<!-- Node143 -->
<g id="node11" class="node">
<title>Node143</title>
<g id="a_node11"><a xlink:href="classtrim_al_manager.html#aebfd21b0435302f0e4fc45a068d1b6ee" target="_top" xlink:title="Method to trim the alignment using non automatic methods: ">
<polygon fill="#ffffff" stroke="#000000" points="720.5,-233 720.5,-263 872.5,-263 872.5,-233 720.5,-233"/>
<text text-anchor="start" x="728.5" y="-251" font-family="Helvetica,sans-Serif" font-size="10.00" fill="#000000">trimAlManager::CleanResidues</text>
<text text-anchor="middle" x="796.5" y="-240" font-family="Helvetica,sans-Serif" font-size="10.00" fill="#000000">NonAuto</text>
</a>
</g>
</g>
<!-- Node142&#45;&gt;Node143 -->
<g id="edge10" class="edge">
<title>Node142&#45;&gt;Node143</title>
<path fill="none" stroke="#191970" d="M656.6619,-330.4413C662.5994,-328.5254 668.4853,-326.3806 674,-324 712.3738,-307.435 752.812,-280.1401 776.2911,-263.1638"/>
<polygon fill="#191970" stroke="#191970" points="655.242,-327.2136 646.6773,-333.4504 657.2619,-333.9159 655.242,-327.2136"/>
</g>
<!-- Node144 -->
<g id="node12" class="node">
<title>Node144</title>
<g id="a_node12"><a xlink:href="classtrim_al_manager.html#adc529dd893ed4e9df6f3ddbd58776068" target="_top" xlink:title="Core Method of the program. This is where almost all cleaning methods are called from. ">
<polygon fill="#ffffff" stroke="#000000" points="948,-143 948,-173 1057,-173 1057,-143 948,-143"/>
<text text-anchor="start" x="956" y="-161" font-family="Helvetica,sans-Serif" font-size="10.00" fill="#000000">trimAlManager::clean</text>
<text text-anchor="middle" x="1002.5" y="-150" font-family="Helvetica,sans-Serif" font-size="10.00" fill="#000000">_alignment</text>
</a>
</g>
</g>
<!-- Node143&#45;&gt;Node144 -->
<g id="edge11" class="edge">
<title>Node143&#45;&gt;Node144</title>
<path fill="none" stroke="#191970" d="M840.288,-228.8693C878.372,-212.2307 932.8107,-188.4468 967.9077,-173.1131"/>
<polygon fill="#191970" stroke="#191970" points="838.7421,-225.7252 830.9798,-232.936 841.5446,-232.1397 838.7421,-225.7252"/>
</g>
<!-- Node145 -->
<g id="node13" class="node">
<title>Node145</title>
<g id="a_node13"><a xlink:href="classtrim_al_manager.html#a7c641a1feff33d401b4ea5c82e989289" target="_top" xlink:title="trimAlManager::innerPerform">
<polygon fill="#ffffff" stroke="#000000" points="1123.5,-208.5 1123.5,-227.5 1264.5,-227.5 1264.5,-208.5 1123.5,-208.5"/>
<text text-anchor="middle" x="1194" y="-215.5" font-family="Helvetica,sans-Serif" font-size="10.00" fill="#000000">trimAlManager::innerPerform</text>
</a>
</g>
</g>
<!-- Node144&#45;&gt;Node145 -->
<g id="edge12" class="edge">
<title>Node144&#45;&gt;Node145</title>
<path fill="none" stroke="#191970" d="M1060.6407,-176.2164C1094.6016,-186.8569 1136.0675,-199.8488 1163.6563,-208.4928"/>
<polygon fill="#191970" stroke="#191970" points="1061.4126,-172.7905 1050.8235,-173.1405 1059.3197,-179.4703 1061.4126,-172.7905"/>
</g>
<!-- Node147 -->
<g id="node15" class="node">
<title>Node147</title>
<g id="a_node15"><a xlink:href="classtrim_al_manager.html#ac5795f93b3a2b51bf5d8dddd63b89f73" target="_top" xlink:title="trimAlManager::perform_VCF">
<polygon fill="#ffffff" stroke="#000000" points="1122,-148.5 1122,-167.5 1266,-167.5 1266,-148.5 1122,-148.5"/>
<text text-anchor="middle" x="1194" y="-155.5" font-family="Helvetica,sans-Serif" font-size="10.00" fill="#000000">trimAlManager::perform_VCF</text>
</a>
</g>
</g>
<!-- Node144&#45;&gt;Node147 -->
<g id="edge15" class="edge">
<title>Node144&#45;&gt;Node147</title>
<path fill="none" stroke="#191970" d="M1067.2439,-158C1084.7787,-158 1103.8687,-158 1121.7865,-158"/>
<polygon fill="#191970" stroke="#191970" points="1067.12,-154.5001 1057.1199,-158 1067.1199,-161.5001 1067.12,-154.5001"/>
</g>
<!-- Node146 -->
<g id="node14" class="node">
<title>Node146</title>
<g id="a_node14"><a xlink:href="classtrim_al_manager.html#abe8d2841455c644dc9c7d1294b82b00f" target="_top" xlink:title="Method to perform the analysis if all checks have passed. ">
<polygon fill="#ffffff" stroke="#000000" points="1302,-214.5 1302,-233.5 1421,-233.5 1421,-214.5 1302,-214.5"/>
<text text-anchor="middle" x="1361.5" y="-221.5" font-family="Helvetica,sans-Serif" font-size="10.00" fill="#000000">trimAlManager::perform</text>
</a>
</g>
</g>
<!-- Node145&#45;&gt;Node146 -->
<g id="edge13" class="edge">
<title>Node145&#45;&gt;Node146</title>
<path fill="none" stroke="#191970" d="M1274.8102,-220.8947C1283.9363,-221.2216 1293.1089,-221.5502 1301.8939,-221.8649"/>
<polygon fill="#191970" stroke="#191970" points="1274.6685,-217.3875 1264.5496,-220.5272 1274.4179,-224.383 1274.6685,-217.3875"/>
</g>
<!-- Node146&#45;&gt;Node138 -->
<g id="edge14" class="edge">
<title>Node146&#45;&gt;Node138</title>
<path fill="none" stroke="#191970" d="M1428.9899,-235.1992C1439.2227,-236.8972 1449.0043,-238.5204 1456.9691,-239.842"/>
<polygon fill="#191970" stroke="#191970" points="1429.5235,-231.74 1419.0854,-233.5557 1428.3776,-238.6455 1429.5235,-231.74"/>
</g>
<!-- Node148&#45;&gt;Node143 -->
<g id="edge17" class="edge">
<title>Node148&#45;&gt;Node143</title>
<path fill="none" stroke="#191970" d="M649.5038,-292.8041C657.6862,-290.597 666.1025,-288.2732 674,-286 699.036,-278.7937 726.7751,-270.237 749.5169,-263.0696"/>
<polygon fill="#191970" stroke="#191970" points="648.4468,-289.4637 639.6897,-295.4271 650.2544,-296.2263 648.4468,-289.4637"/>
</g>
<!-- Node150 -->
<g id="node18" class="node">
<title>Node150</title>
<g id="a_node18"><a xlink:href="class_cleaner.html#aa57106470d2104a925b9396b8a9f33b3" target="_top" xlink:title="Method that carries the gappyout approach. This methods calculates the slope in gaps distribution on ...">
<polygon fill="#ffffff" stroke="#000000" points="542.5,-143.5 542.5,-162.5 662.5,-162.5 662.5,-143.5 542.5,-143.5"/>
<text text-anchor="middle" x="602.5" y="-150.5" font-family="Helvetica,sans-Serif" font-size="10.00" fill="#000000">Cleaner::clean2ndSlope</text>
</a>
</g>
</g>
<!-- Node149&#45;&gt;Node150 -->
<g id="edge19" class="edge">
<title>Node149&#45;&gt;Node150</title>
<path fill="none" stroke="#191970" d="M502.6359,-154.1348C515.9642,-153.9834 529.6622,-153.8277 542.4768,-153.6821"/>
<polygon fill="#191970" stroke="#191970" points="502.4962,-150.6361 492.5366,-154.2496 502.5758,-157.6356 502.4962,-150.6361"/>
</g>
<!-- Node152 -->
<g id="node20" class="node">
<title>Node152</title>
<g id="a_node20"><a xlink:href="class_cleaner.html#af7c9e1a177424168fa4214aca9ebd8e2" target="_top" xlink:title="Method to trim an alignment based on the gap distribution values. Column blocks that don&#39;t have a min...">
<polygon fill="#ffffff" stroke="#000000" points="551,-181.5 551,-200.5 654,-200.5 654,-181.5 551,-181.5"/>
<text text-anchor="middle" x="602.5" y="-188.5" font-family="Helvetica,sans-Serif" font-size="10.00" fill="#000000">Cleaner::cleanGaps</text>
</a>
</g>
</g>
<!-- Node149&#45;&gt;Node152 -->
<g id="edge22" class="edge">
<title>Node149&#45;&gt;Node152</title>
<path fill="none" stroke="#191970" d="M502.524,-170.5504C520.6654,-174.2611 539.4988,-178.1134 555.8622,-181.4604"/>
<polygon fill="#191970" stroke="#191970" points="503.0352,-167.0825 492.5366,-168.5075 501.6324,-173.9405 503.0352,-167.0825"/>
</g>
<!-- Node153 -->
<g id="node21" class="node">
<title>Node153</title>
<g id="a_node21"><a xlink:href="class_cleaner.html#a3af7bde2142886d6d723c95694b7b9ba" target="_top" xlink:title="Method to remove columns composed only by gaps This method is specially useful when we remove missali...">
<polygon fill="#ffffff" stroke="#000000" points="539,-105.5 539,-124.5 666,-124.5 666,-105.5 539,-105.5"/>
<text text-anchor="middle" x="602.5" y="-112.5" font-family="Helvetica,sans-Serif" font-size="10.00" fill="#000000">Cleaner::cleanNoAllGaps</text>
</a>
</g>
</g>
<!-- Node149&#45;&gt;Node153 -->
<g id="edge25" class="edge">
<title>Node149&#45;&gt;Node153</title>
<path fill="none" stroke="#191970" d="M502.545,-137.7171C522.4717,-133.1882 543.2318,-128.47 560.6353,-124.5147"/>
<polygon fill="#191970" stroke="#191970" points="501.5123,-134.3624 492.5366,-139.9917 503.0637,-141.1884 501.5123,-134.3624"/>
</g>
<!-- Node151 -->
<g id="node19" class="node">
<title>Node151</title>
<g id="a_node19"><a xlink:href="classtrim_al_manager.html#a69082911b30a1bd12395bb235bc18a34" target="_top" xlink:title="Method to trim the alignment using automatic or semi&#45;automatic methods: ">
<polygon fill="#ffffff" stroke="#000000" points="710,-143.5 710,-162.5 883,-162.5 883,-143.5 710,-143.5"/>
<text text-anchor="middle" x="796.5" y="-150.5" font-family="Helvetica,sans-Serif" font-size="10.00" fill="#000000">trimAlManager::CleanResiduesAuto</text>
</a>
</g>
</g>
<!-- Node150&#45;&gt;Node151 -->
<g id="edge20" class="edge">
<title>Node150&#45;&gt;Node151</title>
<path fill="none" stroke="#191970" d="M672.8802,-153C684.8244,-153 697.3522,-153 709.6595,-153"/>
<polygon fill="#191970" stroke="#191970" points="672.5543,-149.5001 662.5542,-153 672.5542,-156.5001 672.5543,-149.5001"/>
</g>
<!-- Node151&#45;&gt;Node144 -->
<g id="edge21" class="edge">
<title>Node151&#45;&gt;Node144</title>
<path fill="none" stroke="#191970" d="M893.3214,-155.35C912.0481,-155.8046 931.0481,-156.2657 947.8335,-156.6731"/>
<polygon fill="#191970" stroke="#191970" points="893.3475,-151.8497 883.2655,-155.106 893.1776,-158.8477 893.3475,-151.8497"/>
</g>
<!-- Node152&#45;&gt;Node143 -->
<g id="edge24" class="edge">
<title>Node152&#45;&gt;Node143</title>
<path fill="none" stroke="#191970" d="M644.5833,-203.3647C674.153,-212.0527 713.877,-223.7242 745.2879,-232.9532"/>
<polygon fill="#191970" stroke="#191970" points="645.5524,-200.0015 634.9712,-200.5405 643.579,-206.7176 645.5524,-200.0015"/>
</g>
<!-- Node152&#45;&gt;Node151 -->
<g id="edge23" class="edge">
<title>Node152&#45;&gt;Node151</title>
<path fill="none" stroke="#191970" d="M661.4052,-179.4619C689.0751,-174.042 721.6619,-167.659 747.8976,-162.5201"/>
<polygon fill="#191970" stroke="#191970" points="660.5951,-176.054 651.4544,-181.411 661.9407,-182.9234 660.5951,-176.054"/>
</g>
<!-- Node153&#45;&gt;Node151 -->
<g id="edge26" class="edge">
<title>Node153&#45;&gt;Node151</title>
<path fill="none" stroke="#191970" d="M661.4052,-126.5381C689.0751,-131.958 721.6619,-138.341 747.8976,-143.4799"/>
<polygon fill="#191970" stroke="#191970" points="661.9407,-123.0766 651.4544,-124.589 660.5951,-129.946 661.9407,-123.0766"/>
</g>
<!-- Node154 -->
<g id="node22" class="node">
<title>Node154</title>
<g id="a_node22"><a xlink:href="classtrim_al_manager.html#a10536f715945a1a45f1df33f7cedc81e" target="_top" xlink:title="Method to trim or reduce the number of sequences in an alignment. It performs one or none of the foll...">
<polygon fill="#ffffff" stroke="#000000" points="716.5,-67.5 716.5,-86.5 876.5,-86.5 876.5,-67.5 716.5,-67.5"/>
<text text-anchor="middle" x="796.5" y="-74.5" font-family="Helvetica,sans-Serif" font-size="10.00" fill="#000000">trimAlManager::CleanSequences</text>
</a>
</g>
</g>
<!-- Node153&#45;&gt;Node154 -->
<g id="edge27" class="edge">
<title>Node153&#45;&gt;Node154</title>
<path fill="none" stroke="#191970" d="M661.4052,-103.4619C689.0751,-98.042 721.6619,-91.659 747.8976,-86.5201"/>
<polygon fill="#191970" stroke="#191970" points="660.5951,-100.054 651.4544,-105.411 661.9407,-106.9234 660.5951,-100.054"/>
</g>
<!-- Node154&#45;&gt;Node144 -->
<g id="edge28" class="edge">
<title>Node154&#45;&gt;Node144</title>
<path fill="none" stroke="#191970" d="M830.7023,-90.4485C867.4623,-104.9026 925.762,-127.8263 964.0776,-142.8922"/>
<polygon fill="#191970" stroke="#191970" points="831.5271,-87.012 820.9399,-86.6098 828.9655,-93.5265 831.5271,-87.012"/>
</g>
<!-- Node156 -->
<g id="node24" class="node">
<title>Node156</title>
<g id="a_node24"><a xlink:href="class_cleaner.html#a4718e31c0183b5a98751d77479faacf0" target="_top" xlink:title="Method to trim an alignment based on the similarity and gaps distribution values. ...">
<polygon fill="#ffffff" stroke="#000000" points="562.5,-257.5 562.5,-276.5 642.5,-276.5 642.5,-257.5 562.5,-257.5"/>
<text text-anchor="middle" x="602.5" y="-264.5" font-family="Helvetica,sans-Serif" font-size="10.00" fill="#000000">Cleaner::clean</text>
</a>
</g>
</g>
<!-- Node155&#45;&gt;Node156 -->
<g id="edge30" class="edge">
<title>Node155&#45;&gt;Node156</title>
<path fill="none" stroke="#191970" d="M502.566,-258.4829C523.1831,-260.24 544.6907,-262.0731 562.4485,-263.5865"/>
<polygon fill="#191970" stroke="#191970" points="502.7978,-254.9901 492.5366,-257.6281 502.2033,-261.9648 502.7978,-254.9901"/>
</g>
<!-- Node156&#45;&gt;Node143 -->
<g id="edge31" class="edge">
<title>Node156&#45;&gt;Node143</title>
<path fill="none" stroke="#191970" d="M652.7838,-262.0753C673.3575,-260.0603 697.6146,-257.6846 720.2829,-255.4646"/>
<polygon fill="#191970" stroke="#191970" points="652.3081,-258.605 642.6969,-263.0632 652.9905,-265.5717 652.3081,-258.605"/>
</g>
<!-- Node158 -->
<g id="node26" class="node">
<title>Node158</title>
<g id="a_node26"><a xlink:href="class_cleaner.html#a5ceceb5b637a6d4e6a13c3b5d8d76c1d" target="_top" xlink:title="Method to remove sequences missaligned with the rest of sequences in the alignment. &#160;For each residue in the sequence, it tests it&#39;s similarity. If the similarity of that residue is higher than overlapColumn value, it counts as a hit for the sequence. After calculating the number of hits for the sequence, it removes the sequence if it has a proportion hits/residues lower tan minimumOverlap. ">
<polygon fill="#ffffff" stroke="#000000" points="535,-29.5 535,-48.5 670,-48.5 670,-29.5 535,-29.5"/>
<text text-anchor="middle" x="602.5" y="-36.5" font-family="Helvetica,sans-Serif" font-size="10.00" fill="#000000">Cleaner::cleanSpuriousSeq</text>
</a>
</g>
</g>
<!-- Node157&#45;&gt;Node158 -->
<g id="edge33" class="edge">
<title>Node157&#45;&gt;Node158</title>
<path fill="none" stroke="#191970" d="M502.3108,-44.1233C513.1307,-43.57 524.2012,-43.0039 534.851,-42.4593"/>
<polygon fill="#191970" stroke="#191970" points="501.8441,-40.6425 492.0359,-44.6487 502.2016,-47.6334 501.8441,-40.6425"/>
</g>
<!-- Node158&#45;&gt;Node154 -->
<g id="edge34" class="edge">
<title>Node158&#45;&gt;Node154</title>
<path fill="none" stroke="#191970" d="M661.4052,-50.5381C689.0751,-55.958 721.6619,-62.341 747.8976,-67.4799"/>
<polygon fill="#191970" stroke="#191970" points="661.9407,-47.0766 651.4544,-48.589 660.5951,-53.946 661.9407,-47.0766"/>
</g>
<!-- Node160 -->
<g id="node28" class="node">
<title>Node160</title>
<g id="a_node28"><a xlink:href="class_cleaner.html#a6727a235afa29f08a50716f28fa5c8fc" target="_top" xlink:title="Method to clean an alignment. It carries out strict and strictplus. The method: ">
<polygon fill="#ffffff" stroke="#000000" points="531,-67.5 531,-86.5 674,-86.5 674,-67.5 531,-67.5"/>
<text text-anchor="middle" x="602.5" y="-74.5" font-family="Helvetica,sans-Serif" font-size="10.00" fill="#000000">Cleaner::cleanCombMethods</text>
</a>
</g>
</g>
<!-- Node159&#45;&gt;Node160 -->
<g id="edge36" class="edge">
<title>Node159&#45;&gt;Node160</title>
<path fill="none" stroke="#191970" d="M488.5909,-88.6498C502.2427,-87.2536 516.8079,-85.764 530.803,-84.3326"/>
<polygon fill="#191970" stroke="#191970" points="487.9459,-85.1974 478.3539,-89.6968 488.6581,-92.1611 487.9459,-85.1974"/>
</g>
<!-- Node160&#45;&gt;Node151 -->
<g id="edge37" class="edge">
<title>Node160&#45;&gt;Node151</title>
<path fill="none" stroke="#191970" d="M653.456,-89.3599C660.4192,-91.3913 667.4282,-93.6188 674,-96 712.3738,-109.9041 755.1751,-131.2399 778.6576,-143.4816"/>
<polygon fill="#191970" stroke="#191970" points="653.9163,-85.8543 643.343,-86.5288 652.0292,-92.5951 653.9163,-85.8543"/>
</g>
<!-- Node161&#45;&gt;Node143 -->
<g id="edge39" class="edge">
<title>Node161&#45;&gt;Node143</title>
<path fill="none" stroke="#191970" d="M500.5201,-210.4026C564.3347,-218.5087 656.0962,-230.1649 720.4848,-238.344"/>
<polygon fill="#191970" stroke="#191970" points="500.888,-206.9212 490.5267,-209.1331 500.0059,-213.8654 500.888,-206.9212"/>
</g>
<!-- Node162&#45;&gt;Node154 -->
<g id="edge41" class="edge">
<title>Node162&#45;&gt;Node154</title>
<path fill="none" stroke="#191970" d="M505.5068,-5.3504C554.6552,-4.376 618.7911,-6.6096 674,-20 714.8049,-29.8968 758.4378,-53.8213 780.9941,-67.3179"/>
<polygon fill="#191970" stroke="#191970" points="505.1655,-1.8577 495.2552,-5.6042 505.3387,-8.8556 505.1655,-1.8577"/>
</g>
</g>
</svg>
