<?xml version="1.0" encoding="UTF-8" standalone="no"?>
<!DOCTYPE svg PUBLIC "-//W3C//DTD SVG 1.1//EN"
 "http://www.w3.org/Graphics/SVG/1.1/DTD/svg11.dtd">
<!-- Generated by graphviz version 2.40.1 (20161225.0304)
 -->
<!-- Title: statistics::Gaps::getGapsWindow Pages: 1 -->
<svg width="480pt" height="122pt"
 viewBox="0.00 0.00 480.00 121.50" xmlns="http://www.w3.org/2000/svg" xmlns:xlink="http://www.w3.org/1999/xlink">
<g id="graph0" class="graph" transform="scale(1 1) rotate(0) translate(4 117.5)">
<title>statistics::Gaps::getGapsWindow</title>
<polygon fill="#ffffff" stroke="transparent" points="-4,4 -4,-117.5 476,-117.5 476,4 -4,4"/>
<!-- Node161 -->
<g id="node1" class="node">
<title>Node161</title>
<polygon fill="#bfbfbf" stroke="#000000" points="0,-22.5 0,-52.5 128,-52.5 128,-22.5 0,-22.5"/>
<text text-anchor="start" x="8" y="-40.5" font-family="Helvetica,sans-Serif" font-size="10.00" fill="#000000">statistics::Gaps::getGaps</text>
<text text-anchor="middle" x="64" y="-29.5" font-family="Helvetica,sans-Serif" font-size="10.00" fill="#000000">Window</text>
</g>
<!-- Node162 -->
<g id="node2" class="node">
<title>Node162</title>
<g id="a_node2"><a xlink:href="classstatistics_1_1_gaps.html#aee36b772767467cdba2061df2305e85d" target="_top" xlink:title="statistics::Gaps::applyWindow">
<polygon fill="#ffffff" stroke="#000000" points="164,-50 164,-69 314,-69 314,-50 164,-50"/>
<text text-anchor="middle" x="239" y="-57" font-family="Helvetica,sans-Serif" font-size="10.00" fill="#000000">statistics::Gaps::applyWindow</text>
</a>
</g>
</g>
<!-- Node161&#45;&gt;Node162 -->
<g id="edge1" class="edge">
<title>Node161&#45;&gt;Node162</title>
<path fill="none" stroke="#191970" d="M128.1698,-45.5671C136.5133,-46.616 145.1621,-47.7032 153.7813,-48.7868"/>
<polygon fill="#191970" stroke="#191970" points="153.5074,-52.2798 163.8659,-50.0546 154.3806,-45.3345 153.5074,-52.2798"/>
</g>
<!-- Node166 -->
<g id="node6" class="node">
<title>Node166</title>
<g id="a_node6"><a xlink:href="classstatistics_1_1_gaps.html#ad812a924cf5e3f900aad3ed4a9664300" target="_top" xlink:title="statistics::Gaps::isDefined\lWindow">
<polygon fill="#ffffff" stroke="#000000" points="172.5,-.5 172.5,-30.5 305.5,-30.5 305.5,-.5 172.5,-.5"/>
<text text-anchor="start" x="180.5" y="-18.5" font-family="Helvetica,sans-Serif" font-size="10.00" fill="#000000">statistics::Gaps::isDefined</text>
<text text-anchor="middle" x="239" y="-7.5" font-family="Helvetica,sans-Serif" font-size="10.00" fill="#000000">Window</text>
</a>
</g>
</g>
<!-- Node161&#45;&gt;Node166 -->
<g id="edge5" class="edge">
<title>Node161&#45;&gt;Node166</title>
<path fill="none" stroke="#191970" d="M128.1698,-29.4329C139.3361,-28.0292 151.0492,-26.5567 162.5065,-25.1163"/>
<polygon fill="#191970" stroke="#191970" points="163.0037,-28.5815 172.4891,-23.8614 162.1306,-21.6361 163.0037,-28.5815"/>
</g>
<!-- Node163 -->
<g id="node3" class="node">
<title>Node163</title>
<g id="a_node3"><a xlink:href="namespaceutils.html#aac322cd1761fddedec8a5792e358eb32" target="_top" xlink:title="Vector initialization. ">
<polygon fill="#ffffff" stroke="#000000" points="373,-94 373,-113 449,-113 449,-94 373,-94"/>
<text text-anchor="middle" x="411" y="-101" font-family="Helvetica,sans-Serif" font-size="10.00" fill="#000000">utils::initlVect</text>
</a>
</g>
</g>
<!-- Node162&#45;&gt;Node163 -->
<g id="edge2" class="edge">
<title>Node162&#45;&gt;Node163</title>
<path fill="none" stroke="#191970" d="M276.3214,-69.0473C302.0161,-75.6204 336.3551,-84.4048 363.9277,-91.4583"/>
<polygon fill="#191970" stroke="#191970" points="363.1959,-94.8837 373.7514,-93.9713 364.9308,-88.1021 363.1959,-94.8837"/>
</g>
<!-- Node164 -->
<g id="node4" class="node">
<title>Node164</title>
<g id="a_node4"><a xlink:href="classreporting_1_1report_manager.html#a6d122e673144584e0869bd33b8a5c1c6" target="_top" xlink:title="Method to report an Error. &#160;It will be displayed if Level &#160;is equal or higher to VerboseLevel::ERROR...">
<polygon fill="#ffffff" stroke="#000000" points="350,-44.5 350,-74.5 472,-74.5 472,-44.5 350,-44.5"/>
<text text-anchor="start" x="358" y="-62.5" font-family="Helvetica,sans-Serif" font-size="10.00" fill="#000000">reporting::reportManager</text>
<text text-anchor="middle" x="411" y="-51.5" font-family="Helvetica,sans-Serif" font-size="10.00" fill="#000000">::report</text>
</a>
</g>
</g>
<!-- Node162&#45;&gt;Node164 -->
<g id="edge3" class="edge">
<title>Node162&#45;&gt;Node164</title>
<path fill="none" stroke="#191970" d="M314.1915,-59.5C322.6746,-59.5 331.3002,-59.5 339.7311,-59.5"/>
<polygon fill="#191970" stroke="#191970" points="339.8958,-63.0001 349.8958,-59.5 339.8957,-56.0001 339.8958,-63.0001"/>
</g>
<!-- Node165 -->
<g id="node5" class="node">
<title>Node165</title>
<g id="a_node5"><a xlink:href="namespaceutils.html#ad50731aeb3c8f79ed8372516210dfc9d" target="_top" xlink:title="Round double to integer method. ">
<polygon fill="#ffffff" stroke="#000000" points="373,-6 373,-25 449,-25 449,-6 373,-6"/>
<text text-anchor="middle" x="411" y="-13" font-family="Helvetica,sans-Serif" font-size="10.00" fill="#000000">utils::roundInt</text>
</a>
</g>
</g>
<!-- Node162&#45;&gt;Node165 -->
<g id="edge4" class="edge">
<title>Node162&#45;&gt;Node165</title>
<path fill="none" stroke="#191970" d="M276.7774,-49.9621C288.6896,-46.9459 301.897,-43.5927 314,-40.5 330.3095,-36.3324 348.1534,-31.7422 364.0395,-27.6449"/>
<polygon fill="#191970" stroke="#191970" points="365.3524,-30.9208 374.1605,-25.0329 363.6031,-24.1429 365.3524,-30.9208"/>
</g>
</g>
</svg>
