<?xml version="1.0" encoding="UTF-8" standalone="no"?>
<!DOCTYPE svg PUBLIC "-//W3C//DTD SVG 1.1//EN"
 "http://www.w3.org/Graphics/SVG/1.1/DTD/svg11.dtd">
<!-- Generated by graphviz version 2.38.0 (20140413.2041)
 -->
<!-- Title: Cleaner::cleanCombMethods Pages: 1 -->
<!--zoomable 317 -->
<svg id="main" version="1.1" xmlns="http://www.w3.org/2000/svg" xmlns:xlink="http://www.w3.org/1999/xlink" xml:space="preserve" onload="init(evt)">
<style type="text/css"><![CDATA[
.edge:hover path { stroke: red; }
.edge:hover polygon { stroke: red; fill: red; }
]]></style>
<script type="text/javascript"><![CDATA[
var edges = document.getElementsByTagName('g');
if (edges && edges.length) {
  for (var i=0;i<edges.length;i++) {
    if (edges[i].id.substr(0,4)=='edge') {
      edges[i].setAttribute('class','edge');
    }
  }
}
]]></script>
        <defs>
                <circle id="rim" cx="0" cy="0" r="7"/>
                <circle id="rim2" cx="0" cy="0" r="3.5"/>
                <g id="zoomPlus">
                        <use xlink:href="#rim" fill="#404040">
                                <set attributeName="fill" to="#808080" begin="zoomplus.mouseover" end="zoomplus.mouseout"/>
                        </use>
                        <path d="M-4,0h8M0,-4v8" fill="none" stroke="white" stroke-width="1.5" pointer-events="none"/>
                </g>
                <g id="zoomMin">
                        <use xlink:href="#rim" fill="#404040">
                                <set attributeName="fill" to="#808080" begin="zoomminus.mouseover" end="zoomminus.mouseout"/>
                        </use>
                        <path d="M-4,0h8" fill="none" stroke="white" stroke-width="1.5" pointer-events="none"/>
                </g>
                <g id="dirArrow">
                        <path fill="none" stroke="white" stroke-width="1.5" d="M0,-3.0v7 M-2.5,-0.5L0,-3.0L2.5,-0.5"/>
                </g>
               <g id="resetDef">
                       <use xlink:href="#rim2" fill="#404040">
                               <set attributeName="fill" to="#808080" begin="reset.mouseover" end="reset.mouseout"/>
                       </use>
               </g>
        </defs>

<script type="text/javascript">
var viewWidth = 505;
var viewHeight = 317;
var sectionId = 'dynsection-10';
</script>
<script xlink:href="svgpan.js"/>
<svg id="graph" class="graph">
<g id="viewport">
<title>Cleaner::cleanCombMethods</title>
<polygon fill="white" stroke="none" points="-4,4 -4,-313 501,-313 501,4 -4,4"/>
<!-- Node73 -->
<g id="node1" class="node"><title>Node73</title>
<polygon fill="#bfbfbf" stroke="black" points="0,-251.5 0,-270.5 143,-270.5 143,-251.5 0,-251.5"/>
<text text-anchor="middle" x="71.5" y="-258.5" font-family="Helvetica,sans-Serif" font-size="10.00">Cleaner::cleanCombMethods</text>
</g>
<!-- Node74 -->
<g id="node2" class="node"><title>Node74</title>
<g id="a_node2"><a xlink:href="classutils.html#aac322cd1761fddedec8a5792e358eb32" target="_top" xlink:title="Vector initialization. ">
<polygon fill="white" stroke="black" points="192.5,-289.5 192.5,-308.5 268.5,-308.5 268.5,-289.5 192.5,-289.5"/>
<text text-anchor="middle" x="230.5" y="-296.5" font-family="Helvetica,sans-Serif" font-size="10.00">utils::initlVect</text>
</a>
</g>
</g>
<!-- Node73&#45;&gt;Node74 -->
<g id="edge1" class="edge"><title>Node73&#45;&gt;Node74</title>
<path fill="none" stroke="midnightblue" d="M112.118,-270.589C133.466,-275.756 159.947,-282.165 182.351,-287.588"/>
<polygon fill="midnightblue" stroke="midnightblue" points="181.782,-291.051 192.324,-290.002 183.428,-284.248 181.782,-291.051"/>
</g>
<!-- Node75 -->
<g id="node3" class="node"><title>Node75</title>
<g id="a_node3"><a xlink:href="classutils.html#a73f038c379c13d23e3220afaa14f9983" target="_top" xlink:title="Quicksort sorting method. ">
<polygon fill="white" stroke="black" points="190.5,-251.5 190.5,-270.5 270.5,-270.5 270.5,-251.5 190.5,-251.5"/>
<text text-anchor="middle" x="230.5" y="-258.5" font-family="Helvetica,sans-Serif" font-size="10.00">utils::quicksort</text>
</a>
</g>
</g>
<!-- Node73&#45;&gt;Node75 -->
<g id="edge2" class="edge"><title>Node73&#45;&gt;Node75</title>
<path fill="none" stroke="midnightblue" d="M143.192,-261C155.656,-261 168.386,-261 180.106,-261"/>
<polygon fill="midnightblue" stroke="midnightblue" points="180.115,-264.5 190.115,-261 180.115,-257.5 180.115,-264.5"/>
</g>
<!-- Node77 -->
<g id="node5" class="node"><title>Node77</title>
<g id="a_node5"><a xlink:href="class_cleaner.html#a740bce047dce09be0f6bd1da9f826da3" target="_top" xlink:title="Method to clean an alignment. It carries out strict and strictplus. It removes sequences that overpas...">
<polygon fill="white" stroke="black" points="179,-156.5 179,-175.5 282,-175.5 282,-156.5 179,-156.5"/>
<text text-anchor="middle" x="230.5" y="-163.5" font-family="Helvetica,sans-Serif" font-size="10.00">Cleaner::cleanStrict</text>
</a>
</g>
</g>
<!-- Node73&#45;&gt;Node77 -->
<g id="edge4" class="edge"><title>Node73&#45;&gt;Node77</title>
<path fill="none" stroke="midnightblue" d="M88.418,-251.368C115.806,-234.796 172.034,-200.772 204.629,-181.049"/>
<polygon fill="midnightblue" stroke="midnightblue" points="206.796,-183.829 213.54,-175.657 203.172,-177.84 206.796,-183.829"/>
</g>
<!-- Node76 -->
<g id="node4" class="node"><title>Node76</title>
<g id="a_node4"><a xlink:href="classutils.html#a3377ecde55631d1bbc4956e5923b7469" target="_top" xlink:title="Swapping elements method. ">
<polygon fill="white" stroke="black" points="375.5,-289.5 375.5,-308.5 439.5,-308.5 439.5,-289.5 375.5,-289.5"/>
<text text-anchor="middle" x="407.5" y="-296.5" font-family="Helvetica,sans-Serif" font-size="10.00">utils::swap</text>
</a>
</g>
</g>
<!-- Node75&#45;&gt;Node76 -->
<g id="edge3" class="edge"><title>Node75&#45;&gt;Node76</title>
<path fill="none" stroke="midnightblue" d="M270.676,-269.646C285.499,-272.907 302.524,-276.639 318,-280 333.472,-283.36 350.473,-287.018 365.403,-290.219"/>
<polygon fill="midnightblue" stroke="midnightblue" points="364.853,-293.681 375.365,-292.353 366.32,-286.836 364.853,-293.681"/>
</g>
<!-- Node78 -->
<g id="node6" class="node"><title>Node78</title>
<g id="a_node6"><a xlink:href="classutils.html#ad50731aeb3c8f79ed8372516210dfc9d" target="_top" xlink:title="Round double to integer method. ">
<polygon fill="white" stroke="black" points="369.5,-251.5 369.5,-270.5 445.5,-270.5 445.5,-251.5 369.5,-251.5"/>
<text text-anchor="middle" x="407.5" y="-258.5" font-family="Helvetica,sans-Serif" font-size="10.00">utils::roundInt</text>
</a>
</g>
</g>
<!-- Node77&#45;&gt;Node78 -->
<g id="edge5" class="edge"><title>Node77&#45;&gt;Node78</title>
<path fill="none" stroke="midnightblue" d="M239.461,-175.663C253.515,-192.039 284.428,-225.108 318,-242 330.765,-248.423 345.627,-252.68 359.486,-255.5"/>
<polygon fill="midnightblue" stroke="midnightblue" points="358.889,-258.948 369.356,-257.309 360.151,-252.063 358.889,-258.948"/>
</g>
<!-- Node79 -->
<g id="node7" class="node"><title>Node79</title>
<g id="a_node7"><a xlink:href="class_cleaner.html#afed3e14dcf00a5a24fb0abadd6682469" target="_top" xlink:title="Method to remove column blocks smaller than a given size. ">
<polygon fill="white" stroke="black" points="331.5,-213.5 331.5,-232.5 483.5,-232.5 483.5,-213.5 331.5,-213.5"/>
<text text-anchor="middle" x="407.5" y="-220.5" font-family="Helvetica,sans-Serif" font-size="10.00">Cleaner::removeSmallerBlocks</text>
</a>
</g>
</g>
<!-- Node77&#45;&gt;Node79 -->
<g id="edge6" class="edge"><title>Node77&#45;&gt;Node79</title>
<path fill="none" stroke="midnightblue" d="M250.307,-175.59C267.545,-184.056 293.965,-196.229 318,-204 326.257,-206.669 335.069,-209.071 343.813,-211.197"/>
<polygon fill="midnightblue" stroke="midnightblue" points="343.09,-214.622 353.623,-213.479 344.676,-207.804 343.09,-214.622"/>
</g>
<!-- Node80 -->
<g id="node8" class="node"><title>Node80</title>
<g id="a_node8"><a xlink:href="class_cleaner.html#a033da9ea63774f43f4c7aff04f23da81" target="_top" xlink:title="Method to detect right and left borders. Borders are the first column found with no gaps...">
<polygon fill="white" stroke="black" points="334.5,-175.5 334.5,-194.5 480.5,-194.5 480.5,-175.5 334.5,-175.5"/>
<text text-anchor="middle" x="407.5" y="-182.5" font-family="Helvetica,sans-Serif" font-size="10.00">Cleaner::removeOnlyTerminal</text>
</a>
</g>
</g>
<!-- Node77&#45;&gt;Node80 -->
<g id="edge7" class="edge"><title>Node77&#45;&gt;Node80</title>
<path fill="none" stroke="midnightblue" d="M282.117,-171.496C295.195,-172.915 309.619,-174.481 323.869,-176.029"/>
<polygon fill="midnightblue" stroke="midnightblue" points="323.875,-179.55 334.194,-177.15 324.63,-172.591 323.875,-179.55"/>
</g>
<!-- Node81 -->
<g id="node9" class="node"><title>Node81</title>
<g id="a_node9"><a xlink:href="class_cleaner.html#a24bd28e4191afc9471adff329bee1466" target="_top" xlink:title="Method for computing the complementary alignment. Complementary Alignment is an alignment containing ...">
<polygon fill="white" stroke="black" points="318,-137.5 318,-156.5 497,-156.5 497,-137.5 318,-137.5"/>
<text text-anchor="middle" x="407.5" y="-144.5" font-family="Helvetica,sans-Serif" font-size="10.00">Cleaner::computeComplementaryAlig</text>
</a>
</g>
</g>
<!-- Node77&#45;&gt;Node81 -->
<g id="edge8" class="edge"><title>Node77&#45;&gt;Node81</title>
<path fill="none" stroke="midnightblue" d="M282.117,-160.504C290.568,-159.587 299.581,-158.608 308.746,-157.613"/>
<polygon fill="midnightblue" stroke="midnightblue" points="309.168,-161.088 318.732,-156.529 308.412,-154.129 309.168,-161.088"/>
</g>
<!-- Node82 -->
<g id="node10" class="node"><title>Node82</title>
<g id="a_node10"><a xlink:href="class_cleaner.html#a2f7d85e29f23f880a7ad7e28863b36c3" target="_top" xlink:title="Method that identifies and removes columns and sequences composed only by gaps. ">
<polygon fill="white" stroke="black" points="353,-88 353,-118 462,-118 462,-88 353,-88"/>
<text text-anchor="start" x="361" y="-106" font-family="Helvetica,sans-Serif" font-size="10.00">Cleaner::removeCols</text>
<text text-anchor="middle" x="407.5" y="-95" font-family="Helvetica,sans-Serif" font-size="10.00">_SeqsAllGaps</text>
</a>
</g>
</g>
<!-- Node77&#45;&gt;Node82 -->
<g id="edge9" class="edge"><title>Node77&#45;&gt;Node82</title>
<path fill="none" stroke="midnightblue" d="M251.11,-156.451C268.439,-148.24 294.534,-136.423 318,-128 325.993,-125.131 334.484,-122.375 342.922,-119.809"/>
<polygon fill="midnightblue" stroke="midnightblue" points="344.178,-123.087 352.771,-116.889 342.188,-116.376 344.178,-123.087"/>
</g>
<!-- Node83 -->
<g id="node11" class="node"><title>Node83</title>
<g id="a_node11"><a xlink:href="classnew_alignment.html#a3de39c62c08a265178f1fa7df76c3ab7" target="_top" xlink:title="Method that copies information of the alignment to the pointers given. ">
<polygon fill="white" stroke="black" points="340,-39 340,-69 475,-69 475,-39 340,-39"/>
<text text-anchor="start" x="348" y="-57" font-family="Helvetica,sans-Serif" font-size="10.00">newAlignment::fillNewData</text>
<text text-anchor="middle" x="407.5" y="-46" font-family="Helvetica,sans-Serif" font-size="10.00">Structure</text>
</a>
</g>
</g>
<!-- Node77&#45;&gt;Node83 -->
<g id="edge10" class="edge"><title>Node77&#45;&gt;Node83</title>
<path fill="none" stroke="midnightblue" d="M238.407,-156.294C251.72,-138.306 282.753,-99.7369 318,-79 321.898,-76.7066 326.017,-74.6146 330.261,-72.7075"/>
<polygon fill="midnightblue" stroke="midnightblue" points="331.794,-75.8615 339.712,-68.8217 329.132,-69.3874 331.794,-75.8615"/>
</g>
<!-- Node84 -->
<g id="node12" class="node"><title>Node84</title>
<g id="a_node12"><a xlink:href="classnew_alignment.html#acbeb320f0f70222f81a906ccfc33a016" target="_top" xlink:title="Method to intialize data that has been modified on the alignment. The method checks if the sequences ...">
<polygon fill="white" stroke="black" points="342,-0.5 342,-19.5 473,-19.5 473,-0.5 342,-0.5"/>
<text text-anchor="middle" x="407.5" y="-7.5" font-family="Helvetica,sans-Serif" font-size="10.00">newAlignment::fillMatrices</text>
</a>
</g>
</g>
<!-- Node77&#45;&gt;Node84 -->
<g id="edge11" class="edge"><title>Node77&#45;&gt;Node84</title>
<path fill="none" stroke="midnightblue" d="M234.673,-156.159C243.431,-130.669 270.49,-62.1736 318,-29 322.318,-25.9847 327.023,-23.4333 331.938,-21.276"/>
<polygon fill="midnightblue" stroke="midnightblue" points="333.506,-24.4244 341.606,-17.5947 331.015,-17.8827 333.506,-24.4244"/>
</g>
</g>
</svg>
        <g id="navigator" transform="translate(0 0)" fill="#404254">
                <rect fill="#f2f5e9" fill-opacity="0.5" stroke="#606060" stroke-width=".5" x="0" y="0" width="60" height="60"/>
                <use id="zoomplus" xlink:href="#zoomPlus" x="17" y="9" onmousedown="handleZoom(evt,'in')"/>
                <use id="zoomminus" xlink:href="#zoomMin" x="42" y="9" onmousedown="handleZoom(evt,'out')"/>
                <use id="reset" xlink:href="#resetDef" x="30" y="36" onmousedown="handleReset()"/>
                <g id="arrowUp" xlink:href="#dirArrow" transform="translate(30 24)" onmousedown="handlePan(0,-1)">
                  <use xlink:href="#rim" fill="#404040">
                        <set attributeName="fill" to="#808080" begin="arrowUp.mouseover" end="arrowUp.mouseout"/>
                  </use>
                  <path fill="none" stroke="white" stroke-width="1.5" d="M0,-3.0v7 M-2.5,-0.5L0,-3.0L2.5,-0.5"/>
                </g>
                <g id="arrowRight" xlink:href="#dirArrow" transform="rotate(90) translate(36 -43)" onmousedown="handlePan(1,0)">
                  <use xlink:href="#rim" fill="#404040">
                        <set attributeName="fill" to="#808080" begin="arrowRight.mouseover" end="arrowRight.mouseout"/>
                  </use>
                  <path fill="none" stroke="white" stroke-width="1.5" d="M0,-3.0v7 M-2.5,-0.5L0,-3.0L2.5,-0.5"/>
                </g>
                <g id="arrowDown" xlink:href="#dirArrow" transform="rotate(180) translate(-30 -48)" onmousedown="handlePan(0,1)">
                  <use xlink:href="#rim" fill="#404040">
                        <set attributeName="fill" to="#808080" begin="arrowDown.mouseover" end="arrowDown.mouseout"/>
                  </use>
                  <path fill="none" stroke="white" stroke-width="1.5" d="M0,-3.0v7 M-2.5,-0.5L0,-3.0L2.5,-0.5"/>
                </g>
                <g id="arrowLeft" xlink:href="#dirArrow" transform="rotate(270) translate(-36 17)" onmousedown="handlePan(-1,0)">
                  <use xlink:href="#rim" fill="#404040">
                        <set attributeName="fill" to="#808080" begin="arrowLeft.mouseover" end="arrowLeft.mouseout"/>
                  </use>
                  <path fill="none" stroke="white" stroke-width="1.5" d="M0,-3.0v7 M-2.5,-0.5L0,-3.0L2.5,-0.5"/>
                </g>
        </g>
        <svg viewBox="0 0 15 15" width="100%" height="30px" preserveAspectRatio="xMaxYMin meet">
         <g id="arrow_out" transform="scale(0.3 0.3)">
          <a xlink:href="class_cleaner_a068b219f913adba5c917a231cff7e437_cgraph_org.svg" target="_base">
           <rect id="button" ry="5" rx="5" y="6" x="6" height="38" width="38"
                fill="#f2f5e9" fill-opacity="0.5" stroke="#606060" stroke-width="1.0"/>
           <path id="arrow"
             d="M 11.500037,31.436501 C 11.940474,20.09759 22.043105,11.32322 32.158766,21.979434 L 37.068811,17.246167 C 37.068811,17.246167 37.088388,32 37.088388,32 L 22.160133,31.978069 C 22.160133,31.978069 26.997745,27.140456 26.997745,27.140456 C 18.528582,18.264221 13.291696,25.230495 11.500037,31.436501 z"
             style="fill:#404040;"/>
          </a>
         </g>
        </svg>
</svg>
