<?xml version="1.0" encoding="UTF-8" standalone="no"?>
<!DOCTYPE svg PUBLIC "-//W3C//DTD SVG 1.1//EN"
 "http://www.w3.org/Graphics/SVG/1.1/DTD/svg11.dtd">
<!-- Generated by graphviz version 2.40.1 (20161225.0304)
 -->
<!-- Title: statistics::Similarity::calculateVectors Pages: 1 -->
<svg width="629pt" height="253pt"
 viewBox="0.00 0.00 629.00 252.50" xmlns="http://www.w3.org/2000/svg" xmlns:xlink="http://www.w3.org/1999/xlink">
<g id="graph0" class="graph" transform="scale(1 1) rotate(0) translate(4 248.5)">
<title>statistics::Similarity::calculateVectors</title>
<polygon fill="#ffffff" stroke="transparent" points="-4,4 -4,-248.5 625,-248.5 625,4 -4,4"/>
<!-- Node94 -->
<g id="node1" class="node">
<title>Node94</title>
<g id="a_node1"><a xlink:title="Method to calculate the similarity values of a alignment matrix.">
<polygon fill="#bfbfbf" stroke="#000000" points="0,-101 0,-131 103,-131 103,-101 0,-101"/>
<text text-anchor="start" x="8" y="-119" font-family="Helvetica,sans-Serif" font-size="10.00" fill="#000000">statistics::Similarity</text>
<text text-anchor="middle" x="51.5" y="-108" font-family="Helvetica,sans-Serif" font-size="10.00" fill="#000000">::calculateVectors</text>
</a>
</g>
</g>
<!-- Node95 -->
<g id="node2" class="node">
<title>Node95</title>
<g id="a_node2"><a xlink:href="classstatistics_1_1_manager.html#a1969a416d3020d25daa56de6c5e305db" target="_top" xlink:title="Method to handle gap stat calculation It checks if the gaps submodule has been created,...">
<polygon fill="#ffffff" stroke="#000000" points="151.5,-126 151.5,-156 254.5,-156 254.5,-126 151.5,-126"/>
<text text-anchor="start" x="159.5" y="-144" font-family="Helvetica,sans-Serif" font-size="10.00" fill="#000000">statistics::Manager</text>
<text text-anchor="middle" x="203" y="-133" font-family="Helvetica,sans-Serif" font-size="10.00" fill="#000000">::calculateGapStats</text>
</a>
</g>
</g>
<!-- Node94&#45;&gt;Node95 -->
<g id="edge1" class="edge">
<title>Node94&#45;&gt;Node95</title>
<path fill="none" stroke="#191970" d="M103.214,-124.5337C115.4565,-126.5539 128.6334,-128.7283 141.2709,-130.8137"/>
<polygon fill="#191970" stroke="#191970" points="140.8256,-134.2875 151.262,-132.4624 141.9654,-127.3809 140.8256,-134.2875"/>
</g>
<!-- Node101 -->
<g id="node8" class="node">
<title>Node101</title>
<g id="a_node8"><a xlink:href="classstatistics_1_1_similarity.html#a75bd235b3207235eefa7b52dff063c76" target="_top" xlink:title="Computes the matrix identity between alignment&#39;s columns.">
<polygon fill="#ffffff" stroke="#000000" points="142.5,-214 142.5,-244 263.5,-244 263.5,-214 142.5,-214"/>
<text text-anchor="start" x="150.5" y="-232" font-family="Helvetica,sans-Serif" font-size="10.00" fill="#000000">statistics::Similarity</text>
<text text-anchor="middle" x="203" y="-221" font-family="Helvetica,sans-Serif" font-size="10.00" fill="#000000">::calculateMatrixIdentity</text>
</a>
</g>
</g>
<!-- Node94&#45;&gt;Node101 -->
<g id="edge7" class="edge">
<title>Node94&#45;&gt;Node101</title>
<path fill="none" stroke="#191970" d="M64.5344,-131.0159C80.6583,-148.9213 109.5957,-178.9406 139,-199 144.5168,-202.7635 150.5803,-206.2827 156.7088,-209.4913"/>
<polygon fill="#191970" stroke="#191970" points="155.167,-212.6334 165.6782,-213.9623 158.2899,-206.3686 155.167,-212.6334"/>
</g>
<!-- Node102 -->
<g id="node9" class="node">
<title>Node102</title>
<g id="a_node9"><a xlink:href="class_alignment.html#a1bc7622776f3935f6cb9d3c895e43a29" target="_top" xlink:title="Alignment type getter. &#160;&#160;See SequenceTypes.">
<polygon fill="#ffffff" stroke="#000000" points="305.5,-216.5 305.5,-235.5 450.5,-235.5 450.5,-216.5 305.5,-216.5"/>
<text text-anchor="middle" x="378" y="-223.5" font-family="Helvetica,sans-Serif" font-size="10.00" fill="#000000">Alignment::getAlignmentType</text>
</a>
</g>
</g>
<!-- Node94&#45;&gt;Node102 -->
<g id="edge10" class="edge">
<title>Node94&#45;&gt;Node102</title>
<path fill="none" stroke="#191970" d="M74.0275,-131.1664C91.2067,-142.1535 115.789,-156.6604 139,-166 195.6235,-188.784 263.3651,-204.8082 312.2456,-214.5305"/>
<polygon fill="#191970" stroke="#191970" points="311.5842,-217.9674 322.0698,-216.4504 312.9268,-211.0974 311.5842,-217.9674"/>
</g>
<!-- Node104 -->
<g id="node11" class="node">
<title>Node104</title>
<g id="a_node11"><a xlink:href="classstatistics_1_1similarity_matrix.html#a2a17eb464ec28ba83edbcbe271e7ff62" target="_top" xlink:title="Method to get the similarity distance between two residues, A and B Characters provided must be both ...">
<polygon fill="#ffffff" stroke="#000000" points="314,-28 314,-58 442,-58 442,-28 314,-28"/>
<text text-anchor="start" x="322" y="-46" font-family="Helvetica,sans-Serif" font-size="10.00" fill="#000000">statistics::similarityMatrix</text>
<text text-anchor="middle" x="378" y="-35" font-family="Helvetica,sans-Serif" font-size="10.00" fill="#000000">::getDistance</text>
</a>
</g>
</g>
<!-- Node94&#45;&gt;Node104 -->
<g id="edge11" class="edge">
<title>Node94&#45;&gt;Node104</title>
<path fill="none" stroke="#191970" d="M72.6535,-100.8658C89.7051,-89.5034 114.7557,-74.6403 139,-67 192.5633,-50.1202 255.912,-44.3582 303.9277,-42.6881"/>
<polygon fill="#191970" stroke="#191970" points="304.0402,-46.1864 313.932,-42.3913 303.8326,-39.1895 304.0402,-46.1864"/>
</g>
<!-- Node105 -->
<g id="node12" class="node">
<title>Node105</title>
<g id="a_node12"><a xlink:href="classstatistics_1_1_gaps.html#ab5b60db326475f8adc68b130e22b3963" target="_top" xlink:title=" ">
<polygon fill="#ffffff" stroke="#000000" points="139,-77 139,-107 267,-107 267,-77 139,-77"/>
<text text-anchor="start" x="147" y="-95" font-family="Helvetica,sans-Serif" font-size="10.00" fill="#000000">statistics::Gaps::getGaps</text>
<text text-anchor="middle" x="203" y="-84" font-family="Helvetica,sans-Serif" font-size="10.00" fill="#000000">Window</text>
</a>
</g>
</g>
<!-- Node94&#45;&gt;Node105 -->
<g id="edge13" class="edge">
<title>Node94&#45;&gt;Node105</title>
<path fill="none" stroke="#191970" d="M103.214,-107.8077C111.4698,-106.4998 120.1506,-105.1247 128.8044,-103.7538"/>
<polygon fill="#191970" stroke="#191970" points="129.5945,-107.1723 138.9236,-102.1507 128.4991,-100.2585 129.5945,-107.1723"/>
</g>
<!-- Node107 -->
<g id="node14" class="node">
<title>Node107</title>
<g id="a_node14"><a xlink:href="namespaceutils.html#a6286fde6f4dd58ef0cfa9d55341b72f8" target="_top" xlink:title=" ">
<polygon fill="#ffffff" stroke="#000000" points="165.5,-.5 165.5,-19.5 240.5,-19.5 240.5,-.5 165.5,-.5"/>
<text text-anchor="middle" x="203" y="-7.5" font-family="Helvetica,sans-Serif" font-size="10.00" fill="#000000">utils::toUpper</text>
</a>
</g>
</g>
<!-- Node94&#45;&gt;Node107 -->
<g id="edge16" class="edge">
<title>Node94&#45;&gt;Node107</title>
<path fill="none" stroke="#191970" d="M64.3111,-100.7784C80.2152,-82.7081 108.9362,-52.6758 139,-34 145.6623,-29.8613 153.1505,-26.26 160.594,-23.1943"/>
<polygon fill="#191970" stroke="#191970" points="161.8591,-26.4577 169.933,-19.5975 159.3433,-19.9254 161.8591,-26.4577"/>
</g>
<!-- Node96 -->
<g id="node3" class="node">
<title>Node96</title>
<g id="a_node3"><a xlink:href="classstatistics_1_1_gaps.html#aee36b772767467cdba2061df2305e85d" target="_top" xlink:title=" ">
<polygon fill="#ffffff" stroke="#000000" points="303,-126.5 303,-145.5 453,-145.5 453,-126.5 303,-126.5"/>
<text text-anchor="middle" x="378" y="-133.5" font-family="Helvetica,sans-Serif" font-size="10.00" fill="#000000">statistics::Gaps::applyWindow</text>
</a>
</g>
</g>
<!-- Node95&#45;&gt;Node96 -->
<g id="edge2" class="edge">
<title>Node95&#45;&gt;Node96</title>
<path fill="none" stroke="#191970" d="M254.5593,-139.5269C266.4924,-139.1859 279.5051,-138.8141 292.4604,-138.444"/>
<polygon fill="#191970" stroke="#191970" points="292.9204,-141.9324 302.8163,-138.1481 292.7204,-134.9352 292.9204,-141.9324"/>
</g>
<!-- Node100 -->
<g id="node7" class="node">
<title>Node100</title>
<g id="a_node7"><a xlink:href="classstatistics_1_1_gaps.html#aa3526494d5100e062daa4afba755d0b1" target="_top" xlink:title=" ">
<polygon fill="#ffffff" stroke="#000000" points="311.5,-165 311.5,-195 444.5,-195 444.5,-165 311.5,-165"/>
<text text-anchor="start" x="319.5" y="-183" font-family="Helvetica,sans-Serif" font-size="10.00" fill="#000000">statistics::Gaps::Calculate</text>
<text text-anchor="middle" x="378" y="-172" font-family="Helvetica,sans-Serif" font-size="10.00" fill="#000000">Vectors</text>
</a>
</g>
</g>
<!-- Node95&#45;&gt;Node100 -->
<g id="edge6" class="edge">
<title>Node95&#45;&gt;Node100</title>
<path fill="none" stroke="#191970" d="M254.5593,-152.4903C269.254,-155.7652 285.5856,-159.4048 301.4314,-162.9361"/>
<polygon fill="#191970" stroke="#191970" points="300.694,-166.3576 311.2159,-165.1167 302.2167,-159.5252 300.694,-166.3576"/>
</g>
<!-- Node97 -->
<g id="node4" class="node">
<title>Node97</title>
<g id="a_node4"><a xlink:href="namespaceutils.html#aac322cd1761fddedec8a5792e358eb32" target="_top" xlink:title="Vector initialization.">
<polygon fill="#ffffff" stroke="#000000" points="517,-107.5 517,-126.5 593,-126.5 593,-107.5 517,-107.5"/>
<text text-anchor="middle" x="555" y="-114.5" font-family="Helvetica,sans-Serif" font-size="10.00" fill="#000000">utils::initlVect</text>
</a>
</g>
</g>
<!-- Node96&#45;&gt;Node97 -->
<g id="edge3" class="edge">
<title>Node96&#45;&gt;Node97</title>
<path fill="none" stroke="#191970" d="M453.0639,-127.9423C471.3223,-125.9824 490.3618,-123.9386 506.9757,-122.1551"/>
<polygon fill="#191970" stroke="#191970" points="507.4088,-125.6289 516.9781,-121.0814 506.6616,-118.6688 507.4088,-125.6289"/>
</g>
<!-- Node98 -->
<g id="node5" class="node">
<title>Node98</title>
<g id="a_node5"><a xlink:href="classreporting_1_1report_manager.html#a6d122e673144584e0869bd33b8a5c1c6" target="_top" xlink:title="Method to report an Error. &#160;It will be displayed if Level &#160;is equal or higher to VerboseLevel::ERROR.">
<polygon fill="#ffffff" stroke="#000000" points="494,-53 494,-83 616,-83 616,-53 494,-53"/>
<text text-anchor="start" x="502" y="-71" font-family="Helvetica,sans-Serif" font-size="10.00" fill="#000000">reporting::reportManager</text>
<text text-anchor="middle" x="555" y="-60" font-family="Helvetica,sans-Serif" font-size="10.00" fill="#000000">::report</text>
</a>
</g>
</g>
<!-- Node96&#45;&gt;Node98 -->
<g id="edge4" class="edge">
<title>Node96&#45;&gt;Node98</title>
<path fill="none" stroke="#191970" d="M419.7388,-126.4776C430.7007,-123.542 442.4144,-120.0101 453,-116 469.7284,-109.6628 472.8547,-105.7025 489,-98 496.4301,-94.4553 504.3718,-90.7636 512.0787,-87.2314"/>
<polygon fill="#191970" stroke="#191970" points="513.6649,-90.3548 521.3127,-83.0225 510.7617,-83.9853 513.6649,-90.3548"/>
</g>
<!-- Node99 -->
<g id="node6" class="node">
<title>Node99</title>
<g id="a_node6"><a xlink:href="namespaceutils.html#ad50731aeb3c8f79ed8372516210dfc9d" target="_top" xlink:title="Round double to integer method.">
<polygon fill="#ffffff" stroke="#000000" points="517,-145.5 517,-164.5 593,-164.5 593,-145.5 517,-145.5"/>
<text text-anchor="middle" x="555" y="-152.5" font-family="Helvetica,sans-Serif" font-size="10.00" fill="#000000">utils::roundInt</text>
</a>
</g>
</g>
<!-- Node96&#45;&gt;Node99 -->
<g id="edge5" class="edge">
<title>Node96&#45;&gt;Node99</title>
<path fill="none" stroke="#191970" d="M453.0639,-144.0577C471.3223,-146.0176 490.3618,-148.0614 506.9757,-149.8449"/>
<polygon fill="#191970" stroke="#191970" points="506.6616,-153.3312 516.9781,-150.9186 507.4088,-146.3711 506.6616,-153.3312"/>
</g>
<!-- Node101&#45;&gt;Node102 -->
<g id="edge8" class="edge">
<title>Node101&#45;&gt;Node102</title>
<path fill="none" stroke="#191970" d="M263.7154,-227.9592C273.8896,-227.7847 284.5986,-227.6012 295.2147,-227.4192"/>
<polygon fill="#191970" stroke="#191970" points="295.4056,-230.9165 305.3441,-227.2455 295.2855,-223.9175 295.4056,-230.9165"/>
</g>
<!-- Node103 -->
<g id="node10" class="node">
<title>Node103</title>
<g id="a_node10"><a xlink:href="namespaceutils.html#aab52f9515717f06cafd6ab7fe2ebdcef" target="_top" xlink:title="Checks an alignment type.">
<polygon fill="#ffffff" stroke="#000000" points="489,-216.5 489,-235.5 621,-235.5 621,-216.5 489,-216.5"/>
<text text-anchor="middle" x="555" y="-223.5" font-family="Helvetica,sans-Serif" font-size="10.00" fill="#000000">utils::checkAlignmentType</text>
</a>
</g>
</g>
<!-- Node102&#45;&gt;Node103 -->
<g id="edge9" class="edge">
<title>Node102&#45;&gt;Node103</title>
<path fill="none" stroke="#191970" d="M450.5034,-226C459.8282,-226 469.3981,-226 478.7802,-226"/>
<polygon fill="#191970" stroke="#191970" points="478.8666,-229.5001 488.8666,-226 478.8665,-222.5001 478.8666,-229.5001"/>
</g>
<!-- Node104&#45;&gt;Node98 -->
<g id="edge12" class="edge">
<title>Node104&#45;&gt;Node98</title>
<path fill="none" stroke="#191970" d="M442.1513,-52.0609C455.6852,-53.9725 470.0429,-56.0004 483.8181,-57.9461"/>
<polygon fill="#191970" stroke="#191970" points="483.3342,-61.4124 493.7254,-59.3454 484.3132,-54.4812 483.3342,-61.4124"/>
</g>
<!-- Node105&#45;&gt;Node96 -->
<g id="edge14" class="edge">
<title>Node105&#45;&gt;Node96</title>
<path fill="none" stroke="#191970" d="M262.7356,-107.0192C284.7744,-112.5604 309.4348,-118.7607 330.2724,-123.9999"/>
<polygon fill="#191970" stroke="#191970" points="329.6149,-127.4435 340.1665,-126.4876 331.3218,-120.6548 329.6149,-127.4435"/>
</g>
<!-- Node106 -->
<g id="node13" class="node">
<title>Node106</title>
<g id="a_node13"><a xlink:href="classstatistics_1_1_gaps.html#ad812a924cf5e3f900aad3ed4a9664300" target="_top" xlink:title=" ">
<polygon fill="#ffffff" stroke="#000000" points="311.5,-77 311.5,-107 444.5,-107 444.5,-77 311.5,-77"/>
<text text-anchor="start" x="319.5" y="-95" font-family="Helvetica,sans-Serif" font-size="10.00" fill="#000000">statistics::Gaps::isDefined</text>
<text text-anchor="middle" x="378" y="-84" font-family="Helvetica,sans-Serif" font-size="10.00" fill="#000000">Window</text>
</a>
</g>
</g>
<!-- Node105&#45;&gt;Node106 -->
<g id="edge15" class="edge">
<title>Node105&#45;&gt;Node106</title>
<path fill="none" stroke="#191970" d="M267.1698,-92C278.2233,-92 289.8127,-92 301.1593,-92"/>
<polygon fill="#191970" stroke="#191970" points="301.4891,-95.5001 311.4891,-92 301.489,-88.5001 301.4891,-95.5001"/>
</g>
</g>
</svg>
