<?xml version="1.0" encoding="UTF-8" standalone="no"?>
<!DOCTYPE svg PUBLIC "-//W3C//DTD SVG 1.1//EN"
 "http://www.w3.org/Graphics/SVG/1.1/DTD/svg11.dtd">
<!-- Generated by graphviz version 2.40.1 (20161225.0304)
 -->
<!-- Title: trimAlManager::check_combinations_among_thresholds_incompatibility Pages: 1 -->
<svg width="628pt" height="50pt"
 viewBox="0.00 0.00 628.00 50.00" xmlns="http://www.w3.org/2000/svg" xmlns:xlink="http://www.w3.org/1999/xlink">
<g id="graph0" class="graph" transform="scale(1 1) rotate(0) translate(4 46)">
<title>trimAlManager::check_combinations_among_thresholds_incompatibility</title>
<polygon fill="#ffffff" stroke="transparent" points="-4,4 -4,-46 624,-46 624,4 -4,4"/>
<!-- Node158 -->
<g id="node1" class="node">
<title>Node158</title>
<polygon fill="#bfbfbf" stroke="#000000" points="0,-.5 0,-41.5 164,-41.5 164,-.5 0,-.5"/>
<text text-anchor="start" x="8" y="-29.5" font-family="Helvetica,sans-Serif" font-size="10.00" fill="#000000">trimAlManager::check</text>
<text text-anchor="start" x="8" y="-18.5" font-family="Helvetica,sans-Serif" font-size="10.00" fill="#000000">_combinations_among_thresholds</text>
<text text-anchor="middle" x="82" y="-7.5" font-family="Helvetica,sans-Serif" font-size="10.00" fill="#000000">_incompatibility</text>
</g>
<!-- Node159 -->
<g id="node2" class="node">
<title>Node159</title>
<g id="a_node2"><a xlink:href="classtrim_al_manager.html#a16d2da3f90cfe965bea5f1da1360e17a" target="_top" xlink:title="Method to check argument incompatibilities. Take in mind that an incompatibility is between two argum...">
<polygon fill="#ffffff" stroke="#000000" points="200,-6 200,-36 343,-36 343,-6 200,-6"/>
<text text-anchor="start" x="208" y="-24" font-family="Helvetica,sans-Serif" font-size="10.00" fill="#000000">trimAlManager::check</text>
<text text-anchor="middle" x="271.5" y="-13" font-family="Helvetica,sans-Serif" font-size="10.00" fill="#000000">_arguments_incompatibilities</text>
</a>
</g>
</g>
<!-- Node158&#45;&gt;Node159 -->
<g id="edge1" class="edge">
<title>Node158&#45;&gt;Node159</title>
<path fill="none" stroke="#191970" d="M174.1065,-21C182.7287,-21 191.3801,-21 199.7748,-21"/>
<polygon fill="#191970" stroke="#191970" points="174.0153,-17.5001 164.0153,-21 174.0153,-24.5001 174.0153,-17.5001"/>
</g>
<!-- Node160 -->
<g id="node3" class="node">
<title>Node160</title>
<g id="a_node3"><a xlink:href="classtrim_al_manager.html#a748b08a1ec5cd214de804ed0d4234a6e" target="_top" xlink:title="Method to process the information obtained by trimAlManager::parseArguments It checks for argument in...">
<polygon fill="#ffffff" stroke="#000000" points="379,-11.5 379,-30.5 546,-30.5 546,-11.5 379,-11.5"/>
<text text-anchor="middle" x="462.5" y="-18.5" font-family="Helvetica,sans-Serif" font-size="10.00" fill="#000000">trimAlManager::processArguments</text>
</a>
</g>
</g>
<!-- Node159&#45;&gt;Node160 -->
<g id="edge2" class="edge">
<title>Node159&#45;&gt;Node160</title>
<path fill="none" stroke="#191970" d="M353.3706,-21C361.8114,-21 370.3973,-21 378.857,-21"/>
<polygon fill="#191970" stroke="#191970" points="353.1648,-17.5001 343.1648,-21 353.1647,-24.5001 353.1648,-17.5001"/>
</g>
<!-- Node161 -->
<g id="node4" class="node">
<title>Node161</title>
<g id="a_node4"><a xlink:href="trim_al_main_8cpp.html#a0ddf1224851353fc92bfbff6f499fa97" target="_top" xlink:title="main">
<polygon fill="#ffffff" stroke="#000000" points="582,-11.5 582,-30.5 620,-30.5 620,-11.5 582,-11.5"/>
<text text-anchor="middle" x="601" y="-18.5" font-family="Helvetica,sans-Serif" font-size="10.00" fill="#000000">main</text>
</a>
</g>
</g>
<!-- Node160&#45;&gt;Node161 -->
<g id="edge3" class="edge">
<title>Node160&#45;&gt;Node161</title>
<path fill="none" stroke="#191970" d="M556.301,-21C565.7267,-21 574.4553,-21 581.6511,-21"/>
<polygon fill="#191970" stroke="#191970" points="556.2612,-17.5001 546.2611,-21 556.2611,-24.5001 556.2612,-17.5001"/>
</g>
</g>
</svg>
