<?xml version="1.0" encoding="UTF-8" standalone="no"?>
<!DOCTYPE svg PUBLIC "-//W3C//DTD SVG 1.1//EN"
 "http://www.w3.org/Graphics/SVG/1.1/DTD/svg11.dtd">
<!-- Generated by graphviz version 2.38.0 (20140413.2041)
 -->
<!-- Title: picojson::input&lt; Iter &gt; Pages: 1 -->
<svg width="166pt" height="106pt"
 viewBox="0.00 0.00 165.50 106.00" xmlns="http://www.w3.org/2000/svg" xmlns:xlink="http://www.w3.org/1999/xlink">
<g id="graph0" class="graph" transform="scale(1 1) rotate(0) translate(4 102)">
<title>picojson::input&lt; Iter &gt;</title>
<polygon fill="white" stroke="none" points="-4,4 -4,-102 161.5,-102 161.5,4 -4,4"/>
<!-- Node1 -->
<g id="node1" class="node"><title>Node1</title>
<polygon fill="#bfbfbf" stroke="black" points="7.5,-0.5 7.5,-19.5 119.5,-19.5 119.5,-0.5 7.5,-0.5"/>
<text text-anchor="middle" x="63.5" y="-7.5" font-family="Helvetica,sans-Serif" font-size="10.00">picojson::input&lt; Iter &gt;</text>
</g>
<!-- Node2 -->
<g id="node2" class="node"><title>Node2</title>
<polygon fill="white" stroke="#bfbfbf" points="0,-78.5 0,-97.5 31,-97.5 31,-78.5 0,-78.5"/>
<text text-anchor="middle" x="15.5" y="-85.5" font-family="Helvetica,sans-Serif" font-size="10.00">Iter</text>
</g>
<!-- Node2&#45;&gt;Node1 -->
<g id="edge1" class="edge"><title>Node2&#45;&gt;Node1</title>
<path fill="none" stroke="#9a32cd" stroke-dasharray="5,2" d="M20.4199,-68.7092C23.5341,-59.0634 28.1786,-47.3298 34.5,-38 39.2847,-30.9383 46.2382,-24.3829 52.1368,-19.5001"/>
<polygon fill="#9a32cd" stroke="#9a32cd" points="17.0121,-67.8919 17.5464,-78.4733 23.7273,-69.8683 17.0121,-67.8919"/>
<text text-anchor="middle" x="47" y="-52" font-family="Helvetica,sans-Serif" font-size="10.00"> end_</text>
<text text-anchor="middle" x="47" y="-41" font-family="Helvetica,sans-Serif" font-size="10.00">cur_</text>
</g>
<!-- Node3 -->
<g id="node3" class="node"><title>Node3</title>
<polygon fill="white" stroke="#bfbfbf" points="49,-78.5 49,-97.5 78,-97.5 78,-78.5 49,-78.5"/>
<text text-anchor="middle" x="63.5" y="-85.5" font-family="Helvetica,sans-Serif" font-size="10.00">int</text>
</g>
<!-- Node3&#45;&gt;Node1 -->
<g id="edge2" class="edge"><title>Node3&#45;&gt;Node1</title>
<path fill="none" stroke="#9a32cd" stroke-dasharray="5,2" d="M63.5,-68.2239C63.5,-52.6974 63.5,-31.3582 63.5,-19.6165"/>
<polygon fill="#9a32cd" stroke="#9a32cd" points="60.0001,-68.2818 63.5,-78.2818 67.0001,-68.2819 60.0001,-68.2818"/>
<text text-anchor="middle" x="75.5" y="-46.5" font-family="Helvetica,sans-Serif" font-size="10.00"> line_</text>
</g>
<!-- Node4 -->
<g id="node4" class="node"><title>Node4</title>
<polygon fill="white" stroke="#bfbfbf" points="96,-78.5 96,-97.5 131,-97.5 131,-78.5 96,-78.5"/>
<text text-anchor="middle" x="113.5" y="-85.5" font-family="Helvetica,sans-Serif" font-size="10.00">bool</text>
</g>
<!-- Node4&#45;&gt;Node1 -->
<g id="edge3" class="edge"><title>Node4&#45;&gt;Node1</title>
<path fill="none" stroke="#9a32cd" stroke-dasharray="5,2" d="M107.232,-68.7506C103.466,-59.1322 98.117,-47.4114 91.5,-38 86.6838,-31.1499 79.964,-24.6011 74.3146,-19.6689"/>
<polygon fill="#9a32cd" stroke="#9a32cd" points="103.952,-69.9715 110.683,-78.1535 110.523,-67.5599 103.952,-69.9715"/>
<text text-anchor="middle" x="130.5" y="-46.5" font-family="Helvetica,sans-Serif" font-size="10.00"> consumed_</text>
</g>
</g>
</svg>
