<?xml version="1.0" encoding="UTF-8" standalone="no"?>
<!DOCTYPE svg PUBLIC "-//W3C//DTD SVG 1.1//EN"
 "http://www.w3.org/Graphics/SVG/1.1/DTD/svg11.dtd">
<!-- Generated by graphviz version 2.38.0 (20140413.2041)
 -->
<!-- Title: sequencesMatrix Pages: 1 -->
<svg width="1241pt" height="902pt"
 viewBox="0.00 0.00 1241.00 901.50" xmlns="http://www.w3.org/2000/svg" xmlns:xlink="http://www.w3.org/1999/xlink">
<g id="graph0" class="graph" transform="scale(1 1) rotate(0) translate(4 897.5)">
<title>sequencesMatrix</title>
<polygon fill="white" stroke="none" points="-4,4 -4,-897.5 1237,-897.5 1237,4 -4,4"/>
<!-- Node1 -->
<g id="node1" class="node"><title>Node1</title>
<polygon fill="#bfbfbf" stroke="black" points="459.5,-514 459.5,-533 550.5,-533 550.5,-514 459.5,-514"/>
<text text-anchor="middle" x="505" y="-521" font-family="Helvetica,sans-Serif" font-size="10.00">sequencesMatrix</text>
</g>
<!-- Node2 -->
<g id="node2" class="node"><title>Node2</title>
<g id="a_node2"><a xlink:href="classnew_alignment.html" target="_top" xlink:title="Class containing an alignment &#160;This class stores the alignment sequences with it&#39;s names...">
<polygon fill="white" stroke="black" points="699.5,-524 699.5,-543 777.5,-543 777.5,-524 699.5,-524"/>
<text text-anchor="middle" x="738.5" y="-531" font-family="Helvetica,sans-Serif" font-size="10.00">newAlignment</text>
</a>
</g>
</g>
<!-- Node1&#45;&gt;Node2 -->
<g id="edge2" class="edge"><title>Node1&#45;&gt;Node2</title>
<path fill="none" stroke="#9a32cd" stroke-dasharray="5,2" d="M560.836,-518.316C594.948,-516.059 639.659,-514.858 679,-519.5 687.089,-520.454 695.68,-522.127 703.716,-523.991"/>
<polygon fill="#9a32cd" stroke="#9a32cd" points="560.333,-514.843 550.607,-519.045 560.831,-521.825 560.333,-514.843"/>
<text text-anchor="middle" x="626.5" y="-522.5" font-family="Helvetica,sans-Serif" font-size="10.00"> SequencesMatrix</text>
</g>
<!-- Node2&#45;&gt;Node1 -->
<g id="edge1" class="edge"><title>Node2&#45;&gt;Node1</title>
<path fill="none" stroke="#9a32cd" stroke-dasharray="5,2" d="M689.297,-534.79C656.704,-535.273 612.713,-535.17 574,-532.5 566.397,-531.976 558.345,-531.151 550.544,-530.209"/>
<polygon fill="#9a32cd" stroke="#9a32cd" points="689.519,-538.287 699.457,-534.615 689.398,-531.288 689.519,-538.287"/>
<text text-anchor="middle" x="626.5" y="-538.5" font-family="Helvetica,sans-Serif" font-size="10.00"> _alignment</text>
</g>
<!-- Node4 -->
<g id="node4" class="node"><title>Node4</title>
<g id="a_node4"><a xlink:href="class_cleaner.html" target="_top" xlink:title="Submodule contained by newAlignment . ">
<polygon fill="white" stroke="black" points="961,-531 961,-550 1011,-550 1011,-531 961,-531"/>
<text text-anchor="middle" x="986" y="-538" font-family="Helvetica,sans-Serif" font-size="10.00">Cleaner</text>
</a>
</g>
</g>
<!-- Node2&#45;&gt;Node4 -->
<g id="edge5" class="edge"><title>Node2&#45;&gt;Node4</title>
<path fill="none" stroke="#9a32cd" stroke-dasharray="5,2" d="M787.586,-544.167C791.098,-544.699 794.596,-545.154 798,-545.5 856.16,-551.404 924.982,-546.533 960.72,-543.121"/>
<polygon fill="#9a32cd" stroke="#9a32cd" points="788.164,-540.715 777.719,-542.494 786.994,-547.616 788.164,-540.715"/>
<text text-anchor="middle" x="854.5" y="-551.5" font-family="Helvetica,sans-Serif" font-size="10.00"> _alignment</text>
</g>
<!-- Node9 -->
<g id="node9" class="node"><title>Node9</title>
<g id="a_node9"><a xlink:href="class_statistics_manager.html" target="_top" xlink:title="Class to handle the interaction with statistics and statistics objects. ">
<polygon fill="white" stroke="black" points="1138,-584 1138,-603 1233,-603 1233,-584 1138,-584"/>
<text text-anchor="middle" x="1185.5" y="-591" font-family="Helvetica,sans-Serif" font-size="10.00">StatisticsManager</text>
</a>
</g>
</g>
<!-- Node2&#45;&gt;Node9 -->
<g id="edge13" class="edge"><title>Node2&#45;&gt;Node9</title>
<path fill="none" stroke="#9a32cd" stroke-dasharray="5,2" d="M753.213,-550.972C764.01,-563.46 780.175,-579.576 798,-588.5 926.266,-652.72 977.867,-629.855 1120,-610.5 1131.47,-608.937 1143.83,-606.002 1154.62,-603.004"/>
<polygon fill="#9a32cd" stroke="#9a32cd" points="755.716,-548.506 746.641,-543.038 750.325,-552.972 755.716,-548.506"/>
<text text-anchor="middle" x="986" y="-634.5" font-family="Helvetica,sans-Serif" font-size="10.00"> _alignment</text>
</g>
<!-- Node10 -->
<g id="node10" class="node"><title>Node10</title>
<g id="a_node10"><a xlink:href="classstatistics_gaps.html" target="_top" xlink:title="Class to handle Gaps statistics. ">
<polygon fill="white" stroke="black" points="946,-753 946,-772 1026,-772 1026,-753 946,-753"/>
<text text-anchor="middle" x="986" y="-760" font-family="Helvetica,sans-Serif" font-size="10.00">statisticsGaps</text>
</a>
</g>
</g>
<!-- Node2&#45;&gt;Node10 -->
<g id="edge15" class="edge"><title>Node2&#45;&gt;Node10</title>
<path fill="none" stroke="#9a32cd" stroke-dasharray="5,2" d="M744.896,-552.805C752.903,-578.571 770.067,-624.437 798,-654.5 844.19,-704.211 918.545,-737.616 958.147,-752.923"/>
<polygon fill="#9a32cd" stroke="#9a32cd" points="748.216,-551.692 742.02,-543.098 741.505,-553.68 748.216,-551.692"/>
<text text-anchor="middle" x="854.5" y="-732.5" font-family="Helvetica,sans-Serif" font-size="10.00"> _alignment</text>
</g>
<!-- Node11 -->
<g id="node11" class="node"><title>Node11</title>
<g id="a_node11"><a xlink:href="classstatistics_conservation.html" target="_top" xlink:title="Class to handle Conservation / Similarity statistics. ">
<polygon fill="white" stroke="black" points="929,-344 929,-363 1043,-363 1043,-344 929,-344"/>
<text text-anchor="middle" x="986" y="-351" font-family="Helvetica,sans-Serif" font-size="10.00">statisticsConservation</text>
</a>
</g>
</g>
<!-- Node2&#45;&gt;Node11 -->
<g id="edge19" class="edge"><title>Node2&#45;&gt;Node11</title>
<path fill="none" stroke="#9a32cd" stroke-dasharray="5,2" d="M768.35,-519.197C803.692,-501.015 864.58,-467.508 911,-430.5 937.675,-409.234 964.233,-378.759 977.062,-363.3"/>
<polygon fill="#9a32cd" stroke="#9a32cd" points="766.417,-516.254 759.093,-523.909 769.592,-522.492 766.417,-516.254"/>
<text text-anchor="middle" x="854.5" y="-506.5" font-family="Helvetica,sans-Serif" font-size="10.00"> _alignment</text>
</g>
<!-- Node15 -->
<g id="node15" class="node"><title>Node15</title>
<g id="a_node15"><a xlink:href="classstatistics_consistency.html" target="_top" xlink:title="Helper class to handle the comparison between alignments. It also handles Consistency staticstics...">
<polygon fill="white" stroke="black" points="930.5,-153 930.5,-172 1041.5,-172 1041.5,-153 930.5,-153"/>
<text text-anchor="middle" x="986" y="-160" font-family="Helvetica,sans-Serif" font-size="10.00">statisticsConsistency</text>
</a>
</g>
</g>
<!-- Node2&#45;&gt;Node15 -->
<g id="edge27" class="edge"><title>Node2&#45;&gt;Node15</title>
<path fill="none" stroke="#9a32cd" stroke-dasharray="5,2" d="M755.845,-516.049C764.196,-506.265 773.863,-493.45 780,-480.5 794.865,-449.132 772.966,-428.546 798,-404.5 834.9,-369.057 872.51,-416.211 911,-382.5 915.235,-378.791 968.479,-213.872 981.93,-172.058"/>
<polygon fill="#9a32cd" stroke="#9a32cd" points="752.99,-513.993 748.967,-523.794 758.224,-518.641 752.99,-513.993"/>
<text text-anchor="middle" x="854.5" y="-418.5" font-family="Helvetica,sans-Serif" font-size="10.00"> compareAlignmentsArray</text>
<text text-anchor="middle" x="854.5" y="-407.5" font-family="Helvetica,sans-Serif" font-size="10.00">_alignment</text>
</g>
<!-- Node3 -->
<g id="node3" class="node"><title>Node3</title>
<polygon fill="white" stroke="#bfbfbf" points="487.5,-385 487.5,-404 522.5,-404 522.5,-385 487.5,-385"/>
<text text-anchor="middle" x="505" y="-392" font-family="Helvetica,sans-Serif" font-size="10.00">float</text>
</g>
<!-- Node3&#45;&gt;Node2 -->
<g id="edge3" class="edge"><title>Node3&#45;&gt;Node2</title>
<path fill="none" stroke="#9a32cd" stroke-dasharray="5,2" d="M532.153,-403.97C544.765,-408.475 560.131,-413.875 574,-418.5 620.405,-433.976 640.353,-421.512 679,-451.5 690.985,-460.8 688.385,-468.014 697,-480.5 707.786,-496.132 721.374,-513.486 729.747,-523.941"/>
<polygon fill="#9a32cd" stroke="#9a32cd" points="533.306,-400.665 522.711,-400.581 530.941,-407.253 533.306,-400.665"/>
<text text-anchor="middle" x="626.5" y="-465.5" font-family="Helvetica,sans-Serif" font-size="10.00"> identities</text>
<text text-anchor="middle" x="626.5" y="-454.5" font-family="Helvetica,sans-Serif" font-size="10.00">overlaps</text>
</g>
<!-- Node14 -->
<g id="node14" class="node"><title>Node14</title>
<g id="a_node14"><a xlink:href="classsimilarity_matrix.html" target="_top" xlink:title="Class that contains the similarity information of an alignment. ">
<polygon fill="white" stroke="black" points="697,-376 697,-395 780,-395 780,-376 697,-376"/>
<text text-anchor="middle" x="738.5" y="-383" font-family="Helvetica,sans-Serif" font-size="10.00">similarityMatrix</text>
</a>
</g>
</g>
<!-- Node3&#45;&gt;Node14 -->
<g id="edge24" class="edge"><title>Node3&#45;&gt;Node14</title>
<path fill="none" stroke="#9a32cd" stroke-dasharray="5,2" d="M532.751,-393.46C572.977,-391.896 649.349,-388.927 696.595,-387.09"/>
<polygon fill="#9a32cd" stroke="#9a32cd" points="532.505,-389.967 522.649,-393.853 532.777,-396.962 532.505,-389.967"/>
<text text-anchor="middle" x="626.5" y="-406.5" font-family="Helvetica,sans-Serif" font-size="10.00"> distMat</text>
<text text-anchor="middle" x="626.5" y="-395.5" font-family="Helvetica,sans-Serif" font-size="10.00">simMat</text>
</g>
<!-- Node4&#45;&gt;Node2 -->
<g id="edge4" class="edge"><title>Node4&#45;&gt;Node2</title>
<path fill="none" stroke="#9a32cd" stroke-dasharray="5,2" d="M950.689,-537.179C938.206,-536.113 923.978,-535.063 911,-534.5 865.19,-532.512 812.433,-532.554 777.665,-532.903"/>
<polygon fill="#9a32cd" stroke="#9a32cd" points="950.428,-540.669 960.698,-538.067 951.047,-533.697 950.428,-540.669"/>
<text text-anchor="middle" x="854.5" y="-537.5" font-family="Helvetica,sans-Serif" font-size="10.00"> Cleaning</text>
</g>
<!-- Node5 -->
<g id="node5" class="node"><title>Node5</title>
<polygon fill="white" stroke="#bfbfbf" points="299,-537 299,-556 328,-556 328,-537 299,-537"/>
<text text-anchor="middle" x="313.5" y="-544" font-family="Helvetica,sans-Serif" font-size="10.00">int</text>
</g>
<!-- Node5&#45;&gt;Node1 -->
<g id="edge40" class="edge"><title>Node5&#45;&gt;Node1</title>
<path fill="none" stroke="#9a32cd" stroke-dasharray="5,2" d="M337.675,-536.208C349.982,-531.299 365.52,-525.968 380,-523.5 405.997,-519.068 435.507,-518.878 459.215,-519.885"/>
<polygon fill="#9a32cd" stroke="#9a32cd" points="336.076,-533.083 328.191,-540.16 338.768,-539.544 336.076,-533.083"/>
<text text-anchor="middle" x="408" y="-548.5" font-family="Helvetica,sans-Serif" font-size="10.00"> matrix</text>
<text text-anchor="middle" x="408" y="-537.5" font-family="Helvetica,sans-Serif" font-size="10.00">seqsNumber</text>
<text text-anchor="middle" x="408" y="-526.5" font-family="Helvetica,sans-Serif" font-size="10.00">resNumber</text>
</g>
<!-- Node5&#45;&gt;Node2 -->
<g id="edge8" class="edge"><title>Node5&#45;&gt;Node2</title>
<path fill="none" stroke="#9a32cd" stroke-dasharray="5,2" d="M338.223,-551.008C350.62,-553.139 366.072,-555.443 380,-556.5 457.281,-562.365 570.303,-567.345 679,-550.5 689.347,-548.896 700.44,-545.991 710.155,-543.03"/>
<polygon fill="#9a32cd" stroke="#9a32cd" points="338.692,-547.537 328.231,-549.217 337.456,-554.427 338.692,-547.537"/>
<text text-anchor="middle" x="505" y="-642.5" font-family="Helvetica,sans-Serif" font-size="10.00"> originalSequenNumber</text>
<text text-anchor="middle" x="505" y="-631.5" font-family="Helvetica,sans-Serif" font-size="10.00">saveSequences</text>
<text text-anchor="middle" x="505" y="-620.5" font-family="Helvetica,sans-Serif" font-size="10.00">SeqRef</text>
<text text-anchor="middle" x="505" y="-609.5" font-family="Helvetica,sans-Serif" font-size="10.00">dataType</text>
<text text-anchor="middle" x="505" y="-598.5" font-family="Helvetica,sans-Serif" font-size="10.00">saveResidues</text>
<text text-anchor="middle" x="505" y="-587.5" font-family="Helvetica,sans-Serif" font-size="10.00">residNumber</text>
<text text-anchor="middle" x="505" y="-576.5" font-family="Helvetica,sans-Serif" font-size="10.00">sequenNumber</text>
<text text-anchor="middle" x="505" y="-565.5" font-family="Helvetica,sans-Serif" font-size="10.00">originalResidNumber</text>
</g>
<!-- Node5&#45;&gt;Node4 -->
<g id="edge6" class="edge"><title>Node5&#45;&gt;Node4</title>
<path fill="none" stroke="#9a32cd" stroke-dasharray="5,2" d="M329.402,-563.72C352.853,-589.347 401.174,-636.441 454,-654.5 651.173,-721.905 903.645,-587.972 968.994,-550.09"/>
<polygon fill="#9a32cd" stroke="#9a32cd" points="331.965,-561.335 322.688,-556.217 326.749,-566.003 331.965,-561.335"/>
<text text-anchor="middle" x="626.5" y="-698.5" font-family="Helvetica,sans-Serif" font-size="10.00"> right_boundary</text>
<text text-anchor="middle" x="626.5" y="-687.5" font-family="Helvetica,sans-Serif" font-size="10.00">blockSize</text>
<text text-anchor="middle" x="626.5" y="-676.5" font-family="Helvetica,sans-Serif" font-size="10.00">left_boundary</text>
</g>
<!-- Node5&#45;&gt;Node9 -->
<g id="edge17" class="edge"><title>Node5&#45;&gt;Node9</title>
<path fill="none" stroke="#9a32cd" stroke-dasharray="5,2" d="M323.204,-565.192C345.917,-610.879 411.681,-724.5 504,-724.5 504,-724.5 504,-724.5 987,-724.5 1074.64,-724.5 1153.17,-633.812 1177.07,-603.346"/>
<polygon fill="#9a32cd" stroke="#9a32cd" points="326.299,-563.551 318.797,-556.07 319.996,-566.597 326.299,-563.551"/>
<text text-anchor="middle" x="738.5" y="-738.5" font-family="Helvetica,sans-Serif" font-size="10.00"> shWindow</text>
<text text-anchor="middle" x="738.5" y="-727.5" font-family="Helvetica,sans-Serif" font-size="10.00">ghWindow</text>
</g>
<!-- Node5&#45;&gt;Node10 -->
<g id="edge16" class="edge"><title>Node5&#45;&gt;Node10</title>
<path fill="none" stroke="#9a32cd" stroke-dasharray="5,2" d="M314.487,-566.332C315.658,-606.512 324.636,-697.207 380,-738.5 559.477,-872.363 859.12,-800.084 954.718,-772.026"/>
<polygon fill="#9a32cd" stroke="#9a32cd" points="317.985,-566.158 314.331,-556.213 310.985,-566.266 317.985,-566.158"/>
<text text-anchor="middle" x="626.5" y="-885.5" font-family="Helvetica,sans-Serif" font-size="10.00"> numColumnsWithGaps</text>
<text text-anchor="middle" x="626.5" y="-874.5" font-family="Helvetica,sans-Serif" font-size="10.00">refCounter</text>
<text text-anchor="middle" x="626.5" y="-863.5" font-family="Helvetica,sans-Serif" font-size="10.00">halfWindow</text>
<text text-anchor="middle" x="626.5" y="-852.5" font-family="Helvetica,sans-Serif" font-size="10.00">gapsWindow</text>
<text text-anchor="middle" x="626.5" y="-841.5" font-family="Helvetica,sans-Serif" font-size="10.00">maxGaps</text>
<text text-anchor="middle" x="626.5" y="-830.5" font-family="Helvetica,sans-Serif" font-size="10.00">gapsInColumn</text>
<text text-anchor="middle" x="626.5" y="-819.5" font-family="Helvetica,sans-Serif" font-size="10.00">aminosXInColumn</text>
</g>
<!-- Node5&#45;&gt;Node11 -->
<g id="edge21" class="edge"><title>Node5&#45;&gt;Node11</title>
<path fill="none" stroke="#9a32cd" stroke-dasharray="5,2" d="M323.958,-527.786C353.515,-469.457 442.839,-294.361 454,-286.5 513.351,-244.698 715.069,-233.035 780,-265.5 791.926,-271.463 787.215,-281.661 798,-289.5 810.941,-298.907 904.274,-328.575 953.997,-343.99"/>
<polygon fill="#9a32cd" stroke="#9a32cd" points="320.704,-526.466 319.311,-536.968 326.95,-529.627 320.704,-526.466"/>
<text text-anchor="middle" x="626.5" y="-266.5" font-family="Helvetica,sans-Serif" font-size="10.00"> refCounter</text>
<text text-anchor="middle" x="626.5" y="-255.5" font-family="Helvetica,sans-Serif" font-size="10.00">halfWindow</text>
</g>
<!-- Node5&#45;&gt;Node14 -->
<g id="edge25" class="edge"><title>Node5&#45;&gt;Node14</title>
<path fill="none" stroke="#9a32cd" stroke-dasharray="5,2" d="M337.82,-535.994C369.66,-521.155 424.149,-493.827 436,-475.5 456.509,-443.786 425.915,-331.752 454,-306.5 491.299,-272.962 637.461,-296.384 679,-324.5 692.194,-333.43 686.38,-343.624 697,-355.5 704.116,-363.457 713.648,-370.644 721.676,-375.987"/>
<polygon fill="#9a32cd" stroke="#9a32cd" points="335.983,-532.986 328.361,-540.346 338.909,-539.346 335.983,-532.986"/>
<text text-anchor="middle" x="505" y="-320.5" font-family="Helvetica,sans-Serif" font-size="10.00"> numPositions</text>
<text text-anchor="middle" x="505" y="-309.5" font-family="Helvetica,sans-Serif" font-size="10.00">vhash</text>
</g>
<!-- Node5&#45;&gt;Node15 -->
<g id="edge35" class="edge"><title>Node5&#45;&gt;Node15</title>
<path fill="none" stroke="#9a32cd" stroke-dasharray="5,2" d="M325.86,-527.961C336.937,-508.972 353.343,-478.244 362,-449.5 379.837,-390.275 349.826,-365.494 380,-311.5 390.663,-292.419 539.529,-168.704 574,-155.5 703.787,-105.787 873.963,-135.763 947.965,-152.952"/>
<polygon fill="#9a32cd" stroke="#9a32cd" points="322.736,-526.367 320.622,-536.749 328.749,-529.951 322.736,-526.367"/>
<text text-anchor="middle" x="626.5" y="-235.5" font-family="Helvetica,sans-Serif" font-size="10.00"> refCounter</text>
<text text-anchor="middle" x="626.5" y="-224.5" font-family="Helvetica,sans-Serif" font-size="10.00">residues</text>
<text text-anchor="middle" x="626.5" y="-213.5" font-family="Helvetica,sans-Serif" font-size="10.00">i</text>
<text text-anchor="middle" x="626.5" y="-202.5" font-family="Helvetica,sans-Serif" font-size="10.00">halfWindow</text>
<text text-anchor="middle" x="626.5" y="-191.5" font-family="Helvetica,sans-Serif" font-size="10.00">prevType</text>
<text text-anchor="middle" x="626.5" y="-180.5" font-family="Helvetica,sans-Serif" font-size="10.00">numFiles</text>
<text text-anchor="middle" x="626.5" y="-169.5" font-family="Helvetica,sans-Serif" font-size="10.00">maxAminos</text>
<text text-anchor="middle" x="626.5" y="-158.5" font-family="Helvetica,sans-Serif" font-size="10.00">referFile</text>
</g>
<!-- Node6 -->
<g id="node6" class="node"><title>Node6</title>
<polygon fill="white" stroke="#bfbfbf" points="487.5,-338 487.5,-357 522.5,-357 522.5,-338 487.5,-338"/>
<text text-anchor="middle" x="505" y="-345" font-family="Helvetica,sans-Serif" font-size="10.00">bool</text>
</g>
<!-- Node6&#45;&gt;Node2 -->
<g id="edge11" class="edge"><title>Node6&#45;&gt;Node2</title>
<path fill="none" stroke="#9a32cd" stroke-dasharray="5,2" d="M532.737,-347.816C576.055,-348.913 658.78,-353.63 679,-373.5 713.396,-407.3 677.796,-436.265 697,-480.5 704.379,-497.496 718.354,-513.95 727.798,-523.901"/>
<polygon fill="#9a32cd" stroke="#9a32cd" points="532.705,-344.315 522.635,-347.608 532.561,-351.313 532.705,-344.315"/>
<text text-anchor="middle" x="626.5" y="-376.5" font-family="Helvetica,sans-Serif" font-size="10.00"> isAligned</text>
</g>
<!-- Node6&#45;&gt;Node4 -->
<g id="edge7" class="edge"><title>Node6&#45;&gt;Node4</title>
<path fill="none" stroke="#9a32cd" stroke-dasharray="5,2" d="M532.709,-339.716C569.478,-330.739 636.011,-320.943 679,-352.5 698.715,-366.972 680.687,-386.279 697,-404.5 764.322,-479.698 820.655,-435.502 911,-480.5 937.353,-493.625 962.835,-517.506 975.916,-530.84"/>
<polygon fill="#9a32cd" stroke="#9a32cd" points="531.537,-336.405 522.741,-342.311 533.301,-343.179 531.537,-336.405"/>
<text text-anchor="middle" x="738.5" y="-466.5" font-family="Helvetica,sans-Serif" font-size="10.00"> keepSequences</text>
<text text-anchor="middle" x="738.5" y="-455.5" font-family="Helvetica,sans-Serif" font-size="10.00">terminalGapOnly</text>
</g>
<!-- Node6&#45;&gt;Node15 -->
<g id="edge36" class="edge"><title>Node6&#45;&gt;Node15</title>
<path fill="none" stroke="#9a32cd" stroke-dasharray="5,2" d="M532.539,-339.787C540.138,-337.512 548.416,-334.968 556,-332.5 664.402,-297.223 688.774,-280.135 798,-247.5 847.576,-232.688 864.401,-241.988 911,-219.5 936.705,-207.095 962.042,-184.806 975.368,-172.086"/>
<polygon fill="#9a32cd" stroke="#9a32cd" points="531.322,-336.498 522.727,-342.692 533.309,-343.21 531.322,-336.498"/>
<text text-anchor="middle" x="738.5" y="-284.5" font-family="Helvetica,sans-Serif" font-size="10.00"> appearErrors</text>
</g>
<!-- Node7 -->
<g id="node7" class="node"><title>Node7</title>
<g id="a_node7"><a xlink:title="STL class. ">
<polygon fill="white" stroke="#bfbfbf" points="283.5,-421 283.5,-440 343.5,-440 343.5,-421 283.5,-421"/>
<text text-anchor="middle" x="313.5" y="-428" font-family="Helvetica,sans-Serif" font-size="10.00">std::string</text>
</a>
</g>
</g>
<!-- Node7&#45;&gt;Node1 -->
<g id="edge41" class="edge"><title>Node7&#45;&gt;Node1</title>
<path fill="none" stroke="#9a32cd" stroke-dasharray="5,2" d="M343.128,-444.783C371.294,-458.807 415.543,-480.76 454,-499.5 463.868,-504.308 474.862,-509.594 484.023,-513.977"/>
<polygon fill="#9a32cd" stroke="#9a32cd" points="344.384,-441.499 333.872,-440.172 341.262,-447.764 344.384,-441.499"/>
<text text-anchor="middle" x="408" y="-493.5" font-family="Helvetica,sans-Serif" font-size="10.00"> seqsName</text>
</g>
<!-- Node7&#45;&gt;Node2 -->
<g id="edge9" class="edge"><title>Node7&#45;&gt;Node2</title>
<path fill="none" stroke="#9a32cd" stroke-dasharray="5,2" d="M353.935,-424.157C404.19,-418.092 492.183,-414.396 556,-449.5 567.682,-455.926 563.301,-465.543 574,-473.5 576.873,-475.637 665.082,-507.487 710.715,-523.89"/>
<polygon fill="#9a32cd" stroke="#9a32cd" points="353.271,-420.714 343.806,-425.474 354.174,-427.655 353.271,-420.714"/>
<text text-anchor="middle" x="505" y="-496.5" font-family="Helvetica,sans-Serif" font-size="10.00"> seqsName</text>
<text text-anchor="middle" x="505" y="-485.5" font-family="Helvetica,sans-Serif" font-size="10.00">seqsInfo</text>
<text text-anchor="middle" x="505" y="-474.5" font-family="Helvetica,sans-Serif" font-size="10.00">sequences</text>
<text text-anchor="middle" x="505" y="-463.5" font-family="Helvetica,sans-Serif" font-size="10.00">aligInfo</text>
<text text-anchor="middle" x="505" y="-452.5" font-family="Helvetica,sans-Serif" font-size="10.00">filename</text>
</g>
<!-- Node7&#45;&gt;Node15 -->
<g id="edge37" class="edge"><title>Node7&#45;&gt;Node15</title>
<path fill="none" stroke="#9a32cd" stroke-dasharray="5,2" d="M315.637,-410.807C319.682,-348.179 335.593,-155.377 380,-115.5 467.796,-36.6597 799.131,-77.9575 911,-115.5 935.529,-123.732 960.113,-141.757 973.862,-152.938"/>
<polygon fill="#9a32cd" stroke="#9a32cd" points="312.135,-410.724 315.015,-420.92 319.122,-411.153 312.135,-410.724"/>
<text text-anchor="middle" x="626.5" y="-77.5" font-family="Helvetica,sans-Serif" font-size="10.00"> nline</text>
</g>
<!-- Node8 -->
<g id="node8" class="node"><title>Node8</title>
<g id="a_node8"><a xlink:title="STL class. ">
<polygon fill="white" stroke="#bfbfbf" points="122.5,-415.5 122.5,-445.5 217.5,-445.5 217.5,-415.5 122.5,-415.5"/>
<text text-anchor="start" x="130.5" y="-433.5" font-family="Helvetica,sans-Serif" font-size="10.00">std::basic_string&lt;</text>
<text text-anchor="middle" x="170" y="-422.5" font-family="Helvetica,sans-Serif" font-size="10.00"> char &gt;</text>
</a>
</g>
</g>
<!-- Node8&#45;&gt;Node7 -->
<g id="edge10" class="edge"><title>Node8&#45;&gt;Node7</title>
<path fill="none" stroke="midnightblue" d="M227.787,-430.5C246.761,-430.5 267.132,-430.5 283.141,-430.5"/>
<polygon fill="midnightblue" stroke="midnightblue" points="227.725,-427 217.725,-430.5 227.725,-434 227.725,-427"/>
</g>
<!-- Node9&#45;&gt;Node2 -->
<g id="edge12" class="edge"><title>Node9&#45;&gt;Node2</title>
<path fill="none" stroke="#9a32cd" stroke-dasharray="5,2" d="M1127.59,-596.003C1051.12,-597.818 911.654,-595.648 798,-563.5 782.185,-559.026 765.652,-550.093 754.213,-543.133"/>
<polygon fill="#9a32cd" stroke="#9a32cd" points="1128.05,-599.492 1137.96,-595.723 1127.87,-592.495 1128.05,-599.492"/>
<text text-anchor="middle" x="986" y="-599.5" font-family="Helvetica,sans-Serif" font-size="10.00"> Statistics</text>
</g>
<!-- Node10&#45;&gt;Node9 -->
<g id="edge14" class="edge"><title>Node10&#45;&gt;Node9</title>
<path fill="none" stroke="#9a32cd" stroke-dasharray="5,2" d="M1036.27,-763.938C1063.53,-762.297 1096.53,-756.012 1120,-737.5 1164.74,-702.218 1179.36,-629.207 1183.27,-603.068"/>
<polygon fill="#9a32cd" stroke="#9a32cd" points="1035.99,-760.446 1026.14,-764.354 1036.28,-767.44 1035.99,-760.446"/>
<text text-anchor="middle" x="1090.5" y="-763.5" font-family="Helvetica,sans-Serif" font-size="10.00"> gaps</text>
</g>
<!-- Node11&#45;&gt;Node9 -->
<g id="edge18" class="edge"><title>Node11&#45;&gt;Node9</title>
<path fill="none" stroke="#9a32cd" stroke-dasharray="5,2" d="M1035.01,-366.186C1063.13,-375.83 1097.45,-391.75 1120,-416.5 1166.48,-467.511 1180.16,-554.676 1183.53,-583.744"/>
<polygon fill="#9a32cd" stroke="#9a32cd" points="1035.94,-362.808 1025.35,-363.032 1033.77,-369.463 1035.94,-362.808"/>
<text text-anchor="middle" x="1090.5" y="-419.5" font-family="Helvetica,sans-Serif" font-size="10.00"> conservation</text>
</g>
<!-- Node12 -->
<g id="node12" class="node"><title>Node12</title>
<polygon fill="white" stroke="#bfbfbf" points="717.5,-200 717.5,-219 759.5,-219 759.5,-200 717.5,-200"/>
<text text-anchor="middle" x="738.5" y="-207" font-family="Helvetica,sans-Serif" font-size="10.00">float *</text>
</g>
<!-- Node12&#45;&gt;Node11 -->
<g id="edge20" class="edge"><title>Node12&#45;&gt;Node11</title>
<path fill="none" stroke="#9a32cd" stroke-dasharray="5,2" d="M769.565,-217.59C812.164,-229.4 887.526,-251.674 911,-267.5 942.194,-288.531 968.033,-326.052 979.144,-343.75"/>
<polygon fill="#9a32cd" stroke="#9a32cd" points="770.314,-214.166 759.744,-214.892 768.459,-220.916 770.314,-214.166"/>
<text text-anchor="middle" x="854.5" y="-281.5" font-family="Helvetica,sans-Serif" font-size="10.00"> MDK_Window</text>
<text text-anchor="middle" x="854.5" y="-270.5" font-family="Helvetica,sans-Serif" font-size="10.00">MDK</text>
</g>
<!-- Node12&#45;&gt;Node15 -->
<g id="edge28" class="edge"><title>Node12&#45;&gt;Node15</title>
<path fill="none" stroke="#9a32cd" stroke-dasharray="5,2" d="M769.377,-203.268C778.553,-201.382 788.686,-199.327 798,-197.5 843.376,-188.6 895.049,-178.967 932.56,-172.064"/>
<polygon fill="#9a32cd" stroke="#9a32cd" points="768.603,-199.853 759.518,-205.304 770.02,-206.709 768.603,-199.853"/>
<text text-anchor="middle" x="854.5" y="-211.5" font-family="Helvetica,sans-Serif" font-size="10.00"> values</text>
<text text-anchor="middle" x="854.5" y="-200.5" font-family="Helvetica,sans-Serif" font-size="10.00">values_windowed</text>
</g>
<!-- Node13 -->
<g id="node13" class="node"><title>Node13</title>
<polygon fill="white" stroke="#bfbfbf" points="715.5,-327 715.5,-346 761.5,-346 761.5,-327 715.5,-327"/>
<text text-anchor="middle" x="738.5" y="-334" font-family="Helvetica,sans-Serif" font-size="10.00">float **</text>
</g>
<!-- Node13&#45;&gt;Node11 -->
<g id="edge22" class="edge"><title>Node13&#45;&gt;Node11</title>
<path fill="none" stroke="#9a32cd" stroke-dasharray="5,2" d="M771.936,-334.699C806.508,-333.244 862.795,-332.206 911,-337.5 923.151,-338.834 936.239,-341.311 947.981,-343.924"/>
<polygon fill="#9a32cd" stroke="#9a32cd" points="771.341,-331.223 761.512,-335.179 771.663,-338.215 771.341,-331.223"/>
<text text-anchor="middle" x="854.5" y="-340.5" font-family="Helvetica,sans-Serif" font-size="10.00"> matrixIdentity</text>
</g>
<!-- Node14&#45;&gt;Node9 -->
<g id="edge39" class="edge"><title>Node14&#45;&gt;Node9</title>
<path fill="none" stroke="#9a32cd" stroke-dasharray="5,2" d="M779.511,-400.12C779.675,-400.245 779.838,-400.372 780,-400.5 791.316,-409.442 786.202,-419.204 798,-427.5 840.325,-457.261 861.867,-439.281 911,-455.5 971.352,-475.423 986.126,-482.134 1043,-510.5 1090.66,-534.27 1144.19,-567.601 1169.59,-583.842"/>
<polygon fill="#9a32cd" stroke="#9a32cd" points="781.832,-397.443 771.497,-395.115 778.125,-403.38 781.832,-397.443"/>
<text text-anchor="middle" x="986" y="-513.5" font-family="Helvetica,sans-Serif" font-size="10.00"> _similarityMatrix</text>
</g>
<!-- Node14&#45;&gt;Node11 -->
<g id="edge23" class="edge"><title>Node14&#45;&gt;Node11</title>
<path fill="none" stroke="#9a32cd" stroke-dasharray="5,2" d="M785.911,-373.774C789.985,-372.933 794.057,-372.158 798,-371.5 841.59,-364.222 891.425,-359.606 928.682,-356.873"/>
<polygon fill="#9a32cd" stroke="#9a32cd" points="784.873,-370.418 775.851,-375.974 786.368,-377.257 784.873,-370.418"/>
<text text-anchor="middle" x="854.5" y="-374.5" font-family="Helvetica,sans-Serif" font-size="10.00"> simMatrix</text>
</g>
<!-- Node15&#45;&gt;Node9 -->
<g id="edge26" class="edge"><title>Node15&#45;&gt;Node9</title>
<path fill="none" stroke="#9a32cd" stroke-dasharray="5,2" d="M1001.6,-180.072C1028.64,-213.419 1086.75,-289.039 1120,-361.5 1157.48,-443.193 1177.5,-551.306 1182.95,-583.84"/>
<polygon fill="#9a32cd" stroke="#9a32cd" points="1004.18,-177.698 995.141,-172.178 998.767,-182.133 1004.18,-177.698"/>
<text text-anchor="middle" x="1090.5" y="-364.5" font-family="Helvetica,sans-Serif" font-size="10.00"> consistency</text>
</g>
<!-- Node16 -->
<g id="node16" class="node"><title>Node16</title>
<polygon fill="white" stroke="#bfbfbf" points="721,-44 721,-63 756,-63 756,-44 721,-44"/>
<text text-anchor="middle" x="738.5" y="-51" font-family="Helvetica,sans-Serif" font-size="10.00">char</text>
</g>
<!-- Node16&#45;&gt;Node15 -->
<g id="edge29" class="edge"><title>Node16&#45;&gt;Node15</title>
<path fill="none" stroke="#9a32cd" stroke-dasharray="5,2" d="M766.382,-46.6144C801.811,-39.0758 865.016,-31.0493 911,-55.5 951.084,-76.8134 973.842,-130.62 981.771,-152.757"/>
<polygon fill="#9a32cd" stroke="#9a32cd" points="765.302,-43.2705 756.328,-48.9018 766.855,-50.096 765.302,-43.2705"/>
<text text-anchor="middle" x="854.5" y="-69.5" font-family="Helvetica,sans-Serif" font-size="10.00"> filesToCompare</text>
<text text-anchor="middle" x="854.5" y="-58.5" font-family="Helvetica,sans-Serif" font-size="10.00">c</text>
</g>
<!-- Node17 -->
<g id="node17" class="node"><title>Node17</title>
<g id="a_node17"><a xlink:title="STL class. ">
<polygon fill="white" stroke="#bfbfbf" points="703,-6 703,-25 774,-25 774,-6 703,-6"/>
<text text-anchor="middle" x="738.5" y="-13" font-family="Helvetica,sans-Serif" font-size="10.00">std::ifstream</text>
</a>
</g>
</g>
<!-- Node17&#45;&gt;Node15 -->
<g id="edge30" class="edge"><title>Node17&#45;&gt;Node15</title>
<path fill="none" stroke="#9a32cd" stroke-dasharray="5,2" d="M784.008,-6.51598C820.915,-1.5632 873.263,-0.550454 911,-24.5 958.743,-54.7998 977.755,-126.964 983.206,-152.96"/>
<polygon fill="#9a32cd" stroke="#9a32cd" points="783.408,-3.06653 774.032,-7.99993 784.438,-9.99034 783.408,-3.06653"/>
<text text-anchor="middle" x="854.5" y="-27.5" font-family="Helvetica,sans-Serif" font-size="10.00"> compare</text>
</g>
<!-- Node18 -->
<g id="node18" class="node"><title>Node18</title>
<g id="a_node18"><a xlink:title="STL class. ">
<polygon fill="white" stroke="#bfbfbf" points="455,-0.5 455,-30.5 555,-30.5 555,-0.5 455,-0.5"/>
<text text-anchor="start" x="463" y="-18.5" font-family="Helvetica,sans-Serif" font-size="10.00">std::basic_ifstream</text>
<text text-anchor="middle" x="505" y="-7.5" font-family="Helvetica,sans-Serif" font-size="10.00">&lt; char &gt;</text>
</a>
</g>
</g>
<!-- Node18&#45;&gt;Node17 -->
<g id="edge31" class="edge"><title>Node18&#45;&gt;Node17</title>
<path fill="none" stroke="midnightblue" d="M565.274,-15.5C608.805,-15.5 666.452,-15.5 702.764,-15.5"/>
<polygon fill="midnightblue" stroke="midnightblue" points="565.095,-12.0001 555.095,-15.5 565.095,-19.0001 565.095,-12.0001"/>
</g>
<!-- Node19 -->
<g id="node19" class="node"><title>Node19</title>
<g id="a_node19"><a xlink:title="STL class. ">
<polygon fill="white" stroke="#bfbfbf" points="265,-0.5 265,-30.5 362,-30.5 362,-0.5 265,-0.5"/>
<text text-anchor="start" x="273" y="-18.5" font-family="Helvetica,sans-Serif" font-size="10.00">std::basic_istream</text>
<text text-anchor="middle" x="313.5" y="-7.5" font-family="Helvetica,sans-Serif" font-size="10.00">&lt; Char &gt;</text>
</a>
</g>
</g>
<!-- Node19&#45;&gt;Node18 -->
<g id="edge32" class="edge"><title>Node19&#45;&gt;Node18</title>
<path fill="none" stroke="midnightblue" d="M372.548,-15.5C398.888,-15.5 429.703,-15.5 454.876,-15.5"/>
<polygon fill="midnightblue" stroke="midnightblue" points="372.319,-12.0001 362.319,-15.5 372.319,-19.0001 372.319,-12.0001"/>
</g>
<!-- Node20 -->
<g id="node20" class="node"><title>Node20</title>
<g id="a_node20"><a xlink:title="STL class. ">
<polygon fill="white" stroke="#bfbfbf" points="112,-6 112,-25 228,-25 228,-6 112,-6"/>
<text text-anchor="middle" x="170" y="-13" font-family="Helvetica,sans-Serif" font-size="10.00">std::basic_ios&lt; Char &gt;</text>
</a>
</g>
</g>
<!-- Node20&#45;&gt;Node19 -->
<g id="edge33" class="edge"><title>Node20&#45;&gt;Node19</title>
<path fill="none" stroke="midnightblue" d="M238.18,-15.5C247.124,-15.5 256.144,-15.5 264.667,-15.5"/>
<polygon fill="midnightblue" stroke="midnightblue" points="238.146,-12.0001 228.146,-15.5 238.146,-19.0001 238.146,-12.0001"/>
</g>
<!-- Node21 -->
<g id="node21" class="node"><title>Node21</title>
<g id="a_node21"><a xlink:title="STL class. ">
<polygon fill="white" stroke="#bfbfbf" points="0,-6 0,-25 75,-25 75,-6 0,-6"/>
<text text-anchor="middle" x="37.5" y="-13" font-family="Helvetica,sans-Serif" font-size="10.00">std::ios_base</text>
</a>
</g>
</g>
<!-- Node21&#45;&gt;Node20 -->
<g id="edge34" class="edge"><title>Node21&#45;&gt;Node20</title>
<path fill="none" stroke="midnightblue" d="M85.3188,-15.5C93.8367,-15.5 102.811,-15.5 111.593,-15.5"/>
<polygon fill="midnightblue" stroke="midnightblue" points="85.1988,-12.0001 75.1988,-15.5 85.1988,-19.0001 85.1988,-12.0001"/>
</g>
<!-- Node22 -->
<g id="node22" class="node"><title>Node22</title>
<polygon fill="white" stroke="#bfbfbf" points="717.5,-158 717.5,-177 759.5,-177 759.5,-158 717.5,-158"/>
<text text-anchor="middle" x="738.5" y="-165" font-family="Helvetica,sans-Serif" font-size="10.00">char *</text>
</g>
<!-- Node22&#45;&gt;Node15 -->
<g id="edge38" class="edge"><title>Node22&#45;&gt;Node15</title>
<path fill="none" stroke="#9a32cd" stroke-dasharray="5,2" d="M769.674,-165.073C778.771,-164.439 788.787,-163.839 798,-163.5 842.448,-161.863 892.878,-161.692 930.158,-161.886"/>
<polygon fill="#9a32cd" stroke="#9a32cd" points="769.236,-161.595 759.519,-165.818 769.749,-168.576 769.236,-161.595"/>
<text text-anchor="middle" x="854.5" y="-166.5" font-family="Helvetica,sans-Serif" font-size="10.00"> line</text>
</g>
</g>
</svg>
