<?xml version="1.0" encoding="UTF-8" standalone="no"?>
<!DOCTYPE svg PUBLIC "-//W3C//DTD SVG 1.1//EN"
 "http://www.w3.org/Graphics/SVG/1.1/DTD/svg11.dtd">
<!-- Generated by graphviz version 2.40.1 (20161225.0304)
 -->
<!-- Title: statistics::Similarity::calcCutPoint Pages: 1 -->
<svg width="1183pt" height="339pt"
 viewBox="0.00 0.00 1183.00 338.50" xmlns="http://www.w3.org/2000/svg" xmlns:xlink="http://www.w3.org/1999/xlink">
<g id="graph0" class="graph" transform="scale(1 1) rotate(0) translate(4 334.5)">
<title>statistics::Similarity::calcCutPoint</title>
<polygon fill="#ffffff" stroke="transparent" points="-4,4 -4,-334.5 1179,-334.5 1179,4 -4,4"/>
<!-- Node90 -->
<g id="node1" class="node">
<title>Node90</title>
<polygon fill="#bfbfbf" stroke="#000000" points="0,-57 0,-87 103,-87 103,-57 0,-57"/>
<text text-anchor="start" x="8" y="-75" font-family="Helvetica,sans-Serif" font-size="10.00" fill="#000000">statistics::Similarity</text>
<text text-anchor="middle" x="51.5" y="-64" font-family="Helvetica,sans-Serif" font-size="10.00" fill="#000000">::calcCutPoint</text>
</g>
<!-- Node91 -->
<g id="node2" class="node">
<title>Node91</title>
<g id="a_node2"><a xlink:href="namespaceutils.html#a13e9bd8b05840270eda57450710273c2" target="_top" xlink:title="Float vector copying. ">
<polygon fill="#ffffff" stroke="#000000" points="162.5,-106.5 162.5,-125.5 244.5,-125.5 244.5,-106.5 162.5,-106.5"/>
<text text-anchor="middle" x="203.5" y="-113.5" font-family="Helvetica,sans-Serif" font-size="10.00" fill="#000000">utils::copyVect</text>
</a>
</g>
</g>
<!-- Node90&#45;&gt;Node91 -->
<g id="edge1" class="edge">
<title>Node90&#45;&gt;Node91</title>
<path fill="none" stroke="#191970" d="M103.3846,-87.0192C121.9329,-92.3885 142.6192,-98.3766 160.351,-103.5095"/>
<polygon fill="#191970" stroke="#191970" points="159.8325,-107.003 170.4114,-106.4217 161.779,-100.2791 159.8325,-107.003"/>
</g>
<!-- Node92 -->
<g id="node3" class="node">
<title>Node92</title>
<g id="a_node3"><a xlink:href="classstatistics_1_1_similarity.html#a1b65c85328f09fa0637365d11fb386b4" target="_top" xlink:title="This methods returns a pointer to conservationWindow&#39;s vector. ">
<polygon fill="#ffffff" stroke="#000000" points="139,-57 139,-87 268,-87 268,-57 139,-57"/>
<text text-anchor="start" x="147" y="-75" font-family="Helvetica,sans-Serif" font-size="10.00" fill="#000000">statistics::Similarity</text>
<text text-anchor="middle" x="203.5" y="-64" font-family="Helvetica,sans-Serif" font-size="10.00" fill="#000000">::getMdkWindowedVector</text>
</a>
</g>
</g>
<!-- Node90&#45;&gt;Node92 -->
<g id="edge2" class="edge">
<title>Node90&#45;&gt;Node92</title>
<path fill="none" stroke="#191970" d="M103.3846,-72C111.6059,-72 120.2472,-72 128.8651,-72"/>
<polygon fill="#191970" stroke="#191970" points="128.9445,-75.5001 138.9445,-72 128.9444,-68.5001 128.9445,-75.5001"/>
</g>
<!-- Node110 -->
<g id="node21" class="node">
<title>Node110</title>
<g id="a_node21"><a xlink:href="namespaceutils.html#a73f038c379c13d23e3220afaa14f9983" target="_top" xlink:title="Quicksort sorting method. ">
<polygon fill="#ffffff" stroke="#000000" points="163.5,-.5 163.5,-19.5 243.5,-19.5 243.5,-.5 163.5,-.5"/>
<text text-anchor="middle" x="203.5" y="-7.5" font-family="Helvetica,sans-Serif" font-size="10.00" fill="#000000">utils::quicksort</text>
</a>
</g>
</g>
<!-- Node90&#45;&gt;Node110 -->
<g id="edge26" class="edge">
<title>Node90&#45;&gt;Node110</title>
<path fill="none" stroke="#191970" d="M88.295,-56.9915C113.3147,-46.7861 146.1408,-33.3965 170.3502,-23.5216"/>
<polygon fill="#191970" stroke="#191970" points="171.8856,-26.6754 179.823,-19.6577 169.2417,-20.1938 171.8856,-26.6754"/>
</g>
<!-- Node93 -->
<g id="node4" class="node">
<title>Node93</title>
<g id="a_node4"><a xlink:href="classstatistics_1_1_similarity.html#a4446bf070a858952dac45f5705d16780" target="_top" xlink:title="Returns if a windows size value has been defined or not. ">
<polygon fill="#ffffff" stroke="#000000" points="304,-97 304,-127 407,-127 407,-97 304,-97"/>
<text text-anchor="start" x="312" y="-115" font-family="Helvetica,sans-Serif" font-size="10.00" fill="#000000">statistics::Similarity</text>
<text text-anchor="middle" x="355.5" y="-104" font-family="Helvetica,sans-Serif" font-size="10.00" fill="#000000">::isDefinedWindow</text>
</a>
</g>
</g>
<!-- Node92&#45;&gt;Node93 -->
<g id="edge3" class="edge">
<title>Node92&#45;&gt;Node93</title>
<path fill="none" stroke="#191970" d="M260.5316,-87.0083C271.3669,-89.8597 282.7518,-92.8557 293.7262,-95.7437"/>
<polygon fill="#191970" stroke="#191970" points="293.1003,-99.1981 303.6618,-98.3584 294.8818,-92.4286 293.1003,-99.1981"/>
</g>
<!-- Node94 -->
<g id="node5" class="node">
<title>Node94</title>
<g id="a_node5"><a xlink:href="classstatistics_1_1_similarity.html#adcb5627b9704850e85433fc40c19db17" target="_top" xlink:title="Allows us compute the conservationWindow&#39;s values. ">
<polygon fill="#ffffff" stroke="#000000" points="304,-48 304,-78 407,-78 407,-48 304,-48"/>
<text text-anchor="start" x="312" y="-66" font-family="Helvetica,sans-Serif" font-size="10.00" fill="#000000">statistics::Similarity</text>
<text text-anchor="middle" x="355.5" y="-55" font-family="Helvetica,sans-Serif" font-size="10.00" fill="#000000">::applyWindow</text>
</a>
</g>
</g>
<!-- Node92&#45;&gt;Node94 -->
<g id="edge4" class="edge">
<title>Node92&#45;&gt;Node94</title>
<path fill="none" stroke="#191970" d="M268.4026,-68.1571C276.7779,-67.6612 285.337,-67.1544 293.6612,-66.6615"/>
<polygon fill="#191970" stroke="#191970" points="293.8945,-70.1539 303.6701,-66.0689 293.4807,-63.1662 293.8945,-70.1539"/>
</g>
<!-- Node95 -->
<g id="node6" class="node">
<title>Node95</title>
<g id="a_node6"><a xlink:href="classstatistics_1_1_similarity.html#ae69ec0e79912ae23c8cfe97358c4794d" target="_top" xlink:title="Method to calculate the similarity values of a alignment matrix. ">
<polygon fill="#ffffff" stroke="#000000" points="443,-135 443,-165 546,-165 546,-135 443,-135"/>
<text text-anchor="start" x="451" y="-153" font-family="Helvetica,sans-Serif" font-size="10.00" fill="#000000">statistics::Similarity</text>
<text text-anchor="middle" x="494.5" y="-142" font-family="Helvetica,sans-Serif" font-size="10.00" fill="#000000">::calculateVectors</text>
</a>
</g>
</g>
<!-- Node94&#45;&gt;Node95 -->
<g id="edge5" class="edge">
<title>Node94&#45;&gt;Node95</title>
<path fill="none" stroke="#191970" d="M390.3103,-78.1316C395.982,-80.9059 401.7234,-83.9079 407,-87 428.1794,-99.4111 450.6214,-115.6389 467.4745,-128.5162"/>
<polygon fill="#191970" stroke="#191970" points="465.6895,-131.5602 475.7419,-134.9069 469.9706,-126.0219 465.6895,-131.5602"/>
</g>
<!-- Node103 -->
<g id="node14" class="node">
<title>Node103</title>
<g id="a_node14"><a xlink:href="classreporting_1_1report_manager.html#a6d122e673144584e0869bd33b8a5c1c6" target="_top" xlink:title="Method to report an Error. &#160;It will be displayed if Level &#160;is equal or higher to VerboseLevel::ERROR...">
<polygon fill="#ffffff" stroke="#000000" points="937,-4 937,-34 1059,-34 1059,-4 937,-4"/>
<text text-anchor="start" x="945" y="-22" font-family="Helvetica,sans-Serif" font-size="10.00" fill="#000000">reporting::reportManager</text>
<text text-anchor="middle" x="998" y="-11" font-family="Helvetica,sans-Serif" font-size="10.00" fill="#000000">::report</text>
</a>
</g>
</g>
<!-- Node94&#45;&gt;Node103 -->
<g id="edge25" class="edge">
<title>Node94&#45;&gt;Node103</title>
<path fill="none" stroke="#191970" d="M407.2057,-49.1185C452.8109,-37.6344 521.2751,-22.234 582,-16 702.5248,-3.627 843.7234,-8.7579 926.748,-13.7656"/>
<polygon fill="#191970" stroke="#191970" points="926.63,-17.2649 936.8273,-14.3902 927.063,-10.2783 926.63,-17.2649"/>
</g>
<!-- Node96 -->
<g id="node7" class="node">
<title>Node96</title>
<g id="a_node7"><a xlink:href="classstatistics_1_1_similarity.html#a75bd235b3207235eefa7b52dff063c76" target="_top" xlink:title="Computes the matrix identity between alignment&#39;s columns. ">
<polygon fill="#ffffff" stroke="#000000" points="585.5,-300 585.5,-330 706.5,-330 706.5,-300 585.5,-300"/>
<text text-anchor="start" x="593.5" y="-318" font-family="Helvetica,sans-Serif" font-size="10.00" fill="#000000">statistics::Similarity</text>
<text text-anchor="middle" x="646" y="-307" font-family="Helvetica,sans-Serif" font-size="10.00" fill="#000000">::calculateMatrixIdentity</text>
</a>
</g>
</g>
<!-- Node95&#45;&gt;Node96 -->
<g id="edge6" class="edge">
<title>Node95&#45;&gt;Node96</title>
<path fill="none" stroke="#191970" d="M500.9728,-165.3388C513.1764,-192.655 542.0003,-250.1271 582,-285 586.2201,-288.6792 590.9689,-291.9999 595.9237,-294.973"/>
<polygon fill="#191970" stroke="#191970" points="594.545,-298.2087 604.9955,-299.9514 597.9127,-292.072 594.545,-298.2087"/>
</g>
<!-- Node97 -->
<g id="node8" class="node">
<title>Node97</title>
<g id="a_node8"><a xlink:href="class_alignment.html#ab2487799d9a7d593d7fbe1b8da9593f5" target="_top" xlink:title="Alignment type getter. &#160;&#160;See SequenceTypes. ">
<polygon fill="#ffffff" stroke="#000000" points="748.5,-261.5 748.5,-280.5 893.5,-280.5 893.5,-261.5 748.5,-261.5"/>
<text text-anchor="middle" x="821" y="-268.5" font-family="Helvetica,sans-Serif" font-size="10.00" fill="#000000">Alignment::getAlignmentType</text>
</a>
</g>
</g>
<!-- Node95&#45;&gt;Node97 -->
<g id="edge21" class="edge">
<title>Node95&#45;&gt;Node97</title>
<path fill="none" stroke="#191970" d="M503.1988,-165.3259C516.798,-187.6502 545.3727,-228.4653 582,-247 630.0253,-271.3024 690.3766,-277.2001 738.4171,-277.0739"/>
<polygon fill="#191970" stroke="#191970" points="738.5131,-280.5732 748.4727,-276.96 738.4337,-273.5736 738.5131,-280.5732"/>
</g>
<!-- Node99 -->
<g id="node10" class="node">
<title>Node99</title>
<g id="a_node10"><a xlink:href="namespaceutils.html#a6286fde6f4dd58ef0cfa9d55341b72f8" target="_top" xlink:title="utils::toUpper">
<polygon fill="#ffffff" stroke="#000000" points="1100,-242.5 1100,-261.5 1175,-261.5 1175,-242.5 1100,-242.5"/>
<text text-anchor="middle" x="1137.5" y="-249.5" font-family="Helvetica,sans-Serif" font-size="10.00" fill="#000000">utils::toUpper</text>
</a>
</g>
</g>
<!-- Node95&#45;&gt;Node99 -->
<g id="edge22" class="edge">
<title>Node95&#45;&gt;Node99</title>
<path fill="none" stroke="#191970" d="M545.7519,-165.0593C557.6257,-168.4325 570.231,-171.921 582,-175 654.4821,-193.9627 672.0974,-201.6855 746,-214 868.7862,-234.46 1015.2095,-245.0495 1089.3535,-249.4515"/>
<polygon fill="#191970" stroke="#191970" points="1089.5705,-252.97 1099.7569,-250.0566 1089.977,-245.9818 1089.5705,-252.97"/>
</g>
<!-- Node100 -->
<g id="node11" class="node">
<title>Node100</title>
<g id="a_node11"><a xlink:href="classstatistics_1_1_manager.html#a1969a416d3020d25daa56de6c5e305db" target="_top" xlink:title="Method to handle gap stat calculation It checks if the gaps submodule has been created, otherwise, creates it. ">
<polygon fill="#ffffff" stroke="#000000" points="594.5,-135 594.5,-165 697.5,-165 697.5,-135 594.5,-135"/>
<text text-anchor="start" x="602.5" y="-153" font-family="Helvetica,sans-Serif" font-size="10.00" fill="#000000">statistics::Manager</text>
<text text-anchor="middle" x="646" y="-142" font-family="Helvetica,sans-Serif" font-size="10.00" fill="#000000">::calculateGapStats</text>
</a>
</g>
</g>
<!-- Node95&#45;&gt;Node100 -->
<g id="edge10" class="edge">
<title>Node95&#45;&gt;Node100</title>
<path fill="none" stroke="#191970" d="M546.214,-150C558.3352,-150 571.3726,-150 583.8953,-150"/>
<polygon fill="#191970" stroke="#191970" points="584.2621,-153.5001 594.262,-150 584.262,-146.5001 584.2621,-153.5001"/>
</g>
<!-- Node107 -->
<g id="node18" class="node">
<title>Node107</title>
<g id="a_node18"><a xlink:href="classstatistics_1_1_gaps.html#ab5b60db326475f8adc68b130e22b3963" target="_top" xlink:title="statistics::Gaps::getGaps\lWindow">
<polygon fill="#ffffff" stroke="#000000" points="582,-86 582,-116 710,-116 710,-86 582,-86"/>
<text text-anchor="start" x="590" y="-104" font-family="Helvetica,sans-Serif" font-size="10.00" fill="#000000">statistics::Gaps::getGaps</text>
<text text-anchor="middle" x="646" y="-93" font-family="Helvetica,sans-Serif" font-size="10.00" fill="#000000">Window</text>
</a>
</g>
</g>
<!-- Node95&#45;&gt;Node107 -->
<g id="edge18" class="edge">
<title>Node95&#45;&gt;Node107</title>
<path fill="none" stroke="#191970" d="M541.1912,-134.8986C556.5269,-129.9385 573.7356,-124.3726 589.7066,-119.2071"/>
<polygon fill="#191970" stroke="#191970" points="591.0254,-122.4592 599.463,-116.0516 588.8712,-115.7989 591.0254,-122.4592"/>
</g>
<!-- Node109 -->
<g id="node20" class="node">
<title>Node109</title>
<g id="a_node20"><a xlink:href="classstatistics_1_1similarity_matrix.html#a0cdb3ed14678b442824e84e6385e8f84" target="_top" xlink:title="Method to get the similarity distance between two residues, A and B Characters provided must be both ...">
<polygon fill="#ffffff" stroke="#000000" points="582,-26 582,-56 710,-56 710,-26 582,-26"/>
<text text-anchor="start" x="590" y="-44" font-family="Helvetica,sans-Serif" font-size="10.00" fill="#000000">statistics::similarityMatrix</text>
<text text-anchor="middle" x="646" y="-33" font-family="Helvetica,sans-Serif" font-size="10.00" fill="#000000">::getDistance</text>
</a>
</g>
</g>
<!-- Node95&#45;&gt;Node109 -->
<g id="edge23" class="edge">
<title>Node95&#45;&gt;Node109</title>
<path fill="none" stroke="#191970" d="M510.4779,-134.7695C527.4419,-119.0218 555.4216,-94.231 582,-76 589.6694,-70.7393 598.2052,-65.6167 606.4794,-60.9857"/>
<polygon fill="#191970" stroke="#191970" points="608.2008,-64.0336 615.3016,-56.1704 604.8471,-57.8893 608.2008,-64.0336"/>
</g>
<!-- Node96&#45;&gt;Node97 -->
<g id="edge7" class="edge">
<title>Node96&#45;&gt;Node97</title>
<path fill="none" stroke="#191970" d="M705.7356,-299.9808C727.7744,-294.4396 752.4348,-288.2393 773.2724,-283.0001"/>
<polygon fill="#191970" stroke="#191970" points="774.3218,-286.3452 783.1665,-280.5124 772.6149,-279.5565 774.3218,-286.3452"/>
</g>
<!-- Node98 -->
<g id="node9" class="node">
<title>Node98</title>
<g id="a_node9"><a xlink:href="namespaceutils.html#aab52f9515717f06cafd6ab7fe2ebdcef" target="_top" xlink:title="Checks an alignment type. ">
<polygon fill="#ffffff" stroke="#000000" points="932,-261.5 932,-280.5 1064,-280.5 1064,-261.5 932,-261.5"/>
<text text-anchor="middle" x="998" y="-268.5" font-family="Helvetica,sans-Serif" font-size="10.00" fill="#000000">utils::checkAlignmentType</text>
</a>
</g>
</g>
<!-- Node97&#45;&gt;Node98 -->
<g id="edge8" class="edge">
<title>Node97&#45;&gt;Node98</title>
<path fill="none" stroke="#191970" d="M893.5034,-271C902.8282,-271 912.3981,-271 921.7802,-271"/>
<polygon fill="#191970" stroke="#191970" points="921.8666,-274.5001 931.8666,-271 921.8665,-267.5001 921.8666,-274.5001"/>
</g>
<!-- Node98&#45;&gt;Node99 -->
<g id="edge9" class="edge">
<title>Node98&#45;&gt;Node99</title>
<path fill="none" stroke="#191970" d="M1064.0733,-262.0008C1072.6891,-260.8273 1081.3799,-259.6436 1089.6179,-258.5216"/>
<polygon fill="#191970" stroke="#191970" points="1090.3347,-261.9564 1099.7708,-257.1387 1089.3899,-255.0204 1090.3347,-261.9564"/>
</g>
<!-- Node101 -->
<g id="node12" class="node">
<title>Node101</title>
<g id="a_node12"><a xlink:href="classstatistics_1_1_gaps.html#aee36b772767467cdba2061df2305e85d" target="_top" xlink:title="statistics::Gaps::applyWindow">
<polygon fill="#ffffff" stroke="#000000" points="746,-97.5 746,-116.5 896,-116.5 896,-97.5 746,-97.5"/>
<text text-anchor="middle" x="821" y="-104.5" font-family="Helvetica,sans-Serif" font-size="10.00" fill="#000000">statistics::Gaps::applyWindow</text>
</a>
</g>
</g>
<!-- Node100&#45;&gt;Node101 -->
<g id="edge11" class="edge">
<title>Node100&#45;&gt;Node101</title>
<path fill="none" stroke="#191970" d="M697.5593,-137.3312C721.1842,-131.5262 749.0401,-124.6816 772.3057,-118.9649"/>
<polygon fill="#191970" stroke="#191970" points="773.4283,-122.2932 782.3043,-116.5081 771.758,-115.4954 773.4283,-122.2932"/>
</g>
<!-- Node105 -->
<g id="node16" class="node">
<title>Node105</title>
<g id="a_node16"><a xlink:href="classstatistics_1_1_gaps.html#aa3526494d5100e062daa4afba755d0b1" target="_top" xlink:title="statistics::Gaps::Calculate\lVectors">
<polygon fill="#ffffff" stroke="#000000" points="754.5,-174 754.5,-204 887.5,-204 887.5,-174 754.5,-174"/>
<text text-anchor="start" x="762.5" y="-192" font-family="Helvetica,sans-Serif" font-size="10.00" fill="#000000">statistics::Gaps::Calculate</text>
<text text-anchor="middle" x="821" y="-181" font-family="Helvetica,sans-Serif" font-size="10.00" fill="#000000">Vectors</text>
</a>
</g>
</g>
<!-- Node100&#45;&gt;Node105 -->
<g id="edge15" class="edge">
<title>Node100&#45;&gt;Node105</title>
<path fill="none" stroke="#191970" d="M697.5593,-161.4903C712.254,-164.7652 728.5856,-168.4048 744.4314,-171.9361"/>
<polygon fill="#191970" stroke="#191970" points="743.694,-175.3576 754.2159,-174.1167 745.2167,-168.5252 743.694,-175.3576"/>
</g>
<!-- Node106 -->
<g id="node17" class="node">
<title>Node106</title>
<g id="a_node17"><a xlink:href="classstatistics_1_1_gaps.html#a2f1d71bafa5e44e5f2c96771cf2a26ed" target="_top" xlink:title="statistics::Gaps::Gaps">
<polygon fill="#ffffff" stroke="#000000" points="763.5,-135.5 763.5,-154.5 878.5,-154.5 878.5,-135.5 763.5,-135.5"/>
<text text-anchor="middle" x="821" y="-142.5" font-family="Helvetica,sans-Serif" font-size="10.00" fill="#000000">statistics::Gaps::Gaps</text>
</a>
</g>
</g>
<!-- Node100&#45;&gt;Node106 -->
<g id="edge16" class="edge">
<title>Node100&#45;&gt;Node106</title>
<path fill="none" stroke="#191970" d="M697.5593,-148.5269C714.9982,-148.0286 734.7426,-147.4645 753.2443,-146.9359"/>
<polygon fill="#191970" stroke="#191970" points="753.4768,-150.4308 763.3727,-146.6465 753.2768,-143.4336 753.4768,-150.4308"/>
</g>
<!-- Node102 -->
<g id="node13" class="node">
<title>Node102</title>
<g id="a_node13"><a xlink:href="namespaceutils.html#aac322cd1761fddedec8a5792e358eb32" target="_top" xlink:title="Vector initialization. ">
<polygon fill="#ffffff" stroke="#000000" points="960,-135.5 960,-154.5 1036,-154.5 1036,-135.5 960,-135.5"/>
<text text-anchor="middle" x="998" y="-142.5" font-family="Helvetica,sans-Serif" font-size="10.00" fill="#000000">utils::initlVect</text>
</a>
</g>
</g>
<!-- Node101&#45;&gt;Node102 -->
<g id="edge12" class="edge">
<title>Node101&#45;&gt;Node102</title>
<path fill="none" stroke="#191970" d="M865.6646,-116.589C891.3411,-122.1015 923.6037,-129.0279 949.8452,-134.6617"/>
<polygon fill="#191970" stroke="#191970" points="949.4356,-138.1534 959.9475,-136.8305 950.905,-131.3094 949.4356,-138.1534"/>
</g>
<!-- Node101&#45;&gt;Node103 -->
<g id="edge13" class="edge">
<title>Node101&#45;&gt;Node103</title>
<path fill="none" stroke="#191970" d="M866.2514,-97.495C876.2647,-94.6919 886.6665,-91.2163 896,-87 923.4932,-74.5801 951.8126,-55.0658 971.6139,-40.1214"/>
<polygon fill="#191970" stroke="#191970" points="973.7488,-42.895 979.5515,-34.0305 969.4873,-37.3416 973.7488,-42.895"/>
</g>
<!-- Node104 -->
<g id="node15" class="node">
<title>Node104</title>
<g id="a_node15"><a xlink:href="namespaceutils.html#ad50731aeb3c8f79ed8372516210dfc9d" target="_top" xlink:title="Round double to integer method. ">
<polygon fill="#ffffff" stroke="#000000" points="960,-97.5 960,-116.5 1036,-116.5 1036,-97.5 960,-97.5"/>
<text text-anchor="middle" x="998" y="-104.5" font-family="Helvetica,sans-Serif" font-size="10.00" fill="#000000">utils::roundInt</text>
</a>
</g>
</g>
<!-- Node101&#45;&gt;Node104 -->
<g id="edge14" class="edge">
<title>Node101&#45;&gt;Node104</title>
<path fill="none" stroke="#191970" d="M896.0639,-107C914.3223,-107 933.3618,-107 949.9757,-107"/>
<polygon fill="#191970" stroke="#191970" points="949.9782,-110.5001 959.9781,-107 949.9781,-103.5001 949.9782,-110.5001"/>
</g>
<!-- Node106&#45;&gt;Node102 -->
<g id="edge17" class="edge">
<title>Node106&#45;&gt;Node102</title>
<path fill="none" stroke="#191970" d="M878.9564,-145C901.8473,-145 927.8455,-145 949.6939,-145"/>
<polygon fill="#191970" stroke="#191970" points="949.7333,-148.5001 959.7333,-145 949.7332,-141.5001 949.7333,-148.5001"/>
</g>
<!-- Node107&#45;&gt;Node101 -->
<g id="edge19" class="edge">
<title>Node107&#45;&gt;Node101</title>
<path fill="none" stroke="#191970" d="M710.1698,-103.2001C718.5133,-103.4862 727.1621,-103.7827 735.7813,-104.0782"/>
<polygon fill="#191970" stroke="#191970" points="735.7518,-107.5792 745.8659,-104.424 735.9917,-100.5833 735.7518,-107.5792"/>
</g>
<!-- Node108 -->
<g id="node19" class="node">
<title>Node108</title>
<g id="a_node19"><a xlink:href="classstatistics_1_1_gaps.html#ad812a924cf5e3f900aad3ed4a9664300" target="_top" xlink:title="statistics::Gaps::isDefined\lWindow">
<polygon fill="#ffffff" stroke="#000000" points="754.5,-48 754.5,-78 887.5,-78 887.5,-48 754.5,-48"/>
<text text-anchor="start" x="762.5" y="-66" font-family="Helvetica,sans-Serif" font-size="10.00" fill="#000000">statistics::Gaps::isDefined</text>
<text text-anchor="middle" x="821" y="-55" font-family="Helvetica,sans-Serif" font-size="10.00" fill="#000000">Window</text>
</a>
</g>
</g>
<!-- Node107&#45;&gt;Node108 -->
<g id="edge20" class="edge">
<title>Node107&#45;&gt;Node108</title>
<path fill="none" stroke="#191970" d="M710.1698,-87.066C721.3361,-84.6413 733.0492,-82.0979 744.5065,-79.61"/>
<polygon fill="#191970" stroke="#191970" points="745.4595,-82.9847 754.4891,-77.4424 743.9741,-76.1441 745.4595,-82.9847"/>
</g>
<!-- Node109&#45;&gt;Node103 -->
<g id="edge24" class="edge">
<title>Node109&#45;&gt;Node103</title>
<path fill="none" stroke="#191970" d="M710.1529,-36.9904C771.2953,-33.169 863.1878,-27.4258 926.6198,-23.4613"/>
<polygon fill="#191970" stroke="#191970" points="927.1766,-26.9334 936.9387,-22.8163 926.7398,-19.947 927.1766,-26.9334"/>
</g>
<!-- Node110&#45;&gt;Node110 -->
<g id="edge28" class="edge">
<title>Node110&#45;&gt;Node110</title>
<path fill="none" stroke="#191970" d="M180.0724,-19.7571C168.6752,-28.5653 176.4844,-38 203.5,-38 221.229,-38 230.6865,-33.9368 231.8725,-28.6539"/>
<polygon fill="#191970" stroke="#191970" points="234.8449,-26.7974 226.9276,-19.7571 228.7265,-30.1981 234.8449,-26.7974"/>
</g>
<!-- Node111 -->
<g id="node22" class="node">
<title>Node111</title>
<g id="a_node22"><a xlink:href="namespaceutils.html#a3377ecde55631d1bbc4956e5923b7469" target="_top" xlink:title="Swapping elements method. ">
<polygon fill="#ffffff" stroke="#000000" points="323.5,-.5 323.5,-19.5 387.5,-19.5 387.5,-.5 323.5,-.5"/>
<text text-anchor="middle" x="355.5" y="-7.5" font-family="Helvetica,sans-Serif" font-size="10.00" fill="#000000">utils::swap</text>
</a>
</g>
</g>
<!-- Node110&#45;&gt;Node111 -->
<g id="edge27" class="edge">
<title>Node110&#45;&gt;Node111</title>
<path fill="none" stroke="#191970" d="M243.8341,-10C265.1484,-10 291.303,-10 312.9404,-10"/>
<polygon fill="#191970" stroke="#191970" points="313.1587,-13.5001 323.1586,-10 313.1586,-6.5001 313.1587,-13.5001"/>
</g>
</g>
</svg>
