<?xml version="1.0" encoding="UTF-8" standalone="no"?>
<!DOCTYPE svg PUBLIC "-//W3C//DTD SVG 1.1//EN"
 "http://www.w3.org/Graphics/SVG/1.1/DTD/svg11.dtd">
<!-- Generated by graphviz version 2.38.0 (20140413.2041)
 -->
<!-- Title: Cleaner::cleanNoAllGaps Pages: 1 -->
<svg width="679pt" height="279pt"
 viewBox="0.00 0.00 679.00 278.50" xmlns="http://www.w3.org/2000/svg" xmlns:xlink="http://www.w3.org/1999/xlink">
<g id="graph0" class="graph" transform="scale(1 1) rotate(0) translate(4 274.5)">
<title>Cleaner::cleanNoAllGaps</title>
<polygon fill="white" stroke="none" points="-4,4 -4,-274.5 675,-274.5 675,4 -4,4"/>
<!-- Node122 -->
<g id="node1" class="node"><title>Node122</title>
<polygon fill="#bfbfbf" stroke="black" points="0,-137 0,-156 127,-156 127,-137 0,-137"/>
<text text-anchor="middle" x="63.5" y="-144" font-family="Helvetica,sans-Serif" font-size="10.00">Cleaner::cleanNoAllGaps</text>
</g>
<!-- Node123 -->
<g id="node2" class="node"><title>Node123</title>
<g id="a_node2"><a xlink:href="class_cleaner.html#ad075f0ef730c8023cf8a0e35e7e1e53a" target="_top" xlink:title="Method to clean an alignment. &#160;It removes sequences that overpass or equals a certain threshold...">
<polygon fill="white" stroke="black" points="163,-137 163,-156 295,-156 295,-137 163,-137"/>
<text text-anchor="middle" x="229" y="-144" font-family="Helvetica,sans-Serif" font-size="10.00">Cleaner::cleanByCutValue</text>
</a>
</g>
</g>
<!-- Node122&#45;&gt;Node123 -->
<g id="edge1" class="edge"><title>Node122&#45;&gt;Node123</title>
<path fill="none" stroke="midnightblue" d="M127.246,-146.5C135.66,-146.5 144.359,-146.5 152.958,-146.5"/>
<polygon fill="midnightblue" stroke="midnightblue" points="152.984,-150 162.984,-146.5 152.984,-143 152.984,-150"/>
</g>
<!-- Node124 -->
<g id="node3" class="node"><title>Node124</title>
<g id="a_node3"><a xlink:href="classutils.html#ad50731aeb3c8f79ed8372516210dfc9d" target="_top" xlink:title="Round double to integer method. ">
<polygon fill="white" stroke="black" points="382.5,-251 382.5,-270 458.5,-270 458.5,-251 382.5,-251"/>
<text text-anchor="middle" x="420.5" y="-258" font-family="Helvetica,sans-Serif" font-size="10.00">utils::roundInt</text>
</a>
</g>
</g>
<!-- Node123&#45;&gt;Node124 -->
<g id="edge2" class="edge"><title>Node123&#45;&gt;Node124</title>
<path fill="none" stroke="midnightblue" d="M237.158,-156.097C252.21,-175.538 289.218,-219.581 331,-241.5 343.654,-248.138 358.484,-252.458 372.348,-255.268"/>
<polygon fill="midnightblue" stroke="midnightblue" points="371.763,-258.719 382.227,-257.06 373.012,-251.832 371.763,-258.719"/>
</g>
<!-- Node125 -->
<g id="node4" class="node"><title>Node125</title>
<g id="a_node4"><a xlink:href="classutils.html#a42f272221edf7752ffda49e4212ef653" target="_top" xlink:title="Integer vector copying. ">
<polygon fill="white" stroke="black" points="379.5,-213 379.5,-232 461.5,-232 461.5,-213 379.5,-213"/>
<text text-anchor="middle" x="420.5" y="-220" font-family="Helvetica,sans-Serif" font-size="10.00">utils::copyVect</text>
</a>
</g>
</g>
<!-- Node123&#45;&gt;Node125 -->
<g id="edge3" class="edge"><title>Node123&#45;&gt;Node125</title>
<path fill="none" stroke="midnightblue" d="M243.719,-156.037C262.554,-168.702 297.868,-190.929 331,-203.5 343.057,-208.075 356.478,-211.669 369.15,-214.441"/>
<polygon fill="midnightblue" stroke="midnightblue" points="368.611,-217.903 379.111,-216.491 370.022,-211.047 368.611,-217.903"/>
</g>
<!-- Node126 -->
<g id="node5" class="node"><title>Node126</title>
<g id="a_node5"><a xlink:href="classutils.html#a73f038c379c13d23e3220afaa14f9983" target="_top" xlink:title="Quicksort sorting method. ">
<polygon fill="white" stroke="black" points="380.5,-175 380.5,-194 460.5,-194 460.5,-175 380.5,-175"/>
<text text-anchor="middle" x="420.5" y="-182" font-family="Helvetica,sans-Serif" font-size="10.00">utils::quicksort</text>
</a>
</g>
</g>
<!-- Node123&#45;&gt;Node126 -->
<g id="edge4" class="edge"><title>Node123&#45;&gt;Node126</title>
<path fill="none" stroke="midnightblue" d="M277.819,-156.089C306.04,-161.748 341.693,-168.898 370.173,-174.609"/>
<polygon fill="midnightblue" stroke="midnightblue" points="369.822,-178.108 380.315,-176.642 371.198,-171.244 369.822,-178.108"/>
</g>
<!-- Node128 -->
<g id="node7" class="node"><title>Node128</title>
<g id="a_node7"><a xlink:href="class_cleaner.html#a033da9ea63774f43f4c7aff04f23da81" target="_top" xlink:title="Method to detect right and left borders. Borders are the first column found with no gaps...">
<polygon fill="white" stroke="black" points="347.5,-137 347.5,-156 493.5,-156 493.5,-137 347.5,-137"/>
<text text-anchor="middle" x="420.5" y="-144" font-family="Helvetica,sans-Serif" font-size="10.00">Cleaner::removeOnlyTerminal</text>
</a>
</g>
</g>
<!-- Node123&#45;&gt;Node128 -->
<g id="edge6" class="edge"><title>Node123&#45;&gt;Node128</title>
<path fill="none" stroke="midnightblue" d="M295.215,-146.5C308.741,-146.5 323.159,-146.5 337.205,-146.5"/>
<polygon fill="midnightblue" stroke="midnightblue" points="337.349,-150 347.349,-146.5 337.349,-143 337.349,-150"/>
</g>
<!-- Node130 -->
<g id="node9" class="node"><title>Node130</title>
<g id="a_node9"><a xlink:href="class_cleaner.html#a24bd28e4191afc9471adff329bee1466" target="_top" xlink:title="Method for computing the complementary alignment. Complementary Alignment is an alignment containing ...">
<polygon fill="white" stroke="black" points="331,-99 331,-118 510,-118 510,-99 331,-99"/>
<text text-anchor="middle" x="420.5" y="-106" font-family="Helvetica,sans-Serif" font-size="10.00">Cleaner::computeComplementaryAlig</text>
</a>
</g>
</g>
<!-- Node123&#45;&gt;Node130 -->
<g id="edge8" class="edge"><title>Node123&#45;&gt;Node130</title>
<path fill="none" stroke="midnightblue" d="M277.819,-136.911C303.389,-131.784 335.059,-125.433 361.968,-120.037"/>
<polygon fill="midnightblue" stroke="midnightblue" points="362.908,-123.418 372.025,-118.02 361.532,-116.555 362.908,-123.418"/>
</g>
<!-- Node131 -->
<g id="node10" class="node"><title>Node131</title>
<g id="a_node10"><a xlink:href="class_cleaner.html#a2f7d85e29f23f880a7ad7e28863b36c3" target="_top" xlink:title="Method that identifies and removes columns and sequences composed only by gaps. ">
<polygon fill="white" stroke="black" points="366,-49.5 366,-79.5 475,-79.5 475,-49.5 366,-49.5"/>
<text text-anchor="start" x="374" y="-67.5" font-family="Helvetica,sans-Serif" font-size="10.00">Cleaner::removeCols</text>
<text text-anchor="middle" x="420.5" y="-56.5" font-family="Helvetica,sans-Serif" font-size="10.00">_SeqsAllGaps</text>
</a>
</g>
</g>
<!-- Node123&#45;&gt;Node131 -->
<g id="edge9" class="edge"><title>Node123&#45;&gt;Node131</title>
<path fill="none" stroke="midnightblue" d="M244.494,-136.847C263.621,-124.46 298.658,-102.967 331,-89.5 339.032,-86.1557 347.654,-83.1024 356.252,-80.3677"/>
<polygon fill="midnightblue" stroke="midnightblue" points="357.373,-83.6848 365.915,-77.4171 355.329,-76.9899 357.373,-83.6848"/>
</g>
<!-- Node132 -->
<g id="node11" class="node"><title>Node132</title>
<g id="a_node11"><a xlink:href="classnew_alignment.html#a3de39c62c08a265178f1fa7df76c3ab7" target="_top" xlink:title="Method that copies information of the alignment to the pointers given. ">
<polygon fill="white" stroke="black" points="353,-0.5 353,-30.5 488,-30.5 488,-0.5 353,-0.5"/>
<text text-anchor="start" x="361" y="-18.5" font-family="Helvetica,sans-Serif" font-size="10.00">newAlignment::fillNewData</text>
<text text-anchor="middle" x="420.5" y="-7.5" font-family="Helvetica,sans-Serif" font-size="10.00">Structure</text>
</a>
</g>
</g>
<!-- Node123&#45;&gt;Node132 -->
<g id="edge11" class="edge"><title>Node123&#45;&gt;Node132</title>
<path fill="none" stroke="midnightblue" d="M236.348,-136.959C250.677,-116.18 287.677,-66.6124 331,-40.5 334.874,-38.1652 338.974,-36.0411 343.202,-34.1095"/>
<polygon fill="midnightblue" stroke="midnightblue" points="344.744,-37.2589 352.628,-30.1815 342.051,-30.7975 344.744,-37.2589"/>
</g>
<!-- Node127 -->
<g id="node6" class="node"><title>Node127</title>
<g id="a_node6"><a xlink:href="classutils.html#a3377ecde55631d1bbc4956e5923b7469" target="_top" xlink:title="Swapping elements method. ">
<polygon fill="white" stroke="black" points="576.5,-175 576.5,-194 640.5,-194 640.5,-175 576.5,-175"/>
<text text-anchor="middle" x="608.5" y="-182" font-family="Helvetica,sans-Serif" font-size="10.00">utils::swap</text>
</a>
</g>
</g>
<!-- Node126&#45;&gt;Node127 -->
<g id="edge5" class="edge"><title>Node126&#45;&gt;Node127</title>
<path fill="none" stroke="midnightblue" d="M460.946,-184.5C491.892,-184.5 534.838,-184.5 566.241,-184.5"/>
<polygon fill="midnightblue" stroke="midnightblue" points="566.414,-188 576.414,-184.5 566.414,-181 566.414,-188"/>
</g>
<!-- Node129 -->
<g id="node8" class="node"><title>Node129</title>
<g id="a_node8"><a xlink:href="class_verbose_manager.html#a261de87bbf9653cd729dca4e1fbeb2a3" target="_top" xlink:title="Method to report an Error. It will be displayed if VerboseManager::Level is equal or higher to Verbos...">
<polygon fill="white" stroke="black" points="546,-96 546,-115 671,-115 671,-96 546,-96"/>
<text text-anchor="middle" x="608.5" y="-103" font-family="Helvetica,sans-Serif" font-size="10.00">VerboseManager::Report</text>
</a>
</g>
</g>
<!-- Node128&#45;&gt;Node129 -->
<g id="edge7" class="edge"><title>Node128&#45;&gt;Node129</title>
<path fill="none" stroke="midnightblue" d="M466.542,-136.925C480.48,-133.937 495.881,-130.609 510,-127.5 524.871,-124.226 541.003,-120.612 555.784,-117.275"/>
<polygon fill="midnightblue" stroke="midnightblue" points="556.787,-120.636 565.769,-115.017 555.243,-113.809 556.787,-120.636"/>
</g>
<!-- Node131&#45;&gt;Node129 -->
<g id="edge10" class="edge"><title>Node131&#45;&gt;Node129</title>
<path fill="none" stroke="midnightblue" d="M475.299,-76.3589C500.099,-81.8257 529.452,-88.296 554.192,-93.7494"/>
<polygon fill="midnightblue" stroke="midnightblue" points="553.612,-97.2055 564.132,-95.9403 555.119,-90.3696 553.612,-97.2055"/>
</g>
</g>
</svg>
