<?xml version="1.0" encoding="UTF-8" standalone="no"?>
<!DOCTYPE svg PUBLIC "-//W3C//DTD SVG 1.1//EN"
 "http://www.w3.org/Graphics/SVG/1.1/DTD/svg11.dtd">
<!-- Generated by graphviz version 2.40.1 (20161225.0304)
 -->
<!-- Title: trimAlManager::svg_stats_out Pages: 1 -->
<svg width="1085pt" height="366pt"
 viewBox="0.00 0.00 1085.00 365.85" xmlns="http://www.w3.org/2000/svg" xmlns:xlink="http://www.w3.org/1999/xlink">
<g id="graph0" class="graph" transform="scale(1 1) rotate(0) translate(4 361.8506)">
<title>trimAlManager::svg_stats_out</title>
<polygon fill="#ffffff" stroke="transparent" points="-4,4 -4,-361.8506 1081,-361.8506 1081,4 -4,4"/>
<!-- Node1090 -->
<g id="node1" class="node">
<title>Node1090</title>
<g id="a_node1"><a xlink:title=" ">
<polygon fill="#bfbfbf" stroke="#000000" points="0,-108 0,-138 101,-138 101,-108 0,-108"/>
<text text-anchor="start" x="8" y="-126" font-family="Helvetica,sans-Serif" font-size="10.00" fill="#000000">trimAlManager::svg</text>
<text text-anchor="middle" x="50.5" y="-115" font-family="Helvetica,sans-Serif" font-size="10.00" fill="#000000">_stats_out</text>
</a>
</g>
</g>
<!-- Node1091 -->
<g id="node2" class="node">
<title>Node1091</title>
<g id="a_node2"><a xlink:href="classstatistics_1_1_manager.html#a92505ca5aedc5b45c4300a0e8a7d1e17" target="_top" xlink:title="Method to handle similarity stat calculation It checks if the similarity submodule has been created,...">
<polygon fill="#ffffff" stroke="#000000" points="137,-165 137,-195 280,-195 280,-165 137,-165"/>
<text text-anchor="start" x="145" y="-183" font-family="Helvetica,sans-Serif" font-size="10.00" fill="#000000">statistics::Manager</text>
<text text-anchor="middle" x="208.5" y="-172" font-family="Helvetica,sans-Serif" font-size="10.00" fill="#000000">::calculateConservationStats</text>
</a>
</g>
</g>
<!-- Node1090&#45;&gt;Node1091 -->
<g id="edge1" class="edge">
<title>Node1090&#45;&gt;Node1091</title>
<path fill="none" stroke="#191970" d="M92.4263,-138.1253C112.236,-145.2719 136.068,-153.8695 156.9696,-161.4099"/>
<polygon fill="#191970" stroke="#191970" points="156.0578,-164.8017 166.6522,-164.903 158.4333,-158.2171 156.0578,-164.8017"/>
</g>
<!-- Node1092 -->
<g id="node3" class="node">
<title>Node1092</title>
<g id="a_node3"><a xlink:href="classstatistics_1_1_manager.html#a1969a416d3020d25daa56de6c5e305db" target="_top" xlink:title="Method to handle gap stat calculation It checks if the gaps submodule has been created,...">
<polygon fill="#ffffff" stroke="#000000" points="607.5,-307 607.5,-337 710.5,-337 710.5,-307 607.5,-307"/>
<text text-anchor="start" x="615.5" y="-325" font-family="Helvetica,sans-Serif" font-size="10.00" fill="#000000">statistics::Manager</text>
<text text-anchor="middle" x="659" y="-314" font-family="Helvetica,sans-Serif" font-size="10.00" fill="#000000">::calculateGapStats</text>
</a>
</g>
</g>
<!-- Node1090&#45;&gt;Node1092 -->
<g id="edge26" class="edge">
<title>Node1090&#45;&gt;Node1092</title>
<path fill="none" stroke="#191970" d="M63.4896,-138.2505C98.9848,-178.6574 202.5635,-288.2969 316,-331 417.2677,-369.1222 451.544,-358.7142 559,-346 571.5214,-344.5185 584.7445,-342.0279 597.3292,-339.1978"/>
<polygon fill="#191970" stroke="#191970" points="598.3233,-342.5597 607.2595,-336.8681 596.7244,-335.7447 598.3233,-342.5597"/>
</g>
<!-- Node1110 -->
<g id="node21" class="node">
<title>Node1110</title>
<g id="a_node21"><a xlink:href="namespaceutils.html#a42f272221edf7752ffda49e4212ef653" target="_top" xlink:title="Integer vector copying.">
<polygon fill="#ffffff" stroke="#000000" points="167.5,-113.5 167.5,-132.5 249.5,-132.5 249.5,-113.5 167.5,-113.5"/>
<text text-anchor="middle" x="208.5" y="-120.5" font-family="Helvetica,sans-Serif" font-size="10.00" fill="#000000">utils::copyVect</text>
</a>
</g>
</g>
<!-- Node1090&#45;&gt;Node1110 -->
<g id="edge27" class="edge">
<title>Node1090&#45;&gt;Node1110</title>
<path fill="none" stroke="#191970" d="M101.3619,-123C119.3179,-123 139.5048,-123 157.4744,-123"/>
<polygon fill="#191970" stroke="#191970" points="157.4819,-126.5001 167.4818,-123 157.4818,-119.5001 157.4819,-126.5001"/>
</g>
<!-- Node1111 -->
<g id="node22" class="node">
<title>Node1111</title>
<g id="a_node22"><a xlink:href="namespaceutils.html#a73f038c379c13d23e3220afaa14f9983" target="_top" xlink:title="Quicksort sorting method.">
<polygon fill="#ffffff" stroke="#000000" points="168.5,-50.5 168.5,-69.5 248.5,-69.5 248.5,-50.5 168.5,-50.5"/>
<text text-anchor="middle" x="208.5" y="-57.5" font-family="Helvetica,sans-Serif" font-size="10.00" fill="#000000">utils::quicksort</text>
</a>
</g>
</g>
<!-- Node1090&#45;&gt;Node1111 -->
<g id="edge28" class="edge">
<title>Node1090&#45;&gt;Node1111</title>
<path fill="none" stroke="#191970" d="M88.3449,-107.9099C114.6193,-97.4335 149.32,-83.5971 174.6725,-73.4882"/>
<polygon fill="#191970" stroke="#191970" points="176.2404,-76.631 184.2329,-69.6761 173.6478,-70.1289 176.2404,-76.631"/>
</g>
<!-- Node1113 -->
<g id="node24" class="node">
<title>Node1113</title>
<g id="a_node24"><a xlink:href="namespaceutils.html#afbd5c408c723a242c2d536e6638b6ff7" target="_top" xlink:title=" ">
<polygon fill="#ffffff" stroke="#000000" points="162.5,-12.5 162.5,-31.5 254.5,-31.5 254.5,-12.5 162.5,-12.5"/>
<text text-anchor="middle" x="208.5" y="-19.5" font-family="Helvetica,sans-Serif" font-size="10.00" fill="#000000">utils::streamSVG</text>
</a>
</g>
</g>
<!-- Node1090&#45;&gt;Node1113 -->
<g id="edge30" class="edge">
<title>Node1090&#45;&gt;Node1113</title>
<path fill="none" stroke="#191970" d="M62.2902,-107.9121C77.559,-89.4024 105.9241,-58.3505 137,-41 141.8362,-38.2998 147.0721,-35.9701 152.4357,-33.9628"/>
<polygon fill="#191970" stroke="#191970" points="153.8079,-37.194 162.1693,-30.6874 151.5753,-30.5596 153.8079,-37.194"/>
</g>
<!-- Node1091&#45;&gt;Node1092 -->
<g id="edge2" class="edge">
<title>Node1091&#45;&gt;Node1092</title>
<path fill="none" stroke="#191970" d="M216.3563,-195.1681C231.4378,-222.4691 267.3174,-279.2466 316,-303 406.0417,-346.9334 525.609,-341.3897 597.1801,-332.3852"/>
<polygon fill="#191970" stroke="#191970" points="597.927,-335.817 607.3822,-331.037 597.0099,-328.8773 597.927,-335.817"/>
</g>
<!-- Node1098 -->
<g id="node9" class="node">
<title>Node1098</title>
<g id="a_node9"><a xlink:href="classstatistics_1_1_similarity.html#a95126bfd6b0ed22c828a6ab780096a12" target="_top" xlink:title="Stores a valid similarity matrix point to use.">
<polygon fill="#ffffff" stroke="#000000" points="316,-165 316,-195 420,-195 420,-165 316,-165"/>
<text text-anchor="start" x="324" y="-183" font-family="Helvetica,sans-Serif" font-size="10.00" fill="#000000">statistics::Similarity</text>
<text text-anchor="middle" x="368" y="-172" font-family="Helvetica,sans-Serif" font-size="10.00" fill="#000000">::setSimilarityMatrix</text>
</a>
</g>
</g>
<!-- Node1091&#45;&gt;Node1098 -->
<g id="edge8" class="edge">
<title>Node1091&#45;&gt;Node1098</title>
<path fill="none" stroke="#191970" d="M280.3178,-180C288.6898,-180 297.1796,-180 305.4131,-180"/>
<polygon fill="#191970" stroke="#191970" points="305.6771,-183.5001 315.6771,-180 305.6771,-176.5001 305.6771,-183.5001"/>
</g>
<!-- Node1099 -->
<g id="node10" class="node">
<title>Node1099</title>
<g id="a_node10"><a xlink:href="classstatistics_1_1_similarity.html#adcb5627b9704850e85433fc40c19db17" target="_top" xlink:title="Allows us compute the conservationWindow&#39;s values.">
<polygon fill="#ffffff" stroke="#000000" points="316.5,-77 316.5,-107 419.5,-107 419.5,-77 316.5,-77"/>
<text text-anchor="start" x="324.5" y="-95" font-family="Helvetica,sans-Serif" font-size="10.00" fill="#000000">statistics::Similarity</text>
<text text-anchor="middle" x="368" y="-84" font-family="Helvetica,sans-Serif" font-size="10.00" fill="#000000">::applyWindow</text>
</a>
</g>
</g>
<!-- Node1091&#45;&gt;Node1099 -->
<g id="edge9" class="edge">
<title>Node1091&#45;&gt;Node1099</title>
<path fill="none" stroke="#191970" d="M237.4748,-164.8382C250.5172,-157.9524 266.0796,-149.6518 280,-142 297.5063,-132.3771 316.8189,-121.4402 332.881,-112.2542"/>
<polygon fill="#191970" stroke="#191970" points="334.9886,-115.0804 341.9242,-107.0711 331.5078,-109.0072 334.9886,-115.0804"/>
</g>
<!-- Node1100 -->
<g id="node11" class="node">
<title>Node1100</title>
<g id="a_node11"><a xlink:href="classstatistics_1_1_similarity.html#ae69ec0e79912ae23c8cfe97358c4794d" target="_top" xlink:title="Method to calculate the similarity values of a alignment matrix.">
<polygon fill="#ffffff" stroke="#000000" points="456,-153 456,-183 559,-183 559,-153 456,-153"/>
<text text-anchor="start" x="464" y="-171" font-family="Helvetica,sans-Serif" font-size="10.00" fill="#000000">statistics::Similarity</text>
<text text-anchor="middle" x="507.5" y="-160" font-family="Helvetica,sans-Serif" font-size="10.00" fill="#000000">::calculateVectors</text>
</a>
</g>
</g>
<!-- Node1091&#45;&gt;Node1100 -->
<g id="edge24" class="edge">
<title>Node1091&#45;&gt;Node1100</title>
<path fill="none" stroke="#191970" d="M265.0146,-164.9411C281.3438,-161.2568 299.2735,-157.8444 316,-156 361.9437,-150.9338 373.8851,-152.8526 420,-156 428.3563,-156.5703 437.1304,-157.4436 445.7636,-158.4647"/>
<polygon fill="#191970" stroke="#191970" points="445.4424,-161.9517 455.7999,-159.7218 446.3125,-155.006 445.4424,-161.9517"/>
</g>
<!-- Node1108 -->
<g id="node19" class="node">
<title>Node1108</title>
<g id="a_node19"><a xlink:href="classstatistics_1_1_similarity.html#a88b1061ad8e64c1a63a4aa00db7424e3" target="_top" xlink:title="Returns if a similarity matrix is being used or not.">
<polygon fill="#ffffff" stroke="#000000" points="316.5,-263 316.5,-293 419.5,-293 419.5,-263 316.5,-263"/>
<text text-anchor="start" x="324.5" y="-281" font-family="Helvetica,sans-Serif" font-size="10.00" fill="#000000">statistics::Similarity</text>
<text text-anchor="middle" x="368" y="-270" font-family="Helvetica,sans-Serif" font-size="10.00" fill="#000000">::isSimMatrixDef</text>
</a>
</g>
</g>
<!-- Node1091&#45;&gt;Node1108 -->
<g id="edge23" class="edge">
<title>Node1091&#45;&gt;Node1108</title>
<path fill="none" stroke="#191970" d="M228.4362,-195.258C249.5275,-211.0281 284.1036,-235.837 316,-254 318.6366,-255.5014 321.3836,-256.9859 324.177,-258.4361"/>
<polygon fill="#191970" stroke="#191970" points="322.6689,-261.5951 333.1793,-262.9304 325.7956,-255.3322 322.6689,-261.5951"/>
</g>
<!-- Node1109 -->
<g id="node20" class="node">
<title>Node1109</title>
<g id="a_node20"><a xlink:href="classstatistics_1_1_similarity.html#a4446bf070a858952dac45f5705d16780" target="_top" xlink:title="Returns if a windows size value has been defined or not.">
<polygon fill="#ffffff" stroke="#000000" points="316.5,-214 316.5,-244 419.5,-244 419.5,-214 316.5,-214"/>
<text text-anchor="start" x="324.5" y="-232" font-family="Helvetica,sans-Serif" font-size="10.00" fill="#000000">statistics::Similarity</text>
<text text-anchor="middle" x="368" y="-221" font-family="Helvetica,sans-Serif" font-size="10.00" fill="#000000">::isDefinedWindow</text>
</a>
</g>
</g>
<!-- Node1091&#45;&gt;Node1109 -->
<g id="edge25" class="edge">
<title>Node1091&#45;&gt;Node1109</title>
<path fill="none" stroke="#191970" d="M257.6567,-195.1014C273.9546,-200.1083 292.2617,-205.7324 309.2095,-210.939"/>
<polygon fill="#191970" stroke="#191970" points="308.4186,-214.3574 319.0056,-213.9484 310.4743,-207.666 308.4186,-214.3574"/>
</g>
<!-- Node1093 -->
<g id="node4" class="node">
<title>Node1093</title>
<g id="a_node4"><a xlink:href="classstatistics_1_1_gaps.html#aa3526494d5100e062daa4afba755d0b1" target="_top" xlink:title=" ">
<polygon fill="#ffffff" stroke="#000000" points="767.5,-307 767.5,-337 900.5,-337 900.5,-307 767.5,-307"/>
<text text-anchor="start" x="775.5" y="-325" font-family="Helvetica,sans-Serif" font-size="10.00" fill="#000000">statistics::Gaps::Calculate</text>
<text text-anchor="middle" x="834" y="-314" font-family="Helvetica,sans-Serif" font-size="10.00" fill="#000000">Vectors</text>
</a>
</g>
</g>
<!-- Node1092&#45;&gt;Node1093 -->
<g id="edge3" class="edge">
<title>Node1092&#45;&gt;Node1093</title>
<path fill="none" stroke="#191970" d="M710.5593,-322C725.1154,-322 741.2776,-322 756.9828,-322"/>
<polygon fill="#191970" stroke="#191970" points="757.2159,-325.5001 767.2159,-322 757.2158,-318.5001 757.2159,-325.5001"/>
</g>
<!-- Node1094 -->
<g id="node5" class="node">
<title>Node1094</title>
<g id="a_node5"><a xlink:href="classstatistics_1_1_gaps.html#aee36b772767467cdba2061df2305e85d" target="_top" xlink:title=" ">
<polygon fill="#ffffff" stroke="#000000" points="759,-185.5 759,-204.5 909,-204.5 909,-185.5 759,-185.5"/>
<text text-anchor="middle" x="834" y="-192.5" font-family="Helvetica,sans-Serif" font-size="10.00" fill="#000000">statistics::Gaps::applyWindow</text>
</a>
</g>
</g>
<!-- Node1092&#45;&gt;Node1094 -->
<g id="edge4" class="edge">
<title>Node1092&#45;&gt;Node1094</title>
<path fill="none" stroke="#191970" d="M674.8432,-306.8373C693.9292,-288.9833 727.3823,-258.9804 759,-237 773.7759,-226.7279 791.2726,-216.8141 805.6484,-209.2001"/>
<polygon fill="#191970" stroke="#191970" points="807.3308,-212.2702 814.5847,-204.5482 804.0985,-206.0612 807.3308,-212.2702"/>
</g>
<!-- Node1095 -->
<g id="node6" class="node">
<title>Node1095</title>
<g id="a_node6"><a xlink:href="classreporting_1_1report_manager.html#a6d122e673144584e0869bd33b8a5c1c6" target="_top" xlink:title="Method to report an Error. &#160;It will be displayed if Level &#160;is equal or higher to VerboseLevel::ERROR.">
<polygon fill="#ffffff" stroke="#000000" points="950,-87 950,-117 1072,-117 1072,-87 950,-87"/>
<text text-anchor="start" x="958" y="-105" font-family="Helvetica,sans-Serif" font-size="10.00" fill="#000000">reporting::reportManager</text>
<text text-anchor="middle" x="1011" y="-94" font-family="Helvetica,sans-Serif" font-size="10.00" fill="#000000">::report</text>
</a>
</g>
</g>
<!-- Node1094&#45;&gt;Node1095 -->
<g id="edge5" class="edge">
<title>Node1094&#45;&gt;Node1095</title>
<path fill="none" stroke="#191970" d="M883.3971,-185.4544C892.1418,-182.937 901.0012,-179.8226 909,-176 927.0453,-167.3763 928.8531,-160.8016 945,-149 956.7649,-140.4012 969.8158,-131.0652 981.1854,-122.9969"/>
<polygon fill="#191970" stroke="#191970" points="983.3644,-125.7426 989.5029,-117.1072 979.3191,-120.0298 983.3644,-125.7426"/>
</g>
<!-- Node1096 -->
<g id="node7" class="node">
<title>Node1096</title>
<g id="a_node7"><a xlink:href="namespaceutils.html#aac322cd1761fddedec8a5792e358eb32" target="_top" xlink:title="Vector initialization.">
<polygon fill="#ffffff" stroke="#000000" points="973,-158.5 973,-177.5 1049,-177.5 1049,-158.5 973,-158.5"/>
<text text-anchor="middle" x="1011" y="-165.5" font-family="Helvetica,sans-Serif" font-size="10.00" fill="#000000">utils::initlVect</text>
</a>
</g>
</g>
<!-- Node1094&#45;&gt;Node1096 -->
<g id="edge6" class="edge">
<title>Node1094&#45;&gt;Node1096</title>
<path fill="none" stroke="#191970" d="M896.4036,-185.4808C918.2006,-182.1558 942.3172,-178.477 962.781,-175.3554"/>
<polygon fill="#191970" stroke="#191970" points="963.4537,-178.7934 972.8116,-173.8254 962.3981,-171.8734 963.4537,-178.7934"/>
</g>
<!-- Node1097 -->
<g id="node8" class="node">
<title>Node1097</title>
<g id="a_node8"><a xlink:href="namespaceutils.html#ad50731aeb3c8f79ed8372516210dfc9d" target="_top" xlink:title="Round double to integer method.">
<polygon fill="#ffffff" stroke="#000000" points="973,-196.5 973,-215.5 1049,-215.5 1049,-196.5 973,-196.5"/>
<text text-anchor="middle" x="1011" y="-203.5" font-family="Helvetica,sans-Serif" font-size="10.00" fill="#000000">utils::roundInt</text>
</a>
</g>
</g>
<!-- Node1094&#45;&gt;Node1097 -->
<g id="edge7" class="edge">
<title>Node1094&#45;&gt;Node1097</title>
<path fill="none" stroke="#191970" d="M909.0639,-199.665C927.3223,-200.7997 946.3618,-201.9829 962.9757,-203.0154"/>
<polygon fill="#191970" stroke="#191970" points="962.7802,-206.51 972.9781,-203.6371 963.2145,-199.5234 962.7802,-206.51"/>
</g>
<!-- Node1099&#45;&gt;Node1095 -->
<g id="edge22" class="edge">
<title>Node1099&#45;&gt;Node1095</title>
<path fill="none" stroke="#191970" d="M419.6866,-85.8313C516.2102,-75.3814 730.2758,-57.2569 909,-78 921.5478,-79.4563 934.7929,-81.8883 947.4339,-84.6596"/>
<polygon fill="#191970" stroke="#191970" points="946.8888,-88.1252 957.4174,-86.9427 948.4493,-81.3014 946.8888,-88.1252"/>
</g>
<!-- Node1099&#45;&gt;Node1100 -->
<g id="edge10" class="edge">
<title>Node1099&#45;&gt;Node1100</title>
<path fill="none" stroke="#191970" d="M395.5607,-107.0152C417.0108,-118.7012 446.9878,-135.0328 470.5224,-147.8545"/>
<polygon fill="#191970" stroke="#191970" points="469.0632,-151.0452 479.5191,-152.7559 472.4121,-144.8983 469.0632,-151.0452"/>
</g>
<!-- Node1100&#45;&gt;Node1092 -->
<g id="edge14" class="edge">
<title>Node1100&#45;&gt;Node1092</title>
<path fill="none" stroke="#191970" d="M514.9118,-183.2731C527.9513,-208.7798 557.2307,-260.3604 595,-292 599.4594,-295.7357 604.4619,-299.1165 609.6534,-302.1459"/>
<polygon fill="#191970" stroke="#191970" points="608.0422,-305.2535 618.5063,-306.9129 611.361,-299.0902 608.0422,-305.2535"/>
</g>
<!-- Node1101 -->
<g id="node12" class="node">
<title>Node1101</title>
<g id="a_node12"><a xlink:href="classstatistics_1_1_similarity.html#a75bd235b3207235eefa7b52dff063c76" target="_top" xlink:title="Computes the matrix identity between alignment&#39;s columns.">
<polygon fill="#ffffff" stroke="#000000" points="598.5,-219 598.5,-249 719.5,-249 719.5,-219 598.5,-219"/>
<text text-anchor="start" x="606.5" y="-237" font-family="Helvetica,sans-Serif" font-size="10.00" fill="#000000">statistics::Similarity</text>
<text text-anchor="middle" x="659" y="-226" font-family="Helvetica,sans-Serif" font-size="10.00" fill="#000000">::calculateMatrixIdentity</text>
</a>
</g>
</g>
<!-- Node1100&#45;&gt;Node1101 -->
<g id="edge11" class="edge">
<title>Node1100&#45;&gt;Node1101</title>
<path fill="none" stroke="#191970" d="M538.4573,-183.1126C555.0971,-191.0814 576.0373,-200.8641 595,-209 599.7429,-211.0349 604.7107,-213.0961 609.6919,-215.1166"/>
<polygon fill="#191970" stroke="#191970" points="608.6473,-218.4683 619.2319,-218.9341 611.248,-211.9694 608.6473,-218.4683"/>
</g>
<!-- Node1102 -->
<g id="node13" class="node">
<title>Node1102</title>
<g id="a_node13"><a xlink:href="class_alignment.html#a1bc7622776f3935f6cb9d3c895e43a29" target="_top" xlink:title="Alignment type getter. &#160;&#160;See SequenceTypes.">
<polygon fill="#ffffff" stroke="#000000" points="761.5,-246.5 761.5,-265.5 906.5,-265.5 906.5,-246.5 761.5,-246.5"/>
<text text-anchor="middle" x="834" y="-253.5" font-family="Helvetica,sans-Serif" font-size="10.00" fill="#000000">Alignment::getAlignmentType</text>
</a>
</g>
</g>
<!-- Node1100&#45;&gt;Node1102 -->
<g id="edge18" class="edge">
<title>Node1100&#45;&gt;Node1102</title>
<path fill="none" stroke="#191970" d="M516.4591,-183.2127C530.1893,-204.8353 558.7019,-243.5462 595,-259 656.9729,-285.3847 736.441,-277.1048 786.3041,-267.5114"/>
<polygon fill="#191970" stroke="#191970" points="787.0624,-270.929 796.1729,-265.5208 785.6782,-264.0672 787.0624,-270.929"/>
</g>
<!-- Node1104 -->
<g id="node15" class="node">
<title>Node1104</title>
<g id="a_node15"><a xlink:href="classstatistics_1_1_gaps.html#ab5b60db326475f8adc68b130e22b3963" target="_top" xlink:title=" ">
<polygon fill="#ffffff" stroke="#000000" points="595,-131 595,-161 723,-161 723,-131 595,-131"/>
<text text-anchor="start" x="603" y="-149" font-family="Helvetica,sans-Serif" font-size="10.00" fill="#000000">statistics::Gaps::getGaps</text>
<text text-anchor="middle" x="659" y="-138" font-family="Helvetica,sans-Serif" font-size="10.00" fill="#000000">Window</text>
</a>
</g>
</g>
<!-- Node1100&#45;&gt;Node1104 -->
<g id="edge15" class="edge">
<title>Node1100&#45;&gt;Node1104</title>
<path fill="none" stroke="#191970" d="M559.214,-160.4904C567.4698,-159.2915 576.1506,-158.0309 584.8044,-156.7743"/>
<polygon fill="#191970" stroke="#191970" points="585.5304,-160.2056 594.9236,-155.3048 584.5244,-153.2783 585.5304,-160.2056"/>
</g>
<!-- Node1106 -->
<g id="node17" class="node">
<title>Node1106</title>
<g id="a_node17"><a xlink:href="namespaceutils.html#a6286fde6f4dd58ef0cfa9d55341b72f8" target="_top" xlink:title=" ">
<polygon fill="#ffffff" stroke="#000000" points="621.5,-180.5 621.5,-199.5 696.5,-199.5 696.5,-180.5 621.5,-180.5"/>
<text text-anchor="middle" x="659" y="-187.5" font-family="Helvetica,sans-Serif" font-size="10.00" fill="#000000">utils::toUpper</text>
</a>
</g>
</g>
<!-- Node1100&#45;&gt;Node1106 -->
<g id="edge19" class="edge">
<title>Node1100&#45;&gt;Node1106</title>
<path fill="none" stroke="#191970" d="M559.214,-175.5096C576.1088,-177.963 594.7831,-180.6748 611.3634,-183.0825"/>
<polygon fill="#191970" stroke="#191970" points="610.9826,-186.5638 621.3818,-184.5373 611.9886,-179.6365 610.9826,-186.5638"/>
</g>
<!-- Node1107 -->
<g id="node18" class="node">
<title>Node1107</title>
<g id="a_node18"><a xlink:href="classstatistics_1_1similarity_matrix.html#a2a17eb464ec28ba83edbcbe271e7ff62" target="_top" xlink:title="Method to get the similarity distance between two residues, A and B Characters provided must be both ...">
<polygon fill="#ffffff" stroke="#000000" points="770,-87 770,-117 898,-117 898,-87 770,-87"/>
<text text-anchor="start" x="778" y="-105" font-family="Helvetica,sans-Serif" font-size="10.00" fill="#000000">statistics::similarityMatrix</text>
<text text-anchor="middle" x="834" y="-94" font-family="Helvetica,sans-Serif" font-size="10.00" fill="#000000">::getDistance</text>
</a>
</g>
</g>
<!-- Node1100&#45;&gt;Node1107 -->
<g id="edge20" class="edge">
<title>Node1100&#45;&gt;Node1107</title>
<path fill="none" stroke="#191970" d="M530.1824,-152.8172C547.2412,-142.2296 571.6041,-128.8226 595,-122 648.6264,-106.3617 711.6829,-101.6213 759.5586,-100.6515"/>
<polygon fill="#191970" stroke="#191970" points="759.8964,-104.1469 769.8423,-100.4961 759.7905,-97.1477 759.8964,-104.1469"/>
</g>
<!-- Node1101&#45;&gt;Node1102 -->
<g id="edge12" class="edge">
<title>Node1101&#45;&gt;Node1102</title>
<path fill="none" stroke="#191970" d="M719.7154,-241.6328C729.8896,-242.9118 740.5986,-244.2581 751.2147,-245.5927"/>
<polygon fill="#191970" stroke="#191970" points="750.9856,-249.0914 761.3441,-246.8661 751.8588,-242.146 750.9856,-249.0914"/>
</g>
<!-- Node1103 -->
<g id="node14" class="node">
<title>Node1103</title>
<g id="a_node14"><a xlink:href="namespaceutils.html#aab52f9515717f06cafd6ab7fe2ebdcef" target="_top" xlink:title="Checks an alignment type.">
<polygon fill="#ffffff" stroke="#000000" points="945,-246.5 945,-265.5 1077,-265.5 1077,-246.5 945,-246.5"/>
<text text-anchor="middle" x="1011" y="-253.5" font-family="Helvetica,sans-Serif" font-size="10.00" fill="#000000">utils::checkAlignmentType</text>
</a>
</g>
</g>
<!-- Node1102&#45;&gt;Node1103 -->
<g id="edge13" class="edge">
<title>Node1102&#45;&gt;Node1103</title>
<path fill="none" stroke="#191970" d="M906.5034,-256C915.8282,-256 925.3981,-256 934.7802,-256"/>
<polygon fill="#191970" stroke="#191970" points="934.8666,-259.5001 944.8666,-256 934.8665,-252.5001 934.8666,-259.5001"/>
</g>
<!-- Node1104&#45;&gt;Node1094 -->
<g id="edge17" class="edge">
<title>Node1104&#45;&gt;Node1094</title>
<path fill="none" stroke="#191970" d="M707.7057,-161.0731C723.9736,-165.9842 742.2289,-171.3623 759,-176 767.4657,-178.341 776.4999,-180.7257 785.26,-182.9791"/>
<polygon fill="#191970" stroke="#191970" points="784.4343,-186.3805 794.9889,-185.4581 786.1628,-179.5972 784.4343,-186.3805"/>
</g>
<!-- Node1105 -->
<g id="node16" class="node">
<title>Node1105</title>
<g id="a_node16"><a xlink:href="classstatistics_1_1_gaps.html#ad812a924cf5e3f900aad3ed4a9664300" target="_top" xlink:title=" ">
<polygon fill="#ffffff" stroke="#000000" points="767.5,-136 767.5,-166 900.5,-166 900.5,-136 767.5,-136"/>
<text text-anchor="start" x="775.5" y="-154" font-family="Helvetica,sans-Serif" font-size="10.00" fill="#000000">statistics::Gaps::isDefined</text>
<text text-anchor="middle" x="834" y="-143" font-family="Helvetica,sans-Serif" font-size="10.00" fill="#000000">Window</text>
</a>
</g>
</g>
<!-- Node1104&#45;&gt;Node1105 -->
<g id="edge16" class="edge">
<title>Node1104&#45;&gt;Node1105</title>
<path fill="none" stroke="#191970" d="M723.1698,-147.8334C734.2233,-148.1492 745.8127,-148.4804 757.1593,-148.8046"/>
<polygon fill="#191970" stroke="#191970" points="757.3931,-152.3126 767.4891,-149.0997 757.5931,-145.3154 757.3931,-152.3126"/>
</g>
<!-- Node1107&#45;&gt;Node1095 -->
<g id="edge21" class="edge">
<title>Node1107&#45;&gt;Node1095</title>
<path fill="none" stroke="#191970" d="M898.1513,-102C911.5538,-102 925.7642,-102 939.4167,-102"/>
<polygon fill="#191970" stroke="#191970" points="939.7255,-105.5001 949.7254,-102 939.7254,-98.5001 939.7255,-105.5001"/>
</g>
<!-- Node1112 -->
<g id="node23" class="node">
<title>Node1112</title>
<g id="a_node23"><a xlink:href="namespaceutils.html#a3377ecde55631d1bbc4956e5923b7469" target="_top" xlink:title="Swapping elements method.">
<polygon fill="#ffffff" stroke="#000000" points="336,-38.5 336,-57.5 400,-57.5 400,-38.5 336,-38.5"/>
<text text-anchor="middle" x="368" y="-45.5" font-family="Helvetica,sans-Serif" font-size="10.00" fill="#000000">utils::swap</text>
</a>
</g>
</g>
<!-- Node1111&#45;&gt;Node1112 -->
<g id="edge29" class="edge">
<title>Node1111&#45;&gt;Node1112</title>
<path fill="none" stroke="#191970" d="M248.7486,-56.9719C272.2225,-55.2058 301.8049,-52.9802 325.6329,-51.1875"/>
<polygon fill="#191970" stroke="#191970" points="326.0856,-54.6634 335.7948,-50.423 325.5604,-47.6831 326.0856,-54.6634"/>
</g>
<!-- Node1114 -->
<g id="node25" class="node">
<title>Node1114</title>
<g id="a_node25"><a xlink:href="namespaceutils.html#ab04f5770187b0a8c36c3c8ca55f1e67f" target="_top" xlink:title="Minimum of two numbers method.">
<polygon fill="#ffffff" stroke="#000000" points="340,-.5 340,-19.5 396,-19.5 396,-.5 340,-.5"/>
<text text-anchor="middle" x="368" y="-7.5" font-family="Helvetica,sans-Serif" font-size="10.00" fill="#000000">utils::min</text>
</a>
</g>
</g>
<!-- Node1113&#45;&gt;Node1114 -->
<g id="edge31" class="edge">
<title>Node1113&#45;&gt;Node1114</title>
<path fill="none" stroke="#191970" d="M254.634,-18.5291C278.4618,-16.7364 307.1902,-14.575 329.7648,-12.8766"/>
<polygon fill="#191970" stroke="#191970" points="330.2741,-16.3483 339.9833,-12.1078 329.7489,-9.368 330.2741,-16.3483"/>
</g>
</g>
</svg>
