<?xml version="1.0" encoding="UTF-8" standalone="no"?>
<!DOCTYPE svg PUBLIC "-//W3C//DTD SVG 1.1//EN"
 "http://www.w3.org/Graphics/SVG/1.1/DTD/svg11.dtd">
<!-- Generated by graphviz version 2.38.0 (20140413.2041)
 -->
<!-- Title: Cleaner::removeSmallerBlocks Pages: 1 -->
<svg width="997pt" height="218pt"
 viewBox="0.00 0.00 997.00 218.00" xmlns="http://www.w3.org/2000/svg" xmlns:xlink="http://www.w3.org/1999/xlink">
<g id="graph0" class="graph" transform="scale(1 1) rotate(0) translate(4 214)">
<title>Cleaner::removeSmallerBlocks</title>
<polygon fill="white" stroke="none" points="-4,4 -4,-214 993,-214 993,4 -4,4"/>
<!-- Node242 -->
<g id="node1" class="node"><title>Node242</title>
<polygon fill="#bfbfbf" stroke="black" points="0,-68.5 0,-87.5 152,-87.5 152,-68.5 0,-68.5"/>
<text text-anchor="middle" x="76" y="-75.5" font-family="Helvetica,sans-Serif" font-size="10.00">Cleaner::removeSmallerBlocks</text>
</g>
<!-- Node243 -->
<g id="node2" class="node"><title>Node243</title>
<g id="a_node2"><a xlink:href="class_cleaner.html#a66bda5807c06cfaf1609e4c1f5955671" target="_top" xlink:title="Method to clean an alignment. &#160;It removes sequences that overpass or equals a certain threshold...">
<polygon fill="white" stroke="black" points="188,-116 188,-146 320,-146 320,-116 188,-116"/>
<text text-anchor="start" x="196" y="-134" font-family="Helvetica,sans-Serif" font-size="10.00">Cleaner::cleanByCutValue</text>
<text text-anchor="middle" x="254" y="-123" font-family="Helvetica,sans-Serif" font-size="10.00">Overpass</text>
</a>
</g>
</g>
<!-- Node242&#45;&gt;Node243 -->
<g id="edge1" class="edge"><title>Node242&#45;&gt;Node243</title>
<path fill="none" stroke="midnightblue" d="M118.542,-90.5098C143.854,-98.1321 176.355,-107.92 203.063,-115.962"/>
<polygon fill="midnightblue" stroke="midnightblue" points="119.457,-87.1301 108.872,-87.5979 117.438,-93.8328 119.457,-87.1301"/>
</g>
<!-- Node251 -->
<g id="node10" class="node"><title>Node251</title>
<g id="a_node10"><a xlink:href="class_cleaner.html#aa85792ad5a7c3209509a689fb0410e92" target="_top" xlink:title="Method to clean an alignment. &#160;It removes sequences that fall behind a certain threshold. &#160;The function detects if it would clean too many sequences, and relaxes the threshold until we have enough sequences to achieve the given percentage desired to keep. &#160;To achieve this, the method starts in the middle of the sequence and, alternating sides, adds column one by one. ">
<polygon fill="white" stroke="black" points="188,-63 188,-93 320,-93 320,-63 188,-63"/>
<text text-anchor="start" x="196" y="-81" font-family="Helvetica,sans-Serif" font-size="10.00">Cleaner::cleanByCutValue</text>
<text text-anchor="middle" x="254" y="-70" font-family="Helvetica,sans-Serif" font-size="10.00">FallBehind</text>
</a>
</g>
</g>
<!-- Node242&#45;&gt;Node251 -->
<g id="edge10" class="edge"><title>Node242&#45;&gt;Node251</title>
<path fill="none" stroke="midnightblue" d="M162.218,-78C170.825,-78 179.467,-78 187.815,-78"/>
<polygon fill="midnightblue" stroke="midnightblue" points="162.15,-74.5001 152.15,-78 162.15,-81.5001 162.15,-74.5001"/>
</g>
<!-- Node254 -->
<g id="node13" class="node"><title>Node254</title>
<g id="a_node13"><a xlink:href="class_cleaner.html#ae7ad16bc3ad459a12c908801fa20da66" target="_top" xlink:title="Method to clean an alignment. &#160;It removes sequences that overpass or equals &#160;the gap threshold but &#160;f...">
<polygon fill="white" stroke="black" points="188,-6 188,-36 320,-36 320,-6 188,-6"/>
<text text-anchor="start" x="196" y="-24" font-family="Helvetica,sans-Serif" font-size="10.00">Cleaner::cleanByCutValue</text>
<text text-anchor="middle" x="254" y="-13" font-family="Helvetica,sans-Serif" font-size="10.00">OverpassOrEquals</text>
</a>
</g>
</g>
<!-- Node242&#45;&gt;Node254 -->
<g id="edge15" class="edge"><title>Node242&#45;&gt;Node254</title>
<path fill="none" stroke="midnightblue" d="M116.233,-65.2939C142.944,-56.6433 178.415,-45.1555 206.54,-36.0468"/>
<polygon fill="midnightblue" stroke="midnightblue" points="114.894,-62.0486 106.458,-68.4595 117.05,-68.7081 114.894,-62.0486"/>
</g>
<!-- Node244 -->
<g id="node3" class="node"><title>Node244</title>
<g id="a_node3"><a xlink:href="class_cleaner.html#ac3be9d53018d9146d6dc6cf7ff89f96d" target="_top" xlink:title="Method to trim an alignment based on the gap distribution values. Column blocks that don&#39;t have a min...">
<polygon fill="white" stroke="black" points="373,-114.5 373,-133.5 476,-133.5 476,-114.5 373,-114.5"/>
<text text-anchor="middle" x="424.5" y="-121.5" font-family="Helvetica,sans-Serif" font-size="10.00">Cleaner::cleanGaps</text>
</a>
</g>
</g>
<!-- Node243&#45;&gt;Node244 -->
<g id="edge2" class="edge"><title>Node243&#45;&gt;Node244</title>
<path fill="none" stroke="midnightblue" d="M330.511,-127.863C344.861,-127.267 359.553,-126.657 372.897,-126.102"/>
<polygon fill="midnightblue" stroke="midnightblue" points="329.993,-124.381 320.146,-128.294 330.283,-131.375 329.993,-124.381"/>
</g>
<!-- Node248 -->
<g id="node7" class="node"><title>Node248</title>
<g id="a_node7"><a xlink:href="class_cleaner.html#a1ea9656823727f9ec237c82f9fb529cf" target="_top" xlink:title="Method that carries the gappyout approach. This methods calculates the slope in gaps distribution on ...">
<polygon fill="white" stroke="black" points="364.5,-152.5 364.5,-171.5 484.5,-171.5 484.5,-152.5 364.5,-152.5"/>
<text text-anchor="middle" x="424.5" y="-159.5" font-family="Helvetica,sans-Serif" font-size="10.00">Cleaner::clean2ndSlope</text>
</a>
</g>
</g>
<!-- Node243&#45;&gt;Node248 -->
<g id="edge6" class="edge"><title>Node243&#45;&gt;Node248</title>
<path fill="none" stroke="midnightblue" d="M330.29,-144.852C344.333,-147.435 358.711,-150.08 371.841,-152.496"/>
<polygon fill="midnightblue" stroke="midnightblue" points="330.615,-141.353 320.146,-142.985 329.348,-148.237 330.615,-141.353"/>
</g>
<!-- Node249 -->
<g id="node8" class="node"><title>Node249</title>
<g id="a_node8"><a xlink:href="class_cleaner.html#a08e6db52c33baccce53a33d844597d7b" target="_top" xlink:title="Method to remove columns composed only by gaps This method is specially useful when we remove missali...">
<polygon fill="white" stroke="black" points="361,-190.5 361,-209.5 488,-209.5 488,-190.5 361,-190.5"/>
<text text-anchor="middle" x="424.5" y="-197.5" font-family="Helvetica,sans-Serif" font-size="10.00">Cleaner::cleanNoAllGaps</text>
</a>
</g>
</g>
<!-- Node243&#45;&gt;Node249 -->
<g id="edge7" class="edge"><title>Node243&#45;&gt;Node249</title>
<path fill="none" stroke="midnightblue" d="M291.122,-150.919C310.062,-160.837 333.871,-172.492 356,-181 365.204,-184.539 375.342,-187.74 384.9,-190.463"/>
<polygon fill="midnightblue" stroke="midnightblue" points="292.719,-147.804 282.244,-146.211 289.439,-153.988 292.719,-147.804"/>
</g>
<!-- Node245 -->
<g id="node4" class="node"><title>Node245</title>
<g id="a_node4"><a xlink:href="classtrim_al_manager.html#aebfd21b0435302f0e4fc45a068d1b6ee" target="_top" xlink:title="Method to trim the alignment using non automatic methods: ">
<polygon fill="white" stroke="black" points="533,-71 533,-101 685,-101 685,-71 533,-71"/>
<text text-anchor="start" x="541" y="-89" font-family="Helvetica,sans-Serif" font-size="10.00">trimAlManager::CleanResidues</text>
<text text-anchor="middle" x="609" y="-78" font-family="Helvetica,sans-Serif" font-size="10.00">NonAuto</text>
</a>
</g>
</g>
<!-- Node244&#45;&gt;Node245 -->
<g id="edge3" class="edge"><title>Node244&#45;&gt;Node245</title>
<path fill="none" stroke="midnightblue" d="M481.388,-112.363C498.517,-108.796 517.613,-104.82 535.675,-101.06"/>
<polygon fill="midnightblue" stroke="midnightblue" points="480.629,-108.946 471.552,-114.411 482.056,-115.799 480.629,-108.946"/>
</g>
<!-- Node246 -->
<g id="node5" class="node"><title>Node246</title>
<g id="a_node5"><a xlink:href="classtrim_al_manager.html#adc529dd893ed4e9df6f3ddbd58776068" target="_top" xlink:title="Core Method of the program. This is where almost all cleaning methods are called from. ">
<polygon fill="white" stroke="black" points="725,-110 725,-140 834,-140 834,-110 725,-110"/>
<text text-anchor="start" x="733" y="-128" font-family="Helvetica,sans-Serif" font-size="10.00">trimAlManager::clean</text>
<text text-anchor="middle" x="779.5" y="-117" font-family="Helvetica,sans-Serif" font-size="10.00">_alignment</text>
</a>
</g>
</g>
<!-- Node245&#45;&gt;Node246 -->
<g id="edge4" class="edge"><title>Node245&#45;&gt;Node246</title>
<path fill="none" stroke="midnightblue" d="M684.903,-103.337C698.408,-106.462 712.238,-109.663 724.981,-112.613"/>
<polygon fill="midnightblue" stroke="midnightblue" points="685.678,-99.9236 675.146,-101.078 684.1,-106.743 685.678,-99.9236"/>
</g>
<!-- Node247 -->
<g id="node6" class="node"><title>Node247</title>
<g id="a_node6"><a xlink:href="classtrim_al_manager.html#abe8d2841455c644dc9c7d1294b82b00f" target="_top" xlink:title="Method to perform the analysis if all checks have passed. ">
<polygon fill="white" stroke="black" points="870,-115.5 870,-134.5 989,-134.5 989,-115.5 870,-115.5"/>
<text text-anchor="middle" x="929.5" y="-122.5" font-family="Helvetica,sans-Serif" font-size="10.00">trimAlManager::perform</text>
</a>
</g>
</g>
<!-- Node246&#45;&gt;Node247 -->
<g id="edge5" class="edge"><title>Node246&#45;&gt;Node247</title>
<path fill="none" stroke="midnightblue" d="M844.532,-125C852.977,-125 861.597,-125 869.943,-125"/>
<polygon fill="midnightblue" stroke="midnightblue" points="844.35,-121.5 834.35,-125 844.35,-128.5 844.35,-121.5"/>
</g>
<!-- Node250 -->
<g id="node9" class="node"><title>Node250</title>
<g id="a_node9"><a xlink:href="classtrim_al_manager.html#a10536f715945a1a45f1df33f7cedc81e" target="_top" xlink:title="Method to trim or reduce the number of sequences in an alignment. It performs one or none of the foll...">
<polygon fill="white" stroke="black" points="529,-155.5 529,-174.5 689,-174.5 689,-155.5 529,-155.5"/>
<text text-anchor="middle" x="609" y="-162.5" font-family="Helvetica,sans-Serif" font-size="10.00">trimAlManager::CleanSequences</text>
</a>
</g>
</g>
<!-- Node249&#45;&gt;Node250 -->
<g id="edge8" class="edge"><title>Node249&#45;&gt;Node250</title>
<path fill="none" stroke="midnightblue" d="M485.265,-188.538C508.865,-184.012 535.667,-178.872 558.191,-174.552"/>
<polygon fill="midnightblue" stroke="midnightblue" points="484.531,-185.115 475.369,-190.436 485.849,-191.99 484.531,-185.115"/>
</g>
<!-- Node250&#45;&gt;Node246 -->
<g id="edge9" class="edge"><title>Node250&#45;&gt;Node246</title>
<path fill="none" stroke="midnightblue" d="M660.355,-153.046C680.665,-148.225 704.128,-142.655 724.767,-137.756"/>
<polygon fill="midnightblue" stroke="midnightblue" points="659.281,-149.704 650.36,-155.419 660.898,-156.515 659.281,-149.704"/>
</g>
<!-- Node252 -->
<g id="node11" class="node"><title>Node252</title>
<g id="a_node11"><a xlink:href="class_cleaner.html#a694d53fdd5d1ac9455858e48537af3d0" target="_top" xlink:title="Method to trim an alignment based on the similarity distribution values. ">
<polygon fill="white" stroke="black" points="356,-38.5 356,-57.5 493,-57.5 493,-38.5 356,-38.5"/>
<text text-anchor="middle" x="424.5" y="-45.5" font-family="Helvetica,sans-Serif" font-size="10.00">Cleaner::cleanConservation</text>
</a>
</g>
</g>
<!-- Node251&#45;&gt;Node252 -->
<g id="edge11" class="edge"><title>Node251&#45;&gt;Node252</title>
<path fill="none" stroke="midnightblue" d="M330.296,-64.5941C343.677,-62.2118 357.362,-59.7753 369.981,-57.5286"/>
<polygon fill="midnightblue" stroke="midnightblue" points="329.378,-61.2025 320.146,-66.4012 330.605,-68.0941 329.378,-61.2025"/>
</g>
<!-- Node253 -->
<g id="node12" class="node"><title>Node253</title>
<g id="a_node12"><a xlink:href="class_cleaner.html#ae2328fe8c189e2827b46e5dfb8e3deb3" target="_top" xlink:title="Method to trim an alignment based on consistency values obtained from a dataset of alignments...">
<polygon fill="white" stroke="black" points="357,-76.5 357,-95.5 492,-95.5 492,-76.5 357,-76.5"/>
<text text-anchor="middle" x="424.5" y="-83.5" font-family="Helvetica,sans-Serif" font-size="10.00">Cleaner::cleanCompareFile</text>
</a>
</g>
</g>
<!-- Node251&#45;&gt;Node253 -->
<g id="edge13" class="edge"><title>Node251&#45;&gt;Node253</title>
<path fill="none" stroke="midnightblue" d="M330.411,-81.5804C339.227,-81.9989 348.173,-82.4236 356.857,-82.8359"/>
<polygon fill="midnightblue" stroke="midnightblue" points="330.301,-78.0713 320.146,-81.093 329.969,-85.0634 330.301,-78.0713"/>
</g>
<!-- Node252&#45;&gt;Node245 -->
<g id="edge12" class="edge"><title>Node252&#45;&gt;Node245</title>
<path fill="none" stroke="midnightblue" d="M481.388,-59.6369C498.517,-63.2036 517.613,-67.1797 535.675,-70.9405"/>
<polygon fill="midnightblue" stroke="midnightblue" points="482.056,-56.201 471.552,-57.589 480.629,-63.0541 482.056,-56.201"/>
</g>
<!-- Node253&#45;&gt;Node245 -->
<g id="edge14" class="edge"><title>Node253&#45;&gt;Node245</title>
<path fill="none" stroke="midnightblue" d="M502.21,-86C512.36,-86 522.756,-86 532.878,-86"/>
<polygon fill="midnightblue" stroke="midnightblue" points="502.161,-82.5001 492.161,-86 502.161,-89.5001 502.161,-82.5001"/>
</g>
<!-- Node255 -->
<g id="node14" class="node"><title>Node255</title>
<g id="a_node14"><a xlink:href="class_cleaner.html#a1ac5ba504932526d77575365557a4d64" target="_top" xlink:title="Method to trim an alignment based on the similarity and gaps distribution values. ...">
<polygon fill="white" stroke="black" points="384.5,-0.5 384.5,-19.5 464.5,-19.5 464.5,-0.5 384.5,-0.5"/>
<text text-anchor="middle" x="424.5" y="-7.5" font-family="Helvetica,sans-Serif" font-size="10.00">Cleaner::clean</text>
</a>
</g>
</g>
<!-- Node254&#45;&gt;Node255 -->
<g id="edge16" class="edge"><title>Node254&#45;&gt;Node255</title>
<path fill="none" stroke="midnightblue" d="M330.153,-16.0939C348.861,-14.8726 368.174,-13.6118 384.345,-12.5561"/>
<polygon fill="midnightblue" stroke="midnightblue" points="329.897,-12.603 320.146,-16.7471 330.353,-19.5882 329.897,-12.603"/>
</g>
<!-- Node255&#45;&gt;Node245 -->
<g id="edge17" class="edge"><title>Node255&#45;&gt;Node245</title>
<path fill="none" stroke="midnightblue" d="M474.102,-22.506C480.518,-24.4985 486.96,-26.6763 493,-29 524.196,-41.0019 558.316,-58.5084 581.224,-70.9484"/>
<polygon fill="midnightblue" stroke="midnightblue" points="474.684,-19.0277 464.101,-19.5334 472.689,-25.7376 474.684,-19.0277"/>
</g>
</g>
</svg>
