<?xml version="1.0" encoding="UTF-8" standalone="no"?>
<!DOCTYPE svg PUBLIC "-//W3C//DTD SVG 1.1//EN"
 "http://www.w3.org/Graphics/SVG/1.1/DTD/svg11.dtd">
<!-- Generated by graphviz version 2.38.0 (20140413.2041)
 -->
<!-- Title: utils::lookForPattern Pages: 1 -->
<svg width="486pt" height="28pt"
 viewBox="0.00 0.00 486.00 28.00" xmlns="http://www.w3.org/2000/svg" xmlns:xlink="http://www.w3.org/1999/xlink">
<g id="graph0" class="graph" transform="scale(1 1) rotate(0) translate(4 24)">
<title>utils::lookForPattern</title>
<polygon fill="white" stroke="none" points="-4,4 -4,-24 482,-24 482,4 -4,4"/>
<!-- Node74 -->
<g id="node1" class="node"><title>Node74</title>
<polygon fill="#bfbfbf" stroke="black" points="0,-0.5 0,-19.5 104,-19.5 104,-0.5 0,-0.5"/>
<text text-anchor="middle" x="52" y="-7.5" font-family="Helvetica,sans-Serif" font-size="10.00">utils::lookForPattern</text>
</g>
<!-- Node75 -->
<g id="node2" class="node"><title>Node75</title>
<g id="a_node2"><a xlink:href="classutils.html#ad1594a7c6cd34bba8e878fe09837e5d8" target="_top" xlink:title="Checks the color that has to be used on the output report. ">
<polygon fill="white" stroke="black" points="140,-0.5 140,-19.5 247,-19.5 247,-0.5 140,-0.5"/>
<text text-anchor="middle" x="193.5" y="-7.5" font-family="Helvetica,sans-Serif" font-size="10.00">utils::determineColor</text>
</a>
</g>
</g>
<!-- Node74&#45;&gt;Node75 -->
<g id="edge1" class="edge"><title>Node74&#45;&gt;Node75</title>
<path fill="none" stroke="midnightblue" d="M114.42,-10C122.935,-10 131.617,-10 139.95,-10"/>
<polygon fill="midnightblue" stroke="midnightblue" points="114.153,-6.5001 104.153,-10 114.152,-13.5001 114.153,-6.5001"/>
</g>
<!-- Node76 -->
<g id="node3" class="node"><title>Node76</title>
<g id="a_node3"><a xlink:href="classnew_alignment.html#ac2126a122374e547e3ea8b2164038a6b" target="_top" xlink:title="Method to report the trimming results in HTML. It contains information about the original and trimmed...">
<polygon fill="white" stroke="black" points="283,-0.5 283,-19.5 478,-19.5 478,-0.5 283,-0.5"/>
<text text-anchor="middle" x="380.5" y="-7.5" font-family="Helvetica,sans-Serif" font-size="10.00">newAlignment::alignmentSummaryHTML</text>
</a>
</g>
</g>
<!-- Node75&#45;&gt;Node76 -->
<g id="edge2" class="edge"><title>Node75&#45;&gt;Node76</title>
<path fill="none" stroke="midnightblue" d="M257.243,-10C265.481,-10 274.071,-10 282.712,-10"/>
<polygon fill="midnightblue" stroke="midnightblue" points="257.019,-6.5001 247.019,-10 257.019,-13.5001 257.019,-6.5001"/>
</g>
</g>
</svg>
