<?xml version="1.0" encoding="UTF-8" standalone="no"?>
<!DOCTYPE svg PUBLIC "-//W3C//DTD SVG 1.1//EN"
 "http://www.w3.org/Graphics/SVG/1.1/DTD/svg11.dtd">
<!-- Generated by graphviz version 2.40.1 (20161225.0304)
 -->
<!-- Title: Cleaner::removeSequences Pages: 1 -->
<svg width="485pt" height="88pt"
 viewBox="0.00 0.00 485.00 88.00" xmlns="http://www.w3.org/2000/svg" xmlns:xlink="http://www.w3.org/1999/xlink">
<g id="graph0" class="graph" transform="scale(1 1) rotate(0) translate(4 84)">
<title>Cleaner::removeSequences</title>
<polygon fill="#ffffff" stroke="transparent" points="-4,4 -4,-84 481,-84 481,4 -4,4"/>
<!-- Node397 -->
<g id="node1" class="node">
<title>Node397</title>
<g id="a_node1"><a xlink:title="Method to remove sequences, expressed as ranges.">
<polygon fill="#bfbfbf" stroke="#000000" points="0,-30 0,-49 137,-49 137,-30 0,-30"/>
<text text-anchor="middle" x="68.5" y="-37" font-family="Helvetica,sans-Serif" font-size="10.00" fill="#000000">Cleaner::removeSequences</text>
</a>
</g>
</g>
<!-- Node398 -->
<g id="node2" class="node">
<title>Node398</title>
<g id="a_node2"><a xlink:href="class_cleaner.html#ada8ad076dd037f00ae3f4fd17762641f" target="_top" xlink:title="Method that identifies and removes columns and sequences composed only by gaps.">
<polygon fill="#ffffff" stroke="#000000" points="173,-49.5 173,-79.5 319,-79.5 319,-49.5 173,-49.5"/>
<text text-anchor="start" x="181" y="-67.5" font-family="Helvetica,sans-Serif" font-size="10.00" fill="#000000">Cleaner::removeAllGapsSeqs</text>
<text text-anchor="middle" x="246" y="-56.5" font-family="Helvetica,sans-Serif" font-size="10.00" fill="#000000">AndCols</text>
</a>
</g>
</g>
<!-- Node397&#45;&gt;Node398 -->
<g id="edge1" class="edge">
<title>Node397&#45;&gt;Node398</title>
<path fill="none" stroke="#191970" d="M136.1115,-49.0227C144.8669,-50.2559 153.9138,-51.5301 162.8836,-52.7935"/>
<polygon fill="#191970" stroke="#191970" points="162.568,-56.2835 172.9584,-54.2125 163.5444,-49.3519 162.568,-56.2835"/>
</g>
<!-- Node400 -->
<g id="node4" class="node">
<title>Node400</title>
<g id="a_node4"><a xlink:href="class_alignment.html#ae04b9e10e25daafb2b4592e19e63cecd" target="_top" xlink:title="Updates the sequence number and residue number based on saveResidues and saveSequences.">
<polygon fill="#ffffff" stroke="#000000" points="174,-.5 174,-30.5 318,-30.5 318,-.5 174,-.5"/>
<text text-anchor="start" x="182" y="-18.5" font-family="Helvetica,sans-Serif" font-size="10.00" fill="#000000">Alignment::updateSequences</text>
<text text-anchor="middle" x="246" y="-7.5" font-family="Helvetica,sans-Serif" font-size="10.00" fill="#000000">AndResiduesNums</text>
</a>
</g>
</g>
<!-- Node397&#45;&gt;Node400 -->
<g id="edge3" class="edge">
<title>Node397&#45;&gt;Node400</title>
<path fill="none" stroke="#191970" d="M137.1261,-30.221C145.8444,-29.0422 154.8362,-27.8264 163.7403,-26.6224"/>
<polygon fill="#191970" stroke="#191970" points="164.2961,-30.0792 173.737,-25.2708 163.3581,-23.1423 164.2961,-30.0792"/>
</g>
<!-- Node399 -->
<g id="node3" class="node">
<title>Node399</title>
<g id="a_node3"><a xlink:href="classreporting_1_1report_manager.html#a6d122e673144584e0869bd33b8a5c1c6" target="_top" xlink:title="Method to report an Error. &#160;It will be displayed if Level &#160;is equal or higher to VerboseLevel::ERROR.">
<polygon fill="#ffffff" stroke="#000000" points="355,-49.5 355,-79.5 477,-79.5 477,-49.5 355,-49.5"/>
<text text-anchor="start" x="363" y="-67.5" font-family="Helvetica,sans-Serif" font-size="10.00" fill="#000000">reporting::reportManager</text>
<text text-anchor="middle" x="416" y="-56.5" font-family="Helvetica,sans-Serif" font-size="10.00" fill="#000000">::report</text>
</a>
</g>
</g>
<!-- Node398&#45;&gt;Node399 -->
<g id="edge2" class="edge">
<title>Node398&#45;&gt;Node399</title>
<path fill="none" stroke="#191970" d="M319.0819,-64.5C327.591,-64.5 336.2628,-64.5 344.7468,-64.5"/>
<polygon fill="#191970" stroke="#191970" points="344.9788,-68.0001 354.9788,-64.5 344.9788,-61.0001 344.9788,-68.0001"/>
</g>
</g>
</svg>
