<?xml version="1.0" encoding="UTF-8" standalone="no"?>
<!DOCTYPE svg PUBLIC "-//W3C//DTD SVG 1.1//EN"
 "http://www.w3.org/Graphics/SVG/1.1/DTD/svg11.dtd">
<!-- Generated by graphviz version 2.40.1 (20161225.0304)
 -->
<!-- Title: trimAlManager::CleanResiduesAuto Pages: 1 -->
<svg width="1368pt" height="683pt"
 viewBox="0.00 0.00 1368.00 683.21" xmlns="http://www.w3.org/2000/svg" xmlns:xlink="http://www.w3.org/1999/xlink">
<g id="graph0" class="graph" transform="scale(1 1) rotate(0) translate(4 679.2138)">
<title>trimAlManager::CleanResiduesAuto</title>
<polygon fill="#ffffff" stroke="transparent" points="-4,4 -4,-679.2138 1364,-679.2138 1364,4 -4,4"/>
<!-- Node317 -->
<g id="node1" class="node">
<title>Node317</title>
<g id="a_node1"><a xlink:title="Method to trim the alignment using automatic or semi&#45;automatic methods:">
<polygon fill="#bfbfbf" stroke="#000000" points="0,-497.5 0,-516.5 173,-516.5 173,-497.5 0,-497.5"/>
<text text-anchor="middle" x="86.5" y="-504.5" font-family="Helvetica,sans-Serif" font-size="10.00" fill="#000000">trimAlManager::CleanResiduesAuto</text>
</a>
</g>
</g>
<!-- Node318 -->
<g id="node2" class="node">
<title>Node318</title>
<g id="a_node2"><a xlink:href="class_cleaner.html#aa57106470d2104a925b9396b8a9f33b3" target="_top" xlink:title="Method that carries the gappyout approach. This methods calculates the slope in gaps distribution on ...">
<polygon fill="#ffffff" stroke="#000000" points="712.5,-517.5 712.5,-536.5 832.5,-536.5 832.5,-517.5 712.5,-517.5"/>
<text text-anchor="middle" x="772.5" y="-524.5" font-family="Helvetica,sans-Serif" font-size="10.00" fill="#000000">Cleaner::clean2ndSlope</text>
</a>
</g>
</g>
<!-- Node317&#45;&gt;Node318 -->
<g id="edge1" class="edge">
<title>Node317&#45;&gt;Node318</title>
<path fill="none" stroke="#191970" d="M173.1395,-513.1332C185.1799,-513.8468 197.3955,-514.4978 209,-515 386.3938,-522.6776 595.4233,-525.5002 702.1137,-526.4931"/>
<polygon fill="#191970" stroke="#191970" points="702.3954,-529.9957 712.4266,-526.5863 702.4587,-522.9959 702.3954,-529.9957"/>
</g>
<!-- Node334 -->
<g id="node18" class="node">
<title>Node334</title>
<g id="a_node18"><a xlink:href="class_cleaner.html#a6727a235afa29f08a50716f28fa5c8fc" target="_top" xlink:title="Method to clean an alignment. It carries out strict and strictplus. The method:">
<polygon fill="#ffffff" stroke="#000000" points="209,-356.5 209,-375.5 352,-375.5 352,-356.5 209,-356.5"/>
<text text-anchor="middle" x="280.5" y="-363.5" font-family="Helvetica,sans-Serif" font-size="10.00" fill="#000000">Cleaner::cleanCombMethods</text>
</a>
</g>
</g>
<!-- Node317&#45;&gt;Node334 -->
<g id="edge21" class="edge">
<title>Node317&#45;&gt;Node334</title>
<path fill="none" stroke="#191970" d="M99.8344,-497.3085C132.8628,-473.3033 218.7039,-410.9136 259.0081,-381.6204"/>
<polygon fill="#191970" stroke="#191970" points="261.2974,-384.2834 267.3288,-375.5729 257.1819,-378.6209 261.2974,-384.2834"/>
</g>
<!-- Node348 -->
<g id="node32" class="node">
<title>Node348</title>
<g id="a_node32"><a xlink:href="class_cleaner.html#af7c9e1a177424168fa4214aca9ebd8e2" target="_top" xlink:title="Method to trim an alignment based on the gap distribution values. Column blocks that don&#39;t have a min...">
<polygon fill="#ffffff" stroke="#000000" points="721,-555.5 721,-574.5 824,-574.5 824,-555.5 721,-555.5"/>
<text text-anchor="middle" x="772.5" y="-562.5" font-family="Helvetica,sans-Serif" font-size="10.00" fill="#000000">Cleaner::cleanGaps</text>
</a>
</g>
</g>
<!-- Node317&#45;&gt;Node348 -->
<g id="edge50" class="edge">
<title>Node317&#45;&gt;Node348</title>
<path fill="none" stroke="#191970" d="M127.95,-516.5481C151.5755,-521.6305 181.8056,-527.5313 209,-531 390.3528,-554.1317 606.6067,-561.6053 710.6094,-563.9579"/>
<polygon fill="#191970" stroke="#191970" points="710.5464,-567.4573 720.6204,-564.1763 710.6991,-560.459 710.5464,-567.4573"/>
</g>
<!-- Node350 -->
<g id="node34" class="node">
<title>Node350</title>
<g id="a_node34"><a xlink:href="class_cleaner.html#a3af7bde2142886d6d723c95694b7b9ba" target="_top" xlink:title="Method to remove columns composed only by gaps This method is specially useful when we remove missali...">
<polygon fill="#ffffff" stroke="#000000" points="709,-479.5 709,-498.5 836,-498.5 836,-479.5 709,-479.5"/>
<text text-anchor="middle" x="772.5" y="-486.5" font-family="Helvetica,sans-Serif" font-size="10.00" fill="#000000">Cleaner::cleanNoAllGaps</text>
</a>
</g>
</g>
<!-- Node317&#45;&gt;Node350 -->
<g id="edge57" class="edge">
<title>Node317&#45;&gt;Node350</title>
<path fill="none" stroke="#191970" d="M173.0348,-504.7294C309.1054,-501.159 570.7274,-494.2943 698.5533,-490.9403"/>
<polygon fill="#191970" stroke="#191970" points="698.7341,-494.4369 708.6388,-490.6757 698.5504,-487.4393 698.7341,-494.4369"/>
</g>
<!-- Node351 -->
<g id="node35" class="node">
<title>Node351</title>
<g id="a_node35"><a xlink:href="class_cleaner.html#a6e219be8cd47b2d084e4563c2c66a947" target="_top" xlink:title="Method that selects the best cleaning method based on statistics of the alignment.">
<polygon fill="#ffffff" stroke="#000000" points="223,-127.5 223,-146.5 338,-146.5 338,-127.5 223,-127.5"/>
<text text-anchor="middle" x="280.5" y="-134.5" font-family="Helvetica,sans-Serif" font-size="10.00" fill="#000000">Cleaner::selectMethod</text>
</a>
</g>
</g>
<!-- Node317&#45;&gt;Node351 -->
<g id="edge61" class="edge">
<title>Node317&#45;&gt;Node351</title>
<path fill="none" stroke="#191970" d="M91.4905,-497.4821C117.2706,-448.3138 235.513,-222.7999 270.6355,-155.8137"/>
<polygon fill="#191970" stroke="#191970" points="273.8197,-157.2778 275.3637,-146.7961 267.6202,-154.0273 273.8197,-157.2778"/>
</g>
<!-- Node319 -->
<g id="node3" class="node">
<title>Node319</title>
<g id="a_node3"><a xlink:href="classstatistics_1_1_gaps.html#a70d46d69ad3564e1ec068d5f9d7e3e84" target="_top" xlink:title=" ">
<polygon fill="#ffffff" stroke="#000000" points="875.5,-569 875.5,-599 1000.5,-599 1000.5,-569 875.5,-569"/>
<text text-anchor="start" x="883.5" y="-587" font-family="Helvetica,sans-Serif" font-size="10.00" fill="#000000">statistics::Gaps::calcCut</text>
<text text-anchor="middle" x="938" y="-576" font-family="Helvetica,sans-Serif" font-size="10.00" fill="#000000">Point2ndSlope</text>
</a>
</g>
</g>
<!-- Node318&#45;&gt;Node319 -->
<g id="edge2" class="edge">
<title>Node318&#45;&gt;Node319</title>
<path fill="none" stroke="#191970" d="M805.9159,-536.5489C815.6571,-539.4538 826.2904,-542.7427 836,-546 853.6725,-551.9287 872.8697,-558.9303 889.7929,-565.2978"/>
<polygon fill="#191970" stroke="#191970" points="888.8741,-568.6924 899.4655,-568.9607 891.3531,-562.1461 888.8741,-568.6924"/>
</g>
<!-- Node322 -->
<g id="node6" class="node">
<title>Node322</title>
<g id="a_node6"><a xlink:href="classstatistics_1_1_manager.html#a1969a416d3020d25daa56de6c5e305db" target="_top" xlink:title="Method to handle gap stat calculation It checks if the gaps submodule has been created,...">
<polygon fill="#ffffff" stroke="#000000" points="886.5,-463 886.5,-493 989.5,-493 989.5,-463 886.5,-463"/>
<text text-anchor="start" x="894.5" y="-481" font-family="Helvetica,sans-Serif" font-size="10.00" fill="#000000">statistics::Manager</text>
<text text-anchor="middle" x="938" y="-470" font-family="Helvetica,sans-Serif" font-size="10.00" fill="#000000">::calculateGapStats</text>
</a>
</g>
</g>
<!-- Node318&#45;&gt;Node322 -->
<g id="edge5" class="edge">
<title>Node318&#45;&gt;Node322</title>
<path fill="none" stroke="#191970" d="M804.8029,-517.436C825.4813,-511.3137 852.9559,-503.1792 877.5794,-495.8889"/>
<polygon fill="#191970" stroke="#191970" points="878.617,-499.2319 887.2119,-493.037 876.6297,-492.5199 878.617,-499.2319"/>
</g>
<!-- Node327 -->
<g id="node11" class="node">
<title>Node327</title>
<g id="a_node11"><a xlink:href="class_cleaner.html#a13ae2074afb38708bc5cee9489d8ab6f" target="_top" xlink:title="Method to clean an alignment. &#160;It removes sequences that overpass or equals a certain threshold....">
<polygon fill="#ffffff" stroke="#000000" points="872,-512 872,-542 1004,-542 1004,-512 872,-512"/>
<text text-anchor="start" x="880" y="-530" font-family="Helvetica,sans-Serif" font-size="10.00" fill="#000000">Cleaner::cleanByCutValue</text>
<text text-anchor="middle" x="938" y="-519" font-family="Helvetica,sans-Serif" font-size="10.00" fill="#000000">Overpass</text>
</a>
</g>
</g>
<!-- Node318&#45;&gt;Node327 -->
<g id="edge11" class="edge">
<title>Node318&#45;&gt;Node327</title>
<path fill="none" stroke="#191970" d="M832.7175,-527C842.1836,-527 852.0756,-527 861.8442,-527"/>
<polygon fill="#191970" stroke="#191970" points="861.9565,-530.5001 871.9565,-527 861.9564,-523.5001 861.9565,-530.5001"/>
</g>
<!-- Node332 -->
<g id="node16" class="node">
<title>Node332</title>
<g id="a_node16"><a xlink:href="classstatistics_1_1_gaps.html#ab5b60db326475f8adc68b130e22b3963" target="_top" xlink:title=" ">
<polygon fill="#ffffff" stroke="#000000" points="874,-414 874,-444 1002,-444 1002,-414 874,-414"/>
<text text-anchor="start" x="882" y="-432" font-family="Helvetica,sans-Serif" font-size="10.00" fill="#000000">statistics::Gaps::getGaps</text>
<text text-anchor="middle" x="938" y="-421" font-family="Helvetica,sans-Serif" font-size="10.00" fill="#000000">Window</text>
</a>
</g>
</g>
<!-- Node318&#45;&gt;Node332 -->
<g id="edge18" class="edge">
<title>Node318&#45;&gt;Node332</title>
<path fill="none" stroke="#191970" d="M818.3976,-517.4763C824.653,-515.0053 830.7263,-511.9 836,-508 859.1916,-490.8492 849.4349,-471.9671 872,-454 874.2466,-452.2112 876.635,-450.5404 879.1205,-448.9809"/>
<polygon fill="#191970" stroke="#191970" points="880.8492,-452.0244 887.8798,-444.0984 877.441,-445.9101 880.8492,-452.0244"/>
</g>
<!-- Node320 -->
<g id="node4" class="node">
<title>Node320</title>
<g id="a_node4"><a xlink:href="namespaceutils.html#a40640e1942f00797e9fe8284e8fbdb14" target="_top" xlink:title="Maximum of two numbers method.">
<polygon fill="#ffffff" stroke="#000000" points="1086.5,-629.5 1086.5,-648.5 1145.5,-648.5 1145.5,-629.5 1086.5,-629.5"/>
<text text-anchor="middle" x="1116" y="-636.5" font-family="Helvetica,sans-Serif" font-size="10.00" fill="#000000">utils::max</text>
</a>
</g>
</g>
<!-- Node319&#45;&gt;Node320 -->
<g id="edge3" class="edge">
<title>Node319&#45;&gt;Node320</title>
<path fill="none" stroke="#191970" d="M986.6393,-599.029C1014.9342,-607.7718 1050.1342,-618.6482 1076.6691,-626.8472"/>
<polygon fill="#191970" stroke="#191970" points="1075.7945,-630.2402 1086.3821,-629.8484 1077.8611,-623.5522 1075.7945,-630.2402"/>
</g>
<!-- Node321 -->
<g id="node5" class="node">
<title>Node321</title>
<g id="a_node5"><a xlink:href="namespaceutils.html#aac322cd1761fddedec8a5792e358eb32" target="_top" xlink:title="Vector initialization.">
<polygon fill="#ffffff" stroke="#000000" points="1256,-427.5 1256,-446.5 1332,-446.5 1332,-427.5 1256,-427.5"/>
<text text-anchor="middle" x="1294" y="-434.5" font-family="Helvetica,sans-Serif" font-size="10.00" fill="#000000">utils::initlVect</text>
</a>
</g>
</g>
<!-- Node319&#45;&gt;Node321 -->
<g id="edge4" class="edge">
<title>Node319&#45;&gt;Node321</title>
<path fill="none" stroke="#191970" d="M1000.74,-585.1328C1054.3964,-583.6133 1132.1972,-575.3439 1192,-544 1232.3129,-522.8712 1265.7223,-479.6669 1282.4468,-455.1124"/>
<polygon fill="#191970" stroke="#191970" points="1285.4148,-456.9694 1288.0192,-446.6997 1279.579,-453.1038 1285.4148,-456.9694"/>
</g>
<!-- Node323 -->
<g id="node7" class="node">
<title>Node323</title>
<g id="a_node7"><a xlink:href="classstatistics_1_1_gaps.html#aa3526494d5100e062daa4afba755d0b1" target="_top" xlink:title=" ">
<polygon fill="#ffffff" stroke="#000000" points="1049.5,-466 1049.5,-496 1182.5,-496 1182.5,-466 1049.5,-466"/>
<text text-anchor="start" x="1057.5" y="-484" font-family="Helvetica,sans-Serif" font-size="10.00" fill="#000000">statistics::Gaps::Calculate</text>
<text text-anchor="middle" x="1116" y="-473" font-family="Helvetica,sans-Serif" font-size="10.00" fill="#000000">Vectors</text>
</a>
</g>
</g>
<!-- Node322&#45;&gt;Node323 -->
<g id="edge6" class="edge">
<title>Node322&#45;&gt;Node323</title>
<path fill="none" stroke="#191970" d="M989.9635,-478.8758C1005.3446,-479.135 1022.5219,-479.4245 1039.1255,-479.7044"/>
<polygon fill="#191970" stroke="#191970" points="1039.3107,-483.2079 1049.3683,-479.877 1039.4287,-476.2089 1039.3107,-483.2079"/>
</g>
<!-- Node324 -->
<g id="node8" class="node">
<title>Node324</title>
<g id="a_node8"><a xlink:href="classstatistics_1_1_gaps.html#aee36b772767467cdba2061df2305e85d" target="_top" xlink:title=" ">
<polygon fill="#ffffff" stroke="#000000" points="1041,-427.5 1041,-446.5 1191,-446.5 1191,-427.5 1041,-427.5"/>
<text text-anchor="middle" x="1116" y="-434.5" font-family="Helvetica,sans-Serif" font-size="10.00" fill="#000000">statistics::Gaps::applyWindow</text>
</a>
</g>
</g>
<!-- Node322&#45;&gt;Node324 -->
<g id="edge7" class="edge">
<title>Node322&#45;&gt;Node324</title>
<path fill="none" stroke="#191970" d="M989.9635,-466.0309C1013.5779,-460.5916 1041.4262,-454.1771 1064.9319,-448.7629"/>
<polygon fill="#191970" stroke="#191970" points="1065.7557,-452.1648 1074.7149,-446.5095 1064.1845,-445.3435 1065.7557,-452.1648"/>
</g>
<!-- Node324&#45;&gt;Node321 -->
<g id="edge9" class="edge">
<title>Node324&#45;&gt;Node321</title>
<path fill="none" stroke="#191970" d="M1191.23,-437C1209.6166,-437 1228.8068,-437 1245.5584,-437"/>
<polygon fill="#191970" stroke="#191970" points="1245.6446,-440.5001 1255.6445,-437 1245.6445,-433.5001 1245.6446,-440.5001"/>
</g>
<!-- Node325 -->
<g id="node9" class="node">
<title>Node325</title>
<g id="a_node9"><a xlink:href="classreporting_1_1report_manager.html#a6d122e673144584e0869bd33b8a5c1c6" target="_top" xlink:title="Method to report an Error. &#160;It will be displayed if Level &#160;is equal or higher to VerboseLevel::ERROR.">
<polygon fill="#ffffff" stroke="#000000" points="1233,-266 1233,-296 1355,-296 1355,-266 1233,-266"/>
<text text-anchor="start" x="1241" y="-284" font-family="Helvetica,sans-Serif" font-size="10.00" fill="#000000">reporting::reportManager</text>
<text text-anchor="middle" x="1294" y="-273" font-family="Helvetica,sans-Serif" font-size="10.00" fill="#000000">::report</text>
</a>
</g>
</g>
<!-- Node324&#45;&gt;Node325 -->
<g id="edge8" class="edge">
<title>Node324&#45;&gt;Node325</title>
<path fill="none" stroke="#191970" d="M1170.6782,-427.4036C1178.2012,-424.7415 1185.5479,-421.3417 1192,-417 1234.4225,-388.4536 1266.1416,-336.2571 1282.215,-305.4955"/>
<polygon fill="#191970" stroke="#191970" points="1285.4683,-306.819 1286.8776,-296.3183 1279.2276,-303.6483 1285.4683,-306.819"/>
</g>
<!-- Node326 -->
<g id="node10" class="node">
<title>Node326</title>
<g id="a_node10"><a xlink:href="namespaceutils.html#ad50731aeb3c8f79ed8372516210dfc9d" target="_top" xlink:title="Round double to integer method.">
<polygon fill="#ffffff" stroke="#000000" points="1256,-528.5 1256,-547.5 1332,-547.5 1332,-528.5 1256,-528.5"/>
<text text-anchor="middle" x="1294" y="-535.5" font-family="Helvetica,sans-Serif" font-size="10.00" fill="#000000">utils::roundInt</text>
</a>
</g>
</g>
<!-- Node324&#45;&gt;Node326 -->
<g id="edge10" class="edge">
<title>Node324&#45;&gt;Node326</title>
<path fill="none" stroke="#191970" d="M1164.5362,-446.5596C1173.9083,-449.2909 1183.4602,-452.7238 1192,-457 1225.615,-473.8322 1258.5873,-502.9631 1277.5748,-521.32"/>
<polygon fill="#191970" stroke="#191970" points="1275.2389,-523.932 1284.8172,-528.4603 1280.1534,-518.9472 1275.2389,-523.932"/>
</g>
<!-- Node327&#45;&gt;Node326 -->
<g id="edge17" class="edge">
<title>Node327&#45;&gt;Node326</title>
<path fill="none" stroke="#191970" d="M1004.1912,-539.6613C1016.0709,-541.4678 1028.3706,-543.0375 1040,-544 1111.3535,-549.9054 1194.3369,-545.91 1245.5167,-542.1949"/>
<polygon fill="#191970" stroke="#191970" points="1245.9182,-545.6747 1255.6275,-541.4344 1245.3931,-538.6944 1245.9182,-545.6747"/>
</g>
<!-- Node328 -->
<g id="node12" class="node">
<title>Node328</title>
<g id="a_node12"><a xlink:href="namespaceutils.html#a73f038c379c13d23e3220afaa14f9983" target="_top" xlink:title="Quicksort sorting method.">
<polygon fill="#ffffff" stroke="#000000" points="1076,-120.5 1076,-139.5 1156,-139.5 1156,-120.5 1076,-120.5"/>
<text text-anchor="middle" x="1116" y="-127.5" font-family="Helvetica,sans-Serif" font-size="10.00" fill="#000000">utils::quicksort</text>
</a>
</g>
</g>
<!-- Node327&#45;&gt;Node328 -->
<g id="edge12" class="edge">
<title>Node327&#45;&gt;Node328</title>
<path fill="none" stroke="#191970" d="M994.4216,-511.9199C998.0171,-509.3933 1001.2784,-506.4436 1004,-503 1090.0045,-394.1793 973.8513,-314.9142 1040,-193 1051.103,-172.5368 1071.8226,-156.0513 1088.8265,-145.0841"/>
<polygon fill="#191970" stroke="#191970" points="1091.1169,-147.7848 1097.8062,-139.5687 1087.4533,-141.8201 1091.1169,-147.7848"/>
</g>
<!-- Node330 -->
<g id="node14" class="node">
<title>Node330</title>
<g id="a_node14"><a xlink:href="class_cleaner.html#ada8ad076dd037f00ae3f4fd17762641f" target="_top" xlink:title="Method that identifies and removes columns and sequences composed only by gaps.">
<polygon fill="#ffffff" stroke="#000000" points="1043,-329 1043,-359 1189,-359 1189,-329 1043,-329"/>
<text text-anchor="start" x="1051" y="-347" font-family="Helvetica,sans-Serif" font-size="10.00" fill="#000000">Cleaner::removeAllGapsSeqs</text>
<text text-anchor="middle" x="1116" y="-336" font-family="Helvetica,sans-Serif" font-size="10.00" fill="#000000">AndCols</text>
</a>
</g>
</g>
<!-- Node327&#45;&gt;Node330 -->
<g id="edge14" class="edge">
<title>Node327&#45;&gt;Node330</title>
<path fill="none" stroke="#191970" d="M993.263,-511.8637C997.2175,-509.3489 1000.8715,-506.4173 1004,-503 1045.9313,-457.1986 997.0962,-412.8917 1040,-368 1040.9142,-367.0435 1041.8661,-366.1249 1042.8517,-365.2428"/>
<polygon fill="#191970" stroke="#191970" points="1045.0731,-367.9524 1050.9987,-359.1696 1040.8894,-362.3401 1045.0731,-367.9524"/>
</g>
<!-- Node331 -->
<g id="node15" class="node">
<title>Node331</title>
<g id="a_node15"><a xlink:href="class_cleaner.html#a5620f6a511bc0ac844c71b2de3ae1fdb" target="_top" xlink:title="Method to remove blocks of columns with no rejected residue smaller than a given size.">
<polygon fill="#ffffff" stroke="#000000" points="1040,-515.5 1040,-534.5 1192,-534.5 1192,-515.5 1040,-515.5"/>
<text text-anchor="middle" x="1116" y="-522.5" font-family="Helvetica,sans-Serif" font-size="10.00" fill="#000000">Cleaner::removeSmallerBlocks</text>
</a>
</g>
</g>
<!-- Node327&#45;&gt;Node331 -->
<g id="edge16" class="edge">
<title>Node327&#45;&gt;Node331</title>
<path fill="none" stroke="#191970" d="M1004.0277,-526.2581C1012.419,-526.1638 1021.1027,-526.0663 1029.7518,-525.9691"/>
<polygon fill="#191970" stroke="#191970" points="1029.9095,-529.4676 1039.8696,-525.8554 1029.8308,-522.4681 1029.9095,-529.4676"/>
</g>
<!-- Node329 -->
<g id="node13" class="node">
<title>Node329</title>
<g id="a_node13"><a xlink:href="namespaceutils.html#a3377ecde55631d1bbc4956e5923b7469" target="_top" xlink:title="Swapping elements method.">
<polygon fill="#ffffff" stroke="#000000" points="1262,-120.5 1262,-139.5 1326,-139.5 1326,-120.5 1262,-120.5"/>
<text text-anchor="middle" x="1294" y="-127.5" font-family="Helvetica,sans-Serif" font-size="10.00" fill="#000000">utils::swap</text>
</a>
</g>
</g>
<!-- Node328&#45;&gt;Node329 -->
<g id="edge13" class="edge">
<title>Node328&#45;&gt;Node329</title>
<path fill="none" stroke="#191970" d="M1156.391,-130C1184.8021,-130 1222.7466,-130 1251.5947,-130"/>
<polygon fill="#191970" stroke="#191970" points="1251.7769,-133.5001 1261.7768,-130 1251.7768,-126.5001 1251.7769,-133.5001"/>
</g>
<!-- Node330&#45;&gt;Node325 -->
<g id="edge15" class="edge">
<title>Node330&#45;&gt;Node325</title>
<path fill="none" stroke="#191970" d="M1158.6354,-328.9099C1183.6427,-320.059 1215.4256,-308.81 1241.9093,-299.4366"/>
<polygon fill="#191970" stroke="#191970" points="1243.1452,-302.712 1251.4043,-296.076 1240.8096,-296.1131 1243.1452,-302.712"/>
</g>
<!-- Node332&#45;&gt;Node324 -->
<g id="edge20" class="edge">
<title>Node332&#45;&gt;Node324</title>
<path fill="none" stroke="#191970" d="M1002.0106,-431.8769C1011.3313,-432.2958 1021.0499,-432.7326 1030.71,-433.1667"/>
<polygon fill="#191970" stroke="#191970" points="1030.5896,-436.6648 1040.7367,-433.6174 1030.904,-429.6718 1030.5896,-436.6648"/>
</g>
<!-- Node333 -->
<g id="node17" class="node">
<title>Node333</title>
<g id="a_node17"><a xlink:href="classstatistics_1_1_gaps.html#ad812a924cf5e3f900aad3ed4a9664300" target="_top" xlink:title=" ">
<polygon fill="#ffffff" stroke="#000000" points="1049.5,-378 1049.5,-408 1182.5,-408 1182.5,-378 1049.5,-378"/>
<text text-anchor="start" x="1057.5" y="-396" font-family="Helvetica,sans-Serif" font-size="10.00" fill="#000000">statistics::Gaps::isDefined</text>
<text text-anchor="middle" x="1116" y="-385" font-family="Helvetica,sans-Serif" font-size="10.00" fill="#000000">Window</text>
</a>
</g>
</g>
<!-- Node332&#45;&gt;Node333 -->
<g id="edge19" class="edge">
<title>Node332&#45;&gt;Node333</title>
<path fill="none" stroke="#191970" d="M1002.0106,-416.054C1014.122,-413.6045 1026.9053,-411.0192 1039.3593,-408.5004"/>
<polygon fill="#191970" stroke="#191970" points="1040.1498,-411.9114 1049.2575,-406.4985 1038.7621,-405.0504 1040.1498,-411.9114"/>
</g>
<!-- Node334&#45;&gt;Node319 -->
<g id="edge22" class="edge">
<title>Node334&#45;&gt;Node319</title>
<path fill="none" stroke="#191970" d="M293.6263,-375.6745C344.0302,-412.1427 531.2461,-541.3828 709,-584 760.2187,-596.2799 819.7539,-595.85 865.2812,-592.5764"/>
<polygon fill="#191970" stroke="#191970" points="865.6639,-596.0573 875.3609,-591.7891 865.1187,-589.0785 865.6639,-596.0573"/>
</g>
<!-- Node334&#45;&gt;Node321 -->
<g id="edge48" class="edge">
<title>Node334&#45;&gt;Node321</title>
<path fill="none" stroke="#191970" d="M283.3662,-356.4863C292.8868,-326.5566 326.4007,-233.5539 388,-187 490.5362,-109.5078 545.7767,-119.7532 673,-138 687.8701,-140.1327 1179.8135,-281.216 1192,-290 1239.0907,-323.9428 1271.7837,-386.6625 1286.0058,-418.0589"/>
<polygon fill="#191970" stroke="#191970" points="1282.8903,-419.6692 1290.1149,-427.4187 1289.2998,-416.8552 1282.8903,-419.6692"/>
</g>
<!-- Node334&#45;&gt;Node328 -->
<g id="edge49" class="edge">
<title>Node334&#45;&gt;Node328</title>
<path fill="none" stroke="#191970" d="M283.168,-356.4622C295.2895,-313.7724 346.3767,-140.777 388,-105 468.8478,-35.5078 514.3908,-48 621,-48 621,-48 621,-48 772.5,-48 831.6167,-48 996.5863,-94.5303 1074.388,-117.4895"/>
<polygon fill="#191970" stroke="#191970" points="1073.7404,-120.948 1084.3227,-120.4331 1075.729,-114.2364 1073.7404,-120.948"/>
</g>
<!-- Node334&#45;&gt;Node332 -->
<g id="edge44" class="edge">
<title>Node334&#45;&gt;Node332</title>
<path fill="none" stroke="#191970" d="M319.0795,-375.6053C339.4539,-380.3342 364.9489,-385.7119 388,-389 557.0024,-413.1071 757.41,-423.0377 863.4806,-426.8449"/>
<polygon fill="#191970" stroke="#191970" points="863.642,-430.3526 873.7585,-427.2052 863.8873,-423.3569 863.642,-430.3526"/>
</g>
<!-- Node335 -->
<g id="node19" class="node">
<title>Node335</title>
<g id="a_node19"><a xlink:href="classstatistics_1_1_manager.html#a92505ca5aedc5b45c4300a0e8a7d1e17" target="_top" xlink:title="Method to handle similarity stat calculation It checks if the similarity submodule has been created,...">
<polygon fill="#ffffff" stroke="#000000" points="389,-285 389,-315 532,-315 532,-285 389,-285"/>
<text text-anchor="start" x="397" y="-303" font-family="Helvetica,sans-Serif" font-size="10.00" fill="#000000">statistics::Manager</text>
<text text-anchor="middle" x="460.5" y="-292" font-family="Helvetica,sans-Serif" font-size="10.00" fill="#000000">::calculateConservationStats</text>
</a>
</g>
</g>
<!-- Node334&#45;&gt;Node335 -->
<g id="edge23" class="edge">
<title>Node334&#45;&gt;Node335</title>
<path fill="none" stroke="#191970" d="M306.6735,-356.403C333.5632,-346.5435 376.1139,-330.9416 409.6535,-318.6437"/>
<polygon fill="#191970" stroke="#191970" points="411.1149,-321.8358 419.2987,-315.1071 408.705,-315.2637 411.1149,-321.8358"/>
</g>
<!-- Node346 -->
<g id="node30" class="node">
<title>Node346</title>
<g id="a_node30"><a xlink:href="class_cleaner.html#afcc9a3a0759ebdaaa6fa07c0d1702a99" target="_top" xlink:title="Method to clean an alignment. It carries out strict and strictplus. It removes sequences that overpas...">
<polygon fill="#ffffff" stroke="#000000" points="886.5,-334.5 886.5,-353.5 989.5,-353.5 989.5,-334.5 886.5,-334.5"/>
<text text-anchor="middle" x="938" y="-341.5" font-family="Helvetica,sans-Serif" font-size="10.00" fill="#000000">Cleaner::cleanStrict</text>
</a>
</g>
</g>
<!-- Node334&#45;&gt;Node346 -->
<g id="edge41" class="edge">
<title>Node334&#45;&gt;Node346</title>
<path fill="none" stroke="#191970" d="M352.1791,-370.3841C430.9106,-374.4753 561.0545,-379.1071 673,-373 742.8979,-369.1868 822.7061,-359.7562 876.3143,-352.6772"/>
<polygon fill="#191970" stroke="#191970" points="876.8935,-356.131 886.3431,-351.3399 875.9682,-349.1924 876.8935,-356.131"/>
</g>
<!-- Node347 -->
<g id="node31" class="node">
<title>Node347</title>
<g id="a_node31"><a xlink:href="classstatistics_1_1_similarity.html#a1b65c85328f09fa0637365d11fb386b4" target="_top" xlink:title="This methods returns a pointer to conservationWindow&#39;s vector.">
<polygon fill="#ffffff" stroke="#000000" points="396,-197 396,-227 525,-227 525,-197 396,-197"/>
<text text-anchor="start" x="404" y="-215" font-family="Helvetica,sans-Serif" font-size="10.00" fill="#000000">statistics::Similarity</text>
<text text-anchor="middle" x="460.5" y="-204" font-family="Helvetica,sans-Serif" font-size="10.00" fill="#000000">::getMdkWindowedVector</text>
</a>
</g>
</g>
<!-- Node334&#45;&gt;Node347 -->
<g id="edge45" class="edge">
<title>Node334&#45;&gt;Node347</title>
<path fill="none" stroke="#191970" d="M291.7598,-356.3666C320.2018,-332.0329 395.4902,-267.6195 435.1849,-233.6585"/>
<polygon fill="#191970" stroke="#191970" points="437.532,-236.2566 442.8552,-227.0961 432.9813,-230.9376 437.532,-236.2566"/>
</g>
<!-- Node335&#45;&gt;Node322 -->
<g id="edge24" class="edge">
<title>Node335&#45;&gt;Node322</title>
<path fill="none" stroke="#191970" d="M479.0032,-315.1339C499.772,-331.4576 535.0239,-357.2227 569,-373 671.8437,-420.757 801.0893,-451.4312 876.1402,-466.6232"/>
<polygon fill="#191970" stroke="#191970" points="875.8704,-470.1383 886.3622,-468.6643 877.2411,-463.2738 875.8704,-470.1383"/>
</g>
<!-- Node336 -->
<g id="node20" class="node">
<title>Node336</title>
<g id="a_node20"><a xlink:href="classstatistics_1_1_similarity.html#a95126bfd6b0ed22c828a6ab780096a12" target="_top" xlink:title="Stores a valid similarity matrix point to use.">
<polygon fill="#ffffff" stroke="#000000" points="569,-334 569,-364 673,-364 673,-334 569,-334"/>
<text text-anchor="start" x="577" y="-352" font-family="Helvetica,sans-Serif" font-size="10.00" fill="#000000">statistics::Similarity</text>
<text text-anchor="middle" x="621" y="-341" font-family="Helvetica,sans-Serif" font-size="10.00" fill="#000000">::setSimilarityMatrix</text>
</a>
</g>
</g>
<!-- Node335&#45;&gt;Node336 -->
<g id="edge25" class="edge">
<title>Node335&#45;&gt;Node336</title>
<path fill="none" stroke="#191970" d="M509.9649,-315.1014C526.365,-320.1083 544.7869,-325.7324 561.8409,-330.939"/>
<polygon fill="#191970" stroke="#191970" points="561.1122,-334.3759 571.6984,-333.9484 563.1562,-327.681 561.1122,-334.3759"/>
</g>
<!-- Node337 -->
<g id="node21" class="node">
<title>Node337</title>
<g id="a_node21"><a xlink:href="classstatistics_1_1_similarity.html#adcb5627b9704850e85433fc40c19db17" target="_top" xlink:title="Allows us compute the conservationWindow&#39;s values.">
<polygon fill="#ffffff" stroke="#000000" points="569.5,-148 569.5,-178 672.5,-178 672.5,-148 569.5,-148"/>
<text text-anchor="start" x="577.5" y="-166" font-family="Helvetica,sans-Serif" font-size="10.00" fill="#000000">statistics::Similarity</text>
<text text-anchor="middle" x="621" y="-155" font-family="Helvetica,sans-Serif" font-size="10.00" fill="#000000">::applyWindow</text>
</a>
</g>
</g>
<!-- Node335&#45;&gt;Node337 -->
<g id="edge26" class="edge">
<title>Node335&#45;&gt;Node337</title>
<path fill="none" stroke="#191970" d="M479.681,-284.9795C494.9138,-272.6142 516.3471,-254.2156 533,-236 551.2338,-216.0551 548.0688,-204.0926 569,-187 570.5306,-185.7501 572.137,-184.5496 573.7982,-183.3983"/>
<polygon fill="#191970" stroke="#191970" points="575.7905,-186.2817 582.4633,-178.0522 572.115,-180.3243 575.7905,-186.2817"/>
</g>
<!-- Node338 -->
<g id="node22" class="node">
<title>Node338</title>
<g id="a_node22"><a xlink:href="classstatistics_1_1_similarity.html#ae69ec0e79912ae23c8cfe97358c4794d" target="_top" xlink:title="Method to calculate the similarity values of a alignment matrix.">
<polygon fill="#ffffff" stroke="#000000" points="721,-241 721,-271 824,-271 824,-241 721,-241"/>
<text text-anchor="start" x="729" y="-259" font-family="Helvetica,sans-Serif" font-size="10.00" fill="#000000">statistics::Similarity</text>
<text text-anchor="middle" x="772.5" y="-248" font-family="Helvetica,sans-Serif" font-size="10.00" fill="#000000">::calculateVectors</text>
</a>
</g>
</g>
<!-- Node335&#45;&gt;Node338 -->
<g id="edge39" class="edge">
<title>Node335&#45;&gt;Node338</title>
<path fill="none" stroke="#191970" d="M519.3453,-284.9373C535.3675,-281.2485 552.7785,-277.6141 569,-275 616.3117,-267.3756 670.3416,-262.5078 710.8336,-259.61"/>
<polygon fill="#191970" stroke="#191970" points="711.0911,-263.1007 720.8242,-258.9153 710.6054,-256.1176 711.0911,-263.1007"/>
</g>
<!-- Node344 -->
<g id="node28" class="node">
<title>Node344</title>
<g id="a_node28"><a xlink:href="classstatistics_1_1_similarity.html#a88b1061ad8e64c1a63a4aa00db7424e3" target="_top" xlink:title="Returns if a similarity matrix is being used or not.">
<polygon fill="#ffffff" stroke="#000000" points="569.5,-285 569.5,-315 672.5,-315 672.5,-285 569.5,-285"/>
<text text-anchor="start" x="577.5" y="-303" font-family="Helvetica,sans-Serif" font-size="10.00" fill="#000000">statistics::Similarity</text>
<text text-anchor="middle" x="621" y="-292" font-family="Helvetica,sans-Serif" font-size="10.00" fill="#000000">::isSimMatrixDef</text>
</a>
</g>
</g>
<!-- Node335&#45;&gt;Node344 -->
<g id="edge38" class="edge">
<title>Node335&#45;&gt;Node344</title>
<path fill="none" stroke="#191970" d="M532.3001,-300C541.2986,-300 550.4405,-300 559.2663,-300"/>
<polygon fill="#191970" stroke="#191970" points="559.4544,-303.5001 569.4543,-300 559.4543,-296.5001 559.4544,-303.5001"/>
</g>
<!-- Node345 -->
<g id="node29" class="node">
<title>Node345</title>
<g id="a_node29"><a xlink:href="classstatistics_1_1_similarity.html#a4446bf070a858952dac45f5705d16780" target="_top" xlink:title="Returns if a windows size value has been defined or not.">
<polygon fill="#ffffff" stroke="#000000" points="569.5,-197 569.5,-227 672.5,-227 672.5,-197 569.5,-197"/>
<text text-anchor="start" x="577.5" y="-215" font-family="Helvetica,sans-Serif" font-size="10.00" fill="#000000">statistics::Similarity</text>
<text text-anchor="middle" x="621" y="-204" font-family="Helvetica,sans-Serif" font-size="10.00" fill="#000000">::isDefinedWindow</text>
</a>
</g>
</g>
<!-- Node335&#45;&gt;Node345 -->
<g id="edge40" class="edge">
<title>Node335&#45;&gt;Node345</title>
<path fill="none" stroke="#191970" d="M488.0909,-284.8723C514.6988,-270.2835 555.1346,-248.1131 584.4172,-232.0578"/>
<polygon fill="#191970" stroke="#191970" points="586.4152,-234.954 593.501,-227.0773 583.0498,-228.816 586.4152,-234.954"/>
</g>
<!-- Node337&#45;&gt;Node325 -->
<g id="edge37" class="edge">
<title>Node337&#45;&gt;Node325</title>
<path fill="none" stroke="#191970" d="M672.7188,-161.4826C794.9944,-158.5695 1098.6263,-155.4703 1192,-193 1226.2515,-206.7667 1257.0409,-237.0092 1275.6173,-258.1782"/>
<polygon fill="#191970" stroke="#191970" points="1272.9652,-260.4621 1282.1207,-265.7938 1278.2884,-255.9164 1272.9652,-260.4621"/>
</g>
<!-- Node337&#45;&gt;Node338 -->
<g id="edge27" class="edge">
<title>Node337&#45;&gt;Node338</title>
<path fill="none" stroke="#191970" d="M658.379,-178.0597C663.4762,-180.7338 668.4972,-183.7246 673,-187 692.076,-200.8763 689.9863,-212.0385 709,-226 714.0951,-229.7413 719.7308,-233.1976 725.4792,-236.3309"/>
<polygon fill="#191970" stroke="#191970" points="724.0488,-239.5308 734.5436,-240.9834 727.2453,-233.3032 724.0488,-239.5308"/>
</g>
<!-- Node338&#45;&gt;Node322 -->
<g id="edge31" class="edge">
<title>Node338&#45;&gt;Node322</title>
<path fill="none" stroke="#191970" d="M775.9569,-271.0016C785.1326,-307.543 813.502,-401.9695 872,-454 873.7395,-455.5472 875.5866,-456.9971 877.5157,-458.3556"/>
<polygon fill="#191970" stroke="#191970" points="876.0516,-461.5605 886.4188,-463.745 879.6766,-455.5722 876.0516,-461.5605"/>
</g>
<!-- Node338&#45;&gt;Node332 -->
<g id="edge32" class="edge">
<title>Node338&#45;&gt;Node332</title>
<path fill="none" stroke="#191970" d="M786.1739,-271.0465C805.1987,-291.9021 840.8327,-330.6802 872,-363 886.2926,-377.8211 902.6565,-394.1888 915.5145,-406.9167"/>
<polygon fill="#191970" stroke="#191970" points="913.0631,-409.4149 922.6378,-413.9509 917.9816,-404.434 913.0631,-409.4149"/>
</g>
<!-- Node339 -->
<g id="node23" class="node">
<title>Node339</title>
<g id="a_node23"><a xlink:href="classstatistics_1_1_similarity.html#a75bd235b3207235eefa7b52dff063c76" target="_top" xlink:title="Computes the matrix identity between alignment&#39;s columns.">
<polygon fill="#ffffff" stroke="#000000" points="877.5,-115 877.5,-145 998.5,-145 998.5,-115 877.5,-115"/>
<text text-anchor="start" x="885.5" y="-133" font-family="Helvetica,sans-Serif" font-size="10.00" fill="#000000">statistics::Similarity</text>
<text text-anchor="middle" x="938" y="-122" font-family="Helvetica,sans-Serif" font-size="10.00" fill="#000000">::calculateMatrixIdentity</text>
</a>
</g>
</g>
<!-- Node338&#45;&gt;Node339 -->
<g id="edge28" class="edge">
<title>Node338&#45;&gt;Node339</title>
<path fill="none" stroke="#191970" d="M792.4632,-240.8015C821.8671,-218.4154 876.9293,-176.4949 910.2497,-151.1271"/>
<polygon fill="#191970" stroke="#191970" points="912.3873,-153.8987 918.2237,-145.0563 908.147,-148.3291 912.3873,-153.8987"/>
</g>
<!-- Node340 -->
<g id="node24" class="node">
<title>Node340</title>
<g id="a_node24"><a xlink:href="class_alignment.html#a1bc7622776f3935f6cb9d3c895e43a29" target="_top" xlink:title="Alignment type getter. &#160;&#160;See SequenceTypes.">
<polygon fill="#ffffff" stroke="#000000" points="1043.5,-76.5 1043.5,-95.5 1188.5,-95.5 1188.5,-76.5 1043.5,-76.5"/>
<text text-anchor="middle" x="1116" y="-83.5" font-family="Helvetica,sans-Serif" font-size="10.00" fill="#000000">Alignment::getAlignmentType</text>
</a>
</g>
</g>
<!-- Node338&#45;&gt;Node340 -->
<g id="edge33" class="edge">
<title>Node338&#45;&gt;Node340</title>
<path fill="none" stroke="#191970" d="M777.4304,-240.6426C788.5237,-208.9029 818.7291,-136.4228 872,-105 923.7217,-74.491 992.7008,-71.8771 1044.1197,-75.6569"/>
<polygon fill="#191970" stroke="#191970" points="1043.9033,-79.1509 1054.159,-76.4917 1044.4835,-72.175 1043.9033,-79.1509"/>
</g>
<!-- Node342 -->
<g id="node26" class="node">
<title>Node342</title>
<g id="a_node26"><a xlink:href="namespaceutils.html#a6286fde6f4dd58ef0cfa9d55341b72f8" target="_top" xlink:title=" ">
<polygon fill="#ffffff" stroke="#000000" points="900.5,-278.5 900.5,-297.5 975.5,-297.5 975.5,-278.5 900.5,-278.5"/>
<text text-anchor="middle" x="938" y="-285.5" font-family="Helvetica,sans-Serif" font-size="10.00" fill="#000000">utils::toUpper</text>
</a>
</g>
</g>
<!-- Node338&#45;&gt;Node342 -->
<g id="edge34" class="edge">
<title>Node338&#45;&gt;Node342</title>
<path fill="none" stroke="#191970" d="M824.4112,-266.0372C845.5922,-270.1326 869.9189,-274.8363 890.6119,-278.8374"/>
<polygon fill="#191970" stroke="#191970" points="889.9661,-282.2772 900.4487,-280.7393 891.295,-275.4045 889.9661,-282.2772"/>
</g>
<!-- Node343 -->
<g id="node27" class="node">
<title>Node343</title>
<g id="a_node27"><a xlink:href="classstatistics_1_1similarity_matrix.html#a2a17eb464ec28ba83edbcbe271e7ff62" target="_top" xlink:title="Method to get the similarity distance between two residues, A and B Characters provided must be both ...">
<polygon fill="#ffffff" stroke="#000000" points="1052,-203 1052,-233 1180,-233 1180,-203 1052,-203"/>
<text text-anchor="start" x="1060" y="-221" font-family="Helvetica,sans-Serif" font-size="10.00" fill="#000000">statistics::similarityMatrix</text>
<text text-anchor="middle" x="1116" y="-210" font-family="Helvetica,sans-Serif" font-size="10.00" fill="#000000">::getDistance</text>
</a>
</g>
</g>
<!-- Node338&#45;&gt;Node343 -->
<g id="edge35" class="edge">
<title>Node338&#45;&gt;Node343</title>
<path fill="none" stroke="#191970" d="M824.2973,-250.2699C882.0272,-243.8835 975.8713,-233.5019 1041.4827,-226.2435"/>
<polygon fill="#191970" stroke="#191970" points="1042.2061,-229.685 1051.7606,-225.1065 1041.4364,-222.7274 1042.2061,-229.685"/>
</g>
<!-- Node339&#45;&gt;Node340 -->
<g id="edge29" class="edge">
<title>Node339&#45;&gt;Node340</title>
<path fill="none" stroke="#191970" d="M998.7597,-114.9808C1021.2781,-109.4144 1046.4875,-103.1829 1067.743,-97.9287"/>
<polygon fill="#191970" stroke="#191970" points="1068.65,-101.3099 1077.5179,-95.5124 1066.9702,-94.5144 1068.65,-101.3099"/>
</g>
<!-- Node341 -->
<g id="node25" class="node">
<title>Node341</title>
<g id="a_node25"><a xlink:href="namespaceutils.html#aab52f9515717f06cafd6ab7fe2ebdcef" target="_top" xlink:title="Checks an alignment type.">
<polygon fill="#ffffff" stroke="#000000" points="1228,-76.5 1228,-95.5 1360,-95.5 1360,-76.5 1228,-76.5"/>
<text text-anchor="middle" x="1294" y="-83.5" font-family="Helvetica,sans-Serif" font-size="10.00" fill="#000000">utils::checkAlignmentType</text>
</a>
</g>
</g>
<!-- Node340&#45;&gt;Node341 -->
<g id="edge30" class="edge">
<title>Node340&#45;&gt;Node341</title>
<path fill="none" stroke="#191970" d="M1188.6561,-86C1198.288,-86 1208.1843,-86 1217.8727,-86"/>
<polygon fill="#191970" stroke="#191970" points="1217.8741,-89.5001 1227.874,-86 1217.874,-82.5001 1217.8741,-89.5001"/>
</g>
<!-- Node343&#45;&gt;Node325 -->
<g id="edge36" class="edge">
<title>Node343&#45;&gt;Node325</title>
<path fill="none" stroke="#191970" d="M1158.6354,-233.0901C1183.6427,-241.941 1215.4256,-253.19 1241.9093,-262.5634"/>
<polygon fill="#191970" stroke="#191970" points="1240.8096,-265.8869 1251.4043,-265.924 1243.1452,-259.288 1240.8096,-265.8869"/>
</g>
<!-- Node346&#45;&gt;Node326 -->
<g id="edge43" class="edge">
<title>Node346&#45;&gt;Node326</title>
<path fill="none" stroke="#191970" d="M956.3223,-334.4918C1001.628,-312.4498 1120.4196,-263.799 1192,-319 1241.8535,-357.4458 1199.6377,-399.7947 1228,-456 1240.6195,-481.0079 1261.7885,-505.4662 1276.7447,-521.0675"/>
<polygon fill="#191970" stroke="#191970" points="1274.4172,-523.6926 1283.9214,-528.3747 1279.4113,-518.7877 1274.4172,-523.6926"/>
</g>
<!-- Node346&#45;&gt;Node330 -->
<g id="edge42" class="edge">
<title>Node346&#45;&gt;Node330</title>
<path fill="none" stroke="#191970" d="M989.9635,-344C1003.3869,-344 1018.1783,-344 1032.7626,-344"/>
<polygon fill="#191970" stroke="#191970" points="1032.807,-347.5001 1042.8069,-344 1032.8069,-340.5001 1032.807,-347.5001"/>
</g>
<!-- Node347&#45;&gt;Node337 -->
<g id="edge47" class="edge">
<title>Node347&#45;&gt;Node337</title>
<path fill="none" stroke="#191970" d="M509.9649,-196.8986C526.365,-191.8917 544.7869,-186.2676 561.8409,-181.061"/>
<polygon fill="#191970" stroke="#191970" points="563.1562,-184.319 571.6984,-178.0516 561.1122,-177.6241 563.1562,-184.319"/>
</g>
<!-- Node347&#45;&gt;Node345 -->
<g id="edge46" class="edge">
<title>Node347&#45;&gt;Node345</title>
<path fill="none" stroke="#191970" d="M525.3189,-212C536.5094,-212 548.116,-212 559.2233,-212"/>
<polygon fill="#191970" stroke="#191970" points="559.2573,-215.5001 569.2572,-212 559.2572,-208.5001 559.2573,-215.5001"/>
</g>
<!-- Node348&#45;&gt;Node322 -->
<g id="edge54" class="edge">
<title>Node348&#45;&gt;Node322</title>
<path fill="none" stroke="#191970" d="M816.697,-555.4412C823.463,-552.9593 830.1372,-549.86 836,-546 856.8176,-532.2938 851.6845,-517.4401 872,-503 874.6466,-501.1189 877.4524,-499.3593 880.3562,-497.7163"/>
<polygon fill="#191970" stroke="#191970" points="881.9976,-500.808 889.3002,-493.1319 878.8046,-494.5786 881.9976,-500.808"/>
</g>
<!-- Node348&#45;&gt;Node327 -->
<g id="edge55" class="edge">
<title>Node348&#45;&gt;Node327</title>
<path fill="none" stroke="#191970" d="M814.2626,-555.411C828.8537,-552.0608 845.7194,-548.1883 862.2135,-544.4011"/>
<polygon fill="#191970" stroke="#191970" points="863.4486,-547.7087 872.4118,-542.0595 861.8821,-540.8862 863.4486,-547.7087"/>
</g>
<!-- Node348&#45;&gt;Node332 -->
<g id="edge56" class="edge">
<title>Node348&#45;&gt;Node332</title>
<path fill="none" stroke="#191970" d="M821.4578,-555.4628C826.7664,-552.9977 831.7677,-549.8977 836,-546 868.2978,-516.2552 840.7837,-484.8779 872,-454 873.47,-452.5459 875.033,-451.1749 876.6703,-449.8824"/>
<polygon fill="#191970" stroke="#191970" points="879.0227,-452.5198 885.3901,-444.0517 875.1318,-446.7008 879.0227,-452.5198"/>
</g>
<!-- Node349 -->
<g id="node33" class="node">
<title>Node349</title>
<g id="a_node33"><a xlink:href="classstatistics_1_1_gaps.html#a487a85bf19dd7940ab1a2986601527c8" target="_top" xlink:title=" ">
<polygon fill="#ffffff" stroke="#000000" points="875.5,-624 875.5,-654 1000.5,-654 1000.5,-624 875.5,-624"/>
<text text-anchor="start" x="883.5" y="-642" font-family="Helvetica,sans-Serif" font-size="10.00" fill="#000000">statistics::Gaps::calcCut</text>
<text text-anchor="middle" x="938" y="-631" font-family="Helvetica,sans-Serif" font-size="10.00" fill="#000000">Point</text>
</a>
</g>
</g>
<!-- Node348&#45;&gt;Node349 -->
<g id="edge51" class="edge">
<title>Node348&#45;&gt;Node349</title>
<path fill="none" stroke="#191970" d="M793.7974,-574.5227C819.2243,-585.8918 862.3853,-605.1904 894.8766,-619.7182"/>
<polygon fill="#191970" stroke="#191970" points="893.6016,-622.982 904.1592,-623.8688 896.4589,-616.5917 893.6016,-622.982"/>
</g>
<!-- Node349&#45;&gt;Node320 -->
<g id="edge53" class="edge">
<title>Node349&#45;&gt;Node320</title>
<path fill="none" stroke="#191970" d="M1000.5058,-639C1025.5845,-639 1053.7513,-639 1075.9902,-639"/>
<polygon fill="#191970" stroke="#191970" points="1076.0743,-642.5001 1086.0743,-639 1076.0743,-635.5001 1076.0743,-642.5001"/>
</g>
<!-- Node349&#45;&gt;Node326 -->
<g id="edge52" class="edge">
<title>Node349&#45;&gt;Node326</title>
<path fill="none" stroke="#191970" d="M979.7968,-654.1061C1032.0362,-670.3736 1122.9651,-689.9245 1192,-658 1237.3111,-637.0463 1269.8729,-584.943 1284.8236,-556.7797"/>
<polygon fill="#191970" stroke="#191970" points="1288.0869,-558.0856 1289.5259,-547.5889 1281.8551,-554.8972 1288.0869,-558.0856"/>
</g>
<!-- Node350&#45;&gt;Node322 -->
<g id="edge58" class="edge">
<title>Node350&#45;&gt;Node322</title>
<path fill="none" stroke="#191970" d="M836.0133,-484.7786C849.1761,-483.9037 863.0263,-482.9831 876.1293,-482.1123"/>
<polygon fill="#191970" stroke="#191970" points="876.7042,-485.5819 886.45,-481.4263 876.2399,-478.5973 876.7042,-485.5819"/>
</g>
<!-- Node350&#45;&gt;Node327 -->
<g id="edge59" class="edge">
<title>Node350&#45;&gt;Node327</title>
<path fill="none" stroke="#191970" d="M814.2626,-498.589C828.8537,-501.9392 845.7194,-505.8117 862.2135,-509.5989"/>
<polygon fill="#191970" stroke="#191970" points="861.8821,-513.1138 872.4118,-511.9405 863.4486,-506.2913 861.8821,-513.1138"/>
</g>
<!-- Node350&#45;&gt;Node332 -->
<g id="edge60" class="edge">
<title>Node350&#45;&gt;Node332</title>
<path fill="none" stroke="#191970" d="M798.724,-479.4928C822.3079,-470.9428 857.6256,-458.1387 886.794,-447.5641"/>
<polygon fill="#191970" stroke="#191970" points="888.216,-450.7716 896.4243,-444.0728 885.8301,-444.1907 888.216,-450.7716"/>
</g>
<!-- Node352 -->
<g id="node36" class="node">
<title>Node352</title>
<g id="a_node36"><a xlink:href="class_cleaner.html#a65d829578be97c192561a129435b3c58" target="_top" xlink:title="Method to calculate identities between the sequences from the alignment. See Alignment::identities.">
<polygon fill="#ffffff" stroke="#000000" points="388,-.5 388,-19.5 533,-19.5 533,-.5 388,-.5"/>
<text text-anchor="middle" x="460.5" y="-7.5" font-family="Helvetica,sans-Serif" font-size="10.00" fill="#000000">Cleaner::calculateSeqIdentity</text>
</a>
</g>
</g>
<!-- Node351&#45;&gt;Node352 -->
<g id="edge62" class="edge">
<title>Node351&#45;&gt;Node352</title>
<path fill="none" stroke="#191970" d="M288.0464,-127.2935C304.2324,-107.0987 344.3749,-60.2601 388,-34 395.2664,-29.626 403.4282,-25.9394 411.5842,-22.8697"/>
<polygon fill="#191970" stroke="#191970" points="412.8154,-26.1471 421.102,-19.5455 410.5072,-19.5386 412.8154,-26.1471"/>
</g>
<!-- Node352&#45;&gt;Node340 -->
<g id="edge63" class="edge">
<title>Node352&#45;&gt;Node340</title>
<path fill="none" stroke="#191970" d="M533.4125,-4.3532C638.9171,1.8376 839.5275,6.1446 1004,-34 1035.8907,-41.7839 1069.7019,-58.8604 1091.7264,-71.328"/>
<polygon fill="#191970" stroke="#191970" points="1089.9954,-74.37 1100.4039,-76.3485 1093.501,-68.311 1089.9954,-74.37"/>
</g>
</g>
</svg>
