<?xml version="1.0" encoding="UTF-8" standalone="no"?>
<!DOCTYPE svg PUBLIC "-//W3C//DTD SVG 1.1//EN"
 "http://www.w3.org/Graphics/SVG/1.1/DTD/svg11.dtd">
<!-- Generated by graphviz version 2.40.1 (20161225.0304)
 -->
<!-- Title: Cleaner::cleanCombMethods Pages: 1 -->
<svg width="914pt" height="66pt"
 viewBox="0.00 0.00 914.00 66.00" xmlns="http://www.w3.org/2000/svg" xmlns:xlink="http://www.w3.org/1999/xlink">
<g id="graph0" class="graph" transform="scale(1 1) rotate(0) translate(4 62)">
<title>Cleaner::cleanCombMethods</title>
<polygon fill="#ffffff" stroke="transparent" points="-4,4 -4,-62 910,-62 910,4 -4,4"/>
<!-- Node268 -->
<g id="node1" class="node">
<title>Node268</title>
<polygon fill="#bfbfbf" stroke="#000000" points="0,-19.5 0,-38.5 143,-38.5 143,-19.5 0,-19.5"/>
<text text-anchor="middle" x="71.5" y="-26.5" font-family="Helvetica,sans-Serif" font-size="10.00" fill="#000000">Cleaner::cleanCombMethods</text>
</g>
<!-- Node269 -->
<g id="node2" class="node">
<title>Node269</title>
<g id="a_node2"><a xlink:href="classtrim_al_manager.html#a69082911b30a1bd12395bb235bc18a34" target="_top" xlink:title="Method to trim the alignment using automatic or semi&#45;automatic methods: ">
<polygon fill="#ffffff" stroke="#000000" points="179,-19.5 179,-38.5 352,-38.5 352,-19.5 179,-19.5"/>
<text text-anchor="middle" x="265.5" y="-26.5" font-family="Helvetica,sans-Serif" font-size="10.00" fill="#000000">trimAlManager::CleanResiduesAuto</text>
</a>
</g>
</g>
<!-- Node268&#45;&gt;Node269 -->
<g id="edge1" class="edge">
<title>Node268&#45;&gt;Node269</title>
<path fill="none" stroke="#191970" d="M153.4097,-29C161.8688,-29 170.4848,-29 178.9919,-29"/>
<polygon fill="#191970" stroke="#191970" points="153.1873,-25.5001 143.1873,-29 153.1872,-32.5001 153.1873,-25.5001"/>
</g>
<!-- Node270 -->
<g id="node3" class="node">
<title>Node270</title>
<g id="a_node3"><a xlink:href="classtrim_al_manager.html#adc529dd893ed4e9df6f3ddbd58776068" target="_top" xlink:title="Core Method of the program. This is where almost all cleaning methods are called from. ">
<polygon fill="#ffffff" stroke="#000000" points="388,-14 388,-44 497,-44 497,-14 388,-14"/>
<text text-anchor="start" x="396" y="-32" font-family="Helvetica,sans-Serif" font-size="10.00" fill="#000000">trimAlManager::clean</text>
<text text-anchor="middle" x="442.5" y="-21" font-family="Helvetica,sans-Serif" font-size="10.00" fill="#000000">_alignment</text>
</a>
</g>
</g>
<!-- Node269&#45;&gt;Node270 -->
<g id="edge2" class="edge">
<title>Node269&#45;&gt;Node270</title>
<path fill="none" stroke="#191970" d="M362.3747,-29C371.0296,-29 379.5767,-29 387.6809,-29"/>
<polygon fill="#191970" stroke="#191970" points="362.1852,-25.5001 352.1852,-29 362.1851,-32.5001 362.1852,-25.5001"/>
</g>
<!-- Node271 -->
<g id="node4" class="node">
<title>Node271</title>
<g id="a_node4"><a xlink:href="classtrim_al_manager.html#a7c641a1feff33d401b4ea5c82e989289" target="_top" xlink:title="trimAlManager::innerPerform">
<polygon fill="#ffffff" stroke="#000000" points="534.5,-38.5 534.5,-57.5 675.5,-57.5 675.5,-38.5 534.5,-38.5"/>
<text text-anchor="middle" x="605" y="-45.5" font-family="Helvetica,sans-Serif" font-size="10.00" fill="#000000">trimAlManager::innerPerform</text>
</a>
</g>
</g>
<!-- Node270&#45;&gt;Node271 -->
<g id="edge3" class="edge">
<title>Node270&#45;&gt;Node271</title>
<path fill="none" stroke="#191970" d="M507.0655,-36.5492C516.0547,-37.6002 525.3286,-38.6846 534.4212,-39.7477"/>
<polygon fill="#191970" stroke="#191970" points="507.401,-33.0647 497.0622,-35.3796 506.588,-40.0173 507.401,-33.0647"/>
</g>
<!-- Node274 -->
<g id="node7" class="node">
<title>Node274</title>
<g id="a_node7"><a xlink:href="classtrim_al_manager.html#ac5795f93b3a2b51bf5d8dddd63b89f73" target="_top" xlink:title="trimAlManager::perform_VCF">
<polygon fill="#ffffff" stroke="#000000" points="533,-.5 533,-19.5 677,-19.5 677,-.5 533,-.5"/>
<text text-anchor="middle" x="605" y="-7.5" font-family="Helvetica,sans-Serif" font-size="10.00" fill="#000000">trimAlManager::perform_VCF</text>
</a>
</g>
</g>
<!-- Node270&#45;&gt;Node274 -->
<g id="edge6" class="edge">
<title>Node270&#45;&gt;Node274</title>
<path fill="none" stroke="#191970" d="M507.2328,-21.4312C515.6937,-20.442 524.4041,-19.4235 532.9757,-18.4213"/>
<polygon fill="#191970" stroke="#191970" points="506.588,-17.9827 497.0622,-22.6204 507.401,-24.9353 506.588,-17.9827"/>
</g>
<!-- Node272 -->
<g id="node5" class="node">
<title>Node272</title>
<g id="a_node5"><a xlink:href="classtrim_al_manager.html#abe8d2841455c644dc9c7d1294b82b00f" target="_top" xlink:title="Method to perform the analysis if all checks have passed. ">
<polygon fill="#ffffff" stroke="#000000" points="713,-38.5 713,-57.5 832,-57.5 832,-38.5 713,-38.5"/>
<text text-anchor="middle" x="772.5" y="-45.5" font-family="Helvetica,sans-Serif" font-size="10.00" fill="#000000">trimAlManager::perform</text>
</a>
</g>
</g>
<!-- Node271&#45;&gt;Node272 -->
<g id="edge4" class="edge">
<title>Node271&#45;&gt;Node272</title>
<path fill="none" stroke="#191970" d="M685.8102,-48C694.9363,-48 704.1089,-48 712.8939,-48"/>
<polygon fill="#191970" stroke="#191970" points="685.5497,-44.5001 675.5496,-48 685.5496,-51.5001 685.5497,-44.5001"/>
</g>
<!-- Node273 -->
<g id="node6" class="node">
<title>Node273</title>
<g id="a_node6"><a xlink:href="trim_al_main_8cpp.html#a0ddf1224851353fc92bfbff6f499fa97" target="_top" xlink:title="main">
<polygon fill="#ffffff" stroke="#000000" points="868,-38.5 868,-57.5 906,-57.5 906,-38.5 868,-38.5"/>
<text text-anchor="middle" x="887" y="-45.5" font-family="Helvetica,sans-Serif" font-size="10.00" fill="#000000">main</text>
</a>
</g>
</g>
<!-- Node272&#45;&gt;Node273 -->
<g id="edge5" class="edge">
<title>Node272&#45;&gt;Node273</title>
<path fill="none" stroke="#191970" d="M842.3198,-48C851.6177,-48 860.4503,-48 867.7697,-48"/>
<polygon fill="#191970" stroke="#191970" points="842.0976,-44.5001 832.0976,-48 842.0975,-51.5001 842.0976,-44.5001"/>
</g>
</g>
</svg>
