<?xml version="1.0" encoding="UTF-8" standalone="no"?>
<!DOCTYPE svg PUBLIC "-//W3C//DTD SVG 1.1//EN"
 "http://www.w3.org/Graphics/SVG/1.1/DTD/svg11.dtd">
<!-- Generated by graphviz version 2.40.1 (20161225.0304)
 -->
<!-- Title: Cleaner::cleanCombMethods Pages: 1 -->
<svg width="1299pt" height="656pt"
 viewBox="0.00 0.00 1299.00 656.20" xmlns="http://www.w3.org/2000/svg" xmlns:xlink="http://www.w3.org/1999/xlink">
<g id="graph0" class="graph" transform="scale(1 1) rotate(0) translate(4 652.1998)">
<title>Cleaner::cleanCombMethods</title>
<polygon fill="#ffffff" stroke="transparent" points="-4,4 -4,-652.1998 1295,-652.1998 1295,4 -4,4"/>
<!-- Node232 -->
<g id="node1" class="node">
<title>Node232</title>
<polygon fill="#bfbfbf" stroke="#000000" points="0,-286 0,-305 143,-305 143,-286 0,-286"/>
<text text-anchor="middle" x="71.5" y="-293" font-family="Helvetica,sans-Serif" font-size="10.00" fill="#000000">Cleaner::cleanCombMethods</text>
</g>
<!-- Node233 -->
<g id="node2" class="node">
<title>Node233</title>
<g id="a_node2"><a xlink:href="classstatistics_1_1_gaps.html#a70d46d69ad3564e1ec068d5f9d7e3e84" target="_top" xlink:title="statistics::Gaps::calcCut\lPoint2ndSlope">
<polygon fill="#ffffff" stroke="#000000" points="188,-573.5 188,-603.5 313,-603.5 313,-573.5 188,-573.5"/>
<text text-anchor="start" x="196" y="-591.5" font-family="Helvetica,sans-Serif" font-size="10.00" fill="#000000">statistics::Gaps::calcCut</text>
<text text-anchor="middle" x="250.5" y="-580.5" font-family="Helvetica,sans-Serif" font-size="10.00" fill="#000000">Point2ndSlope</text>
</a>
</g>
</g>
<!-- Node232&#45;&gt;Node233 -->
<g id="edge1" class="edge">
<title>Node232&#45;&gt;Node233</title>
<path fill="none" stroke="#191970" d="M77.2607,-305.2416C93.2421,-332.2344 139.5572,-410.2396 179,-474.5 198.2269,-505.8245 220.8254,-541.7025 235.3901,-564.707"/>
<polygon fill="#191970" stroke="#191970" points="232.6134,-566.8639 240.9229,-573.4368 238.5259,-563.1166 232.6134,-566.8639"/>
</g>
<!-- Node235 -->
<g id="node4" class="node">
<title>Node235</title>
<g id="a_node4"><a xlink:href="classstatistics_1_1_manager.html#a92505ca5aedc5b45c4300a0e8a7d1e17" target="_top" xlink:title="Method to handle similarity stat calculation It checks if the similarity submodule has been created...">
<polygon fill="#ffffff" stroke="#000000" points="179,-434.5 179,-464.5 322,-464.5 322,-434.5 179,-434.5"/>
<text text-anchor="start" x="187" y="-452.5" font-family="Helvetica,sans-Serif" font-size="10.00" fill="#000000">statistics::Manager</text>
<text text-anchor="middle" x="250.5" y="-441.5" font-family="Helvetica,sans-Serif" font-size="10.00" fill="#000000">::calculateConservationStats</text>
</a>
</g>
</g>
<!-- Node232&#45;&gt;Node235 -->
<g id="edge3" class="edge">
<title>Node232&#45;&gt;Node235</title>
<path fill="none" stroke="#191970" d="M82.6973,-305.1334C110.9221,-329.4163 185.539,-393.6118 225.0778,-427.6284"/>
<polygon fill="#191970" stroke="#191970" points="223.09,-430.5353 232.9533,-434.4039 227.6553,-425.2288 223.09,-430.5353"/>
</g>
<!-- Node238 -->
<g id="node7" class="node">
<title>Node238</title>
<g id="a_node7"><a xlink:href="namespaceutils.html#aac322cd1761fddedec8a5792e358eb32" target="_top" xlink:title="Vector initialization. ">
<polygon fill="#ffffff" stroke="#000000" points="1076,-292 1076,-311 1152,-311 1152,-292 1076,-292"/>
<text text-anchor="middle" x="1114" y="-299" font-family="Helvetica,sans-Serif" font-size="10.00" fill="#000000">utils::initlVect</text>
</a>
</g>
</g>
<!-- Node232&#45;&gt;Node238 -->
<g id="edge47" class="edge">
<title>Node232&#45;&gt;Node238</title>
<path fill="none" stroke="#191970" d="M143.0561,-287.9996C281.6254,-273.8944 596.3457,-243.9018 862,-233.5 928.6156,-230.8916 948.1939,-214.1811 1012,-233.5 1045.1809,-243.5464 1077.4337,-268.3399 1096.5051,-285.0455"/>
<polygon fill="#191970" stroke="#191970" points="1094.2936,-287.7639 1104.0661,-291.8565 1098.9787,-282.563 1094.2936,-287.7639"/>
</g>
<!-- Node251 -->
<g id="node20" class="node">
<title>Node251</title>
<g id="a_node20"><a xlink:href="classstatistics_1_1_gaps.html#ab5b60db326475f8adc68b130e22b3963" target="_top" xlink:title="statistics::Gaps::getGaps\lWindow">
<polygon fill="#ffffff" stroke="#000000" points="698,-283.5 698,-313.5 826,-313.5 826,-283.5 698,-283.5"/>
<text text-anchor="start" x="706" y="-301.5" font-family="Helvetica,sans-Serif" font-size="10.00" fill="#000000">statistics::Gaps::getGaps</text>
<text text-anchor="middle" x="762" y="-290.5" font-family="Helvetica,sans-Serif" font-size="10.00" fill="#000000">Window</text>
</a>
</g>
</g>
<!-- Node232&#45;&gt;Node251 -->
<g id="edge43" class="edge">
<title>Node232&#45;&gt;Node251</title>
<path fill="none" stroke="#191970" d="M143.1179,-295.8112C274.7547,-296.3831 553.9016,-297.5959 687.5921,-298.1767"/>
<polygon fill="#191970" stroke="#191970" points="687.7244,-301.6772 697.7396,-298.2208 687.7549,-294.6773 687.7244,-301.6772"/>
</g>
<!-- Node256 -->
<g id="node25" class="node">
<title>Node256</title>
<g id="a_node25"><a xlink:href="class_cleaner.html#afcc9a3a0759ebdaaa6fa07c0d1702a99" target="_top" xlink:title="Method to clean an alignment. It carries out strict and strictplus. It removes sequences that overpas...">
<polygon fill="#ffffff" stroke="#000000" points="199,-166 199,-185 302,-185 302,-166 199,-166"/>
<text text-anchor="middle" x="250.5" y="-173" font-family="Helvetica,sans-Serif" font-size="10.00" fill="#000000">Cleaner::cleanStrict</text>
</a>
</g>
</g>
<!-- Node232&#45;&gt;Node256 -->
<g id="edge33" class="edge">
<title>Node232&#45;&gt;Node256</title>
<path fill="none" stroke="#191970" d="M85.3214,-285.7816C105.6957,-271.5022 145.0497,-244.0983 179,-221.5 194.8245,-210.9667 212.823,-199.3894 226.8031,-190.4845"/>
<polygon fill="#191970" stroke="#191970" points="228.7829,-193.3733 235.3464,-185.0564 225.029,-187.465 228.7829,-193.3733"/>
</g>
<!-- Node265 -->
<g id="node34" class="node">
<title>Node265</title>
<g id="a_node34"><a xlink:href="classstatistics_1_1_similarity.html#a1b65c85328f09fa0637365d11fb386b4" target="_top" xlink:title="This methods returns a pointer to conservationWindow&#39;s vector. ">
<polygon fill="#ffffff" stroke="#000000" points="186,-324.5 186,-354.5 315,-354.5 315,-324.5 186,-324.5"/>
<text text-anchor="start" x="194" y="-342.5" font-family="Helvetica,sans-Serif" font-size="10.00" fill="#000000">statistics::Similarity</text>
<text text-anchor="middle" x="250.5" y="-331.5" font-family="Helvetica,sans-Serif" font-size="10.00" fill="#000000">::getMdkWindowedVector</text>
</a>
</g>
</g>
<!-- Node232&#45;&gt;Node265 -->
<g id="edge44" class="edge">
<title>Node232&#45;&gt;Node265</title>
<path fill="none" stroke="#191970" d="M110.3403,-305.0473C130.4936,-310.0012 155.7568,-316.2112 179.2643,-321.9895"/>
<polygon fill="#191970" stroke="#191970" points="178.6649,-325.4463 189.2114,-324.4346 180.3359,-318.6487 178.6649,-325.4463"/>
</g>
<!-- Node266 -->
<g id="node35" class="node">
<title>Node266</title>
<g id="a_node35"><a xlink:href="namespaceutils.html#a73f038c379c13d23e3220afaa14f9983" target="_top" xlink:title="Quicksort sorting method. ">
<polygon fill="#ffffff" stroke="#000000" points="210.5,-78 210.5,-97 290.5,-97 290.5,-78 210.5,-78"/>
<text text-anchor="middle" x="250.5" y="-85" font-family="Helvetica,sans-Serif" font-size="10.00" fill="#000000">utils::quicksort</text>
</a>
</g>
</g>
<!-- Node232&#45;&gt;Node266 -->
<g id="edge48" class="edge">
<title>Node232&#45;&gt;Node266</title>
<path fill="none" stroke="#191970" d="M78.3415,-285.6805C94.717,-262.4039 137.8708,-202.3899 179,-156.5 196.0005,-137.5317 217.1763,-117.4898 232.0552,-103.9231"/>
<polygon fill="#191970" stroke="#191970" points="234.5333,-106.4012 239.6069,-97.1001 229.8405,-101.2071 234.5333,-106.4012"/>
</g>
<!-- Node234 -->
<g id="node3" class="node">
<title>Node234</title>
<g id="a_node3"><a xlink:href="namespaceutils.html#a54839bee4863694819d990565e1e92cd" target="_top" xlink:title="Vector initialization. ">
<polygon fill="#ffffff" stroke="#000000" points="563,-626 563,-645 639,-645 639,-626 563,-626"/>
<text text-anchor="middle" x="601" y="-633" font-family="Helvetica,sans-Serif" font-size="10.00" fill="#000000">utils::initlVect</text>
</a>
</g>
</g>
<!-- Node233&#45;&gt;Node234 -->
<g id="edge2" class="edge">
<title>Node233&#45;&gt;Node234</title>
<path fill="none" stroke="#191970" d="M275.0236,-603.6886C296.128,-615.8121 327.8538,-631.8322 358,-638.5 424.3426,-653.1737 503.3811,-648.1983 552.8873,-642.4885"/>
<polygon fill="#191970" stroke="#191970" points="553.4811,-645.9423 562.988,-641.2657 552.6398,-638.993 553.4811,-645.9423"/>
</g>
<!-- Node236 -->
<g id="node5" class="node">
<title>Node236</title>
<g id="a_node5"><a xlink:href="classstatistics_1_1_manager.html#a1969a416d3020d25daa56de6c5e305db" target="_top" xlink:title="Method to handle gap stat calculation It checks if the gaps submodule has been created, otherwise, creates it. ">
<polygon fill="#ffffff" stroke="#000000" points="710.5,-368.5 710.5,-398.5 813.5,-398.5 813.5,-368.5 710.5,-368.5"/>
<text text-anchor="start" x="718.5" y="-386.5" font-family="Helvetica,sans-Serif" font-size="10.00" fill="#000000">statistics::Manager</text>
<text text-anchor="middle" x="762" y="-375.5" font-family="Helvetica,sans-Serif" font-size="10.00" fill="#000000">::calculateGapStats</text>
</a>
</g>
</g>
<!-- Node235&#45;&gt;Node236 -->
<g id="edge4" class="edge">
<title>Node235&#45;&gt;Node236</title>
<path fill="none" stroke="#191970" d="M278.3119,-434.3415C299.4867,-423.6182 329.7149,-410.0303 358,-403.5 476.5273,-376.1352 619.6255,-376.6461 699.7741,-379.8376"/>
<polygon fill="#191970" stroke="#191970" points="700.041,-383.3521 710.1811,-380.2814 700.3393,-376.3585 700.041,-383.3521"/>
</g>
<!-- Node243 -->
<g id="node12" class="node">
<title>Node243</title>
<g id="a_node12"><a xlink:href="classstatistics_1_1_similarity.html#ada0548f0ac960fbbb3a3192f83c42189" target="_top" xlink:title="Constructor without any parameters. ">
<polygon fill="#ffffff" stroke="#000000" points="379.5,-598.5 379.5,-628.5 482.5,-628.5 482.5,-598.5 379.5,-598.5"/>
<text text-anchor="start" x="387.5" y="-616.5" font-family="Helvetica,sans-Serif" font-size="10.00" fill="#000000">statistics::Similarity</text>
<text text-anchor="middle" x="431" y="-605.5" font-family="Helvetica,sans-Serif" font-size="10.00" fill="#000000">::Similarity</text>
</a>
</g>
</g>
<!-- Node235&#45;&gt;Node243 -->
<g id="edge12" class="edge">
<title>Node235&#45;&gt;Node243</title>
<path fill="none" stroke="#191970" d="M258.0614,-464.5474C273.1539,-493.0897 309.7546,-555.2897 358,-589.5 361.712,-592.1321 365.7308,-594.4889 369.9087,-596.5971"/>
<polygon fill="#191970" stroke="#191970" points="368.6983,-599.8909 379.2518,-600.8251 371.5843,-593.5135 368.6983,-599.8909"/>
</g>
<!-- Node244 -->
<g id="node13" class="node">
<title>Node244</title>
<g id="a_node13"><a xlink:href="classstatistics_1_1_similarity.html#a95126bfd6b0ed22c828a6ab780096a12" target="_top" xlink:title="Stores a valid similarity matrix point to use. ">
<polygon fill="#ffffff" stroke="#000000" points="379,-549.5 379,-579.5 483,-579.5 483,-549.5 379,-549.5"/>
<text text-anchor="start" x="387" y="-567.5" font-family="Helvetica,sans-Serif" font-size="10.00" fill="#000000">statistics::Similarity</text>
<text text-anchor="middle" x="431" y="-556.5" font-family="Helvetica,sans-Serif" font-size="10.00" fill="#000000">::setSimilarityMatrix</text>
</a>
</g>
</g>
<!-- Node235&#45;&gt;Node244 -->
<g id="edge14" class="edge">
<title>Node235&#45;&gt;Node244</title>
<path fill="none" stroke="#191970" d="M264.7599,-464.7912C284.1329,-484.7552 320.6551,-519.6083 358,-540.5 361.6675,-542.5517 365.5378,-544.4619 369.5053,-546.2343"/>
<polygon fill="#191970" stroke="#191970" points="368.3116,-549.5281 378.8898,-550.1216 370.9905,-543.061 368.3116,-549.5281"/>
</g>
<!-- Node245 -->
<g id="node14" class="node">
<title>Node245</title>
<g id="a_node14"><a xlink:href="classstatistics_1_1_similarity.html#adcb5627b9704850e85433fc40c19db17" target="_top" xlink:title="Allows us compute the conservationWindow&#39;s values. ">
<polygon fill="#ffffff" stroke="#000000" points="379.5,-412.5 379.5,-442.5 482.5,-442.5 482.5,-412.5 379.5,-412.5"/>
<text text-anchor="start" x="387.5" y="-430.5" font-family="Helvetica,sans-Serif" font-size="10.00" fill="#000000">statistics::Similarity</text>
<text text-anchor="middle" x="431" y="-419.5" font-family="Helvetica,sans-Serif" font-size="10.00" fill="#000000">::applyWindow</text>
</a>
</g>
</g>
<!-- Node235&#45;&gt;Node245 -->
<g id="edge15" class="edge">
<title>Node235&#45;&gt;Node245</title>
<path fill="none" stroke="#191970" d="M322.0976,-440.7734C337.6121,-438.8825 353.8956,-436.8978 369.0042,-435.0563"/>
<polygon fill="#191970" stroke="#191970" points="369.7493,-438.4915 379.2523,-433.8072 368.9023,-431.5429 369.7493,-438.4915"/>
</g>
<!-- Node246 -->
<g id="node15" class="node">
<title>Node246</title>
<g id="a_node15"><a xlink:href="classstatistics_1_1_similarity.html#ae69ec0e79912ae23c8cfe97358c4794d" target="_top" xlink:title="Method to calculate the similarity values of a alignment matrix. ">
<polygon fill="#ffffff" stroke="#000000" points="549.5,-456.5 549.5,-486.5 652.5,-486.5 652.5,-456.5 549.5,-456.5"/>
<text text-anchor="start" x="557.5" y="-474.5" font-family="Helvetica,sans-Serif" font-size="10.00" fill="#000000">statistics::Similarity</text>
<text text-anchor="middle" x="601" y="-463.5" font-family="Helvetica,sans-Serif" font-size="10.00" fill="#000000">::calculateVectors</text>
</a>
</g>
</g>
<!-- Node235&#45;&gt;Node246 -->
<g id="edge31" class="edge">
<title>Node235&#45;&gt;Node246</title>
<path fill="none" stroke="#191970" d="M322.2747,-454.0051C386.1726,-458.0158 478.6638,-463.8213 539.3025,-467.6274"/>
<polygon fill="#191970" stroke="#191970" points="539.2955,-471.1338 549.4951,-468.2672 539.734,-464.1475 539.2955,-471.1338"/>
</g>
<!-- Node254 -->
<g id="node23" class="node">
<title>Node254</title>
<g id="a_node23"><a xlink:href="classstatistics_1_1_similarity.html#a88b1061ad8e64c1a63a4aa00db7424e3" target="_top" xlink:title="Returns if a similarity matrix is being used or not. ">
<polygon fill="#ffffff" stroke="#000000" points="379.5,-500.5 379.5,-530.5 482.5,-530.5 482.5,-500.5 379.5,-500.5"/>
<text text-anchor="start" x="387.5" y="-518.5" font-family="Helvetica,sans-Serif" font-size="10.00" fill="#000000">statistics::Similarity</text>
<text text-anchor="middle" x="431" y="-507.5" font-family="Helvetica,sans-Serif" font-size="10.00" fill="#000000">::isSimMatrixDef</text>
</a>
</g>
</g>
<!-- Node235&#45;&gt;Node254 -->
<g id="edge30" class="edge">
<title>Node235&#45;&gt;Node254</title>
<path fill="none" stroke="#191970" d="M291.9103,-464.6417C318.1657,-474.242 352.3128,-486.7279 380.2018,-496.9256"/>
<polygon fill="#191970" stroke="#191970" points="379.1885,-500.2817 389.7823,-500.4287 381.5925,-493.7074 379.1885,-500.2817"/>
</g>
<!-- Node255 -->
<g id="node24" class="node">
<title>Node255</title>
<g id="a_node24"><a xlink:href="classstatistics_1_1_similarity.html#a4446bf070a858952dac45f5705d16780" target="_top" xlink:title="Returns if a windows size value has been defined or not. ">
<polygon fill="#ffffff" stroke="#000000" points="379.5,-324.5 379.5,-354.5 482.5,-354.5 482.5,-324.5 379.5,-324.5"/>
<text text-anchor="start" x="387.5" y="-342.5" font-family="Helvetica,sans-Serif" font-size="10.00" fill="#000000">statistics::Similarity</text>
<text text-anchor="middle" x="431" y="-331.5" font-family="Helvetica,sans-Serif" font-size="10.00" fill="#000000">::isDefinedWindow</text>
</a>
</g>
</g>
<!-- Node235&#45;&gt;Node255 -->
<g id="edge32" class="edge">
<title>Node235&#45;&gt;Node255</title>
<path fill="none" stroke="#191970" d="M267.816,-434.4618C288.3168,-417.1839 323.9828,-388.7447 358,-369.5 364.876,-365.61 372.3576,-361.9505 379.8233,-358.615"/>
<polygon fill="#191970" stroke="#191970" points="381.4218,-361.7375 389.2245,-354.5703 378.6554,-355.3073 381.4218,-361.7375"/>
</g>
<!-- Node237 -->
<g id="node6" class="node">
<title>Node237</title>
<g id="a_node6"><a xlink:href="classstatistics_1_1_gaps.html#a2f1d71bafa5e44e5f2c96771cf2a26ed" target="_top" xlink:title="statistics::Gaps::Gaps">
<polygon fill="#ffffff" stroke="#000000" points="879.5,-330 879.5,-349 994.5,-349 994.5,-330 879.5,-330"/>
<text text-anchor="middle" x="937" y="-337" font-family="Helvetica,sans-Serif" font-size="10.00" fill="#000000">statistics::Gaps::Gaps</text>
</a>
</g>
</g>
<!-- Node236&#45;&gt;Node237 -->
<g id="edge5" class="edge">
<title>Node236&#45;&gt;Node237</title>
<path fill="none" stroke="#191970" d="M813.5593,-370.5365C837.5548,-364.5034 865.915,-357.3728 889.3972,-351.4687"/>
<polygon fill="#191970" stroke="#191970" points="890.2907,-354.8531 899.1354,-349.0202 888.5838,-348.0644 890.2907,-354.8531"/>
</g>
<!-- Node239 -->
<g id="node8" class="node">
<title>Node239</title>
<g id="a_node8"><a xlink:href="classstatistics_1_1_gaps.html#aa3526494d5100e062daa4afba755d0b1" target="_top" xlink:title="statistics::Gaps::Calculate\lVectors">
<polygon fill="#ffffff" stroke="#000000" points="870.5,-368.5 870.5,-398.5 1003.5,-398.5 1003.5,-368.5 870.5,-368.5"/>
<text text-anchor="start" x="878.5" y="-386.5" font-family="Helvetica,sans-Serif" font-size="10.00" fill="#000000">statistics::Gaps::Calculate</text>
<text text-anchor="middle" x="937" y="-375.5" font-family="Helvetica,sans-Serif" font-size="10.00" fill="#000000">Vectors</text>
</a>
</g>
</g>
<!-- Node236&#45;&gt;Node239 -->
<g id="edge7" class="edge">
<title>Node236&#45;&gt;Node239</title>
<path fill="none" stroke="#191970" d="M813.5593,-383.5C828.1154,-383.5 844.2776,-383.5 859.9828,-383.5"/>
<polygon fill="#191970" stroke="#191970" points="860.2159,-387.0001 870.2159,-383.5 860.2158,-380.0001 860.2159,-387.0001"/>
</g>
<!-- Node240 -->
<g id="node9" class="node">
<title>Node240</title>
<g id="a_node9"><a xlink:href="classstatistics_1_1_gaps.html#aee36b772767467cdba2061df2305e85d" target="_top" xlink:title="statistics::Gaps::applyWindow">
<polygon fill="#ffffff" stroke="#000000" points="862,-292 862,-311 1012,-311 1012,-292 862,-292"/>
<text text-anchor="middle" x="937" y="-299" font-family="Helvetica,sans-Serif" font-size="10.00" fill="#000000">statistics::Gaps::applyWindow</text>
</a>
</g>
</g>
<!-- Node236&#45;&gt;Node240 -->
<g id="edge8" class="edge">
<title>Node236&#45;&gt;Node240</title>
<path fill="none" stroke="#191970" d="M781.6445,-368.4894C801.0956,-354.2817 832.2043,-333.2787 862,-320.5 867.7519,-318.0332 873.8945,-315.8349 880.095,-313.8891"/>
<polygon fill="#191970" stroke="#191970" points="881.2246,-317.2054 889.8386,-311.037 879.2581,-310.4873 881.2246,-317.2054"/>
</g>
<!-- Node237&#45;&gt;Node238 -->
<g id="edge6" class="edge">
<title>Node237&#45;&gt;Node238</title>
<path fill="none" stroke="#191970" d="M981.6646,-329.911C1007.3411,-324.3985 1039.6037,-317.4721 1065.8452,-311.8383"/>
<polygon fill="#191970" stroke="#191970" points="1066.905,-315.1906 1075.9475,-309.6695 1065.4356,-308.3466 1066.905,-315.1906"/>
</g>
<!-- Node240&#45;&gt;Node238 -->
<g id="edge10" class="edge">
<title>Node240&#45;&gt;Node238</title>
<path fill="none" stroke="#191970" d="M1012.0639,-301.5C1030.3223,-301.5 1049.3618,-301.5 1065.9757,-301.5"/>
<polygon fill="#191970" stroke="#191970" points="1065.9782,-305.0001 1075.9781,-301.5 1065.9781,-298.0001 1065.9782,-305.0001"/>
</g>
<!-- Node241 -->
<g id="node10" class="node">
<title>Node241</title>
<g id="a_node10"><a xlink:href="classreporting_1_1report_manager.html#a6d122e673144584e0869bd33b8a5c1c6" target="_top" xlink:title="Method to report an Error. &#160;It will be displayed if Level &#160;is equal or higher to VerboseLevel::ERROR...">
<polygon fill="#ffffff" stroke="#000000" points="1053,-412.5 1053,-442.5 1175,-442.5 1175,-412.5 1053,-412.5"/>
<text text-anchor="start" x="1061" y="-430.5" font-family="Helvetica,sans-Serif" font-size="10.00" fill="#000000">reporting::reportManager</text>
<text text-anchor="middle" x="1114" y="-419.5" font-family="Helvetica,sans-Serif" font-size="10.00" fill="#000000">::report</text>
</a>
</g>
</g>
<!-- Node240&#45;&gt;Node241 -->
<g id="edge9" class="edge">
<title>Node240&#45;&gt;Node241</title>
<path fill="none" stroke="#191970" d="M990.517,-311.0926C998.0039,-313.5538 1005.3891,-316.638 1012,-320.5 1048.1176,-341.5996 1079.5901,-379.2034 1097.6925,-403.744"/>
<polygon fill="#191970" stroke="#191970" points="1095.0556,-406.0715 1103.7407,-412.1394 1100.7352,-401.9798 1095.0556,-406.0715"/>
</g>
<!-- Node242 -->
<g id="node11" class="node">
<title>Node242</title>
<g id="a_node11"><a xlink:href="namespaceutils.html#ad50731aeb3c8f79ed8372516210dfc9d" target="_top" xlink:title="Round double to integer method. ">
<polygon fill="#ffffff" stroke="#000000" points="1076,-196 1076,-215 1152,-215 1152,-196 1076,-196"/>
<text text-anchor="middle" x="1114" y="-203" font-family="Helvetica,sans-Serif" font-size="10.00" fill="#000000">utils::roundInt</text>
</a>
</g>
</g>
<!-- Node240&#45;&gt;Node242 -->
<g id="edge11" class="edge">
<title>Node240&#45;&gt;Node242</title>
<path fill="none" stroke="#191970" d="M986.407,-291.975C995.1507,-289.4556 1004.0072,-286.3351 1012,-282.5 1044.9067,-266.7108 1077.6396,-239.4194 1096.8347,-221.9273"/>
<polygon fill="#191970" stroke="#191970" points="1099.248,-224.4627 1104.1934,-215.0928 1094.4843,-219.3336 1099.248,-224.4627"/>
</g>
<!-- Node243&#45;&gt;Node234 -->
<g id="edge13" class="edge">
<title>Node243&#45;&gt;Node234</title>
<path fill="none" stroke="#191970" d="M482.9293,-620.2203C505.1831,-623.1002 531.0198,-626.4437 552.8403,-629.2676"/>
<polygon fill="#191970" stroke="#191970" points="552.5086,-632.7537 562.8752,-630.5662 553.4071,-625.8116 552.5086,-632.7537"/>
</g>
<!-- Node245&#45;&gt;Node241 -->
<g id="edge29" class="edge">
<title>Node245&#45;&gt;Node241</title>
<path fill="none" stroke="#191970" d="M482.616,-427.5C603.4344,-427.5 904.8071,-427.5 1042.8781,-427.5"/>
<polygon fill="#191970" stroke="#191970" points="1042.9316,-431.0001 1052.9316,-427.5 1042.9315,-424.0001 1042.9316,-431.0001"/>
</g>
<!-- Node245&#45;&gt;Node246 -->
<g id="edge16" class="edge">
<title>Node245&#45;&gt;Node246</title>
<path fill="none" stroke="#191970" d="M482.9293,-440.9405C500.8074,-445.5678 520.9979,-450.7936 539.5607,-455.5981"/>
<polygon fill="#191970" stroke="#191970" points="538.8307,-459.0244 549.3887,-458.1418 540.5847,-452.2477 538.8307,-459.0244"/>
</g>
<!-- Node246&#45;&gt;Node236 -->
<g id="edge21" class="edge">
<title>Node246&#45;&gt;Node236</title>
<path fill="none" stroke="#191970" d="M628.6769,-456.3723C655.3676,-441.7835 695.9294,-419.6131 725.3033,-403.5578"/>
<polygon fill="#191970" stroke="#191970" points="727.3192,-406.4447 734.4153,-398.5773 723.9619,-400.3024 727.3192,-406.4447"/>
</g>
<!-- Node247 -->
<g id="node16" class="node">
<title>Node247</title>
<g id="a_node16"><a xlink:href="classstatistics_1_1_similarity.html#a75bd235b3207235eefa7b52dff063c76" target="_top" xlink:title="Computes the matrix identity between alignment&#39;s columns. ">
<polygon fill="#ffffff" stroke="#000000" points="701.5,-541.5 701.5,-571.5 822.5,-571.5 822.5,-541.5 701.5,-541.5"/>
<text text-anchor="start" x="709.5" y="-559.5" font-family="Helvetica,sans-Serif" font-size="10.00" fill="#000000">statistics::Similarity</text>
<text text-anchor="middle" x="762" y="-548.5" font-family="Helvetica,sans-Serif" font-size="10.00" fill="#000000">::calculateMatrixIdentity</text>
</a>
</g>
</g>
<!-- Node246&#45;&gt;Node247 -->
<g id="edge17" class="edge">
<title>Node246&#45;&gt;Node247</title>
<path fill="none" stroke="#191970" d="M626.2335,-486.5203C645.6398,-497.8972 673.2357,-513.6994 698,-526.5 704.745,-529.9865 711.9683,-533.5402 719.0446,-536.9249"/>
<polygon fill="#191970" stroke="#191970" points="718.0075,-540.3058 728.5443,-541.4135 720.9981,-533.9768 718.0075,-540.3058"/>
</g>
<!-- Node248 -->
<g id="node17" class="node">
<title>Node248</title>
<g id="a_node17"><a xlink:href="class_alignment.html#ab2487799d9a7d593d7fbe1b8da9593f5" target="_top" xlink:title="Alignment type getter. &#160;&#160;See SequenceTypes. ">
<polygon fill="#ffffff" stroke="#000000" points="864.5,-547 864.5,-566 1009.5,-566 1009.5,-547 864.5,-547"/>
<text text-anchor="middle" x="937" y="-554" font-family="Helvetica,sans-Serif" font-size="10.00" fill="#000000">Alignment::getAlignmentType</text>
</a>
</g>
</g>
<!-- Node246&#45;&gt;Node248 -->
<g id="edge25" class="edge">
<title>Node246&#45;&gt;Node248</title>
<path fill="none" stroke="#191970" d="M608.8839,-486.8961C622.8491,-512.2448 654.6039,-561.9088 698,-581.5 766.8684,-612.5906 857.9187,-587.1752 905.2926,-569.6464"/>
<polygon fill="#191970" stroke="#191970" points="906.6213,-572.8856 914.7151,-566.0488 904.1244,-566.346 906.6213,-572.8856"/>
</g>
<!-- Node250 -->
<g id="node19" class="node">
<title>Node250</title>
<g id="a_node19"><a xlink:href="namespaceutils.html#a6286fde6f4dd58ef0cfa9d55341b72f8" target="_top" xlink:title="utils::toUpper">
<polygon fill="#ffffff" stroke="#000000" points="1216,-525 1216,-544 1291,-544 1291,-525 1216,-525"/>
<text text-anchor="middle" x="1253.5" y="-532" font-family="Helvetica,sans-Serif" font-size="10.00" fill="#000000">utils::toUpper</text>
</a>
</g>
</g>
<!-- Node246&#45;&gt;Node250 -->
<g id="edge26" class="edge">
<title>Node246&#45;&gt;Node250</title>
<path fill="none" stroke="#191970" d="M652.5299,-479.4784C667.2003,-481.6027 683.2115,-483.7819 698,-485.5 885.4311,-507.2756 1109.4454,-524.2957 1205.7025,-531.1798"/>
<polygon fill="#191970" stroke="#191970" points="1205.4845,-534.673 1215.7077,-531.8917 1205.9814,-527.6907 1205.4845,-534.673"/>
</g>
<!-- Node246&#45;&gt;Node251 -->
<g id="edge22" class="edge">
<title>Node246&#45;&gt;Node251</title>
<path fill="none" stroke="#191970" d="M613.424,-456.2423C631.4623,-434.3045 666.2265,-392.8248 698,-359.5 710.6858,-346.1949 725.5095,-331.9879 737.6942,-320.635"/>
<polygon fill="#191970" stroke="#191970" points="740.3078,-322.9852 745.2712,-313.6249 735.554,-317.8469 740.3078,-322.9852"/>
</g>
<!-- Node253 -->
<g id="node22" class="node">
<title>Node253</title>
<g id="a_node22"><a xlink:href="classstatistics_1_1similarity_matrix.html#a0cdb3ed14678b442824e84e6385e8f84" target="_top" xlink:title="Method to get the similarity distance between two residues, A and B Characters provided must be both ...">
<polygon fill="#ffffff" stroke="#000000" points="873,-456.5 873,-486.5 1001,-486.5 1001,-456.5 873,-456.5"/>
<text text-anchor="start" x="881" y="-474.5" font-family="Helvetica,sans-Serif" font-size="10.00" fill="#000000">statistics::similarityMatrix</text>
<text text-anchor="middle" x="937" y="-463.5" font-family="Helvetica,sans-Serif" font-size="10.00" fill="#000000">::getDistance</text>
</a>
</g>
</g>
<!-- Node246&#45;&gt;Node253 -->
<g id="edge27" class="edge">
<title>Node246&#45;&gt;Node253</title>
<path fill="none" stroke="#191970" d="M652.7636,-471.5C708.8255,-471.5 798.759,-471.5 862.4342,-471.5"/>
<polygon fill="#191970" stroke="#191970" points="862.8142,-475.0001 872.8142,-471.5 862.8141,-468.0001 862.8142,-475.0001"/>
</g>
<!-- Node247&#45;&gt;Node248 -->
<g id="edge18" class="edge">
<title>Node247&#45;&gt;Node248</title>
<path fill="none" stroke="#191970" d="M822.7154,-556.5C832.8896,-556.5 843.5986,-556.5 854.2147,-556.5"/>
<polygon fill="#191970" stroke="#191970" points="854.3441,-560.0001 864.3441,-556.5 854.3441,-553.0001 854.3441,-560.0001"/>
</g>
<!-- Node249 -->
<g id="node18" class="node">
<title>Node249</title>
<g id="a_node18"><a xlink:href="namespaceutils.html#aab52f9515717f06cafd6ab7fe2ebdcef" target="_top" xlink:title="Checks an alignment type. ">
<polygon fill="#ffffff" stroke="#000000" points="1048,-545 1048,-564 1180,-564 1180,-545 1048,-545"/>
<text text-anchor="middle" x="1114" y="-552" font-family="Helvetica,sans-Serif" font-size="10.00" fill="#000000">utils::checkAlignmentType</text>
</a>
</g>
</g>
<!-- Node248&#45;&gt;Node249 -->
<g id="edge19" class="edge">
<title>Node248&#45;&gt;Node249</title>
<path fill="none" stroke="#191970" d="M1009.5034,-555.6808C1018.8282,-555.5754 1028.3981,-555.4673 1037.7802,-555.3612"/>
<polygon fill="#191970" stroke="#191970" points="1037.9068,-558.8601 1047.8666,-555.2473 1037.8276,-551.8606 1037.9068,-558.8601"/>
</g>
<!-- Node249&#45;&gt;Node250 -->
<g id="edge20" class="edge">
<title>Node249&#45;&gt;Node250</title>
<path fill="none" stroke="#191970" d="M1180.0733,-545.0271C1188.6891,-543.7919 1197.3799,-542.5459 1205.6179,-541.3648"/>
<polygon fill="#191970" stroke="#191970" points="1206.3688,-544.793 1215.7708,-539.9092 1205.3753,-537.8639 1206.3688,-544.793"/>
</g>
<!-- Node251&#45;&gt;Node240 -->
<g id="edge24" class="edge">
<title>Node251&#45;&gt;Node240</title>
<path fill="none" stroke="#191970" d="M826.1698,-299.6001C834.5133,-299.7431 843.1621,-299.8913 851.7813,-300.0391"/>
<polygon fill="#191970" stroke="#191970" points="851.8073,-303.54 861.8659,-300.212 851.9274,-296.541 851.8073,-303.54"/>
</g>
<!-- Node252 -->
<g id="node21" class="node">
<title>Node252</title>
<g id="a_node21"><a xlink:href="classstatistics_1_1_gaps.html#ad812a924cf5e3f900aad3ed4a9664300" target="_top" xlink:title="statistics::Gaps::isDefined\lWindow">
<polygon fill="#ffffff" stroke="#000000" points="870.5,-242.5 870.5,-272.5 1003.5,-272.5 1003.5,-242.5 870.5,-242.5"/>
<text text-anchor="start" x="878.5" y="-260.5" font-family="Helvetica,sans-Serif" font-size="10.00" fill="#000000">statistics::Gaps::isDefined</text>
<text text-anchor="middle" x="937" y="-249.5" font-family="Helvetica,sans-Serif" font-size="10.00" fill="#000000">Window</text>
</a>
</g>
</g>
<!-- Node251&#45;&gt;Node252 -->
<g id="edge23" class="edge">
<title>Node251&#45;&gt;Node252</title>
<path fill="none" stroke="#191970" d="M826.1698,-283.4659C838.1775,-280.6527 850.8175,-277.6913 863.0917,-274.8157"/>
<polygon fill="#191970" stroke="#191970" points="863.9,-278.2212 872.8379,-272.5323 862.3031,-271.4057 863.9,-278.2212"/>
</g>
<!-- Node253&#45;&gt;Node241 -->
<g id="edge28" class="edge">
<title>Node253&#45;&gt;Node241</title>
<path fill="none" stroke="#191970" d="M997.4183,-456.4808C1012.2879,-452.7844 1028.3374,-448.7947 1043.6319,-444.9926"/>
<polygon fill="#191970" stroke="#191970" points="1044.6934,-448.3354 1053.5537,-442.5262 1043.0046,-441.5421 1044.6934,-448.3354"/>
</g>
<!-- Node256&#45;&gt;Node242 -->
<g id="edge40" class="edge">
<title>Node256&#45;&gt;Node242</title>
<path fill="none" stroke="#191970" d="M302.0644,-168.7933C370.3208,-160.5098 494.4773,-147.5 601,-147.5 601,-147.5 601,-147.5 762,-147.5 873.9308,-147.5 1003.2506,-176.405 1069.6258,-193.4042"/>
<polygon fill="#191970" stroke="#191970" points="1068.781,-196.8008 1079.3393,-195.9225 1070.5377,-190.0248 1068.781,-196.8008"/>
</g>
<!-- Node257 -->
<g id="node26" class="node">
<title>Node257</title>
<g id="a_node26"><a xlink:href="class_alignment.html#aeeee94970a445f32aa79646c249befef" target="_top" xlink:title="Copy Constructor. &#160;&#160;The copy constructor does not make a copy of all structures present on the origin...">
<polygon fill="#ffffff" stroke="#000000" points="376,-100 376,-119 486,-119 486,-100 376,-100"/>
<text text-anchor="middle" x="431" y="-107" font-family="Helvetica,sans-Serif" font-size="10.00" fill="#000000">Alignment::Alignment</text>
</a>
</g>
</g>
<!-- Node256&#45;&gt;Node257 -->
<g id="edge34" class="edge">
<title>Node256&#45;&gt;Node257</title>
<path fill="none" stroke="#191970" d="M273.8475,-165.9514C295.5295,-157.1859 328.7731,-144.0049 358,-133.5 368.6695,-129.6651 380.3,-125.7314 391.0776,-122.1872"/>
<polygon fill="#191970" stroke="#191970" points="392.2608,-125.4829 400.6836,-119.0558 390.0912,-118.8275 392.2608,-125.4829"/>
</g>
<!-- Node263 -->
<g id="node32" class="node">
<title>Node263</title>
<g id="a_node32"><a xlink:href="class_cleaner.html#ada8ad076dd037f00ae3f4fd17762641f" target="_top" xlink:title="Method that identifies and removes columns and sequences composed only by gaps. ">
<polygon fill="#ffffff" stroke="#000000" points="358,-176.5 358,-206.5 504,-206.5 504,-176.5 358,-176.5"/>
<text text-anchor="start" x="366" y="-194.5" font-family="Helvetica,sans-Serif" font-size="10.00" fill="#000000">Cleaner::removeAllGapsSeqs</text>
<text text-anchor="middle" x="431" y="-183.5" font-family="Helvetica,sans-Serif" font-size="10.00" fill="#000000">AndCols</text>
</a>
</g>
</g>
<!-- Node256&#45;&gt;Node263 -->
<g id="edge41" class="edge">
<title>Node256&#45;&gt;Node263</title>
<path fill="none" stroke="#191970" d="M302.2241,-180.085C316.4097,-181.3424 332.1587,-182.7384 347.636,-184.1104"/>
<polygon fill="#191970" stroke="#191970" points="347.4784,-187.6101 357.7484,-185.0068 348.0965,-180.6374 347.4784,-187.6101"/>
</g>
<!-- Node258 -->
<g id="node27" class="node">
<title>Node258</title>
<g id="a_node27"><a xlink:href="class_cleaner.html#afe42cb635ddd6bd968ae57e378deaac8" target="_top" xlink:title="Copy Constructor &#45; Called by Alignment. ">
<polygon fill="#ffffff" stroke="#000000" points="556,-100 556,-119 646,-119 646,-100 556,-100"/>
<text text-anchor="middle" x="601" y="-107" font-family="Helvetica,sans-Serif" font-size="10.00" fill="#000000">Cleaner::Cleaner</text>
</a>
</g>
</g>
<!-- Node257&#45;&gt;Node258 -->
<g id="edge35" class="edge">
<title>Node257&#45;&gt;Node258</title>
<path fill="none" stroke="#191970" d="M486.1941,-109.5C505.2601,-109.5 526.617,-109.5 545.6921,-109.5"/>
<polygon fill="#191970" stroke="#191970" points="545.7292,-113.0001 555.7292,-109.5 545.7292,-106.0001 545.7292,-113.0001"/>
</g>
<!-- Node259 -->
<g id="node28" class="node">
<title>Node259</title>
<g id="a_node28"><a xlink:href="classstatistics_1_1_manager.html#aee28602da015edb0880d59ce4c0f855d" target="_top" xlink:title="statistics::Manager\l::Manager">
<polygon fill="#ffffff" stroke="#000000" points="551,-47.5 551,-77.5 651,-77.5 651,-47.5 551,-47.5"/>
<text text-anchor="start" x="559" y="-65.5" font-family="Helvetica,sans-Serif" font-size="10.00" fill="#000000">statistics::Manager</text>
<text text-anchor="middle" x="601" y="-54.5" font-family="Helvetica,sans-Serif" font-size="10.00" fill="#000000">::Manager</text>
</a>
</g>
</g>
<!-- Node257&#45;&gt;Node259 -->
<g id="edge36" class="edge">
<title>Node257&#45;&gt;Node259</title>
<path fill="none" stroke="#191970" d="M468.5629,-99.9259C479.9615,-96.9661 492.5076,-93.6537 504,-90.5 516.0037,-87.206 528.8122,-83.5848 541.0551,-80.0715"/>
<polygon fill="#191970" stroke="#191970" points="542.0861,-83.4169 550.7263,-77.2853 540.1482,-76.6905 542.0861,-83.4169"/>
</g>
<!-- Node260 -->
<g id="node29" class="node">
<title>Node260</title>
<g id="a_node29"><a xlink:href="classstatistics_1_1_similarity.html#afecab92459785c7568511217969f6cde" target="_top" xlink:title="statistics::Similarity\l::Similarity">
<polygon fill="#ffffff" stroke="#000000" points="710.5,-.5 710.5,-30.5 813.5,-30.5 813.5,-.5 710.5,-.5"/>
<text text-anchor="start" x="718.5" y="-18.5" font-family="Helvetica,sans-Serif" font-size="10.00" fill="#000000">statistics::Similarity</text>
<text text-anchor="middle" x="762" y="-7.5" font-family="Helvetica,sans-Serif" font-size="10.00" fill="#000000">::Similarity</text>
</a>
</g>
</g>
<!-- Node259&#45;&gt;Node260 -->
<g id="edge37" class="edge">
<title>Node259&#45;&gt;Node260</title>
<path fill="none" stroke="#191970" d="M651.0589,-47.8865C666.7297,-43.3118 684.2054,-38.2102 700.5663,-33.4341"/>
<polygon fill="#191970" stroke="#191970" points="701.9645,-36.672 710.583,-30.5099 700.0029,-29.9525 701.9645,-36.672"/>
</g>
<!-- Node261 -->
<g id="node30" class="node">
<title>Node261</title>
<g id="a_node30"><a xlink:href="classstatistics_1_1_consistency.html#ae39d2aae825d263ac8c3198782b824d2" target="_top" xlink:title="Copy constructor. ">
<polygon fill="#ffffff" stroke="#000000" points="703.5,-88.5 703.5,-118.5 820.5,-118.5 820.5,-88.5 703.5,-88.5"/>
<text text-anchor="start" x="711.5" y="-106.5" font-family="Helvetica,sans-Serif" font-size="10.00" fill="#000000">statistics::Consistency</text>
<text text-anchor="middle" x="762" y="-95.5" font-family="Helvetica,sans-Serif" font-size="10.00" fill="#000000">::Consistency</text>
</a>
</g>
</g>
<!-- Node259&#45;&gt;Node261 -->
<g id="edge38" class="edge">
<title>Node259&#45;&gt;Node261</title>
<path fill="none" stroke="#191970" d="M651.0589,-75.2479C664.484,-78.6667 679.2338,-82.4229 693.4724,-86.0489"/>
<polygon fill="#191970" stroke="#191970" points="692.6713,-89.4565 703.2257,-88.5326 694.3988,-82.673 692.6713,-89.4565"/>
</g>
<!-- Node262 -->
<g id="node31" class="node">
<title>Node262</title>
<g id="a_node31"><a xlink:href="classstatistics_1_1_gaps.html#a0233d71123523698b0bbf6fe6119b630" target="_top" xlink:title="statistics::Gaps::Gaps">
<polygon fill="#ffffff" stroke="#000000" points="704.5,-50 704.5,-69 819.5,-69 819.5,-50 704.5,-50"/>
<text text-anchor="middle" x="762" y="-57" font-family="Helvetica,sans-Serif" font-size="10.00" fill="#000000">statistics::Gaps::Gaps</text>
</a>
</g>
</g>
<!-- Node259&#45;&gt;Node262 -->
<g id="edge39" class="edge">
<title>Node259&#45;&gt;Node262</title>
<path fill="none" stroke="#191970" d="M651.0589,-61.5672C664.652,-61.3139 679.6032,-61.0353 694.0068,-60.767"/>
<polygon fill="#191970" stroke="#191970" points="694.4379,-64.2596 704.3709,-60.5738 694.3074,-57.2608 694.4379,-64.2596"/>
</g>
<!-- Node264 -->
<g id="node33" class="node">
<title>Node264</title>
<g id="a_node33"><a xlink:href="classreporting_1_1report_manager.html#a75a240a78f31ba479892a9a0f53996fa" target="_top" xlink:title="Method to report a Warning. &#160;It will be displayed if Level &#160;is equal or higher to VerboseLevel::WARNI...">
<polygon fill="#ffffff" stroke="#000000" points="540,-176.5 540,-206.5 662,-206.5 662,-176.5 540,-176.5"/>
<text text-anchor="start" x="548" y="-194.5" font-family="Helvetica,sans-Serif" font-size="10.00" fill="#000000">reporting::reportManager</text>
<text text-anchor="middle" x="601" y="-183.5" font-family="Helvetica,sans-Serif" font-size="10.00" fill="#000000">::report</text>
</a>
</g>
</g>
<!-- Node263&#45;&gt;Node264 -->
<g id="edge42" class="edge">
<title>Node263&#45;&gt;Node264</title>
<path fill="none" stroke="#191970" d="M504.0819,-191.5C512.591,-191.5 521.2628,-191.5 529.7468,-191.5"/>
<polygon fill="#191970" stroke="#191970" points="529.9788,-195.0001 539.9788,-191.5 529.9788,-188.0001 529.9788,-195.0001"/>
</g>
<!-- Node265&#45;&gt;Node245 -->
<g id="edge46" class="edge">
<title>Node265&#45;&gt;Node245</title>
<path fill="none" stroke="#191970" d="M281.5291,-354.6277C311.7116,-369.3428 357.7157,-391.7714 390.7112,-407.8578"/>
<polygon fill="#191970" stroke="#191970" points="389.5519,-411.1864 400.0744,-412.4227 392.6195,-404.8943 389.5519,-411.1864"/>
</g>
<!-- Node265&#45;&gt;Node255 -->
<g id="edge45" class="edge">
<title>Node265&#45;&gt;Node255</title>
<path fill="none" stroke="#191970" d="M315.1548,-339.5C332.7435,-339.5 351.7462,-339.5 369.174,-339.5"/>
<polygon fill="#191970" stroke="#191970" points="369.2307,-343.0001 379.2306,-339.5 369.2306,-336.0001 369.2307,-343.0001"/>
</g>
<!-- Node266&#45;&gt;Node266 -->
<g id="edge50" class="edge">
<title>Node266&#45;&gt;Node266</title>
<path fill="none" stroke="#191970" d="M223.065,-97.2571C209.7183,-106.0653 218.8633,-115.5 250.5,-115.5 272.2502,-115.5 283.3696,-111.0406 283.8582,-105.3913"/>
<polygon fill="#191970" stroke="#191970" points="286.6509,-103.2806 277.935,-97.2571 280.9922,-107.4012 286.6509,-103.2806"/>
</g>
<!-- Node267 -->
<g id="node36" class="node">
<title>Node267</title>
<g id="a_node36"><a xlink:href="namespaceutils.html#a3377ecde55631d1bbc4956e5923b7469" target="_top" xlink:title="Swapping elements method. ">
<polygon fill="#ffffff" stroke="#000000" points="399,-62 399,-81 463,-81 463,-62 399,-62"/>
<text text-anchor="middle" x="431" y="-69" font-family="Helvetica,sans-Serif" font-size="10.00" fill="#000000">utils::swap</text>
</a>
</g>
</g>
<!-- Node266&#45;&gt;Node267 -->
<g id="edge49" class="edge">
<title>Node266&#45;&gt;Node267</title>
<path fill="none" stroke="#191970" d="M290.5588,-83.9491C319.7315,-81.3631 359.1633,-77.8678 388.8181,-75.2391"/>
<polygon fill="#191970" stroke="#191970" points="389.2149,-78.7178 398.8668,-74.3484 388.5968,-71.7451 389.2149,-78.7178"/>
</g>
</g>
</svg>
