<?xml version="1.0" encoding="UTF-8" standalone="no"?>
<!DOCTYPE svg PUBLIC "-//W3C//DTD SVG 1.1//EN"
 "http://www.w3.org/Graphics/SVG/1.1/DTD/svg11.dtd">
<!-- Generated by graphviz version 2.40.1 (20161225.0304)
 -->
<!-- Title: Cleaner::cleanGaps Pages: 1 -->
<svg width="871pt" height="78pt"
 viewBox="0.00 0.00 871.00 77.50" xmlns="http://www.w3.org/2000/svg" xmlns:xlink="http://www.w3.org/1999/xlink">
<g id="graph0" class="graph" transform="scale(1 1) rotate(0) translate(4 73.5)">
<title>Cleaner::cleanGaps</title>
<polygon fill="#ffffff" stroke="transparent" points="-4,4 -4,-73.5 867,-73.5 867,4 -4,4"/>
<!-- Node354 -->
<g id="node1" class="node">
<title>Node354</title>
<polygon fill="#bfbfbf" stroke="#000000" points="0,-28 0,-47 103,-47 103,-28 0,-28"/>
<text text-anchor="middle" x="51.5" y="-35" font-family="Helvetica,sans-Serif" font-size="10.00" fill="#000000">Cleaner::cleanGaps</text>
</g>
<!-- Node355 -->
<g id="node2" class="node">
<title>Node355</title>
<g id="a_node2"><a xlink:href="classtrim_al_manager.html#a69082911b30a1bd12395bb235bc18a34" target="_top" xlink:title="Method to trim the alignment using automatic or semi&#45;automatic methods: ">
<polygon fill="#ffffff" stroke="#000000" points="139,-50 139,-69 312,-69 312,-50 139,-50"/>
<text text-anchor="middle" x="225.5" y="-57" font-family="Helvetica,sans-Serif" font-size="10.00" fill="#000000">trimAlManager::CleanResiduesAuto</text>
</a>
</g>
</g>
<!-- Node354&#45;&gt;Node355 -->
<g id="edge1" class="edge">
<title>Node354&#45;&gt;Node355</title>
<path fill="none" stroke="#191970" d="M113.4686,-45.3351C125.3417,-46.8363 137.8947,-48.4235 150.1348,-49.9711"/>
<polygon fill="#191970" stroke="#191970" points="113.5947,-41.8233 103.2346,-44.0412 112.7166,-48.768 113.5947,-41.8233"/>
</g>
<!-- Node360 -->
<g id="node7" class="node">
<title>Node360</title>
<g id="a_node7"><a xlink:href="classtrim_al_manager.html#aebfd21b0435302f0e4fc45a068d1b6ee" target="_top" xlink:title="Method to trim the alignment using non automatic methods: ">
<polygon fill="#ffffff" stroke="#000000" points="149.5,-.5 149.5,-30.5 301.5,-30.5 301.5,-.5 149.5,-.5"/>
<text text-anchor="start" x="157.5" y="-18.5" font-family="Helvetica,sans-Serif" font-size="10.00" fill="#000000">trimAlManager::CleanResidues</text>
<text text-anchor="middle" x="225.5" y="-7.5" font-family="Helvetica,sans-Serif" font-size="10.00" fill="#000000">NonAuto</text>
</a>
</g>
</g>
<!-- Node354&#45;&gt;Node360 -->
<g id="edge6" class="edge">
<title>Node354&#45;&gt;Node360</title>
<path fill="none" stroke="#191970" d="M113.3267,-29.6828C125.0329,-28.2027 137.4044,-26.6385 149.4886,-25.1106"/>
<polygon fill="#191970" stroke="#191970" points="112.7166,-26.232 103.2346,-30.9588 113.5947,-33.1767 112.7166,-26.232"/>
</g>
<!-- Node356 -->
<g id="node3" class="node">
<title>Node356</title>
<g id="a_node3"><a xlink:href="classtrim_al_manager.html#adc529dd893ed4e9df6f3ddbd58776068" target="_top" xlink:title="Core Method of the program. This is where almost all cleaning methods are called from. ">
<polygon fill="#ffffff" stroke="#000000" points="348,-22.5 348,-52.5 457,-52.5 457,-22.5 348,-22.5"/>
<text text-anchor="start" x="356" y="-40.5" font-family="Helvetica,sans-Serif" font-size="10.00" fill="#000000">trimAlManager::clean</text>
<text text-anchor="middle" x="402.5" y="-29.5" font-family="Helvetica,sans-Serif" font-size="10.00" fill="#000000">_alignment</text>
</a>
</g>
</g>
<!-- Node355&#45;&gt;Node356 -->
<g id="edge2" class="edge">
<title>Node355&#45;&gt;Node356</title>
<path fill="none" stroke="#191970" d="M312.2724,-48.7147C324.4121,-47.2058 336.5952,-45.6916 347.9074,-44.2855"/>
<polygon fill="#191970" stroke="#191970" points="311.5972,-45.2716 302.1053,-49.9784 312.4607,-52.2182 311.5972,-45.2716"/>
</g>
<!-- Node357 -->
<g id="node4" class="node">
<title>Node357</title>
<g id="a_node4"><a xlink:href="classtrim_al_manager.html#a7c641a1feff33d401b4ea5c82e989289" target="_top" xlink:title="trimAlManager::innerPerform">
<polygon fill="#ffffff" stroke="#000000" points="493,-28 493,-47 634,-47 634,-28 493,-28"/>
<text text-anchor="middle" x="563.5" y="-35" font-family="Helvetica,sans-Serif" font-size="10.00" fill="#000000">trimAlManager::innerPerform</text>
</a>
</g>
</g>
<!-- Node356&#45;&gt;Node357 -->
<g id="edge3" class="edge">
<title>Node356&#45;&gt;Node357</title>
<path fill="none" stroke="#191970" d="M467.1474,-37.5C475.5802,-37.5 484.2546,-37.5 492.7806,-37.5"/>
<polygon fill="#191970" stroke="#191970" points="467.0073,-34.0001 457.0073,-37.5 467.0072,-41.0001 467.0073,-34.0001"/>
</g>
<!-- Node358 -->
<g id="node5" class="node">
<title>Node358</title>
<g id="a_node5"><a xlink:href="classtrim_al_manager.html#abe8d2841455c644dc9c7d1294b82b00f" target="_top" xlink:title="Method to perform the analysis if all checks have passed. ">
<polygon fill="#ffffff" stroke="#000000" points="670,-28 670,-47 789,-47 789,-28 670,-28"/>
<text text-anchor="middle" x="729.5" y="-35" font-family="Helvetica,sans-Serif" font-size="10.00" fill="#000000">trimAlManager::perform</text>
</a>
</g>
</g>
<!-- Node357&#45;&gt;Node358 -->
<g id="edge4" class="edge">
<title>Node357&#45;&gt;Node358</title>
<path fill="none" stroke="#191970" d="M644.4012,-37.5C652.9677,-37.5 661.564,-37.5 669.8249,-37.5"/>
<polygon fill="#191970" stroke="#191970" points="644.3805,-34.0001 634.3804,-37.5 644.3804,-41.0001 644.3805,-34.0001"/>
</g>
<!-- Node359 -->
<g id="node6" class="node">
<title>Node359</title>
<g id="a_node6"><a xlink:href="trim_al_main_8cpp.html#a0ddf1224851353fc92bfbff6f499fa97" target="_top" xlink:title="main">
<polygon fill="#ffffff" stroke="#000000" points="825,-28 825,-47 863,-47 863,-28 825,-28"/>
<text text-anchor="middle" x="844" y="-35" font-family="Helvetica,sans-Serif" font-size="10.00" fill="#000000">main</text>
</a>
</g>
</g>
<!-- Node358&#45;&gt;Node359 -->
<g id="edge5" class="edge">
<title>Node358&#45;&gt;Node359</title>
<path fill="none" stroke="#191970" d="M799.3198,-37.5C808.6177,-37.5 817.4503,-37.5 824.7697,-37.5"/>
<polygon fill="#191970" stroke="#191970" points="799.0976,-34.0001 789.0976,-37.5 799.0975,-41.0001 799.0976,-34.0001"/>
</g>
<!-- Node360&#45;&gt;Node356 -->
<g id="edge7" class="edge">
<title>Node360&#45;&gt;Node356</title>
<path fill="none" stroke="#191970" d="M311.8525,-26.2331C324.1085,-27.7564 336.4193,-29.2866 347.8442,-30.7066"/>
<polygon fill="#191970" stroke="#191970" points="311.9465,-22.7179 301.5911,-24.9577 311.0831,-29.6645 311.9465,-22.7179"/>
</g>
</g>
</svg>
