<?xml version="1.0" encoding="UTF-8" standalone="no"?>
<!DOCTYPE svg PUBLIC "-//W3C//DTD SVG 1.1//EN"
 "http://www.w3.org/Graphics/SVG/1.1/DTD/svg11.dtd">
<!-- Generated by graphviz version 2.40.1 (20161225.0304)
 -->
<!-- Title: trimAlManager::similarity_threshold_argument Pages: 1 -->
<svg width="400pt" height="39pt"
 viewBox="0.00 0.00 400.00 39.00" xmlns="http://www.w3.org/2000/svg" xmlns:xlink="http://www.w3.org/1999/xlink">
<g id="graph0" class="graph" transform="scale(1 1) rotate(0) translate(4 35)">
<title>trimAlManager::similarity_threshold_argument</title>
<polygon fill="#ffffff" stroke="transparent" points="-4,4 -4,-35 396,-35 396,4 -4,4"/>
<!-- Node1337 -->
<g id="node1" class="node">
<title>Node1337</title>
<polygon fill="#bfbfbf" stroke="#000000" points="0,-.5 0,-30.5 125,-30.5 125,-.5 0,-.5"/>
<text text-anchor="start" x="8" y="-18.5" font-family="Helvetica,sans-Serif" font-size="10.00" fill="#000000">trimAlManager::similarity</text>
<text text-anchor="middle" x="62.5" y="-7.5" font-family="Helvetica,sans-Serif" font-size="10.00" fill="#000000">_threshold_argument</text>
</g>
<!-- Node1338 -->
<g id="node2" class="node">
<title>Node1338</title>
<g id="a_node2"><a xlink:href="classtrim_al_manager.html#af3b0625b6bcc6df5978e63530a5956e6" target="_top" xlink:title="Method to parse arguments into usable structure in trimal. ">
<polygon fill="#ffffff" stroke="#000000" points="161,-6 161,-25 318,-25 318,-6 161,-6"/>
<text text-anchor="middle" x="239.5" y="-13" font-family="Helvetica,sans-Serif" font-size="10.00" fill="#000000">trimAlManager::parseArguments</text>
</a>
</g>
</g>
<!-- Node1337&#45;&gt;Node1338 -->
<g id="edge1" class="edge">
<title>Node1337&#45;&gt;Node1338</title>
<path fill="none" stroke="#191970" d="M135.4468,-15.5C143.7758,-15.5 152.2946,-15.5 160.6954,-15.5"/>
<polygon fill="#191970" stroke="#191970" points="135.402,-12.0001 125.402,-15.5 135.4019,-19.0001 135.402,-12.0001"/>
</g>
<!-- Node1339 -->
<g id="node3" class="node">
<title>Node1339</title>
<g id="a_node3"><a xlink:href="trim_al_main_8cpp.html#a0ddf1224851353fc92bfbff6f499fa97" target="_top" xlink:title="main">
<polygon fill="#ffffff" stroke="#000000" points="354,-6 354,-25 392,-25 392,-6 354,-6"/>
<text text-anchor="middle" x="373" y="-13" font-family="Helvetica,sans-Serif" font-size="10.00" fill="#000000">main</text>
</a>
</g>
</g>
<!-- Node1338&#45;&gt;Node1339 -->
<g id="edge2" class="edge">
<title>Node1338&#45;&gt;Node1339</title>
<path fill="none" stroke="#191970" d="M328.5766,-15.5C337.8353,-15.5 346.4462,-15.5 353.5746,-15.5"/>
<polygon fill="#191970" stroke="#191970" points="328.3153,-12.0001 318.3152,-15.5 328.3152,-19.0001 328.3153,-12.0001"/>
</g>
</g>
</svg>
