<?xml version="1.0" encoding="UTF-8" standalone="no"?>
<!DOCTYPE svg PUBLIC "-//W3C//DTD SVG 1.1//EN"
 "http://www.w3.org/Graphics/SVG/1.1/DTD/svg11.dtd">
<!-- Generated by graphviz version 2.38.0 (20140413.2041)
 -->
<!-- Title: utils::roundInt Pages: 1 -->
<svg width="927pt" height="256pt"
 viewBox="0.00 0.00 927.00 256.00" xmlns="http://www.w3.org/2000/svg" xmlns:xlink="http://www.w3.org/1999/xlink">
<g id="graph0" class="graph" transform="scale(1 1) rotate(0) translate(4 252)">
<title>utils::roundInt</title>
<polygon fill="white" stroke="none" points="-4,4 -4,-252 923,-252 923,4 -4,4"/>
<!-- Node198 -->
<g id="node1" class="node"><title>Node198</title>
<polygon fill="#bfbfbf" stroke="black" points="0,-106.5 0,-125.5 76,-125.5 76,-106.5 0,-106.5"/>
<text text-anchor="middle" x="38" y="-113.5" font-family="Helvetica,sans-Serif" font-size="10.00">utils::roundInt</text>
</g>
<!-- Node199 -->
<g id="node2" class="node"><title>Node199</title>
<g id="a_node2"><a xlink:href="class_cleaner.html#aa85792ad5a7c3209509a689fb0410e92" target="_top" xlink:title="Method to clean an alignment. &#160;It removes sequences that fall behind a certain threshold. &#160;The function detects if it would clean too many sequences, and relaxes the threshold until we have enough sequences to achieve the given percentage desired to keep. &#160;To achieve this, the method starts in the middle of the sequence and, alternating sides, adds column one by one. ">
<polygon fill="white" stroke="black" points="112,-185 112,-215 244,-215 244,-185 112,-185"/>
<text text-anchor="start" x="120" y="-203" font-family="Helvetica,sans-Serif" font-size="10.00">Cleaner::cleanByCutValue</text>
<text text-anchor="middle" x="178" y="-192" font-family="Helvetica,sans-Serif" font-size="10.00">FallBehind</text>
</a>
</g>
</g>
<!-- Node198&#45;&gt;Node199 -->
<g id="edge1" class="edge"><title>Node198&#45;&gt;Node199</title>
<path fill="none" stroke="midnightblue" d="M59.3873,-131.874C73.705,-142.681 93.5229,-156.969 112,-168 122.044,-173.996 133.369,-179.859 143.718,-184.894"/>
<polygon fill="midnightblue" stroke="midnightblue" points="61.3162,-128.943 51.2444,-125.655 57.0675,-134.506 61.3162,-128.943"/>
</g>
<!-- Node205 -->
<g id="node8" class="node"><title>Node205</title>
<g id="a_node8"><a xlink:href="class_cleaner.html#a66bda5807c06cfaf1609e4c1f5955671" target="_top" xlink:title="Method to clean an alignment. &#160;It removes sequences that overpass or equals a certain threshold...">
<polygon fill="white" stroke="black" points="112,-75 112,-105 244,-105 244,-75 112,-75"/>
<text text-anchor="start" x="120" y="-93" font-family="Helvetica,sans-Serif" font-size="10.00">Cleaner::cleanByCutValue</text>
<text text-anchor="middle" x="178" y="-82" font-family="Helvetica,sans-Serif" font-size="10.00">Overpass</text>
</a>
</g>
</g>
<!-- Node198&#45;&gt;Node205 -->
<g id="edge8" class="edge"><title>Node198&#45;&gt;Node205</title>
<path fill="none" stroke="midnightblue" d="M86.2046,-107.106C94.5092,-105.542 103.283,-103.889 111.973,-102.251"/>
<polygon fill="midnightblue" stroke="midnightblue" points="85.5238,-103.673 76.3448,-108.964 86.8199,-110.552 85.5238,-103.673"/>
</g>
<!-- Node210 -->
<g id="node13" class="node"><title>Node210</title>
<g id="a_node13"><a xlink:href="class_cleaner.html#ae7ad16bc3ad459a12c908801fa20da66" target="_top" xlink:title="Method to clean an alignment. &#160;It removes sequences that overpass or equals &#160;the gap threshold but &#160;f...">
<polygon fill="white" stroke="black" points="112,-128 112,-158 244,-158 244,-128 112,-128"/>
<text text-anchor="start" x="120" y="-146" font-family="Helvetica,sans-Serif" font-size="10.00">Cleaner::cleanByCutValue</text>
<text text-anchor="middle" x="178" y="-135" font-family="Helvetica,sans-Serif" font-size="10.00">OverpassOrEquals</text>
</a>
</g>
</g>
<!-- Node198&#45;&gt;Node210 -->
<g id="edge15" class="edge"><title>Node198&#45;&gt;Node210</title>
<path fill="none" stroke="midnightblue" d="M86.2046,-125.236C94.5092,-126.861 103.283,-128.577 111.973,-130.277"/>
<polygon fill="midnightblue" stroke="midnightblue" points="86.8308,-121.792 76.3448,-123.307 85.4866,-128.662 86.8308,-121.792"/>
</g>
<!-- Node212 -->
<g id="node15" class="node"><title>Node212</title>
<g id="a_node15"><a xlink:href="class_cleaner.html#a740bce047dce09be0f6bd1da9f826da3" target="_top" xlink:title="Method to clean an alignment. It carries out strict and strictplus. It removes sequences that overpas...">
<polygon fill="white" stroke="black" points="126.5,-20.5 126.5,-39.5 229.5,-39.5 229.5,-20.5 126.5,-20.5"/>
<text text-anchor="middle" x="178" y="-27.5" font-family="Helvetica,sans-Serif" font-size="10.00">Cleaner::cleanStrict</text>
</a>
</g>
</g>
<!-- Node198&#45;&gt;Node212 -->
<g id="edge18" class="edge"><title>Node198&#45;&gt;Node212</title>
<path fill="none" stroke="midnightblue" d="M60.0782,-100.301C74.4285,-89.8573 94.0113,-76.0754 112,-65 127.061,-55.727 144.773,-46.2808 157.901,-39.5429"/>
<polygon fill="midnightblue" stroke="midnightblue" points="57.8707,-97.5797 51.8803,-106.318 62.0128,-103.223 57.8707,-97.5797"/>
</g>
<!-- Node200 -->
<g id="node3" class="node"><title>Node200</title>
<g id="a_node3"><a xlink:href="class_cleaner.html#ae2328fe8c189e2827b46e5dfb8e3deb3" target="_top" xlink:title="Method to trim an alignment based on consistency values obtained from a dataset of alignments...">
<polygon fill="white" stroke="black" points="284,-228.5 284,-247.5 419,-247.5 419,-228.5 284,-228.5"/>
<text text-anchor="middle" x="351.5" y="-235.5" font-family="Helvetica,sans-Serif" font-size="10.00">Cleaner::cleanCompareFile</text>
</a>
</g>
</g>
<!-- Node199&#45;&gt;Node200 -->
<g id="edge2" class="edge"><title>Node199&#45;&gt;Node200</title>
<path fill="none" stroke="midnightblue" d="M254.328,-216.691C272.487,-220.714 291.279,-224.878 307.382,-228.446"/>
<polygon fill="midnightblue" stroke="midnightblue" points="254.846,-213.221 244.326,-214.475 253.332,-220.055 254.846,-213.221"/>
</g>
<!-- Node204 -->
<g id="node7" class="node"><title>Node204</title>
<g id="a_node7"><a xlink:href="class_cleaner.html#a694d53fdd5d1ac9455858e48537af3d0" target="_top" xlink:title="Method to trim an alignment based on the similarity distribution values. ">
<polygon fill="white" stroke="black" points="283,-190.5 283,-209.5 420,-209.5 420,-190.5 283,-190.5"/>
<text text-anchor="middle" x="351.5" y="-197.5" font-family="Helvetica,sans-Serif" font-size="10.00">Cleaner::cleanConservation</text>
</a>
</g>
</g>
<!-- Node199&#45;&gt;Node204 -->
<g id="edge6" class="edge"><title>Node199&#45;&gt;Node204</title>
<path fill="none" stroke="midnightblue" d="M254.469,-200C263.897,-200 273.493,-200 282.793,-200"/>
<polygon fill="midnightblue" stroke="midnightblue" points="254.326,-196.5 244.326,-200 254.326,-203.5 254.326,-196.5"/>
</g>
<!-- Node201 -->
<g id="node4" class="node"><title>Node201</title>
<g id="a_node4"><a xlink:href="classtrim_al_manager.html#aebfd21b0435302f0e4fc45a068d1b6ee" target="_top" xlink:title="Method to trim the alignment using non automatic methods: ">
<polygon fill="white" stroke="black" points="463,-147 463,-177 615,-177 615,-147 463,-147"/>
<text text-anchor="start" x="471" y="-165" font-family="Helvetica,sans-Serif" font-size="10.00">trimAlManager::CleanResidues</text>
<text text-anchor="middle" x="539" y="-154" font-family="Helvetica,sans-Serif" font-size="10.00">NonAuto</text>
</a>
</g>
</g>
<!-- Node200&#45;&gt;Node201 -->
<g id="edge3" class="edge"><title>Node200&#45;&gt;Node201</title>
<path fill="none" stroke="midnightblue" d="M403.049,-225.676C409.823,-223.647 416.627,-221.411 423,-219 454.262,-207.172 488.371,-189.636 511.258,-177.141"/>
<polygon fill="midnightblue" stroke="midnightblue" points="401.85,-222.378 393.199,-228.495 403.777,-229.108 401.85,-222.378"/>
</g>
<!-- Node202 -->
<g id="node5" class="node"><title>Node202</title>
<g id="a_node5"><a xlink:href="classtrim_al_manager.html#adc529dd893ed4e9df6f3ddbd58776068" target="_top" xlink:title="Core Method of the program. This is where almost all cleaning methods are called from. ">
<polygon fill="white" stroke="black" points="655,-117 655,-147 764,-147 764,-117 655,-117"/>
<text text-anchor="start" x="663" y="-135" font-family="Helvetica,sans-Serif" font-size="10.00">trimAlManager::clean</text>
<text text-anchor="middle" x="709.5" y="-124" font-family="Helvetica,sans-Serif" font-size="10.00">_alignment</text>
</a>
</g>
</g>
<!-- Node201&#45;&gt;Node202 -->
<g id="edge4" class="edge"><title>Node201&#45;&gt;Node202</title>
<path fill="none" stroke="midnightblue" d="M625.403,-146.795C635.441,-145.008 645.457,-143.224 654.882,-141.546"/>
<polygon fill="midnightblue" stroke="midnightblue" points="624.611,-143.381 615.379,-148.579 625.838,-150.272 624.611,-143.381"/>
</g>
<!-- Node203 -->
<g id="node6" class="node"><title>Node203</title>
<g id="a_node6"><a xlink:href="classtrim_al_manager.html#abe8d2841455c644dc9c7d1294b82b00f" target="_top" xlink:title="Method to perform the analysis if all checks have passed. ">
<polygon fill="white" stroke="black" points="800,-122.5 800,-141.5 919,-141.5 919,-122.5 800,-122.5"/>
<text text-anchor="middle" x="859.5" y="-129.5" font-family="Helvetica,sans-Serif" font-size="10.00">trimAlManager::perform</text>
</a>
</g>
</g>
<!-- Node202&#45;&gt;Node203 -->
<g id="edge5" class="edge"><title>Node202&#45;&gt;Node203</title>
<path fill="none" stroke="midnightblue" d="M774.532,-132C782.977,-132 791.597,-132 799.943,-132"/>
<polygon fill="midnightblue" stroke="midnightblue" points="774.35,-128.5 764.35,-132 774.35,-135.5 774.35,-128.5"/>
</g>
<!-- Node204&#45;&gt;Node201 -->
<g id="edge7" class="edge"><title>Node204&#45;&gt;Node201</title>
<path fill="none" stroke="midnightblue" d="M409.307,-188.363C426.718,-184.796 446.127,-180.82 464.486,-177.06"/>
<polygon fill="midnightblue" stroke="midnightblue" points="408.404,-184.975 399.309,-190.411 409.808,-191.833 408.404,-184.975"/>
</g>
<!-- Node206 -->
<g id="node9" class="node"><title>Node206</title>
<g id="a_node9"><a xlink:href="class_cleaner.html#a1ea9656823727f9ec237c82f9fb529cf" target="_top" xlink:title="Method that carries the gappyout approach. This methods calculates the slope in gaps distribution on ...">
<polygon fill="white" stroke="black" points="291.5,-38.5 291.5,-57.5 411.5,-57.5 411.5,-38.5 291.5,-38.5"/>
<text text-anchor="middle" x="351.5" y="-45.5" font-family="Helvetica,sans-Serif" font-size="10.00">Cleaner::clean2ndSlope</text>
</a>
</g>
</g>
<!-- Node205&#45;&gt;Node206 -->
<g id="edge9" class="edge"><title>Node205&#45;&gt;Node206</title>
<path fill="none" stroke="midnightblue" d="M250.299,-72.5389C271.302,-67.3954 293.496,-61.9601 311.643,-57.5159"/>
<polygon fill="midnightblue" stroke="midnightblue" points="249.311,-69.1774 240.431,-74.9557 250.977,-75.9764 249.311,-69.1774"/>
</g>
<!-- Node207 -->
<g id="node10" class="node"><title>Node207</title>
<g id="a_node10"><a xlink:href="class_cleaner.html#ac3be9d53018d9146d6dc6cf7ff89f96d" target="_top" xlink:title="Method to trim an alignment based on the gap distribution values. Column blocks that don&#39;t have a min...">
<polygon fill="white" stroke="black" points="300,-114.5 300,-133.5 403,-133.5 403,-114.5 300,-114.5"/>
<text text-anchor="middle" x="351.5" y="-121.5" font-family="Helvetica,sans-Serif" font-size="10.00">Cleaner::cleanGaps</text>
</a>
</g>
</g>
<!-- Node205&#45;&gt;Node207 -->
<g id="edge10" class="edge"><title>Node205&#45;&gt;Node207</title>
<path fill="none" stroke="midnightblue" d="M254.392,-104.946C270.697,-108.179 287.51,-111.512 302.425,-114.469"/>
<polygon fill="midnightblue" stroke="midnightblue" points="254.816,-101.462 244.326,-102.951 253.454,-108.329 254.816,-101.462"/>
</g>
<!-- Node208 -->
<g id="node11" class="node"><title>Node208</title>
<g id="a_node11"><a xlink:href="class_cleaner.html#a08e6db52c33baccce53a33d844597d7b" target="_top" xlink:title="Method to remove columns composed only by gaps This method is specially useful when we remove missali...">
<polygon fill="white" stroke="black" points="288,-76.5 288,-95.5 415,-95.5 415,-76.5 288,-76.5"/>
<text text-anchor="middle" x="351.5" y="-83.5" font-family="Helvetica,sans-Serif" font-size="10.00">Cleaner::cleanNoAllGaps</text>
</a>
</g>
</g>
<!-- Node205&#45;&gt;Node208 -->
<g id="edge12" class="edge"><title>Node205&#45;&gt;Node208</title>
<path fill="none" stroke="midnightblue" d="M254.487,-88.2394C265.646,-87.9791 277.042,-87.7133 287.901,-87.46"/>
<polygon fill="midnightblue" stroke="midnightblue" points="254.242,-84.744 244.326,-88.4764 254.405,-91.7421 254.242,-84.744"/>
</g>
<!-- Node207&#45;&gt;Node201 -->
<g id="edge11" class="edge"><title>Node207&#45;&gt;Node201</title>
<path fill="none" stroke="midnightblue" d="M409.307,-135.637C426.718,-139.204 446.127,-143.18 464.486,-146.94"/>
<polygon fill="midnightblue" stroke="midnightblue" points="409.808,-132.167 399.309,-133.589 408.404,-139.025 409.808,-132.167"/>
</g>
<!-- Node209 -->
<g id="node12" class="node"><title>Node209</title>
<g id="a_node12"><a xlink:href="classtrim_al_manager.html#a10536f715945a1a45f1df33f7cedc81e" target="_top" xlink:title="Method to trim or reduce the number of sequences in an alignment. It performs one or none of the foll...">
<polygon fill="white" stroke="black" points="459,-92.5 459,-111.5 619,-111.5 619,-92.5 459,-92.5"/>
<text text-anchor="middle" x="539" y="-99.5" font-family="Helvetica,sans-Serif" font-size="10.00">trimAlManager::CleanSequences</text>
</a>
</g>
</g>
<!-- Node208&#45;&gt;Node209 -->
<g id="edge13" class="edge"><title>Node208&#45;&gt;Node209</title>
<path fill="none" stroke="midnightblue" d="M425.106,-92.2625C436.208,-93.2201 447.715,-94.2126 458.948,-95.1815"/>
<polygon fill="midnightblue" stroke="midnightblue" points="425.307,-88.7669 415.043,-91.3946 424.705,-95.7411 425.307,-88.7669"/>
</g>
<!-- Node209&#45;&gt;Node202 -->
<g id="edge14" class="edge"><title>Node209&#45;&gt;Node202</title>
<path fill="none" stroke="midnightblue" d="M604.058,-113.405C620.845,-116.394 638.769,-119.585 654.944,-122.465"/>
<polygon fill="midnightblue" stroke="midnightblue" points="604.236,-109.882 593.778,-111.575 603.009,-116.773 604.236,-109.882"/>
</g>
<!-- Node211 -->
<g id="node14" class="node"><title>Node211</title>
<g id="a_node14"><a xlink:href="class_cleaner.html#a1ac5ba504932526d77575365557a4d64" target="_top" xlink:title="Method to trim an alignment based on the similarity and gaps distribution values. ...">
<polygon fill="white" stroke="black" points="311.5,-152.5 311.5,-171.5 391.5,-171.5 391.5,-152.5 311.5,-152.5"/>
<text text-anchor="middle" x="351.5" y="-159.5" font-family="Helvetica,sans-Serif" font-size="10.00">Cleaner::clean</text>
</a>
</g>
</g>
<!-- Node210&#45;&gt;Node211 -->
<g id="edge16" class="edge"><title>Node210&#45;&gt;Node211</title>
<path fill="none" stroke="midnightblue" d="M254.511,-151.366C274.158,-153.542 294.533,-155.8 311.429,-157.671"/>
<polygon fill="midnightblue" stroke="midnightblue" points="254.651,-147.86 244.326,-150.237 253.88,-154.817 254.651,-147.86"/>
</g>
<!-- Node211&#45;&gt;Node201 -->
<g id="edge17" class="edge"><title>Node211&#45;&gt;Node201</title>
<path fill="none" stroke="midnightblue" d="M401.876,-162C420.55,-162 442.252,-162 462.767,-162"/>
<polygon fill="midnightblue" stroke="midnightblue" points="401.84,-158.5 391.84,-162 401.84,-165.5 401.84,-158.5"/>
</g>
<!-- Node213 -->
<g id="node16" class="node"><title>Node213</title>
<g id="a_node16"><a xlink:href="class_cleaner.html#a068b219f913adba5c917a231cff7e437" target="_top" xlink:title="Method to clean an alignment. It carries out strict and strictplus. The method: ">
<polygon fill="white" stroke="black" points="280,-0.5 280,-19.5 423,-19.5 423,-0.5 280,-0.5"/>
<text text-anchor="middle" x="351.5" y="-7.5" font-family="Helvetica,sans-Serif" font-size="10.00">Cleaner::cleanCombMethods</text>
</a>
</g>
</g>
<!-- Node212&#45;&gt;Node213 -->
<g id="edge19" class="edge"><title>Node212&#45;&gt;Node213</title>
<path fill="none" stroke="midnightblue" d="M239.699,-22.9214C252.636,-21.4127 266.407,-19.8068 279.685,-18.2584"/>
<polygon fill="midnightblue" stroke="midnightblue" points="239.055,-19.4727 229.528,-24.1075 239.866,-26.4255 239.055,-19.4727"/>
</g>
</g>
</svg>
