<?xml version="1.0" encoding="UTF-8" standalone="no"?>
<!DOCTYPE svg PUBLIC "-//W3C//DTD SVG 1.1//EN"
 "http://www.w3.org/Graphics/SVG/1.1/DTD/svg11.dtd">
<!-- Generated by graphviz version 2.38.0 (20140413.2041)
 -->
<!-- Title: Cleaner::cleanGaps Pages: 1 -->
<svg width="646pt" height="230pt"
 viewBox="0.00 0.00 646.00 229.50" xmlns="http://www.w3.org/2000/svg" xmlns:xlink="http://www.w3.org/1999/xlink">
<g id="graph0" class="graph" transform="scale(1 1) rotate(0) translate(4 225.5)">
<title>Cleaner::cleanGaps</title>
<polygon fill="white" stroke="none" points="-4,4 -4,-225.5 642,-225.5 642,4 -4,4"/>
<!-- Node102 -->
<g id="node1" class="node"><title>Node102</title>
<polygon fill="#bfbfbf" stroke="black" points="0,-107 0,-126 103,-126 103,-107 0,-107"/>
<text text-anchor="middle" x="51.5" y="-114" font-family="Helvetica,sans-Serif" font-size="10.00">Cleaner::cleanGaps</text>
</g>
<!-- Node103 -->
<g id="node2" class="node"><title>Node103</title>
<g id="a_node2"><a xlink:href="class_cleaner.html#ad075f0ef730c8023cf8a0e35e7e1e53a" target="_top" xlink:title="Method to clean an alignment. &#160;It removes sequences that overpass or equals a certain threshold...">
<polygon fill="white" stroke="black" points="139,-107 139,-126 271,-126 271,-107 139,-107"/>
<text text-anchor="middle" x="205" y="-114" font-family="Helvetica,sans-Serif" font-size="10.00">Cleaner::cleanByCutValue</text>
</a>
</g>
</g>
<!-- Node102&#45;&gt;Node103 -->
<g id="edge1" class="edge"><title>Node102&#45;&gt;Node103</title>
<path fill="none" stroke="midnightblue" d="M103.369,-116.5C111.524,-116.5 120.113,-116.5 128.694,-116.5"/>
<polygon fill="midnightblue" stroke="midnightblue" points="128.737,-120 138.737,-116.5 128.737,-113 128.737,-120"/>
</g>
<!-- Node104 -->
<g id="node3" class="node"><title>Node104</title>
<g id="a_node3"><a xlink:href="classutils.html#ad50731aeb3c8f79ed8372516210dfc9d" target="_top" xlink:title="Round double to integer method. ">
<polygon fill="white" stroke="black" points="358.5,-202 358.5,-221 434.5,-221 434.5,-202 358.5,-202"/>
<text text-anchor="middle" x="396.5" y="-209" font-family="Helvetica,sans-Serif" font-size="10.00">utils::roundInt</text>
</a>
</g>
</g>
<!-- Node103&#45;&gt;Node104 -->
<g id="edge2" class="edge"><title>Node103&#45;&gt;Node104</title>
<path fill="none" stroke="midnightblue" d="M215.649,-126.111C232.593,-142.41 269.471,-175.366 307,-192.5 319.759,-198.325 334.378,-202.398 348.009,-205.232"/>
<polygon fill="midnightblue" stroke="midnightblue" points="347.717,-208.739 358.194,-207.166 349.023,-201.862 347.717,-208.739"/>
</g>
<!-- Node105 -->
<g id="node4" class="node"><title>Node105</title>
<g id="a_node4"><a xlink:href="classutils.html#a42f272221edf7752ffda49e4212ef653" target="_top" xlink:title="Integer vector copying. ">
<polygon fill="white" stroke="black" points="355.5,-164 355.5,-183 437.5,-183 437.5,-164 355.5,-164"/>
<text text-anchor="middle" x="396.5" y="-171" font-family="Helvetica,sans-Serif" font-size="10.00">utils::copyVect</text>
</a>
</g>
</g>
<!-- Node103&#45;&gt;Node105 -->
<g id="edge3" class="edge"><title>Node103&#45;&gt;Node105</title>
<path fill="none" stroke="midnightblue" d="M228.537,-126.082C248.793,-134.427 279.498,-146.423 307,-154.5 319.254,-158.099 332.648,-161.328 345.222,-164.059"/>
<polygon fill="midnightblue" stroke="midnightblue" points="344.586,-167.502 355.093,-166.14 346.03,-160.652 344.586,-167.502"/>
</g>
<!-- Node106 -->
<g id="node5" class="node"><title>Node106</title>
<g id="a_node5"><a xlink:href="classutils.html#a73f038c379c13d23e3220afaa14f9983" target="_top" xlink:title="Quicksort sorting method. ">
<polygon fill="white" stroke="black" points="356.5,-126 356.5,-145 436.5,-145 436.5,-126 356.5,-126"/>
<text text-anchor="middle" x="396.5" y="-133" font-family="Helvetica,sans-Serif" font-size="10.00">utils::quicksort</text>
</a>
</g>
</g>
<!-- Node103&#45;&gt;Node106 -->
<g id="edge4" class="edge"><title>Node103&#45;&gt;Node106</title>
<path fill="none" stroke="midnightblue" d="M271.215,-123.039C295.818,-125.506 323.374,-128.268 346.275,-130.564"/>
<polygon fill="midnightblue" stroke="midnightblue" points="346.143,-134.069 356.442,-131.584 346.841,-127.104 346.143,-134.069"/>
</g>
<!-- Node108 -->
<g id="node7" class="node"><title>Node108</title>
<g id="a_node7"><a xlink:href="class_cleaner.html#a033da9ea63774f43f4c7aff04f23da81" target="_top" xlink:title="Method to detect right and left borders. Borders are the first column found with no gaps...">
<polygon fill="white" stroke="black" points="323.5,-88 323.5,-107 469.5,-107 469.5,-88 323.5,-88"/>
<text text-anchor="middle" x="396.5" y="-95" font-family="Helvetica,sans-Serif" font-size="10.00">Cleaner::removeOnlyTerminal</text>
</a>
</g>
</g>
<!-- Node103&#45;&gt;Node108 -->
<g id="edge6" class="edge"><title>Node103&#45;&gt;Node108</title>
<path fill="none" stroke="midnightblue" d="M271.215,-109.961C284.741,-108.605 299.159,-107.16 313.205,-105.751"/>
<polygon fill="midnightblue" stroke="midnightblue" points="313.748,-109.214 323.349,-104.734 313.05,-102.249 313.748,-109.214"/>
</g>
<!-- Node110 -->
<g id="node9" class="node"><title>Node110</title>
<g id="a_node9"><a xlink:href="class_cleaner.html#a24bd28e4191afc9471adff329bee1466" target="_top" xlink:title="Method for computing the complementary alignment. Complementary Alignment is an alignment containing ...">
<polygon fill="white" stroke="black" points="307,-50 307,-69 486,-69 486,-50 307,-50"/>
<text text-anchor="middle" x="396.5" y="-57" font-family="Helvetica,sans-Serif" font-size="10.00">Cleaner::computeComplementaryAlig</text>
</a>
</g>
</g>
<!-- Node103&#45;&gt;Node110 -->
<g id="edge8" class="edge"><title>Node103&#45;&gt;Node110</title>
<path fill="none" stroke="midnightblue" d="M228.537,-106.918C248.793,-98.5732 279.498,-86.5775 307,-78.5 315.858,-75.8983 325.312,-73.4901 334.621,-71.3236"/>
<polygon fill="midnightblue" stroke="midnightblue" points="335.643,-74.6811 344.63,-69.0698 334.105,-67.852 335.643,-74.6811"/>
</g>
<!-- Node111 -->
<g id="node10" class="node"><title>Node111</title>
<g id="a_node10"><a xlink:href="class_cleaner.html#ada8ad076dd037f00ae3f4fd17762641f" target="_top" xlink:title="Method that identifies and removes columns and sequences composed only by gaps. ">
<polygon fill="white" stroke="black" points="323.5,-0.5 323.5,-30.5 469.5,-30.5 469.5,-0.5 323.5,-0.5"/>
<text text-anchor="start" x="331.5" y="-18.5" font-family="Helvetica,sans-Serif" font-size="10.00">Cleaner::removeAllGapsSeqs</text>
<text text-anchor="middle" x="396.5" y="-7.5" font-family="Helvetica,sans-Serif" font-size="10.00">AndCols</text>
</a>
</g>
</g>
<!-- Node103&#45;&gt;Node111 -->
<g id="edge9" class="edge"><title>Node103&#45;&gt;Node111</title>
<path fill="none" stroke="midnightblue" d="M216.044,-106.885C233.288,-90.877 270.233,-58.7252 307,-40.5 311.62,-38.2099 316.483,-36.0997 321.454,-34.1605"/>
<polygon fill="midnightblue" stroke="midnightblue" points="322.915,-37.3533 331.111,-30.6397 320.517,-30.7767 322.915,-37.3533"/>
</g>
<!-- Node107 -->
<g id="node6" class="node"><title>Node107</title>
<g id="a_node6"><a xlink:href="classutils.html#a3377ecde55631d1bbc4956e5923b7469" target="_top" xlink:title="Swapping elements method. ">
<polygon fill="white" stroke="black" points="548,-126 548,-145 612,-145 612,-126 548,-126"/>
<text text-anchor="middle" x="580" y="-133" font-family="Helvetica,sans-Serif" font-size="10.00">utils::swap</text>
</a>
</g>
</g>
<!-- Node106&#45;&gt;Node107 -->
<g id="edge5" class="edge"><title>Node106&#45;&gt;Node107</title>
<path fill="none" stroke="midnightblue" d="M436.883,-135.5C466.634,-135.5 507.367,-135.5 537.6,-135.5"/>
<polygon fill="midnightblue" stroke="midnightblue" points="537.82,-139 547.82,-135.5 537.82,-132 537.82,-139"/>
</g>
<!-- Node109 -->
<g id="node8" class="node"><title>Node109</title>
<g id="a_node8"><a xlink:href="class____internal_report_1_1____report_system.html#a94ce85b97d7b6c3e5fbda0d30a35edd0" target="_top" xlink:title="Method to report an Error. It will be displayed if Level &#160;is equal or higher to VerboseLevel::ERROR. ">
<polygon fill="white" stroke="black" points="522,-38.5 522,-68.5 638,-68.5 638,-38.5 522,-38.5"/>
<text text-anchor="start" x="530" y="-56.5" font-family="Helvetica,sans-Serif" font-size="10.00">__internalReport::</text>
<text text-anchor="middle" x="580" y="-45.5" font-family="Helvetica,sans-Serif" font-size="10.00">__reportSystem::report</text>
</a>
</g>
</g>
<!-- Node108&#45;&gt;Node109 -->
<g id="edge7" class="edge"><title>Node108&#45;&gt;Node109</title>
<path fill="none" stroke="midnightblue" d="M443.992,-87.9856C457.566,-85.0815 472.405,-81.7844 486,-78.5 495.507,-76.2032 505.526,-73.6506 515.325,-71.0791"/>
<polygon fill="midnightblue" stroke="midnightblue" points="516.254,-74.4538 525.025,-68.5101 514.462,-67.6871 516.254,-74.4538"/>
</g>
<!-- Node111&#45;&gt;Node109 -->
<g id="edge10" class="edge"><title>Node111&#45;&gt;Node109</title>
<path fill="none" stroke="midnightblue" d="M469.234,-30.5186C483.267,-33.4567 497.935,-36.5277 511.813,-39.4334"/>
<polygon fill="midnightblue" stroke="midnightblue" points="511.254,-42.8921 521.759,-41.5157 512.689,-36.0407 511.254,-42.8921"/>
</g>
</g>
</svg>
