<?xml version="1.0" encoding="UTF-8" standalone="no"?>
<!DOCTYPE svg PUBLIC "-//W3C//DTD SVG 1.1//EN"
 "http://www.w3.org/Graphics/SVG/1.1/DTD/svg11.dtd">
<!-- Generated by graphviz version 2.40.1 (20161225.0304)
 -->
<!-- Title: statistics::Manager::printStatisticsGapsTotal Pages: 1 -->
<svg width="664pt" height="138pt"
 viewBox="0.00 0.00 664.00 138.00" xmlns="http://www.w3.org/2000/svg" xmlns:xlink="http://www.w3.org/1999/xlink">
<g id="graph0" class="graph" transform="scale(1 1) rotate(0) translate(4 134)">
<title>statistics::Manager::printStatisticsGapsTotal</title>
<polygon fill="#ffffff" stroke="transparent" points="-4,4 -4,-134 660,-134 660,4 -4,4"/>
<!-- Node144 -->
<g id="node1" class="node">
<title>Node144</title>
<g id="a_node1"><a xlink:title="Wrapper to Statistics::Gaps::printGapsAcl() It calls to calculateGapStats() to make sure the informat...">
<polygon fill="#bfbfbf" stroke="#000000" points="0,-17 0,-47 128,-47 128,-17 0,-17"/>
<text text-anchor="start" x="8" y="-35" font-family="Helvetica,sans-Serif" font-size="10.00" fill="#000000">statistics::Manager</text>
<text text-anchor="middle" x="64" y="-24" font-family="Helvetica,sans-Serif" font-size="10.00" fill="#000000">::printStatisticsGapsTotal</text>
</a>
</g>
</g>
<!-- Node145 -->
<g id="node2" class="node">
<title>Node145</title>
<g id="a_node2"><a xlink:href="classstatistics_1_1_manager.html#a1969a416d3020d25daa56de6c5e305db" target="_top" xlink:title="Method to handle gap stat calculation It checks if the gaps submodule has been created,...">
<polygon fill="#ffffff" stroke="#000000" points="186.5,-39 186.5,-69 289.5,-69 289.5,-39 186.5,-39"/>
<text text-anchor="start" x="194.5" y="-57" font-family="Helvetica,sans-Serif" font-size="10.00" fill="#000000">statistics::Manager</text>
<text text-anchor="middle" x="238" y="-46" font-family="Helvetica,sans-Serif" font-size="10.00" fill="#000000">::calculateGapStats</text>
</a>
</g>
</g>
<!-- Node144&#45;&gt;Node145 -->
<g id="edge1" class="edge">
<title>Node144&#45;&gt;Node145</title>
<path fill="none" stroke="#191970" d="M128.2968,-40.1295C144.0207,-42.1176 160.8084,-44.2401 176.4025,-46.2118"/>
<polygon fill="#191970" stroke="#191970" points="176.0945,-49.7007 186.4546,-47.4828 176.9727,-42.7559 176.0945,-49.7007"/>
</g>
<!-- Node151 -->
<g id="node8" class="node">
<title>Node151</title>
<g id="a_node8"><a xlink:href="classstatistics_1_1_gaps.html#af901354f7cb3588d17a73cbee2df8c30" target="_top" xlink:title=" ">
<polygon fill="#ffffff" stroke="#000000" points="164,-.5 164,-19.5 312,-19.5 312,-.5 164,-.5"/>
<text text-anchor="middle" x="238" y="-7.5" font-family="Helvetica,sans-Serif" font-size="10.00" fill="#000000">statistics::Gaps::printGapsAcl</text>
</a>
</g>
</g>
<!-- Node144&#45;&gt;Node151 -->
<g id="edge7" class="edge">
<title>Node144&#45;&gt;Node151</title>
<path fill="none" stroke="#191970" d="M128.2968,-23.8705C136.6466,-22.8148 145.2963,-21.7212 153.908,-20.6323"/>
<polygon fill="#191970" stroke="#191970" points="154.4977,-24.0857 163.9797,-19.3589 153.6196,-17.141 154.4977,-24.0857"/>
</g>
<!-- Node146 -->
<g id="node3" class="node">
<title>Node146</title>
<g id="a_node3"><a xlink:href="classstatistics_1_1_gaps.html#aee36b772767467cdba2061df2305e85d" target="_top" xlink:title=" ">
<polygon fill="#ffffff" stroke="#000000" points="348,-66.5 348,-85.5 498,-85.5 498,-66.5 348,-66.5"/>
<text text-anchor="middle" x="423" y="-73.5" font-family="Helvetica,sans-Serif" font-size="10.00" fill="#000000">statistics::Gaps::applyWindow</text>
</a>
</g>
</g>
<!-- Node145&#45;&gt;Node146 -->
<g id="edge2" class="edge">
<title>Node145&#45;&gt;Node146</title>
<path fill="none" stroke="#191970" d="M289.5328,-60.1282C304.4958,-61.9076 321.251,-63.9001 337.7007,-65.8563"/>
<polygon fill="#191970" stroke="#191970" points="337.5413,-69.3619 347.8847,-67.0674 338.368,-62.4109 337.5413,-69.3619"/>
</g>
<!-- Node150 -->
<g id="node7" class="node">
<title>Node150</title>
<g id="a_node7"><a xlink:href="classstatistics_1_1_gaps.html#aa3526494d5100e062daa4afba755d0b1" target="_top" xlink:title=" ">
<polygon fill="#ffffff" stroke="#000000" points="356.5,-17 356.5,-47 489.5,-47 489.5,-17 356.5,-17"/>
<text text-anchor="start" x="364.5" y="-35" font-family="Helvetica,sans-Serif" font-size="10.00" fill="#000000">statistics::Gaps::Calculate</text>
<text text-anchor="middle" x="423" y="-24" font-family="Helvetica,sans-Serif" font-size="10.00" fill="#000000">Vectors</text>
</a>
</g>
</g>
<!-- Node145&#45;&gt;Node150 -->
<g id="edge6" class="edge">
<title>Node145&#45;&gt;Node150</title>
<path fill="none" stroke="#191970" d="M289.5328,-47.8718C307.0237,-45.7918 326.9636,-43.4205 346.0017,-41.1566"/>
<polygon fill="#191970" stroke="#191970" points="346.643,-44.605 356.1597,-39.9486 345.8163,-37.654 346.643,-44.605"/>
</g>
<!-- Node147 -->
<g id="node4" class="node">
<title>Node147</title>
<g id="a_node4"><a xlink:href="namespaceutils.html#aac322cd1761fddedec8a5792e358eb32" target="_top" xlink:title="Vector initialization.">
<polygon fill="#ffffff" stroke="#000000" points="557,-110.5 557,-129.5 633,-129.5 633,-110.5 557,-110.5"/>
<text text-anchor="middle" x="595" y="-117.5" font-family="Helvetica,sans-Serif" font-size="10.00" fill="#000000">utils::initlVect</text>
</a>
</g>
</g>
<!-- Node146&#45;&gt;Node147 -->
<g id="edge3" class="edge">
<title>Node146&#45;&gt;Node147</title>
<path fill="none" stroke="#191970" d="M460.3214,-85.5473C486.0161,-92.1204 520.3551,-100.9048 547.9277,-107.9583"/>
<polygon fill="#191970" stroke="#191970" points="547.1959,-111.3837 557.7514,-110.4713 548.9308,-104.6021 547.1959,-111.3837"/>
</g>
<!-- Node148 -->
<g id="node5" class="node">
<title>Node148</title>
<g id="a_node5"><a xlink:href="classreporting_1_1report_manager.html#a6d122e673144584e0869bd33b8a5c1c6" target="_top" xlink:title="Method to report an Error. &#160;It will be displayed if Level &#160;is equal or higher to VerboseLevel::ERROR.">
<polygon fill="#ffffff" stroke="#000000" points="534,-61 534,-91 656,-91 656,-61 534,-61"/>
<text text-anchor="start" x="542" y="-79" font-family="Helvetica,sans-Serif" font-size="10.00" fill="#000000">reporting::reportManager</text>
<text text-anchor="middle" x="595" y="-68" font-family="Helvetica,sans-Serif" font-size="10.00" fill="#000000">::report</text>
</a>
</g>
</g>
<!-- Node146&#45;&gt;Node148 -->
<g id="edge4" class="edge">
<title>Node146&#45;&gt;Node148</title>
<path fill="none" stroke="#191970" d="M498.1915,-76C506.6746,-76 515.3002,-76 523.7311,-76"/>
<polygon fill="#191970" stroke="#191970" points="523.8958,-79.5001 533.8958,-76 523.8957,-72.5001 523.8958,-79.5001"/>
</g>
<!-- Node149 -->
<g id="node6" class="node">
<title>Node149</title>
<g id="a_node6"><a xlink:href="namespaceutils.html#ad50731aeb3c8f79ed8372516210dfc9d" target="_top" xlink:title="Round double to integer method.">
<polygon fill="#ffffff" stroke="#000000" points="557,-22.5 557,-41.5 633,-41.5 633,-22.5 557,-22.5"/>
<text text-anchor="middle" x="595" y="-29.5" font-family="Helvetica,sans-Serif" font-size="10.00" fill="#000000">utils::roundInt</text>
</a>
</g>
</g>
<!-- Node146&#45;&gt;Node149 -->
<g id="edge5" class="edge">
<title>Node146&#45;&gt;Node149</title>
<path fill="none" stroke="#191970" d="M460.7774,-66.4621C472.6896,-63.4459 485.897,-60.0927 498,-57 514.3095,-52.8324 532.1534,-48.2422 548.0395,-44.1449"/>
<polygon fill="#191970" stroke="#191970" points="549.3524,-47.4208 558.1605,-41.5329 547.6031,-40.6429 549.3524,-47.4208"/>
</g>
</g>
</svg>
