<?xml version="1.0" encoding="UTF-8" standalone="no"?>
<!DOCTYPE svg PUBLIC "-//W3C//DTD SVG 1.1//EN"
 "http://www.w3.org/Graphics/SVG/1.1/DTD/svg11.dtd">
<!-- Generated by graphviz version 2.38.0 (20140413.2041)
 -->
<!-- Title: Cleaner::cleanGaps Pages: 1 -->
<svg width="655pt" height="279pt"
 viewBox="0.00 0.00 655.00 278.50" xmlns="http://www.w3.org/2000/svg" xmlns:xlink="http://www.w3.org/1999/xlink">
<g id="graph0" class="graph" transform="scale(1 1) rotate(0) translate(4 274.5)">
<title>Cleaner::cleanGaps</title>
<polygon fill="white" stroke="none" points="-4,4 -4,-274.5 651,-274.5 651,4 -4,4"/>
<!-- Node110 -->
<g id="node1" class="node"><title>Node110</title>
<polygon fill="#bfbfbf" stroke="black" points="0,-137 0,-156 103,-156 103,-137 0,-137"/>
<text text-anchor="middle" x="51.5" y="-144" font-family="Helvetica,sans-Serif" font-size="10.00">Cleaner::cleanGaps</text>
</g>
<!-- Node111 -->
<g id="node2" class="node"><title>Node111</title>
<g id="a_node2"><a xlink:href="class_cleaner.html#ad075f0ef730c8023cf8a0e35e7e1e53a" target="_top" xlink:title="Method to clean an alignment. &#160;It removes sequences that overpass or equals a certain threshold...">
<polygon fill="white" stroke="black" points="139,-137 139,-156 271,-156 271,-137 139,-137"/>
<text text-anchor="middle" x="205" y="-144" font-family="Helvetica,sans-Serif" font-size="10.00">Cleaner::cleanByCutValue</text>
</a>
</g>
</g>
<!-- Node110&#45;&gt;Node111 -->
<g id="edge1" class="edge"><title>Node110&#45;&gt;Node111</title>
<path fill="none" stroke="midnightblue" d="M103.369,-146.5C111.524,-146.5 120.113,-146.5 128.694,-146.5"/>
<polygon fill="midnightblue" stroke="midnightblue" points="128.737,-150 138.737,-146.5 128.737,-143 128.737,-150"/>
</g>
<!-- Node112 -->
<g id="node3" class="node"><title>Node112</title>
<g id="a_node3"><a xlink:href="classutils.html#ad50731aeb3c8f79ed8372516210dfc9d" target="_top" xlink:title="Round double to integer method. ">
<polygon fill="white" stroke="black" points="358.5,-251 358.5,-270 434.5,-270 434.5,-251 358.5,-251"/>
<text text-anchor="middle" x="396.5" y="-258" font-family="Helvetica,sans-Serif" font-size="10.00">utils::roundInt</text>
</a>
</g>
</g>
<!-- Node111&#45;&gt;Node112 -->
<g id="edge2" class="edge"><title>Node111&#45;&gt;Node112</title>
<path fill="none" stroke="midnightblue" d="M213.158,-156.097C228.21,-175.538 265.218,-219.581 307,-241.5 319.654,-248.138 334.484,-252.458 348.348,-255.268"/>
<polygon fill="midnightblue" stroke="midnightblue" points="347.763,-258.719 358.227,-257.06 349.012,-251.832 347.763,-258.719"/>
</g>
<!-- Node113 -->
<g id="node4" class="node"><title>Node113</title>
<g id="a_node4"><a xlink:href="classutils.html#a42f272221edf7752ffda49e4212ef653" target="_top" xlink:title="Integer vector copying. ">
<polygon fill="white" stroke="black" points="355.5,-213 355.5,-232 437.5,-232 437.5,-213 355.5,-213"/>
<text text-anchor="middle" x="396.5" y="-220" font-family="Helvetica,sans-Serif" font-size="10.00">utils::copyVect</text>
</a>
</g>
</g>
<!-- Node111&#45;&gt;Node113 -->
<g id="edge3" class="edge"><title>Node111&#45;&gt;Node113</title>
<path fill="none" stroke="midnightblue" d="M219.719,-156.037C238.554,-168.702 273.868,-190.929 307,-203.5 319.057,-208.075 332.478,-211.669 345.15,-214.441"/>
<polygon fill="midnightblue" stroke="midnightblue" points="344.611,-217.903 355.111,-216.491 346.022,-211.047 344.611,-217.903"/>
</g>
<!-- Node114 -->
<g id="node5" class="node"><title>Node114</title>
<g id="a_node5"><a xlink:href="classutils.html#a73f038c379c13d23e3220afaa14f9983" target="_top" xlink:title="Quicksort sorting method. ">
<polygon fill="white" stroke="black" points="356.5,-175 356.5,-194 436.5,-194 436.5,-175 356.5,-175"/>
<text text-anchor="middle" x="396.5" y="-182" font-family="Helvetica,sans-Serif" font-size="10.00">utils::quicksort</text>
</a>
</g>
</g>
<!-- Node111&#45;&gt;Node114 -->
<g id="edge4" class="edge"><title>Node111&#45;&gt;Node114</title>
<path fill="none" stroke="midnightblue" d="M253.819,-156.089C282.04,-161.748 317.693,-168.898 346.173,-174.609"/>
<polygon fill="midnightblue" stroke="midnightblue" points="345.822,-178.108 356.315,-176.642 347.198,-171.244 345.822,-178.108"/>
</g>
<!-- Node116 -->
<g id="node7" class="node"><title>Node116</title>
<g id="a_node7"><a xlink:href="class_cleaner.html#a033da9ea63774f43f4c7aff04f23da81" target="_top" xlink:title="Method to detect right and left borders. Borders are the first column found with no gaps...">
<polygon fill="white" stroke="black" points="323.5,-137 323.5,-156 469.5,-156 469.5,-137 323.5,-137"/>
<text text-anchor="middle" x="396.5" y="-144" font-family="Helvetica,sans-Serif" font-size="10.00">Cleaner::removeOnlyTerminal</text>
</a>
</g>
</g>
<!-- Node111&#45;&gt;Node116 -->
<g id="edge6" class="edge"><title>Node111&#45;&gt;Node116</title>
<path fill="none" stroke="midnightblue" d="M271.215,-146.5C284.741,-146.5 299.159,-146.5 313.205,-146.5"/>
<polygon fill="midnightblue" stroke="midnightblue" points="313.349,-150 323.349,-146.5 313.349,-143 313.349,-150"/>
</g>
<!-- Node118 -->
<g id="node9" class="node"><title>Node118</title>
<g id="a_node9"><a xlink:href="class_cleaner.html#a24bd28e4191afc9471adff329bee1466" target="_top" xlink:title="Method for computing the complementary alignment. Complementary Alignment is an alignment containing ...">
<polygon fill="white" stroke="black" points="307,-99 307,-118 486,-118 486,-99 307,-99"/>
<text text-anchor="middle" x="396.5" y="-106" font-family="Helvetica,sans-Serif" font-size="10.00">Cleaner::computeComplementaryAlig</text>
</a>
</g>
</g>
<!-- Node111&#45;&gt;Node118 -->
<g id="edge8" class="edge"><title>Node111&#45;&gt;Node118</title>
<path fill="none" stroke="midnightblue" d="M253.819,-136.911C279.389,-131.784 311.059,-125.433 337.968,-120.037"/>
<polygon fill="midnightblue" stroke="midnightblue" points="338.908,-123.418 348.025,-118.02 337.532,-116.555 338.908,-123.418"/>
</g>
<!-- Node119 -->
<g id="node10" class="node"><title>Node119</title>
<g id="a_node10"><a xlink:href="class_cleaner.html#a2f7d85e29f23f880a7ad7e28863b36c3" target="_top" xlink:title="Method that identifies and removes columns and sequences composed only by gaps. ">
<polygon fill="white" stroke="black" points="342,-49.5 342,-79.5 451,-79.5 451,-49.5 342,-49.5"/>
<text text-anchor="start" x="350" y="-67.5" font-family="Helvetica,sans-Serif" font-size="10.00">Cleaner::removeCols</text>
<text text-anchor="middle" x="396.5" y="-56.5" font-family="Helvetica,sans-Serif" font-size="10.00">_SeqsAllGaps</text>
</a>
</g>
</g>
<!-- Node111&#45;&gt;Node119 -->
<g id="edge9" class="edge"><title>Node111&#45;&gt;Node119</title>
<path fill="none" stroke="midnightblue" d="M220.494,-136.847C239.621,-124.46 274.658,-102.967 307,-89.5 315.032,-86.1557 323.654,-83.1024 332.252,-80.3677"/>
<polygon fill="midnightblue" stroke="midnightblue" points="333.373,-83.6848 341.915,-77.4171 331.329,-76.9899 333.373,-83.6848"/>
</g>
<!-- Node120 -->
<g id="node11" class="node"><title>Node120</title>
<g id="a_node11"><a xlink:href="classnew_alignment.html#a3de39c62c08a265178f1fa7df76c3ab7" target="_top" xlink:title="Method that copies information of the alignment to the pointers given. ">
<polygon fill="white" stroke="black" points="329,-0.5 329,-30.5 464,-30.5 464,-0.5 329,-0.5"/>
<text text-anchor="start" x="337" y="-18.5" font-family="Helvetica,sans-Serif" font-size="10.00">newAlignment::fillNewData</text>
<text text-anchor="middle" x="396.5" y="-7.5" font-family="Helvetica,sans-Serif" font-size="10.00">Structure</text>
</a>
</g>
</g>
<!-- Node111&#45;&gt;Node120 -->
<g id="edge11" class="edge"><title>Node111&#45;&gt;Node120</title>
<path fill="none" stroke="midnightblue" d="M212.348,-136.959C226.677,-116.18 263.677,-66.6124 307,-40.5 310.874,-38.1652 314.974,-36.0411 319.202,-34.1095"/>
<polygon fill="midnightblue" stroke="midnightblue" points="320.744,-37.2589 328.628,-30.1815 318.051,-30.7975 320.744,-37.2589"/>
</g>
<!-- Node115 -->
<g id="node6" class="node"><title>Node115</title>
<g id="a_node6"><a xlink:href="classutils.html#a3377ecde55631d1bbc4956e5923b7469" target="_top" xlink:title="Swapping elements method. ">
<polygon fill="white" stroke="black" points="552.5,-175 552.5,-194 616.5,-194 616.5,-175 552.5,-175"/>
<text text-anchor="middle" x="584.5" y="-182" font-family="Helvetica,sans-Serif" font-size="10.00">utils::swap</text>
</a>
</g>
</g>
<!-- Node114&#45;&gt;Node115 -->
<g id="edge5" class="edge"><title>Node114&#45;&gt;Node115</title>
<path fill="none" stroke="midnightblue" d="M436.946,-184.5C467.892,-184.5 510.838,-184.5 542.241,-184.5"/>
<polygon fill="midnightblue" stroke="midnightblue" points="542.414,-188 552.414,-184.5 542.414,-181 542.414,-188"/>
</g>
<!-- Node117 -->
<g id="node8" class="node"><title>Node117</title>
<g id="a_node8"><a xlink:href="class_verbose_manager.html#a261de87bbf9653cd729dca4e1fbeb2a3" target="_top" xlink:title="Method to report an Error. It will be displayed if VerboseManager::Level is equal or higher to Verbos...">
<polygon fill="white" stroke="black" points="522,-96 522,-115 647,-115 647,-96 522,-96"/>
<text text-anchor="middle" x="584.5" y="-103" font-family="Helvetica,sans-Serif" font-size="10.00">VerboseManager::Report</text>
</a>
</g>
</g>
<!-- Node116&#45;&gt;Node117 -->
<g id="edge7" class="edge"><title>Node116&#45;&gt;Node117</title>
<path fill="none" stroke="midnightblue" d="M442.542,-136.925C456.48,-133.937 471.881,-130.609 486,-127.5 500.871,-124.226 517.003,-120.612 531.784,-117.275"/>
<polygon fill="midnightblue" stroke="midnightblue" points="532.787,-120.636 541.769,-115.017 531.243,-113.809 532.787,-120.636"/>
</g>
<!-- Node119&#45;&gt;Node117 -->
<g id="edge10" class="edge"><title>Node119&#45;&gt;Node117</title>
<path fill="none" stroke="midnightblue" d="M451.299,-76.3589C476.099,-81.8257 505.452,-88.296 530.192,-93.7494"/>
<polygon fill="midnightblue" stroke="midnightblue" points="529.612,-97.2055 540.132,-95.9403 531.119,-90.3696 529.612,-97.2055"/>
</g>
</g>
</svg>
