<?xml version="1.0" encoding="UTF-8" standalone="no"?>
<!DOCTYPE svg PUBLIC "-//W3C//DTD SVG 1.1//EN"
 "http://www.w3.org/Graphics/SVG/1.1/DTD/svg11.dtd">
<!-- Generated by graphviz version 2.40.1 (20161225.0304)
 -->
<!-- Title: statistics::Similarity::printConservationAcl Pages: 1 -->
<svg width="843pt" height="50pt"
 viewBox="0.00 0.00 843.00 50.00" xmlns="http://www.w3.org/2000/svg" xmlns:xlink="http://www.w3.org/1999/xlink">
<g id="graph0" class="graph" transform="scale(1 1) rotate(0) translate(4 46)">
<title>statistics::Similarity::printConservationAcl</title>
<polygon fill="#ffffff" stroke="transparent" points="-4,4 -4,-46 839,-46 839,4 -4,4"/>
<!-- Node256 -->
<g id="node1" class="node">
<title>Node256</title>
<polygon fill="#bfbfbf" stroke="#000000" points="0,-6 0,-36 113,-36 113,-6 0,-6"/>
<text text-anchor="start" x="8" y="-24" font-family="Helvetica,sans-Serif" font-size="10.00" fill="#000000">statistics::Similarity</text>
<text text-anchor="middle" x="56.5" y="-13" font-family="Helvetica,sans-Serif" font-size="10.00" fill="#000000">::printConservationAcl</text>
</g>
<!-- Node257 -->
<g id="node2" class="node">
<title>Node257</title>
<g id="a_node2"><a xlink:href="classstatistics_1_1_manager.html#aa20cfb477826035386ea988e3706b09a" target="_top" xlink:title="Wrapper to Statistics::Similarity::printGapsTotal() It calls to calculateConservationStats() to make ...">
<polygon fill="#ffffff" stroke="#000000" points="149,-.5 149,-41.5 289,-41.5 289,-.5 149,-.5"/>
<text text-anchor="start" x="157" y="-29.5" font-family="Helvetica,sans-Serif" font-size="10.00" fill="#000000">statistics::Manager</text>
<text text-anchor="start" x="157" y="-18.5" font-family="Helvetica,sans-Serif" font-size="10.00" fill="#000000">::printStatisticsConservation</text>
<text text-anchor="middle" x="219" y="-7.5" font-family="Helvetica,sans-Serif" font-size="10.00" fill="#000000">Total</text>
</a>
</g>
</g>
<!-- Node256&#45;&gt;Node257 -->
<g id="edge1" class="edge">
<title>Node256&#45;&gt;Node257</title>
<path fill="none" stroke="#191970" d="M123.4093,-21C131.7742,-21 140.3486,-21 148.7625,-21"/>
<polygon fill="#191970" stroke="#191970" points="123.3346,-17.5001 113.3346,-21 123.3346,-24.5001 123.3346,-17.5001"/>
</g>
<!-- Node258 -->
<g id="node3" class="node">
<title>Node258</title>
<g id="a_node3"><a xlink:href="classtrim_al_manager.html#afc48b86f5ae35b9a5e721b65c58bf610" target="_top" xlink:title="Method to print statistics requested. ">
<polygon fill="#ffffff" stroke="#000000" points="325,-6 325,-36 429,-36 429,-6 325,-6"/>
<text text-anchor="start" x="333" y="-24" font-family="Helvetica,sans-Serif" font-size="10.00" fill="#000000">trimAlManager::print</text>
<text text-anchor="middle" x="377" y="-13" font-family="Helvetica,sans-Serif" font-size="10.00" fill="#000000">_statistics</text>
</a>
</g>
</g>
<!-- Node257&#45;&gt;Node258 -->
<g id="edge2" class="edge">
<title>Node257&#45;&gt;Node258</title>
<path fill="none" stroke="#191970" d="M299.2743,-21C307.8508,-21 316.4072,-21 324.5392,-21"/>
<polygon fill="#191970" stroke="#191970" points="299.2213,-17.5001 289.2212,-21 299.2212,-24.5001 299.2213,-17.5001"/>
</g>
<!-- Node259 -->
<g id="node4" class="node">
<title>Node259</title>
<g id="a_node4"><a xlink:href="classtrim_al_manager.html#a7c641a1feff33d401b4ea5c82e989289" target="_top" xlink:title="trimAlManager::innerPerform">
<polygon fill="#ffffff" stroke="#000000" points="465,-11.5 465,-30.5 606,-30.5 606,-11.5 465,-11.5"/>
<text text-anchor="middle" x="535.5" y="-18.5" font-family="Helvetica,sans-Serif" font-size="10.00" fill="#000000">trimAlManager::innerPerform</text>
</a>
</g>
</g>
<!-- Node258&#45;&gt;Node259 -->
<g id="edge3" class="edge">
<title>Node258&#45;&gt;Node259</title>
<path fill="none" stroke="#191970" d="M439.374,-21C447.7302,-21 456.3488,-21 464.8346,-21"/>
<polygon fill="#191970" stroke="#191970" points="439.3381,-17.5001 429.3381,-21 439.3381,-24.5001 439.3381,-17.5001"/>
</g>
<!-- Node260 -->
<g id="node5" class="node">
<title>Node260</title>
<g id="a_node5"><a xlink:href="classtrim_al_manager.html#abe8d2841455c644dc9c7d1294b82b00f" target="_top" xlink:title="Method to perform the analysis if all checks have passed. ">
<polygon fill="#ffffff" stroke="#000000" points="642,-11.5 642,-30.5 761,-30.5 761,-11.5 642,-11.5"/>
<text text-anchor="middle" x="701.5" y="-18.5" font-family="Helvetica,sans-Serif" font-size="10.00" fill="#000000">trimAlManager::perform</text>
</a>
</g>
</g>
<!-- Node259&#45;&gt;Node260 -->
<g id="edge4" class="edge">
<title>Node259&#45;&gt;Node260</title>
<path fill="none" stroke="#191970" d="M616.4012,-21C624.9677,-21 633.564,-21 641.8249,-21"/>
<polygon fill="#191970" stroke="#191970" points="616.3805,-17.5001 606.3804,-21 616.3804,-24.5001 616.3805,-17.5001"/>
</g>
<!-- Node261 -->
<g id="node6" class="node">
<title>Node261</title>
<g id="a_node6"><a xlink:href="trim_al_main_8cpp.html#a0ddf1224851353fc92bfbff6f499fa97" target="_top" xlink:title="main">
<polygon fill="#ffffff" stroke="#000000" points="797,-11.5 797,-30.5 835,-30.5 835,-11.5 797,-11.5"/>
<text text-anchor="middle" x="816" y="-18.5" font-family="Helvetica,sans-Serif" font-size="10.00" fill="#000000">main</text>
</a>
</g>
</g>
<!-- Node260&#45;&gt;Node261 -->
<g id="edge5" class="edge">
<title>Node260&#45;&gt;Node261</title>
<path fill="none" stroke="#191970" d="M771.3198,-21C780.6177,-21 789.4503,-21 796.7697,-21"/>
<polygon fill="#191970" stroke="#191970" points="771.0976,-17.5001 761.0976,-21 771.0975,-24.5001 771.0976,-17.5001"/>
</g>
</g>
</svg>
