<?xml version="1.0" encoding="UTF-8" standalone="no"?>
<!DOCTYPE svg PUBLIC "-//W3C//DTD SVG 1.1//EN"
 "http://www.w3.org/Graphics/SVG/1.1/DTD/svg11.dtd">
<!-- Generated by graphviz version 2.40.1 (20161225.0304)
 -->
<!-- Title: trimAlManager::check_max_identity_incompatibilities Pages: 1 -->
<svg width="616pt" height="39pt"
 viewBox="0.00 0.00 616.00 39.00" xmlns="http://www.w3.org/2000/svg" xmlns:xlink="http://www.w3.org/1999/xlink">
<g id="graph0" class="graph" transform="scale(1 1) rotate(0) translate(4 35)">
<title>trimAlManager::check_max_identity_incompatibilities</title>
<polygon fill="#ffffff" stroke="transparent" points="-4,4 -4,-35 612,-35 612,4 -4,4"/>
<!-- Node195 -->
<g id="node1" class="node">
<title>Node195</title>
<polygon fill="#bfbfbf" stroke="#000000" points="0,-.5 0,-30.5 152,-30.5 152,-.5 0,-.5"/>
<text text-anchor="start" x="8" y="-18.5" font-family="Helvetica,sans-Serif" font-size="10.00" fill="#000000">trimAlManager::check</text>
<text text-anchor="middle" x="76" y="-7.5" font-family="Helvetica,sans-Serif" font-size="10.00" fill="#000000">_max_identity_incompatibilities</text>
</g>
<!-- Node196 -->
<g id="node2" class="node">
<title>Node196</title>
<g id="a_node2"><a xlink:href="classtrim_al_manager.html#a16d2da3f90cfe965bea5f1da1360e17a" target="_top" xlink:title="Method to check argument incompatibilities. Take in mind that an incompatibility is between two argum...">
<polygon fill="#ffffff" stroke="#000000" points="188,-.5 188,-30.5 331,-30.5 331,-.5 188,-.5"/>
<text text-anchor="start" x="196" y="-18.5" font-family="Helvetica,sans-Serif" font-size="10.00" fill="#000000">trimAlManager::check</text>
<text text-anchor="middle" x="259.5" y="-7.5" font-family="Helvetica,sans-Serif" font-size="10.00" fill="#000000">_arguments_incompatibilities</text>
</a>
</g>
</g>
<!-- Node195&#45;&gt;Node196 -->
<g id="edge1" class="edge">
<title>Node195&#45;&gt;Node196</title>
<path fill="none" stroke="#191970" d="M162.2622,-15.5C170.8519,-15.5 179.506,-15.5 187.9219,-15.5"/>
<polygon fill="#191970" stroke="#191970" points="162.2264,-12.0001 152.2264,-15.5 162.2263,-19.0001 162.2264,-12.0001"/>
</g>
<!-- Node197 -->
<g id="node3" class="node">
<title>Node197</title>
<g id="a_node3"><a xlink:href="classtrim_al_manager.html#a748b08a1ec5cd214de804ed0d4234a6e" target="_top" xlink:title="Method to process the information obtained by trimAlManager::parseArguments It checks for argument in...">
<polygon fill="#ffffff" stroke="#000000" points="367,-6 367,-25 534,-25 534,-6 367,-6"/>
<text text-anchor="middle" x="450.5" y="-13" font-family="Helvetica,sans-Serif" font-size="10.00" fill="#000000">trimAlManager::processArguments</text>
</a>
</g>
</g>
<!-- Node196&#45;&gt;Node197 -->
<g id="edge2" class="edge">
<title>Node196&#45;&gt;Node197</title>
<path fill="none" stroke="#191970" d="M341.3706,-15.5C349.8114,-15.5 358.3973,-15.5 366.857,-15.5"/>
<polygon fill="#191970" stroke="#191970" points="341.1648,-12.0001 331.1648,-15.5 341.1647,-19.0001 341.1648,-12.0001"/>
</g>
<!-- Node198 -->
<g id="node4" class="node">
<title>Node198</title>
<g id="a_node4"><a xlink:href="trim_al_main_8cpp.html#a0ddf1224851353fc92bfbff6f499fa97" target="_top" xlink:title="main">
<polygon fill="#ffffff" stroke="#000000" points="570,-6 570,-25 608,-25 608,-6 570,-6"/>
<text text-anchor="middle" x="589" y="-13" font-family="Helvetica,sans-Serif" font-size="10.00" fill="#000000">main</text>
</a>
</g>
</g>
<!-- Node197&#45;&gt;Node198 -->
<g id="edge3" class="edge">
<title>Node197&#45;&gt;Node198</title>
<path fill="none" stroke="#191970" d="M544.301,-15.5C553.7267,-15.5 562.4553,-15.5 569.6511,-15.5"/>
<polygon fill="#191970" stroke="#191970" points="544.2612,-12.0001 534.2611,-15.5 544.2611,-19.0001 544.2612,-12.0001"/>
</g>
</g>
</svg>
