<?xml version="1.0" encoding="UTF-8" standalone="no"?>
<!DOCTYPE svg PUBLIC "-//W3C//DTD SVG 1.1//EN"
 "http://www.w3.org/Graphics/SVG/1.1/DTD/svg11.dtd">
<!-- Generated by graphviz version 2.38.0 (20140413.2041)
 -->
<!-- Title: statisticsConsistency::compareAndChoose Pages: 1 -->
<svg width="309pt" height="280pt"
 viewBox="0.00 0.00 309.00 280.00" xmlns="http://www.w3.org/2000/svg" xmlns:xlink="http://www.w3.org/1999/xlink">
<g id="graph0" class="graph" transform="scale(1 1) rotate(0) translate(4 276)">
<title>statisticsConsistency::compareAndChoose</title>
<polygon fill="white" stroke="none" points="-4,4 -4,-276 305,-276 305,4 -4,4"/>
<!-- Node3 -->
<g id="node1" class="node"><title>Node3</title>
<polygon fill="#bfbfbf" stroke="black" points="0,-121 0,-151 111,-151 111,-121 0,-121"/>
<text text-anchor="start" x="8" y="-139" font-family="Helvetica,sans-Serif" font-size="10.00">statisticsConsistency</text>
<text text-anchor="middle" x="55.5" y="-128" font-family="Helvetica,sans-Serif" font-size="10.00">::compareAndChoose</text>
</g>
<!-- Node4 -->
<g id="node2" class="node"><title>Node4</title>
<g id="a_node2"><a xlink:href="classsequences_matrix.html#a2954781bf8e8fd338714246fd10bae88" target="_top" xlink:title="Method to get a column out of the matrix. ">
<polygon fill="white" stroke="black" points="152,-252.5 152,-271.5 296,-271.5 296,-252.5 152,-252.5"/>
<text text-anchor="middle" x="224" y="-259.5" font-family="Helvetica,sans-Serif" font-size="10.00">sequencesMatrix::getColumn</text>
</a>
</g>
</g>
<!-- Node3&#45;&gt;Node4 -->
<g id="edge1" class="edge"><title>Node3&#45;&gt;Node4</title>
<path fill="none" stroke="midnightblue" d="M64.9309,-151.016C78.8706,-174.415 108.997,-219.339 147,-243 150.41,-245.123 154.044,-247.009 157.806,-248.684"/>
<polygon fill="midnightblue" stroke="midnightblue" points="156.776,-252.04 167.364,-252.43 159.33,-245.522 156.776,-252.04"/>
</g>
<!-- Node5 -->
<g id="node3" class="node"><title>Node5</title>
<g id="a_node3"><a xlink:href="classnew_alignment.html#acfd820148c267a3d698a39758ecf190d" target="_top" xlink:title="Number of sequences getter. ">
<polygon fill="white" stroke="black" points="147,-214.5 147,-233.5 301,-233.5 301,-214.5 147,-214.5"/>
<text text-anchor="middle" x="224" y="-221.5" font-family="Helvetica,sans-Serif" font-size="10.00">newAlignment::getNumSpecies</text>
</a>
</g>
</g>
<!-- Node3&#45;&gt;Node5 -->
<g id="edge2" class="edge"><title>Node3&#45;&gt;Node5</title>
<path fill="none" stroke="midnightblue" d="M72.1618,-151.177C89.2226,-166.887 117.976,-191.044 147,-205 151.979,-207.394 157.292,-209.507 162.708,-211.368"/>
<polygon fill="midnightblue" stroke="midnightblue" points="161.926,-214.791 172.516,-214.45 164.025,-208.113 161.926,-214.791"/>
</g>
<!-- Node6 -->
<g id="node4" class="node"><title>Node6</title>
<g id="a_node4"><a xlink:href="classnew_alignment.html#ac3d5c9670904bba45707746640aac382" target="_top" xlink:title="Method to map two sets of sequences, own and external. The method accepts a vector of names...">
<polygon fill="white" stroke="black" points="153.5,-165 153.5,-195 294.5,-195 294.5,-165 153.5,-165"/>
<text text-anchor="start" x="161.5" y="-183" font-family="Helvetica,sans-Serif" font-size="10.00">newAlignment::getSequence</text>
<text text-anchor="middle" x="224" y="-172" font-family="Helvetica,sans-Serif" font-size="10.00">NameOrder</text>
</a>
</g>
</g>
<!-- Node3&#45;&gt;Node6 -->
<g id="edge3" class="edge"><title>Node3&#45;&gt;Node6</title>
<path fill="none" stroke="midnightblue" d="M111.018,-150.407C125.489,-154.231 141.28,-158.404 156.319,-162.378"/>
<polygon fill="midnightblue" stroke="midnightblue" points="155.509,-165.785 166.071,-164.956 157.297,-159.017 155.509,-165.785"/>
</g>
<!-- Node7 -->
<g id="node5" class="node"><title>Node7</title>
<g id="a_node5"><a xlink:href="classnew_alignment.html#a0db3e76f82a71c7a2fe5b9279f8fa310" target="_top" xlink:title="Getter for the sequences names. ">
<polygon fill="white" stroke="black" points="151,-126.5 151,-145.5 297,-145.5 297,-126.5 151,-126.5"/>
<text text-anchor="middle" x="224" y="-133.5" font-family="Helvetica,sans-Serif" font-size="10.00">newAlignment::getSequences</text>
</a>
</g>
</g>
<!-- Node3&#45;&gt;Node7 -->
<g id="edge4" class="edge"><title>Node3&#45;&gt;Node7</title>
<path fill="none" stroke="midnightblue" d="M111.018,-136C120.55,-136 130.654,-136 140.739,-136"/>
<polygon fill="midnightblue" stroke="midnightblue" points="140.795,-139.5 150.795,-136 140.795,-132.5 140.795,-139.5"/>
</g>
<!-- Node8 -->
<g id="node6" class="node"><title>Node8</title>
<g id="a_node6"><a xlink:href="classutils.html#aac322cd1761fddedec8a5792e358eb32" target="_top" xlink:title="Vector initialization. ">
<polygon fill="white" stroke="black" points="186,-88.5 186,-107.5 262,-107.5 262,-88.5 186,-88.5"/>
<text text-anchor="middle" x="224" y="-95.5" font-family="Helvetica,sans-Serif" font-size="10.00">utils::initlVect</text>
</a>
</g>
</g>
<!-- Node3&#45;&gt;Node8 -->
<g id="edge5" class="edge"><title>Node3&#45;&gt;Node8</title>
<path fill="none" stroke="midnightblue" d="M111.018,-123.557C132.032,-118.762 155.829,-113.33 176.066,-108.712"/>
<polygon fill="midnightblue" stroke="midnightblue" points="177.016,-112.085 185.987,-106.447 175.459,-105.26 177.016,-112.085"/>
</g>
<!-- Node9 -->
<g id="node7" class="node"><title>Node9</title>
<g id="a_node7"><a xlink:href="class____internal_report_1_1____report_system.html#acd358cbc59625c6e2f47e0b5f825400d" target="_top" xlink:title="Method to report an Error. &#160;It will be displayed if Level &#160;is equal or higher to VerboseLevel::ERROR...">
<polygon fill="white" stroke="black" points="166,-39 166,-69 282,-69 282,-39 166,-39"/>
<text text-anchor="start" x="174" y="-57" font-family="Helvetica,sans-Serif" font-size="10.00">__internalReport::</text>
<text text-anchor="middle" x="224" y="-46" font-family="Helvetica,sans-Serif" font-size="10.00">__reportSystem::report</text>
</a>
</g>
</g>
<!-- Node3&#45;&gt;Node9 -->
<g id="edge6" class="edge"><title>Node3&#45;&gt;Node9</title>
<path fill="none" stroke="midnightblue" d="M77.2371,-120.876C95.0601,-108.393 121.799,-90.8619 147,-79 151.672,-76.8011 156.589,-74.7137 161.582,-72.7518"/>
<polygon fill="midnightblue" stroke="midnightblue" points="163.096,-75.9223 171.233,-69.1371 160.641,-69.3669 163.096,-75.9223"/>
</g>
<!-- Node10 -->
<g id="node8" class="node"><title>Node10</title>
<g id="a_node8"><a xlink:href="classsequences_matrix.html#a8b3882d2dcc73938707486c189908abf" target="_top" xlink:title="Method that reorders the stored sequences with a given order list. ">
<polygon fill="white" stroke="black" points="157,-0.5 157,-19.5 291,-19.5 291,-0.5 157,-0.5"/>
<text text-anchor="middle" x="224" y="-7.5" font-family="Helvetica,sans-Serif" font-size="10.00">sequencesMatrix::setOrder</text>
</a>
</g>
</g>
<!-- Node3&#45;&gt;Node10 -->
<g id="edge7" class="edge"><title>Node3&#45;&gt;Node10</title>
<path fill="none" stroke="midnightblue" d="M65.2318,-120.802C79.3671,-97.5963 109.499,-53.5488 147,-30 151.116,-27.4152 155.559,-25.1625 160.157,-23.1994"/>
<polygon fill="midnightblue" stroke="midnightblue" points="161.646,-26.378 169.759,-19.5635 159.167,-19.8316 161.646,-26.378"/>
</g>
</g>
</svg>
