<?xml version="1.0" encoding="UTF-8" standalone="no"?>
<!DOCTYPE svg PUBLIC "-//W3C//DTD SVG 1.1//EN"
 "http://www.w3.org/Graphics/SVG/1.1/DTD/svg11.dtd">
<!-- Generated by graphviz version 2.40.1 (20161225.0304)
 -->
<!-- Title: trimAlManager::check_compareset_window_argument Pages: 1 -->
<svg width="590pt" height="39pt"
 viewBox="0.00 0.00 590.00 39.00" xmlns="http://www.w3.org/2000/svg" xmlns:xlink="http://www.w3.org/1999/xlink">
<g id="graph0" class="graph" transform="scale(1 1) rotate(0) translate(4 35)">
<title>trimAlManager::check_compareset_window_argument</title>
<polygon fill="#ffffff" stroke="transparent" points="-4,4 -4,-35 586,-35 586,4 -4,4"/>
<!-- Node164 -->
<g id="node1" class="node">
<title>Node164</title>
<polygon fill="#bfbfbf" stroke="#000000" points="0,-.5 0,-30.5 157,-30.5 157,-.5 0,-.5"/>
<text text-anchor="start" x="8" y="-18.5" font-family="Helvetica,sans-Serif" font-size="10.00" fill="#000000">trimAlManager::check</text>
<text text-anchor="middle" x="78.5" y="-7.5" font-family="Helvetica,sans-Serif" font-size="10.00" fill="#000000">_compareset_window_argument</text>
</g>
<!-- Node165 -->
<g id="node2" class="node">
<title>Node165</title>
<g id="a_node2"><a xlink:href="classtrim_al_manager.html#a3f325b806727751394adb829d97b35f1" target="_top" xlink:title="Method that checks dependencies between arguments. Take in mind that dependencies may be between mult...">
<polygon fill="#ffffff" stroke="#000000" points="193,-.5 193,-30.5 305,-30.5 305,-.5 193,-.5"/>
<text text-anchor="start" x="201" y="-18.5" font-family="Helvetica,sans-Serif" font-size="10.00" fill="#000000">trimAlManager::check</text>
<text text-anchor="middle" x="249" y="-7.5" font-family="Helvetica,sans-Serif" font-size="10.00" fill="#000000">_arguments_needs</text>
</a>
</g>
</g>
<!-- Node164&#45;&gt;Node165 -->
<g id="edge1" class="edge">
<title>Node164&#45;&gt;Node165</title>
<path fill="none" stroke="#191970" d="M167.4412,-15.5C176.1109,-15.5 184.7295,-15.5 192.9376,-15.5"/>
<polygon fill="#191970" stroke="#191970" points="167.262,-12.0001 157.2619,-15.5 167.2619,-19.0001 167.262,-12.0001"/>
</g>
<!-- Node166 -->
<g id="node3" class="node">
<title>Node166</title>
<g id="a_node3"><a xlink:href="classtrim_al_manager.html#a748b08a1ec5cd214de804ed0d4234a6e" target="_top" xlink:title="Method to process the information obtained by trimAlManager::parseArguments It checks for argument in...">
<polygon fill="#ffffff" stroke="#000000" points="341,-6 341,-25 508,-25 508,-6 341,-6"/>
<text text-anchor="middle" x="424.5" y="-13" font-family="Helvetica,sans-Serif" font-size="10.00" fill="#000000">trimAlManager::processArguments</text>
</a>
</g>
</g>
<!-- Node165&#45;&gt;Node166 -->
<g id="edge2" class="edge">
<title>Node165&#45;&gt;Node166</title>
<path fill="none" stroke="#191970" d="M315.1146,-15.5C323.5308,-15.5 332.2302,-15.5 340.876,-15.5"/>
<polygon fill="#191970" stroke="#191970" points="315.0119,-12.0001 305.0118,-15.5 315.0118,-19.0001 315.0119,-12.0001"/>
</g>
<!-- Node167 -->
<g id="node4" class="node">
<title>Node167</title>
<g id="a_node4"><a xlink:href="trim_al_main_8cpp.html#a0ddf1224851353fc92bfbff6f499fa97" target="_top" xlink:title="main">
<polygon fill="#ffffff" stroke="#000000" points="544,-6 544,-25 582,-25 582,-6 544,-6"/>
<text text-anchor="middle" x="563" y="-13" font-family="Helvetica,sans-Serif" font-size="10.00" fill="#000000">main</text>
</a>
</g>
</g>
<!-- Node166&#45;&gt;Node167 -->
<g id="edge3" class="edge">
<title>Node166&#45;&gt;Node167</title>
<path fill="none" stroke="#191970" d="M518.301,-15.5C527.7267,-15.5 536.4553,-15.5 543.6511,-15.5"/>
<polygon fill="#191970" stroke="#191970" points="518.2612,-12.0001 508.2611,-15.5 518.2611,-19.0001 518.2612,-12.0001"/>
</g>
</g>
</svg>
