<?xml version="1.0" encoding="UTF-8" standalone="no"?>
<!DOCTYPE svg PUBLIC "-//W3C//DTD SVG 1.1//EN"
 "http://www.w3.org/Graphics/SVG/1.1/DTD/svg11.dtd">
<!-- Generated by graphviz version 2.40.1 (20161225.0304)
 -->
<!-- Title: statistics::Similarity::calculateMatrixIdentity Pages: 1 -->
<svg width="1724pt" height="382pt"
 viewBox="0.00 0.00 1724.00 382.00" xmlns="http://www.w3.org/2000/svg" xmlns:xlink="http://www.w3.org/1999/xlink">
<g id="graph0" class="graph" transform="scale(1 1) rotate(0) translate(4 378)">
<title>statistics::Similarity::calculateMatrixIdentity</title>
<polygon fill="#ffffff" stroke="transparent" points="-4,4 -4,-378 1720,-378 1720,4 -4,4"/>
<!-- Node121 -->
<g id="node1" class="node">
<title>Node121</title>
<polygon fill="#bfbfbf" stroke="#000000" points="0,-257 0,-287 121,-287 121,-257 0,-257"/>
<text text-anchor="start" x="8" y="-275" font-family="Helvetica,sans-Serif" font-size="10.00" fill="#000000">statistics::Similarity</text>
<text text-anchor="middle" x="60.5" y="-264" font-family="Helvetica,sans-Serif" font-size="10.00" fill="#000000">::calculateMatrixIdentity</text>
</g>
<!-- Node122 -->
<g id="node2" class="node">
<title>Node122</title>
<g id="a_node2"><a xlink:href="classstatistics_1_1_similarity.html#ae69ec0e79912ae23c8cfe97358c4794d" target="_top" xlink:title="Method to calculate the similarity values of a alignment matrix. ">
<polygon fill="#ffffff" stroke="#000000" points="157,-257 157,-287 260,-287 260,-257 157,-257"/>
<text text-anchor="start" x="165" y="-275" font-family="Helvetica,sans-Serif" font-size="10.00" fill="#000000">statistics::Similarity</text>
<text text-anchor="middle" x="208.5" y="-264" font-family="Helvetica,sans-Serif" font-size="10.00" fill="#000000">::calculateVectors</text>
</a>
</g>
</g>
<!-- Node121&#45;&gt;Node122 -->
<g id="edge1" class="edge">
<title>Node121&#45;&gt;Node122</title>
<path fill="none" stroke="#191970" d="M131.1765,-272C139.7869,-272 148.4575,-272 156.7205,-272"/>
<polygon fill="#191970" stroke="#191970" points="131.1243,-268.5001 121.1243,-272 131.1243,-275.5001 131.1243,-268.5001"/>
</g>
<!-- Node123 -->
<g id="node3" class="node">
<title>Node123</title>
<g id="a_node3"><a xlink:href="classstatistics_1_1_manager.html#a92505ca5aedc5b45c4300a0e8a7d1e17" target="_top" xlink:title="Method to handle similarity stat calculation It checks if the similarity submodule has been created...">
<polygon fill="#ffffff" stroke="#000000" points="617,-279 617,-309 760,-309 760,-279 617,-279"/>
<text text-anchor="start" x="625" y="-297" font-family="Helvetica,sans-Serif" font-size="10.00" fill="#000000">statistics::Manager</text>
<text text-anchor="middle" x="688.5" y="-286" font-family="Helvetica,sans-Serif" font-size="10.00" fill="#000000">::calculateConservationStats</text>
</a>
</g>
</g>
<!-- Node122&#45;&gt;Node123 -->
<g id="edge2" class="edge">
<title>Node122&#45;&gt;Node123</title>
<path fill="none" stroke="#191970" d="M270.5248,-274.8428C359.4185,-278.9171 522.6689,-286.3994 616.6848,-290.7085"/>
<polygon fill="#191970" stroke="#191970" points="270.4743,-271.3369 260.3245,-274.3753 270.1537,-278.3296 270.4743,-271.3369"/>
</g>
<!-- Node136 -->
<g id="node16" class="node">
<title>Node136</title>
<g id="a_node16"><a xlink:href="classstatistics_1_1_similarity.html#adcb5627b9704850e85433fc40c19db17" target="_top" xlink:title="Allows us compute the conservationWindow&#39;s values. ">
<polygon fill="#ffffff" stroke="#000000" points="296,-235 296,-265 399,-265 399,-235 296,-235"/>
<text text-anchor="start" x="304" y="-253" font-family="Helvetica,sans-Serif" font-size="10.00" fill="#000000">statistics::Similarity</text>
<text text-anchor="middle" x="347.5" y="-242" font-family="Helvetica,sans-Serif" font-size="10.00" fill="#000000">::applyWindow</text>
</a>
</g>
</g>
<!-- Node122&#45;&gt;Node136 -->
<g id="edge19" class="edge">
<title>Node122&#45;&gt;Node136</title>
<path fill="none" stroke="#191970" d="M270.1632,-262.2404C278.6896,-260.8909 287.3753,-259.5161 295.6983,-258.1988"/>
<polygon fill="#191970" stroke="#191970" points="269.5883,-258.7877 260.2585,-263.808 270.6827,-265.7016 269.5883,-258.7877"/>
</g>
<!-- Node124 -->
<g id="node4" class="node">
<title>Node124</title>
<g id="a_node4"><a xlink:href="class_cleaner.html#a4718e31c0183b5a98751d77479faacf0" target="_top" xlink:title="Method to trim an alignment based on the similarity and gaps distribution values. ...">
<polygon fill="#ffffff" stroke="#000000" points="844.5,-196.5 844.5,-215.5 924.5,-215.5 924.5,-196.5 844.5,-196.5"/>
<text text-anchor="middle" x="884.5" y="-203.5" font-family="Helvetica,sans-Serif" font-size="10.00" fill="#000000">Cleaner::clean</text>
</a>
</g>
</g>
<!-- Node123&#45;&gt;Node124 -->
<g id="edge3" class="edge">
<title>Node123&#45;&gt;Node124</title>
<path fill="none" stroke="#191970" d="M720.0411,-273.6579C744.5872,-258.5442 779.927,-238.3212 813,-225 822.8885,-221.0171 833.8809,-217.6196 844.2218,-214.8466"/>
<polygon fill="#191970" stroke="#191970" points="718.1472,-270.7141 711.5104,-278.9727 721.8487,-276.6554 718.1472,-270.7141"/>
</g>
<!-- Node130 -->
<g id="node10" class="node">
<title>Node130</title>
<g id="a_node10"><a xlink:href="class_cleaner.html#a6727a235afa29f08a50716f28fa5c8fc" target="_top" xlink:title="Method to clean an alignment. It carries out strict and strictplus. The method: ">
<polygon fill="#ffffff" stroke="#000000" points="813,-234.5 813,-253.5 956,-253.5 956,-234.5 813,-234.5"/>
<text text-anchor="middle" x="884.5" y="-241.5" font-family="Helvetica,sans-Serif" font-size="10.00" fill="#000000">Cleaner::cleanCombMethods</text>
</a>
</g>
</g>
<!-- Node123&#45;&gt;Node130 -->
<g id="edge9" class="edge">
<title>Node123&#45;&gt;Node130</title>
<path fill="none" stroke="#191970" d="M757.3594,-276.4338C787.5154,-268.741 821.7211,-260.015 847.0515,-253.5532"/>
<polygon fill="#191970" stroke="#191970" points="756.131,-273.135 747.3065,-278.9984 757.8613,-279.9178 756.131,-273.135"/>
</g>
<!-- Node132 -->
<g id="node12" class="node">
<title>Node132</title>
<g id="a_node12"><a xlink:href="class_cleaner.html#a9cdbd6ebf78a284dd065b31319795b0c" target="_top" xlink:title="Method to trim an alignment based on the similarity distribution values. ">
<polygon fill="#ffffff" stroke="#000000" points="816,-158.5 816,-177.5 953,-177.5 953,-158.5 816,-158.5"/>
<text text-anchor="middle" x="884.5" y="-165.5" font-family="Helvetica,sans-Serif" font-size="10.00" fill="#000000">Cleaner::cleanConservation</text>
</a>
</g>
</g>
<!-- Node123&#45;&gt;Node132 -->
<g id="edge12" class="edge">
<title>Node123&#45;&gt;Node132</title>
<path fill="none" stroke="#191970" d="M708.685,-271.4164C731.6389,-247.0912 771.3616,-208.9342 813,-187 820.2728,-183.1689 828.3779,-180.0658 836.4447,-177.5662"/>
<polygon fill="#191970" stroke="#191970" points="706.0786,-269.0797 701.8405,-278.79 711.209,-273.842 706.0786,-269.0797"/>
</g>
<!-- Node133 -->
<g id="node13" class="node">
<title>Node133</title>
<g id="a_node13"><a xlink:href="classstatistics_1_1_manager.html#a080c687f8f355900511485eeec32a659" target="_top" xlink:title="Wrapper to Statistics::Similarity::printConservationAcl() It calls to calculateConservationStats() to...">
<polygon fill="#ffffff" stroke="#000000" points="814.5,-272.5 814.5,-313.5 954.5,-313.5 954.5,-272.5 814.5,-272.5"/>
<text text-anchor="start" x="822.5" y="-301.5" font-family="Helvetica,sans-Serif" font-size="10.00" fill="#000000">statistics::Manager</text>
<text text-anchor="start" x="822.5" y="-290.5" font-family="Helvetica,sans-Serif" font-size="10.00" fill="#000000">::printStatisticsConservation</text>
<text text-anchor="middle" x="884.5" y="-279.5" font-family="Helvetica,sans-Serif" font-size="10.00" fill="#000000">Columns</text>
</a>
</g>
</g>
<!-- Node123&#45;&gt;Node133 -->
<g id="edge14" class="edge">
<title>Node123&#45;&gt;Node133</title>
<path fill="none" stroke="#191970" d="M770.1718,-293.5833C784.8717,-293.5083 800.0759,-293.4307 814.4109,-293.3576"/>
<polygon fill="#191970" stroke="#191970" points="770.0745,-290.0837 760.0925,-293.6347 770.1102,-297.0836 770.0745,-290.0837"/>
</g>
<!-- Node135 -->
<g id="node15" class="node">
<title>Node135</title>
<g id="a_node15"><a xlink:href="classstatistics_1_1_manager.html#aa20cfb477826035386ea988e3706b09a" target="_top" xlink:title="Wrapper to Statistics::Similarity::printGapsTotal() It calls to calculateConservationStats() to make ...">
<polygon fill="#ffffff" stroke="#000000" points="814.5,-332.5 814.5,-373.5 954.5,-373.5 954.5,-332.5 814.5,-332.5"/>
<text text-anchor="start" x="822.5" y="-361.5" font-family="Helvetica,sans-Serif" font-size="10.00" fill="#000000">statistics::Manager</text>
<text text-anchor="start" x="822.5" y="-350.5" font-family="Helvetica,sans-Serif" font-size="10.00" fill="#000000">::printStatisticsConservation</text>
<text text-anchor="middle" x="884.5" y="-339.5" font-family="Helvetica,sans-Serif" font-size="10.00" fill="#000000">Total</text>
</a>
</g>
</g>
<!-- Node123&#45;&gt;Node135 -->
<g id="edge17" class="edge">
<title>Node123&#45;&gt;Node135</title>
<path fill="none" stroke="#191970" d="M748.1083,-311.9433C769.5816,-318.4072 793.9759,-325.7504 816.1379,-332.4216"/>
<polygon fill="#191970" stroke="#191970" points="749.0507,-308.5719 738.4662,-309.0408 747.0329,-315.2748 749.0507,-308.5719"/>
</g>
<!-- Node125 -->
<g id="node5" class="node">
<title>Node125</title>
<g id="a_node5"><a xlink:href="classtrim_al_manager.html#aebfd21b0435302f0e4fc45a068d1b6ee" target="_top" xlink:title="Method to trim the alignment using non automatic methods: ">
<polygon fill="#ffffff" stroke="#000000" points="1002.5,-162 1002.5,-192 1154.5,-192 1154.5,-162 1002.5,-162"/>
<text text-anchor="start" x="1010.5" y="-180" font-family="Helvetica,sans-Serif" font-size="10.00" fill="#000000">trimAlManager::CleanResidues</text>
<text text-anchor="middle" x="1078.5" y="-169" font-family="Helvetica,sans-Serif" font-size="10.00" fill="#000000">NonAuto</text>
</a>
</g>
</g>
<!-- Node124&#45;&gt;Node125 -->
<g id="edge4" class="edge">
<title>Node124&#45;&gt;Node125</title>
<path fill="none" stroke="#191970" d="M934.7838,-198.4833C955.3575,-195.4079 979.6146,-191.7818 1002.2829,-188.3933"/>
<polygon fill="#191970" stroke="#191970" points="934.0696,-195.0511 924.6969,-199.9912 935.1045,-201.9742 934.0696,-195.0511"/>
</g>
<!-- Node126 -->
<g id="node6" class="node">
<title>Node126</title>
<g id="a_node6"><a xlink:href="classtrim_al_manager.html#adc529dd893ed4e9df6f3ddbd58776068" target="_top" xlink:title="Core Method of the program. This is where almost all cleaning methods are called from. ">
<polygon fill="#ffffff" stroke="#000000" points="1201,-162 1201,-192 1310,-192 1310,-162 1201,-162"/>
<text text-anchor="start" x="1209" y="-180" font-family="Helvetica,sans-Serif" font-size="10.00" fill="#000000">trimAlManager::clean</text>
<text text-anchor="middle" x="1255.5" y="-169" font-family="Helvetica,sans-Serif" font-size="10.00" fill="#000000">_alignment</text>
</a>
</g>
</g>
<!-- Node125&#45;&gt;Node126 -->
<g id="edge5" class="edge">
<title>Node125&#45;&gt;Node126</title>
<path fill="none" stroke="#191970" d="M1164.8525,-177C1177.1085,-177 1189.4193,-177 1200.8442,-177"/>
<polygon fill="#191970" stroke="#191970" points="1164.5912,-173.5001 1154.5911,-177 1164.5911,-180.5001 1164.5912,-173.5001"/>
</g>
<!-- Node127 -->
<g id="node7" class="node">
<title>Node127</title>
<g id="a_node7"><a xlink:href="classtrim_al_manager.html#a7c641a1feff33d401b4ea5c82e989289" target="_top" xlink:title="trimAlManager::innerPerform">
<polygon fill="#ffffff" stroke="#000000" points="1346,-132.5 1346,-151.5 1487,-151.5 1487,-132.5 1346,-132.5"/>
<text text-anchor="middle" x="1416.5" y="-139.5" font-family="Helvetica,sans-Serif" font-size="10.00" fill="#000000">trimAlManager::innerPerform</text>
</a>
</g>
</g>
<!-- Node126&#45;&gt;Node127 -->
<g id="edge6" class="edge">
<title>Node126&#45;&gt;Node127</title>
<path fill="none" stroke="#191970" d="M1320.24,-162.9261C1337.8713,-159.0932 1356.5523,-155.0321 1372.7187,-151.5177"/>
<polygon fill="#191970" stroke="#191970" points="1319.0355,-159.6061 1310.0073,-165.1506 1320.5226,-166.4463 1319.0355,-159.6061"/>
</g>
<!-- Node128 -->
<g id="node8" class="node">
<title>Node128</title>
<g id="a_node8"><a xlink:href="classtrim_al_manager.html#abe8d2841455c644dc9c7d1294b82b00f" target="_top" xlink:title="Method to perform the analysis if all checks have passed. ">
<polygon fill="#ffffff" stroke="#000000" points="1523,-132.5 1523,-151.5 1642,-151.5 1642,-132.5 1523,-132.5"/>
<text text-anchor="middle" x="1582.5" y="-139.5" font-family="Helvetica,sans-Serif" font-size="10.00" fill="#000000">trimAlManager::perform</text>
</a>
</g>
</g>
<!-- Node127&#45;&gt;Node128 -->
<g id="edge7" class="edge">
<title>Node127&#45;&gt;Node128</title>
<path fill="none" stroke="#191970" d="M1497.4012,-142C1505.9677,-142 1514.564,-142 1522.8249,-142"/>
<polygon fill="#191970" stroke="#191970" points="1497.3805,-138.5001 1487.3804,-142 1497.3804,-145.5001 1497.3805,-138.5001"/>
</g>
<!-- Node129 -->
<g id="node9" class="node">
<title>Node129</title>
<g id="a_node9"><a xlink:href="trim_al_main_8cpp.html#a0ddf1224851353fc92bfbff6f499fa97" target="_top" xlink:title="main">
<polygon fill="#ffffff" stroke="#000000" points="1678,-132.5 1678,-151.5 1716,-151.5 1716,-132.5 1678,-132.5"/>
<text text-anchor="middle" x="1697" y="-139.5" font-family="Helvetica,sans-Serif" font-size="10.00" fill="#000000">main</text>
</a>
</g>
</g>
<!-- Node128&#45;&gt;Node129 -->
<g id="edge8" class="edge">
<title>Node128&#45;&gt;Node129</title>
<path fill="none" stroke="#191970" d="M1652.3198,-142C1661.6177,-142 1670.4503,-142 1677.7697,-142"/>
<polygon fill="#191970" stroke="#191970" points="1652.0976,-138.5001 1642.0976,-142 1652.0975,-145.5001 1652.0976,-138.5001"/>
</g>
<!-- Node131 -->
<g id="node11" class="node">
<title>Node131</title>
<g id="a_node11"><a xlink:href="classtrim_al_manager.html#a69082911b30a1bd12395bb235bc18a34" target="_top" xlink:title="Method to trim the alignment using automatic or semi&#45;automatic methods: ">
<polygon fill="#ffffff" stroke="#000000" points="992,-218.5 992,-237.5 1165,-237.5 1165,-218.5 992,-218.5"/>
<text text-anchor="middle" x="1078.5" y="-225.5" font-family="Helvetica,sans-Serif" font-size="10.00" fill="#000000">trimAlManager::CleanResiduesAuto</text>
</a>
</g>
</g>
<!-- Node130&#45;&gt;Node131 -->
<g id="edge10" class="edge">
<title>Node130&#45;&gt;Node131</title>
<path fill="none" stroke="#191970" d="M966.4097,-237.2446C974.8688,-236.5469 983.4848,-235.8363 991.9919,-235.1347"/>
<polygon fill="#191970" stroke="#191970" points="965.8657,-233.7775 956.1873,-238.0876 966.4411,-240.7538 965.8657,-233.7775"/>
</g>
<!-- Node131&#45;&gt;Node126 -->
<g id="edge11" class="edge">
<title>Node131&#45;&gt;Node126</title>
<path fill="none" stroke="#191970" d="M1121.5681,-215.5905C1146.1779,-208.4996 1177.2187,-199.5556 1203.219,-192.064"/>
<polygon fill="#191970" stroke="#191970" points="1120.4323,-212.2753 1111.7923,-218.4073 1122.3705,-219.0017 1120.4323,-212.2753"/>
</g>
<!-- Node132&#45;&gt;Node125 -->
<g id="edge13" class="edge">
<title>Node132&#45;&gt;Node125</title>
<path fill="none" stroke="#191970" d="M963.3714,-171.659C976.232,-172.2556 989.5334,-172.8727 1002.3274,-173.4662"/>
<polygon fill="#191970" stroke="#191970" points="963.3216,-168.153 953.1702,-171.1857 962.9972,-175.1455 963.3216,-168.153"/>
</g>
<!-- Node134 -->
<g id="node14" class="node">
<title>Node134</title>
<g id="a_node14"><a xlink:href="classtrim_al_manager.html#afc48b86f5ae35b9a5e721b65c58bf610" target="_top" xlink:title="Method to print statistics requested. ">
<polygon fill="#ffffff" stroke="#000000" points="1026.5,-278 1026.5,-308 1130.5,-308 1130.5,-278 1026.5,-278"/>
<text text-anchor="start" x="1034.5" y="-296" font-family="Helvetica,sans-Serif" font-size="10.00" fill="#000000">trimAlManager::print</text>
<text text-anchor="middle" x="1078.5" y="-285" font-family="Helvetica,sans-Serif" font-size="10.00" fill="#000000">_statistics</text>
</a>
</g>
</g>
<!-- Node133&#45;&gt;Node134 -->
<g id="edge15" class="edge">
<title>Node133&#45;&gt;Node134</title>
<path fill="none" stroke="#191970" d="M964.6406,-293C985.429,-293 1007.2832,-293 1026.2244,-293"/>
<polygon fill="#191970" stroke="#191970" points="964.5385,-289.5001 954.5385,-293 964.5384,-296.5001 964.5385,-289.5001"/>
</g>
<!-- Node134&#45;&gt;Node127 -->
<g id="edge16" class="edge">
<title>Node134&#45;&gt;Node127</title>
<path fill="none" stroke="#191970" d="M1130.4598,-274.5171C1177.9145,-257.1296 1249.6577,-229.5619 1310,-201 1343.0519,-185.3555 1380.0686,-163.9114 1400.5972,-151.6507"/>
<polygon fill="#191970" stroke="#191970" points="1129.2054,-271.249 1121.0093,-277.9628 1131.6033,-277.8255 1129.2054,-271.249"/>
</g>
<!-- Node135&#45;&gt;Node134 -->
<g id="edge18" class="edge">
<title>Node135&#45;&gt;Node134</title>
<path fill="none" stroke="#191970" d="M960.8343,-329.3915C984.0745,-322.2038 1008.9744,-314.5028 1029.8566,-308.0443"/>
<polygon fill="#191970" stroke="#191970" points="959.5117,-326.1368 950.9924,-332.4353 961.5801,-332.8243 959.5117,-326.1368"/>
</g>
<!-- Node136&#45;&gt;Node123 -->
<g id="edge20" class="edge">
<title>Node136&#45;&gt;Node123</title>
<path fill="none" stroke="#191970" d="M409.491,-257.9988C467.9351,-265.54 555.4827,-276.8365 616.8837,-284.7592"/>
<polygon fill="#191970" stroke="#191970" points="409.6563,-254.4912 399.2906,-256.6827 408.7604,-261.4337 409.6563,-254.4912"/>
</g>
<!-- Node137 -->
<g id="node17" class="node">
<title>Node137</title>
<g id="a_node17"><a xlink:href="classstatistics_1_1_similarity.html#a1b65c85328f09fa0637365d11fb386b4" target="_top" xlink:title="This methods returns a pointer to conservationWindow&#39;s vector. ">
<polygon fill="#ffffff" stroke="#000000" points="435,-131 435,-161 564,-161 564,-131 435,-131"/>
<text text-anchor="start" x="443" y="-149" font-family="Helvetica,sans-Serif" font-size="10.00" fill="#000000">statistics::Similarity</text>
<text text-anchor="middle" x="499.5" y="-138" font-family="Helvetica,sans-Serif" font-size="10.00" fill="#000000">::getMdkWindowedVector</text>
</a>
</g>
</g>
<!-- Node136&#45;&gt;Node137 -->
<g id="edge21" class="edge">
<title>Node136&#45;&gt;Node137</title>
<path fill="none" stroke="#191970" d="M378.2338,-228.9716C407.6306,-208.858 451.2429,-179.018 477.3712,-161.1407"/>
<polygon fill="#191970" stroke="#191970" points="375.8788,-226.342 369.6021,-234.8775 379.8316,-232.1192 375.8788,-226.342"/>
</g>
<!-- Node137&#45;&gt;Node124 -->
<g id="edge31" class="edge">
<title>Node137&#45;&gt;Node124</title>
<path fill="none" stroke="#191970" d="M534.433,-165.9778C553.2354,-175.6878 577.1944,-186.4382 600,-192 685.0379,-212.7389 788.4875,-211.4924 844.2371,-208.7481"/>
<polygon fill="#191970" stroke="#191970" points="535.8496,-162.7673 525.375,-161.1753 532.5706,-168.9519 535.8496,-162.7673"/>
</g>
<!-- Node137&#45;&gt;Node130 -->
<g id="edge32" class="edge">
<title>Node137&#45;&gt;Node130</title>
<path fill="none" stroke="#191970" d="M523.0375,-167.6755C542.2315,-183.9664 570.8477,-205.2513 600,-216 669.1513,-241.4967 753.8079,-246.835 812.7124,-246.8224"/>
<polygon fill="#191970" stroke="#191970" points="525.2565,-164.9668 515.4143,-161.0447 520.6625,-170.2484 525.2565,-164.9668"/>
</g>
<!-- Node137&#45;&gt;Node132 -->
<g id="edge30" class="edge">
<title>Node137&#45;&gt;Node132</title>
<path fill="none" stroke="#191970" d="M574.4063,-140.1465C630.3998,-136.9925 708.7323,-135.1664 777,-143 802.5087,-145.9271 830.7665,-152.6395 851.9065,-158.3726"/>
<polygon fill="#191970" stroke="#191970" points="573.9945,-136.6646 564.2185,-140.7488 574.4077,-143.6524 573.9945,-136.6646"/>
</g>
<!-- Node138 -->
<g id="node18" class="node">
<title>Node138</title>
<g id="a_node18"><a xlink:href="class_alignment.html#a3754dfadea173918f5e85b9eb4c3ad8a" target="_top" xlink:title="Method to report the trimming results in HTML. Outputs an HTML file that shows visually what has been...">
<polygon fill="#ffffff" stroke="#000000" points="600,-76.5 600,-95.5 777,-95.5 777,-76.5 600,-76.5"/>
<text text-anchor="middle" x="688.5" y="-83.5" font-family="Helvetica,sans-Serif" font-size="10.00" fill="#000000">Alignment::alignmentSummaryHTML</text>
</a>
</g>
</g>
<!-- Node137&#45;&gt;Node138 -->
<g id="edge22" class="edge">
<title>Node137&#45;&gt;Node138</title>
<path fill="none" stroke="#191970" d="M549.1249,-127.3449C565.2591,-121.5162 583.3075,-115.244 600,-110 616.5546,-104.7993 635.056,-99.6763 650.8453,-95.5078"/>
<polygon fill="#191970" stroke="#191970" points="547.5537,-124.1922 539.3557,-130.9037 549.9497,-130.7694 547.5537,-124.1922"/>
</g>
<!-- Node140 -->
<g id="node20" class="node">
<title>Node140</title>
<g id="a_node20"><a xlink:href="class_alignment.html#a724218d5e7d168974d9abcafcde632a1" target="_top" xlink:title="Alignment::statSVG">
<polygon fill="#ffffff" stroke="#000000" points="636.5,-.5 636.5,-19.5 740.5,-19.5 740.5,-.5 636.5,-.5"/>
<text text-anchor="middle" x="688.5" y="-7.5" font-family="Helvetica,sans-Serif" font-size="10.00" fill="#000000">Alignment::statSVG</text>
</a>
</g>
</g>
<!-- Node137&#45;&gt;Node140 -->
<g id="edge25" class="edge">
<title>Node137&#45;&gt;Node140</title>
<path fill="none" stroke="#191970" d="M513.4724,-121.8284C530.401,-94.8192 561.4961,-51.887 600,-29 610.9418,-22.4961 623.8195,-18.2058 636.3126,-15.3794"/>
<polygon fill="#191970" stroke="#191970" points="510.3055,-120.299 508.0864,-130.6589 516.2817,-123.9441 510.3055,-120.299"/>
</g>
<!-- Node142 -->
<g id="node22" class="node">
<title>Node142</title>
<g id="a_node22"><a xlink:href="class_alignment.html#ac4196c026e0f482eaccf9976f82f72e3" target="_top" xlink:title="Method to report the trimming results in SVG. Outputs a SVG file that shows visually what has been do...">
<polygon fill="#ffffff" stroke="#000000" points="603,-38.5 603,-57.5 774,-57.5 774,-38.5 603,-38.5"/>
<text text-anchor="middle" x="688.5" y="-45.5" font-family="Helvetica,sans-Serif" font-size="10.00" fill="#000000">Alignment::alignmentSummarySVG</text>
</a>
</g>
</g>
<!-- Node137&#45;&gt;Node142 -->
<g id="edge28" class="edge">
<title>Node137&#45;&gt;Node142</title>
<path fill="none" stroke="#191970" d="M521.3106,-123.9639C540.4255,-105.9323 569.8056,-81.1719 600,-67 608.2509,-63.1274 617.3059,-60.0343 626.377,-57.5662"/>
<polygon fill="#191970" stroke="#191970" points="518.7924,-121.5298 514.019,-130.9885 523.649,-126.571 518.7924,-121.5298"/>
</g>
<!-- Node143 -->
<g id="node23" class="node">
<title>Node143</title>
<g id="a_node23"><a xlink:href="classstatistics_1_1_similarity.html#a26f430acb8a3240977665de9a9ea875a" target="_top" xlink:title="Computes and selects the cut point values based on similarity&#39;s values. ">
<polygon fill="#ffffff" stroke="#000000" points="637,-153 637,-183 740,-183 740,-153 637,-153"/>
<text text-anchor="start" x="645" y="-171" font-family="Helvetica,sans-Serif" font-size="10.00" fill="#000000">statistics::Similarity</text>
<text text-anchor="middle" x="688.5" y="-160" font-family="Helvetica,sans-Serif" font-size="10.00" fill="#000000">::calcCutPoint</text>
</a>
</g>
</g>
<!-- Node137&#45;&gt;Node143 -->
<g id="edge33" class="edge">
<title>Node137&#45;&gt;Node143</title>
<path fill="none" stroke="#191970" d="M574.1777,-154.6926C595.1427,-157.133 617.4707,-159.732 636.7788,-161.9795"/>
<polygon fill="#191970" stroke="#191970" points="574.3521,-151.1894 564.0145,-153.5096 573.5427,-158.1424 574.3521,-151.1894"/>
</g>
<!-- Node139 -->
<g id="node19" class="node">
<title>Node139</title>
<g id="a_node19"><a xlink:href="classtrim_al_manager.html#a1da8f8b677f19ed8f7e08a663d97bb92" target="_top" xlink:title="trimAlManager::output\l_reports">
<polygon fill="#ffffff" stroke="#000000" points="828,-71 828,-101 941,-101 941,-71 828,-71"/>
<text text-anchor="start" x="836" y="-89" font-family="Helvetica,sans-Serif" font-size="10.00" fill="#000000">trimAlManager::output</text>
<text text-anchor="middle" x="884.5" y="-78" font-family="Helvetica,sans-Serif" font-size="10.00" fill="#000000">_reports</text>
</a>
</g>
</g>
<!-- Node138&#45;&gt;Node139 -->
<g id="edge23" class="edge">
<title>Node138&#45;&gt;Node139</title>
<path fill="none" stroke="#191970" d="M787.1727,-86C801.1082,-86 815.0254,-86 827.7974,-86"/>
<polygon fill="#191970" stroke="#191970" points="787.0385,-82.5001 777.0385,-86 787.0385,-89.5001 787.0385,-82.5001"/>
</g>
<!-- Node139&#45;&gt;Node127 -->
<g id="edge24" class="edge">
<title>Node139&#45;&gt;Node127</title>
<path fill="none" stroke="#191970" d="M951.2463,-93.0259C1052.0794,-103.6399 1242.4035,-123.674 1345.6209,-134.539"/>
<polygon fill="#191970" stroke="#191970" points="951.4927,-89.5326 941.1813,-91.9664 950.7599,-96.4942 951.4927,-89.5326"/>
</g>
<!-- Node141 -->
<g id="node21" class="node">
<title>Node141</title>
<g id="a_node21"><a xlink:href="classtrim_al_manager.html#a63d5bec0938516a2129ccb04276b93d9" target="_top" xlink:title="trimAlManager::svg\l_stats_out">
<polygon fill="#ffffff" stroke="#000000" points="1205,-34 1205,-64 1306,-64 1306,-34 1205,-34"/>
<text text-anchor="start" x="1213" y="-52" font-family="Helvetica,sans-Serif" font-size="10.00" fill="#000000">trimAlManager::svg</text>
<text text-anchor="middle" x="1255.5" y="-41" font-family="Helvetica,sans-Serif" font-size="10.00" fill="#000000">_stats_out</text>
</a>
</g>
</g>
<!-- Node140&#45;&gt;Node141 -->
<g id="edge26" class="edge">
<title>Node140&#45;&gt;Node141</title>
<path fill="none" stroke="#191970" d="M750.7969,-14.285C863.9154,-22.0656 1100.9729,-38.3711 1204.8768,-45.518"/>
<polygon fill="#191970" stroke="#191970" points="750.7895,-10.7763 740.5729,-13.5817 750.3091,-17.7598 750.7895,-10.7763"/>
</g>
<!-- Node141&#45;&gt;Node127 -->
<g id="edge27" class="edge">
<title>Node141&#45;&gt;Node127</title>
<path fill="none" stroke="#191970" d="M1290.7991,-69.3902C1324.5603,-88.892 1374.0152,-117.4591 1399.6679,-132.2771"/>
<polygon fill="#191970" stroke="#191970" points="1292.1356,-66.1203 1281.7258,-64.149 1288.6343,-72.1817 1292.1356,-66.1203"/>
</g>
<!-- Node142&#45;&gt;Node139 -->
<g id="edge29" class="edge">
<title>Node142&#45;&gt;Node139</title>
<path fill="none" stroke="#191970" d="M747.6157,-59.4612C773.1069,-64.4034 802.7875,-70.1578 827.9823,-75.0425"/>
<polygon fill="#191970" stroke="#191970" points="748.1895,-56.0074 737.7061,-57.54 746.8571,-62.8794 748.1895,-56.0074"/>
</g>
<!-- Node143&#45;&gt;Node124 -->
<g id="edge34" class="edge">
<title>Node143&#45;&gt;Node124</title>
<path fill="none" stroke="#191970" d="M750.423,-180.0055C781.0928,-185.9517 817.2416,-192.9601 844.2714,-198.2006"/>
<polygon fill="#191970" stroke="#191970" points="750.7365,-176.5012 740.2531,-178.0338 749.4041,-183.3732 750.7365,-176.5012"/>
</g>
<!-- Node143&#45;&gt;Node132 -->
<g id="edge35" class="edge">
<title>Node143&#45;&gt;Node132</title>
<path fill="none" stroke="#191970" d="M750.2586,-168C771.0975,-168 794.4813,-168 815.8218,-168"/>
<polygon fill="#191970" stroke="#191970" points="750.2531,-164.5001 740.2531,-168 750.253,-171.5001 750.2531,-164.5001"/>
</g>
</g>
</svg>
