<?xml version="1.0" encoding="UTF-8" standalone="no"?>
<!DOCTYPE svg PUBLIC "-//W3C//DTD SVG 1.1//EN"
 "http://www.w3.org/Graphics/SVG/1.1/DTD/svg11.dtd">
<!-- Generated by graphviz version 2.38.0 (20140413.2041)
 -->
<!-- Title: Cleaner Pages: 1 -->
<svg width="853pt" height="520pt"
 viewBox="0.00 0.00 853.00 520.00" xmlns="http://www.w3.org/2000/svg" xmlns:xlink="http://www.w3.org/1999/xlink">
<g id="graph0" class="graph" transform="scale(1 1) rotate(0) translate(4 516)">
<title>Cleaner</title>
<polygon fill="white" stroke="none" points="-4,4 -4,-516 849,-516 849,4 -4,4"/>
<!-- Node1 -->
<g id="node1" class="node"><title>Node1</title>
<polygon fill="#bfbfbf" stroke="black" points="181,-185 181,-204 231,-204 231,-185 181,-185"/>
<text text-anchor="middle" x="206" y="-192" font-family="Helvetica,sans-Serif" font-size="10.00">Cleaner</text>
</g>
<!-- Node2 -->
<g id="node2" class="node"><title>Node2</title>
<g id="a_node2"><a xlink:href="classnew_alignment.html" target="_top" xlink:title="Class containing an alignment &#160;This class stores the alignment sequences with it&#39;s names...">
<polygon fill="white" stroke="black" points="350,-67.5 350,-86.5 428,-86.5 428,-67.5 350,-67.5"/>
<text text-anchor="middle" x="389" y="-74.5" font-family="Helvetica,sans-Serif" font-size="10.00">newAlignment</text>
</a>
</g>
</g>
<!-- Node1&#45;&gt;Node2 -->
<g id="edge18" class="edge"><title>Node1&#45;&gt;Node2</title>
<path fill="none" stroke="#9a32cd" stroke-dasharray="5,2" d="M198.884,-175.308C192.474,-155.544 186.364,-124.225 203,-105 221.576,-83.533 300.827,-78.7744 349.692,-77.9284"/>
<polygon fill="#9a32cd" stroke="#9a32cd" points="195.669,-176.713 202.334,-184.949 202.26,-174.355 195.669,-176.713"/>
<text text-anchor="middle" x="224" y="-130" font-family="Helvetica,sans-Serif" font-size="10.00"> Cleaning</text>
</g>
<!-- Node2&#45;&gt;Node1 -->
<g id="edge1" class="edge"><title>Node2&#45;&gt;Node1</title>
<path fill="none" stroke="#9a32cd" stroke-dasharray="5,2" d="M339.76,-79.2886C316.908,-82.222 290.723,-89.2055 272,-105 251.748,-122.084 265.088,-138.948 249,-160 241.3,-170.076 229.88,-178.782 220.743,-184.792"/>
<polygon fill="#9a32cd" stroke="#9a32cd" points="340.41,-82.7395 349.987,-78.2086 339.674,-75.7782 340.41,-82.7395"/>
<text text-anchor="middle" x="297.5" y="-130" font-family="Helvetica,sans-Serif" font-size="10.00"> _alignment</text>
</g>
<!-- Node6 -->
<g id="node6" class="node"><title>Node6</title>
<g id="a_node6"><a xlink:href="classsequences_matrix.html" target="_top" xlink:title="sequencesMatrix">
<polygon fill="white" stroke="black" points="516.5,-0.5 516.5,-19.5 607.5,-19.5 607.5,-0.5 516.5,-0.5"/>
<text text-anchor="middle" x="562" y="-7.5" font-family="Helvetica,sans-Serif" font-size="10.00">sequencesMatrix</text>
</a>
</g>
</g>
<!-- Node2&#45;&gt;Node6 -->
<g id="edge6" class="edge"><title>Node2&#45;&gt;Node6</title>
<path fill="none" stroke="#9a32cd" stroke-dasharray="5,2" d="M437.857,-68.2202C458.471,-63.9785 482.414,-57.7614 503,-49 512.529,-44.9445 535.42,-29.518 549.725,-19.611"/>
<polygon fill="#9a32cd" stroke="#9a32cd" points="437.173,-64.7875 428.034,-70.1463 438.52,-71.6567 437.173,-64.7875"/>
<text text-anchor="middle" x="548.5" y="-41" font-family="Helvetica,sans-Serif" font-size="10.00"> _alignment</text>
</g>
<!-- Node14 -->
<g id="node14" class="node"><title>Node14</title>
<g id="a_node14"><a xlink:href="class_statistics_manager.html" target="_top" xlink:title="StatisticsManager">
<polygon fill="white" stroke="black" points="233.5,-0.5 233.5,-19.5 328.5,-19.5 328.5,-0.5 233.5,-0.5"/>
<text text-anchor="middle" x="281" y="-7.5" font-family="Helvetica,sans-Serif" font-size="10.00">StatisticsManager</text>
</a>
</g>
</g>
<!-- Node2&#45;&gt;Node14 -->
<g id="edge21" class="edge"><title>Node2&#45;&gt;Node14</title>
<path fill="none" stroke="#9a32cd" stroke-dasharray="5,2" d="M339.654,-70.0295C313.788,-65.7771 285.871,-59.0148 278,-49 271.457,-40.675 274.265,-27.9125 277.291,-19.5113"/>
<polygon fill="#9a32cd" stroke="#9a32cd" points="339.378,-73.5282 349.794,-71.592 340.444,-66.6098 339.378,-73.5282"/>
<text text-anchor="middle" x="303.5" y="-41" font-family="Helvetica,sans-Serif" font-size="10.00"> _alignment</text>
</g>
<!-- Node3 -->
<g id="node3" class="node"><title>Node3</title>
<polygon fill="white" stroke="#bfbfbf" points="648.5,-185 648.5,-204 689.5,-204 689.5,-185 648.5,-185"/>
<text text-anchor="middle" x="669" y="-192" font-family="Helvetica,sans-Serif" font-size="10.00">string</text>
</g>
<!-- Node3&#45;&gt;Node2 -->
<g id="edge2" class="edge"><title>Node3&#45;&gt;Node2</title>
<path fill="none" stroke="#9a32cd" stroke-dasharray="5,2" d="M664.184,-175.259C657.662,-152.014 645.508,-113.784 634,-105 617.992,-92.7804 493.045,-83.9322 428.032,-80.1047"/>
<polygon fill="#9a32cd" stroke="#9a32cd" points="660.832,-176.269 666.835,-184.999 667.586,-174.431 660.832,-176.269"/>
<text text-anchor="middle" x="685.5" y="-152" font-family="Helvetica,sans-Serif" font-size="10.00"> seqsName</text>
<text text-anchor="middle" x="685.5" y="-141" font-family="Helvetica,sans-Serif" font-size="10.00">seqsInfo</text>
<text text-anchor="middle" x="685.5" y="-130" font-family="Helvetica,sans-Serif" font-size="10.00">sequences</text>
<text text-anchor="middle" x="685.5" y="-119" font-family="Helvetica,sans-Serif" font-size="10.00">aligInfo</text>
<text text-anchor="middle" x="685.5" y="-108" font-family="Helvetica,sans-Serif" font-size="10.00">filename</text>
</g>
<!-- Node4 -->
<g id="node4" class="node"><title>Node4</title>
<g id="a_node4"><a xlink:href="classstatistics_gaps.html" target="_top" xlink:title="statisticsGaps">
<polygon fill="white" stroke="black" points="235,-252.5 235,-271.5 315,-271.5 315,-252.5 235,-252.5"/>
<text text-anchor="middle" x="275" y="-259.5" font-family="Helvetica,sans-Serif" font-size="10.00">statisticsGaps</text>
</a>
</g>
</g>
<!-- Node4&#45;&gt;Node2 -->
<g id="edge3" class="edge"><title>Node4&#45;&gt;Node2</title>
<path fill="none" stroke="#9a32cd" stroke-dasharray="5,2" d="M285.808,-243.651C309.609,-205.444 365.842,-115.175 383.557,-86.7379"/>
<polygon fill="#9a32cd" stroke="#9a32cd" points="282.815,-241.835 280.498,-252.174 288.757,-245.536 282.815,-241.835"/>
<text text-anchor="middle" x="340" y="-192" font-family="Helvetica,sans-Serif" font-size="10.00"> sgaps</text>
</g>
<!-- Node5 -->
<g id="node5" class="node"><title>Node5</title>
<polygon fill="white" stroke="#bfbfbf" points="392.5,-492.5 392.5,-511.5 421.5,-511.5 421.5,-492.5 392.5,-492.5"/>
<text text-anchor="middle" x="407" y="-499.5" font-family="Helvetica,sans-Serif" font-size="10.00">int</text>
</g>
<!-- Node5&#45;&gt;Node1 -->
<g id="edge23" class="edge"><title>Node5&#45;&gt;Node1</title>
<path fill="none" stroke="#9a32cd" stroke-dasharray="5,2" d="M381.847,-498.673C346.677,-495.002 285.08,-486.924 267,-474 218.252,-439.152 215.407,-414.908 200,-357 194.972,-338.102 199.501,-332.549 200,-313 201.042,-272.162 204.118,-223.417 205.414,-204.045"/>
<polygon fill="#9a32cd" stroke="#9a32cd" points="381.951,-502.201 392.249,-499.711 382.646,-495.235 381.951,-502.201"/>
<text text-anchor="middle" x="233.5" y="-343.5" font-family="Helvetica,sans-Serif" font-size="10.00"> right_boundary</text>
<text text-anchor="middle" x="233.5" y="-332.5" font-family="Helvetica,sans-Serif" font-size="10.00">blockSize</text>
<text text-anchor="middle" x="233.5" y="-321.5" font-family="Helvetica,sans-Serif" font-size="10.00">left_boundary</text>
</g>
<!-- Node5&#45;&gt;Node2 -->
<g id="edge10" class="edge"><title>Node5&#45;&gt;Node2</title>
<path fill="none" stroke="#9a32cd" stroke-dasharray="5,2" d="M431.668,-500.998C478.183,-500.459 576.319,-496.596 600,-474 652.25,-424.143 624.574,-385.175 622,-313 620.666,-275.595 633.406,-262.135 616,-229 573.738,-148.546 467.181,-103.836 416.545,-86.5087"/>
<polygon fill="#9a32cd" stroke="#9a32cd" points="431.515,-497.499 421.541,-501.072 431.566,-504.499 431.515,-497.499"/>
<text text-anchor="middle" x="662.5" y="-287" font-family="Helvetica,sans-Serif" font-size="10.00"> saveSequences</text>
<text text-anchor="middle" x="662.5" y="-276" font-family="Helvetica,sans-Serif" font-size="10.00">dataType</text>
<text text-anchor="middle" x="662.5" y="-265" font-family="Helvetica,sans-Serif" font-size="10.00">saveResidues</text>
<text text-anchor="middle" x="662.5" y="-254" font-family="Helvetica,sans-Serif" font-size="10.00">residuesNumber</text>
<text text-anchor="middle" x="662.5" y="-243" font-family="Helvetica,sans-Serif" font-size="10.00">residNumber</text>
<text text-anchor="middle" x="662.5" y="-232" font-family="Helvetica,sans-Serif" font-size="10.00">sequenNumber</text>
</g>
<!-- Node5&#45;&gt;Node4 -->
<g id="edge4" class="edge"><title>Node5&#45;&gt;Node4</title>
<path fill="none" stroke="#9a32cd" stroke-dasharray="5,2" d="M382.101,-498.811C350.876,-495.506 299.968,-488.077 288,-474 261.612,-442.963 271.215,-307.081 274.231,-271.535"/>
<polygon fill="#9a32cd" stroke="#9a32cd" points="381.933,-502.311 392.229,-499.812 382.622,-495.345 381.933,-502.311"/>
<text text-anchor="middle" x="340.5" y="-466" font-family="Helvetica,sans-Serif" font-size="10.00"> numColumnsWithGaps</text>
<text text-anchor="middle" x="340.5" y="-455" font-family="Helvetica,sans-Serif" font-size="10.00">columnLength</text>
<text text-anchor="middle" x="340.5" y="-444" font-family="Helvetica,sans-Serif" font-size="10.00">halfWindow</text>
<text text-anchor="middle" x="340.5" y="-433" font-family="Helvetica,sans-Serif" font-size="10.00">gapsWindow</text>
<text text-anchor="middle" x="340.5" y="-422" font-family="Helvetica,sans-Serif" font-size="10.00">maxGaps</text>
<text text-anchor="middle" x="340.5" y="-411" font-family="Helvetica,sans-Serif" font-size="10.00">gapsInColumn</text>
<text text-anchor="middle" x="340.5" y="-400" font-family="Helvetica,sans-Serif" font-size="10.00">dataType</text>
<text text-anchor="middle" x="340.5" y="-389" font-family="Helvetica,sans-Serif" font-size="10.00">aminosXInColumn</text>
<text text-anchor="middle" x="340.5" y="-378" font-family="Helvetica,sans-Serif" font-size="10.00">columns</text>
</g>
<!-- Node5&#45;&gt;Node6 -->
<g id="edge7" class="edge"><title>Node5&#45;&gt;Node6</title>
<path fill="none" stroke="#9a32cd" stroke-dasharray="5,2" d="M431.767,-500.583C500.901,-499.178 692.206,-493.542 712,-474 755.87,-430.688 726,-397.648 726,-336 726,-336 726,-336 726,-76 726,-24.8529 656.209,-12.7759 607.683,-10.5605"/>
<polygon fill="#9a32cd" stroke="#9a32cd" points="431.697,-497.084 421.766,-500.774 431.831,-504.083 431.697,-497.084"/>
<text text-anchor="middle" x="754" y="-203" font-family="Helvetica,sans-Serif" font-size="10.00"> matrix</text>
<text text-anchor="middle" x="754" y="-192" font-family="Helvetica,sans-Serif" font-size="10.00">seqsNumber</text>
<text text-anchor="middle" x="754" y="-181" font-family="Helvetica,sans-Serif" font-size="10.00">resNumber</text>
</g>
<!-- Node9 -->
<g id="node9" class="node"><title>Node9</title>
<g id="a_node9"><a xlink:href="classstatistics_conservation.html" target="_top" xlink:title="statisticsConservation">
<polygon fill="white" stroke="black" points="385,-185 385,-204 499,-204 499,-185 385,-185"/>
<text text-anchor="middle" x="442" y="-192" font-family="Helvetica,sans-Serif" font-size="10.00">statisticsConservation</text>
</a>
</g>
</g>
<!-- Node5&#45;&gt;Node9 -->
<g id="edge13" class="edge"><title>Node5&#45;&gt;Node9</title>
<path fill="none" stroke="#9a32cd" stroke-dasharray="5,2" d="M404.985,-481.992C401.796,-447.903 396.833,-374.215 406,-313 412.288,-271.011 430.554,-223.301 438.376,-204.137"/>
<polygon fill="#9a32cd" stroke="#9a32cd" points="401.539,-482.709 406.013,-492.313 408.505,-482.015 401.539,-482.709"/>
<text text-anchor="middle" x="433.5" y="-349" font-family="Helvetica,sans-Serif" font-size="10.00"> halfWindow</text>
<text text-anchor="middle" x="433.5" y="-338" font-family="Helvetica,sans-Serif" font-size="10.00">dataType</text>
<text text-anchor="middle" x="433.5" y="-327" font-family="Helvetica,sans-Serif" font-size="10.00">sequences</text>
<text text-anchor="middle" x="433.5" y="-316" font-family="Helvetica,sans-Serif" font-size="10.00">columns</text>
</g>
<!-- Node12 -->
<g id="node12" class="node"><title>Node12</title>
<g id="a_node12"><a xlink:href="classsimilarity_matrix.html" target="_top" xlink:title="similarityMatrix">
<polygon fill="white" stroke="black" points="530.5,-325.5 530.5,-344.5 613.5,-344.5 613.5,-325.5 530.5,-325.5"/>
<text text-anchor="middle" x="572" y="-332.5" font-family="Helvetica,sans-Serif" font-size="10.00">similarityMatrix</text>
</a>
</g>
</g>
<!-- Node5&#45;&gt;Node12 -->
<g id="edge17" class="edge"><title>Node5&#45;&gt;Node12</title>
<path fill="none" stroke="#9a32cd" stroke-dasharray="5,2" d="M423.25,-484.75C457.754,-450.246 537.312,-370.688 563.484,-344.516"/>
<polygon fill="#9a32cd" stroke="#9a32cd" points="420.467,-482.583 415.871,-492.129 425.417,-487.533 420.467,-482.583"/>
<text text-anchor="middle" x="564.5" y="-427.5" font-family="Helvetica,sans-Serif" font-size="10.00"> numPositions</text>
<text text-anchor="middle" x="564.5" y="-416.5" font-family="Helvetica,sans-Serif" font-size="10.00">vhash</text>
</g>
<!-- Node5&#45;&gt;Node14 -->
<g id="edge22" class="edge"><title>Node5&#45;&gt;Node14</title>
<path fill="none" stroke="#9a32cd" stroke-dasharray="5,2" d="M382.401,-501.432C342.832,-501.333 263.189,-497.834 201,-474 99.8152,-435.22 0,-444.362 0,-336 0,-336 0,-336 0,-76 0,-28.6811 153.162,-15.8027 233.332,-12.3028"/>
<polygon fill="#9a32cd" stroke="#9a32cd" points="382.468,-504.931 392.451,-501.383 382.434,-497.932 382.468,-504.931"/>
<text text-anchor="middle" x="24.5" y="-197.5" font-family="Helvetica,sans-Serif" font-size="10.00"> shWindow</text>
<text text-anchor="middle" x="24.5" y="-186.5" font-family="Helvetica,sans-Serif" font-size="10.00">ghWindow</text>
</g>
<!-- Node6&#45;&gt;Node2 -->
<g id="edge5" class="edge"><title>Node6&#45;&gt;Node2</title>
<path fill="none" stroke="#9a32cd" stroke-dasharray="5,2" d="M506.158,-13.9094C479.883,-17.2258 448.924,-24.0635 424,-38 411.318,-45.0912 400.671,-58.4248 394.562,-67.2605"/>
<polygon fill="#9a32cd" stroke="#9a32cd" points="506.802,-17.3592 516.349,-12.7664 506.021,-10.4029 506.802,-17.3592"/>
<text text-anchor="middle" x="463.5" y="-41" font-family="Helvetica,sans-Serif" font-size="10.00"> SequencesMatrix</text>
</g>
<!-- Node7 -->
<g id="node7" class="node"><title>Node7</title>
<polygon fill="white" stroke="#bfbfbf" points="575.5,-67.5 575.5,-86.5 622.5,-86.5 622.5,-67.5 575.5,-67.5"/>
<text text-anchor="middle" x="599" y="-74.5" font-family="Helvetica,sans-Serif" font-size="10.00">string *</text>
</g>
<!-- Node7&#45;&gt;Node6 -->
<g id="edge8" class="edge"><title>Node7&#45;&gt;Node6</title>
<path fill="none" stroke="#9a32cd" stroke-dasharray="5,2" d="M589.058,-58.5347C581.895,-45.9499 572.535,-29.5072 566.911,-19.6273"/>
<polygon fill="#9a32cd" stroke="#9a32cd" points="586.021,-60.2746 594.01,-67.2338 592.105,-56.8117 586.021,-60.2746"/>
<text text-anchor="middle" x="608.5" y="-41" font-family="Helvetica,sans-Serif" font-size="10.00"> seqsName</text>
</g>
<!-- Node8 -->
<g id="node8" class="node"><title>Node8</title>
<polygon fill="white" stroke="#bfbfbf" points="724.5,-492.5 724.5,-511.5 759.5,-511.5 759.5,-492.5 724.5,-492.5"/>
<text text-anchor="middle" x="742" y="-499.5" font-family="Helvetica,sans-Serif" font-size="10.00">float</text>
</g>
<!-- Node8&#45;&gt;Node2 -->
<g id="edge9" class="edge"><title>Node8&#45;&gt;Node2</title>
<path fill="none" stroke="#9a32cd" stroke-dasharray="5,2" d="M750.516,-483.172C773.202,-433.049 830.432,-287.411 786,-178 768.971,-136.067 755.93,-124.317 715,-105 689.61,-93.0169 508.923,-83.436 428.01,-79.6963"/>
<polygon fill="#9a32cd" stroke="#9a32cd" points="747.282,-481.826 746.249,-492.371 753.632,-484.773 747.282,-481.826"/>
<text text-anchor="middle" x="823.5" y="-259.5" font-family="Helvetica,sans-Serif" font-size="10.00"> identities</text>
</g>
<!-- Node8&#45;&gt;Node12 -->
<g id="edge16" class="edge"><title>Node8&#45;&gt;Node12</title>
<path fill="none" stroke="#9a32cd" stroke-dasharray="5,2" d="M725.258,-484.75C689.708,-450.246 607.739,-370.688 580.775,-344.516"/>
<polygon fill="#9a32cd" stroke="#9a32cd" points="723.247,-487.676 732.86,-492.129 728.122,-482.653 723.247,-487.676"/>
<text text-anchor="middle" x="731" y="-427.5" font-family="Helvetica,sans-Serif" font-size="10.00"> distMat</text>
<text text-anchor="middle" x="731" y="-416.5" font-family="Helvetica,sans-Serif" font-size="10.00">simMat</text>
</g>
<!-- Node9&#45;&gt;Node2 -->
<g id="edge11" class="edge"><title>Node9&#45;&gt;Node2</title>
<path fill="none" stroke="#9a32cd" stroke-dasharray="5,2" d="M433.822,-175.679C422.295,-150.557 401.705,-105.687 393.03,-86.782"/>
<polygon fill="#9a32cd" stroke="#9a32cd" points="430.665,-177.19 438.016,-184.819 437.027,-174.27 430.665,-177.19"/>
<text text-anchor="middle" x="442" y="-130" font-family="Helvetica,sans-Serif" font-size="10.00"> scons</text>
</g>
<!-- Node10 -->
<g id="node10" class="node"><title>Node10</title>
<polygon fill="white" stroke="#bfbfbf" points="470,-325.5 470,-344.5 512,-344.5 512,-325.5 470,-325.5"/>
<text text-anchor="middle" x="491" y="-332.5" font-family="Helvetica,sans-Serif" font-size="10.00">float *</text>
</g>
<!-- Node10&#45;&gt;Node9 -->
<g id="edge12" class="edge"><title>Node10&#45;&gt;Node9</title>
<path fill="none" stroke="#9a32cd" stroke-dasharray="5,2" d="M484.499,-315.626C473.804,-285.394 452.9,-226.309 445.064,-204.161"/>
<polygon fill="#9a32cd" stroke="#9a32cd" points="481.3,-317.076 487.935,-325.336 487.899,-314.741 481.3,-317.076"/>
<text text-anchor="middle" x="510.5" y="-270.5" font-family="Helvetica,sans-Serif" font-size="10.00"> MDK_Window</text>
<text text-anchor="middle" x="510.5" y="-259.5" font-family="Helvetica,sans-Serif" font-size="10.00">Q</text>
<text text-anchor="middle" x="510.5" y="-248.5" font-family="Helvetica,sans-Serif" font-size="10.00">MDK</text>
</g>
<!-- Node11 -->
<g id="node11" class="node"><title>Node11</title>
<polygon fill="white" stroke="#bfbfbf" points="315,-325.5 315,-344.5 361,-344.5 361,-325.5 315,-325.5"/>
<text text-anchor="middle" x="338" y="-332.5" font-family="Helvetica,sans-Serif" font-size="10.00">float **</text>
</g>
<!-- Node11&#45;&gt;Node9 -->
<g id="edge14" class="edge"><title>Node11&#45;&gt;Node9</title>
<path fill="none" stroke="#9a32cd" stroke-dasharray="5,2" d="M332.249,-315.621C326.368,-292.934 320.466,-254.263 339,-229 346.508,-218.766 374.741,-210.01 399.752,-204.018"/>
<polygon fill="#9a32cd" stroke="#9a32cd" points="328.914,-316.691 335.027,-325.345 335.645,-314.768 328.914,-316.691"/>
<text text-anchor="middle" x="370.5" y="-259.5" font-family="Helvetica,sans-Serif" font-size="10.00"> matrixIdentity</text>
</g>
<!-- Node12&#45;&gt;Node9 -->
<g id="edge15" class="edge"><title>Node12&#45;&gt;Node9</title>
<path fill="none" stroke="#9a32cd" stroke-dasharray="5,2" d="M569.797,-315.501C566.266,-288.839 558.541,-241.442 547,-229 534.508,-215.533 516.619,-207.455 499.138,-202.618"/>
<polygon fill="#9a32cd" stroke="#9a32cd" points="566.333,-316.009 571.053,-325.495 573.279,-315.137 566.333,-316.009"/>
<text text-anchor="middle" x="590" y="-259.5" font-family="Helvetica,sans-Serif" font-size="10.00"> simMatrix</text>
</g>
<!-- Node13 -->
<g id="node13" class="node"><title>Node13</title>
<polygon fill="white" stroke="#bfbfbf" points="84.5,-325.5 84.5,-344.5 119.5,-344.5 119.5,-325.5 84.5,-325.5"/>
<text text-anchor="middle" x="102" y="-332.5" font-family="Helvetica,sans-Serif" font-size="10.00">bool</text>
</g>
<!-- Node13&#45;&gt;Node1 -->
<g id="edge24" class="edge"><title>Node13&#45;&gt;Node1</title>
<path fill="none" stroke="#9a32cd" stroke-dasharray="5,2" d="M99.7983,-315.106C98.1978,-292.172 99.0872,-253.53 119,-229 134.097,-210.402 160.816,-202.111 180.673,-198.426"/>
<polygon fill="#9a32cd" stroke="#9a32cd" points="96.33,-315.609 100.743,-325.241 103.3,-314.96 96.33,-315.609"/>
<text text-anchor="middle" x="155.5" y="-265" font-family="Helvetica,sans-Serif" font-size="10.00"> keepSequences</text>
<text text-anchor="middle" x="155.5" y="-254" font-family="Helvetica,sans-Serif" font-size="10.00">terminalGapOnly</text>
</g>
<!-- Node13&#45;&gt;Node2 -->
<g id="edge19" class="edge"><title>Node13&#45;&gt;Node2</title>
<path fill="none" stroke="#9a32cd" stroke-dasharray="5,2" d="M98.2622,-315.402C94.7124,-294.11 90.9987,-258.383 99,-229 116.892,-163.295 129.519,-138.155 189,-105 215.778,-90.0735 299.406,-82.9372 349.645,-79.9156"/>
<polygon fill="#9a32cd" stroke="#9a32cd" points="94.8426,-316.159 100.091,-325.363 101.728,-314.895 94.8426,-316.159"/>
<text text-anchor="middle" x="137.5" y="-192" font-family="Helvetica,sans-Serif" font-size="10.00"> isAligned</text>
</g>
<!-- Node14&#45;&gt;Node2 -->
<g id="edge20" class="edge"><title>Node14&#45;&gt;Node2</title>
<path fill="none" stroke="#9a32cd" stroke-dasharray="5,2" d="M308.168,-24.344C316.265,-28.5244 325.087,-33.283 333,-38 348.744,-47.3851 366.095,-59.4429 377.248,-67.4311"/>
<polygon fill="#9a32cd" stroke="#9a32cd" points="309.594,-21.143 299.092,-19.7393 306.426,-27.3854 309.594,-21.143"/>
<text text-anchor="middle" x="373.5" y="-41" font-family="Helvetica,sans-Serif" font-size="10.00"> Statistics</text>
</g>
</g>
</svg>
