<?xml version="1.0" encoding="UTF-8" standalone="no"?>
<!DOCTYPE svg PUBLIC "-//W3C//DTD SVG 1.1//EN"
 "http://www.w3.org/Graphics/SVG/1.1/DTD/svg11.dtd">
<!-- Generated by graphviz version 2.38.0 (20140413.2041)
 -->
<!-- Title: trimAlManager Pages: 1 -->
<svg width="1298pt" height="1262pt"
 viewBox="0.00 0.00 1298.00 1262.00" xmlns="http://www.w3.org/2000/svg" xmlns:xlink="http://www.w3.org/1999/xlink">
<g id="graph0" class="graph" transform="scale(1 1) rotate(0) translate(4 1258)">
<title>trimAlManager</title>
<polygon fill="white" stroke="none" points="-4,4 -4,-1258 1294,-1258 1294,4 -4,4"/>
<!-- Node1 -->
<g id="node1" class="node"><title>Node1</title>
<polygon fill="#bfbfbf" stroke="black" points="1179.5,-527.5 1179.5,-546.5 1259.5,-546.5 1259.5,-527.5 1179.5,-527.5"/>
<text text-anchor="middle" x="1219.5" y="-534.5" font-family="Helvetica,sans-Serif" font-size="10.00">trimAlManager</text>
</g>
<!-- Node2 -->
<g id="node2" class="node"><title>Node2</title>
<g id="a_node2"><a xlink:href="classnew_alignment.html" target="_top" xlink:title="Class containing an alignment &#160;This class stores the alignment sequences with it&#39;s names...">
<polygon fill="white" stroke="black" points="708,-756.5 708,-775.5 786,-775.5 786,-756.5 708,-756.5"/>
<text text-anchor="middle" x="747" y="-763.5" font-family="Helvetica,sans-Serif" font-size="10.00">newAlignment</text>
</a>
</g>
</g>
<!-- Node2&#45;&gt;Node1 -->
<g id="edge1" class="edge"><title>Node2&#45;&gt;Node1</title>
<path fill="none" stroke="#9a32cd" stroke-dasharray="5,2" d="M776.324,-779.669C788.012,-784.595 801.874,-789.542 815,-792 914.99,-810.721 954.88,-805.705 1040,-750 1127.2,-692.933 1194.33,-580.529 1213.17,-546.796"/>
<polygon fill="#9a32cd" stroke="#9a32cd" points="777.643,-776.426 767.081,-775.592 774.818,-782.83 777.643,-776.426"/>
<text text-anchor="middle" x="977.5" y="-849" font-family="Helvetica,sans-Serif" font-size="10.00"> backtranslationAlig</text>
<text text-anchor="middle" x="977.5" y="-838" font-family="Helvetica,sans-Serif" font-size="10.00">singleAlig</text>
<text text-anchor="middle" x="977.5" y="-827" font-family="Helvetica,sans-Serif" font-size="10.00">tempAlig</text>
<text text-anchor="middle" x="977.5" y="-816" font-family="Helvetica,sans-Serif" font-size="10.00">compareAlignmentsArray</text>
<text text-anchor="middle" x="977.5" y="-805" font-family="Helvetica,sans-Serif" font-size="10.00">origAlig</text>
</g>
<!-- Node5 -->
<g id="node5" class="node"><title>Node5</title>
<g id="a_node5"><a xlink:href="classsequences_matrix.html" target="_top" xlink:title="sequencesMatrix">
<polygon fill="white" stroke="black" points="932,-489.5 932,-508.5 1023,-508.5 1023,-489.5 932,-489.5"/>
<text text-anchor="middle" x="977.5" y="-496.5" font-family="Helvetica,sans-Serif" font-size="10.00">sequencesMatrix</text>
</a>
</g>
</g>
<!-- Node2&#45;&gt;Node5 -->
<g id="edge5" class="edge"><title>Node2&#45;&gt;Node5</title>
<path fill="none" stroke="#9a32cd" stroke-dasharray="5,2" d="M760.594,-747.531C772.143,-729.589 788.677,-701.153 797,-674 808.134,-637.679 787.155,-529.843 815,-504 831.397,-488.782 890.054,-490.586 931.946,-494.108"/>
<polygon fill="#9a32cd" stroke="#9a32cd" points="757.364,-746.071 754.775,-756.344 763.206,-749.928 757.364,-746.071"/>
<text text-anchor="middle" x="856" y="-507" font-family="Helvetica,sans-Serif" font-size="10.00"> _alignment</text>
</g>
<!-- Node13 -->
<g id="node13" class="node"><title>Node13</title>
<g id="a_node13"><a xlink:href="class_cleaner.html" target="_top" xlink:title="Subclass contained by the alignment object to make cleaning operations on it. ">
<polygon fill="white" stroke="black" points="952.5,-721.5 952.5,-740.5 1002.5,-740.5 1002.5,-721.5 952.5,-721.5"/>
<text text-anchor="middle" x="977.5" y="-728.5" font-family="Helvetica,sans-Serif" font-size="10.00">Cleaner</text>
</a>
</g>
</g>
<!-- Node2&#45;&gt;Node13 -->
<g id="edge19" class="edge"><title>Node2&#45;&gt;Node13</title>
<path fill="none" stroke="#9a32cd" stroke-dasharray="5,2" d="M796.253,-774.01C825.739,-777.338 863.998,-778.834 897,-771 921.654,-765.147 947.347,-750.377 962.63,-740.517"/>
<polygon fill="#9a32cd" stroke="#9a32cd" points="796.566,-770.522 786.212,-772.769 795.707,-777.469 796.566,-770.522"/>
<text text-anchor="middle" x="856" y="-780" font-family="Helvetica,sans-Serif" font-size="10.00"> _alignment</text>
</g>
<!-- Node15 -->
<g id="node15" class="node"><title>Node15</title>
<g id="a_node15"><a xlink:href="class_statistics_manager.html" target="_top" xlink:title="StatisticsManager">
<polygon fill="white" stroke="black" points="930,-898.5 930,-917.5 1025,-917.5 1025,-898.5 930,-898.5"/>
<text text-anchor="middle" x="977.5" y="-905.5" font-family="Helvetica,sans-Serif" font-size="10.00">StatisticsManager</text>
</a>
</g>
</g>
<!-- Node2&#45;&gt;Node15 -->
<g id="edge25" class="edge"><title>Node2&#45;&gt;Node15</title>
<path fill="none" stroke="#9a32cd" stroke-dasharray="5,2" d="M760,-783.986C772.017,-800.63 791.996,-824.87 815,-839 847.252,-858.811 865.324,-841.28 897,-862 907.573,-868.916 904.781,-876.572 915,-884 923.344,-890.065 933.422,-894.832 942.984,-898.464"/>
<polygon fill="#9a32cd" stroke="#9a32cd" points="762.765,-781.832 754.173,-775.633 757.024,-785.837 762.765,-781.832"/>
<text text-anchor="middle" x="856" y="-865" font-family="Helvetica,sans-Serif" font-size="10.00"> _alignment</text>
</g>
<!-- Node3 -->
<g id="node3" class="node"><title>Node3</title>
<g id="a_node3"><a xlink:href="classstatistics_gaps.html" target="_top" xlink:title="statisticsGaps">
<polygon fill="white" stroke="black" points="350,-826.5 350,-845.5 430,-845.5 430,-826.5 350,-826.5"/>
<text text-anchor="middle" x="390" y="-833.5" font-family="Helvetica,sans-Serif" font-size="10.00">statisticsGaps</text>
</a>
</g>
</g>
<!-- Node3&#45;&gt;Node2 -->
<g id="edge2" class="edge"><title>Node3&#45;&gt;Node2</title>
<path fill="none" stroke="#9a32cd" stroke-dasharray="5,2" d="M440.045,-826.679C497.394,-815.73 595.157,-796.91 679,-780 688.319,-778.12 698.356,-776.048 707.753,-774.088"/>
<polygon fill="#9a32cd" stroke="#9a32cd" points="439.331,-823.252 430.164,-828.564 440.643,-830.128 439.331,-823.252"/>
<text text-anchor="middle" x="505" y="-828" font-family="Helvetica,sans-Serif" font-size="10.00"> sgaps</text>
</g>
<!-- Node4 -->
<g id="node4" class="node"><title>Node4</title>
<polygon fill="white" stroke="#bfbfbf" points="23,-701.5 23,-720.5 52,-720.5 52,-701.5 23,-701.5"/>
<text text-anchor="middle" x="37.5" y="-708.5" font-family="Helvetica,sans-Serif" font-size="10.00">int</text>
</g>
<!-- Node4&#45;&gt;Node1 -->
<g id="edge35" class="edge"><title>Node4&#45;&gt;Node1</title>
<path fill="none" stroke="#9a32cd" stroke-dasharray="5,2" d="M40.1605,-691.113C47.1307,-620.608 80.318,-380.183 216,-256 342.18,-140.514 411.283,-159.162 580,-131 788.853,-96.1385 873.857,-123.732 1040,-255 1140.7,-334.565 1200.77,-487.559 1215.13,-527.351"/>
<polygon fill="#9a32cd" stroke="#9a32cd" points="36.658,-690.98 39.227,-701.259 43.6285,-691.621 36.658,-690.98"/>
<text text-anchor="middle" x="629.5" y="-255" font-family="Helvetica,sans-Serif" font-size="10.00"> num</text>
<text text-anchor="middle" x="629.5" y="-244" font-family="Helvetica,sans-Serif" font-size="10.00">compareset</text>
<text text-anchor="middle" x="629.5" y="-233" font-family="Helvetica,sans-Serif" font-size="10.00">clusters</text>
<text text-anchor="middle" x="629.5" y="-222" font-family="Helvetica,sans-Serif" font-size="10.00">delSequences</text>
<text text-anchor="middle" x="629.5" y="-211" font-family="Helvetica,sans-Serif" font-size="10.00">alternative_matrix</text>
<text text-anchor="middle" x="629.5" y="-200" font-family="Helvetica,sans-Serif" font-size="10.00">similarityWindow</text>
<text text-anchor="middle" x="629.5" y="-189" font-family="Helvetica,sans-Serif" font-size="10.00">i</text>
<text text-anchor="middle" x="629.5" y="-178" font-family="Helvetica,sans-Serif" font-size="10.00">delColumns</text>
<text text-anchor="middle" x="629.5" y="-167" font-family="Helvetica,sans-Serif" font-size="10.00">numfiles</text>
<text text-anchor="start" x="590" y="-156" font-family="Helvetica,sans-Serif" font-size="10.00">automatedMethod</text>
<text text-anchor="middle" x="629.5" y="-145" font-family="Helvetica,sans-Serif" font-size="10.00">Count</text>
<text text-anchor="middle" x="629.5" y="-134" font-family="Helvetica,sans-Serif" font-size="10.00">...</text>
</g>
<!-- Node4&#45;&gt;Node2 -->
<g id="edge10" class="edge"><title>Node4&#45;&gt;Node2</title>
<path fill="none" stroke="#9a32cd" stroke-dasharray="5,2" d="M62.0355,-717.061C95.8383,-725.471 160.212,-740.388 216,-747 311.319,-758.297 602.939,-763.796 707.876,-765.447"/>
<polygon fill="#9a32cd" stroke="#9a32cd" points="62.7366,-713.628 52.1845,-714.578 61.0258,-720.416 62.7366,-713.628"/>
<text text-anchor="middle" x="390" y="-806" font-family="Helvetica,sans-Serif" font-size="10.00"> saveSequences</text>
<text text-anchor="middle" x="390" y="-795" font-family="Helvetica,sans-Serif" font-size="10.00">dataType</text>
<text text-anchor="middle" x="390" y="-784" font-family="Helvetica,sans-Serif" font-size="10.00">saveResidues</text>
<text text-anchor="middle" x="390" y="-773" font-family="Helvetica,sans-Serif" font-size="10.00">residNumber</text>
<text text-anchor="middle" x="390" y="-762" font-family="Helvetica,sans-Serif" font-size="10.00">sequenNumber</text>
</g>
<!-- Node4&#45;&gt;Node3 -->
<g id="edge3" class="edge"><title>Node4&#45;&gt;Node3</title>
<path fill="none" stroke="#9a32cd" stroke-dasharray="5,2" d="M48.8164,-729.477C58.296,-744.673 73.7745,-765.511 93,-777 98.5382,-780.31 270.838,-813.464 349.963,-828.57"/>
<polygon fill="#9a32cd" stroke="#9a32cd" points="51.8252,-727.689 43.7094,-720.878 45.8067,-731.264 51.8252,-727.689"/>
<text text-anchor="middle" x="145.5" y="-890" font-family="Helvetica,sans-Serif" font-size="10.00"> numColumnsWithGaps</text>
<text text-anchor="middle" x="145.5" y="-879" font-family="Helvetica,sans-Serif" font-size="10.00">columnLength</text>
<text text-anchor="middle" x="145.5" y="-868" font-family="Helvetica,sans-Serif" font-size="10.00">halfWindow</text>
<text text-anchor="middle" x="145.5" y="-857" font-family="Helvetica,sans-Serif" font-size="10.00">gapsWindow</text>
<text text-anchor="middle" x="145.5" y="-846" font-family="Helvetica,sans-Serif" font-size="10.00">maxGaps</text>
<text text-anchor="middle" x="145.5" y="-835" font-family="Helvetica,sans-Serif" font-size="10.00">gapsInColumn</text>
<text text-anchor="middle" x="145.5" y="-824" font-family="Helvetica,sans-Serif" font-size="10.00">dataType</text>
<text text-anchor="middle" x="145.5" y="-813" font-family="Helvetica,sans-Serif" font-size="10.00">aminosXInColumn</text>
<text text-anchor="middle" x="145.5" y="-802" font-family="Helvetica,sans-Serif" font-size="10.00">columns</text>
</g>
<!-- Node4&#45;&gt;Node5 -->
<g id="edge6" class="edge"><title>Node4&#45;&gt;Node5</title>
<path fill="none" stroke="#9a32cd" stroke-dasharray="5,2" d="M41.7934,-691.094C47.3334,-664.393 61.2031,-617.614 93,-594 303.752,-437.486 420.06,-563.161 679,-520 740.25,-509.791 753.319,-495.159 815,-488 854.361,-483.432 899.356,-487.233 931.838,-491.569"/>
<polygon fill="#9a32cd" stroke="#9a32cd" points="38.3049,-690.707 39.9011,-701.181 45.1849,-691.998 38.3049,-690.707"/>
<text text-anchor="middle" x="505" y="-555" font-family="Helvetica,sans-Serif" font-size="10.00"> matrix</text>
<text text-anchor="middle" x="505" y="-544" font-family="Helvetica,sans-Serif" font-size="10.00">seqsNumber</text>
<text text-anchor="middle" x="505" y="-533" font-family="Helvetica,sans-Serif" font-size="10.00">resNumber</text>
</g>
<!-- Node9 -->
<g id="node9" class="node"><title>Node9</title>
<g id="a_node9"><a xlink:href="classstatistics_conservation.html" target="_top" xlink:title="statisticsConservation">
<polygon fill="white" stroke="black" points="448,-700.5 448,-719.5 562,-719.5 562,-700.5 448,-700.5"/>
<text text-anchor="middle" x="505" y="-707.5" font-family="Helvetica,sans-Serif" font-size="10.00">statisticsConservation</text>
</a>
</g>
</g>
<!-- Node4&#45;&gt;Node9 -->
<g id="edge13" class="edge"><title>Node4&#45;&gt;Node9</title>
<path fill="none" stroke="#9a32cd" stroke-dasharray="5,2" d="M61.8626,-702.911C95.4566,-691.751 159.581,-672.192 216,-665 267.142,-658.481 280.866,-658.422 332,-665 384.044,-671.695 442.815,-689.342 476.429,-700.444"/>
<polygon fill="#9a32cd" stroke="#9a32cd" points="60.4326,-699.7 52.0766,-706.214 62.6708,-706.333 60.4326,-699.7"/>
<text text-anchor="middle" x="274" y="-701" font-family="Helvetica,sans-Serif" font-size="10.00"> halfWindow</text>
<text text-anchor="middle" x="274" y="-690" font-family="Helvetica,sans-Serif" font-size="10.00">dataType</text>
<text text-anchor="middle" x="274" y="-679" font-family="Helvetica,sans-Serif" font-size="10.00">sequences</text>
<text text-anchor="middle" x="274" y="-668" font-family="Helvetica,sans-Serif" font-size="10.00">columns</text>
</g>
<!-- Node12 -->
<g id="node12" class="node"><title>Node12</title>
<g id="a_node12"><a xlink:href="classsimilarity_matrix.html" target="_top" xlink:title="similarityMatrix">
<polygon fill="white" stroke="black" points="232.5,-958.5 232.5,-977.5 315.5,-977.5 315.5,-958.5 232.5,-958.5"/>
<text text-anchor="middle" x="274" y="-965.5" font-family="Helvetica,sans-Serif" font-size="10.00">similarityMatrix</text>
</a>
</g>
</g>
<!-- Node4&#45;&gt;Node12 -->
<g id="edge17" class="edge"><title>Node4&#45;&gt;Node12</title>
<path fill="none" stroke="#9a32cd" stroke-dasharray="5,2" d="M40.8649,-730.708C46.9722,-778.243 64.7939,-897.253 93,-924 127.533,-956.747 151.859,-933.342 198,-945 213.449,-948.903 230.443,-954.043 244.342,-958.474"/>
<polygon fill="#9a32cd" stroke="#9a32cd" points="44.3323,-730.228 39.6226,-720.738 37.386,-731.094 44.3323,-730.228"/>
<text text-anchor="middle" x="145.5" y="-959" font-family="Helvetica,sans-Serif" font-size="10.00"> numPositions</text>
<text text-anchor="middle" x="145.5" y="-948" font-family="Helvetica,sans-Serif" font-size="10.00">vhash</text>
</g>
<!-- Node4&#45;&gt;Node13 -->
<g id="edge20" class="edge"><title>Node4&#45;&gt;Node13</title>
<path fill="none" stroke="#9a32cd" stroke-dasharray="5,2" d="M55.0049,-694.149C84.244,-665.725 148.455,-609.535 216,-591 265.718,-577.357 280.511,-588.38 332,-591 375.725,-593.225 389.08,-585.43 430,-601 439.223,-604.509 439.105,-609.726 448,-614 551.509,-663.733 584.618,-659.38 697,-683 784.898,-701.474 808.786,-695.099 897,-712 915.676,-715.578 936.582,-720.616 952.267,-724.605"/>
<polygon fill="#9a32cd" stroke="#9a32cd" points="52.3517,-691.851 47.7117,-701.376 57.2787,-696.823 52.3517,-691.851"/>
<text text-anchor="middle" x="505" y="-682" font-family="Helvetica,sans-Serif" font-size="10.00"> right_boundary</text>
<text text-anchor="middle" x="505" y="-671" font-family="Helvetica,sans-Serif" font-size="10.00">blockSize</text>
<text text-anchor="middle" x="505" y="-660" font-family="Helvetica,sans-Serif" font-size="10.00">left_boundary</text>
</g>
<!-- Node4&#45;&gt;Node15 -->
<g id="edge26" class="edge"><title>Node4&#45;&gt;Node15</title>
<path fill="none" stroke="#9a32cd" stroke-dasharray="5,2" d="M37.6495,-730.829C37.1684,-769.858 42.2334,-856.529 93,-899 137.045,-935.847 292.653,-922.996 350,-926 484.234,-933.032 504.408,-955.003 897,-921 907.729,-920.071 919.196,-918.524 929.986,-916.816"/>
<polygon fill="#9a32cd" stroke="#9a32cd" points="41.1503,-730.841 37.9155,-720.752 34.1527,-730.657 41.1503,-730.841"/>
<text text-anchor="middle" x="505" y="-954" font-family="Helvetica,sans-Serif" font-size="10.00"> shWindow</text>
<text text-anchor="middle" x="505" y="-943" font-family="Helvetica,sans-Serif" font-size="10.00">ghWindow</text>
</g>
<!-- Node5&#45;&gt;Node1 -->
<g id="edge27" class="edge"><title>Node5&#45;&gt;Node1</title>
<path fill="none" stroke="#9a32cd" stroke-dasharray="5,2" d="M1033.19,-501.099C1062.4,-502.863 1098.86,-506.095 1131,-512 1151.2,-515.711 1173.45,-522.1 1190.46,-527.49"/>
<polygon fill="#9a32cd" stroke="#9a32cd" points="1033.36,-497.603 1023.18,-500.535 1032.96,-504.592 1033.36,-497.603"/>
<text text-anchor="middle" x="1094.5" y="-515" font-family="Helvetica,sans-Serif" font-size="10.00"> seqMatrix</text>
</g>
<!-- Node5&#45;&gt;Node2 -->
<g id="edge4" class="edge"><title>Node5&#45;&gt;Node2</title>
<path fill="none" stroke="#9a32cd" stroke-dasharray="5,2" d="M970.607,-518.455C960.017,-550.996 935.245,-617.288 897,-662 859.27,-706.11 798.803,-740.538 767.775,-756.415"/>
<polygon fill="#9a32cd" stroke="#9a32cd" points="973.984,-519.383 973.653,-508.794 967.308,-517.278 973.984,-519.383"/>
<text text-anchor="middle" x="856" y="-731" font-family="Helvetica,sans-Serif" font-size="10.00"> SequencesMatrix</text>
</g>
<!-- Node6 -->
<g id="node6" class="node"><title>Node6</title>
<g id="a_node6"><a xlink:title="STL class. ">
<polygon fill="white" stroke="#bfbfbf" points="475,-271.5 475,-290.5 535,-290.5 535,-271.5 475,-271.5"/>
<text text-anchor="middle" x="505" y="-278.5" font-family="Helvetica,sans-Serif" font-size="10.00">std::string</text>
</a>
</g>
</g>
<!-- Node6&#45;&gt;Node1 -->
<g id="edge36" class="edge"><title>Node6&#45;&gt;Node1</title>
<path fill="none" stroke="#9a32cd" stroke-dasharray="5,2" d="M508.253,-261.091C513.518,-224.952 530.225,-149.144 580,-115 630.494,-80.3631 1085.27,-84.2741 1131,-125 1193.93,-181.051 1214.47,-470.176 1217.94,-527.219"/>
<polygon fill="#9a32cd" stroke="#9a32cd" points="504.741,-260.959 506.918,-271.328 511.682,-261.864 504.741,-260.959"/>
<text text-anchor="middle" x="856" y="-107" font-family="Helvetica,sans-Serif" font-size="10.00"> sequencesNames</text>
<text text-anchor="middle" x="856" y="-96" font-family="Helvetica,sans-Serif" font-size="10.00">nline</text>
</g>
<!-- Node6&#45;&gt;Node2 -->
<g id="edge22" class="edge"><title>Node6&#45;&gt;Node2</title>
<path fill="none" stroke="#9a32cd" stroke-dasharray="5,2" d="M513.877,-300.062C526.678,-330.568 553.268,-392.012 580,-442 619.612,-516.075 646.304,-525.623 679,-603 691.671,-632.987 685.263,-643.636 697,-674 709.201,-705.564 729.723,-740.105 739.899,-756.431"/>
<polygon fill="#9a32cd" stroke="#9a32cd" points="517.024,-298.515 509.946,-290.631 510.563,-301.208 517.024,-298.515"/>
<text text-anchor="middle" x="629.5" y="-650" font-family="Helvetica,sans-Serif" font-size="10.00"> seqsName</text>
<text text-anchor="middle" x="629.5" y="-639" font-family="Helvetica,sans-Serif" font-size="10.00">seqsInfo</text>
<text text-anchor="middle" x="629.5" y="-628" font-family="Helvetica,sans-Serif" font-size="10.00">sequences</text>
<text text-anchor="middle" x="629.5" y="-617" font-family="Helvetica,sans-Serif" font-size="10.00">aligInfo</text>
<text text-anchor="middle" x="629.5" y="-606" font-family="Helvetica,sans-Serif" font-size="10.00">filename</text>
</g>
<!-- Node6&#45;&gt;Node5 -->
<g id="edge7" class="edge"><title>Node6&#45;&gt;Node5</title>
<path fill="none" stroke="#9a32cd" stroke-dasharray="5,2" d="M510.516,-300.442C518.691,-330.865 539.028,-389.123 580,-417 638.681,-456.926 835.578,-420.435 897,-456 908.539,-462.681 904.098,-472.324 915,-480 920.482,-483.86 926.773,-486.955 933.192,-489.43"/>
<polygon fill="#9a32cd" stroke="#9a32cd" points="513.874,-299.443 508.039,-290.6 507.086,-301.152 513.874,-299.443"/>
<text text-anchor="middle" x="747" y="-442" font-family="Helvetica,sans-Serif" font-size="10.00"> seqsName</text>
</g>
<!-- Node24 -->
<g id="node24" class="node"><title>Node24</title>
<g id="a_node24"><a xlink:href="class_read_write_base_state.html" target="_top" xlink:title="Abstract class to implement. &#160;This class implementations are instantiated by the ReadWrite Machine St...">
<polygon fill="white" stroke="black" points="923,-264.5 923,-283.5 1032,-283.5 1032,-264.5 923,-264.5"/>
<text text-anchor="middle" x="977.5" y="-271.5" font-family="Helvetica,sans-Serif" font-size="10.00">ReadWriteBaseState</text>
</a>
</g>
</g>
<!-- Node6&#45;&gt;Node24 -->
<g id="edge41" class="edge"><title>Node6&#45;&gt;Node24</title>
<path fill="none" stroke="#9a32cd" stroke-dasharray="5,2" d="M545.641,-279.933C580.884,-278.478 633.696,-275.05 679,-267 687.175,-265.547 688.773,-263.121 697,-262 775.081,-251.357 866.46,-259.025 922.917,-266.069"/>
<polygon fill="#9a32cd" stroke="#9a32cd" points="545.156,-276.449 535.296,-280.325 545.421,-283.444 545.156,-276.449"/>
<text text-anchor="middle" x="747" y="-276" font-family="Helvetica,sans-Serif" font-size="10.00"> extension</text>
<text text-anchor="middle" x="747" y="-265" font-family="Helvetica,sans-Serif" font-size="10.00">name</text>
</g>
<!-- Node27 -->
<g id="node27" class="node"><title>Node27</title>
<polygon fill="white" stroke="#bfbfbf" points="915,-52.5 915,-71.5 1040,-71.5 1040,-52.5 915,-52.5"/>
<text text-anchor="middle" x="977.5" y="-59.5" font-family="Helvetica,sans-Serif" font-size="10.00">std::vector&lt; std::string &gt;</text>
</g>
<!-- Node6&#45;&gt;Node27 -->
<g id="edge48" class="edge"><title>Node6&#45;&gt;Node27</title>
<path fill="none" stroke="#9a32cd" stroke-dasharray="5,2" d="M507.016,-261.136C510.244,-220.86 523.727,-129.785 580,-87 630.994,-48.229 816.734,-52.5595 914.834,-57.8558"/>
<polygon fill="#9a32cd" stroke="#9a32cd" points="503.513,-261.064 506.339,-271.275 510.497,-261.53 503.513,-261.064"/>
<text text-anchor="middle" x="747" y="-61" font-family="Helvetica,sans-Serif" font-size="10.00"> elements</text>
</g>
<!-- Node7 -->
<g id="node7" class="node"><title>Node7</title>
<g id="a_node7"><a xlink:title="STL class. ">
<polygon fill="white" stroke="#bfbfbf" points="226.5,-266 226.5,-296 321.5,-296 321.5,-266 226.5,-266"/>
<text text-anchor="start" x="234.5" y="-284" font-family="Helvetica,sans-Serif" font-size="10.00">std::basic_string&lt;</text>
<text text-anchor="middle" x="274" y="-273" font-family="Helvetica,sans-Serif" font-size="10.00"> char &gt;</text>
</a>
</g>
</g>
<!-- Node7&#45;&gt;Node6 -->
<g id="edge8" class="edge"><title>Node7&#45;&gt;Node6</title>
<path fill="none" stroke="midnightblue" d="M331.619,-281C377.029,-281 438.918,-281 474.856,-281"/>
<polygon fill="midnightblue" stroke="midnightblue" points="331.618,-277.5 321.618,-281 331.618,-284.5 331.618,-277.5"/>
</g>
<!-- Node8 -->
<g id="node8" class="node"><title>Node8</title>
<polygon fill="white" stroke="#bfbfbf" points="20,-1018.5 20,-1037.5 55,-1037.5 55,-1018.5 20,-1018.5"/>
<text text-anchor="middle" x="37.5" y="-1025.5" font-family="Helvetica,sans-Serif" font-size="10.00">float</text>
</g>
<!-- Node8&#45;&gt;Node1 -->
<g id="edge34" class="edge"><title>Node8&#45;&gt;Node1</title>
<path fill="none" stroke="#9a32cd" stroke-dasharray="5,2" d="M65.2447,-1032.72C108.68,-1039.97 197.324,-1053 273,-1053 273,-1053 273,-1053 978.5,-1053 1210.68,-1053 1218.83,-618.184 1218.61,-546.847"/>
<polygon fill="#9a32cd" stroke="#9a32cd" points="65.6565,-1029.24 55.2113,-1031.02 64.4831,-1036.14 65.6565,-1029.24"/>
<text text-anchor="middle" x="629.5" y="-1133" font-family="Helvetica,sans-Serif" font-size="10.00"> maxIdentity</text>
<text text-anchor="middle" x="629.5" y="-1122" font-family="Helvetica,sans-Serif" font-size="10.00">sequenceOverlap</text>
<text text-anchor="middle" x="629.5" y="-1111" font-family="Helvetica,sans-Serif" font-size="10.00">similarityThreshold</text>
<text text-anchor="middle" x="629.5" y="-1100" font-family="Helvetica,sans-Serif" font-size="10.00">conservationThreshold</text>
<text text-anchor="middle" x="629.5" y="-1089" font-family="Helvetica,sans-Serif" font-size="10.00">compareVect</text>
<text text-anchor="middle" x="629.5" y="-1078" font-family="Helvetica,sans-Serif" font-size="10.00">gapThreshold</text>
<text text-anchor="middle" x="629.5" y="-1067" font-family="Helvetica,sans-Serif" font-size="10.00">consistencyThreshold</text>
<text text-anchor="middle" x="629.5" y="-1056" font-family="Helvetica,sans-Serif" font-size="10.00">residuesOverlap</text>
</g>
<!-- Node8&#45;&gt;Node2 -->
<g id="edge9" class="edge"><title>Node8&#45;&gt;Node2</title>
<path fill="none" stroke="#9a32cd" stroke-dasharray="5,2" d="M65.6012,-1026.54C97.4206,-1024.62 151.731,-1020.67 198,-1014 258.131,-1005.33 275.309,-1008.84 332,-987 387.977,-965.435 395.286,-946.629 448,-918 548.609,-863.36 577.832,-857.596 679,-804 696.489,-794.735 716.149,-783.482 729.626,-775.636"/>
<polygon fill="#9a32cd" stroke="#9a32cd" points="65.1141,-1023.07 55.3343,-1027.14 65.5207,-1030.05 65.1141,-1023.07"/>
<text text-anchor="middle" x="390" y="-994" font-family="Helvetica,sans-Serif" font-size="10.00"> identities</text>
<text text-anchor="middle" x="390" y="-983" font-family="Helvetica,sans-Serif" font-size="10.00">overlaps</text>
</g>
<!-- Node8&#45;&gt;Node12 -->
<g id="edge16" class="edge"><title>Node8&#45;&gt;Node12</title>
<path fill="none" stroke="#9a32cd" stroke-dasharray="5,2" d="M57.7337,-1012.19C67.6738,-1004.86 80.3504,-996.735 93,-992 138.765,-974.87 195.098,-969.685 232.425,-968.26"/>
<polygon fill="#9a32cd" stroke="#9a32cd" points="55.5567,-1009.45 49.7723,-1018.32 59.8296,-1014.99 55.5567,-1009.45"/>
<text text-anchor="middle" x="145.5" y="-1006" font-family="Helvetica,sans-Serif" font-size="10.00"> distMat</text>
<text text-anchor="middle" x="145.5" y="-995" font-family="Helvetica,sans-Serif" font-size="10.00">simMat</text>
</g>
<!-- Node9&#45;&gt;Node2 -->
<g id="edge11" class="edge"><title>Node9&#45;&gt;Node2</title>
<path fill="none" stroke="#9a32cd" stroke-dasharray="5,2" d="M572.543,-719.056C604.966,-724.194 644.344,-731.512 679,-741 694.088,-745.131 710.554,-751.251 723.387,-756.403"/>
<polygon fill="#9a32cd" stroke="#9a32cd" points="572.694,-715.538 562.276,-717.465 571.622,-722.455 572.694,-715.538"/>
<text text-anchor="middle" x="629.5" y="-744" font-family="Helvetica,sans-Serif" font-size="10.00"> scons</text>
</g>
<!-- Node10 -->
<g id="node10" class="node"><title>Node10</title>
<polygon fill="white" stroke="#bfbfbf" points="253,-718.5 253,-737.5 295,-737.5 295,-718.5 253,-718.5"/>
<text text-anchor="middle" x="274" y="-725.5" font-family="Helvetica,sans-Serif" font-size="10.00">float *</text>
</g>
<!-- Node10&#45;&gt;Node9 -->
<g id="edge12" class="edge"><title>Node10&#45;&gt;Node9</title>
<path fill="none" stroke="#9a32cd" stroke-dasharray="5,2" d="M304.976,-719.643C318.598,-716.251 334.992,-712.729 350,-711 382.272,-707.282 418.6,-706.868 447.864,-707.459"/>
<polygon fill="#9a32cd" stroke="#9a32cd" points="303.973,-716.287 295.168,-722.18 305.725,-723.064 303.973,-716.287"/>
<text text-anchor="middle" x="390" y="-736" font-family="Helvetica,sans-Serif" font-size="10.00"> MDK_Window</text>
<text text-anchor="middle" x="390" y="-725" font-family="Helvetica,sans-Serif" font-size="10.00">Q</text>
<text text-anchor="middle" x="390" y="-714" font-family="Helvetica,sans-Serif" font-size="10.00">MDK</text>
</g>
<!-- Node11 -->
<g id="node11" class="node"><title>Node11</title>
<polygon fill="white" stroke="#bfbfbf" points="251,-600.5 251,-619.5 297,-619.5 297,-600.5 251,-600.5"/>
<text text-anchor="middle" x="274" y="-607.5" font-family="Helvetica,sans-Serif" font-size="10.00">float **</text>
</g>
<!-- Node11&#45;&gt;Node9 -->
<g id="edge14" class="edge"><title>Node11&#45;&gt;Node9</title>
<path fill="none" stroke="#9a32cd" stroke-dasharray="5,2" d="M306.98,-605.324C341.242,-602.174 395.355,-602.807 430,-631 448.644,-646.172 432.092,-663.98 448,-682 455.122,-690.067 465.11,-696.083 474.683,-700.426"/>
<polygon fill="#9a32cd" stroke="#9a32cd" points="306.595,-601.845 297.028,-606.396 307.345,-608.804 306.595,-601.845"/>
<text text-anchor="middle" x="390" y="-634" font-family="Helvetica,sans-Serif" font-size="10.00"> matrixIdentity</text>
</g>
<!-- Node12&#45;&gt;Node1 -->
<g id="edge50" class="edge"><title>Node12&#45;&gt;Node1</title>
<path fill="none" stroke="#9a32cd" stroke-dasharray="5,2" d="M325.923,-975.711C372.241,-982.053 442.547,-990 504,-990 504,-990 504,-990 978.5,-990 1186.32,-990 1214.7,-613.13 1218.08,-546.883"/>
<polygon fill="#9a32cd" stroke="#9a32cd" points="326.228,-972.22 315.84,-974.304 325.26,-979.153 326.228,-972.22"/>
<text text-anchor="middle" x="747" y="-993" font-family="Helvetica,sans-Serif" font-size="10.00"> similMatrix</text>
</g>
<!-- Node12&#45;&gt;Node9 -->
<g id="edge15" class="edge"><title>Node12&#45;&gt;Node9</title>
<path fill="none" stroke="#9a32cd" stroke-dasharray="5,2" d="M284.526,-949.189C296.721,-926.995 319.92,-890.524 350,-870 380.56,-849.148 402.558,-871.812 430,-847 445.978,-832.553 438.367,-821.267 448,-802 463.637,-770.725 486.31,-736.051 497.396,-719.632"/>
<polygon fill="#9a32cd" stroke="#9a32cd" points="281.302,-947.799 279.712,-958.274 287.487,-951.077 281.302,-947.799"/>
<text text-anchor="middle" x="390" y="-873" font-family="Helvetica,sans-Serif" font-size="10.00"> simMatrix</text>
</g>
<!-- Node13&#45;&gt;Node2 -->
<g id="edge18" class="edge"><title>Node13&#45;&gt;Node2</title>
<path fill="none" stroke="#9a32cd" stroke-dasharray="5,2" d="M942.219,-736.251C900.373,-742.661 829.815,-753.468 786.246,-760.142"/>
<polygon fill="#9a32cd" stroke="#9a32cd" points="942.851,-739.695 952.205,-734.721 941.791,-732.776 942.851,-739.695"/>
<text text-anchor="middle" x="856" y="-759" font-family="Helvetica,sans-Serif" font-size="10.00"> Cleaning</text>
</g>
<!-- Node14 -->
<g id="node14" class="node"><title>Node14</title>
<polygon fill="white" stroke="#bfbfbf" points="487.5,-585.5 487.5,-604.5 522.5,-604.5 522.5,-585.5 487.5,-585.5"/>
<text text-anchor="middle" x="505" y="-592.5" font-family="Helvetica,sans-Serif" font-size="10.00">bool</text>
</g>
<!-- Node14&#45;&gt;Node1 -->
<g id="edge37" class="edge"><title>Node14&#45;&gt;Node1</title>
<path fill="none" stroke="#9a32cd" stroke-dasharray="5,2" d="M532.572,-588.564C585.779,-576.039 709.358,-548.759 815,-539 948.234,-526.692 1107.27,-531.636 1179.44,-534.941"/>
<polygon fill="#9a32cd" stroke="#9a32cd" points="531.526,-585.215 522.607,-590.932 533.145,-592.026 531.526,-585.215"/>
<text text-anchor="middle" x="856" y="-652" font-family="Helvetica,sans-Serif" font-size="10.00"> keepSeqs</text>
<text text-anchor="middle" x="856" y="-641" font-family="Helvetica,sans-Serif" font-size="10.00">soverlap</text>
<text text-anchor="middle" x="856" y="-630" font-family="Helvetica,sans-Serif" font-size="10.00">columnNumbering</text>
<text text-anchor="middle" x="856" y="-619" font-family="Helvetica,sans-Serif" font-size="10.00">ignoreStopCodon</text>
<text text-anchor="middle" x="856" y="-608" font-family="Helvetica,sans-Serif" font-size="10.00">splitByStopCodon</text>
<text text-anchor="middle" x="856" y="-597" font-family="Helvetica,sans-Serif" font-size="10.00">selectSeqs</text>
<text text-anchor="middle" x="856" y="-586" font-family="Helvetica,sans-Serif" font-size="10.00">sgt</text>
<text text-anchor="middle" x="856" y="-575" font-family="Helvetica,sans-Serif" font-size="10.00">sgc</text>
<text text-anchor="middle" x="856" y="-564" font-family="Helvetica,sans-Serif" font-size="10.00">strict</text>
<text text-anchor="middle" x="856" y="-553" font-family="Helvetica,sans-Serif" font-size="10.00">shortNames</text>
<text text-anchor="middle" x="856" y="-542" font-family="Helvetica,sans-Serif" font-size="10.00">...</text>
</g>
<!-- Node14&#45;&gt;Node2 -->
<g id="edge23" class="edge"><title>Node14&#45;&gt;Node2</title>
<path fill="none" stroke="#9a32cd" stroke-dasharray="5,2" d="M531.996,-603.663C542.352,-608.139 553.745,-614.483 562,-623 575.286,-636.708 566.406,-648.597 580,-662 614.288,-695.805 638.574,-679.843 679,-706 702.073,-720.929 725.089,-743.69 737.22,-756.458"/>
<polygon fill="#9a32cd" stroke="#9a32cd" points="533.109,-600.34 522.522,-599.935 530.546,-606.854 533.109,-600.34"/>
<text text-anchor="middle" x="629.5" y="-709" font-family="Helvetica,sans-Serif" font-size="10.00"> isAligned</text>
</g>
<!-- Node14&#45;&gt;Node13 -->
<g id="edge21" class="edge"><title>Node14&#45;&gt;Node13</title>
<path fill="none" stroke="#9a32cd" stroke-dasharray="5,2" d="M532.609,-600.219C609.163,-615.398 828.834,-660.149 897,-687 920.777,-696.366 946.297,-711.498 961.833,-721.348"/>
<polygon fill="#9a32cd" stroke="#9a32cd" points="533.276,-596.783 522.788,-598.278 531.919,-603.651 533.276,-596.783"/>
<text text-anchor="middle" x="747" y="-671" font-family="Helvetica,sans-Serif" font-size="10.00"> keepSequences</text>
<text text-anchor="middle" x="747" y="-660" font-family="Helvetica,sans-Serif" font-size="10.00">terminalGapOnly</text>
</g>
<!-- Node22 -->
<g id="node22" class="node"><title>Node22</title>
<g id="a_node22"><a xlink:href="class_read_write_m_s.html" target="_top" xlink:title="Class that handles the load and save functions of an alignment. ">
<polygon fill="white" stroke="black" points="708,-348.5 708,-367.5 786,-367.5 786,-348.5 708,-348.5"/>
<text text-anchor="middle" x="747" y="-355.5" font-family="Helvetica,sans-Serif" font-size="10.00">ReadWriteMS</text>
</a>
</g>
</g>
<!-- Node14&#45;&gt;Node22 -->
<g id="edge46" class="edge"><title>Node14&#45;&gt;Node22</title>
<path fill="none" stroke="#9a32cd" stroke-dasharray="5,2" d="M532.584,-589.886C543.434,-586.406 555.044,-580.61 562,-571 588.944,-533.776 546.784,-396.754 580,-365 615.55,-331.015 677.38,-339.194 714.715,-348.448"/>
<polygon fill="#9a32cd" stroke="#9a32cd" points="531.345,-586.594 522.59,-592.561 533.155,-593.356 531.345,-586.594"/>
<text text-anchor="middle" x="629.5" y="-434" font-family="Helvetica,sans-Serif" font-size="10.00"> format</text>
<text text-anchor="middle" x="629.5" y="-423" font-family="Helvetica,sans-Serif" font-size="10.00">hasOutputFile</text>
<text text-anchor="middle" x="629.5" y="-412" font-family="Helvetica,sans-Serif" font-size="10.00">shortNames</text>
<text text-anchor="middle" x="629.5" y="-401" font-family="Helvetica,sans-Serif" font-size="10.00">type</text>
<text text-anchor="middle" x="629.5" y="-390" font-family="Helvetica,sans-Serif" font-size="10.00">reverse</text>
<text text-anchor="middle" x="629.5" y="-379" font-family="Helvetica,sans-Serif" font-size="10.00">info</text>
<text text-anchor="middle" x="629.5" y="-368" font-family="Helvetica,sans-Serif" font-size="10.00">keepHeader</text>
</g>
<!-- Node14&#45;&gt;Node24 -->
<g id="edge42" class="edge"><title>Node14&#45;&gt;Node24</title>
<path fill="none" stroke="#9a32cd" stroke-dasharray="5,2" d="M532.296,-590.026C543.251,-586.566 555.023,-580.745 562,-571 592.36,-528.594 544.867,-375.544 580,-337 602.831,-311.952 819.847,-288.599 922.798,-278.824"/>
<polygon fill="#9a32cd" stroke="#9a32cd" points="531.397,-586.644 522.625,-592.586 533.188,-593.411 531.397,-586.644"/>
<text text-anchor="middle" x="747" y="-320" font-family="Helvetica,sans-Serif" font-size="10.00"> canLoad</text>
<text text-anchor="middle" x="747" y="-309" font-family="Helvetica,sans-Serif" font-size="10.00">canSave</text>
</g>
<!-- Node15&#45;&gt;Node2 -->
<g id="edge24" class="edge"><title>Node15&#45;&gt;Node2</title>
<path fill="none" stroke="#9a32cd" stroke-dasharray="5,2" d="M919.807,-908.289C886.65,-905.89 845.46,-898.23 815,-877 777.882,-851.13 757.747,-797.456 750.809,-775.587"/>
<polygon fill="#9a32cd" stroke="#9a32cd" points="919.632,-911.785 929.819,-908.874 920.04,-904.796 919.632,-911.785"/>
<text text-anchor="middle" x="856" y="-909" font-family="Helvetica,sans-Serif" font-size="10.00"> Statistics</text>
</g>
<!-- Node16 -->
<g id="node16" class="node"><title>Node16</title>
<polygon fill="white" stroke="#bfbfbf" points="960,-1119.5 960,-1138.5 995,-1138.5 995,-1119.5 960,-1119.5"/>
<text text-anchor="middle" x="977.5" y="-1126.5" font-family="Helvetica,sans-Serif" font-size="10.00">char</text>
</g>
<!-- Node16&#45;&gt;Node1 -->
<g id="edge28" class="edge"><title>Node16&#45;&gt;Node1</title>
<path fill="none" stroke="#9a32cd" stroke-dasharray="5,2" d="M1005.25,-1132.75C1039.48,-1135.89 1098.25,-1135.47 1131,-1102 1212.4,-1018.82 1218.09,-613.946 1218.47,-546.526"/>
<polygon fill="#9a32cd" stroke="#9a32cd" points="1005.39,-1129.24 995.067,-1131.64 1004.63,-1136.2 1005.39,-1129.24"/>
<text text-anchor="middle" x="1094.5" y="-1246" font-family="Helvetica,sans-Serif" font-size="10.00"> filesToCompare</text>
<text text-anchor="middle" x="1094.5" y="-1235" font-family="Helvetica,sans-Serif" font-size="10.00">infile</text>
<text text-anchor="middle" x="1094.5" y="-1224" font-family="Helvetica,sans-Serif" font-size="10.00">forceFile</text>
<text text-anchor="middle" x="1094.5" y="-1213" font-family="Helvetica,sans-Serif" font-size="10.00">line</text>
<text text-anchor="middle" x="1094.5" y="-1202" font-family="Helvetica,sans-Serif" font-size="10.00">outfile</text>
<text text-anchor="middle" x="1094.5" y="-1191" font-family="Helvetica,sans-Serif" font-size="10.00">matrixFile</text>
<text text-anchor="middle" x="1094.5" y="-1180" font-family="Helvetica,sans-Serif" font-size="10.00">svgStatsOutFile</text>
<text text-anchor="middle" x="1094.5" y="-1169" font-family="Helvetica,sans-Serif" font-size="10.00">htmlOutFile</text>
<text text-anchor="middle" x="1094.5" y="-1158" font-family="Helvetica,sans-Serif" font-size="10.00">backtransFile</text>
<text text-anchor="middle" x="1094.5" y="-1147" font-family="Helvetica,sans-Serif" font-size="10.00">c</text>
<text text-anchor="middle" x="1094.5" y="-1136" font-family="Helvetica,sans-Serif" font-size="10.00">...</text>
</g>
<!-- Node17 -->
<g id="node17" class="node"><title>Node17</title>
<g id="a_node17"><a xlink:title="STL class. ">
<polygon fill="white" stroke="#bfbfbf" points="942,-1081.5 942,-1100.5 1013,-1100.5 1013,-1081.5 942,-1081.5"/>
<text text-anchor="middle" x="977.5" y="-1088.5" font-family="Helvetica,sans-Serif" font-size="10.00">std::ifstream</text>
</a>
</g>
</g>
<!-- Node17&#45;&gt;Node1 -->
<g id="edge29" class="edge"><title>Node17&#45;&gt;Node1</title>
<path fill="none" stroke="#9a32cd" stroke-dasharray="5,2" d="M1023.3,-1089.62C1062.74,-1087.42 1116.16,-1081.73 1131,-1067 1208.28,-990.3 1217.38,-612.588 1218.38,-546.785"/>
<polygon fill="#9a32cd" stroke="#9a32cd" points="1022.91,-1086.13 1013.09,-1090.13 1023.26,-1093.12 1022.91,-1086.13"/>
<text text-anchor="middle" x="1094.5" y="-1090" font-family="Helvetica,sans-Serif" font-size="10.00"> compare</text>
</g>
<!-- Node18 -->
<g id="node18" class="node"><title>Node18</title>
<g id="a_node18"><a xlink:title="STL class. ">
<polygon fill="white" stroke="#bfbfbf" points="697,-1111 697,-1141 797,-1141 797,-1111 697,-1111"/>
<text text-anchor="start" x="705" y="-1129" font-family="Helvetica,sans-Serif" font-size="10.00">std::basic_ifstream</text>
<text text-anchor="middle" x="747" y="-1118" font-family="Helvetica,sans-Serif" font-size="10.00">&lt; char &gt;</text>
</a>
</g>
</g>
<!-- Node18&#45;&gt;Node17 -->
<g id="edge30" class="edge"><title>Node18&#45;&gt;Node17</title>
<path fill="none" stroke="midnightblue" d="M807.009,-1116.96C849.707,-1110.42 905.962,-1101.8 941.691,-1096.33"/>
<polygon fill="midnightblue" stroke="midnightblue" points="806.374,-1113.52 797.019,-1118.49 807.434,-1120.44 806.374,-1113.52"/>
</g>
<!-- Node19 -->
<g id="node19" class="node"><title>Node19</title>
<g id="a_node19"><a xlink:title="STL class. ">
<polygon fill="white" stroke="#bfbfbf" points="456.5,-1141 456.5,-1171 553.5,-1171 553.5,-1141 456.5,-1141"/>
<text text-anchor="start" x="464.5" y="-1159" font-family="Helvetica,sans-Serif" font-size="10.00">std::basic_istream</text>
<text text-anchor="middle" x="505" y="-1148" font-family="Helvetica,sans-Serif" font-size="10.00">&lt; Char &gt;</text>
</a>
</g>
</g>
<!-- Node19&#45;&gt;Node18 -->
<g id="edge31" class="edge"><title>Node19&#45;&gt;Node18</title>
<path fill="none" stroke="midnightblue" d="M563.746,-1153.55C597.499,-1151.57 640.838,-1148.06 679,-1142 684.787,-1141.08 690.814,-1139.93 696.776,-1138.66"/>
<polygon fill="midnightblue" stroke="midnightblue" points="563.383,-1150.07 553.594,-1154.12 563.775,-1157.05 563.383,-1150.07"/>
</g>
<!-- Node20 -->
<g id="node20" class="node"><title>Node20</title>
<g id="a_node20"><a xlink:title="STL class. ">
<polygon fill="white" stroke="#bfbfbf" points="216,-1146.5 216,-1165.5 332,-1165.5 332,-1146.5 216,-1146.5"/>
<text text-anchor="middle" x="274" y="-1153.5" font-family="Helvetica,sans-Serif" font-size="10.00">std::basic_ios&lt; Char &gt;</text>
</a>
</g>
</g>
<!-- Node20&#45;&gt;Node19 -->
<g id="edge32" class="edge"><title>Node20&#45;&gt;Node19</title>
<path fill="none" stroke="midnightblue" d="M342.305,-1156C378.94,-1156 423.388,-1156 456.404,-1156"/>
<polygon fill="midnightblue" stroke="midnightblue" points="342.196,-1152.5 332.196,-1156 342.196,-1159.5 342.196,-1152.5"/>
</g>
<!-- Node21 -->
<g id="node21" class="node"><title>Node21</title>
<g id="a_node21"><a xlink:title="STL class. ">
<polygon fill="white" stroke="#bfbfbf" points="0,-1146.5 0,-1165.5 75,-1165.5 75,-1146.5 0,-1146.5"/>
<text text-anchor="middle" x="37.5" y="-1153.5" font-family="Helvetica,sans-Serif" font-size="10.00">std::ios_base</text>
</a>
</g>
</g>
<!-- Node21&#45;&gt;Node20 -->
<g id="edge33" class="edge"><title>Node21&#45;&gt;Node20</title>
<path fill="none" stroke="midnightblue" d="M85.2899,-1156C122.794,-1156 175.585,-1156 215.635,-1156"/>
<polygon fill="midnightblue" stroke="midnightblue" points="85.1407,-1152.5 75.1406,-1156 85.1406,-1159.5 85.1407,-1152.5"/>
</g>
<!-- Node22&#45;&gt;Node1 -->
<g id="edge38" class="edge"><title>Node22&#45;&gt;Node1</title>
<path fill="none" stroke="#9a32cd" stroke-dasharray="5,2" d="M784.563,-370.936C852.946,-395.269 1004.71,-449.916 1131,-500 1153.54,-508.938 1179.04,-519.811 1196.68,-527.45"/>
<polygon fill="#9a32cd" stroke="#9a32cd" points="785.686,-367.621 775.091,-367.571 783.342,-374.217 785.686,-367.621"/>
<text text-anchor="middle" x="977.5" y="-468" font-family="Helvetica,sans-Serif" font-size="10.00"> ReadWriteMachine</text>
</g>
<!-- Node22&#45;&gt;Node24 -->
<g id="edge43" class="edge"><title>Node22&#45;&gt;Node24</title>
<path fill="none" stroke="#9a32cd" stroke-dasharray="5,2" d="M782.816,-345.003C793.126,-341.297 804.474,-337.357 815,-334 851.061,-322.5 861.503,-324.14 897,-311 918.558,-303.02 942.344,-291.581 958.229,-283.54"/>
<polygon fill="#9a32cd" stroke="#9a32cd" points="781.512,-341.753 773.309,-348.458 783.903,-348.332 781.512,-341.753"/>
<text text-anchor="middle" x="856" y="-337" font-family="Helvetica,sans-Serif" font-size="10.00"> Machine</text>
</g>
<!-- Node23 -->
<g id="node23" class="node"><title>Node23</title>
<polygon fill="white" stroke="#bfbfbf" points="1149,-26 1149,-56 1290,-56 1290,-26 1149,-26"/>
<text text-anchor="start" x="1157" y="-44" font-family="Helvetica,sans-Serif" font-size="10.00">std::vector&lt; ReadWriteBase</text>
<text text-anchor="middle" x="1219.5" y="-33" font-family="Helvetica,sans-Serif" font-size="10.00">State *&gt;</text>
</g>
<!-- Node23&#45;&gt;Node22 -->
<g id="edge39" class="edge"><title>Node23&#45;&gt;Node22</title>
<path fill="none" stroke="#9a32cd" stroke-dasharray="5,2" d="M1207.45,-65.5392C1183.8,-115.412 1123.55,-229.27 1040,-293 964.02,-350.956 846.414,-359.18 786.27,-359.221"/>
<polygon fill="#9a32cd" stroke="#9a32cd" points="1210.76,-66.7223 1211.81,-56.1799 1204.41,-63.7646 1210.76,-66.7223"/>
<text text-anchor="middle" x="977.5" y="-349" font-family="Helvetica,sans-Serif" font-size="10.00"> available_states</text>
</g>
<!-- Node24&#45;&gt;Node23 -->
<g id="edge40" class="edge"><title>Node24&#45;&gt;Node23</title>
<path fill="none" stroke="#9a32cd" stroke-dasharray="5,2" d="M984.505,-254.511C1001.44,-199.828 1048.95,-48.5116 1058,-42 1087.18,-21.0134 1127.71,-20.9234 1160.74,-25.9991"/>
<polygon fill="#9a32cd" stroke="#9a32cd" points="981.071,-253.77 981.462,-264.358 987.759,-255.836 981.071,-253.77"/>
<text text-anchor="middle" x="1094.5" y="-45" font-family="Helvetica,sans-Serif" font-size="10.00"> elements</text>
</g>
<!-- Node25 -->
<g id="node25" class="node"><title>Node25</title>
<g id="a_node25"><a xlink:title="STL class. ">
<polygon fill="white" stroke="#bfbfbf" points="703.5,-0.5 703.5,-19.5 790.5,-19.5 790.5,-0.5 703.5,-0.5"/>
<text text-anchor="middle" x="747" y="-7.5" font-family="Helvetica,sans-Serif" font-size="10.00">std::vector&lt; T &gt;</text>
</a>
</g>
</g>
<!-- Node25&#45;&gt;Node23 -->
<g id="edge44" class="edge"><title>Node25&#45;&gt;Node23</title>
<path fill="none" stroke="orange" stroke-dasharray="5,2" d="M800.752,-7.90483C874.859,-5.74877 1013.85,-4.58565 1131,-20 1141.53,-21.3858 1152.64,-23.5171 1163.28,-25.9001"/>
<polygon fill="orange" stroke="orange" points="800.622,-4.40708 790.734,-8.21403 800.838,-11.4037 800.622,-4.40708"/>
<text text-anchor="middle" x="977.5" y="-15" font-family="Helvetica,sans-Serif" font-size="10.00"> &lt; ReadWriteBaseState *&gt;</text>
</g>
<!-- Node25&#45;&gt;Node27 -->
<g id="edge49" class="edge"><title>Node25&#45;&gt;Node27</title>
<path fill="none" stroke="orange" stroke-dasharray="5,2" d="M800.888,-17.9255C829.521,-22.6316 865.403,-29.2017 897,-37 914.559,-41.3336 933.924,-47.3956 949.146,-52.4649"/>
<polygon fill="orange" stroke="orange" points="801.119,-14.4175 790.689,-16.2772 800.002,-21.3278 801.119,-14.4175"/>
<text text-anchor="middle" x="856" y="-40" font-family="Helvetica,sans-Serif" font-size="10.00"> &lt; std::string &gt;</text>
</g>
<!-- Node26 -->
<g id="node26" class="node"><title>Node26</title>
<polygon fill="white" stroke="#bfbfbf" points="490.5,-0.5 490.5,-19.5 519.5,-19.5 519.5,-0.5 490.5,-0.5"/>
<text text-anchor="middle" x="505" y="-7.5" font-family="Helvetica,sans-Serif" font-size="10.00">T</text>
</g>
<!-- Node26&#45;&gt;Node25 -->
<g id="edge45" class="edge"><title>Node26&#45;&gt;Node25</title>
<path fill="none" stroke="#9a32cd" stroke-dasharray="5,2" d="M529.803,-10C570.184,-10 652.644,-10 703.242,-10"/>
<polygon fill="#9a32cd" stroke="#9a32cd" points="529.591,-6.5001 519.591,-10 529.591,-13.5001 529.591,-6.5001"/>
<text text-anchor="middle" x="629.5" y="-13" font-family="Helvetica,sans-Serif" font-size="10.00"> elements</text>
</g>
<!-- Node27&#45;&gt;Node1 -->
<g id="edge47" class="edge"><title>Node27&#45;&gt;Node1</title>
<path fill="none" stroke="#9a32cd" stroke-dasharray="5,2" d="M1050.33,-60.5313C1083.86,-61.4116 1119.01,-65.1055 1131,-76 1200.95,-139.536 1215.98,-466.527 1218.18,-527.28"/>
<polygon fill="#9a32cd" stroke="#9a32cd" points="1050.07,-57.026 1040,-60.3436 1049.94,-64.0248 1050.07,-57.026"/>
<text text-anchor="middle" x="1094.5" y="-79" font-family="Helvetica,sans-Serif" font-size="10.00"> oformats</text>
</g>
</g>
</svg>
