<?xml version="1.0" encoding="UTF-8" standalone="no"?>
<!DOCTYPE svg PUBLIC "-//W3C//DTD SVG 1.1//EN"
 "http://www.w3.org/Graphics/SVG/1.1/DTD/svg11.dtd">
<!-- Generated by graphviz version 2.38.0 (20140413.2041)
 -->
<!-- Title: Cleaner::cleanCompareFile Pages: 1 -->
<svg width="631pt" height="39pt"
 viewBox="0.00 0.00 631.00 39.00" xmlns="http://www.w3.org/2000/svg" xmlns:xlink="http://www.w3.org/1999/xlink">
<g id="graph0" class="graph" transform="scale(1 1) rotate(0) translate(4 35)">
<title>Cleaner::cleanCompareFile</title>
<polygon fill="white" stroke="none" points="-4,4 -4,-35 627,-35 627,4 -4,4"/>
<!-- Node117 -->
<g id="node1" class="node"><title>Node117</title>
<polygon fill="#bfbfbf" stroke="black" points="0,-6 0,-25 135,-25 135,-6 0,-6"/>
<text text-anchor="middle" x="67.5" y="-13" font-family="Helvetica,sans-Serif" font-size="10.00">Cleaner::cleanCompareFile</text>
</g>
<!-- Node118 -->
<g id="node2" class="node"><title>Node118</title>
<g id="a_node2"><a xlink:href="classtrim_al_manager.html#aebfd21b0435302f0e4fc45a068d1b6ee" target="_top" xlink:title="Method to trim the alignment using non automatic methods: ">
<polygon fill="white" stroke="black" points="171,-0.5 171,-30.5 323,-30.5 323,-0.5 171,-0.5"/>
<text text-anchor="start" x="179" y="-18.5" font-family="Helvetica,sans-Serif" font-size="10.00">trimAlManager::CleanResidues</text>
<text text-anchor="middle" x="247" y="-7.5" font-family="Helvetica,sans-Serif" font-size="10.00">NonAuto</text>
</a>
</g>
</g>
<!-- Node117&#45;&gt;Node118 -->
<g id="edge1" class="edge"><title>Node117&#45;&gt;Node118</title>
<path fill="none" stroke="midnightblue" d="M145.367,-15.5C153.863,-15.5 162.506,-15.5 170.978,-15.5"/>
<polygon fill="midnightblue" stroke="midnightblue" points="145.099,-12.0001 135.099,-15.5 145.099,-19.0001 145.099,-12.0001"/>
</g>
<!-- Node119 -->
<g id="node3" class="node"><title>Node119</title>
<g id="a_node3"><a xlink:href="classtrim_al_manager.html#adc529dd893ed4e9df6f3ddbd58776068" target="_top" xlink:title="Core Method of the program. This is where almost all cleaning methods are called from. ">
<polygon fill="white" stroke="black" points="359,-0.5 359,-30.5 468,-30.5 468,-0.5 359,-0.5"/>
<text text-anchor="start" x="367" y="-18.5" font-family="Helvetica,sans-Serif" font-size="10.00">trimAlManager::clean</text>
<text text-anchor="middle" x="413.5" y="-7.5" font-family="Helvetica,sans-Serif" font-size="10.00">_alignment</text>
</a>
</g>
</g>
<!-- Node118&#45;&gt;Node119 -->
<g id="edge2" class="edge"><title>Node118&#45;&gt;Node119</title>
<path fill="none" stroke="midnightblue" d="M333.208,-15.5C341.881,-15.5 350.511,-15.5 358.709,-15.5"/>
<polygon fill="midnightblue" stroke="midnightblue" points="333.029,-12.0001 323.029,-15.5 333.029,-19.0001 333.029,-12.0001"/>
</g>
<!-- Node120 -->
<g id="node4" class="node"><title>Node120</title>
<g id="a_node4"><a xlink:href="classtrim_al_manager.html#abe8d2841455c644dc9c7d1294b82b00f" target="_top" xlink:title="Method to perform the analysis if all checks have passed. ">
<polygon fill="white" stroke="black" points="504,-6 504,-25 623,-25 623,-6 504,-6"/>
<text text-anchor="middle" x="563.5" y="-13" font-family="Helvetica,sans-Serif" font-size="10.00">trimAlManager::perform</text>
</a>
</g>
</g>
<!-- Node119&#45;&gt;Node120 -->
<g id="edge3" class="edge"><title>Node119&#45;&gt;Node120</title>
<path fill="none" stroke="midnightblue" d="M478.532,-15.5C486.977,-15.5 495.597,-15.5 503.943,-15.5"/>
<polygon fill="midnightblue" stroke="midnightblue" points="478.35,-12.0001 468.35,-15.5 478.35,-19.0001 478.35,-12.0001"/>
</g>
</g>
</svg>
