<?xml version="1.0" encoding="UTF-8" standalone="no"?>
<!DOCTYPE svg PUBLIC "-//W3C//DTD SVG 1.1//EN"
 "http://www.w3.org/Graphics/SVG/1.1/DTD/svg11.dtd">
<!-- Generated by graphviz version 2.40.1 (20161225.0304)
 -->
<!-- Title: BaseFormatHandler::LoadAlignment Pages: 1 -->
<svg width="934pt" height="204pt"
 viewBox="0.00 0.00 934.00 203.50" xmlns="http://www.w3.org/2000/svg" xmlns:xlink="http://www.w3.org/1999/xlink">
<g id="graph0" class="graph" transform="scale(1 1) rotate(0) translate(4 199.5)">
<title>BaseFormatHandler::LoadAlignment</title>
<polygon fill="#ffffff" stroke="transparent" points="-4,4 -4,-199.5 930,-199.5 930,4 -4,4"/>
<!-- Node5 -->
<g id="node1" class="node">
<title>Node5</title>
<g id="a_node1"><a xlink:title="Function to load a file in the current format and return an alignment object.">
<polygon fill="#bfbfbf" stroke="#000000" points="816,-126.5 816,-156.5 926,-156.5 926,-126.5 816,-126.5"/>
<text text-anchor="start" x="824" y="-144.5" font-family="Helvetica,sans-Serif" font-size="10.00" fill="#000000">BaseFormatHandler::</text>
<text text-anchor="middle" x="871" y="-133.5" font-family="Helvetica,sans-Serif" font-size="10.00" fill="#000000">LoadAlignment</text>
</a>
</g>
</g>
<!-- Node6 -->
<g id="node2" class="node">
<title>Node6</title>
<g id="a_node2"><a xlink:href="class_format_manager.html#a8e4018869bcf89ebee07b1356c2e36f6" target="_top" xlink:title="Function that loads an alignment given a file path. It automatically detects the format of the file.">
<polygon fill="#ffffff" stroke="#000000" points="628,-110 628,-129 780,-129 780,-110 628,-110"/>
<text text-anchor="middle" x="704" y="-117" font-family="Helvetica,sans-Serif" font-size="10.00" fill="#000000">FormatManager::loadAlignment</text>
</a>
</g>
</g>
<!-- Node5&#45;&gt;Node6 -->
<g id="edge1" class="edge">
<title>Node5&#45;&gt;Node6</title>
<path fill="none" stroke="#191970" d="M805.9094,-132.9252C796.2223,-131.649 786.1872,-130.3271 776.3617,-129.0327"/>
<polygon fill="#191970" stroke="#191970" points="805.4836,-136.3993 815.8551,-134.2354 806.3979,-129.4592 805.4836,-136.3993"/>
</g>
<!-- Node15 -->
<g id="node11" class="node">
<title>Node15</title>
<g id="a_node11"><a xlink:href="class_format_manager.html#a3dfaafe1cfe8904405e0453f4062485e" target="_top" xlink:title="Function that takes multiple files, loads them and saves in a cumulus of formats, using an outPattern...">
<polygon fill="#ffffff" stroke="#000000" points="629.5,-159.5 629.5,-189.5 778.5,-189.5 778.5,-159.5 629.5,-159.5"/>
<text text-anchor="start" x="637.5" y="-177.5" font-family="Helvetica,sans-Serif" font-size="10.00" fill="#000000">FormatManager::loadAndSave</text>
<text text-anchor="middle" x="704" y="-166.5" font-family="Helvetica,sans-Serif" font-size="10.00" fill="#000000">MultipleAlignments</text>
</a>
</g>
</g>
<!-- Node5&#45;&gt;Node15 -->
<g id="edge13" class="edge">
<title>Node5&#45;&gt;Node15</title>
<path fill="none" stroke="#191970" d="M805.9416,-154.3559C797.0295,-156.1169 787.8224,-157.9363 778.7545,-159.7282"/>
<polygon fill="#191970" stroke="#191970" points="806.7233,-157.7691 815.8551,-152.3969 805.3663,-150.9019 806.7233,-157.7691"/>
</g>
<!-- Node7 -->
<g id="node3" class="node">
<title>Node7</title>
<g id="a_node3"><a xlink:href="read_al_main_8cpp.html#a0ddf1224851353fc92bfbff6f499fa97" target="_top" xlink:title=" ">
<polygon fill="#ffffff" stroke="#000000" points="514.5,-176 514.5,-195 552.5,-195 552.5,-176 514.5,-176"/>
<text text-anchor="middle" x="533.5" y="-183" font-family="Helvetica,sans-Serif" font-size="10.00" fill="#000000">main</text>
</a>
</g>
</g>
<!-- Node6&#45;&gt;Node7 -->
<g id="edge2" class="edge">
<title>Node6&#45;&gt;Node7</title>
<path fill="none" stroke="#191970" d="M670.3061,-132.9829C657.0784,-138.3441 641.7897,-144.6249 628,-150.5 611.8919,-157.3628 608.3486,-160.2316 592,-166.5 579.0381,-171.4699 564.155,-176.2918 552.6445,-179.8345"/>
<polygon fill="#191970" stroke="#191970" points="671.9987,-136.0741 679.9607,-129.0844 669.3776,-129.5833 671.9987,-136.0741"/>
</g>
<!-- Node8 -->
<g id="node4" class="node">
<title>Node8</title>
<g id="a_node4"><a xlink:href="classstatistics_1_1_consistency.html#a2e281b6a138074a23ebf261731e3aa27" target="_top" xlink:title="Method to compare a set of MSA, all containing the same sequences and residues. The number of residue...">
<polygon fill="#ffffff" stroke="#000000" points="475,-126.5 475,-156.5 592,-156.5 592,-126.5 475,-126.5"/>
<text text-anchor="start" x="483" y="-144.5" font-family="Helvetica,sans-Serif" font-size="10.00" fill="#000000">statistics::Consistency</text>
<text text-anchor="middle" x="533.5" y="-133.5" font-family="Helvetica,sans-Serif" font-size="10.00" fill="#000000">::perform</text>
</a>
</g>
</g>
<!-- Node6&#45;&gt;Node8 -->
<g id="edge3" class="edge">
<title>Node6&#45;&gt;Node8</title>
<path fill="none" stroke="#191970" d="M620.0442,-130.333C610.6502,-131.5451 601.2352,-132.76 592.2557,-133.9186"/>
<polygon fill="#191970" stroke="#191970" points="620.738,-133.7726 630.2079,-129.0216 619.8421,-126.8301 620.738,-133.7726"/>
</g>
<!-- Node12 -->
<g id="node8" class="node">
<title>Node12</title>
<g id="a_node8"><a xlink:href="classtrim_al_manager.html#a9580aa82de8aba6794647a36c0416a33" target="_top" xlink:title="Method to parse the input file argument.">
<polygon fill="#ffffff" stroke="#000000" points="283.5,-94 283.5,-113 422.5,-113 422.5,-94 283.5,-94"/>
<text text-anchor="middle" x="353" y="-101" font-family="Helvetica,sans-Serif" font-size="10.00" fill="#000000">trimAlManager::in_argument</text>
</a>
</g>
</g>
<!-- Node6&#45;&gt;Node12 -->
<g id="edge7" class="edge">
<title>Node6&#45;&gt;Node12</title>
<path fill="none" stroke="#191970" d="M617.6258,-115.5627C557.6419,-112.8284 478.7485,-109.2321 422.7545,-106.6797"/>
<polygon fill="#191970" stroke="#191970" points="617.6892,-119.0691 627.8382,-116.0282 618.008,-112.0764 617.6892,-119.0691"/>
</g>
<!-- Node13 -->
<g id="node9" class="node">
<title>Node13</title>
<g id="a_node9"><a xlink:href="classtrim_al_manager.html#a63dad1ad106b0fa09351cd5981b37aeb" target="_top" xlink:title="Method to parse the force select argument.">
<polygon fill="#ffffff" stroke="#000000" points="299.5,-44.5 299.5,-74.5 406.5,-74.5 406.5,-44.5 299.5,-44.5"/>
<text text-anchor="start" x="307.5" y="-62.5" font-family="Helvetica,sans-Serif" font-size="10.00" fill="#000000">trimAlManager::force</text>
<text text-anchor="middle" x="353" y="-51.5" font-family="Helvetica,sans-Serif" font-size="10.00" fill="#000000">_select_argument</text>
</a>
</g>
</g>
<!-- Node6&#45;&gt;Node13 -->
<g id="edge9" class="edge">
<title>Node6&#45;&gt;Node13</title>
<path fill="none" stroke="#191970" d="M638.368,-108.2809C571.4401,-96.8402 468.8515,-79.3037 406.6302,-68.6675"/>
<polygon fill="#191970" stroke="#191970" points="637.9362,-111.7577 648.383,-109.9928 639.1157,-104.8578 637.9362,-111.7577"/>
</g>
<!-- Node14 -->
<g id="node10" class="node">
<title>Node14</title>
<g id="a_node10"><a xlink:href="classtrim_al_manager.html#ae49bc2cb7f90419296da65a23df39c8d" target="_top" xlink:title="Method to parse the backtranslation argument.">
<polygon fill="#ffffff" stroke="#000000" points="480,-.5 480,-30.5 587,-30.5 587,-.5 480,-.5"/>
<text text-anchor="start" x="488" y="-18.5" font-family="Helvetica,sans-Serif" font-size="10.00" fill="#000000">trimAlManager::back</text>
<text text-anchor="middle" x="533.5" y="-7.5" font-family="Helvetica,sans-Serif" font-size="10.00" fill="#000000">_trans_argument</text>
</a>
</g>
</g>
<!-- Node6&#45;&gt;Node14 -->
<g id="edge11" class="edge">
<title>Node6&#45;&gt;Node14</title>
<path fill="none" stroke="#191970" d="M682.1281,-104.0117C659.8782,-88.5049 624.1864,-64.3093 592,-45.5 583.2295,-40.3746 573.4866,-35.187 564.5075,-30.6"/>
<polygon fill="#191970" stroke="#191970" points="680.3171,-107.0164 690.515,-109.8896 684.3346,-101.2841 680.3171,-107.0164"/>
</g>
<!-- Node9 -->
<g id="node5" class="node">
<title>Node9</title>
<g id="a_node5"><a xlink:href="classtrim_al_manager.html#a12b7cef964ef258fe7621da44867c51f" target="_top" xlink:title="Method to check if multiple files comparison has been set correctly. It also perform some calculation...">
<polygon fill="#ffffff" stroke="#000000" points="267,-132 267,-151 439,-151 439,-132 267,-132"/>
<text text-anchor="middle" x="353" y="-139" font-family="Helvetica,sans-Serif" font-size="10.00" fill="#000000">trimAlManager::performCompareset</text>
</a>
</g>
</g>
<!-- Node8&#45;&gt;Node9 -->
<g id="edge4" class="edge">
<title>Node8&#45;&gt;Node9</title>
<path fill="none" stroke="#191970" d="M464.815,-141.5C456.425,-141.5 447.7709,-141.5 439.1664,-141.5"/>
<polygon fill="#191970" stroke="#191970" points="464.8969,-145.0001 474.8968,-141.5 464.8968,-138.0001 464.8969,-145.0001"/>
</g>
<!-- Node10 -->
<g id="node6" class="node">
<title>Node10</title>
<g id="a_node6"><a xlink:href="classtrim_al_manager.html#af140d97b6071a83930818030ac74b641" target="_top" xlink:title="Method to parse arguments into usable structure in trimal.">
<polygon fill="#ffffff" stroke="#000000" points="74,-72 74,-91 231,-91 231,-72 74,-72"/>
<text text-anchor="middle" x="152.5" y="-79" font-family="Helvetica,sans-Serif" font-size="10.00" fill="#000000">trimAlManager::parseArguments</text>
</a>
</g>
</g>
<!-- Node9&#45;&gt;Node10 -->
<g id="edge5" class="edge">
<title>Node9&#45;&gt;Node10</title>
<path fill="none" stroke="#191970" d="M294.5613,-129.6343C285.2913,-127.4522 275.8476,-125.0503 267,-122.5 235.1472,-113.3183 199.2988,-99.9779 176.336,-91.033"/>
<polygon fill="#191970" stroke="#191970" points="293.9867,-133.0932 304.5155,-131.9124 295.5484,-126.2696 293.9867,-133.0932"/>
</g>
<!-- Node11 -->
<g id="node7" class="node">
<title>Node11</title>
<g id="a_node7"><a xlink:href="trim_al_main_8cpp.html#a0ddf1224851353fc92bfbff6f499fa97" target="_top" xlink:title=" ">
<polygon fill="#ffffff" stroke="#000000" points="0,-72 0,-91 38,-91 38,-72 0,-72"/>
<text text-anchor="middle" x="19" y="-79" font-family="Helvetica,sans-Serif" font-size="10.00" fill="#000000">main</text>
</a>
</g>
</g>
<!-- Node10&#45;&gt;Node11 -->
<g id="edge6" class="edge">
<title>Node10&#45;&gt;Node11</title>
<path fill="none" stroke="#191970" d="M63.4234,-81.5C54.1647,-81.5 45.5538,-81.5 38.4254,-81.5"/>
<polygon fill="#191970" stroke="#191970" points="63.6848,-85.0001 73.6848,-81.5 63.6847,-78.0001 63.6848,-85.0001"/>
</g>
<!-- Node12&#45;&gt;Node10 -->
<g id="edge8" class="edge">
<title>Node12&#45;&gt;Node10</title>
<path fill="none" stroke="#191970" d="M273.4327,-94.7694C259.5359,-93.2446 245.0848,-91.6589 231.2113,-90.1366"/>
<polygon fill="#191970" stroke="#191970" points="273.1154,-98.2555 283.4375,-95.8672 273.879,-91.2973 273.1154,-98.2555"/>
</g>
<!-- Node13&#45;&gt;Node10 -->
<g id="edge10" class="edge">
<title>Node13&#45;&gt;Node10</title>
<path fill="none" stroke="#191970" d="M289.2482,-66.4952C270.8223,-68.517 250.4913,-70.7478 231.2663,-72.8573"/>
<polygon fill="#191970" stroke="#191970" points="289.7111,-69.9655 299.2697,-65.3956 288.9476,-63.0073 289.7111,-69.9655"/>
</g>
<!-- Node14&#45;&gt;Node10 -->
<g id="edge12" class="edge">
<title>Node14&#45;&gt;Node10</title>
<path fill="none" stroke="#191970" d="M469.7024,-14.4C415.1753,-14.7945 334.9868,-18.5569 267,-34.5 231.4352,-42.8401 192.6128,-60.8295 170.5426,-71.9749"/>
<polygon fill="#191970" stroke="#191970" points="469.9278,-17.8994 479.9152,-14.3634 469.9026,-10.8994 469.9278,-17.8994"/>
</g>
<!-- Node15&#45;&gt;Node7 -->
<g id="edge14" class="edge">
<title>Node15&#45;&gt;Node7</title>
<path fill="none" stroke="#191970" d="M618.9642,-179.9862C594.1039,-181.5901 569.2194,-183.1955 552.7671,-184.257"/>
<polygon fill="#191970" stroke="#191970" points="619.4623,-183.4614 629.2162,-179.3248 619.0116,-176.4759 619.4623,-183.4614"/>
</g>
</g>
</svg>
