<?xml version="1.0" encoding="UTF-8" standalone="no"?>
<!DOCTYPE svg PUBLIC "-//W3C//DTD SVG 1.1//EN"
 "http://www.w3.org/Graphics/SVG/1.1/DTD/svg11.dtd">
<!-- Generated by graphviz version 2.40.1 (20161225.0304)
 -->
<!-- Title: statistics::Manager::printStatisticsGapsColumns Pages: 1 -->
<svg width="667pt" height="168pt"
 viewBox="0.00 0.00 667.00 167.50" xmlns="http://www.w3.org/2000/svg" xmlns:xlink="http://www.w3.org/1999/xlink">
<g id="graph0" class="graph" transform="scale(1 1) rotate(0) translate(4 163.5)">
<title>statistics::Manager::printStatisticsGapsColumns</title>
<polygon fill="#ffffff" stroke="transparent" points="-4,4 -4,-163.5 663,-163.5 663,4 -4,4"/>
<!-- Node131 -->
<g id="node1" class="node">
<title>Node131</title>
<g id="a_node1"><a xlink:title="Wrapper to Statistics::Gaps::printGapsColumns() It calls to calculateGapStats() to make sure the info...">
<polygon fill="#bfbfbf" stroke="#000000" points="0,-24.5 0,-54.5 145,-54.5 145,-24.5 0,-24.5"/>
<text text-anchor="start" x="8" y="-42.5" font-family="Helvetica,sans-Serif" font-size="10.00" fill="#000000">statistics::Manager</text>
<text text-anchor="middle" x="72.5" y="-31.5" font-family="Helvetica,sans-Serif" font-size="10.00" fill="#000000">::printStatisticsGapsColumns</text>
</a>
</g>
</g>
<!-- Node132 -->
<g id="node2" class="node">
<title>Node132</title>
<g id="a_node2"><a xlink:href="classstatistics_1_1_manager.html#a1969a416d3020d25daa56de6c5e305db" target="_top" xlink:title="Method to handle gap stat calculation It checks if the gaps submodule has been created,...">
<polygon fill="#ffffff" stroke="#000000" points="196.5,-49.5 196.5,-79.5 299.5,-79.5 299.5,-49.5 196.5,-49.5"/>
<text text-anchor="start" x="204.5" y="-67.5" font-family="Helvetica,sans-Serif" font-size="10.00" fill="#000000">statistics::Manager</text>
<text text-anchor="middle" x="248" y="-56.5" font-family="Helvetica,sans-Serif" font-size="10.00" fill="#000000">::calculateGapStats</text>
</a>
</g>
</g>
<!-- Node131&#45;&gt;Node132 -->
<g id="edge1" class="edge">
<title>Node131&#45;&gt;Node132</title>
<path fill="none" stroke="#191970" d="M145.1494,-49.8489C158.8257,-51.7971 173.0066,-53.8172 186.3088,-55.7121"/>
<polygon fill="#191970" stroke="#191970" points="185.8933,-59.1881 196.287,-57.1335 186.8805,-52.2581 185.8933,-59.1881"/>
</g>
<!-- Node138 -->
<g id="node8" class="node">
<title>Node138</title>
<g id="a_node8"><a xlink:href="classstatistics_1_1_gaps.html#aec7e27fe863551ab270f5160d13e17dd" target="_top" xlink:title=" ">
<polygon fill="#ffffff" stroke="#000000" points="181,-.5 181,-30.5 315,-30.5 315,-.5 181,-.5"/>
<text text-anchor="start" x="189" y="-18.5" font-family="Helvetica,sans-Serif" font-size="10.00" fill="#000000">statistics::Gaps::printGaps</text>
<text text-anchor="middle" x="248" y="-7.5" font-family="Helvetica,sans-Serif" font-size="10.00" fill="#000000">Columns</text>
</a>
</g>
</g>
<!-- Node131&#45;&gt;Node138 -->
<g id="edge7" class="edge">
<title>Node131&#45;&gt;Node138</title>
<path fill="none" stroke="#191970" d="M145.1494,-29.565C153.6216,-28.4064 162.2874,-27.2214 170.818,-26.0548"/>
<polygon fill="#191970" stroke="#191970" points="171.3169,-29.5192 180.7504,-24.6965 170.3684,-22.5838 171.3169,-29.5192"/>
</g>
<!-- Node133 -->
<g id="node3" class="node">
<title>Node133</title>
<g id="a_node3"><a xlink:href="classstatistics_1_1_gaps.html#aee36b772767467cdba2061df2305e85d" target="_top" xlink:title=" ">
<polygon fill="#ffffff" stroke="#000000" points="351,-96 351,-115 501,-115 501,-96 351,-96"/>
<text text-anchor="middle" x="426" y="-103" font-family="Helvetica,sans-Serif" font-size="10.00" fill="#000000">statistics::Gaps::applyWindow</text>
</a>
</g>
</g>
<!-- Node132&#45;&gt;Node133 -->
<g id="edge2" class="edge">
<title>Node132&#45;&gt;Node133</title>
<path fill="none" stroke="#191970" d="M299.9635,-76.4691C323.5779,-81.9084 351.4262,-88.3229 374.9319,-93.7371"/>
<polygon fill="#191970" stroke="#191970" points="374.1845,-97.1565 384.7149,-95.9905 375.7557,-90.3352 374.1845,-97.1565"/>
</g>
<!-- Node137 -->
<g id="node7" class="node">
<title>Node137</title>
<g id="a_node7"><a xlink:href="classstatistics_1_1_gaps.html#aa3526494d5100e062daa4afba755d0b1" target="_top" xlink:title=" ">
<polygon fill="#ffffff" stroke="#000000" points="359.5,-46.5 359.5,-76.5 492.5,-76.5 492.5,-46.5 359.5,-46.5"/>
<text text-anchor="start" x="367.5" y="-64.5" font-family="Helvetica,sans-Serif" font-size="10.00" fill="#000000">statistics::Gaps::Calculate</text>
<text text-anchor="middle" x="426" y="-53.5" font-family="Helvetica,sans-Serif" font-size="10.00" fill="#000000">Vectors</text>
</a>
</g>
</g>
<!-- Node132&#45;&gt;Node137 -->
<g id="edge6" class="edge">
<title>Node132&#45;&gt;Node137</title>
<path fill="none" stroke="#191970" d="M299.9635,-63.6242C315.3446,-63.365 332.5219,-63.0755 349.1255,-62.7956"/>
<polygon fill="#191970" stroke="#191970" points="349.4287,-66.2911 359.3683,-62.623 349.3107,-59.2921 349.4287,-66.2911"/>
</g>
<!-- Node134 -->
<g id="node4" class="node">
<title>Node134</title>
<g id="a_node4"><a xlink:href="namespaceutils.html#aac322cd1761fddedec8a5792e358eb32" target="_top" xlink:title="Vector initialization.">
<polygon fill="#ffffff" stroke="#000000" points="560,-140 560,-159 636,-159 636,-140 560,-140"/>
<text text-anchor="middle" x="598" y="-147" font-family="Helvetica,sans-Serif" font-size="10.00" fill="#000000">utils::initlVect</text>
</a>
</g>
</g>
<!-- Node133&#45;&gt;Node134 -->
<g id="edge3" class="edge">
<title>Node133&#45;&gt;Node134</title>
<path fill="none" stroke="#191970" d="M463.3214,-115.0473C489.0161,-121.6204 523.3551,-130.4048 550.9277,-137.4583"/>
<polygon fill="#191970" stroke="#191970" points="550.1959,-140.8837 560.7514,-139.9713 551.9308,-134.1021 550.1959,-140.8837"/>
</g>
<!-- Node135 -->
<g id="node5" class="node">
<title>Node135</title>
<g id="a_node5"><a xlink:href="classreporting_1_1report_manager.html#a6d122e673144584e0869bd33b8a5c1c6" target="_top" xlink:title="Method to report an Error. &#160;It will be displayed if Level &#160;is equal or higher to VerboseLevel::ERROR.">
<polygon fill="#ffffff" stroke="#000000" points="537,-90.5 537,-120.5 659,-120.5 659,-90.5 537,-90.5"/>
<text text-anchor="start" x="545" y="-108.5" font-family="Helvetica,sans-Serif" font-size="10.00" fill="#000000">reporting::reportManager</text>
<text text-anchor="middle" x="598" y="-97.5" font-family="Helvetica,sans-Serif" font-size="10.00" fill="#000000">::report</text>
</a>
</g>
</g>
<!-- Node133&#45;&gt;Node135 -->
<g id="edge4" class="edge">
<title>Node133&#45;&gt;Node135</title>
<path fill="none" stroke="#191970" d="M501.1915,-105.5C509.6746,-105.5 518.3002,-105.5 526.7311,-105.5"/>
<polygon fill="#191970" stroke="#191970" points="526.8958,-109.0001 536.8958,-105.5 526.8957,-102.0001 526.8958,-109.0001"/>
</g>
<!-- Node136 -->
<g id="node6" class="node">
<title>Node136</title>
<g id="a_node6"><a xlink:href="namespaceutils.html#ad50731aeb3c8f79ed8372516210dfc9d" target="_top" xlink:title="Round double to integer method.">
<polygon fill="#ffffff" stroke="#000000" points="560,-52 560,-71 636,-71 636,-52 560,-52"/>
<text text-anchor="middle" x="598" y="-59" font-family="Helvetica,sans-Serif" font-size="10.00" fill="#000000">utils::roundInt</text>
</a>
</g>
</g>
<!-- Node133&#45;&gt;Node136 -->
<g id="edge5" class="edge">
<title>Node133&#45;&gt;Node136</title>
<path fill="none" stroke="#191970" d="M463.7774,-95.9621C475.6896,-92.9459 488.897,-89.5927 501,-86.5 517.3095,-82.3324 535.1534,-77.7422 551.0395,-73.6449"/>
<polygon fill="#191970" stroke="#191970" points="552.3524,-76.9208 561.1605,-71.0329 550.6031,-70.1429 552.3524,-76.9208"/>
</g>
<!-- Node139 -->
<g id="node9" class="node">
<title>Node139</title>
<g id="a_node9"><a xlink:href="namespaceutils.html#a42f272221edf7752ffda49e4212ef653" target="_top" xlink:title="Integer vector copying.">
<polygon fill="#ffffff" stroke="#000000" points="385,-6 385,-25 467,-25 467,-6 385,-6"/>
<text text-anchor="middle" x="426" y="-13" font-family="Helvetica,sans-Serif" font-size="10.00" fill="#000000">utils::copyVect</text>
</a>
</g>
</g>
<!-- Node138&#45;&gt;Node139 -->
<g id="edge8" class="edge">
<title>Node138&#45;&gt;Node139</title>
<path fill="none" stroke="#191970" d="M315.0405,-15.5C334.8306,-15.5 356.1658,-15.5 374.7898,-15.5"/>
<polygon fill="#191970" stroke="#191970" points="374.8305,-19.0001 384.8304,-15.5 374.8304,-12.0001 374.8305,-19.0001"/>
</g>
</g>
</svg>
