<?xml version="1.0" encoding="UTF-8" standalone="no"?>
<!DOCTYPE svg PUBLIC "-//W3C//DTD SVG 1.1//EN"
 "http://www.w3.org/Graphics/SVG/1.1/DTD/svg11.dtd">
<!-- Generated by graphviz version 2.40.1 (20161225.0304)
 -->
<!-- Title: Cleaner::setTrimTerminalGapsFlag Pages: 1 -->
<svg width="544pt" height="53pt"
 viewBox="0.00 0.00 544.00 52.50" xmlns="http://www.w3.org/2000/svg" xmlns:xlink="http://www.w3.org/1999/xlink">
<g id="graph0" class="graph" transform="scale(1 1) rotate(0) translate(4 48.5)">
<title>Cleaner::setTrimTerminalGapsFlag</title>
<polygon fill="#ffffff" stroke="transparent" points="-4,4 -4,-48.5 540,-48.5 540,4 -4,4"/>
<!-- Node438 -->
<g id="node1" class="node">
<title>Node438</title>
<g id="a_node1"><a xlink:title="Setter method to Terminal Only Flag.">
<polygon fill="#bfbfbf" stroke="#000000" points="409,-14 409,-44 536,-44 536,-14 409,-14"/>
<text text-anchor="start" x="417" y="-32" font-family="Helvetica,sans-Serif" font-size="10.00" fill="#000000">Cleaner::setTrimTerminal</text>
<text text-anchor="middle" x="472.5" y="-21" font-family="Helvetica,sans-Serif" font-size="10.00" fill="#000000">GapsFlag</text>
</a>
</g>
</g>
<!-- Node439 -->
<g id="node2" class="node">
<title>Node439</title>
<g id="a_node2"><a xlink:href="classtrim_al_manager.html#abe8d2841455c644dc9c7d1294b82b00f" target="_top" xlink:title="Method to perform the analysis if all checks have passed.">
<polygon fill="#ffffff" stroke="#000000" points="74,-19.5 74,-38.5 193,-38.5 193,-19.5 74,-19.5"/>
<text text-anchor="middle" x="133.5" y="-26.5" font-family="Helvetica,sans-Serif" font-size="10.00" fill="#000000">trimAlManager::perform</text>
</a>
</g>
</g>
<!-- Node438&#45;&gt;Node439 -->
<g id="edge1" class="edge">
<title>Node438&#45;&gt;Node439</title>
<path fill="none" stroke="#191970" d="M398.6836,-29C337.0347,-29 250.2719,-29 193.0009,-29"/>
<polygon fill="#191970" stroke="#191970" points="398.7367,-32.5001 408.7367,-29 398.7367,-25.5001 398.7367,-32.5001"/>
</g>
<!-- Node441 -->
<g id="node4" class="node">
<title>Node441</title>
<g id="a_node4"><a xlink:href="classtrim_al_manager.html#ac5795f93b3a2b51bf5d8dddd63b89f73" target="_top" xlink:title=" ">
<polygon fill="#ffffff" stroke="#000000" points="229,-.5 229,-19.5 373,-19.5 373,-.5 229,-.5"/>
<text text-anchor="middle" x="301" y="-7.5" font-family="Helvetica,sans-Serif" font-size="10.00" fill="#000000">trimAlManager::perform_VCF</text>
</a>
</g>
</g>
<!-- Node438&#45;&gt;Node441 -->
<g id="edge3" class="edge">
<title>Node438&#45;&gt;Node441</title>
<path fill="none" stroke="#191970" d="M398.5272,-20.8048C390.1566,-19.8774 381.6334,-18.9331 373.2848,-18.0082"/>
<polygon fill="#191970" stroke="#191970" points="398.3151,-24.3026 408.6397,-21.9251 399.086,-17.3452 398.3151,-24.3026"/>
</g>
<!-- Node440 -->
<g id="node3" class="node">
<title>Node440</title>
<g id="a_node3"><a xlink:href="trim_al_main_8cpp.html#a0ddf1224851353fc92bfbff6f499fa97" target="_top" xlink:title=" ">
<polygon fill="#ffffff" stroke="#000000" points="0,-19.5 0,-38.5 38,-38.5 38,-19.5 0,-19.5"/>
<text text-anchor="middle" x="19" y="-26.5" font-family="Helvetica,sans-Serif" font-size="10.00" fill="#000000">main</text>
</a>
</g>
</g>
<!-- Node439&#45;&gt;Node440 -->
<g id="edge2" class="edge">
<title>Node439&#45;&gt;Node440</title>
<path fill="none" stroke="#191970" d="M63.6802,-29C54.3823,-29 45.5497,-29 38.2303,-29"/>
<polygon fill="#191970" stroke="#191970" points="63.9025,-32.5001 73.9024,-29 63.9024,-25.5001 63.9025,-32.5001"/>
</g>
<!-- Node441&#45;&gt;Node439 -->
<g id="edge4" class="edge">
<title>Node441&#45;&gt;Node439</title>
<path fill="none" stroke="#191970" d="M218.8378,-19.3199C210.1593,-20.3043 201.4581,-21.2913 193.107,-22.2386"/>
<polygon fill="#191970" stroke="#191970" points="219.4511,-22.7729 228.9928,-18.168 218.662,-15.8175 219.4511,-22.7729"/>
</g>
</g>
</svg>
