<?xml version="1.0" encoding="UTF-8" standalone="no"?>
<!DOCTYPE svg PUBLIC "-//W3C//DTD SVG 1.1//EN"
 "http://www.w3.org/Graphics/SVG/1.1/DTD/svg11.dtd">
<!-- Generated by graphviz version 2.40.1 (20161225.0304)
 -->
<!-- Title: statistics::similarityMatrix::alternativeSimilarityMatrices Pages: 1 -->
<svg width="724pt" height="39pt"
 viewBox="0.00 0.00 724.00 39.00" xmlns="http://www.w3.org/2000/svg" xmlns:xlink="http://www.w3.org/1999/xlink">
<g id="graph0" class="graph" transform="scale(1 1) rotate(0) translate(4 35)">
<title>statistics::similarityMatrix::alternativeSimilarityMatrices</title>
<polygon fill="#ffffff" stroke="transparent" points="-4,4 -4,-35 720,-35 720,4 -4,4"/>
<!-- Node12 -->
<g id="node1" class="node">
<title>Node12</title>
<polygon fill="#bfbfbf" stroke="#000000" points="0,-.5 0,-30.5 146,-30.5 146,-.5 0,-.5"/>
<text text-anchor="start" x="8" y="-18.5" font-family="Helvetica,sans-Serif" font-size="10.00" fill="#000000">statistics::similarityMatrix</text>
<text text-anchor="middle" x="73" y="-7.5" font-family="Helvetica,sans-Serif" font-size="10.00" fill="#000000">::alternativeSimilarityMatrices</text>
</g>
<!-- Node13 -->
<g id="node2" class="node">
<title>Node13</title>
<g id="a_node2"><a xlink:href="classtrim_al_manager.html#a3e8b2b5b4e1a44c498c47448840b6c69" target="_top" xlink:title="Method to create, load and use a similarity matrix, depending on alignment residue nature...">
<polygon fill="#ffffff" stroke="#000000" points="182,-.5 182,-30.5 310,-30.5 310,-.5 182,-.5"/>
<text text-anchor="start" x="190" y="-18.5" font-family="Helvetica,sans-Serif" font-size="10.00" fill="#000000">trimAlManager::create</text>
<text text-anchor="middle" x="246" y="-7.5" font-family="Helvetica,sans-Serif" font-size="10.00" fill="#000000">_or_use_similarity_matrix</text>
</a>
</g>
</g>
<!-- Node12&#45;&gt;Node13 -->
<g id="edge1" class="edge">
<title>Node12&#45;&gt;Node13</title>
<path fill="none" stroke="#191970" d="M156.2156,-15.5C164.853,-15.5 173.5342,-15.5 181.9139,-15.5"/>
<polygon fill="#191970" stroke="#191970" points="156.1169,-12.0001 146.1168,-15.5 156.1168,-19.0001 156.1169,-12.0001"/>
</g>
<!-- Node14 -->
<g id="node3" class="node">
<title>Node14</title>
<g id="a_node3"><a xlink:href="classtrim_al_manager.html#a7c641a1feff33d401b4ea5c82e989289" target="_top" xlink:title="trimAlManager::innerPerform">
<polygon fill="#ffffff" stroke="#000000" points="346,-6 346,-25 487,-25 487,-6 346,-6"/>
<text text-anchor="middle" x="416.5" y="-13" font-family="Helvetica,sans-Serif" font-size="10.00" fill="#000000">trimAlManager::innerPerform</text>
</a>
</g>
</g>
<!-- Node13&#45;&gt;Node14 -->
<g id="edge2" class="edge">
<title>Node13&#45;&gt;Node14</title>
<path fill="none" stroke="#191970" d="M320.6319,-15.5C329.0476,-15.5 337.6035,-15.5 345.9647,-15.5"/>
<polygon fill="#191970" stroke="#191970" points="320.4588,-12.0001 310.4587,-15.5 320.4587,-19.0001 320.4588,-12.0001"/>
</g>
<!-- Node15 -->
<g id="node4" class="node">
<title>Node15</title>
<g id="a_node4"><a xlink:href="classtrim_al_manager.html#abe8d2841455c644dc9c7d1294b82b00f" target="_top" xlink:title="Method to perform the analysis if all checks have passed. ">
<polygon fill="#ffffff" stroke="#000000" points="523,-6 523,-25 642,-25 642,-6 523,-6"/>
<text text-anchor="middle" x="582.5" y="-13" font-family="Helvetica,sans-Serif" font-size="10.00" fill="#000000">trimAlManager::perform</text>
</a>
</g>
</g>
<!-- Node14&#45;&gt;Node15 -->
<g id="edge3" class="edge">
<title>Node14&#45;&gt;Node15</title>
<path fill="none" stroke="#191970" d="M497.4012,-15.5C505.9677,-15.5 514.564,-15.5 522.8249,-15.5"/>
<polygon fill="#191970" stroke="#191970" points="497.3805,-12.0001 487.3804,-15.5 497.3804,-19.0001 497.3805,-12.0001"/>
</g>
<!-- Node16 -->
<g id="node5" class="node">
<title>Node16</title>
<g id="a_node5"><a xlink:href="trim_al_main_8cpp.html#a0ddf1224851353fc92bfbff6f499fa97" target="_top" xlink:title="main">
<polygon fill="#ffffff" stroke="#000000" points="678,-6 678,-25 716,-25 716,-6 678,-6"/>
<text text-anchor="middle" x="697" y="-13" font-family="Helvetica,sans-Serif" font-size="10.00" fill="#000000">main</text>
</a>
</g>
</g>
<!-- Node15&#45;&gt;Node16 -->
<g id="edge4" class="edge">
<title>Node15&#45;&gt;Node16</title>
<path fill="none" stroke="#191970" d="M652.3198,-15.5C661.6177,-15.5 670.4503,-15.5 677.7697,-15.5"/>
<polygon fill="#191970" stroke="#191970" points="652.0976,-12.0001 642.0976,-15.5 652.0975,-19.0001 652.0976,-12.0001"/>
</g>
</g>
</svg>
