<?xml version="1.0" encoding="UTF-8" standalone="no"?>
<!DOCTYPE svg PUBLIC "-//W3C//DTD SVG 1.1//EN"
 "http://www.w3.org/Graphics/SVG/1.1/DTD/svg11.dtd">
<!-- Generated by graphviz version 2.40.1 (20161225.0304)
 -->
<!-- Title: Cleaner::cleanNoAllGaps Pages: 1 -->
<svg width="895pt" height="66pt"
 viewBox="0.00 0.00 895.00 66.00" xmlns="http://www.w3.org/2000/svg" xmlns:xlink="http://www.w3.org/1999/xlink">
<g id="graph0" class="graph" transform="scale(1 1) rotate(0) translate(4 62)">
<title>Cleaner::cleanNoAllGaps</title>
<polygon fill="#ffffff" stroke="transparent" points="-4,4 -4,-62 891,-62 891,4 -4,4"/>
<!-- Node383 -->
<g id="node1" class="node">
<title>Node383</title>
<polygon fill="#bfbfbf" stroke="#000000" points="0,-19.5 0,-38.5 127,-38.5 127,-19.5 0,-19.5"/>
<text text-anchor="middle" x="63.5" y="-26.5" font-family="Helvetica,sans-Serif" font-size="10.00" fill="#000000">Cleaner::cleanNoAllGaps</text>
</g>
<!-- Node384 -->
<g id="node2" class="node">
<title>Node384</title>
<g id="a_node2"><a xlink:href="classtrim_al_manager.html#a69082911b30a1bd12395bb235bc18a34" target="_top" xlink:title="Method to trim the alignment using automatic or semi&#45;automatic methods: ">
<polygon fill="#ffffff" stroke="#000000" points="163,-38.5 163,-57.5 336,-57.5 336,-38.5 163,-38.5"/>
<text text-anchor="middle" x="249.5" y="-45.5" font-family="Helvetica,sans-Serif" font-size="10.00" fill="#000000">trimAlManager::CleanResiduesAuto</text>
</a>
</g>
</g>
<!-- Node383&#45;&gt;Node384 -->
<g id="edge1" class="edge">
<title>Node383&#45;&gt;Node384</title>
<path fill="none" stroke="#191970" d="M137.3369,-36.5425C145.7099,-37.3978 154.2995,-38.2752 162.8181,-39.1454"/>
<polygon fill="#191970" stroke="#191970" points="137.5544,-33.0466 127.2504,-35.5121 136.8429,-40.0103 137.5544,-33.0466"/>
</g>
<!-- Node389 -->
<g id="node7" class="node">
<title>Node389</title>
<g id="a_node7"><a xlink:href="classtrim_al_manager.html#a10536f715945a1a45f1df33f7cedc81e" target="_top" xlink:title="Method to trim or reduce the number of sequences in an alignment. It performs one or none of the foll...">
<polygon fill="#ffffff" stroke="#000000" points="169.5,-.5 169.5,-19.5 329.5,-19.5 329.5,-.5 169.5,-.5"/>
<text text-anchor="middle" x="249.5" y="-7.5" font-family="Helvetica,sans-Serif" font-size="10.00" fill="#000000">trimAlManager::CleanSequences</text>
</a>
</g>
</g>
<!-- Node383&#45;&gt;Node389 -->
<g id="edge6" class="edge">
<title>Node383&#45;&gt;Node389</title>
<path fill="none" stroke="#191970" d="M137.2508,-21.4663C147.8116,-20.3875 158.7188,-19.2734 169.3947,-18.1828"/>
<polygon fill="#191970" stroke="#191970" points="136.8429,-17.9897 127.2504,-22.4879 137.5544,-24.9534 136.8429,-17.9897"/>
</g>
<!-- Node385 -->
<g id="node3" class="node">
<title>Node385</title>
<g id="a_node3"><a xlink:href="classtrim_al_manager.html#adc529dd893ed4e9df6f3ddbd58776068" target="_top" xlink:title="Core Method of the program. This is where almost all cleaning methods are called from. ">
<polygon fill="#ffffff" stroke="#000000" points="372,-14 372,-44 481,-44 481,-14 372,-14"/>
<text text-anchor="start" x="380" y="-32" font-family="Helvetica,sans-Serif" font-size="10.00" fill="#000000">trimAlManager::clean</text>
<text text-anchor="middle" x="426.5" y="-21" font-family="Helvetica,sans-Serif" font-size="10.00" fill="#000000">_alignment</text>
</a>
</g>
</g>
<!-- Node384&#45;&gt;Node385 -->
<g id="edge2" class="edge">
<title>Node384&#45;&gt;Node385</title>
<path fill="none" stroke="#191970" d="M346.3747,-37.601C355.0296,-36.672 363.5767,-35.7545 371.6809,-34.8845"/>
<polygon fill="#191970" stroke="#191970" points="345.7545,-34.1474 336.1852,-38.6948 346.5016,-41.1074 345.7545,-34.1474"/>
</g>
<!-- Node386 -->
<g id="node4" class="node">
<title>Node386</title>
<g id="a_node4"><a xlink:href="classtrim_al_manager.html#a7c641a1feff33d401b4ea5c82e989289" target="_top" xlink:title="trimAlManager::innerPerform">
<polygon fill="#ffffff" stroke="#000000" points="517,-19.5 517,-38.5 658,-38.5 658,-19.5 517,-19.5"/>
<text text-anchor="middle" x="587.5" y="-26.5" font-family="Helvetica,sans-Serif" font-size="10.00" fill="#000000">trimAlManager::innerPerform</text>
</a>
</g>
</g>
<!-- Node385&#45;&gt;Node386 -->
<g id="edge3" class="edge">
<title>Node385&#45;&gt;Node386</title>
<path fill="none" stroke="#191970" d="M491.1474,-29C499.5802,-29 508.2546,-29 516.7806,-29"/>
<polygon fill="#191970" stroke="#191970" points="491.0073,-25.5001 481.0073,-29 491.0072,-32.5001 491.0073,-25.5001"/>
</g>
<!-- Node387 -->
<g id="node5" class="node">
<title>Node387</title>
<g id="a_node5"><a xlink:href="classtrim_al_manager.html#abe8d2841455c644dc9c7d1294b82b00f" target="_top" xlink:title="Method to perform the analysis if all checks have passed. ">
<polygon fill="#ffffff" stroke="#000000" points="694,-19.5 694,-38.5 813,-38.5 813,-19.5 694,-19.5"/>
<text text-anchor="middle" x="753.5" y="-26.5" font-family="Helvetica,sans-Serif" font-size="10.00" fill="#000000">trimAlManager::perform</text>
</a>
</g>
</g>
<!-- Node386&#45;&gt;Node387 -->
<g id="edge4" class="edge">
<title>Node386&#45;&gt;Node387</title>
<path fill="none" stroke="#191970" d="M668.4012,-29C676.9677,-29 685.564,-29 693.8249,-29"/>
<polygon fill="#191970" stroke="#191970" points="668.3805,-25.5001 658.3804,-29 668.3804,-32.5001 668.3805,-25.5001"/>
</g>
<!-- Node388 -->
<g id="node6" class="node">
<title>Node388</title>
<g id="a_node6"><a xlink:href="trim_al_main_8cpp.html#a0ddf1224851353fc92bfbff6f499fa97" target="_top" xlink:title="main">
<polygon fill="#ffffff" stroke="#000000" points="849,-19.5 849,-38.5 887,-38.5 887,-19.5 849,-19.5"/>
<text text-anchor="middle" x="868" y="-26.5" font-family="Helvetica,sans-Serif" font-size="10.00" fill="#000000">main</text>
</a>
</g>
</g>
<!-- Node387&#45;&gt;Node388 -->
<g id="edge5" class="edge">
<title>Node387&#45;&gt;Node388</title>
<path fill="none" stroke="#191970" d="M823.3198,-29C832.6177,-29 841.4503,-29 848.7697,-29"/>
<polygon fill="#191970" stroke="#191970" points="823.0976,-25.5001 813.0976,-29 823.0975,-32.5001 823.0976,-25.5001"/>
</g>
<!-- Node389&#45;&gt;Node385 -->
<g id="edge7" class="edge">
<title>Node389&#45;&gt;Node385</title>
<path fill="none" stroke="#191970" d="M339.7753,-19.6906C350.741,-20.8677 361.6703,-22.0409 371.8895,-23.1379"/>
<polygon fill="#191970" stroke="#191970" points="340.0304,-16.1979 329.7139,-18.6105 339.2832,-23.1579 340.0304,-16.1979"/>
</g>
</g>
</svg>
