<?xml version="1.0" encoding="UTF-8" standalone="no"?>
<!DOCTYPE svg PUBLIC "-//W3C//DTD SVG 1.1//EN"
 "http://www.w3.org/Graphics/SVG/1.1/DTD/svg11.dtd">
<!-- Generated by graphviz version 2.40.1 (20161225.0304)
 -->
<!-- Title: trimAlManager::check_clusters_incompatibilities Pages: 1 -->
<svg width="595pt" height="39pt"
 viewBox="0.00 0.00 595.00 39.00" xmlns="http://www.w3.org/2000/svg" xmlns:xlink="http://www.w3.org/1999/xlink">
<g id="graph0" class="graph" transform="scale(1 1) rotate(0) translate(4 35)">
<title>trimAlManager::check_clusters_incompatibilities</title>
<polygon fill="#ffffff" stroke="transparent" points="-4,4 -4,-35 591,-35 591,4 -4,4"/>
<!-- Node145 -->
<g id="node1" class="node">
<title>Node145</title>
<polygon fill="#bfbfbf" stroke="#000000" points="0,-.5 0,-30.5 131,-30.5 131,-.5 0,-.5"/>
<text text-anchor="start" x="8" y="-18.5" font-family="Helvetica,sans-Serif" font-size="10.00" fill="#000000">trimAlManager::check</text>
<text text-anchor="middle" x="65.5" y="-7.5" font-family="Helvetica,sans-Serif" font-size="10.00" fill="#000000">_clusters_incompatibilities</text>
</g>
<!-- Node146 -->
<g id="node2" class="node">
<title>Node146</title>
<g id="a_node2"><a xlink:href="classtrim_al_manager.html#a16d2da3f90cfe965bea5f1da1360e17a" target="_top" xlink:title="Method to check argument incompatibilities. Take in mind that an incompatibility is between two argum...">
<polygon fill="#ffffff" stroke="#000000" points="167,-.5 167,-30.5 310,-30.5 310,-.5 167,-.5"/>
<text text-anchor="start" x="175" y="-18.5" font-family="Helvetica,sans-Serif" font-size="10.00" fill="#000000">trimAlManager::check</text>
<text text-anchor="middle" x="238.5" y="-7.5" font-family="Helvetica,sans-Serif" font-size="10.00" fill="#000000">_arguments_incompatibilities</text>
</a>
</g>
</g>
<!-- Node145&#45;&gt;Node146 -->
<g id="edge1" class="edge">
<title>Node145&#45;&gt;Node146</title>
<path fill="none" stroke="#191970" d="M141.5259,-15.5C149.9011,-15.5 158.4093,-15.5 166.7302,-15.5"/>
<polygon fill="#191970" stroke="#191970" points="141.3974,-12.0001 131.3974,-15.5 141.3974,-19.0001 141.3974,-12.0001"/>
</g>
<!-- Node147 -->
<g id="node3" class="node">
<title>Node147</title>
<g id="a_node3"><a xlink:href="classtrim_al_manager.html#a748b08a1ec5cd214de804ed0d4234a6e" target="_top" xlink:title="Method to process the information obtained by trimAlManager::parseArguments It checks for argument in...">
<polygon fill="#ffffff" stroke="#000000" points="346,-6 346,-25 513,-25 513,-6 346,-6"/>
<text text-anchor="middle" x="429.5" y="-13" font-family="Helvetica,sans-Serif" font-size="10.00" fill="#000000">trimAlManager::processArguments</text>
</a>
</g>
</g>
<!-- Node146&#45;&gt;Node147 -->
<g id="edge2" class="edge">
<title>Node146&#45;&gt;Node147</title>
<path fill="none" stroke="#191970" d="M320.3706,-15.5C328.8114,-15.5 337.3973,-15.5 345.857,-15.5"/>
<polygon fill="#191970" stroke="#191970" points="320.1648,-12.0001 310.1648,-15.5 320.1647,-19.0001 320.1648,-12.0001"/>
</g>
<!-- Node148 -->
<g id="node4" class="node">
<title>Node148</title>
<g id="a_node4"><a xlink:href="trim_al_main_8cpp.html#a0ddf1224851353fc92bfbff6f499fa97" target="_top" xlink:title="main">
<polygon fill="#ffffff" stroke="#000000" points="549,-6 549,-25 587,-25 587,-6 549,-6"/>
<text text-anchor="middle" x="568" y="-13" font-family="Helvetica,sans-Serif" font-size="10.00" fill="#000000">main</text>
</a>
</g>
</g>
<!-- Node147&#45;&gt;Node148 -->
<g id="edge3" class="edge">
<title>Node147&#45;&gt;Node148</title>
<path fill="none" stroke="#191970" d="M523.301,-15.5C532.7267,-15.5 541.4553,-15.5 548.6511,-15.5"/>
<polygon fill="#191970" stroke="#191970" points="523.2612,-12.0001 513.2611,-15.5 523.2611,-19.0001 523.2612,-12.0001"/>
</g>
</g>
</svg>
