<?xml version="1.0" encoding="UTF-8" standalone="no"?>
<!DOCTYPE svg PUBLIC "-//W3C//DTD SVG 1.1//EN"
 "http://www.w3.org/Graphics/SVG/1.1/DTD/svg11.dtd">
<!-- Generated by graphviz version 2.38.0 (20140413.2041)
 -->
<!-- Title: ReadWriteMS::getInputStateName Pages: 1 -->
<svg width="629pt" height="39pt"
 viewBox="0.00 0.00 629.00 39.00" xmlns="http://www.w3.org/2000/svg" xmlns:xlink="http://www.w3.org/1999/xlink">
<g id="graph0" class="graph" transform="scale(1 1) rotate(0) translate(4 35)">
<title>ReadWriteMS::getInputStateName</title>
<polygon fill="white" stroke="none" points="-4,4 -4,-35 625,-35 625,4 -4,4"/>
<!-- Node5 -->
<g id="node1" class="node"><title>Node5</title>
<polygon fill="#bfbfbf" stroke="black" points="0,-6 0,-25 169,-25 169,-6 0,-6"/>
<text text-anchor="middle" x="84.5" y="-13" font-family="Helvetica,sans-Serif" font-size="10.00">ReadWriteMS::getInputStateName</text>
</g>
<!-- Node6 -->
<g id="node2" class="node"><title>Node6</title>
<g id="a_node2"><a xlink:href="group___check_needs.html#gaf7c3b97a17c2f5750f9481cc60c17616" target="_top" xlink:title="Method to check if an output format has been given. If no output format has been given, it will use the inFile format. ">
<polygon fill="white" stroke="black" points="205,-0.5 205,-30.5 317,-30.5 317,-0.5 205,-0.5"/>
<text text-anchor="start" x="213" y="-18.5" font-family="Helvetica,sans-Serif" font-size="10.00">trimAlManager::check</text>
<text text-anchor="middle" x="261" y="-7.5" font-family="Helvetica,sans-Serif" font-size="10.00">_output_format</text>
</a>
</g>
</g>
<!-- Node5&#45;&gt;Node6 -->
<g id="edge1" class="edge"><title>Node5&#45;&gt;Node6</title>
<path fill="none" stroke="midnightblue" d="M179.358,-15.5C188.018,-15.5 196.591,-15.5 204.733,-15.5"/>
<polygon fill="midnightblue" stroke="midnightblue" points="179.172,-12.0001 169.172,-15.5 179.172,-19.0001 179.172,-12.0001"/>
</g>
<!-- Node7 -->
<g id="node3" class="node"><title>Node7</title>
<g id="a_node3"><a xlink:href="group___check_needs.html#ga3f325b806727751394adb829d97b35f1" target="_top" xlink:title="Method that checks dependencies between arguments. Take in mind that dependencies may be between mult...">
<polygon fill="white" stroke="black" points="353,-0.5 353,-30.5 465,-30.5 465,-0.5 353,-0.5"/>
<text text-anchor="start" x="361" y="-18.5" font-family="Helvetica,sans-Serif" font-size="10.00">trimAlManager::check</text>
<text text-anchor="middle" x="409" y="-7.5" font-family="Helvetica,sans-Serif" font-size="10.00">_arguments_needs</text>
</a>
</g>
</g>
<!-- Node6&#45;&gt;Node7 -->
<g id="edge2" class="edge"><title>Node6&#45;&gt;Node7</title>
<path fill="none" stroke="midnightblue" d="M327.41,-15.5C335.865,-15.5 344.457,-15.5 352.726,-15.5"/>
<polygon fill="midnightblue" stroke="midnightblue" points="327.196,-12.0001 317.196,-15.5 327.196,-19.0001 327.196,-12.0001"/>
</g>
<!-- Node8 -->
<g id="node4" class="node"><title>Node8</title>
<g id="a_node4"><a xlink:href="group___trimal_parsing_arguments.html#gae8565b76a7e277d37e3c78a6c6165343" target="_top" xlink:title="Method to process the information obtained by trimAlManager::parseArguments It checks for argument in...">
<polygon fill="white" stroke="black" points="501,-0.5 501,-30.5 621,-30.5 621,-0.5 501,-0.5"/>
<text text-anchor="start" x="509" y="-18.5" font-family="Helvetica,sans-Serif" font-size="10.00">trimAlManager::process</text>
<text text-anchor="middle" x="561" y="-7.5" font-family="Helvetica,sans-Serif" font-size="10.00">_arguments</text>
</a>
</g>
</g>
<!-- Node7&#45;&gt;Node8 -->
<g id="edge3" class="edge"><title>Node7&#45;&gt;Node8</title>
<path fill="none" stroke="midnightblue" d="M475.018,-15.5C483.643,-15.5 492.448,-15.5 500.965,-15.5"/>
<polygon fill="midnightblue" stroke="midnightblue" points="475.003,-12.0001 465.003,-15.5 475.003,-19.0001 475.003,-12.0001"/>
</g>
</g>
</svg>
