<?xml version="1.0" encoding="UTF-8" standalone="no"?>
<!DOCTYPE svg PUBLIC "-//W3C//DTD SVG 1.1//EN"
 "http://www.w3.org/Graphics/SVG/1.1/DTD/svg11.dtd">
<!-- Generated by graphviz version 2.40.1 (20161225.0304)
 -->
<!-- Title: statistics::Similarity::applyWindow Pages: 1 -->
<svg width="1433pt" height="382pt"
 viewBox="0.00 0.00 1433.00 382.00" xmlns="http://www.w3.org/2000/svg" xmlns:xlink="http://www.w3.org/1999/xlink">
<g id="graph0" class="graph" transform="scale(1 1) rotate(0) translate(4 378)">
<title>statistics::Similarity::applyWindow</title>
<polygon fill="#ffffff" stroke="transparent" points="-4,4 -4,-378 1429,-378 1429,4 -4,4"/>
<!-- Node68 -->
<g id="node1" class="node">
<title>Node68</title>
<polygon fill="#bfbfbf" stroke="#000000" points="0,-153 0,-183 103,-183 103,-153 0,-153"/>
<text text-anchor="start" x="8" y="-171" font-family="Helvetica,sans-Serif" font-size="10.00" fill="#000000">statistics::Similarity</text>
<text text-anchor="middle" x="51.5" y="-160" font-family="Helvetica,sans-Serif" font-size="10.00" fill="#000000">::applyWindow</text>
</g>
<!-- Node69 -->
<g id="node2" class="node">
<title>Node69</title>
<g id="a_node2"><a xlink:href="classstatistics_1_1_manager.html#a92505ca5aedc5b45c4300a0e8a7d1e17" target="_top" xlink:title="Method to handle similarity stat calculation It checks if the similarity submodule has been created...">
<polygon fill="#ffffff" stroke="#000000" points="318,-279 318,-309 461,-309 461,-279 318,-279"/>
<text text-anchor="start" x="326" y="-297" font-family="Helvetica,sans-Serif" font-size="10.00" fill="#000000">statistics::Manager</text>
<text text-anchor="middle" x="389.5" y="-286" font-family="Helvetica,sans-Serif" font-size="10.00" fill="#000000">::calculateConservationStats</text>
</a>
</g>
</g>
<!-- Node68&#45;&gt;Node69 -->
<g id="edge1" class="edge">
<title>Node68&#45;&gt;Node69</title>
<path fill="none" stroke="#191970" d="M101.473,-186.629C168.7175,-211.6964 287.0286,-255.8006 349.0185,-278.9093"/>
<polygon fill="#191970" stroke="#191970" points="102.5277,-183.2869 91.935,-183.0734 100.0825,-189.846 102.5277,-183.2869"/>
</g>
<!-- Node83 -->
<g id="node16" class="node">
<title>Node83</title>
<g id="a_node16"><a xlink:href="classstatistics_1_1_similarity.html#a1b65c85328f09fa0637365d11fb386b4" target="_top" xlink:title="This methods returns a pointer to conservationWindow&#39;s vector. ">
<polygon fill="#ffffff" stroke="#000000" points="139,-131 139,-161 268,-161 268,-131 139,-131"/>
<text text-anchor="start" x="147" y="-149" font-family="Helvetica,sans-Serif" font-size="10.00" fill="#000000">statistics::Similarity</text>
<text text-anchor="middle" x="203.5" y="-138" font-family="Helvetica,sans-Serif" font-size="10.00" fill="#000000">::getMdkWindowedVector</text>
</a>
</g>
</g>
<!-- Node68&#45;&gt;Node83 -->
<g id="edge19" class="edge">
<title>Node68&#45;&gt;Node83</title>
<path fill="none" stroke="#191970" d="M113.4788,-159.0294C121.8739,-157.8143 130.5055,-156.565 138.9445,-155.3436"/>
<polygon fill="#191970" stroke="#191970" points="112.7801,-155.5939 103.3846,-160.4904 113.7829,-162.5218 112.7801,-155.5939"/>
</g>
<!-- Node70 -->
<g id="node3" class="node">
<title>Node70</title>
<g id="a_node3"><a xlink:href="class_cleaner.html#a4718e31c0183b5a98751d77479faacf0" target="_top" xlink:title="Method to trim an alignment based on the similarity and gaps distribution values. ...">
<polygon fill="#ffffff" stroke="#000000" points="542.5,-158.5 542.5,-177.5 622.5,-177.5 622.5,-158.5 542.5,-158.5"/>
<text text-anchor="middle" x="582.5" y="-165.5" font-family="Helvetica,sans-Serif" font-size="10.00" fill="#000000">Cleaner::clean</text>
</a>
</g>
</g>
<!-- Node69&#45;&gt;Node70 -->
<g id="edge2" class="edge">
<title>Node69&#45;&gt;Node70</title>
<path fill="none" stroke="#191970" d="M409.3766,-271.0787C431.7229,-246.7221 470.2442,-208.7847 511,-187 520.6283,-181.8535 531.7453,-178.03 542.3009,-175.2182"/>
<polygon fill="#191970" stroke="#191970" points="406.5346,-269.0041 402.4386,-278.7752 411.7339,-273.6911 406.5346,-269.0041"/>
</g>
<!-- Node77 -->
<g id="node10" class="node">
<title>Node77</title>
<g id="a_node10"><a xlink:href="class_cleaner.html#a6727a235afa29f08a50716f28fa5c8fc" target="_top" xlink:title="Method to clean an alignment. It carries out strict and strictplus. The method: ">
<polygon fill="#ffffff" stroke="#000000" points="511,-234.5 511,-253.5 654,-253.5 654,-234.5 511,-234.5"/>
<text text-anchor="middle" x="582.5" y="-241.5" font-family="Helvetica,sans-Serif" font-size="10.00" fill="#000000">Cleaner::cleanCombMethods</text>
</a>
</g>
</g>
<!-- Node69&#45;&gt;Node77 -->
<g id="edge9" class="edge">
<title>Node69&#45;&gt;Node77</title>
<path fill="none" stroke="#191970" d="M457.3054,-276.4338C486.9999,-268.741 520.682,-260.015 545.6247,-253.5532"/>
<polygon fill="#191970" stroke="#191970" points="456.209,-273.1022 447.4064,-278.9984 457.9646,-279.8785 456.209,-273.1022"/>
</g>
<!-- Node79 -->
<g id="node12" class="node">
<title>Node79</title>
<g id="a_node12"><a xlink:href="class_cleaner.html#a9cdbd6ebf78a284dd065b31319795b0c" target="_top" xlink:title="Method to trim an alignment based on the similarity distribution values. ">
<polygon fill="#ffffff" stroke="#000000" points="514,-196.5 514,-215.5 651,-215.5 651,-196.5 514,-196.5"/>
<text text-anchor="middle" x="582.5" y="-203.5" font-family="Helvetica,sans-Serif" font-size="10.00" fill="#000000">Cleaner::cleanConservation</text>
</a>
</g>
</g>
<!-- Node69&#45;&gt;Node79 -->
<g id="edge12" class="edge">
<title>Node69&#45;&gt;Node79</title>
<path fill="none" stroke="#191970" d="M420.5276,-273.415C444.4328,-258.3005 478.7455,-238.1871 511,-225 519.9166,-221.3545 529.7455,-218.2143 539.1868,-215.5961"/>
<polygon fill="#191970" stroke="#191970" points="418.4356,-270.5984 411.9012,-278.9381 422.2102,-276.4936 418.4356,-270.5984"/>
</g>
<!-- Node80 -->
<g id="node13" class="node">
<title>Node80</title>
<g id="a_node13"><a xlink:href="classstatistics_1_1_manager.html#a080c687f8f355900511485eeec32a659" target="_top" xlink:title="Wrapper to Statistics::Similarity::printConservationAcl() It calls to calculateConservationStats() to...">
<polygon fill="#ffffff" stroke="#000000" points="512.5,-332.5 512.5,-373.5 652.5,-373.5 652.5,-332.5 512.5,-332.5"/>
<text text-anchor="start" x="520.5" y="-361.5" font-family="Helvetica,sans-Serif" font-size="10.00" fill="#000000">statistics::Manager</text>
<text text-anchor="start" x="520.5" y="-350.5" font-family="Helvetica,sans-Serif" font-size="10.00" fill="#000000">::printStatisticsConservation</text>
<text text-anchor="middle" x="582.5" y="-339.5" font-family="Helvetica,sans-Serif" font-size="10.00" fill="#000000">Columns</text>
</a>
</g>
</g>
<!-- Node69&#45;&gt;Node80 -->
<g id="edge14" class="edge">
<title>Node69&#45;&gt;Node80</title>
<path fill="none" stroke="#191970" d="M448.4818,-312.0307C469.5569,-318.4734 493.4597,-325.7804 515.1843,-332.4216"/>
<polygon fill="#191970" stroke="#191970" points="449.2878,-308.6173 438.7014,-309.0408 447.2413,-315.3115 449.2878,-308.6173"/>
</g>
<!-- Node82 -->
<g id="node15" class="node">
<title>Node82</title>
<g id="a_node15"><a xlink:href="classstatistics_1_1_manager.html#aa20cfb477826035386ea988e3706b09a" target="_top" xlink:title="Wrapper to Statistics::Similarity::printGapsTotal() It calls to calculateConservationStats() to make ...">
<polygon fill="#ffffff" stroke="#000000" points="512.5,-272.5 512.5,-313.5 652.5,-313.5 652.5,-272.5 512.5,-272.5"/>
<text text-anchor="start" x="520.5" y="-301.5" font-family="Helvetica,sans-Serif" font-size="10.00" fill="#000000">statistics::Manager</text>
<text text-anchor="start" x="520.5" y="-290.5" font-family="Helvetica,sans-Serif" font-size="10.00" fill="#000000">::printStatisticsConservation</text>
<text text-anchor="middle" x="582.5" y="-279.5" font-family="Helvetica,sans-Serif" font-size="10.00" fill="#000000">Total</text>
</a>
</g>
</g>
<!-- Node69&#45;&gt;Node82 -->
<g id="edge17" class="edge">
<title>Node69&#45;&gt;Node82</title>
<path fill="none" stroke="#191970" d="M471.4041,-293.5756C485.0147,-293.5051 499.0219,-293.4325 512.3086,-293.3637"/>
<polygon fill="#191970" stroke="#191970" points="471.0735,-290.0772 461.0918,-293.6291 471.1098,-297.0771 471.0735,-290.0772"/>
</g>
<!-- Node71 -->
<g id="node4" class="node">
<title>Node71</title>
<g id="a_node4"><a xlink:href="classtrim_al_manager.html#aebfd21b0435302f0e4fc45a068d1b6ee" target="_top" xlink:title="Method to trim the alignment using non automatic methods: ">
<polygon fill="#ffffff" stroke="#000000" points="702.5,-153 702.5,-183 854.5,-183 854.5,-153 702.5,-153"/>
<text text-anchor="start" x="710.5" y="-171" font-family="Helvetica,sans-Serif" font-size="10.00" fill="#000000">trimAlManager::CleanResidues</text>
<text text-anchor="middle" x="778.5" y="-160" font-family="Helvetica,sans-Serif" font-size="10.00" fill="#000000">NonAuto</text>
</a>
</g>
</g>
<!-- Node70&#45;&gt;Node71 -->
<g id="edge3" class="edge">
<title>Node70&#45;&gt;Node71</title>
<path fill="none" stroke="#191970" d="M632.6892,-168C653.863,-168 678.981,-168 702.352,-168"/>
<polygon fill="#191970" stroke="#191970" points="632.6365,-164.5001 622.6365,-168 632.6365,-171.5001 632.6365,-164.5001"/>
</g>
<!-- Node72 -->
<g id="node5" class="node">
<title>Node72</title>
<g id="a_node5"><a xlink:href="classtrim_al_manager.html#adc529dd893ed4e9df6f3ddbd58776068" target="_top" xlink:title="Core Method of the program. This is where almost all cleaning methods are called from. ">
<polygon fill="#ffffff" stroke="#000000" points="905,-148 905,-178 1014,-178 1014,-148 905,-148"/>
<text text-anchor="start" x="913" y="-166" font-family="Helvetica,sans-Serif" font-size="10.00" fill="#000000">trimAlManager::clean</text>
<text text-anchor="middle" x="959.5" y="-155" font-family="Helvetica,sans-Serif" font-size="10.00" fill="#000000">_alignment</text>
</a>
</g>
</g>
<!-- Node71&#45;&gt;Node72 -->
<g id="edge4" class="edge">
<title>Node71&#45;&gt;Node72</title>
<path fill="none" stroke="#191970" d="M865.043,-165.6093C878.5782,-165.2354 892.2317,-164.8582 904.7893,-164.5113"/>
<polygon fill="#191970" stroke="#191970" points="864.6352,-162.1191 854.7357,-165.894 864.8286,-169.1165 864.6352,-162.1191"/>
</g>
<!-- Node73 -->
<g id="node6" class="node">
<title>Node73</title>
<g id="a_node6"><a xlink:href="classtrim_al_manager.html#a7c641a1feff33d401b4ea5c82e989289" target="_top" xlink:title="trimAlManager::innerPerform">
<polygon fill="#ffffff" stroke="#000000" points="1053.5,-139.5 1053.5,-158.5 1194.5,-158.5 1194.5,-139.5 1053.5,-139.5"/>
<text text-anchor="middle" x="1124" y="-146.5" font-family="Helvetica,sans-Serif" font-size="10.00" fill="#000000">trimAlManager::innerPerform</text>
</a>
</g>
</g>
<!-- Node72&#45;&gt;Node73 -->
<g id="edge5" class="edge">
<title>Node72&#45;&gt;Node73</title>
<path fill="none" stroke="#191970" d="M1024.434,-157.4737C1033.9354,-156.6651 1043.7598,-155.829 1053.3684,-155.0112"/>
<polygon fill="#191970" stroke="#191970" points="1023.9433,-154.0027 1014.2761,-158.3382 1024.5369,-160.9775 1023.9433,-154.0027"/>
</g>
<!-- Node76 -->
<g id="node9" class="node">
<title>Node76</title>
<g id="a_node9"><a xlink:href="classtrim_al_manager.html#ac5795f93b3a2b51bf5d8dddd63b89f73" target="_top" xlink:title="trimAlManager::perform_VCF">
<polygon fill="#ffffff" stroke="#000000" points="1052,-96.5 1052,-115.5 1196,-115.5 1196,-96.5 1052,-96.5"/>
<text text-anchor="middle" x="1124" y="-103.5" font-family="Helvetica,sans-Serif" font-size="10.00" fill="#000000">trimAlManager::perform_VCF</text>
</a>
</g>
</g>
<!-- Node72&#45;&gt;Node76 -->
<g id="edge8" class="edge">
<title>Node72&#45;&gt;Node76</title>
<path fill="none" stroke="#191970" d="M1010.8631,-144.4604C1024.2361,-139.6926 1038.6409,-134.6089 1052,-130 1066.075,-125.1441 1081.7528,-119.8989 1094.8761,-115.5542"/>
<polygon fill="#191970" stroke="#191970" points="1009.5761,-141.2035 1001.3375,-147.8651 1011.9321,-147.7951 1009.5761,-141.2035"/>
</g>
<!-- Node74 -->
<g id="node7" class="node">
<title>Node74</title>
<g id="a_node7"><a xlink:href="classtrim_al_manager.html#abe8d2841455c644dc9c7d1294b82b00f" target="_top" xlink:title="Method to perform the analysis if all checks have passed. ">
<polygon fill="#ffffff" stroke="#000000" points="1232,-139.5 1232,-158.5 1351,-158.5 1351,-139.5 1232,-139.5"/>
<text text-anchor="middle" x="1291.5" y="-146.5" font-family="Helvetica,sans-Serif" font-size="10.00" fill="#000000">trimAlManager::perform</text>
</a>
</g>
</g>
<!-- Node73&#45;&gt;Node74 -->
<g id="edge6" class="edge">
<title>Node73&#45;&gt;Node74</title>
<path fill="none" stroke="#191970" d="M1204.8102,-149C1213.9363,-149 1223.1089,-149 1231.8939,-149"/>
<polygon fill="#191970" stroke="#191970" points="1204.5497,-145.5001 1194.5496,-149 1204.5496,-152.5001 1204.5497,-145.5001"/>
</g>
<!-- Node75 -->
<g id="node8" class="node">
<title>Node75</title>
<g id="a_node8"><a xlink:href="trim_al_main_8cpp.html#a0ddf1224851353fc92bfbff6f499fa97" target="_top" xlink:title="main">
<polygon fill="#ffffff" stroke="#000000" points="1387,-139.5 1387,-158.5 1425,-158.5 1425,-139.5 1387,-139.5"/>
<text text-anchor="middle" x="1406" y="-146.5" font-family="Helvetica,sans-Serif" font-size="10.00" fill="#000000">main</text>
</a>
</g>
</g>
<!-- Node74&#45;&gt;Node75 -->
<g id="edge7" class="edge">
<title>Node74&#45;&gt;Node75</title>
<path fill="none" stroke="#191970" d="M1361.3198,-149C1370.6177,-149 1379.4503,-149 1386.7697,-149"/>
<polygon fill="#191970" stroke="#191970" points="1361.0976,-145.5001 1351.0976,-149 1361.0975,-152.5001 1361.0976,-145.5001"/>
</g>
<!-- Node78 -->
<g id="node11" class="node">
<title>Node78</title>
<g id="a_node11"><a xlink:href="classtrim_al_manager.html#a69082911b30a1bd12395bb235bc18a34" target="_top" xlink:title="Method to trim the alignment using automatic or semi&#45;automatic methods: ">
<polygon fill="#ffffff" stroke="#000000" points="692,-218.5 692,-237.5 865,-237.5 865,-218.5 692,-218.5"/>
<text text-anchor="middle" x="778.5" y="-225.5" font-family="Helvetica,sans-Serif" font-size="10.00" fill="#000000">trimAlManager::CleanResiduesAuto</text>
</a>
</g>
</g>
<!-- Node77&#45;&gt;Node78 -->
<g id="edge10" class="edge">
<title>Node77&#45;&gt;Node78</title>
<path fill="none" stroke="#191970" d="M664.2556,-237.3261C673.3447,-236.5841 682.6256,-235.8265 691.7737,-235.0797"/>
<polygon fill="#191970" stroke="#191970" points="663.7745,-233.8536 654.0925,-238.1557 664.3441,-240.8304 663.7745,-233.8536"/>
</g>
<!-- Node78&#45;&gt;Node72 -->
<g id="edge11" class="edge">
<title>Node78&#45;&gt;Node72</title>
<path fill="none" stroke="#191970" d="M814.7654,-214.9765C844.4423,-204.3191 886.4472,-189.2344 917.5663,-178.0591"/>
<polygon fill="#191970" stroke="#191970" points="813.4357,-211.7351 805.2072,-218.409 815.8017,-218.3232 813.4357,-211.7351"/>
</g>
<!-- Node79&#45;&gt;Node71 -->
<g id="edge13" class="edge">
<title>Node79&#45;&gt;Node71</title>
<path fill="none" stroke="#191970" d="M641.7164,-194.5193C660.7391,-190.8312 682.0864,-186.6924 702.1579,-182.801"/>
<polygon fill="#191970" stroke="#191970" points="640.8571,-191.1206 631.7061,-196.46 642.1895,-197.9927 640.8571,-191.1206"/>
</g>
<!-- Node81 -->
<g id="node14" class="node">
<title>Node81</title>
<g id="a_node14"><a xlink:href="classtrim_al_manager.html#afc48b86f5ae35b9a5e721b65c58bf610" target="_top" xlink:title="Method to print statistics requested. ">
<polygon fill="#ffffff" stroke="#000000" points="726.5,-278 726.5,-308 830.5,-308 830.5,-278 726.5,-278"/>
<text text-anchor="start" x="734.5" y="-296" font-family="Helvetica,sans-Serif" font-size="10.00" fill="#000000">trimAlManager::print</text>
<text text-anchor="middle" x="778.5" y="-285" font-family="Helvetica,sans-Serif" font-size="10.00" fill="#000000">_statistics</text>
</a>
</g>
</g>
<!-- Node80&#45;&gt;Node81 -->
<g id="edge15" class="edge">
<title>Node80&#45;&gt;Node81</title>
<path fill="none" stroke="#191970" d="M659.3069,-329.4877C682.8763,-322.2726 708.1635,-314.5316 729.3551,-308.0443"/>
<polygon fill="#191970" stroke="#191970" points="658.2153,-326.1614 649.6779,-332.4353 660.2644,-332.8548 658.2153,-326.1614"/>
</g>
<!-- Node81&#45;&gt;Node73 -->
<g id="edge16" class="edge">
<title>Node81&#45;&gt;Node73</title>
<path fill="none" stroke="#191970" d="M824.1121,-273.9894C898.7948,-242.8626 1044.4938,-182.1372 1100.9126,-158.6225"/>
<polygon fill="#191970" stroke="#191970" points="822.3807,-270.9192 814.4968,-277.997 825.0737,-277.3805 822.3807,-270.9192"/>
</g>
<!-- Node82&#45;&gt;Node81 -->
<g id="edge18" class="edge">
<title>Node82&#45;&gt;Node81</title>
<path fill="none" stroke="#191970" d="M662.7857,-293C684.2203,-293 706.8243,-293 726.3104,-293"/>
<polygon fill="#191970" stroke="#191970" points="662.7069,-289.5001 652.7069,-293 662.7069,-296.5001 662.7069,-289.5001"/>
</g>
<!-- Node83&#45;&gt;Node70 -->
<g id="edge31" class="edge">
<title>Node83&#45;&gt;Node70</title>
<path fill="none" stroke="#191970" d="M278.4692,-140.7504C333.1209,-138.0648 408.8661,-136.7074 475,-144 499.8998,-146.7457 527.4657,-152.9659 548.449,-158.3857"/>
<polygon fill="#191970" stroke="#191970" points="277.9789,-137.2711 268.1735,-141.2843 278.3414,-144.2617 277.9789,-137.2711"/>
</g>
<!-- Node83&#45;&gt;Node77 -->
<g id="edge32" class="edge">
<title>Node83&#45;&gt;Node77</title>
<path fill="none" stroke="#191970" d="M227.4557,-167.6057C246.6857,-183.5992 275.1511,-204.3808 304,-215 371.1749,-239.7269 453.2141,-245.6028 510.793,-246.1329"/>
<polygon fill="#191970" stroke="#191970" points="229.6874,-164.909 219.8055,-161.0881 225.1478,-170.2375 229.6874,-164.909"/>
</g>
<!-- Node83&#45;&gt;Node79 -->
<g id="edge30" class="edge">
<title>Node83&#45;&gt;Node79</title>
<path fill="none" stroke="#191970" d="M237.3314,-165.8872C256.269,-175.9589 280.6978,-187.2471 304,-193 374.0187,-210.2865 456.876,-211.8543 513.9074,-210.145"/>
<polygon fill="#191970" stroke="#191970" points="238.9594,-162.7884 228.5048,-161.0702 235.6061,-168.933 238.9594,-162.7884"/>
</g>
<!-- Node84 -->
<g id="node17" class="node">
<title>Node84</title>
<g id="a_node17"><a xlink:href="class_alignment.html#a3754dfadea173918f5e85b9eb4c3ad8a" target="_top" xlink:title="Method to report the trimming results in HTML. Outputs an HTML file that shows visually what has been...">
<polygon fill="#ffffff" stroke="#000000" points="690,-46.5 690,-65.5 867,-65.5 867,-46.5 690,-46.5"/>
<text text-anchor="middle" x="778.5" y="-53.5" font-family="Helvetica,sans-Serif" font-size="10.00" fill="#000000">Alignment::alignmentSummaryHTML</text>
</a>
</g>
</g>
<!-- Node83&#45;&gt;Node84 -->
<g id="edge20" class="edge">
<title>Node83&#45;&gt;Node84</title>
<path fill="none" stroke="#191970" d="M223.721,-123.4709C242.4128,-104.427 272.0563,-78.4683 304,-67 372.5383,-42.3937 572.6258,-46.5216 689.9397,-51.4355"/>
<polygon fill="#191970" stroke="#191970" points="221.0111,-121.2409 216.6413,-130.8926 226.0762,-126.0726 221.0111,-121.2409"/>
</g>
<!-- Node86 -->
<g id="node19" class="node">
<title>Node86</title>
<g id="a_node19"><a xlink:href="class_alignment.html#a724218d5e7d168974d9abcafcde632a1" target="_top" xlink:title="Alignment::statSVG">
<polygon fill="#ffffff" stroke="#000000" points="337.5,-.5 337.5,-19.5 441.5,-19.5 441.5,-.5 337.5,-.5"/>
<text text-anchor="middle" x="389.5" y="-7.5" font-family="Helvetica,sans-Serif" font-size="10.00" fill="#000000">Alignment::statSVG</text>
</a>
</g>
</g>
<!-- Node83&#45;&gt;Node86 -->
<g id="edge24" class="edge">
<title>Node83&#45;&gt;Node86</title>
<path fill="none" stroke="#191970" d="M218.5391,-122.4633C236.0451,-96.9529 267.2912,-56.8391 304,-34 314.0798,-27.7287 325.8311,-23.0587 337.3364,-19.5941"/>
<polygon fill="#191970" stroke="#191970" points="215.5946,-120.5701 212.9336,-130.8254 221.4091,-124.4679 215.5946,-120.5701"/>
</g>
<!-- Node88 -->
<g id="node21" class="node">
<title>Node88</title>
<g id="a_node21"><a xlink:href="class_alignment.html#ac4196c026e0f482eaccf9976f82f72e3" target="_top" xlink:title="Method to report the trimming results in SVG. Outputs a SVG file that shows visually what has been do...">
<polygon fill="#ffffff" stroke="#000000" points="304,-76.5 304,-95.5 475,-95.5 475,-76.5 304,-76.5"/>
<text text-anchor="middle" x="389.5" y="-83.5" font-family="Helvetica,sans-Serif" font-size="10.00" fill="#000000">Alignment::alignmentSummarySVG</text>
</a>
</g>
</g>
<!-- Node83&#45;&gt;Node88 -->
<g id="edge28" class="edge">
<title>Node83&#45;&gt;Node88</title>
<path fill="none" stroke="#191970" d="M253.1528,-127.4331C269.2886,-121.6093 287.3309,-115.3178 304,-110 320.0101,-104.8925 337.8868,-99.7834 353.1382,-95.6"/>
<polygon fill="#191970" stroke="#191970" points="251.5837,-124.2794 243.3817,-130.9859 253.9758,-130.858 251.5837,-124.2794"/>
</g>
<!-- Node89 -->
<g id="node22" class="node">
<title>Node89</title>
<g id="a_node22"><a xlink:href="classstatistics_1_1_similarity.html#a26f430acb8a3240977665de9a9ea875a" target="_top" xlink:title="Computes and selects the cut point values based on similarity&#39;s values. ">
<polygon fill="#ffffff" stroke="#000000" points="338,-153 338,-183 441,-183 441,-153 338,-153"/>
<text text-anchor="start" x="346" y="-171" font-family="Helvetica,sans-Serif" font-size="10.00" fill="#000000">statistics::Similarity</text>
<text text-anchor="middle" x="389.5" y="-160" font-family="Helvetica,sans-Serif" font-size="10.00" fill="#000000">::calcCutPoint</text>
</a>
</g>
</g>
<!-- Node83&#45;&gt;Node89 -->
<g id="edge33" class="edge">
<title>Node83&#45;&gt;Node89</title>
<path fill="none" stroke="#191970" d="M278.0899,-154.8225C298.1734,-157.1979 319.4501,-159.7145 337.9684,-161.9049"/>
<polygon fill="#191970" stroke="#191970" points="278.3737,-151.3317 268.0318,-153.6328 277.5514,-158.2833 278.3737,-151.3317"/>
</g>
<!-- Node85 -->
<g id="node18" class="node">
<title>Node85</title>
<g id="a_node18"><a xlink:href="classtrim_al_manager.html#a1da8f8b677f19ed8f7e08a663d97bb92" target="_top" xlink:title="trimAlManager::output\l_reports">
<polygon fill="#ffffff" stroke="#000000" points="903,-91 903,-121 1016,-121 1016,-91 903,-91"/>
<text text-anchor="start" x="911" y="-109" font-family="Helvetica,sans-Serif" font-size="10.00" fill="#000000">trimAlManager::output</text>
<text text-anchor="middle" x="959.5" y="-98" font-family="Helvetica,sans-Serif" font-size="10.00" fill="#000000">_reports</text>
</a>
</g>
</g>
<!-- Node84&#45;&gt;Node85 -->
<g id="edge21" class="edge">
<title>Node84&#45;&gt;Node85</title>
<path fill="none" stroke="#191970" d="M822.8146,-68.2416C847.5684,-75.0797 878.6202,-83.6575 904.8689,-90.9085"/>
<polygon fill="#191970" stroke="#191970" points="823.5417,-64.8114 812.9708,-65.5223 821.6778,-71.5587 823.5417,-64.8114"/>
</g>
<!-- Node85&#45;&gt;Node73 -->
<g id="edge22" class="edge">
<title>Node85&#45;&gt;Node73</title>
<path fill="none" stroke="#191970" d="M1025.9465,-123.369C1046.9204,-128.8515 1069.3189,-134.7065 1087.4059,-139.4344"/>
<polygon fill="#191970" stroke="#191970" points="1026.6717,-119.941 1016.1116,-120.7982 1024.9013,-126.7135 1026.6717,-119.941"/>
</g>
<!-- Node85&#45;&gt;Node76 -->
<g id="edge23" class="edge">
<title>Node85&#45;&gt;Node76</title>
<path fill="none" stroke="#191970" d="M1026.2672,-106C1034.7053,-106 1043.3689,-106 1051.8853,-106"/>
<polygon fill="#191970" stroke="#191970" points="1026.1116,-102.5001 1016.1116,-106 1026.1115,-109.5001 1026.1116,-102.5001"/>
</g>
<!-- Node87 -->
<g id="node20" class="node">
<title>Node87</title>
<g id="a_node20"><a xlink:href="classtrim_al_manager.html#a63d5bec0938516a2129ccb04276b93d9" target="_top" xlink:title="trimAlManager::svg\l_stats_out">
<polygon fill="#ffffff" stroke="#000000" points="909,-42 909,-72 1010,-72 1010,-42 909,-42"/>
<text text-anchor="start" x="917" y="-60" font-family="Helvetica,sans-Serif" font-size="10.00" fill="#000000">trimAlManager::svg</text>
<text text-anchor="middle" x="959.5" y="-49" font-family="Helvetica,sans-Serif" font-size="10.00" fill="#000000">_stats_out</text>
</a>
</g>
</g>
<!-- Node86&#45;&gt;Node87 -->
<g id="edge25" class="edge">
<title>Node86&#45;&gt;Node87</title>
<path fill="none" stroke="#191970" d="M451.8811,-10.4226C543.3472,-11.7438 719.0452,-16.9474 867,-37 880.6763,-38.8536 895.3366,-41.6441 908.8627,-44.557"/>
<polygon fill="#191970" stroke="#191970" points="451.7335,-6.9205 441.6876,-10.2866 451.64,-13.9198 451.7335,-6.9205"/>
</g>
<!-- Node87&#45;&gt;Node73 -->
<g id="edge26" class="edge">
<title>Node87&#45;&gt;Node73</title>
<path fill="none" stroke="#191970" d="M1010.3606,-77.126C1012.31,-78.3583 1014.1987,-79.6494 1016,-81 1036.2155,-96.1576 1031.195,-110.6622 1052,-125 1061.0049,-131.2058 1071.7392,-135.9103 1082.1349,-139.4348"/>
<polygon fill="#191970" stroke="#191970" points="1011.931,-73.9929 1001.5069,-72.0983 1008.4743,-80.0799 1011.931,-73.9929"/>
</g>
<!-- Node87&#45;&gt;Node76 -->
<g id="edge27" class="edge">
<title>Node87&#45;&gt;Node76</title>
<path fill="none" stroke="#191970" d="M1020.0729,-75.043C1044.3992,-82.2891 1071.4497,-90.3467 1091.854,-96.4246"/>
<polygon fill="#191970" stroke="#191970" points="1020.7807,-71.6019 1010.1977,-72.1014 1018.7824,-78.3106 1020.7807,-71.6019"/>
</g>
<!-- Node88&#45;&gt;Node85 -->
<g id="edge29" class="edge">
<title>Node88&#45;&gt;Node85</title>
<path fill="none" stroke="#191970" d="M485.3788,-89.3642C604.8491,-93.5561 805.1337,-100.5836 902.6713,-104.006"/>
<polygon fill="#191970" stroke="#191970" points="485.2597,-85.8579 475.1431,-89.005 485.0142,-92.8536 485.2597,-85.8579"/>
</g>
<!-- Node89&#45;&gt;Node70 -->
<g id="edge35" class="edge">
<title>Node89&#45;&gt;Node70</title>
<path fill="none" stroke="#191970" d="M451.5084,-168C481.2503,-168 516.0257,-168 542.2685,-168"/>
<polygon fill="#191970" stroke="#191970" points="451.2205,-164.5001 441.2205,-168 451.2204,-171.5001 451.2205,-164.5001"/>
</g>
<!-- Node89&#45;&gt;Node79 -->
<g id="edge34" class="edge">
<title>Node89&#45;&gt;Node79</title>
<path fill="none" stroke="#191970" d="M451.2533,-180.1587C478.0104,-185.4269 508.8807,-191.505 533.9576,-196.4424"/>
<polygon fill="#191970" stroke="#191970" points="451.7083,-176.6811 441.2205,-178.1833 450.3559,-183.5493 451.7083,-176.6811"/>
</g>
</g>
</svg>
