<?xml version="1.0" encoding="UTF-8" standalone="no"?>
<!DOCTYPE svg PUBLIC "-//W3C//DTD SVG 1.1//EN"
 "http://www.w3.org/Graphics/SVG/1.1/DTD/svg11.dtd">
<!-- Generated by graphviz version 2.38.0 (20140413.2041)
 -->
<!-- Title: Catch::Section Pages: 1 -->
<svg width="563pt" height="273pt"
 viewBox="0.00 0.00 563.00 273.00" xmlns="http://www.w3.org/2000/svg" xmlns:xlink="http://www.w3.org/1999/xlink">
<g id="graph0" class="graph" transform="scale(1 1) rotate(0) translate(4 269)">
<title>Catch::Section</title>
<polygon fill="white" stroke="none" points="-4,4 -4,-269 559,-269 559,4 -4,4"/>
<!-- Node2 -->
<g id="node1" class="node"><title>Node2</title>
<polygon fill="#bfbfbf" stroke="black" points="292,-0.5 292,-19.5 374,-19.5 374,-0.5 292,-0.5"/>
<text text-anchor="middle" x="333" y="-7.5" font-family="Helvetica,sans-Serif" font-size="10.00">Catch::Section</text>
</g>
<!-- Node3 -->
<g id="node2" class="node"><title>Node3</title>
<g id="a_node2"><a xlink:href="class_catch_1_1_non_copyable.html" target="_top" xlink:title="Catch::NonCopyable">
<polygon fill="white" stroke="black" points="0,-67.5 0,-86.5 108,-86.5 108,-67.5 0,-67.5"/>
<text text-anchor="middle" x="54" y="-74.5" font-family="Helvetica,sans-Serif" font-size="10.00">Catch::NonCopyable</text>
</a>
</g>
</g>
<!-- Node3&#45;&gt;Node2 -->
<g id="edge1" class="edge"><title>Node3&#45;&gt;Node2</title>
<path fill="none" stroke="#8b1a1a" d="M76.5504,-62.2345C91.2522,-53.8985 111.144,-43.7902 130,-38 184.379,-21.3013 250.081,-14.9291 291.711,-12.4982"/>
<polygon fill="#8b1a1a" stroke="#8b1a1a" points="74.578,-59.333 67.7018,-67.3934 78.1037,-65.3803 74.578,-59.333"/>
</g>
<!-- Node4 -->
<g id="node3" class="node"><title>Node4</title>
<g id="a_node3"><a xlink:href="struct_catch_1_1_section_info.html" target="_top" xlink:title="Catch::SectionInfo">
<polygon fill="white" stroke="black" points="224,-67.5 224,-86.5 322,-86.5 322,-67.5 224,-67.5"/>
<text text-anchor="middle" x="273" y="-74.5" font-family="Helvetica,sans-Serif" font-size="10.00">Catch::SectionInfo</text>
</a>
</g>
</g>
<!-- Node4&#45;&gt;Node2 -->
<g id="edge2" class="edge"><title>Node4&#45;&gt;Node2</title>
<path fill="none" stroke="#9a32cd" stroke-dasharray="5,2" d="M288.106,-59.6348C299.841,-46.9228 315.648,-29.7978 325.036,-19.6273"/>
<polygon fill="#9a32cd" stroke="#9a32cd" points="285.303,-57.5118 281.092,-67.2338 290.447,-62.2597 285.303,-57.5118"/>
<text text-anchor="middle" x="323.5" y="-41" font-family="Helvetica,sans-Serif" font-size="10.00"> m_info</text>
</g>
<!-- Node5 -->
<g id="node4" class="node"><title>Node5</title>
<g id="a_node4"><a xlink:href="struct_catch_1_1_source_line_info.html" target="_top" xlink:title="Catch::SourceLineInfo">
<polygon fill="white" stroke="black" points="180,-145.5 180,-164.5 294,-164.5 294,-145.5 180,-145.5"/>
<text text-anchor="middle" x="237" y="-152.5" font-family="Helvetica,sans-Serif" font-size="10.00">Catch::SourceLineInfo</text>
</a>
</g>
</g>
<!-- Node5&#45;&gt;Node4 -->
<g id="edge3" class="edge"><title>Node5&#45;&gt;Node4</title>
<path fill="none" stroke="#9a32cd" stroke-dasharray="5,2" d="M233.697,-135.441C232.878,-125.867 233.319,-114.283 238,-105 241.87,-97.3254 249.053,-91.1981 255.909,-86.7332"/>
<polygon fill="#9a32cd" stroke="#9a32cd" points="230.248,-136.058 235.058,-145.499 237.185,-135.12 230.248,-136.058"/>
<text text-anchor="middle" x="255.5" y="-113.5" font-family="Helvetica,sans-Serif" font-size="10.00"> lineInfo</text>
</g>
<!-- Node6 -->
<g id="node5" class="node"><title>Node6</title>
<polygon fill="white" stroke="#bfbfbf" points="224.5,-240 224.5,-259 293.5,-259 293.5,-240 224.5,-240"/>
<text text-anchor="middle" x="259" y="-247" font-family="Helvetica,sans-Serif" font-size="10.00">char const *</text>
</g>
<!-- Node6&#45;&gt;Node5 -->
<g id="edge4" class="edge"><title>Node6&#45;&gt;Node5</title>
<path fill="none" stroke="#9a32cd" stroke-dasharray="5,2" d="M254.652,-230.221C249.92,-210.325 242.558,-179.369 239.025,-164.516"/>
<polygon fill="#9a32cd" stroke="#9a32cd" points="251.251,-231.045 256.97,-239.964 258.061,-229.425 251.251,-231.045"/>
<text text-anchor="middle" x="260" y="-197" font-family="Helvetica,sans-Serif" font-size="10.00"> file</text>
</g>
<!-- Node7 -->
<g id="node6" class="node"><title>Node7</title>
<polygon fill="white" stroke="#bfbfbf" points="142.5,-240 142.5,-259 185.5,-259 185.5,-240 142.5,-240"/>
<text text-anchor="middle" x="164" y="-247" font-family="Helvetica,sans-Serif" font-size="10.00">size_t</text>
</g>
<!-- Node7&#45;&gt;Node5 -->
<g id="edge5" class="edge"><title>Node7&#45;&gt;Node5</title>
<path fill="none" stroke="#9a32cd" stroke-dasharray="5,2" d="M180.29,-232.387C185.187,-227.292 190.461,-221.542 195,-216 209.18,-198.687 223.714,-176.82 231.413,-164.844"/>
<polygon fill="#9a32cd" stroke="#9a32cd" points="177.584,-230.147 173.066,-239.73 182.574,-235.057 177.584,-230.147"/>
<text text-anchor="middle" x="228.5" y="-197" font-family="Helvetica,sans-Serif" font-size="10.00"> line</text>
</g>
<!-- Node13 -->
<g id="node12" class="node"><title>Node13</title>
<g id="a_node12"><a xlink:href="struct_catch_1_1_counts.html" target="_top" xlink:title="Catch::Counts">
<polygon fill="white" stroke="black" points="103,-106.5 103,-125.5 183,-125.5 183,-106.5 103,-106.5"/>
<text text-anchor="middle" x="143" y="-113.5" font-family="Helvetica,sans-Serif" font-size="10.00">Catch::Counts</text>
</a>
</g>
</g>
<!-- Node7&#45;&gt;Node13 -->
<g id="edge13" class="edge"><title>Node7&#45;&gt;Node13</title>
<path fill="none" stroke="#9a32cd" stroke-dasharray="5,2" d="M148.046,-232.037C144.359,-227.236 140.948,-221.729 139,-216 128.144,-184.081 136.256,-143.006 140.655,-125.505"/>
<polygon fill="#9a32cd" stroke="#9a32cd" points="145.554,-234.508 154.725,-239.813 150.864,-229.947 145.554,-234.508"/>
<text text-anchor="middle" x="165" y="-208" font-family="Helvetica,sans-Serif" font-size="10.00"> passed</text>
<text text-anchor="middle" x="165" y="-197" font-family="Helvetica,sans-Serif" font-size="10.00">failedButOk</text>
<text text-anchor="middle" x="165" y="-186" font-family="Helvetica,sans-Serif" font-size="10.00">failed</text>
</g>
<!-- Node8 -->
<g id="node7" class="node"><title>Node8</title>
<g id="a_node7"><a xlink:title="STL class. ">
<polygon fill="white" stroke="#bfbfbf" points="328,-145.5 328,-164.5 388,-164.5 388,-145.5 328,-145.5"/>
<text text-anchor="middle" x="358" y="-152.5" font-family="Helvetica,sans-Serif" font-size="10.00">std::string</text>
</a>
</g>
</g>
<!-- Node8&#45;&gt;Node2 -->
<g id="edge11" class="edge"><title>Node8&#45;&gt;Node2</title>
<path fill="none" stroke="#9a32cd" stroke-dasharray="5,2" d="M357.274,-135.271C356.027,-112.1 352.704,-71.5973 344,-38 342.375,-31.7282 339.625,-24.9782 337.281,-19.7962"/>
<polygon fill="#9a32cd" stroke="#9a32cd" points="353.785,-135.587 357.744,-145.414 360.777,-135.263 353.785,-135.587"/>
<text text-anchor="middle" x="373.5" y="-74.5" font-family="Helvetica,sans-Serif" font-size="10.00"> m_name</text>
</g>
<!-- Node8&#45;&gt;Node4 -->
<g id="edge6" class="edge"><title>Node8&#45;&gt;Node4</title>
<path fill="none" stroke="#9a32cd" stroke-dasharray="5,2" d="M318.73,-141.995C310.522,-138.164 302.422,-133.243 296,-127 284.411,-115.733 278.012,-97.4863 275.061,-86.7254"/>
<polygon fill="#9a32cd" stroke="#9a32cd" points="317.384,-145.225 327.96,-145.87 320.094,-138.771 317.384,-145.225"/>
<text text-anchor="middle" x="320" y="-119" font-family="Helvetica,sans-Serif" font-size="10.00"> name</text>
<text text-anchor="middle" x="320" y="-108" font-family="Helvetica,sans-Serif" font-size="10.00">description</text>
</g>
<!-- Node9 -->
<g id="node8" class="node"><title>Node9</title>
<g id="a_node8"><a xlink:title="STL class. ">
<polygon fill="white" stroke="#bfbfbf" points="311.5,-234.5 311.5,-264.5 406.5,-264.5 406.5,-234.5 311.5,-234.5"/>
<text text-anchor="start" x="319.5" y="-252.5" font-family="Helvetica,sans-Serif" font-size="10.00">std::basic_string&lt;</text>
<text text-anchor="middle" x="359" y="-241.5" font-family="Helvetica,sans-Serif" font-size="10.00"> char &gt;</text>
</a>
</g>
</g>
<!-- Node9&#45;&gt;Node8 -->
<g id="edge7" class="edge"><title>Node9&#45;&gt;Node8</title>
<path fill="none" stroke="midnightblue" d="M358.739,-224.382C358.527,-204.736 358.239,-178.119 358.093,-164.619"/>
<polygon fill="midnightblue" stroke="midnightblue" points="355.24,-224.49 358.848,-234.451 362.24,-224.414 355.24,-224.49"/>
</g>
<!-- Node10 -->
<g id="node9" class="node"><title>Node10</title>
<g id="a_node9"><a xlink:href="class_catch_1_1_timer.html" target="_top" xlink:title="Catch::Timer">
<polygon fill="white" stroke="black" points="417,-67.5 417,-86.5 491,-86.5 491,-67.5 417,-67.5"/>
<text text-anchor="middle" x="454" y="-74.5" font-family="Helvetica,sans-Serif" font-size="10.00">Catch::Timer</text>
</a>
</g>
</g>
<!-- Node10&#45;&gt;Node2 -->
<g id="edge8" class="edge"><title>Node10&#45;&gt;Node2</title>
<path fill="none" stroke="#9a32cd" stroke-dasharray="5,2" d="M428.792,-62.4586C404.804,-49.5727 369.435,-30.5727 349.06,-19.6273"/>
<polygon fill="#9a32cd" stroke="#9a32cd" points="427.216,-65.5847 437.681,-67.2338 430.528,-59.4182 427.216,-65.5847"/>
<text text-anchor="middle" x="420.5" y="-41" font-family="Helvetica,sans-Serif" font-size="10.00"> m_timer</text>
</g>
<!-- Node11 -->
<g id="node10" class="node"><title>Node11</title>
<polygon fill="white" stroke="#bfbfbf" points="428.5,-145.5 428.5,-164.5 479.5,-164.5 479.5,-145.5 428.5,-145.5"/>
<text text-anchor="middle" x="454" y="-152.5" font-family="Helvetica,sans-Serif" font-size="10.00">uint64_t</text>
</g>
<!-- Node11&#45;&gt;Node10 -->
<g id="edge9" class="edge"><title>Node11&#45;&gt;Node10</title>
<path fill="none" stroke="#9a32cd" stroke-dasharray="5,2" d="M454,-135.224C454,-119.697 454,-98.3582 454,-86.6165"/>
<polygon fill="#9a32cd" stroke="#9a32cd" points="450.5,-135.282 454,-145.282 457.5,-135.282 450.5,-135.282"/>
<text text-anchor="middle" x="491.5" y="-113.5" font-family="Helvetica,sans-Serif" font-size="10.00"> m_nanoseconds</text>
</g>
<!-- Node12 -->
<g id="node11" class="node"><title>Node12</title>
<polygon fill="white" stroke="#bfbfbf" points="509.5,-67.5 509.5,-86.5 544.5,-86.5 544.5,-67.5 509.5,-67.5"/>
<text text-anchor="middle" x="527" y="-74.5" font-family="Helvetica,sans-Serif" font-size="10.00">bool</text>
</g>
<!-- Node12&#45;&gt;Node2 -->
<g id="edge10" class="edge"><title>Node12&#45;&gt;Node2</title>
<path fill="none" stroke="#9a32cd" stroke-dasharray="5,2" d="M501.539,-62.8075C485.376,-54.8212 463.839,-44.8835 444,-38 421.328,-30.1335 395.291,-23.6714 374.134,-19.0435"/>
<polygon fill="#9a32cd" stroke="#9a32cd" points="500.338,-66.1211 510.845,-67.4832 503.481,-59.8662 500.338,-66.1211"/>
<text text-anchor="middle" x="512.5" y="-41" font-family="Helvetica,sans-Serif" font-size="10.00"> m_sectionIncluded</text>
</g>
<!-- Node13&#45;&gt;Node2 -->
<g id="edge12" class="edge"><title>Node13&#45;&gt;Node2</title>
<path fill="none" stroke="#9a32cd" stroke-dasharray="5,2" d="M142.557,-96.3369C143.296,-86.4999 145.848,-74.875 153,-67 188.423,-27.993 250.485,-15.9002 291.668,-12.2967"/>
<polygon fill="#9a32cd" stroke="#9a32cd" points="139.057,-96.3166 142.344,-106.388 146.055,-96.4648 139.057,-96.3166"/>
<text text-anchor="middle" x="184" y="-74.5" font-family="Helvetica,sans-Serif" font-size="10.00"> m_assertions</text>
</g>
</g>
</svg>
