<?xml version="1.0" encoding="UTF-8" standalone="no"?>
<!DOCTYPE svg PUBLIC "-//W3C//DTD SVG 1.1//EN"
 "http://www.w3.org/Graphics/SVG/1.1/DTD/svg11.dtd">
<!-- Generated by graphviz version 2.38.0 (20140413.2041)
 -->
<!-- Title: Catch::NonCopyable Pages: 1 -->
<svg width="196pt" height="84pt"
 viewBox="0.00 0.00 195.50 84.00" xmlns="http://www.w3.org/2000/svg" xmlns:xlink="http://www.w3.org/1999/xlink">
<g id="graph0" class="graph" transform="scale(1 1) rotate(0) translate(4 80)">
<title>Catch::NonCopyable</title>
<polygon fill="white" stroke="none" points="-4,4 -4,-80 191.5,-80 191.5,4 -4,4"/>
<!-- Node0 -->
<g id="node1" class="node"><title>Node0</title>
<polygon fill="#bfbfbf" stroke="black" points="40.5,-56.5 40.5,-75.5 148.5,-75.5 148.5,-56.5 40.5,-56.5"/>
<text text-anchor="middle" x="94.5" y="-63.5" font-family="Helvetica,sans-Serif" font-size="10.00">Catch::NonCopyable</text>
</g>
<!-- Node1 -->
<g id="node2" class="node"><title>Node1</title>
<g id="a_node2"><a xlink:href="struct_catch_1_1_auto_reg.html" target="_top" xlink:title="Catch::AutoReg">
<polygon fill="white" stroke="black" points="0,-0.5 0,-19.5 87,-19.5 87,-0.5 0,-0.5"/>
<text text-anchor="middle" x="43.5" y="-7.5" font-family="Helvetica,sans-Serif" font-size="10.00">Catch::AutoReg</text>
</a>
</g>
</g>
<!-- Node0&#45;&gt;Node1 -->
<g id="edge1" class="edge"><title>Node0&#45;&gt;Node1</title>
<path fill="none" stroke="midnightblue" d="M79.1221,-48.7175C70.1331,-39.1997 59.1408,-27.5608 51.7649,-19.7511"/>
<polygon fill="midnightblue" stroke="midnightblue" points="76.6676,-51.216 86.0784,-56.083 81.7567,-46.4096 76.6676,-51.216"/>
</g>
<!-- Node2 -->
<g id="node3" class="node"><title>Node2</title>
<g id="a_node3"><a xlink:href="class_catch_1_1_section.html" target="_top" xlink:title="Catch::Section">
<polygon fill="white" stroke="black" points="105.5,-0.5 105.5,-19.5 187.5,-19.5 187.5,-0.5 105.5,-0.5"/>
<text text-anchor="middle" x="146.5" y="-7.5" font-family="Helvetica,sans-Serif" font-size="10.00">Catch::Section</text>
</a>
</g>
</g>
<!-- Node0&#45;&gt;Node2 -->
<g id="edge2" class="edge"><title>Node0&#45;&gt;Node2</title>
<path fill="none" stroke="#8b1a1a" d="M110.179,-48.7175C119.345,-39.1997 130.553,-27.5608 138.073,-19.7511"/>
<polygon fill="#8b1a1a" stroke="#8b1a1a" points="107.502,-46.452 103.087,-56.083 112.544,-51.3075 107.502,-46.452"/>
</g>
</g>
</svg>
