<?xml version="1.0" encoding="UTF-8" standalone="no"?>
<!DOCTYPE svg PUBLIC "-//W3C//DTD SVG 1.1//EN"
 "http://www.w3.org/Graphics/SVG/1.1/DTD/svg11.dtd">
<!-- Generated by graphviz version 2.38.0 (20140413.2041)
 -->
<!-- Title: trimAlManager::CleanSequences Pages: 1 -->
<svg width="1111pt" height="317pt"
 viewBox="0.00 0.00 1111.00 316.50" xmlns="http://www.w3.org/2000/svg" xmlns:xlink="http://www.w3.org/1999/xlink">
<g id="graph0" class="graph" transform="scale(1 1) rotate(0) translate(4 312.5)">
<title>trimAlManager::CleanSequences</title>
<polygon fill="white" stroke="none" points="-4,4 -4,-312.5 1107,-312.5 1107,4 -4,4"/>
<!-- Node245 -->
<g id="node1" class="node"><title>Node245</title>
<polygon fill="#bfbfbf" stroke="black" points="0,-181 0,-200 160,-200 160,-181 0,-181"/>
<text text-anchor="middle" x="80" y="-188" font-family="Helvetica,sans-Serif" font-size="10.00">trimAlManager::CleanSequences</text>
</g>
<!-- Node246 -->
<g id="node2" class="node"><title>Node246</title>
<g id="a_node2"><a xlink:href="class_cleaner.html#a08e6db52c33baccce53a33d844597d7b" target="_top" xlink:title="Method to remove columns composed only by gaps This method is specially useful when we remove missali...">
<polygon fill="white" stroke="black" points="201,-181 201,-200 328,-200 328,-181 201,-181"/>
<text text-anchor="middle" x="264.5" y="-188" font-family="Helvetica,sans-Serif" font-size="10.00">Cleaner::cleanNoAllGaps</text>
</a>
</g>
</g>
<!-- Node245&#45;&gt;Node246 -->
<g id="edge1" class="edge"><title>Node245&#45;&gt;Node246</title>
<path fill="none" stroke="midnightblue" d="M160.251,-190.5C170.318,-190.5 180.582,-190.5 190.544,-190.5"/>
<polygon fill="midnightblue" stroke="midnightblue" points="190.794,-194 200.794,-190.5 190.794,-187 190.794,-194"/>
</g>
<!-- Node254 -->
<g id="node10" class="node"><title>Node254</title>
<g id="a_node10"><a xlink:href="class_cleaner.html#a095db8160a11a792a3feade870a24fd7" target="_top" xlink:title="Method to remove sequences missaligned with the rest of sequences in the alignment. &#160;For each residue in the sequence, it tests it&#39;s similarity. If the similarity of that residue is higher than overlapColumn value, it counts as a hit for the sequence. After calculating the number of hits for the sequence, it removes the sequence if it has a proportion hits/residues lower tan minimumOverlap. ">
<polygon fill="white" stroke="black" points="197,-50 197,-69 332,-69 332,-50 197,-50"/>
<text text-anchor="middle" x="264.5" y="-57" font-family="Helvetica,sans-Serif" font-size="10.00">Cleaner::cleanSpuriousSeq</text>
</a>
</g>
</g>
<!-- Node245&#45;&gt;Node254 -->
<g id="edge9" class="edge"><title>Node245&#45;&gt;Node254</title>
<path fill="none" stroke="midnightblue" d="M94.4197,-180.867C125.665,-158.439 203.509,-102.562 241.688,-75.1571"/>
<polygon fill="midnightblue" stroke="midnightblue" points="243.978,-77.8215 250.061,-69.1469 239.896,-72.1349 243.978,-77.8215"/>
</g>
<!-- Node259 -->
<g id="node15" class="node"><title>Node259</title>
<g id="a_node15"><a xlink:href="class_cleaner.html#a991bf55a7d36b305d67d639ebf028348" target="_top" xlink:title="Method to select the most representative sequence (the longest one) for each cluster from the input a...">
<polygon fill="white" stroke="black" points="207.5,-261 207.5,-280 321.5,-280 321.5,-261 207.5,-261"/>
<text text-anchor="middle" x="264.5" y="-268" font-family="Helvetica,sans-Serif" font-size="10.00">Cleaner::getClustering</text>
</a>
</g>
</g>
<!-- Node245&#45;&gt;Node259 -->
<g id="edge15" class="edge"><title>Node245&#45;&gt;Node259</title>
<path fill="none" stroke="midnightblue" d="M100.805,-200.004C123.612,-210.86 162.274,-228.995 196,-243.5 206.741,-248.12 218.548,-252.932 229.242,-257.192"/>
<polygon fill="midnightblue" stroke="midnightblue" points="228.102,-260.505 238.689,-260.928 230.677,-253.995 228.102,-260.505"/>
</g>
<!-- Node263 -->
<g id="node19" class="node"><title>Node263</title>
<g id="a_node19"><a xlink:href="class_cleaner.html#a60955e2ae3faa3ccf84780a52fb1a08a" target="_top" xlink:title="Method that calculates the optimal cut point for a given clusters number. &#160;The idea is to obtain a cu...">
<polygon fill="white" stroke="black" points="386,-225 386,-244 531,-244 531,-225 386,-225"/>
<text text-anchor="middle" x="458.5" y="-232" font-family="Helvetica,sans-Serif" font-size="10.00">Cleaner::getCutPointClusters</text>
</a>
</g>
</g>
<!-- Node245&#45;&gt;Node263 -->
<g id="edge21" class="edge"><title>Node245&#45;&gt;Node263</title>
<path fill="none" stroke="midnightblue" d="M133.846,-200.009C153.338,-203.311 175.633,-206.847 196,-209.5 255.993,-217.314 324.028,-223.743 375.662,-228.124"/>
<polygon fill="midnightblue" stroke="midnightblue" points="375.505,-231.623 385.763,-228.973 376.091,-224.648 375.505,-231.623"/>
</g>
<!-- Node264 -->
<g id="node20" class="node"><title>Node264</title>
<g id="a_node20"><a xlink:href="class_cleaner.html#af27e657bf4874a21b26d9a8217c1e643" target="_top" xlink:title="Method to remove sequences, expressed as ranges. ">
<polygon fill="white" stroke="black" points="196,-132 196,-151 333,-151 333,-132 196,-132"/>
<text text-anchor="middle" x="264.5" y="-139" font-family="Helvetica,sans-Serif" font-size="10.00">Cleaner::removeSequences</text>
</a>
</g>
</g>
<!-- Node245&#45;&gt;Node264 -->
<g id="edge25" class="edge"><title>Node245&#45;&gt;Node264</title>
<path fill="none" stroke="midnightblue" d="M116.621,-180.936C145.638,-173.145 186.79,-162.096 218.156,-153.674"/>
<polygon fill="midnightblue" stroke="midnightblue" points="219.218,-157.013 227.969,-151.04 217.403,-150.253 219.218,-157.013"/>
</g>
<!-- Node247 -->
<g id="node3" class="node"><title>Node247</title>
<g id="a_node3"><a xlink:href="class_cleaner.html#a66bda5807c06cfaf1609e4c1f5955671" target="_top" xlink:title="Method to clean an alignment. &#160;It removes sequences that overpass or equals a certain threshold...">
<polygon fill="white" stroke="black" points="392.5,-175.5 392.5,-205.5 524.5,-205.5 524.5,-175.5 392.5,-175.5"/>
<text text-anchor="start" x="400.5" y="-193.5" font-family="Helvetica,sans-Serif" font-size="10.00">Cleaner::cleanByCutValue</text>
<text text-anchor="middle" x="458.5" y="-182.5" font-family="Helvetica,sans-Serif" font-size="10.00">Overpass</text>
</a>
</g>
</g>
<!-- Node246&#45;&gt;Node247 -->
<g id="edge2" class="edge"><title>Node246&#45;&gt;Node247</title>
<path fill="none" stroke="midnightblue" d="M328.102,-190.5C345.381,-190.5 364.308,-190.5 382.224,-190.5"/>
<polygon fill="midnightblue" stroke="midnightblue" points="382.345,-194 392.345,-190.5 382.345,-187 382.345,-194"/>
</g>
<!-- Node248 -->
<g id="node4" class="node"><title>Node248</title>
<g id="a_node4"><a xlink:href="classutils.html#a73f038c379c13d23e3220afaa14f9983" target="_top" xlink:title="Quicksort sorting method. ">
<polygon fill="white" stroke="black" points="620,-213 620,-232 700,-232 700,-213 620,-213"/>
<text text-anchor="middle" x="660" y="-220" font-family="Helvetica,sans-Serif" font-size="10.00">utils::quicksort</text>
</a>
</g>
</g>
<!-- Node247&#45;&gt;Node248 -->
<g id="edge3" class="edge"><title>Node247&#45;&gt;Node248</title>
<path fill="none" stroke="midnightblue" d="M524.548,-200.934C552.354,-205.394 584.269,-210.513 610.026,-214.644"/>
<polygon fill="midnightblue" stroke="midnightblue" points="609.505,-218.106 619.933,-216.234 610.614,-211.194 609.505,-218.106"/>
</g>
<!-- Node250 -->
<g id="node6" class="node"><title>Node250</title>
<g id="a_node6"><a xlink:href="class_cleaner.html#ada8ad076dd037f00ae3f4fd17762641f" target="_top" xlink:title="Method that identifies and removes columns and sequences composed only by gaps. ">
<polygon fill="white" stroke="black" points="587,-82.5 587,-112.5 733,-112.5 733,-82.5 587,-82.5"/>
<text text-anchor="start" x="595" y="-100.5" font-family="Helvetica,sans-Serif" font-size="10.00">Cleaner::removeAllGapsSeqs</text>
<text text-anchor="middle" x="660" y="-89.5" font-family="Helvetica,sans-Serif" font-size="10.00">AndCols</text>
</a>
</g>
</g>
<!-- Node247&#45;&gt;Node250 -->
<g id="edge5" class="edge"><title>Node247&#45;&gt;Node250</title>
<path fill="none" stroke="midnightblue" d="M524.531,-176.531C532.723,-173.516 540.759,-169.879 548,-165.5 567.908,-153.462 564.753,-140.568 584,-127.5 589.903,-123.492 596.421,-119.893 603.078,-116.697"/>
<polygon fill="midnightblue" stroke="midnightblue" points="604.516,-119.888 612.196,-112.59 601.641,-113.506 604.516,-119.888"/>
</g>
<!-- Node252 -->
<g id="node8" class="node"><title>Node252</title>
<g id="a_node8"><a xlink:href="class_cleaner.html#ae6d263df982b8e0a605f49e52a5a48d9" target="_top" xlink:title="Method to remove column blocks smaller than a given size. ">
<polygon fill="white" stroke="black" points="584,-175 584,-194 736,-194 736,-175 584,-175"/>
<text text-anchor="middle" x="660" y="-182" font-family="Helvetica,sans-Serif" font-size="10.00">Cleaner::removeSmallerBlocks</text>
</a>
</g>
</g>
<!-- Node247&#45;&gt;Node252 -->
<g id="edge7" class="edge"><title>Node247&#45;&gt;Node252</title>
<path fill="none" stroke="midnightblue" d="M524.548,-188.544C540.273,-188.071 557.313,-187.558 573.81,-187.062"/>
<polygon fill="midnightblue" stroke="midnightblue" points="574.104,-190.555 583.995,-186.756 573.894,-183.558 574.104,-190.555"/>
</g>
<!-- Node253 -->
<g id="node9" class="node"><title>Node253</title>
<g id="a_node9"><a xlink:href="classutils.html#ad50731aeb3c8f79ed8372516210dfc9d" target="_top" xlink:title="Round double to integer method. ">
<polygon fill="white" stroke="black" points="622,-137 622,-156 698,-156 698,-137 622,-137"/>
<text text-anchor="middle" x="660" y="-144" font-family="Helvetica,sans-Serif" font-size="10.00">utils::roundInt</text>
</a>
</g>
</g>
<!-- Node247&#45;&gt;Node253 -->
<g id="edge8" class="edge"><title>Node247&#45;&gt;Node253</title>
<path fill="none" stroke="midnightblue" d="M524.548,-176.154C553.056,-169.866 585.885,-162.626 611.966,-156.873"/>
<polygon fill="midnightblue" stroke="midnightblue" points="612.959,-160.239 621.97,-154.667 611.451,-153.403 612.959,-160.239"/>
</g>
<!-- Node249 -->
<g id="node5" class="node"><title>Node249</title>
<g id="a_node5"><a xlink:href="classutils.html#a3377ecde55631d1bbc4956e5923b7469" target="_top" xlink:title="Swapping elements method. ">
<polygon fill="white" stroke="black" points="821.5,-213 821.5,-232 885.5,-232 885.5,-213 821.5,-213"/>
<text text-anchor="middle" x="853.5" y="-220" font-family="Helvetica,sans-Serif" font-size="10.00">utils::swap</text>
</a>
</g>
</g>
<!-- Node248&#45;&gt;Node249 -->
<g id="edge4" class="edge"><title>Node248&#45;&gt;Node249</title>
<path fill="none" stroke="midnightblue" d="M700.215,-222.5C732.503,-222.5 778.153,-222.5 811.041,-222.5"/>
<polygon fill="midnightblue" stroke="midnightblue" points="811.237,-226 821.237,-222.5 811.237,-219 811.237,-226"/>
</g>
<!-- Node251 -->
<g id="node7" class="node"><title>Node251</title>
<g id="a_node7"><a xlink:href="class____internal_report_1_1____report_system.html#acd358cbc59625c6e2f47e0b5f825400d" target="_top" xlink:title="Method to report an Error. &#160;It will be displayed if Level &#160;is equal or higher to VerboseLevel::ERROR...">
<polygon fill="white" stroke="black" points="795.5,-82.5 795.5,-112.5 911.5,-112.5 911.5,-82.5 795.5,-82.5"/>
<text text-anchor="start" x="803.5" y="-100.5" font-family="Helvetica,sans-Serif" font-size="10.00">__internalReport::</text>
<text text-anchor="middle" x="853.5" y="-89.5" font-family="Helvetica,sans-Serif" font-size="10.00">__reportSystem::report</text>
</a>
</g>
</g>
<!-- Node250&#45;&gt;Node251 -->
<g id="edge6" class="edge"><title>Node250&#45;&gt;Node251</title>
<path fill="none" stroke="midnightblue" d="M733.125,-97.5C750.159,-97.5 768.256,-97.5 785.073,-97.5"/>
<polygon fill="midnightblue" stroke="midnightblue" points="785.357,-101 795.357,-97.5 785.357,-94.0001 785.357,-101"/>
</g>
<!-- Node255 -->
<g id="node11" class="node"><title>Node255</title>
<g id="a_node11"><a xlink:href="class_cleaner.html#ab2db8eacfbe545c68fc287c43309e439" target="_top" xlink:title="Method to compute the overlap values. &#160;See newAlignment::overlaps. ">
<polygon fill="white" stroke="black" points="391.5,-0.5 391.5,-30.5 525.5,-30.5 525.5,-0.5 391.5,-0.5"/>
<text text-anchor="start" x="399.5" y="-18.5" font-family="Helvetica,sans-Serif" font-size="10.00">Cleaner::calculateSpurious</text>
<text text-anchor="middle" x="458.5" y="-7.5" font-family="Helvetica,sans-Serif" font-size="10.00">Vector</text>
</a>
</g>
</g>
<!-- Node254&#45;&gt;Node255 -->
<g id="edge10" class="edge"><title>Node254&#45;&gt;Node255</title>
<path fill="none" stroke="midnightblue" d="M307.161,-49.9527C328.971,-44.9545 356.36,-38.6778 381.766,-32.8558"/>
<polygon fill="midnightblue" stroke="midnightblue" points="382.795,-36.2108 391.76,-30.5654 381.231,-29.3876 382.795,-36.2108"/>
</g>
<!-- Node258 -->
<g id="node14" class="node"><title>Node258</title>
<g id="a_node14"><a xlink:href="class_cleaner.html#a74d3049d4997da5e7c6c51cb19b540e8" target="_top" xlink:title="Method to trim an alignment based on a minimum sequence overlap threshold. &#160;The method selects a comb...">
<polygon fill="white" stroke="black" points="393,-50 393,-69 524,-69 524,-50 393,-50"/>
<text text-anchor="middle" x="458.5" y="-57" font-family="Helvetica,sans-Serif" font-size="10.00">Cleaner::cleanOverlapSeq</text>
</a>
</g>
</g>
<!-- Node254&#45;&gt;Node258 -->
<g id="edge13" class="edge"><title>Node254&#45;&gt;Node258</title>
<path fill="none" stroke="midnightblue" d="M332.113,-59.5C348.438,-59.5 366.016,-59.5 382.697,-59.5"/>
<polygon fill="midnightblue" stroke="midnightblue" points="382.947,-63.0001 392.947,-59.5 382.947,-56.0001 382.947,-63.0001"/>
</g>
<!-- Node256 -->
<g id="node12" class="node"><title>Node256</title>
<g id="a_node12"><a xlink:href="classnew_alignment.html#a670d5ef1ced9ed6041c3f6afdbd2cc02" target="_top" xlink:title="Alignment type getter. &#160;&#160;See SequenceTypes.">
<polygon fill="white" stroke="black" points="772,-251 772,-270 935,-270 935,-251 772,-251"/>
<text text-anchor="middle" x="853.5" y="-258" font-family="Helvetica,sans-Serif" font-size="10.00">newAlignment::getAlignmentType</text>
</a>
</g>
</g>
<!-- Node255&#45;&gt;Node256 -->
<g id="edge11" class="edge"><title>Node255&#45;&gt;Node256</title>
<path fill="none" stroke="midnightblue" d="M525.586,-10.175C588.321,-8.97305 680.975,-17.8355 736,-72.5 790.482,-126.624 718.295,-186.605 772,-241.5 773.277,-242.806 774.626,-244.028 776.037,-245.173"/>
<polygon fill="midnightblue" stroke="midnightblue" points="774.445,-248.316 784.716,-250.914 778.306,-242.478 774.445,-248.316"/>
</g>
<!-- Node257 -->
<g id="node13" class="node"><title>Node257</title>
<g id="a_node13"><a xlink:href="classutils.html#a1f1dcbfa7276e54acec72bdbae1b1255" target="_top" xlink:title="Checks an alignment type. ">
<polygon fill="white" stroke="black" points="971,-251 971,-270 1103,-270 1103,-251 971,-251"/>
<text text-anchor="middle" x="1037" y="-258" font-family="Helvetica,sans-Serif" font-size="10.00">utils::checkAlignmentType</text>
</a>
</g>
</g>
<!-- Node256&#45;&gt;Node257 -->
<g id="edge12" class="edge"><title>Node256&#45;&gt;Node257</title>
<path fill="none" stroke="midnightblue" d="M935.166,-260.5C943.646,-260.5 952.246,-260.5 960.664,-260.5"/>
<polygon fill="midnightblue" stroke="midnightblue" points="960.821,-264 970.821,-260.5 960.821,-257 960.821,-264"/>
</g>
<!-- Node258&#45;&gt;Node250 -->
<g id="edge14" class="edge"><title>Node258&#45;&gt;Node250</title>
<path fill="none" stroke="midnightblue" d="M509.585,-69.04C529.894,-72.9085 553.892,-77.4794 576.644,-81.8131"/>
<polygon fill="midnightblue" stroke="midnightblue" points="576.168,-85.2854 586.646,-83.7184 577.478,-78.409 576.168,-85.2854"/>
</g>
<!-- Node260 -->
<g id="node16" class="node"><title>Node260</title>
<g id="a_node16"><a xlink:href="class_cleaner.html#a631cf3e2e55c00a995f0f4a51bfe7a2d" target="_top" xlink:title="Method to assign sequences to clusters. Clusters are calculated following this flow: ...">
<polygon fill="white" stroke="black" points="369,-263 369,-282 548,-282 548,-263 369,-263"/>
<text text-anchor="middle" x="458.5" y="-270" font-family="Helvetica,sans-Serif" font-size="10.00">Cleaner::calculateRepresentativeSeq</text>
</a>
</g>
</g>
<!-- Node259&#45;&gt;Node260 -->
<g id="edge16" class="edge"><title>Node259&#45;&gt;Node260</title>
<path fill="none" stroke="midnightblue" d="M321.55,-271.084C333.254,-271.206 345.921,-271.338 358.656,-271.47"/>
<polygon fill="midnightblue" stroke="midnightblue" points="358.829,-274.972 368.865,-271.577 358.902,-267.973 358.829,-274.972"/>
</g>
<!-- Node260&#45;&gt;Node248 -->
<g id="edge19" class="edge"><title>Node260&#45;&gt;Node248</title>
<path fill="none" stroke="midnightblue" d="M508.885,-262.905C521.691,-260.142 535.418,-256.936 548,-253.5 564.27,-249.056 567.815,-246.241 584,-241.5 592.429,-239.031 601.446,-236.584 610.199,-234.308"/>
<polygon fill="midnightblue" stroke="midnightblue" points="611.105,-237.689 619.926,-231.82 609.37,-230.908 611.105,-237.689"/>
</g>
<!-- Node261 -->
<g id="node17" class="node"><title>Node261</title>
<g id="a_node17"><a xlink:href="class_cleaner.html#a65d829578be97c192561a129435b3c58" target="_top" xlink:title="Method to calculate identities between the sequences from the alignment. See newAlignment::identities...">
<polygon fill="white" stroke="black" points="587.5,-251 587.5,-270 732.5,-270 732.5,-251 587.5,-251"/>
<text text-anchor="middle" x="660" y="-258" font-family="Helvetica,sans-Serif" font-size="10.00">Cleaner::calculateSeqIdentity</text>
</a>
</g>
</g>
<!-- Node260&#45;&gt;Node261 -->
<g id="edge17" class="edge"><title>Node260&#45;&gt;Node261</title>
<path fill="none" stroke="midnightblue" d="M548.165,-267.167C557.795,-266.588 567.564,-266 577.107,-265.426"/>
<polygon fill="midnightblue" stroke="midnightblue" points="577.585,-268.904 587.357,-264.809 577.165,-261.916 577.585,-268.904"/>
</g>
<!-- Node262 -->
<g id="node18" class="node"><title>Node262</title>
<g id="a_node18"><a xlink:href="classutils.html#a1dce160519187ef2c6e14beb93a2050d" target="_top" xlink:title="Removes a determined char from the string. ">
<polygon fill="white" stroke="black" points="602,-289 602,-308 718,-308 718,-289 602,-289"/>
<text text-anchor="middle" x="660" y="-296" font-family="Helvetica,sans-Serif" font-size="10.00">utils::removeCharacter</text>
</a>
</g>
</g>
<!-- Node260&#45;&gt;Node262 -->
<g id="edge20" class="edge"><title>Node260&#45;&gt;Node262</title>
<path fill="none" stroke="midnightblue" d="M532.654,-282.034C551.978,-284.552 572.738,-287.258 591.735,-289.734"/>
<polygon fill="midnightblue" stroke="midnightblue" points="591.419,-293.222 601.787,-291.044 592.324,-286.281 591.419,-293.222"/>
</g>
<!-- Node261&#45;&gt;Node256 -->
<g id="edge18" class="edge"><title>Node261&#45;&gt;Node256</title>
<path fill="none" stroke="midnightblue" d="M732.58,-260.5C742.12,-260.5 752.003,-260.5 761.815,-260.5"/>
<polygon fill="midnightblue" stroke="midnightblue" points="761.997,-264 771.997,-260.5 761.997,-257 761.997,-264"/>
</g>
<!-- Node263&#45;&gt;Node248 -->
<g id="edge23" class="edge"><title>Node263&#45;&gt;Node248</title>
<path fill="none" stroke="midnightblue" d="M531.242,-230.185C557.224,-228.622 585.964,-226.893 609.595,-225.472"/>
<polygon fill="midnightblue" stroke="midnightblue" points="609.953,-228.957 619.724,-224.862 609.532,-221.969 609.953,-228.957"/>
</g>
<!-- Node263&#45;&gt;Node261 -->
<g id="edge22" class="edge"><title>Node263&#45;&gt;Node261</title>
<path fill="none" stroke="midnightblue" d="M531.242,-243.85C546.179,-245.796 562.027,-247.862 577.292,-249.851"/>
<polygon fill="midnightblue" stroke="midnightblue" points="576.856,-253.324 587.224,-251.146 577.76,-246.383 576.856,-253.324"/>
</g>
<!-- Node263&#45;&gt;Node262 -->
<g id="edge24" class="edge"><title>Node263&#45;&gt;Node262</title>
<path fill="none" stroke="midnightblue" d="M520.544,-244.12C529.947,-246.589 539.385,-249.668 548,-253.5 566.033,-261.52 566.117,-271.151 584,-279.5 589.224,-281.939 594.805,-284.094 600.475,-285.992"/>
<polygon fill="midnightblue" stroke="midnightblue" points="599.469,-289.345 610.057,-288.949 601.533,-282.656 599.469,-289.345"/>
</g>
<!-- Node264&#45;&gt;Node250 -->
<g id="edge26" class="edge"><title>Node264&#45;&gt;Node250</title>
<path fill="none" stroke="midnightblue" d="M298.772,-131.924C318.924,-126.51 345.243,-120.12 369,-116.5 438.523,-105.906 518.307,-101.216 576.57,-99.1411"/>
<polygon fill="midnightblue" stroke="midnightblue" points="576.949,-102.63 586.825,-98.7949 576.713,-95.6344 576.949,-102.63"/>
</g>
<!-- Node265 -->
<g id="node21" class="node"><title>Node265</title>
<g id="a_node21"><a xlink:href="classnew_alignment.html#a52710ff330519de8a4e41b27e7e55958" target="_top" xlink:title="Updates the sequence number and residue number based on saveResidues and saveSequences. ">
<polygon fill="white" stroke="black" points="377.5,-126.5 377.5,-156.5 539.5,-156.5 539.5,-126.5 377.5,-126.5"/>
<text text-anchor="start" x="385.5" y="-144.5" font-family="Helvetica,sans-Serif" font-size="10.00">newAlignment::updateSequences</text>
<text text-anchor="middle" x="458.5" y="-133.5" font-family="Helvetica,sans-Serif" font-size="10.00">AndResiduesNums</text>
</a>
</g>
</g>
<!-- Node264&#45;&gt;Node265 -->
<g id="edge27" class="edge"><title>Node264&#45;&gt;Node265</title>
<path fill="none" stroke="midnightblue" d="M333.192,-141.5C344.215,-141.5 355.784,-141.5 367.244,-141.5"/>
<polygon fill="midnightblue" stroke="midnightblue" points="367.27,-145 377.27,-141.5 367.27,-138 367.27,-145"/>
</g>
</g>
</svg>
