<?xml version="1.0" encoding="UTF-8" standalone="no"?>
<!DOCTYPE svg PUBLIC "-//W3C//DTD SVG 1.1//EN"
 "http://www.w3.org/Graphics/SVG/1.1/DTD/svg11.dtd">
<!-- Generated by graphviz version 2.40.1 (20161225.0304)
 -->
<!-- Title: FormatHandling::BaseFormatHandler::CheckAlignment Pages: 1 -->
<svg width="990pt" height="251pt"
 viewBox="0.00 0.00 990.00 250.50" xmlns="http://www.w3.org/2000/svg" xmlns:xlink="http://www.w3.org/1999/xlink">
<g id="graph0" class="graph" transform="scale(1 1) rotate(0) translate(4 246.5)">
<title>FormatHandling::BaseFormatHandler::CheckAlignment</title>
<polygon fill="#ffffff" stroke="transparent" points="-4,4 -4,-246.5 986,-246.5 986,4 -4,4"/>
<!-- Node3 -->
<g id="node1" class="node">
<title>Node3</title>
<polygon fill="#bfbfbf" stroke="#000000" points="0,-129 0,-159 145,-159 145,-129 0,-129"/>
<text text-anchor="start" x="8" y="-147" font-family="Helvetica,sans-Serif" font-size="10.00" fill="#000000">FormatHandling::BaseFormat</text>
<text text-anchor="middle" x="72.5" y="-136" font-family="Helvetica,sans-Serif" font-size="10.00" fill="#000000">Handler::CheckAlignment</text>
</g>
<!-- Node4 -->
<g id="node2" class="node">
<title>Node4</title>
<g id="a_node2"><a xlink:href="class_format_handling_1_1_format_manager.html#ac691b15ee0b0e6a22a22f82569672745" target="_top" xlink:title="Function to obtain the format name of a given file. ">
<polygon fill="#ffffff" stroke="#000000" points="182.5,-178 182.5,-208 342.5,-208 342.5,-178 182.5,-178"/>
<text text-anchor="start" x="190.5" y="-196" font-family="Helvetica,sans-Serif" font-size="10.00" fill="#000000">FormatHandling::FormatManager</text>
<text text-anchor="middle" x="262.5" y="-185" font-family="Helvetica,sans-Serif" font-size="10.00" fill="#000000">::getFileFormatName</text>
</a>
</g>
</g>
<!-- Node3&#45;&gt;Node4 -->
<g id="edge1" class="edge">
<title>Node3&#45;&gt;Node4</title>
<path fill="none" stroke="#191970" d="M140.5503,-161.5498C161.4146,-166.9306 184.1697,-172.799 204.3127,-177.9938"/>
<polygon fill="#191970" stroke="#191970" points="141.3547,-158.1428 130.7975,-159.0346 139.6066,-164.921 141.3547,-158.1428"/>
</g>
<!-- Node13 -->
<g id="node11" class="node">
<title>Node13</title>
<g id="a_node11"><a xlink:href="class_format_handling_1_1_format_manager.html#ae02b932789b35289dc506e8ed0297695" target="_top" xlink:title="Function that loads an alignment given a file path. It automatically detects the format of the file...">
<polygon fill="#ffffff" stroke="#000000" points="182.5,-80 182.5,-110 342.5,-110 342.5,-80 182.5,-80"/>
<text text-anchor="start" x="190.5" y="-98" font-family="Helvetica,sans-Serif" font-size="10.00" fill="#000000">FormatHandling::FormatManager</text>
<text text-anchor="middle" x="262.5" y="-87" font-family="Helvetica,sans-Serif" font-size="10.00" fill="#000000">::loadAlignment</text>
</a>
</g>
</g>
<!-- Node3&#45;&gt;Node13 -->
<g id="edge11" class="edge">
<title>Node3&#45;&gt;Node13</title>
<path fill="none" stroke="#191970" d="M140.5503,-126.4502C161.4146,-121.0694 184.1697,-115.201 204.3127,-110.0062"/>
<polygon fill="#191970" stroke="#191970" points="139.6066,-123.079 130.7975,-128.9654 141.3547,-129.8572 139.6066,-123.079"/>
</g>
<!-- Node17 -->
<g id="node15" class="node">
<title>Node17</title>
<g id="a_node15"><a xlink:href="class_format_handling_1_1_format_manager.html#aac5df1a01a25e54aa856ef68085bd72a" target="_top" xlink:title="Function that takes multiple files, loads them and saves in a cumulus of formats, using an outPattern...">
<polygon fill="#ffffff" stroke="#000000" points="181,-129 181,-159 344,-159 344,-129 181,-129"/>
<text text-anchor="start" x="189" y="-147" font-family="Helvetica,sans-Serif" font-size="10.00" fill="#000000">FormatHandling::FormatManager</text>
<text text-anchor="middle" x="262.5" y="-136" font-family="Helvetica,sans-Serif" font-size="10.00" fill="#000000">::loadAndSaveMultipleAlignments</text>
</a>
</g>
</g>
<!-- Node3&#45;&gt;Node17 -->
<g id="edge20" class="edge">
<title>Node3&#45;&gt;Node17</title>
<path fill="none" stroke="#191970" d="M155.3288,-144C163.746,-144 172.2928,-144 180.699,-144"/>
<polygon fill="#191970" stroke="#191970" points="155.1442,-140.5001 145.1441,-144 155.1441,-147.5001 155.1442,-140.5001"/>
</g>
<!-- Node5 -->
<g id="node3" class="node">
<title>Node5</title>
<g id="a_node3"><a xlink:href="read_al_main_8cpp.html#a0ddf1224851353fc92bfbff6f499fa97" target="_top" xlink:title="main">
<polygon fill="#ffffff" stroke="#000000" points="419.5,-173.5 419.5,-192.5 457.5,-192.5 457.5,-173.5 419.5,-173.5"/>
<text text-anchor="middle" x="438.5" y="-180.5" font-family="Helvetica,sans-Serif" font-size="10.00" fill="#000000">main</text>
</a>
</g>
</g>
<!-- Node4&#45;&gt;Node5 -->
<g id="edge2" class="edge">
<title>Node4&#45;&gt;Node5</title>
<path fill="none" stroke="#191970" d="M352.5687,-187.8825C377.827,-186.4473 402.8579,-185.0251 419.3318,-184.0891"/>
<polygon fill="#191970" stroke="#191970" points="352.3029,-184.3918 342.5176,-188.4535 352.7001,-191.3806 352.3029,-184.3918"/>
</g>
<!-- Node6 -->
<g id="node4" class="node">
<title>Node6</title>
<g id="a_node4"><a xlink:href="classstatistics_1_1_consistency.html#ae8679e43ec228926ac2844af133cc2d5" target="_top" xlink:title="Method to compare a set of MSA, all containing the same sequences and residues. The number of residue...">
<polygon fill="#ffffff" stroke="#000000" points="380,-124 380,-154 497,-154 497,-124 380,-124"/>
<text text-anchor="start" x="388" y="-142" font-family="Helvetica,sans-Serif" font-size="10.00" fill="#000000">statistics::Consistency</text>
<text text-anchor="middle" x="438.5" y="-131" font-family="Helvetica,sans-Serif" font-size="10.00" fill="#000000">::perform</text>
</a>
</g>
</g>
<!-- Node4&#45;&gt;Node6 -->
<g id="edge3" class="edge">
<title>Node4&#45;&gt;Node6</title>
<path fill="none" stroke="#191970" d="M324.0914,-175.0121C330.8161,-173.0037 337.5559,-170.9715 344,-169 359.4725,-164.2665 376.3235,-158.9643 391.4545,-154.1494"/>
<polygon fill="#191970" stroke="#191970" points="322.8735,-171.7227 314.2859,-177.9279 324.8688,-178.4323 322.8735,-171.7227"/>
</g>
<!-- Node10 -->
<g id="node8" class="node">
<title>Node10</title>
<g id="a_node8"><a xlink:href="classtrim_al_manager.html#af7c3b97a17c2f5750f9481cc60c17616" target="_top" xlink:title="Method to check if an output format has been given. If no output format has been given, it will use the inFile format. ">
<polygon fill="#ffffff" stroke="#000000" points="382.5,-212 382.5,-242 494.5,-242 494.5,-212 382.5,-212"/>
<text text-anchor="start" x="390.5" y="-230" font-family="Helvetica,sans-Serif" font-size="10.00" fill="#000000">trimAlManager::check</text>
<text text-anchor="middle" x="438.5" y="-219" font-family="Helvetica,sans-Serif" font-size="10.00" fill="#000000">_output_format</text>
</a>
</g>
</g>
<!-- Node4&#45;&gt;Node10 -->
<g id="edge7" class="edge">
<title>Node4&#45;&gt;Node10</title>
<path fill="none" stroke="#191970" d="M350.2199,-209.9459C361.144,-212.0562 372.0739,-214.1677 382.3362,-216.1502"/>
<polygon fill="#191970" stroke="#191970" points="350.6908,-206.4722 340.2085,-208.0119 349.3631,-213.3452 350.6908,-206.4722"/>
</g>
<!-- Node7 -->
<g id="node5" class="node">
<title>Node7</title>
<g id="a_node5"><a xlink:href="classtrim_al_manager.html#a12b7cef964ef258fe7621da44867c51f" target="_top" xlink:title="Method to check if multiple files comparison has been set correctly. It also perform some calculation...">
<polygon fill="#ffffff" stroke="#000000" points="533,-129.5 533,-148.5 705,-148.5 705,-129.5 533,-129.5"/>
<text text-anchor="middle" x="619" y="-136.5" font-family="Helvetica,sans-Serif" font-size="10.00" fill="#000000">trimAlManager::performCompareset</text>
</a>
</g>
</g>
<!-- Node6&#45;&gt;Node7 -->
<g id="edge4" class="edge">
<title>Node6&#45;&gt;Node7</title>
<path fill="none" stroke="#191970" d="M507.185,-139C515.575,-139 524.2291,-139 532.8336,-139"/>
<polygon fill="#191970" stroke="#191970" points="507.1032,-135.5001 497.1032,-139 507.1031,-142.5001 507.1032,-135.5001"/>
</g>
<!-- Node8 -->
<g id="node6" class="node">
<title>Node8</title>
<g id="a_node6"><a xlink:href="classtrim_al_manager.html#af140d97b6071a83930818030ac74b641" target="_top" xlink:title="Method to parse arguments into usable structure in trimal. ">
<polygon fill="#ffffff" stroke="#000000" points="746,-85.5 746,-104.5 903,-104.5 903,-85.5 746,-85.5"/>
<text text-anchor="middle" x="824.5" y="-92.5" font-family="Helvetica,sans-Serif" font-size="10.00" fill="#000000">trimAlManager::parseArguments</text>
</a>
</g>
</g>
<!-- Node7&#45;&gt;Node8 -->
<g id="edge5" class="edge">
<title>Node7&#45;&gt;Node8</title>
<path fill="none" stroke="#191970" d="M673.6067,-127.308C706.8493,-120.1904 748.7787,-111.2128 779.9966,-104.5287"/>
<polygon fill="#191970" stroke="#191970" points="672.636,-123.9365 663.5904,-129.4527 674.1016,-130.7813 672.636,-123.9365"/>
</g>
<!-- Node9 -->
<g id="node7" class="node">
<title>Node9</title>
<g id="a_node7"><a xlink:href="trim_al_main_8cpp.html#a0ddf1224851353fc92bfbff6f499fa97" target="_top" xlink:title="main">
<polygon fill="#ffffff" stroke="#000000" points="944,-104.5 944,-123.5 982,-123.5 982,-104.5 944,-104.5"/>
<text text-anchor="middle" x="963" y="-111.5" font-family="Helvetica,sans-Serif" font-size="10.00" fill="#000000">main</text>
</a>
</g>
</g>
<!-- Node8&#45;&gt;Node9 -->
<g id="edge6" class="edge">
<title>Node8&#45;&gt;Node9</title>
<path fill="none" stroke="#191970" d="M904.4243,-105.9643C919.1531,-107.9849 933.2219,-109.9149 943.8785,-111.3768"/>
<polygon fill="#191970" stroke="#191970" points="904.5387,-102.4473 894.1558,-104.5557 903.5873,-109.3824 904.5387,-102.4473"/>
</g>
<!-- Node11 -->
<g id="node9" class="node">
<title>Node11</title>
<g id="a_node9"><a xlink:href="classtrim_al_manager.html#a3f325b806727751394adb829d97b35f1" target="_top" xlink:title="Method that checks dependencies between arguments. Take in mind that dependencies may be between mult...">
<polygon fill="#ffffff" stroke="#000000" points="563,-190 563,-220 675,-220 675,-190 563,-190"/>
<text text-anchor="start" x="571" y="-208" font-family="Helvetica,sans-Serif" font-size="10.00" fill="#000000">trimAlManager::check</text>
<text text-anchor="middle" x="619" y="-197" font-family="Helvetica,sans-Serif" font-size="10.00" fill="#000000">_arguments_needs</text>
</a>
</g>
</g>
<!-- Node10&#45;&gt;Node11 -->
<g id="edge8" class="edge">
<title>Node10&#45;&gt;Node11</title>
<path fill="none" stroke="#191970" d="M504.7481,-218.9254C523.8477,-216.5975 544.4938,-214.0811 562.9128,-211.8361"/>
<polygon fill="#191970" stroke="#191970" points="504.125,-215.4754 494.6219,-220.1597 504.9719,-222.424 504.125,-215.4754"/>
</g>
<!-- Node12 -->
<g id="node10" class="node">
<title>Node12</title>
<g id="a_node10"><a xlink:href="classtrim_al_manager.html#a748b08a1ec5cd214de804ed0d4234a6e" target="_top" xlink:title="Method to process the information obtained by trimAlManager::parseArguments It checks for argument in...">
<polygon fill="#ffffff" stroke="#000000" points="741,-159.5 741,-178.5 908,-178.5 908,-159.5 741,-159.5"/>
<text text-anchor="middle" x="824.5" y="-166.5" font-family="Helvetica,sans-Serif" font-size="10.00" fill="#000000">trimAlManager::processArguments</text>
</a>
</g>
</g>
<!-- Node11&#45;&gt;Node12 -->
<g id="edge9" class="edge">
<title>Node11&#45;&gt;Node12</title>
<path fill="none" stroke="#191970" d="M685.0804,-193.4239C712.5665,-188.6088 744.082,-183.0878 770.188,-178.5145"/>
<polygon fill="#191970" stroke="#191970" points="684.3998,-189.9897 675.1538,-195.1628 685.6077,-196.8847 684.3998,-189.9897"/>
</g>
<!-- Node12&#45;&gt;Node9 -->
<g id="edge10" class="edge">
<title>Node12&#45;&gt;Node9</title>
<path fill="none" stroke="#191970" d="M858.0101,-155.6927C884.8152,-145.0481 921.462,-130.4952 943.6146,-121.6982"/>
<polygon fill="#191970" stroke="#191970" points="856.6271,-152.476 848.6249,-159.4197 859.2106,-158.9818 856.6271,-152.476"/>
</g>
<!-- Node13&#45;&gt;Node5 -->
<g id="edge12" class="edge">
<title>Node13&#45;&gt;Node5</title>
<path fill="none" stroke="#191970" d="M334.3295,-114.2994C337.6874,-116.0438 340.9321,-117.9399 344,-120 364.9763,-134.0859 359.1399,-149.7425 380,-164 391.8135,-172.0743 407.288,-176.9016 419.3541,-179.6688"/>
<polygon fill="#191970" stroke="#191970" points="335.7603,-111.1046 325.2204,-110.0274 332.7881,-117.4423 335.7603,-111.1046"/>
</g>
<!-- Node13&#45;&gt;Node6 -->
<g id="edge13" class="edge">
<title>Node13&#45;&gt;Node6</title>
<path fill="none" stroke="#191970" d="M332.718,-112.5545C348.3546,-116.4636 364.7728,-120.5682 379.885,-124.3462"/>
<polygon fill="#191970" stroke="#191970" points="333.1273,-109.0492 322.577,-110.0192 331.4295,-115.8402 333.1273,-109.0492"/>
</g>
<!-- Node14 -->
<g id="node12" class="node">
<title>Node14</title>
<g id="a_node12"><a xlink:href="classtrim_al_manager.html#a9580aa82de8aba6794647a36c0416a33" target="_top" xlink:title="Method to parse the input file argument. ">
<polygon fill="#ffffff" stroke="#000000" points="549.5,-.5 549.5,-19.5 688.5,-19.5 688.5,-.5 549.5,-.5"/>
<text text-anchor="middle" x="619" y="-7.5" font-family="Helvetica,sans-Serif" font-size="10.00" fill="#000000">trimAlManager::in_argument</text>
</a>
</g>
</g>
<!-- Node13&#45;&gt;Node14 -->
<g id="edge14" class="edge">
<title>Node13&#45;&gt;Node14</title>
<path fill="none" stroke="#191970" d="M289.6896,-74.0522C312.4592,-57.7849 346.5223,-36.316 380,-26 435.2412,-8.9777 500.9547,-5.7235 549.4823,-6.3045"/>
<polygon fill="#191970" stroke="#191970" points="287.5559,-71.2764 281.5407,-79.998 291.6819,-76.9311 287.5559,-71.2764"/>
</g>
<!-- Node15 -->
<g id="node13" class="node">
<title>Node15</title>
<g id="a_node13"><a xlink:href="classtrim_al_manager.html#a63dad1ad106b0fa09351cd5981b37aeb" target="_top" xlink:title="Method to parse the force select argument. ">
<polygon fill="#ffffff" stroke="#000000" points="565.5,-80 565.5,-110 672.5,-110 672.5,-80 565.5,-80"/>
<text text-anchor="start" x="573.5" y="-98" font-family="Helvetica,sans-Serif" font-size="10.00" fill="#000000">trimAlManager::force</text>
<text text-anchor="middle" x="619" y="-87" font-family="Helvetica,sans-Serif" font-size="10.00" fill="#000000">_select_argument</text>
</a>
</g>
</g>
<!-- Node13&#45;&gt;Node15 -->
<g id="edge16" class="edge">
<title>Node13&#45;&gt;Node15</title>
<path fill="none" stroke="#191970" d="M352.6499,-95C419.7102,-95 508.995,-95 565.2439,-95"/>
<polygon fill="#191970" stroke="#191970" points="352.5056,-91.5001 342.5056,-95 352.5055,-98.5001 352.5056,-91.5001"/>
</g>
<!-- Node16 -->
<g id="node14" class="node">
<title>Node16</title>
<g id="a_node14"><a xlink:href="classtrim_al_manager.html#ae49bc2cb7f90419296da65a23df39c8d" target="_top" xlink:title="Method to parse the backtranslation argument. ">
<polygon fill="#ffffff" stroke="#000000" points="385,-36 385,-66 492,-66 492,-36 385,-36"/>
<text text-anchor="start" x="393" y="-54" font-family="Helvetica,sans-Serif" font-size="10.00" fill="#000000">trimAlManager::back</text>
<text text-anchor="middle" x="438.5" y="-43" font-family="Helvetica,sans-Serif" font-size="10.00" fill="#000000">_trans_argument</text>
</a>
</g>
</g>
<!-- Node13&#45;&gt;Node16 -->
<g id="edge18" class="edge">
<title>Node13&#45;&gt;Node16</title>
<path fill="none" stroke="#191970" d="M332.682,-77.4545C350.0714,-73.1071 368.4298,-68.5176 384.8848,-64.4038"/>
<polygon fill="#191970" stroke="#191970" points="331.4295,-74.1598 322.577,-79.9808 333.1273,-80.9508 331.4295,-74.1598"/>
</g>
<!-- Node14&#45;&gt;Node8 -->
<g id="edge15" class="edge">
<title>Node14&#45;&gt;Node8</title>
<path fill="none" stroke="#191970" d="M662.9499,-22.4288C676.5749,-26.6461 691.541,-31.6549 705,-37 742.0786,-51.7253 783.6165,-73.0359 806.6535,-85.3066"/>
<polygon fill="#191970" stroke="#191970" points="663.8919,-19.0572 653.3065,-19.5044 661.8604,-25.7559 663.8919,-19.0572"/>
</g>
<!-- Node15&#45;&gt;Node8 -->
<g id="edge17" class="edge">
<title>Node15&#45;&gt;Node8</title>
<path fill="none" stroke="#191970" d="M682.928,-95C702.8769,-95 725.1147,-95 745.9457,-95"/>
<polygon fill="#191970" stroke="#191970" points="682.7243,-91.5001 672.7243,-95 682.7242,-98.5001 682.7243,-91.5001"/>
</g>
<!-- Node16&#45;&gt;Node8 -->
<g id="edge19" class="edge">
<title>Node16&#45;&gt;Node8</title>
<path fill="none" stroke="#191970" d="M502.2078,-53.1234C556.3568,-55.5056 636.0553,-60.3754 705,-70 732.1848,-73.795 762.4455,-80.1478 785.7138,-85.4996"/>
<polygon fill="#191970" stroke="#191970" points="502.2058,-49.6203 492.0664,-52.6932 501.909,-56.614 502.2058,-49.6203"/>
</g>
<!-- Node17&#45;&gt;Node5 -->
<g id="edge21" class="edge">
<title>Node17&#45;&gt;Node5</title>
<path fill="none" stroke="#191970" d="M340.1283,-161.2017C369.3564,-167.6784 400.1324,-174.4981 419.3161,-178.749"/>
<polygon fill="#191970" stroke="#191970" points="340.8148,-157.769 330.2944,-159.0226 339.3004,-164.6033 340.8148,-157.769"/>
</g>
</g>
</svg>
