<?xml version="1.0" encoding="UTF-8" standalone="no"?>
<!DOCTYPE svg PUBLIC "-//W3C//DTD SVG 1.1//EN"
 "http://www.w3.org/Graphics/SVG/1.1/DTD/svg11.dtd">
<!-- Generated by graphviz version 2.40.1 (20161225.0304)
 -->
<!-- Title: trimAlManager::max_identity_argument Pages: 1 -->
<svg width="270pt" height="78pt"
 viewBox="0.00 0.00 270.00 77.50" xmlns="http://www.w3.org/2000/svg" xmlns:xlink="http://www.w3.org/1999/xlink">
<g id="graph0" class="graph" transform="scale(1 1) rotate(0) translate(4 73.5)">
<title>trimAlManager::max_identity_argument</title>
<polygon fill="#ffffff" stroke="transparent" points="-4,4 -4,-73.5 266,-73.5 266,4 -4,4"/>
<!-- Node812 -->
<g id="node1" class="node">
<title>Node812</title>
<polygon fill="#bfbfbf" stroke="#000000" points="0,-22.5 0,-52.5 104,-52.5 104,-22.5 0,-22.5"/>
<text text-anchor="start" x="8" y="-40.5" font-family="Helvetica,sans-Serif" font-size="10.00" fill="#000000">trimAlManager::max</text>
<text text-anchor="middle" x="52" y="-29.5" font-family="Helvetica,sans-Serif" font-size="10.00" fill="#000000">_identity_argument</text>
</g>
<!-- Node813 -->
<g id="node2" class="node">
<title>Node813</title>
<g id="a_node2"><a xlink:href="namespaceutils.html#a32e6bab4fb43b096f983faedeefd0511" target="_top" xlink:title="String&#45;is&#45;number checking. ">
<polygon fill="#ffffff" stroke="#000000" points="159.5,-50 159.5,-69 242.5,-69 242.5,-50 159.5,-50"/>
<text text-anchor="middle" x="201" y="-57" font-family="Helvetica,sans-Serif" font-size="10.00" fill="#000000">utils::isNumber</text>
</a>
</g>
</g>
<!-- Node812&#45;&gt;Node813 -->
<g id="edge1" class="edge">
<title>Node812&#45;&gt;Node813</title>
<path fill="none" stroke="#191970" d="M104.113,-45.1945C118.841,-47.3691 134.8559,-49.7338 149.545,-51.9026"/>
<polygon fill="#191970" stroke="#191970" points="149.0664,-55.3698 159.4704,-53.3681 150.089,-48.4449 149.0664,-55.3698"/>
</g>
<!-- Node814 -->
<g id="node3" class="node">
<title>Node814</title>
<g id="a_node3"><a xlink:href="classreporting_1_1report_manager.html#a6d122e673144584e0869bd33b8a5c1c6" target="_top" xlink:title="Method to report an Error. &#160;It will be displayed if Level &#160;is equal or higher to VerboseLevel::ERROR...">
<polygon fill="#ffffff" stroke="#000000" points="140,-.5 140,-30.5 262,-30.5 262,-.5 140,-.5"/>
<text text-anchor="start" x="148" y="-18.5" font-family="Helvetica,sans-Serif" font-size="10.00" fill="#000000">reporting::reportManager</text>
<text text-anchor="middle" x="201" y="-7.5" font-family="Helvetica,sans-Serif" font-size="10.00" fill="#000000">::report</text>
</a>
</g>
</g>
<!-- Node812&#45;&gt;Node814 -->
<g id="edge2" class="edge">
<title>Node812&#45;&gt;Node814</title>
<path fill="none" stroke="#191970" d="M104.113,-29.8055C112.4368,-28.5764 121.1717,-27.2867 129.846,-26.006"/>
<polygon fill="#191970" stroke="#191970" points="130.5913,-29.4339 139.9728,-24.5107 129.5688,-22.509 130.5913,-29.4339"/>
</g>
</g>
</svg>
