<?xml version="1.0" encoding="UTF-8" standalone="no"?>
<!DOCTYPE svg PUBLIC "-//W3C//DTD SVG 1.1//EN"
 "http://www.w3.org/Graphics/SVG/1.1/DTD/svg11.dtd">
<!-- Generated by graphviz version 2.40.1 (20161225.0304)
 -->
<!-- Title: statistics::Similarity::Similarity Pages: 1 -->
<svg width="1556pt" height="458pt"
 viewBox="0.00 0.00 1556.00 457.50" xmlns="http://www.w3.org/2000/svg" xmlns:xlink="http://www.w3.org/1999/xlink">
<g id="graph0" class="graph" transform="scale(1 1) rotate(0) translate(4 453.5)">
<title>statistics::Similarity::Similarity</title>
<polygon fill="#ffffff" stroke="transparent" points="-4,4 -4,-453.5 1552,-453.5 1552,4 -4,4"/>
<!-- Node1 -->
<g id="node1" class="node">
<title>Node1</title>
<polygon fill="#bfbfbf" stroke="#000000" points="0,-158.5 0,-188.5 103,-188.5 103,-158.5 0,-158.5"/>
<text text-anchor="start" x="8" y="-176.5" font-family="Helvetica,sans-Serif" font-size="10.00" fill="#000000">statistics::Similarity</text>
<text text-anchor="middle" x="51.5" y="-165.5" font-family="Helvetica,sans-Serif" font-size="10.00" fill="#000000">::Similarity</text>
</g>
<!-- Node2 -->
<g id="node2" class="node">
<title>Node2</title>
<g id="a_node2"><a xlink:href="classstatistics_1_1_manager.html#aee28602da015edb0880d59ce4c0f855d" target="_top" xlink:title="statistics::Manager\l::Manager">
<polygon fill="#ffffff" stroke="#000000" points="139,-158.5 139,-188.5 239,-188.5 239,-158.5 139,-158.5"/>
<text text-anchor="start" x="147" y="-176.5" font-family="Helvetica,sans-Serif" font-size="10.00" fill="#000000">statistics::Manager</text>
<text text-anchor="middle" x="189" y="-165.5" font-family="Helvetica,sans-Serif" font-size="10.00" fill="#000000">::Manager</text>
</a>
</g>
</g>
<!-- Node1&#45;&gt;Node2 -->
<g id="edge1" class="edge">
<title>Node1&#45;&gt;Node2</title>
<path fill="none" stroke="#191970" d="M113.1288,-173.5C121.7669,-173.5 130.5566,-173.5 138.9445,-173.5"/>
<polygon fill="#191970" stroke="#191970" points="113.0912,-170.0001 103.0911,-173.5 113.0911,-177.0001 113.0912,-170.0001"/>
</g>
<!-- Node3 -->
<g id="node3" class="node">
<title>Node3</title>
<g id="a_node3"><a xlink:href="class_alignment.html#aeeee94970a445f32aa79646c249befef" target="_top" xlink:title="Copy Constructor. &#160;&#160;The copy constructor does not make a copy of all structures present on the origin...">
<polygon fill="#ffffff" stroke="#000000" points="275,-164 275,-183 385,-183 385,-164 275,-164"/>
<text text-anchor="middle" x="330" y="-171" font-family="Helvetica,sans-Serif" font-size="10.00" fill="#000000">Alignment::Alignment</text>
</a>
</g>
</g>
<!-- Node2&#45;&gt;Node3 -->
<g id="edge2" class="edge">
<title>Node2&#45;&gt;Node3</title>
<path fill="none" stroke="#191970" d="M249.2969,-173.5C257.7588,-173.5 266.421,-173.5 274.782,-173.5"/>
<polygon fill="#191970" stroke="#191970" points="249.1084,-170.0001 239.1083,-173.5 249.1083,-177.0001 249.1084,-170.0001"/>
</g>
<!-- Node4 -->
<g id="node4" class="node">
<title>Node4</title>
<g id="a_node4"><a xlink:href="class_cleaner.html#a0e1e26d09055de52208ac74adf93b760" target="_top" xlink:title="Method to clean an alignment. &#160;It removes sequences that fall behind a certain threshold. &#160;The function detects if it would clean too many sequences, and relaxes the threshold until we have enough sequences to achieve the given percentage desired to keep. &#160;To achieve this, the method starts in the middle of the sequence and, alternating sides, adds column one by one. ">
<polygon fill="#ffffff" stroke="#000000" points="423.5,-386.5 423.5,-416.5 555.5,-416.5 555.5,-386.5 423.5,-386.5"/>
<text text-anchor="start" x="431.5" y="-404.5" font-family="Helvetica,sans-Serif" font-size="10.00" fill="#000000">Cleaner::cleanByCutValue</text>
<text text-anchor="middle" x="489.5" y="-393.5" font-family="Helvetica,sans-Serif" font-size="10.00" fill="#000000">FallBehind</text>
</a>
</g>
</g>
<!-- Node3&#45;&gt;Node4 -->
<g id="edge3" class="edge">
<title>Node3&#45;&gt;Node4</title>
<path fill="none" stroke="#191970" d="M334.2697,-192.8941C343.6368,-231.2974 369.3911,-317.7694 421,-369.5 427.8602,-376.3764 436.478,-381.9512 445.2641,-386.4023"/>
<polygon fill="#191970" stroke="#191970" points="337.6438,-191.9511 331.9657,-183.0063 330.8265,-193.5397 337.6438,-191.9511"/>
</g>
<!-- Node13 -->
<g id="node13" class="node">
<title>Node13</title>
<g id="a_node13"><a xlink:href="class_cleaner.html#a13ae2074afb38708bc5cee9489d8ab6f" target="_top" xlink:title="Method to clean an alignment. &#160;It removes sequences that overpass or equals a certain threshold...">
<polygon fill="#ffffff" stroke="#000000" points="423.5,-218.5 423.5,-248.5 555.5,-248.5 555.5,-218.5 423.5,-218.5"/>
<text text-anchor="start" x="431.5" y="-236.5" font-family="Helvetica,sans-Serif" font-size="10.00" fill="#000000">Cleaner::cleanByCutValue</text>
<text text-anchor="middle" x="489.5" y="-225.5" font-family="Helvetica,sans-Serif" font-size="10.00" fill="#000000">Overpass</text>
</a>
</g>
</g>
<!-- Node3&#45;&gt;Node13 -->
<g id="edge13" class="edge">
<title>Node3&#45;&gt;Node13</title>
<path fill="none" stroke="#191970" d="M364.7061,-186.5556C389.6503,-195.939 423.3426,-208.6132 449.4316,-218.4272"/>
<polygon fill="#191970" stroke="#191970" points="365.8653,-183.2522 355.2732,-183.0072 363.4006,-189.804 365.8653,-183.2522"/>
</g>
<!-- Node19 -->
<g id="node19" class="node">
<title>Node19</title>
<g id="a_node19"><a xlink:href="class_cleaner.html#a5afcae6b995a229b59785e4690b25a0f" target="_top" xlink:title="Method to clean an alignment. &#160;It removes sequences that overpass or equals &#160;the gap threshold but &#160;f...">
<polygon fill="#ffffff" stroke="#000000" points="423.5,-329.5 423.5,-359.5 555.5,-359.5 555.5,-329.5 423.5,-329.5"/>
<text text-anchor="start" x="431.5" y="-347.5" font-family="Helvetica,sans-Serif" font-size="10.00" fill="#000000">Cleaner::cleanByCutValue</text>
<text text-anchor="middle" x="489.5" y="-336.5" font-family="Helvetica,sans-Serif" font-size="10.00" fill="#000000">OverpassOrEquals</text>
</a>
</g>
</g>
<!-- Node3&#45;&gt;Node19 -->
<g id="edge24" class="edge">
<title>Node3&#45;&gt;Node19</title>
<path fill="none" stroke="#191970" d="M339.4268,-191.9746C354.011,-219.1946 384.2342,-270.5162 421,-304.5 431.6186,-314.3152 445.0503,-322.8079 457.2011,-329.4119"/>
<polygon fill="#191970" stroke="#191970" points="342.5232,-190.3428 334.7782,-183.1133 336.3244,-193.5947 342.5232,-190.3428"/>
</g>
<!-- Node21 -->
<g id="node21" class="node">
<title>Node21</title>
<g id="a_node21"><a xlink:href="class_cleaner.html#abe5d03c820a6bee7935b719b9fc7be60" target="_top" xlink:title="Method to trim an alignment based on a minimum sequence overlap threshold. &#160;The method selects a comb...">
<polygon fill="#ffffff" stroke="#000000" points="424,-126 424,-145 555,-145 555,-126 424,-126"/>
<text text-anchor="middle" x="489.5" y="-133" font-family="Helvetica,sans-Serif" font-size="10.00" fill="#000000">Cleaner::cleanOverlapSeq</text>
</a>
</g>
</g>
<!-- Node3&#45;&gt;Node21 -->
<g id="edge27" class="edge">
<title>Node3&#45;&gt;Node21</title>
<path fill="none" stroke="#191970" d="M380.234,-161.532C402.5855,-156.2069 428.5383,-150.0238 449.5408,-145.0201"/>
<polygon fill="#191970" stroke="#191970" points="379.1651,-158.1886 370.2486,-163.911 380.7875,-164.998 379.1651,-158.1886"/>
</g>
<!-- Node23 -->
<g id="node23" class="node">
<title>Node23</title>
<g id="a_node23"><a xlink:href="class_cleaner.html#afcc9a3a0759ebdaaa6fa07c0d1702a99" target="_top" xlink:title="Method to clean an alignment. It carries out strict and strictplus. It removes sequences that overpas...">
<polygon fill="#ffffff" stroke="#000000" points="438,-164 438,-183 541,-183 541,-164 438,-164"/>
<text text-anchor="middle" x="489.5" y="-171" font-family="Helvetica,sans-Serif" font-size="10.00" fill="#000000">Cleaner::cleanStrict</text>
</a>
</g>
</g>
<!-- Node3&#45;&gt;Node23 -->
<g id="edge30" class="edge">
<title>Node3&#45;&gt;Node23</title>
<path fill="none" stroke="#191970" d="M395.4631,-173.5C409.554,-173.5 424.26,-173.5 437.7433,-173.5"/>
<polygon fill="#191970" stroke="#191970" points="395.3378,-170.0001 385.3377,-173.5 395.3377,-177.0001 395.3378,-170.0001"/>
</g>
<!-- Node25 -->
<g id="node25" class="node">
<title>Node25</title>
<g id="a_node25"><a xlink:href="class_cleaner.html#a4fd1d8eb883d1a7b271d6d4e1b1df71b" target="_top" xlink:title="Method to select the most representative sequence (the longest one) for each cluster from the input a...">
<polygon fill="#ffffff" stroke="#000000" points="432.5,-88 432.5,-107 546.5,-107 546.5,-88 432.5,-88"/>
<text text-anchor="middle" x="489.5" y="-95" font-family="Helvetica,sans-Serif" font-size="10.00" fill="#000000">Cleaner::getClustering</text>
</a>
</g>
</g>
<!-- Node3&#45;&gt;Node25 -->
<g id="edge33" class="edge">
<title>Node3&#45;&gt;Node25</title>
<path fill="none" stroke="#191970" d="M351.0734,-157.8272C368.9166,-145.1784 395.5781,-127.703 421,-116.5 429.3571,-112.8172 438.6064,-109.6759 447.5338,-107.0708"/>
<polygon fill="#191970" stroke="#191970" points="348.66,-155.2526 342.5996,-163.943 352.7567,-160.9287 348.66,-155.2526"/>
</g>
<!-- Node26 -->
<g id="node26" class="node">
<title>Node26</title>
<g id="a_node26"><a xlink:href="classstatistics_1_1_consistency.html#ae8679e43ec228926ac2844af133cc2d5" target="_top" xlink:title="Method to compare a set of MSA, all containing the same sequences and residues. The number of residue...">
<polygon fill="#ffffff" stroke="#000000" points="607,-.5 607,-30.5 724,-30.5 724,-.5 607,-.5"/>
<text text-anchor="start" x="615" y="-18.5" font-family="Helvetica,sans-Serif" font-size="10.00" fill="#000000">statistics::Consistency</text>
<text text-anchor="middle" x="665.5" y="-7.5" font-family="Helvetica,sans-Serif" font-size="10.00" fill="#000000">::perform</text>
</a>
</g>
</g>
<!-- Node3&#45;&gt;Node26 -->
<g id="edge35" class="edge">
<title>Node3&#45;&gt;Node26</title>
<path fill="none" stroke="#191970" d="M336.9743,-154.2745C348.99,-124.2279 376.6624,-66.856 421,-40.5 477.4845,-6.9234 554.4901,-4.6967 606.8869,-8.2527"/>
<polygon fill="#191970" stroke="#191970" points="333.5579,-153.4094 333.2539,-163.9999 340.0958,-155.9105 333.5579,-153.4094"/>
</g>
<!-- Node29 -->
<g id="node29" class="node">
<title>Node29</title>
<g id="a_node29"><a xlink:href="class_cleaner.html#ac8e92eb8ae8a5caf021801e56cdb9faf" target="_top" xlink:title="Method to remove columns, expressed as ranges. ">
<polygon fill="#ffffff" stroke="#000000" points="425.5,-276 425.5,-295 553.5,-295 553.5,-276 425.5,-276"/>
<text text-anchor="middle" x="489.5" y="-283" font-family="Helvetica,sans-Serif" font-size="10.00" fill="#000000">Cleaner::removeColumns</text>
</a>
</g>
</g>
<!-- Node3&#45;&gt;Node29 -->
<g id="edge39" class="edge">
<title>Node3&#45;&gt;Node29</title>
<path fill="none" stroke="#191970" d="M344.7336,-190.691C361.5774,-209.4622 390.7495,-239.3912 421,-258.5 432.3476,-265.6681 445.9102,-271.4983 457.9619,-275.8822"/>
<polygon fill="#191970" stroke="#191970" points="347.3382,-188.3528 338.1022,-183.1618 342.0852,-192.9795 347.3382,-188.3528"/>
</g>
<!-- Node30 -->
<g id="node30" class="node">
<title>Node30</title>
<g id="a_node30"><a xlink:href="class_cleaner.html#a932af26c56652410dc2a30c553376c0b" target="_top" xlink:title="Method to remove sequences, expressed as ranges. ">
<polygon fill="#ffffff" stroke="#000000" points="421,-50 421,-69 558,-69 558,-50 421,-50"/>
<text text-anchor="middle" x="489.5" y="-57" font-family="Helvetica,sans-Serif" font-size="10.00" fill="#000000">Cleaner::removeSequences</text>
</a>
</g>
</g>
<!-- Node3&#45;&gt;Node30 -->
<g id="edge41" class="edge">
<title>Node3&#45;&gt;Node30</title>
<path fill="none" stroke="#191970" d="M342.4517,-155.5206C358.2649,-134.0368 387.5507,-98.493 421,-78.5 427.4619,-74.6376 434.7336,-71.5371 442.0623,-69.0548"/>
<polygon fill="#191970" stroke="#191970" points="339.5113,-153.615 336.5266,-163.7808 345.1993,-157.6951 339.5113,-153.615"/>
</g>
<!-- Node5 -->
<g id="node5" class="node">
<title>Node5</title>
<g id="a_node5"><a xlink:href="class_cleaner.html#a385f785ecf54bd5e0b07e61325483973" target="_top" xlink:title="Method to trim an alignment based on consistency values obtained from a dataset of alignments...">
<polygon fill="#ffffff" stroke="#000000" points="598,-430 598,-449 733,-449 733,-430 598,-430"/>
<text text-anchor="middle" x="665.5" y="-437" font-family="Helvetica,sans-Serif" font-size="10.00" fill="#000000">Cleaner::cleanCompareFile</text>
</a>
</g>
</g>
<!-- Node4&#45;&gt;Node5 -->
<g id="edge4" class="edge">
<title>Node4&#45;&gt;Node5</title>
<path fill="none" stroke="#191970" d="M565.419,-417.8916C584.4885,-422.0089 604.3294,-426.2927 621.2679,-429.9499"/>
<polygon fill="#191970" stroke="#191970" points="566.0501,-414.4473 555.5366,-415.7579 564.5727,-421.2896 566.0501,-414.4473"/>
</g>
<!-- Node12 -->
<g id="node12" class="node">
<title>Node12</title>
<g id="a_node12"><a xlink:href="class_cleaner.html#a9cdbd6ebf78a284dd065b31319795b0c" target="_top" xlink:title="Method to trim an alignment based on the similarity distribution values. ">
<polygon fill="#ffffff" stroke="#000000" points="597,-392 597,-411 734,-411 734,-392 597,-392"/>
<text text-anchor="middle" x="665.5" y="-399" font-family="Helvetica,sans-Serif" font-size="10.00" fill="#000000">Cleaner::cleanConservation</text>
</a>
</g>
</g>
<!-- Node4&#45;&gt;Node12 -->
<g id="edge11" class="edge">
<title>Node4&#45;&gt;Node12</title>
<path fill="none" stroke="#191970" d="M565.748,-401.5C576.0537,-401.5 586.5784,-401.5 596.743,-401.5"/>
<polygon fill="#191970" stroke="#191970" points="565.5367,-398.0001 555.5366,-401.5 565.5366,-405.0001 565.5367,-398.0001"/>
</g>
<!-- Node6 -->
<g id="node6" class="node">
<title>Node6</title>
<g id="a_node6"><a xlink:href="classtrim_al_manager.html#aebfd21b0435302f0e4fc45a068d1b6ee" target="_top" xlink:title="Method to trim the alignment using non automatic methods: ">
<polygon fill="#ffffff" stroke="#000000" points="783.5,-329.5 783.5,-359.5 935.5,-359.5 935.5,-329.5 783.5,-329.5"/>
<text text-anchor="start" x="791.5" y="-347.5" font-family="Helvetica,sans-Serif" font-size="10.00" fill="#000000">trimAlManager::CleanResidues</text>
<text text-anchor="middle" x="859.5" y="-336.5" font-family="Helvetica,sans-Serif" font-size="10.00" fill="#000000">NonAuto</text>
</a>
</g>
</g>
<!-- Node5&#45;&gt;Node6 -->
<g id="edge5" class="edge">
<title>Node5&#45;&gt;Node6</title>
<path fill="none" stroke="#191970" d="M719.6619,-426.9413C725.5994,-425.0254 731.4853,-422.8806 737,-420.5 775.3738,-403.935 815.812,-376.6401 839.2911,-359.6638"/>
<polygon fill="#191970" stroke="#191970" points="718.242,-423.7136 709.6773,-429.9504 720.2619,-430.4159 718.242,-423.7136"/>
</g>
<!-- Node7 -->
<g id="node7" class="node">
<title>Node7</title>
<g id="a_node7"><a xlink:href="classtrim_al_manager.html#adc529dd893ed4e9df6f3ddbd58776068" target="_top" xlink:title="Core Method of the program. This is where almost all cleaning methods are called from. ">
<polygon fill="#ffffff" stroke="#000000" points="1006,-156.5 1006,-186.5 1115,-186.5 1115,-156.5 1006,-156.5"/>
<text text-anchor="start" x="1014" y="-174.5" font-family="Helvetica,sans-Serif" font-size="10.00" fill="#000000">trimAlManager::clean</text>
<text text-anchor="middle" x="1060.5" y="-163.5" font-family="Helvetica,sans-Serif" font-size="10.00" fill="#000000">_alignment</text>
</a>
</g>
</g>
<!-- Node6&#45;&gt;Node7 -->
<g id="edge6" class="edge">
<title>Node6&#45;&gt;Node7</title>
<path fill="none" stroke="#191970" d="M884.695,-322.8147C926.0232,-287.2437 1007.1864,-217.3869 1042.9115,-186.6384"/>
<polygon fill="#191970" stroke="#191970" points="882.2819,-320.2738 876.9858,-329.45 886.8483,-325.5793 882.2819,-320.2738"/>
</g>
<!-- Node8 -->
<g id="node8" class="node">
<title>Node8</title>
<g id="a_node8"><a xlink:href="classtrim_al_manager.html#a7c641a1feff33d401b4ea5c82e989289" target="_top" xlink:title="trimAlManager::innerPerform">
<polygon fill="#ffffff" stroke="#000000" points="1176.5,-162 1176.5,-181 1317.5,-181 1317.5,-162 1176.5,-162"/>
<text text-anchor="middle" x="1247" y="-169" font-family="Helvetica,sans-Serif" font-size="10.00" fill="#000000">trimAlManager::innerPerform</text>
</a>
</g>
</g>
<!-- Node7&#45;&gt;Node8 -->
<g id="edge7" class="edge">
<title>Node7&#45;&gt;Node8</title>
<path fill="none" stroke="#191970" d="M1125.2727,-171.5C1141.763,-171.5 1159.5676,-171.5 1176.3355,-171.5"/>
<polygon fill="#191970" stroke="#191970" points="1125.196,-168.0001 1115.196,-171.5 1125.196,-175.0001 1125.196,-168.0001"/>
</g>
<!-- Node11 -->
<g id="node11" class="node">
<title>Node11</title>
<g id="a_node11"><a xlink:href="classtrim_al_manager.html#ac5795f93b3a2b51bf5d8dddd63b89f73" target="_top" xlink:title="trimAlManager::perform_VCF">
<polygon fill="#ffffff" stroke="#000000" points="1175,-124 1175,-143 1319,-143 1319,-124 1175,-124"/>
<text text-anchor="middle" x="1247" y="-131" font-family="Helvetica,sans-Serif" font-size="10.00" fill="#000000">trimAlManager::perform_VCF</text>
</a>
</g>
</g>
<!-- Node7&#45;&gt;Node11 -->
<g id="edge10" class="edge">
<title>Node7&#45;&gt;Node11</title>
<path fill="none" stroke="#191970" d="M1125.2059,-158.316C1149.8797,-153.2886 1177.5042,-147.66 1200.1991,-143.0358"/>
<polygon fill="#191970" stroke="#191970" points="1124.2959,-154.9294 1115.196,-160.3555 1125.6935,-161.7885 1124.2959,-154.9294"/>
</g>
<!-- Node9 -->
<g id="node9" class="node">
<title>Node9</title>
<g id="a_node9"><a xlink:href="classtrim_al_manager.html#abe8d2841455c644dc9c7d1294b82b00f" target="_top" xlink:title="Method to perform the analysis if all checks have passed. ">
<polygon fill="#ffffff" stroke="#000000" points="1355,-138 1355,-157 1474,-157 1474,-138 1355,-138"/>
<text text-anchor="middle" x="1414.5" y="-145" font-family="Helvetica,sans-Serif" font-size="10.00" fill="#000000">trimAlManager::perform</text>
</a>
</g>
</g>
<!-- Node8&#45;&gt;Node9 -->
<g id="edge8" class="edge">
<title>Node8&#45;&gt;Node9</title>
<path fill="none" stroke="#191970" d="M1323.6469,-160.5178C1334.1108,-159.0185 1344.7236,-157.4978 1354.8257,-156.0504"/>
<polygon fill="#191970" stroke="#191970" points="1323.0842,-157.0626 1313.6817,-161.9456 1324.0771,-163.9918 1323.0842,-157.0626"/>
</g>
<!-- Node10 -->
<g id="node10" class="node">
<title>Node10</title>
<g id="a_node10"><a xlink:href="trim_al_main_8cpp.html#a0ddf1224851353fc92bfbff6f499fa97" target="_top" xlink:title="main">
<polygon fill="#ffffff" stroke="#000000" points="1510,-100 1510,-119 1548,-119 1548,-100 1510,-100"/>
<text text-anchor="middle" x="1529" y="-107" font-family="Helvetica,sans-Serif" font-size="10.00" fill="#000000">main</text>
</a>
</g>
</g>
<!-- Node9&#45;&gt;Node10 -->
<g id="edge9" class="edge">
<title>Node9&#45;&gt;Node10</title>
<path fill="none" stroke="#191970" d="M1453.046,-134.7074C1472.1493,-128.3675 1494.374,-120.9916 1509.8272,-115.863"/>
<polygon fill="#191970" stroke="#191970" points="1451.7817,-131.4392 1443.3932,-137.911 1453.9866,-138.0829 1451.7817,-131.4392"/>
</g>
<!-- Node12&#45;&gt;Node6 -->
<g id="edge12" class="edge">
<title>Node12&#45;&gt;Node6</title>
<path fill="none" stroke="#191970" d="M712.5038,-389.3041C720.6862,-387.097 729.1025,-384.7732 737,-382.5 762.036,-375.2937 789.7751,-366.737 812.5169,-359.5696"/>
<polygon fill="#191970" stroke="#191970" points="711.4468,-385.9637 702.6897,-391.9271 713.2544,-392.7263 711.4468,-385.9637"/>
</g>
<!-- Node14 -->
<g id="node14" class="node">
<title>Node14</title>
<g id="a_node14"><a xlink:href="class_cleaner.html#aa57106470d2104a925b9396b8a9f33b3" target="_top" xlink:title="Method that carries the gappyout approach. This methods calculates the slope in gaps distribution on ...">
<polygon fill="#ffffff" stroke="#000000" points="605.5,-240 605.5,-259 725.5,-259 725.5,-240 605.5,-240"/>
<text text-anchor="middle" x="665.5" y="-247" font-family="Helvetica,sans-Serif" font-size="10.00" fill="#000000">Cleaner::clean2ndSlope</text>
</a>
</g>
</g>
<!-- Node13&#45;&gt;Node14 -->
<g id="edge14" class="edge">
<title>Node13&#45;&gt;Node14</title>
<path fill="none" stroke="#191970" d="M565.6359,-240.4214C578.9642,-241.6331 592.6622,-242.8784 605.4768,-244.0433"/>
<polygon fill="#191970" stroke="#191970" points="565.8125,-236.9232 555.5366,-239.5033 565.1787,-243.8944 565.8125,-236.9232"/>
</g>
<!-- Node16 -->
<g id="node16" class="node">
<title>Node16</title>
<g id="a_node16"><a xlink:href="class_cleaner.html#af7c9e1a177424168fa4214aca9ebd8e2" target="_top" xlink:title="Method to trim an alignment based on the gap distribution values. Column blocks that don&#39;t have a min...">
<polygon fill="#ffffff" stroke="#000000" points="614,-278 614,-297 717,-297 717,-278 614,-278"/>
<text text-anchor="middle" x="665.5" y="-285" font-family="Helvetica,sans-Serif" font-size="10.00" fill="#000000">Cleaner::cleanGaps</text>
</a>
</g>
</g>
<!-- Node13&#45;&gt;Node16 -->
<g id="edge17" class="edge">
<title>Node13&#45;&gt;Node16</title>
<path fill="none" stroke="#191970" d="M541.8074,-251.743C558.4232,-257.3431 576.9189,-263.3756 594,-268.5 604.9491,-271.7847 616.9269,-275.082 627.8949,-277.986"/>
<polygon fill="#191970" stroke="#191970" points="542.8607,-248.4044 532.2663,-248.5058 540.6115,-255.0333 542.8607,-248.4044"/>
</g>
<!-- Node17 -->
<g id="node17" class="node">
<title>Node17</title>
<g id="a_node17"><a xlink:href="class_cleaner.html#a3af7bde2142886d6d723c95694b7b9ba" target="_top" xlink:title="Method to remove columns composed only by gaps This method is specially useful when we remove missali...">
<polygon fill="#ffffff" stroke="#000000" points="602,-202 602,-221 729,-221 729,-202 602,-202"/>
<text text-anchor="middle" x="665.5" y="-209" font-family="Helvetica,sans-Serif" font-size="10.00" fill="#000000">Cleaner::cleanNoAllGaps</text>
</a>
</g>
</g>
<!-- Node13&#45;&gt;Node17 -->
<g id="edge20" class="edge">
<title>Node13&#45;&gt;Node17</title>
<path fill="none" stroke="#191970" d="M565.5706,-223.9912C577.6253,-222.4843 589.9842,-220.9395 601.7199,-219.4725"/>
<polygon fill="#191970" stroke="#191970" points="565.0253,-220.532 555.5366,-225.2454 565.8936,-227.478 565.0253,-220.532"/>
</g>
<!-- Node15 -->
<g id="node15" class="node">
<title>Node15</title>
<g id="a_node15"><a xlink:href="classtrim_al_manager.html#a69082911b30a1bd12395bb235bc18a34" target="_top" xlink:title="Method to trim the alignment using automatic or semi&#45;automatic methods: ">
<polygon fill="#ffffff" stroke="#000000" points="773,-202 773,-221 946,-221 946,-202 773,-202"/>
<text text-anchor="middle" x="859.5" y="-209" font-family="Helvetica,sans-Serif" font-size="10.00" fill="#000000">trimAlManager::CleanResiduesAuto</text>
</a>
</g>
</g>
<!-- Node14&#45;&gt;Node15 -->
<g id="edge15" class="edge">
<title>Node14&#45;&gt;Node15</title>
<path fill="none" stroke="#191970" d="M724.4052,-237.9619C752.0751,-232.542 784.6619,-226.159 810.8976,-221.0201"/>
<polygon fill="#191970" stroke="#191970" points="723.5951,-234.554 714.4544,-239.911 724.9407,-241.4234 723.5951,-234.554"/>
</g>
<!-- Node15&#45;&gt;Node7 -->
<g id="edge16" class="edge">
<title>Node15&#45;&gt;Node7</title>
<path fill="none" stroke="#191970" d="M917.3887,-199.9799C945.2446,-194.4364 978.4607,-187.8262 1005.8771,-182.3702"/>
<polygon fill="#191970" stroke="#191970" points="916.5137,-196.5853 907.3891,-201.9698 917.88,-203.4507 916.5137,-196.5853"/>
</g>
<!-- Node16&#45;&gt;Node6 -->
<g id="edge19" class="edge">
<title>Node16&#45;&gt;Node6</title>
<path fill="none" stroke="#191970" d="M707.5833,-299.8647C737.153,-308.5527 776.877,-320.2242 808.2879,-329.4532"/>
<polygon fill="#191970" stroke="#191970" points="708.5524,-296.5015 697.9712,-297.0405 706.579,-303.2176 708.5524,-296.5015"/>
</g>
<!-- Node16&#45;&gt;Node15 -->
<g id="edge18" class="edge">
<title>Node16&#45;&gt;Node15</title>
<path fill="none" stroke="#191970" d="M716.456,-275.1401C723.4192,-273.1087 730.4282,-270.8812 737,-268.5 775.3738,-254.5959 818.1751,-233.2601 841.6576,-221.0184"/>
<polygon fill="#191970" stroke="#191970" points="715.0292,-271.9049 706.343,-277.9712 716.9163,-278.6457 715.0292,-271.9049"/>
</g>
<!-- Node17&#45;&gt;Node15 -->
<g id="edge21" class="edge">
<title>Node17&#45;&gt;Node15</title>
<path fill="none" stroke="#191970" d="M739.0483,-211.5C750.1171,-211.5 761.6193,-211.5 772.9301,-211.5"/>
<polygon fill="#191970" stroke="#191970" points="739.0229,-208.0001 729.0229,-211.5 739.0228,-215.0001 739.0229,-208.0001"/>
</g>
<!-- Node18 -->
<g id="node18" class="node">
<title>Node18</title>
<g id="a_node18"><a xlink:href="classtrim_al_manager.html#a10536f715945a1a45f1df33f7cedc81e" target="_top" xlink:title="Method to trim or reduce the number of sequences in an alignment. It performs one or none of the foll...">
<polygon fill="#ffffff" stroke="#000000" points="779.5,-126 779.5,-145 939.5,-145 939.5,-126 779.5,-126"/>
<text text-anchor="middle" x="859.5" y="-133" font-family="Helvetica,sans-Serif" font-size="10.00" fill="#000000">trimAlManager::CleanSequences</text>
</a>
</g>
</g>
<!-- Node17&#45;&gt;Node18 -->
<g id="edge22" class="edge">
<title>Node17&#45;&gt;Node18</title>
<path fill="none" stroke="#191970" d="M716.456,-199.1401C723.4192,-197.1087 730.4282,-194.8812 737,-192.5 775.3738,-178.5959 818.1751,-157.2601 841.6576,-145.0184"/>
<polygon fill="#191970" stroke="#191970" points="715.0292,-195.9049 706.343,-201.9712 716.9163,-202.6457 715.0292,-195.9049"/>
</g>
<!-- Node18&#45;&gt;Node7 -->
<g id="edge23" class="edge">
<title>Node18&#45;&gt;Node7</title>
<path fill="none" stroke="#191970" d="M922.5756,-146.7971C949.2477,-151.5742 980.0225,-157.0861 1005.7258,-161.6897"/>
<polygon fill="#191970" stroke="#191970" points="923.0337,-143.3236 912.5733,-145.0057 921.7996,-150.2139 923.0337,-143.3236"/>
</g>
<!-- Node20 -->
<g id="node20" class="node">
<title>Node20</title>
<g id="a_node20"><a xlink:href="class_cleaner.html#a4718e31c0183b5a98751d77479faacf0" target="_top" xlink:title="Method to trim an alignment based on the similarity and gaps distribution values. ...">
<polygon fill="#ffffff" stroke="#000000" points="625.5,-354 625.5,-373 705.5,-373 705.5,-354 625.5,-354"/>
<text text-anchor="middle" x="665.5" y="-361" font-family="Helvetica,sans-Serif" font-size="10.00" fill="#000000">Cleaner::clean</text>
</a>
</g>
</g>
<!-- Node19&#45;&gt;Node20 -->
<g id="edge25" class="edge">
<title>Node19&#45;&gt;Node20</title>
<path fill="none" stroke="#191970" d="M565.566,-352.7117C586.1831,-354.9374 607.6907,-357.2592 625.4485,-359.1763"/>
<polygon fill="#191970" stroke="#191970" points="565.8546,-349.2226 555.5366,-351.629 565.1032,-356.1821 565.8546,-349.2226"/>
</g>
<!-- Node20&#45;&gt;Node6 -->
<g id="edge26" class="edge">
<title>Node20&#45;&gt;Node6</title>
<path fill="none" stroke="#191970" d="M715.7838,-358.5753C736.3575,-356.5603 760.6146,-354.1846 783.2829,-351.9646"/>
<polygon fill="#191970" stroke="#191970" points="715.3081,-355.105 705.6969,-359.5632 715.9905,-362.0717 715.3081,-355.105"/>
</g>
<!-- Node22 -->
<g id="node22" class="node">
<title>Node22</title>
<g id="a_node22"><a xlink:href="class_cleaner.html#a5ceceb5b637a6d4e6a13c3b5d8d76c1d" target="_top" xlink:title="Method to remove sequences missaligned with the rest of sequences in the alignment. &#160;For each residue in the sequence, it tests it&#39;s similarity. If the similarity of that residue is higher than overlapColumn value, it counts as a hit for the sequence. After calculating the number of hits for the sequence, it removes the sequence if it has a proportion hits/residues lower tan minimumOverlap. ">
<polygon fill="#ffffff" stroke="#000000" points="598,-126 598,-145 733,-145 733,-126 598,-126"/>
<text text-anchor="middle" x="665.5" y="-133" font-family="Helvetica,sans-Serif" font-size="10.00" fill="#000000">Cleaner::cleanSpuriousSeq</text>
</a>
</g>
</g>
<!-- Node21&#45;&gt;Node22 -->
<g id="edge28" class="edge">
<title>Node21&#45;&gt;Node22</title>
<path fill="none" stroke="#191970" d="M565.3108,-135.5C576.1307,-135.5 587.2012,-135.5 597.851,-135.5"/>
<polygon fill="#191970" stroke="#191970" points="565.0359,-132.0001 555.0359,-135.5 565.0359,-139.0001 565.0359,-132.0001"/>
</g>
<!-- Node22&#45;&gt;Node18 -->
<g id="edge29" class="edge">
<title>Node22&#45;&gt;Node18</title>
<path fill="none" stroke="#191970" d="M743.4023,-135.5C755.2873,-135.5 767.5704,-135.5 779.4996,-135.5"/>
<polygon fill="#191970" stroke="#191970" points="743.0795,-132.0001 733.0794,-135.5 743.0794,-139.0001 743.0795,-132.0001"/>
</g>
<!-- Node24 -->
<g id="node24" class="node">
<title>Node24</title>
<g id="a_node24"><a xlink:href="class_cleaner.html#a6727a235afa29f08a50716f28fa5c8fc" target="_top" xlink:title="Method to clean an alignment. It carries out strict and strictplus. The method: ">
<polygon fill="#ffffff" stroke="#000000" points="594,-164 594,-183 737,-183 737,-164 594,-164"/>
<text text-anchor="middle" x="665.5" y="-171" font-family="Helvetica,sans-Serif" font-size="10.00" fill="#000000">Cleaner::cleanCombMethods</text>
</a>
</g>
</g>
<!-- Node23&#45;&gt;Node24 -->
<g id="edge31" class="edge">
<title>Node23&#45;&gt;Node24</title>
<path fill="none" stroke="#191970" d="M551.5909,-173.5C565.2427,-173.5 579.8079,-173.5 593.803,-173.5"/>
<polygon fill="#191970" stroke="#191970" points="551.3539,-170.0001 541.3539,-173.5 551.3538,-177.0001 551.3539,-170.0001"/>
</g>
<!-- Node24&#45;&gt;Node15 -->
<g id="edge32" class="edge">
<title>Node24&#45;&gt;Node15</title>
<path fill="none" stroke="#191970" d="M724.4052,-185.0381C752.0751,-190.458 784.6619,-196.841 810.8976,-201.9799"/>
<polygon fill="#191970" stroke="#191970" points="724.9407,-181.5766 714.4544,-183.089 723.5951,-188.446 724.9407,-181.5766"/>
</g>
<!-- Node25&#45;&gt;Node18 -->
<g id="edge34" class="edge">
<title>Node25&#45;&gt;Node18</title>
<path fill="none" stroke="#191970" d="M556.6504,-101.2479C606.5104,-104.3723 676.1238,-109.453 737,-116.5 759.0203,-119.0491 783.1514,-122.6226 804.1303,-125.9837"/>
<polygon fill="#191970" stroke="#191970" points="556.8324,-97.7525 546.6358,-100.63 556.4013,-104.7393 556.8324,-97.7525"/>
</g>
<!-- Node27 -->
<g id="node27" class="node">
<title>Node27</title>
<g id="a_node27"><a xlink:href="classtrim_al_manager.html#a12b7cef964ef258fe7621da44867c51f" target="_top" xlink:title="Method to check if multiple files comparison has been set correctly. It also perform some calculation...">
<polygon fill="#ffffff" stroke="#000000" points="773.5,-53 773.5,-72 945.5,-72 945.5,-53 773.5,-53"/>
<text text-anchor="middle" x="859.5" y="-60" font-family="Helvetica,sans-Serif" font-size="10.00" fill="#000000">trimAlManager::performCompareset</text>
</a>
</g>
</g>
<!-- Node26&#45;&gt;Node27 -->
<g id="edge36" class="edge">
<title>Node26&#45;&gt;Node27</title>
<path fill="none" stroke="#191970" d="M734.2311,-32.1513C762.9783,-39.1159 795.3551,-46.9597 819.9909,-52.9282"/>
<polygon fill="#191970" stroke="#191970" points="734.7758,-28.6821 724.2329,-29.7291 733.1276,-35.4853 734.7758,-28.6821"/>
</g>
<!-- Node28 -->
<g id="node28" class="node">
<title>Node28</title>
<g id="a_node28"><a xlink:href="classtrim_al_manager.html#af140d97b6071a83930818030ac74b641" target="_top" xlink:title="Method to parse arguments into usable structure in trimal. ">
<polygon fill="#ffffff" stroke="#000000" points="982,-72 982,-91 1139,-91 1139,-72 982,-72"/>
<text text-anchor="middle" x="1060.5" y="-79" font-family="Helvetica,sans-Serif" font-size="10.00" fill="#000000">trimAlManager::parseArguments</text>
</a>
</g>
</g>
<!-- Node27&#45;&gt;Node28 -->
<g id="edge37" class="edge">
<title>Node27&#45;&gt;Node28</title>
<path fill="none" stroke="#191970" d="M955.8268,-71.6055C964.5542,-72.4305 973.3236,-73.2594 981.8711,-74.0674"/>
<polygon fill="#191970" stroke="#191970" points="955.9018,-68.0971 945.6168,-70.6404 955.243,-75.066 955.9018,-68.0971"/>
</g>
<!-- Node28&#45;&gt;Node10 -->
<g id="edge38" class="edge">
<title>Node28&#45;&gt;Node10</title>
<path fill="none" stroke="#191970" d="M1149.2004,-86.8012C1262.1852,-93.5538 1449.9961,-104.7783 1509.9729,-108.3628"/>
<polygon fill="#191970" stroke="#191970" points="1149.3715,-83.3053 1139.1805,-86.2024 1148.9538,-90.2928 1149.3715,-83.3053"/>
</g>
<!-- Node29&#45;&gt;Node6 -->
<g id="edge40" class="edge">
<title>Node29&#45;&gt;Node6</title>
<path fill="none" stroke="#191970" d="M544.3885,-297.1325C560.3531,-300.3524 577.8427,-303.7225 594,-306.5 657.5582,-317.4258 730.0557,-327.652 783.2166,-334.7377"/>
<polygon fill="#191970" stroke="#191970" points="544.6444,-293.6128 534.147,-295.0459 543.2469,-300.4719 544.6444,-293.6128"/>
</g>
<!-- Node30&#45;&gt;Node18 -->
<g id="edge42" class="edge">
<title>Node30&#45;&gt;Node18</title>
<path fill="none" stroke="#191970" d="M568.3754,-70.2195C617.2122,-77.4359 681.0639,-87.9192 737,-100.5 768.9374,-107.6832 804.8902,-118.2588 829.5411,-125.9035"/>
<polygon fill="#191970" stroke="#191970" points="568.5916,-66.714 558.1903,-68.7296 567.5783,-73.6402 568.5916,-66.714"/>
</g>
</g>
</svg>
