<?xml version="1.0" encoding="UTF-8" standalone="no"?>
<!DOCTYPE svg PUBLIC "-//W3C//DTD SVG 1.1//EN"
 "http://www.w3.org/Graphics/SVG/1.1/DTD/svg11.dtd">
<!-- Generated by graphviz version 2.40.1 (20161225.0304)
 -->
<!-- Title: FormatHandling::FormatManager::getFileFormatName Pages: 1 -->
<svg width="718pt" height="127pt"
 viewBox="0.00 0.00 718.00 127.00" xmlns="http://www.w3.org/2000/svg" xmlns:xlink="http://www.w3.org/1999/xlink">
<g id="graph0" class="graph" transform="scale(1 1) rotate(0) translate(4 123)">
<title>FormatHandling::FormatManager::getFileFormatName</title>
<polygon fill="#ffffff" stroke="transparent" points="-4,4 -4,-123 714,-123 714,4 -4,4"/>
<!-- Node12 -->
<g id="node1" class="node">
<title>Node12</title>
<polygon fill="#bfbfbf" stroke="#000000" points="0,-44.5 0,-74.5 160,-74.5 160,-44.5 0,-44.5"/>
<text text-anchor="start" x="8" y="-62.5" font-family="Helvetica,sans-Serif" font-size="10.00" fill="#000000">FormatHandling::FormatManager</text>
<text text-anchor="middle" x="80" y="-51.5" font-family="Helvetica,sans-Serif" font-size="10.00" fill="#000000">::getFileFormatName</text>
</g>
<!-- Node13 -->
<g id="node2" class="node">
<title>Node13</title>
<g id="a_node2"><a xlink:href="class_format_handling_1_1_format_manager.html#a850c827a60ae4ee1e5bb34b7485f0412" target="_top" xlink:title="FormatHandling::FormatManager\l::getFormatFromFile">
<polygon fill="#ffffff" stroke="#000000" points="196,-44.5 196,-74.5 356,-74.5 356,-44.5 196,-44.5"/>
<text text-anchor="start" x="204" y="-62.5" font-family="Helvetica,sans-Serif" font-size="10.00" fill="#000000">FormatHandling::FormatManager</text>
<text text-anchor="middle" x="276" y="-51.5" font-family="Helvetica,sans-Serif" font-size="10.00" fill="#000000">::getFormatFromFile</text>
</a>
</g>
</g>
<!-- Node12&#45;&gt;Node13 -->
<g id="edge1" class="edge">
<title>Node12&#45;&gt;Node13</title>
<path fill="none" stroke="#191970" d="M160.0034,-59.5C168.5245,-59.5 177.2335,-59.5 185.8608,-59.5"/>
<polygon fill="#191970" stroke="#191970" points="185.9348,-63.0001 195.9347,-59.5 185.9347,-56.0001 185.9348,-63.0001"/>
</g>
<!-- Node14 -->
<g id="node3" class="node">
<title>Node14</title>
<g id="a_node3"><a xlink:href="class_format_handling_1_1_format_manager.html#a0b032188aa2d883026e547ea665c9b45" target="_top" xlink:title="FormatHandling::FormatManager\l::getNonEmptyFile">
<polygon fill="#ffffff" stroke="#000000" points="392,-88.5 392,-118.5 552,-118.5 552,-88.5 392,-88.5"/>
<text text-anchor="start" x="400" y="-106.5" font-family="Helvetica,sans-Serif" font-size="10.00" fill="#000000">FormatHandling::FormatManager</text>
<text text-anchor="middle" x="472" y="-95.5" font-family="Helvetica,sans-Serif" font-size="10.00" fill="#000000">::getNonEmptyFile</text>
</a>
</g>
</g>
<!-- Node13&#45;&gt;Node14 -->
<g id="edge2" class="edge">
<title>Node13&#45;&gt;Node14</title>
<path fill="none" stroke="#191970" d="M342.9039,-74.5192C359.6833,-78.286 377.8194,-82.3574 395.0452,-86.2244"/>
<polygon fill="#191970" stroke="#191970" points="394.5413,-89.6983 405.0651,-88.4738 396.0746,-82.8683 394.5413,-89.6983"/>
</g>
<!-- Node15 -->
<g id="node4" class="node">
<title>Node15</title>
<g id="a_node4"><a xlink:href="classreporting_1_1report_manager.html#ab093ae2e909308ebb4118d6f6a03f5fd" target="_top" xlink:title="Method to report an Error. It will be displayed if Level &#160;is equal or higher to VerboseLevel::ERROR. ">
<polygon fill="#ffffff" stroke="#000000" points="588,-66.5 588,-96.5 710,-96.5 710,-66.5 588,-66.5"/>
<text text-anchor="start" x="596" y="-84.5" font-family="Helvetica,sans-Serif" font-size="10.00" fill="#000000">reporting::reportManager</text>
<text text-anchor="middle" x="649" y="-73.5" font-family="Helvetica,sans-Serif" font-size="10.00" fill="#000000">::report</text>
</a>
</g>
</g>
<!-- Node13&#45;&gt;Node15 -->
<g id="edge5" class="edge">
<title>Node13&#45;&gt;Node15</title>
<path fill="none" stroke="#191970" d="M356.0179,-64.2196C421.8178,-68.1005 514.2121,-73.55 577.5511,-77.2859"/>
<polygon fill="#191970" stroke="#191970" points="577.6608,-80.7983 587.8496,-77.8933 578.073,-73.8105 577.6608,-80.7983"/>
</g>
<!-- Node16 -->
<g id="node5" class="node">
<title>Node16</title>
<g id="a_node5"><a xlink:href="class_format_handling_1_1_base_format_handler.html#a6186050eb30aec3f4fa7e1c834f2add1" target="_top" xlink:title="Function to check if a file is in the implemented format. ">
<polygon fill="#ffffff" stroke="#000000" points="399.5,-.5 399.5,-30.5 544.5,-30.5 544.5,-.5 399.5,-.5"/>
<text text-anchor="start" x="407.5" y="-18.5" font-family="Helvetica,sans-Serif" font-size="10.00" fill="#000000">FormatHandling::BaseFormat</text>
<text text-anchor="middle" x="472" y="-7.5" font-family="Helvetica,sans-Serif" font-size="10.00" fill="#000000">Handler::CheckAlignment</text>
</a>
</g>
</g>
<!-- Node13&#45;&gt;Node16 -->
<g id="edge4" class="edge">
<title>Node13&#45;&gt;Node16</title>
<path fill="none" stroke="#191970" d="M342.9039,-44.4808C359.6833,-40.714 377.8194,-36.6426 395.0452,-32.7756"/>
<polygon fill="#191970" stroke="#191970" points="396.0746,-36.1317 405.0651,-30.5262 394.5413,-29.3017 396.0746,-36.1317"/>
</g>
<!-- Node14&#45;&gt;Node15 -->
<g id="edge3" class="edge">
<title>Node14&#45;&gt;Node15</title>
<path fill="none" stroke="#191970" d="M552.2139,-93.5299C560.7327,-92.4711 569.3547,-91.3994 577.7606,-90.3546"/>
<polygon fill="#191970" stroke="#191970" points="578.3934,-93.803 587.8853,-89.0962 577.5299,-86.8564 578.3934,-93.803"/>
</g>
</g>
</svg>
