<?xml version="1.0" encoding="UTF-8" standalone="no"?>
<!DOCTYPE svg PUBLIC "-//W3C//DTD SVG 1.1//EN"
 "http://www.w3.org/Graphics/SVG/1.1/DTD/svg11.dtd">
<!-- Generated by graphviz version 2.40.1 (20161225.0304)
 -->
<!-- Title: statistics::similarityMatrix::defaultAASimMatrix Pages: 1 -->
<svg width="464pt" height="39pt"
 viewBox="0.00 0.00 464.00 39.00" xmlns="http://www.w3.org/2000/svg" xmlns:xlink="http://www.w3.org/1999/xlink">
<g id="graph0" class="graph" transform="scale(1 1) rotate(0) translate(4 35)">
<title>statistics::similarityMatrix::defaultAASimMatrix</title>
<polygon fill="#ffffff" stroke="transparent" points="-4,4 -4,-35 460,-35 460,4 -4,4"/>
<!-- Node17 -->
<g id="node1" class="node">
<title>Node17</title>
<polygon fill="#bfbfbf" stroke="#000000" points="0,-.5 0,-30.5 128,-30.5 128,-.5 0,-.5"/>
<text text-anchor="start" x="8" y="-18.5" font-family="Helvetica,sans-Serif" font-size="10.00" fill="#000000">statistics::similarityMatrix</text>
<text text-anchor="middle" x="64" y="-7.5" font-family="Helvetica,sans-Serif" font-size="10.00" fill="#000000">::defaultAASimMatrix</text>
</g>
<!-- Node18 -->
<g id="node2" class="node">
<title>Node18</title>
<g id="a_node2"><a xlink:href="classstatistics_1_1similarity_matrix.html#a46d6657734fa07a8c7ee3bbee8145c2c" target="_top" xlink:title="Method to allocate memory for the similiarity matrix. ">
<polygon fill="#ffffff" stroke="#000000" points="164,-.5 164,-30.5 292,-30.5 292,-.5 164,-.5"/>
<text text-anchor="start" x="172" y="-18.5" font-family="Helvetica,sans-Serif" font-size="10.00" fill="#000000">statistics::similarityMatrix</text>
<text text-anchor="middle" x="228" y="-7.5" font-family="Helvetica,sans-Serif" font-size="10.00" fill="#000000">::memoryAllocation</text>
</a>
</g>
</g>
<!-- Node17&#45;&gt;Node18 -->
<g id="edge1" class="edge">
<title>Node17&#45;&gt;Node18</title>
<path fill="none" stroke="#191970" d="M128.3464,-15.5C136.6401,-15.5 145.1868,-15.5 153.6248,-15.5"/>
<polygon fill="#191970" stroke="#191970" points="153.8392,-19.0001 163.8391,-15.5 153.8391,-12.0001 153.8392,-19.0001"/>
</g>
<!-- Node19 -->
<g id="node3" class="node">
<title>Node19</title>
<g id="a_node3"><a xlink:href="classstatistics_1_1similarity_matrix.html#a3f33f4b18bb1da1887ba666c74bf9a47" target="_top" xlink:title="Method to deallocate memory allocated on the similarityMatrix::memoryAllocation method. It makes use of the numPositions to effectively remove the memory. ">
<polygon fill="#ffffff" stroke="#000000" points="328,-.5 328,-30.5 456,-30.5 456,-.5 328,-.5"/>
<text text-anchor="start" x="336" y="-18.5" font-family="Helvetica,sans-Serif" font-size="10.00" fill="#000000">statistics::similarityMatrix</text>
<text text-anchor="middle" x="392" y="-7.5" font-family="Helvetica,sans-Serif" font-size="10.00" fill="#000000">::memoryDeletion</text>
</a>
</g>
</g>
<!-- Node18&#45;&gt;Node19 -->
<g id="edge2" class="edge">
<title>Node18&#45;&gt;Node19</title>
<path fill="none" stroke="#191970" d="M292.3464,-15.5C300.6401,-15.5 309.1868,-15.5 317.6248,-15.5"/>
<polygon fill="#191970" stroke="#191970" points="317.8392,-19.0001 327.8391,-15.5 317.8391,-12.0001 317.8392,-19.0001"/>
</g>
</g>
</svg>
