<?xml version="1.0" encoding="UTF-8" standalone="no"?>
<!DOCTYPE svg PUBLIC "-//W3C//DTD SVG 1.1//EN"
 "http://www.w3.org/Graphics/SVG/1.1/DTD/svg11.dtd">
<!-- Generated by graphviz version 2.38.0 (20140413.2041)
 -->
<!-- Title: __internalReport::__reportSystem Pages: 1 -->
<svg width="702pt" height="383pt"
 viewBox="0.00 0.00 702.00 383.40" xmlns="http://www.w3.org/2000/svg" xmlns:xlink="http://www.w3.org/1999/xlink">
<g id="graph0" class="graph" transform="scale(1 1) rotate(0) translate(4 379.401)">
<title>__internalReport::__reportSystem</title>
<polygon fill="white" stroke="none" points="-4,4 -4,-379.401 698,-379.401 698,4 -4,4"/>
<!-- Node1 -->
<g id="node1" class="node"><title>Node1</title>
<polygon fill="#bfbfbf" stroke="black" points="600,-128.401 600,-158.401 694,-158.401 694,-128.401 600,-128.401"/>
<text text-anchor="start" x="608" y="-146.401" font-family="Helvetica,sans-Serif" font-size="10.00">__internalReport::</text>
<text text-anchor="middle" x="647" y="-135.401" font-family="Helvetica,sans-Serif" font-size="10.00">__reportSystem</text>
</g>
<!-- Node1&#45;&gt;Node1 -->
<g id="edge13" class="edge"><title>Node1&#45;&gt;Node1</title>
<path fill="none" stroke="#9a32cd" stroke-dasharray="5,2" d="M628.165,-168.859C630.503,-173.58 636.781,-176.901 647,-176.901 663.77,-176.901 669.927,-167.957 665.473,-158.56"/>
<polygon fill="#9a32cd" stroke="#9a32cd" points="631.674,-168.677 628.527,-158.56 624.678,-168.431 631.674,-168.677"/>
<text text-anchor="middle" x="647" y="-179.901" font-family="Helvetica,sans-Serif" font-size="10.00"> debug</text>
</g>
<!-- Node2 -->
<g id="node2" class="node"><title>Node2</title>
<polygon fill="white" stroke="#bfbfbf" points="378,-280.901 378,-299.901 454,-299.901 454,-280.901 378,-280.901"/>
<text text-anchor="middle" x="416" y="-287.901" font-family="Helvetica,sans-Serif" font-size="10.00">VerboseLevel</text>
</g>
<!-- Node2&#45;&gt;Node1 -->
<g id="edge1" class="edge"><title>Node2&#45;&gt;Node1</title>
<path fill="none" stroke="#9a32cd" stroke-dasharray="5,2" d="M464.207,-279.613C499.373,-269.829 547.133,-252.688 582,-225.401 606.177,-206.48 626.466,-176.528 637.37,-158.54"/>
<polygon fill="#9a32cd" stroke="#9a32cd" points="462.939,-276.329 454.185,-282.298 464.75,-283.091 462.939,-276.329"/>
<text text-anchor="middle" x="539.5" y="-271.401" font-family="Helvetica,sans-Serif" font-size="10.00"> Level</text>
</g>
<!-- Node3 -->
<g id="node3" class="node"><title>Node3</title>
<polygon fill="white" stroke="#bfbfbf" points="353,-231.401 353,-261.401 479,-261.401 479,-231.401 353,-231.401"/>
<text text-anchor="start" x="361" y="-249.401" font-family="Helvetica,sans-Serif" font-size="10.00">std::map&lt; WarningCode,</text>
<text text-anchor="middle" x="416" y="-238.401" font-family="Helvetica,sans-Serif" font-size="10.00"> const char *&gt;</text>
</g>
<!-- Node3&#45;&gt;Node1 -->
<g id="edge2" class="edge"><title>Node3&#45;&gt;Node1</title>
<path fill="none" stroke="#9a32cd" stroke-dasharray="5,2" d="M460.116,-227.008C504.307,-207.132 572.098,-176.641 612.445,-158.493"/>
<polygon fill="#9a32cd" stroke="#9a32cd" points="458.474,-223.909 450.79,-231.203 461.345,-230.293 458.474,-223.909"/>
<text text-anchor="middle" x="539.5" y="-213.401" font-family="Helvetica,sans-Serif" font-size="10.00"> WarningMessages</text>
</g>
<!-- Node4 -->
<g id="node4" class="node"><title>Node4</title>
<polygon fill="white" stroke="#bfbfbf" points="136.5,-161.901 136.5,-180.901 171.5,-180.901 171.5,-161.901 136.5,-161.901"/>
<text text-anchor="middle" x="154" y="-168.901" font-family="Helvetica,sans-Serif" font-size="10.00">char</text>
</g>
<!-- Node4&#45;&gt;Node3 -->
<g id="edge3" class="edge"><title>Node4&#45;&gt;Node3</title>
<path fill="none" stroke="#9a32cd" stroke-dasharray="5,2" d="M170.075,-188.621C181.825,-200.807 199.252,-216.357 218,-224.401 241.561,-234.51 304.431,-240.304 352.871,-243.382"/>
<polygon fill="#9a32cd" stroke="#9a32cd" points="172.578,-186.173 163.216,-181.212 167.441,-190.928 172.578,-186.173"/>
<text text-anchor="middle" x="276.5" y="-245.401" font-family="Helvetica,sans-Serif" font-size="10.00"> elements</text>
</g>
<!-- Node10 -->
<g id="node10" class="node"><title>Node10</title>
<polygon fill="white" stroke="#bfbfbf" points="360.5,-86.4009 360.5,-116.401 471.5,-116.401 471.5,-86.4009 360.5,-86.4009"/>
<text text-anchor="start" x="368.5" y="-104.401" font-family="Helvetica,sans-Serif" font-size="10.00">std::map&lt; ErrorCode,</text>
<text text-anchor="middle" x="416" y="-93.4009" font-family="Helvetica,sans-Serif" font-size="10.00"> const char *&gt;</text>
</g>
<!-- Node4&#45;&gt;Node10 -->
<g id="edge10" class="edge"><title>Node4&#45;&gt;Node10</title>
<path fill="none" stroke="#9a32cd" stroke-dasharray="5,2" d="M181.109,-163.472C187.726,-160.666 194.507,-157.023 200,-152.401 211.32,-142.876 205.449,-132.232 218,-124.401 260.506,-97.8796 318.332,-94.0758 360.333,-95.7333"/>
<polygon fill="#9a32cd" stroke="#9a32cd" points="179.836,-160.211 171.702,-167 182.294,-166.765 179.836,-160.211"/>
<text text-anchor="middle" x="276.5" y="-127.401" font-family="Helvetica,sans-Serif" font-size="10.00"> elements</text>
</g>
<!-- Node13 -->
<g id="node13" class="node"><title>Node13</title>
<polygon fill="white" stroke="#bfbfbf" points="362.5,-148.401 362.5,-178.401 469.5,-178.401 469.5,-148.401 362.5,-148.401"/>
<text text-anchor="start" x="370.5" y="-166.401" font-family="Helvetica,sans-Serif" font-size="10.00">std::map&lt; InfoCode,</text>
<text text-anchor="middle" x="416" y="-155.401" font-family="Helvetica,sans-Serif" font-size="10.00"> const char *&gt;</text>
</g>
<!-- Node4&#45;&gt;Node13 -->
<g id="edge17" class="edge"><title>Node4&#45;&gt;Node13</title>
<path fill="none" stroke="#9a32cd" stroke-dasharray="5,2" d="M181.625,-170.002C192.851,-169.446 206.059,-168.837 218,-168.401 266.891,-166.617 322.631,-165.266 362.313,-164.42"/>
<polygon fill="#9a32cd" stroke="#9a32cd" points="181.386,-166.509 171.576,-170.511 181.741,-173.5 181.386,-166.509"/>
<text text-anchor="middle" x="276.5" y="-171.401" font-family="Helvetica,sans-Serif" font-size="10.00"> elements</text>
</g>
<!-- Node5 -->
<g id="node5" class="node"><title>Node5</title>
<polygon fill="white" stroke="#bfbfbf" points="116,-349.901 116,-368.901 192,-368.901 192,-349.901 116,-349.901"/>
<text text-anchor="middle" x="154" y="-356.901" font-family="Helvetica,sans-Serif" font-size="10.00">WarningCode</text>
</g>
<!-- Node5&#45;&gt;Node3 -->
<g id="edge4" class="edge"><title>Node5&#45;&gt;Node3</title>
<path fill="none" stroke="#9a32cd" stroke-dasharray="5,2" d="M202.2,-364.596C242.241,-366.307 298.791,-361.98 335,-330.401 355.661,-312.381 334.477,-291.613 353,-271.401 356.529,-267.55 360.732,-264.281 365.265,-261.508"/>
<polygon fill="#9a32cd" stroke="#9a32cd" points="202.325,-361.097 192.143,-364.026 201.929,-368.086 202.325,-361.097"/>
<text text-anchor="middle" x="276.5" y="-367.401" font-family="Helvetica,sans-Serif" font-size="10.00"> keys</text>
</g>
<!-- Node6 -->
<g id="node6" class="node"><title>Node6</title>
<g id="a_node6"><a xlink:title="STL class. ">
<polygon fill="white" stroke="#bfbfbf" points="108,-270.901 108,-289.901 200,-289.901 200,-270.901 108,-270.901"/>
<text text-anchor="middle" x="154" y="-277.901" font-family="Helvetica,sans-Serif" font-size="10.00">std::map&lt; K, T &gt;</text>
</a>
</g>
</g>
<!-- Node6&#45;&gt;Node3 -->
<g id="edge5" class="edge"><title>Node6&#45;&gt;Node3</title>
<path fill="none" stroke="orange" stroke-dasharray="5,2" d="M192.128,-292.861C229.898,-303.308 289.225,-313.455 335,-292.401 346.168,-287.264 343.015,-278.571 353,-271.401 358.185,-267.678 364.004,-264.401 369.945,-261.549"/>
<polygon fill="orange" stroke="orange" points="192.656,-289.369 182.076,-289.932 190.698,-296.09 192.656,-289.369"/>
<text text-anchor="start" x="225.5" y="-318.401" font-family="Helvetica,sans-Serif" font-size="10.00"> &lt; WarningCode, const</text>
<text text-anchor="middle" x="276.5" y="-307.401" font-family="Helvetica,sans-Serif" font-size="10.00"> char *&gt;</text>
</g>
<!-- Node6&#45;&gt;Node10 -->
<g id="edge12" class="edge"><title>Node6&#45;&gt;Node10</title>
<path fill="none" stroke="orange" stroke-dasharray="5,2" d="M164.021,-261.614C174.286,-242.42 192.93,-213.372 218,-198.401 263.23,-171.391 293.352,-211.661 335,-179.401 350.733,-167.214 339.829,-153.32 353,-138.401 360.798,-129.568 371.228,-122.233 381.307,-116.487"/>
<polygon fill="orange" stroke="orange" points="160.851,-260.127 159.428,-270.626 167.088,-263.306 160.851,-260.127"/>
<text text-anchor="start" x="233" y="-212.401" font-family="Helvetica,sans-Serif" font-size="10.00"> &lt; ErrorCode, const</text>
<text text-anchor="middle" x="276.5" y="-201.401" font-family="Helvetica,sans-Serif" font-size="10.00"> char *&gt;</text>
</g>
<!-- Node6&#45;&gt;Node13 -->
<g id="edge19" class="edge"><title>Node6&#45;&gt;Node13</title>
<path fill="none" stroke="orange" stroke-dasharray="5,2" d="M210.313,-278.958C255.674,-276.767 315.473,-271.257 335,-257.401 349.589,-247.049 342.3,-235.737 353,-221.401 365.167,-205.1 382.233,-189.52 395.38,-178.619"/>
<polygon fill="orange" stroke="orange" points="210.128,-275.462 200.292,-279.4 210.436,-282.455 210.128,-275.462"/>
<text text-anchor="middle" x="276.5" y="-281.401" font-family="Helvetica,sans-Serif" font-size="10.00"> &lt; InfoCode, const char *&gt;</text>
</g>
<!-- Node7 -->
<g id="node7" class="node"><title>Node7</title>
<polygon fill="white" stroke="#bfbfbf" points="0,-289.901 0,-308.901 29,-308.901 29,-289.901 0,-289.901"/>
<text text-anchor="middle" x="14.5" y="-296.901" font-family="Helvetica,sans-Serif" font-size="10.00">K</text>
</g>
<!-- Node7&#45;&gt;Node6 -->
<g id="edge6" class="edge"><title>Node7&#45;&gt;Node6</title>
<path fill="none" stroke="#9a32cd" stroke-dasharray="5,2" d="M39.2564,-296.118C58.0894,-293.516 84.9541,-289.804 107.846,-286.64"/>
<polygon fill="#9a32cd" stroke="#9a32cd" points="38.6135,-292.674 29.1867,-297.51 39.5717,-299.608 38.6135,-292.674"/>
<text text-anchor="middle" x="68.5" y="-297.401" font-family="Helvetica,sans-Serif" font-size="10.00"> keys</text>
</g>
<!-- Node8 -->
<g id="node8" class="node"><title>Node8</title>
<polygon fill="white" stroke="#bfbfbf" points="0,-251.901 0,-270.901 29,-270.901 29,-251.901 0,-251.901"/>
<text text-anchor="middle" x="14.5" y="-258.901" font-family="Helvetica,sans-Serif" font-size="10.00">T</text>
</g>
<!-- Node8&#45;&gt;Node6 -->
<g id="edge7" class="edge"><title>Node8&#45;&gt;Node6</title>
<path fill="none" stroke="#9a32cd" stroke-dasharray="5,2" d="M39.2564,-264.684C58.0894,-267.286 84.9541,-270.998 107.846,-274.161"/>
<polygon fill="#9a32cd" stroke="#9a32cd" points="39.5717,-261.194 29.1867,-263.292 38.6135,-268.128 39.5717,-261.194"/>
<text text-anchor="middle" x="68.5" y="-274.401" font-family="Helvetica,sans-Serif" font-size="10.00"> elements</text>
</g>
<!-- Node9 -->
<g id="node9" class="node"><title>Node9</title>
<polygon fill="white" stroke="#bfbfbf" points="136.5,-3.90087 136.5,-22.9009 171.5,-22.9009 171.5,-3.90087 136.5,-3.90087"/>
<text text-anchor="middle" x="154" y="-10.9009" font-family="Helvetica,sans-Serif" font-size="10.00">bool</text>
</g>
<!-- Node9&#45;&gt;Node1 -->
<g id="edge8" class="edge"><title>Node9&#45;&gt;Node1</title>
<path fill="none" stroke="#9a32cd" stroke-dasharray="5,2" d="M181.918,-9.72797C237.94,-2.8823 370.856,9.19173 479,-13.4009 527.9,-23.6168 542.802,-27.4314 582,-58.4009 606.93,-78.0976 627.251,-109.697 637.903,-128.314"/>
<polygon fill="#9a32cd" stroke="#9a32cd" points="181.248,-6.28472 171.768,-11.0156 182.129,-13.2291 181.248,-6.28472"/>
<text text-anchor="middle" x="416" y="-16.4009" font-family="Helvetica,sans-Serif" font-size="10.00"> IsDebug</text>
</g>
<!-- Node12 -->
<g id="node12" class="node"><title>Node12</title>
<g id="a_node12"><a xlink:href="class____internal_report_1_1____reporter.html" target="_top" xlink:title="Internal class used by __internalReport::__reportSystem &#160;This class serves as a proxy for message rep...">
<polygon fill="white" stroke="black" points="369,-34.4009 369,-64.4009 463,-64.4009 463,-34.4009 369,-34.4009"/>
<text text-anchor="start" x="377" y="-52.4009" font-family="Helvetica,sans-Serif" font-size="10.00">__internalReport::</text>
<text text-anchor="middle" x="416" y="-41.4009" font-family="Helvetica,sans-Serif" font-size="10.00">__reporter</text>
</a>
</g>
</g>
<!-- Node9&#45;&gt;Node12 -->
<g id="edge15" class="edge"><title>Node9&#45;&gt;Node12</title>
<path fill="none" stroke="#9a32cd" stroke-dasharray="5,2" d="M181.61,-17.0853C225.693,-23.1891 314.403,-35.4721 368.861,-43.0123"/>
<polygon fill="#9a32cd" stroke="#9a32cd" points="182.045,-13.6123 171.66,-15.7076 181.085,-20.5461 182.045,-13.6123"/>
<text text-anchor="middle" x="276.5" y="-41.4009" font-family="Helvetica,sans-Serif" font-size="10.00"> CanReport</text>
</g>
<!-- Node10&#45;&gt;Node1 -->
<g id="edge9" class="edge"><title>Node10&#45;&gt;Node1</title>
<path fill="none" stroke="#9a32cd" stroke-dasharray="5,2" d="M481.444,-113.22C519.178,-120.141 565.943,-128.718 599.964,-134.958"/>
<polygon fill="#9a32cd" stroke="#9a32cd" points="482.028,-109.769 471.56,-111.408 480.765,-116.654 482.028,-109.769"/>
<text text-anchor="middle" x="539.5" y="-134.401" font-family="Helvetica,sans-Serif" font-size="10.00"> ErrorMessages</text>
</g>
<!-- Node11 -->
<g id="node11" class="node"><title>Node11</title>
<polygon fill="white" stroke="#bfbfbf" points="123.5,-55.9009 123.5,-74.9009 184.5,-74.9009 184.5,-55.9009 123.5,-55.9009"/>
<text text-anchor="middle" x="154" y="-62.9009" font-family="Helvetica,sans-Serif" font-size="10.00">ErrorCode</text>
</g>
<!-- Node11&#45;&gt;Node10 -->
<g id="edge11" class="edge"><title>Node11&#45;&gt;Node10</title>
<path fill="none" stroke="#9a32cd" stroke-dasharray="5,2" d="M195.014,-61.0368C231.822,-58.0986 287.699,-56.3694 335,-66.4009 337.558,-66.9434 360.605,-77.0716 381.309,-86.2933"/>
<polygon fill="#9a32cd" stroke="#9a32cd" points="194.358,-57.5805 184.698,-61.9321 194.963,-64.5543 194.358,-57.5805"/>
<text text-anchor="middle" x="276.5" y="-69.4009" font-family="Helvetica,sans-Serif" font-size="10.00"> keys</text>
</g>
<!-- Node12&#45;&gt;Node1 -->
<g id="edge14" class="edge"><title>Node12&#45;&gt;Node1</title>
<path fill="none" stroke="#9a32cd" stroke-dasharray="5,2" d="M472.984,-56.9065C505.996,-62.8666 547.854,-73.1588 582,-90.4009 601.059,-100.025 619.472,-116.235 631.615,-128.2"/>
<polygon fill="#9a32cd" stroke="#9a32cd" points="473.49,-53.4422 463.041,-55.1929 472.301,-60.3405 473.49,-53.4422"/>
<text text-anchor="middle" x="539.5" y="-104.401" font-family="Helvetica,sans-Serif" font-size="10.00"> cantReport</text>
<text text-anchor="middle" x="539.5" y="-93.4009" font-family="Helvetica,sans-Serif" font-size="10.00">canReport</text>
</g>
<!-- Node13&#45;&gt;Node1 -->
<g id="edge16" class="edge"><title>Node13&#45;&gt;Node1</title>
<path fill="none" stroke="#9a32cd" stroke-dasharray="5,2" d="M479.973,-157.901C517.937,-154.585 565.45,-150.436 599.91,-147.426"/>
<polygon fill="#9a32cd" stroke="#9a32cd" points="479.195,-154.456 469.537,-158.812 479.804,-161.429 479.195,-154.456"/>
<text text-anchor="middle" x="539.5" y="-159.401" font-family="Helvetica,sans-Serif" font-size="10.00"> InfoMessages</text>
</g>
<!-- Node14 -->
<g id="node14" class="node"><title>Node14</title>
<polygon fill="white" stroke="#bfbfbf" points="126,-123.901 126,-142.901 182,-142.901 182,-123.901 126,-123.901"/>
<text text-anchor="middle" x="154" y="-130.901" font-family="Helvetica,sans-Serif" font-size="10.00">InfoCode</text>
</g>
<!-- Node14&#45;&gt;Node13 -->
<g id="edge18" class="edge"><title>Node14&#45;&gt;Node13</title>
<path fill="none" stroke="#9a32cd" stroke-dasharray="5,2" d="M192.373,-136.197C228.836,-139.098 285.836,-144.092 335,-150.401 343.793,-151.529 353.103,-152.889 362.143,-154.299"/>
<polygon fill="#9a32cd" stroke="#9a32cd" points="192.446,-132.692 182.203,-135.4 191.899,-139.671 192.446,-132.692"/>
<text text-anchor="middle" x="276.5" y="-153.401" font-family="Helvetica,sans-Serif" font-size="10.00"> keys</text>
</g>
</g>
</svg>
