<?xml version="1.0" encoding="UTF-8" standalone="no"?>
<!DOCTYPE svg PUBLIC "-//W3C//DTD SVG 1.1//EN"
 "http://www.w3.org/Graphics/SVG/1.1/DTD/svg11.dtd">
<!-- Generated by graphviz version 2.40.1 (20161225.0304)
 -->
<!-- Title: trimAlManager::back_trans_argument Pages: 1 -->
<svg width="461pt" height="88pt"
 viewBox="0.00 0.00 461.00 88.00" xmlns="http://www.w3.org/2000/svg" xmlns:xlink="http://www.w3.org/1999/xlink">
<g id="graph0" class="graph" transform="scale(1 1) rotate(0) translate(4 84)">
<title>trimAlManager::back_trans_argument</title>
<polygon fill="#ffffff" stroke="transparent" points="-4,4 -4,-84 457,-84 457,4 -4,4"/>
<!-- Node9 -->
<g id="node1" class="node">
<title>Node9</title>
<g id="a_node1"><a xlink:title="Method to parse the backtranslation argument.">
<polygon fill="#bfbfbf" stroke="#000000" points="0,-19.5 0,-49.5 107,-49.5 107,-19.5 0,-19.5"/>
<text text-anchor="start" x="8" y="-37.5" font-family="Helvetica,sans-Serif" font-size="10.00" fill="#000000">trimAlManager::back</text>
<text text-anchor="middle" x="53.5" y="-26.5" font-family="Helvetica,sans-Serif" font-size="10.00" fill="#000000">_trans_argument</text>
</a>
</g>
</g>
<!-- Node10 -->
<g id="node2" class="node">
<title>Node10</title>
<g id="a_node2"><a xlink:href="class_format_manager.html#a8e4018869bcf89ebee07b1356c2e36f6" target="_top" xlink:title="Function that loads an alignment given a file path. It automatically detects the format of the file.">
<polygon fill="#ffffff" stroke="#000000" points="143,-44 143,-63 295,-63 295,-44 143,-44"/>
<text text-anchor="middle" x="219" y="-51" font-family="Helvetica,sans-Serif" font-size="10.00" fill="#000000">FormatManager::loadAlignment</text>
</a>
</g>
</g>
<!-- Node9&#45;&gt;Node10 -->
<g id="edge1" class="edge">
<title>Node9&#45;&gt;Node10</title>
<path fill="none" stroke="#191970" d="M107.2331,-40.6688C115.4416,-41.6111 124.0863,-42.6036 132.7821,-43.6019"/>
<polygon fill="#191970" stroke="#191970" points="132.6568,-47.1104 142.9907,-44.7739 133.4552,-40.1561 132.6568,-47.1104"/>
</g>
<!-- Node12 -->
<g id="node4" class="node">
<title>Node12</title>
<g id="a_node4"><a xlink:href="classreporting_1_1report_manager.html#a6d122e673144584e0869bd33b8a5c1c6" target="_top" xlink:title="Method to report an Error. &#160;It will be displayed if Level &#160;is equal or higher to VerboseLevel::ERROR.">
<polygon fill="#ffffff" stroke="#000000" points="331,-.5 331,-30.5 453,-30.5 453,-.5 331,-.5"/>
<text text-anchor="start" x="339" y="-18.5" font-family="Helvetica,sans-Serif" font-size="10.00" fill="#000000">reporting::reportManager</text>
<text text-anchor="middle" x="392" y="-7.5" font-family="Helvetica,sans-Serif" font-size="10.00" fill="#000000">::report</text>
</a>
</g>
</g>
<!-- Node9&#45;&gt;Node12 -->
<g id="edge4" class="edge">
<title>Node9&#45;&gt;Node12</title>
<path fill="none" stroke="#191970" d="M107.1363,-31.4894C164.7932,-28.2531 256.7387,-23.0922 320.5088,-19.5128"/>
<polygon fill="#191970" stroke="#191970" points="321.0982,-22.9853 330.8863,-18.9303 320.7058,-15.9963 321.0982,-22.9853"/>
</g>
<!-- Node11 -->
<g id="node3" class="node">
<title>Node11</title>
<g id="a_node3"><a xlink:href="class_base_format_handler.html#a9bc237244e07e621a6089d55a3e96417" target="_top" xlink:title="Function to load a file in the current format and return an alignment object.">
<polygon fill="#ffffff" stroke="#000000" points="337,-49.5 337,-79.5 447,-79.5 447,-49.5 337,-49.5"/>
<text text-anchor="start" x="345" y="-67.5" font-family="Helvetica,sans-Serif" font-size="10.00" fill="#000000">BaseFormatHandler::</text>
<text text-anchor="middle" x="392" y="-56.5" font-family="Helvetica,sans-Serif" font-size="10.00" fill="#000000">LoadAlignment</text>
</a>
</g>
</g>
<!-- Node10&#45;&gt;Node11 -->
<g id="edge2" class="edge">
<title>Node10&#45;&gt;Node11</title>
<path fill="none" stroke="#191970" d="M295.1321,-58.3408C305.6704,-59.0108 316.4169,-59.6941 326.734,-60.3501"/>
<polygon fill="#191970" stroke="#191970" points="326.6822,-63.8538 336.8842,-60.9955 327.1264,-56.8679 326.6822,-63.8538"/>
</g>
<!-- Node10&#45;&gt;Node12 -->
<g id="edge3" class="edge">
<title>Node10&#45;&gt;Node12</title>
<path fill="none" stroke="#191970" d="M262.6552,-43.911C280.295,-40.0364 301.1151,-35.4632 320.8365,-31.1313"/>
<polygon fill="#191970" stroke="#191970" points="321.7013,-34.5249 330.7175,-28.9609 320.1995,-27.6878 321.7013,-34.5249"/>
</g>
</g>
</svg>
