<?xml version="1.0" encoding="UTF-8" standalone="no"?>
<!DOCTYPE svg PUBLIC "-//W3C//DTD SVG 1.1//EN"
 "http://www.w3.org/Graphics/SVG/1.1/DTD/svg11.dtd">
<!-- Generated by graphviz version 2.40.1 (20161225.0304)
 -->
<!-- Title: FormatHandling::FormatManager::addState Pages: 1 -->
<svg width="515pt" height="53pt"
 viewBox="0.00 0.00 515.00 52.50" xmlns="http://www.w3.org/2000/svg" xmlns:xlink="http://www.w3.org/1999/xlink">
<g id="graph0" class="graph" transform="scale(1 1) rotate(0) translate(4 48.5)">
<title>FormatHandling::FormatManager::addState</title>
<polygon fill="#ffffff" stroke="transparent" points="-4,4 -4,-48.5 511,-48.5 511,4 -4,4"/>
<!-- Node8 -->
<g id="node1" class="node">
<title>Node8</title>
<polygon fill="#bfbfbf" stroke="#000000" points="0,-14 0,-44 160,-44 160,-14 0,-14"/>
<text text-anchor="start" x="8" y="-32" font-family="Helvetica,sans-Serif" font-size="10.00" fill="#000000">FormatHandling::FormatManager</text>
<text text-anchor="middle" x="80" y="-21" font-family="Helvetica,sans-Serif" font-size="10.00" fill="#000000">::addState</text>
</g>
<!-- Node9 -->
<g id="node2" class="node">
<title>Node9</title>
<g id="a_node2"><a xlink:href="class_format_handling_1_1_format_manager.html#aece519995c108c0cc400d61360389834" target="_top" xlink:title="FormatHandling::FormatManager\l::FormatManager">
<polygon fill="#ffffff" stroke="#000000" points="196,-14 196,-44 356,-44 356,-14 196,-14"/>
<text text-anchor="start" x="204" y="-32" font-family="Helvetica,sans-Serif" font-size="10.00" fill="#000000">FormatHandling::FormatManager</text>
<text text-anchor="middle" x="276" y="-21" font-family="Helvetica,sans-Serif" font-size="10.00" fill="#000000">::FormatManager</text>
</a>
</g>
</g>
<!-- Node8&#45;&gt;Node9 -->
<g id="edge1" class="edge">
<title>Node8&#45;&gt;Node9</title>
<path fill="none" stroke="#191970" d="M170.0766,-29C178.7035,-29 187.4128,-29 195.9347,-29"/>
<polygon fill="#191970" stroke="#191970" points="170.0034,-25.5001 160.0034,-29 170.0034,-32.5001 170.0034,-25.5001"/>
</g>
<!-- Node10 -->
<g id="node3" class="node">
<title>Node10</title>
<g id="a_node3"><a xlink:href="read_al_main_8cpp.html#a0ddf1224851353fc92bfbff6f499fa97" target="_top" xlink:title="main">
<polygon fill="#ffffff" stroke="#000000" points="469,-19.5 469,-38.5 507,-38.5 507,-19.5 469,-19.5"/>
<text text-anchor="middle" x="488" y="-26.5" font-family="Helvetica,sans-Serif" font-size="10.00" fill="#000000">main</text>
</a>
</g>
</g>
<!-- Node9&#45;&gt;Node10 -->
<g id="edge2" class="edge">
<title>Node9&#45;&gt;Node10</title>
<path fill="none" stroke="#191970" d="M366.2853,-29C404.4005,-29 445.288,-29 468.6421,-29"/>
<polygon fill="#191970" stroke="#191970" points="366.1481,-25.5001 356.1481,-29 366.1481,-32.5001 366.1481,-25.5001"/>
</g>
<!-- Node11 -->
<g id="node4" class="node">
<title>Node11</title>
<g id="a_node4"><a xlink:href="read_al_main_8cpp.html#a2a0e843767aeea4f433a28b9c54f573a" target="_top" xlink:title="menu">
<polygon fill="#ffffff" stroke="#000000" points="392,-.5 392,-19.5 433,-19.5 433,-.5 392,-.5"/>
<text text-anchor="middle" x="412.5" y="-7.5" font-family="Helvetica,sans-Serif" font-size="10.00" fill="#000000">menu</text>
</a>
</g>
</g>
<!-- Node9&#45;&gt;Node11 -->
<g id="edge3" class="edge">
<title>Node9&#45;&gt;Node11</title>
<path fill="none" stroke="#191970" d="M366.2669,-16.4354C375.7482,-15.1156 384.5946,-13.8843 391.9584,-12.8593"/>
<polygon fill="#191970" stroke="#191970" points="365.6141,-12.9924 356.1922,-17.8377 366.5792,-19.9256 365.6141,-12.9924"/>
</g>
<!-- Node11&#45;&gt;Node10 -->
<g id="edge4" class="edge">
<title>Node11&#45;&gt;Node10</title>
<path fill="none" stroke="#191970" d="M443.0455,-17.6869C451.8027,-19.8908 461.0972,-22.2298 468.9482,-24.2055"/>
<polygon fill="#191970" stroke="#191970" points="443.6825,-14.2382 433.1307,-15.1918 441.9742,-21.0265 443.6825,-14.2382"/>
</g>
</g>
</svg>
