<?xml version="1.0" encoding="UTF-8" standalone="no"?>
<!DOCTYPE svg PUBLIC "-//W3C//DTD SVG 1.1//EN"
 "http://www.w3.org/Graphics/SVG/1.1/DTD/svg11.dtd">
<!-- Generated by graphviz version 2.40.1 (20161225.0304)
 -->
<!-- Title: Cleaner::removeSequences Pages: 1 -->
<svg width="638pt" height="184pt"
 viewBox="0.00 0.00 638.00 184.00" xmlns="http://www.w3.org/2000/svg" xmlns:xlink="http://www.w3.org/1999/xlink">
<g id="graph0" class="graph" transform="scale(1 1) rotate(0) translate(4 180)">
<title>Cleaner::removeSequences</title>
<polygon fill="#ffffff" stroke="transparent" points="-4,4 -4,-180 634,-180 634,4 -4,4"/>
<!-- Node565 -->
<g id="node1" class="node">
<title>Node565</title>
<polygon fill="#bfbfbf" stroke="#000000" points="0,-55 0,-74 137,-74 137,-55 0,-55"/>
<text text-anchor="middle" x="68.5" y="-62" font-family="Helvetica,sans-Serif" font-size="10.00" fill="#000000">Cleaner::removeSequences</text>
</g>
<!-- Node566 -->
<g id="node2" class="node">
<title>Node566</title>
<g id="a_node2"><a xlink:href="class_alignment.html#aeeee94970a445f32aa79646c249befef" target="_top" xlink:title="Copy Constructor. &#160;&#160;The copy constructor does not make a copy of all structures present on the origin...">
<polygon fill="#ffffff" stroke="#000000" points="191,-102 191,-121 301,-121 301,-102 191,-102"/>
<text text-anchor="middle" x="246" y="-109" font-family="Helvetica,sans-Serif" font-size="10.00" fill="#000000">Alignment::Alignment</text>
</a>
</g>
</g>
<!-- Node565&#45;&gt;Node566 -->
<g id="edge1" class="edge">
<title>Node565&#45;&gt;Node566</title>
<path fill="none" stroke="#191970" d="M104.4198,-74.0112C131.9965,-81.3132 170.2729,-91.4483 200.0752,-99.3396"/>
<polygon fill="#191970" stroke="#191970" points="199.2667,-102.7461 209.8295,-101.9224 201.0585,-95.9793 199.2667,-102.7461"/>
</g>
<!-- Node572 -->
<g id="node8" class="node">
<title>Node572</title>
<g id="a_node8"><a xlink:href="class_cleaner.html#ada8ad076dd037f00ae3f4fd17762641f" target="_top" xlink:title="Method that identifies and removes columns and sequences composed only by gaps. ">
<polygon fill="#ffffff" stroke="#000000" points="173,-49.5 173,-79.5 319,-79.5 319,-49.5 173,-49.5"/>
<text text-anchor="start" x="181" y="-67.5" font-family="Helvetica,sans-Serif" font-size="10.00" fill="#000000">Cleaner::removeAllGapsSeqs</text>
<text text-anchor="middle" x="246" y="-56.5" font-family="Helvetica,sans-Serif" font-size="10.00" fill="#000000">AndCols</text>
</a>
</g>
</g>
<!-- Node565&#45;&gt;Node572 -->
<g id="edge7" class="edge">
<title>Node565&#45;&gt;Node572</title>
<path fill="none" stroke="#191970" d="M137.1261,-64.5C145.5403,-64.5 154.2092,-64.5 162.8083,-64.5"/>
<polygon fill="#191970" stroke="#191970" points="162.8513,-68.0001 172.8513,-64.5 162.8513,-61.0001 162.8513,-68.0001"/>
</g>
<!-- Node574 -->
<g id="node10" class="node">
<title>Node574</title>
<g id="a_node10"><a xlink:href="class_alignment.html#a0b32dd76a1a98278068a7b65797ae6b9" target="_top" xlink:title="Updates the sequence number and residue number based on saveResidues and saveSequences. ">
<polygon fill="#ffffff" stroke="#000000" points="174,-.5 174,-30.5 318,-30.5 318,-.5 174,-.5"/>
<text text-anchor="start" x="182" y="-18.5" font-family="Helvetica,sans-Serif" font-size="10.00" fill="#000000">Alignment::updateSequences</text>
<text text-anchor="middle" x="246" y="-7.5" font-family="Helvetica,sans-Serif" font-size="10.00" fill="#000000">AndResiduesNums</text>
</a>
</g>
</g>
<!-- Node565&#45;&gt;Node574 -->
<g id="edge9" class="edge">
<title>Node565&#45;&gt;Node574</title>
<path fill="none" stroke="#191970" d="M103.1452,-54.936C125.421,-48.7866 155.0505,-40.6072 181.5488,-33.2922"/>
<polygon fill="#191970" stroke="#191970" points="182.8213,-36.5719 191.5294,-30.537 180.9585,-29.8243 182.8213,-36.5719"/>
</g>
<!-- Node567 -->
<g id="node3" class="node">
<title>Node567</title>
<g id="a_node3"><a xlink:href="class_cleaner.html#afe42cb635ddd6bd968ae57e378deaac8" target="_top" xlink:title="Copy Constructor &#45; Called by Alignment. ">
<polygon fill="#ffffff" stroke="#000000" points="371,-146 371,-165 461,-165 461,-146 371,-146"/>
<text text-anchor="middle" x="416" y="-153" font-family="Helvetica,sans-Serif" font-size="10.00" fill="#000000">Cleaner::Cleaner</text>
</a>
</g>
</g>
<!-- Node566&#45;&gt;Node567 -->
<g id="edge2" class="edge">
<title>Node566&#45;&gt;Node567</title>
<path fill="none" stroke="#191970" d="M282.8875,-121.0473C308.2834,-127.6204 342.2231,-136.4048 369.4751,-143.4583"/>
<polygon fill="#191970" stroke="#191970" points="368.6265,-146.8539 379.1845,-145.9713 370.3805,-140.0772 368.6265,-146.8539"/>
</g>
<!-- Node568 -->
<g id="node4" class="node">
<title>Node568</title>
<g id="a_node4"><a xlink:href="classstatistics_1_1_manager.html#aee28602da015edb0880d59ce4c0f855d" target="_top" xlink:title="statistics::Manager\l::Manager">
<polygon fill="#ffffff" stroke="#000000" points="366,-96.5 366,-126.5 466,-126.5 466,-96.5 366,-96.5"/>
<text text-anchor="start" x="374" y="-114.5" font-family="Helvetica,sans-Serif" font-size="10.00" fill="#000000">statistics::Manager</text>
<text text-anchor="middle" x="416" y="-103.5" font-family="Helvetica,sans-Serif" font-size="10.00" fill="#000000">::Manager</text>
</a>
</g>
</g>
<!-- Node566&#45;&gt;Node568 -->
<g id="edge3" class="edge">
<title>Node566&#45;&gt;Node568</title>
<path fill="none" stroke="#191970" d="M301.1941,-111.5C318.6188,-111.5 337.9568,-111.5 355.7179,-111.5"/>
<polygon fill="#191970" stroke="#191970" points="355.9667,-115.0001 365.9667,-111.5 355.9667,-108.0001 355.9667,-115.0001"/>
</g>
<!-- Node569 -->
<g id="node5" class="node">
<title>Node569</title>
<g id="a_node5"><a xlink:href="classstatistics_1_1_similarity.html#afecab92459785c7568511217969f6cde" target="_top" xlink:title="statistics::Similarity\l::Similarity">
<polygon fill="#ffffff" stroke="#000000" points="520,-145.5 520,-175.5 623,-175.5 623,-145.5 520,-145.5"/>
<text text-anchor="start" x="528" y="-163.5" font-family="Helvetica,sans-Serif" font-size="10.00" fill="#000000">statistics::Similarity</text>
<text text-anchor="middle" x="571.5" y="-152.5" font-family="Helvetica,sans-Serif" font-size="10.00" fill="#000000">::Similarity</text>
</a>
</g>
</g>
<!-- Node568&#45;&gt;Node569 -->
<g id="edge4" class="edge">
<title>Node568&#45;&gt;Node569</title>
<path fill="none" stroke="#191970" d="M463.924,-126.6014C479.8131,-131.6083 497.6611,-137.2324 514.1839,-142.439"/>
<polygon fill="#191970" stroke="#191970" points="513.1447,-145.7811 523.7343,-145.4484 515.2485,-139.1047 513.1447,-145.7811"/>
</g>
<!-- Node570 -->
<g id="node6" class="node">
<title>Node570</title>
<g id="a_node6"><a xlink:href="classstatistics_1_1_consistency.html#ae39d2aae825d263ac8c3198782b824d2" target="_top" xlink:title="Copy constructor. ">
<polygon fill="#ffffff" stroke="#000000" points="513,-96.5 513,-126.5 630,-126.5 630,-96.5 513,-96.5"/>
<text text-anchor="start" x="521" y="-114.5" font-family="Helvetica,sans-Serif" font-size="10.00" fill="#000000">statistics::Consistency</text>
<text text-anchor="middle" x="571.5" y="-103.5" font-family="Helvetica,sans-Serif" font-size="10.00" fill="#000000">::Consistency</text>
</a>
</g>
</g>
<!-- Node568&#45;&gt;Node570 -->
<g id="edge5" class="edge">
<title>Node568&#45;&gt;Node570</title>
<path fill="none" stroke="#191970" d="M466.0571,-111.5C477.7101,-111.5 490.3177,-111.5 502.6248,-111.5"/>
<polygon fill="#191970" stroke="#191970" points="502.8645,-115.0001 512.8645,-111.5 502.8644,-108.0001 502.8645,-115.0001"/>
</g>
<!-- Node571 -->
<g id="node7" class="node">
<title>Node571</title>
<g id="a_node7"><a xlink:href="classstatistics_1_1_gaps.html#a0233d71123523698b0bbf6fe6119b630" target="_top" xlink:title="statistics::Gaps::Gaps">
<polygon fill="#ffffff" stroke="#000000" points="514,-58 514,-77 629,-77 629,-58 514,-58"/>
<text text-anchor="middle" x="571.5" y="-65" font-family="Helvetica,sans-Serif" font-size="10.00" fill="#000000">statistics::Gaps::Gaps</text>
</a>
</g>
</g>
<!-- Node568&#45;&gt;Node571 -->
<g id="edge6" class="edge">
<title>Node568&#45;&gt;Node571</title>
<path fill="none" stroke="#191970" d="M466.0571,-97.3359C486.017,-91.6881 508.7777,-85.2478 528.0314,-79.7998"/>
<polygon fill="#191970" stroke="#191970" points="529.0776,-83.1413 537.7468,-77.0507 527.1717,-76.4057 529.0776,-83.1413"/>
</g>
<!-- Node573 -->
<g id="node9" class="node">
<title>Node573</title>
<g id="a_node9"><a xlink:href="classreporting_1_1report_manager.html#a75a240a78f31ba479892a9a0f53996fa" target="_top" xlink:title="Method to report a Warning. &#160;It will be displayed if Level &#160;is equal or higher to VerboseLevel::WARNI...">
<polygon fill="#ffffff" stroke="#000000" points="355,-47.5 355,-77.5 477,-77.5 477,-47.5 355,-47.5"/>
<text text-anchor="start" x="363" y="-65.5" font-family="Helvetica,sans-Serif" font-size="10.00" fill="#000000">reporting::reportManager</text>
<text text-anchor="middle" x="416" y="-54.5" font-family="Helvetica,sans-Serif" font-size="10.00" fill="#000000">::report</text>
</a>
</g>
</g>
<!-- Node572&#45;&gt;Node573 -->
<g id="edge8" class="edge">
<title>Node572&#45;&gt;Node573</title>
<path fill="none" stroke="#191970" d="M319.0819,-63.6402C327.591,-63.5401 336.2628,-63.4381 344.7468,-63.3383"/>
<polygon fill="#191970" stroke="#191970" points="345.0207,-66.8354 354.9788,-63.2179 344.9383,-59.8359 345.0207,-66.8354"/>
</g>
</g>
</svg>
