<?xml version="1.0" encoding="UTF-8" standalone="no"?>
<!DOCTYPE svg PUBLIC "-//W3C//DTD SVG 1.1//EN"
 "http://www.w3.org/Graphics/SVG/1.1/DTD/svg11.dtd">
<!-- Generated by graphviz version 2.38.0 (20140413.2041)
 -->
<!-- Title: Cleaner::calculateRepresentativeSeq Pages: 1 -->
<svg width="735pt" height="104pt"
 viewBox="0.00 0.00 735.00 104.00" xmlns="http://www.w3.org/2000/svg" xmlns:xlink="http://www.w3.org/1999/xlink">
<g id="graph0" class="graph" transform="scale(1 1) rotate(0) translate(4 100)">
<title>Cleaner::calculateRepresentativeSeq</title>
<polygon fill="white" stroke="none" points="-4,4 -4,-100 731,-100 731,4 -4,4"/>
<!-- Node2 -->
<g id="node1" class="node"><title>Node2</title>
<polygon fill="#bfbfbf" stroke="black" points="0,-38.5 0,-57.5 179,-57.5 179,-38.5 0,-38.5"/>
<text text-anchor="middle" x="89.5" y="-45.5" font-family="Helvetica,sans-Serif" font-size="10.00">Cleaner::calculateRepresentativeSeq</text>
</g>
<!-- Node3 -->
<g id="node2" class="node"><title>Node3</title>
<g id="a_node2"><a xlink:href="class_cleaner.html#a65d829578be97c192561a129435b3c58" target="_top" xlink:title="Method to calculate identities between the sequences from the alignment. See newAlignment::identities...">
<polygon fill="white" stroke="black" points="215,-76.5 215,-95.5 360,-95.5 360,-76.5 215,-76.5"/>
<text text-anchor="middle" x="287.5" y="-83.5" font-family="Helvetica,sans-Serif" font-size="10.00">Cleaner::calculateSeqIdentity</text>
</a>
</g>
</g>
<!-- Node2&#45;&gt;Node3 -->
<g id="edge1" class="edge"><title>Node2&#45;&gt;Node3</title>
<path fill="none" stroke="midnightblue" d="M139.706,-57.54C166.267,-62.6896 199.249,-69.084 227.218,-74.5065"/>
<polygon fill="midnightblue" stroke="midnightblue" points="226.79,-77.9887 237.274,-76.4561 228.123,-71.1167 226.79,-77.9887"/>
</g>
<!-- Node6 -->
<g id="node5" class="node"><title>Node6</title>
<g id="a_node5"><a xlink:href="classutils.html#a1dce160519187ef2c6e14beb93a2050d" target="_top" xlink:title="Removes a determined char from the string. ">
<polygon fill="white" stroke="black" points="229.5,-38.5 229.5,-57.5 345.5,-57.5 345.5,-38.5 229.5,-38.5"/>
<text text-anchor="middle" x="287.5" y="-45.5" font-family="Helvetica,sans-Serif" font-size="10.00">utils::removeCharacter</text>
</a>
</g>
</g>
<!-- Node2&#45;&gt;Node6 -->
<g id="edge4" class="edge"><title>Node2&#45;&gt;Node6</title>
<path fill="none" stroke="midnightblue" d="M179.039,-48C192.487,-48 206.175,-48 219.077,-48"/>
<polygon fill="midnightblue" stroke="midnightblue" points="219.236,-51.5001 229.236,-48 219.236,-44.5001 219.236,-51.5001"/>
</g>
<!-- Node7 -->
<g id="node6" class="node"><title>Node7</title>
<g id="a_node6"><a xlink:href="classutils.html#a73f038c379c13d23e3220afaa14f9983" target="_top" xlink:title="Quicksort sorting method. ">
<polygon fill="white" stroke="black" points="247.5,-0.5 247.5,-19.5 327.5,-19.5 327.5,-0.5 247.5,-0.5"/>
<text text-anchor="middle" x="287.5" y="-7.5" font-family="Helvetica,sans-Serif" font-size="10.00">utils::quicksort</text>
</a>
</g>
</g>
<!-- Node2&#45;&gt;Node7 -->
<g id="edge5" class="edge"><title>Node2&#45;&gt;Node7</title>
<path fill="none" stroke="midnightblue" d="M139.706,-38.46C169.528,-32.6782 207.444,-25.3271 237.271,-19.5444"/>
<polygon fill="midnightblue" stroke="midnightblue" points="238.306,-22.909 247.457,-17.5695 236.974,-16.0369 238.306,-22.909"/>
</g>
<!-- Node4 -->
<g id="node3" class="node"><title>Node4</title>
<g id="a_node3"><a xlink:href="classnew_alignment.html#a670d5ef1ced9ed6041c3f6afdbd2cc02" target="_top" xlink:title="Alignment type getter. &#160;&#160;See SequenceTypes.">
<polygon fill="white" stroke="black" points="396,-76.5 396,-95.5 559,-95.5 559,-76.5 396,-76.5"/>
<text text-anchor="middle" x="477.5" y="-83.5" font-family="Helvetica,sans-Serif" font-size="10.00">newAlignment::getAlignmentType</text>
</a>
</g>
</g>
<!-- Node3&#45;&gt;Node4 -->
<g id="edge2" class="edge"><title>Node3&#45;&gt;Node4</title>
<path fill="none" stroke="midnightblue" d="M360.111,-86C368.539,-86 377.222,-86 385.866,-86"/>
<polygon fill="midnightblue" stroke="midnightblue" points="385.98,-89.5001 395.98,-86 385.98,-82.5001 385.98,-89.5001"/>
</g>
<!-- Node5 -->
<g id="node4" class="node"><title>Node5</title>
<g id="a_node4"><a xlink:href="classutils.html#a1f1dcbfa7276e54acec72bdbae1b1255" target="_top" xlink:title="Checks an alignment type. ">
<polygon fill="white" stroke="black" points="595,-76.5 595,-95.5 727,-95.5 727,-76.5 595,-76.5"/>
<text text-anchor="middle" x="661" y="-83.5" font-family="Helvetica,sans-Serif" font-size="10.00">utils::checkAlignmentType</text>
</a>
</g>
</g>
<!-- Node4&#45;&gt;Node5 -->
<g id="edge3" class="edge"><title>Node4&#45;&gt;Node5</title>
<path fill="none" stroke="midnightblue" d="M559.166,-86C567.646,-86 576.246,-86 584.664,-86"/>
<polygon fill="midnightblue" stroke="midnightblue" points="584.821,-89.5001 594.821,-86 584.821,-82.5001 584.821,-89.5001"/>
</g>
<!-- Node8 -->
<g id="node7" class="node"><title>Node8</title>
<g id="a_node7"><a xlink:href="classutils.html#a3377ecde55631d1bbc4956e5923b7469" target="_top" xlink:title="Swapping elements method. ">
<polygon fill="white" stroke="black" points="445.5,-0.5 445.5,-19.5 509.5,-19.5 509.5,-0.5 445.5,-0.5"/>
<text text-anchor="middle" x="477.5" y="-7.5" font-family="Helvetica,sans-Serif" font-size="10.00">utils::swap</text>
</a>
</g>
</g>
<!-- Node7&#45;&gt;Node8 -->
<g id="edge6" class="edge"><title>Node7&#45;&gt;Node8</title>
<path fill="none" stroke="midnightblue" d="M327.911,-10C359.253,-10 402.987,-10 434.89,-10"/>
<polygon fill="midnightblue" stroke="midnightblue" points="435.222,-13.5001 445.221,-10 435.221,-6.5001 435.222,-13.5001"/>
</g>
</g>
</svg>
