<?xml version="1.0" encoding="UTF-8" standalone="no"?>
<!DOCTYPE svg PUBLIC "-//W3C//DTD SVG 1.1//EN"
 "http://www.w3.org/Graphics/SVG/1.1/DTD/svg11.dtd">
<!-- Generated by graphviz version 2.40.1 (20161225.0304)
 -->
<!-- Title: trimAlManager::window_argument Pages: 1 -->
<svg width="285pt" height="78pt"
 viewBox="0.00 0.00 285.00 77.50" xmlns="http://www.w3.org/2000/svg" xmlns:xlink="http://www.w3.org/1999/xlink">
<g id="graph0" class="graph" transform="scale(1 1) rotate(0) translate(4 73.5)">
<title>trimAlManager::window_argument</title>
<polygon fill="#ffffff" stroke="transparent" points="-4,4 -4,-73.5 281,-73.5 281,4 -4,4"/>
<!-- Node1416 -->
<g id="node1" class="node">
<title>Node1416</title>
<polygon fill="#bfbfbf" stroke="#000000" points="0,-22.5 0,-52.5 119,-52.5 119,-22.5 0,-22.5"/>
<text text-anchor="start" x="8" y="-40.5" font-family="Helvetica,sans-Serif" font-size="10.00" fill="#000000">trimAlManager::window</text>
<text text-anchor="middle" x="59.5" y="-29.5" font-family="Helvetica,sans-Serif" font-size="10.00" fill="#000000">_argument</text>
</g>
<!-- Node1417 -->
<g id="node2" class="node">
<title>Node1417</title>
<g id="a_node2"><a xlink:href="namespaceutils.html#a32e6bab4fb43b096f983faedeefd0511" target="_top" xlink:title="String&#45;is&#45;number checking. ">
<polygon fill="#ffffff" stroke="#000000" points="174.5,-50 174.5,-69 257.5,-69 257.5,-50 174.5,-50"/>
<text text-anchor="middle" x="216" y="-57" font-family="Helvetica,sans-Serif" font-size="10.00" fill="#000000">utils::isNumber</text>
</a>
</g>
</g>
<!-- Node1416&#45;&gt;Node1417 -->
<g id="edge1" class="edge">
<title>Node1416&#45;&gt;Node1417</title>
<path fill="none" stroke="#191970" d="M119.1124,-45.88C133.8484,-47.9515 149.5206,-50.1547 163.8694,-52.1717"/>
<polygon fill="#191970" stroke="#191970" points="163.6613,-55.6768 174.0512,-53.603 164.6358,-48.745 163.6613,-55.6768"/>
</g>
<!-- Node1418 -->
<g id="node3" class="node">
<title>Node1418</title>
<g id="a_node3"><a xlink:href="classreporting_1_1report_manager.html#a6d122e673144584e0869bd33b8a5c1c6" target="_top" xlink:title="Method to report an Error. &#160;It will be displayed if Level &#160;is equal or higher to VerboseLevel::ERROR...">
<polygon fill="#ffffff" stroke="#000000" points="155,-.5 155,-30.5 277,-30.5 277,-.5 155,-.5"/>
<text text-anchor="start" x="163" y="-18.5" font-family="Helvetica,sans-Serif" font-size="10.00" fill="#000000">reporting::reportManager</text>
<text text-anchor="middle" x="216" y="-7.5" font-family="Helvetica,sans-Serif" font-size="10.00" fill="#000000">::report</text>
</a>
</g>
</g>
<!-- Node1416&#45;&gt;Node1418 -->
<g id="edge2" class="edge">
<title>Node1416&#45;&gt;Node1418</title>
<path fill="none" stroke="#191970" d="M119.1124,-29.12C127.5561,-27.933 136.3072,-26.7028 144.9406,-25.4892"/>
<polygon fill="#191970" stroke="#191970" points="145.5805,-28.9337 154.9958,-24.0757 144.606,-22.0019 145.5805,-28.9337"/>
</g>
</g>
</svg>
