<?xml version="1.0" encoding="UTF-8" standalone="no"?>
<!DOCTYPE svg PUBLIC "-//W3C//DTD SVG 1.1//EN"
 "http://www.w3.org/Graphics/SVG/1.1/DTD/svg11.dtd">
<!-- Generated by graphviz version 2.40.1 (20161225.0304)
 -->
<!-- Title: trimAlManager::output_reports Pages: 1 -->
<svg width="1434pt" height="508pt"
 viewBox="0.00 0.00 1434.00 507.50" xmlns="http://www.w3.org/2000/svg" xmlns:xlink="http://www.w3.org/1999/xlink">
<g id="graph0" class="graph" transform="scale(1 1) rotate(0) translate(4 503.5)">
<title>trimAlManager::output_reports</title>
<polygon fill="#ffffff" stroke="transparent" points="-4,4 -4,-503.5 1430,-503.5 1430,4 -4,4"/>
<!-- Node799 -->
<g id="node1" class="node">
<title>Node799</title>
<polygon fill="#bfbfbf" stroke="#000000" points="0,-291.5 0,-321.5 113,-321.5 113,-291.5 0,-291.5"/>
<text text-anchor="start" x="8" y="-309.5" font-family="Helvetica,sans-Serif" font-size="10.00" fill="#000000">trimAlManager::output</text>
<text text-anchor="middle" x="56.5" y="-298.5" font-family="Helvetica,sans-Serif" font-size="10.00" fill="#000000">_reports</text>
</g>
<!-- Node800 -->
<g id="node2" class="node">
<title>Node800</title>
<g id="a_node2"><a xlink:href="class_alignment.html#a3754dfadea173918f5e85b9eb4c3ad8a" target="_top" xlink:title="Method to report the trimming results in HTML. Outputs an HTML file that shows visually what has been...">
<polygon fill="#ffffff" stroke="#000000" points="149,-335 149,-354 326,-354 326,-335 149,-335"/>
<text text-anchor="middle" x="237.5" y="-342" font-family="Helvetica,sans-Serif" font-size="10.00" fill="#000000">Alignment::alignmentSummaryHTML</text>
</a>
</g>
</g>
<!-- Node799&#45;&gt;Node800 -->
<g id="edge1" class="edge">
<title>Node799&#45;&gt;Node800</title>
<path fill="none" stroke="#191970" d="M113.2729,-318.4192C135.2997,-323.0436 160.4371,-328.321 182.3106,-332.9133"/>
<polygon fill="#191970" stroke="#191970" points="181.6022,-336.3408 192.108,-334.9702 183.0405,-329.4901 181.6022,-336.3408"/>
</g>
<!-- Node807 -->
<g id="node9" class="node">
<title>Node807</title>
<g id="a_node9"><a xlink:href="classreporting_1_1report_manager.html#a6d122e673144584e0869bd33b8a5c1c6" target="_top" xlink:title="Method to report an Error. &#160;It will be displayed if Level &#160;is equal or higher to VerboseLevel::ERROR...">
<polygon fill="#ffffff" stroke="#000000" points="1188,-322.5 1188,-352.5 1310,-352.5 1310,-322.5 1188,-322.5"/>
<text text-anchor="start" x="1196" y="-340.5" font-family="Helvetica,sans-Serif" font-size="10.00" fill="#000000">reporting::reportManager</text>
<text text-anchor="middle" x="1249" y="-329.5" font-family="Helvetica,sans-Serif" font-size="10.00" fill="#000000">::report</text>
</a>
</g>
</g>
<!-- Node799&#45;&gt;Node807 -->
<g id="edge45" class="edge">
<title>Node799&#45;&gt;Node807</title>
<path fill="none" stroke="#191970" d="M71.9213,-321.6444C119.9594,-367.1423 272.9061,-499.5 426.5,-499.5 426.5,-499.5 426.5,-499.5 897,-499.5 1011.6942,-499.5 1046.79,-491.2917 1147,-435.5 1181.2458,-416.4337 1212.4383,-383.0475 1231.0728,-360.6091"/>
<polygon fill="#191970" stroke="#191970" points="1233.9917,-362.5668 1237.5799,-352.598 1228.5583,-358.1534 1233.9917,-362.5668"/>
</g>
<!-- Node825 -->
<g id="node27" class="node">
<title>Node825</title>
<g id="a_node27"><a xlink:href="class_alignment.html#ac4196c026e0f482eaccf9976f82f72e3" target="_top" xlink:title="Method to report the trimming results in SVG. Outputs a SVG file that shows visually what has been do...">
<polygon fill="#ffffff" stroke="#000000" points="152,-297 152,-316 323,-316 323,-297 152,-297"/>
<text text-anchor="middle" x="237.5" y="-304" font-family="Helvetica,sans-Serif" font-size="10.00" fill="#000000">Alignment::alignmentSummarySVG</text>
</a>
</g>
</g>
<!-- Node799&#45;&gt;Node825 -->
<g id="edge36" class="edge">
<title>Node799&#45;&gt;Node825</title>
<path fill="none" stroke="#191970" d="M113.2729,-306.5C122.3525,-306.5 131.9607,-306.5 141.6509,-306.5"/>
<polygon fill="#191970" stroke="#191970" points="141.7602,-310.0001 151.7602,-306.5 141.7601,-303.0001 141.7602,-310.0001"/>
</g>
<!-- Node826 -->
<g id="node28" class="node">
<title>Node826</title>
<g id="a_node28"><a xlink:href="namespaceutils.html#ab0cb109dc7e12b42abd4cba86f7d8e78" target="_top" xlink:title="Function that replaces a substring with another substring in a string. It makes a copy of the origina...">
<polygon fill="#ffffff" stroke="#000000" points="186.5,-259 186.5,-278 288.5,-278 288.5,-259 186.5,-259"/>
<text text-anchor="middle" x="237.5" y="-266" font-family="Helvetica,sans-Serif" font-size="10.00" fill="#000000">utils::ReplaceString</text>
</a>
</g>
</g>
<!-- Node799&#45;&gt;Node826 -->
<g id="edge43" class="edge">
<title>Node799&#45;&gt;Node826</title>
<path fill="none" stroke="#191970" d="M113.2729,-294.5808C135.2997,-289.9564 160.4371,-284.679 182.3106,-280.0867"/>
<polygon fill="#191970" stroke="#191970" points="183.0405,-283.5099 192.108,-278.0298 181.6022,-276.6592 183.0405,-283.5099"/>
</g>
<!-- Node827 -->
<g id="node29" class="node">
<title>Node827</title>
<g id="a_node29"><a xlink:href="namespaceutils.html#a6000246220e801bf6b1e6a553d7af13a" target="_top" xlink:title="Function that replaces a substring with another substring in a string. It does not make a copy of the...">
<polygon fill="#ffffff" stroke="#000000" points="170,-221 170,-240 305,-240 305,-221 170,-221"/>
<text text-anchor="middle" x="237.5" y="-228" font-family="Helvetica,sans-Serif" font-size="10.00" fill="#000000">utils::ReplaceStringInPlace</text>
</a>
</g>
</g>
<!-- Node799&#45;&gt;Node827 -->
<g id="edge44" class="edge">
<title>Node799&#45;&gt;Node827</title>
<path fill="none" stroke="#191970" d="M76.3661,-291.4666C94.4086,-278.5145 122.2182,-260.2551 149,-249.5 155.3686,-246.9425 162.1398,-244.7047 168.991,-242.7518"/>
<polygon fill="#191970" stroke="#191970" points="170.2764,-246.0322 179.0483,-240.0906 168.4857,-239.2651 170.2764,-246.0322"/>
</g>
<!-- Node801 -->
<g id="node3" class="node">
<title>Node801</title>
<g id="a_node3"><a xlink:href="namespaceutils.html#abdd283983860dbf73351209d1e8ab87f" target="_top" xlink:title="Checks the color that has to be used on the output report. ">
<polygon fill="#ffffff" stroke="#000000" points="373,-390 373,-409 480,-409 480,-390 373,-390"/>
<text text-anchor="middle" x="426.5" y="-397" font-family="Helvetica,sans-Serif" font-size="10.00" fill="#000000">utils::determineColor</text>
</a>
</g>
</g>
<!-- Node800&#45;&gt;Node801 -->
<g id="edge2" class="edge">
<title>Node800&#45;&gt;Node801</title>
<path fill="none" stroke="#191970" d="M270.4213,-354.0803C301.8981,-363.2402 349.5194,-377.0982 383.8799,-387.0973"/>
<polygon fill="#191970" stroke="#191970" points="383.0598,-390.5038 393.6394,-389.9374 385.0157,-383.7826 383.0598,-390.5038"/>
</g>
<!-- Node804 -->
<g id="node6" class="node">
<title>Node804</title>
<g id="a_node6"><a xlink:href="classstatistics_1_1_gaps.html#ab5b60db326475f8adc68b130e22b3963" target="_top" xlink:title="statistics::Gaps::getGaps\lWindow">
<polygon fill="#ffffff" stroke="#000000" points="833,-15.5 833,-45.5 961,-45.5 961,-15.5 833,-15.5"/>
<text text-anchor="start" x="841" y="-33.5" font-family="Helvetica,sans-Serif" font-size="10.00" fill="#000000">statistics::Gaps::getGaps</text>
<text text-anchor="middle" x="897" y="-22.5" font-family="Helvetica,sans-Serif" font-size="10.00" fill="#000000">Window</text>
</a>
</g>
</g>
<!-- Node800&#45;&gt;Node804 -->
<g id="edge5" class="edge">
<title>Node800&#45;&gt;Node804</title>
<path fill="none" stroke="#191970" d="M305.0399,-334.9676C312.3919,-332.4976 319.5405,-329.3951 326,-325.5 347.3443,-312.6293 341.202,-296.2359 362,-282.5 411.9797,-249.4912 436.8291,-269.0553 491,-243.5 508.3915,-235.2955 510.4311,-229.2596 527,-219.5 658.8809,-141.8175 696.1135,-129.9782 833,-61.5 840.4573,-57.7695 848.4343,-53.8496 856.1379,-50.1001"/>
<polygon fill="#191970" stroke="#191970" points="857.8748,-53.1476 865.3455,-45.635 854.8205,-46.8491 857.8748,-53.1476"/>
</g>
<!-- Node800&#45;&gt;Node807 -->
<g id="edge35" class="edge">
<title>Node800&#45;&gt;Node807</title>
<path fill="none" stroke="#191970" d="M250.1789,-354.0893C271.8752,-370.0105 318.0469,-401.7965 362,-418.5 456.5571,-454.4345 484.3449,-461.5 585.5,-461.5 585.5,-461.5 585.5,-461.5 897,-461.5 1020.2568,-461.5 1154.7037,-393.0269 1215.6473,-357.8459"/>
<polygon fill="#191970" stroke="#191970" points="1217.5741,-360.7737 1224.4403,-352.7048 1214.041,-354.7308 1217.5741,-360.7737"/>
</g>
<!-- Node810 -->
<g id="node12" class="node">
<title>Node810</title>
<g id="a_node12"><a xlink:href="classstatistics_1_1_similarity.html#a1b65c85328f09fa0637365d11fb386b4" target="_top" xlink:title="This methods returns a pointer to conservationWindow&#39;s vector. ">
<polygon fill="#ffffff" stroke="#000000" points="362,-291.5 362,-321.5 491,-321.5 491,-291.5 362,-291.5"/>
<text text-anchor="start" x="370" y="-309.5" font-family="Helvetica,sans-Serif" font-size="10.00" fill="#000000">statistics::Similarity</text>
<text text-anchor="middle" x="426.5" y="-298.5" font-family="Helvetica,sans-Serif" font-size="10.00" fill="#000000">::getMdkWindowedVector</text>
</a>
</g>
</g>
<!-- Node800&#45;&gt;Node810 -->
<g id="edge11" class="edge">
<title>Node800&#45;&gt;Node810</title>
<path fill="none" stroke="#191970" d="M285.1927,-334.911C305.3874,-330.8507 329.3976,-326.0232 351.8437,-321.5103"/>
<polygon fill="#191970" stroke="#191970" points="352.5744,-324.9335 361.6883,-319.5309 351.1946,-318.0708 352.5744,-324.9335"/>
</g>
<!-- Node821 -->
<g id="node23" class="node">
<title>Node821</title>
<g id="a_node23"><a xlink:href="classstatistics_1_1_consistency.html#ad3a0a265cb9460cd4633b027fe2437c9" target="_top" xlink:title="Stat Getter &#160;. ">
<polygon fill="#ffffff" stroke="#000000" points="368,-340.5 368,-370.5 485,-370.5 485,-340.5 368,-340.5"/>
<text text-anchor="start" x="376" y="-358.5" font-family="Helvetica,sans-Serif" font-size="10.00" fill="#000000">statistics::Consistency</text>
<text text-anchor="middle" x="426.5" y="-347.5" font-family="Helvetica,sans-Serif" font-size="10.00" fill="#000000">::getValues</text>
</a>
</g>
</g>
<!-- Node800&#45;&gt;Node821 -->
<g id="edge30" class="edge">
<title>Node800&#45;&gt;Node821</title>
<path fill="none" stroke="#191970" d="M326.1893,-349.6618C336.7632,-350.2772 347.4345,-350.8983 357.671,-351.4941"/>
<polygon fill="#191970" stroke="#191970" points="357.5563,-354.9932 367.7428,-352.0803 357.9631,-348.0051 357.5563,-354.9932"/>
</g>
<!-- Node824 -->
<g id="node26" class="node">
<title>Node824</title>
<g id="a_node26"><a xlink:href="namespaceutils.html#a40640e1942f00797e9fe8284e8fbdb14" target="_top" xlink:title="Maximum of two numbers method. ">
<polygon fill="#ffffff" stroke="#000000" points="397,-215 397,-234 456,-234 456,-215 397,-215"/>
<text text-anchor="middle" x="426.5" y="-222" font-family="Helvetica,sans-Serif" font-size="10.00" fill="#000000">utils::max</text>
</a>
</g>
</g>
<!-- Node800&#45;&gt;Node824 -->
<g id="edge34" class="edge">
<title>Node800&#45;&gt;Node824</title>
<path fill="none" stroke="#191970" d="M310.1293,-334.9178C315.818,-332.4132 321.2056,-329.3177 326,-325.5 355.553,-301.9675 334.2259,-274.1078 362,-248.5 369.0959,-241.9575 378.136,-237.1543 387.1868,-233.6441"/>
<polygon fill="#191970" stroke="#191970" points="388.5873,-236.8644 396.9205,-230.3216 386.326,-230.2397 388.5873,-236.8644"/>
</g>
<!-- Node802 -->
<g id="node4" class="node">
<title>Node802</title>
<g id="a_node4"><a xlink:href="namespaceutils.html#ae92af4829525774d9a4ab289d4265326" target="_top" xlink:title="Method to check for a pattern in a string. &#160;The method will check, character by character of the firs...">
<polygon fill="#ffffff" stroke="#000000" points="686.5,-414 686.5,-433 790.5,-433 790.5,-414 686.5,-414"/>
<text text-anchor="middle" x="738.5" y="-421" font-family="Helvetica,sans-Serif" font-size="10.00" fill="#000000">utils::lookForPattern</text>
</a>
</g>
</g>
<!-- Node801&#45;&gt;Node802 -->
<g id="edge3" class="edge">
<title>Node801&#45;&gt;Node802</title>
<path fill="none" stroke="#191970" d="M480.1347,-403.6257C534.6203,-407.8169 618.934,-414.3026 676.3119,-418.7163"/>
<polygon fill="#191970" stroke="#191970" points="676.1044,-422.2106 686.3434,-419.488 676.6413,-415.2312 676.1044,-422.2106"/>
</g>
<!-- Node803 -->
<g id="node5" class="node">
<title>Node803</title>
<g id="a_node5"><a xlink:href="namespaceutils.html#a6286fde6f4dd58ef0cfa9d55341b72f8" target="_top" xlink:title="utils::toUpper">
<polygon fill="#ffffff" stroke="#000000" points="1351,-214 1351,-233 1426,-233 1426,-214 1351,-214"/>
<text text-anchor="middle" x="1388.5" y="-221" font-family="Helvetica,sans-Serif" font-size="10.00" fill="#000000">utils::toUpper</text>
</a>
</g>
</g>
<!-- Node802&#45;&gt;Node803 -->
<g id="edge4" class="edge">
<title>Node802&#45;&gt;Node803</title>
<path fill="none" stroke="#191970" d="M790.4943,-433.0438C898.5608,-449.9013 1150.9995,-473.4765 1315,-362.5 1356.6804,-334.2956 1376.4469,-274.6258 1384.2459,-243.4379"/>
<polygon fill="#191970" stroke="#191970" points="1387.7364,-243.8806 1386.5961,-233.3473 1380.9189,-242.2926 1387.7364,-243.8806"/>
</g>
<!-- Node805 -->
<g id="node7" class="node">
<title>Node805</title>
<g id="a_node7"><a xlink:href="classstatistics_1_1_gaps.html#ad812a924cf5e3f900aad3ed4a9664300" target="_top" xlink:title="statistics::Gaps::isDefined\lWindow">
<polygon fill="#ffffff" stroke="#000000" points="1005.5,-.5 1005.5,-30.5 1138.5,-30.5 1138.5,-.5 1005.5,-.5"/>
<text text-anchor="start" x="1013.5" y="-18.5" font-family="Helvetica,sans-Serif" font-size="10.00" fill="#000000">statistics::Gaps::isDefined</text>
<text text-anchor="middle" x="1072" y="-7.5" font-family="Helvetica,sans-Serif" font-size="10.00" fill="#000000">Window</text>
</a>
</g>
</g>
<!-- Node804&#45;&gt;Node805 -->
<g id="edge6" class="edge">
<title>Node804&#45;&gt;Node805</title>
<path fill="none" stroke="#191970" d="M961.1698,-24.9997C972.3361,-24.0426 984.0492,-23.0386 995.5065,-22.0566"/>
<polygon fill="#191970" stroke="#191970" points="995.8245,-25.5423 1005.4891,-21.2009 995.2267,-18.5678 995.8245,-25.5423"/>
</g>
<!-- Node806 -->
<g id="node8" class="node">
<title>Node806</title>
<g id="a_node8"><a xlink:href="classstatistics_1_1_gaps.html#aee36b772767467cdba2061df2305e85d" target="_top" xlink:title="statistics::Gaps::applyWindow">
<polygon fill="#ffffff" stroke="#000000" points="997,-88 997,-107 1147,-107 1147,-88 997,-88"/>
<text text-anchor="middle" x="1072" y="-95" font-family="Helvetica,sans-Serif" font-size="10.00" fill="#000000">statistics::Gaps::applyWindow</text>
</a>
</g>
</g>
<!-- Node804&#45;&gt;Node806 -->
<g id="edge7" class="edge">
<title>Node804&#45;&gt;Node806</title>
<path fill="none" stroke="#191970" d="M924.8013,-45.6966C944.516,-56.0092 971.8349,-69.3762 997,-78.5 1003.8585,-80.9866 1011.1826,-83.2733 1018.4662,-85.333"/>
<polygon fill="#191970" stroke="#191970" points="1017.7586,-88.7673 1028.3255,-87.9984 1019.5855,-82.0099 1017.7586,-88.7673"/>
</g>
<!-- Node806&#45;&gt;Node807 -->
<g id="edge8" class="edge">
<title>Node806&#45;&gt;Node807</title>
<path fill="none" stroke="#191970" d="M1131.3872,-107.073C1137.0186,-109.5456 1142.3508,-112.6373 1147,-116.5 1209.2882,-168.2501 1235.479,-266.3644 1244.7114,-312.4289"/>
<polygon fill="#191970" stroke="#191970" points="1241.3107,-313.2818 1246.6147,-322.4534 1248.1878,-311.976 1241.3107,-313.2818"/>
</g>
<!-- Node808 -->
<g id="node10" class="node">
<title>Node808</title>
<g id="a_node10"><a xlink:href="namespaceutils.html#aac322cd1761fddedec8a5792e358eb32" target="_top" xlink:title="Vector initialization. ">
<polygon fill="#ffffff" stroke="#000000" points="1211,-126 1211,-145 1287,-145 1287,-126 1211,-126"/>
<text text-anchor="middle" x="1249" y="-133" font-family="Helvetica,sans-Serif" font-size="10.00" fill="#000000">utils::initlVect</text>
</a>
</g>
</g>
<!-- Node806&#45;&gt;Node808 -->
<g id="edge9" class="edge">
<title>Node806&#45;&gt;Node808</title>
<path fill="none" stroke="#191970" d="M1116.6646,-107.089C1142.3411,-112.6015 1174.6037,-119.5279 1200.8452,-125.1617"/>
<polygon fill="#191970" stroke="#191970" points="1200.4356,-128.6534 1210.9475,-127.3305 1201.905,-121.8094 1200.4356,-128.6534"/>
</g>
<!-- Node809 -->
<g id="node11" class="node">
<title>Node809</title>
<g id="a_node11"><a xlink:href="namespaceutils.html#ad50731aeb3c8f79ed8372516210dfc9d" target="_top" xlink:title="Round double to integer method. ">
<polygon fill="#ffffff" stroke="#000000" points="1211,-88 1211,-107 1287,-107 1287,-88 1211,-88"/>
<text text-anchor="middle" x="1249" y="-95" font-family="Helvetica,sans-Serif" font-size="10.00" fill="#000000">utils::roundInt</text>
</a>
</g>
</g>
<!-- Node806&#45;&gt;Node809 -->
<g id="edge10" class="edge">
<title>Node806&#45;&gt;Node809</title>
<path fill="none" stroke="#191970" d="M1147.0639,-97.5C1165.3223,-97.5 1184.3618,-97.5 1200.9757,-97.5"/>
<polygon fill="#191970" stroke="#191970" points="1200.9782,-101.0001 1210.9781,-97.5 1200.9781,-94.0001 1200.9782,-101.0001"/>
</g>
<!-- Node811 -->
<g id="node13" class="node">
<title>Node811</title>
<g id="a_node13"><a xlink:href="classstatistics_1_1_similarity.html#a4446bf070a858952dac45f5705d16780" target="_top" xlink:title="Returns if a windows size value has been defined or not. ">
<polygon fill="#ffffff" stroke="#000000" points="534,-228.5 534,-258.5 637,-258.5 637,-228.5 534,-228.5"/>
<text text-anchor="start" x="542" y="-246.5" font-family="Helvetica,sans-Serif" font-size="10.00" fill="#000000">statistics::Similarity</text>
<text text-anchor="middle" x="585.5" y="-235.5" font-family="Helvetica,sans-Serif" font-size="10.00" fill="#000000">::isDefinedWindow</text>
</a>
</g>
</g>
<!-- Node810&#45;&gt;Node811 -->
<g id="edge12" class="edge">
<title>Node810&#45;&gt;Node811</title>
<path fill="none" stroke="#191970" d="M464.5845,-291.4099C486.6285,-282.6755 514.5667,-271.6057 538.0333,-262.3076"/>
<polygon fill="#191970" stroke="#191970" points="539.4435,-265.5136 547.4511,-258.576 536.865,-259.0058 539.4435,-265.5136"/>
</g>
<!-- Node812 -->
<g id="node14" class="node">
<title>Node812</title>
<g id="a_node14"><a xlink:href="classstatistics_1_1_similarity.html#adcb5627b9704850e85433fc40c19db17" target="_top" xlink:title="Allows us compute the conservationWindow&#39;s values. ">
<polygon fill="#ffffff" stroke="#000000" points="534,-277.5 534,-307.5 637,-307.5 637,-277.5 534,-277.5"/>
<text text-anchor="start" x="542" y="-295.5" font-family="Helvetica,sans-Serif" font-size="10.00" fill="#000000">statistics::Similarity</text>
<text text-anchor="middle" x="585.5" y="-284.5" font-family="Helvetica,sans-Serif" font-size="10.00" fill="#000000">::applyWindow</text>
</a>
</g>
</g>
<!-- Node810&#45;&gt;Node812 -->
<g id="edge13" class="edge">
<title>Node810&#45;&gt;Node812</title>
<path fill="none" stroke="#191970" d="M491.1714,-300.8057C501.8567,-299.8648 512.9125,-298.8914 523.5293,-297.9565"/>
<polygon fill="#191970" stroke="#191970" points="523.893,-301.4381 533.5475,-297.0744 523.279,-294.4651 523.893,-301.4381"/>
</g>
<!-- Node812&#45;&gt;Node807 -->
<g id="edge29" class="edge">
<title>Node812&#45;&gt;Node807</title>
<path fill="none" stroke="#191970" d="M637.1379,-297.2903C687.1844,-301.8363 765.2528,-308.6725 833,-313.5 954.0496,-322.1257 1095.0852,-329.7524 1177.9351,-333.9855"/>
<polygon fill="#191970" stroke="#191970" points="1177.8276,-337.4844 1187.9925,-334.4973 1178.1834,-330.4935 1177.8276,-337.4844"/>
</g>
<!-- Node813 -->
<g id="node15" class="node">
<title>Node813</title>
<g id="a_node15"><a xlink:href="classstatistics_1_1_similarity.html#ae69ec0e79912ae23c8cfe97358c4794d" target="_top" xlink:title="Method to calculate the similarity values of a alignment matrix. ">
<polygon fill="#ffffff" stroke="#000000" points="687,-190.5 687,-220.5 790,-220.5 790,-190.5 687,-190.5"/>
<text text-anchor="start" x="695" y="-208.5" font-family="Helvetica,sans-Serif" font-size="10.00" fill="#000000">statistics::Similarity</text>
<text text-anchor="middle" x="738.5" y="-197.5" font-family="Helvetica,sans-Serif" font-size="10.00" fill="#000000">::calculateVectors</text>
</a>
</g>
</g>
<!-- Node812&#45;&gt;Node813 -->
<g id="edge14" class="edge">
<title>Node812&#45;&gt;Node813</title>
<path fill="none" stroke="#191970" d="M625.3265,-277.4105C631.6709,-274.6517 638.0873,-271.6436 644,-268.5 667.0412,-256.2497 691.515,-239.8283 709.7822,-226.8225"/>
<polygon fill="#191970" stroke="#191970" points="712.1498,-229.4305 718.2177,-220.7454 708.0581,-223.7509 712.1498,-229.4305"/>
</g>
<!-- Node813&#45;&gt;Node803 -->
<g id="edge26" class="edge">
<title>Node813&#45;&gt;Node803</title>
<path fill="none" stroke="#191970" d="M790.0477,-206.9275C912.9041,-210.3297 1221.5765,-218.8775 1340.629,-222.1743"/>
<polygon fill="#191970" stroke="#191970" points="1340.7868,-225.68 1350.8799,-222.4582 1340.9806,-218.6826 1340.7868,-225.68"/>
</g>
<!-- Node813&#45;&gt;Node804 -->
<g id="edge24" class="edge">
<title>Node813&#45;&gt;Node804</title>
<path fill="none" stroke="#191970" d="M778.7188,-190.3287C785.5272,-186.3344 791.999,-181.4355 797,-175.5 831.509,-134.543 797.7692,-100.8378 833,-60.5 836.0334,-57.0269 839.5553,-53.927 843.3569,-51.1656"/>
<polygon fill="#191970" stroke="#191970" points="845.4801,-53.9634 852.045,-45.6475 841.7271,-48.0544 845.4801,-53.9634"/>
</g>
<!-- Node814 -->
<g id="node16" class="node">
<title>Node814</title>
<g id="a_node16"><a xlink:href="classstatistics_1_1_similarity.html#a75bd235b3207235eefa7b52dff063c76" target="_top" xlink:title="Computes the matrix identity between alignment&#39;s columns. ">
<polygon fill="#ffffff" stroke="#000000" points="836.5,-103.5 836.5,-133.5 957.5,-133.5 957.5,-103.5 836.5,-103.5"/>
<text text-anchor="start" x="844.5" y="-121.5" font-family="Helvetica,sans-Serif" font-size="10.00" fill="#000000">statistics::Similarity</text>
<text text-anchor="middle" x="897" y="-110.5" font-family="Helvetica,sans-Serif" font-size="10.00" fill="#000000">::calculateMatrixIdentity</text>
</a>
</g>
</g>
<!-- Node813&#45;&gt;Node814 -->
<g id="edge15" class="edge">
<title>Node813&#45;&gt;Node814</title>
<path fill="none" stroke="#191970" d="M771.5236,-190.4043C780.0702,-186.0071 789.0883,-180.9155 797,-175.5 814.6652,-163.4082 814.7444,-154.6806 833,-143.5 836.1885,-141.5472 839.5555,-139.6979 843.0097,-137.9559"/>
<polygon fill="#191970" stroke="#191970" points="844.7285,-141.0156 852.2937,-133.5983 841.7541,-134.6789 844.7285,-141.0156"/>
</g>
<!-- Node815 -->
<g id="node17" class="node">
<title>Node815</title>
<g id="a_node17"><a xlink:href="class_alignment.html#ab2487799d9a7d593d7fbe1b8da9593f5" target="_top" xlink:title="Alignment type getter. &#160;&#160;See SequenceTypes. ">
<polygon fill="#ffffff" stroke="#000000" points="999.5,-50 999.5,-69 1144.5,-69 1144.5,-50 999.5,-50"/>
<text text-anchor="middle" x="1072" y="-57" font-family="Helvetica,sans-Serif" font-size="10.00" fill="#000000">Alignment::getAlignmentType</text>
</a>
</g>
</g>
<!-- Node813&#45;&gt;Node815 -->
<g id="edge25" class="edge">
<title>Node813&#45;&gt;Node815</title>
<path fill="none" stroke="#191970" d="M777.2721,-190.3666C784.4517,-186.3168 791.4313,-181.3874 797,-175.5 824.0713,-146.8793 801.6139,-118.3099 833,-94.5 857.1608,-76.1713 930.3085,-67.3812 989.3786,-63.2021"/>
<polygon fill="#191970" stroke="#191970" points="989.7346,-66.6861 999.4769,-62.5221 989.2643,-59.7019 989.7346,-66.6861"/>
</g>
<!-- Node817 -->
<g id="node19" class="node">
<title>Node817</title>
<g id="a_node19"><a xlink:href="classstatistics_1_1_manager.html#a1969a416d3020d25daa56de6c5e305db" target="_top" xlink:title="Method to handle gap stat calculation It checks if the gaps submodule has been created, otherwise, creates it. ">
<polygon fill="#ffffff" stroke="#000000" points="845.5,-152.5 845.5,-182.5 948.5,-182.5 948.5,-152.5 845.5,-152.5"/>
<text text-anchor="start" x="853.5" y="-170.5" font-family="Helvetica,sans-Serif" font-size="10.00" fill="#000000">statistics::Manager</text>
<text text-anchor="middle" x="897" y="-159.5" font-family="Helvetica,sans-Serif" font-size="10.00" fill="#000000">::calculateGapStats</text>
</a>
</g>
</g>
<!-- Node813&#45;&gt;Node817 -->
<g id="edge19" class="edge">
<title>Node813&#45;&gt;Node817</title>
<path fill="none" stroke="#191970" d="M790.3988,-193.0574C804.7032,-189.6279 820.3625,-185.8737 835.1686,-182.3239"/>
<polygon fill="#191970" stroke="#191970" points="836.347,-185.6407 845.2554,-179.9056 834.715,-178.8336 836.347,-185.6407"/>
</g>
<!-- Node820 -->
<g id="node22" class="node">
<title>Node820</title>
<g id="a_node22"><a xlink:href="classstatistics_1_1similarity_matrix.html#a0cdb3ed14678b442824e84e6385e8f84" target="_top" xlink:title="Method to get the similarity distance between two residues, A and B Characters provided must be both ...">
<polygon fill="#ffffff" stroke="#000000" points="833,-240.5 833,-270.5 961,-270.5 961,-240.5 833,-240.5"/>
<text text-anchor="start" x="841" y="-258.5" font-family="Helvetica,sans-Serif" font-size="10.00" fill="#000000">statistics::similarityMatrix</text>
<text text-anchor="middle" x="897" y="-247.5" font-family="Helvetica,sans-Serif" font-size="10.00" fill="#000000">::getDistance</text>
</a>
</g>
</g>
<!-- Node813&#45;&gt;Node820 -->
<g id="edge27" class="edge">
<title>Node813&#45;&gt;Node820</title>
<path fill="none" stroke="#191970" d="M786.0552,-220.5016C802.9047,-225.8169 822.0426,-231.8541 839.6227,-237.3999"/>
<polygon fill="#191970" stroke="#191970" points="838.6149,-240.752 849.2046,-240.4226 840.7209,-234.0762 838.6149,-240.752"/>
</g>
<!-- Node814&#45;&gt;Node815 -->
<g id="edge16" class="edge">
<title>Node814&#45;&gt;Node815</title>
<path fill="none" stroke="#191970" d="M931.2958,-103.4735C950.4091,-95.4321 974.7719,-85.726 997,-78.5 1004.4549,-76.0765 1012.4085,-73.7706 1020.246,-71.6545"/>
<polygon fill="#191970" stroke="#191970" points="1021.2792,-75.002 1030.0652,-69.0812 1019.5046,-68.2307 1021.2792,-75.002"/>
</g>
<!-- Node816 -->
<g id="node18" class="node">
<title>Node816</title>
<g id="a_node18"><a xlink:href="namespaceutils.html#aab52f9515717f06cafd6ab7fe2ebdcef" target="_top" xlink:title="Checks an alignment type. ">
<polygon fill="#ffffff" stroke="#000000" points="1183,-50 1183,-69 1315,-69 1315,-50 1183,-50"/>
<text text-anchor="middle" x="1249" y="-57" font-family="Helvetica,sans-Serif" font-size="10.00" fill="#000000">utils::checkAlignmentType</text>
</a>
</g>
</g>
<!-- Node815&#45;&gt;Node816 -->
<g id="edge17" class="edge">
<title>Node815&#45;&gt;Node816</title>
<path fill="none" stroke="#191970" d="M1144.5034,-59.5C1153.8282,-59.5 1163.3981,-59.5 1172.7802,-59.5"/>
<polygon fill="#191970" stroke="#191970" points="1172.8666,-63.0001 1182.8666,-59.5 1172.8665,-56.0001 1172.8666,-63.0001"/>
</g>
<!-- Node816&#45;&gt;Node803 -->
<g id="edge18" class="edge">
<title>Node816&#45;&gt;Node803</title>
<path fill="none" stroke="#191970" d="M1299.1703,-69.0829C1304.8753,-71.5392 1310.3138,-74.6246 1315,-78.5 1355.0971,-111.6592 1375.5607,-172.2591 1383.8739,-203.5795"/>
<polygon fill="#191970" stroke="#191970" points="1380.5802,-204.8361 1386.4008,-213.6889 1387.3713,-203.1386 1380.5802,-204.8361"/>
</g>
<!-- Node817&#45;&gt;Node806 -->
<g id="edge23" class="edge">
<title>Node817&#45;&gt;Node806</title>
<path fill="none" stroke="#191970" d="M942.1404,-152.4304C948.6043,-149.7419 955.0677,-146.7496 961,-143.5 978.5407,-133.8916 978.9547,-125.1237 997,-116.5 1001.9992,-114.1109 1007.3347,-111.9984 1012.7682,-110.1354"/>
<polygon fill="#191970" stroke="#191970" points="1014.1117,-113.3821 1022.6029,-107.0456 1012.0136,-106.7039 1014.1117,-113.3821"/>
</g>
<!-- Node818 -->
<g id="node20" class="node">
<title>Node818</title>
<g id="a_node20"><a xlink:href="classstatistics_1_1_gaps.html#a2f1d71bafa5e44e5f2c96771cf2a26ed" target="_top" xlink:title="statistics::Gaps::Gaps">
<polygon fill="#ffffff" stroke="#000000" points="1014.5,-126 1014.5,-145 1129.5,-145 1129.5,-126 1014.5,-126"/>
<text text-anchor="middle" x="1072" y="-133" font-family="Helvetica,sans-Serif" font-size="10.00" fill="#000000">statistics::Gaps::Gaps</text>
</a>
</g>
</g>
<!-- Node817&#45;&gt;Node818 -->
<g id="edge20" class="edge">
<title>Node817&#45;&gt;Node818</title>
<path fill="none" stroke="#191970" d="M948.5593,-158.072C967.793,-154.555 989.8309,-150.5252 1009.9132,-146.853"/>
<polygon fill="#191970" stroke="#191970" points="1010.6942,-150.2683 1019.9015,-145.0266 1009.435,-143.3825 1010.6942,-150.2683"/>
</g>
<!-- Node819 -->
<g id="node21" class="node">
<title>Node819</title>
<g id="a_node21"><a xlink:href="classstatistics_1_1_gaps.html#aa3526494d5100e062daa4afba755d0b1" target="_top" xlink:title="statistics::Gaps::Calculate\lVectors">
<polygon fill="#ffffff" stroke="#000000" points="1005.5,-164.5 1005.5,-194.5 1138.5,-194.5 1138.5,-164.5 1005.5,-164.5"/>
<text text-anchor="start" x="1013.5" y="-182.5" font-family="Helvetica,sans-Serif" font-size="10.00" fill="#000000">statistics::Gaps::Calculate</text>
<text text-anchor="middle" x="1072" y="-171.5" font-family="Helvetica,sans-Serif" font-size="10.00" fill="#000000">Vectors</text>
</a>
</g>
</g>
<!-- Node817&#45;&gt;Node819 -->
<g id="edge22" class="edge">
<title>Node817&#45;&gt;Node819</title>
<path fill="none" stroke="#191970" d="M948.5593,-171.0355C963.1154,-172.0336 979.2776,-173.1419 994.9828,-174.2188"/>
<polygon fill="#191970" stroke="#191970" points="994.9998,-177.7281 1005.2159,-174.9205 995.4788,-170.7445 994.9998,-177.7281"/>
</g>
<!-- Node818&#45;&gt;Node808 -->
<g id="edge21" class="edge">
<title>Node818&#45;&gt;Node808</title>
<path fill="none" stroke="#191970" d="M1129.9564,-135.5C1152.8473,-135.5 1178.8455,-135.5 1200.6939,-135.5"/>
<polygon fill="#191970" stroke="#191970" points="1200.7333,-139.0001 1210.7333,-135.5 1200.7332,-132.0001 1200.7333,-139.0001"/>
</g>
<!-- Node820&#45;&gt;Node807 -->
<g id="edge28" class="edge">
<title>Node820&#45;&gt;Node807</title>
<path fill="none" stroke="#191970" d="M961.1995,-257.0224C1012.4672,-259.6995 1085.6289,-266.8216 1147,-285.5 1171.4595,-292.9443 1197.0905,-306.0358 1216.5407,-317.2201"/>
<polygon fill="#191970" stroke="#191970" points="1214.8926,-320.3112 1225.2874,-322.3604 1218.4393,-314.2762 1214.8926,-320.3112"/>
</g>
<!-- Node822 -->
<g id="node24" class="node">
<title>Node822</title>
<g id="a_node24"><a xlink:href="classstatistics_1_1_consistency.html#af2c3e79d22ab32c549e3e41cd56afe72" target="_top" xlink:title="Method to check wether or not a window has been applied. ">
<polygon fill="#ffffff" stroke="#000000" points="527,-326.5 527,-356.5 644,-356.5 644,-326.5 527,-326.5"/>
<text text-anchor="start" x="535" y="-344.5" font-family="Helvetica,sans-Serif" font-size="10.00" fill="#000000">statistics::Consistency</text>
<text text-anchor="middle" x="585.5" y="-333.5" font-family="Helvetica,sans-Serif" font-size="10.00" fill="#000000">::isWindowDefined</text>
</a>
</g>
</g>
<!-- Node821&#45;&gt;Node822 -->
<g id="edge31" class="edge">
<title>Node821&#45;&gt;Node822</title>
<path fill="none" stroke="#191970" d="M485.254,-350.3267C495.5779,-349.4177 506.4037,-348.4645 516.9662,-347.5344"/>
<polygon fill="#191970" stroke="#191970" points="517.3331,-351.0158 526.9875,-346.652 516.719,-344.0427 517.3331,-351.0158"/>
</g>
<!-- Node823 -->
<g id="node25" class="node">
<title>Node823</title>
<g id="a_node25"><a xlink:href="classstatistics_1_1_consistency.html#a6fe619f559c7271eedd869581684f479" target="_top" xlink:title="Applies a new window to the alignment. ">
<polygon fill="#ffffff" stroke="#000000" points="680,-364.5 680,-394.5 797,-394.5 797,-364.5 680,-364.5"/>
<text text-anchor="start" x="688" y="-382.5" font-family="Helvetica,sans-Serif" font-size="10.00" fill="#000000">statistics::Consistency</text>
<text text-anchor="middle" x="738.5" y="-371.5" font-family="Helvetica,sans-Serif" font-size="10.00" fill="#000000">::applyWindow</text>
</a>
</g>
</g>
<!-- Node821&#45;&gt;Node823 -->
<g id="edge32" class="edge">
<title>Node821&#45;&gt;Node823</title>
<path fill="none" stroke="#191970" d="M485.1765,-362.3976C498.8885,-363.8775 513.4465,-365.3424 527,-366.5 574.4763,-370.555 628.0523,-373.8345 669.4025,-376.0853"/>
<polygon fill="#191970" stroke="#191970" points="669.4674,-379.5937 679.6407,-376.6352 669.8429,-372.6038 669.4674,-379.5937"/>
</g>
<!-- Node823&#45;&gt;Node807 -->
<g id="edge33" class="edge">
<title>Node823&#45;&gt;Node807</title>
<path fill="none" stroke="#191970" d="M797.1215,-376.7362C876.5504,-372.7051 1022.7201,-364.2734 1147,-351.5 1156.935,-350.4789 1167.3922,-349.2366 1177.6704,-347.9183"/>
<polygon fill="#191970" stroke="#191970" points="1178.4037,-351.3521 1187.8629,-346.58 1177.4924,-344.4117 1178.4037,-351.3521"/>
</g>
<!-- Node825&#45;&gt;Node801 -->
<g id="edge37" class="edge">
<title>Node825&#45;&gt;Node801</title>
<path fill="none" stroke="#191970" d="M307.7763,-316.1321C314.2312,-318.6022 320.4281,-321.677 326,-325.5 350.09,-342.0288 338.5466,-363.0797 362,-380.5 364.624,-382.449 367.4456,-384.1989 370.3902,-385.7701"/>
<polygon fill="#191970" stroke="#191970" points="368.9705,-388.9695 379.5183,-389.9672 371.8949,-382.6096 368.9705,-388.9695"/>
</g>
<!-- Node825&#45;&gt;Node804 -->
<g id="edge38" class="edge">
<title>Node825&#45;&gt;Node804</title>
<path fill="none" stroke="#191970" d="M311.9811,-296.968C317.0658,-294.4282 321.8202,-291.3123 326,-287.5 365.5701,-251.409 323.3067,-209.5294 362,-172.5 489.206,-50.7643 708.3725,-30.5451 822.7076,-28.8878"/>
<polygon fill="#191970" stroke="#191970" points="822.8038,-32.3871 832.7679,-28.7862 822.7331,-25.3874 822.8038,-32.3871"/>
</g>
<!-- Node825&#45;&gt;Node807 -->
<g id="edge42" class="edge">
<title>Node825&#45;&gt;Node807</title>
<path fill="none" stroke="#191970" d="M310.6626,-296.8436C316.1694,-294.3476 321.3728,-291.2748 326,-287.5 356.8412,-262.3402 328.6756,-227.2643 362,-205.5 410.0026,-174.1494 433.7263,-202.8851 491,-205.5 559.213,-208.6144 577.1005,-205.8188 644,-219.5 654.8096,-221.7106 822.2275,-278.115 833,-280.5 970.303,-310.8987 1007.9328,-298.607 1147,-319.5 1157.0394,-321.0083 1167.6116,-322.7268 1177.9933,-324.4894"/>
<polygon fill="#191970" stroke="#191970" points="1177.4162,-327.9414 1187.8648,-326.1874 1178.6029,-321.0427 1177.4162,-327.9414"/>
</g>
<!-- Node825&#45;&gt;Node810 -->
<g id="edge39" class="edge">
<title>Node825&#45;&gt;Node810</title>
<path fill="none" stroke="#191970" d="M323.1522,-306.5C332.6918,-306.5 342.3527,-306.5 351.7415,-306.5"/>
<polygon fill="#191970" stroke="#191970" points="351.804,-310.0001 361.8039,-306.5 351.8039,-303.0001 351.804,-310.0001"/>
</g>
<!-- Node825&#45;&gt;Node821 -->
<g id="edge40" class="edge">
<title>Node825&#45;&gt;Node821</title>
<path fill="none" stroke="#191970" d="M285.428,-316.0711C298.6248,-318.9015 312.9081,-322.1462 326,-325.5 340.1168,-329.1164 355.2293,-333.4036 369.3352,-337.5888"/>
<polygon fill="#191970" stroke="#191970" points="368.3315,-340.9418 378.9154,-340.4605 370.3415,-334.2365 368.3315,-340.9418"/>
</g>
<!-- Node825&#45;&gt;Node824 -->
<g id="edge41" class="edge">
<title>Node825&#45;&gt;Node824</title>
<path fill="none" stroke="#191970" d="M303.933,-296.9545C311.6402,-294.4908 319.1751,-291.3934 326,-287.5 346.4895,-275.8113 342.4094,-261.6397 362,-248.5 369.6421,-243.3744 378.5237,-239.1606 387.2073,-235.7739"/>
<polygon fill="#191970" stroke="#191970" points="388.6305,-238.9814 396.8508,-232.2972 386.2564,-232.3963 388.6305,-238.9814"/>
</g>
</g>
</svg>
