<?xml version="1.0" encoding="UTF-8" standalone="no"?>
<!DOCTYPE svg PUBLIC "-//W3C//DTD SVG 1.1//EN"
 "http://www.w3.org/Graphics/SVG/1.1/DTD/svg11.dtd">
<!-- Generated by graphviz version 2.40.1 (20161225.0304)
 -->
<!-- Title: trimAlManager::in_argument Pages: 1 -->
<svg width="414pt" height="28pt"
 viewBox="0.00 0.00 414.00 28.00" xmlns="http://www.w3.org/2000/svg" xmlns:xlink="http://www.w3.org/1999/xlink">
<g id="graph0" class="graph" transform="scale(1 1) rotate(0) translate(4 24)">
<title>trimAlManager::in_argument</title>
<polygon fill="#ffffff" stroke="transparent" points="-4,4 -4,-24 410,-24 410,4 -4,4"/>
<!-- Node656 -->
<g id="node1" class="node">
<title>Node656</title>
<polygon fill="#bfbfbf" stroke="#000000" points="0,-.5 0,-19.5 139,-19.5 139,-.5 0,-.5"/>
<text text-anchor="middle" x="69.5" y="-7.5" font-family="Helvetica,sans-Serif" font-size="10.00" fill="#000000">trimAlManager::in_argument</text>
</g>
<!-- Node657 -->
<g id="node2" class="node">
<title>Node657</title>
<g id="a_node2"><a xlink:href="classtrim_al_manager.html#af3b0625b6bcc6df5978e63530a5956e6" target="_top" xlink:title="Method to parse arguments into usable structure in trimal. ">
<polygon fill="#ffffff" stroke="#000000" points="175,-.5 175,-19.5 332,-19.5 332,-.5 175,-.5"/>
<text text-anchor="middle" x="253.5" y="-7.5" font-family="Helvetica,sans-Serif" font-size="10.00" fill="#000000">trimAlManager::parseArguments</text>
</a>
</g>
</g>
<!-- Node656&#45;&gt;Node657 -->
<g id="edge1" class="edge">
<title>Node656&#45;&gt;Node657</title>
<path fill="none" stroke="#191970" d="M149.321,-10C157.8046,-10 166.4288,-10 174.8983,-10"/>
<polygon fill="#191970" stroke="#191970" points="149.0625,-6.5001 139.0625,-10 149.0625,-13.5001 149.0625,-6.5001"/>
</g>
<!-- Node658 -->
<g id="node3" class="node">
<title>Node658</title>
<g id="a_node3"><a xlink:href="trim_al_main_8cpp.html#a0ddf1224851353fc92bfbff6f499fa97" target="_top" xlink:title="main">
<polygon fill="#ffffff" stroke="#000000" points="368,-.5 368,-19.5 406,-19.5 406,-.5 368,-.5"/>
<text text-anchor="middle" x="387" y="-7.5" font-family="Helvetica,sans-Serif" font-size="10.00" fill="#000000">main</text>
</a>
</g>
</g>
<!-- Node657&#45;&gt;Node658 -->
<g id="edge2" class="edge">
<title>Node657&#45;&gt;Node658</title>
<path fill="none" stroke="#191970" d="M342.5766,-10C351.8353,-10 360.4462,-10 367.5746,-10"/>
<polygon fill="#191970" stroke="#191970" points="342.3153,-6.5001 332.3152,-10 342.3152,-13.5001 342.3153,-6.5001"/>
</g>
</g>
</svg>
