<?xml version="1.0" encoding="UTF-8" standalone="no"?>
<!DOCTYPE svg PUBLIC "-//W3C//DTD SVG 1.1//EN"
 "http://www.w3.org/Graphics/SVG/1.1/DTD/svg11.dtd">
<!-- Generated by graphviz version 2.38.0 (20140413.2041)
 -->
<!-- Title: statisticsConservation::getMdkWindowedVector Pages: 1 -->
<svg width="1029pt" height="169pt"
 viewBox="0.00 0.00 1029.00 168.96" xmlns="http://www.w3.org/2000/svg" xmlns:xlink="http://www.w3.org/1999/xlink">
<g id="graph0" class="graph" transform="scale(1 1) rotate(0) translate(4 164.957)">
<title>statisticsConservation::getMdkWindowedVector</title>
<polygon fill="white" stroke="none" points="-4,4 -4,-164.957 1025,-164.957 1025,4 -4,4"/>
<!-- Node61 -->
<g id="node1" class="node"><title>Node61</title>
<polygon fill="#bfbfbf" stroke="black" points="0,-61.4316 0,-91.4316 129,-91.4316 129,-61.4316 0,-61.4316"/>
<text text-anchor="start" x="8" y="-79.4316" font-family="Helvetica,sans-Serif" font-size="10.00">statisticsConservation</text>
<text text-anchor="middle" x="64.5" y="-68.4316" font-family="Helvetica,sans-Serif" font-size="10.00">::getMdkWindowedVector</text>
</g>
<!-- Node62 -->
<g id="node2" class="node"><title>Node62</title>
<g id="a_node2"><a xlink:href="class_cleaner.html#a694d53fdd5d1ac9455858e48537af3d0" target="_top" xlink:title="Method to trim an alignment based on the similarity distribution values. ">
<polygon fill="white" stroke="black" points="396,-129.932 396,-148.932 533,-148.932 533,-129.932 396,-129.932"/>
<text text-anchor="middle" x="464.5" y="-136.932" font-family="Helvetica,sans-Serif" font-size="10.00">Cleaner::cleanConservation</text>
</a>
</g>
</g>
<!-- Node61&#45;&gt;Node62 -->
<g id="edge1" class="edge"><title>Node61&#45;&gt;Node62</title>
<path fill="none" stroke="midnightblue" d="M88.6109,-98.269C107.507,-114.527 135.79,-135.404 165,-144.432 250.792,-170.947 357.176,-159.283 416.988,-148.973"/>
<polygon fill="midnightblue" stroke="midnightblue" points="90.9198,-95.6386 81.1117,-91.6322 86.2807,-100.881 90.9198,-95.6386"/>
</g>
<!-- Node66 -->
<g id="node6" class="node"><title>Node66</title>
<g id="a_node6"><a xlink:href="class_cleaner.html#a1ac5ba504932526d77575365557a4d64" target="_top" xlink:title="Method to trim an alignment based on the similarity and gaps distribution values. ...">
<polygon fill="white" stroke="black" points="424.5,-91.9316 424.5,-110.932 504.5,-110.932 504.5,-91.9316 424.5,-91.9316"/>
<text text-anchor="middle" x="464.5" y="-98.9316" font-family="Helvetica,sans-Serif" font-size="10.00">Cleaner::clean</text>
</a>
</g>
</g>
<!-- Node61&#45;&gt;Node66 -->
<g id="edge5" class="edge"><title>Node61&#45;&gt;Node66</title>
<path fill="none" stroke="midnightblue" d="M92.9197,-55.4842C111.995,-42.281 138.64,-26.447 165,-19.4316 248.751,2.85826 278.151,9.06215 360,-19.4316 402.002,-34.0535 439.782,-73.605 455.619,-91.9051"/>
<polygon fill="midnightblue" stroke="midnightblue" points="90.8331,-52.6733 84.7166,-61.3242 94.8929,-58.3758 90.8331,-52.6733"/>
</g>
<!-- Node67 -->
<g id="node7" class="node"><title>Node67</title>
<g id="a_node7"><a xlink:href="class_cleaner.html#a068b219f913adba5c917a231cff7e437" target="_top" xlink:title="Method to clean an alignment. It carries out strict and strictplus. The method: ">
<polygon fill="white" stroke="black" points="191,-66.9316 191,-85.9316 334,-85.9316 334,-66.9316 191,-66.9316"/>
<text text-anchor="middle" x="262.5" y="-73.9316" font-family="Helvetica,sans-Serif" font-size="10.00">Cleaner::cleanCombMethods</text>
</a>
</g>
</g>
<!-- Node61&#45;&gt;Node67 -->
<g id="edge7" class="edge"><title>Node61&#45;&gt;Node67</title>
<path fill="none" stroke="midnightblue" d="M139.448,-76.4316C156.249,-76.4316 174.056,-76.4316 190.722,-76.4316"/>
<polygon fill="midnightblue" stroke="midnightblue" points="139.136,-72.9317 129.136,-76.4316 139.136,-79.9317 139.136,-72.9317"/>
</g>
<!-- Node68 -->
<g id="node8" class="node"><title>Node68</title>
<g id="a_node8"><a xlink:href="classnew_alignment.html#a2607115c839209324dca54d70fc8708d" target="_top" xlink:title="Method to report the trimming results in HTML. Outputs an HTML file that shows visually what has been...">
<polygon fill="white" stroke="black" points="165,-28.9316 165,-47.9316 360,-47.9316 360,-28.9316 165,-28.9316"/>
<text text-anchor="middle" x="262.5" y="-35.9316" font-family="Helvetica,sans-Serif" font-size="10.00">newAlignment::alignmentSummaryHTML</text>
</a>
</g>
</g>
<!-- Node61&#45;&gt;Node68 -->
<g id="edge8" class="edge"><title>Node61&#45;&gt;Node68</title>
<path fill="none" stroke="midnightblue" d="M139.121,-62.1581C163.621,-57.4082 190.291,-52.2375 212.462,-47.939"/>
<polygon fill="midnightblue" stroke="midnightblue" points="138.287,-58.7546 129.136,-64.0941 139.619,-65.6267 138.287,-58.7546"/>
</g>
<!-- Node69 -->
<g id="node9" class="node"><title>Node69</title>
<g id="a_node9"><a xlink:href="classstatistics_conservation.html#aa11412e9db5babc6dc7b2b4c7c471ed6" target="_top" xlink:title="Computes and selects the cut point values based on conservation&#39;s values. ">
<polygon fill="white" stroke="black" points="205.5,-105.432 205.5,-135.432 319.5,-135.432 319.5,-105.432 205.5,-105.432"/>
<text text-anchor="start" x="213.5" y="-123.432" font-family="Helvetica,sans-Serif" font-size="10.00">statisticsConservation</text>
<text text-anchor="middle" x="262.5" y="-112.432" font-family="Helvetica,sans-Serif" font-size="10.00">::calcCutPoint</text>
</a>
</g>
</g>
<!-- Node61&#45;&gt;Node69 -->
<g id="edge9" class="edge"><title>Node61&#45;&gt;Node69</title>
<path fill="none" stroke="midnightblue" d="M139.091,-92.9521C161.065,-97.885 184.787,-103.21 205.445,-107.848"/>
<polygon fill="midnightblue" stroke="midnightblue" points="139.659,-89.4926 129.136,-90.7171 138.126,-96.3226 139.659,-89.4926"/>
</g>
<!-- Node63 -->
<g id="node3" class="node"><title>Node63</title>
<g id="a_node3"><a xlink:href="classtrim_al_manager.html#aebfd21b0435302f0e4fc45a068d1b6ee" target="_top" xlink:title="Method to trim the alignment using non automatic methods: ">
<polygon fill="white" stroke="black" points="569,-105.432 569,-135.432 721,-135.432 721,-105.432 569,-105.432"/>
<text text-anchor="start" x="577" y="-123.432" font-family="Helvetica,sans-Serif" font-size="10.00">trimAlManager::CleanResidues</text>
<text text-anchor="middle" x="645" y="-112.432" font-family="Helvetica,sans-Serif" font-size="10.00">NonAuto</text>
</a>
</g>
</g>
<!-- Node62&#45;&gt;Node63 -->
<g id="edge2" class="edge"><title>Node62&#45;&gt;Node63</title>
<path fill="none" stroke="midnightblue" d="M543.439,-131.136C551.875,-130.238 560.449,-129.325 568.851,-128.431"/>
<polygon fill="midnightblue" stroke="midnightblue" points="542.811,-127.683 533.238,-132.221 543.552,-134.643 542.811,-127.683"/>
</g>
<!-- Node64 -->
<g id="node4" class="node"><title>Node64</title>
<g id="a_node4"><a xlink:href="classtrim_al_manager.html#adc529dd893ed4e9df6f3ddbd58776068" target="_top" xlink:title="Core Method of the program. This is where almost all cleaning methods are called from. ">
<polygon fill="white" stroke="black" points="757,-105.432 757,-135.432 866,-135.432 866,-105.432 757,-105.432"/>
<text text-anchor="start" x="765" y="-123.432" font-family="Helvetica,sans-Serif" font-size="10.00">trimAlManager::clean</text>
<text text-anchor="middle" x="811.5" y="-112.432" font-family="Helvetica,sans-Serif" font-size="10.00">_alignment</text>
</a>
</g>
</g>
<!-- Node63&#45;&gt;Node64 -->
<g id="edge3" class="edge"><title>Node63&#45;&gt;Node64</title>
<path fill="none" stroke="midnightblue" d="M731.208,-120.432C739.881,-120.432 748.511,-120.432 756.709,-120.432"/>
<polygon fill="midnightblue" stroke="midnightblue" points="731.029,-116.932 721.029,-120.432 731.029,-123.932 731.029,-116.932"/>
</g>
<!-- Node65 -->
<g id="node5" class="node"><title>Node65</title>
<g id="a_node5"><a xlink:href="classtrim_al_manager.html#abe8d2841455c644dc9c7d1294b82b00f" target="_top" xlink:title="Method to perform the analysis if all checks have passed. ">
<polygon fill="white" stroke="black" points="902,-110.932 902,-129.932 1021,-129.932 1021,-110.932 902,-110.932"/>
<text text-anchor="middle" x="961.5" y="-117.932" font-family="Helvetica,sans-Serif" font-size="10.00">trimAlManager::perform</text>
</a>
</g>
</g>
<!-- Node64&#45;&gt;Node65 -->
<g id="edge4" class="edge"><title>Node64&#45;&gt;Node65</title>
<path fill="none" stroke="midnightblue" d="M876.532,-120.432C884.977,-120.432 893.597,-120.432 901.943,-120.432"/>
<polygon fill="midnightblue" stroke="midnightblue" points="876.35,-116.932 866.35,-120.432 876.35,-123.932 876.35,-116.932"/>
</g>
<!-- Node66&#45;&gt;Node63 -->
<g id="edge6" class="edge"><title>Node66&#45;&gt;Node63</title>
<path fill="none" stroke="midnightblue" d="M514.773,-106.676C531.532,-108.46 550.661,-110.496 568.971,-112.445"/>
<polygon fill="midnightblue" stroke="midnightblue" points="514.987,-103.179 504.673,-105.601 514.246,-110.14 514.987,-103.179"/>
</g>
<!-- Node69&#45;&gt;Node62 -->
<g id="edge10" class="edge"><title>Node69&#45;&gt;Node62</title>
<path fill="none" stroke="midnightblue" d="M329.958,-126.745C351.178,-128.761 374.678,-130.993 395.973,-133.017"/>
<polygon fill="midnightblue" stroke="midnightblue" points="330.03,-123.236 319.743,-125.775 329.368,-130.205 330.03,-123.236"/>
</g>
<!-- Node69&#45;&gt;Node66 -->
<g id="edge11" class="edge"><title>Node69&#45;&gt;Node66</title>
<path fill="none" stroke="midnightblue" d="M329.739,-114.139C361.127,-111.157 397.543,-107.698 424.446,-105.142"/>
<polygon fill="midnightblue" stroke="midnightblue" points="329.368,-110.658 319.743,-115.088 330.03,-117.627 329.368,-110.658"/>
</g>
</g>
</svg>
