<?xml version="1.0" encoding="UTF-8" standalone="no"?>
<!DOCTYPE svg PUBLIC "-//W3C//DTD SVG 1.1//EN"
 "http://www.w3.org/Graphics/SVG/1.1/DTD/svg11.dtd">
<!-- Generated by graphviz version 2.40.1 (20161225.0304)
 -->
<!-- Title: Cleaner::clean2ndSlope Pages: 1 -->
<svg width="795pt" height="424pt"
 viewBox="0.00 0.00 795.00 423.50" xmlns="http://www.w3.org/2000/svg" xmlns:xlink="http://www.w3.org/1999/xlink">
<g id="graph0" class="graph" transform="scale(1 1) rotate(0) translate(4 419.5)">
<title>Cleaner::clean2ndSlope</title>
<polygon fill="#ffffff" stroke="transparent" points="-4,4 -4,-419.5 791,-419.5 791,4 -4,4"/>
<!-- Node135 -->
<g id="node1" class="node">
<title>Node135</title>
<polygon fill="#bfbfbf" stroke="#000000" points="0,-289 0,-308 120,-308 120,-289 0,-289"/>
<text text-anchor="middle" x="60" y="-296" font-family="Helvetica,sans-Serif" font-size="10.00" fill="#000000">Cleaner::clean2ndSlope</text>
</g>
<!-- Node136 -->
<g id="node2" class="node">
<title>Node136</title>
<g id="a_node2"><a xlink:href="classstatistics_1_1_gaps.html#a70d46d69ad3564e1ec068d5f9d7e3e84" target="_top" xlink:title="statistics::Gaps::calcCut\lPoint2ndSlope">
<polygon fill="#ffffff" stroke="#000000" points="159.5,-373.5 159.5,-403.5 284.5,-403.5 284.5,-373.5 159.5,-373.5"/>
<text text-anchor="start" x="167.5" y="-391.5" font-family="Helvetica,sans-Serif" font-size="10.00" fill="#000000">statistics::Gaps::calcCut</text>
<text text-anchor="middle" x="222" y="-380.5" font-family="Helvetica,sans-Serif" font-size="10.00" fill="#000000">Point2ndSlope</text>
</a>
</g>
</g>
<!-- Node135&#45;&gt;Node136 -->
<g id="edge1" class="edge">
<title>Node135&#45;&gt;Node136</title>
<path fill="none" stroke="#191970" d="M77.3368,-308.1316C103.0772,-322.4318 151.9887,-349.6048 185.7634,-368.3685"/>
<polygon fill="#191970" stroke="#191970" points="184.415,-371.6233 194.8563,-373.4202 187.8145,-365.5041 184.415,-371.6233"/>
</g>
<!-- Node138 -->
<g id="node4" class="node">
<title>Node138</title>
<g id="a_node4"><a xlink:href="classstatistics_1_1_manager.html#a1969a416d3020d25daa56de6c5e305db" target="_top" xlink:title="Method to handle gap stat calculation It checks if the gaps submodule has been created, otherwise, creates it. ">
<polygon fill="#ffffff" stroke="#000000" points="170.5,-308.5 170.5,-338.5 273.5,-338.5 273.5,-308.5 170.5,-308.5"/>
<text text-anchor="start" x="178.5" y="-326.5" font-family="Helvetica,sans-Serif" font-size="10.00" fill="#000000">statistics::Manager</text>
<text text-anchor="middle" x="222" y="-315.5" font-family="Helvetica,sans-Serif" font-size="10.00" fill="#000000">::calculateGapStats</text>
</a>
</g>
</g>
<!-- Node135&#45;&gt;Node138 -->
<g id="edge3" class="edge">
<title>Node135&#45;&gt;Node138</title>
<path fill="none" stroke="#191970" d="M120.3228,-307.8091C133.4413,-309.8335 147.3353,-311.9777 160.4989,-314.0091"/>
<polygon fill="#191970" stroke="#191970" points="159.9809,-317.4705 170.3978,-315.5367 161.0486,-310.5524 159.9809,-317.4705"/>
</g>
<!-- Node145 -->
<g id="node11" class="node">
<title>Node145</title>
<g id="a_node11"><a xlink:href="class_cleaner.html#a13ae2074afb38708bc5cee9489d8ab6f" target="_top" xlink:title="Method to clean an alignment. &#160;It removes sequences that overpass or equals a certain threshold...">
<polygon fill="#ffffff" stroke="#000000" points="156,-110.5 156,-140.5 288,-140.5 288,-110.5 156,-110.5"/>
<text text-anchor="start" x="164" y="-128.5" font-family="Helvetica,sans-Serif" font-size="10.00" fill="#000000">Cleaner::cleanByCutValue</text>
<text text-anchor="middle" x="222" y="-117.5" font-family="Helvetica,sans-Serif" font-size="10.00" fill="#000000">Overpass</text>
</a>
</g>
</g>
<!-- Node135&#45;&gt;Node145 -->
<g id="edge11" class="edge">
<title>Node135&#45;&gt;Node145</title>
<path fill="none" stroke="#191970" d="M68.9406,-288.9523C93.8969,-262.3015 164.826,-186.5562 200.6864,-148.2608"/>
<polygon fill="#191970" stroke="#191970" points="203.4967,-150.3802 207.7772,-140.6886 198.3872,-145.5956 203.4967,-150.3802"/>
</g>
<!-- Node157 -->
<g id="node23" class="node">
<title>Node157</title>
<g id="a_node23"><a xlink:href="classstatistics_1_1_gaps.html#ab5b60db326475f8adc68b130e22b3963" target="_top" xlink:title="statistics::Gaps::getGaps\lWindow">
<polygon fill="#ffffff" stroke="#000000" points="158,-259.5 158,-289.5 286,-289.5 286,-259.5 158,-259.5"/>
<text text-anchor="start" x="166" y="-277.5" font-family="Helvetica,sans-Serif" font-size="10.00" fill="#000000">statistics::Gaps::getGaps</text>
<text text-anchor="middle" x="222" y="-266.5" font-family="Helvetica,sans-Serif" font-size="10.00" fill="#000000">Window</text>
</a>
</g>
</g>
<!-- Node135&#45;&gt;Node157 -->
<g id="edge25" class="edge">
<title>Node135&#45;&gt;Node157</title>
<path fill="none" stroke="#191970" d="M120.3228,-289.5633C129.3075,-288.2322 138.6558,-286.8473 147.8842,-285.4801"/>
<polygon fill="#191970" stroke="#191970" points="148.4488,-288.9348 157.8279,-284.007 147.4229,-282.0103 148.4488,-288.9348"/>
</g>
<!-- Node137 -->
<g id="node3" class="node">
<title>Node137</title>
<g id="a_node3"><a xlink:href="namespaceutils.html#a54839bee4863694819d990565e1e92cd" target="_top" xlink:title="Vector initialization. ">
<polygon fill="#ffffff" stroke="#000000" points="362,-396 362,-415 438,-415 438,-396 362,-396"/>
<text text-anchor="middle" x="400" y="-403" font-family="Helvetica,sans-Serif" font-size="10.00" fill="#000000">utils::initlVect</text>
</a>
</g>
</g>
<!-- Node136&#45;&gt;Node137 -->
<g id="edge2" class="edge">
<title>Node136&#45;&gt;Node137</title>
<path fill="none" stroke="#191970" d="M284.5058,-394.4697C306.5296,-396.5731 330.9349,-398.9039 351.6156,-400.879"/>
<polygon fill="#191970" stroke="#191970" points="351.4617,-404.3802 361.7492,-401.8468 352.1273,-397.4119 351.4617,-404.3802"/>
</g>
<!-- Node139 -->
<g id="node5" class="node">
<title>Node139</title>
<g id="a_node5"><a xlink:href="classstatistics_1_1_gaps.html#a2f1d71bafa5e44e5f2c96771cf2a26ed" target="_top" xlink:title="statistics::Gaps::Gaps">
<polygon fill="#ffffff" stroke="#000000" points="342.5,-358 342.5,-377 457.5,-377 457.5,-358 342.5,-358"/>
<text text-anchor="middle" x="400" y="-365" font-family="Helvetica,sans-Serif" font-size="10.00" fill="#000000">statistics::Gaps::Gaps</text>
</a>
</g>
</g>
<!-- Node138&#45;&gt;Node139 -->
<g id="edge4" class="edge">
<title>Node138&#45;&gt;Node139</title>
<path fill="none" stroke="#191970" d="M273.9635,-336.3449C298.4758,-342.4041 327.55,-349.591 351.5939,-355.5344"/>
<polygon fill="#191970" stroke="#191970" points="351.0147,-358.9966 361.5624,-357.9986 352.6945,-352.2011 351.0147,-358.9966"/>
</g>
<!-- Node141 -->
<g id="node7" class="node">
<title>Node141</title>
<g id="a_node7"><a xlink:href="classstatistics_1_1_gaps.html#aa3526494d5100e062daa4afba755d0b1" target="_top" xlink:title="statistics::Gaps::Calculate\lVectors">
<polygon fill="#ffffff" stroke="#000000" points="333.5,-308.5 333.5,-338.5 466.5,-338.5 466.5,-308.5 333.5,-308.5"/>
<text text-anchor="start" x="341.5" y="-326.5" font-family="Helvetica,sans-Serif" font-size="10.00" fill="#000000">statistics::Gaps::Calculate</text>
<text text-anchor="middle" x="400" y="-315.5" font-family="Helvetica,sans-Serif" font-size="10.00" fill="#000000">Vectors</text>
</a>
</g>
</g>
<!-- Node138&#45;&gt;Node141 -->
<g id="edge6" class="edge">
<title>Node138&#45;&gt;Node141</title>
<path fill="none" stroke="#191970" d="M273.9635,-323.5C289.3446,-323.5 306.5219,-323.5 323.1255,-323.5"/>
<polygon fill="#191970" stroke="#191970" points="323.3683,-327.0001 333.3683,-323.5 323.3683,-320.0001 323.3683,-327.0001"/>
</g>
<!-- Node142 -->
<g id="node8" class="node">
<title>Node142</title>
<g id="a_node8"><a xlink:href="classstatistics_1_1_gaps.html#aee36b772767467cdba2061df2305e85d" target="_top" xlink:title="statistics::Gaps::applyWindow">
<polygon fill="#ffffff" stroke="#000000" points="325,-270 325,-289 475,-289 475,-270 325,-270"/>
<text text-anchor="middle" x="400" y="-277" font-family="Helvetica,sans-Serif" font-size="10.00" fill="#000000">statistics::Gaps::applyWindow</text>
</a>
</g>
</g>
<!-- Node138&#45;&gt;Node142 -->
<g id="edge7" class="edge">
<title>Node138&#45;&gt;Node142</title>
<path fill="none" stroke="#191970" d="M273.9635,-310.6551C298.4758,-304.5959 327.55,-297.409 351.5939,-291.4656"/>
<polygon fill="#191970" stroke="#191970" points="352.6945,-294.7989 361.5624,-289.0014 351.0147,-288.0034 352.6945,-294.7989"/>
</g>
<!-- Node140 -->
<g id="node6" class="node">
<title>Node140</title>
<g id="a_node6"><a xlink:href="namespaceutils.html#aac322cd1761fddedec8a5792e358eb32" target="_top" xlink:title="Vector initialization. ">
<polygon fill="#ffffff" stroke="#000000" points="535,-336 535,-355 611,-355 611,-336 535,-336"/>
<text text-anchor="middle" x="573" y="-343" font-family="Helvetica,sans-Serif" font-size="10.00" fill="#000000">utils::initlVect</text>
</a>
</g>
</g>
<!-- Node139&#45;&gt;Node140 -->
<g id="edge5" class="edge">
<title>Node139&#45;&gt;Node140</title>
<path fill="none" stroke="#191970" d="M457.6065,-360.1743C479.4843,-357.3922 504.148,-354.2557 525.041,-351.5988"/>
<polygon fill="#191970" stroke="#191970" points="525.4873,-355.0704 534.9659,-350.3367 524.6042,-348.1263 525.4873,-355.0704"/>
</g>
<!-- Node142&#45;&gt;Node140 -->
<g id="edge9" class="edge">
<title>Node142&#45;&gt;Node140</title>
<path fill="none" stroke="#191970" d="M441.8463,-289.0256C453.068,-291.9816 465.1063,-295.5226 476,-299.5 500.4127,-308.4133 527.0096,-321.2643 546.1681,-331.1189"/>
<polygon fill="#191970" stroke="#191970" points="544.7097,-334.3056 555.1953,-335.8236 547.945,-328.0981 544.7097,-334.3056"/>
</g>
<!-- Node143 -->
<g id="node9" class="node">
<title>Node143</title>
<g id="a_node9"><a xlink:href="classreporting_1_1report_manager.html#a6d122e673144584e0869bd33b8a5c1c6" target="_top" xlink:title="Method to report an Error. &#160;It will be displayed if Level &#160;is equal or higher to VerboseLevel::ERROR...">
<polygon fill="#ffffff" stroke="#000000" points="512,-264.5 512,-294.5 634,-294.5 634,-264.5 512,-264.5"/>
<text text-anchor="start" x="520" y="-282.5" font-family="Helvetica,sans-Serif" font-size="10.00" fill="#000000">reporting::reportManager</text>
<text text-anchor="middle" x="573" y="-271.5" font-family="Helvetica,sans-Serif" font-size="10.00" fill="#000000">::report</text>
</a>
</g>
</g>
<!-- Node142&#45;&gt;Node143 -->
<g id="edge8" class="edge">
<title>Node142&#45;&gt;Node143</title>
<path fill="none" stroke="#191970" d="M475.1256,-279.5C483.9736,-279.5 492.9831,-279.5 501.7753,-279.5"/>
<polygon fill="#191970" stroke="#191970" points="501.9739,-283.0001 511.9739,-279.5 501.9738,-276.0001 501.9739,-283.0001"/>
</g>
<!-- Node144 -->
<g id="node10" class="node">
<title>Node144</title>
<g id="a_node10"><a xlink:href="namespaceutils.html#ad50731aeb3c8f79ed8372516210dfc9d" target="_top" xlink:title="Round double to integer method. ">
<polygon fill="#ffffff" stroke="#000000" points="535,-223 535,-242 611,-242 611,-223 535,-223"/>
<text text-anchor="middle" x="573" y="-230" font-family="Helvetica,sans-Serif" font-size="10.00" fill="#000000">utils::roundInt</text>
</a>
</g>
</g>
<!-- Node142&#45;&gt;Node144 -->
<g id="edge10" class="edge">
<title>Node142&#45;&gt;Node144</title>
<path fill="none" stroke="#191970" d="M439.5154,-269.908C451.2782,-266.9753 464.1804,-263.6823 476,-260.5 494.1099,-255.6242 514.0268,-249.9327 531.0763,-244.9592"/>
<polygon fill="#191970" stroke="#191970" points="532.1357,-248.296 540.7481,-242.1254 530.1674,-241.5784 532.1357,-248.296"/>
</g>
<!-- Node145&#45;&gt;Node144 -->
<g id="edge18" class="edge">
<title>Node145&#45;&gt;Node144</title>
<path fill="none" stroke="#191970" d="M250.8337,-140.6275C270.9268,-150.7078 298.581,-163.6761 324,-172.5 342.8793,-179.0537 458.0328,-205.9908 524.9367,-221.4517"/>
<polygon fill="#191970" stroke="#191970" points="524.3082,-224.8985 534.8392,-223.7377 525.8828,-218.0779 524.3082,-224.8985"/>
</g>
<!-- Node146 -->
<g id="node12" class="node">
<title>Node146</title>
<g id="a_node12"><a xlink:href="class_alignment.html#aeeee94970a445f32aa79646c249befef" target="_top" xlink:title="Copy Constructor. &#160;&#160;The copy constructor does not make a copy of all structures present on the origin...">
<polygon fill="#ffffff" stroke="#000000" points="345,-144 345,-163 455,-163 455,-144 345,-144"/>
<text text-anchor="middle" x="400" y="-151" font-family="Helvetica,sans-Serif" font-size="10.00" fill="#000000">Alignment::Alignment</text>
</a>
</g>
</g>
<!-- Node145&#45;&gt;Node146 -->
<g id="edge12" class="edge">
<title>Node145&#45;&gt;Node146</title>
<path fill="none" stroke="#191970" d="M288.0277,-135.8864C303.3672,-138.2993 319.6839,-140.866 334.9796,-143.2721"/>
<polygon fill="#191970" stroke="#191970" points="334.4406,-146.7303 344.8631,-144.8268 335.5284,-139.8153 334.4406,-146.7303"/>
</g>
<!-- Node152 -->
<g id="node18" class="node">
<title>Node152</title>
<g id="a_node18"><a xlink:href="namespaceutils.html#a3ff3252e3c5d743757b001734501fe60" target="_top" xlink:title="Quicksort sorting method. ">
<polygon fill="#ffffff" stroke="#000000" points="360,-88 360,-107 440,-107 440,-88 360,-88"/>
<text text-anchor="middle" x="400" y="-95" font-family="Helvetica,sans-Serif" font-size="10.00" fill="#000000">utils::quicksort</text>
</a>
</g>
</g>
<!-- Node145&#45;&gt;Node152 -->
<g id="edge19" class="edge">
<title>Node145&#45;&gt;Node152</title>
<path fill="none" stroke="#191970" d="M288.0277,-115.1136C308.4911,-111.8947 330.6939,-108.4021 349.8914,-105.3823"/>
<polygon fill="#191970" stroke="#191970" points="350.5887,-108.8157 359.9233,-103.8042 349.5009,-101.9007 350.5887,-108.8157"/>
</g>
<!-- Node154 -->
<g id="node20" class="node">
<title>Node154</title>
<g id="a_node20"><a xlink:href="class_cleaner.html#a5620f6a511bc0ac844c71b2de3ae1fdb" target="_top" xlink:title="Method to remove blocks of columns with no rejected residue smaller than a given size. ">
<polygon fill="#ffffff" stroke="#000000" points="324,-50 324,-69 476,-69 476,-50 324,-50"/>
<text text-anchor="middle" x="400" y="-57" font-family="Helvetica,sans-Serif" font-size="10.00" fill="#000000">Cleaner::removeSmallerBlocks</text>
</a>
</g>
</g>
<!-- Node145&#45;&gt;Node154 -->
<g id="edge22" class="edge">
<title>Node145&#45;&gt;Node154</title>
<path fill="none" stroke="#191970" d="M250.8579,-110.4415C270.9617,-100.3919 298.6188,-87.4321 324,-78.5 331.0471,-76.02 338.569,-73.7295 346.0376,-71.6614"/>
<polygon fill="#191970" stroke="#191970" points="347.0143,-75.0234 355.7806,-69.0735 345.2172,-68.258 347.0143,-75.0234"/>
</g>
<!-- Node155 -->
<g id="node21" class="node">
<title>Node155</title>
<g id="a_node21"><a xlink:href="class_cleaner.html#ada8ad076dd037f00ae3f4fd17762641f" target="_top" xlink:title="Method that identifies and removes columns and sequences composed only by gaps. ">
<polygon fill="#ffffff" stroke="#000000" points="327,-.5 327,-30.5 473,-30.5 473,-.5 327,-.5"/>
<text text-anchor="start" x="335" y="-18.5" font-family="Helvetica,sans-Serif" font-size="10.00" fill="#000000">Cleaner::removeAllGapsSeqs</text>
<text text-anchor="middle" x="400" y="-7.5" font-family="Helvetica,sans-Serif" font-size="10.00" fill="#000000">AndCols</text>
</a>
</g>
</g>
<!-- Node145&#45;&gt;Node155 -->
<g id="edge23" class="edge">
<title>Node145&#45;&gt;Node155</title>
<path fill="none" stroke="#191970" d="M236.5391,-110.2608C255.2005,-91.4874 289.3256,-59.7259 324,-40.5 327.9328,-38.3194 332.0864,-36.2905 336.342,-34.4098"/>
<polygon fill="#191970" stroke="#191970" points="337.8594,-37.5702 345.7751,-30.528 335.1956,-31.0968 337.8594,-37.5702"/>
</g>
<!-- Node147 -->
<g id="node13" class="node">
<title>Node147</title>
<g id="a_node13"><a xlink:href="class_cleaner.html#afe42cb635ddd6bd968ae57e378deaac8" target="_top" xlink:title="Copy Constructor &#45; Called by Alignment. ">
<polygon fill="#ffffff" stroke="#000000" points="528,-179 528,-198 618,-198 618,-179 528,-179"/>
<text text-anchor="middle" x="573" y="-186" font-family="Helvetica,sans-Serif" font-size="10.00" fill="#000000">Cleaner::Cleaner</text>
</a>
</g>
</g>
<!-- Node146&#45;&gt;Node147 -->
<g id="edge13" class="edge">
<title>Node146&#45;&gt;Node147</title>
<path fill="none" stroke="#191970" d="M447.273,-163.0639C469.1469,-167.4893 495.2667,-172.7736 518.0171,-177.3763"/>
<polygon fill="#191970" stroke="#191970" points="517.3755,-180.8173 527.871,-179.3699 518.7636,-173.9563 517.3755,-180.8173"/>
</g>
<!-- Node148 -->
<g id="node14" class="node">
<title>Node148</title>
<g id="a_node14"><a xlink:href="classstatistics_1_1_manager.html#aee28602da015edb0880d59ce4c0f855d" target="_top" xlink:title="statistics::Manager\l::Manager">
<polygon fill="#ffffff" stroke="#000000" points="523,-129.5 523,-159.5 623,-159.5 623,-129.5 523,-129.5"/>
<text text-anchor="start" x="531" y="-147.5" font-family="Helvetica,sans-Serif" font-size="10.00" fill="#000000">statistics::Manager</text>
<text text-anchor="middle" x="573" y="-136.5" font-family="Helvetica,sans-Serif" font-size="10.00" fill="#000000">::Manager</text>
</a>
</g>
</g>
<!-- Node146&#45;&gt;Node148 -->
<g id="edge14" class="edge">
<title>Node146&#45;&gt;Node148</title>
<path fill="none" stroke="#191970" d="M455.2139,-150.6276C473.5697,-149.6727 494.0977,-148.6047 512.8102,-147.6313"/>
<polygon fill="#191970" stroke="#191970" points="513.1893,-151.1164 522.9939,-147.1015 512.8255,-144.1258 513.1893,-151.1164"/>
</g>
<!-- Node149 -->
<g id="node15" class="node">
<title>Node149</title>
<g id="a_node15"><a xlink:href="classstatistics_1_1_similarity.html#afecab92459785c7568511217969f6cde" target="_top" xlink:title="statistics::Similarity\l::Similarity">
<polygon fill="#ffffff" stroke="#000000" points="677,-178.5 677,-208.5 780,-208.5 780,-178.5 677,-178.5"/>
<text text-anchor="start" x="685" y="-196.5" font-family="Helvetica,sans-Serif" font-size="10.00" fill="#000000">statistics::Similarity</text>
<text text-anchor="middle" x="728.5" y="-185.5" font-family="Helvetica,sans-Serif" font-size="10.00" fill="#000000">::Similarity</text>
</a>
</g>
</g>
<!-- Node148&#45;&gt;Node149 -->
<g id="edge15" class="edge">
<title>Node148&#45;&gt;Node149</title>
<path fill="none" stroke="#191970" d="M620.924,-159.6014C636.8131,-164.6083 654.6611,-170.2324 671.1839,-175.439"/>
<polygon fill="#191970" stroke="#191970" points="670.1447,-178.7811 680.7343,-178.4484 672.2485,-172.1047 670.1447,-178.7811"/>
</g>
<!-- Node150 -->
<g id="node16" class="node">
<title>Node150</title>
<g id="a_node16"><a xlink:href="classstatistics_1_1_consistency.html#ae39d2aae825d263ac8c3198782b824d2" target="_top" xlink:title="Copy constructor. ">
<polygon fill="#ffffff" stroke="#000000" points="670,-129.5 670,-159.5 787,-159.5 787,-129.5 670,-129.5"/>
<text text-anchor="start" x="678" y="-147.5" font-family="Helvetica,sans-Serif" font-size="10.00" fill="#000000">statistics::Consistency</text>
<text text-anchor="middle" x="728.5" y="-136.5" font-family="Helvetica,sans-Serif" font-size="10.00" fill="#000000">::Consistency</text>
</a>
</g>
</g>
<!-- Node148&#45;&gt;Node150 -->
<g id="edge16" class="edge">
<title>Node148&#45;&gt;Node150</title>
<path fill="none" stroke="#191970" d="M623.0571,-144.5C634.7101,-144.5 647.3177,-144.5 659.6248,-144.5"/>
<polygon fill="#191970" stroke="#191970" points="659.8645,-148.0001 669.8645,-144.5 659.8644,-141.0001 659.8645,-148.0001"/>
</g>
<!-- Node151 -->
<g id="node17" class="node">
<title>Node151</title>
<g id="a_node17"><a xlink:href="classstatistics_1_1_gaps.html#a0233d71123523698b0bbf6fe6119b630" target="_top" xlink:title="statistics::Gaps::Gaps">
<polygon fill="#ffffff" stroke="#000000" points="671,-91 671,-110 786,-110 786,-91 671,-91"/>
<text text-anchor="middle" x="728.5" y="-98" font-family="Helvetica,sans-Serif" font-size="10.00" fill="#000000">statistics::Gaps::Gaps</text>
</a>
</g>
</g>
<!-- Node148&#45;&gt;Node151 -->
<g id="edge17" class="edge">
<title>Node148&#45;&gt;Node151</title>
<path fill="none" stroke="#191970" d="M623.0571,-130.3359C643.017,-124.6881 665.7777,-118.2478 685.0314,-112.7998"/>
<polygon fill="#191970" stroke="#191970" points="686.0776,-116.1413 694.7468,-110.0507 684.1717,-109.4057 686.0776,-116.1413"/>
</g>
<!-- Node152&#45;&gt;Node152 -->
<g id="edge21" class="edge">
<title>Node152&#45;&gt;Node152</title>
<path fill="none" stroke="#191970" d="M373.4898,-107.2571C360.593,-116.0653 369.4297,-125.5 400,-125.5 420.5394,-125.5 431.268,-121.241 432.1856,-115.7746"/>
<polygon fill="#191970" stroke="#191970" points="434.9679,-113.6381 426.5102,-107.2571 429.1426,-117.5197 434.9679,-113.6381"/>
</g>
<!-- Node153 -->
<g id="node19" class="node">
<title>Node153</title>
<g id="a_node19"><a xlink:href="namespaceutils.html#a5edf67302e70aeb92a9085023954f368" target="_top" xlink:title="Swapping elements method. ">
<polygon fill="#ffffff" stroke="#000000" points="541,-88 541,-107 605,-107 605,-88 541,-88"/>
<text text-anchor="middle" x="573" y="-95" font-family="Helvetica,sans-Serif" font-size="10.00" fill="#000000">utils::swap</text>
</a>
</g>
</g>
<!-- Node152&#45;&gt;Node153 -->
<g id="edge20" class="edge">
<title>Node152&#45;&gt;Node153</title>
<path fill="none" stroke="#191970" d="M440.1245,-97.5C467.2968,-97.5 503.1373,-97.5 530.7472,-97.5"/>
<polygon fill="#191970" stroke="#191970" points="530.8908,-101.0001 540.8907,-97.5 530.8907,-94.0001 530.8908,-101.0001"/>
</g>
<!-- Node156 -->
<g id="node22" class="node">
<title>Node156</title>
<g id="a_node22"><a xlink:href="classreporting_1_1report_manager.html#a75a240a78f31ba479892a9a0f53996fa" target="_top" xlink:title="Method to report a Warning. &#160;It will be displayed if Level &#160;is equal or higher to VerboseLevel::WARNI...">
<polygon fill="#ffffff" stroke="#000000" points="512,-.5 512,-30.5 634,-30.5 634,-.5 512,-.5"/>
<text text-anchor="start" x="520" y="-18.5" font-family="Helvetica,sans-Serif" font-size="10.00" fill="#000000">reporting::reportManager</text>
<text text-anchor="middle" x="573" y="-7.5" font-family="Helvetica,sans-Serif" font-size="10.00" fill="#000000">::report</text>
</a>
</g>
</g>
<!-- Node155&#45;&gt;Node156 -->
<g id="edge24" class="edge">
<title>Node155&#45;&gt;Node156</title>
<path fill="none" stroke="#191970" d="M473.1168,-15.5C482.598,-15.5 492.299,-15.5 501.7492,-15.5"/>
<polygon fill="#191970" stroke="#191970" points="501.8831,-19.0001 511.8831,-15.5 501.883,-12.0001 501.8831,-19.0001"/>
</g>
<!-- Node157&#45;&gt;Node142 -->
<g id="edge27" class="edge">
<title>Node157&#45;&gt;Node142</title>
<path fill="none" stroke="#191970" d="M286.0106,-276.2981C295.3313,-276.5599 305.0499,-276.8329 314.71,-277.1042"/>
<polygon fill="#191970" stroke="#191970" points="314.6424,-280.6036 324.7367,-277.3859 314.839,-273.6064 314.6424,-280.6036"/>
</g>
<!-- Node158 -->
<g id="node24" class="node">
<title>Node158</title>
<g id="a_node24"><a xlink:href="classstatistics_1_1_gaps.html#ad812a924cf5e3f900aad3ed4a9664300" target="_top" xlink:title="statistics::Gaps::isDefined\lWindow">
<polygon fill="#ffffff" stroke="#000000" points="333.5,-220.5 333.5,-250.5 466.5,-250.5 466.5,-220.5 333.5,-220.5"/>
<text text-anchor="start" x="341.5" y="-238.5" font-family="Helvetica,sans-Serif" font-size="10.00" fill="#000000">statistics::Gaps::isDefined</text>
<text text-anchor="middle" x="400" y="-227.5" font-family="Helvetica,sans-Serif" font-size="10.00" fill="#000000">Window</text>
</a>
</g>
</g>
<!-- Node157&#45;&gt;Node158 -->
<g id="edge26" class="edge">
<title>Node157&#45;&gt;Node158</title>
<path fill="none" stroke="#191970" d="M286.0106,-260.4752C298.122,-257.8216 310.9053,-255.0207 323.3593,-252.2921"/>
<polygon fill="#191970" stroke="#191970" points="324.2383,-255.6826 333.2575,-250.1234 322.7401,-248.8448 324.2383,-255.6826"/>
</g>
</g>
</svg>
