<?xml version="1.0" encoding="UTF-8" standalone="no"?>
<!DOCTYPE svg PUBLIC "-//W3C//DTD SVG 1.1//EN"
 "http://www.w3.org/Graphics/SVG/1.1/DTD/svg11.dtd">
<!-- Generated by graphviz version 2.38.0 (20140413.2041)
 -->
<!-- Title: trimAlManager::force_select_argument Pages: 1 -->
<svg width="449pt" height="88pt"
 viewBox="0.00 0.00 449.00 88.00" xmlns="http://www.w3.org/2000/svg" xmlns:xlink="http://www.w3.org/1999/xlink">
<g id="graph0" class="graph" transform="scale(1 1) rotate(0) translate(4 84)">
<title>trimAlManager::force_select_argument</title>
<polygon fill="white" stroke="none" points="-4,4 -4,-84 445,-84 445,4 -4,4"/>
<!-- Node305 -->
<g id="node1" class="node"><title>Node305</title>
<polygon fill="#bfbfbf" stroke="black" points="0,-19.5 0,-49.5 107,-49.5 107,-19.5 0,-19.5"/>
<text text-anchor="start" x="8" y="-37.5" font-family="Helvetica,sans-Serif" font-size="10.00">trimAlManager::force</text>
<text text-anchor="middle" x="53.5" y="-26.5" font-family="Helvetica,sans-Serif" font-size="10.00">_select_argument</text>
</g>
<!-- Node306 -->
<g id="node2" class="node"><title>Node306</title>
<g id="a_node2"><a xlink:href="class_read_write_m_s.html#a9dde337280e5598f9006b3b436112caf" target="_top" xlink:title="Function that creates an alignment given a file path. It automatically detects the format of the file...">
<polygon fill="white" stroke="black" points="143,-44 143,-63 289,-63 289,-44 143,-44"/>
<text text-anchor="middle" x="216" y="-51" font-family="Helvetica,sans-Serif" font-size="10.00">ReadWriteMS::loadAlignment</text>
</a>
</g>
</g>
<!-- Node305&#45;&gt;Node306 -->
<g id="edge1" class="edge"><title>Node305&#45;&gt;Node306</title>
<path fill="none" stroke="midnightblue" d="M107.054,-40.7213C115.267,-41.6937 123.922,-42.7182 132.611,-43.7468"/>
<polygon fill="midnightblue" stroke="midnightblue" points="132.459,-47.2532 142.801,-44.9531 133.282,-40.3017 132.459,-47.2532"/>
</g>
<!-- Node308 -->
<g id="node4" class="node"><title>Node308</title>
<g id="a_node4"><a xlink:href="class____internal_report_1_1____report_system.html#acd358cbc59625c6e2f47e0b5f825400d" target="_top" xlink:title="Method to report an Error. &#160;It will be displayed if Level &#160;is equal or higher to VerboseLevel::ERROR...">
<polygon fill="white" stroke="black" points="325,-0.5 325,-30.5 441,-30.5 441,-0.5 325,-0.5"/>
<text text-anchor="start" x="333" y="-18.5" font-family="Helvetica,sans-Serif" font-size="10.00">__internalReport::</text>
<text text-anchor="middle" x="383" y="-7.5" font-family="Helvetica,sans-Serif" font-size="10.00">__reportSystem::report</text>
</a>
</g>
</g>
<!-- Node305&#45;&gt;Node308 -->
<g id="edge4" class="edge"><title>Node305&#45;&gt;Node308</title>
<path fill="none" stroke="midnightblue" d="M107.119,-31.4473C163.555,-28.1732 253.337,-22.9644 314.835,-19.3966"/>
<polygon fill="midnightblue" stroke="midnightblue" points="315.052,-22.89 324.832,-18.8166 314.646,-15.9017 315.052,-22.89"/>
</g>
<!-- Node307 -->
<g id="node3" class="node"><title>Node307</title>
<g id="a_node3"><a xlink:href="class_read_write_base_state.html#ac6d87d2b73337cb4afa1499bf218f4ab" target="_top" xlink:title="Function to load a file in the current format and return an alignment object. ">
<polygon fill="white" stroke="black" points="328.5,-49.5 328.5,-79.5 437.5,-79.5 437.5,-49.5 328.5,-49.5"/>
<text text-anchor="start" x="336.5" y="-67.5" font-family="Helvetica,sans-Serif" font-size="10.00">ReadWriteBaseState</text>
<text text-anchor="middle" x="383" y="-56.5" font-family="Helvetica,sans-Serif" font-size="10.00">::LoadAlignment</text>
</a>
</g>
</g>
<!-- Node306&#45;&gt;Node307 -->
<g id="edge2" class="edge"><title>Node306&#45;&gt;Node307</title>
<path fill="none" stroke="midnightblue" d="M289.371,-58.3248C298.91,-58.9606 308.631,-59.6088 318.016,-60.2344"/>
<polygon fill="midnightblue" stroke="midnightblue" points="317.832,-63.7298 328.042,-60.9028 318.297,-56.7453 317.832,-63.7298"/>
</g>
<!-- Node306&#45;&gt;Node308 -->
<g id="edge3" class="edge"><title>Node306&#45;&gt;Node308</title>
<path fill="none" stroke="midnightblue" d="M258.636,-43.911C275.709,-39.9792 295.905,-35.328 314.96,-30.9396"/>
<polygon fill="midnightblue" stroke="midnightblue" points="315.838,-34.329 324.797,-28.6739 314.267,-27.5076 315.838,-34.329"/>
</g>
</g>
</svg>
