<?xml version="1.0" encoding="UTF-8" standalone="no"?>
<!DOCTYPE svg PUBLIC "-//W3C//DTD SVG 1.1//EN"
 "http://www.w3.org/Graphics/SVG/1.1/DTD/svg11.dtd">
<!-- Generated by graphviz version 2.40.1 (20161225.0304)
 -->
<!-- Title: trimAlManager::back_trans_argument Pages: 1 -->
<svg width="492pt" height="88pt"
 viewBox="0.00 0.00 492.00 88.00" xmlns="http://www.w3.org/2000/svg" xmlns:xlink="http://www.w3.org/1999/xlink">
<g id="graph0" class="graph" transform="scale(1 1) rotate(0) translate(4 84)">
<title>trimAlManager::back_trans_argument</title>
<polygon fill="#ffffff" stroke="transparent" points="-4,4 -4,-84 488,-84 488,4 -4,4"/>
<!-- Node9 -->
<g id="node1" class="node">
<title>Node9</title>
<g id="a_node1"><a xlink:title="Method to parse the backtranslation argument.">
<polygon fill="#bfbfbf" stroke="#000000" points="0,-27.5 0,-57.5 107,-57.5 107,-27.5 0,-27.5"/>
<text text-anchor="start" x="8" y="-45.5" font-family="Helvetica,sans-Serif" font-size="10.00" fill="#000000">trimAlManager::back</text>
<text text-anchor="middle" x="53.5" y="-34.5" font-family="Helvetica,sans-Serif" font-size="10.00" fill="#000000">_trans_argument</text>
</a>
</g>
</g>
<!-- Node10 -->
<g id="node2" class="node">
<title>Node10</title>
<g id="a_node2"><a xlink:href="class_format_handling_1_1_format_manager.html#ae02b932789b35289dc506e8ed0297695" target="_top" xlink:title="Function that loads an alignment given a file path. It automatically detects the format of the file.">
<polygon fill="#ffffff" stroke="#000000" points="143,-5.5 143,-35.5 303,-35.5 303,-5.5 143,-5.5"/>
<text text-anchor="start" x="151" y="-23.5" font-family="Helvetica,sans-Serif" font-size="10.00" fill="#000000">FormatHandling::FormatManager</text>
<text text-anchor="middle" x="223" y="-12.5" font-family="Helvetica,sans-Serif" font-size="10.00" fill="#000000">::loadAlignment</text>
</a>
</g>
</g>
<!-- Node9&#45;&gt;Node10 -->
<g id="edge1" class="edge">
<title>Node9&#45;&gt;Node10</title>
<path fill="none" stroke="#191970" d="M107.1309,-35.5391C115.3757,-34.4689 124.0767,-33.3396 132.8553,-32.2002"/>
<polygon fill="#191970" stroke="#191970" points="133.3131,-35.6702 142.7794,-30.9121 132.412,-28.7285 133.3131,-35.6702"/>
</g>
<!-- Node11 -->
<g id="node3" class="node">
<title>Node11</title>
<g id="a_node3"><a xlink:href="classreporting_1_1report_manager.html#a6d122e673144584e0869bd33b8a5c1c6" target="_top" xlink:title="Method to report an Error. &#160;It will be displayed if Level &#160;is equal or higher to VerboseLevel::ERROR.">
<polygon fill="#ffffff" stroke="#000000" points="350.5,-49.5 350.5,-79.5 472.5,-79.5 472.5,-49.5 350.5,-49.5"/>
<text text-anchor="start" x="358.5" y="-67.5" font-family="Helvetica,sans-Serif" font-size="10.00" fill="#000000">reporting::reportManager</text>
<text text-anchor="middle" x="411.5" y="-56.5" font-family="Helvetica,sans-Serif" font-size="10.00" fill="#000000">::report</text>
</a>
</g>
</g>
<!-- Node9&#45;&gt;Node11 -->
<g id="edge4" class="edge">
<title>Node9&#45;&gt;Node11</title>
<path fill="none" stroke="#191970" d="M107.0962,-45.7936C169.0647,-49.6017 271.3296,-55.8862 340.0254,-60.1077"/>
<polygon fill="#191970" stroke="#191970" points="340.1336,-63.6209 350.3295,-60.7409 340.563,-56.634 340.1336,-63.6209"/>
</g>
<!-- Node10&#45;&gt;Node11 -->
<g id="edge2" class="edge">
<title>Node10&#45;&gt;Node11</title>
<path fill="none" stroke="#191970" d="M287.3438,-35.5192C304.3726,-39.4941 322.8546,-43.8082 340.2273,-47.8634"/>
<polygon fill="#191970" stroke="#191970" points="339.7748,-51.3518 350.3086,-50.2166 341.366,-44.535 339.7748,-51.3518"/>
</g>
<!-- Node12 -->
<g id="node4" class="node">
<title>Node12</title>
<g id="a_node4"><a xlink:href="class_format_handling_1_1_base_format_handler.html#acb1e7d713993916bb7b7b8c8ebebb922" target="_top" xlink:title="Function to load a file in the current format and return an alignment object.">
<polygon fill="#ffffff" stroke="#000000" points="339,-.5 339,-30.5 484,-30.5 484,-.5 339,-.5"/>
<text text-anchor="start" x="347" y="-18.5" font-family="Helvetica,sans-Serif" font-size="10.00" fill="#000000">FormatHandling::BaseFormat</text>
<text text-anchor="middle" x="411.5" y="-7.5" font-family="Helvetica,sans-Serif" font-size="10.00" fill="#000000">Handler::LoadAlignment</text>
</a>
</g>
</g>
<!-- Node10&#45;&gt;Node12 -->
<g id="edge3" class="edge">
<title>Node10&#45;&gt;Node12</title>
<path fill="none" stroke="#191970" d="M303.2143,-18.3723C311.6206,-18.1493 320.1792,-17.9223 328.6146,-17.6986"/>
<polygon fill="#191970" stroke="#191970" points="328.9206,-21.1918 338.8243,-17.4277 328.7349,-14.1942 328.9206,-21.1918"/>
</g>
</g>
</svg>
