<?xml version="1.0" encoding="UTF-8" standalone="no"?>
<!DOCTYPE svg PUBLIC "-//W3C//DTD SVG 1.1//EN"
 "http://www.w3.org/Graphics/SVG/1.1/DTD/svg11.dtd">
<!-- Generated by graphviz version 2.38.0 (20140413.2041)
 -->
<!-- Title: Cleaner::clean2ndSlope Pages: 1 -->
<svg width="636pt" height="154pt"
 viewBox="0.00 0.00 636.00 153.50" xmlns="http://www.w3.org/2000/svg" xmlns:xlink="http://www.w3.org/1999/xlink">
<g id="graph0" class="graph" transform="scale(1 1) rotate(0) translate(4 149.5)">
<title>Cleaner::clean2ndSlope</title>
<polygon fill="white" stroke="none" points="-4,4 -4,-149.5 632,-149.5 632,4 -4,4"/>
<!-- Node44 -->
<g id="node1" class="node"><title>Node44</title>
<polygon fill="#bfbfbf" stroke="black" points="0,-69 0,-88 120,-88 120,-69 0,-69"/>
<text text-anchor="middle" x="60" y="-76" font-family="Helvetica,sans-Serif" font-size="10.00">Cleaner::clean2ndSlope</text>
</g>
<!-- Node45 -->
<g id="node2" class="node"><title>Node45</title>
<g id="a_node2"><a xlink:href="class_cleaner.html#a66bda5807c06cfaf1609e4c1f5955671" target="_top" xlink:title="Method to clean an alignment. &#160;It removes sequences that overpass or equals a certain threshold...">
<polygon fill="white" stroke="black" points="156,-63.5 156,-93.5 288,-93.5 288,-63.5 156,-63.5"/>
<text text-anchor="start" x="164" y="-81.5" font-family="Helvetica,sans-Serif" font-size="10.00">Cleaner::cleanByCutValue</text>
<text text-anchor="middle" x="222" y="-70.5" font-family="Helvetica,sans-Serif" font-size="10.00">Overpass</text>
</a>
</g>
</g>
<!-- Node44&#45;&gt;Node45 -->
<g id="edge1" class="edge"><title>Node44&#45;&gt;Node45</title>
<path fill="none" stroke="midnightblue" d="M120.124,-78.5C128.505,-78.5 137.216,-78.5 145.851,-78.5"/>
<polygon fill="midnightblue" stroke="midnightblue" points="145.928,-82.0001 155.928,-78.5 145.928,-75.0001 145.928,-82.0001"/>
</g>
<!-- Node46 -->
<g id="node3" class="node"><title>Node46</title>
<g id="a_node3"><a xlink:href="classutils.html#ad50731aeb3c8f79ed8372516210dfc9d" target="_top" xlink:title="Round double to integer method. ">
<polygon fill="white" stroke="black" points="362,-126 362,-145 438,-145 438,-126 362,-126"/>
<text text-anchor="middle" x="400" y="-133" font-family="Helvetica,sans-Serif" font-size="10.00">utils::roundInt</text>
</a>
</g>
</g>
<!-- Node45&#45;&gt;Node46 -->
<g id="edge2" class="edge"><title>Node45&#45;&gt;Node46</title>
<path fill="none" stroke="midnightblue" d="M260.066,-93.5814C279.016,-101.001 302.549,-109.771 324,-116.5 332.941,-119.305 342.579,-121.992 351.87,-124.418"/>
<polygon fill="midnightblue" stroke="midnightblue" points="351.212,-127.862 361.766,-126.94 352.941,-121.078 351.212,-127.862"/>
</g>
<!-- Node47 -->
<g id="node4" class="node"><title>Node47</title>
<g id="a_node4"><a xlink:href="classutils.html#a73f038c379c13d23e3220afaa14f9983" target="_top" xlink:title="Quicksort sorting method. ">
<polygon fill="white" stroke="black" points="360,-88 360,-107 440,-107 440,-88 360,-88"/>
<text text-anchor="middle" x="400" y="-95" font-family="Helvetica,sans-Serif" font-size="10.00">utils::quicksort</text>
</a>
</g>
</g>
<!-- Node45&#45;&gt;Node47 -->
<g id="edge3" class="edge"><title>Node45&#45;&gt;Node47</title>
<path fill="none" stroke="midnightblue" d="M288.036,-85.5209C308.455,-87.7252 330.647,-90.121 349.782,-92.1867"/>
<polygon fill="midnightblue" stroke="midnightblue" points="349.456,-95.6718 359.774,-93.2654 350.208,-88.7122 349.456,-95.6718"/>
</g>
<!-- Node49 -->
<g id="node6" class="node"><title>Node49</title>
<g id="a_node6"><a xlink:href="class_cleaner.html#ae6d263df982b8e0a605f49e52a5a48d9" target="_top" xlink:title="Method to remove column blocks smaller than a given size. ">
<polygon fill="white" stroke="black" points="324,-50 324,-69 476,-69 476,-50 324,-50"/>
<text text-anchor="middle" x="400" y="-57" font-family="Helvetica,sans-Serif" font-size="10.00">Cleaner::removeSmallerBlocks</text>
</a>
</g>
</g>
<!-- Node45&#45;&gt;Node49 -->
<g id="edge5" class="edge"><title>Node45&#45;&gt;Node49</title>
<path fill="none" stroke="midnightblue" d="M288.036,-71.4791C296.411,-70.5749 305.085,-69.6386 313.724,-68.706"/>
<polygon fill="midnightblue" stroke="midnightblue" points="314.262,-72.1683 323.829,-67.6151 313.511,-65.2087 314.262,-72.1683"/>
</g>
<!-- Node50 -->
<g id="node7" class="node"><title>Node50</title>
<g id="a_node7"><a xlink:href="class_cleaner.html#ada8ad076dd037f00ae3f4fd17762641f" target="_top" xlink:title="Method that identifies and removes columns and sequences composed only by gaps. ">
<polygon fill="white" stroke="black" points="327,-0.5 327,-30.5 473,-30.5 473,-0.5 327,-0.5"/>
<text text-anchor="start" x="335" y="-18.5" font-family="Helvetica,sans-Serif" font-size="10.00">Cleaner::removeAllGapsSeqs</text>
<text text-anchor="middle" x="400" y="-7.5" font-family="Helvetica,sans-Serif" font-size="10.00">AndCols</text>
</a>
</g>
</g>
<!-- Node45&#45;&gt;Node50 -->
<g id="edge6" class="edge"><title>Node45&#45;&gt;Node50</title>
<path fill="none" stroke="midnightblue" d="M262.204,-63.3532C280.86,-56.2471 303.518,-47.7639 324,-40.5 330.258,-38.2808 336.828,-36.0076 343.371,-33.78"/>
<polygon fill="midnightblue" stroke="midnightblue" points="344.543,-37.0785 352.895,-30.5607 342.301,-30.4471 344.543,-37.0785"/>
</g>
<!-- Node48 -->
<g id="node5" class="node"><title>Node48</title>
<g id="a_node5"><a xlink:href="classutils.html#a3377ecde55631d1bbc4956e5923b7469" target="_top" xlink:title="Swapping elements method. ">
<polygon fill="white" stroke="black" points="538,-88 538,-107 602,-107 602,-88 538,-88"/>
<text text-anchor="middle" x="570" y="-95" font-family="Helvetica,sans-Serif" font-size="10.00">utils::swap</text>
</a>
</g>
</g>
<!-- Node47&#45;&gt;Node48 -->
<g id="edge4" class="edge"><title>Node47&#45;&gt;Node48</title>
<path fill="none" stroke="midnightblue" d="M440.389,-97.5C466.673,-97.5 501.168,-97.5 527.816,-97.5"/>
<polygon fill="midnightblue" stroke="midnightblue" points="527.976,-101 537.976,-97.5 527.976,-94.0001 527.976,-101"/>
</g>
<!-- Node51 -->
<g id="node8" class="node"><title>Node51</title>
<g id="a_node8"><a xlink:href="class____internal_report_1_1____report_system.html#acd358cbc59625c6e2f47e0b5f825400d" target="_top" xlink:title="Method to report an Error. &#160;It will be displayed if Level &#160;is equal or higher to VerboseLevel::ERROR...">
<polygon fill="white" stroke="black" points="512,-0.5 512,-30.5 628,-30.5 628,-0.5 512,-0.5"/>
<text text-anchor="start" x="520" y="-18.5" font-family="Helvetica,sans-Serif" font-size="10.00">__internalReport::</text>
<text text-anchor="middle" x="570" y="-7.5" font-family="Helvetica,sans-Serif" font-size="10.00">__reportSystem::report</text>
</a>
</g>
</g>
<!-- Node50&#45;&gt;Node51 -->
<g id="edge7" class="edge"><title>Node50&#45;&gt;Node51</title>
<path fill="none" stroke="midnightblue" d="M473.222,-15.5C482.692,-15.5 492.366,-15.5 501.749,-15.5"/>
<polygon fill="midnightblue" stroke="midnightblue" points="501.793,-19.0001 511.793,-15.5 501.793,-12.0001 501.793,-19.0001"/>
</g>
</g>
</svg>
