<?xml version="1.0" encoding="UTF-8" standalone="no"?>
<!DOCTYPE svg PUBLIC "-//W3C//DTD SVG 1.1//EN"
 "http://www.w3.org/Graphics/SVG/1.1/DTD/svg11.dtd">
<!-- Generated by graphviz version 2.40.1 (20161225.0304)
 -->
<!-- Title: FormatHandling::FormatManager::saveAlignment Pages: 1 -->
<svg width="717pt" height="78pt"
 viewBox="0.00 0.00 717.00 77.50" xmlns="http://www.w3.org/2000/svg" xmlns:xlink="http://www.w3.org/1999/xlink">
<g id="graph0" class="graph" transform="scale(1 1) rotate(0) translate(4 73.5)">
<title>FormatHandling::FormatManager::saveAlignment</title>
<polygon fill="#ffffff" stroke="transparent" points="-4,4 -4,-73.5 713,-73.5 713,4 -4,4"/>
<!-- Node144 -->
<g id="node1" class="node">
<title>Node144</title>
<polygon fill="#bfbfbf" stroke="#000000" points="0,-22.5 0,-52.5 160,-52.5 160,-22.5 0,-22.5"/>
<text text-anchor="start" x="8" y="-40.5" font-family="Helvetica,sans-Serif" font-size="10.00" fill="#000000">FormatHandling::FormatManager</text>
<text text-anchor="middle" x="80" y="-29.5" font-family="Helvetica,sans-Serif" font-size="10.00" fill="#000000">::saveAlignment</text>
</g>
<!-- Node145 -->
<g id="node2" class="node">
<title>Node145</title>
<g id="a_node2"><a xlink:href="read_al_main_8cpp.html#a0ddf1224851353fc92bfbff6f499fa97" target="_top" xlink:title="main">
<polygon fill="#ffffff" stroke="#000000" points="230.5,-50 230.5,-69 268.5,-69 268.5,-50 230.5,-50"/>
<text text-anchor="middle" x="249.5" y="-57" font-family="Helvetica,sans-Serif" font-size="10.00" fill="#000000">main</text>
</a>
</g>
</g>
<!-- Node144&#45;&gt;Node145 -->
<g id="edge1" class="edge">
<title>Node144&#45;&gt;Node145</title>
<path fill="none" stroke="#191970" d="M170.3491,-49.2267C192.9924,-52.1657 215.1004,-55.0352 230.1697,-56.9911"/>
<polygon fill="#191970" stroke="#191970" points="170.65,-45.7365 160.2826,-47.9202 169.7489,-52.6783 170.65,-45.7365"/>
</g>
<!-- Node146 -->
<g id="node3" class="node">
<title>Node146</title>
<g id="a_node3"><a xlink:href="classtrim_al_manager.html#a7ba38127fa10c926b96c60250b80d2b7" target="_top" xlink:title="trimAlManager::save\l_alignment">
<polygon fill="#ffffff" stroke="#000000" points="196,-.5 196,-30.5 303,-30.5 303,-.5 196,-.5"/>
<text text-anchor="start" x="204" y="-18.5" font-family="Helvetica,sans-Serif" font-size="10.00" fill="#000000">trimAlManager::save</text>
<text text-anchor="middle" x="249.5" y="-7.5" font-family="Helvetica,sans-Serif" font-size="10.00" fill="#000000">_alignment</text>
</a>
</g>
</g>
<!-- Node144&#45;&gt;Node146 -->
<g id="edge2" class="edge">
<title>Node144&#45;&gt;Node146</title>
<path fill="none" stroke="#191970" d="M170.3972,-25.767C179.001,-24.6503 187.5269,-23.5437 195.618,-22.4935"/>
<polygon fill="#191970" stroke="#191970" points="169.7489,-22.3217 160.2826,-27.0798 170.6499,-29.2635 169.7489,-22.3217"/>
</g>
<!-- Node147 -->
<g id="node4" class="node">
<title>Node147</title>
<g id="a_node4"><a xlink:href="classtrim_al_manager.html#a7c641a1feff33d401b4ea5c82e989289" target="_top" xlink:title="trimAlManager::innerPerform">
<polygon fill="#ffffff" stroke="#000000" points="339,-6 339,-25 480,-25 480,-6 339,-6"/>
<text text-anchor="middle" x="409.5" y="-13" font-family="Helvetica,sans-Serif" font-size="10.00" fill="#000000">trimAlManager::innerPerform</text>
</a>
</g>
</g>
<!-- Node146&#45;&gt;Node147 -->
<g id="edge3" class="edge">
<title>Node146&#45;&gt;Node147</title>
<path fill="none" stroke="#191970" d="M313.3182,-15.5C321.7172,-15.5 330.3645,-15.5 338.8687,-15.5"/>
<polygon fill="#191970" stroke="#191970" points="313.2228,-12.0001 303.2228,-15.5 313.2227,-19.0001 313.2228,-12.0001"/>
</g>
<!-- Node148 -->
<g id="node5" class="node">
<title>Node148</title>
<g id="a_node5"><a xlink:href="classtrim_al_manager.html#abe8d2841455c644dc9c7d1294b82b00f" target="_top" xlink:title="Method to perform the analysis if all checks have passed. ">
<polygon fill="#ffffff" stroke="#000000" points="516,-6 516,-25 635,-25 635,-6 516,-6"/>
<text text-anchor="middle" x="575.5" y="-13" font-family="Helvetica,sans-Serif" font-size="10.00" fill="#000000">trimAlManager::perform</text>
</a>
</g>
</g>
<!-- Node147&#45;&gt;Node148 -->
<g id="edge4" class="edge">
<title>Node147&#45;&gt;Node148</title>
<path fill="none" stroke="#191970" d="M490.4012,-15.5C498.9677,-15.5 507.564,-15.5 515.8249,-15.5"/>
<polygon fill="#191970" stroke="#191970" points="490.3805,-12.0001 480.3804,-15.5 490.3804,-19.0001 490.3805,-12.0001"/>
</g>
<!-- Node149 -->
<g id="node6" class="node">
<title>Node149</title>
<g id="a_node6"><a xlink:href="trim_al_main_8cpp.html#a0ddf1224851353fc92bfbff6f499fa97" target="_top" xlink:title="main">
<polygon fill="#ffffff" stroke="#000000" points="671,-6 671,-25 709,-25 709,-6 671,-6"/>
<text text-anchor="middle" x="690" y="-13" font-family="Helvetica,sans-Serif" font-size="10.00" fill="#000000">main</text>
</a>
</g>
</g>
<!-- Node148&#45;&gt;Node149 -->
<g id="edge5" class="edge">
<title>Node148&#45;&gt;Node149</title>
<path fill="none" stroke="#191970" d="M645.3198,-15.5C654.6177,-15.5 663.4503,-15.5 670.7697,-15.5"/>
<polygon fill="#191970" stroke="#191970" points="645.0976,-12.0001 635.0976,-15.5 645.0975,-19.0001 645.0976,-12.0001"/>
</g>
</g>
</svg>
