<?xml version="1.0" encoding="UTF-8" standalone="no"?>
<!DOCTYPE svg PUBLIC "-//W3C//DTD SVG 1.1//EN"
 "http://www.w3.org/Graphics/SVG/1.1/DTD/svg11.dtd">
<!-- Generated by graphviz version 2.40.1 (20161225.0304)
 -->
<!-- Title: trimAlManager::examples Pages: 1 -->
<svg width="543pt" height="56pt"
 viewBox="0.00 0.00 543.00 55.50" xmlns="http://www.w3.org/2000/svg" xmlns:xlink="http://www.w3.org/1999/xlink">
<g id="graph0" class="graph" transform="scale(1 1) rotate(0) translate(4 51.5)">
<title>trimAlManager::examples</title>
<polygon fill="#ffffff" stroke="transparent" points="-4,4 -4,-51.5 539,-51.5 539,4 -4,4"/>
<!-- Node594 -->
<g id="node1" class="node">
<title>Node594</title>
<polygon fill="#bfbfbf" stroke="#000000" points="0,-.5 0,-19.5 128,-19.5 128,-.5 0,-.5"/>
<text text-anchor="middle" x="64" y="-7.5" font-family="Helvetica,sans-Serif" font-size="10.00" fill="#000000">trimAlManager::examples</text>
</g>
<!-- Node595 -->
<g id="node2" class="node">
<title>Node595</title>
<g id="a_node2"><a xlink:href="classtrim_al_manager.html#a29848e9632746b1cc2b42d36bf54a35c" target="_top" xlink:title="Method to parse information arguments as help and menu. ">
<polygon fill="#ffffff" stroke="#000000" points="164,-17 164,-47 268,-47 268,-17 164,-17"/>
<text text-anchor="start" x="172" y="-35" font-family="Helvetica,sans-Serif" font-size="10.00" fill="#000000">trimAlManager::help</text>
<text text-anchor="middle" x="216" y="-24" font-family="Helvetica,sans-Serif" font-size="10.00" fill="#000000">_arguments</text>
</a>
</g>
</g>
<!-- Node594&#45;&gt;Node595 -->
<g id="edge1" class="edge">
<title>Node594&#45;&gt;Node595</title>
<path fill="none" stroke="#191970" d="M138.0838,-20.7227C146.6912,-21.9685 155.3313,-23.219 163.5622,-24.4103"/>
<polygon fill="#191970" stroke="#191970" points="138.4194,-17.2348 128.0211,-19.2662 137.4166,-24.1627 138.4194,-17.2348"/>
</g>
<!-- Node596 -->
<g id="node3" class="node">
<title>Node596</title>
<g id="a_node3"><a xlink:href="classtrim_al_manager.html#af3b0625b6bcc6df5978e63530a5956e6" target="_top" xlink:title="Method to parse arguments into usable structure in trimal. ">
<polygon fill="#ffffff" stroke="#000000" points="304,-.5 304,-19.5 461,-19.5 461,-.5 304,-.5"/>
<text text-anchor="middle" x="382.5" y="-7.5" font-family="Helvetica,sans-Serif" font-size="10.00" fill="#000000">trimAlManager::parseArguments</text>
</a>
</g>
</g>
<!-- Node594&#45;&gt;Node596 -->
<g id="edge4" class="edge">
<title>Node594&#45;&gt;Node596</title>
<path fill="none" stroke="#191970" d="M138.1804,-8.351C146.8839,-8.2065 155.6383,-8.0836 164,-8 210.2199,-7.5378 221.7795,-7.5964 268,-8 279.6302,-8.1016 291.9242,-8.2612 303.9713,-8.4469"/>
<polygon fill="#191970" stroke="#191970" points="137.9502,-4.8544 128.0132,-8.5295 138.0731,-11.8533 137.9502,-4.8544"/>
</g>
<!-- Node595&#45;&gt;Node596 -->
<g id="edge2" class="edge">
<title>Node595&#45;&gt;Node596</title>
<path fill="none" stroke="#191970" d="M278.4453,-23.749C288.8463,-22.3747 299.7103,-20.9392 310.3294,-19.5361"/>
<polygon fill="#191970" stroke="#191970" points="277.6801,-20.3196 268.2248,-25.0994 278.5972,-27.2592 277.6801,-20.3196"/>
</g>
<!-- Node597 -->
<g id="node4" class="node">
<title>Node597</title>
<g id="a_node4"><a xlink:href="trim_al_main_8cpp.html#a0ddf1224851353fc92bfbff6f499fa97" target="_top" xlink:title="main">
<polygon fill="#ffffff" stroke="#000000" points="497,-.5 497,-19.5 535,-19.5 535,-.5 497,-.5"/>
<text text-anchor="middle" x="516" y="-7.5" font-family="Helvetica,sans-Serif" font-size="10.00" fill="#000000">main</text>
</a>
</g>
</g>
<!-- Node596&#45;&gt;Node597 -->
<g id="edge3" class="edge">
<title>Node596&#45;&gt;Node597</title>
<path fill="none" stroke="#191970" d="M471.5766,-10C480.8353,-10 489.4462,-10 496.5746,-10"/>
<polygon fill="#191970" stroke="#191970" points="471.3153,-6.5001 461.3152,-10 471.3152,-13.5001 471.3153,-6.5001"/>
</g>
</g>
</svg>
