<?xml version="1.0" encoding="UTF-8" standalone="no"?>
<!DOCTYPE svg PUBLIC "-//W3C//DTD SVG 1.1//EN"
 "http://www.w3.org/Graphics/SVG/1.1/DTD/svg11.dtd">
<!-- Generated by graphviz version 2.40.1 (20161225.0304)
 -->
<!-- Title: FormatHandling::FormatManager::loadAlignment Pages: 1 -->
<svg width="842pt" height="255pt"
 viewBox="0.00 0.00 842.00 255.00" xmlns="http://www.w3.org/2000/svg" xmlns:xlink="http://www.w3.org/1999/xlink">
<g id="graph0" class="graph" transform="scale(1 1) rotate(0) translate(4 251)">
<title>FormatHandling::FormatManager::loadAlignment</title>
<polygon fill="#ffffff" stroke="transparent" points="-4,4 -4,-251 838,-251 838,4 -4,4"/>
<!-- Node96 -->
<g id="node1" class="node">
<title>Node96</title>
<polygon fill="#bfbfbf" stroke="#000000" points="0,-110.5 0,-140.5 160,-140.5 160,-110.5 0,-110.5"/>
<text text-anchor="start" x="8" y="-128.5" font-family="Helvetica,sans-Serif" font-size="10.00" fill="#000000">FormatHandling::FormatManager</text>
<text text-anchor="middle" x="80" y="-117.5" font-family="Helvetica,sans-Serif" font-size="10.00" fill="#000000">::loadAlignment</text>
</g>
<!-- Node97 -->
<g id="node2" class="node">
<title>Node97</title>
<g id="a_node2"><a xlink:href="classtrim_al_manager.html#ae49bc2cb7f90419296da65a23df39c8d" target="_top" xlink:title="Method to parse the backtranslation argument. ">
<polygon fill="#ffffff" stroke="#000000" points="427.5,-216.5 427.5,-246.5 534.5,-246.5 534.5,-216.5 427.5,-216.5"/>
<text text-anchor="start" x="435.5" y="-234.5" font-family="Helvetica,sans-Serif" font-size="10.00" fill="#000000">trimAlManager::back</text>
<text text-anchor="middle" x="481" y="-223.5" font-family="Helvetica,sans-Serif" font-size="10.00" fill="#000000">_trans_argument</text>
</a>
</g>
</g>
<!-- Node96&#45;&gt;Node97 -->
<g id="edge1" class="edge">
<title>Node96&#45;&gt;Node97</title>
<path fill="none" stroke="#191970" d="M110.5274,-145.9212C133.1721,-160.0916 165.3098,-178.2055 196,-188.5 273.9224,-214.6379 369.1755,-224.9366 427.4436,-228.9613"/>
<polygon fill="#191970" stroke="#191970" points="112.3519,-142.9336 102.037,-140.5141 108.5917,-148.838 112.3519,-142.9336"/>
</g>
<!-- Node100 -->
<g id="node5" class="node">
<title>Node100</title>
<g id="a_node5"><a xlink:href="classtrim_al_manager.html#a63dad1ad106b0fa09351cd5981b37aeb" target="_top" xlink:title="Method to parse the force select argument. ">
<polygon fill="#ffffff" stroke="#000000" points="427.5,-167.5 427.5,-197.5 534.5,-197.5 534.5,-167.5 427.5,-167.5"/>
<text text-anchor="start" x="435.5" y="-185.5" font-family="Helvetica,sans-Serif" font-size="10.00" fill="#000000">trimAlManager::force</text>
<text text-anchor="middle" x="481" y="-174.5" font-family="Helvetica,sans-Serif" font-size="10.00" fill="#000000">_select_argument</text>
</a>
</g>
</g>
<!-- Node96&#45;&gt;Node100 -->
<g id="edge4" class="edge">
<title>Node96&#45;&gt;Node100</title>
<path fill="none" stroke="#191970" d="M123.7479,-144.2751C145.1297,-152.5891 171.4821,-161.5832 196,-166.5 275.4441,-182.4315 369.6628,-184.5395 427.3784,-183.9828"/>
<polygon fill="#191970" stroke="#191970" points="124.8838,-140.9603 114.2981,-140.5201 122.2988,-147.4655 124.8838,-140.9603"/>
</g>
<!-- Node101 -->
<g id="node6" class="node">
<title>Node101</title>
<g id="a_node6"><a xlink:href="classtrim_al_manager.html#a9580aa82de8aba6794647a36c0416a33" target="_top" xlink:title="Method to parse the input file argument. ">
<polygon fill="#ffffff" stroke="#000000" points="208,-138 208,-157 347,-157 347,-138 208,-138"/>
<text text-anchor="middle" x="277.5" y="-145" font-family="Helvetica,sans-Serif" font-size="10.00" fill="#000000">trimAlManager::in_argument</text>
</a>
</g>
</g>
<!-- Node96&#45;&gt;Node101 -->
<g id="edge6" class="edge">
<title>Node96&#45;&gt;Node101</title>
<path fill="none" stroke="#191970" d="M170.1332,-135.5402C182.7818,-136.9491 195.6203,-138.3792 207.8103,-139.7371"/>
<polygon fill="#191970" stroke="#191970" points="170.3721,-132.0452 160.0461,-134.4165 169.5971,-139.0022 170.3721,-132.0452"/>
</g>
<!-- Node102 -->
<g id="node7" class="node">
<title>Node102</title>
<g id="a_node7"><a xlink:href="class_format_handling_1_1_format_manager.html#a853678a6e07f67da8cf7b77795b297be" target="_top" xlink:title="Function that takes multiple files, loads them and saves in a cumulus of formats, using an outPattern...">
<polygon fill="#ffffff" stroke="#000000" points="196,-88.5 196,-118.5 359,-118.5 359,-88.5 196,-88.5"/>
<text text-anchor="start" x="204" y="-106.5" font-family="Helvetica,sans-Serif" font-size="10.00" fill="#000000">FormatHandling::FormatManager</text>
<text text-anchor="middle" x="277.5" y="-95.5" font-family="Helvetica,sans-Serif" font-size="10.00" fill="#000000">::loadAndSaveMultipleAlignments</text>
</a>
</g>
</g>
<!-- Node96&#45;&gt;Node102 -->
<g id="edge8" class="edge">
<title>Node96&#45;&gt;Node102</title>
<path fill="none" stroke="#191970" d="M170.0418,-115.47C178.6045,-114.5162 187.2551,-113.5526 195.7335,-112.6082"/>
<polygon fill="#191970" stroke="#191970" points="169.5971,-111.9978 160.0461,-116.5835 170.3721,-118.9548 169.5971,-111.9978"/>
</g>
<!-- Node103 -->
<g id="node8" class="node">
<title>Node103</title>
<g id="a_node8"><a xlink:href="read_al_main_8cpp.html#a0ddf1224851353fc92bfbff6f499fa97" target="_top" xlink:title="main">
<polygon fill="#ffffff" stroke="#000000" points="462,-69 462,-88 500,-88 500,-69 462,-69"/>
<text text-anchor="middle" x="481" y="-76" font-family="Helvetica,sans-Serif" font-size="10.00" fill="#000000">main</text>
</a>
</g>
</g>
<!-- Node96&#45;&gt;Node103 -->
<g id="edge10" class="edge">
<title>Node96&#45;&gt;Node103</title>
<path fill="none" stroke="#191970" d="M118.4617,-106.034C140.5372,-95.9485 169.1309,-84.6819 196,-79.5 294.383,-60.526 415.4471,-70.9438 461.7514,-76.1267"/>
<polygon fill="#191970" stroke="#191970" points="116.6881,-102.9997 109.1162,-110.4103 119.6568,-109.339 116.6881,-102.9997"/>
</g>
<!-- Node104 -->
<g id="node9" class="node">
<title>Node104</title>
<g id="a_node9"><a xlink:href="classstatistics_1_1_consistency.html#a8f7ddf54c5be583916b983ede82d5b88" target="_top" xlink:title="Method to compare a set of MSA, all containing the same sequences and residues. The number of residue...">
<polygon fill="#ffffff" stroke="#000000" points="219,-.5 219,-30.5 336,-30.5 336,-.5 219,-.5"/>
<text text-anchor="start" x="227" y="-18.5" font-family="Helvetica,sans-Serif" font-size="10.00" fill="#000000">statistics::Consistency</text>
<text text-anchor="middle" x="277.5" y="-7.5" font-family="Helvetica,sans-Serif" font-size="10.00" fill="#000000">::perform</text>
</a>
</g>
</g>
<!-- Node96&#45;&gt;Node104 -->
<g id="edge11" class="edge">
<title>Node96&#45;&gt;Node104</title>
<path fill="none" stroke="#191970" d="M106.9084,-104.0361C129.6657,-86.6135 163.6451,-62.2715 196,-45.5 206.8426,-39.8796 218.9831,-34.8125 230.5146,-30.5112"/>
<polygon fill="#191970" stroke="#191970" points="104.5259,-101.4543 98.7627,-110.3445 108.812,-106.9887 104.5259,-101.4543"/>
</g>
<!-- Node98 -->
<g id="node3" class="node">
<title>Node98</title>
<g id="a_node3"><a xlink:href="classtrim_al_manager.html#af3b0625b6bcc6df5978e63530a5956e6" target="_top" xlink:title="Method to parse arguments into usable structure in trimal. ">
<polygon fill="#ffffff" stroke="#000000" points="603,-151 603,-170 760,-170 760,-151 603,-151"/>
<text text-anchor="middle" x="681.5" y="-158" font-family="Helvetica,sans-Serif" font-size="10.00" fill="#000000">trimAlManager::parseArguments</text>
</a>
</g>
</g>
<!-- Node97&#45;&gt;Node98 -->
<g id="edge2" class="edge">
<title>Node97&#45;&gt;Node98</title>
<path fill="none" stroke="#191970" d="M544.2363,-214.7687C551.9465,-212.4596 559.6812,-210.0136 567,-207.5 600.1262,-196.1228 637.4878,-180.1795 660.2615,-170.0971"/>
<polygon fill="#191970" stroke="#191970" points="543.1297,-211.4457 534.5164,-217.6151 545.097,-218.1635 543.1297,-211.4457"/>
</g>
<!-- Node99 -->
<g id="node4" class="node">
<title>Node99</title>
<g id="a_node4"><a xlink:href="trim_al_main_8cpp.html#a0ddf1224851353fc92bfbff6f499fa97" target="_top" xlink:title="main">
<polygon fill="#ffffff" stroke="#000000" points="796,-151 796,-170 834,-170 834,-151 796,-151"/>
<text text-anchor="middle" x="815" y="-158" font-family="Helvetica,sans-Serif" font-size="10.00" fill="#000000">main</text>
</a>
</g>
</g>
<!-- Node98&#45;&gt;Node99 -->
<g id="edge3" class="edge">
<title>Node98&#45;&gt;Node99</title>
<path fill="none" stroke="#191970" d="M770.5766,-160.5C779.8353,-160.5 788.4462,-160.5 795.5746,-160.5"/>
<polygon fill="#191970" stroke="#191970" points="770.3153,-157.0001 760.3152,-160.5 770.3152,-164.0001 770.3153,-157.0001"/>
</g>
<!-- Node100&#45;&gt;Node98 -->
<g id="edge5" class="edge">
<title>Node100&#45;&gt;Node98</title>
<path fill="none" stroke="#191970" d="M544.7518,-175.5048C563.1777,-173.483 583.5087,-171.2522 602.7337,-169.1427"/>
<polygon fill="#191970" stroke="#191970" points="544.2889,-172.0345 534.7303,-176.6044 545.0524,-178.9927 544.2889,-172.0345"/>
</g>
<!-- Node101&#45;&gt;Node98 -->
<g id="edge7" class="edge">
<title>Node101&#45;&gt;Node98</title>
<path fill="none" stroke="#191970" d="M357.6631,-150.0795C428.7892,-152.3682 532.0882,-155.6922 602.7761,-157.9668"/>
<polygon fill="#191970" stroke="#191970" points="357.5176,-146.5731 347.4102,-149.7496 357.2924,-153.5695 357.5176,-146.5731"/>
</g>
<!-- Node102&#45;&gt;Node103 -->
<g id="edge9" class="edge">
<title>Node102&#45;&gt;Node103</title>
<path fill="none" stroke="#191970" d="M369.3089,-92.2213C403.9934,-87.9603 440.2335,-83.5082 461.7005,-80.871"/>
<polygon fill="#191970" stroke="#191970" points="368.5973,-88.7823 359.0987,-93.4756 369.4509,-95.7301 368.5973,-88.7823"/>
</g>
<!-- Node105 -->
<g id="node10" class="node">
<title>Node105</title>
<g id="a_node10"><a xlink:href="classtrim_al_manager.html#a12b7cef964ef258fe7621da44867c51f" target="_top" xlink:title="Method to check if multiple files comparison has been set correctly. It also perform some calculation...">
<polygon fill="#ffffff" stroke="#000000" points="395,-28 395,-47 567,-47 567,-28 395,-28"/>
<text text-anchor="middle" x="481" y="-35" font-family="Helvetica,sans-Serif" font-size="10.00" fill="#000000">trimAlManager::performCompareset</text>
</a>
</g>
</g>
<!-- Node104&#45;&gt;Node105 -->
<g id="edge12" class="edge">
<title>Node104&#45;&gt;Node105</title>
<path fill="none" stroke="#191970" d="M346.1657,-22.9233C361.7848,-24.6119 378.5711,-26.4266 394.8152,-28.1827"/>
<polygon fill="#191970" stroke="#191970" points="346.4059,-19.429 336.0876,-21.8338 345.6535,-26.3884 346.4059,-19.429"/>
</g>
<!-- Node105&#45;&gt;Node98 -->
<g id="edge13" class="edge">
<title>Node105&#45;&gt;Node98</title>
<path fill="none" stroke="#191970" d="M544.3482,-50.0213C552.1925,-52.6315 559.9303,-55.7596 567,-59.5 613.1567,-83.9205 656.0798,-130.5663 673.413,-150.77"/>
<polygon fill="#191970" stroke="#191970" points="545.3511,-46.6681 534.7646,-47.0879 543.3023,-53.3616 545.3511,-46.6681"/>
</g>
</g>
</svg>
