<?xml version="1.0" encoding="UTF-8" standalone="no"?>
<!DOCTYPE svg PUBLIC "-//W3C//DTD SVG 1.1//EN"
 "http://www.w3.org/Graphics/SVG/1.1/DTD/svg11.dtd">
<!-- Generated by graphviz version 2.38.0 (20140413.2041)
 -->
<!-- Title: trimAlManager::create_or_use_similarity_matrix Pages: 1 -->
<svg width="503pt" height="78pt"
 viewBox="0.00 0.00 503.00 77.50" xmlns="http://www.w3.org/2000/svg" xmlns:xlink="http://www.w3.org/1999/xlink">
<g id="graph0" class="graph" transform="scale(1 1) rotate(0) translate(4 73.5)">
<title>trimAlManager::create_or_use_similarity_matrix</title>
<polygon fill="white" stroke="none" points="-4,4 -4,-73.5 499,-73.5 499,4 -4,4"/>
<!-- Node299 -->
<g id="node1" class="node"><title>Node299</title>
<polygon fill="#bfbfbf" stroke="black" points="0,-22.5 0,-52.5 128,-52.5 128,-22.5 0,-22.5"/>
<text text-anchor="start" x="8" y="-40.5" font-family="Helvetica,sans-Serif" font-size="10.00">trimAlManager::create</text>
<text text-anchor="middle" x="64" y="-29.5" font-family="Helvetica,sans-Serif" font-size="10.00">_or_use_similarity_matrix</text>
</g>
<!-- Node300 -->
<g id="node2" class="node"><title>Node300</title>
<g id="a_node2"><a xlink:href="classnew_alignment.html#a670d5ef1ced9ed6041c3f6afdbd2cc02" target="_top" xlink:title="Alignment type getter. &#160;&#160;See SequenceTypes.">
<polygon fill="white" stroke="black" points="164,-50 164,-69 327,-69 327,-50 164,-50"/>
<text text-anchor="middle" x="245.5" y="-57" font-family="Helvetica,sans-Serif" font-size="10.00">newAlignment::getAlignmentType</text>
</a>
</g>
</g>
<!-- Node299&#45;&gt;Node300 -->
<g id="edge1" class="edge"><title>Node299&#45;&gt;Node300</title>
<path fill="none" stroke="midnightblue" d="M128.033,-45.2254C137.329,-46.3649 147.047,-47.5559 156.734,-48.7431"/>
<polygon fill="midnightblue" stroke="midnightblue" points="156.447,-52.2341 166.798,-49.9767 157.298,-45.2861 156.447,-52.2341"/>
</g>
<!-- Node302 -->
<g id="node4" class="node"><title>Node302</title>
<g id="a_node4"><a xlink:href="class____internal_report_1_1____report_system.html#acd358cbc59625c6e2f47e0b5f825400d" target="_top" xlink:title="Method to report an Error. &#160;It will be displayed if Level &#160;is equal or higher to VerboseLevel::ERROR...">
<polygon fill="white" stroke="black" points="187.5,-0.5 187.5,-30.5 303.5,-30.5 303.5,-0.5 187.5,-0.5"/>
<text text-anchor="start" x="195.5" y="-18.5" font-family="Helvetica,sans-Serif" font-size="10.00">__internalReport::</text>
<text text-anchor="middle" x="245.5" y="-7.5" font-family="Helvetica,sans-Serif" font-size="10.00">__reportSystem::report</text>
</a>
</g>
</g>
<!-- Node299&#45;&gt;Node302 -->
<g id="edge3" class="edge"><title>Node299&#45;&gt;Node302</title>
<path fill="none" stroke="midnightblue" d="M128.033,-29.7746C143.86,-27.8347 160.907,-25.7454 176.945,-23.7797"/>
<polygon fill="midnightblue" stroke="midnightblue" points="177.816,-27.1992 187.316,-22.5086 176.965,-20.2512 177.816,-27.1992"/>
</g>
<!-- Node301 -->
<g id="node3" class="node"><title>Node301</title>
<g id="a_node3"><a xlink:href="classutils.html#a1f1dcbfa7276e54acec72bdbae1b1255" target="_top" xlink:title="Checks an alignment type. ">
<polygon fill="white" stroke="black" points="363,-50 363,-69 495,-69 495,-50 363,-50"/>
<text text-anchor="middle" x="429" y="-57" font-family="Helvetica,sans-Serif" font-size="10.00">utils::checkAlignmentType</text>
</a>
</g>
</g>
<!-- Node300&#45;&gt;Node301 -->
<g id="edge2" class="edge"><title>Node300&#45;&gt;Node301</title>
<path fill="none" stroke="midnightblue" d="M327.166,-59.5C335.646,-59.5 344.246,-59.5 352.664,-59.5"/>
<polygon fill="midnightblue" stroke="midnightblue" points="352.821,-63.0001 362.821,-59.5 352.821,-56.0001 352.821,-63.0001"/>
</g>
</g>
</svg>
