<?xml version="1.0" encoding="UTF-8" standalone="no"?>
<!DOCTYPE svg PUBLIC "-//W3C//DTD SVG 1.1//EN"
 "http://www.w3.org/Graphics/SVG/1.1/DTD/svg11.dtd">
<!-- Generated by graphviz version 2.40.1 (20161225.0304)
 -->
<!-- Title: trimAlManager::in_argument Pages: 1 -->
<svg width="414pt" height="28pt"
 viewBox="0.00 0.00 414.00 28.00" xmlns="http://www.w3.org/2000/svg" xmlns:xlink="http://www.w3.org/1999/xlink">
<g id="graph0" class="graph" transform="scale(1 1) rotate(0) translate(4 24)">
<title>trimAlManager::in_argument</title>
<polygon fill="#ffffff" stroke="transparent" points="-4,4 -4,-24 410,-24 410,4 -4,4"/>
<!-- Node548 -->
<g id="node1" class="node">
<title>Node548</title>
<g id="a_node1"><a xlink:title="Method to parse the input file argument.">
<polygon fill="#bfbfbf" stroke="#000000" points="267,-.5 267,-19.5 406,-19.5 406,-.5 267,-.5"/>
<text text-anchor="middle" x="336.5" y="-7.5" font-family="Helvetica,sans-Serif" font-size="10.00" fill="#000000">trimAlManager::in_argument</text>
</a>
</g>
</g>
<!-- Node549 -->
<g id="node2" class="node">
<title>Node549</title>
<g id="a_node2"><a xlink:href="classtrim_al_manager.html#af140d97b6071a83930818030ac74b641" target="_top" xlink:title="Method to parse arguments into usable structure in trimal.">
<polygon fill="#ffffff" stroke="#000000" points="74,-.5 74,-19.5 231,-19.5 231,-.5 74,-.5"/>
<text text-anchor="middle" x="152.5" y="-7.5" font-family="Helvetica,sans-Serif" font-size="10.00" fill="#000000">trimAlManager::parseArguments</text>
</a>
</g>
</g>
<!-- Node548&#45;&gt;Node549 -->
<g id="edge1" class="edge">
<title>Node548&#45;&gt;Node549</title>
<path fill="none" stroke="#191970" d="M256.679,-10C248.1954,-10 239.5712,-10 231.1017,-10"/>
<polygon fill="#191970" stroke="#191970" points="256.9375,-13.5001 266.9375,-10 256.9375,-6.5001 256.9375,-13.5001"/>
</g>
<!-- Node550 -->
<g id="node3" class="node">
<title>Node550</title>
<g id="a_node3"><a xlink:href="trim_al_main_8cpp.html#a0ddf1224851353fc92bfbff6f499fa97" target="_top" xlink:title=" ">
<polygon fill="#ffffff" stroke="#000000" points="0,-.5 0,-19.5 38,-19.5 38,-.5 0,-.5"/>
<text text-anchor="middle" x="19" y="-7.5" font-family="Helvetica,sans-Serif" font-size="10.00" fill="#000000">main</text>
</a>
</g>
</g>
<!-- Node549&#45;&gt;Node550 -->
<g id="edge2" class="edge">
<title>Node549&#45;&gt;Node550</title>
<path fill="none" stroke="#191970" d="M63.4234,-10C54.1647,-10 45.5538,-10 38.4254,-10"/>
<polygon fill="#191970" stroke="#191970" points="63.6848,-13.5001 73.6848,-10 63.6847,-6.5001 63.6848,-13.5001"/>
</g>
</g>
</svg>
