<?xml version="1.0" encoding="UTF-8" standalone="no"?>
<!DOCTYPE svg PUBLIC "-//W3C//DTD SVG 1.1//EN"
 "http://www.w3.org/Graphics/SVG/1.1/DTD/svg11.dtd">
<!-- Generated by graphviz version 2.38.0 (20140413.2041)
 -->
<!-- Title: Cleaner::cleanOverlapSeq Pages: 1 -->
<svg width="354pt" height="165pt"
 viewBox="0.00 0.00 354.00 165.00" xmlns="http://www.w3.org/2000/svg" xmlns:xlink="http://www.w3.org/1999/xlink">
<g id="graph0" class="graph" transform="scale(1 1) rotate(0) translate(4 161)">
<title>Cleaner::cleanOverlapSeq</title>
<polygon fill="white" stroke="none" points="-4,4 -4,-161 350,-161 350,4 -4,4"/>
<!-- Node134 -->
<g id="node1" class="node"><title>Node134</title>
<polygon fill="#bfbfbf" stroke="black" points="0,-68.5 0,-87.5 131,-87.5 131,-68.5 0,-68.5"/>
<text text-anchor="middle" x="65.5" y="-75.5" font-family="Helvetica,sans-Serif" font-size="10.00">Cleaner::cleanOverlapSeq</text>
</g>
<!-- Node135 -->
<g id="node2" class="node"><title>Node135</title>
<g id="a_node2"><a xlink:href="class_cleaner.html#a24bd28e4191afc9471adff329bee1466" target="_top" xlink:title="Method for computing the complementary alignment. Complementary Alignment is an alignment containing ...">
<polygon fill="white" stroke="black" points="167,-137.5 167,-156.5 346,-156.5 346,-137.5 167,-137.5"/>
<text text-anchor="middle" x="256.5" y="-144.5" font-family="Helvetica,sans-Serif" font-size="10.00">Cleaner::computeComplementaryAlig</text>
</a>
</g>
</g>
<!-- Node134&#45;&gt;Node135 -->
<g id="edge1" class="edge"><title>Node134&#45;&gt;Node135</title>
<path fill="none" stroke="midnightblue" d="M82.6611,-87.6305C102.072,-98.817 135.913,-117.123 167,-128 174.593,-130.657 182.687,-133.01 190.779,-135.076"/>
<polygon fill="midnightblue" stroke="midnightblue" points="190.073,-138.506 200.615,-137.454 191.718,-131.702 190.073,-138.506"/>
</g>
<!-- Node136 -->
<g id="node3" class="node"><title>Node136</title>
<g id="a_node3"><a xlink:href="class_cleaner.html#a2f7d85e29f23f880a7ad7e28863b36c3" target="_top" xlink:title="Method that identifies and removes columns and sequences composed only by gaps. ">
<polygon fill="white" stroke="black" points="202,-88 202,-118 311,-118 311,-88 202,-88"/>
<text text-anchor="start" x="210" y="-106" font-family="Helvetica,sans-Serif" font-size="10.00">Cleaner::removeCols</text>
<text text-anchor="middle" x="256.5" y="-95" font-family="Helvetica,sans-Serif" font-size="10.00">_SeqsAllGaps</text>
</a>
</g>
</g>
<!-- Node134&#45;&gt;Node136 -->
<g id="edge2" class="edge"><title>Node134&#45;&gt;Node136</title>
<path fill="none" stroke="midnightblue" d="M131.014,-86.5337C150.684,-89.1355 172.288,-91.9931 191.897,-94.5869"/>
<polygon fill="midnightblue" stroke="midnightblue" points="191.576,-98.0748 201.948,-95.9164 192.494,-91.1352 191.576,-98.0748"/>
</g>
<!-- Node137 -->
<g id="node4" class="node"><title>Node137</title>
<g id="a_node4"><a xlink:href="classnew_alignment.html#a3de39c62c08a265178f1fa7df76c3ab7" target="_top" xlink:title="Method that copies information of the alignment to the pointers given. ">
<polygon fill="white" stroke="black" points="189,-39 189,-69 324,-69 324,-39 189,-39"/>
<text text-anchor="start" x="197" y="-57" font-family="Helvetica,sans-Serif" font-size="10.00">newAlignment::fillNewData</text>
<text text-anchor="middle" x="256.5" y="-46" font-family="Helvetica,sans-Serif" font-size="10.00">Structure</text>
</a>
</g>
</g>
<!-- Node134&#45;&gt;Node137 -->
<g id="edge3" class="edge"><title>Node134&#45;&gt;Node137</title>
<path fill="none" stroke="midnightblue" d="M131.014,-69.8077C146.278,-67.8695 162.706,-65.7834 178.463,-63.7825"/>
<polygon fill="midnightblue" stroke="midnightblue" points="179.222,-67.2143 188.702,-62.4823 178.34,-60.27 179.222,-67.2143"/>
</g>
<!-- Node138 -->
<g id="node5" class="node"><title>Node138</title>
<g id="a_node5"><a xlink:href="classnew_alignment.html#acbeb320f0f70222f81a906ccfc33a016" target="_top" xlink:title="Method to intialize data that has been modified on the alignment. The method checks if the sequences ...">
<polygon fill="white" stroke="black" points="191,-0.5 191,-19.5 322,-19.5 322,-0.5 191,-0.5"/>
<text text-anchor="middle" x="256.5" y="-7.5" font-family="Helvetica,sans-Serif" font-size="10.00">newAlignment::fillMatrices</text>
</a>
</g>
</g>
<!-- Node134&#45;&gt;Node138 -->
<g id="edge4" class="edge"><title>Node134&#45;&gt;Node138</title>
<path fill="none" stroke="midnightblue" d="M83.4331,-68.4667C103.02,-57.7851 136.493,-40.5832 167,-30 175.743,-26.9669 185.134,-24.2727 194.416,-21.9214"/>
<polygon fill="midnightblue" stroke="midnightblue" points="195.511,-25.2576 204.408,-19.5049 193.865,-18.4537 195.511,-25.2576"/>
</g>
</g>
</svg>
