<?xml version="1.0" encoding="UTF-8" standalone="no"?>
<!DOCTYPE svg PUBLIC "-//W3C//DTD SVG 1.1//EN"
 "http://www.w3.org/Graphics/SVG/1.1/DTD/svg11.dtd">
<!-- Generated by graphviz version 2.40.1 (20161225.0304)
 -->
<!-- Title: statistics::similarityMatrix::alternativeSimilarityMatrices Pages: 1 -->
<svg width="482pt" height="39pt"
 viewBox="0.00 0.00 482.00 39.00" xmlns="http://www.w3.org/2000/svg" xmlns:xlink="http://www.w3.org/1999/xlink">
<g id="graph0" class="graph" transform="scale(1 1) rotate(0) translate(4 35)">
<title>statistics::similarityMatrix::alternativeSimilarityMatrices</title>
<polygon fill="#ffffff" stroke="transparent" points="-4,4 -4,-35 478,-35 478,4 -4,4"/>
<!-- Node10 -->
<g id="node1" class="node">
<title>Node10</title>
<polygon fill="#bfbfbf" stroke="#000000" points="0,-.5 0,-30.5 146,-30.5 146,-.5 0,-.5"/>
<text text-anchor="start" x="8" y="-18.5" font-family="Helvetica,sans-Serif" font-size="10.00" fill="#000000">statistics::similarityMatrix</text>
<text text-anchor="middle" x="73" y="-7.5" font-family="Helvetica,sans-Serif" font-size="10.00" fill="#000000">::alternativeSimilarityMatrices</text>
</g>
<!-- Node11 -->
<g id="node2" class="node">
<title>Node11</title>
<g id="a_node2"><a xlink:href="classstatistics_1_1similarity_matrix.html#a46d6657734fa07a8c7ee3bbee8145c2c" target="_top" xlink:title="Method to allocate memory for the similiarity matrix. ">
<polygon fill="#ffffff" stroke="#000000" points="182,-.5 182,-30.5 310,-30.5 310,-.5 182,-.5"/>
<text text-anchor="start" x="190" y="-18.5" font-family="Helvetica,sans-Serif" font-size="10.00" fill="#000000">statistics::similarityMatrix</text>
<text text-anchor="middle" x="246" y="-7.5" font-family="Helvetica,sans-Serif" font-size="10.00" fill="#000000">::memoryAllocation</text>
</a>
</g>
</g>
<!-- Node10&#45;&gt;Node11 -->
<g id="edge1" class="edge">
<title>Node10&#45;&gt;Node11</title>
<path fill="none" stroke="#191970" d="M146.1168,-15.5C154.5742,-15.5 163.2066,-15.5 171.6798,-15.5"/>
<polygon fill="#191970" stroke="#191970" points="171.9139,-19.0001 181.9139,-15.5 171.9139,-12.0001 171.9139,-19.0001"/>
</g>
<!-- Node12 -->
<g id="node3" class="node">
<title>Node12</title>
<g id="a_node3"><a xlink:href="classstatistics_1_1similarity_matrix.html#a3f33f4b18bb1da1887ba666c74bf9a47" target="_top" xlink:title="Method to deallocate memory allocated on the similarityMatrix::memoryAllocation method. It makes use of the numPositions to effectively remove the memory. ">
<polygon fill="#ffffff" stroke="#000000" points="346,-.5 346,-30.5 474,-30.5 474,-.5 346,-.5"/>
<text text-anchor="start" x="354" y="-18.5" font-family="Helvetica,sans-Serif" font-size="10.00" fill="#000000">statistics::similarityMatrix</text>
<text text-anchor="middle" x="410" y="-7.5" font-family="Helvetica,sans-Serif" font-size="10.00" fill="#000000">::memoryDeletion</text>
</a>
</g>
</g>
<!-- Node11&#45;&gt;Node12 -->
<g id="edge2" class="edge">
<title>Node11&#45;&gt;Node12</title>
<path fill="none" stroke="#191970" d="M310.3464,-15.5C318.6401,-15.5 327.1868,-15.5 335.6248,-15.5"/>
<polygon fill="#191970" stroke="#191970" points="335.8392,-19.0001 345.8391,-15.5 335.8391,-12.0001 335.8392,-19.0001"/>
</g>
</g>
</svg>
