<?xml version="1.0" encoding="UTF-8" standalone="no"?>
<!DOCTYPE svg PUBLIC "-//W3C//DTD SVG 1.1//EN"
 "http://www.w3.org/Graphics/SVG/1.1/DTD/svg11.dtd">
<!-- Generated by graphviz version 2.40.1 (20161225.0304)
 -->
<!-- Title: trimAlManager::output_reports Pages: 1 -->
<svg width="350pt" height="39pt"
 viewBox="0.00 0.00 350.00 39.00" xmlns="http://www.w3.org/2000/svg" xmlns:xlink="http://www.w3.org/1999/xlink">
<g id="graph0" class="graph" transform="scale(1 1) rotate(0) translate(4 35)">
<title>trimAlManager::output_reports</title>
<polygon fill="#ffffff" stroke="transparent" points="-4,4 -4,-35 346,-35 346,4 -4,4"/>
<!-- Node597 -->
<g id="node1" class="node">
<title>Node597</title>
<g id="a_node1"><a xlink:title=" ">
<polygon fill="#bfbfbf" stroke="#000000" points="229,-.5 229,-30.5 342,-30.5 342,-.5 229,-.5"/>
<text text-anchor="start" x="237" y="-18.5" font-family="Helvetica,sans-Serif" font-size="10.00" fill="#000000">trimAlManager::output</text>
<text text-anchor="middle" x="285.5" y="-7.5" font-family="Helvetica,sans-Serif" font-size="10.00" fill="#000000">_reports</text>
</a>
</g>
</g>
<!-- Node598 -->
<g id="node2" class="node">
<title>Node598</title>
<g id="a_node2"><a xlink:href="classtrim_al_manager.html#abe8d2841455c644dc9c7d1294b82b00f" target="_top" xlink:title="Method to perform the analysis if all checks have passed.">
<polygon fill="#ffffff" stroke="#000000" points="74,-6 74,-25 193,-25 193,-6 74,-6"/>
<text text-anchor="middle" x="133.5" y="-13" font-family="Helvetica,sans-Serif" font-size="10.00" fill="#000000">trimAlManager::perform</text>
</a>
</g>
</g>
<!-- Node597&#45;&gt;Node598 -->
<g id="edge1" class="edge">
<title>Node597&#45;&gt;Node598</title>
<path fill="none" stroke="#191970" d="M218.6654,-15.5C210.1877,-15.5 201.5557,-15.5 193.1995,-15.5"/>
<polygon fill="#191970" stroke="#191970" points="218.9008,-19.0001 228.9008,-15.5 218.9008,-12.0001 218.9008,-19.0001"/>
</g>
<!-- Node599 -->
<g id="node3" class="node">
<title>Node599</title>
<g id="a_node3"><a xlink:href="trim_al_main_8cpp.html#a0ddf1224851353fc92bfbff6f499fa97" target="_top" xlink:title=" ">
<polygon fill="#ffffff" stroke="#000000" points="0,-6 0,-25 38,-25 38,-6 0,-6"/>
<text text-anchor="middle" x="19" y="-13" font-family="Helvetica,sans-Serif" font-size="10.00" fill="#000000">main</text>
</a>
</g>
</g>
<!-- Node598&#45;&gt;Node599 -->
<g id="edge2" class="edge">
<title>Node598&#45;&gt;Node599</title>
<path fill="none" stroke="#191970" d="M63.6802,-15.5C54.3823,-15.5 45.5497,-15.5 38.2303,-15.5"/>
<polygon fill="#191970" stroke="#191970" points="63.9025,-19.0001 73.9024,-15.5 63.9024,-12.0001 63.9025,-19.0001"/>
</g>
</g>
</svg>
