<?xml version="1.0" encoding="UTF-8" standalone="no"?>
<!DOCTYPE svg PUBLIC "-//W3C//DTD SVG 1.1//EN"
 "http://www.w3.org/Graphics/SVG/1.1/DTD/svg11.dtd">
<!-- Generated by graphviz version 2.40.1 (20161225.0304)
 -->
<!-- Title: trimAlManager::residue_overlap_argument Pages: 1 -->
<svg width="392pt" height="39pt"
 viewBox="0.00 0.00 392.00 39.00" xmlns="http://www.w3.org/2000/svg" xmlns:xlink="http://www.w3.org/1999/xlink">
<g id="graph0" class="graph" transform="scale(1 1) rotate(0) translate(4 35)">
<title>trimAlManager::residue_overlap_argument</title>
<polygon fill="#ffffff" stroke="transparent" points="-4,4 -4,-35 388,-35 388,4 -4,4"/>
<!-- Node1292 -->
<g id="node1" class="node">
<title>Node1292</title>
<polygon fill="#bfbfbf" stroke="#000000" points="0,-.5 0,-30.5 117,-30.5 117,-.5 0,-.5"/>
<text text-anchor="start" x="8" y="-18.5" font-family="Helvetica,sans-Serif" font-size="10.00" fill="#000000">trimAlManager::residue</text>
<text text-anchor="middle" x="58.5" y="-7.5" font-family="Helvetica,sans-Serif" font-size="10.00" fill="#000000">_overlap_argument</text>
</g>
<!-- Node1293 -->
<g id="node2" class="node">
<title>Node1293</title>
<g id="a_node2"><a xlink:href="classtrim_al_manager.html#af3b0625b6bcc6df5978e63530a5956e6" target="_top" xlink:title="Method to parse arguments into usable structure in trimal. ">
<polygon fill="#ffffff" stroke="#000000" points="153,-6 153,-25 310,-25 310,-6 153,-6"/>
<text text-anchor="middle" x="231.5" y="-13" font-family="Helvetica,sans-Serif" font-size="10.00" fill="#000000">trimAlManager::parseArguments</text>
</a>
</g>
</g>
<!-- Node1292&#45;&gt;Node1293 -->
<g id="edge1" class="edge">
<title>Node1292&#45;&gt;Node1293</title>
<path fill="none" stroke="#191970" d="M127.177,-15.5C135.5767,-15.5 144.2109,-15.5 152.7438,-15.5"/>
<polygon fill="#191970" stroke="#191970" points="127.0699,-12.0001 117.0699,-15.5 127.0699,-19.0001 127.0699,-12.0001"/>
</g>
<!-- Node1294 -->
<g id="node3" class="node">
<title>Node1294</title>
<g id="a_node3"><a xlink:href="trim_al_main_8cpp.html#a0ddf1224851353fc92bfbff6f499fa97" target="_top" xlink:title="main">
<polygon fill="#ffffff" stroke="#000000" points="346,-6 346,-25 384,-25 384,-6 346,-6"/>
<text text-anchor="middle" x="365" y="-13" font-family="Helvetica,sans-Serif" font-size="10.00" fill="#000000">main</text>
</a>
</g>
</g>
<!-- Node1293&#45;&gt;Node1294 -->
<g id="edge2" class="edge">
<title>Node1293&#45;&gt;Node1294</title>
<path fill="none" stroke="#191970" d="M320.5766,-15.5C329.8353,-15.5 338.4462,-15.5 345.5746,-15.5"/>
<polygon fill="#191970" stroke="#191970" points="320.3153,-12.0001 310.3152,-15.5 320.3152,-19.0001 320.3153,-12.0001"/>
</g>
</g>
</svg>
