<?xml version="1.0" encoding="UTF-8" standalone="no"?>
<!DOCTYPE svg PUBLIC "-//W3C//DTD SVG 1.1//EN"
 "http://www.w3.org/Graphics/SVG/1.1/DTD/svg11.dtd">
<!-- Generated by graphviz version 2.40.1 (20161225.0304)
 -->
<!-- Title: trimAlManager::check_col_numbering Pages: 1 -->
<svg width="278pt" height="39pt"
 viewBox="0.00 0.00 278.00 39.00" xmlns="http://www.w3.org/2000/svg" xmlns:xlink="http://www.w3.org/1999/xlink">
<g id="graph0" class="graph" transform="scale(1 1) rotate(0) translate(4 35)">
<title>trimAlManager::check_col_numbering</title>
<polygon fill="#ffffff" stroke="transparent" points="-4,4 -4,-35 274,-35 274,4 -4,4"/>
<!-- Node140 -->
<g id="node1" class="node">
<title>Node140</title>
<g id="a_node1"><a xlink:title="Method to check if column numbering makes sense based on the functionality asked.">
<polygon fill="#bfbfbf" stroke="#000000" points="0,-.5 0,-30.5 112,-30.5 112,-.5 0,-.5"/>
<text text-anchor="start" x="8" y="-18.5" font-family="Helvetica,sans-Serif" font-size="10.00" fill="#000000">trimAlManager::check</text>
<text text-anchor="middle" x="56" y="-7.5" font-family="Helvetica,sans-Serif" font-size="10.00" fill="#000000">_col_numbering</text>
</a>
</g>
</g>
<!-- Node141 -->
<g id="node2" class="node">
<title>Node141</title>
<g id="a_node2"><a xlink:href="classreporting_1_1report_manager.html#a6d122e673144584e0869bd33b8a5c1c6" target="_top" xlink:title="Method to report an Error. &#160;It will be displayed if Level &#160;is equal or higher to VerboseLevel::ERROR.">
<polygon fill="#ffffff" stroke="#000000" points="148,-.5 148,-30.5 270,-30.5 270,-.5 148,-.5"/>
<text text-anchor="start" x="156" y="-18.5" font-family="Helvetica,sans-Serif" font-size="10.00" fill="#000000">reporting::reportManager</text>
<text text-anchor="middle" x="209" y="-7.5" font-family="Helvetica,sans-Serif" font-size="10.00" fill="#000000">::report</text>
</a>
</g>
</g>
<!-- Node140&#45;&gt;Node141 -->
<g id="edge1" class="edge">
<title>Node140&#45;&gt;Node141</title>
<path fill="none" stroke="#191970" d="M112.1028,-15.5C120.4394,-15.5 129.1247,-15.5 137.7216,-15.5"/>
<polygon fill="#191970" stroke="#191970" points="137.747,-19.0001 147.7469,-15.5 137.7469,-12.0001 137.747,-19.0001"/>
</g>
</g>
</svg>
