<?xml version="1.0" encoding="UTF-8" standalone="no"?>
<!DOCTYPE svg PUBLIC "-//W3C//DTD SVG 1.1//EN"
 "http://www.w3.org/Graphics/SVG/1.1/DTD/svg11.dtd">
<!-- Generated by graphviz version 2.40.1 (20161225.0304)
 -->
<!-- Title: statistics::Consistency::perform Pages: 1 -->
<svg width="600pt" height="39pt"
 viewBox="0.00 0.00 600.00 39.00" xmlns="http://www.w3.org/2000/svg" xmlns:xlink="http://www.w3.org/1999/xlink">
<g id="graph0" class="graph" transform="scale(1 1) rotate(0) translate(4 35)">
<title>statistics::Consistency::perform</title>
<polygon fill="#ffffff" stroke="transparent" points="-4,4 -4,-35 596,-35 596,4 -4,4"/>
<!-- Node146 -->
<g id="node1" class="node">
<title>Node146</title>
<polygon fill="#bfbfbf" stroke="#000000" points="0,-.5 0,-30.5 117,-30.5 117,-.5 0,-.5"/>
<text text-anchor="start" x="8" y="-18.5" font-family="Helvetica,sans-Serif" font-size="10.00" fill="#000000">statistics::Consistency</text>
<text text-anchor="middle" x="58.5" y="-7.5" font-family="Helvetica,sans-Serif" font-size="10.00" fill="#000000">::perform</text>
</g>
<!-- Node147 -->
<g id="node2" class="node">
<title>Node147</title>
<g id="a_node2"><a xlink:href="classtrim_al_manager.html#a12b7cef964ef258fe7621da44867c51f" target="_top" xlink:title="Method to check if multiple files comparison has been set correctly. It also perform some calculation...">
<polygon fill="#ffffff" stroke="#000000" points="153,-6 153,-25 325,-25 325,-6 153,-6"/>
<text text-anchor="middle" x="239" y="-13" font-family="Helvetica,sans-Serif" font-size="10.00" fill="#000000">trimAlManager::performCompareset</text>
</a>
</g>
</g>
<!-- Node146&#45;&gt;Node147 -->
<g id="edge1" class="edge">
<title>Node146&#45;&gt;Node147</title>
<path fill="none" stroke="#191970" d="M127.185,-15.5C135.575,-15.5 144.2291,-15.5 152.8336,-15.5"/>
<polygon fill="#191970" stroke="#191970" points="127.1032,-12.0001 117.1032,-15.5 127.1031,-19.0001 127.1032,-12.0001"/>
</g>
<!-- Node148 -->
<g id="node3" class="node">
<title>Node148</title>
<g id="a_node3"><a xlink:href="classtrim_al_manager.html#af3b0625b6bcc6df5978e63530a5956e6" target="_top" xlink:title="Method to parse arguments into usable structure in trimal. ">
<polygon fill="#ffffff" stroke="#000000" points="361,-6 361,-25 518,-25 518,-6 361,-6"/>
<text text-anchor="middle" x="439.5" y="-13" font-family="Helvetica,sans-Serif" font-size="10.00" fill="#000000">trimAlManager::parseArguments</text>
</a>
</g>
</g>
<!-- Node147&#45;&gt;Node148 -->
<g id="edge2" class="edge">
<title>Node147&#45;&gt;Node148</title>
<path fill="none" stroke="#191970" d="M335.2722,-15.5C343.886,-15.5 352.539,-15.5 360.9763,-15.5"/>
<polygon fill="#191970" stroke="#191970" points="335.1937,-12.0001 325.1936,-15.5 335.1936,-19.0001 335.1937,-12.0001"/>
</g>
<!-- Node149 -->
<g id="node4" class="node">
<title>Node149</title>
<g id="a_node4"><a xlink:href="trim_al_main_8cpp.html#a0ddf1224851353fc92bfbff6f499fa97" target="_top" xlink:title="main">
<polygon fill="#ffffff" stroke="#000000" points="554,-6 554,-25 592,-25 592,-6 554,-6"/>
<text text-anchor="middle" x="573" y="-13" font-family="Helvetica,sans-Serif" font-size="10.00" fill="#000000">main</text>
</a>
</g>
</g>
<!-- Node148&#45;&gt;Node149 -->
<g id="edge3" class="edge">
<title>Node148&#45;&gt;Node149</title>
<path fill="none" stroke="#191970" d="M528.5766,-15.5C537.8353,-15.5 546.4462,-15.5 553.5746,-15.5"/>
<polygon fill="#191970" stroke="#191970" points="528.3153,-12.0001 518.3152,-15.5 528.3152,-19.0001 528.3153,-12.0001"/>
</g>
</g>
</svg>
