<?xml version="1.0" encoding="UTF-8" standalone="no"?>
<!DOCTYPE svg PUBLIC "-//W3C//DTD SVG 1.1//EN"
 "http://www.w3.org/Graphics/SVG/1.1/DTD/svg11.dtd">
<!-- Generated by graphviz version 2.38.0 (20140413.2041)
 -->
<!-- Title: Cleaner::clean Pages: 1 -->
<svg width="1302pt" height="216pt"
 viewBox="0.00 0.00 1302.00 215.65" xmlns="http://www.w3.org/2000/svg" xmlns:xlink="http://www.w3.org/1999/xlink">
<g id="graph0" class="graph" transform="scale(1 1) rotate(0) translate(4 211.648)">
<title>Cleaner::clean</title>
<polygon fill="white" stroke="none" points="-4,4 -4,-211.648 1298,-211.648 1298,4 -4,4"/>
<!-- Node22 -->
<g id="node1" class="node"><title>Node22</title>
<polygon fill="#bfbfbf" stroke="black" points="0,-133.648 0,-152.648 80,-152.648 80,-133.648 0,-133.648"/>
<text text-anchor="middle" x="40" y="-140.648" font-family="Helvetica,sans-Serif" font-size="10.00">Cleaner::clean</text>
</g>
<!-- Node23 -->
<g id="node2" class="node"><title>Node23</title>
<g id="a_node2"><a xlink:href="classstatistics_conservation.html#aa11412e9db5babc6dc7b2b4c7c471ed6" target="_top" xlink:title="Computes and selects the cut point values based on conservation&#39;s values. ">
<polygon fill="white" stroke="black" points="125,-128.148 125,-158.148 239,-158.148 239,-128.148 125,-128.148"/>
<text text-anchor="start" x="133" y="-146.148" font-family="Helvetica,sans-Serif" font-size="10.00">statisticsConservation</text>
<text text-anchor="middle" x="182" y="-135.148" font-family="Helvetica,sans-Serif" font-size="10.00">::calcCutPoint</text>
</a>
</g>
</g>
<!-- Node22&#45;&gt;Node23 -->
<g id="edge1" class="edge"><title>Node22&#45;&gt;Node23</title>
<path fill="none" stroke="midnightblue" d="M80.3704,-143.148C91.0669,-143.148 102.952,-143.148 114.698,-143.148"/>
<polygon fill="midnightblue" stroke="midnightblue" points="114.951,-146.648 124.951,-143.148 114.951,-139.648 114.951,-146.648"/>
</g>
<!-- Node25 -->
<g id="node4" class="node"><title>Node25</title>
<g id="a_node4"><a xlink:href="classstatistics_conservation.html#a0e674b4b4b91773fb1c32a532797f328" target="_top" xlink:title="This methods returns a pointer to conservationWindow&#39;s vector. ">
<polygon fill="white" stroke="black" points="295.5,-172.148 295.5,-202.148 424.5,-202.148 424.5,-172.148 295.5,-172.148"/>
<text text-anchor="start" x="303.5" y="-190.148" font-family="Helvetica,sans-Serif" font-size="10.00">statisticsConservation</text>
<text text-anchor="middle" x="360" y="-179.148" font-family="Helvetica,sans-Serif" font-size="10.00">::getMdkWindowedVector</text>
</a>
</g>
</g>
<!-- Node22&#45;&gt;Node25 -->
<g id="edge21" class="edge"><title>Node22&#45;&gt;Node25</title>
<path fill="none" stroke="midnightblue" d="M65.9663,-152.714C80.3784,-157.835 98.9696,-163.768 116,-167.148 172.11,-178.283 236.695,-183.235 285.172,-185.429"/>
<polygon fill="midnightblue" stroke="midnightblue" points="285.124,-188.93 295.263,-185.857 285.42,-181.937 285.124,-188.93"/>
</g>
<!-- Node36 -->
<g id="node15" class="node"><title>Node36</title>
<g id="a_node15"><a xlink:href="class_cleaner.html#ae7ad16bc3ad459a12c908801fa20da66" target="_top" xlink:title="Method to clean an alignment. &#160;It removes sequences that overpass or equals &#160;the gap threshold but &#160;f...">
<polygon fill="white" stroke="black" points="116,-52.1476 116,-82.1476 248,-82.1476 248,-52.1476 116,-52.1476"/>
<text text-anchor="start" x="124" y="-70.1476" font-family="Helvetica,sans-Serif" font-size="10.00">Cleaner::cleanByCutValue</text>
<text text-anchor="middle" x="182" y="-59.1476" font-family="Helvetica,sans-Serif" font-size="10.00">OverpassOrEquals</text>
</a>
</g>
</g>
<!-- Node22&#45;&gt;Node36 -->
<g id="edge15" class="edge"><title>Node22&#45;&gt;Node36</title>
<path fill="none" stroke="midnightblue" d="M58.7311,-133.522C80.1493,-121.895 116.735,-102.034 144.319,-87.0601"/>
<polygon fill="midnightblue" stroke="midnightblue" points="146.175,-90.0352 153.293,-82.1883 142.835,-83.8833 146.175,-90.0352"/>
</g>
<!-- Node24 -->
<g id="node3" class="node"><title>Node24</title>
<g id="a_node3"><a xlink:href="classutils.html#a42f272221edf7752ffda49e4212ef653" target="_top" xlink:title="Integer vector copying. ">
<polygon fill="white" stroke="black" points="319,-133.648 319,-152.648 401,-152.648 401,-133.648 319,-133.648"/>
<text text-anchor="middle" x="360" y="-140.648" font-family="Helvetica,sans-Serif" font-size="10.00">utils::copyVect</text>
</a>
</g>
</g>
<!-- Node23&#45;&gt;Node24 -->
<g id="edge2" class="edge"><title>Node23&#45;&gt;Node24</title>
<path fill="none" stroke="midnightblue" d="M239.171,-143.148C261.578,-143.148 287.166,-143.148 308.928,-143.148"/>
<polygon fill="midnightblue" stroke="midnightblue" points="308.951,-146.648 318.951,-143.148 308.951,-139.648 308.951,-146.648"/>
</g>
<!-- Node23&#45;&gt;Node25 -->
<g id="edge3" class="edge"><title>Node23&#45;&gt;Node25</title>
<path fill="none" stroke="midnightblue" d="M239.171,-157.19C254.917,-161.127 272.234,-165.456 288.69,-169.57"/>
<polygon fill="midnightblue" stroke="midnightblue" points="288.253,-173.068 298.803,-172.098 289.95,-166.277 288.253,-173.068"/>
</g>
<!-- Node34 -->
<g id="node13" class="node"><title>Node34</title>
<g id="a_node13"><a xlink:href="classutils.html#a73f038c379c13d23e3220afaa14f9983" target="_top" xlink:title="Quicksort sorting method. ">
<polygon fill="white" stroke="black" points="320,-95.6476 320,-114.648 400,-114.648 400,-95.6476 320,-95.6476"/>
<text text-anchor="middle" x="360" y="-102.648" font-family="Helvetica,sans-Serif" font-size="10.00">utils::quicksort</text>
</a>
</g>
</g>
<!-- Node23&#45;&gt;Node34 -->
<g id="edge13" class="edge"><title>Node23&#45;&gt;Node34</title>
<path fill="none" stroke="midnightblue" d="M239.171,-131.02C261.941,-126.104 287.996,-120.478 309.983,-115.731"/>
<polygon fill="midnightblue" stroke="midnightblue" points="310.736,-119.149 319.772,-113.617 309.258,-112.307 310.736,-119.149"/>
</g>
<!-- Node26 -->
<g id="node5" class="node"><title>Node26</title>
<g id="a_node5"><a xlink:href="classstatistics_conservation.html#a48c32412653c299b159b56311065fc80" target="_top" xlink:title="Returns if a windows size value has been defined or not. ">
<polygon fill="white" stroke="black" points="488,-177.148 488,-207.148 602,-207.148 602,-177.148 488,-177.148"/>
<text text-anchor="start" x="496" y="-195.148" font-family="Helvetica,sans-Serif" font-size="10.00">statisticsConservation</text>
<text text-anchor="middle" x="545" y="-184.148" font-family="Helvetica,sans-Serif" font-size="10.00">::isDefinedWindow</text>
</a>
</g>
</g>
<!-- Node25&#45;&gt;Node26 -->
<g id="edge4" class="edge"><title>Node25&#45;&gt;Node26</title>
<path fill="none" stroke="midnightblue" d="M424.748,-188.889C441.907,-189.358 460.505,-189.866 477.795,-190.339"/>
<polygon fill="midnightblue" stroke="midnightblue" points="477.711,-193.838 487.803,-190.612 477.902,-186.84 477.711,-193.838"/>
</g>
<!-- Node27 -->
<g id="node6" class="node"><title>Node27</title>
<g id="a_node6"><a xlink:href="classstatistics_conservation.html#a31f6ff0c30b2a207aba13f7687709467" target="_top" xlink:title="Allows us compute the conservationWindow&#39;s values. ">
<polygon fill="white" stroke="black" points="488,-128.148 488,-158.148 602,-158.148 602,-128.148 488,-128.148"/>
<text text-anchor="start" x="496" y="-146.148" font-family="Helvetica,sans-Serif" font-size="10.00">statisticsConservation</text>
<text text-anchor="middle" x="545" y="-135.148" font-family="Helvetica,sans-Serif" font-size="10.00">::applyWindow</text>
</a>
</g>
</g>
<!-- Node25&#45;&gt;Node27 -->
<g id="edge5" class="edge"><title>Node25&#45;&gt;Node27</title>
<path fill="none" stroke="midnightblue" d="M423.466,-172.128C441.114,-167.885 460.369,-163.256 478.206,-158.967"/>
<polygon fill="midnightblue" stroke="midnightblue" points="479.045,-162.365 487.95,-156.624 477.409,-155.559 479.045,-162.365"/>
</g>
<!-- Node28 -->
<g id="node7" class="node"><title>Node28</title>
<g id="a_node7"><a xlink:href="classstatistics_conservation.html#ada98c86595cb14a2e8bc058703aa8066" target="_top" xlink:title="Method to calculate the conservation values of a alignment matrix. ">
<polygon fill="white" stroke="black" points="655,-128.148 655,-158.148 769,-158.148 769,-128.148 655,-128.148"/>
<text text-anchor="start" x="663" y="-146.148" font-family="Helvetica,sans-Serif" font-size="10.00">statisticsConservation</text>
<text text-anchor="middle" x="712" y="-135.148" font-family="Helvetica,sans-Serif" font-size="10.00">::calculateVectors</text>
</a>
</g>
</g>
<!-- Node27&#45;&gt;Node28 -->
<g id="edge6" class="edge"><title>Node27&#45;&gt;Node28</title>
<path fill="none" stroke="midnightblue" d="M602.322,-143.148C615.995,-143.148 630.737,-143.148 644.819,-143.148"/>
<polygon fill="midnightblue" stroke="midnightblue" points="644.932,-146.648 654.932,-143.148 644.932,-139.648 644.932,-146.648"/>
</g>
<!-- Node33 -->
<g id="node12" class="node"><title>Node33</title>
<g id="a_node12"><a xlink:href="class____internal_report_1_1____report_system.html#acd358cbc59625c6e2f47e0b5f825400d" target="_top" xlink:title="Method to report an Error. &#160;It will be displayed if Level &#160;is equal or higher to VerboseLevel::ERROR...">
<polygon fill="white" stroke="black" points="654,-45.1476 654,-75.1476 770,-75.1476 770,-45.1476 654,-45.1476"/>
<text text-anchor="start" x="662" y="-63.1476" font-family="Helvetica,sans-Serif" font-size="10.00">__internalReport::</text>
<text text-anchor="middle" x="712" y="-52.1476" font-family="Helvetica,sans-Serif" font-size="10.00">__reportSystem::report</text>
</a>
</g>
</g>
<!-- Node27&#45;&gt;Node33 -->
<g id="edge12" class="edge"><title>Node27&#45;&gt;Node33</title>
<path fill="none" stroke="midnightblue" d="M594.24,-128.075C602.299,-125.083 610.479,-121.743 618,-118.148 640.075,-107.595 663.438,-93.0102 681.225,-81.1063"/>
<polygon fill="midnightblue" stroke="midnightblue" points="683.674,-83.6739 689.981,-75.1612 679.742,-77.8824 683.674,-83.6739"/>
</g>
<!-- Node29 -->
<g id="node8" class="node"><title>Node29</title>
<g id="a_node8"><a xlink:href="classstatistics_conservation.html#a9fe3502be02c8d6591a6de2d5f81c337" target="_top" xlink:title="Computes the matrix identity between alignment&#39;s columns. ">
<polygon fill="white" stroke="black" points="806,-150.148 806,-180.148 927,-180.148 927,-150.148 806,-150.148"/>
<text text-anchor="start" x="814" y="-168.148" font-family="Helvetica,sans-Serif" font-size="10.00">statisticsConservation</text>
<text text-anchor="middle" x="866.5" y="-157.148" font-family="Helvetica,sans-Serif" font-size="10.00">::calculateMatrixIdentity</text>
</a>
</g>
</g>
<!-- Node28&#45;&gt;Node29 -->
<g id="edge7" class="edge"><title>Node28&#45;&gt;Node29</title>
<path fill="none" stroke="midnightblue" d="M769.352,-151.277C777.983,-152.522 786.979,-153.82 795.855,-155.1"/>
<polygon fill="midnightblue" stroke="midnightblue" points="795.402,-158.571 805.799,-156.535 796.401,-151.643 795.402,-158.571"/>
</g>
<!-- Node31 -->
<g id="node10" class="node"><title>Node31</title>
<g id="a_node10"><a xlink:href="classnew_alignment.html#a670d5ef1ced9ed6041c3f6afdbd2cc02" target="_top" xlink:title="Alignment type getter. &#160;&#160;See SequenceTypes.">
<polygon fill="white" stroke="black" points="963,-114.648 963,-133.648 1126,-133.648 1126,-114.648 963,-114.648"/>
<text text-anchor="middle" x="1044.5" y="-121.648" font-family="Helvetica,sans-Serif" font-size="10.00">newAlignment::getAlignmentType</text>
</a>
</g>
</g>
<!-- Node28&#45;&gt;Node31 -->
<g id="edge11" class="edge"><title>Node28&#45;&gt;Node31</title>
<path fill="none" stroke="midnightblue" d="M769.065,-139.924C819.378,-137.032 894.134,-132.734 952.923,-129.355"/>
<polygon fill="midnightblue" stroke="midnightblue" points="953.175,-132.846 962.958,-128.778 952.773,-125.858 953.175,-132.846"/>
</g>
<!-- Node30 -->
<g id="node9" class="node"><title>Node30</title>
<g id="a_node9"><a xlink:href="classutils.html#aac322cd1761fddedec8a5792e358eb32" target="_top" xlink:title="Vector initialization. ">
<polygon fill="white" stroke="black" points="1006.5,-155.648 1006.5,-174.648 1082.5,-174.648 1082.5,-155.648 1006.5,-155.648"/>
<text text-anchor="middle" x="1044.5" y="-162.648" font-family="Helvetica,sans-Serif" font-size="10.00">utils::initlVect</text>
</a>
</g>
</g>
<!-- Node29&#45;&gt;Node30 -->
<g id="edge8" class="edge"><title>Node29&#45;&gt;Node30</title>
<path fill="none" stroke="midnightblue" d="M927.086,-165.148C949.625,-165.148 974.95,-165.148 996.209,-165.148"/>
<polygon fill="midnightblue" stroke="midnightblue" points="996.289,-168.648 1006.29,-165.148 996.289,-161.648 996.289,-168.648"/>
</g>
<!-- Node29&#45;&gt;Node31 -->
<g id="edge9" class="edge"><title>Node29&#45;&gt;Node31</title>
<path fill="none" stroke="midnightblue" d="M927.086,-151.267C948.425,-146.296 972.262,-140.743 992.781,-135.963"/>
<polygon fill="midnightblue" stroke="midnightblue" points="993.617,-139.362 1002.56,-133.684 992.029,-132.544 993.617,-139.362"/>
</g>
<!-- Node32 -->
<g id="node11" class="node"><title>Node32</title>
<g id="a_node11"><a xlink:href="classutils.html#a1f1dcbfa7276e54acec72bdbae1b1255" target="_top" xlink:title="Checks an alignment type. ">
<polygon fill="white" stroke="black" points="1162,-114.648 1162,-133.648 1294,-133.648 1294,-114.648 1162,-114.648"/>
<text text-anchor="middle" x="1228" y="-121.648" font-family="Helvetica,sans-Serif" font-size="10.00">utils::checkAlignmentType</text>
</a>
</g>
</g>
<!-- Node31&#45;&gt;Node32 -->
<g id="edge10" class="edge"><title>Node31&#45;&gt;Node32</title>
<path fill="none" stroke="midnightblue" d="M1126.17,-124.148C1134.65,-124.148 1143.25,-124.148 1151.66,-124.148"/>
<polygon fill="midnightblue" stroke="midnightblue" points="1151.82,-127.648 1161.82,-124.148 1151.82,-120.648 1151.82,-127.648"/>
</g>
<!-- Node35 -->
<g id="node14" class="node"><title>Node35</title>
<g id="a_node14"><a xlink:href="classutils.html#a3377ecde55631d1bbc4956e5923b7469" target="_top" xlink:title="Swapping elements method. ">
<polygon fill="white" stroke="black" points="513,-89.6476 513,-108.648 577,-108.648 577,-89.6476 513,-89.6476"/>
<text text-anchor="middle" x="545" y="-96.6476" font-family="Helvetica,sans-Serif" font-size="10.00">utils::swap</text>
</a>
</g>
</g>
<!-- Node34&#45;&gt;Node35 -->
<g id="edge14" class="edge"><title>Node34&#45;&gt;Node35</title>
<path fill="none" stroke="midnightblue" d="M400.258,-103.86C430.415,-102.872 471.957,-101.51 502.629,-100.504"/>
<polygon fill="midnightblue" stroke="midnightblue" points="503.108,-103.99 512.988,-100.164 502.879,-96.994 503.108,-103.99"/>
</g>
<!-- Node36&#45;&gt;Node34 -->
<g id="edge17" class="edge"><title>Node36&#45;&gt;Node34</title>
<path fill="none" stroke="midnightblue" d="M248.036,-81.1894C268.455,-85.598 290.647,-90.3896 309.782,-94.5209"/>
<polygon fill="midnightblue" stroke="midnightblue" points="309.261,-97.989 319.774,-96.6784 310.738,-91.1467 309.261,-97.989"/>
</g>
<!-- Node37 -->
<g id="node16" class="node"><title>Node37</title>
<g id="a_node16"><a xlink:href="classutils.html#ad50731aeb3c8f79ed8372516210dfc9d" target="_top" xlink:title="Round double to integer method. ">
<polygon fill="white" stroke="black" points="322,-57.6476 322,-76.6476 398,-76.6476 398,-57.6476 322,-57.6476"/>
<text text-anchor="middle" x="360" y="-64.6476" font-family="Helvetica,sans-Serif" font-size="10.00">utils::roundInt</text>
</a>
</g>
</g>
<!-- Node36&#45;&gt;Node37 -->
<g id="edge16" class="edge"><title>Node36&#45;&gt;Node37</title>
<path fill="none" stroke="midnightblue" d="M248.036,-67.1476C269.119,-67.1476 292.093,-67.1476 311.639,-67.1476"/>
<polygon fill="midnightblue" stroke="midnightblue" points="311.814,-70.6477 321.814,-67.1476 311.814,-63.6477 311.814,-70.6477"/>
</g>
<!-- Node38 -->
<g id="node17" class="node"><title>Node38</title>
<g id="a_node17"><a xlink:href="class_cleaner.html#ae6d263df982b8e0a605f49e52a5a48d9" target="_top" xlink:title="Method to remove column blocks smaller than a given size. ">
<polygon fill="white" stroke="black" points="284,-19.6476 284,-38.6476 436,-38.6476 436,-19.6476 284,-19.6476"/>
<text text-anchor="middle" x="360" y="-26.6476" font-family="Helvetica,sans-Serif" font-size="10.00">Cleaner::removeSmallerBlocks</text>
</a>
</g>
</g>
<!-- Node36&#45;&gt;Node38 -->
<g id="edge18" class="edge"><title>Node36&#45;&gt;Node38</title>
<path fill="none" stroke="midnightblue" d="M248.036,-53.1057C266.704,-49.0751 286.855,-44.7244 304.796,-40.8508"/>
<polygon fill="midnightblue" stroke="midnightblue" points="305.757,-44.224 314.793,-38.6923 304.279,-37.3817 305.757,-44.224"/>
</g>
<!-- Node39 -->
<g id="node18" class="node"><title>Node39</title>
<g id="a_node18"><a xlink:href="class_cleaner.html#ada8ad076dd037f00ae3f4fd17762641f" target="_top" xlink:title="Method that identifies and removes columns and sequences composed only by gaps. ">
<polygon fill="white" stroke="black" points="472,-11.1476 472,-41.1476 618,-41.1476 618,-11.1476 472,-11.1476"/>
<text text-anchor="start" x="480" y="-29.1476" font-family="Helvetica,sans-Serif" font-size="10.00">Cleaner::removeAllGapsSeqs</text>
<text text-anchor="middle" x="545" y="-18.1476" font-family="Helvetica,sans-Serif" font-size="10.00">AndCols</text>
</a>
</g>
</g>
<!-- Node36&#45;&gt;Node39 -->
<g id="edge19" class="edge"><title>Node36&#45;&gt;Node39</title>
<path fill="none" stroke="midnightblue" d="M202.544,-52.0372C221.97,-38.0486 253.232,-18.2306 284,-10.1476 345.227,5.93695 417.232,-0.351964 469.923,-9.35608"/>
<polygon fill="midnightblue" stroke="midnightblue" points="469.403,-12.8185 479.862,-11.1256 470.63,-5.92687 469.403,-12.8185"/>
</g>
<!-- Node39&#45;&gt;Node33 -->
<g id="edge20" class="edge"><title>Node39&#45;&gt;Node33</title>
<path fill="none" stroke="midnightblue" d="M618.371,-41.0605C626.743,-42.7856 635.257,-44.5399 643.559,-46.2507"/>
<polygon fill="midnightblue" stroke="midnightblue" points="643.058,-49.7209 653.559,-48.3112 644.471,-42.865 643.058,-49.7209"/>
</g>
</g>
</svg>
