<?xml version="1.0" encoding="UTF-8" standalone="no"?>
<!DOCTYPE svg PUBLIC "-//W3C//DTD SVG 1.1//EN"
 "http://www.w3.org/Graphics/SVG/1.1/DTD/svg11.dtd">
<!-- Generated by graphviz version 2.40.1 (20161225.0304)
 -->
<!-- Title: Cleaner::Cleaner Pages: 1 -->
<svg width="1034pt" height="97pt"
 viewBox="0.00 0.00 1034.00 96.50" xmlns="http://www.w3.org/2000/svg" xmlns:xlink="http://www.w3.org/1999/xlink">
<g id="graph0" class="graph" transform="scale(1 1) rotate(0) translate(4 92.5)">
<title>Cleaner::Cleaner</title>
<polygon fill="#ffffff" stroke="transparent" points="-4,4 -4,-92.5 1030,-92.5 1030,4 -4,4"/>
<!-- Node1 -->
<g id="node1" class="node">
<title>Node1</title>
<polygon fill="#bfbfbf" stroke="#000000" points="0,-30 0,-49 90,-49 90,-30 0,-30"/>
<text text-anchor="middle" x="45" y="-37" font-family="Helvetica,sans-Serif" font-size="10.00" fill="#000000">Cleaner::Cleaner</text>
</g>
<!-- Node2 -->
<g id="node2" class="node">
<title>Node2</title>
<g id="a_node2"><a xlink:href="class_alignment.html#a091e21f0cfb741cb5cdc3535c6cc287f" target="_top" xlink:title="Constructor. ">
<polygon fill="#ffffff" stroke="#000000" points="126,-30 126,-49 236,-49 236,-30 126,-30"/>
<text text-anchor="middle" x="181" y="-37" font-family="Helvetica,sans-Serif" font-size="10.00" fill="#000000">Alignment::Alignment</text>
</a>
</g>
</g>
<!-- Node1&#45;&gt;Node2 -->
<g id="edge1" class="edge">
<title>Node1&#45;&gt;Node2</title>
<path fill="none" stroke="#191970" d="M100.4093,-39.5C108.8476,-39.5 117.5539,-39.5 125.9838,-39.5"/>
<polygon fill="#191970" stroke="#191970" points="100.2861,-36.0001 90.286,-39.5 100.286,-43.0001 100.2861,-36.0001"/>
</g>
<!-- Node3 -->
<g id="node3" class="node">
<title>Node3</title>
<g id="a_node3"><a xlink:href="class_alignment.html#a57cb9cad92f31ec56982a4191d2cbce4" target="_top" xlink:title="Method to back translate a protein alignment using the sequences present on the current alignment...">
<polygon fill="#ffffff" stroke="#000000" points="272,-52 272,-71 421,-71 421,-52 272,-52"/>
<text text-anchor="middle" x="346.5" y="-59" font-family="Helvetica,sans-Serif" font-size="10.00" fill="#000000">Alignment::getTranslationCDS</text>
</a>
</g>
</g>
<!-- Node2&#45;&gt;Node3 -->
<g id="edge2" class="edge">
<title>Node2&#45;&gt;Node3</title>
<path fill="none" stroke="#191970" d="M246.1739,-48.1636C255.587,-49.4149 265.3182,-50.7085 274.8493,-51.9754"/>
<polygon fill="#191970" stroke="#191970" points="246.4831,-44.674 236.1091,-46.8257 245.5607,-51.613 246.4831,-44.674"/>
</g>
<!-- Node9 -->
<g id="node9" class="node">
<title>Node9</title>
<g id="a_node9"><a xlink:href="class_format_handling_1_1_format_manager.html#ae4de14648571fa5ee42d33617835a6ab" target="_top" xlink:title="Function to divide an alignment into different alignments, each one with a sequence from the original...">
<polygon fill="#ffffff" stroke="#000000" points="457,-.5 457,-30.5 617,-30.5 617,-.5 457,-.5"/>
<text text-anchor="start" x="465" y="-18.5" font-family="Helvetica,sans-Serif" font-size="10.00" fill="#000000">FormatHandling::FormatManager</text>
<text text-anchor="middle" x="537" y="-7.5" font-family="Helvetica,sans-Serif" font-size="10.00" fill="#000000">::splitAlignmentKeeping</text>
</a>
</g>
</g>
<!-- Node2&#45;&gt;Node9 -->
<g id="edge8" class="edge">
<title>Node2&#45;&gt;Node9</title>
<path fill="none" stroke="#191970" d="M246.2324,-35.1023C305.5413,-31.104 393.247,-25.1912 456.8141,-20.9058"/>
<polygon fill="#191970" stroke="#191970" points="245.9763,-31.6115 236.2344,-35.7763 246.4472,-38.5957 245.9763,-31.6115"/>
</g>
<!-- Node4 -->
<g id="node4" class="node">
<title>Node4</title>
<g id="a_node4"><a xlink:href="classtrim_al_manager.html#a8ed19b851162fa24a1da66f7e54099e3" target="_top" xlink:title="trimAlManager::postprocess\l_alignment">
<polygon fill="#ffffff" stroke="#000000" points="467.5,-49.5 467.5,-79.5 606.5,-79.5 606.5,-49.5 467.5,-49.5"/>
<text text-anchor="start" x="475.5" y="-67.5" font-family="Helvetica,sans-Serif" font-size="10.00" fill="#000000">trimAlManager::postprocess</text>
<text text-anchor="middle" x="537" y="-56.5" font-family="Helvetica,sans-Serif" font-size="10.00" fill="#000000">_alignment</text>
</a>
</g>
</g>
<!-- Node3&#45;&gt;Node4 -->
<g id="edge3" class="edge">
<title>Node3&#45;&gt;Node4</title>
<path fill="none" stroke="#191970" d="M431.3191,-62.8357C443.3974,-63.0259 455.7022,-63.2197 467.4439,-63.4046"/>
<polygon fill="#191970" stroke="#191970" points="431.2978,-59.3351 421.2439,-62.6771 431.1875,-66.3342 431.2978,-59.3351"/>
</g>
<!-- Node5 -->
<g id="node5" class="node">
<title>Node5</title>
<g id="a_node5"><a xlink:href="classtrim_al_manager.html#a7c641a1feff33d401b4ea5c82e989289" target="_top" xlink:title="trimAlManager::innerPerform">
<polygon fill="#ffffff" stroke="#000000" points="654.5,-69 654.5,-88 795.5,-88 795.5,-69 654.5,-69"/>
<text text-anchor="middle" x="725" y="-76" font-family="Helvetica,sans-Serif" font-size="10.00" fill="#000000">trimAlManager::innerPerform</text>
</a>
</g>
</g>
<!-- Node4&#45;&gt;Node5 -->
<g id="edge4" class="edge">
<title>Node4&#45;&gt;Node5</title>
<path fill="none" stroke="#191970" d="M617.0723,-70.4628C629.4923,-71.3877 642.2441,-72.3373 654.4342,-73.2451"/>
<polygon fill="#191970" stroke="#191970" points="616.9694,-66.9456 606.7371,-69.6932 616.4495,-73.9262 616.9694,-66.9456"/>
</g>
<!-- Node8 -->
<g id="node8" class="node">
<title>Node8</title>
<g id="a_node8"><a xlink:href="classtrim_al_manager.html#ac5795f93b3a2b51bf5d8dddd63b89f73" target="_top" xlink:title="trimAlManager::perform_VCF">
<polygon fill="#ffffff" stroke="#000000" points="653,-31 653,-50 797,-50 797,-31 653,-31"/>
<text text-anchor="middle" x="725" y="-38" font-family="Helvetica,sans-Serif" font-size="10.00" fill="#000000">trimAlManager::perform_VCF</text>
</a>
</g>
</g>
<!-- Node4&#45;&gt;Node8 -->
<g id="edge7" class="edge">
<title>Node4&#45;&gt;Node8</title>
<path fill="none" stroke="#191970" d="M616.7223,-54.3227C628.7194,-52.7911 641.0342,-51.219 652.8604,-49.7093"/>
<polygon fill="#191970" stroke="#191970" points="616.2134,-50.8592 606.7371,-55.5974 617.0998,-57.8028 616.2134,-50.8592"/>
</g>
<!-- Node6 -->
<g id="node6" class="node">
<title>Node6</title>
<g id="a_node6"><a xlink:href="classtrim_al_manager.html#abe8d2841455c644dc9c7d1294b82b00f" target="_top" xlink:title="Method to perform the analysis if all checks have passed. ">
<polygon fill="#ffffff" stroke="#000000" points="833,-31 833,-50 952,-50 952,-31 833,-31"/>
<text text-anchor="middle" x="892.5" y="-38" font-family="Helvetica,sans-Serif" font-size="10.00" fill="#000000">trimAlManager::perform</text>
</a>
</g>
</g>
<!-- Node5&#45;&gt;Node6 -->
<g id="edge5" class="edge">
<title>Node5&#45;&gt;Node6</title>
<path fill="none" stroke="#191970" d="M777.1201,-66.6757C800.7347,-61.3184 828.282,-55.0689 850.5366,-50.0201"/>
<polygon fill="#191970" stroke="#191970" points="776.2451,-63.2852 767.2673,-68.911 777.7939,-70.1117 776.2451,-63.2852"/>
</g>
<!-- Node7 -->
<g id="node7" class="node">
<title>Node7</title>
<g id="a_node7"><a xlink:href="trim_al_main_8cpp.html#a0ddf1224851353fc92bfbff6f499fa97" target="_top" xlink:title="main">
<polygon fill="#ffffff" stroke="#000000" points="988,-31 988,-50 1026,-50 1026,-31 988,-31"/>
<text text-anchor="middle" x="1007" y="-38" font-family="Helvetica,sans-Serif" font-size="10.00" fill="#000000">main</text>
</a>
</g>
</g>
<!-- Node6&#45;&gt;Node7 -->
<g id="edge6" class="edge">
<title>Node6&#45;&gt;Node7</title>
<path fill="none" stroke="#191970" d="M962.3198,-40.5C971.6177,-40.5 980.4503,-40.5 987.7697,-40.5"/>
<polygon fill="#191970" stroke="#191970" points="962.0976,-37.0001 952.0976,-40.5 962.0975,-44.0001 962.0976,-37.0001"/>
</g>
<!-- Node9&#45;&gt;Node6 -->
<g id="edge9" class="edge">
<title>Node9&#45;&gt;Node6</title>
<path fill="none" stroke="#191970" d="M627.3442,-13.7502C677.4661,-13.7407 740.8427,-15.313 797,-21.5 815.4835,-23.5364 835.715,-27.3307 852.7797,-30.9963"/>
<polygon fill="#191970" stroke="#191970" points="627.1723,-10.2505 617.1804,-13.7736 627.1885,-17.2504 627.1723,-10.2505"/>
</g>
<!-- Node9&#45;&gt;Node8 -->
<g id="edge10" class="edge">
<title>Node9&#45;&gt;Node8</title>
<path fill="none" stroke="#191970" d="M626.9753,-27.4648C635.8422,-28.6439 644.7569,-29.8294 653.4031,-30.9791"/>
<polygon fill="#191970" stroke="#191970" points="627.3757,-23.9873 617.0015,-26.1385 626.4529,-30.9262 627.3757,-23.9873"/>
</g>
</g>
</svg>
