<?xml version="1.0" encoding="UTF-8" standalone="no"?>
<!DOCTYPE svg PUBLIC "-//W3C//DTD SVG 1.1//EN"
 "http://www.w3.org/Graphics/SVG/1.1/DTD/svg11.dtd">
<!-- Generated by graphviz version 2.40.1 (20161225.0304)
 -->
<!-- Title: FormatHandling::BaseFormatHandler::SaveAlignment Pages: 1 -->
<svg width="1097pt" height="88pt"
 viewBox="0.00 0.00 1097.00 88.00" xmlns="http://www.w3.org/2000/svg" xmlns:xlink="http://www.w3.org/1999/xlink">
<g id="graph0" class="graph" transform="scale(1 1) rotate(0) translate(4 84)">
<title>FormatHandling::BaseFormatHandler::SaveAlignment</title>
<polygon fill="#ffffff" stroke="transparent" points="-4,4 -4,-84 1093,-84 1093,4 -4,4"/>
<!-- Node45 -->
<g id="node1" class="node">
<title>Node45</title>
<polygon fill="#bfbfbf" stroke="#000000" points="0,-24.5 0,-54.5 145,-54.5 145,-24.5 0,-24.5"/>
<text text-anchor="start" x="8" y="-42.5" font-family="Helvetica,sans-Serif" font-size="10.00" fill="#000000">FormatHandling::BaseFormat</text>
<text text-anchor="middle" x="72.5" y="-31.5" font-family="Helvetica,sans-Serif" font-size="10.00" fill="#000000">Handler::SaveAlignment</text>
</g>
<!-- Node46 -->
<g id="node2" class="node">
<title>Node46</title>
<g id="a_node2"><a xlink:href="class_format_handling_1_1_format_manager.html#af8d1e7864bb2811199d26ff24a30440e" target="_top" xlink:title="Function to save an alignment to a file. It searches among the available_states one that can write th...">
<polygon fill="#ffffff" stroke="#000000" points="181,-24.5 181,-54.5 341,-54.5 341,-24.5 181,-24.5"/>
<text text-anchor="start" x="189" y="-42.5" font-family="Helvetica,sans-Serif" font-size="10.00" fill="#000000">FormatHandling::FormatManager</text>
<text text-anchor="middle" x="261" y="-31.5" font-family="Helvetica,sans-Serif" font-size="10.00" fill="#000000">::saveAlignments</text>
</a>
</g>
</g>
<!-- Node45&#45;&gt;Node46 -->
<g id="edge1" class="edge">
<title>Node45&#45;&gt;Node46</title>
<path fill="none" stroke="#191970" d="M155.372,-39.5C163.8515,-39.5 172.4558,-39.5 180.9048,-39.5"/>
<polygon fill="#191970" stroke="#191970" points="155.1094,-36.0001 145.1094,-39.5 155.1094,-43.0001 155.1094,-36.0001"/>
</g>
<!-- Node47 -->
<g id="node3" class="node">
<title>Node47</title>
<g id="a_node3"><a xlink:href="class_format_handling_1_1_format_manager.html#a084d6b423e40a6d53ab3f4413f3f9176" target="_top" xlink:title="Function to save an alignment to a file. It searches among the available_states one that can write th...">
<polygon fill="#ffffff" stroke="#000000" points="378.5,-.5 378.5,-30.5 538.5,-30.5 538.5,-.5 378.5,-.5"/>
<text text-anchor="start" x="386.5" y="-18.5" font-family="Helvetica,sans-Serif" font-size="10.00" fill="#000000">FormatHandling::FormatManager</text>
<text text-anchor="middle" x="458.5" y="-7.5" font-family="Helvetica,sans-Serif" font-size="10.00" fill="#000000">::saveAlignment</text>
</a>
</g>
</g>
<!-- Node46&#45;&gt;Node47 -->
<g id="edge2" class="edge">
<title>Node46&#45;&gt;Node47</title>
<path fill="none" stroke="#191970" d="M351.2068,-28.5382C360.2572,-27.4384 369.4039,-26.3269 378.3399,-25.241"/>
<polygon fill="#191970" stroke="#191970" points="350.5508,-25.092 341.0461,-29.7729 351.3953,-32.0409 350.5508,-25.092"/>
</g>
<!-- Node53 -->
<g id="node9" class="node">
<title>Node53</title>
<g id="a_node9"><a xlink:href="class_format_handling_1_1_format_manager.html#a853678a6e07f67da8cf7b77795b297be" target="_top" xlink:title="Function that takes multiple files, loads them and saves in a cumulus of formats, using an outPattern...">
<polygon fill="#ffffff" stroke="#000000" points="377,-49.5 377,-79.5 540,-79.5 540,-49.5 377,-49.5"/>
<text text-anchor="start" x="385" y="-67.5" font-family="Helvetica,sans-Serif" font-size="10.00" fill="#000000">FormatHandling::FormatManager</text>
<text text-anchor="middle" x="458.5" y="-56.5" font-family="Helvetica,sans-Serif" font-size="10.00" fill="#000000">::loadAndSaveMultipleAlignments</text>
</a>
</g>
</g>
<!-- Node46&#45;&gt;Node53 -->
<g id="edge8" class="edge">
<title>Node46&#45;&gt;Node53</title>
<path fill="none" stroke="#191970" d="M351.0418,-50.8977C359.6045,-51.9816 368.2551,-53.0766 376.7335,-54.1498"/>
<polygon fill="#191970" stroke="#191970" points="351.4065,-47.416 341.0461,-49.6324 350.5274,-54.3606 351.4065,-47.416"/>
</g>
<!-- Node48 -->
<g id="node4" class="node">
<title>Node48</title>
<g id="a_node4"><a xlink:href="read_al_main_8cpp.html#a0ddf1224851353fc92bfbff6f499fa97" target="_top" xlink:title="main">
<polygon fill="#ffffff" stroke="#000000" points="610.5,-52 610.5,-71 648.5,-71 648.5,-52 610.5,-52"/>
<text text-anchor="middle" x="629.5" y="-59" font-family="Helvetica,sans-Serif" font-size="10.00" fill="#000000">main</text>
</a>
</g>
</g>
<!-- Node47&#45;&gt;Node48 -->
<g id="edge3" class="edge">
<title>Node47&#45;&gt;Node48</title>
<path fill="none" stroke="#191970" d="M524.3648,-33.218C555.2319,-41.5214 589.7084,-50.7958 610.4952,-56.3876"/>
<polygon fill="#191970" stroke="#191970" points="525.0577,-29.7801 514.4918,-30.5621 523.2393,-36.5397 525.0577,-29.7801"/>
</g>
<!-- Node49 -->
<g id="node5" class="node">
<title>Node49</title>
<g id="a_node5"><a xlink:href="classtrim_al_manager.html#a7ba38127fa10c926b96c60250b80d2b7" target="_top" xlink:title="trimAlManager::save\l_alignment">
<polygon fill="#ffffff" stroke="#000000" points="576,-.5 576,-30.5 683,-30.5 683,-.5 576,-.5"/>
<text text-anchor="start" x="584" y="-18.5" font-family="Helvetica,sans-Serif" font-size="10.00" fill="#000000">trimAlManager::save</text>
<text text-anchor="middle" x="629.5" y="-7.5" font-family="Helvetica,sans-Serif" font-size="10.00" fill="#000000">_alignment</text>
</a>
</g>
</g>
<!-- Node47&#45;&gt;Node49 -->
<g id="edge4" class="edge">
<title>Node47&#45;&gt;Node49</title>
<path fill="none" stroke="#191970" d="M549.0047,-15.5C558.0849,-15.5 567.0896,-15.5 575.6072,-15.5"/>
<polygon fill="#191970" stroke="#191970" points="548.7427,-12.0001 538.7427,-15.5 548.7427,-19.0001 548.7427,-12.0001"/>
</g>
<!-- Node50 -->
<g id="node6" class="node">
<title>Node50</title>
<g id="a_node6"><a xlink:href="classtrim_al_manager.html#a7c641a1feff33d401b4ea5c82e989289" target="_top" xlink:title="trimAlManager::innerPerform">
<polygon fill="#ffffff" stroke="#000000" points="719,-6 719,-25 860,-25 860,-6 719,-6"/>
<text text-anchor="middle" x="789.5" y="-13" font-family="Helvetica,sans-Serif" font-size="10.00" fill="#000000">trimAlManager::innerPerform</text>
</a>
</g>
</g>
<!-- Node49&#45;&gt;Node50 -->
<g id="edge5" class="edge">
<title>Node49&#45;&gt;Node50</title>
<path fill="none" stroke="#191970" d="M693.3182,-15.5C701.7172,-15.5 710.3645,-15.5 718.8687,-15.5"/>
<polygon fill="#191970" stroke="#191970" points="693.2228,-12.0001 683.2228,-15.5 693.2227,-19.0001 693.2228,-12.0001"/>
</g>
<!-- Node51 -->
<g id="node7" class="node">
<title>Node51</title>
<g id="a_node7"><a xlink:href="classtrim_al_manager.html#abe8d2841455c644dc9c7d1294b82b00f" target="_top" xlink:title="Method to perform the analysis if all checks have passed. ">
<polygon fill="#ffffff" stroke="#000000" points="896,-6 896,-25 1015,-25 1015,-6 896,-6"/>
<text text-anchor="middle" x="955.5" y="-13" font-family="Helvetica,sans-Serif" font-size="10.00" fill="#000000">trimAlManager::perform</text>
</a>
</g>
</g>
<!-- Node50&#45;&gt;Node51 -->
<g id="edge6" class="edge">
<title>Node50&#45;&gt;Node51</title>
<path fill="none" stroke="#191970" d="M870.4012,-15.5C878.9677,-15.5 887.564,-15.5 895.8249,-15.5"/>
<polygon fill="#191970" stroke="#191970" points="870.3805,-12.0001 860.3804,-15.5 870.3804,-19.0001 870.3805,-12.0001"/>
</g>
<!-- Node52 -->
<g id="node8" class="node">
<title>Node52</title>
<g id="a_node8"><a xlink:href="trim_al_main_8cpp.html#a0ddf1224851353fc92bfbff6f499fa97" target="_top" xlink:title="main">
<polygon fill="#ffffff" stroke="#000000" points="1051,-6 1051,-25 1089,-25 1089,-6 1051,-6"/>
<text text-anchor="middle" x="1070" y="-13" font-family="Helvetica,sans-Serif" font-size="10.00" fill="#000000">main</text>
</a>
</g>
</g>
<!-- Node51&#45;&gt;Node52 -->
<g id="edge7" class="edge">
<title>Node51&#45;&gt;Node52</title>
<path fill="none" stroke="#191970" d="M1025.3198,-15.5C1034.6177,-15.5 1043.4503,-15.5 1050.7697,-15.5"/>
<polygon fill="#191970" stroke="#191970" points="1025.0976,-12.0001 1015.0976,-15.5 1025.0975,-19.0001 1025.0976,-12.0001"/>
</g>
<!-- Node53&#45;&gt;Node48 -->
<g id="edge9" class="edge">
<title>Node53&#45;&gt;Node48</title>
<path fill="none" stroke="#191970" d="M550.3411,-62.8888C573.0439,-62.4905 595.1473,-62.1027 610.201,-61.8386"/>
<polygon fill="#191970" stroke="#191970" points="550.1808,-59.3909 540.2438,-63.0659 550.3036,-66.3899 550.1808,-59.3909"/>
</g>
</g>
</svg>
