<?xml version="1.0" encoding="UTF-8" standalone="no"?>
<!DOCTYPE svg PUBLIC "-//W3C//DTD SVG 1.1//EN"
 "http://www.w3.org/Graphics/SVG/1.1/DTD/svg11.dtd">
<!-- Generated by graphviz version 2.40.1 (20161225.0304)
 -->
<!-- Title: statistics::Gaps::Gaps Pages: 1 -->
<svg width="1565pt" height="458pt"
 viewBox="0.00 0.00 1565.00 457.50" xmlns="http://www.w3.org/2000/svg" xmlns:xlink="http://www.w3.org/1999/xlink">
<g id="graph0" class="graph" transform="scale(1 1) rotate(0) translate(4 453.5)">
<title>statistics::Gaps::Gaps</title>
<polygon fill="#ffffff" stroke="transparent" points="-4,4 -4,-453.5 1561,-453.5 1561,4 -4,4"/>
<!-- Node1 -->
<g id="node1" class="node">
<title>Node1</title>
<polygon fill="#bfbfbf" stroke="#000000" points="0,-164 0,-183 115,-183 115,-164 0,-164"/>
<text text-anchor="middle" x="57.5" y="-171" font-family="Helvetica,sans-Serif" font-size="10.00" fill="#000000">statistics::Gaps::Gaps</text>
</g>
<!-- Node2 -->
<g id="node2" class="node">
<title>Node2</title>
<g id="a_node2"><a xlink:href="classstatistics_1_1_manager.html#aee28602da015edb0880d59ce4c0f855d" target="_top" xlink:title="statistics::Manager\l::Manager">
<polygon fill="#ffffff" stroke="#000000" points="151,-158.5 151,-188.5 251,-188.5 251,-158.5 151,-158.5"/>
<text text-anchor="start" x="159" y="-176.5" font-family="Helvetica,sans-Serif" font-size="10.00" fill="#000000">statistics::Manager</text>
<text text-anchor="middle" x="201" y="-165.5" font-family="Helvetica,sans-Serif" font-size="10.00" fill="#000000">::Manager</text>
</a>
</g>
</g>
<!-- Node1&#45;&gt;Node2 -->
<g id="edge1" class="edge">
<title>Node1&#45;&gt;Node2</title>
<path fill="none" stroke="#191970" d="M125.1378,-173.5C133.7968,-173.5 142.5359,-173.5 150.8484,-173.5"/>
<polygon fill="#191970" stroke="#191970" points="125.0401,-170.0001 115.0401,-173.5 125.0401,-177.0001 125.0401,-170.0001"/>
</g>
<!-- Node3 -->
<g id="node3" class="node">
<title>Node3</title>
<g id="a_node3"><a xlink:href="class_alignment.html#aeeee94970a445f32aa79646c249befef" target="_top" xlink:title="Copy Constructor. &#160;&#160;The copy constructor does not make a copy of all structures present on the origin...">
<polygon fill="#ffffff" stroke="#000000" points="287,-164 287,-183 397,-183 397,-164 287,-164"/>
<text text-anchor="middle" x="342" y="-171" font-family="Helvetica,sans-Serif" font-size="10.00" fill="#000000">Alignment::Alignment</text>
</a>
</g>
</g>
<!-- Node2&#45;&gt;Node3 -->
<g id="edge2" class="edge">
<title>Node2&#45;&gt;Node3</title>
<path fill="none" stroke="#191970" d="M261.2969,-173.5C269.7588,-173.5 278.421,-173.5 286.782,-173.5"/>
<polygon fill="#191970" stroke="#191970" points="261.1084,-170.0001 251.1083,-173.5 261.1083,-177.0001 261.1084,-170.0001"/>
</g>
<!-- Node4 -->
<g id="node4" class="node">
<title>Node4</title>
<g id="a_node4"><a xlink:href="class_cleaner.html#a0e1e26d09055de52208ac74adf93b760" target="_top" xlink:title="Method to clean an alignment. &#160;It removes sequences that fall behind a certain threshold. &#160;The function detects if it would clean too many sequences, and relaxes the threshold until we have enough sequences to achieve the given percentage desired to keep. &#160;To achieve this, the method starts in the middle of the sequence and, alternating sides, adds column one by one. ">
<polygon fill="#ffffff" stroke="#000000" points="435.5,-386.5 435.5,-416.5 567.5,-416.5 567.5,-386.5 435.5,-386.5"/>
<text text-anchor="start" x="443.5" y="-404.5" font-family="Helvetica,sans-Serif" font-size="10.00" fill="#000000">Cleaner::cleanByCutValue</text>
<text text-anchor="middle" x="501.5" y="-393.5" font-family="Helvetica,sans-Serif" font-size="10.00" fill="#000000">FallBehind</text>
</a>
</g>
</g>
<!-- Node3&#45;&gt;Node4 -->
<g id="edge3" class="edge">
<title>Node3&#45;&gt;Node4</title>
<path fill="none" stroke="#191970" d="M346.2697,-192.8941C355.6368,-231.2974 381.3911,-317.7694 433,-369.5 439.8602,-376.3764 448.478,-381.9512 457.2641,-386.4023"/>
<polygon fill="#191970" stroke="#191970" points="349.6438,-191.9511 343.9657,-183.0063 342.8265,-193.5397 349.6438,-191.9511"/>
</g>
<!-- Node12 -->
<g id="node12" class="node">
<title>Node12</title>
<g id="a_node12"><a xlink:href="class_cleaner.html#a13ae2074afb38708bc5cee9489d8ab6f" target="_top" xlink:title="Method to clean an alignment. &#160;It removes sequences that overpass or equals a certain threshold...">
<polygon fill="#ffffff" stroke="#000000" points="435.5,-218.5 435.5,-248.5 567.5,-248.5 567.5,-218.5 435.5,-218.5"/>
<text text-anchor="start" x="443.5" y="-236.5" font-family="Helvetica,sans-Serif" font-size="10.00" fill="#000000">Cleaner::cleanByCutValue</text>
<text text-anchor="middle" x="501.5" y="-225.5" font-family="Helvetica,sans-Serif" font-size="10.00" fill="#000000">Overpass</text>
</a>
</g>
</g>
<!-- Node3&#45;&gt;Node12 -->
<g id="edge12" class="edge">
<title>Node3&#45;&gt;Node12</title>
<path fill="none" stroke="#191970" d="M376.7061,-186.5556C401.6503,-195.939 435.3426,-208.6132 461.4316,-218.4272"/>
<polygon fill="#191970" stroke="#191970" points="377.8653,-183.2522 367.2732,-183.0072 375.4006,-189.804 377.8653,-183.2522"/>
</g>
<!-- Node18 -->
<g id="node18" class="node">
<title>Node18</title>
<g id="a_node18"><a xlink:href="class_cleaner.html#a5afcae6b995a229b59785e4690b25a0f" target="_top" xlink:title="Method to clean an alignment. &#160;It removes sequences that overpass or equals &#160;the gap threshold but &#160;f...">
<polygon fill="#ffffff" stroke="#000000" points="435.5,-329.5 435.5,-359.5 567.5,-359.5 567.5,-329.5 435.5,-329.5"/>
<text text-anchor="start" x="443.5" y="-347.5" font-family="Helvetica,sans-Serif" font-size="10.00" fill="#000000">Cleaner::cleanByCutValue</text>
<text text-anchor="middle" x="501.5" y="-336.5" font-family="Helvetica,sans-Serif" font-size="10.00" fill="#000000">OverpassOrEquals</text>
</a>
</g>
</g>
<!-- Node3&#45;&gt;Node18 -->
<g id="edge23" class="edge">
<title>Node3&#45;&gt;Node18</title>
<path fill="none" stroke="#191970" d="M351.4268,-191.9746C366.011,-219.1946 396.2342,-270.5162 433,-304.5 443.6186,-314.3152 457.0503,-322.8079 469.2011,-329.4119"/>
<polygon fill="#191970" stroke="#191970" points="354.5232,-190.3428 346.7782,-183.1133 348.3244,-193.5947 354.5232,-190.3428"/>
</g>
<!-- Node20 -->
<g id="node20" class="node">
<title>Node20</title>
<g id="a_node20"><a xlink:href="class_cleaner.html#abe5d03c820a6bee7935b719b9fc7be60" target="_top" xlink:title="Method to trim an alignment based on a minimum sequence overlap threshold. &#160;The method selects a comb...">
<polygon fill="#ffffff" stroke="#000000" points="436,-126 436,-145 567,-145 567,-126 436,-126"/>
<text text-anchor="middle" x="501.5" y="-133" font-family="Helvetica,sans-Serif" font-size="10.00" fill="#000000">Cleaner::cleanOverlapSeq</text>
</a>
</g>
</g>
<!-- Node3&#45;&gt;Node20 -->
<g id="edge26" class="edge">
<title>Node3&#45;&gt;Node20</title>
<path fill="none" stroke="#191970" d="M392.234,-161.532C414.5855,-156.2069 440.5383,-150.0238 461.5408,-145.0201"/>
<polygon fill="#191970" stroke="#191970" points="391.1651,-158.1886 382.2486,-163.911 392.7875,-164.998 391.1651,-158.1886"/>
</g>
<!-- Node22 -->
<g id="node22" class="node">
<title>Node22</title>
<g id="a_node22"><a xlink:href="class_cleaner.html#afcc9a3a0759ebdaaa6fa07c0d1702a99" target="_top" xlink:title="Method to clean an alignment. It carries out strict and strictplus. It removes sequences that overpas...">
<polygon fill="#ffffff" stroke="#000000" points="450,-164 450,-183 553,-183 553,-164 450,-164"/>
<text text-anchor="middle" x="501.5" y="-171" font-family="Helvetica,sans-Serif" font-size="10.00" fill="#000000">Cleaner::cleanStrict</text>
</a>
</g>
</g>
<!-- Node3&#45;&gt;Node22 -->
<g id="edge29" class="edge">
<title>Node3&#45;&gt;Node22</title>
<path fill="none" stroke="#191970" d="M407.4631,-173.5C421.554,-173.5 436.26,-173.5 449.7433,-173.5"/>
<polygon fill="#191970" stroke="#191970" points="407.3378,-170.0001 397.3377,-173.5 407.3377,-177.0001 407.3378,-170.0001"/>
</g>
<!-- Node24 -->
<g id="node24" class="node">
<title>Node24</title>
<g id="a_node24"><a xlink:href="class_cleaner.html#a4fd1d8eb883d1a7b271d6d4e1b1df71b" target="_top" xlink:title="Method to select the most representative sequence (the longest one) for each cluster from the input a...">
<polygon fill="#ffffff" stroke="#000000" points="444.5,-88 444.5,-107 558.5,-107 558.5,-88 444.5,-88"/>
<text text-anchor="middle" x="501.5" y="-95" font-family="Helvetica,sans-Serif" font-size="10.00" fill="#000000">Cleaner::getClustering</text>
</a>
</g>
</g>
<!-- Node3&#45;&gt;Node24 -->
<g id="edge32" class="edge">
<title>Node3&#45;&gt;Node24</title>
<path fill="none" stroke="#191970" d="M363.0734,-157.8272C380.9166,-145.1784 407.5781,-127.703 433,-116.5 441.3571,-112.8172 450.6064,-109.6759 459.5338,-107.0708"/>
<polygon fill="#191970" stroke="#191970" points="360.66,-155.2526 354.5996,-163.943 364.7567,-160.9287 360.66,-155.2526"/>
</g>
<!-- Node25 -->
<g id="node25" class="node">
<title>Node25</title>
<g id="a_node25"><a xlink:href="classstatistics_1_1_consistency.html#a8f7ddf54c5be583916b983ede82d5b88" target="_top" xlink:title="Method to compare a set of MSA, all containing the same sequences and residues. The number of residue...">
<polygon fill="#ffffff" stroke="#000000" points="619,-.5 619,-30.5 736,-30.5 736,-.5 619,-.5"/>
<text text-anchor="start" x="627" y="-18.5" font-family="Helvetica,sans-Serif" font-size="10.00" fill="#000000">statistics::Consistency</text>
<text text-anchor="middle" x="677.5" y="-7.5" font-family="Helvetica,sans-Serif" font-size="10.00" fill="#000000">::perform</text>
</a>
</g>
</g>
<!-- Node3&#45;&gt;Node25 -->
<g id="edge34" class="edge">
<title>Node3&#45;&gt;Node25</title>
<path fill="none" stroke="#191970" d="M348.9743,-154.2745C360.99,-124.2279 388.6624,-66.856 433,-40.5 489.4845,-6.9234 566.4901,-4.6967 618.8869,-8.2527"/>
<polygon fill="#191970" stroke="#191970" points="345.5579,-153.4094 345.2539,-163.9999 352.0958,-155.9105 345.5579,-153.4094"/>
</g>
<!-- Node28 -->
<g id="node28" class="node">
<title>Node28</title>
<g id="a_node28"><a xlink:href="class_cleaner.html#ac8e92eb8ae8a5caf021801e56cdb9faf" target="_top" xlink:title="Method to remove columns, expressed as ranges. ">
<polygon fill="#ffffff" stroke="#000000" points="437.5,-276 437.5,-295 565.5,-295 565.5,-276 437.5,-276"/>
<text text-anchor="middle" x="501.5" y="-283" font-family="Helvetica,sans-Serif" font-size="10.00" fill="#000000">Cleaner::removeColumns</text>
</a>
</g>
</g>
<!-- Node3&#45;&gt;Node28 -->
<g id="edge38" class="edge">
<title>Node3&#45;&gt;Node28</title>
<path fill="none" stroke="#191970" d="M356.7336,-190.691C373.5774,-209.4622 402.7495,-239.3912 433,-258.5 444.3476,-265.6681 457.9102,-271.4983 469.9619,-275.8822"/>
<polygon fill="#191970" stroke="#191970" points="359.3382,-188.3528 350.1022,-183.1618 354.0852,-192.9795 359.3382,-188.3528"/>
</g>
<!-- Node29 -->
<g id="node29" class="node">
<title>Node29</title>
<g id="a_node29"><a xlink:href="class_cleaner.html#a932af26c56652410dc2a30c553376c0b" target="_top" xlink:title="Method to remove sequences, expressed as ranges. ">
<polygon fill="#ffffff" stroke="#000000" points="433,-50 433,-69 570,-69 570,-50 433,-50"/>
<text text-anchor="middle" x="501.5" y="-57" font-family="Helvetica,sans-Serif" font-size="10.00" fill="#000000">Cleaner::removeSequences</text>
</a>
</g>
</g>
<!-- Node3&#45;&gt;Node29 -->
<g id="edge40" class="edge">
<title>Node3&#45;&gt;Node29</title>
<path fill="none" stroke="#191970" d="M354.4517,-155.5206C370.2649,-134.0368 399.5507,-98.493 433,-78.5 439.4619,-74.6376 446.7336,-71.5371 454.0623,-69.0548"/>
<polygon fill="#191970" stroke="#191970" points="351.5113,-153.615 348.5266,-163.7808 357.1993,-157.6951 351.5113,-153.615"/>
</g>
<!-- Node5 -->
<g id="node5" class="node">
<title>Node5</title>
<g id="a_node5"><a xlink:href="class_cleaner.html#a385f785ecf54bd5e0b07e61325483973" target="_top" xlink:title="Method to trim an alignment based on consistency values obtained from a dataset of alignments...">
<polygon fill="#ffffff" stroke="#000000" points="610,-430 610,-449 745,-449 745,-430 610,-430"/>
<text text-anchor="middle" x="677.5" y="-437" font-family="Helvetica,sans-Serif" font-size="10.00" fill="#000000">Cleaner::cleanCompareFile</text>
</a>
</g>
</g>
<!-- Node4&#45;&gt;Node5 -->
<g id="edge4" class="edge">
<title>Node4&#45;&gt;Node5</title>
<path fill="none" stroke="#191970" d="M577.419,-417.8916C596.4885,-422.0089 616.3294,-426.2927 633.2679,-429.9499"/>
<polygon fill="#191970" stroke="#191970" points="578.0501,-414.4473 567.5366,-415.7579 576.5727,-421.2896 578.0501,-414.4473"/>
</g>
<!-- Node11 -->
<g id="node11" class="node">
<title>Node11</title>
<g id="a_node11"><a xlink:href="class_cleaner.html#a9cdbd6ebf78a284dd065b31319795b0c" target="_top" xlink:title="Method to trim an alignment based on the similarity distribution values. ">
<polygon fill="#ffffff" stroke="#000000" points="609,-392 609,-411 746,-411 746,-392 609,-392"/>
<text text-anchor="middle" x="677.5" y="-399" font-family="Helvetica,sans-Serif" font-size="10.00" fill="#000000">Cleaner::cleanConservation</text>
</a>
</g>
</g>
<!-- Node4&#45;&gt;Node11 -->
<g id="edge10" class="edge">
<title>Node4&#45;&gt;Node11</title>
<path fill="none" stroke="#191970" d="M577.748,-401.5C588.0537,-401.5 598.5784,-401.5 608.743,-401.5"/>
<polygon fill="#191970" stroke="#191970" points="577.5367,-398.0001 567.5366,-401.5 577.5366,-405.0001 577.5367,-398.0001"/>
</g>
<!-- Node6 -->
<g id="node6" class="node">
<title>Node6</title>
<g id="a_node6"><a xlink:href="classtrim_al_manager.html#aebfd21b0435302f0e4fc45a068d1b6ee" target="_top" xlink:title="Method to trim the alignment using non automatic methods: ">
<polygon fill="#ffffff" stroke="#000000" points="795.5,-329.5 795.5,-359.5 947.5,-359.5 947.5,-329.5 795.5,-329.5"/>
<text text-anchor="start" x="803.5" y="-347.5" font-family="Helvetica,sans-Serif" font-size="10.00" fill="#000000">trimAlManager::CleanResidues</text>
<text text-anchor="middle" x="871.5" y="-336.5" font-family="Helvetica,sans-Serif" font-size="10.00" fill="#000000">NonAuto</text>
</a>
</g>
</g>
<!-- Node5&#45;&gt;Node6 -->
<g id="edge5" class="edge">
<title>Node5&#45;&gt;Node6</title>
<path fill="none" stroke="#191970" d="M731.6619,-426.9413C737.5994,-425.0254 743.4853,-422.8806 749,-420.5 787.3738,-403.935 827.812,-376.6401 851.2911,-359.6638"/>
<polygon fill="#191970" stroke="#191970" points="730.242,-423.7136 721.6773,-429.9504 732.2619,-430.4159 730.242,-423.7136"/>
</g>
<!-- Node7 -->
<g id="node7" class="node">
<title>Node7</title>
<g id="a_node7"><a xlink:href="classtrim_al_manager.html#adc529dd893ed4e9df6f3ddbd58776068" target="_top" xlink:title="Core Method of the program. This is where almost all cleaning methods are called from. ">
<polygon fill="#ffffff" stroke="#000000" points="1018,-149.5 1018,-179.5 1127,-179.5 1127,-149.5 1018,-149.5"/>
<text text-anchor="start" x="1026" y="-167.5" font-family="Helvetica,sans-Serif" font-size="10.00" fill="#000000">trimAlManager::clean</text>
<text text-anchor="middle" x="1072.5" y="-156.5" font-family="Helvetica,sans-Serif" font-size="10.00" fill="#000000">_alignment</text>
</a>
</g>
</g>
<!-- Node6&#45;&gt;Node7 -->
<g id="edge6" class="edge">
<title>Node6&#45;&gt;Node7</title>
<path fill="none" stroke="#191970" d="M895.989,-322.5696C937.3627,-285.5185 1020.0616,-211.4597 1055.615,-179.6209"/>
<polygon fill="#191970" stroke="#191970" points="893.406,-320.1843 888.2914,-329.4629 898.0759,-325.399 893.406,-320.1843"/>
</g>
<!-- Node8 -->
<g id="node8" class="node">
<title>Node8</title>
<g id="a_node8"><a xlink:href="classtrim_al_manager.html#a7c641a1feff33d401b4ea5c82e989289" target="_top" xlink:title="trimAlManager::innerPerform">
<polygon fill="#ffffff" stroke="#000000" points="1187,-145 1187,-164 1328,-164 1328,-145 1187,-145"/>
<text text-anchor="middle" x="1257.5" y="-152" font-family="Helvetica,sans-Serif" font-size="10.00" fill="#000000">trimAlManager::innerPerform</text>
</a>
</g>
</g>
<!-- Node7&#45;&gt;Node8 -->
<g id="edge7" class="edge">
<title>Node7&#45;&gt;Node8</title>
<path fill="none" stroke="#191970" d="M1137.339,-160.9952C1153.3661,-160.1289 1170.6134,-159.1966 1186.8996,-158.3162"/>
<polygon fill="#191970" stroke="#191970" points="1136.802,-157.519 1127.0055,-161.5538 1137.1799,-164.5088 1136.802,-157.519"/>
</g>
<!-- Node9 -->
<g id="node9" class="node">
<title>Node9</title>
<g id="a_node9"><a xlink:href="classtrim_al_manager.html#abe8d2841455c644dc9c7d1294b82b00f" target="_top" xlink:title="Method to perform the analysis if all checks have passed. ">
<polygon fill="#ffffff" stroke="#000000" points="1364,-136 1364,-155 1483,-155 1483,-136 1364,-136"/>
<text text-anchor="middle" x="1423.5" y="-143" font-family="Helvetica,sans-Serif" font-size="10.00" fill="#000000">trimAlManager::perform</text>
</a>
</g>
</g>
<!-- Node8&#45;&gt;Node9 -->
<g id="edge8" class="edge">
<title>Node8&#45;&gt;Node9</title>
<path fill="none" stroke="#191970" d="M1338.4012,-150.1138C1346.9677,-149.6493 1355.564,-149.1833 1363.8249,-148.7354"/>
<polygon fill="#191970" stroke="#191970" points="1338.1763,-146.6207 1328.3804,-150.6571 1338.5553,-153.6105 1338.1763,-146.6207"/>
</g>
<!-- Node10 -->
<g id="node10" class="node">
<title>Node10</title>
<g id="a_node10"><a xlink:href="trim_al_main_8cpp.html#a0ddf1224851353fc92bfbff6f499fa97" target="_top" xlink:title="main">
<polygon fill="#ffffff" stroke="#000000" points="1519,-116 1519,-135 1557,-135 1557,-116 1519,-116"/>
<text text-anchor="middle" x="1538" y="-123" font-family="Helvetica,sans-Serif" font-size="10.00" fill="#000000">main</text>
</a>
</g>
</g>
<!-- Node9&#45;&gt;Node10 -->
<g id="edge9" class="edge">
<title>Node9&#45;&gt;Node10</title>
<path fill="none" stroke="#191970" d="M1488.0027,-134.2332C1499.2481,-132.2689 1510.1141,-130.3709 1518.8272,-128.849"/>
<polygon fill="#191970" stroke="#191970" points="1487.3159,-130.8 1478.0673,-135.9686 1488.5204,-137.6956 1487.3159,-130.8"/>
</g>
<!-- Node11&#45;&gt;Node6 -->
<g id="edge11" class="edge">
<title>Node11&#45;&gt;Node6</title>
<path fill="none" stroke="#191970" d="M724.5038,-389.3041C732.6862,-387.097 741.1025,-384.7732 749,-382.5 774.036,-375.2937 801.7751,-366.737 824.5169,-359.5696"/>
<polygon fill="#191970" stroke="#191970" points="723.4468,-385.9637 714.6897,-391.9271 725.2544,-392.7263 723.4468,-385.9637"/>
</g>
<!-- Node13 -->
<g id="node13" class="node">
<title>Node13</title>
<g id="a_node13"><a xlink:href="class_cleaner.html#aa57106470d2104a925b9396b8a9f33b3" target="_top" xlink:title="Method that carries the gappyout approach. This methods calculates the slope in gaps distribution on ...">
<polygon fill="#ffffff" stroke="#000000" points="617.5,-240 617.5,-259 737.5,-259 737.5,-240 617.5,-240"/>
<text text-anchor="middle" x="677.5" y="-247" font-family="Helvetica,sans-Serif" font-size="10.00" fill="#000000">Cleaner::clean2ndSlope</text>
</a>
</g>
</g>
<!-- Node12&#45;&gt;Node13 -->
<g id="edge13" class="edge">
<title>Node12&#45;&gt;Node13</title>
<path fill="none" stroke="#191970" d="M577.6359,-240.4214C590.9642,-241.6331 604.6622,-242.8784 617.4768,-244.0433"/>
<polygon fill="#191970" stroke="#191970" points="577.8125,-236.9232 567.5366,-239.5033 577.1787,-243.8944 577.8125,-236.9232"/>
</g>
<!-- Node15 -->
<g id="node15" class="node">
<title>Node15</title>
<g id="a_node15"><a xlink:href="class_cleaner.html#af7c9e1a177424168fa4214aca9ebd8e2" target="_top" xlink:title="Method to trim an alignment based on the gap distribution values. Column blocks that don&#39;t have a min...">
<polygon fill="#ffffff" stroke="#000000" points="626,-278 626,-297 729,-297 729,-278 626,-278"/>
<text text-anchor="middle" x="677.5" y="-285" font-family="Helvetica,sans-Serif" font-size="10.00" fill="#000000">Cleaner::cleanGaps</text>
</a>
</g>
</g>
<!-- Node12&#45;&gt;Node15 -->
<g id="edge16" class="edge">
<title>Node12&#45;&gt;Node15</title>
<path fill="none" stroke="#191970" d="M553.8074,-251.743C570.4232,-257.3431 588.9189,-263.3756 606,-268.5 616.9491,-271.7847 628.9269,-275.082 639.8949,-277.986"/>
<polygon fill="#191970" stroke="#191970" points="554.8607,-248.4044 544.2663,-248.5058 552.6115,-255.0333 554.8607,-248.4044"/>
</g>
<!-- Node16 -->
<g id="node16" class="node">
<title>Node16</title>
<g id="a_node16"><a xlink:href="class_cleaner.html#a3af7bde2142886d6d723c95694b7b9ba" target="_top" xlink:title="Method to remove columns composed only by gaps This method is specially useful when we remove missali...">
<polygon fill="#ffffff" stroke="#000000" points="614,-202 614,-221 741,-221 741,-202 614,-202"/>
<text text-anchor="middle" x="677.5" y="-209" font-family="Helvetica,sans-Serif" font-size="10.00" fill="#000000">Cleaner::cleanNoAllGaps</text>
</a>
</g>
</g>
<!-- Node12&#45;&gt;Node16 -->
<g id="edge19" class="edge">
<title>Node12&#45;&gt;Node16</title>
<path fill="none" stroke="#191970" d="M577.5706,-223.9912C589.6253,-222.4843 601.9842,-220.9395 613.7199,-219.4725"/>
<polygon fill="#191970" stroke="#191970" points="577.0253,-220.532 567.5366,-225.2454 577.8936,-227.478 577.0253,-220.532"/>
</g>
<!-- Node14 -->
<g id="node14" class="node">
<title>Node14</title>
<g id="a_node14"><a xlink:href="classtrim_al_manager.html#a69082911b30a1bd12395bb235bc18a34" target="_top" xlink:title="Method to trim the alignment using automatic or semi&#45;automatic methods: ">
<polygon fill="#ffffff" stroke="#000000" points="785,-202 785,-221 958,-221 958,-202 785,-202"/>
<text text-anchor="middle" x="871.5" y="-209" font-family="Helvetica,sans-Serif" font-size="10.00" fill="#000000">trimAlManager::CleanResiduesAuto</text>
</a>
</g>
</g>
<!-- Node13&#45;&gt;Node14 -->
<g id="edge14" class="edge">
<title>Node13&#45;&gt;Node14</title>
<path fill="none" stroke="#191970" d="M736.4052,-237.9619C764.0751,-232.542 796.6619,-226.159 822.8976,-221.0201"/>
<polygon fill="#191970" stroke="#191970" points="735.5951,-234.554 726.4544,-239.911 736.9407,-241.4234 735.5951,-234.554"/>
</g>
<!-- Node14&#45;&gt;Node7 -->
<g id="edge15" class="edge">
<title>Node14&#45;&gt;Node7</title>
<path fill="none" stroke="#191970" d="M922.1534,-199.6557C951.3132,-192.8372 987.97,-184.2657 1017.7875,-177.2935"/>
<polygon fill="#191970" stroke="#191970" points="921.1158,-196.3038 912.1753,-201.9888 922.7096,-203.12 921.1158,-196.3038"/>
</g>
<!-- Node15&#45;&gt;Node6 -->
<g id="edge18" class="edge">
<title>Node15&#45;&gt;Node6</title>
<path fill="none" stroke="#191970" d="M719.5833,-299.8647C749.153,-308.5527 788.877,-320.2242 820.2879,-329.4532"/>
<polygon fill="#191970" stroke="#191970" points="720.5524,-296.5015 709.9712,-297.0405 718.579,-303.2176 720.5524,-296.5015"/>
</g>
<!-- Node15&#45;&gt;Node14 -->
<g id="edge17" class="edge">
<title>Node15&#45;&gt;Node14</title>
<path fill="none" stroke="#191970" d="M728.456,-275.1401C735.4192,-273.1087 742.4282,-270.8812 749,-268.5 787.3738,-254.5959 830.1751,-233.2601 853.6576,-221.0184"/>
<polygon fill="#191970" stroke="#191970" points="727.0292,-271.9049 718.343,-277.9712 728.9163,-278.6457 727.0292,-271.9049"/>
</g>
<!-- Node16&#45;&gt;Node14 -->
<g id="edge20" class="edge">
<title>Node16&#45;&gt;Node14</title>
<path fill="none" stroke="#191970" d="M751.0483,-211.5C762.1171,-211.5 773.6193,-211.5 784.9301,-211.5"/>
<polygon fill="#191970" stroke="#191970" points="751.0229,-208.0001 741.0229,-211.5 751.0228,-215.0001 751.0229,-208.0001"/>
</g>
<!-- Node17 -->
<g id="node17" class="node">
<title>Node17</title>
<g id="a_node17"><a xlink:href="classtrim_al_manager.html#a10536f715945a1a45f1df33f7cedc81e" target="_top" xlink:title="Method to trim or reduce the number of sequences in an alignment. It performs one or none of the foll...">
<polygon fill="#ffffff" stroke="#000000" points="791.5,-126 791.5,-145 951.5,-145 951.5,-126 791.5,-126"/>
<text text-anchor="middle" x="871.5" y="-133" font-family="Helvetica,sans-Serif" font-size="10.00" fill="#000000">trimAlManager::CleanSequences</text>
</a>
</g>
</g>
<!-- Node16&#45;&gt;Node17 -->
<g id="edge21" class="edge">
<title>Node16&#45;&gt;Node17</title>
<path fill="none" stroke="#191970" d="M728.456,-199.1401C735.4192,-197.1087 742.4282,-194.8812 749,-192.5 787.3738,-178.5959 830.1751,-157.2601 853.6576,-145.0184"/>
<polygon fill="#191970" stroke="#191970" points="727.0292,-195.9049 718.343,-201.9712 728.9163,-202.6457 727.0292,-195.9049"/>
</g>
<!-- Node17&#45;&gt;Node7 -->
<g id="edge22" class="edge">
<title>Node17&#45;&gt;Node7</title>
<path fill="none" stroke="#191970" d="M947.7941,-146.5076C971.084,-149.8678 996.218,-153.4941 1017.7776,-156.6047"/>
<polygon fill="#191970" stroke="#191970" points="947.9907,-142.9998 937.5933,-145.0359 946.991,-149.9281 947.9907,-142.9998"/>
</g>
<!-- Node19 -->
<g id="node19" class="node">
<title>Node19</title>
<g id="a_node19"><a xlink:href="class_cleaner.html#a4718e31c0183b5a98751d77479faacf0" target="_top" xlink:title="Method to trim an alignment based on the similarity and gaps distribution values. ...">
<polygon fill="#ffffff" stroke="#000000" points="637.5,-354 637.5,-373 717.5,-373 717.5,-354 637.5,-354"/>
<text text-anchor="middle" x="677.5" y="-361" font-family="Helvetica,sans-Serif" font-size="10.00" fill="#000000">Cleaner::clean</text>
</a>
</g>
</g>
<!-- Node18&#45;&gt;Node19 -->
<g id="edge24" class="edge">
<title>Node18&#45;&gt;Node19</title>
<path fill="none" stroke="#191970" d="M577.566,-352.7117C598.1831,-354.9374 619.6907,-357.2592 637.4485,-359.1763"/>
<polygon fill="#191970" stroke="#191970" points="577.8546,-349.2226 567.5366,-351.629 577.1032,-356.1821 577.8546,-349.2226"/>
</g>
<!-- Node19&#45;&gt;Node6 -->
<g id="edge25" class="edge">
<title>Node19&#45;&gt;Node6</title>
<path fill="none" stroke="#191970" d="M727.7838,-358.5753C748.3575,-356.5603 772.6146,-354.1846 795.2829,-351.9646"/>
<polygon fill="#191970" stroke="#191970" points="727.3081,-355.105 717.6969,-359.5632 727.9905,-362.0717 727.3081,-355.105"/>
</g>
<!-- Node21 -->
<g id="node21" class="node">
<title>Node21</title>
<g id="a_node21"><a xlink:href="class_cleaner.html#a5ceceb5b637a6d4e6a13c3b5d8d76c1d" target="_top" xlink:title="Method to remove sequences missaligned with the rest of sequences in the alignment. &#160;For each residue in the sequence, it tests it&#39;s similarity. If the similarity of that residue is higher than overlapColumn value, it counts as a hit for the sequence. After calculating the number of hits for the sequence, it removes the sequence if it has a proportion hits/residues lower tan minimumOverlap. ">
<polygon fill="#ffffff" stroke="#000000" points="610,-126 610,-145 745,-145 745,-126 610,-126"/>
<text text-anchor="middle" x="677.5" y="-133" font-family="Helvetica,sans-Serif" font-size="10.00" fill="#000000">Cleaner::cleanSpuriousSeq</text>
</a>
</g>
</g>
<!-- Node20&#45;&gt;Node21 -->
<g id="edge27" class="edge">
<title>Node20&#45;&gt;Node21</title>
<path fill="none" stroke="#191970" d="M577.3108,-135.5C588.1307,-135.5 599.2012,-135.5 609.851,-135.5"/>
<polygon fill="#191970" stroke="#191970" points="577.0359,-132.0001 567.0359,-135.5 577.0359,-139.0001 577.0359,-132.0001"/>
</g>
<!-- Node21&#45;&gt;Node17 -->
<g id="edge28" class="edge">
<title>Node21&#45;&gt;Node17</title>
<path fill="none" stroke="#191970" d="M755.4023,-135.5C767.2873,-135.5 779.5704,-135.5 791.4996,-135.5"/>
<polygon fill="#191970" stroke="#191970" points="755.0795,-132.0001 745.0794,-135.5 755.0794,-139.0001 755.0795,-132.0001"/>
</g>
<!-- Node23 -->
<g id="node23" class="node">
<title>Node23</title>
<g id="a_node23"><a xlink:href="class_cleaner.html#a6727a235afa29f08a50716f28fa5c8fc" target="_top" xlink:title="Method to clean an alignment. It carries out strict and strictplus. The method: ">
<polygon fill="#ffffff" stroke="#000000" points="606,-164 606,-183 749,-183 749,-164 606,-164"/>
<text text-anchor="middle" x="677.5" y="-171" font-family="Helvetica,sans-Serif" font-size="10.00" fill="#000000">Cleaner::cleanCombMethods</text>
</a>
</g>
</g>
<!-- Node22&#45;&gt;Node23 -->
<g id="edge30" class="edge">
<title>Node22&#45;&gt;Node23</title>
<path fill="none" stroke="#191970" d="M563.5909,-173.5C577.2427,-173.5 591.8079,-173.5 605.803,-173.5"/>
<polygon fill="#191970" stroke="#191970" points="563.3539,-170.0001 553.3539,-173.5 563.3538,-177.0001 563.3539,-170.0001"/>
</g>
<!-- Node23&#45;&gt;Node14 -->
<g id="edge31" class="edge">
<title>Node23&#45;&gt;Node14</title>
<path fill="none" stroke="#191970" d="M736.4052,-185.0381C764.0751,-190.458 796.6619,-196.841 822.8976,-201.9799"/>
<polygon fill="#191970" stroke="#191970" points="736.9407,-181.5766 726.4544,-183.089 735.5951,-188.446 736.9407,-181.5766"/>
</g>
<!-- Node24&#45;&gt;Node17 -->
<g id="edge33" class="edge">
<title>Node24&#45;&gt;Node17</title>
<path fill="none" stroke="#191970" d="M568.6504,-101.2479C618.5104,-104.3723 688.1238,-109.453 749,-116.5 771.0203,-119.0491 795.1514,-122.6226 816.1303,-125.9837"/>
<polygon fill="#191970" stroke="#191970" points="568.8324,-97.7525 558.6358,-100.63 568.4013,-104.7393 568.8324,-97.7525"/>
</g>
<!-- Node26 -->
<g id="node26" class="node">
<title>Node26</title>
<g id="a_node26"><a xlink:href="classtrim_al_manager.html#a12b7cef964ef258fe7621da44867c51f" target="_top" xlink:title="Method to check if multiple files comparison has been set correctly. It also perform some calculation...">
<polygon fill="#ffffff" stroke="#000000" points="785.5,-59 785.5,-78 957.5,-78 957.5,-59 785.5,-59"/>
<text text-anchor="middle" x="871.5" y="-66" font-family="Helvetica,sans-Serif" font-size="10.00" fill="#000000">trimAlManager::performCompareset</text>
</a>
</g>
</g>
<!-- Node25&#45;&gt;Node26 -->
<g id="edge35" class="edge">
<title>Node25&#45;&gt;Node26</title>
<path fill="none" stroke="#191970" d="M742.569,-33.2766C773.9576,-41.8518 810.3673,-51.7988 836.4734,-58.9309"/>
<polygon fill="#191970" stroke="#191970" points="743.1426,-29.8051 732.5737,-30.5459 741.2978,-36.5576 743.1426,-29.8051"/>
</g>
<!-- Node27 -->
<g id="node27" class="node">
<title>Node27</title>
<g id="a_node27"><a xlink:href="classtrim_al_manager.html#af3b0625b6bcc6df5978e63530a5956e6" target="_top" xlink:title="Method to parse arguments into usable structure in trimal. ">
<polygon fill="#ffffff" stroke="#000000" points="994,-94 994,-113 1151,-113 1151,-94 994,-94"/>
<text text-anchor="middle" x="1072.5" y="-101" font-family="Helvetica,sans-Serif" font-size="10.00" fill="#000000">trimAlManager::parseArguments</text>
</a>
</g>
</g>
<!-- Node26&#45;&gt;Node27 -->
<g id="edge36" class="edge">
<title>Node26&#45;&gt;Node27</title>
<path fill="none" stroke="#191970" d="M936.0603,-79.7418C962.4288,-84.3334 992.5988,-89.5869 1017.8522,-93.9842"/>
<polygon fill="#191970" stroke="#191970" points="936.6108,-76.2851 926.1586,-78.0177 935.4099,-83.1814 936.6108,-76.2851"/>
</g>
<!-- Node27&#45;&gt;Node10 -->
<g id="edge37" class="edge">
<title>Node27&#45;&gt;Node10</title>
<path fill="none" stroke="#191970" d="M1161.4822,-107.7054C1273.5924,-113.0038 1458.8563,-121.7596 1518.711,-124.5884"/>
<polygon fill="#191970" stroke="#191970" points="1161.3565,-104.1956 1151.2024,-107.2196 1161.026,-111.1878 1161.3565,-104.1956"/>
</g>
<!-- Node28&#45;&gt;Node6 -->
<g id="edge39" class="edge">
<title>Node28&#45;&gt;Node6</title>
<path fill="none" stroke="#191970" d="M556.3885,-297.1325C572.3531,-300.3524 589.8427,-303.7225 606,-306.5 669.5582,-317.4258 742.0557,-327.652 795.2166,-334.7377"/>
<polygon fill="#191970" stroke="#191970" points="556.6444,-293.6128 546.147,-295.0459 555.2469,-300.4719 556.6444,-293.6128"/>
</g>
<!-- Node29&#45;&gt;Node17 -->
<g id="edge41" class="edge">
<title>Node29&#45;&gt;Node17</title>
<path fill="none" stroke="#191970" d="M580.3754,-70.2195C629.2122,-77.4359 693.0639,-87.9192 749,-100.5 780.9374,-107.6832 816.8902,-118.2588 841.5411,-125.9035"/>
<polygon fill="#191970" stroke="#191970" points="580.5916,-66.714 570.1903,-68.7296 579.5783,-73.6402 580.5916,-66.714"/>
</g>
</g>
</svg>
