<?xml version="1.0" encoding="UTF-8" standalone="no"?>
<!DOCTYPE svg PUBLIC "-//W3C//DTD SVG 1.1//EN"
 "http://www.w3.org/Graphics/SVG/1.1/DTD/svg11.dtd">
<!-- Generated by graphviz version 2.38.0 (20140413.2041)
 -->
<!-- Title: Cleaner::removeSequences Pages: 1 -->
<svg width="360pt" height="116pt"
 viewBox="0.00 0.00 360.00 116.00" xmlns="http://www.w3.org/2000/svg" xmlns:xlink="http://www.w3.org/1999/xlink">
<g id="graph0" class="graph" transform="scale(1 1) rotate(0) translate(4 112)">
<title>Cleaner::removeSequences</title>
<polygon fill="white" stroke="none" points="-4,4 -4,-112 356,-112 356,4 -4,4"/>
<!-- Node219 -->
<g id="node1" class="node"><title>Node219</title>
<polygon fill="#bfbfbf" stroke="black" points="0,-44.5 0,-63.5 137,-63.5 137,-44.5 0,-44.5"/>
<text text-anchor="middle" x="68.5" y="-51.5" font-family="Helvetica,sans-Serif" font-size="10.00">Cleaner::removeSequences</text>
</g>
<!-- Node220 -->
<g id="node2" class="node"><title>Node220</title>
<g id="a_node2"><a xlink:href="class_cleaner.html#a24bd28e4191afc9471adff329bee1466" target="_top" xlink:title="Method for computing the complementary alignment. Complementary Alignment is an alignment containing ...">
<polygon fill="white" stroke="black" points="173,-88.5 173,-107.5 352,-107.5 352,-88.5 173,-88.5"/>
<text text-anchor="middle" x="262.5" y="-95.5" font-family="Helvetica,sans-Serif" font-size="10.00">Cleaner::computeComplementaryAlig</text>
</a>
</g>
</g>
<!-- Node219&#45;&gt;Node220 -->
<g id="edge1" class="edge"><title>Node219&#45;&gt;Node220</title>
<path fill="none" stroke="midnightblue" d="M108.272,-63.6134C127.681,-68.3625 151.553,-74.1084 173,-79 183.675,-81.4346 195.094,-83.9514 206.062,-86.3252"/>
<polygon fill="midnightblue" stroke="midnightblue" points="205.461,-89.7759 215.974,-88.4586 206.934,-82.9327 205.461,-89.7759"/>
</g>
<!-- Node221 -->
<g id="node3" class="node"><title>Node221</title>
<g id="a_node3"><a xlink:href="class_cleaner.html#a2f7d85e29f23f880a7ad7e28863b36c3" target="_top" xlink:title="Method that identifies and removes columns and sequences composed only by gaps. ">
<polygon fill="white" stroke="black" points="208,-39 208,-69 317,-69 317,-39 208,-39"/>
<text text-anchor="start" x="216" y="-57" font-family="Helvetica,sans-Serif" font-size="10.00">Cleaner::removeCols</text>
<text text-anchor="middle" x="262.5" y="-46" font-family="Helvetica,sans-Serif" font-size="10.00">_SeqsAllGaps</text>
</a>
</g>
</g>
<!-- Node219&#45;&gt;Node221 -->
<g id="edge2" class="edge"><title>Node219&#45;&gt;Node221</title>
<path fill="none" stroke="midnightblue" d="M137.192,-54C156.868,-54 178.287,-54 197.714,-54"/>
<polygon fill="midnightblue" stroke="midnightblue" points="197.974,-57.5001 207.974,-54 197.974,-50.5001 197.974,-57.5001"/>
</g>
<!-- Node222 -->
<g id="node4" class="node"><title>Node222</title>
<g id="a_node4"><a xlink:href="classnew_alignment.html#acbeb320f0f70222f81a906ccfc33a016" target="_top" xlink:title="Method to intialize data that has been modified on the alignment. The method checks if the sequences ...">
<polygon fill="white" stroke="black" points="197,-0.5 197,-19.5 328,-19.5 328,-0.5 197,-0.5"/>
<text text-anchor="middle" x="262.5" y="-7.5" font-family="Helvetica,sans-Serif" font-size="10.00">newAlignment::fillMatrices</text>
</a>
</g>
</g>
<!-- Node219&#45;&gt;Node222 -->
<g id="edge3" class="edge"><title>Node219&#45;&gt;Node222</title>
<path fill="none" stroke="midnightblue" d="M110.289,-44.4863C129.337,-40.0577 152.323,-34.7338 173,-30 184.756,-27.3086 197.396,-24.4382 209.34,-21.7366"/>
<polygon fill="midnightblue" stroke="midnightblue" points="210.191,-25.1325 219.174,-19.5145 208.649,-18.3046 210.191,-25.1325"/>
</g>
</g>
</svg>
