<?xml version="1.0" encoding="UTF-8" standalone="no"?>
<!DOCTYPE svg PUBLIC "-//W3C//DTD SVG 1.1//EN"
 "http://www.w3.org/Graphics/SVG/1.1/DTD/svg11.dtd">
<!-- Generated by graphviz version 2.40.1 (20161225.0304)
 -->
<!-- Title: FormatHandling::FormatManager::loadAndSaveMultipleAlignments Pages: 1 -->
<svg width="370pt" height="312pt"
 viewBox="0.00 0.00 370.00 312.00" xmlns="http://www.w3.org/2000/svg" xmlns:xlink="http://www.w3.org/1999/xlink">
<g id="graph0" class="graph" transform="scale(1 1) rotate(0) translate(4 308)">
<title>FormatHandling::FormatManager::loadAndSaveMultipleAlignments</title>
<polygon fill="#ffffff" stroke="transparent" points="-4,4 -4,-308 366,-308 366,4 -4,4"/>
<!-- Node53 -->
<g id="node1" class="node">
<title>Node53</title>
<polygon fill="#bfbfbf" stroke="#000000" points="0,-131.5 0,-161.5 163,-161.5 163,-131.5 0,-131.5"/>
<text text-anchor="start" x="8" y="-149.5" font-family="Helvetica,sans-Serif" font-size="10.00" fill="#000000">FormatHandling::FormatManager</text>
<text text-anchor="middle" x="81.5" y="-138.5" font-family="Helvetica,sans-Serif" font-size="10.00" fill="#000000">::loadAndSaveMultipleAlignments</text>
</g>
<!-- Node54 -->
<g id="node2" class="node">
<title>Node54</title>
<g id="a_node2"><a xlink:href="class_format_handling_1_1_base_format_handler.html#a6186050eb30aec3f4fa7e1c834f2add1" target="_top" xlink:title="Function to check if a file is in the implemented format. ">
<polygon fill="#ffffff" stroke="#000000" points="208,-273.5 208,-303.5 353,-303.5 353,-273.5 208,-273.5"/>
<text text-anchor="start" x="216" y="-291.5" font-family="Helvetica,sans-Serif" font-size="10.00" fill="#000000">FormatHandling::BaseFormat</text>
<text text-anchor="middle" x="280.5" y="-280.5" font-family="Helvetica,sans-Serif" font-size="10.00" fill="#000000">Handler::CheckAlignment</text>
</a>
</g>
</g>
<!-- Node53&#45;&gt;Node54 -->
<g id="edge1" class="edge">
<title>Node53&#45;&gt;Node54</title>
<path fill="none" stroke="#191970" d="M92.3823,-161.5691C111.262,-186.6298 152.5456,-236.846 199,-264.5 201.8517,-266.1976 204.8317,-267.7822 207.8954,-269.2605"/>
<polygon fill="#191970" stroke="#191970" points="206.7295,-272.571 217.2931,-273.3835 209.5418,-266.1608 206.7295,-272.571"/>
</g>
<!-- Node55 -->
<g id="node3" class="node">
<title>Node55</title>
<g id="a_node3"><a xlink:href="class_format_handling_1_1_base_format_handler.html#acb1e7d713993916bb7b7b8c8ebebb922" target="_top" xlink:title="Function to load a file in the current format and return an alignment object. ">
<polygon fill="#ffffff" stroke="#000000" points="208,-224.5 208,-254.5 353,-254.5 353,-224.5 208,-224.5"/>
<text text-anchor="start" x="216" y="-242.5" font-family="Helvetica,sans-Serif" font-size="10.00" fill="#000000">FormatHandling::BaseFormat</text>
<text text-anchor="middle" x="280.5" y="-231.5" font-family="Helvetica,sans-Serif" font-size="10.00" fill="#000000">Handler::LoadAlignment</text>
</a>
</g>
</g>
<!-- Node53&#45;&gt;Node55 -->
<g id="edge2" class="edge">
<title>Node53&#45;&gt;Node55</title>
<path fill="none" stroke="#191970" d="M103.5945,-161.7007C126.5863,-176.9753 164.0496,-200.3642 199,-215.5 203.6189,-217.5003 208.4546,-219.3938 213.3672,-221.1733"/>
<polygon fill="#191970" stroke="#191970" points="212.2777,-224.4999 222.8725,-224.4534 214.5612,-217.8828 212.2777,-224.4999"/>
</g>
<!-- Node56 -->
<g id="node4" class="node">
<title>Node56</title>
<g id="a_node4"><a xlink:href="class_format_handling_1_1_base_format_handler.html#aa0f5f11e0cd33bb59a1c7b4847eb7ee9" target="_top" xlink:title="Function that recognizes acronyms of the format. ">
<polygon fill="#ffffff" stroke="#000000" points="199,-175.5 199,-205.5 362,-205.5 362,-175.5 199,-175.5"/>
<text text-anchor="start" x="207" y="-193.5" font-family="Helvetica,sans-Serif" font-size="10.00" fill="#000000">FormatHandling::BaseFormat</text>
<text text-anchor="middle" x="280.5" y="-182.5" font-family="Helvetica,sans-Serif" font-size="10.00" fill="#000000">Handler::RecognizeOutputFormat</text>
</a>
</g>
</g>
<!-- Node53&#45;&gt;Node56 -->
<g id="edge3" class="edge">
<title>Node53&#45;&gt;Node56</title>
<path fill="none" stroke="#191970" d="M149.4279,-161.5192C166.4641,-165.286 184.8779,-169.3574 202.3673,-173.2244"/>
<polygon fill="#191970" stroke="#191970" points="202.0208,-176.7323 212.5406,-175.4738 203.532,-169.8973 202.0208,-176.7323"/>
</g>
<!-- Node57 -->
<g id="node5" class="node">
<title>Node57</title>
<g id="a_node5"><a xlink:href="namespaceutils.html#ab0cb109dc7e12b42abd4cba86f7d8e78" target="_top" xlink:title="Function that replaces a substring with another substring in a string. It makes a copy of the origina...">
<polygon fill="#ffffff" stroke="#000000" points="229.5,-137 229.5,-156 331.5,-156 331.5,-137 229.5,-137"/>
<text text-anchor="middle" x="280.5" y="-144" font-family="Helvetica,sans-Serif" font-size="10.00" fill="#000000">utils::ReplaceString</text>
</a>
</g>
</g>
<!-- Node53&#45;&gt;Node57 -->
<g id="edge4" class="edge">
<title>Node53&#45;&gt;Node57</title>
<path fill="none" stroke="#191970" d="M163.0151,-146.5C181.768,-146.5 201.4027,-146.5 219.1336,-146.5"/>
<polygon fill="#191970" stroke="#191970" points="219.3324,-150.0001 229.3323,-146.5 219.3323,-143.0001 219.3324,-150.0001"/>
</g>
<!-- Node58 -->
<g id="node6" class="node">
<title>Node58</title>
<g id="a_node6"><a xlink:href="namespaceutils.html#a6000246220e801bf6b1e6a553d7af13a" target="_top" xlink:title="Function that replaces a substring with another substring in a string. It does not make a copy of the...">
<polygon fill="#ffffff" stroke="#000000" points="213,-99 213,-118 348,-118 348,-99 213,-99"/>
<text text-anchor="middle" x="280.5" y="-106" font-family="Helvetica,sans-Serif" font-size="10.00" fill="#000000">utils::ReplaceStringInPlace</text>
</a>
</g>
</g>
<!-- Node53&#45;&gt;Node58 -->
<g id="edge5" class="edge">
<title>Node53&#45;&gt;Node58</title>
<path fill="none" stroke="#191970" d="M160.1501,-131.4814C180.3177,-127.6303 201.6819,-123.5507 220.7238,-119.9145"/>
<polygon fill="#191970" stroke="#191970" points="221.5792,-123.3145 230.7452,-118.0009 220.2661,-116.4388 221.5792,-123.3145"/>
</g>
<!-- Node59 -->
<g id="node7" class="node">
<title>Node59</title>
<g id="a_node7"><a xlink:href="classreporting_1_1report_manager.html#abc8beece0a415330af73749d14fb5ccb" target="_top" xlink:title="Method to report an Error. It will be displayed if Level &#160;is equal or higher to VerboseLevel::ERROR. ">
<polygon fill="#ffffff" stroke="#000000" points="219.5,-49.5 219.5,-79.5 341.5,-79.5 341.5,-49.5 219.5,-49.5"/>
<text text-anchor="start" x="227.5" y="-67.5" font-family="Helvetica,sans-Serif" font-size="10.00" fill="#000000">reporting::reportManager</text>
<text text-anchor="middle" x="280.5" y="-56.5" font-family="Helvetica,sans-Serif" font-size="10.00" fill="#000000">::report</text>
</a>
</g>
</g>
<!-- Node53&#45;&gt;Node59 -->
<g id="edge6" class="edge">
<title>Node53&#45;&gt;Node59</title>
<path fill="none" stroke="#191970" d="M109.4446,-131.4299C132.9144,-119.1437 167.5607,-101.8626 199,-89.5 204.8752,-87.1897 211.0553,-84.9553 217.2755,-82.8355"/>
<polygon fill="#191970" stroke="#191970" points="218.65,-86.0674 227.0452,-79.6043 216.4519,-79.4215 218.65,-86.0674"/>
</g>
<!-- Node60 -->
<g id="node8" class="node">
<title>Node60</title>
<g id="a_node8"><a xlink:href="class_format_handling_1_1_base_format_handler.html#aa03ef111d21f6d200bb7dfbbc6b87eca" target="_top" xlink:title="Function to save a Alignment to a file. ">
<polygon fill="#ffffff" stroke="#000000" points="208,-.5 208,-30.5 353,-30.5 353,-.5 208,-.5"/>
<text text-anchor="start" x="216" y="-18.5" font-family="Helvetica,sans-Serif" font-size="10.00" fill="#000000">FormatHandling::BaseFormat</text>
<text text-anchor="middle" x="280.5" y="-7.5" font-family="Helvetica,sans-Serif" font-size="10.00" fill="#000000">Handler::SaveAlignment</text>
</a>
</g>
</g>
<!-- Node53&#45;&gt;Node60 -->
<g id="edge7" class="edge">
<title>Node53&#45;&gt;Node60</title>
<path fill="none" stroke="#191970" d="M94.3746,-131.2316C114.4655,-108.3341 155.5038,-65.163 199,-40.5 202.8704,-38.3054 206.9556,-36.2815 211.152,-34.4185"/>
<polygon fill="#191970" stroke="#191970" points="212.5525,-37.6271 220.4755,-30.5931 209.8954,-31.151 212.5525,-37.6271"/>
</g>
</g>
</svg>
