<?xml version="1.0" encoding="UTF-8" standalone="no"?>
<!DOCTYPE svg PUBLIC "-//W3C//DTD SVG 1.1//EN"
 "http://www.w3.org/Graphics/SVG/1.1/DTD/svg11.dtd">
<!-- Generated by graphviz version 2.40.1 (20161225.0304)
 -->
<!-- Title: FormatHandling::FormatManager::loadAlignment Pages: 1 -->
<svg width="818pt" height="205pt"
 viewBox="0.00 0.00 818.00 205.00" xmlns="http://www.w3.org/2000/svg" xmlns:xlink="http://www.w3.org/1999/xlink">
<g id="graph0" class="graph" transform="scale(1 1) rotate(0) translate(4 201)">
<title>FormatHandling::FormatManager::loadAlignment</title>
<polygon fill="#ffffff" stroke="transparent" points="-4,4 -4,-201 814,-201 814,4 -4,4"/>
<!-- Node44 -->
<g id="node1" class="node">
<title>Node44</title>
<polygon fill="#bfbfbf" stroke="#000000" points="0,-82.5 0,-112.5 160,-112.5 160,-82.5 0,-82.5"/>
<text text-anchor="start" x="8" y="-100.5" font-family="Helvetica,sans-Serif" font-size="10.00" fill="#000000">FormatHandling::FormatManager</text>
<text text-anchor="middle" x="80" y="-89.5" font-family="Helvetica,sans-Serif" font-size="10.00" fill="#000000">::loadAlignment</text>
</g>
<!-- Node45 -->
<g id="node2" class="node">
<title>Node45</title>
<g id="a_node2"><a xlink:href="classtrim_al_manager.html#ae49bc2cb7f90419296da65a23df39c8d" target="_top" xlink:title="Method to parse the backtranslation argument. ">
<polygon fill="#ffffff" stroke="#000000" points="403.5,-166.5 403.5,-196.5 510.5,-196.5 510.5,-166.5 403.5,-166.5"/>
<text text-anchor="start" x="411.5" y="-184.5" font-family="Helvetica,sans-Serif" font-size="10.00" fill="#000000">trimAlManager::back</text>
<text text-anchor="middle" x="457" y="-173.5" font-family="Helvetica,sans-Serif" font-size="10.00" fill="#000000">_trans_argument</text>
</a>
</g>
</g>
<!-- Node44&#45;&gt;Node45 -->
<g id="edge1" class="edge">
<title>Node44&#45;&gt;Node45</title>
<path fill="none" stroke="#191970" d="M130.7792,-115.8679C150.901,-122.6889 174.3595,-130.0776 196,-135.5 266.852,-153.2531 350.1972,-166.6773 403.2954,-174.3145"/>
<polygon fill="#191970" stroke="#191970" points="131.7865,-112.5133 121.1918,-112.5762 129.5133,-119.1339 131.7865,-112.5133"/>
</g>
<!-- Node48 -->
<g id="node5" class="node">
<title>Node48</title>
<g id="a_node5"><a xlink:href="classtrim_al_manager.html#a63dad1ad106b0fa09351cd5981b37aeb" target="_top" xlink:title="Method to parse the force select argument. ">
<polygon fill="#ffffff" stroke="#000000" points="403.5,-117.5 403.5,-147.5 510.5,-147.5 510.5,-117.5 403.5,-117.5"/>
<text text-anchor="start" x="411.5" y="-135.5" font-family="Helvetica,sans-Serif" font-size="10.00" fill="#000000">trimAlManager::force</text>
<text text-anchor="middle" x="457" y="-124.5" font-family="Helvetica,sans-Serif" font-size="10.00" fill="#000000">_select_argument</text>
</a>
</g>
</g>
<!-- Node44&#45;&gt;Node48 -->
<g id="edge4" class="edge">
<title>Node44&#45;&gt;Node48</title>
<path fill="none" stroke="#191970" d="M169.9421,-113.1492C178.7312,-114.4022 187.5276,-115.5489 196,-116.5 267.506,-124.527 350.5179,-128.7477 403.3774,-130.7983"/>
<polygon fill="#191970" stroke="#191970" points="170.4424,-109.6852 160.0398,-111.6939 169.4246,-116.6108 170.4424,-109.6852"/>
</g>
<!-- Node49 -->
<g id="node6" class="node">
<title>Node49</title>
<g id="a_node6"><a xlink:href="classtrim_al_manager.html#a9580aa82de8aba6794647a36c0416a33" target="_top" xlink:title="Method to parse the input file argument. ">
<polygon fill="#ffffff" stroke="#000000" points="196,-88 196,-107 335,-107 335,-88 196,-88"/>
<text text-anchor="middle" x="265.5" y="-95" font-family="Helvetica,sans-Serif" font-size="10.00" fill="#000000">trimAlManager::in_argument</text>
</a>
</g>
</g>
<!-- Node44&#45;&gt;Node49 -->
<g id="edge6" class="edge">
<title>Node44&#45;&gt;Node49</title>
<path fill="none" stroke="#191970" d="M170.1586,-97.5C178.8271,-97.5 187.5258,-97.5 195.9515,-97.5"/>
<polygon fill="#191970" stroke="#191970" points="170.0147,-94.0001 160.0146,-97.5 170.0146,-101.0001 170.0147,-94.0001"/>
</g>
<!-- Node50 -->
<g id="node7" class="node">
<title>Node50</title>
<g id="a_node7"><a xlink:href="read_al_main_8cpp.html#a0ddf1224851353fc92bfbff6f499fa97" target="_top" xlink:title="main">
<polygon fill="#ffffff" stroke="#000000" points="246.5,-50 246.5,-69 284.5,-69 284.5,-50 246.5,-50"/>
<text text-anchor="middle" x="265.5" y="-57" font-family="Helvetica,sans-Serif" font-size="10.00" fill="#000000">main</text>
</a>
</g>
</g>
<!-- Node44&#45;&gt;Node50 -->
<g id="edge8" class="edge">
<title>Node44&#45;&gt;Node50</title>
<path fill="none" stroke="#191970" d="M163.2492,-80.4462C194.0549,-74.1357 226.2734,-67.5356 246.1188,-63.4703"/>
<polygon fill="#191970" stroke="#191970" points="162.4087,-77.0457 153.3145,-82.4814 163.8135,-83.9033 162.4087,-77.0457"/>
</g>
<!-- Node51 -->
<g id="node8" class="node">
<title>Node51</title>
<g id="a_node8"><a xlink:href="classstatistics_1_1_consistency.html#ae8679e43ec228926ac2844af133cc2d5" target="_top" xlink:title="Method to compare a set of MSA, all containing the same sequences and residues. The number of residue...">
<polygon fill="#ffffff" stroke="#000000" points="207,-.5 207,-30.5 324,-30.5 324,-.5 207,-.5"/>
<text text-anchor="start" x="215" y="-18.5" font-family="Helvetica,sans-Serif" font-size="10.00" fill="#000000">statistics::Consistency</text>
<text text-anchor="middle" x="265.5" y="-7.5" font-family="Helvetica,sans-Serif" font-size="10.00" fill="#000000">::perform</text>
</a>
</g>
</g>
<!-- Node44&#45;&gt;Node51 -->
<g id="edge9" class="edge">
<title>Node44&#45;&gt;Node51</title>
<path fill="none" stroke="#191970" d="M117.8402,-77.5762C140.2736,-66.1008 169.4278,-51.7663 196,-40.5 204.1458,-37.0463 212.9495,-33.6381 221.4647,-30.5019"/>
<polygon fill="#191970" stroke="#191970" points="115.9521,-74.6116 108.6644,-82.3019 119.1572,-80.8348 115.9521,-74.6116"/>
</g>
<!-- Node46 -->
<g id="node3" class="node">
<title>Node46</title>
<g id="a_node3"><a xlink:href="classtrim_al_manager.html#af140d97b6071a83930818030ac74b641" target="_top" xlink:title="Method to parse arguments into usable structure in trimal. ">
<polygon fill="#ffffff" stroke="#000000" points="579,-101 579,-120 736,-120 736,-101 579,-101"/>
<text text-anchor="middle" x="657.5" y="-108" font-family="Helvetica,sans-Serif" font-size="10.00" fill="#000000">trimAlManager::parseArguments</text>
</a>
</g>
</g>
<!-- Node45&#45;&gt;Node46 -->
<g id="edge2" class="edge">
<title>Node45&#45;&gt;Node46</title>
<path fill="none" stroke="#191970" d="M520.2363,-164.7687C527.9465,-162.4596 535.6812,-160.0136 543,-157.5 576.1262,-146.1228 613.4878,-130.1795 636.2615,-120.0971"/>
<polygon fill="#191970" stroke="#191970" points="519.1297,-161.4457 510.5164,-167.6151 521.097,-168.1635 519.1297,-161.4457"/>
</g>
<!-- Node47 -->
<g id="node4" class="node">
<title>Node47</title>
<g id="a_node4"><a xlink:href="trim_al_main_8cpp.html#a0ddf1224851353fc92bfbff6f499fa97" target="_top" xlink:title="main">
<polygon fill="#ffffff" stroke="#000000" points="772,-101 772,-120 810,-120 810,-101 772,-101"/>
<text text-anchor="middle" x="791" y="-108" font-family="Helvetica,sans-Serif" font-size="10.00" fill="#000000">main</text>
</a>
</g>
</g>
<!-- Node46&#45;&gt;Node47 -->
<g id="edge3" class="edge">
<title>Node46&#45;&gt;Node47</title>
<path fill="none" stroke="#191970" d="M746.5766,-110.5C755.8353,-110.5 764.4462,-110.5 771.5746,-110.5"/>
<polygon fill="#191970" stroke="#191970" points="746.3153,-107.0001 736.3152,-110.5 746.3152,-114.0001 746.3153,-107.0001"/>
</g>
<!-- Node48&#45;&gt;Node46 -->
<g id="edge5" class="edge">
<title>Node48&#45;&gt;Node46</title>
<path fill="none" stroke="#191970" d="M520.7518,-125.5048C539.1777,-123.483 559.5087,-121.2522 578.7337,-119.1427"/>
<polygon fill="#191970" stroke="#191970" points="520.2889,-122.0345 510.7303,-126.6044 521.0524,-128.9927 520.2889,-122.0345"/>
</g>
<!-- Node49&#45;&gt;Node46 -->
<g id="edge7" class="edge">
<title>Node49&#45;&gt;Node46</title>
<path fill="none" stroke="#191970" d="M345.3843,-100.1492C413.523,-102.4089 510.9409,-105.6396 578.7517,-107.8884"/>
<polygon fill="#191970" stroke="#191970" points="345.2406,-96.6426 335.13,-99.8092 345.0085,-103.6388 345.2406,-96.6426"/>
</g>
<!-- Node52 -->
<g id="node9" class="node">
<title>Node52</title>
<g id="a_node9"><a xlink:href="classtrim_al_manager.html#a12b7cef964ef258fe7621da44867c51f" target="_top" xlink:title="Method to check if multiple files comparison has been set correctly. It also perform some calculation...">
<polygon fill="#ffffff" stroke="#000000" points="371,-25 371,-44 543,-44 543,-25 371,-25"/>
<text text-anchor="middle" x="457" y="-32" font-family="Helvetica,sans-Serif" font-size="10.00" fill="#000000">trimAlManager::performCompareset</text>
</a>
</g>
</g>
<!-- Node51&#45;&gt;Node52 -->
<g id="edge10" class="edge">
<title>Node51&#45;&gt;Node52</title>
<path fill="none" stroke="#191970" d="M334.4639,-22.3424C346.2739,-23.5141 358.6751,-24.7445 370.8663,-25.9541"/>
<polygon fill="#191970" stroke="#191970" points="334.5545,-18.8343 324.2577,-21.3297 333.8633,-25.8001 334.5545,-18.8343"/>
</g>
<!-- Node52&#45;&gt;Node46 -->
<g id="edge11" class="edge">
<title>Node52&#45;&gt;Node46</title>
<path fill="none" stroke="#191970" d="M491.774,-47.6812C531.8676,-62.8788 596.7968,-87.4903 632.3127,-100.9527"/>
<polygon fill="#191970" stroke="#191970" points="492.9848,-44.3972 482.3935,-44.1255 490.5037,-50.9427 492.9848,-44.3972"/>
</g>
</g>
</svg>
