<?xml version="1.0" encoding="UTF-8" standalone="no"?>
<!DOCTYPE svg PUBLIC "-//W3C//DTD SVG 1.1//EN"
 "http://www.w3.org/Graphics/SVG/1.1/DTD/svg11.dtd">
<!-- Generated by graphviz version 2.40.1 (20161225.0304)
 -->
<!-- Title: FormatManager::getFileFormatName Pages: 1 -->
<svg width="823pt" height="127pt"
 viewBox="0.00 0.00 823.00 127.00" xmlns="http://www.w3.org/2000/svg" xmlns:xlink="http://www.w3.org/1999/xlink">
<g id="graph0" class="graph" transform="scale(1 1) rotate(0) translate(4 123)">
<title>FormatManager::getFileFormatName</title>
<polygon fill="#ffffff" stroke="transparent" points="-4,4 -4,-123 819,-123 819,4 -4,4"/>
<!-- Node10 -->
<g id="node1" class="node">
<title>Node10</title>
<g id="a_node1"><a xlink:title="Function to obtain the format name of a given file.">
<polygon fill="#bfbfbf" stroke="#000000" points="638,-50 638,-69 815,-69 815,-50 638,-50"/>
<text text-anchor="middle" x="726.5" y="-57" font-family="Helvetica,sans-Serif" font-size="10.00" fill="#000000">FormatManager::getFileFormatName</text>
</a>
</g>
</g>
<!-- Node11 -->
<g id="node2" class="node">
<title>Node11</title>
<g id="a_node2"><a xlink:href="classtrim_al_manager.html#af7c3b97a17c2f5750f9481cc60c17616" target="_top" xlink:title="Method to check if an output format has been given. If no output format has been given,...">
<polygon fill="#ffffff" stroke="#000000" points="487.5,-88.5 487.5,-118.5 599.5,-118.5 599.5,-88.5 487.5,-88.5"/>
<text text-anchor="start" x="495.5" y="-106.5" font-family="Helvetica,sans-Serif" font-size="10.00" fill="#000000">trimAlManager::check</text>
<text text-anchor="middle" x="543.5" y="-95.5" font-family="Helvetica,sans-Serif" font-size="10.00" fill="#000000">_output_format</text>
</a>
</g>
</g>
<!-- Node10&#45;&gt;Node11 -->
<g id="edge1" class="edge">
<title>Node10&#45;&gt;Node11</title>
<path fill="none" stroke="#191970" d="M676.9045,-71.4246C653.0837,-77.152 624.43,-84.0414 599.7939,-89.9648"/>
<polygon fill="#191970" stroke="#191970" points="677.8871,-74.7882 686.7917,-69.0473 676.2506,-67.9821 677.8871,-74.7882"/>
</g>
<!-- Node15 -->
<g id="node6" class="node">
<title>Node15</title>
<g id="a_node6"><a xlink:href="read_al_main_8cpp.html#a0ddf1224851353fc92bfbff6f499fa97" target="_top" xlink:title=" ">
<polygon fill="#ffffff" stroke="#000000" points="524.5,-50 524.5,-69 562.5,-69 562.5,-50 524.5,-50"/>
<text text-anchor="middle" x="543.5" y="-57" font-family="Helvetica,sans-Serif" font-size="10.00" fill="#000000">main</text>
</a>
</g>
</g>
<!-- Node10&#45;&gt;Node15 -->
<g id="edge5" class="edge">
<title>Node10&#45;&gt;Node15</title>
<path fill="none" stroke="#191970" d="M627.6765,-59.5C602.8786,-59.5 578.8026,-59.5 562.7969,-59.5"/>
<polygon fill="#191970" stroke="#191970" points="627.9483,-63.0001 637.9483,-59.5 627.9482,-56.0001 627.9483,-63.0001"/>
</g>
<!-- Node16 -->
<g id="node7" class="node">
<title>Node16</title>
<g id="a_node7"><a xlink:href="classstatistics_1_1_consistency.html#a2e281b6a138074a23ebf261731e3aa27" target="_top" xlink:title="Method to compare a set of MSA, all containing the same sequences and residues. The number of residue...">
<polygon fill="#ffffff" stroke="#000000" points="485,-.5 485,-30.5 602,-30.5 602,-.5 485,-.5"/>
<text text-anchor="start" x="493" y="-18.5" font-family="Helvetica,sans-Serif" font-size="10.00" fill="#000000">statistics::Consistency</text>
<text text-anchor="middle" x="543.5" y="-7.5" font-family="Helvetica,sans-Serif" font-size="10.00" fill="#000000">::perform</text>
</a>
</g>
</g>
<!-- Node10&#45;&gt;Node16 -->
<g id="edge6" class="edge">
<title>Node10&#45;&gt;Node16</title>
<path fill="none" stroke="#191970" d="M676.89,-47.5719C653.8596,-42.0346 626.3141,-35.4116 602.25,-29.6257"/>
<polygon fill="#191970" stroke="#191970" points="676.2506,-51.0179 686.7917,-49.9527 677.8871,-44.2118 676.2506,-51.0179"/>
</g>
<!-- Node12 -->
<g id="node3" class="node">
<title>Node12</title>
<g id="a_node3"><a xlink:href="classtrim_al_manager.html#a3f325b806727751394adb829d97b35f1" target="_top" xlink:title="Method that checks dependencies between arguments. Take in mind that dependencies may be between mult...">
<polygon fill="#ffffff" stroke="#000000" points="307,-77.5 307,-107.5 419,-107.5 419,-77.5 307,-77.5"/>
<text text-anchor="start" x="315" y="-95.5" font-family="Helvetica,sans-Serif" font-size="10.00" fill="#000000">trimAlManager::check</text>
<text text-anchor="middle" x="363" y="-84.5" font-family="Helvetica,sans-Serif" font-size="10.00" fill="#000000">_arguments_needs</text>
</a>
</g>
</g>
<!-- Node11&#45;&gt;Node12 -->
<g id="edge2" class="edge">
<title>Node11&#45;&gt;Node12</title>
<path fill="none" stroke="#191970" d="M477.2519,-99.4627C458.1523,-98.2988 437.5062,-97.0405 419.0872,-95.9181"/>
<polygon fill="#191970" stroke="#191970" points="477.1837,-102.965 487.3781,-100.0798 477.6096,-95.9779 477.1837,-102.965"/>
</g>
<!-- Node13 -->
<g id="node4" class="node">
<title>Node13</title>
<g id="a_node4"><a xlink:href="classtrim_al_manager.html#a748b08a1ec5cd214de804ed0d4234a6e" target="_top" xlink:title="Method to process the information obtained by trimAlManager::parseArguments It checks for argument in...">
<polygon fill="#ffffff" stroke="#000000" points="74,-70 74,-89 241,-89 241,-70 74,-70"/>
<text text-anchor="middle" x="157.5" y="-77" font-family="Helvetica,sans-Serif" font-size="10.00" fill="#000000">trimAlManager::processArguments</text>
</a>
</g>
</g>
<!-- Node12&#45;&gt;Node13 -->
<g id="edge3" class="edge">
<title>Node12&#45;&gt;Node13</title>
<path fill="none" stroke="#191970" d="M296.6754,-88.3043C279.0469,-87.1891 259.7752,-85.97 241.3441,-84.804"/>
<polygon fill="#191970" stroke="#191970" points="296.6452,-91.8093 306.8462,-88.9477 297.0872,-84.8232 296.6452,-91.8093"/>
</g>
<!-- Node14 -->
<g id="node5" class="node">
<title>Node14</title>
<g id="a_node5"><a xlink:href="trim_al_main_8cpp.html#a0ddf1224851353fc92bfbff6f499fa97" target="_top" xlink:title=" ">
<polygon fill="#ffffff" stroke="#000000" points="0,-50 0,-69 38,-69 38,-50 0,-50"/>
<text text-anchor="middle" x="19" y="-57" font-family="Helvetica,sans-Serif" font-size="10.00" fill="#000000">main</text>
</a>
</g>
</g>
<!-- Node13&#45;&gt;Node14 -->
<g id="edge4" class="edge">
<title>Node13&#45;&gt;Node14</title>
<path fill="none" stroke="#191970" d="M81.4371,-68.5162C65.3359,-66.1911 49.7307,-63.9376 38.1487,-62.2652"/>
<polygon fill="#191970" stroke="#191970" points="81.0974,-72.0034 91.495,-69.9686 82.098,-65.0752 81.0974,-72.0034"/>
</g>
<!-- Node17 -->
<g id="node8" class="node">
<title>Node17</title>
<g id="a_node8"><a xlink:href="classtrim_al_manager.html#a12b7cef964ef258fe7621da44867c51f" target="_top" xlink:title="Method to check if multiple files comparison has been set correctly. It also perform some calculation...">
<polygon fill="#ffffff" stroke="#000000" points="277,-28 277,-47 449,-47 449,-28 277,-28"/>
<text text-anchor="middle" x="363" y="-35" font-family="Helvetica,sans-Serif" font-size="10.00" fill="#000000">trimAlManager::performCompareset</text>
</a>
</g>
</g>
<!-- Node16&#45;&gt;Node17 -->
<g id="edge7" class="edge">
<title>Node16&#45;&gt;Node17</title>
<path fill="none" stroke="#191970" d="M474.8822,-23.8634C463.8138,-25.2125 452.284,-26.6177 441.0136,-27.9914"/>
<polygon fill="#191970" stroke="#191970" points="475.3938,-27.327 484.8968,-22.6428 474.5468,-20.3785 475.3938,-27.327"/>
</g>
<!-- Node18 -->
<g id="node9" class="node">
<title>Node18</title>
<g id="a_node9"><a xlink:href="classtrim_al_manager.html#af140d97b6071a83930818030ac74b641" target="_top" xlink:title="Method to parse arguments into usable structure in trimal.">
<polygon fill="#ffffff" stroke="#000000" points="79,-31 79,-50 236,-50 236,-31 79,-31"/>
<text text-anchor="middle" x="157.5" y="-38" font-family="Helvetica,sans-Serif" font-size="10.00" fill="#000000">trimAlManager::parseArguments</text>
</a>
</g>
</g>
<!-- Node17&#45;&gt;Node18 -->
<g id="edge8" class="edge">
<title>Node17&#45;&gt;Node18</title>
<path fill="none" stroke="#191970" d="M266.552,-38.908C256.3183,-39.0574 246.0009,-39.208 236.0079,-39.3539"/>
<polygon fill="#191970" stroke="#191970" points="266.7949,-42.4049 276.7427,-38.7592 266.6927,-35.4057 266.7949,-42.4049"/>
</g>
<!-- Node18&#45;&gt;Node14 -->
<g id="edge9" class="edge">
<title>Node18&#45;&gt;Node14</title>
<path fill="none" stroke="#191970" d="M77.5757,-51.4643C62.8469,-53.4849 48.7781,-55.4149 38.1215,-56.8768"/>
<polygon fill="#191970" stroke="#191970" points="78.4127,-54.8824 87.8442,-50.0557 77.4613,-47.9473 78.4127,-54.8824"/>
</g>
</g>
</svg>
