<?xml version="1.0" encoding="UTF-8" standalone="no"?>
<!DOCTYPE svg PUBLIC "-//W3C//DTD SVG 1.1//EN"
 "http://www.w3.org/Graphics/SVG/1.1/DTD/svg11.dtd">
<!-- Generated by graphviz version 2.38.0 (20140413.2041)
 -->
<!-- Title: sequencesMatrix Pages: 1 -->
<svg width="862pt" height="500pt"
 viewBox="0.00 0.00 861.50 500.00" xmlns="http://www.w3.org/2000/svg" xmlns:xlink="http://www.w3.org/1999/xlink">
<g id="graph0" class="graph" transform="scale(1 1) rotate(0) translate(4 496)">
<title>sequencesMatrix</title>
<polygon fill="white" stroke="none" points="-4,4 -4,-496 857.5,-496 857.5,4 -4,4"/>
<!-- Node1 -->
<g id="node1" class="node"><title>Node1</title>
<polygon fill="#bfbfbf" stroke="black" points="582,-154 582,-173 673,-173 673,-154 582,-154"/>
<text text-anchor="middle" x="627.5" y="-161" font-family="Helvetica,sans-Serif" font-size="10.00">sequencesMatrix</text>
</g>
<!-- Node2 -->
<g id="node2" class="node"><title>Node2</title>
<g id="a_node2"><a xlink:href="classnew_alignment.html" target="_top" xlink:title="Class containing an alignment &#160;This class stores the alignment sequences with it&#39;s names...">
<polygon fill="white" stroke="black" points="457.5,-68.5 457.5,-87.5 535.5,-87.5 535.5,-68.5 457.5,-68.5"/>
<text text-anchor="middle" x="496.5" y="-75.5" font-family="Helvetica,sans-Serif" font-size="10.00">newAlignment</text>
</a>
</g>
</g>
<!-- Node1&#45;&gt;Node2 -->
<g id="edge4" class="edge"><title>Node1&#45;&gt;Node2</title>
<path fill="none" stroke="#9a32cd" stroke-dasharray="5,2" d="M625.256,-143.587C622.844,-131.493 617.845,-116.37 607.5,-107 588.056,-89.388 559.152,-82.494 535.714,-79.9476"/>
<polygon fill="#9a32cd" stroke="#9a32cd" points="621.818,-144.254 626.824,-153.591 628.734,-143.17 621.818,-144.254"/>
<text text-anchor="middle" x="655" y="-110" font-family="Helvetica,sans-Serif" font-size="10.00"> SequencesMatrix</text>
</g>
<!-- Node2&#45;&gt;Node1 -->
<g id="edge1" class="edge"><title>Node2&#45;&gt;Node1</title>
<path fill="none" stroke="#9a32cd" stroke-dasharray="5,2" d="M518.242,-93.2555C529.611,-100.678 543.775,-109.877 556.5,-118 576.242,-130.602 599.234,-144.954 613.58,-153.87"/>
<polygon fill="#9a32cd" stroke="#9a32cd" points="520.089,-90.2815 509.804,-87.7376 516.258,-96.14 520.089,-90.2815"/>
<text text-anchor="middle" x="582" y="-110" font-family="Helvetica,sans-Serif" font-size="10.00"> _alignment</text>
</g>
<!-- Node10 -->
<g id="node10" class="node"><title>Node10</title>
<g id="a_node10"><a xlink:href="class_cleaner.html" target="_top" xlink:title="Subclass contained by the alignment object to make cleaning operations on it. ">
<polygon fill="white" stroke="black" points="470.5,-0.5 470.5,-19.5 520.5,-19.5 520.5,-0.5 470.5,-0.5"/>
<text text-anchor="middle" x="495.5" y="-7.5" font-family="Helvetica,sans-Serif" font-size="10.00">Cleaner</text>
</a>
</g>
</g>
<!-- Node2&#45;&gt;Node10 -->
<g id="edge15" class="edge"><title>Node2&#45;&gt;Node10</title>
<path fill="none" stroke="#9a32cd" stroke-dasharray="5,2" d="M504.692,-58.5813C506.644,-52.1108 507.826,-44.7673 506.5,-38 505.255,-31.642 502.505,-24.892 500.066,-19.7315"/>
<polygon fill="#9a32cd" stroke="#9a32cd" points="501.246,-57.7991 500.983,-68.3907 507.793,-60.2746 501.246,-57.7991"/>
<text text-anchor="middle" x="533" y="-41" font-family="Helvetica,sans-Serif" font-size="10.00"> _alignment</text>
</g>
<!-- Node14 -->
<g id="node14" class="node"><title>Node14</title>
<g id="a_node14"><a xlink:href="class_statistics_manager.html" target="_top" xlink:title="StatisticsManager">
<polygon fill="white" stroke="black" points="0,-0.5 0,-19.5 95,-19.5 95,-0.5 0,-0.5"/>
<text text-anchor="middle" x="47.5" y="-7.5" font-family="Helvetica,sans-Serif" font-size="10.00">StatisticsManager</text>
</a>
</g>
</g>
<!-- Node2&#45;&gt;Node14 -->
<g id="edge22" class="edge"><title>Node2&#45;&gt;Node14</title>
<path fill="none" stroke="#9a32cd" stroke-dasharray="5,2" d="M447.056,-68.325C399.168,-60.0505 324.466,-47.4791 259.5,-38 203.144,-29.7772 138.15,-21.708 95.1395,-16.5645"/>
<polygon fill="#9a32cd" stroke="#9a32cd" points="446.699,-71.8152 457.15,-70.074 447.894,-64.918 446.699,-71.8152"/>
<text text-anchor="middle" x="351" y="-41" font-family="Helvetica,sans-Serif" font-size="10.00"> _alignment</text>
</g>
<!-- Node3 -->
<g id="node3" class="node"><title>Node3</title>
<g id="a_node3"><a xlink:href="classstatistics_gaps.html" target="_top" xlink:title="statisticsGaps">
<polygon fill="white" stroke="black" points="90.5,-227 90.5,-246 170.5,-246 170.5,-227 90.5,-227"/>
<text text-anchor="middle" x="130.5" y="-234" font-family="Helvetica,sans-Serif" font-size="10.00">statisticsGaps</text>
</a>
</g>
</g>
<!-- Node3&#45;&gt;Node2 -->
<g id="edge2" class="edge"><title>Node3&#45;&gt;Node2</title>
<path fill="none" stroke="#9a32cd" stroke-dasharray="5,2" d="M147.024,-219.882C171.162,-197.917 218.339,-158.118 265.5,-136 329.077,-106.183 410.082,-90.8307 457.332,-83.8811"/>
<polygon fill="#9a32cd" stroke="#9a32cd" points="144.454,-217.491 139.485,-226.849 149.205,-222.632 144.454,-217.491"/>
<text text-anchor="middle" x="280.5" y="-161" font-family="Helvetica,sans-Serif" font-size="10.00"> sgaps</text>
</g>
<!-- Node4 -->
<g id="node4" class="node"><title>Node4</title>
<polygon fill="white" stroke="#bfbfbf" points="286,-467 286,-486 315,-486 315,-467 286,-467"/>
<text text-anchor="middle" x="300.5" y="-474" font-family="Helvetica,sans-Serif" font-size="10.00">int</text>
</g>
<!-- Node4&#45;&gt;Node1 -->
<g id="edge24" class="edge"><title>Node4&#45;&gt;Node1</title>
<path fill="none" stroke="#9a32cd" stroke-dasharray="5,2" d="M325.27,-475.672C382.558,-475.562 521.954,-472.218 556.5,-443 641.839,-370.822 632.194,-211.729 628.449,-173.083"/>
<polygon fill="#9a32cd" stroke="#9a32cd" points="325.271,-472.172 315.266,-475.659 325.262,-479.172 325.271,-472.172"/>
<text text-anchor="middle" x="655.5" y="-312.5" font-family="Helvetica,sans-Serif" font-size="10.00"> matrix</text>
<text text-anchor="middle" x="655.5" y="-301.5" font-family="Helvetica,sans-Serif" font-size="10.00">seqsNumber</text>
<text text-anchor="middle" x="655.5" y="-290.5" font-family="Helvetica,sans-Serif" font-size="10.00">resNumber</text>
</g>
<!-- Node4&#45;&gt;Node2 -->
<g id="edge6" class="edge"><title>Node4&#45;&gt;Node2</title>
<path fill="none" stroke="#9a32cd" stroke-dasharray="5,2" d="M325.12,-473.834C364.397,-470.627 438.548,-462.146 455.5,-443 472.758,-423.508 464.428,-234.852 467.5,-209 473.012,-162.616 487.882,-108.491 493.909,-87.7211"/>
<polygon fill="#9a32cd" stroke="#9a32cd" points="324.748,-470.352 315.043,-474.603 325.28,-477.332 324.748,-470.352"/>
<text text-anchor="middle" x="504" y="-256" font-family="Helvetica,sans-Serif" font-size="10.00"> saveSequences</text>
<text text-anchor="middle" x="504" y="-245" font-family="Helvetica,sans-Serif" font-size="10.00">dataType</text>
<text text-anchor="middle" x="504" y="-234" font-family="Helvetica,sans-Serif" font-size="10.00">saveResidues</text>
<text text-anchor="middle" x="504" y="-223" font-family="Helvetica,sans-Serif" font-size="10.00">residNumber</text>
<text text-anchor="middle" x="504" y="-212" font-family="Helvetica,sans-Serif" font-size="10.00">sequenNumber</text>
</g>
<!-- Node4&#45;&gt;Node3 -->
<g id="edge3" class="edge"><title>Node4&#45;&gt;Node3</title>
<path fill="none" stroke="#9a32cd" stroke-dasharray="5,2" d="M275.668,-475.575C248.822,-474.28 206.527,-468.018 181.5,-443 125.085,-386.606 127.667,-278.161 129.762,-246.428"/>
<polygon fill="#9a32cd" stroke="#9a32cd" points="275.703,-479.078 285.799,-475.864 275.903,-472.081 275.703,-479.078"/>
<text text-anchor="middle" x="234" y="-435" font-family="Helvetica,sans-Serif" font-size="10.00"> numColumnsWithGaps</text>
<text text-anchor="middle" x="234" y="-424" font-family="Helvetica,sans-Serif" font-size="10.00">columnLength</text>
<text text-anchor="middle" x="234" y="-413" font-family="Helvetica,sans-Serif" font-size="10.00">halfWindow</text>
<text text-anchor="middle" x="234" y="-402" font-family="Helvetica,sans-Serif" font-size="10.00">gapsWindow</text>
<text text-anchor="middle" x="234" y="-391" font-family="Helvetica,sans-Serif" font-size="10.00">maxGaps</text>
<text text-anchor="middle" x="234" y="-380" font-family="Helvetica,sans-Serif" font-size="10.00">gapsInColumn</text>
<text text-anchor="middle" x="234" y="-369" font-family="Helvetica,sans-Serif" font-size="10.00">dataType</text>
<text text-anchor="middle" x="234" y="-358" font-family="Helvetica,sans-Serif" font-size="10.00">aminosXInColumn</text>
<text text-anchor="middle" x="234" y="-347" font-family="Helvetica,sans-Serif" font-size="10.00">columns</text>
</g>
<!-- Node6 -->
<g id="node6" class="node"><title>Node6</title>
<g id="a_node6"><a xlink:href="classstatistics_conservation.html" target="_top" xlink:title="statisticsConservation">
<polygon fill="white" stroke="black" points="304.5,-154 304.5,-173 418.5,-173 418.5,-154 304.5,-154"/>
<text text-anchor="middle" x="361.5" y="-161" font-family="Helvetica,sans-Serif" font-size="10.00">statisticsConservation</text>
</a>
</g>
</g>
<!-- Node4&#45;&gt;Node6 -->
<g id="edge9" class="edge"><title>Node4&#45;&gt;Node6</title>
<path fill="none" stroke="#9a32cd" stroke-dasharray="5,2" d="M298.998,-456.774C295.93,-413.913 290.719,-310.205 309.5,-282 319.858,-266.445 336.428,-279.055 347.5,-264 367.963,-236.174 365.147,-191.87 362.821,-173.223"/>
<polygon fill="#9a32cd" stroke="#9a32cd" points="295.521,-457.217 299.768,-466.923 302.501,-456.687 295.521,-457.217"/>
<text text-anchor="middle" x="337" y="-318" font-family="Helvetica,sans-Serif" font-size="10.00"> halfWindow</text>
<text text-anchor="middle" x="337" y="-307" font-family="Helvetica,sans-Serif" font-size="10.00">dataType</text>
<text text-anchor="middle" x="337" y="-296" font-family="Helvetica,sans-Serif" font-size="10.00">sequences</text>
<text text-anchor="middle" x="337" y="-285" font-family="Helvetica,sans-Serif" font-size="10.00">columns</text>
</g>
<!-- Node9 -->
<g id="node9" class="node"><title>Node9</title>
<g id="a_node9"><a xlink:href="classsimilarity_matrix.html" target="_top" xlink:title="similarityMatrix">
<polygon fill="white" stroke="black" points="374,-294.5 374,-313.5 457,-313.5 457,-294.5 374,-294.5"/>
<text text-anchor="middle" x="415.5" y="-301.5" font-family="Helvetica,sans-Serif" font-size="10.00">similarityMatrix</text>
</a>
</g>
</g>
<!-- Node4&#45;&gt;Node9 -->
<g id="edge13" class="edge"><title>Node4&#45;&gt;Node9</title>
<path fill="none" stroke="#9a32cd" stroke-dasharray="5,2" d="M312.043,-458.387C336.183,-422.596 391.275,-340.916 409.513,-313.876"/>
<polygon fill="#9a32cd" stroke="#9a32cd" points="309.051,-456.563 306.361,-466.81 314.854,-460.477 309.051,-456.563"/>
<text text-anchor="middle" x="420" y="-396.5" font-family="Helvetica,sans-Serif" font-size="10.00"> numPositions</text>
<text text-anchor="middle" x="420" y="-385.5" font-family="Helvetica,sans-Serif" font-size="10.00">vhash</text>
</g>
<!-- Node4&#45;&gt;Node10 -->
<g id="edge16" class="edge"><title>Node4&#45;&gt;Node10</title>
<path fill="none" stroke="#9a32cd" stroke-dasharray="5,2" d="M275.631,-473.933C233.984,-470.797 152.702,-462.319 132.5,-443 33.6584,-348.477 30.5981,-246.268 111.5,-136 157.295,-73.5826 182.906,-64.8937 255.5,-38 294.425,-23.5795 416.707,-15.3142 470.118,-12.3091"/>
<polygon fill="#9a32cd" stroke="#9a32cd" points="275.552,-477.436 285.774,-474.65 276.046,-470.454 275.552,-477.436"/>
<text text-anchor="middle" x="145" y="-172" font-family="Helvetica,sans-Serif" font-size="10.00"> right_boundary</text>
<text text-anchor="middle" x="145" y="-161" font-family="Helvetica,sans-Serif" font-size="10.00">blockSize</text>
<text text-anchor="middle" x="145" y="-150" font-family="Helvetica,sans-Serif" font-size="10.00">left_boundary</text>
</g>
<!-- Node4&#45;&gt;Node14 -->
<g id="edge23" class="edge"><title>Node4&#45;&gt;Node14</title>
<path fill="none" stroke="#9a32cd" stroke-dasharray="5,2" d="M275.622,-475.333C221.184,-474.469 93.7845,-469.583 61.5,-443 11.4812,-401.815 14.5,-369.793 14.5,-305 14.5,-305 14.5,-305 14.5,-77 14.5,-54.453 30.0977,-31.7128 39.8462,-19.702"/>
<polygon fill="#9a32cd" stroke="#9a32cd" points="275.736,-478.834 285.779,-475.46 275.824,-471.835 275.736,-478.834"/>
<text text-anchor="middle" x="39" y="-166.5" font-family="Helvetica,sans-Serif" font-size="10.00"> shWindow</text>
<text text-anchor="middle" x="39" y="-155.5" font-family="Helvetica,sans-Serif" font-size="10.00">ghWindow</text>
</g>
<!-- Node5 -->
<g id="node5" class="node"><title>Node5</title>
<polygon fill="white" stroke="#bfbfbf" points="524,-467 524,-486 559,-486 559,-467 524,-467"/>
<text text-anchor="middle" x="541.5" y="-474" font-family="Helvetica,sans-Serif" font-size="10.00">float</text>
</g>
<!-- Node5&#45;&gt;Node2 -->
<g id="edge5" class="edge"><title>Node5&#45;&gt;Node2</title>
<path fill="none" stroke="#9a32cd" stroke-dasharray="5,2" d="M548.858,-457.184C550.366,-452.624 551.727,-447.695 552.5,-443 569.405,-340.322 565.831,-310.851 544.5,-209 534.538,-161.433 510.412,-107.992 500.676,-87.5633"/>
<polygon fill="#9a32cd" stroke="#9a32cd" points="545.462,-456.277 545.284,-466.871 552.029,-458.701 545.462,-456.277"/>
<text text-anchor="middle" x="577" y="-239.5" font-family="Helvetica,sans-Serif" font-size="10.00"> identities</text>
<text text-anchor="middle" x="577" y="-228.5" font-family="Helvetica,sans-Serif" font-size="10.00">overlaps</text>
</g>
<!-- Node5&#45;&gt;Node9 -->
<g id="edge12" class="edge"><title>Node5&#45;&gt;Node9</title>
<path fill="none" stroke="#9a32cd" stroke-dasharray="5,2" d="M528.025,-458.669C524.193,-453.701 520.088,-448.2 516.5,-443 487.15,-400.461 487.801,-384.344 455.5,-344 446.407,-332.643 434.237,-321.206 425.718,-313.681"/>
<polygon fill="#9a32cd" stroke="#9a32cd" points="525.527,-461.155 534.458,-466.855 531.031,-456.83 525.527,-461.155"/>
<text text-anchor="middle" x="534.5" y="-396.5" font-family="Helvetica,sans-Serif" font-size="10.00"> distMat</text>
<text text-anchor="middle" x="534.5" y="-385.5" font-family="Helvetica,sans-Serif" font-size="10.00">simMat</text>
</g>
<!-- Node6&#45;&gt;Node2 -->
<g id="edge7" class="edge"><title>Node6&#45;&gt;Node2</title>
<path fill="none" stroke="#9a32cd" stroke-dasharray="5,2" d="M376.916,-146.776C389.42,-134.685 407.957,-118.207 426.5,-107 439.831,-98.9437 455.893,-92.327 469.268,-87.5523"/>
<polygon fill="#9a32cd" stroke="#9a32cd" points="374.275,-144.465 369.63,-153.988 379.199,-149.44 374.275,-144.465"/>
<text text-anchor="middle" x="441.5" y="-110" font-family="Helvetica,sans-Serif" font-size="10.00"> scons</text>
</g>
<!-- Node7 -->
<g id="node7" class="node"><title>Node7</title>
<polygon fill="white" stroke="#bfbfbf" points="158.5,-294.5 158.5,-313.5 200.5,-313.5 200.5,-294.5 158.5,-294.5"/>
<text text-anchor="middle" x="179.5" y="-301.5" font-family="Helvetica,sans-Serif" font-size="10.00">float *</text>
</g>
<!-- Node7&#45;&gt;Node6 -->
<g id="edge8" class="edge"><title>Node7&#45;&gt;Node6</title>
<path fill="none" stroke="#9a32cd" stroke-dasharray="5,2" d="M176.002,-284.571C173.164,-263.61 172.195,-229.625 190.5,-209 213.255,-183.361 232.307,-199.562 265.5,-191 287.599,-185.3 312.432,-178.432 331.304,-173.117"/>
<polygon fill="#9a32cd" stroke="#9a32cd" points="172.55,-285.151 177.613,-294.458 179.459,-284.025 172.55,-285.151"/>
<text text-anchor="middle" x="224" y="-245" font-family="Helvetica,sans-Serif" font-size="10.00"> MDK_Window</text>
<text text-anchor="middle" x="224" y="-234" font-family="Helvetica,sans-Serif" font-size="10.00">Q</text>
<text text-anchor="middle" x="224" y="-223" font-family="Helvetica,sans-Serif" font-size="10.00">MDK</text>
</g>
<!-- Node8 -->
<g id="node8" class="node"><title>Node8</title>
<polygon fill="white" stroke="#bfbfbf" points="218.5,-294.5 218.5,-313.5 264.5,-313.5 264.5,-294.5 218.5,-294.5"/>
<text text-anchor="middle" x="241.5" y="-301.5" font-family="Helvetica,sans-Serif" font-size="10.00">float **</text>
</g>
<!-- Node8&#45;&gt;Node6 -->
<g id="edge10" class="edge"><title>Node8&#45;&gt;Node6</title>
<path fill="none" stroke="#9a32cd" stroke-dasharray="5,2" d="M250.806,-285.567C254.279,-278.879 258.182,-271.14 261.5,-264 272.665,-239.971 267.001,-228.895 284.5,-209 299.184,-192.306 321.712,-180.312 338.613,-173.014"/>
<polygon fill="#9a32cd" stroke="#9a32cd" points="247.706,-283.942 246.143,-294.421 253.9,-287.204 247.706,-283.942"/>
<text text-anchor="middle" x="316" y="-234" font-family="Helvetica,sans-Serif" font-size="10.00"> matrixIdentity</text>
</g>
<!-- Node9&#45;&gt;Node6 -->
<g id="edge11" class="edge"><title>Node9&#45;&gt;Node6</title>
<path fill="none" stroke="#9a32cd" stroke-dasharray="5,2" d="M408.336,-284.626C396.549,-254.394 373.512,-195.309 364.877,-173.161"/>
<polygon fill="#9a32cd" stroke="#9a32cd" points="405.229,-286.291 412.122,-294.336 411.75,-283.748 405.229,-286.291"/>
<text text-anchor="middle" x="423.5" y="-234" font-family="Helvetica,sans-Serif" font-size="10.00"> simMatrix</text>
</g>
<!-- Node10&#45;&gt;Node2 -->
<g id="edge14" class="edge"><title>Node10&#45;&gt;Node2</title>
<path fill="none" stroke="#9a32cd" stroke-dasharray="5,2" d="M472.436,-26.163C465.553,-32.6719 460.728,-40.6872 464.5,-49 468.099,-56.9324 475.179,-63.501 481.767,-68.2779"/>
<polygon fill="#9a32cd" stroke="#9a32cd" points="474.809,-28.7463 480.403,-19.7487 470.419,-23.2939 474.809,-28.7463"/>
<text text-anchor="middle" x="485.5" y="-41" font-family="Helvetica,sans-Serif" font-size="10.00"> Cleaning</text>
</g>
<!-- Node11 -->
<g id="node11" class="node"><title>Node11</title>
<polygon fill="white" stroke="#bfbfbf" points="795,-154 795,-173 830,-173 830,-154 795,-154"/>
<text text-anchor="middle" x="812.5" y="-161" font-family="Helvetica,sans-Serif" font-size="10.00">bool</text>
</g>
<!-- Node11&#45;&gt;Node2 -->
<g id="edge20" class="edge"><title>Node11&#45;&gt;Node2</title>
<path fill="none" stroke="#9a32cd" stroke-dasharray="5,2" d="M796.131,-146.788C781.322,-133.636 758.253,-115.669 734.5,-107 667.668,-82.6101 583.928,-78.3105 535.687,-78.1441"/>
<polygon fill="#9a32cd" stroke="#9a32cd" points="794.106,-149.68 803.838,-153.868 798.842,-144.525 794.106,-149.68"/>
<text text-anchor="middle" x="778" y="-110" font-family="Helvetica,sans-Serif" font-size="10.00"> isAligned</text>
</g>
<!-- Node11&#45;&gt;Node10 -->
<g id="edge17" class="edge"><title>Node11&#45;&gt;Node10</title>
<path fill="none" stroke="#9a32cd" stroke-dasharray="5,2" d="M813,-143.586C812.31,-131.705 809.461,-116.825 800.5,-107 725.126,-24.3514 579.447,-12.3338 520.836,-10.9628"/>
<polygon fill="#9a32cd" stroke="#9a32cd" points="809.503,-143.839 813.13,-153.794 816.503,-143.75 809.503,-143.839"/>
<text text-anchor="middle" x="817" y="-81" font-family="Helvetica,sans-Serif" font-size="10.00"> keepSequences</text>
<text text-anchor="middle" x="817" y="-70" font-family="Helvetica,sans-Serif" font-size="10.00">terminalGapOnly</text>
</g>
<!-- Node12 -->
<g id="node12" class="node"><title>Node12</title>
<g id="a_node12"><a xlink:title="STL class. ">
<polygon fill="white" stroke="#bfbfbf" points="698.5,-294.5 698.5,-313.5 758.5,-313.5 758.5,-294.5 698.5,-294.5"/>
<text text-anchor="middle" x="728.5" y="-301.5" font-family="Helvetica,sans-Serif" font-size="10.00">std::string</text>
</a>
</g>
</g>
<!-- Node12&#45;&gt;Node1 -->
<g id="edge25" class="edge"><title>Node12&#45;&gt;Node1</title>
<path fill="none" stroke="#9a32cd" stroke-dasharray="5,2" d="M700.182,-289.907C683.446,-281.671 664.403,-271.266 658.5,-264 646.806,-249.606 633.962,-194.46 629.308,-173.06"/>
<polygon fill="#9a32cd" stroke="#9a32cd" points="699.124,-293.282 709.653,-294.465 702.16,-286.974 699.124,-293.282"/>
<text text-anchor="middle" x="684" y="-234" font-family="Helvetica,sans-Serif" font-size="10.00"> seqsName</text>
</g>
<!-- Node12&#45;&gt;Node2 -->
<g id="edge18" class="edge"><title>Node12&#45;&gt;Node2</title>
<path fill="none" stroke="#9a32cd" stroke-dasharray="5,2" d="M728.368,-284.027C727.64,-239.741 723.305,-131.457 698.5,-107 676.125,-84.9392 587.667,-80.0096 535.521,-79.0607"/>
<polygon fill="#9a32cd" stroke="#9a32cd" points="724.868,-284.082 728.487,-294.039 731.867,-283.998 724.868,-284.082"/>
<text text-anchor="middle" x="749" y="-183" font-family="Helvetica,sans-Serif" font-size="10.00"> seqsName</text>
<text text-anchor="middle" x="749" y="-172" font-family="Helvetica,sans-Serif" font-size="10.00">seqsInfo</text>
<text text-anchor="middle" x="749" y="-161" font-family="Helvetica,sans-Serif" font-size="10.00">sequences</text>
<text text-anchor="middle" x="749" y="-150" font-family="Helvetica,sans-Serif" font-size="10.00">aligInfo</text>
<text text-anchor="middle" x="749" y="-139" font-family="Helvetica,sans-Serif" font-size="10.00">filename</text>
</g>
<!-- Node13 -->
<g id="node13" class="node"><title>Node13</title>
<g id="a_node13"><a xlink:title="STL class. ">
<polygon fill="white" stroke="#bfbfbf" points="681,-461.5 681,-491.5 776,-491.5 776,-461.5 681,-461.5"/>
<text text-anchor="start" x="689" y="-479.5" font-family="Helvetica,sans-Serif" font-size="10.00">std::basic_string&lt;</text>
<text text-anchor="middle" x="728.5" y="-468.5" font-family="Helvetica,sans-Serif" font-size="10.00"> char &gt;</text>
</a>
</g>
</g>
<!-- Node13&#45;&gt;Node12 -->
<g id="edge19" class="edge"><title>Node13&#45;&gt;Node12</title>
<path fill="none" stroke="midnightblue" d="M728.5,-450.9C728.5,-412.259 728.5,-339.135 728.5,-313.859"/>
<polygon fill="midnightblue" stroke="midnightblue" points="725,-451.256 728.5,-461.257 732,-451.257 725,-451.256"/>
</g>
<!-- Node14&#45;&gt;Node2 -->
<g id="edge21" class="edge"><title>Node14&#45;&gt;Node2</title>
<path fill="none" stroke="#9a32cd" stroke-dasharray="5,2" d="M89.5218,-22.093C123.122,-30.5908 171.547,-42.0086 214.5,-49 300.451,-62.9899 402.356,-71.0196 457.065,-74.6432"/>
<polygon fill="#9a32cd" stroke="#9a32cd" points="90.1476,-18.6406 79.5926,-19.5576 88.4157,-25.423 90.1476,-18.6406"/>
<text text-anchor="middle" x="237" y="-41" font-family="Helvetica,sans-Serif" font-size="10.00"> Statistics</text>
</g>
</g>
</svg>
