<?xml version="1.0" encoding="UTF-8" standalone="no"?>
<!DOCTYPE svg PUBLIC "-//W3C//DTD SVG 1.1//EN"
 "http://www.w3.org/Graphics/SVG/1.1/DTD/svg11.dtd">
<!-- Generated by graphviz version 2.38.0 (20140413.2041)
 -->
<!-- Title: Cleaner::cleanByCutValueFallBehind Pages: 1 -->
<svg width="801pt" height="66pt"
 viewBox="0.00 0.00 801.00 66.00" xmlns="http://www.w3.org/2000/svg" xmlns:xlink="http://www.w3.org/1999/xlink">
<g id="graph0" class="graph" transform="scale(1 1) rotate(0) translate(4 62)">
<title>Cleaner::cleanByCutValueFallBehind</title>
<polygon fill="white" stroke="none" points="-4,4 -4,-62 797,-62 797,4 -4,4"/>
<!-- Node58 -->
<g id="node1" class="node"><title>Node58</title>
<polygon fill="#bfbfbf" stroke="black" points="0,-14 0,-44 132,-44 132,-14 0,-14"/>
<text text-anchor="start" x="8" y="-32" font-family="Helvetica,sans-Serif" font-size="10.00">Cleaner::cleanByCutValue</text>
<text text-anchor="middle" x="66" y="-21" font-family="Helvetica,sans-Serif" font-size="10.00">FallBehind</text>
</g>
<!-- Node59 -->
<g id="node2" class="node"><title>Node59</title>
<g id="a_node2"><a xlink:href="class_cleaner.html#ae2328fe8c189e2827b46e5dfb8e3deb3" target="_top" xlink:title="Method to trim an alignment based on consistency values obtained from a dataset of alignments...">
<polygon fill="white" stroke="black" points="169,-38.5 169,-57.5 304,-57.5 304,-38.5 169,-38.5"/>
<text text-anchor="middle" x="236.5" y="-45.5" font-family="Helvetica,sans-Serif" font-size="10.00">Cleaner::cleanCompareFile</text>
</a>
</g>
</g>
<!-- Node58&#45;&gt;Node59 -->
<g id="edge1" class="edge"><title>Node58&#45;&gt;Node59</title>
<path fill="none" stroke="midnightblue" d="M142.124,-37.471C151.032,-38.4754 160.078,-39.4955 168.857,-40.4854"/>
<polygon fill="midnightblue" stroke="midnightblue" points="142.476,-33.9885 132.146,-36.3459 141.691,-40.9444 142.476,-33.9885"/>
</g>
<!-- Node63 -->
<g id="node6" class="node"><title>Node63</title>
<g id="a_node6"><a xlink:href="class_cleaner.html#a694d53fdd5d1ac9455858e48537af3d0" target="_top" xlink:title="Method to trim an alignment based on the similarity distribution values. ">
<polygon fill="white" stroke="black" points="168,-0.5 168,-19.5 305,-19.5 305,-0.5 168,-0.5"/>
<text text-anchor="middle" x="236.5" y="-7.5" font-family="Helvetica,sans-Serif" font-size="10.00">Cleaner::cleanConservation</text>
</a>
</g>
</g>
<!-- Node58&#45;&gt;Node63 -->
<g id="edge5" class="edge"><title>Node58&#45;&gt;Node63</title>
<path fill="none" stroke="midnightblue" d="M142.093,-20.5325C150.634,-19.5695 159.302,-18.5921 167.74,-17.6406"/>
<polygon fill="midnightblue" stroke="midnightblue" points="141.691,-17.0556 132.146,-21.6541 142.476,-24.0115 141.691,-17.0556"/>
</g>
<!-- Node60 -->
<g id="node3" class="node"><title>Node60</title>
<g id="a_node3"><a xlink:href="classtrim_al_manager.html#aebfd21b0435302f0e4fc45a068d1b6ee" target="_top" xlink:title="Method to trim the alignment using non automatic methods: ">
<polygon fill="white" stroke="black" points="341,-14 341,-44 493,-44 493,-14 341,-14"/>
<text text-anchor="start" x="349" y="-32" font-family="Helvetica,sans-Serif" font-size="10.00">trimAlManager::CleanResidues</text>
<text text-anchor="middle" x="417" y="-21" font-family="Helvetica,sans-Serif" font-size="10.00">NonAuto</text>
</a>
</g>
</g>
<!-- Node59&#45;&gt;Node60 -->
<g id="edge2" class="edge"><title>Node59&#45;&gt;Node60</title>
<path fill="none" stroke="midnightblue" d="M314.447,-39.8096C323.24,-38.8736 332.195,-37.9204 340.962,-36.9872"/>
<polygon fill="midnightblue" stroke="midnightblue" points="313.794,-36.3592 304.221,-40.8981 314.535,-43.3199 313.794,-36.3592"/>
</g>
<!-- Node61 -->
<g id="node4" class="node"><title>Node61</title>
<g id="a_node4"><a xlink:href="classtrim_al_manager.html#adc529dd893ed4e9df6f3ddbd58776068" target="_top" xlink:title="Core Method of the program. This is where almost all cleaning methods are called from. ">
<polygon fill="white" stroke="black" points="529,-14 529,-44 638,-44 638,-14 529,-14"/>
<text text-anchor="start" x="537" y="-32" font-family="Helvetica,sans-Serif" font-size="10.00">trimAlManager::clean</text>
<text text-anchor="middle" x="583.5" y="-21" font-family="Helvetica,sans-Serif" font-size="10.00">_alignment</text>
</a>
</g>
</g>
<!-- Node60&#45;&gt;Node61 -->
<g id="edge3" class="edge"><title>Node60&#45;&gt;Node61</title>
<path fill="none" stroke="midnightblue" d="M503.208,-29C511.881,-29 520.511,-29 528.709,-29"/>
<polygon fill="midnightblue" stroke="midnightblue" points="503.029,-25.5001 493.029,-29 503.029,-32.5001 503.029,-25.5001"/>
</g>
<!-- Node62 -->
<g id="node5" class="node"><title>Node62</title>
<g id="a_node5"><a xlink:href="classtrim_al_manager.html#abe8d2841455c644dc9c7d1294b82b00f" target="_top" xlink:title="Method to perform the analysis if all checks have passed. ">
<polygon fill="white" stroke="black" points="674,-19.5 674,-38.5 793,-38.5 793,-19.5 674,-19.5"/>
<text text-anchor="middle" x="733.5" y="-26.5" font-family="Helvetica,sans-Serif" font-size="10.00">trimAlManager::perform</text>
</a>
</g>
</g>
<!-- Node61&#45;&gt;Node62 -->
<g id="edge4" class="edge"><title>Node61&#45;&gt;Node62</title>
<path fill="none" stroke="midnightblue" d="M648.532,-29C656.977,-29 665.597,-29 673.943,-29"/>
<polygon fill="midnightblue" stroke="midnightblue" points="648.35,-25.5001 638.35,-29 648.35,-32.5001 648.35,-25.5001"/>
</g>
<!-- Node63&#45;&gt;Node60 -->
<g id="edge6" class="edge"><title>Node63&#45;&gt;Node60</title>
<path fill="none" stroke="midnightblue" d="M315.439,-18.2961C323.875,-19.194 332.449,-20.1066 340.851,-21.0009"/>
<polygon fill="midnightblue" stroke="midnightblue" points="315.552,-14.7884 305.238,-17.2102 314.811,-21.7491 315.552,-14.7884"/>
</g>
</g>
</svg>
