<?xml version="1.0" encoding="UTF-8" standalone="no"?>
<!DOCTYPE svg PUBLIC "-//W3C//DTD SVG 1.1//EN"
 "http://www.w3.org/Graphics/SVG/1.1/DTD/svg11.dtd">
<!-- Generated by graphviz version 2.38.0 (20140413.2041)
 -->
<!-- Title: Cleaner::clean2ndSlope Pages: 1 -->
<svg width="611pt" height="317pt"
 viewBox="0.00 0.00 611.00 317.00" xmlns="http://www.w3.org/2000/svg" xmlns:xlink="http://www.w3.org/1999/xlink">
<g id="graph0" class="graph" transform="scale(1 1) rotate(0) translate(4 313)">
<title>Cleaner::clean2ndSlope</title>
<polygon fill="white" stroke="none" points="-4,4 -4,-313 607,-313 607,4 -4,4"/>
<!-- Node25 -->
<g id="node1" class="node"><title>Node25</title>
<polygon fill="#bfbfbf" stroke="black" points="0,-156.5 0,-175.5 120,-175.5 120,-156.5 0,-156.5"/>
<text text-anchor="middle" x="60" y="-163.5" font-family="Helvetica,sans-Serif" font-size="10.00">Cleaner::clean2ndSlope</text>
</g>
<!-- Node26 -->
<g id="node2" class="node"><title>Node26</title>
<g id="a_node2"><a xlink:href="class_cleaner.html#ad075f0ef730c8023cf8a0e35e7e1e53a" target="_top" xlink:title="Method to clean an alignment. &#160;It removes sequences that overpass or equals a certain threshold...">
<polygon fill="white" stroke="black" points="156,-156.5 156,-175.5 288,-175.5 288,-156.5 156,-156.5"/>
<text text-anchor="middle" x="222" y="-163.5" font-family="Helvetica,sans-Serif" font-size="10.00">Cleaner::cleanByCutValue</text>
</a>
</g>
</g>
<!-- Node25&#45;&gt;Node26 -->
<g id="edge1" class="edge"><title>Node25&#45;&gt;Node26</title>
<path fill="none" stroke="midnightblue" d="M120.124,-166C128.505,-166 137.216,-166 145.851,-166"/>
<polygon fill="midnightblue" stroke="midnightblue" points="145.928,-169.5 155.928,-166 145.928,-162.5 145.928,-169.5"/>
</g>
<!-- Node27 -->
<g id="node3" class="node"><title>Node27</title>
<g id="a_node3"><a xlink:href="classutils.html#ad50731aeb3c8f79ed8372516210dfc9d" target="_top" xlink:title="Round double to integer method. ">
<polygon fill="white" stroke="black" points="375.5,-289.5 375.5,-308.5 451.5,-308.5 451.5,-289.5 375.5,-289.5"/>
<text text-anchor="middle" x="413.5" y="-296.5" font-family="Helvetica,sans-Serif" font-size="10.00">utils::roundInt</text>
</a>
</g>
</g>
<!-- Node26&#45;&gt;Node27 -->
<g id="edge2" class="edge"><title>Node26&#45;&gt;Node27</title>
<path fill="none" stroke="midnightblue" d="M228.628,-175.813C242.017,-198.204 278.107,-253.194 324,-280 336.448,-287.271 351.339,-291.77 365.323,-294.551"/>
<polygon fill="midnightblue" stroke="midnightblue" points="364.846,-298.021 375.298,-296.288 366.046,-291.124 364.846,-298.021"/>
</g>
<!-- Node28 -->
<g id="node4" class="node"><title>Node28</title>
<g id="a_node4"><a xlink:href="classutils.html#a42f272221edf7752ffda49e4212ef653" target="_top" xlink:title="Integer vector copying. ">
<polygon fill="white" stroke="black" points="372.5,-251.5 372.5,-270.5 454.5,-270.5 454.5,-251.5 372.5,-251.5"/>
<text text-anchor="middle" x="413.5" y="-258.5" font-family="Helvetica,sans-Serif" font-size="10.00">utils::copyVect</text>
</a>
</g>
</g>
<!-- Node26&#45;&gt;Node28 -->
<g id="edge3" class="edge"><title>Node26&#45;&gt;Node28</title>
<path fill="none" stroke="midnightblue" d="M232.649,-175.611C249.593,-191.91 286.471,-224.866 324,-242 335.844,-247.407 349.291,-251.305 362.063,-254.103"/>
<polygon fill="midnightblue" stroke="midnightblue" points="361.625,-257.585 372.118,-256.12 363.002,-250.721 361.625,-257.585"/>
</g>
<!-- Node29 -->
<g id="node5" class="node"><title>Node29</title>
<g id="a_node5"><a xlink:href="classutils.html#a73f038c379c13d23e3220afaa14f9983" target="_top" xlink:title="Quicksort sorting method. ">
<polygon fill="white" stroke="black" points="373.5,-213.5 373.5,-232.5 453.5,-232.5 453.5,-213.5 373.5,-213.5"/>
<text text-anchor="middle" x="413.5" y="-220.5" font-family="Helvetica,sans-Serif" font-size="10.00">utils::quicksort</text>
</a>
</g>
</g>
<!-- Node26&#45;&gt;Node29 -->
<g id="edge4" class="edge"><title>Node26&#45;&gt;Node29</title>
<path fill="none" stroke="midnightblue" d="M245.537,-175.582C265.793,-183.927 296.498,-195.923 324,-204 336.611,-207.704 350.429,-211.016 363.318,-213.796"/>
<polygon fill="midnightblue" stroke="midnightblue" points="362.911,-217.287 373.416,-215.91 364.345,-210.435 362.911,-217.287"/>
</g>
<!-- Node31 -->
<g id="node7" class="node"><title>Node31</title>
<g id="a_node7"><a xlink:href="class_cleaner.html#a033da9ea63774f43f4c7aff04f23da81" target="_top" xlink:title="Method to detect right and left borders. Borders are the first column found with no gaps...">
<polygon fill="white" stroke="black" points="340.5,-175.5 340.5,-194.5 486.5,-194.5 486.5,-175.5 340.5,-175.5"/>
<text text-anchor="middle" x="413.5" y="-182.5" font-family="Helvetica,sans-Serif" font-size="10.00">Cleaner::removeOnlyTerminal</text>
</a>
</g>
</g>
<!-- Node26&#45;&gt;Node31 -->
<g id="edge6" class="edge"><title>Node26&#45;&gt;Node31</title>
<path fill="none" stroke="midnightblue" d="M288.215,-172.539C301.741,-173.895 316.159,-175.34 330.205,-176.749"/>
<polygon fill="midnightblue" stroke="midnightblue" points="330.05,-180.251 340.349,-177.766 330.748,-173.286 330.05,-180.251"/>
</g>
<!-- Node32 -->
<g id="node8" class="node"><title>Node32</title>
<g id="a_node8"><a xlink:href="class_cleaner.html#a24bd28e4191afc9471adff329bee1466" target="_top" xlink:title="Method for computing the complementary alignment. Complementary Alignment is an alignment containing ...">
<polygon fill="white" stroke="black" points="324,-137.5 324,-156.5 503,-156.5 503,-137.5 324,-137.5"/>
<text text-anchor="middle" x="413.5" y="-144.5" font-family="Helvetica,sans-Serif" font-size="10.00">Cleaner::computeComplementaryAlig</text>
</a>
</g>
</g>
<!-- Node26&#45;&gt;Node32 -->
<g id="edge7" class="edge"><title>Node26&#45;&gt;Node32</title>
<path fill="none" stroke="midnightblue" d="M288.215,-159.461C296.449,-158.636 305.013,-157.777 313.623,-156.914"/>
<polygon fill="midnightblue" stroke="midnightblue" points="314.133,-160.38 323.734,-155.9 313.435,-153.415 314.133,-160.38"/>
</g>
<!-- Node33 -->
<g id="node9" class="node"><title>Node33</title>
<g id="a_node9"><a xlink:href="class_cleaner.html#a2f7d85e29f23f880a7ad7e28863b36c3" target="_top" xlink:title="Method that identifies and removes columns and sequences composed only by gaps. ">
<polygon fill="white" stroke="black" points="359,-88 359,-118 468,-118 468,-88 359,-88"/>
<text text-anchor="start" x="367" y="-106" font-family="Helvetica,sans-Serif" font-size="10.00">Cleaner::removeCols</text>
<text text-anchor="middle" x="413.5" y="-95" font-family="Helvetica,sans-Serif" font-size="10.00">_SeqsAllGaps</text>
</a>
</g>
</g>
<!-- Node26&#45;&gt;Node33 -->
<g id="edge8" class="edge"><title>Node26&#45;&gt;Node33</title>
<path fill="none" stroke="midnightblue" d="M246.877,-156.364C267.216,-148.313 297.303,-136.775 324,-128 332.067,-125.348 340.602,-122.719 349.063,-120.218"/>
<polygon fill="midnightblue" stroke="midnightblue" points="350.305,-123.502 358.928,-117.347 348.348,-116.781 350.305,-123.502"/>
</g>
<!-- Node34 -->
<g id="node10" class="node"><title>Node34</title>
<g id="a_node10"><a xlink:href="classnew_alignment.html#a3de39c62c08a265178f1fa7df76c3ab7" target="_top" xlink:title="Method that copies information of the alignment to the pointers given. ">
<polygon fill="white" stroke="black" points="346,-39 346,-69 481,-69 481,-39 346,-39"/>
<text text-anchor="start" x="354" y="-57" font-family="Helvetica,sans-Serif" font-size="10.00">newAlignment::fillNewData</text>
<text text-anchor="middle" x="413.5" y="-46" font-family="Helvetica,sans-Serif" font-size="10.00">Structure</text>
</a>
</g>
</g>
<!-- Node26&#45;&gt;Node34 -->
<g id="edge9" class="edge"><title>Node26&#45;&gt;Node34</title>
<path fill="none" stroke="midnightblue" d="M231.443,-156.351C247.618,-138.456 284.861,-100.037 324,-79 328.258,-76.7111 332.748,-74.6139 337.354,-72.695"/>
<polygon fill="midnightblue" stroke="midnightblue" points="338.863,-75.8645 346.935,-69.0026 336.346,-69.3327 338.863,-75.8645"/>
</g>
<!-- Node35 -->
<g id="node11" class="node"><title>Node35</title>
<g id="a_node11"><a xlink:href="classnew_alignment.html#acbeb320f0f70222f81a906ccfc33a016" target="_top" xlink:title="Method to intialize data that has been modified on the alignment. The method checks if the sequences ...">
<polygon fill="white" stroke="black" points="348,-0.5 348,-19.5 479,-19.5 479,-0.5 348,-0.5"/>
<text text-anchor="middle" x="413.5" y="-7.5" font-family="Helvetica,sans-Serif" font-size="10.00">newAlignment::fillMatrices</text>
</a>
</g>
</g>
<!-- Node26&#45;&gt;Node35 -->
<g id="edge10" class="edge"><title>Node26&#45;&gt;Node35</title>
<path fill="none" stroke="midnightblue" d="M227.243,-156.246C238.768,-130.976 273.228,-63.0566 324,-30 328.424,-27.1194 333.207,-24.6503 338.178,-22.5343"/>
<polygon fill="midnightblue" stroke="midnightblue" points="339.789,-25.6687 347.927,-18.8848 337.335,-19.113 339.789,-25.6687"/>
</g>
<!-- Node30 -->
<g id="node6" class="node"><title>Node30</title>
<g id="a_node6"><a xlink:href="classutils.html#a3377ecde55631d1bbc4956e5923b7469" target="_top" xlink:title="Swapping elements method. ">
<polygon fill="white" stroke="black" points="539,-213.5 539,-232.5 603,-232.5 603,-213.5 539,-213.5"/>
<text text-anchor="middle" x="571" y="-220.5" font-family="Helvetica,sans-Serif" font-size="10.00">utils::swap</text>
</a>
</g>
</g>
<!-- Node29&#45;&gt;Node30 -->
<g id="edge5" class="edge"><title>Node29&#45;&gt;Node30</title>
<path fill="none" stroke="midnightblue" d="M453.739,-223C476.6,-223 505.403,-223 528.62,-223"/>
<polygon fill="midnightblue" stroke="midnightblue" points="528.854,-226.5 538.854,-223 528.853,-219.5 528.854,-226.5"/>
</g>
</g>
</svg>
