<?xml version="1.0" encoding="UTF-8" standalone="no"?>
<!DOCTYPE svg PUBLIC "-//W3C//DTD SVG 1.1//EN"
 "http://www.w3.org/Graphics/SVG/1.1/DTD/svg11.dtd">
<!-- Generated by graphviz version 2.40.1 (20161225.0304)
 -->
<!-- Title: trimAlManager::create_or_use_similarity_matrix Pages: 1 -->
<svg width="669pt" height="421pt"
 viewBox="0.00 0.00 669.00 420.50" xmlns="http://www.w3.org/2000/svg" xmlns:xlink="http://www.w3.org/1999/xlink">
<g id="graph0" class="graph" transform="scale(1 1) rotate(0) translate(4 416.5)">
<title>trimAlManager::create_or_use_similarity_matrix</title>
<polygon fill="#ffffff" stroke="transparent" points="-4,4 -4,-416.5 665,-416.5 665,4 -4,4"/>
<!-- Node566 -->
<g id="node1" class="node">
<title>Node566</title>
<polygon fill="#bfbfbf" stroke="#000000" points="0,-196.5 0,-226.5 128,-226.5 128,-196.5 0,-196.5"/>
<text text-anchor="start" x="8" y="-214.5" font-family="Helvetica,sans-Serif" font-size="10.00" fill="#000000">trimAlManager::create</text>
<text text-anchor="middle" x="64" y="-203.5" font-family="Helvetica,sans-Serif" font-size="10.00" fill="#000000">_or_use_similarity_matrix</text>
</g>
<!-- Node567 -->
<g id="node2" class="node">
<title>Node567</title>
<g id="a_node2"><a xlink:href="classstatistics_1_1similarity_matrix.html#a2788d7d1bb700b9e59d654fb24f6172c" target="_top" xlink:title="Method to load alternative similarity matrices also included on the suite. Currently, only one type of alternative matrix is available: &#160;matrix_code: 1 datatype SequenceTypes::AA. ">
<polygon fill="#ffffff" stroke="#000000" points="173.5,-343.5 173.5,-373.5 319.5,-373.5 319.5,-343.5 173.5,-343.5"/>
<text text-anchor="start" x="181.5" y="-361.5" font-family="Helvetica,sans-Serif" font-size="10.00" fill="#000000">statistics::similarityMatrix</text>
<text text-anchor="middle" x="246.5" y="-350.5" font-family="Helvetica,sans-Serif" font-size="10.00" fill="#000000">::alternativeSimilarityMatrices</text>
</a>
</g>
</g>
<!-- Node566&#45;&gt;Node567 -->
<g id="edge1" class="edge">
<title>Node566&#45;&gt;Node567</title>
<path fill="none" stroke="#191970" d="M72.2919,-226.8716C87.163,-252.9726 120.8822,-305.9021 164,-334.5 166.4473,-336.1232 169.0062,-337.6387 171.6449,-339.0534"/>
<polygon fill="#191970" stroke="#191970" points="170.3486,-342.3135 180.8784,-343.4854 173.3777,-336.0028 170.3486,-342.3135"/>
</g>
<!-- Node570 -->
<g id="node5" class="node">
<title>Node570</title>
<g id="a_node5"><a xlink:href="classstatistics_1_1similarity_matrix.html#a6d239debb5982c5cef97308403f658b7" target="_top" xlink:title="Method to load the default AA similarity matrix. ">
<polygon fill="#ffffff" stroke="#000000" points="182.5,-294.5 182.5,-324.5 310.5,-324.5 310.5,-294.5 182.5,-294.5"/>
<text text-anchor="start" x="190.5" y="-312.5" font-family="Helvetica,sans-Serif" font-size="10.00" fill="#000000">statistics::similarityMatrix</text>
<text text-anchor="middle" x="246.5" y="-301.5" font-family="Helvetica,sans-Serif" font-size="10.00" fill="#000000">::defaultAASimMatrix</text>
</a>
</g>
</g>
<!-- Node566&#45;&gt;Node570 -->
<g id="edge4" class="edge">
<title>Node566&#45;&gt;Node570</title>
<path fill="none" stroke="#191970" d="M80.4773,-226.6048C99.3656,-243.192 131.8759,-269.5808 164,-285.5 167.8342,-287.4001 171.8452,-289.1757 175.945,-290.8309"/>
<polygon fill="#191970" stroke="#191970" points="175.0394,-294.2296 185.6314,-294.4763 177.505,-287.6782 175.0394,-294.2296"/>
</g>
<!-- Node571 -->
<g id="node6" class="node">
<title>Node571</title>
<g id="a_node6"><a xlink:href="classstatistics_1_1similarity_matrix.html#abcee67b7f79ef0975ca006647198f5d7" target="_top" xlink:title="Method to load the default DEG NT similarity matrix. ">
<polygon fill="#ffffff" stroke="#000000" points="164,-245.5 164,-275.5 329,-275.5 329,-245.5 164,-245.5"/>
<text text-anchor="start" x="172" y="-263.5" font-family="Helvetica,sans-Serif" font-size="10.00" fill="#000000">statistics::similarityMatrix</text>
<text text-anchor="middle" x="246.5" y="-252.5" font-family="Helvetica,sans-Serif" font-size="10.00" fill="#000000">::defaultNTDegeneratedSimMatrix</text>
</a>
</g>
</g>
<!-- Node566&#45;&gt;Node571 -->
<g id="edge6" class="edge">
<title>Node566&#45;&gt;Node571</title>
<path fill="none" stroke="#191970" d="M120.2452,-226.6014C139.3289,-231.7253 160.8203,-237.4956 180.5885,-242.8032"/>
<polygon fill="#191970" stroke="#191970" points="179.875,-246.2355 190.4406,-245.4484 181.6902,-239.475 179.875,-246.2355"/>
</g>
<!-- Node572 -->
<g id="node7" class="node">
<title>Node572</title>
<g id="a_node7"><a xlink:href="classstatistics_1_1similarity_matrix.html#a72f692ab289725eef0702bfd7e93a38a" target="_top" xlink:title="Method to load the default NT similarity matrix. ">
<polygon fill="#ffffff" stroke="#000000" points="182.5,-196.5 182.5,-226.5 310.5,-226.5 310.5,-196.5 182.5,-196.5"/>
<text text-anchor="start" x="190.5" y="-214.5" font-family="Helvetica,sans-Serif" font-size="10.00" fill="#000000">statistics::similarityMatrix</text>
<text text-anchor="middle" x="246.5" y="-203.5" font-family="Helvetica,sans-Serif" font-size="10.00" fill="#000000">::defaultNTSimMatrix</text>
</a>
</g>
</g>
<!-- Node566&#45;&gt;Node572 -->
<g id="edge8" class="edge">
<title>Node566&#45;&gt;Node572</title>
<path fill="none" stroke="#191970" d="M128.0861,-211.5C142.3558,-211.5 157.6007,-211.5 172.2407,-211.5"/>
<polygon fill="#191970" stroke="#191970" points="172.2601,-215.0001 182.2601,-211.5 172.2601,-208.0001 172.2601,-215.0001"/>
</g>
<!-- Node573 -->
<g id="node8" class="node">
<title>Node573</title>
<g id="a_node8"><a xlink:href="class_alignment.html#a3f8f2eafd37c9b5bc275b9889a2de96a" target="_top" xlink:title="Alignment type getter. &#160;&#160;See SequenceTypes. ">
<polygon fill="#ffffff" stroke="#000000" points="174,-393 174,-412 319,-412 319,-393 174,-393"/>
<text text-anchor="middle" x="246.5" y="-400" font-family="Helvetica,sans-Serif" font-size="10.00" fill="#000000">Alignment::getAlignmentType</text>
</a>
</g>
</g>
<!-- Node566&#45;&gt;Node573 -->
<g id="edge10" class="edge">
<title>Node566&#45;&gt;Node573</title>
<path fill="none" stroke="#191970" d="M68.2795,-226.7059C78.6374,-260.5852 108.3945,-342.5073 164,-383.5 166.5214,-385.3588 169.1947,-387.0397 171.9773,-388.5596"/>
<polygon fill="#191970" stroke="#191970" points="170.6441,-391.8003 181.1832,-392.886 173.6215,-385.465 170.6441,-391.8003"/>
</g>
<!-- Node576 -->
<g id="node11" class="node">
<title>Node576</title>
<g id="a_node11"><a xlink:href="classstatistics_1_1similarity_matrix.html#a8d3f892581b552e6e5321ce1ff073624" target="_top" xlink:title="Method to load a custom matrix. ">
<polygon fill="#ffffff" stroke="#000000" points="182.5,-147.5 182.5,-177.5 310.5,-177.5 310.5,-147.5 182.5,-147.5"/>
<text text-anchor="start" x="190.5" y="-165.5" font-family="Helvetica,sans-Serif" font-size="10.00" fill="#000000">statistics::similarityMatrix</text>
<text text-anchor="middle" x="246.5" y="-154.5" font-family="Helvetica,sans-Serif" font-size="10.00" fill="#000000">::loadSimMatrix</text>
</a>
</g>
</g>
<!-- Node566&#45;&gt;Node576 -->
<g id="edge13" class="edge">
<title>Node566&#45;&gt;Node576</title>
<path fill="none" stroke="#191970" d="M120.2452,-196.3986C139.3289,-191.2747 160.8203,-185.5044 180.5885,-180.1968"/>
<polygon fill="#191970" stroke="#191970" points="181.6902,-183.525 190.4406,-177.5516 179.875,-176.7645 181.6902,-183.525"/>
</g>
<!-- Node579 -->
<g id="node14" class="node">
<title>Node579</title>
<g id="a_node14"><a xlink:href="classreporting_1_1report_manager.html#a6d122e673144584e0869bd33b8a5c1c6" target="_top" xlink:title="Method to report an Error. &#160;It will be displayed if Level &#160;is equal or higher to VerboseLevel::ERROR...">
<polygon fill="#ffffff" stroke="#000000" points="185.5,-98.5 185.5,-128.5 307.5,-128.5 307.5,-98.5 185.5,-98.5"/>
<text text-anchor="start" x="193.5" y="-116.5" font-family="Helvetica,sans-Serif" font-size="10.00" fill="#000000">reporting::reportManager</text>
<text text-anchor="middle" x="246.5" y="-105.5" font-family="Helvetica,sans-Serif" font-size="10.00" fill="#000000">::report</text>
</a>
</g>
</g>
<!-- Node566&#45;&gt;Node579 -->
<g id="edge18" class="edge">
<title>Node566&#45;&gt;Node579</title>
<path fill="none" stroke="#191970" d="M80.8916,-196.383C99.8915,-180.0739 132.2581,-154.3217 164,-138.5 168.5708,-136.2217 173.389,-134.1065 178.3074,-132.1515"/>
<polygon fill="#191970" stroke="#191970" points="179.7064,-135.3653 187.8506,-128.5886 177.258,-128.8074 179.7064,-135.3653"/>
</g>
<!-- Node580 -->
<g id="node15" class="node">
<title>Node580</title>
<g id="a_node15"><a xlink:href="classstatistics_1_1_manager.html#abe227502738f56029822a2387fcd38bb" target="_top" xlink:title="Method to set a similarity matrix. ">
<polygon fill="#ffffff" stroke="#000000" points="194.5,-49.5 194.5,-79.5 298.5,-79.5 298.5,-49.5 194.5,-49.5"/>
<text text-anchor="start" x="202.5" y="-67.5" font-family="Helvetica,sans-Serif" font-size="10.00" fill="#000000">statistics::Manager</text>
<text text-anchor="middle" x="246.5" y="-56.5" font-family="Helvetica,sans-Serif" font-size="10.00" fill="#000000">::setSimilarityMatrix</text>
</a>
</g>
</g>
<!-- Node566&#45;&gt;Node580 -->
<g id="edge19" class="edge">
<title>Node566&#45;&gt;Node580</title>
<path fill="none" stroke="#191970" d="M72.3581,-196.3053C87.3291,-170.4951 121.1948,-118.1112 164,-89.5 170.2446,-85.3261 177.2115,-81.8279 184.3776,-78.9008"/>
<polygon fill="#191970" stroke="#191970" points="186.0621,-82.0093 194.2237,-75.2537 183.6306,-75.4452 186.0621,-82.0093"/>
</g>
<!-- Node584 -->
<g id="node19" class="node">
<title>Node584</title>
<g id="a_node19"><a xlink:href="classstatistics_1_1similarity_matrix.html#a2c3db8ea6c81a9898b393e325a154a99" target="_top" xlink:title="Constructor. ">
<polygon fill="#ffffff" stroke="#000000" points="182.5,-.5 182.5,-30.5 310.5,-30.5 310.5,-.5 182.5,-.5"/>
<text text-anchor="start" x="190.5" y="-18.5" font-family="Helvetica,sans-Serif" font-size="10.00" fill="#000000">statistics::similarityMatrix</text>
<text text-anchor="middle" x="246.5" y="-7.5" font-family="Helvetica,sans-Serif" font-size="10.00" fill="#000000">::similarityMatrix</text>
</a>
</g>
</g>
<!-- Node566&#45;&gt;Node584 -->
<g id="edge23" class="edge">
<title>Node566&#45;&gt;Node584</title>
<path fill="none" stroke="#191970" d="M68.5303,-196.2666C79.3082,-162.6927 109.7157,-81.9472 164,-39.5 166.934,-37.2058 170.0805,-35.1308 173.3701,-33.254"/>
<polygon fill="#191970" stroke="#191970" points="175.0003,-36.352 182.3646,-28.735 171.8577,-30.0971 175.0003,-36.352"/>
</g>
<!-- Node568 -->
<g id="node3" class="node">
<title>Node568</title>
<g id="a_node3"><a xlink:href="classstatistics_1_1similarity_matrix.html#a46d6657734fa07a8c7ee3bbee8145c2c" target="_top" xlink:title="Method to allocate memory for the similiarity matrix. ">
<polygon fill="#ffffff" stroke="#000000" points="367,-237.5 367,-267.5 495,-267.5 495,-237.5 367,-237.5"/>
<text text-anchor="start" x="375" y="-255.5" font-family="Helvetica,sans-Serif" font-size="10.00" fill="#000000">statistics::similarityMatrix</text>
<text text-anchor="middle" x="431" y="-244.5" font-family="Helvetica,sans-Serif" font-size="10.00" fill="#000000">::memoryAllocation</text>
</a>
</g>
</g>
<!-- Node567&#45;&gt;Node568 -->
<g id="edge2" class="edge">
<title>Node567&#45;&gt;Node568</title>
<path fill="none" stroke="#191970" d="M308.3737,-343.423C315.4936,-340.8388 322.5172,-337.8759 329,-334.5 359.2876,-318.7276 389.1685,-293.2121 408.6811,-274.8296"/>
<polygon fill="#191970" stroke="#191970" points="411.3377,-277.1311 416.1298,-267.6819 406.4911,-272.0803 411.3377,-277.1311"/>
</g>
<!-- Node569 -->
<g id="node4" class="node">
<title>Node569</title>
<g id="a_node4"><a xlink:href="classstatistics_1_1similarity_matrix.html#a3f33f4b18bb1da1887ba666c74bf9a47" target="_top" xlink:title="Method to deallocate memory allocated on the similarityMatrix::memoryAllocation method. It makes use of the numPositions to effectively remove the memory. ">
<polygon fill="#ffffff" stroke="#000000" points="533,-196.5 533,-226.5 661,-226.5 661,-196.5 533,-196.5"/>
<text text-anchor="start" x="541" y="-214.5" font-family="Helvetica,sans-Serif" font-size="10.00" fill="#000000">statistics::similarityMatrix</text>
<text text-anchor="middle" x="597" y="-203.5" font-family="Helvetica,sans-Serif" font-size="10.00" fill="#000000">::memoryDeletion</text>
</a>
</g>
</g>
<!-- Node568&#45;&gt;Node569 -->
<g id="edge3" class="edge">
<title>Node568&#45;&gt;Node569</title>
<path fill="none" stroke="#191970" d="M491.8697,-237.4659C503.0342,-234.7084 514.7751,-231.8086 526.2006,-228.9866"/>
<polygon fill="#191970" stroke="#191970" points="527.2687,-232.3281 536.1377,-226.5323 525.5901,-225.5323 527.2687,-232.3281"/>
</g>
<!-- Node570&#45;&gt;Node568 -->
<g id="edge5" class="edge">
<title>Node570&#45;&gt;Node568</title>
<path fill="none" stroke="#191970" d="M298.9418,-294.4989C308.9377,-291.5675 319.3037,-288.4782 329,-285.5 344.1786,-280.838 360.5684,-275.6183 375.6764,-270.7305"/>
<polygon fill="#191970" stroke="#191970" points="376.9634,-273.9926 385.3939,-267.5756 374.8018,-267.3347 376.9634,-273.9926"/>
</g>
<!-- Node571&#45;&gt;Node568 -->
<g id="edge7" class="edge">
<title>Node571&#45;&gt;Node568</title>
<path fill="none" stroke="#191970" d="M329.0365,-256.9212C338.2383,-256.5222 347.5704,-256.1175 356.6612,-255.7234"/>
<polygon fill="#191970" stroke="#191970" points="356.9637,-259.2136 366.8027,-255.2836 356.6604,-252.2202 356.9637,-259.2136"/>
</g>
<!-- Node572&#45;&gt;Node568 -->
<g id="edge9" class="edge">
<title>Node572&#45;&gt;Node568</title>
<path fill="none" stroke="#191970" d="M310.5114,-225.7247C325.4523,-229.0449 341.4869,-232.6082 356.8273,-236.0172"/>
<polygon fill="#191970" stroke="#191970" points="356.2684,-239.4783 366.7895,-238.231 357.7869,-232.645 356.2684,-239.4783"/>
</g>
<!-- Node574 -->
<g id="node9" class="node">
<title>Node574</title>
<g id="a_node9"><a xlink:href="namespaceutils.html#aab52f9515717f06cafd6ab7fe2ebdcef" target="_top" xlink:title="Checks an alignment type. ">
<polygon fill="#ffffff" stroke="#000000" points="365,-393 365,-412 497,-412 497,-393 365,-393"/>
<text text-anchor="middle" x="431" y="-400" font-family="Helvetica,sans-Serif" font-size="10.00" fill="#000000">utils::checkAlignmentType</text>
</a>
</g>
</g>
<!-- Node573&#45;&gt;Node574 -->
<g id="edge11" class="edge">
<title>Node573&#45;&gt;Node574</title>
<path fill="none" stroke="#191970" d="M319.1544,-402.5C330.7755,-402.5 342.8314,-402.5 354.5378,-402.5"/>
<polygon fill="#191970" stroke="#191970" points="354.7156,-406.0001 364.7155,-402.5 354.7155,-399.0001 354.7156,-406.0001"/>
</g>
<!-- Node575 -->
<g id="node10" class="node">
<title>Node575</title>
<g id="a_node10"><a xlink:href="namespaceutils.html#a6286fde6f4dd58ef0cfa9d55341b72f8" target="_top" xlink:title="utils::toUpper">
<polygon fill="#ffffff" stroke="#000000" points="559.5,-393 559.5,-412 634.5,-412 634.5,-393 559.5,-393"/>
<text text-anchor="middle" x="597" y="-400" font-family="Helvetica,sans-Serif" font-size="10.00" fill="#000000">utils::toUpper</text>
</a>
</g>
</g>
<!-- Node574&#45;&gt;Node575 -->
<g id="edge12" class="edge">
<title>Node574&#45;&gt;Node575</title>
<path fill="none" stroke="#191970" d="M497.0846,-402.5C514.4399,-402.5 532.8256,-402.5 549.0298,-402.5"/>
<polygon fill="#191970" stroke="#191970" points="549.3304,-406.0001 559.3304,-402.5 549.3304,-399.0001 549.3304,-406.0001"/>
</g>
<!-- Node576&#45;&gt;Node568 -->
<g id="edge15" class="edge">
<title>Node576&#45;&gt;Node568</title>
<path fill="none" stroke="#191970" d="M308.3187,-177.5402C315.5223,-180.3565 322.581,-183.6539 329,-187.5 348.4099,-199.13 346.3209,-210.7292 365,-223.5 369.9641,-226.8939 375.3897,-230.0354 380.9287,-232.8996"/>
<polygon fill="#191970" stroke="#191970" points="379.7722,-236.2291 390.296,-237.4539 382.8329,-229.9337 379.7722,-236.2291"/>
</g>
<!-- Node576&#45;&gt;Node569 -->
<g id="edge17" class="edge">
<title>Node576&#45;&gt;Node569</title>
<path fill="none" stroke="#191970" d="M310.7139,-165.512C361.5455,-168.5887 434.1895,-174.5264 497,-185.5 509.6186,-187.7046 522.9785,-190.7024 535.6843,-193.8792"/>
<polygon fill="#191970" stroke="#191970" points="535.1508,-197.3557 545.7071,-196.4537 536.8923,-190.5758 535.1508,-197.3557"/>
</g>
<!-- Node577 -->
<g id="node12" class="node">
<title>Node577</title>
<g id="a_node12"><a xlink:href="namespaceutils.html#a2b86d1a439de68860f2366f99d507349" target="_top" xlink:title="Removing spaces method. ">
<polygon fill="#ffffff" stroke="#000000" points="378,-119 378,-138 484,-138 484,-119 378,-119"/>
<text text-anchor="middle" x="431" y="-126" font-family="Helvetica,sans-Serif" font-size="10.00" fill="#000000">utils::removeSpaces</text>
</a>
</g>
</g>
<!-- Node576&#45;&gt;Node577 -->
<g id="edge14" class="edge">
<title>Node576&#45;&gt;Node577</title>
<path fill="none" stroke="#191970" d="M310.5114,-150.7039C329.5674,-147.1922 350.4026,-143.3526 369.3076,-139.8688"/>
<polygon fill="#191970" stroke="#191970" points="370.092,-143.2833 379.2921,-138.0288 368.8233,-136.3992 370.092,-143.2833"/>
</g>
<!-- Node578 -->
<g id="node13" class="node">
<title>Node578</title>
<g id="a_node13"><a xlink:href="namespaceutils.html#aac322cd1761fddedec8a5792e358eb32" target="_top" xlink:title="Vector initialization. ">
<polygon fill="#ffffff" stroke="#000000" points="393,-195 393,-214 469,-214 469,-195 393,-195"/>
<text text-anchor="middle" x="431" y="-202" font-family="Helvetica,sans-Serif" font-size="10.00" fill="#000000">utils::initlVect</text>
</a>
</g>
</g>
<!-- Node576&#45;&gt;Node578 -->
<g id="edge16" class="edge">
<title>Node576&#45;&gt;Node578</title>
<path fill="none" stroke="#191970" d="M310.5114,-177.0717C334.3387,-182.4958 360.9478,-188.5532 383.0869,-193.593"/>
<polygon fill="#191970" stroke="#191970" points="382.3909,-197.024 392.9183,-195.831 383.9447,-190.1986 382.3909,-197.024"/>
</g>
<!-- Node581 -->
<g id="node16" class="node">
<title>Node581</title>
<g id="a_node16"><a xlink:href="classstatistics_1_1_similarity.html#ada0548f0ac960fbbb3a3192f83c42189" target="_top" xlink:title="Constructor without any parameters. ">
<polygon fill="#ffffff" stroke="#000000" points="379.5,-10.5 379.5,-40.5 482.5,-40.5 482.5,-10.5 379.5,-10.5"/>
<text text-anchor="start" x="387.5" y="-28.5" font-family="Helvetica,sans-Serif" font-size="10.00" fill="#000000">statistics::Similarity</text>
<text text-anchor="middle" x="431" y="-17.5" font-family="Helvetica,sans-Serif" font-size="10.00" fill="#000000">::Similarity</text>
</a>
</g>
</g>
<!-- Node580&#45;&gt;Node581 -->
<g id="edge20" class="edge">
<title>Node580&#45;&gt;Node581</title>
<path fill="none" stroke="#191970" d="M298.8768,-53.4285C320.871,-48.7793 346.6097,-43.3386 369.4972,-38.5006"/>
<polygon fill="#191970" stroke="#191970" points="370.3894,-41.8894 379.4493,-36.3969 368.9417,-35.0408 370.3894,-41.8894"/>
</g>
<!-- Node583 -->
<g id="node18" class="node">
<title>Node583</title>
<g id="a_node18"><a xlink:href="classstatistics_1_1_similarity.html#a95126bfd6b0ed22c828a6ab780096a12" target="_top" xlink:title="Stores a valid similarity matrix point to use. ">
<polygon fill="#ffffff" stroke="#000000" points="379,-59.5 379,-89.5 483,-89.5 483,-59.5 379,-59.5"/>
<text text-anchor="start" x="387" y="-77.5" font-family="Helvetica,sans-Serif" font-size="10.00" fill="#000000">statistics::Similarity</text>
<text text-anchor="middle" x="431" y="-66.5" font-family="Helvetica,sans-Serif" font-size="10.00" fill="#000000">::setSimilarityMatrix</text>
</a>
</g>
</g>
<!-- Node580&#45;&gt;Node583 -->
<g id="edge22" class="edge">
<title>Node580&#45;&gt;Node583</title>
<path fill="none" stroke="#191970" d="M298.8768,-67.3389C320.5876,-68.5156 345.947,-69.8901 368.6111,-71.1185"/>
<polygon fill="#191970" stroke="#191970" points="368.637,-74.6249 378.8118,-71.6714 369.0159,-67.6352 368.637,-74.6249"/>
</g>
<!-- Node582 -->
<g id="node17" class="node">
<title>Node582</title>
<g id="a_node17"><a xlink:href="namespaceutils.html#a54839bee4863694819d990565e1e92cd" target="_top" xlink:title="Vector initialization. ">
<polygon fill="#ffffff" stroke="#000000" points="559,-16 559,-35 635,-35 635,-16 559,-16"/>
<text text-anchor="middle" x="597" y="-23" font-family="Helvetica,sans-Serif" font-size="10.00" fill="#000000">utils::initlVect</text>
</a>
</g>
</g>
<!-- Node581&#45;&gt;Node582 -->
<g id="edge21" class="edge">
<title>Node581&#45;&gt;Node582</title>
<path fill="none" stroke="#191970" d="M482.6135,-25.5C503.7011,-25.5 527.9587,-25.5 548.6935,-25.5"/>
<polygon fill="#191970" stroke="#191970" points="548.8691,-29.0001 558.8691,-25.5 548.869,-22.0001 548.8691,-29.0001"/>
</g>
</g>
</svg>
