<?xml version="1.0" encoding="UTF-8" standalone="no"?>
<!DOCTYPE svg PUBLIC "-//W3C//DTD SVG 1.1//EN"
 "http://www.w3.org/Graphics/SVG/1.1/DTD/svg11.dtd">
<!-- Generated by graphviz version 2.38.0 (20140413.2041)
 -->
<!-- Title: Cleaner::cleanByCutValue Pages: 1 -->
<svg width="455pt" height="317pt"
 viewBox="0.00 0.00 455.00 317.00" xmlns="http://www.w3.org/2000/svg" xmlns:xlink="http://www.w3.org/1999/xlink">
<g id="graph0" class="graph" transform="scale(1 1) rotate(0) translate(4 313)">
<title>Cleaner::cleanByCutValue</title>
<polygon fill="white" stroke="none" points="-4,4 -4,-313 451,-313 451,4 -4,4"/>
<!-- Node37 -->
<g id="node1" class="node"><title>Node37</title>
<polygon fill="#bfbfbf" stroke="black" points="0,-156.5 0,-175.5 132,-175.5 132,-156.5 0,-156.5"/>
<text text-anchor="middle" x="66" y="-163.5" font-family="Helvetica,sans-Serif" font-size="10.00">Cleaner::cleanByCutValue</text>
</g>
<!-- Node38 -->
<g id="node2" class="node"><title>Node38</title>
<g id="a_node2"><a xlink:href="classutils.html#ad50731aeb3c8f79ed8372516210dfc9d" target="_top" xlink:title="Round double to integer method. ">
<polygon fill="white" stroke="black" points="219.5,-289.5 219.5,-308.5 295.5,-308.5 295.5,-289.5 219.5,-289.5"/>
<text text-anchor="middle" x="257.5" y="-296.5" font-family="Helvetica,sans-Serif" font-size="10.00">utils::roundInt</text>
</a>
</g>
</g>
<!-- Node37&#45;&gt;Node38 -->
<g id="edge1" class="edge"><title>Node37&#45;&gt;Node38</title>
<path fill="none" stroke="midnightblue" d="M72.6276,-175.813C86.0167,-198.204 122.107,-253.194 168,-280 180.448,-287.271 195.339,-291.77 209.323,-294.551"/>
<polygon fill="midnightblue" stroke="midnightblue" points="208.846,-298.021 219.298,-296.288 210.046,-291.124 208.846,-298.021"/>
</g>
<!-- Node39 -->
<g id="node3" class="node"><title>Node39</title>
<g id="a_node3"><a xlink:href="classutils.html#a42f272221edf7752ffda49e4212ef653" target="_top" xlink:title="Integer vector copying. ">
<polygon fill="white" stroke="black" points="216.5,-251.5 216.5,-270.5 298.5,-270.5 298.5,-251.5 216.5,-251.5"/>
<text text-anchor="middle" x="257.5" y="-258.5" font-family="Helvetica,sans-Serif" font-size="10.00">utils::copyVect</text>
</a>
</g>
</g>
<!-- Node37&#45;&gt;Node39 -->
<g id="edge2" class="edge"><title>Node37&#45;&gt;Node39</title>
<path fill="none" stroke="midnightblue" d="M76.649,-175.611C93.5925,-191.91 130.471,-224.866 168,-242 179.844,-247.407 193.291,-251.305 206.063,-254.103"/>
<polygon fill="midnightblue" stroke="midnightblue" points="205.625,-257.585 216.118,-256.12 207.002,-250.721 205.625,-257.585"/>
</g>
<!-- Node40 -->
<g id="node4" class="node"><title>Node40</title>
<g id="a_node4"><a xlink:href="classutils.html#a73f038c379c13d23e3220afaa14f9983" target="_top" xlink:title="Quicksort sorting method. ">
<polygon fill="white" stroke="black" points="217.5,-213.5 217.5,-232.5 297.5,-232.5 297.5,-213.5 217.5,-213.5"/>
<text text-anchor="middle" x="257.5" y="-220.5" font-family="Helvetica,sans-Serif" font-size="10.00">utils::quicksort</text>
</a>
</g>
</g>
<!-- Node37&#45;&gt;Node40 -->
<g id="edge3" class="edge"><title>Node37&#45;&gt;Node40</title>
<path fill="none" stroke="midnightblue" d="M89.5369,-175.582C109.793,-183.927 140.498,-195.923 168,-204 180.611,-207.704 194.429,-211.016 207.318,-213.796"/>
<polygon fill="midnightblue" stroke="midnightblue" points="206.911,-217.287 217.416,-215.91 208.345,-210.435 206.911,-217.287"/>
</g>
<!-- Node42 -->
<g id="node6" class="node"><title>Node42</title>
<g id="a_node6"><a xlink:href="class_cleaner.html#a033da9ea63774f43f4c7aff04f23da81" target="_top" xlink:title="Method to detect right and left borders. Borders are the first column found with no gaps...">
<polygon fill="white" stroke="black" points="184.5,-175.5 184.5,-194.5 330.5,-194.5 330.5,-175.5 184.5,-175.5"/>
<text text-anchor="middle" x="257.5" y="-182.5" font-family="Helvetica,sans-Serif" font-size="10.00">Cleaner::removeOnlyTerminal</text>
</a>
</g>
</g>
<!-- Node37&#45;&gt;Node42 -->
<g id="edge5" class="edge"><title>Node37&#45;&gt;Node42</title>
<path fill="none" stroke="midnightblue" d="M132.215,-172.539C145.741,-173.895 160.159,-175.34 174.205,-176.749"/>
<polygon fill="midnightblue" stroke="midnightblue" points="174.05,-180.251 184.349,-177.766 174.748,-173.286 174.05,-180.251"/>
</g>
<!-- Node43 -->
<g id="node7" class="node"><title>Node43</title>
<g id="a_node7"><a xlink:href="class_cleaner.html#a24bd28e4191afc9471adff329bee1466" target="_top" xlink:title="Method for computing the complementary alignment. Complementary Alignment is an alignment containing ...">
<polygon fill="white" stroke="black" points="168,-137.5 168,-156.5 347,-156.5 347,-137.5 168,-137.5"/>
<text text-anchor="middle" x="257.5" y="-144.5" font-family="Helvetica,sans-Serif" font-size="10.00">Cleaner::computeComplementaryAlig</text>
</a>
</g>
</g>
<!-- Node37&#45;&gt;Node43 -->
<g id="edge6" class="edge"><title>Node37&#45;&gt;Node43</title>
<path fill="none" stroke="midnightblue" d="M132.215,-159.461C140.449,-158.636 149.013,-157.777 157.623,-156.914"/>
<polygon fill="midnightblue" stroke="midnightblue" points="158.133,-160.38 167.734,-155.9 157.435,-153.415 158.133,-160.38"/>
</g>
<!-- Node44 -->
<g id="node8" class="node"><title>Node44</title>
<g id="a_node8"><a xlink:href="class_cleaner.html#a2f7d85e29f23f880a7ad7e28863b36c3" target="_top" xlink:title="Method that identifies and removes columns and sequences composed only by gaps. ">
<polygon fill="white" stroke="black" points="203,-88 203,-118 312,-118 312,-88 203,-88"/>
<text text-anchor="start" x="211" y="-106" font-family="Helvetica,sans-Serif" font-size="10.00">Cleaner::removeCols</text>
<text text-anchor="middle" x="257.5" y="-95" font-family="Helvetica,sans-Serif" font-size="10.00">_SeqsAllGaps</text>
</a>
</g>
</g>
<!-- Node37&#45;&gt;Node44 -->
<g id="edge7" class="edge"><title>Node37&#45;&gt;Node44</title>
<path fill="none" stroke="midnightblue" d="M90.8774,-156.364C111.216,-148.313 141.303,-136.775 168,-128 176.067,-125.348 184.602,-122.719 193.063,-120.218"/>
<polygon fill="midnightblue" stroke="midnightblue" points="194.305,-123.502 202.928,-117.347 192.348,-116.781 194.305,-123.502"/>
</g>
<!-- Node45 -->
<g id="node9" class="node"><title>Node45</title>
<g id="a_node9"><a xlink:href="classnew_alignment.html#a3de39c62c08a265178f1fa7df76c3ab7" target="_top" xlink:title="Method that copies information of the alignment to the pointers given. ">
<polygon fill="white" stroke="black" points="190,-39 190,-69 325,-69 325,-39 190,-39"/>
<text text-anchor="start" x="198" y="-57" font-family="Helvetica,sans-Serif" font-size="10.00">newAlignment::fillNewData</text>
<text text-anchor="middle" x="257.5" y="-46" font-family="Helvetica,sans-Serif" font-size="10.00">Structure</text>
</a>
</g>
</g>
<!-- Node37&#45;&gt;Node45 -->
<g id="edge8" class="edge"><title>Node37&#45;&gt;Node45</title>
<path fill="none" stroke="midnightblue" d="M75.4426,-156.351C91.6178,-138.456 128.861,-100.037 168,-79 172.258,-76.7111 176.748,-74.6139 181.354,-72.695"/>
<polygon fill="midnightblue" stroke="midnightblue" points="182.863,-75.8645 190.935,-69.0026 180.346,-69.3327 182.863,-75.8645"/>
</g>
<!-- Node46 -->
<g id="node10" class="node"><title>Node46</title>
<g id="a_node10"><a xlink:href="classnew_alignment.html#acbeb320f0f70222f81a906ccfc33a016" target="_top" xlink:title="Method to intialize data that has been modified on the alignment. The method checks if the sequences ...">
<polygon fill="white" stroke="black" points="192,-0.5 192,-19.5 323,-19.5 323,-0.5 192,-0.5"/>
<text text-anchor="middle" x="257.5" y="-7.5" font-family="Helvetica,sans-Serif" font-size="10.00">newAlignment::fillMatrices</text>
</a>
</g>
</g>
<!-- Node37&#45;&gt;Node46 -->
<g id="edge9" class="edge"><title>Node37&#45;&gt;Node46</title>
<path fill="none" stroke="midnightblue" d="M71.2432,-156.246C82.7676,-130.976 117.228,-63.0566 168,-30 172.424,-27.1194 177.207,-24.6503 182.178,-22.5343"/>
<polygon fill="midnightblue" stroke="midnightblue" points="183.789,-25.6687 191.927,-18.8848 181.335,-19.113 183.789,-25.6687"/>
</g>
<!-- Node41 -->
<g id="node5" class="node"><title>Node41</title>
<g id="a_node5"><a xlink:href="classutils.html#a3377ecde55631d1bbc4956e5923b7469" target="_top" xlink:title="Swapping elements method. ">
<polygon fill="white" stroke="black" points="383,-213.5 383,-232.5 447,-232.5 447,-213.5 383,-213.5"/>
<text text-anchor="middle" x="415" y="-220.5" font-family="Helvetica,sans-Serif" font-size="10.00">utils::swap</text>
</a>
</g>
</g>
<!-- Node40&#45;&gt;Node41 -->
<g id="edge4" class="edge"><title>Node40&#45;&gt;Node41</title>
<path fill="none" stroke="midnightblue" d="M297.739,-223C320.6,-223 349.403,-223 372.62,-223"/>
<polygon fill="midnightblue" stroke="midnightblue" points="372.854,-226.5 382.854,-223 372.853,-219.5 372.854,-226.5"/>
</g>
</g>
</svg>
