<?xml version="1.0" encoding="UTF-8" standalone="no"?>
<!DOCTYPE svg PUBLIC "-//W3C//DTD SVG 1.1//EN"
 "http://www.w3.org/Graphics/SVG/1.1/DTD/svg11.dtd">
<!-- Generated by graphviz version 2.40.1 (20161225.0304)
 -->
<!-- Title: trimAlManager::save_alignment Pages: 1 -->
<svg width="524pt" height="66pt"
 viewBox="0.00 0.00 524.00 66.00" xmlns="http://www.w3.org/2000/svg" xmlns:xlink="http://www.w3.org/1999/xlink">
<g id="graph0" class="graph" transform="scale(1 1) rotate(0) translate(4 62)">
<title>trimAlManager::save_alignment</title>
<polygon fill="#ffffff" stroke="transparent" points="-4,4 -4,-62 520,-62 520,4 -4,4"/>
<!-- Node1341 -->
<g id="node1" class="node">
<title>Node1341</title>
<polygon fill="#bfbfbf" stroke="#000000" points="0,-14 0,-44 107,-44 107,-14 0,-14"/>
<text text-anchor="start" x="8" y="-32" font-family="Helvetica,sans-Serif" font-size="10.00" fill="#000000">trimAlManager::save</text>
<text text-anchor="middle" x="53.5" y="-21" font-family="Helvetica,sans-Serif" font-size="10.00" fill="#000000">_alignment</text>
</g>
<!-- Node1342 -->
<g id="node2" class="node">
<title>Node1342</title>
<g id="a_node2"><a xlink:href="classtrim_al_manager.html#a7c641a1feff33d401b4ea5c82e989289" target="_top" xlink:title="trimAlManager::innerPerform">
<polygon fill="#ffffff" stroke="#000000" points="144.5,-38.5 144.5,-57.5 285.5,-57.5 285.5,-38.5 144.5,-38.5"/>
<text text-anchor="middle" x="215" y="-45.5" font-family="Helvetica,sans-Serif" font-size="10.00" fill="#000000">trimAlManager::innerPerform</text>
</a>
</g>
</g>
<!-- Node1341&#45;&gt;Node1342 -->
<g id="edge1" class="edge">
<title>Node1341&#45;&gt;Node1342</title>
<path fill="none" stroke="#191970" d="M117.4453,-36.523C126.2385,-37.5575 135.3099,-38.6247 144.217,-39.6726"/>
<polygon fill="#191970" stroke="#191970" points="117.6176,-33.0192 107.2772,-35.3267 116.7997,-39.9713 117.6176,-33.0192"/>
</g>
<!-- Node1345 -->
<g id="node5" class="node">
<title>Node1345</title>
<g id="a_node5"><a xlink:href="classtrim_al_manager.html#ac5795f93b3a2b51bf5d8dddd63b89f73" target="_top" xlink:title="trimAlManager::perform_VCF">
<polygon fill="#ffffff" stroke="#000000" points="143,-.5 143,-19.5 287,-19.5 287,-.5 143,-.5"/>
<text text-anchor="middle" x="215" y="-7.5" font-family="Helvetica,sans-Serif" font-size="10.00" fill="#000000">trimAlManager::perform_VCF</text>
</a>
</g>
</g>
<!-- Node1341&#45;&gt;Node1345 -->
<g id="edge4" class="edge">
<title>Node1341&#45;&gt;Node1345</title>
<path fill="none" stroke="#191970" d="M117.3209,-21.4917C125.6789,-20.5084 134.2902,-19.4953 142.7746,-18.4971"/>
<polygon fill="#191970" stroke="#191970" points="116.7997,-18.0287 107.2772,-22.6733 117.6176,-24.9808 116.7997,-18.0287"/>
</g>
<!-- Node1343 -->
<g id="node3" class="node">
<title>Node1343</title>
<g id="a_node3"><a xlink:href="classtrim_al_manager.html#abe8d2841455c644dc9c7d1294b82b00f" target="_top" xlink:title="Method to perform the analysis if all checks have passed. ">
<polygon fill="#ffffff" stroke="#000000" points="323,-38.5 323,-57.5 442,-57.5 442,-38.5 323,-38.5"/>
<text text-anchor="middle" x="382.5" y="-45.5" font-family="Helvetica,sans-Serif" font-size="10.00" fill="#000000">trimAlManager::perform</text>
</a>
</g>
</g>
<!-- Node1342&#45;&gt;Node1343 -->
<g id="edge2" class="edge">
<title>Node1342&#45;&gt;Node1343</title>
<path fill="none" stroke="#191970" d="M295.8102,-48C304.9363,-48 314.1089,-48 322.8939,-48"/>
<polygon fill="#191970" stroke="#191970" points="295.5497,-44.5001 285.5496,-48 295.5496,-51.5001 295.5497,-44.5001"/>
</g>
<!-- Node1344 -->
<g id="node4" class="node">
<title>Node1344</title>
<g id="a_node4"><a xlink:href="trim_al_main_8cpp.html#a0ddf1224851353fc92bfbff6f499fa97" target="_top" xlink:title="main">
<polygon fill="#ffffff" stroke="#000000" points="478,-38.5 478,-57.5 516,-57.5 516,-38.5 478,-38.5"/>
<text text-anchor="middle" x="497" y="-45.5" font-family="Helvetica,sans-Serif" font-size="10.00" fill="#000000">main</text>
</a>
</g>
</g>
<!-- Node1343&#45;&gt;Node1344 -->
<g id="edge3" class="edge">
<title>Node1343&#45;&gt;Node1344</title>
<path fill="none" stroke="#191970" d="M452.3198,-48C461.6177,-48 470.4503,-48 477.7697,-48"/>
<polygon fill="#191970" stroke="#191970" points="452.0976,-44.5001 442.0976,-48 452.0975,-51.5001 452.0976,-44.5001"/>
</g>
</g>
</svg>
