<?xml version="1.0" encoding="UTF-8" standalone="no"?>
<!DOCTYPE svg PUBLIC "-//W3C//DTD SVG 1.1//EN"
 "http://www.w3.org/Graphics/SVG/1.1/DTD/svg11.dtd">
<!-- Generated by graphviz version 2.38.0 (20140413.2041)
 -->
<!-- Title: ReadWriteMS::loadAndSaveMultipleAlignments Pages: 1 -->
<svg width="321pt" height="165pt"
 viewBox="0.00 0.00 321.00 164.50" xmlns="http://www.w3.org/2000/svg" xmlns:xlink="http://www.w3.org/1999/xlink">
<g id="graph0" class="graph" transform="scale(1 1) rotate(0) translate(4 160.5)">
<title>ReadWriteMS::loadAndSaveMultipleAlignments</title>
<polygon fill="white" stroke="none" points="-4,4 -4,-160.5 317,-160.5 317,4 -4,4"/>
<!-- Node20 -->
<g id="node1" class="node"><title>Node20</title>
<polygon fill="#bfbfbf" stroke="black" points="0,-55 0,-85 142,-85 142,-55 0,-55"/>
<text text-anchor="start" x="8" y="-73" font-family="Helvetica,sans-Serif" font-size="10.00">ReadWriteMS::loadAndSave</text>
<text text-anchor="middle" x="71" y="-62" font-family="Helvetica,sans-Serif" font-size="10.00">MultipleAlignments</text>
</g>
<!-- Node21 -->
<g id="node2" class="node"><title>Node21</title>
<g id="a_node2"><a xlink:href="class____internal_report_1_1____report_system.html#a94ce85b97d7b6c3e5fbda0d30a35edd0" target="_top" xlink:title="Method to report an Error. It will be displayed if Level &#160;is equal or higher to VerboseLevel::ERROR. ">
<polygon fill="white" stroke="black" points="187.5,-126 187.5,-156 303.5,-156 303.5,-126 187.5,-126"/>
<text text-anchor="start" x="195.5" y="-144" font-family="Helvetica,sans-Serif" font-size="10.00">__internalReport::</text>
<text text-anchor="middle" x="245.5" y="-133" font-family="Helvetica,sans-Serif" font-size="10.00">__reportSystem::report</text>
</a>
</g>
</g>
<!-- Node20&#45;&gt;Node21 -->
<g id="edge1" class="edge"><title>Node20&#45;&gt;Node21</title>
<path fill="none" stroke="midnightblue" d="M104.221,-85.0001C125.099,-94.5418 152.968,-106.948 178,-117 182.463,-118.792 187.119,-120.598 191.802,-122.372"/>
<polygon fill="midnightblue" stroke="midnightblue" points="190.811,-125.738 201.404,-125.952 193.257,-119.179 190.811,-125.738"/>
</g>
<!-- Node22 -->
<g id="node3" class="node"><title>Node22</title>
<g id="a_node3"><a xlink:href="class_read_write_base_state.html#ac6d87d2b73337cb4afa1499bf218f4ab" target="_top" xlink:title="Function to load a file in the current format and return an alignment object. ">
<polygon fill="white" stroke="black" points="191,-77 191,-107 300,-107 300,-77 191,-77"/>
<text text-anchor="start" x="199" y="-95" font-family="Helvetica,sans-Serif" font-size="10.00">ReadWriteBaseState</text>
<text text-anchor="middle" x="245.5" y="-84" font-family="Helvetica,sans-Serif" font-size="10.00">::LoadAlignment</text>
</a>
</g>
</g>
<!-- Node20&#45;&gt;Node22 -->
<g id="edge2" class="edge"><title>Node20&#45;&gt;Node22</title>
<path fill="none" stroke="midnightblue" d="M142.162,-78.9482C154.969,-80.5815 168.266,-82.2774 180.87,-83.8848"/>
<polygon fill="midnightblue" stroke="midnightblue" points="180.444,-87.3588 190.807,-85.1521 181.33,-80.4151 180.444,-87.3588"/>
</g>
<!-- Node23 -->
<g id="node4" class="node"><title>Node23</title>
<g id="a_node4"><a xlink:href="classutils.html#ab0cb109dc7e12b42abd4cba86f7d8e78" target="_top" xlink:title="Function that replaces a substring with another substring in a string. It makes a copy of the origina...">
<polygon fill="white" stroke="black" points="194.5,-38.5 194.5,-57.5 296.5,-57.5 296.5,-38.5 194.5,-38.5"/>
<text text-anchor="middle" x="245.5" y="-45.5" font-family="Helvetica,sans-Serif" font-size="10.00">utils::ReplaceString</text>
</a>
</g>
</g>
<!-- Node20&#45;&gt;Node23 -->
<g id="edge3" class="edge"><title>Node20&#45;&gt;Node23</title>
<path fill="none" stroke="midnightblue" d="M142.162,-61.0518C156.136,-59.2696 170.694,-57.4129 184.298,-55.6779"/>
<polygon fill="midnightblue" stroke="midnightblue" points="185.013,-59.1152 194.49,-54.3781 184.128,-52.1714 185.013,-59.1152"/>
</g>
<!-- Node24 -->
<g id="node5" class="node"><title>Node24</title>
<g id="a_node5"><a xlink:href="classutils.html#a6000246220e801bf6b1e6a553d7af13a" target="_top" xlink:title="Function that replaces a substring with another substring in a string. It does not make a copy of the...">
<polygon fill="white" stroke="black" points="178,-0.5 178,-19.5 313,-19.5 313,-0.5 178,-0.5"/>
<text text-anchor="middle" x="245.5" y="-7.5" font-family="Helvetica,sans-Serif" font-size="10.00">utils::ReplaceStringInPlace</text>
</a>
</g>
</g>
<!-- Node20&#45;&gt;Node24 -->
<g id="edge4" class="edge"><title>Node20&#45;&gt;Node24</title>
<path fill="none" stroke="midnightblue" d="M108.494,-54.942C128.796,-46.8038 154.617,-36.8448 178,-29 184.654,-26.7677 191.736,-24.5642 198.705,-22.4928"/>
<polygon fill="midnightblue" stroke="midnightblue" points="200.145,-25.7189 208.769,-19.5644 198.189,-18.9976 200.145,-25.7189"/>
</g>
</g>
</svg>
