<?xml version="1.0" encoding="UTF-8" standalone="no"?>
<!DOCTYPE svg PUBLIC "-//W3C//DTD SVG 1.1//EN"
 "http://www.w3.org/Graphics/SVG/1.1/DTD/svg11.dtd">
<!-- Generated by graphviz version 2.40.1 (20161225.0304)
 -->
<!-- Title: Cleaner::cleanStrict Pages: 1 -->
<svg width="451pt" height="78pt"
 viewBox="0.00 0.00 451.00 77.50" xmlns="http://www.w3.org/2000/svg" xmlns:xlink="http://www.w3.org/1999/xlink">
<g id="graph0" class="graph" transform="scale(1 1) rotate(0) translate(4 73.5)">
<title>Cleaner::cleanStrict</title>
<polygon fill="#ffffff" stroke="transparent" points="-4,4 -4,-73.5 447,-73.5 447,4 -4,4"/>
<!-- Node300 -->
<g id="node1" class="node">
<title>Node300</title>
<g id="a_node1"><a xlink:title="Method to clean an alignment. It carries out strict and strictplus. It removes sequences that overpas...">
<polygon fill="#bfbfbf" stroke="#000000" points="0,-22.5 0,-41.5 103,-41.5 103,-22.5 0,-22.5"/>
<text text-anchor="middle" x="51.5" y="-29.5" font-family="Helvetica,sans-Serif" font-size="10.00" fill="#000000">Cleaner::cleanStrict</text>
</a>
</g>
</g>
<!-- Node301 -->
<g id="node2" class="node">
<title>Node301</title>
<g id="a_node2"><a xlink:href="class_cleaner.html#ada8ad076dd037f00ae3f4fd17762641f" target="_top" xlink:title="Method that identifies and removes columns and sequences composed only by gaps.">
<polygon fill="#ffffff" stroke="#000000" points="139,-39 139,-69 285,-69 285,-39 139,-39"/>
<text text-anchor="start" x="147" y="-57" font-family="Helvetica,sans-Serif" font-size="10.00" fill="#000000">Cleaner::removeAllGapsSeqs</text>
<text text-anchor="middle" x="212" y="-46" font-family="Helvetica,sans-Serif" font-size="10.00" fill="#000000">AndCols</text>
</a>
</g>
</g>
<!-- Node300&#45;&gt;Node301 -->
<g id="edge1" class="edge">
<title>Node300&#45;&gt;Node301</title>
<path fill="none" stroke="#191970" d="M103.1667,-39.082C111.334,-40.2015 119.9557,-41.3833 128.6261,-42.5718"/>
<polygon fill="#191970" stroke="#191970" points="128.4198,-46.0762 138.8025,-43.9667 129.3704,-39.141 128.4198,-46.0762"/>
</g>
<!-- Node303 -->
<g id="node4" class="node">
<title>Node303</title>
<g id="a_node4"><a xlink:href="namespaceutils.html#ad50731aeb3c8f79ed8372516210dfc9d" target="_top" xlink:title="Round double to integer method.">
<polygon fill="#ffffff" stroke="#000000" points="174,-.5 174,-19.5 250,-19.5 250,-.5 174,-.5"/>
<text text-anchor="middle" x="212" y="-7.5" font-family="Helvetica,sans-Serif" font-size="10.00" fill="#000000">utils::roundInt</text>
</a>
</g>
</g>
<!-- Node300&#45;&gt;Node303 -->
<g id="edge3" class="edge">
<title>Node300&#45;&gt;Node303</title>
<path fill="none" stroke="#191970" d="M103.1667,-24.918C122.664,-22.2454 144.7506,-19.218 163.9078,-16.5921"/>
<polygon fill="#191970" stroke="#191970" points="164.4888,-20.0453 173.9208,-15.2196 163.5381,-13.1101 164.4888,-20.0453"/>
</g>
<!-- Node302 -->
<g id="node3" class="node">
<title>Node302</title>
<g id="a_node3"><a xlink:href="classreporting_1_1report_manager.html#a6d122e673144584e0869bd33b8a5c1c6" target="_top" xlink:title="Method to report an Error. &#160;It will be displayed if Level &#160;is equal or higher to VerboseLevel::ERROR.">
<polygon fill="#ffffff" stroke="#000000" points="321,-39 321,-69 443,-69 443,-39 321,-39"/>
<text text-anchor="start" x="329" y="-57" font-family="Helvetica,sans-Serif" font-size="10.00" fill="#000000">reporting::reportManager</text>
<text text-anchor="middle" x="382" y="-46" font-family="Helvetica,sans-Serif" font-size="10.00" fill="#000000">::report</text>
</a>
</g>
</g>
<!-- Node301&#45;&gt;Node302 -->
<g id="edge2" class="edge">
<title>Node301&#45;&gt;Node302</title>
<path fill="none" stroke="#191970" d="M285.0819,-54C293.591,-54 302.2628,-54 310.7468,-54"/>
<polygon fill="#191970" stroke="#191970" points="310.9788,-57.5001 320.9788,-54 310.9788,-50.5001 310.9788,-57.5001"/>
</g>
</g>
</svg>
