<?xml version="1.0" encoding="UTF-8" standalone="no"?>
<!DOCTYPE svg PUBLIC "-//W3C//DTD SVG 1.1//EN"
 "http://www.w3.org/Graphics/SVG/1.1/DTD/svg11.dtd">
<!-- Generated by graphviz version 2.40.1 (20161225.0304)
 -->
<!-- Title: trimAlManager::CleanSequences Pages: 1 -->
<svg width="1202pt" height="637pt"
 viewBox="0.00 0.00 1202.00 637.00" xmlns="http://www.w3.org/2000/svg" xmlns:xlink="http://www.w3.org/1999/xlink">
<g id="graph0" class="graph" transform="scale(1 1) rotate(0) translate(4 633)">
<title>trimAlManager::CleanSequences</title>
<polygon fill="#ffffff" stroke="transparent" points="-4,4 -4,-633 1198,-633 1198,4 -4,4"/>
<!-- Node484 -->
<g id="node1" class="node">
<title>Node484</title>
<polygon fill="#bfbfbf" stroke="#000000" points="0,-137 0,-156 160,-156 160,-137 0,-137"/>
<text text-anchor="middle" x="80" y="-144" font-family="Helvetica,sans-Serif" font-size="10.00" fill="#000000">trimAlManager::CleanSequences</text>
</g>
<!-- Node485 -->
<g id="node2" class="node">
<title>Node485</title>
<g id="a_node2"><a xlink:href="class_cleaner.html#a3af7bde2142886d6d723c95694b7b9ba" target="_top" xlink:title="Method to remove columns composed only by gaps This method is specially useful when we remove missali...">
<polygon fill="#ffffff" stroke="#000000" points="200,-428 200,-447 327,-447 327,-428 200,-428"/>
<text text-anchor="middle" x="263.5" y="-435" font-family="Helvetica,sans-Serif" font-size="10.00" fill="#000000">Cleaner::cleanNoAllGaps</text>
</a>
</g>
</g>
<!-- Node484&#45;&gt;Node485 -->
<g id="edge1" class="edge">
<title>Node484&#45;&gt;Node485</title>
<path fill="none" stroke="#191970" d="M86.1054,-156.1821C112.5006,-198.0405 217.0441,-363.8289 252.0273,-419.3062"/>
<polygon fill="#191970" stroke="#191970" points="249.0772,-421.1897 257.3717,-427.7815 254.9983,-417.456 249.0772,-421.1897"/>
</g>
<!-- Node507 -->
<g id="node24" class="node">
<title>Node507</title>
<g id="a_node24"><a xlink:href="class_cleaner.html#a5ceceb5b637a6d4e6a13c3b5d8d76c1d" target="_top" xlink:title="Method to remove sequences missaligned with the rest of sequences in the alignment. &#160;For each residue in the sequence, it tests it&#39;s similarity. If the similarity of that residue is higher than overlapColumn value, it counts as a hit for the sequence. After calculating the number of hits for the sequence, it removes the sequence if it has a proportion hits/residues lower tan minimumOverlap. ">
<polygon fill="#ffffff" stroke="#000000" points="196,-80 196,-99 331,-99 331,-80 196,-80"/>
<text text-anchor="middle" x="263.5" y="-87" font-family="Helvetica,sans-Serif" font-size="10.00" fill="#000000">Cleaner::cleanSpuriousSeq</text>
</a>
</g>
</g>
<!-- Node484&#45;&gt;Node507 -->
<g id="edge27" class="edge">
<title>Node484&#45;&gt;Node507</title>
<path fill="none" stroke="#191970" d="M110.7138,-136.9595C141.5435,-127.3829 189.2004,-112.5795 223.0839,-102.0543"/>
<polygon fill="#191970" stroke="#191970" points="224.1744,-105.3806 232.686,-99.0716 222.0979,-98.6957 224.1744,-105.3806"/>
</g>
<!-- Node513 -->
<g id="node30" class="node">
<title>Node513</title>
<g id="a_node30"><a xlink:href="class_cleaner.html#a4fd1d8eb883d1a7b271d6d4e1b1df71b" target="_top" xlink:title="Method to select the most representative sequence (the longest one) for each cluster from the input a...">
<polygon fill="#ffffff" stroke="#000000" points="206.5,-156 206.5,-175 320.5,-175 320.5,-156 206.5,-156"/>
<text text-anchor="middle" x="263.5" y="-163" font-family="Helvetica,sans-Serif" font-size="10.00" fill="#000000">Cleaner::getClustering</text>
</a>
</g>
</g>
<!-- Node484&#45;&gt;Node513 -->
<g id="edge35" class="edge">
<title>Node484&#45;&gt;Node513</title>
<path fill="none" stroke="#191970" d="M160.2188,-154.806C172.2278,-156.0495 184.5046,-157.3206 196.2085,-158.5325"/>
<polygon fill="#191970" stroke="#191970" points="196.0179,-162.0314 206.3252,-159.58 196.7389,-155.0686 196.0179,-162.0314"/>
</g>
<!-- Node519 -->
<g id="node36" class="node">
<title>Node519</title>
<g id="a_node36"><a xlink:href="class_cleaner.html#a60955e2ae3faa3ccf84780a52fb1a08a" target="_top" xlink:title="Method that calculates the optimal cut point for a given clusters number. &#160;The idea is to obtain a cu...">
<polygon fill="#ffffff" stroke="#000000" points="384,-99 384,-118 529,-118 529,-99 384,-99"/>
<text text-anchor="middle" x="456.5" y="-106" font-family="Helvetica,sans-Serif" font-size="10.00" fill="#000000">Cleaner::getCutPointClusters</text>
</a>
</g>
</g>
<!-- Node484&#45;&gt;Node519 -->
<g id="edge44" class="edge">
<title>Node484&#45;&gt;Node519</title>
<path fill="none" stroke="#191970" d="M160.3069,-138.3947C223.2412,-132.0427 310.4859,-123.2371 373.9809,-116.8286"/>
<polygon fill="#191970" stroke="#191970" points="374.3622,-120.308 383.9601,-115.8214 373.6592,-113.3434 374.3622,-120.308"/>
</g>
<!-- Node520 -->
<g id="node37" class="node">
<title>Node520</title>
<g id="a_node37"><a xlink:href="class_cleaner.html#a0f7c2dbf2042f87df31f6845c4fc3b6c" target="_top" xlink:title="Cleaner::removeDuplicates">
<polygon fill="#ffffff" stroke="#000000" points="196,-34 196,-53 331,-53 331,-34 196,-34"/>
<text text-anchor="middle" x="263.5" y="-41" font-family="Helvetica,sans-Serif" font-size="10.00" fill="#000000">Cleaner::removeDuplicates</text>
</a>
</g>
</g>
<!-- Node484&#45;&gt;Node520 -->
<g id="edge48" class="edge">
<title>Node484&#45;&gt;Node520</title>
<path fill="none" stroke="#191970" d="M92.7032,-136.9536C113.5095,-121.6041 156.4975,-91.0782 196,-70.5 205.6703,-65.4624 216.5009,-60.75 226.6073,-56.717"/>
<polygon fill="#191970" stroke="#191970" points="227.9551,-59.9484 236.0137,-53.0701 225.4247,-53.4218 227.9551,-59.9484"/>
</g>
<!-- Node522 -->
<g id="node39" class="node">
<title>Node522</title>
<g id="a_node39"><a xlink:href="class_cleaner.html#a932af26c56652410dc2a30c553376c0b" target="_top" xlink:title="Method to remove sequences, expressed as ranges. ">
<polygon fill="#ffffff" stroke="#000000" points="388,-251 388,-270 525,-270 525,-251 388,-251"/>
<text text-anchor="middle" x="456.5" y="-258" font-family="Helvetica,sans-Serif" font-size="10.00" fill="#000000">Cleaner::removeSequences</text>
</a>
</g>
</g>
<!-- Node484&#45;&gt;Node522 -->
<g id="edge50" class="edge">
<title>Node484&#45;&gt;Node522</title>
<path fill="none" stroke="#191970" d="M108.5195,-156.1307C131.9497,-163.9733 166.0388,-175.2247 196,-184.5 271.7332,-207.9451 360.4641,-233.4072 412.3798,-248.1037"/>
<polygon fill="#191970" stroke="#191970" points="411.6823,-251.5436 422.2573,-250.8956 413.5864,-244.8075 411.6823,-251.5436"/>
</g>
<!-- Node486 -->
<g id="node3" class="node">
<title>Node486</title>
<g id="a_node3"><a xlink:href="classstatistics_1_1_manager.html#a1969a416d3020d25daa56de6c5e305db" target="_top" xlink:title="Method to handle gap stat calculation It checks if the gaps submodule has been created, otherwise, creates it. ">
<polygon fill="#ffffff" stroke="#000000" points="405,-537.5 405,-567.5 508,-567.5 508,-537.5 405,-537.5"/>
<text text-anchor="start" x="413" y="-555.5" font-family="Helvetica,sans-Serif" font-size="10.00" fill="#000000">statistics::Manager</text>
<text text-anchor="middle" x="456.5" y="-544.5" font-family="Helvetica,sans-Serif" font-size="10.00" fill="#000000">::calculateGapStats</text>
</a>
</g>
</g>
<!-- Node485&#45;&gt;Node486 -->
<g id="edge2" class="edge">
<title>Node485&#45;&gt;Node486</title>
<path fill="none" stroke="#191970" d="M275.0651,-447.1154C293.6426,-462.2696 331.6415,-492.0818 367,-512.5 380.1726,-520.1067 395.0562,-527.2775 408.8507,-533.3896"/>
<polygon fill="#191970" stroke="#191970" points="407.6256,-536.6732 418.1923,-537.4443 410.4127,-530.252 407.6256,-536.6732"/>
</g>
<!-- Node493 -->
<g id="node10" class="node">
<title>Node493</title>
<g id="a_node10"><a xlink:href="class_cleaner.html#a13ae2074afb38708bc5cee9489d8ab6f" target="_top" xlink:title="Method to clean an alignment. &#160;It removes sequences that overpass or equals a certain threshold...">
<polygon fill="#ffffff" stroke="#000000" points="390.5,-353.5 390.5,-383.5 522.5,-383.5 522.5,-353.5 390.5,-353.5"/>
<text text-anchor="start" x="398.5" y="-371.5" font-family="Helvetica,sans-Serif" font-size="10.00" fill="#000000">Cleaner::cleanByCutValue</text>
<text text-anchor="middle" x="456.5" y="-360.5" font-family="Helvetica,sans-Serif" font-size="10.00" fill="#000000">Overpass</text>
</a>
</g>
</g>
<!-- Node485&#45;&gt;Node493 -->
<g id="edge10" class="edge">
<title>Node485&#45;&gt;Node493</title>
<path fill="none" stroke="#191970" d="M290.3358,-427.9058C319.8106,-417.3682 367.8518,-400.1929 404.7157,-387.0136"/>
<polygon fill="#191970" stroke="#191970" points="406.0713,-390.2459 414.3093,-383.5837 403.7147,-383.6545 406.0713,-390.2459"/>
</g>
<!-- Node505 -->
<g id="node22" class="node">
<title>Node505</title>
<g id="a_node22"><a xlink:href="classstatistics_1_1_gaps.html#ab5b60db326475f8adc68b130e22b3963" target="_top" xlink:title="statistics::Gaps::getGaps\lWindow">
<polygon fill="#ffffff" stroke="#000000" points="392.5,-472.5 392.5,-502.5 520.5,-502.5 520.5,-472.5 392.5,-472.5"/>
<text text-anchor="start" x="400.5" y="-490.5" font-family="Helvetica,sans-Serif" font-size="10.00" fill="#000000">statistics::Gaps::getGaps</text>
<text text-anchor="middle" x="456.5" y="-479.5" font-family="Helvetica,sans-Serif" font-size="10.00" fill="#000000">Window</text>
</a>
</g>
</g>
<!-- Node485&#45;&gt;Node505 -->
<g id="edge24" class="edge">
<title>Node485&#45;&gt;Node505</title>
<path fill="none" stroke="#191970" d="M300.2561,-447.0223C325.1163,-453.4628 358.6979,-462.1627 388.3572,-469.8464"/>
<polygon fill="#191970" stroke="#191970" points="387.6888,-473.2887 398.247,-472.4085 389.4443,-466.5124 387.6888,-473.2887"/>
</g>
<!-- Node487 -->
<g id="node4" class="node">
<title>Node487</title>
<g id="a_node4"><a xlink:href="classstatistics_1_1_gaps.html#a2f1d71bafa5e44e5f2c96771cf2a26ed" target="_top" xlink:title="statistics::Gaps::Gaps">
<polygon fill="#ffffff" stroke="#000000" points="600.5,-560 600.5,-579 715.5,-579 715.5,-560 600.5,-560"/>
<text text-anchor="middle" x="658" y="-567" font-family="Helvetica,sans-Serif" font-size="10.00" fill="#000000">statistics::Gaps::Gaps</text>
</a>
</g>
</g>
<!-- Node486&#45;&gt;Node487 -->
<g id="edge3" class="edge">
<title>Node486&#45;&gt;Node487</title>
<path fill="none" stroke="#191970" d="M508.1296,-556.8558C533.1513,-558.9669 563.5248,-561.5294 590.3688,-563.7941"/>
<polygon fill="#191970" stroke="#191970" points="590.2069,-567.2928 600.4657,-564.646 590.7954,-560.3176 590.2069,-567.2928"/>
</g>
<!-- Node489 -->
<g id="node6" class="node">
<title>Node489</title>
<g id="a_node6"><a xlink:href="classstatistics_1_1_gaps.html#aa3526494d5100e062daa4afba755d0b1" target="_top" xlink:title="statistics::Gaps::Calculate\lVectors">
<polygon fill="#ffffff" stroke="#000000" points="591.5,-598.5 591.5,-628.5 724.5,-628.5 724.5,-598.5 591.5,-598.5"/>
<text text-anchor="start" x="599.5" y="-616.5" font-family="Helvetica,sans-Serif" font-size="10.00" fill="#000000">statistics::Gaps::Calculate</text>
<text text-anchor="middle" x="658" y="-605.5" font-family="Helvetica,sans-Serif" font-size="10.00" fill="#000000">Vectors</text>
</a>
</g>
</g>
<!-- Node486&#45;&gt;Node489 -->
<g id="edge5" class="edge">
<title>Node486&#45;&gt;Node489</title>
<path fill="none" stroke="#191970" d="M506.0505,-567.5004C534.0035,-575.9626 569.1181,-586.5928 598.5476,-595.502"/>
<polygon fill="#191970" stroke="#191970" points="597.7063,-598.9041 608.2915,-598.4518 599.7346,-592.2044 597.7063,-598.9041"/>
</g>
<!-- Node490 -->
<g id="node7" class="node">
<title>Node490</title>
<g id="a_node7"><a xlink:href="classstatistics_1_1_gaps.html#aee36b772767467cdba2061df2305e85d" target="_top" xlink:title="statistics::Gaps::applyWindow">
<polygon fill="#ffffff" stroke="#000000" points="583,-522 583,-541 733,-541 733,-522 583,-522"/>
<text text-anchor="middle" x="658" y="-529" font-family="Helvetica,sans-Serif" font-size="10.00" fill="#000000">statistics::Gaps::applyWindow</text>
</a>
</g>
</g>
<!-- Node486&#45;&gt;Node490 -->
<g id="edge6" class="edge">
<title>Node486&#45;&gt;Node490</title>
<path fill="none" stroke="#191970" d="M508.1296,-547.1192C527.8476,-545.0643 550.8891,-542.6629 572.9078,-540.3682"/>
<polygon fill="#191970" stroke="#191970" points="573.3536,-543.8408 582.9369,-539.3229 572.628,-536.8785 573.3536,-543.8408"/>
</g>
<!-- Node488 -->
<g id="node5" class="node">
<title>Node488</title>
<g id="a_node5"><a xlink:href="namespaceutils.html#aac322cd1761fddedec8a5792e358eb32" target="_top" xlink:title="Vector initialization. ">
<polygon fill="#ffffff" stroke="#000000" points="804.5,-560 804.5,-579 880.5,-579 880.5,-560 804.5,-560"/>
<text text-anchor="middle" x="842.5" y="-567" font-family="Helvetica,sans-Serif" font-size="10.00" fill="#000000">utils::initlVect</text>
</a>
</g>
</g>
<!-- Node487&#45;&gt;Node488 -->
<g id="edge4" class="edge">
<title>Node487&#45;&gt;Node488</title>
<path fill="none" stroke="#191970" d="M715.618,-569.5C740.7618,-569.5 769.9211,-569.5 793.9414,-569.5"/>
<polygon fill="#191970" stroke="#191970" points="794.2378,-573.0001 804.2378,-569.5 794.2378,-566.0001 794.2378,-573.0001"/>
</g>
<!-- Node490&#45;&gt;Node488 -->
<g id="edge8" class="edge">
<title>Node490&#45;&gt;Node488</title>
<path fill="none" stroke="#191970" d="M704.5571,-541.089C732.0339,-546.7482 766.746,-553.8976 794.4748,-559.6086"/>
<polygon fill="#191970" stroke="#191970" points="793.8479,-563.0529 804.3484,-561.6422 795.2601,-556.1968 793.8479,-563.0529"/>
</g>
<!-- Node491 -->
<g id="node8" class="node">
<title>Node491</title>
<g id="a_node8"><a xlink:href="classreporting_1_1report_manager.html#a6d122e673144584e0869bd33b8a5c1c6" target="_top" xlink:title="Method to report an Error. &#160;It will be displayed if Level &#160;is equal or higher to VerboseLevel::ERROR...">
<polygon fill="#ffffff" stroke="#000000" points="781.5,-510.5 781.5,-540.5 903.5,-540.5 903.5,-510.5 781.5,-510.5"/>
<text text-anchor="start" x="789.5" y="-528.5" font-family="Helvetica,sans-Serif" font-size="10.00" fill="#000000">reporting::reportManager</text>
<text text-anchor="middle" x="842.5" y="-517.5" font-family="Helvetica,sans-Serif" font-size="10.00" fill="#000000">::report</text>
</a>
</g>
</g>
<!-- Node490&#45;&gt;Node491 -->
<g id="edge7" class="edge">
<title>Node490&#45;&gt;Node491</title>
<path fill="none" stroke="#191970" d="M733.0432,-529.0596C745.5918,-528.6515 758.5808,-528.2291 771.0365,-527.824"/>
<polygon fill="#191970" stroke="#191970" points="771.4715,-531.3118 781.3525,-527.4885 771.2439,-524.3155 771.4715,-531.3118"/>
</g>
<!-- Node492 -->
<g id="node9" class="node">
<title>Node492</title>
<g id="a_node9"><a xlink:href="namespaceutils.html#ad50731aeb3c8f79ed8372516210dfc9d" target="_top" xlink:title="Round double to integer method. ">
<polygon fill="#ffffff" stroke="#000000" points="804.5,-463 804.5,-482 880.5,-482 880.5,-463 804.5,-463"/>
<text text-anchor="middle" x="842.5" y="-470" font-family="Helvetica,sans-Serif" font-size="10.00" fill="#000000">utils::roundInt</text>
</a>
</g>
</g>
<!-- Node490&#45;&gt;Node492 -->
<g id="edge9" class="edge">
<title>Node490&#45;&gt;Node492</title>
<path fill="none" stroke="#191970" d="M699.6409,-521.9525C710.863,-519.1453 722.9528,-515.9063 734,-512.5 759.5053,-504.6357 787.7814,-494.1519 809.0718,-485.8902"/>
<polygon fill="#191970" stroke="#191970" points="810.5867,-489.0559 818.6228,-482.1514 808.035,-482.5375 810.5867,-489.0559"/>
</g>
<!-- Node493&#45;&gt;Node492 -->
<g id="edge23" class="edge">
<title>Node493&#45;&gt;Node492</title>
<path fill="none" stroke="#191970" d="M506.7641,-353.479C566.0085,-338.9485 665.0981,-324.8967 734,-368.5 765.5828,-388.4866 742.6142,-419.0646 770,-444.5 777.1175,-451.1106 785.9654,-456.2175 795.0077,-460.1436"/>
<polygon fill="#191970" stroke="#191970" points="793.8483,-463.4482 804.4366,-463.8212 796.392,-456.9267 793.8483,-463.4482"/>
</g>
<!-- Node494 -->
<g id="node11" class="node">
<title>Node494</title>
<g id="a_node11"><a xlink:href="class_alignment.html#aeeee94970a445f32aa79646c249befef" target="_top" xlink:title="Copy Constructor. &#160;&#160;The copy constructor does not make a copy of all structures present on the origin...">
<polygon fill="#ffffff" stroke="#000000" points="603,-203 603,-222 713,-222 713,-203 603,-203"/>
<text text-anchor="middle" x="658" y="-210" font-family="Helvetica,sans-Serif" font-size="10.00" fill="#000000">Alignment::Alignment</text>
</a>
</g>
</g>
<!-- Node493&#45;&gt;Node494 -->
<g id="edge11" class="edge">
<title>Node493&#45;&gt;Node494</title>
<path fill="none" stroke="#191970" d="M473.0563,-353.4112C491.5829,-336.2204 522.1282,-306.9467 546,-279.5 563.5002,-259.3791 559.7844,-246.2506 582,-231.5 585.5691,-229.1302 589.4105,-227.056 593.4032,-225.2404"/>
<polygon fill="#191970" stroke="#191970" points="594.9338,-228.3986 602.9372,-221.4561 592.3513,-221.8923 594.9338,-228.3986"/>
</g>
<!-- Node500 -->
<g id="node17" class="node">
<title>Node500</title>
<g id="a_node17"><a xlink:href="namespaceutils.html#a3ff3252e3c5d743757b001734501fe60" target="_top" xlink:title="Quicksort sorting method. ">
<polygon fill="#ffffff" stroke="#000000" points="618,-416 618,-435 698,-435 698,-416 618,-416"/>
<text text-anchor="middle" x="658" y="-423" font-family="Helvetica,sans-Serif" font-size="10.00" fill="#000000">utils::quicksort</text>
</a>
</g>
</g>
<!-- Node493&#45;&gt;Node500 -->
<g id="edge17" class="edge">
<title>Node493&#45;&gt;Node500</title>
<path fill="none" stroke="#191970" d="M504.3136,-383.579C527.6628,-390.7887 556.2165,-399.3782 582,-406.5 590.4772,-408.8415 599.5209,-411.2124 608.3041,-413.4484"/>
<polygon fill="#191970" stroke="#191970" points="607.5137,-416.8586 618.0657,-415.9069 609.2233,-410.0706 607.5137,-416.8586"/>
</g>
<!-- Node502 -->
<g id="node19" class="node">
<title>Node502</title>
<g id="a_node19"><a xlink:href="class_cleaner.html#ada8ad076dd037f00ae3f4fd17762641f" target="_top" xlink:title="Method that identifies and removes columns and sequences composed only by gaps. ">
<polygon fill="#ffffff" stroke="#000000" points="585,-241.5 585,-271.5 731,-271.5 731,-241.5 585,-241.5"/>
<text text-anchor="start" x="593" y="-259.5" font-family="Helvetica,sans-Serif" font-size="10.00" fill="#000000">Cleaner::removeAllGapsSeqs</text>
<text text-anchor="middle" x="658" y="-248.5" font-family="Helvetica,sans-Serif" font-size="10.00" fill="#000000">AndCols</text>
</a>
</g>
</g>
<!-- Node493&#45;&gt;Node502 -->
<g id="edge20" class="edge">
<title>Node493&#45;&gt;Node502</title>
<path fill="none" stroke="#191970" d="M474.5054,-353.1755C497.9206,-333.9059 540.7222,-300.8844 582,-280.5 585.7684,-278.639 589.7126,-276.8818 593.7376,-275.2298"/>
<polygon fill="#191970" stroke="#191970" points="595.1617,-278.432 603.2318,-271.5672 592.6422,-271.9011 595.1617,-278.432"/>
</g>
<!-- Node504 -->
<g id="node21" class="node">
<title>Node504</title>
<g id="a_node21"><a xlink:href="class_cleaner.html#a5620f6a511bc0ac844c71b2de3ae1fdb" target="_top" xlink:title="Method to remove blocks of columns with no rejected residue smaller than a given size. ">
<polygon fill="#ffffff" stroke="#000000" points="582,-378 582,-397 734,-397 734,-378 582,-378"/>
<text text-anchor="middle" x="658" y="-385" font-family="Helvetica,sans-Serif" font-size="10.00" fill="#000000">Cleaner::removeSmallerBlocks</text>
</a>
</g>
</g>
<!-- Node493&#45;&gt;Node504 -->
<g id="edge22" class="edge">
<title>Node493&#45;&gt;Node504</title>
<path fill="none" stroke="#191970" d="M522.7577,-374.7476C538.4312,-376.2255 555.3713,-377.8229 571.7856,-379.3706"/>
<polygon fill="#191970" stroke="#191970" points="571.6375,-382.8721 581.9219,-380.3264 572.2947,-375.903 571.6375,-382.8721"/>
</g>
<!-- Node495 -->
<g id="node12" class="node">
<title>Node495</title>
<g id="a_node12"><a xlink:href="class_cleaner.html#afe42cb635ddd6bd968ae57e378deaac8" target="_top" xlink:title="Copy Constructor &#45; Called by Alignment. ">
<polygon fill="#ffffff" stroke="#000000" points="797.5,-168 797.5,-187 887.5,-187 887.5,-168 797.5,-168"/>
<text text-anchor="middle" x="842.5" y="-175" font-family="Helvetica,sans-Serif" font-size="10.00" fill="#000000">Cleaner::Cleaner</text>
</a>
</g>
</g>
<!-- Node494&#45;&gt;Node495 -->
<g id="edge12" class="edge">
<title>Node494&#45;&gt;Node495</title>
<path fill="none" stroke="#191970" d="M708.4154,-202.9361C732.8903,-198.2932 762.3496,-192.7047 787.4139,-187.9499"/>
<polygon fill="#191970" stroke="#191970" points="788.3265,-191.3393 797.499,-186.0368 787.0218,-184.462 788.3265,-191.3393"/>
</g>
<!-- Node496 -->
<g id="node13" class="node">
<title>Node496</title>
<g id="a_node13"><a xlink:href="classstatistics_1_1_manager.html#aee28602da015edb0880d59ce4c0f855d" target="_top" xlink:title="statistics::Manager\l::Manager">
<polygon fill="#ffffff" stroke="#000000" points="792.5,-206.5 792.5,-236.5 892.5,-236.5 892.5,-206.5 792.5,-206.5"/>
<text text-anchor="start" x="800.5" y="-224.5" font-family="Helvetica,sans-Serif" font-size="10.00" fill="#000000">statistics::Manager</text>
<text text-anchor="middle" x="842.5" y="-213.5" font-family="Helvetica,sans-Serif" font-size="10.00" fill="#000000">::Manager</text>
</a>
</g>
</g>
<!-- Node494&#45;&gt;Node496 -->
<g id="edge13" class="edge">
<title>Node494&#45;&gt;Node496</title>
<path fill="none" stroke="#191970" d="M713.3561,-215.2003C734.9812,-216.2552 759.8448,-217.468 781.9455,-218.5461"/>
<polygon fill="#191970" stroke="#191970" points="782.0554,-222.0556 792.2141,-219.047 782.3965,-215.0639 782.0554,-222.0556"/>
</g>
<!-- Node497 -->
<g id="node14" class="node">
<title>Node497</title>
<g id="a_node14"><a xlink:href="classstatistics_1_1_similarity.html#afecab92459785c7568511217969f6cde" target="_top" xlink:title="statistics::Similarity\l::Similarity">
<polygon fill="#ffffff" stroke="#000000" points="965.5,-206.5 965.5,-236.5 1068.5,-236.5 1068.5,-206.5 965.5,-206.5"/>
<text text-anchor="start" x="973.5" y="-224.5" font-family="Helvetica,sans-Serif" font-size="10.00" fill="#000000">statistics::Similarity</text>
<text text-anchor="middle" x="1017" y="-213.5" font-family="Helvetica,sans-Serif" font-size="10.00" fill="#000000">::Similarity</text>
</a>
</g>
</g>
<!-- Node496&#45;&gt;Node497 -->
<g id="edge14" class="edge">
<title>Node496&#45;&gt;Node497</title>
<path fill="none" stroke="#191970" d="M892.5047,-221.5C912.0621,-221.5 934.693,-221.5 955.2528,-221.5"/>
<polygon fill="#191970" stroke="#191970" points="955.4713,-225.0001 965.4712,-221.5 955.4712,-218.0001 955.4713,-225.0001"/>
</g>
<!-- Node498 -->
<g id="node15" class="node">
<title>Node498</title>
<g id="a_node15"><a xlink:href="classstatistics_1_1_consistency.html#ae39d2aae825d263ac8c3198782b824d2" target="_top" xlink:title="Copy constructor. ">
<polygon fill="#ffffff" stroke="#000000" points="958.5,-157.5 958.5,-187.5 1075.5,-187.5 1075.5,-157.5 958.5,-157.5"/>
<text text-anchor="start" x="966.5" y="-175.5" font-family="Helvetica,sans-Serif" font-size="10.00" fill="#000000">statistics::Consistency</text>
<text text-anchor="middle" x="1017" y="-164.5" font-family="Helvetica,sans-Serif" font-size="10.00" fill="#000000">::Consistency</text>
</a>
</g>
</g>
<!-- Node496&#45;&gt;Node498 -->
<g id="edge15" class="edge">
<title>Node496&#45;&gt;Node498</title>
<path fill="none" stroke="#191970" d="M892.5047,-207.4586C911.5455,-202.1119 933.4998,-195.9471 953.6195,-190.2974"/>
<polygon fill="#191970" stroke="#191970" points="954.6468,-193.6444 963.3282,-187.5712 952.7544,-186.905 954.6468,-193.6444"/>
</g>
<!-- Node499 -->
<g id="node16" class="node">
<title>Node499</title>
<g id="a_node16"><a xlink:href="classstatistics_1_1_gaps.html#a0233d71123523698b0bbf6fe6119b630" target="_top" xlink:title="statistics::Gaps::Gaps">
<polygon fill="#ffffff" stroke="#000000" points="959.5,-256 959.5,-275 1074.5,-275 1074.5,-256 959.5,-256"/>
<text text-anchor="middle" x="1017" y="-263" font-family="Helvetica,sans-Serif" font-size="10.00" fill="#000000">statistics::Gaps::Gaps</text>
</a>
</g>
</g>
<!-- Node496&#45;&gt;Node499 -->
<g id="edge16" class="edge">
<title>Node496&#45;&gt;Node499</title>
<path fill="none" stroke="#191970" d="M892.5047,-234.1086C916.6503,-240.1969 945.481,-247.4666 969.3146,-253.4762"/>
<polygon fill="#191970" stroke="#191970" points="968.6426,-256.9162 979.1949,-255.9675 970.3541,-250.1287 968.6426,-256.9162"/>
</g>
<!-- Node500&#45;&gt;Node500 -->
<g id="edge19" class="edge">
<title>Node500&#45;&gt;Node500</title>
<path fill="none" stroke="#191970" d="M629.6403,-435.2571C615.8436,-444.0653 625.2969,-453.5 658,-453.5 680.4834,-453.5 691.9776,-449.0406 692.4826,-443.3913"/>
<polygon fill="#191970" stroke="#191970" points="695.1701,-441.1417 686.3597,-435.2571 689.5774,-445.3515 695.1701,-441.1417"/>
</g>
<!-- Node501 -->
<g id="node18" class="node">
<title>Node501</title>
<g id="a_node18"><a xlink:href="namespaceutils.html#a5edf67302e70aeb92a9085023954f368" target="_top" xlink:title="Swapping elements method. ">
<polygon fill="#ffffff" stroke="#000000" points="810.5,-416 810.5,-435 874.5,-435 874.5,-416 810.5,-416"/>
<text text-anchor="middle" x="842.5" y="-423" font-family="Helvetica,sans-Serif" font-size="10.00" fill="#000000">utils::swap</text>
</a>
</g>
</g>
<!-- Node500&#45;&gt;Node501 -->
<g id="edge18" class="edge">
<title>Node500&#45;&gt;Node501</title>
<path fill="none" stroke="#191970" d="M698.0338,-425.5C728.0868,-425.5 769.1641,-425.5 799.8359,-425.5"/>
<polygon fill="#191970" stroke="#191970" points="800.2158,-429.0001 810.2158,-425.5 800.2158,-422.0001 800.2158,-429.0001"/>
</g>
<!-- Node503 -->
<g id="node20" class="node">
<title>Node503</title>
<g id="a_node20"><a xlink:href="classreporting_1_1report_manager.html#a75a240a78f31ba479892a9a0f53996fa" target="_top" xlink:title="Method to report a Warning. &#160;It will be displayed if Level &#160;is equal or higher to VerboseLevel::WARNI...">
<polygon fill="#ffffff" stroke="#000000" points="781.5,-255.5 781.5,-285.5 903.5,-285.5 903.5,-255.5 781.5,-255.5"/>
<text text-anchor="start" x="789.5" y="-273.5" font-family="Helvetica,sans-Serif" font-size="10.00" fill="#000000">reporting::reportManager</text>
<text text-anchor="middle" x="842.5" y="-262.5" font-family="Helvetica,sans-Serif" font-size="10.00" fill="#000000">::report</text>
</a>
</g>
</g>
<!-- Node502&#45;&gt;Node503 -->
<g id="edge21" class="edge">
<title>Node502&#45;&gt;Node503</title>
<path fill="none" stroke="#191970" d="M731.1843,-262.0533C744.283,-263.0472 757.9179,-264.0818 770.9694,-265.0722"/>
<polygon fill="#191970" stroke="#191970" points="771.0537,-268.5886 781.2899,-265.8553 771.5834,-261.6086 771.0537,-268.5886"/>
</g>
<!-- Node505&#45;&gt;Node490 -->
<g id="edge26" class="edge">
<title>Node505&#45;&gt;Node490</title>
<path fill="none" stroke="#191970" d="M520.5327,-501.4823C547.4922,-507.3693 578.5152,-514.1435 604.2597,-519.7651"/>
<polygon fill="#191970" stroke="#191970" points="603.6945,-523.2241 614.211,-521.9381 605.188,-516.3853 603.6945,-523.2241"/>
</g>
<!-- Node506 -->
<g id="node23" class="node">
<title>Node506</title>
<g id="a_node23"><a xlink:href="classstatistics_1_1_gaps.html#ad812a924cf5e3f900aad3ed4a9664300" target="_top" xlink:title="statistics::Gaps::isDefined\lWindow">
<polygon fill="#ffffff" stroke="#000000" points="591.5,-472.5 591.5,-502.5 724.5,-502.5 724.5,-472.5 591.5,-472.5"/>
<text text-anchor="start" x="599.5" y="-490.5" font-family="Helvetica,sans-Serif" font-size="10.00" fill="#000000">statistics::Gaps::isDefined</text>
<text text-anchor="middle" x="658" y="-479.5" font-family="Helvetica,sans-Serif" font-size="10.00" fill="#000000">Window</text>
</a>
</g>
</g>
<!-- Node505&#45;&gt;Node506 -->
<g id="edge25" class="edge">
<title>Node505&#45;&gt;Node506</title>
<path fill="none" stroke="#191970" d="M520.5327,-487.5C539.855,-487.5 561.2646,-487.5 581.3221,-487.5"/>
<polygon fill="#191970" stroke="#191970" points="581.3559,-491.0001 591.3559,-487.5 581.3559,-484.0001 581.3559,-491.0001"/>
</g>
<!-- Node508 -->
<g id="node25" class="node">
<title>Node508</title>
<g id="a_node25"><a xlink:href="class_cleaner.html#ab2db8eacfbe545c68fc287c43309e439" target="_top" xlink:title="Method to compute the overlap values. &#160;See Alignment::overlaps. ">
<polygon fill="#ffffff" stroke="#000000" points="389.5,-49.5 389.5,-79.5 523.5,-79.5 523.5,-49.5 389.5,-49.5"/>
<text text-anchor="start" x="397.5" y="-67.5" font-family="Helvetica,sans-Serif" font-size="10.00" fill="#000000">Cleaner::calculateSpurious</text>
<text text-anchor="middle" x="456.5" y="-56.5" font-family="Helvetica,sans-Serif" font-size="10.00" fill="#000000">Vector</text>
</a>
</g>
</g>
<!-- Node507&#45;&gt;Node508 -->
<g id="edge28" class="edge">
<title>Node507&#45;&gt;Node508</title>
<path fill="none" stroke="#191970" d="M331.002,-80.7562C346.5176,-78.7464 363.1357,-76.5938 379.0358,-74.5342"/>
<polygon fill="#191970" stroke="#191970" points="379.8945,-77.9523 389.362,-73.1966 378.9952,-71.0103 379.8945,-77.9523"/>
</g>
<!-- Node512 -->
<g id="node29" class="node">
<title>Node512</title>
<g id="a_node29"><a xlink:href="class_cleaner.html#abe5d03c820a6bee7935b719b9fc7be60" target="_top" xlink:title="Method to trim an alignment based on a minimum sequence overlap threshold. &#160;The method selects a comb...">
<polygon fill="#ffffff" stroke="#000000" points="391,-175 391,-194 522,-194 522,-175 391,-175"/>
<text text-anchor="middle" x="456.5" y="-182" font-family="Helvetica,sans-Serif" font-size="10.00" fill="#000000">Cleaner::cleanOverlapSeq</text>
</a>
</g>
</g>
<!-- Node507&#45;&gt;Node512 -->
<g id="edge32" class="edge">
<title>Node507&#45;&gt;Node512</title>
<path fill="none" stroke="#191970" d="M273.4328,-99.1105C290.8635,-115.4079 328.7539,-148.3616 367,-165.5 372.7077,-168.0577 378.7768,-170.278 384.9613,-172.2043"/>
<polygon fill="#191970" stroke="#191970" points="384.1627,-175.6161 394.7393,-174.9956 386.0842,-168.885 384.1627,-175.6161"/>
</g>
<!-- Node509 -->
<g id="node26" class="node">
<title>Node509</title>
<g id="a_node26"><a xlink:href="class_alignment.html#a3f8f2eafd37c9b5bc275b9889a2de96a" target="_top" xlink:title="Alignment type getter. &#160;&#160;See SequenceTypes. ">
<polygon fill="#ffffff" stroke="#000000" points="770,-45 770,-64 915,-64 915,-45 770,-45"/>
<text text-anchor="middle" x="842.5" y="-52" font-family="Helvetica,sans-Serif" font-size="10.00" fill="#000000">Alignment::getAlignmentType</text>
</a>
</g>
</g>
<!-- Node508&#45;&gt;Node509 -->
<g id="edge29" class="edge">
<title>Node508&#45;&gt;Node509</title>
<path fill="none" stroke="#191970" d="M523.5263,-58.168C542.4186,-56.6528 562.9992,-55.2558 582,-54.5 641.4177,-52.1365 708.5192,-52.2008 759.7373,-52.8226"/>
<polygon fill="#191970" stroke="#191970" points="759.7171,-56.3225 769.7621,-52.9538 759.8088,-49.3231 759.7171,-56.3225"/>
</g>
<!-- Node510 -->
<g id="node27" class="node">
<title>Node510</title>
<g id="a_node27"><a xlink:href="namespaceutils.html#aab52f9515717f06cafd6ab7fe2ebdcef" target="_top" xlink:title="Checks an alignment type. ">
<polygon fill="#ffffff" stroke="#000000" points="951,-45 951,-64 1083,-64 1083,-45 951,-45"/>
<text text-anchor="middle" x="1017" y="-52" font-family="Helvetica,sans-Serif" font-size="10.00" fill="#000000">utils::checkAlignmentType</text>
</a>
</g>
</g>
<!-- Node509&#45;&gt;Node510 -->
<g id="edge30" class="edge">
<title>Node509&#45;&gt;Node510</title>
<path fill="none" stroke="#191970" d="M915.2401,-54.5C923.6172,-54.5 932.1779,-54.5 940.6016,-54.5"/>
<polygon fill="#191970" stroke="#191970" points="940.7871,-58.0001 950.787,-54.5 940.787,-51.0001 940.7871,-58.0001"/>
</g>
<!-- Node511 -->
<g id="node28" class="node">
<title>Node511</title>
<g id="a_node28"><a xlink:href="namespaceutils.html#a6286fde6f4dd58ef0cfa9d55341b72f8" target="_top" xlink:title="utils::toUpper">
<polygon fill="#ffffff" stroke="#000000" points="1119,-45 1119,-64 1194,-64 1194,-45 1119,-45"/>
<text text-anchor="middle" x="1156.5" y="-52" font-family="Helvetica,sans-Serif" font-size="10.00" fill="#000000">utils::toUpper</text>
</a>
</g>
</g>
<!-- Node510&#45;&gt;Node511 -->
<g id="edge31" class="edge">
<title>Node510&#45;&gt;Node511</title>
<path fill="none" stroke="#191970" d="M1083.0733,-54.5C1091.6891,-54.5 1100.3799,-54.5 1108.6179,-54.5"/>
<polygon fill="#191970" stroke="#191970" points="1108.7709,-58.0001 1118.7708,-54.5 1108.7708,-51.0001 1108.7709,-58.0001"/>
</g>
<!-- Node512&#45;&gt;Node494 -->
<g id="edge33" class="edge">
<title>Node512&#45;&gt;Node494</title>
<path fill="none" stroke="#191970" d="M522.1998,-193.6295C544.8076,-196.771 570.1053,-200.2863 592.6826,-203.4236"/>
<polygon fill="#191970" stroke="#191970" points="592.4585,-206.926 602.8451,-204.8358 593.422,-199.9927 592.4585,-206.926"/>
</g>
<!-- Node512&#45;&gt;Node502 -->
<g id="edge34" class="edge">
<title>Node512&#45;&gt;Node502</title>
<path fill="none" stroke="#191970" d="M481.3933,-194.1625C506.6377,-203.8809 546.8815,-219.1536 582,-231.5 588.3389,-233.7285 594.996,-236.0075 601.6246,-238.2383"/>
<polygon fill="#191970" stroke="#191970" points="600.6818,-241.6134 611.2755,-241.4608 602.8988,-234.9738 600.6818,-241.6134"/>
</g>
<!-- Node513&#45;&gt;Node494 -->
<g id="edge36" class="edge">
<title>Node513&#45;&gt;Node494</title>
<path fill="none" stroke="#191970" d="M283.5634,-175.0656C304.0199,-184.2867 336.9327,-197.674 367,-203.5 443.5779,-218.3382 533.5777,-218.5574 592.9895,-216.3907"/>
<polygon fill="#191970" stroke="#191970" points="593.1321,-219.8879 602.985,-215.9931 592.8538,-212.8935 593.1321,-219.8879"/>
</g>
<!-- Node514 -->
<g id="node31" class="node">
<title>Node514</title>
<g id="a_node31"><a xlink:href="class_cleaner.html#a631cf3e2e55c00a995f0f4a51bfe7a2d" target="_top" xlink:title="Method to assign sequences to clusters. Clusters are calculated following this flow: ...">
<polygon fill="#ffffff" stroke="#000000" points="367,-137 367,-156 546,-156 546,-137 367,-137"/>
<text text-anchor="middle" x="456.5" y="-144" font-family="Helvetica,sans-Serif" font-size="10.00" fill="#000000">Cleaner::calculateRepresentativeSeq</text>
</a>
</g>
</g>
<!-- Node513&#45;&gt;Node514 -->
<g id="edge37" class="edge">
<title>Node513&#45;&gt;Node514</title>
<path fill="none" stroke="#191970" d="M320.623,-159.8765C332.1127,-158.7454 344.5014,-157.5258 356.9577,-156.2995"/>
<polygon fill="#191970" stroke="#191970" points="357.3371,-159.7792 366.946,-155.3162 356.6512,-152.8128 357.3371,-159.7792"/>
</g>
<!-- Node515 -->
<g id="node32" class="node">
<title>Node515</title>
<g id="a_node32"><a xlink:href="class_cleaner.html#a65d829578be97c192561a129435b3c58" target="_top" xlink:title="Method to calculate identities between the sequences from the alignment. See Alignment::identities. ">
<polygon fill="#ffffff" stroke="#000000" points="585.5,-64 585.5,-83 730.5,-83 730.5,-64 585.5,-64"/>
<text text-anchor="middle" x="658" y="-71" font-family="Helvetica,sans-Serif" font-size="10.00" fill="#000000">Cleaner::calculateSeqIdentity</text>
</a>
</g>
</g>
<!-- Node514&#45;&gt;Node515 -->
<g id="edge38" class="edge">
<title>Node514&#45;&gt;Node515</title>
<path fill="none" stroke="#191970" d="M522.5399,-136.9423C530.6935,-134.4823 538.713,-131.3892 546,-127.5 565.687,-116.9929 562.5042,-103.3577 582,-92.5 586.1624,-90.1818 590.6088,-88.1423 595.1835,-86.3486"/>
<polygon fill="#191970" stroke="#191970" points="596.4309,-89.6201 604.704,-83.0015 594.1091,-83.0164 596.4309,-89.6201"/>
</g>
<!-- Node516 -->
<g id="node33" class="node">
<title>Node516</title>
<g id="a_node33"><a xlink:href="namespaceutils.html#a36809b7400f2e78685173f8bbcfe0a39" target="_top" xlink:title="Quicksort sorting method. ">
<polygon fill="#ffffff" stroke="#000000" points="618,-140 618,-159 698,-159 698,-140 618,-140"/>
<text text-anchor="middle" x="658" y="-147" font-family="Helvetica,sans-Serif" font-size="10.00" fill="#000000">utils::quicksort</text>
</a>
</g>
</g>
<!-- Node514&#45;&gt;Node516 -->
<g id="edge40" class="edge">
<title>Node514&#45;&gt;Node516</title>
<path fill="none" stroke="#191970" d="M546.0543,-147.8333C567.2501,-148.1489 589.1152,-148.4744 607.8344,-148.7531"/>
<polygon fill="#191970" stroke="#191970" points="607.835,-152.2534 617.886,-148.9028 607.9393,-145.2542 607.835,-152.2534"/>
</g>
<!-- Node518 -->
<g id="node35" class="node">
<title>Node518</title>
<g id="a_node35"><a xlink:href="namespaceutils.html#ac0a8721fef543bec18cec5c90c16faff" target="_top" xlink:title="Removes a determined char from the string. ">
<polygon fill="#ffffff" stroke="#000000" points="600,-102 600,-121 716,-121 716,-102 600,-102"/>
<text text-anchor="middle" x="658" y="-109" font-family="Helvetica,sans-Serif" font-size="10.00" fill="#000000">utils::removeCharacter</text>
</a>
</g>
</g>
<!-- Node514&#45;&gt;Node518 -->
<g id="edge43" class="edge">
<title>Node514&#45;&gt;Node518</title>
<path fill="none" stroke="#191970" d="M511.2946,-136.9823C536.6123,-132.5847 566.8575,-127.3312 593.2905,-122.7399"/>
<polygon fill="#191970" stroke="#191970" points="593.9628,-126.1756 603.2163,-121.0158 592.7648,-119.2788 593.9628,-126.1756"/>
</g>
<!-- Node515&#45;&gt;Node509 -->
<g id="edge39" class="edge">
<title>Node515&#45;&gt;Node509</title>
<path fill="none" stroke="#191970" d="M730.6544,-66.018C740.2342,-65.0314 750.1096,-64.0145 759.8411,-63.0123"/>
<polygon fill="#191970" stroke="#191970" points="760.3229,-66.4813 769.9117,-61.9752 759.6058,-59.5181 760.3229,-66.4813"/>
</g>
<!-- Node516&#45;&gt;Node516 -->
<g id="edge42" class="edge">
<title>Node516&#45;&gt;Node516</title>
<path fill="none" stroke="#191970" d="M629.6403,-159.2571C615.8436,-168.0653 625.2969,-177.5 658,-177.5 680.4834,-177.5 691.9776,-173.0406 692.4826,-167.3913"/>
<polygon fill="#191970" stroke="#191970" points="695.1701,-165.1417 686.3597,-159.2571 689.5774,-169.3515 695.1701,-165.1417"/>
</g>
<!-- Node517 -->
<g id="node34" class="node">
<title>Node517</title>
<g id="a_node34"><a xlink:href="namespaceutils.html#a7ef87e474cc361a3cdf4e4f4227afb40" target="_top" xlink:title="Swaps double pointers. ">
<polygon fill="#ffffff" stroke="#000000" points="810.5,-130 810.5,-149 874.5,-149 874.5,-130 810.5,-130"/>
<text text-anchor="middle" x="842.5" y="-137" font-family="Helvetica,sans-Serif" font-size="10.00" fill="#000000">utils::swap</text>
</a>
</g>
</g>
<!-- Node516&#45;&gt;Node517 -->
<g id="edge41" class="edge">
<title>Node516&#45;&gt;Node517</title>
<path fill="none" stroke="#191970" d="M698.0338,-147.3301C728.0868,-145.7013 769.1641,-143.4748 799.8359,-141.8124"/>
<polygon fill="#191970" stroke="#191970" points="800.4199,-145.286 810.2158,-141.2498 800.041,-138.2963 800.4199,-145.286"/>
</g>
<!-- Node519&#45;&gt;Node515 -->
<g id="edge45" class="edge">
<title>Node519&#45;&gt;Node515</title>
<path fill="none" stroke="#191970" d="M511.2946,-98.9823C536.6123,-94.5847 566.8575,-89.3312 593.2905,-84.7399"/>
<polygon fill="#191970" stroke="#191970" points="593.9628,-88.1756 603.2163,-83.0158 592.7648,-81.2788 593.9628,-88.1756"/>
</g>
<!-- Node519&#45;&gt;Node516 -->
<g id="edge46" class="edge">
<title>Node519&#45;&gt;Node516</title>
<path fill="none" stroke="#191970" d="M503.2346,-118.0093C534.6017,-124.3917 575.8861,-132.792 607.9259,-139.3112"/>
<polygon fill="#191970" stroke="#191970" points="607.4822,-142.7926 617.9793,-141.3568 608.878,-135.9331 607.4822,-142.7926"/>
</g>
<!-- Node519&#45;&gt;Node518 -->
<g id="edge47" class="edge">
<title>Node519&#45;&gt;Node518</title>
<path fill="none" stroke="#191970" d="M529.2461,-109.5831C549.0213,-109.8775 570.3599,-110.1952 589.8694,-110.4856"/>
<polygon fill="#191970" stroke="#191970" points="589.8358,-113.9854 599.8869,-110.6348 589.9401,-106.9862 589.8358,-113.9854"/>
</g>
<!-- Node521 -->
<g id="node38" class="node">
<title>Node521</title>
<g id="a_node38"><a xlink:href="classreporting_1_1report_manager.html#a916ee4d499edcd1b3b38398face3df3d" target="_top" xlink:title="Method to report an Info message. &#160;It will be displayed if Level &#160;is equal or higher to VerboseLevel:...">
<polygon fill="#ffffff" stroke="#000000" points="395.5,-.5 395.5,-30.5 517.5,-30.5 517.5,-.5 395.5,-.5"/>
<text text-anchor="start" x="403.5" y="-18.5" font-family="Helvetica,sans-Serif" font-size="10.00" fill="#000000">reporting::reportManager</text>
<text text-anchor="middle" x="456.5" y="-7.5" font-family="Helvetica,sans-Serif" font-size="10.00" fill="#000000">::report</text>
</a>
</g>
</g>
<!-- Node520&#45;&gt;Node521 -->
<g id="edge49" class="edge">
<title>Node520&#45;&gt;Node521</title>
<path fill="none" stroke="#191970" d="M329.1103,-33.9814C347.1824,-31.3596 366.8702,-28.5033 385.2447,-25.8376"/>
<polygon fill="#191970" stroke="#191970" points="385.9051,-29.2785 395.299,-24.3789 384.9,-22.351 385.9051,-29.2785"/>
</g>
<!-- Node522&#45;&gt;Node494 -->
<g id="edge51" class="edge">
<title>Node522&#45;&gt;Node494</title>
<path fill="none" stroke="#191970" d="M496.7922,-250.9018C528.7787,-243.2823 573.6666,-232.5893 607.9557,-224.4212"/>
<polygon fill="#191970" stroke="#191970" points="608.8609,-227.8036 617.7776,-222.0815 607.2387,-220.9942 608.8609,-227.8036"/>
</g>
<!-- Node522&#45;&gt;Node502 -->
<g id="edge52" class="edge">
<title>Node522&#45;&gt;Node502</title>
<path fill="none" stroke="#191970" d="M525.2813,-259.1346C541.1429,-258.8197 558.1839,-258.4815 574.5921,-258.1557"/>
<polygon fill="#191970" stroke="#191970" points="574.7821,-261.6528 584.7106,-257.9549 574.6431,-254.6541 574.7821,-261.6528"/>
</g>
<!-- Node523 -->
<g id="node40" class="node">
<title>Node523</title>
<g id="a_node40"><a xlink:href="class_alignment.html#a0b32dd76a1a98278068a7b65797ae6b9" target="_top" xlink:title="Updates the sequence number and residue number based on saveResidues and saveSequences. ">
<polygon fill="#ffffff" stroke="#000000" points="586,-290.5 586,-320.5 730,-320.5 730,-290.5 586,-290.5"/>
<text text-anchor="start" x="594" y="-308.5" font-family="Helvetica,sans-Serif" font-size="10.00" fill="#000000">Alignment::updateSequences</text>
<text text-anchor="middle" x="658" y="-297.5" font-family="Helvetica,sans-Serif" font-size="10.00" fill="#000000">AndResiduesNums</text>
</a>
</g>
</g>
<!-- Node522&#45;&gt;Node523 -->
<g id="edge53" class="edge">
<title>Node522&#45;&gt;Node523</title>
<path fill="none" stroke="#191970" d="M499.233,-270.0433C522.8974,-275.3282 553.0398,-282.0598 580.6888,-288.2345"/>
<polygon fill="#191970" stroke="#191970" points="580.2234,-291.7167 590.7459,-290.4805 581.7492,-284.885 580.2234,-291.7167"/>
</g>
</g>
</svg>
