<?xml version="1.0" encoding="UTF-8" standalone="no"?>
<!DOCTYPE svg PUBLIC "-//W3C//DTD SVG 1.1//EN"
 "http://www.w3.org/Graphics/SVG/1.1/DTD/svg11.dtd">
<!-- Generated by graphviz version 2.40.1 (20161225.0304)
 -->
<!-- Title: statistics::Manager::setSimilarityMatrix Pages: 1 -->
<svg width="364pt" height="88pt"
 viewBox="0.00 0.00 364.00 88.00" xmlns="http://www.w3.org/2000/svg" xmlns:xlink="http://www.w3.org/1999/xlink">
<g id="graph0" class="graph" transform="scale(1 1) rotate(0) translate(4 84)">
<title>statistics::Manager::setSimilarityMatrix</title>
<polygon fill="#ffffff" stroke="transparent" points="-4,4 -4,-84 360,-84 360,4 -4,4"/>
<!-- Node211 -->
<g id="node1" class="node">
<title>Node211</title>
<polygon fill="#bfbfbf" stroke="#000000" points="0,-24.5 0,-54.5 104,-54.5 104,-24.5 0,-24.5"/>
<text text-anchor="start" x="8" y="-42.5" font-family="Helvetica,sans-Serif" font-size="10.00" fill="#000000">statistics::Manager</text>
<text text-anchor="middle" x="52" y="-31.5" font-family="Helvetica,sans-Serif" font-size="10.00" fill="#000000">::setSimilarityMatrix</text>
</g>
<!-- Node212 -->
<g id="node2" class="node">
<title>Node212</title>
<g id="a_node2"><a xlink:href="classstatistics_1_1_similarity.html#a95126bfd6b0ed22c828a6ab780096a12" target="_top" xlink:title="Stores a valid similarity matrix point to use. ">
<polygon fill="#ffffff" stroke="#000000" points="140,-49.5 140,-79.5 244,-79.5 244,-49.5 140,-49.5"/>
<text text-anchor="start" x="148" y="-67.5" font-family="Helvetica,sans-Serif" font-size="10.00" fill="#000000">statistics::Similarity</text>
<text text-anchor="middle" x="192" y="-56.5" font-family="Helvetica,sans-Serif" font-size="10.00" fill="#000000">::setSimilarityMatrix</text>
</a>
</g>
</g>
<!-- Node211&#45;&gt;Node212 -->
<g id="edge1" class="edge">
<title>Node211&#45;&gt;Node212</title>
<path fill="none" stroke="#191970" d="M104.1308,-48.8091C112.5124,-50.3058 121.2603,-51.8679 129.8486,-53.4015"/>
<polygon fill="#191970" stroke="#191970" points="129.3661,-56.8707 139.8256,-55.1831 130.5966,-49.9797 129.3661,-56.8707"/>
</g>
<!-- Node213 -->
<g id="node3" class="node">
<title>Node213</title>
<g id="a_node3"><a xlink:href="classstatistics_1_1_similarity.html#ada0548f0ac960fbbb3a3192f83c42189" target="_top" xlink:title="Constructor without any parameters. ">
<polygon fill="#ffffff" stroke="#000000" points="140.5,-.5 140.5,-30.5 243.5,-30.5 243.5,-.5 140.5,-.5"/>
<text text-anchor="start" x="148.5" y="-18.5" font-family="Helvetica,sans-Serif" font-size="10.00" fill="#000000">statistics::Similarity</text>
<text text-anchor="middle" x="192" y="-7.5" font-family="Helvetica,sans-Serif" font-size="10.00" fill="#000000">::Similarity</text>
</a>
</g>
</g>
<!-- Node211&#45;&gt;Node213 -->
<g id="edge2" class="edge">
<title>Node211&#45;&gt;Node213</title>
<path fill="none" stroke="#191970" d="M104.1308,-30.5633C112.6242,-29.1073 121.4936,-27.5868 130.192,-26.0957"/>
<polygon fill="#191970" stroke="#191970" points="131.0269,-29.5037 140.2918,-24.3643 129.8441,-22.6043 131.0269,-29.5037"/>
</g>
<!-- Node214 -->
<g id="node4" class="node">
<title>Node214</title>
<g id="a_node4"><a xlink:href="namespaceutils.html#a54839bee4863694819d990565e1e92cd" target="_top" xlink:title="Vector initialization. ">
<polygon fill="#ffffff" stroke="#000000" points="280,-6 280,-25 356,-25 356,-6 280,-6"/>
<text text-anchor="middle" x="318" y="-13" font-family="Helvetica,sans-Serif" font-size="10.00" fill="#000000">utils::initlVect</text>
</a>
</g>
</g>
<!-- Node213&#45;&gt;Node214 -->
<g id="edge3" class="edge">
<title>Node213&#45;&gt;Node214</title>
<path fill="none" stroke="#191970" d="M243.6126,-15.5C252.213,-15.5 261.1062,-15.5 269.6222,-15.5"/>
<polygon fill="#191970" stroke="#191970" points="269.7777,-19.0001 279.7777,-15.5 269.7776,-12.0001 269.7777,-19.0001"/>
</g>
</g>
</svg>
