<?xml version="1.0" encoding="UTF-8" standalone="no"?>
<!DOCTYPE svg PUBLIC "-//W3C//DTD SVG 1.1//EN"
 "http://www.w3.org/Graphics/SVG/1.1/DTD/svg11.dtd">
<!-- Generated by graphviz version 2.40.1 (20161225.0304)
 -->
<!-- Title: Cleaner::cleanCompareFile Pages: 1 -->
<svg width="810pt" height="290pt"
 viewBox="0.00 0.00 810.00 289.50" xmlns="http://www.w3.org/2000/svg" xmlns:xlink="http://www.w3.org/1999/xlink">
<g id="graph0" class="graph" transform="scale(1 1) rotate(0) translate(4 285.5)">
<title>Cleaner::cleanCompareFile</title>
<polygon fill="#ffffff" stroke="transparent" points="-4,4 -4,-285.5 806,-285.5 806,4 -4,4"/>
<!-- Node264 -->
<g id="node1" class="node">
<title>Node264</title>
<polygon fill="#bfbfbf" stroke="#000000" points="0,-75.5 0,-94.5 135,-94.5 135,-75.5 0,-75.5"/>
<text text-anchor="middle" x="67.5" y="-82.5" font-family="Helvetica,sans-Serif" font-size="10.00" fill="#000000">Cleaner::cleanCompareFile</text>
</g>
<!-- Node265 -->
<g id="node2" class="node">
<title>Node265</title>
<g id="a_node2"><a xlink:href="class_cleaner.html#a0e1e26d09055de52208ac74adf93b760" target="_top" xlink:title="Method to clean an alignment. &#160;It removes sequences that fall behind a certain threshold. &#160;The function detects if it would clean too many sequences, and relaxes the threshold until we have enough sequences to achieve the given percentage desired to keep. &#160;To achieve this, the method starts in the middle of the sequence and, alternating sides, adds column one by one. ">
<polygon fill="#ffffff" stroke="#000000" points="171,-133 171,-163 303,-163 303,-133 171,-133"/>
<text text-anchor="start" x="179" y="-151" font-family="Helvetica,sans-Serif" font-size="10.00" fill="#000000">Cleaner::cleanByCutValue</text>
<text text-anchor="middle" x="237" y="-140" font-family="Helvetica,sans-Serif" font-size="10.00" fill="#000000">FallBehind</text>
</a>
</g>
</g>
<!-- Node264&#45;&gt;Node265 -->
<g id="edge1" class="edge">
<title>Node264&#45;&gt;Node265</title>
<path fill="none" stroke="#191970" d="M93.2434,-94.5683C117.9794,-103.7622 156.0289,-117.9046 186.77,-129.3304"/>
<polygon fill="#191970" stroke="#191970" points="185.875,-132.7317 196.4679,-132.935 188.3138,-126.1702 185.875,-132.7317"/>
</g>
<!-- Node276 -->
<g id="node13" class="node">
<title>Node276</title>
<g id="a_node13"><a xlink:href="namespaceutils.html#a13e9bd8b05840270eda57450710273c2" target="_top" xlink:title="Float vector copying. ">
<polygon fill="#ffffff" stroke="#000000" points="196,-94.5 196,-113.5 278,-113.5 278,-94.5 196,-94.5"/>
<text text-anchor="middle" x="237" y="-101.5" font-family="Helvetica,sans-Serif" font-size="10.00" fill="#000000">utils::copyVect</text>
</a>
</g>
</g>
<!-- Node264&#45;&gt;Node276 -->
<g id="edge12" class="edge">
<title>Node264&#45;&gt;Node276</title>
<path fill="none" stroke="#191970" d="M135.4655,-92.6185C152.2381,-94.4987 169.9244,-96.4812 185.7525,-98.2554"/>
<polygon fill="#191970" stroke="#191970" points="185.5296,-101.7523 195.8572,-99.3881 186.3094,-94.7959 185.5296,-101.7523"/>
</g>
<!-- Node277 -->
<g id="node14" class="node">
<title>Node277</title>
<g id="a_node14"><a xlink:href="namespaceutils.html#ac2368c54440c2ea34d009fc73ed0b400" target="_top" xlink:title="Minimum of two numbers method. ">
<polygon fill="#ffffff" stroke="#000000" points="209,-56.5 209,-75.5 265,-75.5 265,-56.5 209,-56.5"/>
<text text-anchor="middle" x="237" y="-63.5" font-family="Helvetica,sans-Serif" font-size="10.00" fill="#000000">utils::min</text>
</a>
</g>
</g>
<!-- Node264&#45;&gt;Node277 -->
<g id="edge13" class="edge">
<title>Node264&#45;&gt;Node277</title>
<path fill="none" stroke="#191970" d="M135.4655,-77.3815C156.9691,-74.971 179.9746,-72.3922 198.6406,-70.2999"/>
<polygon fill="#191970" stroke="#191970" points="199.2575,-73.7527 208.8054,-69.1605 198.4777,-66.7963 199.2575,-73.7527"/>
</g>
<!-- Node278 -->
<g id="node15" class="node">
<title>Node278</title>
<g id="a_node15"><a xlink:href="namespaceutils.html#a73f038c379c13d23e3220afaa14f9983" target="_top" xlink:title="Quicksort sorting method. ">
<polygon fill="#ffffff" stroke="#000000" points="197,-.5 197,-19.5 277,-19.5 277,-.5 197,-.5"/>
<text text-anchor="middle" x="237" y="-7.5" font-family="Helvetica,sans-Serif" font-size="10.00" fill="#000000">utils::quicksort</text>
</a>
</g>
</g>
<!-- Node264&#45;&gt;Node278 -->
<g id="edge14" class="edge">
<title>Node264&#45;&gt;Node278</title>
<path fill="none" stroke="#191970" d="M89.3122,-75.3486C118.9343,-62.2415 172.0573,-38.7357 205.8655,-23.7763"/>
<polygon fill="#191970" stroke="#191970" points="207.543,-26.8614 215.2716,-19.6144 204.7105,-20.4601 207.543,-26.8614"/>
</g>
<!-- Node266 -->
<g id="node3" class="node">
<title>Node266</title>
<g id="a_node3"><a xlink:href="class_alignment.html#aeeee94970a445f32aa79646c249befef" target="_top" xlink:title="Copy Constructor. &#160;&#160;The copy constructor does not make a copy of all structures present on the origin...">
<polygon fill="#ffffff" stroke="#000000" points="360,-207.5 360,-226.5 470,-226.5 470,-207.5 360,-207.5"/>
<text text-anchor="middle" x="415" y="-214.5" font-family="Helvetica,sans-Serif" font-size="10.00" fill="#000000">Alignment::Alignment</text>
</a>
</g>
</g>
<!-- Node265&#45;&gt;Node266 -->
<g id="edge2" class="edge">
<title>Node265&#45;&gt;Node266</title>
<path fill="none" stroke="#191970" d="M266.8462,-163.1949C286.9186,-173.0529 314.1528,-185.7387 339,-195 348.2662,-198.4538 358.3312,-201.7049 368.0128,-204.5942"/>
<polygon fill="#191970" stroke="#191970" points="367.3345,-208.0417 377.9138,-207.4674 369.2855,-201.319 367.3345,-208.0417"/>
</g>
<!-- Node272 -->
<g id="node9" class="node">
<title>Node272</title>
<g id="a_node9"><a xlink:href="class_cleaner.html#ada8ad076dd037f00ae3f4fd17762641f" target="_top" xlink:title="Method that identifies and removes columns and sequences composed only by gaps. ">
<polygon fill="#ffffff" stroke="#000000" points="342,-155 342,-185 488,-185 488,-155 342,-155"/>
<text text-anchor="start" x="350" y="-173" font-family="Helvetica,sans-Serif" font-size="10.00" fill="#000000">Cleaner::removeAllGapsSeqs</text>
<text text-anchor="middle" x="415" y="-162" font-family="Helvetica,sans-Serif" font-size="10.00" fill="#000000">AndCols</text>
</a>
</g>
</g>
<!-- Node265&#45;&gt;Node272 -->
<g id="edge8" class="edge">
<title>Node265&#45;&gt;Node272</title>
<path fill="none" stroke="#191970" d="M303.0277,-156.1607C312.4269,-157.3224 322.1931,-158.5295 331.8665,-159.7251"/>
<polygon fill="#191970" stroke="#191970" points="331.5404,-163.2113 341.8943,-160.9645 332.3991,-156.2642 331.5404,-163.2113"/>
</g>
<!-- Node274 -->
<g id="node11" class="node">
<title>Node274</title>
<g id="a_node11"><a xlink:href="class_cleaner.html#a5620f6a511bc0ac844c71b2de3ae1fdb" target="_top" xlink:title="Method to remove blocks of columns with no rejected residue smaller than a given size. ">
<polygon fill="#ffffff" stroke="#000000" points="339,-116.5 339,-135.5 491,-135.5 491,-116.5 339,-116.5"/>
<text text-anchor="middle" x="415" y="-123.5" font-family="Helvetica,sans-Serif" font-size="10.00" fill="#000000">Cleaner::removeSmallerBlocks</text>
</a>
</g>
</g>
<!-- Node265&#45;&gt;Node274 -->
<g id="edge10" class="edge">
<title>Node265&#45;&gt;Node274</title>
<path fill="none" stroke="#191970" d="M303.0277,-139.8393C311.419,-138.8021 320.1027,-137.7289 328.7518,-136.6599"/>
<polygon fill="#191970" stroke="#191970" points="329.3744,-140.1097 338.8696,-135.4094 328.5157,-133.1625 329.3744,-140.1097"/>
</g>
<!-- Node275 -->
<g id="node12" class="node">
<title>Node275</title>
<g id="a_node12"><a xlink:href="namespaceutils.html#ad50731aeb3c8f79ed8372516210dfc9d" target="_top" xlink:title="Round double to integer method. ">
<polygon fill="#ffffff" stroke="#000000" points="377,-78.5 377,-97.5 453,-97.5 453,-78.5 377,-78.5"/>
<text text-anchor="middle" x="415" y="-85.5" font-family="Helvetica,sans-Serif" font-size="10.00" fill="#000000">utils::roundInt</text>
</a>
</g>
</g>
<!-- Node265&#45;&gt;Node275 -->
<g id="edge11" class="edge">
<title>Node265&#45;&gt;Node275</title>
<path fill="none" stroke="#191970" d="M277.9807,-132.886C286.2947,-129.7051 294.9543,-126.3087 303,-123 319.1933,-116.3407 322.4448,-112.7002 339,-107 347.8771,-103.9435 357.493,-101.1538 366.8036,-98.7093"/>
<polygon fill="#191970" stroke="#191970" points="367.9014,-102.0419 376.7375,-96.196 366.1844,-95.2558 367.9014,-102.0419"/>
</g>
<!-- Node267 -->
<g id="node4" class="node">
<title>Node267</title>
<g id="a_node4"><a xlink:href="class_cleaner.html#afe42cb635ddd6bd968ae57e378deaac8" target="_top" xlink:title="Copy Constructor &#45; Called by Alignment. ">
<polygon fill="#ffffff" stroke="#000000" points="543,-251.5 543,-270.5 633,-270.5 633,-251.5 543,-251.5"/>
<text text-anchor="middle" x="588" y="-258.5" font-family="Helvetica,sans-Serif" font-size="10.00" fill="#000000">Cleaner::Cleaner</text>
</a>
</g>
</g>
<!-- Node266&#45;&gt;Node267 -->
<g id="edge3" class="edge">
<title>Node266&#45;&gt;Node267</title>
<path fill="none" stroke="#191970" d="M452.5384,-226.5473C478.3825,-233.1204 512.9211,-241.9048 540.6541,-248.9583"/>
<polygon fill="#191970" stroke="#191970" points="539.9806,-252.3983 550.5348,-251.4713 541.7061,-245.6143 539.9806,-252.3983"/>
</g>
<!-- Node268 -->
<g id="node5" class="node">
<title>Node268</title>
<g id="a_node5"><a xlink:href="classstatistics_1_1_manager.html#aee28602da015edb0880d59ce4c0f855d" target="_top" xlink:title="statistics::Manager\l::Manager">
<polygon fill="#ffffff" stroke="#000000" points="538,-202 538,-232 638,-232 638,-202 538,-202"/>
<text text-anchor="start" x="546" y="-220" font-family="Helvetica,sans-Serif" font-size="10.00" fill="#000000">statistics::Manager</text>
<text text-anchor="middle" x="588" y="-209" font-family="Helvetica,sans-Serif" font-size="10.00" fill="#000000">::Manager</text>
</a>
</g>
</g>
<!-- Node266&#45;&gt;Node268 -->
<g id="edge4" class="edge">
<title>Node266&#45;&gt;Node268</title>
<path fill="none" stroke="#191970" d="M470.2139,-217C488.5697,-217 509.0977,-217 527.8102,-217"/>
<polygon fill="#191970" stroke="#191970" points="527.9939,-220.5001 537.9939,-217 527.9939,-213.5001 527.9939,-220.5001"/>
</g>
<!-- Node269 -->
<g id="node6" class="node">
<title>Node269</title>
<g id="a_node6"><a xlink:href="classstatistics_1_1_similarity.html#afecab92459785c7568511217969f6cde" target="_top" xlink:title="statistics::Similarity\l::Similarity">
<polygon fill="#ffffff" stroke="#000000" points="692,-251 692,-281 795,-281 795,-251 692,-251"/>
<text text-anchor="start" x="700" y="-269" font-family="Helvetica,sans-Serif" font-size="10.00" fill="#000000">statistics::Similarity</text>
<text text-anchor="middle" x="743.5" y="-258" font-family="Helvetica,sans-Serif" font-size="10.00" fill="#000000">::Similarity</text>
</a>
</g>
</g>
<!-- Node268&#45;&gt;Node269 -->
<g id="edge5" class="edge">
<title>Node268&#45;&gt;Node269</title>
<path fill="none" stroke="#191970" d="M635.924,-232.1014C651.8131,-237.1083 669.6611,-242.7324 686.1839,-247.939"/>
<polygon fill="#191970" stroke="#191970" points="685.1447,-251.2811 695.7343,-250.9484 687.2485,-244.6047 685.1447,-251.2811"/>
</g>
<!-- Node270 -->
<g id="node7" class="node">
<title>Node270</title>
<g id="a_node7"><a xlink:href="classstatistics_1_1_consistency.html#ae39d2aae825d263ac8c3198782b824d2" target="_top" xlink:title="Copy constructor. ">
<polygon fill="#ffffff" stroke="#000000" points="685,-202 685,-232 802,-232 802,-202 685,-202"/>
<text text-anchor="start" x="693" y="-220" font-family="Helvetica,sans-Serif" font-size="10.00" fill="#000000">statistics::Consistency</text>
<text text-anchor="middle" x="743.5" y="-209" font-family="Helvetica,sans-Serif" font-size="10.00" fill="#000000">::Consistency</text>
</a>
</g>
</g>
<!-- Node268&#45;&gt;Node270 -->
<g id="edge6" class="edge">
<title>Node268&#45;&gt;Node270</title>
<path fill="none" stroke="#191970" d="M638.0571,-217C649.7101,-217 662.3177,-217 674.6248,-217"/>
<polygon fill="#191970" stroke="#191970" points="674.8645,-220.5001 684.8645,-217 674.8644,-213.5001 674.8645,-220.5001"/>
</g>
<!-- Node271 -->
<g id="node8" class="node">
<title>Node271</title>
<g id="a_node8"><a xlink:href="classstatistics_1_1_gaps.html#a0233d71123523698b0bbf6fe6119b630" target="_top" xlink:title="statistics::Gaps::Gaps">
<polygon fill="#ffffff" stroke="#000000" points="686,-163.5 686,-182.5 801,-182.5 801,-163.5 686,-163.5"/>
<text text-anchor="middle" x="743.5" y="-170.5" font-family="Helvetica,sans-Serif" font-size="10.00" fill="#000000">statistics::Gaps::Gaps</text>
</a>
</g>
</g>
<!-- Node268&#45;&gt;Node271 -->
<g id="edge7" class="edge">
<title>Node268&#45;&gt;Node271</title>
<path fill="none" stroke="#191970" d="M638.0571,-202.8359C658.017,-197.1881 680.7777,-190.7478 700.0314,-185.2998"/>
<polygon fill="#191970" stroke="#191970" points="701.0776,-188.6413 709.7468,-182.5507 699.1717,-181.9057 701.0776,-188.6413"/>
</g>
<!-- Node273 -->
<g id="node10" class="node">
<title>Node273</title>
<g id="a_node10"><a xlink:href="classreporting_1_1report_manager.html#a75a240a78f31ba479892a9a0f53996fa" target="_top" xlink:title="Method to report a Warning. &#160;It will be displayed if Level &#160;is equal or higher to VerboseLevel::WARNI...">
<polygon fill="#ffffff" stroke="#000000" points="527,-153 527,-183 649,-183 649,-153 527,-153"/>
<text text-anchor="start" x="535" y="-171" font-family="Helvetica,sans-Serif" font-size="10.00" fill="#000000">reporting::reportManager</text>
<text text-anchor="middle" x="588" y="-160" font-family="Helvetica,sans-Serif" font-size="10.00" fill="#000000">::report</text>
</a>
</g>
</g>
<!-- Node272&#45;&gt;Node273 -->
<g id="edge9" class="edge">
<title>Node272&#45;&gt;Node273</title>
<path fill="none" stroke="#191970" d="M488.1168,-169.1547C497.598,-169.0451 507.299,-168.933 516.7492,-168.8237"/>
<polygon fill="#191970" stroke="#191970" points="516.9242,-172.322 526.8831,-168.7066 516.8432,-165.3225 516.9242,-172.322"/>
</g>
<!-- Node278&#45;&gt;Node278 -->
<g id="edge16" class="edge">
<title>Node278&#45;&gt;Node278</title>
<path fill="none" stroke="#191970" d="M211.1063,-19.7571C198.5094,-28.5653 207.1406,-38 237,-38 257.0618,-38 267.5408,-33.741 268.4371,-28.2746"/>
<polygon fill="#191970" stroke="#191970" points="271.2819,-26.2291 262.8937,-19.7571 265.415,-30.0475 271.2819,-26.2291"/>
</g>
<!-- Node279 -->
<g id="node16" class="node">
<title>Node279</title>
<g id="a_node16"><a xlink:href="namespaceutils.html#a3377ecde55631d1bbc4956e5923b7469" target="_top" xlink:title="Swapping elements method. ">
<polygon fill="#ffffff" stroke="#000000" points="383,-.5 383,-19.5 447,-19.5 447,-.5 383,-.5"/>
<text text-anchor="middle" x="415" y="-7.5" font-family="Helvetica,sans-Serif" font-size="10.00" fill="#000000">utils::swap</text>
</a>
</g>
</g>
<!-- Node278&#45;&gt;Node279 -->
<g id="edge15" class="edge">
<title>Node278&#45;&gt;Node279</title>
<path fill="none" stroke="#191970" d="M277.391,-10C305.8021,-10 343.7466,-10 372.5947,-10"/>
<polygon fill="#191970" stroke="#191970" points="372.7769,-13.5001 382.7768,-10 372.7768,-6.5001 372.7769,-13.5001"/>
</g>
</g>
</svg>
