<?xml version="1.0" encoding="UTF-8" standalone="no"?>
<!DOCTYPE svg PUBLIC "-//W3C//DTD SVG 1.1//EN"
 "http://www.w3.org/Graphics/SVG/1.1/DTD/svg11.dtd">
<!-- Generated by graphviz version 2.40.1 (20161225.0304)
 -->
<!-- Title: reporting::reportManager::report Pages: 1 -->
<svg width="1099pt" height="171pt"
 viewBox="0.00 0.00 1099.00 170.50" xmlns="http://www.w3.org/2000/svg" xmlns:xlink="http://www.w3.org/1999/xlink">
<g id="graph0" class="graph" transform="scale(1 1) rotate(0) translate(4 166.5)">
<title>reporting::reportManager::report</title>
<polygon fill="#ffffff" stroke="transparent" points="-4,4 -4,-166.5 1095,-166.5 1095,4 -4,4"/>
<!-- Node181 -->
<g id="node1" class="node">
<title>Node181</title>
<polygon fill="#bfbfbf" stroke="#000000" points="0,-63 0,-93 122,-93 122,-63 0,-63"/>
<text text-anchor="start" x="8" y="-81" font-family="Helvetica,sans-Serif" font-size="10.00" fill="#000000">reporting::reportManager</text>
<text text-anchor="middle" x="61" y="-70" font-family="Helvetica,sans-Serif" font-size="10.00" fill="#000000">::report</text>
</g>
<!-- Node182 -->
<g id="node2" class="node">
<title>Node182</title>
<g id="a_node2"><a xlink:href="classtrim_al_manager.html#ab6003417954bc032c4f82892d0f38a16" target="_top" xlink:title="Method to check and warn if windowsize and compareset has been given. ">
<polygon fill="#ffffff" stroke="#000000" points="330.5,-132 330.5,-162 487.5,-162 487.5,-132 330.5,-132"/>
<text text-anchor="start" x="338.5" y="-150" font-family="Helvetica,sans-Serif" font-size="10.00" fill="#000000">trimAlManager::check</text>
<text text-anchor="middle" x="409" y="-139" font-family="Helvetica,sans-Serif" font-size="10.00" fill="#000000">_compareset_window_argument</text>
</a>
</g>
</g>
<!-- Node181&#45;&gt;Node182 -->
<g id="edge1" class="edge">
<title>Node181&#45;&gt;Node182</title>
<path fill="none" stroke="#191970" d="M92.6013,-98.4022C110.9422,-109.1682 134.9189,-121.4691 158,-128 214.242,-143.914 280.2299,-148.3855 330.4278,-149.027"/>
<polygon fill="#191970" stroke="#191970" points="94.1913,-95.274 83.8194,-93.1121 90.5793,-101.2702 94.1913,-95.274"/>
</g>
<!-- Node186 -->
<g id="node6" class="node">
<title>Node186</title>
<g id="a_node6"><a xlink:href="class_alignment.html#a3fd2333ea7098410cb271b795f482822" target="_top" xlink:title="Method to check if the CDS file is correct. Based on nature of residues: DNA/RNA (Most of the residue...">
<polygon fill="#ffffff" stroke="#000000" points="161,-88 161,-118 290,-118 290,-88 161,-88"/>
<text text-anchor="start" x="169" y="-106" font-family="Helvetica,sans-Serif" font-size="10.00" fill="#000000">Alignment::prepareCoding</text>
<text text-anchor="middle" x="225.5" y="-95" font-family="Helvetica,sans-Serif" font-size="10.00" fill="#000000">Sequence</text>
</a>
</g>
</g>
<!-- Node181&#45;&gt;Node186 -->
<g id="edge5" class="edge">
<title>Node181&#45;&gt;Node186</title>
<path fill="none" stroke="#191970" d="M132.424,-88.8547C141.8894,-90.2932 151.5495,-91.7613 160.891,-93.181"/>
<polygon fill="#191970" stroke="#191970" points="132.6661,-85.3514 122.2537,-87.3091 131.6143,-92.2719 132.6661,-85.3514"/>
</g>
<!-- Node188 -->
<g id="node8" class="node">
<title>Node188</title>
<g id="a_node8"><a xlink:href="classreporting_1_1report_manager.html#a2ba6b65c5e44d1c0a336fe62f3ee3c5a" target="_top" xlink:title="Method to print all Info, Warning and Error codes and their respective message. This method is useful...">
<polygon fill="#ffffff" stroke="#000000" points="158.5,-39 158.5,-69 292.5,-69 292.5,-39 158.5,-39"/>
<text text-anchor="start" x="166.5" y="-57" font-family="Helvetica,sans-Serif" font-size="10.00" fill="#000000">reporting::reportManager</text>
<text text-anchor="middle" x="225.5" y="-46" font-family="Helvetica,sans-Serif" font-size="10.00" fill="#000000">::PrintCodesAndMessages</text>
</a>
</g>
</g>
<!-- Node181&#45;&gt;Node188 -->
<g id="edge8" class="edge">
<title>Node181&#45;&gt;Node188</title>
<path fill="none" stroke="#191970" d="M132.319,-67.5948C140.9775,-66.3316 149.8005,-65.0443 158.3951,-63.7904"/>
<polygon fill="#191970" stroke="#191970" points="131.6437,-64.1562 122.2537,-69.0633 132.6543,-71.0829 131.6437,-64.1562"/>
</g>
<!-- Node189 -->
<g id="node9" class="node">
<title>Node189</title>
<g id="a_node9"><a xlink:href="class_cleaner.html#a0f7c2dbf2042f87df31f6845c4fc3b6c" target="_top" xlink:title="Cleaner::removeDuplicates">
<polygon fill="#ffffff" stroke="#000000" points="158,-.5 158,-19.5 293,-19.5 293,-.5 158,-.5"/>
<text text-anchor="middle" x="225.5" y="-7.5" font-family="Helvetica,sans-Serif" font-size="10.00" fill="#000000">Cleaner::removeDuplicates</text>
</a>
</g>
</g>
<!-- Node181&#45;&gt;Node189 -->
<g id="edge9" class="edge">
<title>Node181&#45;&gt;Node189</title>
<path fill="none" stroke="#191970" d="M96.5304,-57.9681C114.563,-48.3427 137.0379,-37.1563 158,-29 167.0765,-25.4684 177.0719,-22.2885 186.5256,-19.5855"/>
<polygon fill="#191970" stroke="#191970" points="94.666,-54.9974 87.537,-62.835 97.9976,-61.1537 94.666,-54.9974"/>
</g>
<!-- Node183 -->
<g id="node3" class="node">
<title>Node183</title>
<g id="a_node3"><a xlink:href="classtrim_al_manager.html#a3f325b806727751394adb829d97b35f1" target="_top" xlink:title="Method that checks dependencies between arguments. Take in mind that dependencies may be between mult...">
<polygon fill="#ffffff" stroke="#000000" points="525,-83 525,-113 637,-113 637,-83 525,-83"/>
<text text-anchor="start" x="533" y="-101" font-family="Helvetica,sans-Serif" font-size="10.00" fill="#000000">trimAlManager::check</text>
<text text-anchor="middle" x="581" y="-90" font-family="Helvetica,sans-Serif" font-size="10.00" fill="#000000">_arguments_needs</text>
</a>
</g>
</g>
<!-- Node182&#45;&gt;Node183 -->
<g id="edge2" class="edge">
<title>Node182&#45;&gt;Node183</title>
<path fill="none" stroke="#191970" d="M471.8119,-129.1059C490.3119,-123.8356 510.359,-118.1245 528.1659,-113.0516"/>
<polygon fill="#191970" stroke="#191970" points="470.6675,-125.7926 462.0091,-131.8986 472.5855,-132.5247 470.6675,-125.7926"/>
</g>
<!-- Node184 -->
<g id="node4" class="node">
<title>Node184</title>
<g id="a_node4"><a xlink:href="classtrim_al_manager.html#a748b08a1ec5cd214de804ed0d4234a6e" target="_top" xlink:title="Method to process the information obtained by trimAlManager::parseArguments It checks for argument in...">
<polygon fill="#ffffff" stroke="#000000" points="850,-76.5 850,-95.5 1017,-95.5 1017,-76.5 850,-76.5"/>
<text text-anchor="middle" x="933.5" y="-83.5" font-family="Helvetica,sans-Serif" font-size="10.00" fill="#000000">trimAlManager::processArguments</text>
</a>
</g>
</g>
<!-- Node183&#45;&gt;Node184 -->
<g id="edge3" class="edge">
<title>Node183&#45;&gt;Node184</title>
<path fill="none" stroke="#191970" d="M647.2883,-95.7434C704.66,-93.7903 787.918,-90.956 849.8603,-88.8473"/>
<polygon fill="#191970" stroke="#191970" points="647.1195,-92.247 637.2444,-96.0853 647.3578,-99.2429 647.1195,-92.247"/>
</g>
<!-- Node185 -->
<g id="node5" class="node">
<title>Node185</title>
<g id="a_node5"><a xlink:href="trim_al_main_8cpp.html#a0ddf1224851353fc92bfbff6f499fa97" target="_top" xlink:title="main">
<polygon fill="#ffffff" stroke="#000000" points="1053,-56.5 1053,-75.5 1091,-75.5 1091,-56.5 1053,-56.5"/>
<text text-anchor="middle" x="1072" y="-63.5" font-family="Helvetica,sans-Serif" font-size="10.00" fill="#000000">main</text>
</a>
</g>
</g>
<!-- Node184&#45;&gt;Node185 -->
<g id="edge4" class="edge">
<title>Node184&#45;&gt;Node185</title>
<path fill="none" stroke="#191970" d="M1009.5629,-75.0162C1025.6641,-72.6911 1041.2693,-70.4376 1052.8513,-68.7652"/>
<polygon fill="#191970" stroke="#191970" points="1008.902,-71.5752 999.505,-76.4686 1009.9026,-78.5034 1008.902,-71.5752"/>
</g>
<!-- Node187 -->
<g id="node7" class="node">
<title>Node187</title>
<g id="a_node7"><a xlink:href="classtrim_al_manager.html#a55f0bbc922fb6854118da00a5bfa0c1b" target="_top" xlink:title="Method to check and prepare the coding sequence. ">
<polygon fill="#ffffff" stroke="#000000" points="331,-83 331,-113 487,-113 487,-83 331,-83"/>
<text text-anchor="start" x="339" y="-101" font-family="Helvetica,sans-Serif" font-size="10.00" fill="#000000">trimAlManager::check</text>
<text text-anchor="middle" x="409" y="-90" font-family="Helvetica,sans-Serif" font-size="10.00" fill="#000000">_and_prepare_coding_sequence</text>
</a>
</g>
</g>
<!-- Node186&#45;&gt;Node187 -->
<g id="edge6" class="edge">
<title>Node186&#45;&gt;Node187</title>
<path fill="none" stroke="#191970" d="M300.4713,-100.9572C310.4472,-100.6854 320.6971,-100.4061 330.7273,-100.1328"/>
<polygon fill="#191970" stroke="#191970" points="300.0962,-97.466 290.1952,-101.2372 300.2869,-104.4634 300.0962,-97.466"/>
</g>
<!-- Node187&#45;&gt;Node183 -->
<g id="edge7" class="edge">
<title>Node187&#45;&gt;Node183</title>
<path fill="none" stroke="#191970" d="M497.3389,-98C506.6895,-98 516.0032,-98 524.8374,-98"/>
<polygon fill="#191970" stroke="#191970" points="497.199,-94.5001 487.199,-98 497.199,-101.5001 497.199,-94.5001"/>
</g>
<!-- Node190 -->
<g id="node10" class="node">
<title>Node190</title>
<g id="a_node10"><a xlink:href="classtrim_al_manager.html#a10536f715945a1a45f1df33f7cedc81e" target="_top" xlink:title="Method to trim or reduce the number of sequences in an alignment. It performs one or none of the foll...">
<polygon fill="#ffffff" stroke="#000000" points="329,-10.5 329,-29.5 489,-29.5 489,-10.5 329,-10.5"/>
<text text-anchor="middle" x="409" y="-17.5" font-family="Helvetica,sans-Serif" font-size="10.00" fill="#000000">trimAlManager::CleanSequences</text>
</a>
</g>
</g>
<!-- Node189&#45;&gt;Node190 -->
<g id="edge10" class="edge">
<title>Node189&#45;&gt;Node190</title>
<path fill="none" stroke="#191970" d="M303.27,-14.2381C311.7336,-14.6994 320.3597,-15.1695 328.851,-15.6322"/>
<polygon fill="#191970" stroke="#191970" points="303.2225,-10.7305 293.0469,-13.681 302.8416,-17.7201 303.2225,-10.7305"/>
</g>
<!-- Node191 -->
<g id="node11" class="node">
<title>Node191</title>
<g id="a_node11"><a xlink:href="classtrim_al_manager.html#adc529dd893ed4e9df6f3ddbd58776068" target="_top" xlink:title="Core Method of the program. This is where almost all cleaning methods are called from. ">
<polygon fill="#ffffff" stroke="#000000" points="526.5,-24 526.5,-54 635.5,-54 635.5,-24 526.5,-24"/>
<text text-anchor="start" x="534.5" y="-42" font-family="Helvetica,sans-Serif" font-size="10.00" fill="#000000">trimAlManager::clean</text>
<text text-anchor="middle" x="581" y="-31" font-family="Helvetica,sans-Serif" font-size="10.00" fill="#000000">_alignment</text>
</a>
</g>
</g>
<!-- Node190&#45;&gt;Node191 -->
<g id="edge11" class="edge">
<title>Node190&#45;&gt;Node191</title>
<path fill="none" stroke="#191970" d="M499.2736,-29.9721C508.5438,-30.9961 517.7475,-32.0128 526.4526,-32.9744"/>
<polygon fill="#191970" stroke="#191970" points="499.5328,-26.4795 489.209,-28.8603 498.7642,-33.4372 499.5328,-26.4795"/>
</g>
<!-- Node192 -->
<g id="node12" class="node">
<title>Node192</title>
<g id="a_node12"><a xlink:href="classtrim_al_manager.html#a7c641a1feff33d401b4ea5c82e989289" target="_top" xlink:title="trimAlManager::innerPerform">
<polygon fill="#ffffff" stroke="#000000" points="673,-34.5 673,-53.5 814,-53.5 814,-34.5 673,-34.5"/>
<text text-anchor="middle" x="743.5" y="-41.5" font-family="Helvetica,sans-Serif" font-size="10.00" fill="#000000">trimAlManager::innerPerform</text>
</a>
</g>
</g>
<!-- Node191&#45;&gt;Node192 -->
<g id="edge12" class="edge">
<title>Node191&#45;&gt;Node192</title>
<path fill="none" stroke="#191970" d="M645.5655,-40.9866C654.5547,-41.2632 663.8286,-41.5486 672.9212,-41.8283"/>
<polygon fill="#191970" stroke="#191970" points="645.6651,-37.4881 635.5622,-40.6788 645.4498,-44.4848 645.6651,-37.4881"/>
</g>
<!-- Node193 -->
<g id="node13" class="node">
<title>Node193</title>
<g id="a_node13"><a xlink:href="classtrim_al_manager.html#abe8d2841455c644dc9c7d1294b82b00f" target="_top" xlink:title="Method to perform the analysis if all checks have passed. ">
<polygon fill="#ffffff" stroke="#000000" points="874,-37.5 874,-56.5 993,-56.5 993,-37.5 874,-37.5"/>
<text text-anchor="middle" x="933.5" y="-44.5" font-family="Helvetica,sans-Serif" font-size="10.00" fill="#000000">trimAlManager::perform</text>
</a>
</g>
</g>
<!-- Node192&#45;&gt;Node193 -->
<g id="edge13" class="edge">
<title>Node192&#45;&gt;Node193</title>
<path fill="none" stroke="#191970" d="M824.4803,-45.2786C841.0633,-45.5405 858.229,-45.8115 873.896,-46.0589"/>
<polygon fill="#191970" stroke="#191970" points="824.303,-41.7755 814.249,-45.1171 824.1925,-48.7746 824.303,-41.7755"/>
</g>
<!-- Node193&#45;&gt;Node185 -->
<g id="edge14" class="edge">
<title>Node193&#45;&gt;Node185</title>
<path fill="none" stroke="#191970" d="M1002.9505,-56.5275C1021.3838,-59.0563 1039.7981,-61.5824 1052.9692,-63.3893"/>
<polygon fill="#191970" stroke="#191970" points="1003.4232,-53.0597 993.0402,-55.168 1002.4717,-59.9947 1003.4232,-53.0597"/>
</g>
</g>
</svg>
