<?xml version="1.0" encoding="UTF-8" standalone="no"?>
<!DOCTYPE svg PUBLIC "-//W3C//DTD SVG 1.1//EN"
 "http://www.w3.org/Graphics/SVG/1.1/DTD/svg11.dtd">
<!-- Generated by graphviz version 2.38.0 (20140413.2041)
 -->
<!-- Title: Cleaner::cleanSpuriousSeq Pages: 1 -->
<svg width="689pt" height="142pt"
 viewBox="0.00 0.00 689.00 142.02" xmlns="http://www.w3.org/2000/svg" xmlns:xlink="http://www.w3.org/1999/xlink">
<g id="graph0" class="graph" transform="scale(1 1) rotate(0) translate(4 138.016)">
<title>Cleaner::cleanSpuriousSeq</title>
<polygon fill="white" stroke="none" points="-4,4 -4,-138.016 685,-138.016 685,4 -4,4"/>
<!-- Node141 -->
<g id="node1" class="node"><title>Node141</title>
<polygon fill="#bfbfbf" stroke="black" points="0,-45.5161 0,-64.5161 135,-64.5161 135,-45.5161 0,-45.5161"/>
<text text-anchor="middle" x="67.5" y="-52.5161" font-family="Helvetica,sans-Serif" font-size="10.00">Cleaner::cleanSpuriousSeq</text>
</g>
<!-- Node142 -->
<g id="node2" class="node"><title>Node142</title>
<g id="a_node2"><a xlink:href="class_cleaner.html#ab2db8eacfbe545c68fc287c43309e439" target="_top" xlink:title="Method to compute the overlap for each sequence given a overlap value. This overlap sets the minimum ...">
<polygon fill="white" stroke="black" points="171,-84.0161 171,-114.016 305,-114.016 305,-84.0161 171,-84.0161"/>
<text text-anchor="start" x="179" y="-102.016" font-family="Helvetica,sans-Serif" font-size="10.00">Cleaner::calculateSpurious</text>
<text text-anchor="middle" x="238" y="-91.0161" font-family="Helvetica,sans-Serif" font-size="10.00">Vector</text>
</a>
</g>
</g>
<!-- Node141&#45;&gt;Node142 -->
<g id="edge1" class="edge"><title>Node141&#45;&gt;Node142</title>
<path fill="none" stroke="midnightblue" d="M105.062,-64.5634C123.864,-69.4731 147.39,-75.6164 169.35,-81.3507"/>
<polygon fill="midnightblue" stroke="midnightblue" points="168.747,-84.8105 179.307,-83.9507 170.515,-78.0376 168.747,-84.8105"/>
</g>
<!-- Node143 -->
<g id="node3" class="node"><title>Node143</title>
<g id="a_node3"><a xlink:href="class_cleaner.html#a74d3049d4997da5e7c6c51cb19b540e8" target="_top" xlink:title="Method to clean sequences based on a minimum overlap threshold. The method selects a combination of p...">
<polygon fill="white" stroke="black" points="172.5,-45.5161 172.5,-64.5161 303.5,-64.5161 303.5,-45.5161 172.5,-45.5161"/>
<text text-anchor="middle" x="238" y="-52.5161" font-family="Helvetica,sans-Serif" font-size="10.00">Cleaner::cleanOverlapSeq</text>
</a>
</g>
</g>
<!-- Node141&#45;&gt;Node143 -->
<g id="edge2" class="edge"><title>Node141&#45;&gt;Node143</title>
<path fill="none" stroke="midnightblue" d="M135.096,-55.0161C143.985,-55.0161 153.149,-55.0161 162.167,-55.0161"/>
<polygon fill="midnightblue" stroke="midnightblue" points="162.264,-58.5162 172.264,-55.0161 162.264,-51.5162 162.264,-58.5162"/>
</g>
<!-- Node148 -->
<g id="node8" class="node"><title>Node148</title>
<g id="a_node8"><a xlink:href="classnew_alignment.html#acbeb320f0f70222f81a906ccfc33a016" target="_top" xlink:title="Method to intialize data that has been modified on the alignment. The method checks if the sequences ...">
<polygon fill="white" stroke="black" points="172.5,-4.51606 172.5,-23.5161 303.5,-23.5161 303.5,-4.51606 172.5,-4.51606"/>
<text text-anchor="middle" x="238" y="-11.5161" font-family="Helvetica,sans-Serif" font-size="10.00">newAlignment::fillMatrices</text>
</a>
</g>
</g>
<!-- Node141&#45;&gt;Node148 -->
<g id="edge7" class="edge"><title>Node141&#45;&gt;Node148</title>
<path fill="none" stroke="midnightblue" d="M107.581,-45.5068C131.527,-39.6802 162.384,-32.1719 187.961,-25.9483"/>
<polygon fill="midnightblue" stroke="midnightblue" points="188.951,-29.3098 197.84,-23.5447 187.296,-22.5082 188.951,-29.3098"/>
</g>
<!-- Node144 -->
<g id="node4" class="node"><title>Node144</title>
<g id="a_node4"><a xlink:href="class_cleaner.html#a24bd28e4191afc9471adff329bee1466" target="_top" xlink:title="Method for computing the complementary alignment. Complementary Alignment is an alignment containing ...">
<polygon fill="white" stroke="black" points="341,-114.516 341,-133.516 520,-133.516 520,-114.516 341,-114.516"/>
<text text-anchor="middle" x="430.5" y="-121.516" font-family="Helvetica,sans-Serif" font-size="10.00">Cleaner::computeComplementaryAlig</text>
</a>
</g>
</g>
<!-- Node143&#45;&gt;Node144 -->
<g id="edge3" class="edge"><title>Node143&#45;&gt;Node144</title>
<path fill="none" stroke="midnightblue" d="M279.819,-64.5931C288.397,-67.3663 297.201,-70.8113 305,-75.0161 323.332,-84.9003 322.274,-95.8986 341,-105.016 345.945,-107.424 351.192,-109.528 356.567,-111.368"/>
<polygon fill="midnightblue" stroke="midnightblue" points="355.751,-114.779 366.34,-114.4 357.826,-108.094 355.751,-114.779"/>
</g>
<!-- Node145 -->
<g id="node5" class="node"><title>Node145</title>
<g id="a_node5"><a xlink:href="class_cleaner.html#a2f7d85e29f23f880a7ad7e28863b36c3" target="_top" xlink:title="Method that identifies and removes columns and sequences composed only by gaps. ">
<polygon fill="white" stroke="black" points="376,-65.0161 376,-95.0161 485,-95.0161 485,-65.0161 376,-65.0161"/>
<text text-anchor="start" x="384" y="-83.0161" font-family="Helvetica,sans-Serif" font-size="10.00">Cleaner::removeCols</text>
<text text-anchor="middle" x="430.5" y="-72.0161" font-family="Helvetica,sans-Serif" font-size="10.00">_SeqsAllGaps</text>
</a>
</g>
</g>
<!-- Node143&#45;&gt;Node145 -->
<g id="edge4" class="edge"><title>Node143&#45;&gt;Node145</title>
<path fill="none" stroke="midnightblue" d="M303.76,-63.5148C323.876,-66.1547 346.02,-69.0607 366.046,-71.6888"/>
<polygon fill="midnightblue" stroke="midnightblue" points="365.624,-75.1633 375.995,-72.9944 366.535,-68.2228 365.624,-75.1633"/>
</g>
<!-- Node147 -->
<g id="node7" class="node"><title>Node147</title>
<g id="a_node7"><a xlink:href="classnew_alignment.html#a3de39c62c08a265178f1fa7df76c3ab7" target="_top" xlink:title="Method that copies information of the alignment to the pointers given. ">
<polygon fill="white" stroke="black" points="363,-16.0161 363,-46.0161 498,-46.0161 498,-16.0161 363,-16.0161"/>
<text text-anchor="start" x="371" y="-34.0161" font-family="Helvetica,sans-Serif" font-size="10.00">newAlignment::fillNewData</text>
<text text-anchor="middle" x="430.5" y="-23.0161" font-family="Helvetica,sans-Serif" font-size="10.00">Structure</text>
</a>
</g>
</g>
<!-- Node143&#45;&gt;Node147 -->
<g id="edge6" class="edge"><title>Node143&#45;&gt;Node147</title>
<path fill="none" stroke="midnightblue" d="M303.76,-46.8573C319.571,-44.8654 336.634,-42.7157 352.937,-40.6617"/>
<polygon fill="midnightblue" stroke="midnightblue" points="353.488,-44.1201 362.972,-39.3975 352.613,-37.175 353.488,-44.1201"/>
</g>
<!-- Node146 -->
<g id="node6" class="node"><title>Node146</title>
<g id="a_node6"><a xlink:href="class_verbose_manager.html#a261de87bbf9653cd729dca4e1fbeb2a3" target="_top" xlink:title="Method to report an Error. It will be displayed if VerboseManager::Level is equal or higher to Verbos...">
<polygon fill="white" stroke="black" points="556,-23.5161 556,-42.5161 681,-42.5161 681,-23.5161 556,-23.5161"/>
<text text-anchor="middle" x="618.5" y="-30.5161" font-family="Helvetica,sans-Serif" font-size="10.00">VerboseManager::Report</text>
</a>
</g>
</g>
<!-- Node145&#45;&gt;Node146 -->
<g id="edge5" class="edge"><title>Node145&#45;&gt;Node146</title>
<path fill="none" stroke="midnightblue" d="M485.299,-66.4217C512.009,-59.6723 544,-51.5886 569.822,-45.0638"/>
<polygon fill="midnightblue" stroke="midnightblue" points="570.914,-48.3979 579.752,-42.5546 569.199,-41.6112 570.914,-48.3979"/>
</g>
<!-- Node148&#45;&gt;Node146 -->
<g id="edge8" class="edge"><title>Node148&#45;&gt;Node146</title>
<path fill="none" stroke="midnightblue" d="M303.771,-6.20865C360.931,-0.735041 446.372,3.99029 520,-6.01606 540.559,-8.81006 562.904,-14.7743 581.01,-20.3882"/>
<polygon fill="midnightblue" stroke="midnightblue" points="580.003,-23.7409 590.594,-23.4487 582.132,-17.0726 580.003,-23.7409"/>
</g>
</g>
</svg>
