<?xml version="1.0" encoding="UTF-8" standalone="no"?>
<!DOCTYPE svg PUBLIC "-//W3C//DTD SVG 1.1//EN"
 "http://www.w3.org/Graphics/SVG/1.1/DTD/svg11.dtd">
<!-- Generated by graphviz version 2.38.0 (20140413.2041)
 -->
<!-- Title: trimAlManager::conservation_threshold_argument Pages: 1 -->
<svg width="301pt" height="78pt"
 viewBox="0.00 0.00 301.00 77.50" xmlns="http://www.w3.org/2000/svg" xmlns:xlink="http://www.w3.org/1999/xlink">
<g id="graph0" class="graph" transform="scale(1 1) rotate(0) translate(4 73.5)">
<title>trimAlManager::conservation_threshold_argument</title>
<polygon fill="white" stroke="none" points="-4,4 -4,-73.5 297,-73.5 297,4 -4,4"/>
<!-- Node284 -->
<g id="node1" class="node"><title>Node284</title>
<polygon fill="#bfbfbf" stroke="black" points="0,-22.5 0,-52.5 141,-52.5 141,-22.5 0,-22.5"/>
<text text-anchor="start" x="8" y="-40.5" font-family="Helvetica,sans-Serif" font-size="10.00">trimAlManager::conservation</text>
<text text-anchor="middle" x="70.5" y="-29.5" font-family="Helvetica,sans-Serif" font-size="10.00">_threshold_argument</text>
</g>
<!-- Node285 -->
<g id="node2" class="node"><title>Node285</title>
<g id="a_node2"><a xlink:href="classutils.html#a32e6bab4fb43b096f983faedeefd0511" target="_top" xlink:title="String&#45;is&#45;number checking. ">
<polygon fill="white" stroke="black" points="193.5,-50 193.5,-69 276.5,-69 276.5,-50 193.5,-50"/>
<text text-anchor="middle" x="235" y="-57" font-family="Helvetica,sans-Serif" font-size="10.00">utils::isNumber</text>
</a>
</g>
</g>
<!-- Node284&#45;&gt;Node285 -->
<g id="edge1" class="edge"><title>Node284&#45;&gt;Node285</title>
<path fill="none" stroke="midnightblue" d="M141.358,-46.9577C155.34,-48.8507 169.782,-50.8059 182.982,-52.593"/>
<polygon fill="midnightblue" stroke="midnightblue" points="182.89,-56.1124 193.27,-53.9857 183.83,-49.1757 182.89,-56.1124"/>
</g>
<!-- Node286 -->
<g id="node3" class="node"><title>Node286</title>
<g id="a_node3"><a xlink:href="class____internal_report_1_1____report_system.html#acd358cbc59625c6e2f47e0b5f825400d" target="_top" xlink:title="Method to report an Error. &#160;It will be displayed if Level &#160;is equal or higher to VerboseLevel::ERROR...">
<polygon fill="white" stroke="black" points="177,-0.5 177,-30.5 293,-30.5 293,-0.5 177,-0.5"/>
<text text-anchor="start" x="185" y="-18.5" font-family="Helvetica,sans-Serif" font-size="10.00">__internalReport::</text>
<text text-anchor="middle" x="235" y="-7.5" font-family="Helvetica,sans-Serif" font-size="10.00">__reportSystem::report</text>
</a>
</g>
</g>
<!-- Node284&#45;&gt;Node286 -->
<g id="edge2" class="edge"><title>Node284&#45;&gt;Node286</title>
<path fill="none" stroke="midnightblue" d="M141.358,-28.0423C149.797,-26.8998 158.404,-25.7345 166.804,-24.5973"/>
<polygon fill="midnightblue" stroke="midnightblue" points="167.483,-28.0374 176.923,-23.2274 166.544,-21.1007 167.483,-28.0374"/>
</g>
</g>
</svg>
