<?xml version="1.0" encoding="UTF-8" standalone="no"?>
<!DOCTYPE svg PUBLIC "-//W3C//DTD SVG 1.1//EN"
 "http://www.w3.org/Graphics/SVG/1.1/DTD/svg11.dtd">
<!-- Generated by graphviz version 2.40.1 (20161225.0304)
 -->
<!-- Title: statistics::similarityMatrix::memoryDeletion Pages: 1 -->
<svg width="1074pt" height="235pt"
 viewBox="0.00 0.00 1074.00 235.00" xmlns="http://www.w3.org/2000/svg" xmlns:xlink="http://www.w3.org/1999/xlink">
<g id="graph0" class="graph" transform="scale(1 1) rotate(0) translate(4 231)">
<title>statistics::similarityMatrix::memoryDeletion</title>
<polygon fill="#ffffff" stroke="transparent" points="-4,4 -4,-231 1070,-231 1070,4 -4,4"/>
<!-- Node83 -->
<g id="node1" class="node">
<title>Node83</title>
<g id="a_node1"><a xlink:title="Method to deallocate memory allocated on the similarityMatrix::memoryAllocation method....">
<polygon fill="#bfbfbf" stroke="#000000" points="938,-111.5 938,-141.5 1066,-141.5 1066,-111.5 938,-111.5"/>
<text text-anchor="start" x="946" y="-129.5" font-family="Helvetica,sans-Serif" font-size="10.00" fill="#000000">statistics::similarityMatrix</text>
<text text-anchor="middle" x="1002" y="-118.5" font-family="Helvetica,sans-Serif" font-size="10.00" fill="#000000">::memoryDeletion</text>
</a>
</g>
</g>
<!-- Node84 -->
<g id="node2" class="node">
<title>Node84</title>
<g id="a_node2"><a xlink:href="classstatistics_1_1similarity_matrix.html#a8d3f892581b552e6e5321ce1ff073624" target="_top" xlink:title="Method to load a custom matrix.">
<polygon fill="#ffffff" stroke="#000000" points="591.5,-196.5 591.5,-226.5 719.5,-226.5 719.5,-196.5 591.5,-196.5"/>
<text text-anchor="start" x="599.5" y="-214.5" font-family="Helvetica,sans-Serif" font-size="10.00" fill="#000000">statistics::similarityMatrix</text>
<text text-anchor="middle" x="655.5" y="-203.5" font-family="Helvetica,sans-Serif" font-size="10.00" fill="#000000">::loadSimMatrix</text>
</a>
</g>
</g>
<!-- Node83&#45;&gt;Node84 -->
<g id="edge1" class="edge">
<title>Node83&#45;&gt;Node84</title>
<path fill="none" stroke="#191970" d="M932.0101,-144.0562C921.9421,-146.5646 911.708,-149.105 902,-151.5 839.3528,-166.9551 767.6815,-184.3707 717.8307,-196.4415"/>
<polygon fill="#191970" stroke="#191970" points="933.1414,-147.3813 941.9971,-141.5651 931.4473,-140.5894 933.1414,-147.3813"/>
</g>
<!-- Node89 -->
<g id="node7" class="node">
<title>Node89</title>
<g id="a_node7"><a xlink:href="classstatistics_1_1similarity_matrix.html#a46d6657734fa07a8c7ee3bbee8145c2c" target="_top" xlink:title="Method to allocate memory for the similiarity matrix.">
<polygon fill="#ffffff" stroke="#000000" points="774,-111.5 774,-141.5 902,-141.5 902,-111.5 774,-111.5"/>
<text text-anchor="start" x="782" y="-129.5" font-family="Helvetica,sans-Serif" font-size="10.00" fill="#000000">statistics::similarityMatrix</text>
<text text-anchor="middle" x="838" y="-118.5" font-family="Helvetica,sans-Serif" font-size="10.00" fill="#000000">::memoryAllocation</text>
</a>
</g>
</g>
<!-- Node83&#45;&gt;Node89 -->
<g id="edge7" class="edge">
<title>Node83&#45;&gt;Node89</title>
<path fill="none" stroke="#191970" d="M927.4359,-126.5C918.9963,-126.5 910.4508,-126.5 902.1609,-126.5"/>
<polygon fill="#191970" stroke="#191970" points="927.6536,-130.0001 937.6536,-126.5 927.6535,-123.0001 927.6536,-130.0001"/>
</g>
<!-- Node94 -->
<g id="node12" class="node">
<title>Node94</title>
<g id="a_node12"><a xlink:href="classstatistics_1_1similarity_matrix.html#a5b05a2eb7b14bbf6cd71b8f739158f1b" target="_top" xlink:title="Destructor.">
<polygon fill="#ffffff" stroke="#000000" points="774,-62.5 774,-92.5 902,-92.5 902,-62.5 774,-62.5"/>
<text text-anchor="start" x="782" y="-80.5" font-family="Helvetica,sans-Serif" font-size="10.00" fill="#000000">statistics::similarityMatrix</text>
<text text-anchor="middle" x="838" y="-69.5" font-family="Helvetica,sans-Serif" font-size="10.00" fill="#000000">::~similarityMatrix</text>
</a>
</g>
</g>
<!-- Node83&#45;&gt;Node94 -->
<g id="edge17" class="edge">
<title>Node83&#45;&gt;Node94</title>
<path fill="none" stroke="#191970" d="M941.8657,-108.533C924.294,-103.283 905.2771,-97.6011 888.3767,-92.5516"/>
<polygon fill="#191970" stroke="#191970" points="940.8729,-111.8892 951.4564,-111.3986 942.8769,-105.1822 940.8729,-111.8892"/>
</g>
<!-- Node85 -->
<g id="node3" class="node">
<title>Node85</title>
<g id="a_node3"><a xlink:href="classtrim_al_manager.html#a3e8b2b5b4e1a44c498c47448840b6c69" target="_top" xlink:title="Method to create, load and use a similarity matrix, depending on alignment residue nature,...">
<polygon fill="#ffffff" stroke="#000000" points="409,-98.5 409,-128.5 537,-128.5 537,-98.5 409,-98.5"/>
<text text-anchor="start" x="417" y="-116.5" font-family="Helvetica,sans-Serif" font-size="10.00" fill="#000000">trimAlManager::create</text>
<text text-anchor="middle" x="473" y="-105.5" font-family="Helvetica,sans-Serif" font-size="10.00" fill="#000000">_or_use_similarity_matrix</text>
</a>
</g>
</g>
<!-- Node84&#45;&gt;Node85 -->
<g id="edge2" class="edge">
<title>Node84&#45;&gt;Node85</title>
<path fill="none" stroke="#191970" d="M584.945,-192.8309C580.8452,-191.1757 576.8342,-189.4001 573,-187.5 540.8759,-171.5808 508.3656,-145.192 489.4773,-128.6048"/>
<polygon fill="#191970" stroke="#191970" points="584.0394,-196.2296 594.6314,-196.4763 586.505,-189.6782 584.0394,-196.2296"/>
</g>
<!-- Node86 -->
<g id="node4" class="node">
<title>Node86</title>
<g id="a_node4"><a xlink:href="classtrim_al_manager.html#abe8d2841455c644dc9c7d1294b82b00f" target="_top" xlink:title="Method to perform the analysis if all checks have passed.">
<polygon fill="#ffffff" stroke="#000000" points="74,-104 74,-123 193,-123 193,-104 74,-104"/>
<text text-anchor="middle" x="133.5" y="-111" font-family="Helvetica,sans-Serif" font-size="10.00" fill="#000000">trimAlManager::perform</text>
</a>
</g>
</g>
<!-- Node85&#45;&gt;Node86 -->
<g id="edge3" class="edge">
<title>Node85&#45;&gt;Node86</title>
<path fill="none" stroke="#191970" d="M398.6854,-113.5C337.0194,-113.5 250.4621,-113.5 193.2259,-113.5"/>
<polygon fill="#191970" stroke="#191970" points="398.7436,-117.0001 408.7435,-113.5 398.7435,-110.0001 398.7436,-117.0001"/>
</g>
<!-- Node88 -->
<g id="node6" class="node">
<title>Node88</title>
<g id="a_node6"><a xlink:href="classtrim_al_manager.html#ac5795f93b3a2b51bf5d8dddd63b89f73" target="_top" xlink:title=" ">
<polygon fill="#ffffff" stroke="#000000" points="229,-85 229,-104 373,-104 373,-85 229,-85"/>
<text text-anchor="middle" x="301" y="-92" font-family="Helvetica,sans-Serif" font-size="10.00" fill="#000000">trimAlManager::perform_VCF</text>
</a>
</g>
</g>
<!-- Node85&#45;&gt;Node88 -->
<g id="edge5" class="edge">
<title>Node85&#45;&gt;Node88</title>
<path fill="none" stroke="#191970" d="M399.0059,-105.3262C390.4509,-104.3812 381.7343,-103.4183 373.2037,-102.476"/>
<polygon fill="#191970" stroke="#191970" points="398.6297,-108.8059 408.9535,-106.4251 399.3983,-101.8482 398.6297,-108.8059"/>
</g>
<!-- Node87 -->
<g id="node5" class="node">
<title>Node87</title>
<g id="a_node5"><a xlink:href="trim_al_main_8cpp.html#a0ddf1224851353fc92bfbff6f499fa97" target="_top" xlink:title=" ">
<polygon fill="#ffffff" stroke="#000000" points="0,-104 0,-123 38,-123 38,-104 0,-104"/>
<text text-anchor="middle" x="19" y="-111" font-family="Helvetica,sans-Serif" font-size="10.00" fill="#000000">main</text>
</a>
</g>
</g>
<!-- Node86&#45;&gt;Node87 -->
<g id="edge4" class="edge">
<title>Node86&#45;&gt;Node87</title>
<path fill="none" stroke="#191970" d="M63.6802,-113.5C54.3823,-113.5 45.5497,-113.5 38.2303,-113.5"/>
<polygon fill="#191970" stroke="#191970" points="63.9025,-117.0001 73.9024,-113.5 63.9024,-110.0001 63.9025,-117.0001"/>
</g>
<!-- Node88&#45;&gt;Node86 -->
<g id="edge6" class="edge">
<title>Node88&#45;&gt;Node86</title>
<path fill="none" stroke="#191970" d="M218.8378,-103.8199C210.1593,-104.8043 201.4581,-105.7913 193.107,-106.7386"/>
<polygon fill="#191970" stroke="#191970" points="219.4511,-107.2729 228.9928,-102.668 218.662,-100.3175 219.4511,-107.2729"/>
</g>
<!-- Node89&#45;&gt;Node84 -->
<g id="edge16" class="edge">
<title>Node89&#45;&gt;Node84</title>
<path fill="none" stroke="#191970" d="M808.6797,-147.2441C789.3249,-160.2046 763.0099,-176.4685 738,-187.5 730.4936,-190.811 722.4046,-193.8071 714.3298,-196.4707"/>
<polygon fill="#191970" stroke="#191970" points="810.7504,-150.0687 817.053,-141.5525 806.8152,-144.2795 810.7504,-150.0687"/>
</g>
<!-- Node90 -->
<g id="node8" class="node">
<title>Node90</title>
<g id="a_node8"><a xlink:href="classstatistics_1_1similarity_matrix.html#a2788d7d1bb700b9e59d654fb24f6172c" target="_top" xlink:title="Method to load alternative similarity matrices also included on the suite. Currently,...">
<polygon fill="#ffffff" stroke="#000000" points="582.5,-147.5 582.5,-177.5 728.5,-177.5 728.5,-147.5 582.5,-147.5"/>
<text text-anchor="start" x="590.5" y="-165.5" font-family="Helvetica,sans-Serif" font-size="10.00" fill="#000000">statistics::similarityMatrix</text>
<text text-anchor="middle" x="655.5" y="-154.5" font-family="Helvetica,sans-Serif" font-size="10.00" fill="#000000">::alternativeSimilarityMatrices</text>
</a>
</g>
</g>
<!-- Node89&#45;&gt;Node90 -->
<g id="edge8" class="edge">
<title>Node89&#45;&gt;Node90</title>
<path fill="none" stroke="#191970" d="M763.864,-141.1241C752.2939,-143.4064 740.3431,-145.7638 728.7921,-148.0424"/>
<polygon fill="#191970" stroke="#191970" points="764.7804,-144.5109 773.9139,-139.1416 763.4256,-137.6432 764.7804,-144.5109"/>
</g>
<!-- Node91 -->
<g id="node9" class="node">
<title>Node91</title>
<g id="a_node9"><a xlink:href="classstatistics_1_1similarity_matrix.html#a6d239debb5982c5cef97308403f658b7" target="_top" xlink:title="Method to load the default AA similarity matrix.">
<polygon fill="#ffffff" stroke="#000000" points="591.5,-98.5 591.5,-128.5 719.5,-128.5 719.5,-98.5 591.5,-98.5"/>
<text text-anchor="start" x="599.5" y="-116.5" font-family="Helvetica,sans-Serif" font-size="10.00" fill="#000000">statistics::similarityMatrix</text>
<text text-anchor="middle" x="655.5" y="-105.5" font-family="Helvetica,sans-Serif" font-size="10.00" fill="#000000">::defaultAASimMatrix</text>
</a>
</g>
</g>
<!-- Node89&#45;&gt;Node91 -->
<g id="edge10" class="edge">
<title>Node89&#45;&gt;Node91</title>
<path fill="none" stroke="#191970" d="M763.8985,-121.2215C749.2628,-120.179 734.0166,-119.093 719.7399,-118.076"/>
<polygon fill="#191970" stroke="#191970" points="763.6905,-124.7155 773.9139,-121.935 764.1879,-117.7332 763.6905,-124.7155"/>
</g>
<!-- Node92 -->
<g id="node10" class="node">
<title>Node92</title>
<g id="a_node10"><a xlink:href="classstatistics_1_1similarity_matrix.html#abcee67b7f79ef0975ca006647198f5d7" target="_top" xlink:title="Method to load the default DEG NT similarity matrix.">
<polygon fill="#ffffff" stroke="#000000" points="573,-49.5 573,-79.5 738,-79.5 738,-49.5 573,-49.5"/>
<text text-anchor="start" x="581" y="-67.5" font-family="Helvetica,sans-Serif" font-size="10.00" fill="#000000">statistics::similarityMatrix</text>
<text text-anchor="middle" x="655.5" y="-56.5" font-family="Helvetica,sans-Serif" font-size="10.00" fill="#000000">::defaultNTDegeneratedSimMatrix</text>
</a>
</g>
</g>
<!-- Node89&#45;&gt;Node92 -->
<g id="edge12" class="edge">
<title>Node89&#45;&gt;Node92</title>
<path fill="none" stroke="#191970" d="M788.1919,-107.921C765.845,-99.6133 743.2968,-91.2807 738,-89.5 728.0698,-86.1617 717.4019,-82.7799 707.142,-79.6278"/>
<polygon fill="#191970" stroke="#191970" points="787.1131,-111.2539 797.7059,-111.4607 789.554,-104.6933 787.1131,-111.2539"/>
</g>
<!-- Node93 -->
<g id="node11" class="node">
<title>Node93</title>
<g id="a_node11"><a xlink:href="classstatistics_1_1similarity_matrix.html#a72f692ab289725eef0702bfd7e93a38a" target="_top" xlink:title="Method to load the default NT similarity matrix.">
<polygon fill="#ffffff" stroke="#000000" points="591.5,-.5 591.5,-30.5 719.5,-30.5 719.5,-.5 591.5,-.5"/>
<text text-anchor="start" x="599.5" y="-18.5" font-family="Helvetica,sans-Serif" font-size="10.00" fill="#000000">statistics::similarityMatrix</text>
<text text-anchor="middle" x="655.5" y="-7.5" font-family="Helvetica,sans-Serif" font-size="10.00" fill="#000000">::defaultNTSimMatrix</text>
</a>
</g>
</g>
<!-- Node89&#45;&gt;Node93 -->
<g id="edge14" class="edge">
<title>Node89&#45;&gt;Node93</title>
<path fill="none" stroke="#191970" d="M778.2738,-105.8314C776.7953,-104.7731 775.3667,-103.6634 774,-102.5 749.4432,-81.5964 763.33,-59.4597 738,-39.5 732.4933,-35.1608 726.2279,-31.606 719.6678,-28.6937"/>
<polygon fill="#191970" stroke="#191970" points="776.8548,-109.0687 787.2019,-111.3463 780.5335,-103.1133 776.8548,-109.0687"/>
</g>
<!-- Node90&#45;&gt;Node85 -->
<g id="edge9" class="edge">
<title>Node90&#45;&gt;Node85</title>
<path fill="none" stroke="#191970" d="M589.396,-144.7515C569.6166,-139.4409 548.1275,-133.6712 529.0594,-128.5516"/>
<polygon fill="#191970" stroke="#191970" points="588.6893,-148.1857 599.2548,-147.3986 590.5045,-141.4251 588.6893,-148.1857"/>
</g>
<!-- Node91&#45;&gt;Node85 -->
<g id="edge11" class="edge">
<title>Node91&#45;&gt;Node85</title>
<path fill="none" stroke="#191970" d="M581.3985,-113.5C566.7628,-113.5 551.5166,-113.5 537.2399,-113.5"/>
<polygon fill="#191970" stroke="#191970" points="581.414,-117.0001 591.4139,-113.5 581.4139,-110.0001 581.414,-117.0001"/>
</g>
<!-- Node92&#45;&gt;Node85 -->
<g id="edge13" class="edge">
<title>Node92&#45;&gt;Node85</title>
<path fill="none" stroke="#191970" d="M589.396,-82.2485C569.6166,-87.5591 548.1275,-93.3288 529.0594,-98.4484"/>
<polygon fill="#191970" stroke="#191970" points="590.5045,-85.5749 599.2548,-79.6014 588.6893,-78.8143 590.5045,-85.5749"/>
</g>
<!-- Node93&#45;&gt;Node85 -->
<g id="edge15" class="edge">
<title>Node93&#45;&gt;Node85</title>
<path fill="none" stroke="#191970" d="M584.945,-34.1691C580.8452,-35.8243 576.8342,-37.5999 573,-39.5 540.8759,-55.4192 508.3656,-81.808 489.4773,-98.3952"/>
<polygon fill="#191970" stroke="#191970" points="586.505,-37.3218 594.6314,-30.5237 584.0394,-30.7704 586.505,-37.3218"/>
</g>
</g>
</svg>
