<?xml version="1.0" encoding="UTF-8" standalone="no"?>
<!DOCTYPE svg PUBLIC "-//W3C//DTD SVG 1.1//EN"
 "http://www.w3.org/Graphics/SVG/1.1/DTD/svg11.dtd">
<!-- Generated by graphviz version 2.38.0 (20140413.2041)
 -->
<!-- Title: Cleaner::cleanOverlapSeq Pages: 1 -->
<svg width="515pt" height="127pt"
 viewBox="0.00 0.00 515.00 126.50" xmlns="http://www.w3.org/2000/svg" xmlns:xlink="http://www.w3.org/1999/xlink">
<g id="graph0" class="graph" transform="scale(1 1) rotate(0) translate(4 122.5)">
<title>Cleaner::cleanOverlapSeq</title>
<polygon fill="white" stroke="none" points="-4,4 -4,-122.5 511,-122.5 511,4 -4,4"/>
<!-- Node134 -->
<g id="node1" class="node"><title>Node134</title>
<polygon fill="#bfbfbf" stroke="black" points="0,-55 0,-74 131,-74 131,-55 0,-55"/>
<text text-anchor="middle" x="65.5" y="-62" font-family="Helvetica,sans-Serif" font-size="10.00">Cleaner::cleanOverlapSeq</text>
</g>
<!-- Node135 -->
<g id="node2" class="node"><title>Node135</title>
<g id="a_node2"><a xlink:href="class_cleaner.html#a24bd28e4191afc9471adff329bee1466" target="_top" xlink:title="Method for computing the complementary alignment. Complementary Alignment is an alignment containing ...">
<polygon fill="white" stroke="black" points="167,-99 167,-118 346,-118 346,-99 167,-99"/>
<text text-anchor="middle" x="256.5" y="-106" font-family="Helvetica,sans-Serif" font-size="10.00">Cleaner::computeComplementaryAlig</text>
</a>
</g>
</g>
<!-- Node134&#45;&gt;Node135 -->
<g id="edge1" class="edge"><title>Node134&#45;&gt;Node135</title>
<path fill="none" stroke="midnightblue" d="M103.658,-74.0477C122.585,-78.8333 145.981,-84.6308 167,-89.5 177.549,-91.9438 188.831,-94.4485 199.687,-96.8044"/>
<polygon fill="midnightblue" stroke="midnightblue" points="198.991,-100.235 209.504,-98.9201 200.466,-93.3918 198.991,-100.235"/>
</g>
<!-- Node136 -->
<g id="node3" class="node"><title>Node136</title>
<g id="a_node3"><a xlink:href="class_cleaner.html#a2f7d85e29f23f880a7ad7e28863b36c3" target="_top" xlink:title="Method that identifies and removes columns and sequences composed only by gaps. ">
<polygon fill="white" stroke="black" points="202,-49.5 202,-79.5 311,-79.5 311,-49.5 202,-49.5"/>
<text text-anchor="start" x="210" y="-67.5" font-family="Helvetica,sans-Serif" font-size="10.00">Cleaner::removeCols</text>
<text text-anchor="middle" x="256.5" y="-56.5" font-family="Helvetica,sans-Serif" font-size="10.00">_SeqsAllGaps</text>
</a>
</g>
</g>
<!-- Node134&#45;&gt;Node136 -->
<g id="edge2" class="edge"><title>Node134&#45;&gt;Node136</title>
<path fill="none" stroke="midnightblue" d="M131.014,-64.5C150.684,-64.5 172.288,-64.5 191.897,-64.5"/>
<polygon fill="midnightblue" stroke="midnightblue" points="191.948,-68.0001 201.948,-64.5 191.948,-61.0001 191.948,-68.0001"/>
</g>
<!-- Node138 -->
<g id="node5" class="node"><title>Node138</title>
<g id="a_node5"><a xlink:href="classnew_alignment.html#a3de39c62c08a265178f1fa7df76c3ab7" target="_top" xlink:title="Method that copies information of the alignment to the pointers given. ">
<polygon fill="white" stroke="black" points="189,-0.5 189,-30.5 324,-30.5 324,-0.5 189,-0.5"/>
<text text-anchor="start" x="197" y="-18.5" font-family="Helvetica,sans-Serif" font-size="10.00">newAlignment::fillNewData</text>
<text text-anchor="middle" x="256.5" y="-7.5" font-family="Helvetica,sans-Serif" font-size="10.00">Structure</text>
</a>
</g>
</g>
<!-- Node134&#45;&gt;Node138 -->
<g id="edge4" class="edge"><title>Node134&#45;&gt;Node138</title>
<path fill="none" stroke="midnightblue" d="M103.39,-54.936C127.318,-48.7324 159.215,-40.4629 187.618,-33.099"/>
<polygon fill="midnightblue" stroke="midnightblue" points="188.699,-36.4346 197.5,-30.537 186.942,-29.6587 188.699,-36.4346"/>
</g>
<!-- Node137 -->
<g id="node4" class="node"><title>Node137</title>
<g id="a_node4"><a xlink:href="class_verbose_manager.html#a261de87bbf9653cd729dca4e1fbeb2a3" target="_top" xlink:title="Method to report an Error. It will be displayed if VerboseManager::Level is equal or higher to Verbos...">
<polygon fill="white" stroke="black" points="382,-55 382,-74 507,-74 507,-55 382,-55"/>
<text text-anchor="middle" x="444.5" y="-62" font-family="Helvetica,sans-Serif" font-size="10.00">VerboseManager::Report</text>
</a>
</g>
</g>
<!-- Node136&#45;&gt;Node137 -->
<g id="edge3" class="edge"><title>Node136&#45;&gt;Node137</title>
<path fill="none" stroke="midnightblue" d="M311.299,-64.5C330.206,-64.5 351.76,-64.5 371.898,-64.5"/>
<polygon fill="midnightblue" stroke="midnightblue" points="371.964,-68.0001 381.964,-64.5 371.964,-61.0001 371.964,-68.0001"/>
</g>
</g>
</svg>
