<?xml version="1.0" encoding="UTF-8" standalone="no"?>
<!DOCTYPE svg PUBLIC "-//W3C//DTD SVG 1.1//EN"
 "http://www.w3.org/Graphics/SVG/1.1/DTD/svg11.dtd">
<!-- Generated by graphviz version 2.40.1 (20161225.0304)
 -->
<!-- Title: statistics::Gaps::calcCutPoint Pages: 1 -->
<svg width="245pt" height="66pt"
 viewBox="0.00 0.00 245.00 66.00" xmlns="http://www.w3.org/2000/svg" xmlns:xlink="http://www.w3.org/1999/xlink">
<g id="graph0" class="graph" transform="scale(1 1) rotate(0) translate(4 62)">
<title>statistics::Gaps::calcCutPoint</title>
<polygon fill="#ffffff" stroke="transparent" points="-4,4 -4,-62 241,-62 241,4 -4,4"/>
<!-- Node106 -->
<g id="node1" class="node">
<title>Node106</title>
<polygon fill="#bfbfbf" stroke="#000000" points="0,-14 0,-44 125,-44 125,-14 0,-14"/>
<text text-anchor="start" x="8" y="-32" font-family="Helvetica,sans-Serif" font-size="10.00" fill="#000000">statistics::Gaps::calcCut</text>
<text text-anchor="middle" x="62.5" y="-21" font-family="Helvetica,sans-Serif" font-size="10.00" fill="#000000">Point</text>
</g>
<!-- Node107 -->
<g id="node2" class="node">
<title>Node107</title>
<g id="a_node2"><a xlink:href="namespaceutils.html#a91f98ed74c54fdc1ee7ae6c7e770591c" target="_top" xlink:title="Maximum of two numbers method. ">
<polygon fill="#ffffff" stroke="#000000" points="169.5,-38.5 169.5,-57.5 228.5,-57.5 228.5,-38.5 169.5,-38.5"/>
<text text-anchor="middle" x="199" y="-45.5" font-family="Helvetica,sans-Serif" font-size="10.00" fill="#000000">utils::max</text>
</a>
</g>
</g>
<!-- Node106&#45;&gt;Node107 -->
<g id="edge1" class="edge">
<title>Node106&#45;&gt;Node107</title>
<path fill="none" stroke="#191970" d="M125.1569,-37.7215C136.721,-39.3311 148.5006,-40.9708 159.1559,-42.4539"/>
<polygon fill="#191970" stroke="#191970" points="158.9997,-45.9659 169.3868,-43.878 159.9648,-39.0327 158.9997,-45.9659"/>
</g>
<!-- Node108 -->
<g id="node3" class="node">
<title>Node108</title>
<g id="a_node3"><a xlink:href="namespaceutils.html#ad50731aeb3c8f79ed8372516210dfc9d" target="_top" xlink:title="Round double to integer method. ">
<polygon fill="#ffffff" stroke="#000000" points="161,-.5 161,-19.5 237,-19.5 237,-.5 161,-.5"/>
<text text-anchor="middle" x="199" y="-7.5" font-family="Helvetica,sans-Serif" font-size="10.00" fill="#000000">utils::roundInt</text>
</a>
</g>
</g>
<!-- Node106&#45;&gt;Node108 -->
<g id="edge2" class="edge">
<title>Node106&#45;&gt;Node108</title>
<path fill="none" stroke="#191970" d="M125.1569,-20.2785C133.8267,-19.0717 142.6176,-17.8481 150.9651,-16.6862"/>
<polygon fill="#191970" stroke="#191970" points="151.4673,-20.1501 160.8893,-15.3048 150.5022,-13.2169 151.4673,-20.1501"/>
</g>
</g>
</svg>
