<?xml version="1.0" encoding="UTF-8" standalone="no"?>
<!DOCTYPE svg PUBLIC "-//W3C//DTD SVG 1.1//EN"
 "http://www.w3.org/Graphics/SVG/1.1/DTD/svg11.dtd">
<!-- Generated by graphviz version 2.38.0 (20140413.2041)
 -->
<!-- Title: Cleaner::removeSmallerBlocks Pages: 1 -->
<svg width="997pt" height="218pt"
 viewBox="0.00 0.00 997.00 218.00" xmlns="http://www.w3.org/2000/svg" xmlns:xlink="http://www.w3.org/1999/xlink">
<g id="graph0" class="graph" transform="scale(1 1) rotate(0) translate(4 214)">
<title>Cleaner::removeSmallerBlocks</title>
<polygon fill="white" stroke="none" points="-4,4 -4,-214 993,-214 993,4 -4,4"/>
<!-- Node242 -->
<g id="node1" class="node"><title>Node242</title>
<polygon fill="#bfbfbf" stroke="black" points="0,-108.5 0,-127.5 152,-127.5 152,-108.5 0,-108.5"/>
<text text-anchor="middle" x="76" y="-115.5" font-family="Helvetica,sans-Serif" font-size="10.00">Cleaner::removeSmallerBlocks</text>
</g>
<!-- Node243 -->
<g id="node2" class="node"><title>Node243</title>
<g id="a_node2"><a xlink:href="class_cleaner.html#aa85792ad5a7c3209509a689fb0410e92" target="_top" xlink:title="Method to clean an alignment. &#160;It removes sequences that fall behind a certain threshold. &#160;The function detects if it would clean too many sequences, and relaxes the threshold until we have enough sequences to achieve the given percentage desired to keep. &#160;To achieve this, the method starts in the middle of the sequence and, alternating sides, adds column one by one. ">
<polygon fill="white" stroke="black" points="188,-152 188,-182 320,-182 320,-152 188,-152"/>
<text text-anchor="start" x="196" y="-170" font-family="Helvetica,sans-Serif" font-size="10.00">Cleaner::cleanByCutValue</text>
<text text-anchor="middle" x="254" y="-159" font-family="Helvetica,sans-Serif" font-size="10.00">FallBehind</text>
</a>
</g>
</g>
<!-- Node242&#45;&gt;Node243 -->
<g id="edge1" class="edge"><title>Node242&#45;&gt;Node243</title>
<path fill="none" stroke="midnightblue" d="M121.099,-130.278C144.719,-136.854 174.013,-145.009 198.99,-151.963"/>
<polygon fill="midnightblue" stroke="midnightblue" points="121.925,-126.874 111.352,-127.564 120.047,-133.618 121.925,-126.874"/>
</g>
<!-- Node249 -->
<g id="node8" class="node"><title>Node249</title>
<g id="a_node8"><a xlink:href="class_cleaner.html#a66bda5807c06cfaf1609e4c1f5955671" target="_top" xlink:title="Method to clean an alignment. &#160;It removes sequences that overpass or equals a certain threshold...">
<polygon fill="white" stroke="black" points="188,-44 188,-74 320,-74 320,-44 188,-44"/>
<text text-anchor="start" x="196" y="-62" font-family="Helvetica,sans-Serif" font-size="10.00">Cleaner::cleanByCutValue</text>
<text text-anchor="middle" x="254" y="-51" font-family="Helvetica,sans-Serif" font-size="10.00">Overpass</text>
</a>
</g>
</g>
<!-- Node242&#45;&gt;Node249 -->
<g id="edge8" class="edge"><title>Node242&#45;&gt;Node249</title>
<path fill="none" stroke="midnightblue" d="M115.275,-105.169C142.605,-96.0074 179.461,-83.6523 208.169,-74.0286"/>
<polygon fill="midnightblue" stroke="midnightblue" points="114.038,-101.892 105.669,-108.389 116.263,-108.529 114.038,-101.892"/>
</g>
<!-- Node254 -->
<g id="node13" class="node"><title>Node254</title>
<g id="a_node13"><a xlink:href="class_cleaner.html#ae7ad16bc3ad459a12c908801fa20da66" target="_top" xlink:title="Method to clean an alignment. &#160;It removes sequences that overpass or equals &#160;the gap threshold but &#160;f...">
<polygon fill="white" stroke="black" points="188,-103 188,-133 320,-133 320,-103 188,-103"/>
<text text-anchor="start" x="196" y="-121" font-family="Helvetica,sans-Serif" font-size="10.00">Cleaner::cleanByCutValue</text>
<text text-anchor="middle" x="254" y="-110" font-family="Helvetica,sans-Serif" font-size="10.00">OverpassOrEquals</text>
</a>
</g>
</g>
<!-- Node242&#45;&gt;Node254 -->
<g id="edge15" class="edge"><title>Node242&#45;&gt;Node254</title>
<path fill="none" stroke="midnightblue" d="M162.218,-118C170.825,-118 179.467,-118 187.815,-118"/>
<polygon fill="midnightblue" stroke="midnightblue" points="162.15,-114.5 152.15,-118 162.15,-121.5 162.15,-114.5"/>
</g>
<!-- Node244 -->
<g id="node3" class="node"><title>Node244</title>
<g id="a_node3"><a xlink:href="class_cleaner.html#ae2328fe8c189e2827b46e5dfb8e3deb3" target="_top" xlink:title="Method to trim an alignment based on consistency values obtained from a dataset of alignments...">
<polygon fill="white" stroke="black" points="357,-190.5 357,-209.5 492,-209.5 492,-190.5 357,-190.5"/>
<text text-anchor="middle" x="424.5" y="-197.5" font-family="Helvetica,sans-Serif" font-size="10.00">Cleaner::cleanCompareFile</text>
</a>
</g>
</g>
<!-- Node243&#45;&gt;Node244 -->
<g id="edge2" class="edge"><title>Node243&#45;&gt;Node244</title>
<path fill="none" stroke="midnightblue" d="M330.082,-181.704C345.323,-184.689 360.968,-187.753 374.992,-190.5"/>
<polygon fill="midnightblue" stroke="midnightblue" points="330.633,-178.246 320.146,-179.759 329.287,-185.115 330.633,-178.246"/>
</g>
<!-- Node248 -->
<g id="node7" class="node"><title>Node248</title>
<g id="a_node7"><a xlink:href="class_cleaner.html#a694d53fdd5d1ac9455858e48537af3d0" target="_top" xlink:title="Method to trim an alignment based on the similarity distribution values. ">
<polygon fill="white" stroke="black" points="356,-152.5 356,-171.5 493,-171.5 493,-152.5 356,-152.5"/>
<text text-anchor="middle" x="424.5" y="-159.5" font-family="Helvetica,sans-Serif" font-size="10.00">Cleaner::cleanConservation</text>
</a>
</g>
</g>
<!-- Node243&#45;&gt;Node248 -->
<g id="edge6" class="edge"><title>Node243&#45;&gt;Node248</title>
<path fill="none" stroke="midnightblue" d="M330.372,-164.763C338.822,-164.513 347.394,-164.258 355.74,-164.011"/>
<polygon fill="midnightblue" stroke="midnightblue" points="330.038,-161.272 320.146,-165.067 330.246,-168.269 330.038,-161.272"/>
</g>
<!-- Node245 -->
<g id="node4" class="node"><title>Node245</title>
<g id="a_node4"><a xlink:href="classtrim_al_manager.html#aebfd21b0435302f0e4fc45a068d1b6ee" target="_top" xlink:title="Method to trim the alignment using non automatic methods: ">
<polygon fill="white" stroke="black" points="533,-109 533,-139 685,-139 685,-109 533,-109"/>
<text text-anchor="start" x="541" y="-127" font-family="Helvetica,sans-Serif" font-size="10.00">trimAlManager::CleanResidues</text>
<text text-anchor="middle" x="609" y="-116" font-family="Helvetica,sans-Serif" font-size="10.00">NonAuto</text>
</a>
</g>
</g>
<!-- Node244&#45;&gt;Node245 -->
<g id="edge3" class="edge"><title>Node244&#45;&gt;Node245</title>
<path fill="none" stroke="midnightblue" d="M474.102,-187.494C480.518,-185.502 486.96,-183.324 493,-181 524.196,-168.998 558.316,-151.492 581.224,-139.052"/>
<polygon fill="midnightblue" stroke="midnightblue" points="472.689,-184.262 464.101,-190.467 474.684,-190.972 472.689,-184.262"/>
</g>
<!-- Node246 -->
<g id="node5" class="node"><title>Node246</title>
<g id="a_node5"><a xlink:href="classtrim_al_manager.html#adc529dd893ed4e9df6f3ddbd58776068" target="_top" xlink:title="Core Method of the program. This is where almost all cleaning methods are called from. ">
<polygon fill="white" stroke="black" points="725,-79 725,-109 834,-109 834,-79 725,-79"/>
<text text-anchor="start" x="733" y="-97" font-family="Helvetica,sans-Serif" font-size="10.00">trimAlManager::clean</text>
<text text-anchor="middle" x="779.5" y="-86" font-family="Helvetica,sans-Serif" font-size="10.00">_alignment</text>
</a>
</g>
</g>
<!-- Node245&#45;&gt;Node246 -->
<g id="edge4" class="edge"><title>Node245&#45;&gt;Node246</title>
<path fill="none" stroke="midnightblue" d="M695.403,-108.795C705.441,-107.008 715.457,-105.224 724.882,-103.546"/>
<polygon fill="midnightblue" stroke="midnightblue" points="694.611,-105.381 685.379,-110.579 695.838,-112.272 694.611,-105.381"/>
</g>
<!-- Node247 -->
<g id="node6" class="node"><title>Node247</title>
<g id="a_node6"><a xlink:href="classtrim_al_manager.html#abe8d2841455c644dc9c7d1294b82b00f" target="_top" xlink:title="Method to perform the analysis if all checks have passed. ">
<polygon fill="white" stroke="black" points="870,-84.5 870,-103.5 989,-103.5 989,-84.5 870,-84.5"/>
<text text-anchor="middle" x="929.5" y="-91.5" font-family="Helvetica,sans-Serif" font-size="10.00">trimAlManager::perform</text>
</a>
</g>
</g>
<!-- Node246&#45;&gt;Node247 -->
<g id="edge5" class="edge"><title>Node246&#45;&gt;Node247</title>
<path fill="none" stroke="midnightblue" d="M844.532,-94C852.977,-94 861.597,-94 869.943,-94"/>
<polygon fill="midnightblue" stroke="midnightblue" points="844.35,-90.5001 834.35,-94 844.35,-97.5001 844.35,-90.5001"/>
</g>
<!-- Node248&#45;&gt;Node245 -->
<g id="edge7" class="edge"><title>Node248&#45;&gt;Node245</title>
<path fill="none" stroke="midnightblue" d="M481.388,-150.363C498.517,-146.796 517.613,-142.82 535.675,-139.06"/>
<polygon fill="midnightblue" stroke="midnightblue" points="480.629,-146.946 471.552,-152.411 482.056,-153.799 480.629,-146.946"/>
</g>
<!-- Node250 -->
<g id="node9" class="node"><title>Node250</title>
<g id="a_node9"><a xlink:href="class_cleaner.html#a1ea9656823727f9ec237c82f9fb529cf" target="_top" xlink:title="Method that carries the gappyout approach. This methods calculates the slope in gaps distribution on ...">
<polygon fill="white" stroke="black" points="364.5,-0.5 364.5,-19.5 484.5,-19.5 484.5,-0.5 364.5,-0.5"/>
<text text-anchor="middle" x="424.5" y="-7.5" font-family="Helvetica,sans-Serif" font-size="10.00">Cleaner::clean2ndSlope</text>
</a>
</g>
</g>
<!-- Node249&#45;&gt;Node250 -->
<g id="edge9" class="edge"><title>Node249&#45;&gt;Node250</title>
<path fill="none" stroke="midnightblue" d="M314.751,-41.0979C328.303,-37.0806 342.638,-32.8648 356,-29 366.759,-25.888 378.503,-22.5589 389.134,-19.5707"/>
<polygon fill="midnightblue" stroke="midnightblue" points="313.636,-37.7777 305.047,-43.9802 315.629,-44.488 313.636,-37.7777"/>
</g>
<!-- Node251 -->
<g id="node10" class="node"><title>Node251</title>
<g id="a_node10"><a xlink:href="class_cleaner.html#ac3be9d53018d9146d6dc6cf7ff89f96d" target="_top" xlink:title="Method to trim an alignment based on the gap distribution values. Column blocks that don&#39;t have a min...">
<polygon fill="white" stroke="black" points="373,-76.5 373,-95.5 476,-95.5 476,-76.5 373,-76.5"/>
<text text-anchor="middle" x="424.5" y="-83.5" font-family="Helvetica,sans-Serif" font-size="10.00">Cleaner::cleanGaps</text>
</a>
</g>
</g>
<!-- Node249&#45;&gt;Node251 -->
<g id="edge10" class="edge"><title>Node249&#45;&gt;Node251</title>
<path fill="none" stroke="midnightblue" d="M330.093,-71.0327C344.576,-73.3534 359.423,-75.7325 372.897,-77.8915"/>
<polygon fill="midnightblue" stroke="midnightblue" points="330.574,-67.5653 320.146,-69.4389 329.467,-74.4771 330.574,-67.5653"/>
</g>
<!-- Node252 -->
<g id="node11" class="node"><title>Node252</title>
<g id="a_node11"><a xlink:href="class_cleaner.html#a08e6db52c33baccce53a33d844597d7b" target="_top" xlink:title="Method to remove columns composed only by gaps This method is specially useful when we remove missali...">
<polygon fill="white" stroke="black" points="361,-38.5 361,-57.5 488,-57.5 488,-38.5 361,-38.5"/>
<text text-anchor="middle" x="424.5" y="-45.5" font-family="Helvetica,sans-Serif" font-size="10.00">Cleaner::cleanNoAllGaps</text>
</a>
</g>
</g>
<!-- Node249&#45;&gt;Node252 -->
<g id="edge12" class="edge"><title>Node249&#45;&gt;Node252</title>
<path fill="none" stroke="midnightblue" d="M330.252,-54.0874C340.44,-53.4223 350.804,-52.7457 360.742,-52.097"/>
<polygon fill="midnightblue" stroke="midnightblue" points="329.897,-50.603 320.146,-54.7471 330.353,-57.5882 329.897,-50.603"/>
</g>
<!-- Node251&#45;&gt;Node245 -->
<g id="edge11" class="edge"><title>Node251&#45;&gt;Node245</title>
<path fill="none" stroke="midnightblue" d="M481.388,-97.6369C498.517,-101.204 517.613,-105.18 535.675,-108.94"/>
<polygon fill="midnightblue" stroke="midnightblue" points="482.056,-94.201 471.552,-95.589 480.629,-101.054 482.056,-94.201"/>
</g>
<!-- Node253 -->
<g id="node12" class="node"><title>Node253</title>
<g id="a_node12"><a xlink:href="classtrim_al_manager.html#a10536f715945a1a45f1df33f7cedc81e" target="_top" xlink:title="Method to trim or reduce the number of sequences in an alignment. It performs one or none of the foll...">
<polygon fill="white" stroke="black" points="529,-54.5 529,-73.5 689,-73.5 689,-54.5 529,-54.5"/>
<text text-anchor="middle" x="609" y="-61.5" font-family="Helvetica,sans-Serif" font-size="10.00">trimAlManager::CleanSequences</text>
</a>
</g>
</g>
<!-- Node252&#45;&gt;Node253 -->
<g id="edge13" class="edge"><title>Node252&#45;&gt;Node253</title>
<path fill="none" stroke="midnightblue" d="M498.025,-54.3583C508.124,-55.2438 518.544,-56.1573 528.759,-57.0528"/>
<polygon fill="midnightblue" stroke="midnightblue" points="498.318,-50.8707 488.051,-53.4839 497.707,-57.844 498.318,-50.8707"/>
</g>
<!-- Node253&#45;&gt;Node246 -->
<g id="edge14" class="edge"><title>Node253&#45;&gt;Node246</title>
<path fill="none" stroke="midnightblue" d="M674.058,-75.4049C690.845,-78.3937 708.769,-81.5849 724.944,-84.4648"/>
<polygon fill="midnightblue" stroke="midnightblue" points="674.236,-71.8818 663.778,-73.5747 673.009,-78.7734 674.236,-71.8818"/>
</g>
<!-- Node255 -->
<g id="node14" class="node"><title>Node255</title>
<g id="a_node14"><a xlink:href="class_cleaner.html#a1ac5ba504932526d77575365557a4d64" target="_top" xlink:title="Method to trim an alignment based on the similarity and gaps distribution values. ...">
<polygon fill="white" stroke="black" points="384.5,-114.5 384.5,-133.5 464.5,-133.5 464.5,-114.5 384.5,-114.5"/>
<text text-anchor="middle" x="424.5" y="-121.5" font-family="Helvetica,sans-Serif" font-size="10.00">Cleaner::clean</text>
</a>
</g>
</g>
<!-- Node254&#45;&gt;Node255 -->
<g id="edge16" class="edge"><title>Node254&#45;&gt;Node255</title>
<path fill="none" stroke="midnightblue" d="M330.153,-120.676C348.861,-121.342 368.174,-122.03 384.345,-122.606"/>
<polygon fill="midnightblue" stroke="midnightblue" points="330.265,-117.178 320.146,-120.32 330.016,-124.173 330.265,-117.178"/>
</g>
<!-- Node255&#45;&gt;Node245 -->
<g id="edge17" class="edge"><title>Node255&#45;&gt;Node245</title>
<path fill="none" stroke="midnightblue" d="M474.818,-124C492.672,-124 513.263,-124 532.834,-124"/>
<polygon fill="midnightblue" stroke="midnightblue" points="474.651,-120.5 464.651,-124 474.651,-127.5 474.651,-120.5"/>
</g>
</g>
</svg>
