<?xml version="1.0" encoding="UTF-8" standalone="no"?>
<!DOCTYPE svg PUBLIC "-//W3C//DTD SVG 1.1//EN"
 "http://www.w3.org/Graphics/SVG/1.1/DTD/svg11.dtd">
<!-- Generated by graphviz version 2.38.0 (20140413.2041)
 -->
<!-- Title: utils::ReplaceStringInPlace Pages: 1 -->
<svg width="328pt" height="66pt"
 viewBox="0.00 0.00 328.00 66.00" xmlns="http://www.w3.org/2000/svg" xmlns:xlink="http://www.w3.org/1999/xlink">
<g id="graph0" class="graph" transform="scale(1 1) rotate(0) translate(4 62)">
<title>utils::ReplaceStringInPlace</title>
<polygon fill="white" stroke="none" points="-4,4 -4,-62 324,-62 324,4 -4,4"/>
<!-- Node137 -->
<g id="node1" class="node"><title>Node137</title>
<polygon fill="#bfbfbf" stroke="black" points="0,-19.5 0,-38.5 135,-38.5 135,-19.5 0,-19.5"/>
<text text-anchor="middle" x="67.5" y="-26.5" font-family="Helvetica,sans-Serif" font-size="10.00">utils::ReplaceStringInPlace</text>
</g>
<!-- Node138 -->
<g id="node2" class="node"><title>Node138</title>
<g id="a_node2"><a xlink:href="class_read_write_m_s.html#a96e81b9c1bb49a746bc923b0ecf9b0d0" target="_top" xlink:title="Function to save an alignment to a file. It searched on the available_states, the one that can write ...">
<polygon fill="white" stroke="black" points="171,-38.5 171,-57.5 320,-57.5 320,-38.5 171,-38.5"/>
<text text-anchor="middle" x="245.5" y="-45.5" font-family="Helvetica,sans-Serif" font-size="10.00">ReadWriteMS::saveAlignment</text>
</a>
</g>
</g>
<!-- Node137&#45;&gt;Node138 -->
<g id="edge1" class="edge"><title>Node137&#45;&gt;Node138</title>
<path fill="none" stroke="midnightblue" d="M145.002,-37.2587C153.564,-38.1831 162.274,-39.1234 170.8,-40.0438"/>
<polygon fill="midnightblue" stroke="midnightblue" points="145.356,-33.7767 135.038,-36.1831 144.605,-40.7363 145.356,-33.7767"/>
</g>
<!-- Node139 -->
<g id="node3" class="node"><title>Node139</title>
<g id="a_node3"><a xlink:href="class_read_write_m_s.html#a15d072b1a26e6eb21e28fa016cc2f340" target="_top" xlink:title="Function that takes multile files, loads them and saves in a cumulus of formats, using an outPattern...">
<polygon fill="white" stroke="black" points="178.5,-0.5 178.5,-19.5 312.5,-19.5 312.5,-0.5 178.5,-0.5"/>
<text text-anchor="middle" x="245.5" y="-7.5" font-family="Helvetica,sans-Serif" font-size="10.00">ReadWriteMS::processFile</text>
</a>
</g>
</g>
<!-- Node137&#45;&gt;Node139 -->
<g id="edge2" class="edge"><title>Node137&#45;&gt;Node139</title>
<path fill="none" stroke="midnightblue" d="M145.141,-20.7262C156.24,-19.528 167.585,-18.3034 178.452,-17.1302"/>
<polygon fill="midnightblue" stroke="midnightblue" points="144.605,-17.2637 135.038,-21.8169 145.356,-24.2233 144.605,-17.2637"/>
</g>
</g>
</svg>
