<?xml version="1.0" encoding="UTF-8" standalone="no"?>
<!DOCTYPE svg PUBLIC "-//W3C//DTD SVG 1.1//EN"
 "http://www.w3.org/Graphics/SVG/1.1/DTD/svg11.dtd">
<!-- Generated by graphviz version 2.38.0 (20140413.2041)
 -->
<!-- Title: Cleaner::cleanByCutValue Pages: 1 -->
<svg width="507pt" height="230pt"
 viewBox="0.00 0.00 507.00 229.50" xmlns="http://www.w3.org/2000/svg" xmlns:xlink="http://www.w3.org/1999/xlink">
<g id="graph0" class="graph" transform="scale(1 1) rotate(0) translate(4 225.5)">
<title>Cleaner::cleanByCutValue</title>
<polygon fill="white" stroke="none" points="-4,4 -4,-225.5 503,-225.5 503,4 -4,4"/>
<!-- Node58 -->
<g id="node1" class="node"><title>Node58</title>
<polygon fill="#bfbfbf" stroke="black" points="0,-107 0,-126 132,-126 132,-107 0,-107"/>
<text text-anchor="middle" x="66" y="-114" font-family="Helvetica,sans-Serif" font-size="10.00">Cleaner::cleanByCutValue</text>
</g>
<!-- Node59 -->
<g id="node2" class="node"><title>Node59</title>
<g id="a_node2"><a xlink:href="classutils.html#ad50731aeb3c8f79ed8372516210dfc9d" target="_top" xlink:title="Round double to integer method. ">
<polygon fill="white" stroke="black" points="219.5,-202 219.5,-221 295.5,-221 295.5,-202 219.5,-202"/>
<text text-anchor="middle" x="257.5" y="-209" font-family="Helvetica,sans-Serif" font-size="10.00">utils::roundInt</text>
</a>
</g>
</g>
<!-- Node58&#45;&gt;Node59 -->
<g id="edge1" class="edge"><title>Node58&#45;&gt;Node59</title>
<path fill="none" stroke="midnightblue" d="M76.649,-126.111C93.5925,-142.41 130.471,-175.366 168,-192.5 180.759,-198.325 195.378,-202.398 209.009,-205.232"/>
<polygon fill="midnightblue" stroke="midnightblue" points="208.717,-208.739 219.194,-207.166 210.023,-201.862 208.717,-208.739"/>
</g>
<!-- Node60 -->
<g id="node3" class="node"><title>Node60</title>
<g id="a_node3"><a xlink:href="classutils.html#a42f272221edf7752ffda49e4212ef653" target="_top" xlink:title="Integer vector copying. ">
<polygon fill="white" stroke="black" points="216.5,-164 216.5,-183 298.5,-183 298.5,-164 216.5,-164"/>
<text text-anchor="middle" x="257.5" y="-171" font-family="Helvetica,sans-Serif" font-size="10.00">utils::copyVect</text>
</a>
</g>
</g>
<!-- Node58&#45;&gt;Node60 -->
<g id="edge2" class="edge"><title>Node58&#45;&gt;Node60</title>
<path fill="none" stroke="midnightblue" d="M89.5369,-126.082C109.793,-134.427 140.498,-146.423 168,-154.5 180.254,-158.099 193.648,-161.328 206.222,-164.059"/>
<polygon fill="midnightblue" stroke="midnightblue" points="205.586,-167.502 216.093,-166.14 207.03,-160.652 205.586,-167.502"/>
</g>
<!-- Node61 -->
<g id="node4" class="node"><title>Node61</title>
<g id="a_node4"><a xlink:href="classutils.html#a73f038c379c13d23e3220afaa14f9983" target="_top" xlink:title="Quicksort sorting method. ">
<polygon fill="white" stroke="black" points="217.5,-126 217.5,-145 297.5,-145 297.5,-126 217.5,-126"/>
<text text-anchor="middle" x="257.5" y="-133" font-family="Helvetica,sans-Serif" font-size="10.00">utils::quicksort</text>
</a>
</g>
</g>
<!-- Node58&#45;&gt;Node61 -->
<g id="edge3" class="edge"><title>Node58&#45;&gt;Node61</title>
<path fill="none" stroke="midnightblue" d="M132.215,-123.039C156.818,-125.506 184.374,-128.268 207.275,-130.564"/>
<polygon fill="midnightblue" stroke="midnightblue" points="207.143,-134.069 217.442,-131.584 207.841,-127.104 207.143,-134.069"/>
</g>
<!-- Node63 -->
<g id="node6" class="node"><title>Node63</title>
<g id="a_node6"><a xlink:href="class_cleaner.html#a033da9ea63774f43f4c7aff04f23da81" target="_top" xlink:title="Method to detect right and left borders. Borders are the first column found with no gaps...">
<polygon fill="white" stroke="black" points="184.5,-88 184.5,-107 330.5,-107 330.5,-88 184.5,-88"/>
<text text-anchor="middle" x="257.5" y="-95" font-family="Helvetica,sans-Serif" font-size="10.00">Cleaner::removeOnlyTerminal</text>
</a>
</g>
</g>
<!-- Node58&#45;&gt;Node63 -->
<g id="edge5" class="edge"><title>Node58&#45;&gt;Node63</title>
<path fill="none" stroke="midnightblue" d="M132.215,-109.961C145.741,-108.605 160.159,-107.16 174.205,-105.751"/>
<polygon fill="midnightblue" stroke="midnightblue" points="174.748,-109.214 184.349,-104.734 174.05,-102.249 174.748,-109.214"/>
</g>
<!-- Node65 -->
<g id="node8" class="node"><title>Node65</title>
<g id="a_node8"><a xlink:href="class_cleaner.html#a24bd28e4191afc9471adff329bee1466" target="_top" xlink:title="Method for computing the complementary alignment. Complementary Alignment is an alignment containing ...">
<polygon fill="white" stroke="black" points="168,-50 168,-69 347,-69 347,-50 168,-50"/>
<text text-anchor="middle" x="257.5" y="-57" font-family="Helvetica,sans-Serif" font-size="10.00">Cleaner::computeComplementaryAlig</text>
</a>
</g>
</g>
<!-- Node58&#45;&gt;Node65 -->
<g id="edge7" class="edge"><title>Node58&#45;&gt;Node65</title>
<path fill="none" stroke="midnightblue" d="M89.5369,-106.918C109.793,-98.5732 140.498,-86.5775 168,-78.5 176.858,-75.8983 186.312,-73.4901 195.621,-71.3236"/>
<polygon fill="midnightblue" stroke="midnightblue" points="196.643,-74.6811 205.63,-69.0698 195.105,-67.852 196.643,-74.6811"/>
</g>
<!-- Node66 -->
<g id="node9" class="node"><title>Node66</title>
<g id="a_node9"><a xlink:href="class_cleaner.html#ada8ad076dd037f00ae3f4fd17762641f" target="_top" xlink:title="Method that identifies and removes columns and sequences composed only by gaps. ">
<polygon fill="white" stroke="black" points="184.5,-0.5 184.5,-30.5 330.5,-30.5 330.5,-0.5 184.5,-0.5"/>
<text text-anchor="start" x="192.5" y="-18.5" font-family="Helvetica,sans-Serif" font-size="10.00">Cleaner::removeAllGapsSeqs</text>
<text text-anchor="middle" x="257.5" y="-7.5" font-family="Helvetica,sans-Serif" font-size="10.00">AndCols</text>
</a>
</g>
</g>
<!-- Node58&#45;&gt;Node66 -->
<g id="edge8" class="edge"><title>Node58&#45;&gt;Node66</title>
<path fill="none" stroke="midnightblue" d="M77.0437,-106.885C94.2883,-90.877 131.233,-58.7252 168,-40.5 172.62,-38.2099 177.483,-36.0997 182.454,-34.1605"/>
<polygon fill="midnightblue" stroke="midnightblue" points="183.915,-37.3533 192.111,-30.6397 181.517,-30.7767 183.915,-37.3533"/>
</g>
<!-- Node62 -->
<g id="node5" class="node"><title>Node62</title>
<g id="a_node5"><a xlink:href="classutils.html#a3377ecde55631d1bbc4956e5923b7469" target="_top" xlink:title="Swapping elements method. ">
<polygon fill="white" stroke="black" points="409,-126 409,-145 473,-145 473,-126 409,-126"/>
<text text-anchor="middle" x="441" y="-133" font-family="Helvetica,sans-Serif" font-size="10.00">utils::swap</text>
</a>
</g>
</g>
<!-- Node61&#45;&gt;Node62 -->
<g id="edge4" class="edge"><title>Node61&#45;&gt;Node62</title>
<path fill="none" stroke="midnightblue" d="M297.883,-135.5C327.634,-135.5 368.367,-135.5 398.6,-135.5"/>
<polygon fill="midnightblue" stroke="midnightblue" points="398.82,-139 408.82,-135.5 398.82,-132 398.82,-139"/>
</g>
<!-- Node64 -->
<g id="node7" class="node"><title>Node64</title>
<g id="a_node7"><a xlink:href="class____internal_report_1_1____report_system.html#a94ce85b97d7b6c3e5fbda0d30a35edd0" target="_top" xlink:title="Method to report an Error. It will be displayed if Level &#160;is equal or higher to VerboseLevel::ERROR. ">
<polygon fill="white" stroke="black" points="383,-38.5 383,-68.5 499,-68.5 499,-38.5 383,-38.5"/>
<text text-anchor="start" x="391" y="-56.5" font-family="Helvetica,sans-Serif" font-size="10.00">__internalReport::</text>
<text text-anchor="middle" x="441" y="-45.5" font-family="Helvetica,sans-Serif" font-size="10.00">__reportSystem::report</text>
</a>
</g>
</g>
<!-- Node63&#45;&gt;Node64 -->
<g id="edge6" class="edge"><title>Node63&#45;&gt;Node64</title>
<path fill="none" stroke="midnightblue" d="M304.992,-87.9856C318.566,-85.0815 333.405,-81.7844 347,-78.5 356.507,-76.2032 366.526,-73.6506 376.325,-71.0791"/>
<polygon fill="midnightblue" stroke="midnightblue" points="377.254,-74.4538 386.025,-68.5101 375.462,-67.6871 377.254,-74.4538"/>
</g>
<!-- Node66&#45;&gt;Node64 -->
<g id="edge9" class="edge"><title>Node66&#45;&gt;Node64</title>
<path fill="none" stroke="midnightblue" d="M330.234,-30.5186C344.267,-33.4567 358.935,-36.5277 372.813,-39.4334"/>
<polygon fill="midnightblue" stroke="midnightblue" points="372.254,-42.8921 382.759,-41.5157 373.689,-36.0407 372.254,-42.8921"/>
</g>
</g>
</svg>
