<?xml version="1.0" encoding="UTF-8" standalone="no"?>
<!DOCTYPE svg PUBLIC "-//W3C//DTD SVG 1.1//EN"
 "http://www.w3.org/Graphics/SVG/1.1/DTD/svg11.dtd">
<!-- Generated by graphviz version 2.38.0 (20140413.2041)
 -->
<!-- Title: ReportSystem Pages: 1 -->
<svg width="735pt" height="348pt"
 viewBox="0.00 0.00 735.00 348.00" xmlns="http://www.w3.org/2000/svg" xmlns:xlink="http://www.w3.org/1999/xlink">
<g id="graph0" class="graph" transform="scale(1 1) rotate(0) translate(4 344)">
<title>ReportSystem</title>
<polygon fill="white" stroke="none" points="-4,4 -4,-344 731,-344 731,4 -4,4"/>
<!-- Node1 -->
<g id="node1" class="node"><title>Node1</title>
<polygon fill="#bfbfbf" stroke="black" points="647,-181.5 647,-200.5 727,-200.5 727,-181.5 647,-181.5"/>
<text text-anchor="middle" x="687" y="-188.5" font-family="Helvetica,sans-Serif" font-size="10.00">ReportSystem</text>
</g>
<!-- Node2 -->
<g id="node2" class="node"><title>Node2</title>
<polygon fill="white" stroke="#bfbfbf" points="401.5,-251.5 401.5,-270.5 504.5,-270.5 504.5,-251.5 401.5,-251.5"/>
<text text-anchor="middle" x="453" y="-258.5" font-family="Helvetica,sans-Serif" font-size="10.00">static VerboseLevel</text>
</g>
<!-- Node2&#45;&gt;Node1 -->
<g id="edge1" class="edge"><title>Node2&#45;&gt;Node1</title>
<path fill="none" stroke="#9a32cd" stroke-dasharray="5,2" d="M514.724,-251.771C548.959,-245.51 592.127,-235.824 629,-222 643.978,-216.385 659.877,-207.461 671.068,-200.627"/>
<polygon fill="#9a32cd" stroke="#9a32cd" points="514.094,-248.328 504.862,-253.525 515.32,-255.22 514.094,-248.328"/>
<text text-anchor="middle" x="586.5" y="-249" font-family="Helvetica,sans-Serif" font-size="10.00"> Level</text>
</g>
<!-- Node3 -->
<g id="node3" class="node"><title>Node3</title>
<polygon fill="white" stroke="#bfbfbf" points="389.5,-202 389.5,-232 516.5,-232 516.5,-202 389.5,-202"/>
<text text-anchor="start" x="397.5" y="-220" font-family="Helvetica,sans-Serif" font-size="10.00">std::map&lt; ReportSystem</text>
<text text-anchor="middle" x="453" y="-209" font-family="Helvetica,sans-Serif" font-size="10.00">::InfoCode, const char *&gt;</text>
</g>
<!-- Node3&#45;&gt;Node1 -->
<g id="edge2" class="edge"><title>Node3&#45;&gt;Node1</title>
<path fill="none" stroke="#9a32cd" stroke-dasharray="5,2" d="M526.952,-208.824C566.633,-204.377 614.145,-199.053 646.846,-195.388"/>
<polygon fill="#9a32cd" stroke="#9a32cd" points="526.33,-205.372 516.783,-209.964 527.11,-212.328 526.33,-205.372"/>
<text text-anchor="middle" x="586.5" y="-210" font-family="Helvetica,sans-Serif" font-size="10.00"> InfoMessages</text>
</g>
<!-- Node4 -->
<g id="node4" class="node"><title>Node4</title>
<polygon fill="white" stroke="#bfbfbf" points="126,-309.5 126,-328.5 182,-328.5 182,-309.5 126,-309.5"/>
<text text-anchor="middle" x="154" y="-316.5" font-family="Helvetica,sans-Serif" font-size="10.00">InfoCode</text>
</g>
<!-- Node4&#45;&gt;Node3 -->
<g id="edge3" class="edge"><title>Node4&#45;&gt;Node3</title>
<path fill="none" stroke="#9a32cd" stroke-dasharray="5,2" d="M192.272,-325.915C237.561,-332.07 313.869,-334.91 362,-296 381.674,-280.096 362.223,-260 380,-242 383.812,-238.14 388.25,-234.875 393.016,-232.114"/>
<polygon fill="#9a32cd" stroke="#9a32cd" points="192.686,-322.438 182.281,-324.435 191.66,-329.363 192.686,-322.438"/>
<text text-anchor="middle" x="290" y="-332" font-family="Helvetica,sans-Serif" font-size="10.00"> keys</text>
</g>
<!-- Node5 -->
<g id="node5" class="node"><title>Node5</title>
<polygon fill="white" stroke="#bfbfbf" points="136.5,-158.5 136.5,-177.5 171.5,-177.5 171.5,-158.5 136.5,-158.5"/>
<text text-anchor="middle" x="154" y="-165.5" font-family="Helvetica,sans-Serif" font-size="10.00">char</text>
</g>
<!-- Node5&#45;&gt;Node3 -->
<g id="edge4" class="edge"><title>Node5&#45;&gt;Node3</title>
<path fill="none" stroke="#9a32cd" stroke-dasharray="5,2" d="M168.055,-185.391C179.5,-199.071 197.483,-217.096 218,-225 273.285,-246.298 341.468,-240.752 389.942,-232.024"/>
<polygon fill="#9a32cd" stroke="#9a32cd" points="170.783,-183.198 161.81,-177.565 165.311,-187.564 170.783,-183.198"/>
<text text-anchor="middle" x="290" y="-243" font-family="Helvetica,sans-Serif" font-size="10.00"> elements</text>
</g>
<!-- Node9 -->
<g id="node9" class="node"><title>Node9</title>
<polygon fill="white" stroke="#bfbfbf" points="387.5,-153 387.5,-183 518.5,-183 518.5,-153 387.5,-153"/>
<text text-anchor="start" x="395.5" y="-171" font-family="Helvetica,sans-Serif" font-size="10.00">std::map&lt; ReportSystem</text>
<text text-anchor="middle" x="453" y="-160" font-family="Helvetica,sans-Serif" font-size="10.00">::ErrorCode, const char *&gt;</text>
</g>
<!-- Node5&#45;&gt;Node9 -->
<g id="edge9" class="edge"><title>Node5&#45;&gt;Node9</title>
<path fill="none" stroke="#9a32cd" stroke-dasharray="5,2" d="M181.906,-168C227.952,-168 323.098,-168 387.254,-168"/>
<polygon fill="#9a32cd" stroke="#9a32cd" points="181.819,-164.5 171.819,-168 181.819,-171.5 181.819,-164.5"/>
<text text-anchor="middle" x="290" y="-171" font-family="Helvetica,sans-Serif" font-size="10.00"> elements</text>
</g>
<!-- Node11 -->
<g id="node11" class="node"><title>Node11</title>
<polygon fill="white" stroke="#bfbfbf" points="380,-67 380,-97 526,-97 526,-67 380,-67"/>
<text text-anchor="start" x="388" y="-85" font-family="Helvetica,sans-Serif" font-size="10.00">std::map&lt; ReportSystem</text>
<text text-anchor="middle" x="453" y="-74" font-family="Helvetica,sans-Serif" font-size="10.00">::WarningCode, const char *&gt;</text>
</g>
<!-- Node5&#45;&gt;Node11 -->
<g id="edge14" class="edge"><title>Node5&#45;&gt;Node11</title>
<path fill="none" stroke="#9a32cd" stroke-dasharray="5,2" d="M181.636,-161.317C221.183,-151.277 297.681,-131.403 362,-112 377.295,-107.386 393.921,-101.961 408.673,-97.003"/>
<polygon fill="#9a32cd" stroke="#9a32cd" points="180.565,-157.978 171.728,-163.823 182.281,-164.764 180.565,-157.978"/>
<text text-anchor="middle" x="290" y="-155" font-family="Helvetica,sans-Serif" font-size="10.00"> elements</text>
</g>
<!-- Node6 -->
<g id="node6" class="node"><title>Node6</title>
<g id="a_node6"><a xlink:title="STL class. ">
<polygon fill="white" stroke="#bfbfbf" points="108,-79.5 108,-98.5 200,-98.5 200,-79.5 108,-79.5"/>
<text text-anchor="middle" x="154" y="-86.5" font-family="Helvetica,sans-Serif" font-size="10.00">std::map&lt; K, T &gt;</text>
</a>
</g>
</g>
<!-- Node6&#45;&gt;Node3 -->
<g id="edge5" class="edge"><title>Node6&#45;&gt;Node3</title>
<path fill="none" stroke="orange" stroke-dasharray="5,2" d="M169.057,-106.596C178.23,-118.349 190.263,-134.292 200,-149 208.795,-162.285 204.743,-171.163 218,-180 244.857,-197.903 330.157,-193.721 362,-199 370.803,-200.459 380.062,-202.142 389.155,-203.879"/>
<polygon fill="orange" stroke="orange" points="171.626,-104.201 162.686,-98.5154 166.129,-108.535 171.626,-104.201"/>
<text text-anchor="start" x="228" y="-213" font-family="Helvetica,sans-Serif" font-size="10.00"> &lt; ReportSystem::InfoCode,</text>
<text text-anchor="middle" x="290" y="-202" font-family="Helvetica,sans-Serif" font-size="10.00"> const char *&gt;</text>
</g>
<!-- Node6&#45;&gt;Node9 -->
<g id="edge11" class="edge"><title>Node6&#45;&gt;Node9</title>
<path fill="none" stroke="orange" stroke-dasharray="5,2" d="M210.248,-78.9285C253.103,-73.5283 313.22,-71.3188 362,-90 371.996,-93.828 371.944,-98.952 380,-106 398.374,-122.076 419.568,-140.286 434.179,-152.79"/>
<polygon fill="orange" stroke="orange" points="209.727,-75.467 200.288,-80.2797 210.668,-82.4035 209.727,-75.467"/>
<text text-anchor="start" x="225.5" y="-104" font-family="Helvetica,sans-Serif" font-size="10.00"> &lt; ReportSystem::ErrorCode,</text>
<text text-anchor="middle" x="290" y="-93" font-family="Helvetica,sans-Serif" font-size="10.00"> const char *&gt;</text>
</g>
<!-- Node6&#45;&gt;Node11 -->
<g id="edge15" class="edge"><title>Node6&#45;&gt;Node11</title>
<path fill="none" stroke="orange" stroke-dasharray="5,2" d="M172.355,-72.4677C184.194,-62.379 200.796,-50.413 218,-45 279.049,-25.7916 299.213,-32.5974 362,-45 383.38,-49.2233 406.066,-58.5854 423.313,-66.835"/>
<polygon fill="orange" stroke="orange" points="169.763,-70.0897 164.636,-79.3614 174.426,-75.3107 169.763,-70.0897"/>
<text text-anchor="start" x="218" y="-59" font-family="Helvetica,sans-Serif" font-size="10.00"> &lt; ReportSystem::WarningCode,</text>
<text text-anchor="middle" x="290" y="-48" font-family="Helvetica,sans-Serif" font-size="10.00"> const char *&gt;</text>
</g>
<!-- Node7 -->
<g id="node7" class="node"><title>Node7</title>
<polygon fill="white" stroke="#bfbfbf" points="0,-98.5 0,-117.5 29,-117.5 29,-98.5 0,-98.5"/>
<text text-anchor="middle" x="14.5" y="-105.5" font-family="Helvetica,sans-Serif" font-size="10.00">K</text>
</g>
<!-- Node7&#45;&gt;Node6 -->
<g id="edge6" class="edge"><title>Node7&#45;&gt;Node6</title>
<path fill="none" stroke="#9a32cd" stroke-dasharray="5,2" d="M39.2564,-104.717C58.0894,-102.115 84.9541,-98.4027 107.846,-95.2394"/>
<polygon fill="#9a32cd" stroke="#9a32cd" points="38.6135,-101.273 29.1867,-106.109 39.5717,-108.207 38.6135,-101.273"/>
<text text-anchor="middle" x="68.5" y="-107" font-family="Helvetica,sans-Serif" font-size="10.00"> keys</text>
</g>
<!-- Node8 -->
<g id="node8" class="node"><title>Node8</title>
<polygon fill="white" stroke="#bfbfbf" points="0,-60.5 0,-79.5 29,-79.5 29,-60.5 0,-60.5"/>
<text text-anchor="middle" x="14.5" y="-67.5" font-family="Helvetica,sans-Serif" font-size="10.00">T</text>
</g>
<!-- Node8&#45;&gt;Node6 -->
<g id="edge7" class="edge"><title>Node8&#45;&gt;Node6</title>
<path fill="none" stroke="#9a32cd" stroke-dasharray="5,2" d="M39.2564,-73.2827C58.0894,-75.8851 84.9541,-79.5973 107.846,-82.7606"/>
<polygon fill="#9a32cd" stroke="#9a32cd" points="39.5717,-69.7931 29.1867,-71.8913 38.6135,-76.7272 39.5717,-69.7931"/>
<text text-anchor="middle" x="68.5" y="-84" font-family="Helvetica,sans-Serif" font-size="10.00"> elements</text>
</g>
<!-- Node9&#45;&gt;Node1 -->
<g id="edge8" class="edge"><title>Node9&#45;&gt;Node1</title>
<path fill="none" stroke="#9a32cd" stroke-dasharray="5,2" d="M529.022,-168.741C560.093,-169.856 596.415,-172.205 629,-177 636.46,-178.098 644.37,-179.731 651.847,-181.498"/>
<polygon fill="#9a32cd" stroke="#9a32cd" points="528.807,-165.233 518.7,-168.409 528.582,-172.229 528.807,-165.233"/>
<text text-anchor="middle" x="586.5" y="-180" font-family="Helvetica,sans-Serif" font-size="10.00"> ErrorMessages</text>
</g>
<!-- Node10 -->
<g id="node10" class="node"><title>Node10</title>
<polygon fill="white" stroke="#bfbfbf" points="123.5,-271.5 123.5,-290.5 184.5,-290.5 184.5,-271.5 123.5,-271.5"/>
<text text-anchor="middle" x="154" y="-278.5" font-family="Helvetica,sans-Serif" font-size="10.00">ErrorCode</text>
</g>
<!-- Node10&#45;&gt;Node9 -->
<g id="edge10" class="edge"><title>Node10&#45;&gt;Node9</title>
<path fill="none" stroke="#9a32cd" stroke-dasharray="5,2" d="M194.851,-281.063C247.836,-280.315 337.639,-275.885 362,-255 384.108,-236.047 359.861,-213.034 380,-192 383.28,-188.574 387.062,-185.637 391.139,-183.119"/>
<polygon fill="#9a32cd" stroke="#9a32cd" points="194.738,-277.564 184.775,-281.167 194.811,-284.564 194.738,-277.564"/>
<text text-anchor="middle" x="290" y="-284" font-family="Helvetica,sans-Serif" font-size="10.00"> keys</text>
</g>
<!-- Node11&#45;&gt;Node1 -->
<g id="edge12" class="edge"><title>Node11&#45;&gt;Node1</title>
<path fill="none" stroke="#9a32cd" stroke-dasharray="5,2" d="M505.204,-100.737C540.653,-114.339 588.549,-133.979 629,-155 644.371,-162.988 661.02,-173.772 672.332,-181.449"/>
<polygon fill="#9a32cd" stroke="#9a32cd" points="506.143,-97.35 495.552,-97.0651 503.654,-103.892 506.143,-97.35"/>
<text text-anchor="middle" x="586.5" y="-158" font-family="Helvetica,sans-Serif" font-size="10.00"> WarningMessages</text>
</g>
<!-- Node12 -->
<g id="node12" class="node"><title>Node12</title>
<polygon fill="white" stroke="#bfbfbf" points="116,-0.5 116,-19.5 192,-19.5 192,-0.5 116,-0.5"/>
<text text-anchor="middle" x="154" y="-7.5" font-family="Helvetica,sans-Serif" font-size="10.00">WarningCode</text>
</g>
<!-- Node12&#45;&gt;Node11 -->
<g id="edge13" class="edge"><title>Node12&#45;&gt;Node11</title>
<path fill="none" stroke="#9a32cd" stroke-dasharray="5,2" d="M202.181,-4.68827C245.055,-1.56165 309.446,-1.16968 362,-19 391.26,-28.9271 419.528,-51.5187 436.343,-66.7709"/>
<polygon fill="#9a32cd" stroke="#9a32cd" points="201.719,-1.21412 192.034,-5.50876 202.284,-8.19135 201.719,-1.21412"/>
<text text-anchor="middle" x="290" y="-22" font-family="Helvetica,sans-Serif" font-size="10.00"> keys</text>
</g>
</g>
</svg>
