<?xml version="1.0" encoding="UTF-8" standalone="no"?>
<!DOCTYPE svg PUBLIC "-//W3C//DTD SVG 1.1//EN"
 "http://www.w3.org/Graphics/SVG/1.1/DTD/svg11.dtd">
<!-- Generated by graphviz version 2.40.1 (20161225.0304)
 -->
<!-- Title: Cleaner::getClustering Pages: 1 -->
<svg width="978pt" height="250pt"
 viewBox="0.00 0.00 978.00 249.50" xmlns="http://www.w3.org/2000/svg" xmlns:xlink="http://www.w3.org/1999/xlink">
<g id="graph0" class="graph" transform="scale(1 1) rotate(0) translate(4 245.5)">
<title>Cleaner::getClustering</title>
<polygon fill="#ffffff" stroke="transparent" points="-4,4 -4,-245.5 974,-245.5 974,4 -4,4"/>
<!-- Node468 -->
<g id="node1" class="node">
<title>Node468</title>
<polygon fill="#bfbfbf" stroke="#000000" points="0,-88.5 0,-107.5 114,-107.5 114,-88.5 0,-88.5"/>
<text text-anchor="middle" x="57" y="-95.5" font-family="Helvetica,sans-Serif" font-size="10.00" fill="#000000">Cleaner::getClustering</text>
</g>
<!-- Node469 -->
<g id="node2" class="node">
<title>Node469</title>
<g id="a_node2"><a xlink:href="class_alignment.html#aeeee94970a445f32aa79646c249befef" target="_top" xlink:title="Copy Constructor. &#160;&#160;The copy constructor does not make a copy of all structures present on the origin...">
<polygon fill="#ffffff" stroke="#000000" points="184.5,-152.5 184.5,-171.5 294.5,-171.5 294.5,-152.5 184.5,-152.5"/>
<text text-anchor="middle" x="239.5" y="-159.5" font-family="Helvetica,sans-Serif" font-size="10.00" fill="#000000">Alignment::Alignment</text>
</a>
</g>
</g>
<!-- Node468&#45;&gt;Node469 -->
<g id="edge1" class="edge">
<title>Node468&#45;&gt;Node469</title>
<path fill="none" stroke="#191970" d="M84.3221,-107.5814C115.7265,-118.5945 167.4323,-136.727 202.4447,-149.0053"/>
<polygon fill="#191970" stroke="#191970" points="201.6948,-152.4512 212.2896,-152.4577 204.0113,-145.8456 201.6948,-152.4512"/>
</g>
<!-- Node475 -->
<g id="node8" class="node">
<title>Node475</title>
<g id="a_node8"><a xlink:href="class_cleaner.html#a631cf3e2e55c00a995f0f4a51bfe7a2d" target="_top" xlink:title="Method to assign sequences to clusters. Clusters are calculated following this flow: ...">
<polygon fill="#ffffff" stroke="#000000" points="150,-66.5 150,-85.5 329,-85.5 329,-66.5 150,-66.5"/>
<text text-anchor="middle" x="239.5" y="-73.5" font-family="Helvetica,sans-Serif" font-size="10.00" fill="#000000">Cleaner::calculateRepresentativeSeq</text>
</a>
</g>
</g>
<!-- Node468&#45;&gt;Node475 -->
<g id="edge7" class="edge">
<title>Node468&#45;&gt;Node475</title>
<path fill="none" stroke="#191970" d="M114.2434,-91.0994C125.6768,-89.7212 137.9414,-88.2427 150.1602,-86.7697"/>
<polygon fill="#191970" stroke="#191970" points="150.8849,-90.2078 160.3941,-85.5361 150.0471,-83.2581 150.8849,-90.2078"/>
</g>
<!-- Node470 -->
<g id="node3" class="node">
<title>Node470</title>
<g id="a_node3"><a xlink:href="class_cleaner.html#afe42cb635ddd6bd968ae57e378deaac8" target="_top" xlink:title="Copy Constructor &#45; Called by Alignment. ">
<polygon fill="#ffffff" stroke="#000000" points="392.5,-196.5 392.5,-215.5 482.5,-215.5 482.5,-196.5 392.5,-196.5"/>
<text text-anchor="middle" x="437.5" y="-203.5" font-family="Helvetica,sans-Serif" font-size="10.00" fill="#000000">Cleaner::Cleaner</text>
</a>
</g>
</g>
<!-- Node469&#45;&gt;Node470 -->
<g id="edge2" class="edge">
<title>Node469&#45;&gt;Node470</title>
<path fill="none" stroke="#191970" d="M282.4631,-171.5473C312.431,-178.2069 352.6135,-187.1363 384.561,-194.2358"/>
<polygon fill="#191970" stroke="#191970" points="384.0996,-197.7186 394.6208,-196.4713 385.6182,-190.8853 384.0996,-197.7186"/>
</g>
<!-- Node471 -->
<g id="node4" class="node">
<title>Node471</title>
<g id="a_node4"><a xlink:href="classstatistics_1_1_manager.html#aee28602da015edb0880d59ce4c0f855d" target="_top" xlink:title="statistics::Manager\l::Manager">
<polygon fill="#ffffff" stroke="#000000" points="387.5,-147 387.5,-177 487.5,-177 487.5,-147 387.5,-147"/>
<text text-anchor="start" x="395.5" y="-165" font-family="Helvetica,sans-Serif" font-size="10.00" fill="#000000">statistics::Manager</text>
<text text-anchor="middle" x="437.5" y="-154" font-family="Helvetica,sans-Serif" font-size="10.00" fill="#000000">::Manager</text>
</a>
</g>
</g>
<!-- Node469&#45;&gt;Node471 -->
<g id="edge3" class="edge">
<title>Node469&#45;&gt;Node471</title>
<path fill="none" stroke="#191970" d="M294.654,-162C320.3125,-162 350.8952,-162 377.1674,-162"/>
<polygon fill="#191970" stroke="#191970" points="377.3803,-165.5001 387.3803,-162 377.3803,-158.5001 377.3803,-165.5001"/>
</g>
<!-- Node472 -->
<g id="node5" class="node">
<title>Node472</title>
<g id="a_node5"><a xlink:href="classstatistics_1_1_similarity.html#afecab92459785c7568511217969f6cde" target="_top" xlink:title="statistics::Similarity\l::Similarity">
<polygon fill="#ffffff" stroke="#000000" points="567,-211 567,-241 670,-241 670,-211 567,-211"/>
<text text-anchor="start" x="575" y="-229" font-family="Helvetica,sans-Serif" font-size="10.00" fill="#000000">statistics::Similarity</text>
<text text-anchor="middle" x="618.5" y="-218" font-family="Helvetica,sans-Serif" font-size="10.00" fill="#000000">::Similarity</text>
</a>
</g>
</g>
<!-- Node471&#45;&gt;Node472 -->
<g id="edge4" class="edge">
<title>Node471&#45;&gt;Node472</title>
<path fill="none" stroke="#191970" d="M482.5206,-177.0331C491.6531,-180.2203 501.1644,-183.6397 510,-187 526.2012,-193.1616 529.761,-195.9388 546,-202 551.0462,-203.8835 556.3166,-205.7736 561.613,-207.6208"/>
<polygon fill="#191970" stroke="#191970" points="560.537,-210.9518 571.1316,-210.8886 562.81,-204.3311 560.537,-210.9518"/>
</g>
<!-- Node473 -->
<g id="node6" class="node">
<title>Node473</title>
<g id="a_node6"><a xlink:href="classstatistics_1_1_consistency.html#ae39d2aae825d263ac8c3198782b824d2" target="_top" xlink:title="Copy constructor. ">
<polygon fill="#ffffff" stroke="#000000" points="560,-162 560,-192 677,-192 677,-162 560,-162"/>
<text text-anchor="start" x="568" y="-180" font-family="Helvetica,sans-Serif" font-size="10.00" fill="#000000">statistics::Consistency</text>
<text text-anchor="middle" x="618.5" y="-169" font-family="Helvetica,sans-Serif" font-size="10.00" fill="#000000">::Consistency</text>
</a>
</g>
</g>
<!-- Node471&#45;&gt;Node473 -->
<g id="edge5" class="edge">
<title>Node471&#45;&gt;Node473</title>
<path fill="none" stroke="#191970" d="M487.9186,-166.1783C506.9787,-167.7579 529.0113,-169.5838 549.4865,-171.2806"/>
<polygon fill="#191970" stroke="#191970" points="549.4542,-174.7899 559.7091,-172.1278 550.0323,-167.8138 549.4542,-174.7899"/>
</g>
<!-- Node474 -->
<g id="node7" class="node">
<title>Node474</title>
<g id="a_node7"><a xlink:href="classstatistics_1_1_gaps.html#a0233d71123523698b0bbf6fe6119b630" target="_top" xlink:title="statistics::Gaps::Gaps">
<polygon fill="#ffffff" stroke="#000000" points="561,-123.5 561,-142.5 676,-142.5 676,-123.5 561,-123.5"/>
<text text-anchor="middle" x="618.5" y="-130.5" font-family="Helvetica,sans-Serif" font-size="10.00" fill="#000000">statistics::Gaps::Gaps</text>
</a>
</g>
</g>
<!-- Node471&#45;&gt;Node474 -->
<g id="edge6" class="edge">
<title>Node471&#45;&gt;Node474</title>
<path fill="none" stroke="#191970" d="M487.9186,-153.9219C507.3354,-150.8109 529.837,-147.2057 550.6344,-143.8735"/>
<polygon fill="#191970" stroke="#191970" points="551.3658,-147.301 560.6861,-142.263 550.2583,-140.3892 551.3658,-147.301"/>
</g>
<!-- Node476 -->
<g id="node9" class="node">
<title>Node476</title>
<g id="a_node9"><a xlink:href="class_cleaner.html#a65d829578be97c192561a129435b3c58" target="_top" xlink:title="Method to calculate identities between the sequences from the alignment. See Alignment::identities. ">
<polygon fill="#ffffff" stroke="#000000" points="365,-94.5 365,-113.5 510,-113.5 510,-94.5 365,-94.5"/>
<text text-anchor="middle" x="437.5" y="-101.5" font-family="Helvetica,sans-Serif" font-size="10.00" fill="#000000">Cleaner::calculateSeqIdentity</text>
</a>
</g>
</g>
<!-- Node475&#45;&gt;Node476 -->
<g id="edge8" class="edge">
<title>Node475&#45;&gt;Node476</title>
<path fill="none" stroke="#191970" d="M306.8101,-85.5186C323.8666,-87.9306 342.3261,-90.5411 359.8487,-93.019"/>
<polygon fill="#191970" stroke="#191970" points="359.6482,-96.5254 370.0398,-94.4602 360.6284,-89.5944 359.6482,-96.5254"/>
</g>
<!-- Node480 -->
<g id="node13" class="node">
<title>Node480</title>
<g id="a_node13"><a xlink:href="namespaceutils.html#a36809b7400f2e78685173f8bbcfe0a39" target="_top" xlink:title="Quicksort sorting method. ">
<polygon fill="#ffffff" stroke="#000000" points="397.5,-38.5 397.5,-57.5 477.5,-57.5 477.5,-38.5 397.5,-38.5"/>
<text text-anchor="middle" x="437.5" y="-45.5" font-family="Helvetica,sans-Serif" font-size="10.00" fill="#000000">utils::quicksort</text>
</a>
</g>
</g>
<!-- Node475&#45;&gt;Node480 -->
<g id="edge12" class="edge">
<title>Node475&#45;&gt;Node480</title>
<path fill="none" stroke="#191970" d="M306.8101,-66.4814C333.0999,-62.7636 362.7229,-58.5745 387.1108,-55.1257"/>
<polygon fill="#191970" stroke="#191970" points="387.806,-58.5624 397.2173,-53.6965 386.8258,-51.6313 387.806,-58.5624"/>
</g>
<!-- Node482 -->
<g id="node15" class="node">
<title>Node482</title>
<g id="a_node15"><a xlink:href="namespaceutils.html#ac0a8721fef543bec18cec5c90c16faff" target="_top" xlink:title="Removes a determined char from the string. ">
<polygon fill="#ffffff" stroke="#000000" points="379.5,-.5 379.5,-19.5 495.5,-19.5 495.5,-.5 379.5,-.5"/>
<text text-anchor="middle" x="437.5" y="-7.5" font-family="Helvetica,sans-Serif" font-size="10.00" fill="#000000">utils::removeCharacter</text>
</a>
</g>
</g>
<!-- Node475&#45;&gt;Node482 -->
<g id="edge15" class="edge">
<title>Node475&#45;&gt;Node482</title>
<path fill="none" stroke="#191970" d="M262.8429,-66.4405C287.8581,-56.3895 328.8532,-40.4721 365,-29 372.4995,-26.6199 380.5011,-24.3041 388.3493,-22.155"/>
<polygon fill="#191970" stroke="#191970" points="389.4037,-25.4961 398.1589,-19.5297 387.5939,-18.734 389.4037,-25.4961"/>
</g>
<!-- Node477 -->
<g id="node10" class="node">
<title>Node477</title>
<g id="a_node10"><a xlink:href="class_alignment.html#ab2487799d9a7d593d7fbe1b8da9593f5" target="_top" xlink:title="Alignment type getter. &#160;&#160;See SequenceTypes. ">
<polygon fill="#ffffff" stroke="#000000" points="546,-85.5 546,-104.5 691,-104.5 691,-85.5 546,-85.5"/>
<text text-anchor="middle" x="618.5" y="-92.5" font-family="Helvetica,sans-Serif" font-size="10.00" fill="#000000">Alignment::getAlignmentType</text>
</a>
</g>
</g>
<!-- Node476&#45;&gt;Node477 -->
<g id="edge9" class="edge">
<title>Node476&#45;&gt;Node477</title>
<path fill="none" stroke="#191970" d="M510.0767,-100.3912C518.5595,-99.9694 527.2611,-99.5367 535.8671,-99.1088"/>
<polygon fill="#191970" stroke="#191970" points="536.0932,-102.602 545.907,-98.6096 535.7455,-95.6106 536.0932,-102.602"/>
</g>
<!-- Node478 -->
<g id="node11" class="node">
<title>Node478</title>
<g id="a_node11"><a xlink:href="namespaceutils.html#aab52f9515717f06cafd6ab7fe2ebdcef" target="_top" xlink:title="Checks an alignment type. ">
<polygon fill="#ffffff" stroke="#000000" points="727,-85.5 727,-104.5 859,-104.5 859,-85.5 727,-85.5"/>
<text text-anchor="middle" x="793" y="-92.5" font-family="Helvetica,sans-Serif" font-size="10.00" fill="#000000">utils::checkAlignmentType</text>
</a>
</g>
</g>
<!-- Node477&#45;&gt;Node478 -->
<g id="edge10" class="edge">
<title>Node477&#45;&gt;Node478</title>
<path fill="none" stroke="#191970" d="M691.2401,-95C699.6172,-95 708.1779,-95 716.6016,-95"/>
<polygon fill="#191970" stroke="#191970" points="716.7871,-98.5001 726.787,-95 716.787,-91.5001 716.7871,-98.5001"/>
</g>
<!-- Node479 -->
<g id="node12" class="node">
<title>Node479</title>
<g id="a_node12"><a xlink:href="namespaceutils.html#a6286fde6f4dd58ef0cfa9d55341b72f8" target="_top" xlink:title="utils::toUpper">
<polygon fill="#ffffff" stroke="#000000" points="895,-85.5 895,-104.5 970,-104.5 970,-85.5 895,-85.5"/>
<text text-anchor="middle" x="932.5" y="-92.5" font-family="Helvetica,sans-Serif" font-size="10.00" fill="#000000">utils::toUpper</text>
</a>
</g>
</g>
<!-- Node478&#45;&gt;Node479 -->
<g id="edge11" class="edge">
<title>Node478&#45;&gt;Node479</title>
<path fill="none" stroke="#191970" d="M859.0733,-95C867.6891,-95 876.3799,-95 884.6179,-95"/>
<polygon fill="#191970" stroke="#191970" points="884.7709,-98.5001 894.7708,-95 884.7708,-91.5001 884.7709,-98.5001"/>
</g>
<!-- Node480&#45;&gt;Node480 -->
<g id="edge14" class="edge">
<title>Node480&#45;&gt;Node480</title>
<path fill="none" stroke="#191970" d="M409.7568,-57.7571C396.2601,-66.5653 405.5078,-76 437.5,-76 459.4946,-76 470.739,-71.5406 471.233,-65.8913"/>
<polygon fill="#191970" stroke="#191970" points="473.9911,-63.7341 465.2432,-57.7571 468.3544,-67.8848 473.9911,-63.7341"/>
</g>
<!-- Node481 -->
<g id="node14" class="node">
<title>Node481</title>
<g id="a_node14"><a xlink:href="namespaceutils.html#a7ef87e474cc361a3cdf4e4f4227afb40" target="_top" xlink:title="Swaps double pointers. ">
<polygon fill="#ffffff" stroke="#000000" points="586.5,-38.5 586.5,-57.5 650.5,-57.5 650.5,-38.5 586.5,-38.5"/>
<text text-anchor="middle" x="618.5" y="-45.5" font-family="Helvetica,sans-Serif" font-size="10.00" fill="#000000">utils::swap</text>
</a>
</g>
</g>
<!-- Node480&#45;&gt;Node481 -->
<g id="edge13" class="edge">
<title>Node480&#45;&gt;Node481</title>
<path fill="none" stroke="#191970" d="M477.6698,-48C506.9233,-48 546.4643,-48 576.2013,-48"/>
<polygon fill="#191970" stroke="#191970" points="576.2778,-51.5001 586.2778,-48 576.2777,-44.5001 576.2778,-51.5001"/>
</g>
</g>
</svg>
