<?xml version="1.0" encoding="UTF-8" standalone="no"?>
<!DOCTYPE svg PUBLIC "-//W3C//DTD SVG 1.1//EN"
 "http://www.w3.org/Graphics/SVG/1.1/DTD/svg11.dtd">
<!-- Generated by graphviz version 2.40.1 (20161225.0304)
 -->
<!-- Title: trimAlManager::check_arguments_needs Pages: 1 -->
<svg width="1007pt" height="942pt"
 viewBox="0.00 0.00 1007.00 941.50" xmlns="http://www.w3.org/2000/svg" xmlns:xlink="http://www.w3.org/1999/xlink">
<g id="graph0" class="graph" transform="scale(1 1) rotate(0) translate(4 937.5)">
<title>trimAlManager::check_arguments_needs</title>
<polygon fill="#ffffff" stroke="transparent" points="-4,4 -4,-937.5 1003,-937.5 1003,4 -4,4"/>
<!-- Node52 -->
<g id="node1" class="node">
<title>Node52</title>
<polygon fill="#bfbfbf" stroke="#000000" points="0,-418.5 0,-448.5 112,-448.5 112,-418.5 0,-418.5"/>
<text text-anchor="start" x="8" y="-436.5" font-family="Helvetica,sans-Serif" font-size="10.00" fill="#000000">trimAlManager::check</text>
<text text-anchor="middle" x="56" y="-425.5" font-family="Helvetica,sans-Serif" font-size="10.00" fill="#000000">_arguments_needs</text>
</g>
<!-- Node53 -->
<g id="node2" class="node">
<title>Node53</title>
<g id="a_node2"><a xlink:href="classtrim_al_manager.html#a55f0bbc922fb6854118da00a5bfa0c1b" target="_top" xlink:title="Method to check and prepare the coding sequence. ">
<polygon fill="#ffffff" stroke="#000000" points="148.5,-758.5 148.5,-788.5 304.5,-788.5 304.5,-758.5 148.5,-758.5"/>
<text text-anchor="start" x="156.5" y="-776.5" font-family="Helvetica,sans-Serif" font-size="10.00" fill="#000000">trimAlManager::check</text>
<text text-anchor="middle" x="226.5" y="-765.5" font-family="Helvetica,sans-Serif" font-size="10.00" fill="#000000">_and_prepare_coding_sequence</text>
</a>
</g>
</g>
<!-- Node52&#45;&gt;Node53 -->
<g id="edge1" class="edge">
<title>Node52&#45;&gt;Node53</title>
<path fill="none" stroke="#191970" d="M58.8228,-448.7391C69.3537,-504.1896 107.8091,-694.3234 148,-739.5 152.8865,-744.9927 158.8182,-749.6324 165.2083,-753.5437"/>
<polygon fill="#191970" stroke="#191970" points="163.6984,-756.7072 174.151,-758.4374 167.0588,-750.5665 163.6984,-756.7072"/>
</g>
<!-- Node62 -->
<g id="node11" class="node">
<title>Node62</title>
<g id="a_node11"><a xlink:href="classtrim_al_manager.html#a27f1472f092b9c3a33a779ef538d11e1" target="_top" xlink:title="Check if only one method, either automatic or manual has been asked. ">
<polygon fill="#ffffff" stroke="#000000" points="341,-73.5 341,-103.5 520,-103.5 520,-73.5 341,-73.5"/>
<text text-anchor="start" x="349" y="-91.5" font-family="Helvetica,sans-Serif" font-size="10.00" fill="#000000">trimAlManager::check</text>
<text text-anchor="middle" x="430.5" y="-80.5" font-family="Helvetica,sans-Serif" font-size="10.00" fill="#000000">_automated_manual_incompatibilities</text>
</a>
</g>
</g>
<!-- Node52&#45;&gt;Node62 -->
<g id="edge10" class="edge">
<title>Node52&#45;&gt;Node62</title>
<path fill="none" stroke="#191970" d="M57.9185,-418.1862C65.7015,-358.7259 96.963,-144.4334 148,-103.5 175.4796,-81.4604 260.8612,-79.4103 330.6281,-81.8679"/>
<polygon fill="#191970" stroke="#191970" points="330.6717,-85.3721 340.7996,-82.2614 330.9424,-78.3773 330.6717,-85.3721"/>
</g>
<!-- Node63 -->
<g id="node12" class="node">
<title>Node63</title>
<g id="a_node12"><a xlink:href="classtrim_al_manager.html#a8873f972344b34acf6441c1f46338082" target="_top" xlink:title="Method to check if the origAlig and backtranslationAlig are compatible in names to make the backtrans...">
<polygon fill="#ffffff" stroke="#000000" points="368,-816 368,-857 493,-857 493,-816 368,-816"/>
<text text-anchor="start" x="376" y="-845" font-family="Helvetica,sans-Serif" font-size="10.00" fill="#000000">trimAlManager::check</text>
<text text-anchor="start" x="376" y="-834" font-family="Helvetica,sans-Serif" font-size="10.00" fill="#000000">_backtranslation_infile</text>
<text text-anchor="middle" x="430.5" y="-823" font-family="Helvetica,sans-Serif" font-size="10.00" fill="#000000">_names_correspondence</text>
</a>
</g>
</g>
<!-- Node52&#45;&gt;Node63 -->
<g id="edge12" class="edge">
<title>Node52&#45;&gt;Node63</title>
<path fill="none" stroke="#191970" d="M57.5739,-448.5483C64.4412,-511.1828 93.888,-750.1913 148,-798.5 204.4753,-848.9186 294.3374,-852.6482 357.5148,-847.4853"/>
<polygon fill="#191970" stroke="#191970" points="358.1667,-850.9405 367.8076,-846.5469 357.5311,-843.9694 358.1667,-850.9405"/>
</g>
<!-- Node68 -->
<g id="node17" class="node">
<title>Node68</title>
<g id="a_node17"><a xlink:href="classtrim_al_manager.html#ac2c6938833505b9ded4c84636dee2663" target="_top" xlink:title="Method to check backtranslation needs. ">
<polygon fill="#ffffff" stroke="#000000" points="170.5,-271.5 170.5,-301.5 282.5,-301.5 282.5,-271.5 170.5,-271.5"/>
<text text-anchor="start" x="178.5" y="-289.5" font-family="Helvetica,sans-Serif" font-size="10.00" fill="#000000">trimAlManager::check</text>
<text text-anchor="middle" x="226.5" y="-278.5" font-family="Helvetica,sans-Serif" font-size="10.00" fill="#000000">_backtranslations</text>
</a>
</g>
</g>
<!-- Node52&#45;&gt;Node68 -->
<g id="edge20" class="edge">
<title>Node52&#45;&gt;Node68</title>
<path fill="none" stroke="#191970" d="M63.3435,-418.1772C76.5944,-392.1499 106.9846,-339.3287 148,-310.5 152.0152,-307.6778 156.3706,-305.1807 160.9021,-302.9721"/>
<polygon fill="#191970" stroke="#191970" points="162.6302,-306.037 170.3984,-298.8324 159.8329,-299.6202 162.6302,-306.037"/>
</g>
<!-- Node70 -->
<g id="node19" class="node">
<title>Node70</title>
<g id="a_node19"><a xlink:href="classtrim_al_manager.html#a1b39cb8f30d914ee709305bf9fc12a2a" target="_top" xlink:title="Method to check if the block size is bigger than allowed depending on size of alignment. ">
<polygon fill="#ffffff" stroke="#000000" points="170.5,-467.5 170.5,-497.5 282.5,-497.5 282.5,-467.5 170.5,-467.5"/>
<text text-anchor="start" x="178.5" y="-485.5" font-family="Helvetica,sans-Serif" font-size="10.00" fill="#000000">trimAlManager::check</text>
<text text-anchor="middle" x="226.5" y="-474.5" font-family="Helvetica,sans-Serif" font-size="10.00" fill="#000000">_block_size</text>
</a>
</g>
</g>
<!-- Node52&#45;&gt;Node70 -->
<g id="edge23" class="edge">
<title>Node52&#45;&gt;Node70</title>
<path fill="none" stroke="#191970" d="M108.5468,-448.6014C126.213,-453.6785 146.0875,-459.3902 164.416,-464.6577"/>
<polygon fill="#191970" stroke="#191970" points="163.5489,-468.0501 174.1267,-467.4484 165.4824,-461.3224 163.5489,-468.0501"/>
</g>
<!-- Node72 -->
<g id="node21" class="node">
<title>Node72</title>
<g id="a_node21"><a xlink:href="classtrim_al_manager.html#ad3e1ebff95c17424f4159e9adb8548ae" target="_top" xlink:title="Method to check the type of sequences present in the backtranslationAlig. ">
<polygon fill="#ffffff" stroke="#000000" points="367,-712.5 367,-742.5 494,-742.5 494,-712.5 367,-712.5"/>
<text text-anchor="start" x="375" y="-730.5" font-family="Helvetica,sans-Serif" font-size="10.00" fill="#000000">trimAlManager::check</text>
<text text-anchor="middle" x="430.5" y="-719.5" font-family="Helvetica,sans-Serif" font-size="10.00" fill="#000000">_coding_sequences_type</text>
</a>
</g>
</g>
<!-- Node52&#45;&gt;Node72 -->
<g id="edge26" class="edge">
<title>Node52&#45;&gt;Node72</title>
<path fill="none" stroke="#191970" d="M58.9504,-448.8027C69.3371,-500.9888 105.8661,-670.5578 148,-703.5 206.6792,-749.3781 294.6966,-749.4037 356.864,-741.7544"/>
<polygon fill="#191970" stroke="#191970" points="357.543,-745.1951 366.9968,-740.4121 356.6237,-738.2558 357.543,-745.1951"/>
</g>
<!-- Node73 -->
<g id="node22" class="node">
<title>Node73</title>
<g id="a_node22"><a xlink:href="classtrim_al_manager.html#ab06dfadf8538ec6782a704b11e6d150a" target="_top" xlink:title="Method to check if column numbering makes sense based on the functionality asked. ...">
<polygon fill="#ffffff" stroke="#000000" points="374.5,-624.5 374.5,-654.5 486.5,-654.5 486.5,-624.5 374.5,-624.5"/>
<text text-anchor="start" x="382.5" y="-642.5" font-family="Helvetica,sans-Serif" font-size="10.00" fill="#000000">trimAlManager::check</text>
<text text-anchor="middle" x="430.5" y="-631.5" font-family="Helvetica,sans-Serif" font-size="10.00" fill="#000000">_col_numbering</text>
</a>
</g>
</g>
<!-- Node52&#45;&gt;Node73 -->
<g id="edge29" class="edge">
<title>Node52&#45;&gt;Node73</title>
<path fill="none" stroke="#191970" d="M61.6106,-448.9251C73.0563,-478.1128 101.9744,-541.3685 148,-573.5 212.3172,-618.4012 302.9322,-633.0969 364.044,-637.7208"/>
<polygon fill="#191970" stroke="#191970" points="364.1274,-641.2346 374.3432,-638.426 364.6057,-634.2509 364.1274,-641.2346"/>
</g>
<!-- Node74 -->
<g id="node23" class="node">
<title>Node74</title>
<g id="a_node23"><a xlink:href="classtrim_al_manager.html#ab6003417954bc032c4f82892d0f38a16" target="_top" xlink:title="Method to check and warn if windowsize and compareset has been given. ">
<polygon fill="#ffffff" stroke="#000000" points="148,-418.5 148,-448.5 305,-448.5 305,-418.5 148,-418.5"/>
<text text-anchor="start" x="156" y="-436.5" font-family="Helvetica,sans-Serif" font-size="10.00" fill="#000000">trimAlManager::check</text>
<text text-anchor="middle" x="226.5" y="-425.5" font-family="Helvetica,sans-Serif" font-size="10.00" fill="#000000">_compareset_window_argument</text>
</a>
</g>
</g>
<!-- Node52&#45;&gt;Node74 -->
<g id="edge31" class="edge">
<title>Node52&#45;&gt;Node74</title>
<path fill="none" stroke="#191970" d="M112.3006,-433.5C120.4575,-433.5 129.0157,-433.5 137.6232,-433.5"/>
<polygon fill="#191970" stroke="#191970" points="137.7293,-437.0001 147.7293,-433.5 137.7293,-430.0001 137.7293,-437.0001"/>
</g>
<!-- Node76 -->
<g id="node25" class="node">
<title>Node76</title>
<g id="a_node25"><a xlink:href="classtrim_al_manager.html#a3beec34d7074f4a67ccaf4e8bb875122" target="_top" xlink:title="Method to check if an alignment needs to be aligned depending on the methods that have been asked to ...">
<polygon fill="#ffffff" stroke="#000000" points="170.5,-222.5 170.5,-252.5 282.5,-252.5 282.5,-222.5 170.5,-222.5"/>
<text text-anchor="start" x="178.5" y="-240.5" font-family="Helvetica,sans-Serif" font-size="10.00" fill="#000000">trimAlManager::check</text>
<text text-anchor="middle" x="226.5" y="-229.5" font-family="Helvetica,sans-Serif" font-size="10.00" fill="#000000">_file_aligned</text>
</a>
</g>
</g>
<!-- Node52&#45;&gt;Node76 -->
<g id="edge33" class="edge">
<title>Node52&#45;&gt;Node76</title>
<path fill="none" stroke="#191970" d="M59.8403,-418.3341C69.0939,-384.8964 95.8164,-304.4087 148,-261.5 151.9576,-258.2458 156.352,-255.4322 160.9823,-252.9998"/>
<polygon fill="#191970" stroke="#191970" points="162.5145,-256.1474 170.1247,-248.7761 159.5787,-249.7928 162.5145,-256.1474"/>
</g>
<!-- Node77 -->
<g id="node26" class="node">
<title>Node77</title>
<g id="a_node26"><a xlink:href="classtrim_al_manager.html#abb94df3621dbe1859675bb385d3d5b7d" target="_top" xlink:title="Method to check dependency of force select argument. ">
<polygon fill="#ffffff" stroke="#000000" points="374.5,-575.5 374.5,-605.5 486.5,-605.5 486.5,-575.5 374.5,-575.5"/>
<text text-anchor="start" x="382.5" y="-593.5" font-family="Helvetica,sans-Serif" font-size="10.00" fill="#000000">trimAlManager::check</text>
<text text-anchor="middle" x="430.5" y="-582.5" font-family="Helvetica,sans-Serif" font-size="10.00" fill="#000000">_force_selection</text>
</a>
</g>
</g>
<!-- Node52&#45;&gt;Node77 -->
<g id="edge36" class="edge">
<title>Node52&#45;&gt;Node77</title>
<path fill="none" stroke="#191970" d="M64.8627,-448.5748C79.2138,-471.535 109.8208,-514.8771 148,-536.5 215.1538,-574.5327 304.1935,-586.3247 364.214,-589.6982"/>
<polygon fill="#191970" stroke="#191970" points="364.1677,-593.2001 374.3296,-590.2026 364.5163,-586.2088 364.1677,-593.2001"/>
</g>
<!-- Node78 -->
<g id="node27" class="node">
<title>Node78</title>
<g id="a_node27"><a xlink:href="classtrim_al_manager.html#a640fb579367d6ea2e45265cacf57a3ef" target="_top" xlink:title="Method to check dependency between custom coding sequence file and infile arguments. ">
<polygon fill="#ffffff" stroke="#000000" points="371.5,-515 371.5,-556 489.5,-556 489.5,-515 371.5,-515"/>
<text text-anchor="start" x="379.5" y="-544" font-family="Helvetica,sans-Serif" font-size="10.00" fill="#000000">trimAlManager::check</text>
<text text-anchor="start" x="379.5" y="-533" font-family="Helvetica,sans-Serif" font-size="10.00" fill="#000000">_input_file_with_coding</text>
<text text-anchor="middle" x="430.5" y="-522" font-family="Helvetica,sans-Serif" font-size="10.00" fill="#000000">_sequences_argument</text>
</a>
</g>
</g>
<!-- Node52&#45;&gt;Node78 -->
<g id="edge38" class="edge">
<title>Node52&#45;&gt;Node78</title>
<path fill="none" stroke="#191970" d="M69.5443,-448.7886C86.1115,-466.3403 115.9347,-494.391 148,-507.5 216.6429,-535.5628 302.1871,-540.3102 361.0516,-539.4553"/>
<polygon fill="#191970" stroke="#191970" points="361.4303,-542.9484 371.3566,-539.2445 361.2871,-535.9498 361.4303,-542.9484"/>
</g>
<!-- Node79 -->
<g id="node28" class="node">
<title>Node79</title>
<g id="a_node28"><a xlink:href="classtrim_al_manager.html#a4783de3644b5e5c6cb7f611f835c5ac2" target="_top" xlink:title="Method to check if there is an output file to allow statistics to be given on terminal. ">
<polygon fill="#ffffff" stroke="#000000" points="159,-369.5 159,-399.5 294,-399.5 294,-369.5 159,-369.5"/>
<text text-anchor="start" x="167" y="-387.5" font-family="Helvetica,sans-Serif" font-size="10.00" fill="#000000">trimAlManager::check</text>
<text text-anchor="middle" x="226.5" y="-376.5" font-family="Helvetica,sans-Serif" font-size="10.00" fill="#000000">_output_file_with_statistics</text>
</a>
</g>
</g>
<!-- Node52&#45;&gt;Node79 -->
<g id="edge40" class="edge">
<title>Node52&#45;&gt;Node79</title>
<path fill="none" stroke="#191970" d="M108.5468,-418.3986C126.213,-413.3215 146.0875,-407.6098 164.416,-402.3423"/>
<polygon fill="#191970" stroke="#191970" points="165.4824,-405.6776 174.1267,-399.5516 163.5489,-398.9499 165.4824,-405.6776"/>
</g>
<!-- Node80 -->
<g id="node29" class="node">
<title>Node80</title>
<g id="a_node29"><a xlink:href="classtrim_al_manager.html#af7c3b97a17c2f5750f9481cc60c17616" target="_top" xlink:title="Method to check if an output format has been given. If no output format has been given, it will use the inFile format. ">
<polygon fill="#ffffff" stroke="#000000" points="170.5,-25.5 170.5,-55.5 282.5,-55.5 282.5,-25.5 170.5,-25.5"/>
<text text-anchor="start" x="178.5" y="-43.5" font-family="Helvetica,sans-Serif" font-size="10.00" fill="#000000">trimAlManager::check</text>
<text text-anchor="middle" x="226.5" y="-32.5" font-family="Helvetica,sans-Serif" font-size="10.00" fill="#000000">_output_format</text>
</a>
</g>
</g>
<!-- Node52&#45;&gt;Node80 -->
<g id="edge42" class="edge">
<title>Node52&#45;&gt;Node80</title>
<path fill="none" stroke="#191970" d="M57.9549,-418.43C66.2278,-356.7533 100.1457,-124.2987 148,-70.5 151.9135,-66.1003 156.5442,-62.3423 161.5686,-59.1329"/>
<polygon fill="#191970" stroke="#191970" points="163.3159,-62.166 170.3389,-54.2333 159.9019,-56.0549 163.3159,-62.166"/>
</g>
<!-- Node84 -->
<g id="node33" class="node">
<title>Node84</title>
<g id="a_node33"><a xlink:href="classtrim_al_manager.html#af5b7eb54478c5ea21410381d52052e14" target="_top" xlink:title="Method to check if, being asked to give an HTML report, it makes logic, depending on the functionalit...">
<polygon fill="#ffffff" stroke="#000000" points="170.5,-320.5 170.5,-350.5 282.5,-350.5 282.5,-320.5 170.5,-320.5"/>
<text text-anchor="start" x="178.5" y="-338.5" font-family="Helvetica,sans-Serif" font-size="10.00" fill="#000000">trimAlManager::check</text>
<text text-anchor="middle" x="226.5" y="-327.5" font-family="Helvetica,sans-Serif" font-size="10.00" fill="#000000">_output_relevance</text>
</a>
</g>
</g>
<!-- Node52&#45;&gt;Node84 -->
<g id="edge46" class="edge">
<title>Node52&#45;&gt;Node84</title>
<path fill="none" stroke="#191970" d="M70.9679,-418.3973C88.1738,-401.8121 117.9302,-375.425 148,-359.5 152.0045,-357.3792 156.2253,-355.415 160.5468,-353.6012"/>
<polygon fill="#191970" stroke="#191970" points="162.0775,-356.7611 170.1236,-349.8683 159.5353,-350.239 162.0775,-356.7611"/>
</g>
<!-- Node85 -->
<g id="node34" class="node">
<title>Node85</title>
<g id="a_node34"><a xlink:href="classtrim_al_manager.html#abbaa9a8505b45e825e55d6d163878d06" target="_top" xlink:title="Method to check if both output patterns (alignment output and html report output) are the same...">
<polygon fill="#ffffff" stroke="#000000" points="170.5,-173.5 170.5,-203.5 282.5,-203.5 282.5,-173.5 170.5,-173.5"/>
<text text-anchor="start" x="178.5" y="-191.5" font-family="Helvetica,sans-Serif" font-size="10.00" fill="#000000">trimAlManager::check</text>
<text text-anchor="middle" x="226.5" y="-180.5" font-family="Helvetica,sans-Serif" font-size="10.00" fill="#000000">_outputs_coincidence</text>
</a>
</g>
</g>
<!-- Node52&#45;&gt;Node85 -->
<g id="edge48" class="edge">
<title>Node52&#45;&gt;Node85</title>
<path fill="none" stroke="#191970" d="M57.8578,-418.3731C63.5519,-378.5911 84.4227,-270.147 148,-212.5 151.9244,-208.9417 156.3642,-205.9107 161.087,-203.3289"/>
<polygon fill="#191970" stroke="#191970" points="162.9136,-206.3368 170.457,-198.8972 159.9206,-200.0089 162.9136,-206.3368"/>
</g>
<!-- Node86 -->
<g id="node35" class="node">
<title>Node86</title>
<g id="a_node35"><a xlink:href="classtrim_al_manager.html#ab8cd1b2685c225bec9421f055536d853" target="_top" xlink:title="Method to check if both of them (residue overlap and sequence overlap) have been defined by the user ...">
<polygon fill="#ffffff" stroke="#000000" points="165.5,-113 165.5,-154 287.5,-154 287.5,-113 165.5,-113"/>
<text text-anchor="start" x="173.5" y="-142" font-family="Helvetica,sans-Serif" font-size="10.00" fill="#000000">trimAlManager::check</text>
<text text-anchor="start" x="173.5" y="-131" font-family="Helvetica,sans-Serif" font-size="10.00" fill="#000000">_residue_and_sequence</text>
<text text-anchor="middle" x="226.5" y="-120" font-family="Helvetica,sans-Serif" font-size="10.00" fill="#000000">_overlap</text>
</a>
</g>
</g>
<!-- Node52&#45;&gt;Node86 -->
<g id="edge50" class="edge">
<title>Node52&#45;&gt;Node86</title>
<path fill="none" stroke="#191970" d="M56.8063,-418.3781C60.0057,-373.3678 75.4799,-238.7268 148,-163.5 150.6359,-160.7657 153.5474,-158.2773 156.6512,-156.0131"/>
<polygon fill="#191970" stroke="#191970" points="158.7065,-158.8536 165.2591,-150.5281 154.9448,-152.9503 158.7065,-158.8536"/>
</g>
<!-- Node87 -->
<g id="node36" class="node">
<title>Node87</title>
<g id="a_node36"><a xlink:href="classtrim_al_manager.html#af66e0cf7f3819c3481c22067b8eb78d4" target="_top" xlink:title="Method to check if given a similarity matrix, there is a need to use it. ">
<polygon fill="#ffffff" stroke="#000000" points="170.5,-663.5 170.5,-693.5 282.5,-693.5 282.5,-663.5 170.5,-663.5"/>
<text text-anchor="start" x="178.5" y="-681.5" font-family="Helvetica,sans-Serif" font-size="10.00" fill="#000000">trimAlManager::check</text>
<text text-anchor="middle" x="226.5" y="-670.5" font-family="Helvetica,sans-Serif" font-size="10.00" fill="#000000">_similarity_matrix</text>
</a>
</g>
</g>
<!-- Node52&#45;&gt;Node87 -->
<g id="edge52" class="edge">
<title>Node52&#45;&gt;Node87</title>
<path fill="none" stroke="#191970" d="M58.7064,-448.5661C66.2099,-486.2606 90.63,-585.7561 148,-643.5 153.9716,-649.5106 161.1561,-654.5767 168.7217,-658.8216"/>
<polygon fill="#191970" stroke="#191970" points="167.2321,-661.991 177.7281,-663.435 170.4235,-655.7608 167.2321,-661.991"/>
</g>
<!-- Node54 -->
<g id="node3" class="node">
<title>Node54</title>
<g id="a_node3"><a xlink:href="class_alignment.html#a3fd2333ea7098410cb271b795f482822" target="_top" xlink:title="Method to check if the CDS file is correct. Based on nature of residues: DNA/RNA (Most of the residue...">
<polygon fill="#ffffff" stroke="#000000" points="366,-761.5 366,-791.5 495,-791.5 495,-761.5 366,-761.5"/>
<text text-anchor="start" x="374" y="-779.5" font-family="Helvetica,sans-Serif" font-size="10.00" fill="#000000">Alignment::prepareCoding</text>
<text text-anchor="middle" x="430.5" y="-768.5" font-family="Helvetica,sans-Serif" font-size="10.00" fill="#000000">Sequence</text>
</a>
</g>
</g>
<!-- Node53&#45;&gt;Node54 -->
<g id="edge2" class="edge">
<title>Node53&#45;&gt;Node54</title>
<path fill="none" stroke="#191970" d="M304.7883,-774.6513C321.5372,-774.8976 339.1891,-775.1572 355.7985,-775.4014"/>
<polygon fill="#191970" stroke="#191970" points="355.9377,-778.9038 365.9881,-775.5513 356.0407,-771.9045 355.9377,-778.9038"/>
</g>
<!-- Node55 -->
<g id="node4" class="node">
<title>Node55</title>
<g id="a_node4"><a xlink:href="class_alignment.html#ab2487799d9a7d593d7fbe1b8da9593f5" target="_top" xlink:title="Alignment type getter. &#160;&#160;See SequenceTypes. ">
<polygon fill="#ffffff" stroke="#000000" points="565.5,-718 565.5,-737 710.5,-737 710.5,-718 565.5,-718"/>
<text text-anchor="middle" x="638" y="-725" font-family="Helvetica,sans-Serif" font-size="10.00" fill="#000000">Alignment::getAlignmentType</text>
</a>
</g>
</g>
<!-- Node54&#45;&gt;Node55 -->
<g id="edge3" class="edge">
<title>Node54&#45;&gt;Node55</title>
<path fill="none" stroke="#191970" d="M493.0388,-761.4601C513.1367,-756.651 535.5022,-751.3246 556,-746.5 565.9216,-744.1647 576.524,-741.6915 586.6997,-739.3289"/>
<polygon fill="#191970" stroke="#191970" points="587.7409,-742.6804 596.692,-737.0124 586.1599,-735.8613 587.7409,-742.6804"/>
</g>
<!-- Node58 -->
<g id="node7" class="node">
<title>Node58</title>
<g id="a_node7"><a xlink:href="class_alignment.html#af9c7aec9082ef16573d7fe37a93a638a" target="_top" xlink:title="Number of sequences getter. ">
<polygon fill="#ffffff" stroke="#000000" points="570,-794 570,-813 706,-813 706,-794 570,-794"/>
<text text-anchor="middle" x="638" y="-801" font-family="Helvetica,sans-Serif" font-size="10.00" fill="#000000">Alignment::getNumSpecies</text>
</a>
</g>
</g>
<!-- Node54&#45;&gt;Node58 -->
<g id="edge6" class="edge">
<title>Node54&#45;&gt;Node58</title>
<path fill="none" stroke="#191970" d="M495.0169,-784.895C515.5576,-787.5677 538.5045,-790.5536 559.8988,-793.3374"/>
<polygon fill="#191970" stroke="#191970" points="559.563,-796.8232 569.931,-794.6428 560.4663,-789.8817 559.563,-796.8232"/>
</g>
<!-- Node59 -->
<g id="node8" class="node">
<title>Node59</title>
<g id="a_node8"><a xlink:href="class_alignment.html#a4dcdeecf3fad5bb749f3f6051655e17a" target="_top" xlink:title="Getter for the sequences, its names and lenghts. ">
<polygon fill="#ffffff" stroke="#000000" points="574,-756 574,-775 702,-775 702,-756 574,-756"/>
<text text-anchor="middle" x="638" y="-763" font-family="Helvetica,sans-Serif" font-size="10.00" fill="#000000">Alignment::getSequences</text>
</a>
</g>
</g>
<!-- Node54&#45;&gt;Node59 -->
<g id="edge7" class="edge">
<title>Node54&#45;&gt;Node59</title>
<path fill="none" stroke="#191970" d="M495.0169,-773.0798C516.7854,-771.9258 541.2563,-770.6286 563.7178,-769.4379"/>
<polygon fill="#191970" stroke="#191970" points="564.079,-772.9237 573.8796,-768.8992 563.7084,-765.9335 564.079,-772.9237"/>
</g>
<!-- Node61 -->
<g id="node10" class="node">
<title>Node61</title>
<g id="a_node10"><a xlink:href="classreporting_1_1report_manager.html#a6d122e673144584e0869bd33b8a5c1c6" target="_top" xlink:title="Method to report an Error. &#160;It will be displayed if Level &#160;is equal or higher to VerboseLevel::ERROR...">
<polygon fill="#ffffff" stroke="#000000" points="577,-408.5 577,-438.5 699,-438.5 699,-408.5 577,-408.5"/>
<text text-anchor="start" x="585" y="-426.5" font-family="Helvetica,sans-Serif" font-size="10.00" fill="#000000">reporting::reportManager</text>
<text text-anchor="middle" x="638" y="-415.5" font-family="Helvetica,sans-Serif" font-size="10.00" fill="#000000">::report</text>
</a>
</g>
</g>
<!-- Node54&#45;&gt;Node61 -->
<g id="edge9" class="edge">
<title>Node54&#45;&gt;Node61</title>
<path fill="none" stroke="#191970" d="M495.0689,-767.3351C504.211,-763.8302 512.8995,-759.0384 520,-752.5 566.6086,-709.5811 615.6966,-517.7588 632.2045,-448.5237"/>
<polygon fill="#191970" stroke="#191970" points="635.6782,-449.0426 634.5688,-438.506 628.8653,-447.4347 635.6782,-449.0426"/>
</g>
<!-- Node56 -->
<g id="node5" class="node">
<title>Node56</title>
<g id="a_node5"><a xlink:href="namespaceutils.html#aab52f9515717f06cafd6ab7fe2ebdcef" target="_top" xlink:title="Checks an alignment type. ">
<polygon fill="#ffffff" stroke="#000000" points="756,-718 756,-737 888,-737 888,-718 756,-718"/>
<text text-anchor="middle" x="822" y="-725" font-family="Helvetica,sans-Serif" font-size="10.00" fill="#000000">utils::checkAlignmentType</text>
</a>
</g>
</g>
<!-- Node55&#45;&gt;Node56 -->
<g id="edge4" class="edge">
<title>Node55&#45;&gt;Node56</title>
<path fill="none" stroke="#191970" d="M710.7217,-727.5C722.2202,-727.5 734.1395,-727.5 745.7165,-727.5"/>
<polygon fill="#191970" stroke="#191970" points="745.783,-731.0001 755.783,-727.5 745.783,-724.0001 745.783,-731.0001"/>
</g>
<!-- Node57 -->
<g id="node6" class="node">
<title>Node57</title>
<g id="a_node6"><a xlink:href="namespaceutils.html#a6286fde6f4dd58ef0cfa9d55341b72f8" target="_top" xlink:title="utils::toUpper">
<polygon fill="#ffffff" stroke="#000000" points="924,-718 924,-737 999,-737 999,-718 924,-718"/>
<text text-anchor="middle" x="961.5" y="-725" font-family="Helvetica,sans-Serif" font-size="10.00" fill="#000000">utils::toUpper</text>
</a>
</g>
</g>
<!-- Node56&#45;&gt;Node57 -->
<g id="edge5" class="edge">
<title>Node56&#45;&gt;Node57</title>
<path fill="none" stroke="#191970" d="M888.0733,-727.5C896.6891,-727.5 905.3799,-727.5 913.6179,-727.5"/>
<polygon fill="#191970" stroke="#191970" points="913.7709,-731.0001 923.7708,-727.5 913.7708,-724.0001 913.7709,-731.0001"/>
</g>
<!-- Node60 -->
<g id="node9" class="node">
<title>Node60</title>
<g id="a_node9"><a xlink:href="namespaceutils.html#ac0a8721fef543bec18cec5c90c16faff" target="_top" xlink:title="Removes a determined char from the string. ">
<polygon fill="#ffffff" stroke="#000000" points="764,-826 764,-845 880,-845 880,-826 764,-826"/>
<text text-anchor="middle" x="822" y="-833" font-family="Helvetica,sans-Serif" font-size="10.00" fill="#000000">utils::removeCharacter</text>
</a>
</g>
</g>
<!-- Node59&#45;&gt;Node60 -->
<g id="edge8" class="edge">
<title>Node59&#45;&gt;Node60</title>
<path fill="none" stroke="#191970" d="M687.979,-775.0994C698.6819,-777.7027 709.8258,-780.836 720,-784.5 747.3372,-794.3449 776.8525,-809.6629 797.0645,-820.9434"/>
<polygon fill="#191970" stroke="#191970" points="795.4958,-824.0773 805.9218,-825.9613 798.9463,-817.9868 795.4958,-824.0773"/>
</g>
<!-- Node62&#45;&gt;Node61 -->
<g id="edge11" class="edge">
<title>Node62&#45;&gt;Node61</title>
<path fill="none" stroke="#191970" d="M497.7809,-103.6407C505.9194,-107.5184 513.6011,-112.3872 520,-118.5 602.5363,-197.3461 628.2117,-340.4566 635.4318,-398.2676"/>
<polygon fill="#191970" stroke="#191970" points="631.9719,-398.8157 636.608,-408.3423 638.9246,-398.0038 631.9719,-398.8157"/>
</g>
<!-- Node63&#45;&gt;Node58 -->
<g id="edge13" class="edge">
<title>Node63&#45;&gt;Node58</title>
<path fill="none" stroke="#191970" d="M493.0382,-826.5542C516.7411,-822.7846 543.8707,-818.47 568.2007,-814.6006"/>
<polygon fill="#191970" stroke="#191970" points="568.7553,-818.0565 578.0814,-813.0292 567.6558,-811.1434 568.7553,-818.0565"/>
</g>
<!-- Node64 -->
<g id="node13" class="node">
<title>Node64</title>
<g id="a_node13"><a xlink:href="class_alignment.html#ae8b5f6fbc7ffb828c7eb51ae74e6888c" target="_top" xlink:title="Getter for the sequences names and its lenghts. ">
<polygon fill="#ffffff" stroke="#000000" points="574,-832 574,-851 702,-851 702,-832 574,-832"/>
<text text-anchor="middle" x="638" y="-839" font-family="Helvetica,sans-Serif" font-size="10.00" fill="#000000">Alignment::getSequences</text>
</a>
</g>
</g>
<!-- Node63&#45;&gt;Node64 -->
<g id="edge14" class="edge">
<title>Node63&#45;&gt;Node64</title>
<path fill="none" stroke="#191970" d="M493.0382,-838.0069C515.283,-838.543 540.5459,-839.1517 563.6804,-839.7092"/>
<polygon fill="#191970" stroke="#191970" points="563.713,-843.2109 573.7944,-839.9529 563.8817,-836.2129 563.713,-843.2109"/>
</g>
<!-- Node65 -->
<g id="node14" class="node">
<title>Node65</title>
<g id="a_node14"><a xlink:href="class_alignment.html#a12f7c76645e480ee17e7c1093d906ef8" target="_top" xlink:title="Function to check CDS file. . ">
<polygon fill="#ffffff" stroke="#000000" points="556,-870 556,-889 720,-889 720,-870 556,-870"/>
<text text-anchor="middle" x="638" y="-877" font-family="Helvetica,sans-Serif" font-size="10.00" fill="#000000">Alignment::checkCorrespondence</text>
</a>
</g>
</g>
<!-- Node63&#45;&gt;Node65 -->
<g id="edge16" class="edge">
<title>Node63&#45;&gt;Node65</title>
<path fill="none" stroke="#191970" d="M493.0382,-849.4597C521.4145,-855.3401 554.7021,-862.2383 582.2178,-867.9403"/>
<polygon fill="#191970" stroke="#191970" points="581.572,-871.3808 592.0742,-869.9829 582.9925,-864.5264 581.572,-871.3808"/>
</g>
<!-- Node64&#45;&gt;Node60 -->
<g id="edge15" class="edge">
<title>Node64&#45;&gt;Node60</title>
<path fill="none" stroke="#191970" d="M702.096,-839.4099C718.7585,-838.8666 736.7698,-838.2792 753.643,-837.729"/>
<polygon fill="#191970" stroke="#191970" points="754.099,-841.2161 763.9796,-837.392 753.8708,-834.2198 754.099,-841.2161"/>
</g>
<!-- Node65&#45;&gt;Node60 -->
<g id="edge18" class="edge">
<title>Node65&#45;&gt;Node60</title>
<path fill="none" stroke="#191970" d="M679.7395,-869.9363C692.6538,-866.9483 706.9223,-863.6176 720,-860.5 737.3309,-856.3684 756.2928,-851.7484 773.1155,-847.6148"/>
<polygon fill="#191970" stroke="#191970" points="774.4063,-850.9016 783.2798,-845.1126 772.733,-844.1045 774.4063,-850.9016"/>
</g>
<!-- Node66 -->
<g id="node15" class="node">
<title>Node66</title>
<g id="a_node15"><a xlink:href="namespaceutils.html#ab04f5770187b0a8c36c3c8ca55f1e67f" target="_top" xlink:title="Minimum of two numbers method. ">
<polygon fill="#ffffff" stroke="#000000" points="794,-914 794,-933 850,-933 850,-914 794,-914"/>
<text text-anchor="middle" x="822" y="-921" font-family="Helvetica,sans-Serif" font-size="10.00" fill="#000000">utils::min</text>
</a>
</g>
</g>
<!-- Node65&#45;&gt;Node66 -->
<g id="edge17" class="edge">
<title>Node65&#45;&gt;Node66</title>
<path fill="none" stroke="#191970" d="M677.9253,-889.0473C709.3572,-896.5637 752.881,-906.9715 783.8463,-914.3763"/>
<polygon fill="#191970" stroke="#191970" points="783.2907,-917.842 793.8306,-916.7638 784.9188,-911.034 783.2907,-917.842"/>
</g>
<!-- Node67 -->
<g id="node16" class="node">
<title>Node67</title>
<g id="a_node16"><a xlink:href="classreporting_1_1report_manager.html#a75a240a78f31ba479892a9a0f53996fa" target="_top" xlink:title="Method to report a Warning. &#160;It will be displayed if Level &#160;is equal or higher to VerboseLevel::WARNI...">
<polygon fill="#ffffff" stroke="#000000" points="761,-864.5 761,-894.5 883,-894.5 883,-864.5 761,-864.5"/>
<text text-anchor="start" x="769" y="-882.5" font-family="Helvetica,sans-Serif" font-size="10.00" fill="#000000">reporting::reportManager</text>
<text text-anchor="middle" x="822" y="-871.5" font-family="Helvetica,sans-Serif" font-size="10.00" fill="#000000">::report</text>
</a>
</g>
</g>
<!-- Node65&#45;&gt;Node67 -->
<g id="edge19" class="edge">
<title>Node65&#45;&gt;Node67</title>
<path fill="none" stroke="#191970" d="M720.0447,-879.5C730.2158,-879.5 740.551,-879.5 750.5454,-879.5"/>
<polygon fill="#191970" stroke="#191970" points="750.8161,-883.0001 760.816,-879.5 750.816,-876.0001 750.8161,-883.0001"/>
</g>
<!-- Node68&#45;&gt;Node61 -->
<g id="edge21" class="edge">
<title>Node68&#45;&gt;Node61</title>
<path fill="none" stroke="#191970" d="M282.7467,-288.3798C343.4769,-292.1397 441.9888,-303.3309 520,-336.5 556.7154,-352.1108 592.709,-381.2223 615.0995,-401.4486"/>
<polygon fill="#191970" stroke="#191970" points="612.9824,-404.257 622.7093,-408.4569 617.7245,-399.108 612.9824,-404.257"/>
</g>
<!-- Node69 -->
<g id="node18" class="node">
<title>Node69</title>
<g id="a_node18"><a xlink:href="class_alignment.html#a4fdfd8529dd7d554260377352a68a571" target="_top" xlink:title="isAligned getter. ">
<polygon fill="#ffffff" stroke="#000000" points="369.5,-237 369.5,-256 491.5,-256 491.5,-237 369.5,-237"/>
<text text-anchor="middle" x="430.5" y="-244" font-family="Helvetica,sans-Serif" font-size="10.00" fill="#000000">Alignment::isFileAligned</text>
</a>
</g>
</g>
<!-- Node68&#45;&gt;Node69 -->
<g id="edge22" class="edge">
<title>Node68&#45;&gt;Node69</title>
<path fill="none" stroke="#191970" d="M282.5137,-275.5169C310.2475,-270.0789 343.7179,-263.5161 371.8074,-258.0084"/>
<polygon fill="#191970" stroke="#191970" points="372.7524,-261.3898 381.892,-256.031 371.4054,-254.5206 372.7524,-261.3898"/>
</g>
<!-- Node70&#45;&gt;Node61 -->
<g id="edge25" class="edge">
<title>Node70&#45;&gt;Node61</title>
<path fill="none" stroke="#191970" d="M282.5899,-484.6749C342.137,-485.8171 438.6844,-484.3213 520,-467.5 546.111,-462.0986 574.1231,-451.8581 596.2995,-442.6149"/>
<polygon fill="#191970" stroke="#191970" points="597.9073,-445.7344 605.7361,-438.5959 595.1643,-439.2942 597.9073,-445.7344"/>
</g>
<!-- Node71 -->
<g id="node20" class="node">
<title>Node71</title>
<g id="a_node20"><a xlink:href="class_alignment.html#a5b534495c7c6fac732b290359f3b8992" target="_top" xlink:title="Residues number getter. It counts gaps as residue. ">
<polygon fill="#ffffff" stroke="#000000" points="363.5,-439 363.5,-458 497.5,-458 497.5,-439 363.5,-439"/>
<text text-anchor="middle" x="430.5" y="-446" font-family="Helvetica,sans-Serif" font-size="10.00" fill="#000000">Alignment::getNumAminos</text>
</a>
</g>
</g>
<!-- Node70&#45;&gt;Node71 -->
<g id="edge24" class="edge">
<title>Node70&#45;&gt;Node71</title>
<path fill="none" stroke="#191970" d="M282.5137,-473.1644C307.4009,-469.0165 336.9077,-464.0987 363.0002,-459.75"/>
<polygon fill="#191970" stroke="#191970" points="363.9032,-463.1478 373.1917,-458.0514 362.7524,-456.2431 363.9032,-463.1478"/>
</g>
<!-- Node72&#45;&gt;Node55 -->
<g id="edge27" class="edge">
<title>Node72&#45;&gt;Node55</title>
<path fill="none" stroke="#191970" d="M494.167,-727.5C513.4287,-727.5 534.8685,-727.5 555.1899,-727.5"/>
<polygon fill="#191970" stroke="#191970" points="555.3782,-731.0001 565.3782,-727.5 555.3782,-724.0001 555.3782,-731.0001"/>
</g>
<!-- Node72&#45;&gt;Node61 -->
<g id="edge28" class="edge">
<title>Node72&#45;&gt;Node61</title>
<path fill="none" stroke="#191970" d="M494.3716,-713.5798C503.711,-709.5147 512.6434,-704.2685 520,-697.5 595.4178,-628.1116 624.7457,-502.2968 634.1762,-448.7353"/>
<polygon fill="#191970" stroke="#191970" points="637.6509,-449.1768 635.8505,-438.7361 630.747,-448.0207 637.6509,-449.1768"/>
</g>
<!-- Node73&#45;&gt;Node61 -->
<g id="edge30" class="edge">
<title>Node73&#45;&gt;Node61</title>
<path fill="none" stroke="#191970" d="M486.9515,-631.291C498.6422,-627.7605 510.3286,-622.7137 520,-615.5 578.6914,-571.7234 614.6316,-489.3474 629.7197,-448.1994"/>
<polygon fill="#191970" stroke="#191970" points="633.0538,-449.2696 633.1075,-438.6749 626.4586,-446.9236 633.0538,-449.2696"/>
</g>
<!-- Node75 -->
<g id="node24" class="node">
<title>Node75</title>
<g id="a_node24"><a xlink:href="classreporting_1_1report_manager.html#a916ee4d499edcd1b3b38398face3df3d" target="_top" xlink:title="Method to report an Info message. &#160;It will be displayed if Level &#160;is equal or higher to VerboseLevel:...">
<polygon fill="#ffffff" stroke="#000000" points="369.5,-389.5 369.5,-419.5 491.5,-419.5 491.5,-389.5 369.5,-389.5"/>
<text text-anchor="start" x="377.5" y="-407.5" font-family="Helvetica,sans-Serif" font-size="10.00" fill="#000000">reporting::reportManager</text>
<text text-anchor="middle" x="430.5" y="-396.5" font-family="Helvetica,sans-Serif" font-size="10.00" fill="#000000">::report</text>
</a>
</g>
</g>
<!-- Node74&#45;&gt;Node75 -->
<g id="edge32" class="edge">
<title>Node74&#45;&gt;Node75</title>
<path fill="none" stroke="#191970" d="M305.0799,-422.3293C322.907,-419.7951 341.7431,-417.1174 359.2466,-414.6292"/>
<polygon fill="#191970" stroke="#191970" points="359.9729,-418.0612 369.3807,-413.1885 358.9876,-411.1309 359.9729,-418.0612"/>
</g>
<!-- Node76&#45;&gt;Node61 -->
<g id="edge35" class="edge">
<title>Node76&#45;&gt;Node61</title>
<path fill="none" stroke="#191970" d="M270.9121,-222.4703C331.5182,-204.8138 441.5487,-183.1593 520,-227.5 585.6448,-264.6025 618.8213,-354.4663 631.5841,-398.4324"/>
<polygon fill="#191970" stroke="#191970" points="628.2811,-399.619 634.3315,-408.3164 635.0254,-397.7443 628.2811,-399.619"/>
</g>
<!-- Node76&#45;&gt;Node69 -->
<g id="edge34" class="edge">
<title>Node76&#45;&gt;Node69</title>
<path fill="none" stroke="#191970" d="M282.5137,-239.9712C306.1505,-241.014 333.9541,-242.2406 359.0422,-243.3474"/>
<polygon fill="#191970" stroke="#191970" points="359.0947,-246.8531 369.2393,-243.7973 359.4033,-239.8599 359.0947,-246.8531"/>
</g>
<!-- Node77&#45;&gt;Node61 -->
<g id="edge37" class="edge">
<title>Node77&#45;&gt;Node61</title>
<path fill="none" stroke="#191970" d="M486.6963,-580.4024C498.2756,-576.8193 509.9808,-571.9917 520,-565.5 567.4986,-534.7244 605.6105,-478.8495 624.688,-447.1394"/>
<polygon fill="#191970" stroke="#191970" points="627.7153,-448.896 629.7718,-438.5026 621.6828,-445.345 627.7153,-448.896"/>
</g>
<!-- Node78&#45;&gt;Node61 -->
<g id="edge39" class="edge">
<title>Node78&#45;&gt;Node61</title>
<path fill="none" stroke="#191970" d="M488.0908,-514.9989C498.8703,-510.5972 509.9133,-505.6933 520,-500.5 551.82,-484.117 585.8113,-461.3096 609.0985,-444.7724"/>
<polygon fill="#191970" stroke="#191970" points="611.3854,-447.4394 617.4726,-438.7678 607.3064,-441.7507 611.3854,-447.4394"/>
</g>
<!-- Node79&#45;&gt;Node61 -->
<g id="edge41" class="edge">
<title>Node79&#45;&gt;Node61</title>
<path fill="none" stroke="#191970" d="M294.1033,-376.4426C353.9662,-370.9957 443.4699,-366.9905 520,-380.5 546.3727,-385.1555 574.6017,-395.2419 596.8349,-404.4763"/>
<polygon fill="#191970" stroke="#191970" points="595.714,-407.8031 606.2859,-408.4996 598.4558,-401.3623 595.714,-407.8031"/>
</g>
<!-- Node81 -->
<g id="node30" class="node">
<title>Node81</title>
<g id="a_node30"><a xlink:href="class_format_handling_1_1_format_manager.html#ac691b15ee0b0e6a22a22f82569672745" target="_top" xlink:title="Function to obtain the format name of a given file. ">
<polygon fill="#ffffff" stroke="#000000" points="350.5,-24.5 350.5,-54.5 510.5,-54.5 510.5,-24.5 350.5,-24.5"/>
<text text-anchor="start" x="358.5" y="-42.5" font-family="Helvetica,sans-Serif" font-size="10.00" fill="#000000">FormatHandling::FormatManager</text>
<text text-anchor="middle" x="430.5" y="-31.5" font-family="Helvetica,sans-Serif" font-size="10.00" fill="#000000">::getFileFormatName</text>
</a>
</g>
</g>
<!-- Node80&#45;&gt;Node81 -->
<g id="edge43" class="edge">
<title>Node80&#45;&gt;Node81</title>
<path fill="none" stroke="#191970" d="M282.5137,-40.2254C300.2924,-40.1383 320.4286,-40.0396 339.9934,-39.9437"/>
<polygon fill="#191970" stroke="#191970" points="340.1742,-43.4429 350.1569,-39.8938 340.1398,-36.443 340.1742,-43.4429"/>
</g>
<!-- Node82 -->
<g id="node31" class="node">
<title>Node82</title>
<g id="a_node31"><a xlink:href="classreporting_1_1report_manager.html#abc8beece0a415330af73749d14fb5ccb" target="_top" xlink:title="Method to report an Error. It will be displayed if Level &#160;is equal or higher to VerboseLevel::ERROR. ">
<polygon fill="#ffffff" stroke="#000000" points="577,-49.5 577,-79.5 699,-79.5 699,-49.5 577,-49.5"/>
<text text-anchor="start" x="585" y="-67.5" font-family="Helvetica,sans-Serif" font-size="10.00" fill="#000000">reporting::reportManager</text>
<text text-anchor="middle" x="638" y="-56.5" font-family="Helvetica,sans-Serif" font-size="10.00" fill="#000000">::report</text>
</a>
</g>
</g>
<!-- Node81&#45;&gt;Node82 -->
<g id="edge44" class="edge">
<title>Node81&#45;&gt;Node82</title>
<path fill="none" stroke="#191970" d="M510.7249,-49.1657C529.2103,-51.3928 548.7474,-53.7467 566.8177,-55.9238"/>
<polygon fill="#191970" stroke="#191970" points="566.6312,-59.4266 576.978,-57.148 567.4685,-52.4768 566.6312,-59.4266"/>
</g>
<!-- Node83 -->
<g id="node32" class="node">
<title>Node83</title>
<g id="a_node32"><a xlink:href="class_format_handling_1_1_base_format_handler.html#a6186050eb30aec3f4fa7e1c834f2add1" target="_top" xlink:title="Function to check if a file is in the implemented format. ">
<polygon fill="#ffffff" stroke="#000000" points="565.5,-.5 565.5,-30.5 710.5,-30.5 710.5,-.5 565.5,-.5"/>
<text text-anchor="start" x="573.5" y="-18.5" font-family="Helvetica,sans-Serif" font-size="10.00" fill="#000000">FormatHandling::BaseFormat</text>
<text text-anchor="middle" x="638" y="-7.5" font-family="Helvetica,sans-Serif" font-size="10.00" fill="#000000">Handler::CheckAlignment</text>
</a>
</g>
</g>
<!-- Node81&#45;&gt;Node83 -->
<g id="edge45" class="edge">
<title>Node81&#45;&gt;Node83</title>
<path fill="none" stroke="#191970" d="M510.7249,-30.221C525.3653,-28.5276 540.6654,-26.758 555.374,-25.0567"/>
<polygon fill="#191970" stroke="#191970" points="555.9155,-28.5175 565.4471,-23.8917 555.1111,-21.5639 555.9155,-28.5175"/>
</g>
<!-- Node84&#45;&gt;Node61 -->
<g id="edge47" class="edge">
<title>Node84&#45;&gt;Node61</title>
<path fill="none" stroke="#191970" d="M282.7317,-336.0916C342.6036,-337.9933 439.61,-344.7442 520,-367.5 549.532,-375.8596 580.8218,-391.0338 603.7552,-403.4797"/>
<polygon fill="#191970" stroke="#191970" points="602.2871,-406.6674 612.732,-408.4438 605.6746,-400.5416 602.2871,-406.6674"/>
</g>
<!-- Node85&#45;&gt;Node61 -->
<g id="edge49" class="edge">
<title>Node85&#45;&gt;Node61</title>
<path fill="none" stroke="#191970" d="M282.6696,-174.495C345.5671,-162.1607 448.0911,-152.4037 520,-197.5 592.8612,-243.1935 623.0967,-349.7193 633.4384,-398.4102"/>
<polygon fill="#191970" stroke="#191970" points="630.0476,-399.3019 635.4532,-408.414 636.9098,-397.9198 630.0476,-399.3019"/>
</g>
<!-- Node86&#45;&gt;Node61 -->
<g id="edge51" class="edge">
<title>Node86&#45;&gt;Node61</title>
<path fill="none" stroke="#191970" d="M287.6909,-122.4031C351.7043,-114.3235 452.1358,-112.0109 520,-160.5 600.7605,-218.2035 627.2106,-344.3578 635.0288,-398.2627"/>
<polygon fill="#191970" stroke="#191970" points="631.5816,-398.8887 636.3911,-408.329 638.5183,-397.9499 631.5816,-398.8887"/>
</g>
<!-- Node87&#45;&gt;Node61 -->
<g id="edge53" class="edge">
<title>Node87&#45;&gt;Node61</title>
<path fill="none" stroke="#191970" d="M282.7284,-691.6206C345.9129,-703.0224 448.9207,-711.2289 520,-664.5 596.341,-614.312 624.9664,-499.5888 634.1817,-448.6579"/>
<polygon fill="#191970" stroke="#191970" points="637.6783,-448.9736 635.9079,-438.5278 630.7777,-447.7977 637.6783,-448.9736"/>
</g>
</g>
</svg>
