<?xml version="1.0" encoding="UTF-8" standalone="no"?>
<!DOCTYPE svg PUBLIC "-//W3C//DTD SVG 1.1//EN"
 "http://www.w3.org/Graphics/SVG/1.1/DTD/svg11.dtd">
<!-- Generated by graphviz version 2.38.0 (20140413.2041)
 -->
<!-- Title: trimAlManager::block_argument Pages: 1 -->
<svg width="269pt" height="78pt"
 viewBox="0.00 0.00 269.00 77.50" xmlns="http://www.w3.org/2000/svg" xmlns:xlink="http://www.w3.org/1999/xlink">
<g id="graph0" class="graph" transform="scale(1 1) rotate(0) translate(4 73.5)">
<title>trimAlManager::block_argument</title>
<polygon fill="white" stroke="none" points="-4,4 -4,-73.5 265,-73.5 265,4 -4,4"/>
<!-- Node9 -->
<g id="node1" class="node"><title>Node9</title>
<polygon fill="#bfbfbf" stroke="black" points="0,-22.5 0,-52.5 109,-52.5 109,-22.5 0,-22.5"/>
<text text-anchor="start" x="8" y="-40.5" font-family="Helvetica,sans-Serif" font-size="10.00">trimAlManager::block</text>
<text text-anchor="middle" x="54.5" y="-29.5" font-family="Helvetica,sans-Serif" font-size="10.00">_argument</text>
</g>
<!-- Node10 -->
<g id="node2" class="node"><title>Node10</title>
<g id="a_node2"><a xlink:href="classutils.html#a32e6bab4fb43b096f983faedeefd0511" target="_top" xlink:title="String&#45;is&#45;number checking. ">
<polygon fill="white" stroke="black" points="161.5,-50 161.5,-69 244.5,-69 244.5,-50 161.5,-50"/>
<text text-anchor="middle" x="203" y="-57" font-family="Helvetica,sans-Serif" font-size="10.00">utils::isNumber</text>
</a>
</g>
</g>
<!-- Node9&#45;&gt;Node10 -->
<g id="edge1" class="edge"><title>Node9&#45;&gt;Node10</title>
<path fill="none" stroke="midnightblue" d="M109.219,-45.5671C122.885,-47.6192 137.529,-49.8184 151.052,-51.8491"/>
<polygon fill="midnightblue" stroke="midnightblue" points="150.731,-55.3401 161.14,-53.364 151.771,-48.4177 150.731,-55.3401"/>
</g>
<!-- Node11 -->
<g id="node3" class="node"><title>Node11</title>
<g id="a_node3"><a xlink:href="class____internal_report_1_1____report_system.html#acd358cbc59625c6e2f47e0b5f825400d" target="_top" xlink:title="Method to report an Error. &#160;It will be displayed if Level &#160;is equal or higher to VerboseLevel::ERROR...">
<polygon fill="white" stroke="black" points="145,-0.5 145,-30.5 261,-30.5 261,-0.5 145,-0.5"/>
<text text-anchor="start" x="153" y="-18.5" font-family="Helvetica,sans-Serif" font-size="10.00">__internalReport::</text>
<text text-anchor="middle" x="203" y="-7.5" font-family="Helvetica,sans-Serif" font-size="10.00">__reportSystem::report</text>
</a>
</g>
</g>
<!-- Node9&#45;&gt;Node11 -->
<g id="edge2" class="edge"><title>Node9&#45;&gt;Node11</title>
<path fill="none" stroke="midnightblue" d="M109.219,-29.4329C117.554,-28.1813 126.253,-26.875 134.839,-25.5856"/>
<polygon fill="midnightblue" stroke="midnightblue" points="135.469,-29.0304 144.838,-24.084 134.429,-22.108 135.469,-29.0304"/>
</g>
</g>
</svg>
