<?xml version="1.0" encoding="UTF-8" standalone="no"?>
<!DOCTYPE svg PUBLIC "-//W3C//DTD SVG 1.1//EN"
 "http://www.w3.org/Graphics/SVG/1.1/DTD/svg11.dtd">
<!-- Generated by graphviz version 2.38.0 (20140413.2041)
 -->
<!-- Title: Cleaner Pages: 1 -->
<svg width="772pt" height="675pt"
 viewBox="0.00 0.00 772.00 674.50" xmlns="http://www.w3.org/2000/svg" xmlns:xlink="http://www.w3.org/1999/xlink">
<g id="graph0" class="graph" transform="scale(1 1) rotate(0) translate(4 670.5)">
<title>Cleaner</title>
<polygon fill="white" stroke="none" points="-4,4 -4,-670.5 768,-670.5 768,4 -4,4"/>
<!-- Node1 -->
<g id="node1" class="node"><title>Node1</title>
<polygon fill="#bfbfbf" stroke="black" points="230,-496.5 230,-515.5 280,-515.5 280,-496.5 230,-496.5"/>
<text text-anchor="middle" x="255" y="-503.5" font-family="Helvetica,sans-Serif" font-size="10.00">Cleaner</text>
</g>
<!-- Node2 -->
<g id="node2" class="node"><title>Node2</title>
<g id="a_node2"><a xlink:href="classnew_alignment.html" target="_top" xlink:title="Class containing an alignment &#160;This class stores the alignment sequences with it&#39;s names...">
<polygon fill="white" stroke="black" points="449.5,-414.5 449.5,-433.5 527.5,-433.5 527.5,-414.5 449.5,-414.5"/>
<text text-anchor="middle" x="488.5" y="-421.5" font-family="Helvetica,sans-Serif" font-size="10.00">newAlignment</text>
</a>
</g>
</g>
<!-- Node1&#45;&gt;Node2 -->
<g id="edge19" class="edge"><title>Node1&#45;&gt;Node2</title>
<path fill="none" stroke="#9a32cd" stroke-dasharray="5,2" d="M290.078,-496.785C338.602,-483.628 422.496,-460.739 429,-458 444.806,-451.344 461.611,-441.221 473.134,-433.751"/>
<polygon fill="#9a32cd" stroke="#9a32cd" points="289.038,-493.44 280.301,-499.434 290.868,-500.197 289.038,-493.44"/>
<text text-anchor="middle" x="376.5" y="-491" font-family="Helvetica,sans-Serif" font-size="10.00"> Cleaning</text>
</g>
<!-- Node2&#45;&gt;Node1 -->
<g id="edge1" class="edge"><title>Node2&#45;&gt;Node1</title>
<path fill="none" stroke="#9a32cd" stroke-dasharray="5,2" d="M439.173,-419.601C404.146,-418.898 357.284,-423.35 324,-447 309.741,-457.132 318.538,-469.802 306,-482 298.753,-489.05 289.04,-494.354 280.102,-498.159"/>
<polygon fill="#9a32cd" stroke="#9a32cd" points="439.06,-423.099 449.175,-419.947 439.302,-416.103 439.06,-423.099"/>
<text text-anchor="middle" x="376.5" y="-450" font-family="Helvetica,sans-Serif" font-size="10.00"> _alignment</text>
</g>
<!-- Node3 -->
<g id="node3" class="node"><title>Node3</title>
<g id="a_node3"><a xlink:href="classstatistics_gaps.html" target="_top" xlink:title="statisticsGaps">
<polygon fill="white" stroke="black" points="664.5,-315.5 664.5,-334.5 744.5,-334.5 744.5,-315.5 664.5,-315.5"/>
<text text-anchor="middle" x="704.5" y="-322.5" font-family="Helvetica,sans-Serif" font-size="10.00">statisticsGaps</text>
</a>
</g>
</g>
<!-- Node2&#45;&gt;Node3 -->
<g id="edge3" class="edge"><title>Node2&#45;&gt;Node3</title>
<path fill="none" stroke="#9a32cd" stroke-dasharray="5,2" d="M520.756,-410.194C548.696,-397.783 590.71,-378.954 627,-362 646.515,-352.883 668.653,-342.131 684.074,-334.574"/>
<polygon fill="#9a32cd" stroke="#9a32cd" points="519.214,-407.048 511.492,-414.302 522.052,-413.447 519.214,-407.048"/>
<text text-anchor="middle" x="587.5" y="-401" font-family="Helvetica,sans-Serif" font-size="10.00"> _alignment</text>
</g>
<!-- Node5 -->
<g id="node5" class="node"><title>Node5</title>
<g id="a_node5"><a xlink:href="classsequences_matrix.html" target="_top" xlink:title="sequencesMatrix">
<polygon fill="white" stroke="black" points="659,-523.5 659,-542.5 750,-542.5 750,-523.5 659,-523.5"/>
<text text-anchor="middle" x="704.5" y="-530.5" font-family="Helvetica,sans-Serif" font-size="10.00">sequencesMatrix</text>
</a>
</g>
</g>
<!-- Node2&#45;&gt;Node5 -->
<g id="edge6" class="edge"><title>Node2&#45;&gt;Node5</title>
<path fill="none" stroke="#9a32cd" stroke-dasharray="5,2" d="M499.346,-442.72C509.314,-459.791 526.332,-484.366 548,-498 566.21,-509.458 619.671,-519.91 658.84,-526.35"/>
<polygon fill="#9a32cd" stroke="#9a32cd" points="502.232,-440.709 494.309,-433.675 496.116,-444.115 502.232,-440.709"/>
<text text-anchor="middle" x="587.5" y="-524" font-family="Helvetica,sans-Serif" font-size="10.00"> _alignment</text>
</g>
<!-- Node9 -->
<g id="node9" class="node"><title>Node9</title>
<g id="a_node9"><a xlink:href="classstatistics_conservation2.html" target="_top" xlink:title="statisticsConservation2">
<polygon fill="white" stroke="black" points="645,-91.5 645,-110.5 764,-110.5 764,-91.5 645,-91.5"/>
<text text-anchor="middle" x="704.5" y="-98.5" font-family="Helvetica,sans-Serif" font-size="10.00">statisticsConservation2</text>
</a>
</g>
</g>
<!-- Node2&#45;&gt;Node9 -->
<g id="edge12" class="edge"><title>Node2&#45;&gt;Node9</title>
<path fill="none" stroke="#9a32cd" stroke-dasharray="5,2" d="M497.089,-405.119C506.867,-382.068 525.333,-342.514 548,-313 577.119,-275.086 597.539,-277.649 627,-240 661.459,-195.963 689.371,-134.363 699.452,-110.744"/>
<polygon fill="#9a32cd" stroke="#9a32cd" points="493.816,-403.875 493.224,-414.453 500.284,-406.553 493.816,-403.875"/>
<text text-anchor="middle" x="587.5" y="-316" font-family="Helvetica,sans-Serif" font-size="10.00"> _alignment</text>
</g>
<!-- Node14 -->
<g id="node14" class="node"><title>Node14</title>
<g id="a_node14"><a xlink:href="class_statistics_manager.html" target="_top" xlink:title="StatisticsManager">
<polygon fill="white" stroke="black" points="657,-408.5 657,-427.5 752,-427.5 752,-408.5 657,-408.5"/>
<text text-anchor="middle" x="704.5" y="-415.5" font-family="Helvetica,sans-Serif" font-size="10.00">StatisticsManager</text>
</a>
</g>
</g>
<!-- Node2&#45;&gt;Node14 -->
<g id="edge24" class="edge"><title>Node2&#45;&gt;Node14</title>
<path fill="none" stroke="#9a32cd" stroke-dasharray="5,2" d="M537.5,-417.791C541.049,-417.475 544.578,-417.204 548,-417 584.516,-414.823 625.941,-415.231 656.847,-416.097"/>
<polygon fill="#9a32cd" stroke="#9a32cd" points="537.121,-414.311 527.518,-418.785 537.815,-421.277 537.121,-414.311"/>
<text text-anchor="middle" x="587.5" y="-420" font-family="Helvetica,sans-Serif" font-size="10.00"> _alignment</text>
</g>
<!-- Node3&#45;&gt;Node2 -->
<g id="edge2" class="edge"><title>Node3&#45;&gt;Node2</title>
<path fill="none" stroke="#9a32cd" stroke-dasharray="5,2" d="M654.376,-324.36C622.145,-325.983 580.17,-332.132 548,-351 521.803,-366.365 502.663,-398.234 494.249,-414.298"/>
<polygon fill="#9a32cd" stroke="#9a32cd" points="654.611,-327.853 664.473,-323.981 654.349,-320.858 654.611,-327.853"/>
<text text-anchor="middle" x="587.5" y="-354" font-family="Helvetica,sans-Serif" font-size="10.00"> sgaps</text>
</g>
<!-- Node4 -->
<g id="node4" class="node"><title>Node4</title>
<polygon fill="white" stroke="#bfbfbf" points="33,-334.5 33,-353.5 62,-353.5 62,-334.5 33,-334.5"/>
<text text-anchor="middle" x="47.5" y="-341.5" font-family="Helvetica,sans-Serif" font-size="10.00">int</text>
</g>
<!-- Node4&#45;&gt;Node1 -->
<g id="edge26" class="edge"><title>Node4&#45;&gt;Node1</title>
<path fill="none" stroke="#9a32cd" stroke-dasharray="5,2" d="M64.5509,-361.231C91.363,-389.288 147.872,-445.381 204,-482 212.387,-487.472 222.211,-492.459 230.921,-496.452"/>
<polygon fill="#9a32cd" stroke="#9a32cd" points="66.9233,-358.646 57.5079,-353.788 61.8388,-363.458 66.9233,-358.646"/>
<text text-anchor="middle" x="149.5" y="-495" font-family="Helvetica,sans-Serif" font-size="10.00"> right_boundary</text>
<text text-anchor="middle" x="149.5" y="-484" font-family="Helvetica,sans-Serif" font-size="10.00">blockSize</text>
<text text-anchor="middle" x="149.5" y="-473" font-family="Helvetica,sans-Serif" font-size="10.00">left_boundary</text>
</g>
<!-- Node4&#45;&gt;Node2 -->
<g id="edge20" class="edge"><title>Node4&#45;&gt;Node2</title>
<path fill="none" stroke="#9a32cd" stroke-dasharray="5,2" d="M72.1469,-349.366C84.3279,-352.07 99.434,-355.333 113,-358 235.596,-382.098 381.597,-406.636 449.399,-417.794"/>
<polygon fill="#9a32cd" stroke="#9a32cd" points="72.8309,-345.932 62.3076,-347.162 71.3006,-352.763 72.8309,-345.932"/>
<text text-anchor="middle" x="255" y="-474" font-family="Helvetica,sans-Serif" font-size="10.00"> originalSequenNumber</text>
<text text-anchor="middle" x="255" y="-463" font-family="Helvetica,sans-Serif" font-size="10.00">saveSequences</text>
<text text-anchor="middle" x="255" y="-452" font-family="Helvetica,sans-Serif" font-size="10.00">SeqRef</text>
<text text-anchor="middle" x="255" y="-441" font-family="Helvetica,sans-Serif" font-size="10.00">dataType</text>
<text text-anchor="middle" x="255" y="-430" font-family="Helvetica,sans-Serif" font-size="10.00">saveResidues</text>
<text text-anchor="middle" x="255" y="-419" font-family="Helvetica,sans-Serif" font-size="10.00">residNumber</text>
<text text-anchor="middle" x="255" y="-408" font-family="Helvetica,sans-Serif" font-size="10.00">sequenNumber</text>
<text text-anchor="middle" x="255" y="-397" font-family="Helvetica,sans-Serif" font-size="10.00">originalResidNumber</text>
</g>
<!-- Node4&#45;&gt;Node3 -->
<g id="edge4" class="edge"><title>Node4&#45;&gt;Node3</title>
<path fill="none" stroke="#9a32cd" stroke-dasharray="5,2" d="M67.3539,-327.841C109.731,-292.719 217.184,-210.232 324,-181 456.013,-144.872 511.467,-162.619 627,-236 660.194,-257.083 686.818,-296.962 697.912,-315.313"/>
<polygon fill="#9a32cd" stroke="#9a32cd" points="64.9555,-325.285 59.5435,-334.393 69.4542,-330.648 64.9555,-325.285"/>
<text text-anchor="middle" x="376.5" y="-272" font-family="Helvetica,sans-Serif" font-size="10.00"> numColumnsWithGaps</text>
<text text-anchor="middle" x="376.5" y="-261" font-family="Helvetica,sans-Serif" font-size="10.00">halfWindow</text>
<text text-anchor="middle" x="376.5" y="-250" font-family="Helvetica,sans-Serif" font-size="10.00">gapsWindow</text>
<text text-anchor="middle" x="376.5" y="-239" font-family="Helvetica,sans-Serif" font-size="10.00">maxGaps</text>
<text text-anchor="middle" x="376.5" y="-228" font-family="Helvetica,sans-Serif" font-size="10.00">gapsInColumn</text>
<text text-anchor="middle" x="376.5" y="-217" font-family="Helvetica,sans-Serif" font-size="10.00">dataType</text>
<text text-anchor="middle" x="376.5" y="-206" font-family="Helvetica,sans-Serif" font-size="10.00">aminosXInColumn</text>
<text text-anchor="middle" x="376.5" y="-195" font-family="Helvetica,sans-Serif" font-size="10.00">sequenNumber</text>
<text text-anchor="middle" x="376.5" y="-184" font-family="Helvetica,sans-Serif" font-size="10.00">residNumber</text>
</g>
<!-- Node4&#45;&gt;Node5 -->
<g id="edge7" class="edge"><title>Node4&#45;&gt;Node5</title>
<path fill="none" stroke="#9a32cd" stroke-dasharray="5,2" d="M48.5131,-364.182C49.7663,-403.802 58.8604,-491.264 113,-530 135.069,-545.79 524.634,-537.511 658.649,-534.177"/>
<polygon fill="#9a32cd" stroke="#9a32cd" points="52.0084,-363.878 48.3354,-353.94 45.0095,-363.999 52.0084,-363.878"/>
<text text-anchor="middle" x="376.5" y="-565" font-family="Helvetica,sans-Serif" font-size="10.00"> matrix</text>
<text text-anchor="middle" x="376.5" y="-554" font-family="Helvetica,sans-Serif" font-size="10.00">seqsNumber</text>
<text text-anchor="middle" x="376.5" y="-543" font-family="Helvetica,sans-Serif" font-size="10.00">resNumber</text>
</g>
<!-- Node4&#45;&gt;Node9 -->
<g id="edge14" class="edge"><title>Node4&#45;&gt;Node9</title>
<path fill="none" stroke="#9a32cd" stroke-dasharray="5,2" d="M47.7957,-324.059C47.3416,-278.941 52.8125,-168.276 113,-108 271.649,50.8822 591.003,-56.9503 680.002,-91.4396"/>
<polygon fill="#9a32cd" stroke="#9a32cd" points="44.3012,-324.353 48.0168,-334.275 51.2995,-324.202 44.3012,-324.353"/>
<text text-anchor="middle" x="376.5" y="-53" font-family="Helvetica,sans-Serif" font-size="10.00"> residues</text>
<text text-anchor="middle" x="376.5" y="-42" font-family="Helvetica,sans-Serif" font-size="10.00">halfWindow</text>
<text text-anchor="middle" x="376.5" y="-31" font-family="Helvetica,sans-Serif" font-size="10.00">sequences</text>
</g>
<!-- Node12 -->
<g id="node12" class="node"><title>Node12</title>
<g id="a_node12"><a xlink:href="classsimilarity_matrix.html" target="_top" xlink:title="similarityMatrix">
<polygon fill="white" stroke="black" points="447,-76.5 447,-95.5 530,-95.5 530,-76.5 447,-76.5"/>
<text text-anchor="middle" x="488.5" y="-83.5" font-family="Helvetica,sans-Serif" font-size="10.00">similarityMatrix</text>
</a>
</g>
</g>
<!-- Node4&#45;&gt;Node12 -->
<g id="edge18" class="edge"><title>Node4&#45;&gt;Node12</title>
<path fill="none" stroke="#9a32cd" stroke-dasharray="5,2" d="M51.8764,-324.244C58.5459,-289.911 76.0803,-218.288 113,-170 143.189,-130.516 157.203,-121.743 204,-105 247.543,-89.4214 379.384,-86.4706 446.821,-86.0069"/>
<polygon fill="#9a32cd" stroke="#9a32cd" points="48.3806,-323.903 50.0188,-334.371 55.2658,-325.167 48.3806,-323.903"/>
<text text-anchor="middle" x="255" y="-119" font-family="Helvetica,sans-Serif" font-size="10.00"> numPositions</text>
<text text-anchor="middle" x="255" y="-108" font-family="Helvetica,sans-Serif" font-size="10.00">vhash</text>
</g>
<!-- Node4&#45;&gt;Node14 -->
<g id="edge25" class="edge"><title>Node4&#45;&gt;Node14</title>
<path fill="none" stroke="#9a32cd" stroke-dasharray="5,2" d="M72.0744,-343.105C167.057,-339.766 521.623,-329.952 627,-365 653.983,-373.975 680.023,-395.66 693.662,-408.337"/>
<polygon fill="#9a32cd" stroke="#9a32cd" points="71.9115,-339.608 62.0446,-343.468 72.1647,-346.604 71.9115,-339.608"/>
<text text-anchor="middle" x="376.5" y="-356" font-family="Helvetica,sans-Serif" font-size="10.00"> shWindow</text>
<text text-anchor="middle" x="376.5" y="-345" font-family="Helvetica,sans-Serif" font-size="10.00">ghWindow</text>
</g>
<!-- Node5&#45;&gt;Node2 -->
<g id="edge5" class="edge"><title>Node5&#45;&gt;Node2</title>
<path fill="none" stroke="#9a32cd" stroke-dasharray="5,2" d="M679.946,-517.903C665.016,-508.568 645.161,-496.582 627,-487 587.752,-466.292 540.4,-445.469 512.749,-433.708"/>
<polygon fill="#9a32cd" stroke="#9a32cd" points="678.221,-520.953 688.547,-523.327 681.956,-515.032 678.221,-520.953"/>
<text text-anchor="middle" x="587.5" y="-490" font-family="Helvetica,sans-Serif" font-size="10.00"> SequencesMatrix</text>
</g>
<!-- Node6 -->
<g id="node6" class="node"><title>Node6</title>
<g id="a_node6"><a xlink:title="STL class. ">
<polygon fill="white" stroke="#bfbfbf" points="225,-641.5 225,-660.5 285,-660.5 285,-641.5 225,-641.5"/>
<text text-anchor="middle" x="255" y="-648.5" font-family="Helvetica,sans-Serif" font-size="10.00">std::string</text>
</a>
</g>
</g>
<!-- Node6&#45;&gt;Node2 -->
<g id="edge21" class="edge"><title>Node6&#45;&gt;Node2</title>
<path fill="none" stroke="#9a32cd" stroke-dasharray="5,2" d="M274.446,-634.89C287.468,-624.327 305.777,-611.032 324,-603 367.715,-583.732 392.89,-611.279 429,-580 474.694,-540.419 484.77,-461.489 486.929,-433.842"/>
<polygon fill="#9a32cd" stroke="#9a32cd" points="272.138,-632.258 266.706,-641.355 276.625,-637.63 272.138,-632.258"/>
<text text-anchor="middle" x="376.5" y="-650" font-family="Helvetica,sans-Serif" font-size="10.00"> seqsName</text>
<text text-anchor="middle" x="376.5" y="-639" font-family="Helvetica,sans-Serif" font-size="10.00">seqsInfo</text>
<text text-anchor="middle" x="376.5" y="-628" font-family="Helvetica,sans-Serif" font-size="10.00">sequences</text>
<text text-anchor="middle" x="376.5" y="-617" font-family="Helvetica,sans-Serif" font-size="10.00">aligInfo</text>
<text text-anchor="middle" x="376.5" y="-606" font-family="Helvetica,sans-Serif" font-size="10.00">filename</text>
</g>
<!-- Node6&#45;&gt;Node5 -->
<g id="edge8" class="edge"><title>Node6&#45;&gt;Node5</title>
<path fill="none" stroke="#9a32cd" stroke-dasharray="5,2" d="M295.088,-658.141C330.473,-663.299 383.815,-667.804 429,-658 534.675,-635.072 648.475,-567.8 688.533,-542.641"/>
<polygon fill="#9a32cd" stroke="#9a32cd" points="295.577,-654.675 285.16,-656.608 294.508,-661.593 295.577,-654.675"/>
<text text-anchor="middle" x="488.5" y="-656" font-family="Helvetica,sans-Serif" font-size="10.00"> seqsName</text>
</g>
<!-- Node7 -->
<g id="node7" class="node"><title>Node7</title>
<g id="a_node7"><a xlink:title="STL class. ">
<polygon fill="white" stroke="#bfbfbf" points="0,-636 0,-666 95,-666 95,-636 0,-636"/>
<text text-anchor="start" x="8" y="-654" font-family="Helvetica,sans-Serif" font-size="10.00">std::basic_string&lt;</text>
<text text-anchor="middle" x="47.5" y="-643" font-family="Helvetica,sans-Serif" font-size="10.00"> char &gt;</text>
</a>
</g>
</g>
<!-- Node7&#45;&gt;Node6 -->
<g id="edge9" class="edge"><title>Node7&#45;&gt;Node6</title>
<path fill="none" stroke="midnightblue" d="M105.26,-651C144.108,-651 194.008,-651 224.994,-651"/>
<polygon fill="midnightblue" stroke="midnightblue" points="105.131,-647.5 95.1311,-651 105.131,-654.5 105.131,-647.5"/>
</g>
<!-- Node8 -->
<g id="node8" class="node"><title>Node8</title>
<polygon fill="white" stroke="#bfbfbf" points="237.5,-136.5 237.5,-155.5 272.5,-155.5 272.5,-136.5 237.5,-136.5"/>
<text text-anchor="middle" x="255" y="-143.5" font-family="Helvetica,sans-Serif" font-size="10.00">float</text>
</g>
<!-- Node8&#45;&gt;Node2 -->
<g id="edge10" class="edge"><title>Node8&#45;&gt;Node2</title>
<path fill="none" stroke="#9a32cd" stroke-dasharray="5,2" d="M259.991,-165.681C267.211,-196.001 285.418,-253.789 324,-284 361.614,-313.453 391.301,-277.657 429,-307 465.201,-335.177 480.696,-391.734 485.622,-414.34"/>
<polygon fill="#9a32cd" stroke="#9a32cd" points="263.394,-164.859 257.811,-155.855 256.56,-166.375 263.394,-164.859"/>
<text text-anchor="middle" x="376.5" y="-321" font-family="Helvetica,sans-Serif" font-size="10.00"> identities</text>
<text text-anchor="middle" x="376.5" y="-310" font-family="Helvetica,sans-Serif" font-size="10.00">overlaps</text>
</g>
<!-- Node8&#45;&gt;Node12 -->
<g id="edge17" class="edge"><title>Node8&#45;&gt;Node12</title>
<path fill="none" stroke="#9a32cd" stroke-dasharray="5,2" d="M283.151,-141.941C317.55,-136.437 378.446,-125.486 429,-110 441.91,-106.045 455.92,-100.35 466.991,-95.5005"/>
<polygon fill="#9a32cd" stroke="#9a32cd" points="282.299,-138.531 272.96,-143.535 283.381,-145.447 282.299,-138.531"/>
<text text-anchor="middle" x="376.5" y="-149" font-family="Helvetica,sans-Serif" font-size="10.00"> distMat</text>
<text text-anchor="middle" x="376.5" y="-138" font-family="Helvetica,sans-Serif" font-size="10.00">simMat</text>
</g>
<!-- Node9&#45;&gt;Node2 -->
<g id="edge11" class="edge"><title>Node9&#45;&gt;Node2</title>
<path fill="none" stroke="#9a32cd" stroke-dasharray="5,2" d="M681.36,-116.715C642.966,-144.358 566.371,-201.37 548,-229 506.512,-291.397 493.62,-384.178 490.414,-414.229"/>
<polygon fill="#9a32cd" stroke="#9a32cd" points="683.716,-119.332 689.807,-110.663 679.64,-113.641 683.716,-119.332"/>
<text text-anchor="middle" x="587.5" y="-232" font-family="Helvetica,sans-Serif" font-size="10.00"> scons</text>
</g>
<!-- Node10 -->
<g id="node10" class="node"><title>Node10</title>
<polygon fill="white" stroke="#bfbfbf" points="467.5,-114.5 467.5,-133.5 509.5,-133.5 509.5,-114.5 467.5,-114.5"/>
<text text-anchor="middle" x="488.5" y="-121.5" font-family="Helvetica,sans-Serif" font-size="10.00">float *</text>
</g>
<!-- Node10&#45;&gt;Node9 -->
<g id="edge13" class="edge"><title>Node10&#45;&gt;Node9</title>
<path fill="none" stroke="#9a32cd" stroke-dasharray="5,2" d="M519.799,-120.744C552.137,-117.268 604.178,-111.675 644.628,-107.327"/>
<polygon fill="#9a32cd" stroke="#9a32cd" points="519.201,-117.288 509.633,-121.836 519.949,-124.247 519.201,-117.288"/>
<text text-anchor="middle" x="587.5" y="-143" font-family="Helvetica,sans-Serif" font-size="10.00"> MDK_Window</text>
<text text-anchor="middle" x="587.5" y="-132" font-family="Helvetica,sans-Serif" font-size="10.00">Q</text>
<text text-anchor="middle" x="587.5" y="-121" font-family="Helvetica,sans-Serif" font-size="10.00">MDK</text>
</g>
<!-- Node11 -->
<g id="node11" class="node"><title>Node11</title>
<polygon fill="white" stroke="#bfbfbf" points="465.5,-0.5 465.5,-19.5 511.5,-19.5 511.5,-0.5 465.5,-0.5"/>
<text text-anchor="middle" x="488.5" y="-7.5" font-family="Helvetica,sans-Serif" font-size="10.00">float **</text>
</g>
<!-- Node11&#45;&gt;Node9 -->
<g id="edge15" class="edge"><title>Node11&#45;&gt;Node9</title>
<path fill="none" stroke="#9a32cd" stroke-dasharray="5,2" d="M521.671,-6.98363C550.635,-5.63601 593.648,-7.10728 627,-23 659.705,-38.5844 686.192,-74.3331 697.534,-91.482"/>
<polygon fill="#9a32cd" stroke="#9a32cd" points="521.451,-3.49045 511.68,-7.58617 521.872,-10.4778 521.451,-3.49045"/>
<text text-anchor="middle" x="587.5" y="-26" font-family="Helvetica,sans-Serif" font-size="10.00"> matrixIdentity</text>
</g>
<!-- Node12&#45;&gt;Node9 -->
<g id="edge16" class="edge"><title>Node12&#45;&gt;Node9</title>
<path fill="none" stroke="#9a32cd" stroke-dasharray="5,2" d="M540.252,-85.0795C542.872,-85.0486 545.467,-85.0216 548,-85 583.11,-84.6999 592.075,-81.3868 627,-85 639.687,-86.3125 653.371,-88.8184 665.61,-91.4643"/>
<polygon fill="#9a32cd" stroke="#9a32cd" points="540.047,-81.5819 530.095,-85.2163 540.142,-88.5812 540.047,-81.5819"/>
<text text-anchor="middle" x="587.5" y="-88" font-family="Helvetica,sans-Serif" font-size="10.00"> simMatrix</text>
</g>
<!-- Node13 -->
<g id="node13" class="node"><title>Node13</title>
<polygon fill="white" stroke="#bfbfbf" points="30,-536.5 30,-555.5 65,-555.5 65,-536.5 30,-536.5"/>
<text text-anchor="middle" x="47.5" y="-543.5" font-family="Helvetica,sans-Serif" font-size="10.00">bool</text>
</g>
<!-- Node13&#45;&gt;Node1 -->
<g id="edge27" class="edge"><title>Node13&#45;&gt;Node1</title>
<path fill="none" stroke="#9a32cd" stroke-dasharray="5,2" d="M75.2074,-540.801C115.451,-532.968 191.041,-518.255 229.773,-510.716"/>
<polygon fill="#9a32cd" stroke="#9a32cd" points="74.464,-537.38 65.3169,-542.727 75.8015,-544.251 74.464,-537.38"/>
<text text-anchor="middle" x="149.5" y="-548" font-family="Helvetica,sans-Serif" font-size="10.00"> keepSequences</text>
<text text-anchor="middle" x="149.5" y="-537" font-family="Helvetica,sans-Serif" font-size="10.00">terminalGapOnly</text>
</g>
<!-- Node13&#45;&gt;Node2 -->
<g id="edge22" class="edge"><title>Node13&#45;&gt;Node2</title>
<path fill="none" stroke="#9a32cd" stroke-dasharray="5,2" d="M74.9605,-553.079C86.5437,-555.83 100.352,-558.643 113,-560 145.259,-563.461 153.801,-563.98 186,-560 192.907,-559.146 423.168,-502.797 429,-499 454.878,-482.15 474.165,-449.898 482.681,-433.736"/>
<polygon fill="#9a32cd" stroke="#9a32cd" points="75.5944,-549.631 65.0454,-550.614 73.9053,-556.424 75.5944,-549.631"/>
<text text-anchor="middle" x="255" y="-559" font-family="Helvetica,sans-Serif" font-size="10.00"> isAligned</text>
</g>
<!-- Node14&#45;&gt;Node2 -->
<g id="edge23" class="edge"><title>Node14&#45;&gt;Node2</title>
<path fill="none" stroke="#9a32cd" stroke-dasharray="5,2" d="M646.489,-427.94C639.934,-428.786 633.333,-429.506 627,-430 591.995,-432.729 583.065,-431.794 548,-430 541.372,-429.661 534.339,-429.107 527.533,-428.47"/>
<polygon fill="#9a32cd" stroke="#9a32cd" points="647.283,-431.363 656.706,-426.52 646.319,-424.43 647.283,-431.363"/>
<text text-anchor="middle" x="587.5" y="-435" font-family="Helvetica,sans-Serif" font-size="10.00"> Statistics</text>
</g>
</g>
</svg>
