<?xml version="1.0" encoding="UTF-8" standalone="no"?>
<!DOCTYPE svg PUBLIC "-//W3C//DTD SVG 1.1//EN"
 "http://www.w3.org/Graphics/SVG/1.1/DTD/svg11.dtd">
<!-- Generated by graphviz version 2.38.0 (20140413.2041)
 -->
<!-- Title: trimAlManager::CleanResiduesNonAuto Pages: 1 -->
<svg width="460pt" height="39pt"
 viewBox="0.00 0.00 460.00 39.00" xmlns="http://www.w3.org/2000/svg" xmlns:xlink="http://www.w3.org/1999/xlink">
<g id="graph0" class="graph" transform="scale(1 1) rotate(0) translate(4 35)">
<title>trimAlManager::CleanResiduesNonAuto</title>
<polygon fill="white" stroke="none" points="-4,4 -4,-35 456,-35 456,4 -4,4"/>
<!-- Node242 -->
<g id="node1" class="node"><title>Node242</title>
<polygon fill="#bfbfbf" stroke="black" points="0,-0.5 0,-30.5 152,-30.5 152,-0.5 0,-0.5"/>
<text text-anchor="start" x="8" y="-18.5" font-family="Helvetica,sans-Serif" font-size="10.00">trimAlManager::CleanResidues</text>
<text text-anchor="middle" x="76" y="-7.5" font-family="Helvetica,sans-Serif" font-size="10.00">NonAuto</text>
</g>
<!-- Node243 -->
<g id="node2" class="node"><title>Node243</title>
<g id="a_node2"><a xlink:href="classtrim_al_manager.html#adc529dd893ed4e9df6f3ddbd58776068" target="_top" xlink:title="Core Method of the program. This is where almost all cleaning methods are called from. ">
<polygon fill="white" stroke="black" points="188,-0.5 188,-30.5 297,-30.5 297,-0.5 188,-0.5"/>
<text text-anchor="start" x="196" y="-18.5" font-family="Helvetica,sans-Serif" font-size="10.00">trimAlManager::clean</text>
<text text-anchor="middle" x="242.5" y="-7.5" font-family="Helvetica,sans-Serif" font-size="10.00">_alignment</text>
</a>
</g>
</g>
<!-- Node242&#45;&gt;Node243 -->
<g id="edge1" class="edge"><title>Node242&#45;&gt;Node243</title>
<path fill="none" stroke="midnightblue" d="M162.208,-15.5C170.881,-15.5 179.511,-15.5 187.709,-15.5"/>
<polygon fill="midnightblue" stroke="midnightblue" points="162.029,-12.0001 152.029,-15.5 162.029,-19.0001 162.029,-12.0001"/>
</g>
<!-- Node244 -->
<g id="node3" class="node"><title>Node244</title>
<g id="a_node3"><a xlink:href="classtrim_al_manager.html#abe8d2841455c644dc9c7d1294b82b00f" target="_top" xlink:title="Method to perform the analysis if all checks have passed. ">
<polygon fill="white" stroke="black" points="333,-6 333,-25 452,-25 452,-6 333,-6"/>
<text text-anchor="middle" x="392.5" y="-13" font-family="Helvetica,sans-Serif" font-size="10.00">trimAlManager::perform</text>
</a>
</g>
</g>
<!-- Node243&#45;&gt;Node244 -->
<g id="edge2" class="edge"><title>Node243&#45;&gt;Node244</title>
<path fill="none" stroke="midnightblue" d="M307.532,-15.5C315.977,-15.5 324.597,-15.5 332.943,-15.5"/>
<polygon fill="midnightblue" stroke="midnightblue" points="307.35,-12.0001 297.35,-15.5 307.35,-19.0001 307.35,-12.0001"/>
</g>
</g>
</svg>
