<?xml version="1.0" encoding="UTF-8" standalone="no"?>
<!DOCTYPE svg PUBLIC "-//W3C//DTD SVG 1.1//EN"
 "http://www.w3.org/Graphics/SVG/1.1/DTD/svg11.dtd">
<!-- Generated by graphviz version 2.38.0 (20140413.2041)
 -->
<!-- Title: Cleaner::clean Pages: 1 -->
<svg width="571pt" height="317pt"
 viewBox="0.00 0.00 571.00 317.00" xmlns="http://www.w3.org/2000/svg" xmlns:xlink="http://www.w3.org/1999/xlink">
<g id="graph0" class="graph" transform="scale(1 1) rotate(0) translate(4 313)">
<title>Cleaner::clean</title>
<polygon fill="white" stroke="none" points="-4,4 -4,-313 567,-313 567,4 -4,4"/>
<!-- Node12 -->
<g id="node1" class="node"><title>Node12</title>
<polygon fill="#bfbfbf" stroke="black" points="0,-213.5 0,-232.5 80,-232.5 80,-213.5 0,-213.5"/>
<text text-anchor="middle" x="40" y="-220.5" font-family="Helvetica,sans-Serif" font-size="10.00">Cleaner::clean</text>
</g>
<!-- Node13 -->
<g id="node2" class="node"><title>Node13</title>
<g id="a_node2"><a xlink:href="classstatistics_conservation.html#a43f994a862174670d4fde9884360f680" target="_top" xlink:title="Computes and selects the cut point values based on conservation&#39;s values. ">
<polygon fill="white" stroke="black" points="125,-246 125,-276 239,-276 239,-246 125,-246"/>
<text text-anchor="start" x="133" y="-264" font-family="Helvetica,sans-Serif" font-size="10.00">statisticsConservation</text>
<text text-anchor="middle" x="182" y="-253" font-family="Helvetica,sans-Serif" font-size="10.00">::calcCutPoint</text>
</a>
</g>
</g>
<!-- Node12&#45;&gt;Node13 -->
<g id="edge1" class="edge"><title>Node12&#45;&gt;Node13</title>
<path fill="none" stroke="midnightblue" d="M76.3279,-232.589C88.3215,-235.844 102.132,-239.593 115.705,-243.277"/>
<polygon fill="midnightblue" stroke="midnightblue" points="114.95,-246.699 125.517,-245.94 116.784,-239.943 114.95,-246.699"/>
</g>
<!-- Node17 -->
<g id="node6" class="node"><title>Node17</title>
<g id="a_node6"><a xlink:href="class_cleaner.html#ad075f0ef730c8023cf8a0e35e7e1e53a" target="_top" xlink:title="Method to clean an alignment. &#160;It removes sequences that overpass or equals a certain threshold...">
<polygon fill="white" stroke="black" points="116,-175.5 116,-194.5 248,-194.5 248,-175.5 116,-175.5"/>
<text text-anchor="middle" x="182" y="-182.5" font-family="Helvetica,sans-Serif" font-size="10.00">Cleaner::cleanByCutValue</text>
</a>
</g>
</g>
<!-- Node12&#45;&gt;Node17 -->
<g id="edge5" class="edge"><title>Node12&#45;&gt;Node17</title>
<path fill="none" stroke="midnightblue" d="M76.3279,-213.411C94.4006,-208.506 116.598,-202.48 135.895,-197.243"/>
<polygon fill="midnightblue" stroke="midnightblue" points="136.949,-200.583 145.683,-194.586 135.116,-193.828 136.949,-200.583"/>
</g>
<!-- Node14 -->
<g id="node3" class="node"><title>Node14</title>
<g id="a_node3"><a xlink:href="classutils.html#a42f272221edf7752ffda49e4212ef653" target="_top" xlink:title="Integer vector copying. ">
<polygon fill="white" stroke="black" points="332.5,-289.5 332.5,-308.5 414.5,-308.5 414.5,-289.5 332.5,-289.5"/>
<text text-anchor="middle" x="373.5" y="-296.5" font-family="Helvetica,sans-Serif" font-size="10.00">utils::copyVect</text>
</a>
</g>
</g>
<!-- Node13&#45;&gt;Node14 -->
<g id="edge2" class="edge"><title>Node13&#45;&gt;Node14</title>
<path fill="none" stroke="midnightblue" d="M239.087,-272.247C265.583,-277.56 296.948,-283.85 322.607,-288.995"/>
<polygon fill="midnightblue" stroke="midnightblue" points="322.006,-292.444 332.499,-290.979 323.382,-285.581 322.006,-292.444"/>
</g>
<!-- Node15 -->
<g id="node4" class="node"><title>Node15</title>
<g id="a_node4"><a xlink:href="classutils.html#a73f038c379c13d23e3220afaa14f9983" target="_top" xlink:title="Quicksort sorting method. ">
<polygon fill="white" stroke="black" points="333.5,-251.5 333.5,-270.5 413.5,-270.5 413.5,-251.5 333.5,-251.5"/>
<text text-anchor="middle" x="373.5" y="-258.5" font-family="Helvetica,sans-Serif" font-size="10.00">utils::quicksort</text>
</a>
</g>
</g>
<!-- Node13&#45;&gt;Node15 -->
<g id="edge3" class="edge"><title>Node13&#45;&gt;Node15</title>
<path fill="none" stroke="midnightblue" d="M239.087,-261C265.754,-261 297.352,-261 323.102,-261"/>
<polygon fill="midnightblue" stroke="midnightblue" points="323.384,-264.5 333.384,-261 323.384,-257.5 323.384,-264.5"/>
</g>
<!-- Node16 -->
<g id="node5" class="node"><title>Node16</title>
<g id="a_node5"><a xlink:href="classutils.html#a3377ecde55631d1bbc4956e5923b7469" target="_top" xlink:title="Swapping elements method. ">
<polygon fill="white" stroke="black" points="499,-251.5 499,-270.5 563,-270.5 563,-251.5 499,-251.5"/>
<text text-anchor="middle" x="531" y="-258.5" font-family="Helvetica,sans-Serif" font-size="10.00">utils::swap</text>
</a>
</g>
</g>
<!-- Node15&#45;&gt;Node16 -->
<g id="edge4" class="edge"><title>Node15&#45;&gt;Node16</title>
<path fill="none" stroke="midnightblue" d="M413.739,-261C436.6,-261 465.403,-261 488.62,-261"/>
<polygon fill="midnightblue" stroke="midnightblue" points="488.854,-264.5 498.854,-261 488.853,-257.5 488.854,-264.5"/>
</g>
<!-- Node17&#45;&gt;Node14 -->
<g id="edge7" class="edge"><title>Node17&#45;&gt;Node14</title>
<path fill="none" stroke="midnightblue" d="M196.592,-194.633C210.211,-204.562 231.469,-220.833 248,-237 265.82,-254.427 262.656,-267.129 284,-280 295.474,-286.919 309.123,-291.337 322.225,-294.152"/>
<polygon fill="midnightblue" stroke="midnightblue" points="321.617,-297.599 332.092,-296.007 322.911,-290.72 321.617,-297.599"/>
</g>
<!-- Node17&#45;&gt;Node15 -->
<g id="edge8" class="edge"><title>Node17&#45;&gt;Node15</title>
<path fill="none" stroke="midnightblue" d="M196.719,-194.537C215.554,-207.202 250.868,-229.429 284,-242 296.528,-246.753 310.528,-250.448 323.63,-253.262"/>
<polygon fill="midnightblue" stroke="midnightblue" points="322.94,-256.693 333.435,-255.245 324.328,-249.832 322.94,-256.693"/>
</g>
<!-- Node18 -->
<g id="node7" class="node"><title>Node18</title>
<g id="a_node7"><a xlink:href="classutils.html#ad50731aeb3c8f79ed8372516210dfc9d" target="_top" xlink:title="Round double to integer method. ">
<polygon fill="white" stroke="black" points="335.5,-213.5 335.5,-232.5 411.5,-232.5 411.5,-213.5 335.5,-213.5"/>
<text text-anchor="middle" x="373.5" y="-220.5" font-family="Helvetica,sans-Serif" font-size="10.00">utils::roundInt</text>
</a>
</g>
</g>
<!-- Node17&#45;&gt;Node18 -->
<g id="edge6" class="edge"><title>Node17&#45;&gt;Node18</title>
<path fill="none" stroke="midnightblue" d="M230.819,-194.589C259.851,-200.411 296.747,-207.809 325.609,-213.597"/>
<polygon fill="midnightblue" stroke="midnightblue" points="324.963,-217.037 335.456,-215.572 326.34,-210.174 324.963,-217.037"/>
</g>
<!-- Node19 -->
<g id="node8" class="node"><title>Node19</title>
<g id="a_node8"><a xlink:href="class_cleaner.html#a033da9ea63774f43f4c7aff04f23da81" target="_top" xlink:title="Method to detect right and left borders. Borders are the first column found with no gaps...">
<polygon fill="white" stroke="black" points="300.5,-175.5 300.5,-194.5 446.5,-194.5 446.5,-175.5 300.5,-175.5"/>
<text text-anchor="middle" x="373.5" y="-182.5" font-family="Helvetica,sans-Serif" font-size="10.00">Cleaner::removeOnlyTerminal</text>
</a>
</g>
</g>
<!-- Node17&#45;&gt;Node19 -->
<g id="edge9" class="edge"><title>Node17&#45;&gt;Node19</title>
<path fill="none" stroke="midnightblue" d="M248.215,-185C261.741,-185 276.159,-185 290.205,-185"/>
<polygon fill="midnightblue" stroke="midnightblue" points="290.349,-188.5 300.349,-185 290.349,-181.5 290.349,-188.5"/>
</g>
<!-- Node20 -->
<g id="node9" class="node"><title>Node20</title>
<g id="a_node9"><a xlink:href="class_cleaner.html#a24bd28e4191afc9471adff329bee1466" target="_top" xlink:title="Method for computing the complementary alignment. Complementary Alignment is an alignment containing ...">
<polygon fill="white" stroke="black" points="284,-137.5 284,-156.5 463,-156.5 463,-137.5 284,-137.5"/>
<text text-anchor="middle" x="373.5" y="-144.5" font-family="Helvetica,sans-Serif" font-size="10.00">Cleaner::computeComplementaryAlig</text>
</a>
</g>
</g>
<!-- Node17&#45;&gt;Node20 -->
<g id="edge10" class="edge"><title>Node17&#45;&gt;Node20</title>
<path fill="none" stroke="midnightblue" d="M230.819,-175.411C256.389,-170.284 288.059,-163.933 314.968,-158.537"/>
<polygon fill="midnightblue" stroke="midnightblue" points="315.908,-161.918 325.025,-156.52 314.532,-155.055 315.908,-161.918"/>
</g>
<!-- Node21 -->
<g id="node10" class="node"><title>Node21</title>
<g id="a_node10"><a xlink:href="class_cleaner.html#a2f7d85e29f23f880a7ad7e28863b36c3" target="_top" xlink:title="Method that identifies and removes columns and sequences composed only by gaps. ">
<polygon fill="white" stroke="black" points="319,-88 319,-118 428,-118 428,-88 319,-88"/>
<text text-anchor="start" x="327" y="-106" font-family="Helvetica,sans-Serif" font-size="10.00">Cleaner::removeCols</text>
<text text-anchor="middle" x="373.5" y="-95" font-family="Helvetica,sans-Serif" font-size="10.00">_SeqsAllGaps</text>
</a>
</g>
</g>
<!-- Node17&#45;&gt;Node21 -->
<g id="edge11" class="edge"><title>Node17&#45;&gt;Node21</title>
<path fill="none" stroke="midnightblue" d="M197.494,-175.347C216.621,-162.96 251.658,-141.467 284,-128 292.032,-124.656 300.654,-121.602 309.252,-118.868"/>
<polygon fill="midnightblue" stroke="midnightblue" points="310.373,-122.185 318.915,-115.917 308.329,-115.49 310.373,-122.185"/>
</g>
<!-- Node22 -->
<g id="node11" class="node"><title>Node22</title>
<g id="a_node11"><a xlink:href="classnew_alignment.html#a3de39c62c08a265178f1fa7df76c3ab7" target="_top" xlink:title="Method that copies information of the alignment to the pointers given. ">
<polygon fill="white" stroke="black" points="306,-39 306,-69 441,-69 441,-39 306,-39"/>
<text text-anchor="start" x="314" y="-57" font-family="Helvetica,sans-Serif" font-size="10.00">newAlignment::fillNewData</text>
<text text-anchor="middle" x="373.5" y="-46" font-family="Helvetica,sans-Serif" font-size="10.00">Structure</text>
</a>
</g>
</g>
<!-- Node17&#45;&gt;Node22 -->
<g id="edge12" class="edge"><title>Node17&#45;&gt;Node22</title>
<path fill="none" stroke="midnightblue" d="M189.348,-175.459C203.677,-154.68 240.677,-105.112 284,-79 287.874,-76.6652 291.974,-74.5411 296.202,-72.6095"/>
<polygon fill="midnightblue" stroke="midnightblue" points="297.744,-75.7589 305.628,-68.6815 295.051,-69.2975 297.744,-75.7589"/>
</g>
<!-- Node23 -->
<g id="node12" class="node"><title>Node23</title>
<g id="a_node12"><a xlink:href="classnew_alignment.html#acbeb320f0f70222f81a906ccfc33a016" target="_top" xlink:title="Method to intialize data that has been modified on the alignment. The method checks if the sequences ...">
<polygon fill="white" stroke="black" points="308,-0.5 308,-19.5 439,-19.5 439,-0.5 308,-0.5"/>
<text text-anchor="middle" x="373.5" y="-7.5" font-family="Helvetica,sans-Serif" font-size="10.00">newAlignment::fillMatrices</text>
</a>
</g>
</g>
<!-- Node17&#45;&gt;Node23 -->
<g id="edge13" class="edge"><title>Node17&#45;&gt;Node23</title>
<path fill="none" stroke="midnightblue" d="M186.209,-175.426C195.993,-147.8 228.227,-67.4723 284,-29 288.335,-26.0094 293.053,-23.4762 297.977,-21.3318"/>
<polygon fill="midnightblue" stroke="midnightblue" points="299.543,-24.4817 307.657,-17.6695 297.066,-17.9345 299.543,-24.4817"/>
</g>
</g>
</svg>
