<?xml version="1.0" encoding="UTF-8" standalone="no"?>
<!DOCTYPE svg PUBLIC "-//W3C//DTD SVG 1.1//EN"
 "http://www.w3.org/Graphics/SVG/1.1/DTD/svg11.dtd">
<!-- Generated by graphviz version 2.40.1 (20161225.0304)
 -->
<!-- Title: trimAlManager::check_automated_manual_incompatibilities Pages: 1 -->
<svg width="612pt" height="39pt"
 viewBox="0.00 0.00 612.00 39.00" xmlns="http://www.w3.org/2000/svg" xmlns:xlink="http://www.w3.org/1999/xlink">
<g id="graph0" class="graph" transform="scale(1 1) rotate(0) translate(4 35)">
<title>trimAlManager::check_automated_manual_incompatibilities</title>
<polygon fill="#ffffff" stroke="transparent" points="-4,4 -4,-35 608,-35 608,4 -4,4"/>
<!-- Node93 -->
<g id="node1" class="node">
<title>Node93</title>
<polygon fill="#bfbfbf" stroke="#000000" points="0,-.5 0,-30.5 179,-30.5 179,-.5 0,-.5"/>
<text text-anchor="start" x="8" y="-18.5" font-family="Helvetica,sans-Serif" font-size="10.00" fill="#000000">trimAlManager::check</text>
<text text-anchor="middle" x="89.5" y="-7.5" font-family="Helvetica,sans-Serif" font-size="10.00" fill="#000000">_automated_manual_incompatibilities</text>
</g>
<!-- Node94 -->
<g id="node2" class="node">
<title>Node94</title>
<g id="a_node2"><a xlink:href="classtrim_al_manager.html#a3f325b806727751394adb829d97b35f1" target="_top" xlink:title="Method that checks dependencies between arguments. Take in mind that dependencies may be between mult...">
<polygon fill="#ffffff" stroke="#000000" points="215,-.5 215,-30.5 327,-30.5 327,-.5 215,-.5"/>
<text text-anchor="start" x="223" y="-18.5" font-family="Helvetica,sans-Serif" font-size="10.00" fill="#000000">trimAlManager::check</text>
<text text-anchor="middle" x="271" y="-7.5" font-family="Helvetica,sans-Serif" font-size="10.00" fill="#000000">_arguments_needs</text>
</a>
</g>
</g>
<!-- Node93&#45;&gt;Node94 -->
<g id="edge1" class="edge">
<title>Node93&#45;&gt;Node94</title>
<path fill="none" stroke="#191970" d="M189.4215,-15.5C198.1124,-15.5 206.6898,-15.5 214.8307,-15.5"/>
<polygon fill="#191970" stroke="#191970" points="189.1866,-12.0001 179.1865,-15.5 189.1865,-19.0001 189.1866,-12.0001"/>
</g>
<!-- Node95 -->
<g id="node3" class="node">
<title>Node95</title>
<g id="a_node3"><a xlink:href="classtrim_al_manager.html#a748b08a1ec5cd214de804ed0d4234a6e" target="_top" xlink:title="Method to process the information obtained by trimAlManager::parseArguments It checks for argument in...">
<polygon fill="#ffffff" stroke="#000000" points="363,-6 363,-25 530,-25 530,-6 363,-6"/>
<text text-anchor="middle" x="446.5" y="-13" font-family="Helvetica,sans-Serif" font-size="10.00" fill="#000000">trimAlManager::processArguments</text>
</a>
</g>
</g>
<!-- Node94&#45;&gt;Node95 -->
<g id="edge2" class="edge">
<title>Node94&#45;&gt;Node95</title>
<path fill="none" stroke="#191970" d="M337.1146,-15.5C345.5308,-15.5 354.2302,-15.5 362.876,-15.5"/>
<polygon fill="#191970" stroke="#191970" points="337.0119,-12.0001 327.0118,-15.5 337.0118,-19.0001 337.0119,-12.0001"/>
</g>
<!-- Node96 -->
<g id="node4" class="node">
<title>Node96</title>
<g id="a_node4"><a xlink:href="trim_al_main_8cpp.html#a0ddf1224851353fc92bfbff6f499fa97" target="_top" xlink:title="main">
<polygon fill="#ffffff" stroke="#000000" points="566,-6 566,-25 604,-25 604,-6 566,-6"/>
<text text-anchor="middle" x="585" y="-13" font-family="Helvetica,sans-Serif" font-size="10.00" fill="#000000">main</text>
</a>
</g>
</g>
<!-- Node95&#45;&gt;Node96 -->
<g id="edge3" class="edge">
<title>Node95&#45;&gt;Node96</title>
<path fill="none" stroke="#191970" d="M540.301,-15.5C549.7267,-15.5 558.4553,-15.5 565.6511,-15.5"/>
<polygon fill="#191970" stroke="#191970" points="540.2612,-12.0001 530.2611,-15.5 540.2611,-19.0001 540.2612,-12.0001"/>
</g>
</g>
</svg>
