<?xml version="1.0" encoding="UTF-8" standalone="no"?>
<!DOCTYPE svg PUBLIC "-//W3C//DTD SVG 1.1//EN"
 "http://www.w3.org/Graphics/SVG/1.1/DTD/svg11.dtd">
<!-- Generated by graphviz version 2.38.0 (20140413.2041)
 -->
<!-- Title: utils::lookForPattern Pages: 1 -->
<svg width="480pt" height="28pt"
 viewBox="0.00 0.00 480.00 28.00" xmlns="http://www.w3.org/2000/svg" xmlns:xlink="http://www.w3.org/1999/xlink">
<g id="graph0" class="graph" transform="scale(1 1) rotate(0) translate(4 24)">
<title>utils::lookForPattern</title>
<polygon fill="white" stroke="none" points="-4,4 -4,-24 476,-24 476,4 -4,4"/>
<!-- Node98 -->
<g id="node1" class="node"><title>Node98</title>
<polygon fill="#bfbfbf" stroke="black" points="0,-0.5 0,-19.5 104,-19.5 104,-0.5 0,-0.5"/>
<text text-anchor="middle" x="52" y="-7.5" font-family="Helvetica,sans-Serif" font-size="10.00">utils::lookForPattern</text>
</g>
<!-- Node99 -->
<g id="node2" class="node"><title>Node99</title>
<g id="a_node2"><a xlink:href="classutils.html#ad1594a7c6cd34bba8e878fe09837e5d8" target="_top" xlink:title="Checks the color that has to be used on the output report. ">
<polygon fill="white" stroke="black" points="140,-0.5 140,-19.5 247,-19.5 247,-0.5 140,-0.5"/>
<text text-anchor="middle" x="193.5" y="-7.5" font-family="Helvetica,sans-Serif" font-size="10.00">utils::determineColor</text>
</a>
</g>
</g>
<!-- Node98&#45;&gt;Node99 -->
<g id="edge1" class="edge"><title>Node98&#45;&gt;Node99</title>
<path fill="none" stroke="midnightblue" d="M114.42,-10C122.935,-10 131.617,-10 139.95,-10"/>
<polygon fill="midnightblue" stroke="midnightblue" points="114.153,-6.5001 104.153,-10 114.152,-13.5001 114.153,-6.5001"/>
</g>
<!-- Node100 -->
<g id="node3" class="node"><title>Node100</title>
<g id="a_node3"><a xlink:href="classnew_alignment.html#a4c739b8951d20fbe59251041c1131bd3" target="_top" xlink:title="Method to report the trimming results in SVG. Outputs a SVG file that shows visually what has been do...">
<polygon fill="white" stroke="black" points="283,-0.5 283,-19.5 472,-19.5 472,-0.5 283,-0.5"/>
<text text-anchor="middle" x="377.5" y="-7.5" font-family="Helvetica,sans-Serif" font-size="10.00">newAlignment::alignmentSummarySVG</text>
</a>
</g>
</g>
<!-- Node99&#45;&gt;Node100 -->
<g id="edge2" class="edge"><title>Node99&#45;&gt;Node100</title>
<path fill="none" stroke="midnightblue" d="M257.376,-10C265.617,-10 274.2,-10 282.816,-10"/>
<polygon fill="midnightblue" stroke="midnightblue" points="257.142,-6.5001 247.142,-10 257.142,-13.5001 257.142,-6.5001"/>
</g>
</g>
</svg>
