<?xml version="1.0" encoding="UTF-8" standalone="no"?>
<!DOCTYPE svg PUBLIC "-//W3C//DTD SVG 1.1//EN"
 "http://www.w3.org/Graphics/SVG/1.1/DTD/svg11.dtd">
<!-- Generated by graphviz version 2.38.0 (20140413.2041)
 -->
<!-- Title: utils::checkAlignmentType Pages: 1 -->
<svg width="2039pt" height="355pt"
 viewBox="0.00 0.00 2039.00 354.64" xmlns="http://www.w3.org/2000/svg" xmlns:xlink="http://www.w3.org/1999/xlink">
<g id="graph0" class="graph" transform="scale(1 1) rotate(0) translate(4 350.641)">
<title>utils::checkAlignmentType</title>
<polygon fill="white" stroke="none" points="-4,4 -4,-350.641 2035,-350.641 2035,4 -4,4"/>
<!-- Node1 -->
<g id="node1" class="node"><title>Node1</title>
<polygon fill="#bfbfbf" stroke="black" points="0,-131.141 0,-150.141 132,-150.141 132,-131.141 0,-131.141"/>
<text text-anchor="middle" x="66" y="-138.141" font-family="Helvetica,sans-Serif" font-size="10.00">utils::checkAlignmentType</text>
</g>
<!-- Node2 -->
<g id="node2" class="node"><title>Node2</title>
<g id="a_node2"><a xlink:href="classnew_alignment.html#a670d5ef1ced9ed6041c3f6afdbd2cc02" target="_top" xlink:title="Alignment type getter. &#160;&#160;See SequenceTypes.">
<polygon fill="white" stroke="black" points="168,-131.141 168,-150.141 331,-150.141 331,-131.141 168,-131.141"/>
<text text-anchor="middle" x="249.5" y="-138.141" font-family="Helvetica,sans-Serif" font-size="10.00">newAlignment::getAlignmentType</text>
</a>
</g>
</g>
<!-- Node1&#45;&gt;Node2 -->
<g id="edge1" class="edge"><title>Node1&#45;&gt;Node2</title>
<path fill="none" stroke="midnightblue" d="M142.202,-140.641C150.646,-140.641 159.276,-140.641 167.787,-140.641"/>
<polygon fill="midnightblue" stroke="midnightblue" points="142.013,-137.141 132.013,-140.641 142.013,-144.141 142.013,-137.141"/>
</g>
<!-- Node3 -->
<g id="node3" class="node"><title>Node3</title>
<g id="a_node3"><a xlink:href="classstatistics_conservation.html#a9fe3502be02c8d6591a6de2d5f81c337" target="_top" xlink:title="Computes the matrix identity between alignment&#39;s columns. ">
<polygon fill="white" stroke="black" points="379,-238.641 379,-268.641 500,-268.641 500,-238.641 379,-238.641"/>
<text text-anchor="start" x="387" y="-256.641" font-family="Helvetica,sans-Serif" font-size="10.00">statisticsConservation</text>
<text text-anchor="middle" x="439.5" y="-245.641" font-family="Helvetica,sans-Serif" font-size="10.00">::calculateMatrixIdentity</text>
</a>
</g>
</g>
<!-- Node2&#45;&gt;Node3 -->
<g id="edge2" class="edge"><title>Node2&#45;&gt;Node3</title>
<path fill="none" stroke="midnightblue" d="M270.746,-156.465C293.403,-173.751 331.591,-201.64 367,-221.641 377.775,-227.728 389.925,-233.531 401.11,-238.483"/>
<polygon fill="midnightblue" stroke="midnightblue" points="272.646,-153.511 262.586,-150.185 268.376,-159.058 272.646,-153.511"/>
</g>
<!-- Node4 -->
<g id="node4" class="node"><title>Node4</title>
<g id="a_node4"><a xlink:href="classstatistics_conservation.html#ada98c86595cb14a2e8bc058703aa8066" target="_top" xlink:title="Method to calculate the conservation values of a alignment matrix. ">
<polygon fill="white" stroke="black" points="580.5,-239.641 580.5,-269.641 694.5,-269.641 694.5,-239.641 580.5,-239.641"/>
<text text-anchor="start" x="588.5" y="-257.641" font-family="Helvetica,sans-Serif" font-size="10.00">statisticsConservation</text>
<text text-anchor="middle" x="637.5" y="-246.641" font-family="Helvetica,sans-Serif" font-size="10.00">::calculateVectors</text>
</a>
</g>
</g>
<!-- Node2&#45;&gt;Node4 -->
<g id="edge30" class="edge"><title>Node2&#45;&gt;Node4</title>
<path fill="none" stroke="midnightblue" d="M282.34,-154.111C305.555,-163.643 337.908,-176.334 367,-185.641 439.796,-208.93 525.575,-229.793 580.469,-242.33"/>
<polygon fill="midnightblue" stroke="midnightblue" points="283.565,-150.83 272.987,-150.238 280.887,-157.298 283.565,-150.83"/>
</g>
<!-- Node15 -->
<g id="node15" class="node"><title>Node15</title>
<g id="a_node15"><a xlink:href="class_cleaner.html#a65d829578be97c192561a129435b3c58" target="_top" xlink:title="Method to calculate identities between the sequences from the alignment. See newAlignment::identities...">
<polygon fill="white" stroke="black" points="367,-157.141 367,-176.141 512,-176.141 512,-157.141 367,-157.141"/>
<text text-anchor="middle" x="439.5" y="-164.141" font-family="Helvetica,sans-Serif" font-size="10.00">Cleaner::calculateSeqIdentity</text>
</a>
</g>
</g>
<!-- Node2&#45;&gt;Node15 -->
<g id="edge17" class="edge"><title>Node2&#45;&gt;Node15</title>
<path fill="none" stroke="midnightblue" d="M329.516,-151.569C342.824,-153.41 356.545,-155.307 369.572,-157.109"/>
<polygon fill="midnightblue" stroke="midnightblue" points="329.822,-148.078 319.437,-150.175 328.863,-155.012 329.822,-148.078"/>
</g>
<!-- Node22 -->
<g id="node22" class="node"><title>Node22</title>
<g id="a_node22"><a xlink:href="class_cleaner.html#ab2db8eacfbe545c68fc287c43309e439" target="_top" xlink:title="Method to compute the overlap values. &#160;See newAlignment::overlaps. ">
<polygon fill="white" stroke="black" points="372.5,-100.641 372.5,-130.641 506.5,-130.641 506.5,-100.641 372.5,-100.641"/>
<text text-anchor="start" x="380.5" y="-118.641" font-family="Helvetica,sans-Serif" font-size="10.00">Cleaner::calculateSpurious</text>
<text text-anchor="middle" x="439.5" y="-107.641" font-family="Helvetica,sans-Serif" font-size="10.00">Vector</text>
</a>
</g>
</g>
<!-- Node2&#45;&gt;Node22 -->
<g id="edge27" class="edge"><title>Node2&#45;&gt;Node22</title>
<path fill="none" stroke="midnightblue" d="M332.268,-129.768C345.659,-127.987 359.388,-126.161 372.341,-124.439"/>
<polygon fill="midnightblue" stroke="midnightblue" points="331.562,-126.331 322.111,-131.118 332.485,-133.27 331.562,-126.331"/>
</g>
<!-- Node24 -->
<g id="node24" class="node"><title>Node24</title>
<g id="a_node24"><a xlink:href="classtrim_al_manager.html#ad3e1ebff95c17424f4159e9adb8548ae" target="_top" xlink:title="Method to check the type of sequences present in the backtranslationAlig. ">
<polygon fill="white" stroke="black" points="376,-38.6412 376,-68.6412 503,-68.6412 503,-38.6412 376,-38.6412"/>
<text text-anchor="start" x="384" y="-56.6412" font-family="Helvetica,sans-Serif" font-size="10.00">trimAlManager::check</text>
<text text-anchor="middle" x="439.5" y="-45.6412" font-family="Helvetica,sans-Serif" font-size="10.00">_coding_sequences_type</text>
</a>
</g>
</g>
<!-- Node2&#45;&gt;Node24 -->
<g id="edge31" class="edge"><title>Node2&#45;&gt;Node24</title>
<path fill="none" stroke="midnightblue" d="M280.828,-126.606C315.117,-110.738 370.736,-84.9999 405.926,-68.7155"/>
<polygon fill="midnightblue" stroke="midnightblue" points="278.943,-123.622 271.338,-130.998 281.883,-129.975 278.943,-123.622"/>
</g>
<!-- Node27 -->
<g id="node27" class="node"><title>Node27</title>
<g id="a_node27"><a xlink:href="classtrim_al_manager.html#a3e8b2b5b4e1a44c498c47448840b6c69" target="_top" xlink:title="Method to create, load and use a similarity matrix, depending on alignment residue nature...">
<polygon fill="white" stroke="black" points="1591,-4.64123 1591,-34.6412 1719,-34.6412 1719,-4.64123 1591,-4.64123"/>
<text text-anchor="start" x="1599" y="-22.6412" font-family="Helvetica,sans-Serif" font-size="10.00">trimAlManager::create</text>
<text text-anchor="middle" x="1655" y="-11.6412" font-family="Helvetica,sans-Serif" font-size="10.00">_or_use_similarity_matrix</text>
</a>
</g>
</g>
<!-- Node2&#45;&gt;Node27 -->
<g id="edge34" class="edge"><title>Node2&#45;&gt;Node27</title>
<path fill="none" stroke="midnightblue" d="M262.794,-122.634C281.723,-96.5997 320.707,-49.3083 367,-28.6412 476.674,20.3218 516.393,-8.64123 636.5,-8.64123 636.5,-8.64123 636.5,-8.64123 1273.5,-8.64123 1385.19,-8.64123 1515.24,-13.4351 1590.73,-16.6934"/>
<polygon fill="midnightblue" stroke="midnightblue" points="259.879,-120.694 256.956,-130.877 265.592,-124.74 259.879,-120.694"/>
</g>
<!-- Node3&#45;&gt;Node4 -->
<g id="edge3" class="edge"><title>Node3&#45;&gt;Node4</title>
<path fill="none" stroke="midnightblue" d="M510.134,-253.997C533.104,-254.114 558.349,-254.243 580.196,-254.354"/>
<polygon fill="midnightblue" stroke="midnightblue" points="510.123,-250.497 500.105,-253.945 510.087,-257.496 510.123,-250.497"/>
</g>
<!-- Node5 -->
<g id="node5" class="node"><title>Node5</title>
<g id="a_node5"><a xlink:href="classstatistics_conservation.html#a31f6ff0c30b2a207aba13f7687709467" target="_top" xlink:title="Allows us compute the conservationWindow&#39;s values. ">
<polygon fill="white" stroke="black" points="789.5,-239.641 789.5,-269.641 903.5,-269.641 903.5,-239.641 789.5,-239.641"/>
<text text-anchor="start" x="797.5" y="-257.641" font-family="Helvetica,sans-Serif" font-size="10.00">statisticsConservation</text>
<text text-anchor="middle" x="846.5" y="-246.641" font-family="Helvetica,sans-Serif" font-size="10.00">::applyWindow</text>
</a>
</g>
</g>
<!-- Node4&#45;&gt;Node5 -->
<g id="edge4" class="edge"><title>Node4&#45;&gt;Node5</title>
<path fill="none" stroke="midnightblue" d="M704.76,-254.641C732.045,-254.641 763.314,-254.641 789.438,-254.641"/>
<polygon fill="midnightblue" stroke="midnightblue" points="704.517,-251.141 694.517,-254.641 704.517,-258.141 704.517,-251.141"/>
</g>
<!-- Node6 -->
<g id="node6" class="node"><title>Node6</title>
<g id="a_node6"><a xlink:href="classstatistics_conservation.html#a0e674b4b4b91773fb1c32a532797f328" target="_top" xlink:title="This methods returns a pointer to conservationWindow&#39;s vector. ">
<polygon fill="white" stroke="black" points="988,-239.641 988,-269.641 1117,-269.641 1117,-239.641 988,-239.641"/>
<text text-anchor="start" x="996" y="-257.641" font-family="Helvetica,sans-Serif" font-size="10.00">statisticsConservation</text>
<text text-anchor="middle" x="1052.5" y="-246.641" font-family="Helvetica,sans-Serif" font-size="10.00">::getMdkWindowedVector</text>
</a>
</g>
</g>
<!-- Node5&#45;&gt;Node6 -->
<g id="edge5" class="edge"><title>Node5&#45;&gt;Node6</title>
<path fill="none" stroke="midnightblue" d="M913.827,-254.641C937.539,-254.641 964.194,-254.641 987.689,-254.641"/>
<polygon fill="midnightblue" stroke="midnightblue" points="913.514,-251.141 903.514,-254.641 913.514,-258.141 913.514,-251.141"/>
</g>
<!-- Node7 -->
<g id="node7" class="node"><title>Node7</title>
<g id="a_node7"><a xlink:href="classnew_alignment.html#a2607115c839209324dca54d70fc8708d" target="_top" xlink:title="Method to report the trimming results in HTML. Outputs an HTML file that shows visually what has been...">
<polygon fill="white" stroke="black" points="1175,-327.141 1175,-346.141 1370,-346.141 1370,-327.141 1175,-327.141"/>
<text text-anchor="middle" x="1272.5" y="-334.141" font-family="Helvetica,sans-Serif" font-size="10.00">newAlignment::alignmentSummaryHTML</text>
</a>
</g>
</g>
<!-- Node6&#45;&gt;Node7 -->
<g id="edge6" class="edge"><title>Node6&#45;&gt;Node7</title>
<path fill="none" stroke="midnightblue" d="M1090.27,-274.586C1113.94,-286.826 1145.67,-302.116 1175,-312.641 1190.92,-318.356 1208.8,-323.213 1224.8,-327.031"/>
<polygon fill="midnightblue" stroke="midnightblue" points="1091.77,-271.424 1081.29,-269.892 1088.53,-277.627 1091.77,-271.424"/>
</g>
<!-- Node8 -->
<g id="node8" class="node"><title>Node8</title>
<g id="a_node8"><a xlink:href="classstatistics_conservation.html#aa11412e9db5babc6dc7b2b4c7c471ed6" target="_top" xlink:title="Computes and selects the cut point values based on conservation&#39;s values. ">
<polygon fill="white" stroke="black" points="1215.5,-239.641 1215.5,-269.641 1329.5,-269.641 1329.5,-239.641 1215.5,-239.641"/>
<text text-anchor="start" x="1223.5" y="-257.641" font-family="Helvetica,sans-Serif" font-size="10.00">statisticsConservation</text>
<text text-anchor="middle" x="1272.5" y="-246.641" font-family="Helvetica,sans-Serif" font-size="10.00">::calcCutPoint</text>
</a>
</g>
</g>
<!-- Node6&#45;&gt;Node8 -->
<g id="edge7" class="edge"><title>Node6&#45;&gt;Node8</title>
<path fill="none" stroke="midnightblue" d="M1127.15,-254.641C1155.91,-254.641 1188.36,-254.641 1215.2,-254.641"/>
<polygon fill="midnightblue" stroke="midnightblue" points="1127.14,-251.141 1117.14,-254.641 1127.14,-258.141 1127.14,-251.141"/>
</g>
<!-- Node9 -->
<g id="node9" class="node"><title>Node9</title>
<g id="a_node9"><a xlink:href="class_cleaner.html#a1ac5ba504932526d77575365557a4d64" target="_top" xlink:title="Method to trim an alignment based on the similarity and gaps distribution values. ...">
<polygon fill="white" stroke="black" points="1434.5,-245.141 1434.5,-264.141 1514.5,-264.141 1514.5,-245.141 1434.5,-245.141"/>
<text text-anchor="middle" x="1474.5" y="-252.141" font-family="Helvetica,sans-Serif" font-size="10.00">Cleaner::clean</text>
</a>
</g>
</g>
<!-- Node6&#45;&gt;Node9 -->
<g id="edge14" class="edge"><title>Node6&#45;&gt;Node9</title>
<path fill="none" stroke="midnightblue" d="M1124.43,-271.751C1140.93,-275.029 1158.5,-277.961 1175,-279.641 1261.22,-288.42 1283.94,-289.887 1370,-279.641 1394.6,-276.713 1421.8,-270 1442.14,-264.268"/>
<polygon fill="midnightblue" stroke="midnightblue" points="1124.81,-268.257 1114.31,-269.673 1123.4,-275.113 1124.81,-268.257"/>
</g>
<!-- Node13 -->
<g id="node13" class="node"><title>Node13</title>
<g id="a_node13"><a xlink:href="class_cleaner.html#a694d53fdd5d1ac9455858e48537af3d0" target="_top" xlink:title="Method to trim an alignment based on the similarity distribution values. ">
<polygon fill="white" stroke="black" points="1406,-204.141 1406,-223.141 1543,-223.141 1543,-204.141 1406,-204.141"/>
<text text-anchor="middle" x="1474.5" y="-211.141" font-family="Helvetica,sans-Serif" font-size="10.00">Cleaner::cleanConservation</text>
</a>
</g>
</g>
<!-- Node6&#45;&gt;Node13 -->
<g id="edge16" class="edge"><title>Node6&#45;&gt;Node13</title>
<path fill="none" stroke="midnightblue" d="M1127.35,-237.611C1143.01,-234.517 1159.49,-231.641 1175,-229.641 1253.88,-219.47 1345.29,-215.743 1405.96,-214.389"/>
<polygon fill="midnightblue" stroke="midnightblue" points="1126.31,-234.252 1117.2,-239.669 1127.7,-241.113 1126.31,-234.252"/>
</g>
<!-- Node14 -->
<g id="node14" class="node"><title>Node14</title>
<g id="a_node14"><a xlink:href="class_cleaner.html#a068b219f913adba5c917a231cff7e437" target="_top" xlink:title="Method to clean an alignment. It carries out strict and strictplus. The method: ">
<polygon fill="white" stroke="black" points="1201,-163.141 1201,-182.141 1344,-182.141 1344,-163.141 1201,-163.141"/>
<text text-anchor="middle" x="1272.5" y="-170.141" font-family="Helvetica,sans-Serif" font-size="10.00">Cleaner::cleanCombMethods</text>
</a>
</g>
</g>
<!-- Node6&#45;&gt;Node14 -->
<g id="edge15" class="edge"><title>Node6&#45;&gt;Node14</title>
<path fill="none" stroke="midnightblue" d="M1090.27,-234.696C1113.94,-222.457 1145.67,-207.166 1175,-196.641 1190.92,-190.926 1208.8,-186.07 1224.8,-182.252"/>
<polygon fill="midnightblue" stroke="midnightblue" points="1088.53,-231.656 1081.29,-239.39 1091.77,-237.859 1088.53,-231.656"/>
</g>
<!-- Node8&#45;&gt;Node9 -->
<g id="edge8" class="edge"><title>Node8&#45;&gt;Node9</title>
<path fill="none" stroke="midnightblue" d="M1340.15,-254.641C1371.44,-254.641 1407.66,-254.641 1434.45,-254.641"/>
<polygon fill="midnightblue" stroke="midnightblue" points="1339.74,-251.141 1329.74,-254.641 1339.74,-258.141 1339.74,-251.141"/>
</g>
<!-- Node8&#45;&gt;Node13 -->
<g id="edge12" class="edge"><title>Node8&#45;&gt;Node13</title>
<path fill="none" stroke="midnightblue" d="M1339.68,-241.075C1368.31,-235.205 1401.14,-228.475 1427.12,-223.15"/>
<polygon fill="midnightblue" stroke="midnightblue" points="1338.84,-237.674 1329.74,-243.111 1340.24,-244.532 1338.84,-237.674"/>
</g>
<!-- Node10 -->
<g id="node10" class="node"><title>Node10</title>
<g id="a_node10"><a xlink:href="classtrim_al_manager.html#aebfd21b0435302f0e4fc45a068d1b6ee" target="_top" xlink:title="Method to trim the alignment using non automatic methods: ">
<polygon fill="white" stroke="black" points="1579,-198.641 1579,-228.641 1731,-228.641 1731,-198.641 1579,-198.641"/>
<text text-anchor="start" x="1587" y="-216.641" font-family="Helvetica,sans-Serif" font-size="10.00">trimAlManager::CleanResidues</text>
<text text-anchor="middle" x="1655" y="-205.641" font-family="Helvetica,sans-Serif" font-size="10.00">NonAuto</text>
</a>
</g>
</g>
<!-- Node9&#45;&gt;Node10 -->
<g id="edge9" class="edge"><title>Node9&#45;&gt;Node10</title>
<path fill="none" stroke="midnightblue" d="M1524.67,-243.347C1544.42,-238.81 1567.48,-233.514 1588.61,-228.661"/>
<polygon fill="midnightblue" stroke="midnightblue" points="1523.64,-239.994 1514.67,-245.644 1525.2,-246.816 1523.64,-239.994"/>
</g>
<!-- Node11 -->
<g id="node11" class="node"><title>Node11</title>
<g id="a_node11"><a xlink:href="classtrim_al_manager.html#adc529dd893ed4e9df6f3ddbd58776068" target="_top" xlink:title="Core Method of the program. This is where almost all cleaning methods are called from. ">
<polygon fill="white" stroke="black" points="1767,-81.6412 1767,-111.641 1876,-111.641 1876,-81.6412 1767,-81.6412"/>
<text text-anchor="start" x="1775" y="-99.6412" font-family="Helvetica,sans-Serif" font-size="10.00">trimAlManager::clean</text>
<text text-anchor="middle" x="1821.5" y="-88.6412" font-family="Helvetica,sans-Serif" font-size="10.00">_alignment</text>
</a>
</g>
</g>
<!-- Node10&#45;&gt;Node11 -->
<g id="edge10" class="edge"><title>Node10&#45;&gt;Node11</title>
<path fill="none" stroke="midnightblue" d="M1685.44,-192.7C1718.14,-169.441 1770.14,-132.459 1799.15,-111.825"/>
<polygon fill="midnightblue" stroke="midnightblue" points="1683.29,-189.937 1677.17,-198.585 1687.35,-195.641 1683.29,-189.937"/>
</g>
<!-- Node12 -->
<g id="node12" class="node"><title>Node12</title>
<g id="a_node12"><a xlink:href="classtrim_al_manager.html#abe8d2841455c644dc9c7d1294b82b00f" target="_top" xlink:title="Method to perform the analysis if all checks have passed. ">
<polygon fill="white" stroke="black" points="1912,-54.1412 1912,-73.1412 2031,-73.1412 2031,-54.1412 1912,-54.1412"/>
<text text-anchor="middle" x="1971.5" y="-61.1412" font-family="Helvetica,sans-Serif" font-size="10.00">trimAlManager::perform</text>
</a>
</g>
</g>
<!-- Node11&#45;&gt;Node12 -->
<g id="edge11" class="edge"><title>Node11&#45;&gt;Node12</title>
<path fill="none" stroke="midnightblue" d="M1886.37,-82.3992C1900.3,-79.2947 1914.71,-76.0815 1927.58,-73.2104"/>
<polygon fill="midnightblue" stroke="midnightblue" points="1885.35,-79.0417 1876.35,-84.6341 1886.87,-85.8739 1885.35,-79.0417"/>
</g>
<!-- Node13&#45;&gt;Node10 -->
<g id="edge13" class="edge"><title>Node13&#45;&gt;Node10</title>
<path fill="none" stroke="midnightblue" d="M1553.44,-213.641C1561.88,-213.641 1570.45,-213.641 1578.85,-213.641"/>
<polygon fill="midnightblue" stroke="midnightblue" points="1553.24,-210.141 1543.24,-213.641 1553.24,-217.141 1553.24,-210.141"/>
</g>
<!-- Node16 -->
<g id="node16" class="node"><title>Node16</title>
<g id="a_node16"><a xlink:href="class_cleaner.html#a6e219be8cd47b2d084e4563c2c66a947" target="_top" xlink:title="Method that selects the best cleaning method based on statistics of the alignment. ">
<polygon fill="white" stroke="black" points="789,-201.141 789,-220.141 904,-220.141 904,-201.141 789,-201.141"/>
<text text-anchor="middle" x="846.5" y="-208.141" font-family="Helvetica,sans-Serif" font-size="10.00">Cleaner::selectMethod</text>
</a>
</g>
</g>
<!-- Node15&#45;&gt;Node16 -->
<g id="edge18" class="edge"><title>Node15&#45;&gt;Node16</title>
<path fill="none" stroke="midnightblue" d="M506.108,-177.725C519.921,-179.86 534.42,-181.953 548,-183.641 631.631,-194.037 728.961,-202.114 788.901,-206.627"/>
<polygon fill="midnightblue" stroke="midnightblue" points="506.617,-174.262 496.195,-176.169 505.531,-181.178 506.617,-174.262"/>
</g>
<!-- Node18 -->
<g id="node18" class="node"><title>Node18</title>
<g id="a_node18"><a xlink:href="class_cleaner.html#a60955e2ae3faa3ccf84780a52fb1a08a" target="_top" xlink:title="Method that calculates the optimal cut point for a given clusters number. &#160;The idea is to obtain a cu...">
<polygon fill="white" stroke="black" points="774,-163.141 774,-182.141 919,-182.141 919,-163.141 774,-163.141"/>
<text text-anchor="middle" x="846.5" y="-170.141" font-family="Helvetica,sans-Serif" font-size="10.00">Cleaner::getCutPointClusters</text>
</a>
</g>
</g>
<!-- Node15&#45;&gt;Node18 -->
<g id="edge21" class="edge"><title>Node15&#45;&gt;Node18</title>
<path fill="none" stroke="midnightblue" d="M522.616,-167.858C596.365,-168.95 703.558,-170.538 773.891,-171.58"/>
<polygon fill="midnightblue" stroke="midnightblue" points="522.49,-164.356 512.439,-167.707 522.386,-171.355 522.49,-164.356"/>
</g>
<!-- Node20 -->
<g id="node20" class="node"><title>Node20</title>
<g id="a_node20"><a xlink:href="class_cleaner.html#a631cf3e2e55c00a995f0f4a51bfe7a2d" target="_top" xlink:title="Method to assign sequences to clusters. Clusters are calculated following this flow: ...">
<polygon fill="white" stroke="black" points="548,-125.141 548,-144.141 727,-144.141 727,-125.141 548,-125.141"/>
<text text-anchor="middle" x="637.5" y="-132.141" font-family="Helvetica,sans-Serif" font-size="10.00">Cleaner::calculateRepresentativeSeq</text>
</a>
</g>
</g>
<!-- Node15&#45;&gt;Node20 -->
<g id="edge24" class="edge"><title>Node15&#45;&gt;Node20</title>
<path fill="none" stroke="midnightblue" d="M508.653,-155.514C531.291,-151.818 556.277,-147.739 578.11,-144.174"/>
<polygon fill="midnightblue" stroke="midnightblue" points="508.081,-152.061 498.776,-157.127 509.209,-158.97 508.081,-152.061"/>
</g>
<!-- Node17 -->
<g id="node17" class="node"><title>Node17</title>
<g id="a_node17"><a xlink:href="classtrim_al_manager.html#a69082911b30a1bd12395bb235bc18a34" target="_top" xlink:title="Method to trim the alignment using automatic or semi&#45;automatic methods: ">
<polygon fill="white" stroke="black" points="966,-163.141 966,-182.141 1139,-182.141 1139,-163.141 966,-163.141"/>
<text text-anchor="middle" x="1052.5" y="-170.141" font-family="Helvetica,sans-Serif" font-size="10.00">trimAlManager::CleanResiduesAuto</text>
</a>
</g>
</g>
<!-- Node16&#45;&gt;Node17 -->
<g id="edge19" class="edge"><title>Node16&#45;&gt;Node17</title>
<path fill="none" stroke="midnightblue" d="M908.797,-199.223C937.986,-193.786 972.494,-187.358 1000.26,-182.185"/>
<polygon fill="midnightblue" stroke="midnightblue" points="907.904,-195.829 898.714,-201.101 909.186,-202.711 907.904,-195.829"/>
</g>
<!-- Node17&#45;&gt;Node11 -->
<g id="edge20" class="edge"><title>Node17&#45;&gt;Node11</title>
<path fill="none" stroke="midnightblue" d="M1117.83,-161.514C1136.25,-158.618 1156.38,-155.729 1175,-153.641 1421.14,-126.037 1485.69,-149.888 1731,-115.641 1742.64,-114.016 1755.03,-111.743 1766.76,-109.332"/>
<polygon fill="midnightblue" stroke="midnightblue" points="1117.12,-158.083 1107.8,-163.118 1118.23,-164.995 1117.12,-158.083"/>
</g>
<!-- Node19 -->
<g id="node19" class="node"><title>Node19</title>
<g id="a_node19"><a xlink:href="classtrim_al_manager.html#a10536f715945a1a45f1df33f7cedc81e" target="_top" xlink:title="Method to trim or reduce the number of sequences in an alignment. It performs one or none of the foll...">
<polygon fill="white" stroke="black" points="972.5,-106.141 972.5,-125.141 1132.5,-125.141 1132.5,-106.141 972.5,-106.141"/>
<text text-anchor="middle" x="1052.5" y="-113.141" font-family="Helvetica,sans-Serif" font-size="10.00">trimAlManager::CleanSequences</text>
</a>
</g>
</g>
<!-- Node18&#45;&gt;Node19 -->
<g id="edge22" class="edge"><title>Node18&#45;&gt;Node19</title>
<path fill="none" stroke="midnightblue" d="M901.537,-160.823C911.053,-158.564 920.84,-156.124 930,-153.641 962.21,-144.909 998.694,-133.257 1023.2,-125.168"/>
<polygon fill="midnightblue" stroke="midnightblue" points="900.698,-157.425 891.756,-163.107 902.29,-164.242 900.698,-157.425"/>
</g>
<!-- Node19&#45;&gt;Node11 -->
<g id="edge23" class="edge"><title>Node19&#45;&gt;Node11</title>
<path fill="none" stroke="midnightblue" d="M1143.03,-113.423C1303.76,-109.442 1636.6,-101.197 1766.71,-97.9737"/>
<polygon fill="midnightblue" stroke="midnightblue" points="1142.6,-109.933 1132.69,-113.679 1142.78,-116.931 1142.6,-109.933"/>
</g>
<!-- Node21 -->
<g id="node21" class="node"><title>Node21</title>
<g id="a_node21"><a xlink:href="class_cleaner.html#a991bf55a7d36b305d67d639ebf028348" target="_top" xlink:title="Method to select the most representative sequence (the longest one) for each cluster from the input a...">
<polygon fill="white" stroke="black" points="789.5,-125.141 789.5,-144.141 903.5,-144.141 903.5,-125.141 789.5,-125.141"/>
<text text-anchor="middle" x="846.5" y="-132.141" font-family="Helvetica,sans-Serif" font-size="10.00">Cleaner::getClustering</text>
</a>
</g>
</g>
<!-- Node20&#45;&gt;Node21 -->
<g id="edge25" class="edge"><title>Node20&#45;&gt;Node21</title>
<path fill="none" stroke="midnightblue" d="M737.609,-134.641C755.37,-134.641 773.303,-134.641 789.312,-134.641"/>
<polygon fill="midnightblue" stroke="midnightblue" points="737.187,-131.141 727.187,-134.641 737.187,-138.141 737.187,-131.141"/>
</g>
<!-- Node21&#45;&gt;Node19 -->
<g id="edge26" class="edge"><title>Node21&#45;&gt;Node19</title>
<path fill="none" stroke="midnightblue" d="M913.693,-128.476C932.391,-126.735 952.928,-124.822 972.307,-123.017"/>
<polygon fill="midnightblue" stroke="midnightblue" points="913.146,-125.012 903.514,-129.424 913.795,-131.982 913.146,-125.012"/>
</g>
<!-- Node23 -->
<g id="node23" class="node"><title>Node23</title>
<g id="a_node23"><a xlink:href="class_cleaner.html#a095db8160a11a792a3feade870a24fd7" target="_top" xlink:title="Method to remove sequences missaligned with the rest of sequences in the alignment. &#160;For each residue in the sequence, it tests it&#39;s similarity. If the similarity of that residue is higher than overlapColumn value, it counts as a hit for the sequence. After calculating the number of hits for the sequence, it removes the sequence if it has a proportion hits/residues lower tan minimumOverlap. ">
<polygon fill="white" stroke="black" points="570,-87.1412 570,-106.141 705,-106.141 705,-87.1412 570,-87.1412"/>
<text text-anchor="middle" x="637.5" y="-94.1412" font-family="Helvetica,sans-Serif" font-size="10.00">Cleaner::cleanSpuriousSeq</text>
</a>
</g>
</g>
<!-- Node22&#45;&gt;Node23 -->
<g id="edge28" class="edge"><title>Node22&#45;&gt;Node23</title>
<path fill="none" stroke="midnightblue" d="M516.742,-108.25C534.216,-106.557 552.662,-104.768 569.703,-103.116"/>
<polygon fill="midnightblue" stroke="midnightblue" points="516.199,-104.787 506.583,-109.235 516.874,-111.754 516.199,-104.787"/>
</g>
<!-- Node23&#45;&gt;Node19 -->
<g id="edge29" class="edge"><title>Node23&#45;&gt;Node19</title>
<path fill="none" stroke="midnightblue" d="M715.402,-100.179C788.662,-103.549 898.448,-108.6 972.422,-112.003"/>
<polygon fill="midnightblue" stroke="midnightblue" points="715.465,-96.6784 705.315,-99.715 715.143,-103.671 715.465,-96.6784"/>
</g>
<!-- Node25 -->
<g id="node25" class="node"><title>Node25</title>
<g id="a_node25"><a xlink:href="classtrim_al_manager.html#a3f325b806727751394adb829d97b35f1" target="_top" xlink:title="Method that checks dependencies between arguments. Take in mind that dependencies may be between mult...">
<polygon fill="white" stroke="black" points="581.5,-37.6412 581.5,-67.6412 693.5,-67.6412 693.5,-37.6412 581.5,-37.6412"/>
<text text-anchor="start" x="589.5" y="-55.6412" font-family="Helvetica,sans-Serif" font-size="10.00">trimAlManager::check</text>
<text text-anchor="middle" x="637.5" y="-44.6412" font-family="Helvetica,sans-Serif" font-size="10.00">_arguments_needs</text>
</a>
</g>
</g>
<!-- Node24&#45;&gt;Node25 -->
<g id="edge32" class="edge"><title>Node24&#45;&gt;Node25</title>
<path fill="none" stroke="midnightblue" d="M513.271,-53.27C535.84,-53.1548 560.325,-53.0299 581.478,-52.922"/>
<polygon fill="midnightblue" stroke="midnightblue" points="513.036,-49.771 503.055,-53.3221 513.072,-56.7709 513.036,-49.771"/>
</g>
<!-- Node26 -->
<g id="node26" class="node"><title>Node26</title>
<g id="a_node26"><a xlink:href="classtrim_al_manager.html#a748b08a1ec5cd214de804ed0d4234a6e" target="_top" xlink:title="Method to process the information obtained by trimAlManager::parseArguments It checks for argument in...">
<polygon fill="white" stroke="black" points="763,-43.1412 763,-62.1412 930,-62.1412 930,-43.1412 763,-43.1412"/>
<text text-anchor="middle" x="846.5" y="-50.1412" font-family="Helvetica,sans-Serif" font-size="10.00">trimAlManager::processArguments</text>
</a>
</g>
</g>
<!-- Node25&#45;&gt;Node26 -->
<g id="edge33" class="edge"><title>Node25&#45;&gt;Node26</title>
<path fill="none" stroke="midnightblue" d="M703.874,-52.6412C722.577,-52.6412 743.212,-52.6412 762.808,-52.6412"/>
<polygon fill="midnightblue" stroke="midnightblue" points="703.7,-49.1413 693.7,-52.6412 703.7,-56.1413 703.7,-49.1413"/>
</g>
<!-- Node27&#45;&gt;Node12 -->
<g id="edge35" class="edge"><title>Node27&#45;&gt;Node12</title>
<path fill="none" stroke="midnightblue" d="M1729.4,-29.9103C1784.97,-37.684 1860.27,-48.2197 1911.85,-55.4359"/>
<polygon fill="midnightblue" stroke="midnightblue" points="1729.65,-26.4118 1719.27,-28.4924 1728.68,-33.3442 1729.65,-26.4118"/>
</g>
</g>
</svg>
