<?xml version="1.0" encoding="UTF-8" standalone="no"?>
<!DOCTYPE svg PUBLIC "-//W3C//DTD SVG 1.1//EN"
 "http://www.w3.org/Graphics/SVG/1.1/DTD/svg11.dtd">
<!-- Generated by graphviz version 2.40.1 (20161225.0304)
 -->
<!-- Title: similarityMatrix::memoryAllocation Pages: 1 -->
<svg width="292pt" height="39pt"
 viewBox="0.00 0.00 292.00 39.00" xmlns="http://www.w3.org/2000/svg" xmlns:xlink="http://www.w3.org/1999/xlink">
<g id="graph0" class="graph" transform="scale(1 1) rotate(0) translate(4 35)">
<title>similarityMatrix::memoryAllocation</title>
<polygon fill="#ffffff" stroke="transparent" points="-4,4 -4,-35 288,-35 288,4 -4,4"/>
<!-- Node70 -->
<g id="node1" class="node">
<title>Node70</title>
<g id="a_node1"><a xlink:title="Method to allocate memory for the similiarity matrix.">
<polygon fill="#bfbfbf" stroke="#000000" points="0,-.5 0,-30.5 124,-30.5 124,-.5 0,-.5"/>
<text text-anchor="start" x="8" y="-18.5" font-family="Helvetica,sans-Serif" font-size="10.00" fill="#000000">similarityMatrix::memory</text>
<text text-anchor="middle" x="62" y="-7.5" font-family="Helvetica,sans-Serif" font-size="10.00" fill="#000000">Allocation</text>
</a>
</g>
</g>
<!-- Node71 -->
<g id="node2" class="node">
<title>Node71</title>
<g id="a_node2"><a xlink:href="classsimilarity_matrix.html#acc8f6dbae19b4332929ef6a240524975" target="_top" xlink:title="Method to deallocate memory allocated on the similarityMatrix::memoryAllocation method....">
<polygon fill="#ffffff" stroke="#000000" points="160,-.5 160,-30.5 284,-30.5 284,-.5 160,-.5"/>
<text text-anchor="start" x="168" y="-18.5" font-family="Helvetica,sans-Serif" font-size="10.00" fill="#000000">similarityMatrix::memory</text>
<text text-anchor="middle" x="222" y="-7.5" font-family="Helvetica,sans-Serif" font-size="10.00" fill="#000000">Deletion</text>
</a>
</g>
</g>
<!-- Node70&#45;&gt;Node71 -->
<g id="edge1" class="edge">
<title>Node70&#45;&gt;Node71</title>
<path fill="none" stroke="#191970" d="M124.3183,-15.5C132.615,-15.5 141.1788,-15.5 149.628,-15.5"/>
<polygon fill="#191970" stroke="#191970" points="149.8518,-19.0001 159.8518,-15.5 149.8517,-12.0001 149.8518,-19.0001"/>
</g>
</g>
</svg>
