<?xml version="1.0" encoding="UTF-8" standalone="no"?>
<!DOCTYPE svg PUBLIC "-//W3C//DTD SVG 1.1//EN"
 "http://www.w3.org/Graphics/SVG/1.1/DTD/svg11.dtd">
<!-- Generated by graphviz version 2.38.0 (20140413.2041)
 -->
<!-- Title: trimAlManager::check_backtranslation_infile_names_corresponde Pages: 1 -->
<svg width="491pt" height="154pt"
 viewBox="0.00 0.00 491.00 153.50" xmlns="http://www.w3.org/2000/svg" xmlns:xlink="http://www.w3.org/1999/xlink">
<g id="graph0" class="graph" transform="scale(1 1) rotate(0) translate(4 149.5)">
<title>trimAlManager::check_backtranslation_infile_names_corresponde</title>
<polygon fill="white" stroke="none" points="-4,4 -4,-149.5 487,-149.5 487,4 -4,4"/>
<!-- Node80 -->
<g id="node1" class="node"><title>Node80</title>
<polygon fill="#bfbfbf" stroke="black" points="0,-77 0,-118 113,-118 113,-77 0,-77"/>
<text text-anchor="start" x="8" y="-106" font-family="Helvetica,sans-Serif" font-size="10.00">trimAlManager::check</text>
<text text-anchor="start" x="8" y="-95" font-family="Helvetica,sans-Serif" font-size="10.00">_backtranslation_infile</text>
<text text-anchor="middle" x="56.5" y="-84" font-family="Helvetica,sans-Serif" font-size="10.00">_names_corresponde</text>
</g>
<!-- Node81 -->
<g id="node2" class="node"><title>Node81</title>
<g id="a_node2"><a xlink:href="classnew_alignment.html#acfd820148c267a3d698a39758ecf190d" target="_top" xlink:title="Number of sequences getter. ">
<polygon fill="white" stroke="black" points="163,-126 163,-145 317,-145 317,-126 163,-126"/>
<text text-anchor="middle" x="240" y="-133" font-family="Helvetica,sans-Serif" font-size="10.00">newAlignment::getNumSpecies</text>
</a>
</g>
</g>
<!-- Node80&#45;&gt;Node81 -->
<g id="edge1" class="edge"><title>Node80&#45;&gt;Node81</title>
<path fill="none" stroke="midnightblue" d="M113.437,-109.211C135.747,-113.882 161.366,-119.246 183.621,-123.905"/>
<polygon fill="midnightblue" stroke="midnightblue" points="183.08,-127.368 193.585,-125.992 184.514,-120.517 183.08,-127.368"/>
</g>
<!-- Node82 -->
<g id="node3" class="node"><title>Node82</title>
<g id="a_node3"><a xlink:href="classnew_alignment.html#a0db3e76f82a71c7a2fe5b9279f8fa310" target="_top" xlink:title="Getter for the sequences names. ">
<polygon fill="white" stroke="black" points="167,-88 167,-107 313,-107 313,-88 167,-88"/>
<text text-anchor="middle" x="240" y="-95" font-family="Helvetica,sans-Serif" font-size="10.00">newAlignment::getSequences</text>
</a>
</g>
</g>
<!-- Node80&#45;&gt;Node82 -->
<g id="edge2" class="edge"><title>Node80&#45;&gt;Node82</title>
<path fill="none" stroke="midnightblue" d="M113.437,-97.5C127.147,-97.5 142.106,-97.5 156.766,-97.5"/>
<polygon fill="midnightblue" stroke="midnightblue" points="156.849,-101 166.849,-97.5 156.849,-94.0001 156.849,-101"/>
</g>
<!-- Node83 -->
<g id="node4" class="node"><title>Node83</title>
<g id="a_node4"><a xlink:href="classnew_alignment.html#ae8501233fe4f4ef6bfe30c99c744c7c2" target="_top" xlink:title="Function to check CDS file. . ">
<polygon fill="white" stroke="black" points="149,-50 149,-69 331,-69 331,-50 149,-50"/>
<text text-anchor="middle" x="240" y="-57" font-family="Helvetica,sans-Serif" font-size="10.00">newAlignment::checkCorrespondence</text>
</a>
</g>
</g>
<!-- Node80&#45;&gt;Node83 -->
<g id="edge3" class="edge"><title>Node80&#45;&gt;Node83</title>
<path fill="none" stroke="midnightblue" d="M113.437,-85.7887C135.747,-81.1177 161.366,-75.7539 183.621,-71.0946"/>
<polygon fill="midnightblue" stroke="midnightblue" points="184.514,-74.4834 193.585,-69.0084 183.08,-67.632 184.514,-74.4834"/>
</g>
<!-- Node84 -->
<g id="node5" class="node"><title>Node84</title>
<g id="a_node5"><a xlink:href="classutils.html#a1dce160519187ef2c6e14beb93a2050d" target="_top" xlink:title="Removes a determined char from the string. ">
<polygon fill="white" stroke="black" points="367,-88 367,-107 483,-107 483,-88 367,-88"/>
<text text-anchor="middle" x="425" y="-95" font-family="Helvetica,sans-Serif" font-size="10.00">utils::removeCharacter</text>
</a>
</g>
</g>
<!-- Node83&#45;&gt;Node84 -->
<g id="edge4" class="edge"><title>Node83&#45;&gt;Node84</title>
<path fill="none" stroke="midnightblue" d="M287.179,-69.089C311.763,-74.1939 342.186,-80.5113 368.097,-85.8918"/>
<polygon fill="midnightblue" stroke="midnightblue" points="367.651,-89.3736 378.153,-87.9799 369.074,-82.5198 367.651,-89.3736"/>
</g>
<!-- Node85 -->
<g id="node6" class="node"><title>Node85</title>
<g id="a_node6"><a xlink:href="classutils.html#ab04f5770187b0a8c36c3c8ca55f1e67f" target="_top" xlink:title="Minimum of two numbers method. ">
<polygon fill="white" stroke="black" points="397,-50 397,-69 453,-69 453,-50 397,-50"/>
<text text-anchor="middle" x="425" y="-57" font-family="Helvetica,sans-Serif" font-size="10.00">utils::min</text>
</a>
</g>
</g>
<!-- Node83&#45;&gt;Node85 -->
<g id="edge5" class="edge"><title>Node83&#45;&gt;Node85</title>
<path fill="none" stroke="midnightblue" d="M331.16,-59.5C350.846,-59.5 370.615,-59.5 386.82,-59.5"/>
<polygon fill="midnightblue" stroke="midnightblue" points="386.919,-63.0001 396.918,-59.5 386.918,-56.0001 386.919,-63.0001"/>
</g>
<!-- Node86 -->
<g id="node7" class="node"><title>Node86</title>
<g id="a_node7"><a xlink:href="class____internal_report_1_1____report_system.html#acd358cbc59625c6e2f47e0b5f825400d" target="_top" xlink:title="Method to report an Error. &#160;It will be displayed if Level &#160;is equal or higher to VerboseLevel::ERROR...">
<polygon fill="white" stroke="black" points="367,-0.5 367,-30.5 483,-30.5 483,-0.5 367,-0.5"/>
<text text-anchor="start" x="375" y="-18.5" font-family="Helvetica,sans-Serif" font-size="10.00">__internalReport::</text>
<text text-anchor="middle" x="425" y="-7.5" font-family="Helvetica,sans-Serif" font-size="10.00">__reportSystem::report</text>
</a>
</g>
</g>
<!-- Node83&#45;&gt;Node86 -->
<g id="edge6" class="edge"><title>Node83&#45;&gt;Node86</title>
<path fill="none" stroke="midnightblue" d="M280.708,-49.9527C302.888,-44.6198 331.121,-37.8315 356.653,-31.6928"/>
<polygon fill="midnightblue" stroke="midnightblue" points="357.752,-35.0283 366.657,-29.2875 356.115,-28.2223 357.752,-35.0283"/>
</g>
</g>
</svg>
