<?xml version="1.0" encoding="UTF-8" standalone="no"?>
<!DOCTYPE svg PUBLIC "-//W3C//DTD SVG 1.1//EN"
 "http://www.w3.org/Graphics/SVG/1.1/DTD/svg11.dtd">
<!-- Generated by graphviz version 2.38.0 (20140413.2041)
 -->
<!-- Title: include/defines.h Pages: 1 -->
<svg width="1408pt" height="486pt"
 viewBox="0.00 0.00 1408.00 486.00" xmlns="http://www.w3.org/2000/svg" xmlns:xlink="http://www.w3.org/1999/xlink">
<g id="graph0" class="graph" transform="scale(1 1) rotate(0) translate(4 482)">
<title>include/defines.h</title>
<polygon fill="white" stroke="none" points="-4,4 -4,-482 1404,-482 1404,4 -4,4"/>
<!-- Node1 -->
<g id="node1" class="node"><title>Node1</title>
<polygon fill="#bfbfbf" stroke="black" points="929,-458.5 929,-477.5 1019,-477.5 1019,-458.5 929,-458.5"/>
<text text-anchor="middle" x="974" y="-465.5" font-family="Helvetica,sans-Serif" font-size="10.00">include/defines.h</text>
</g>
<!-- Node2 -->
<g id="node2" class="node"><title>Node2</title>
<g id="a_node2"><a xlink:href="similarity_matrix_8h_source.html" target="_top" xlink:title="include/similarityMatrix.h">
<polygon fill="white" stroke="black" points="845.5,-402.5 845.5,-421.5 970.5,-421.5 970.5,-402.5 845.5,-402.5"/>
<text text-anchor="middle" x="908" y="-409.5" font-family="Helvetica,sans-Serif" font-size="10.00">include/similarityMatrix.h</text>
</a>
</g>
</g>
<!-- Node1&#45;&gt;Node2 -->
<g id="edge1" class="edge"><title>Node1&#45;&gt;Node2</title>
<path fill="none" stroke="midnightblue" d="M955.446,-451.82C943.622,-442.145 928.714,-429.948 918.797,-421.834"/>
<polygon fill="midnightblue" stroke="midnightblue" points="953.44,-454.7 963.396,-458.324 957.873,-449.283 953.44,-454.7"/>
</g>
<!-- Node9 -->
<g id="node9" class="node"><title>Node9</title>
<g id="a_node9"><a xlink:href="_cleaner_8cpp_source.html" target="_top" xlink:title="source/Cleaner.cpp">
<polygon fill="white" stroke="black" points="863.5,-6 863.5,-25 964.5,-25 964.5,-6 863.5,-6"/>
<text text-anchor="middle" x="914" y="-13" font-family="Helvetica,sans-Serif" font-size="10.00">source/Cleaner.cpp</text>
</a>
</g>
</g>
<!-- Node1&#45;&gt;Node9 -->
<g id="edge39" class="edge"><title>Node1&#45;&gt;Node9</title>
<path fill="none" stroke="midnightblue" d="M1029.66,-467.17C1109.76,-464.161 1248,-445.369 1248,-351.5 1248,-351.5 1248,-351.5 1248,-215.5 1248,-85.2286 1058.16,-38.2755 964.727,-23.0553"/>
<polygon fill="midnightblue" stroke="midnightblue" points="1029.14,-463.685 1019.25,-467.486 1029.35,-470.681 1029.14,-463.685"/>
</g>
<!-- Node10 -->
<g id="node10" class="node"><title>Node10</title>
<g id="a_node10"><a xlink:href="new_alignment_8cpp_source.html" target="_top" xlink:title="source/newAlignment.cpp">
<polygon fill="white" stroke="black" points="1082.5,-6 1082.5,-25 1211.5,-25 1211.5,-6 1082.5,-6"/>
<text text-anchor="middle" x="1147" y="-13" font-family="Helvetica,sans-Serif" font-size="10.00">source/newAlignment.cpp</text>
</a>
</g>
</g>
<!-- Node1&#45;&gt;Node10 -->
<g id="edge40" class="edge"><title>Node1&#45;&gt;Node10</title>
<path fill="none" stroke="midnightblue" d="M1029.49,-462.455C1095.93,-456.165 1202.45,-443.127 1236,-422 1268.51,-401.53 1286,-389.914 1286,-351.5 1286,-351.5 1286,-351.5 1286,-148.5 1286,-84.437 1207.4,-42.0815 1168.41,-25.0109"/>
<polygon fill="midnightblue" stroke="midnightblue" points="1028.82,-459.002 1019.19,-463.407 1029.47,-465.972 1028.82,-459.002"/>
</g>
<!-- Node12 -->
<g id="node12" class="node"><title>Node12</title>
<g id="a_node12"><a xlink:href="trim_al_manager_8cpp_source.html" target="_top" xlink:title="source/trimAlManager.cpp">
<polygon fill="white" stroke="black" points="563.5,-6 563.5,-25 694.5,-25 694.5,-6 563.5,-6"/>
<text text-anchor="middle" x="629" y="-13" font-family="Helvetica,sans-Serif" font-size="10.00">source/trimAlManager.cpp</text>
</a>
</g>
</g>
<!-- Node1&#45;&gt;Node12 -->
<g id="edge44" class="edge"><title>Node1&#45;&gt;Node12</title>
<path fill="none" stroke="midnightblue" d="M918.585,-467.163C755.716,-467.151 280.672,-463.462 132,-422 67.9349,-404.133 0,-418.01 0,-351.5 0,-351.5 0,-351.5 0,-148.5 0,-34.2699 402.363,-18.3246 563.466,-16.5184"/>
<polygon fill="midnightblue" stroke="midnightblue" points="918.856,-470.663 928.855,-467.159 918.853,-463.663 918.856,-470.663"/>
</g>
<!-- Node15 -->
<g id="node15" class="node"><title>Node15</title>
<g id="a_node15"><a xlink:href="_read_write_m_smain_8cpp_source.html" target="_top" xlink:title="source/ReadWriteMS\l/ReadWriteMSmain.cpp">
<polygon fill="white" stroke="black" points="334.5,-134.5 334.5,-164.5 455.5,-164.5 455.5,-134.5 334.5,-134.5"/>
<text text-anchor="start" x="342.5" y="-152.5" font-family="Helvetica,sans-Serif" font-size="10.00">source/ReadWriteMS</text>
<text text-anchor="middle" x="395" y="-141.5" font-family="Helvetica,sans-Serif" font-size="10.00">/ReadWriteMSmain.cpp</text>
</a>
</g>
</g>
<!-- Node1&#45;&gt;Node15 -->
<g id="edge41" class="edge"><title>Node1&#45;&gt;Node15</title>
<path fill="none" stroke="midnightblue" d="M918.822,-466.031C718.032,-461.787 38,-440.819 38,-351.5 38,-351.5 38,-351.5 38,-282.5 38,-245.306 29.4747,-226.014 57,-201 101.47,-160.586 265.765,-175.101 325,-165 328.059,-164.478 331.187,-163.921 334.343,-163.338"/>
<polygon fill="midnightblue" stroke="midnightblue" points="918.785,-469.531 928.855,-466.238 918.929,-462.533 918.785,-469.531"/>
</g>
<!-- Node18 -->
<g id="node18" class="node"><title>Node18</title>
<g id="a_node18"><a xlink:href="statistics_conservation_8cpp_source.html" target="_top" xlink:title="source/Statistics/statistics\lConservation.cpp">
<polygon fill="white" stroke="black" points="972.5,-201.5 972.5,-231.5 1105.5,-231.5 1105.5,-201.5 972.5,-201.5"/>
<text text-anchor="start" x="980.5" y="-219.5" font-family="Helvetica,sans-Serif" font-size="10.00">source/Statistics/statistics</text>
<text text-anchor="middle" x="1039" y="-208.5" font-family="Helvetica,sans-Serif" font-size="10.00">Conservation.cpp</text>
</a>
</g>
</g>
<!-- Node1&#45;&gt;Node18 -->
<g id="edge43" class="edge"><title>Node1&#45;&gt;Node18</title>
<path fill="none" stroke="midnightblue" d="M978.811,-448.534C991.253,-400.776 1024.29,-273.958 1035.34,-231.542"/>
<polygon fill="midnightblue" stroke="midnightblue" points="975.372,-447.852 976.237,-458.412 982.146,-449.617 975.372,-447.852"/>
</g>
<!-- Node22 -->
<g id="node22" class="node"><title>Node22</title>
<g id="a_node22"><a xlink:href="similarity_matrix_8cpp_source.html" target="_top" xlink:title="source/similarityMatrix.cpp">
<polygon fill="white" stroke="black" points="664,-341 664,-360 798,-360 798,-341 664,-341"/>
<text text-anchor="middle" x="731" y="-348" font-family="Helvetica,sans-Serif" font-size="10.00">source/similarityMatrix.cpp</text>
</a>
</g>
</g>
<!-- Node1&#45;&gt;Node22 -->
<g id="edge42" class="edge"><title>Node1&#45;&gt;Node22</title>
<path fill="none" stroke="midnightblue" d="M929.165,-455.774C901.559,-448.042 865.863,-436.545 836,-422 799.086,-404.02 760.075,-374.69 741.727,-360.185"/>
<polygon fill="midnightblue" stroke="midnightblue" points="928.374,-459.186 938.943,-458.451 930.222,-452.434 928.374,-459.186"/>
</g>
<!-- Node23 -->
<g id="node23" class="node"><title>Node23</title>
<g id="a_node23"><a xlink:href="utils_8cpp_source.html" target="_top" xlink:title="source/utils.cpp">
<polygon fill="white" stroke="black" points="1314,-402.5 1314,-421.5 1400,-421.5 1400,-402.5 1314,-402.5"/>
<text text-anchor="middle" x="1357" y="-409.5" font-family="Helvetica,sans-Serif" font-size="10.00">source/utils.cpp</text>
</a>
</g>
</g>
<!-- Node1&#45;&gt;Node23 -->
<g id="edge45" class="edge"><title>Node1&#45;&gt;Node23</title>
<path fill="none" stroke="midnightblue" d="M1029.13,-459.722C1094,-451.082 1204.91,-436.069 1300,-422 1304.46,-421.34 1309.11,-420.634 1313.75,-419.919"/>
<polygon fill="midnightblue" stroke="midnightblue" points="1028.58,-456.265 1019.13,-461.053 1029.5,-463.204 1028.58,-456.265"/>
</g>
<!-- Node3 -->
<g id="node3" class="node"><title>Node3</title>
<g id="a_node3"><a xlink:href="new_alignment_8h_source.html" target="_top" xlink:title="include/newAlignment.h">
<polygon fill="white" stroke="black" points="684,-274 684,-293 804,-293 804,-274 684,-274"/>
<text text-anchor="middle" x="744" y="-281" font-family="Helvetica,sans-Serif" font-size="10.00">include/newAlignment.h</text>
</a>
</g>
</g>
<!-- Node2&#45;&gt;Node3 -->
<g id="edge2" class="edge"><title>Node2&#45;&gt;Node3</title>
<path fill="none" stroke="midnightblue" d="M886.971,-396.484C874.607,-387.825 858.753,-376.504 845,-366 827.679,-352.77 823.948,-348.705 807,-335 788.688,-320.192 767.279,-303.071 754.724,-293.05"/>
<polygon fill="midnightblue" stroke="midnightblue" points="885.07,-399.425 895.277,-402.269 889.071,-393.681 885.07,-399.425"/>
</g>
<!-- Node20 -->
<g id="node20" class="node"><title>Node20</title>
<g id="a_node20"><a xlink:href="_statistics_manager_8h_source.html" target="_top" xlink:title="include/Statistics\l/StatisticsManager.h">
<polygon fill="white" stroke="black" points="854.5,-335.5 854.5,-365.5 961.5,-365.5 961.5,-335.5 854.5,-335.5"/>
<text text-anchor="start" x="862.5" y="-353.5" font-family="Helvetica,sans-Serif" font-size="10.00">include/Statistics</text>
<text text-anchor="middle" x="908" y="-342.5" font-family="Helvetica,sans-Serif" font-size="10.00">/StatisticsManager.h</text>
</a>
</g>
</g>
<!-- Node2&#45;&gt;Node20 -->
<g id="edge30" class="edge"><title>Node2&#45;&gt;Node20</title>
<path fill="none" stroke="midnightblue" d="M908,-392.235C908,-383.586 908,-373.497 908,-365.523"/>
<polygon fill="midnightblue" stroke="midnightblue" points="904.5,-392.475 908,-402.475 911.5,-392.475 904.5,-392.475"/>
</g>
<!-- Node21 -->
<g id="node21" class="node"><title>Node21</title>
<g id="a_node21"><a xlink:href="statistics_conservation_8h_source.html" target="_top" xlink:title="include/Statistics\l/statisticsConservation.h">
<polygon fill="white" stroke="black" points="1071.5,-268.5 1071.5,-298.5 1196.5,-298.5 1196.5,-268.5 1071.5,-268.5"/>
<text text-anchor="start" x="1079.5" y="-286.5" font-family="Helvetica,sans-Serif" font-size="10.00">include/Statistics</text>
<text text-anchor="middle" x="1134" y="-275.5" font-family="Helvetica,sans-Serif" font-size="10.00">/statisticsConservation.h</text>
</a>
</g>
</g>
<!-- Node2&#45;&gt;Node21 -->
<g id="edge33" class="edge"><title>Node2&#45;&gt;Node21</title>
<path fill="none" stroke="midnightblue" d="M932.502,-397.285C975.683,-373.116 1064.9,-323.18 1108.66,-298.682"/>
<polygon fill="midnightblue" stroke="midnightblue" points="930.55,-394.367 923.534,-402.305 933.969,-400.475 930.55,-394.367"/>
</g>
<!-- Node2&#45;&gt;Node22 -->
<g id="edge38" class="edge"><title>Node2&#45;&gt;Node22</title>
<path fill="none" stroke="midnightblue" d="M872.993,-399.232C838.586,-387.666 786.916,-370.297 756.313,-360.009"/>
<polygon fill="midnightblue" stroke="midnightblue" points="872.046,-402.606 882.64,-402.475 874.277,-395.971 872.046,-402.606"/>
</g>
<!-- Node4 -->
<g id="node4" class="node"><title>Node4</title>
<g id="a_node4"><a xlink:href="_read_write_base_state_8h_source.html" target="_top" xlink:title="include/ReadWriteMS\l/ReadWriteBaseState.h">
<polygon fill="white" stroke="black" points="66,-201.5 66,-231.5 186,-231.5 186,-201.5 66,-201.5"/>
<text text-anchor="start" x="74" y="-219.5" font-family="Helvetica,sans-Serif" font-size="10.00">include/ReadWriteMS</text>
<text text-anchor="middle" x="126" y="-208.5" font-family="Helvetica,sans-Serif" font-size="10.00">/ReadWriteBaseState.h</text>
</a>
</g>
</g>
<!-- Node3&#45;&gt;Node4 -->
<g id="edge3" class="edge"><title>Node3&#45;&gt;Node4</title>
<path fill="none" stroke="midnightblue" d="M673.472,-278.624C568.673,-272.275 365.83,-257.719 195,-232 192.095,-231.563 189.128,-231.08 186.137,-230.564"/>
<polygon fill="midnightblue" stroke="midnightblue" points="673.419,-282.127 683.611,-279.231 673.838,-275.139 673.419,-282.127"/>
</g>
<!-- Node5 -->
<g id="node5" class="node"><title>Node5</title>
<g id="a_node5"><a xlink:href="_read_write_machine_state_8cpp_source.html" target="_top" xlink:title="source/ReadWriteMS\l/ReadWriteMachineState.cpp">
<polygon fill="white" stroke="black" points="46.5,-134.5 46.5,-164.5 191.5,-164.5 191.5,-134.5 46.5,-134.5"/>
<text text-anchor="start" x="54.5" y="-152.5" font-family="Helvetica,sans-Serif" font-size="10.00">source/ReadWriteMS</text>
<text text-anchor="middle" x="119" y="-141.5" font-family="Helvetica,sans-Serif" font-size="10.00">/ReadWriteMachineState.cpp</text>
</a>
</g>
</g>
<!-- Node3&#45;&gt;Node5 -->
<g id="edge25" class="edge"><title>Node3&#45;&gt;Node5</title>
<path fill="none" stroke="midnightblue" d="M673.721,-273.909C632.882,-266.816 581.466,-254.17 540,-232 521.966,-222.358 524.603,-209.491 506,-201 381.425,-144.14 335.459,-185.074 200,-165 197.315,-164.602 194.582,-164.183 191.824,-163.749"/>
<polygon fill="midnightblue" stroke="midnightblue" points="673.157,-277.364 683.596,-275.553 674.306,-270.459 673.157,-277.364"/>
</g>
<!-- Node6 -->
<g id="node6" class="node"><title>Node6</title>
<g id="a_node6"><a xlink:href="_read_write_machine_state_8h_source.html" target="_top" xlink:title="include/ReadWriteMS\l/ReadWriteMachineState.h">
<polygon fill="white" stroke="black" points="630,-201.5 630,-231.5 764,-231.5 764,-201.5 630,-201.5"/>
<text text-anchor="start" x="638" y="-219.5" font-family="Helvetica,sans-Serif" font-size="10.00">include/ReadWriteMS</text>
<text text-anchor="middle" x="697" y="-208.5" font-family="Helvetica,sans-Serif" font-size="10.00">/ReadWriteMachineState.h</text>
</a>
</g>
</g>
<!-- Node3&#45;&gt;Node6 -->
<g id="edge5" class="edge"><title>Node3&#45;&gt;Node6</title>
<path fill="none" stroke="midnightblue" d="M731.603,-265.355C723.988,-254.824 714.355,-241.502 707.187,-231.589"/>
<polygon fill="midnightblue" stroke="midnightblue" points="728.966,-267.681 737.661,-273.734 734.638,-263.579 728.966,-267.681"/>
</g>
<!-- Node8 -->
<g id="node8" class="node"><title>Node8</title>
<g id="a_node8"><a xlink:href="statistics_consistency_8h_source.html" target="_top" xlink:title="include/Statistics\l/statisticsConsistency.h">
<polygon fill="white" stroke="black" points="718,-67.5 718,-97.5 840,-97.5 840,-67.5 718,-67.5"/>
<text text-anchor="start" x="726" y="-85.5" font-family="Helvetica,sans-Serif" font-size="10.00">include/Statistics</text>
<text text-anchor="middle" x="779" y="-74.5" font-family="Helvetica,sans-Serif" font-size="10.00">/statisticsConsistency.h</text>
</a>
</g>
</g>
<!-- Node3&#45;&gt;Node8 -->
<g id="edge18" class="edge"><title>Node3&#45;&gt;Node8</title>
<path fill="none" stroke="midnightblue" d="M763.306,-267.492C773.333,-258.436 784.594,-245.962 790,-232 808.015,-185.472 792.614,-124.696 783.944,-97.6004"/>
<polygon fill="midnightblue" stroke="midnightblue" points="761.018,-264.844 755.664,-273.987 765.551,-270.177 761.018,-264.844"/>
</g>
<!-- Node3&#45;&gt;Node9 -->
<g id="edge23" class="edge"><title>Node3&#45;&gt;Node9</title>
<path fill="none" stroke="midnightblue" d="M766.843,-268.24C780.108,-259.107 796.431,-246.308 808,-232 822.648,-213.884 892.514,-63.1439 910.017,-25.1619"/>
<polygon fill="midnightblue" stroke="midnightblue" points="764.637,-265.503 758.243,-273.95 768.51,-271.334 764.637,-265.503"/>
</g>
<!-- Node3&#45;&gt;Node10 -->
<g id="edge24" class="edge"><title>Node3&#45;&gt;Node10</title>
<path fill="none" stroke="midnightblue" d="M768.635,-268.832C786.212,-258.927 810.304,-245.039 831,-232 952.354,-155.541 1093.89,-54.689 1135.15,-25.0395"/>
<polygon fill="midnightblue" stroke="midnightblue" points="766.615,-265.952 759.603,-273.894 770.038,-272.058 766.615,-265.952"/>
</g>
<!-- Node13 -->
<g id="node13" class="node"><title>Node13</title>
<g id="a_node13"><a xlink:href="trim_al_manager_8h_source.html" target="_top" xlink:title="include/trimAlManager.h">
<polygon fill="white" stroke="black" points="604,-140 604,-159 726,-159 726,-140 604,-140"/>
<text text-anchor="middle" x="665" y="-147" font-family="Helvetica,sans-Serif" font-size="10.00">include/trimAlManager.h</text>
</a>
</g>
</g>
<!-- Node3&#45;&gt;Node13 -->
<g id="edge19" class="edge"><title>Node3&#45;&gt;Node13</title>
<path fill="none" stroke="midnightblue" d="M758.19,-265.842C771.017,-248.643 786.045,-221.501 773,-201 758.832,-178.735 731.987,-166.121 708.607,-159.068"/>
<polygon fill="midnightblue" stroke="midnightblue" points="755.316,-263.833 751.843,-273.842 760.8,-268.183 755.316,-263.833"/>
</g>
<!-- Node3&#45;&gt;Node15 -->
<g id="edge26" class="edge"><title>Node3&#45;&gt;Node15</title>
<path fill="none" stroke="midnightblue" d="M708.722,-270.53C683.567,-261.398 649.324,-247.736 621,-232 600.405,-220.558 599.246,-211.183 578,-201 556.229,-190.566 499.446,-175.535 454.852,-164.587"/>
<polygon fill="midnightblue" stroke="midnightblue" points="707.629,-273.856 718.224,-273.921 709.982,-267.263 707.629,-273.856"/>
</g>
<!-- Node16 -->
<g id="node16" class="node"><title>Node16</title>
<g id="a_node16"><a xlink:href="vcf__statish_8h_source.html" target="_top" xlink:title="include/vcf_statish.h">
<polygon fill="white" stroke="black" points="209.5,-140 209.5,-159 316.5,-159 316.5,-140 209.5,-140"/>
<text text-anchor="middle" x="263" y="-147" font-family="Helvetica,sans-Serif" font-size="10.00">include/vcf_statish.h</text>
</a>
</g>
</g>
<!-- Node3&#45;&gt;Node16 -->
<g id="edge20" class="edge"><title>Node3&#45;&gt;Node16</title>
<path fill="none" stroke="midnightblue" d="M689.479,-271.574C656.034,-263.521 613.05,-250.687 578,-232 558.767,-221.746 559.856,-209.989 540,-201 451.737,-161.043 419.996,-184.041 325,-165 316.112,-163.219 306.557,-161.091 297.674,-159.021"/>
<polygon fill="midnightblue" stroke="midnightblue" points="688.999,-275.056 699.533,-273.921 690.591,-268.24 688.999,-275.056"/>
</g>
<!-- Node17 -->
<g id="node17" class="node"><title>Node17</title>
<g id="a_node17"><a xlink:href="sequences_matrix_8cpp_source.html" target="_top" xlink:title="source/sequencesMatrix.cpp">
<polygon fill="white" stroke="black" points="204,-207 204,-226 346,-226 346,-207 204,-207"/>
<text text-anchor="middle" x="275" y="-214" font-family="Helvetica,sans-Serif" font-size="10.00">source/sequencesMatrix.cpp</text>
</a>
</g>
</g>
<!-- Node3&#45;&gt;Node17 -->
<g id="edge27" class="edge"><title>Node3&#45;&gt;Node17</title>
<path fill="none" stroke="midnightblue" d="M673.7,-274.45C595.675,-265.266 466.093,-249.268 355,-232 343.563,-230.222 331.245,-228.096 319.783,-226.026"/>
<polygon fill="midnightblue" stroke="midnightblue" points="673.552,-277.957 683.891,-275.646 674.367,-271.004 673.552,-277.957"/>
</g>
<!-- Node3&#45;&gt;Node18 -->
<g id="edge28" class="edge"><title>Node3&#45;&gt;Node18</title>
<path fill="none" stroke="midnightblue" d="M792.768,-271.754C842.664,-260.76 920.431,-243.625 975.193,-231.559"/>
<polygon fill="midnightblue" stroke="midnightblue" points="791.882,-268.366 782.869,-273.936 793.388,-275.202 791.882,-268.366"/>
</g>
<!-- Node19 -->
<g id="node19" class="node"><title>Node19</title>
<g id="a_node19"><a xlink:href="statistics_mold_8cpp_source.html" target="_top" xlink:title="source/Statistics/statistics\lMold.cpp">
<polygon fill="white" stroke="black" points="364.5,-201.5 364.5,-231.5 497.5,-231.5 497.5,-201.5 364.5,-201.5"/>
<text text-anchor="start" x="372.5" y="-219.5" font-family="Helvetica,sans-Serif" font-size="10.00">source/Statistics/statistics</text>
<text text-anchor="middle" x="431" y="-208.5" font-family="Helvetica,sans-Serif" font-size="10.00">Mold.cpp</text>
</a>
</g>
</g>
<!-- Node3&#45;&gt;Node19 -->
<g id="edge29" class="edge"><title>Node3&#45;&gt;Node19</title>
<path fill="none" stroke="midnightblue" d="M692.852,-271.878C639.576,-260.815 555.893,-243.436 497.513,-231.313"/>
<polygon fill="midnightblue" stroke="midnightblue" points="692.256,-275.329 702.759,-273.936 693.679,-268.475 692.256,-275.329"/>
</g>
<!-- Node4&#45;&gt;Node5 -->
<g id="edge4" class="edge"><title>Node4&#45;&gt;Node5</title>
<path fill="none" stroke="midnightblue" d="M123.405,-191.403C122.432,-182.37 121.359,-172.408 120.516,-164.577"/>
<polygon fill="midnightblue" stroke="midnightblue" points="119.93,-191.828 124.481,-201.396 126.89,-191.079 119.93,-191.828"/>
</g>
<!-- Node6&#45;&gt;Node5 -->
<g id="edge16" class="edge"><title>Node6&#45;&gt;Node5</title>
<path fill="none" stroke="midnightblue" d="M619.713,-208.37C500.934,-197.29 278.972,-176.064 200,-165 197.312,-164.623 194.577,-164.223 191.816,-163.804"/>
<polygon fill="midnightblue" stroke="midnightblue" points="619.548,-211.87 629.829,-209.313 620.197,-204.9 619.548,-211.87"/>
</g>
<!-- Node7 -->
<g id="node7" class="node"><title>Node7</title>
<g id="a_node7"><a xlink:href="formats__header_8h_source.html" target="_top" xlink:title="include/ReadWriteMS\l/formats_header.h">
<polygon fill="white" stroke="black" points="474,-134.5 474,-164.5 586,-164.5 586,-134.5 474,-134.5"/>
<text text-anchor="start" x="482" y="-152.5" font-family="Helvetica,sans-Serif" font-size="10.00">include/ReadWriteMS</text>
<text text-anchor="middle" x="530" y="-141.5" font-family="Helvetica,sans-Serif" font-size="10.00">/formats_header.h</text>
</a>
</g>
</g>
<!-- Node6&#45;&gt;Node7 -->
<g id="edge6" class="edge"><title>Node6&#45;&gt;Node7</title>
<path fill="none" stroke="midnightblue" d="M651.22,-197.682C624.437,-187.257 591.098,-174.281 566.166,-164.577"/>
<polygon fill="midnightblue" stroke="midnightblue" points="650.175,-201.03 660.763,-201.396 652.714,-194.507 650.175,-201.03"/>
</g>
<!-- Node6&#45;&gt;Node8 -->
<g id="edge7" class="edge"><title>Node6&#45;&gt;Node8</title>
<path fill="none" stroke="midnightblue" d="M714.864,-193.267C721.487,-184.645 728.871,-174.56 735,-165 749.579,-142.258 763.972,-114.266 772.145,-97.7083"/>
<polygon fill="midnightblue" stroke="midnightblue" points="711.965,-191.292 708.569,-201.328 717.483,-195.6 711.965,-191.292"/>
</g>
<!-- Node6&#45;&gt;Node13 -->
<g id="edge12" class="edge"><title>Node6&#45;&gt;Node13</title>
<path fill="none" stroke="midnightblue" d="M685.572,-192.287C679.918,-180.803 673.433,-167.63 669.28,-159.195"/>
<polygon fill="midnightblue" stroke="midnightblue" points="682.499,-193.97 690.056,-201.396 688.78,-190.878 682.499,-193.97"/>
</g>
<!-- Node6&#45;&gt;Node15 -->
<g id="edge17" class="edge"><title>Node6&#45;&gt;Node15</title>
<path fill="none" stroke="midnightblue" d="M621.809,-199.317C570.543,-188.283 503.535,-173.86 455.672,-163.559"/>
<polygon fill="midnightblue" stroke="midnightblue" points="621.33,-202.793 631.842,-201.476 622.803,-195.95 621.33,-202.793"/>
</g>
<!-- Node8&#45;&gt;Node9 -->
<g id="edge8" class="edge"><title>Node8&#45;&gt;Node9</title>
<path fill="none" stroke="midnightblue" d="M817.491,-62.9674C843.424,-50.481 876.412,-34.5978 896.332,-25.007"/>
<polygon fill="midnightblue" stroke="midnightblue" points="815.785,-59.9042 808.293,-67.396 818.821,-66.2113 815.785,-59.9042"/>
</g>
<!-- Node8&#45;&gt;Node10 -->
<g id="edge9" class="edge"><title>Node8&#45;&gt;Node10</title>
<path fill="none" stroke="midnightblue" d="M850.234,-68.918C923.36,-56.0017 1035.16,-36.2537 1098.61,-25.0471"/>
<polygon fill="midnightblue" stroke="midnightblue" points="849.42,-65.5075 840.181,-70.6936 850.637,-72.4008 849.42,-65.5075"/>
</g>
<!-- Node11 -->
<g id="node11" class="node"><title>Node11</title>
<g id="a_node11"><a xlink:href="statistics_consistency_8cpp_source.html" target="_top" xlink:title="source/Statistics/statistics\lConsistency.cpp">
<polygon fill="white" stroke="black" points="712.5,-0.5 712.5,-30.5 845.5,-30.5 845.5,-0.5 712.5,-0.5"/>
<text text-anchor="start" x="720.5" y="-18.5" font-family="Helvetica,sans-Serif" font-size="10.00">source/Statistics/statistics</text>
<text text-anchor="middle" x="779" y="-7.5" font-family="Helvetica,sans-Serif" font-size="10.00">Consistency.cpp</text>
</a>
</g>
</g>
<!-- Node8&#45;&gt;Node11 -->
<g id="edge10" class="edge"><title>Node8&#45;&gt;Node11</title>
<path fill="none" stroke="midnightblue" d="M779,-57.1081C779,-48.1539 779,-38.3227 779,-30.5765"/>
<polygon fill="midnightblue" stroke="midnightblue" points="775.5,-57.3959 779,-67.396 782.5,-57.396 775.5,-57.3959"/>
</g>
<!-- Node8&#45;&gt;Node12 -->
<g id="edge11" class="edge"><title>Node8&#45;&gt;Node12</title>
<path fill="none" stroke="midnightblue" d="M736.989,-63.2952C708.062,-50.7602 670.958,-34.682 648.632,-25.007"/>
<polygon fill="midnightblue" stroke="midnightblue" points="735.885,-66.6313 746.452,-67.396 738.668,-60.2084 735.885,-66.6313"/>
</g>
<!-- Node13&#45;&gt;Node8 -->
<g id="edge13" class="edge"><title>Node13&#45;&gt;Node8</title>
<path fill="none" stroke="midnightblue" d="M689.11,-134.753C708.273,-123.827 734.973,-108.603 754.29,-97.589"/>
<polygon fill="midnightblue" stroke="midnightblue" points="687.328,-131.74 680.375,-139.734 690.795,-137.821 687.328,-131.74"/>
</g>
<!-- Node13&#45;&gt;Node12 -->
<g id="edge15" class="edge"><title>Node13&#45;&gt;Node12</title>
<path fill="none" stroke="midnightblue" d="M659.998,-130.159C652.108,-101.231 637.081,-46.1311 631.324,-25.0212"/>
<polygon fill="midnightblue" stroke="midnightblue" points="656.63,-131.112 662.638,-139.839 663.383,-129.271 656.63,-131.112"/>
</g>
<!-- Node14 -->
<g id="node14" class="node"><title>Node14</title>
<g id="a_node14"><a xlink:href="newmain_8cpp_source.html" target="_top" xlink:title="source/newmain.cpp">
<polygon fill="white" stroke="black" points="449.5,-73 449.5,-92 556.5,-92 556.5,-73 449.5,-73"/>
<text text-anchor="middle" x="503" y="-80" font-family="Helvetica,sans-Serif" font-size="10.00">source/newmain.cpp</text>
</a>
</g>
</g>
<!-- Node13&#45;&gt;Node14 -->
<g id="edge14" class="edge"><title>Node13&#45;&gt;Node14</title>
<path fill="none" stroke="midnightblue" d="M634.106,-136.104C601.941,-123.198 552.415,-103.327 524.343,-92.0637"/>
<polygon fill="midnightblue" stroke="midnightblue" points="632.903,-139.393 643.488,-139.869 635.51,-132.896 632.903,-139.393"/>
</g>
<!-- Node16&#45;&gt;Node12 -->
<g id="edge22" class="edge"><title>Node16&#45;&gt;Node12</title>
<path fill="none" stroke="midnightblue" d="M288.366,-135.146C322.225,-117.714 384.391,-87.0662 440,-67 490.477,-48.7857 550.64,-33.8182 589.306,-25.0279"/>
<polygon fill="midnightblue" stroke="midnightblue" points="286.466,-132.189 279.2,-139.899 289.689,-138.403 286.466,-132.189"/>
</g>
<!-- Node16&#45;&gt;Node14 -->
<g id="edge21" class="edge"><title>Node16&#45;&gt;Node14</title>
<path fill="none" stroke="midnightblue" d="M304.528,-137.253C351.965,-124.405 428.537,-103.667 471.38,-92.0637"/>
<polygon fill="midnightblue" stroke="midnightblue" points="303.607,-133.876 294.87,-139.869 305.437,-140.633 303.607,-133.876"/>
</g>
<!-- Node20&#45;&gt;Node3 -->
<g id="edge31" class="edge"><title>Node20&#45;&gt;Node3</title>
<path fill="none" stroke="midnightblue" d="M862.891,-331.621C831.148,-319.04 790.087,-302.766 765.464,-293.007"/>
<polygon fill="midnightblue" stroke="midnightblue" points="861.828,-334.965 872.414,-335.396 864.408,-328.458 861.828,-334.965"/>
</g>
<!-- Node20&#45;&gt;Node9 -->
<g id="edge32" class="edge"><title>Node20&#45;&gt;Node9</title>
<path fill="none" stroke="midnightblue" d="M907.407,-324.991C906.817,-298.49 906,-255.002 906,-217.5 906,-217.5 906,-217.5 906,-148.5 906,-101.894 911.03,-46.2006 913.113,-25.1378"/>
<polygon fill="midnightblue" stroke="midnightblue" points="903.913,-325.325 907.642,-335.242 910.912,-325.164 903.913,-325.325"/>
</g>
<!-- Node21&#45;&gt;Node9 -->
<g id="edge34" class="edge"><title>Node21&#45;&gt;Node9</title>
<path fill="none" stroke="midnightblue" d="M1145.43,-258.586C1151.76,-241.748 1156.77,-219.078 1148,-201 1102.4,-106.972 983.069,-46.4588 934.756,-25.1133"/>
<polygon fill="midnightblue" stroke="midnightblue" points="1142.03,-257.646 1141.42,-268.223 1148.49,-260.334 1142.03,-257.646"/>
</g>
<!-- Node21&#45;&gt;Node10 -->
<g id="edge35" class="edge"><title>Node21&#45;&gt;Node10</title>
<path fill="none" stroke="midnightblue" d="M1163.21,-261.764C1172.27,-253.627 1181.15,-243.475 1186,-232 1214.56,-164.456 1209.68,-136.405 1186,-67 1180.21,-50.0158 1166.13,-34.3044 1156.57,-25.0563"/>
<polygon fill="midnightblue" stroke="midnightblue" points="1160.72,-259.279 1155.3,-268.377 1165.21,-264.651 1160.72,-259.279"/>
</g>
<!-- Node21&#45;&gt;Node12 -->
<g id="edge37" class="edge"><title>Node21&#45;&gt;Node12</title>
<path fill="none" stroke="midnightblue" d="M1134.37,-258.196C1133.3,-240.079 1128.85,-215.977 1114,-201 983.222,-69.1188 870.008,-190.586 709,-98 675.656,-78.8258 646.907,-41.9087 634.937,-25.1516"/>
<polygon fill="midnightblue" stroke="midnightblue" points="1130.87,-258.415 1134.65,-268.312 1137.87,-258.216 1130.87,-258.415"/>
</g>
<!-- Node21&#45;&gt;Node18 -->
<g id="edge36" class="edge"><title>Node21&#45;&gt;Node18</title>
<path fill="none" stroke="midnightblue" d="M1105.11,-262.734C1090.41,-252.676 1072.89,-240.685 1059.57,-231.577"/>
<polygon fill="midnightblue" stroke="midnightblue" points="1103.16,-265.638 1113.39,-268.396 1107.11,-259.861 1103.16,-265.638"/>
</g>
</g>
</svg>
