<?xml version="1.0" encoding="UTF-8" standalone="no"?>
<!DOCTYPE svg PUBLIC "-//W3C//DTD SVG 1.1//EN"
 "http://www.w3.org/Graphics/SVG/1.1/DTD/svg11.dtd">
<!-- Generated by graphviz version 2.40.1 (20161225.0304)
 -->
<!-- Title: /home/vfernandez/git/trimAl/include/Statistics Pages: 1 -->
<svg width="98pt" height="151pt"
 viewBox="0.00 0.00 98.00 151.00" xmlns="http://www.w3.org/2000/svg" xmlns:xlink="http://www.w3.org/1999/xlink">
<g id="graph0" class="graph" transform="scale(1 1) rotate(0) translate(4 147)">
<title>/home/vfernandez/git/trimAl/include/Statistics</title>
<polygon fill="#ffffff" stroke="transparent" points="-4,4 -4,-147 94,-147 94,4 -4,4"/>
<g id="clust1" class="cluster">
<title>clusterdir_d44c64559bbebec7f509842c48db8b23</title>
<g id="a_clust1"><a xlink:href="dir_d44c64559bbebec7f509842c48db8b23.html" target="_top" xlink:title="include">
<polygon fill="#ddddee" stroke="#000000" points="8,-64 8,-135 82,-135 82,-64 8,-64"/>
<text text-anchor="middle" x="45" y="-123" font-family="Helvetica,sans-Serif" font-size="10.00" fill="#000000">include</text>
</a>
</g>
</g>
<!-- dir_7eb6afaf13535113aed9296c47342e8d -->
<g id="node1" class="node">
<title>dir_7eb6afaf13535113aed9296c47342e8d</title>
<g id="a_node1"><a xlink:href="dir_7eb6afaf13535113aed9296c47342e8d.html" target="_top" xlink:title="Statistics">
<polygon fill="#eeeeff" stroke="#000000" points="74,-108 16,-108 16,-72 74,-72 74,-108"/>
<text text-anchor="middle" x="45" y="-87.5" font-family="Helvetica,sans-Serif" font-size="10.00" fill="#000000">Statistics</text>
</a>
</g>
</g>
<!-- dir_70efb4102fef32f99e0234ece818f270 -->
<g id="node2" class="node">
<title>dir_70efb4102fef32f99e0234ece818f270</title>
<g id="a_node2"><a xlink:href="dir_70efb4102fef32f99e0234ece818f270.html" target="_top" xlink:title="FormatHandling">
<polygon fill="none" stroke="#000000" points="88,-36 2,-36 2,0 88,0 88,-36"/>
<text text-anchor="middle" x="45" y="-15.5" font-family="Helvetica,sans-Serif" font-size="10.00" fill="#000000">FormatHandling</text>
</a>
</g>
</g>
<!-- dir_7eb6afaf13535113aed9296c47342e8d&#45;&gt;dir_70efb4102fef32f99e0234ece818f270 -->
<g id="edge1" class="edge">
<title>dir_7eb6afaf13535113aed9296c47342e8d&#45;&gt;dir_70efb4102fef32f99e0234ece818f270</title>
<path fill="none" stroke="#000000" d="M45,-71.8314C45,-64.131 45,-54.9743 45,-46.4166"/>
<polygon fill="#000000" stroke="#000000" points="48.5001,-46.4132 45,-36.4133 41.5001,-46.4133 48.5001,-46.4132"/>
<g id="a_edge1&#45;headlabel"><a xlink:href="dir_000010_000009.html" target="_top" xlink:title="1">
<text text-anchor="middle" x="51.3393" y="-47.5079" font-family="Helvetica,sans-Serif" font-size="10.00" fill="#000000">1</text>
</a>
</g>
</g>
</g>
</svg>
