<?xml version="1.0" encoding="UTF-8" standalone="no"?>
<!DOCTYPE svg PUBLIC "-//W3C//DTD SVG 1.1//EN"
 "http://www.w3.org/Graphics/SVG/1.1/DTD/svg11.dtd">
<!-- Generated by graphviz version 2.40.1 (20161225.0304)
 -->
<!-- Title: /home/vfernandez/git/trimAl/source Pages: 1 -->
<svg width="352pt" height="132pt"
 viewBox="0.00 0.00 352.00 132.00" xmlns="http://www.w3.org/2000/svg" xmlns:xlink="http://www.w3.org/1999/xlink">
<g id="graph0" class="graph" transform="scale(1 1) rotate(0) translate(4 128)">
<title>/home/vfernandez/git/trimAl/source</title>
<polygon fill="#ffffff" stroke="transparent" points="-4,4 -4,-128 348,-128 348,4 -4,4"/>
<g id="clust1" class="cluster">
<title>clusterdir_b2f33c71d4aa5e7af42a1ca61ff5af1b</title>
<g id="a_clust1"><a xlink:href="dir_b2f33c71d4aa5e7af42a1ca61ff5af1b.html" target="_top">
<polygon fill="#eeeeff" stroke="#000000" points="8,-64 8,-116 336,-116 336,-64 8,-64"/>
</a>
</g>
</g>
<!-- dir_b2f33c71d4aa5e7af42a1ca61ff5af1b -->
<g id="node1" class="node">
<title>dir_b2f33c71d4aa5e7af42a1ca61ff5af1b</title>
<text text-anchor="middle" x="301" y="-87.5" font-family="Helvetica,sans-Serif" font-size="10.00" fill="#000000">source</text>
</g>
<!-- dir_ee78ee7779baf263ae29e4768ff9d554 -->
<g id="node2" class="node">
<title>dir_ee78ee7779baf263ae29e4768ff9d554</title>
<g id="a_node2"><a xlink:href="dir_ee78ee7779baf263ae29e4768ff9d554.html" target="_top" xlink:title="Alignment">
<polygon fill="#ffffff" stroke="#000000" points="256,-108 196,-108 196,-72 256,-72 256,-108"/>
<text text-anchor="middle" x="226" y="-87.5" font-family="Helvetica,sans-Serif" font-size="10.00" fill="#000000">Alignment</text>
</a>
</g>
</g>
<!-- dir_d44c64559bbebec7f509842c48db8b23 -->
<g id="node5" class="node">
<title>dir_d44c64559bbebec7f509842c48db8b23</title>
<g id="a_node5"><a xlink:href="dir_d44c64559bbebec7f509842c48db8b23.html" target="_top" xlink:title="include">
<polygon fill="#ffffff" stroke="#ff0000" points="162,-36 108,-36 108,0 162,0 162,-36"/>
<text text-anchor="middle" x="135" y="-15.5" font-family="Helvetica,sans-Serif" font-size="10.00" fill="#000000">include</text>
</a>
</g>
</g>
<!-- dir_ee78ee7779baf263ae29e4768ff9d554&#45;&gt;dir_d44c64559bbebec7f509842c48db8b23 -->
<g id="edge2" class="edge">
<title>dir_ee78ee7779baf263ae29e4768ff9d554&#45;&gt;dir_d44c64559bbebec7f509842c48db8b23</title>
<path fill="none" stroke="#000000" d="M203.0369,-71.8314C191.8285,-62.9632 178.1791,-52.1637 166.0561,-42.5718"/>
<polygon fill="#000000" stroke="#000000" points="167.9697,-39.6229 157.9558,-36.1628 163.6263,-45.1125 167.9697,-39.6229"/>
<g id="a_edge2&#45;headlabel"><a xlink:href="dir_000012_000007.html" target="_top" xlink:title="17">
<text text-anchor="middle" x="172.5504" y="-37.1267" font-family="Helvetica,sans-Serif" font-size="10.00" fill="#000000">17</text>
</a>
</g>
</g>
<!-- dir_1db5cc9b4edf0a977802706e736507a2 -->
<g id="node3" class="node">
<title>dir_1db5cc9b4edf0a977802706e736507a2</title>
<g id="a_node3"><a xlink:href="dir_1db5cc9b4edf0a977802706e736507a2.html" target="_top" xlink:title="FormatHandling">
<polygon fill="#ffffff" stroke="#000000" points="178,-108 92,-108 92,-72 178,-72 178,-108"/>
<text text-anchor="middle" x="135" y="-87.5" font-family="Helvetica,sans-Serif" font-size="10.00" fill="#000000">FormatHandling</text>
</a>
</g>
</g>
<!-- dir_1db5cc9b4edf0a977802706e736507a2&#45;&gt;dir_d44c64559bbebec7f509842c48db8b23 -->
<g id="edge3" class="edge">
<title>dir_1db5cc9b4edf0a977802706e736507a2&#45;&gt;dir_d44c64559bbebec7f509842c48db8b23</title>
<path fill="none" stroke="#000000" d="M135,-71.8314C135,-64.131 135,-54.9743 135,-46.4166"/>
<polygon fill="#000000" stroke="#000000" points="138.5001,-46.4132 135,-36.4133 131.5001,-46.4133 138.5001,-46.4132"/>
<g id="a_edge3&#45;headlabel"><a xlink:href="dir_000013_000007.html" target="_top" xlink:title="10">
<text text-anchor="middle" x="141.3393" y="-47.5079" font-family="Helvetica,sans-Serif" font-size="10.00" fill="#000000">10</text>
</a>
</g>
</g>
<!-- dir_b83718e9b79d9c182245565b92726c09 -->
<g id="node4" class="node">
<title>dir_b83718e9b79d9c182245565b92726c09</title>
<g id="a_node4"><a xlink:href="dir_b83718e9b79d9c182245565b92726c09.html" target="_top" xlink:title="Statistics">
<polygon fill="#ffffff" stroke="#000000" points="74,-108 16,-108 16,-72 74,-72 74,-108"/>
<text text-anchor="middle" x="45" y="-87.5" font-family="Helvetica,sans-Serif" font-size="10.00" fill="#000000">Statistics</text>
</a>
</g>
</g>
<!-- dir_b83718e9b79d9c182245565b92726c09&#45;&gt;dir_d44c64559bbebec7f509842c48db8b23 -->
<g id="edge1" class="edge">
<title>dir_b83718e9b79d9c182245565b92726c09&#45;&gt;dir_d44c64559bbebec7f509842c48db8b23</title>
<path fill="none" stroke="#000000" d="M67.7108,-71.8314C78.796,-62.9632 92.2954,-52.1637 104.2852,-42.5718"/>
<polygon fill="#000000" stroke="#000000" points="106.6742,-45.1429 112.2965,-36.1628 102.3013,-39.6768 106.6742,-45.1429"/>
<g id="a_edge1&#45;headlabel"><a xlink:href="dir_000014_000007.html" target="_top" xlink:title="39">
<text text-anchor="middle" x="105.641" y="-47.1055" font-family="Helvetica,sans-Serif" font-size="10.00" fill="#000000">39</text>
</a>
</g>
</g>
</g>
</svg>
