<?xml version="1.0" encoding="UTF-8" standalone="no"?>
<!DOCTYPE svg PUBLIC "-//W3C//DTD SVG 1.1//EN"
 "http://www.w3.org/Graphics/SVG/1.1/DTD/svg11.dtd">
<!-- Generated by graphviz version 2.38.0 (20140413.2041)
 -->
<!-- Title: example Pages: 1 -->
<svg width="5249pt" height="190pt"
 viewBox="0.00 0.00 5248.50 190.00" xmlns="http://www.w3.org/2000/svg" xmlns:xlink="http://www.w3.org/1999/xlink">
<g id="graph0" class="graph" transform="scale(1 1) rotate(0) translate(4 186)">
<title>example</title>
<polygon fill="white" stroke="none" points="-4,4 -4,-186 5244.5,-186 5244.5,4 -4,4"/>
<!-- trimAlManager -->
<g id="node1" class="node"><title>trimAlManager</title>
<g id="a_node1"><a xlink:href="classtrim_al_manager.html" target="_top" xlink:title="trimAlManager">
<polygon fill="none" stroke="black" points="88.5,-145.5 88.5,-181.5 168.5,-181.5 168.5,-145.5 88.5,-145.5"/>
<text text-anchor="middle" x="128.5" y="-161" font-family="Helvetica,sans-Serif" font-size="10.00">trimAlManager</text>
</a>
</g>
</g>
<!-- parseArguments -->
<g id="node2" class="node"><title>parseArguments</title>
<g id="a_node2"><a xlink:href="group___parsing_arguments_functions.html#gaf140d97b6071a83930818030ac74b641" target="_top" xlink:title="parseArguments">
<ellipse fill="none" stroke="black" cx="65.5" cy="-91" rx="51.6054" ry="18"/>
<text text-anchor="middle" x="65.5" y="-88.5" font-family="Helvetica,sans-Serif" font-size="10.00">parseArguments</text>
</a>
</g>
</g>
<!-- trimAlManager&#45;&gt;parseArguments -->
<g id="edge1" class="edge"><title>trimAlManager&#45;&gt;parseArguments</title>
<path fill="none" stroke="black" stroke-dasharray="5,2" d="M113.249,-145.434C105.397,-136.647 95.6899,-125.784 87.0827,-116.152"/>
<polygon fill="black" stroke="black" points="80.1763,-108.423 90.1951,-112.882 83.508,-112.152 86.8396,-115.88 86.8396,-115.88 86.8396,-115.88 83.508,-112.152 83.4842,-118.879 80.1763,-108.423 80.1763,-108.423"/>
</g>
<!-- processArguments -->
<g id="node3" class="node"><title>processArguments</title>
<g id="a_node3"><a xlink:href="group___trimal_parsing_arguments.html#ga748b08a1ec5cd214de804ed0d4234a6e" target="_top" xlink:title="processArguments">
<ellipse fill="none" stroke="black" cx="192.5" cy="-91" rx="57.8786" ry="18"/>
<text text-anchor="middle" x="192.5" y="-88.5" font-family="Helvetica,sans-Serif" font-size="10.00">processArguments</text>
</a>
</g>
</g>
<!-- trimAlManager&#45;&gt;processArguments -->
<g id="edge2" class="edge"><title>trimAlManager&#45;&gt;processArguments</title>
<path fill="none" stroke="black" stroke-dasharray="5,2" d="M143.993,-145.434C152.049,-136.559 162.028,-125.567 170.837,-115.864"/>
<polygon fill="black" stroke="black" points="177.591,-108.423 174.201,-118.852 174.23,-112.126 170.869,-115.828 170.869,-115.828 170.869,-115.828 174.23,-112.126 167.537,-112.803 177.591,-108.423 177.591,-108.423"/>
</g>
<!-- parseArgumentsFunctions -->
<g id="node42" class="node"><title>parseArgumentsFunctions</title>
<polygon fill="none" stroke="black" points="0,-0.5 0,-36.5 131,-36.5 131,-0.5 0,-0.5"/>
<text text-anchor="middle" x="65.5" y="-16" font-family="Helvetica,sans-Serif" font-size="10.00">parseArgumentsFunctions</text>
</g>
<!-- parseArguments&#45;&gt;parseArgumentsFunctions -->
<g id="edge3" class="edge"><title>parseArguments&#45;&gt;parseArgumentsFunctions</title>
<path fill="none" stroke="black" d="M65.5,-72.9339C65.5,-65.1695 65.5,-55.7842 65.5,-47.0597"/>
<polygon fill="black" stroke="black" points="69.0001,-46.8987 65.5,-36.8987 62.0001,-46.8987 69.0001,-46.8987"/>
</g>
<!-- info_arguments -->
<g id="node4" class="node"><title>info_arguments</title>
<g id="a_node4"><a xlink:href="group___parsing_arguments_functions.html#gacc86df7574d3e26a7f90d3218f6b6aad" target="_top" xlink:title="info_arguments">
<polygon fill="none" stroke="black" points="187,-145.5 187,-181.5 270,-181.5 270,-145.5 187,-145.5"/>
<text text-anchor="middle" x="228.5" y="-161" font-family="Helvetica,sans-Serif" font-size="10.00">info_arguments</text>
</a>
</g>
</g>
<!-- in_argument -->
<g id="node5" class="node"><title>in_argument</title>
<g id="a_node5"><a xlink:href="group___parsing_arguments_functions.html#gac594aa4b43e39df57eaa2ded49d7d9e1" target="_top" xlink:title="in_argument">
<polygon fill="none" stroke="black" points="288.5,-145.5 288.5,-181.5 358.5,-181.5 358.5,-145.5 288.5,-145.5"/>
<text text-anchor="middle" x="323.5" y="-161" font-family="Helvetica,sans-Serif" font-size="10.00">in_argument</text>
</a>
</g>
</g>
<!-- out_argument -->
<g id="node6" class="node"><title>out_argument</title>
<g id="a_node6"><a xlink:href="group___parsing_arguments_functions.html#ga45951517e92bc57fcbc2887676880610" target="_top" xlink:title="out_argument">
<polygon fill="none" stroke="black" points="376.5,-145.5 376.5,-181.5 452.5,-181.5 452.5,-145.5 376.5,-145.5"/>
<text text-anchor="middle" x="414.5" y="-161" font-family="Helvetica,sans-Serif" font-size="10.00">out_argument</text>
</a>
</g>
</g>
<!-- html_out_argument -->
<g id="node7" class="node"><title>html_out_argument</title>
<g id="a_node7"><a xlink:href="group___parsing_arguments_functions.html#gaf01f123455f1752f85fac1f0baa77568" target="_top" xlink:title="html_out_argument">
<polygon fill="none" stroke="black" points="470.5,-145.5 470.5,-181.5 570.5,-181.5 570.5,-145.5 470.5,-145.5"/>
<text text-anchor="middle" x="520.5" y="-161" font-family="Helvetica,sans-Serif" font-size="10.00">html_out_argument</text>
</a>
</g>
</g>
<!-- out_format_arguments -->
<g id="node8" class="node"><title>out_format_arguments</title>
<g id="a_node8"><a xlink:href="group___parsing_arguments_functions.html#ga154699b8e525b01cf0916b013d517347" target="_top" xlink:title="out_format_arguments">
<polygon fill="none" stroke="black" points="588.5,-145.5 588.5,-181.5 702.5,-181.5 702.5,-145.5 588.5,-145.5"/>
<text text-anchor="middle" x="645.5" y="-161" font-family="Helvetica,sans-Serif" font-size="10.00">out_format_arguments</text>
</a>
</g>
</g>
<!-- matrix_argument -->
<g id="node9" class="node"><title>matrix_argument</title>
<g id="a_node9"><a xlink:href="group___parsing_arguments_functions.html#ga5b1407f7ca645c795835b3e0c20cb10d" target="_top" xlink:title="matrix_argument">
<polygon fill="none" stroke="black" points="721,-145.5 721,-181.5 810,-181.5 810,-145.5 721,-145.5"/>
<text text-anchor="middle" x="765.5" y="-161" font-family="Helvetica,sans-Serif" font-size="10.00">matrix_argument</text>
</a>
</g>
</g>
<!-- compareset_argument -->
<g id="node10" class="node"><title>compareset_argument</title>
<g id="a_node10"><a xlink:href="group___parsing_arguments_functions.html#ga313d3f5fe763b8c03bd46c2072a2357b" target="_top" xlink:title="compareset_argument">
<polygon fill="none" stroke="black" points="828,-145.5 828,-181.5 941,-181.5 941,-145.5 828,-145.5"/>
<text text-anchor="middle" x="884.5" y="-161" font-family="Helvetica,sans-Serif" font-size="10.00">compareset_argument</text>
</a>
</g>
</g>
<!-- force_select_argument -->
<g id="node11" class="node"><title>force_select_argument</title>
<g id="a_node11"><a xlink:href="group___parsing_arguments_functions.html#ga28508aa820509b23c2f91634bc638082" target="_top" xlink:title="force_select_argument">
<polygon fill="none" stroke="black" points="959.5,-145.5 959.5,-181.5 1075.5,-181.5 1075.5,-145.5 959.5,-145.5"/>
<text text-anchor="middle" x="1017.5" y="-161" font-family="Helvetica,sans-Serif" font-size="10.00">force_select_argument</text>
</a>
</g>
</g>
<!-- back_trans_argument -->
<g id="node12" class="node"><title>back_trans_argument</title>
<g id="a_node12"><a xlink:href="group___parsing_arguments_functions.html#gacf6ecf63ed1194adc345de441e2c1fec" target="_top" xlink:title="back_trans_argument">
<polygon fill="none" stroke="black" points="1093.5,-145.5 1093.5,-181.5 1203.5,-181.5 1203.5,-145.5 1093.5,-145.5"/>
<text text-anchor="middle" x="1148.5" y="-161" font-family="Helvetica,sans-Serif" font-size="10.00">back_trans_argument</text>
</a>
</g>
</g>
<!-- gap_threshold_argument -->
<g id="node13" class="node"><title>gap_threshold_argument</title>
<g id="a_node13"><a xlink:href="group___parsing_arguments_functions.html#ga60a68cb3d06d630cbc52d9465dfe4112" target="_top" xlink:title="gap_threshold_argument">
<polygon fill="none" stroke="black" points="1222,-145.5 1222,-181.5 1345,-181.5 1345,-145.5 1222,-145.5"/>
<text text-anchor="middle" x="1283.5" y="-161" font-family="Helvetica,sans-Serif" font-size="10.00">gap_threshold_argument</text>
</a>
</g>
</g>
<!-- similarity_threshold_argument -->
<g id="node14" class="node"><title>similarity_threshold_argument</title>
<g id="a_node14"><a xlink:href="group___parsing_arguments_functions.html#gad7fd9b44ff6cd032a83c599678fa4040" target="_top" xlink:title="similarity_threshold_argument">
<polygon fill="none" stroke="black" points="1363.5,-145.5 1363.5,-181.5 1509.5,-181.5 1509.5,-145.5 1363.5,-145.5"/>
<text text-anchor="middle" x="1436.5" y="-161" font-family="Helvetica,sans-Serif" font-size="10.00">similarity_threshold_argument</text>
</a>
</g>
</g>
<!-- consistency_threshold_argument -->
<g id="node15" class="node"><title>consistency_threshold_argument</title>
<g id="a_node15"><a xlink:href="group___parsing_arguments_functions.html#ga73b880844e7ceed43aa9d7dc4c3fb1f6" target="_top" xlink:title="consistency_threshold_argument">
<polygon fill="none" stroke="black" points="1527.5,-145.5 1527.5,-181.5 1687.5,-181.5 1687.5,-145.5 1527.5,-145.5"/>
<text text-anchor="middle" x="1607.5" y="-161" font-family="Helvetica,sans-Serif" font-size="10.00">consistency_threshold_argument</text>
</a>
</g>
</g>
<!-- conservation_threshold_argument -->
<g id="node16" class="node"><title>conservation_threshold_argument</title>
<g id="a_node16"><a xlink:href="group___parsing_arguments_functions.html#gab162d8373b277d4fb1d013e0aceb95b9" target="_top" xlink:title="conservation_threshold_argument">
<polygon fill="none" stroke="black" points="1706,-145.5 1706,-181.5 1869,-181.5 1869,-145.5 1706,-145.5"/>
<text text-anchor="middle" x="1787.5" y="-161" font-family="Helvetica,sans-Serif" font-size="10.00">conservation_threshold_argument</text>
</a>
</g>
</g>
<!-- select_cols_argument -->
<g id="node17" class="node"><title>select_cols_argument</title>
<g id="a_node17"><a xlink:href="group___parsing_arguments_functions.html#gadf8a0b6574e9abb325a6c331ab9368ac" target="_top" xlink:title="select_cols_argument">
<polygon fill="none" stroke="black" points="1887.5,-145.5 1887.5,-181.5 1999.5,-181.5 1999.5,-145.5 1887.5,-145.5"/>
<text text-anchor="middle" x="1943.5" y="-161" font-family="Helvetica,sans-Serif" font-size="10.00">select_cols_argument</text>
</a>
</g>
</g>
<!-- no_gaps_argument -->
<g id="node18" class="node"><title>no_gaps_argument</title>
<g id="a_node18"><a xlink:href="group___parsing_arguments_functions.html#ga8b8a67674c7e54ae6e92485ade150556" target="_top" xlink:title="no_gaps_argument">
<polygon fill="none" stroke="black" points="2018,-145.5 2018,-181.5 2117,-181.5 2117,-145.5 2018,-145.5"/>
<text text-anchor="middle" x="2067.5" y="-161" font-family="Helvetica,sans-Serif" font-size="10.00">no_gaps_argument</text>
</a>
</g>
</g>
<!-- no_all_gaps_argument -->
<g id="node19" class="node"><title>no_all_gaps_argument</title>
<g id="a_node19"><a xlink:href="group___parsing_arguments_functions.html#ga951d5efaf7dd34a118c531085bb7d833" target="_top" xlink:title="no_all_gaps_argument">
<polygon fill="none" stroke="black" points="2135.5,-145.5 2135.5,-181.5 2249.5,-181.5 2249.5,-145.5 2135.5,-145.5"/>
<text text-anchor="middle" x="2192.5" y="-161" font-family="Helvetica,sans-Serif" font-size="10.00">no_all_gaps_argument</text>
</a>
</g>
</g>
<!-- keep_seqs_argument -->
<g id="node20" class="node"><title>keep_seqs_argument</title>
<g id="a_node20"><a xlink:href="group___parsing_arguments_functions.html#gaf9ed7ed44486a872ed37067152979190" target="_top" xlink:title="keep_seqs_argument">
<polygon fill="none" stroke="black" points="2267.5,-145.5 2267.5,-181.5 2377.5,-181.5 2377.5,-145.5 2267.5,-145.5"/>
<text text-anchor="middle" x="2322.5" y="-161" font-family="Helvetica,sans-Serif" font-size="10.00">keep_seqs_argument</text>
</a>
</g>
</g>
<!-- keep_header_argument -->
<g id="node21" class="node"><title>keep_header_argument</title>
<g id="a_node21"><a xlink:href="group___parsing_arguments_functions.html#ga6b5ddcd40dbd899a3854e8208494c6e8" target="_top" xlink:title="keep_header_argument">
<polygon fill="none" stroke="black" points="2395.5,-145.5 2395.5,-181.5 2513.5,-181.5 2513.5,-145.5 2395.5,-145.5"/>
<text text-anchor="middle" x="2454.5" y="-161" font-family="Helvetica,sans-Serif" font-size="10.00">keep_header_argument</text>
</a>
</g>
</g>
<!-- gappy_out_argument -->
<g id="node22" class="node"><title>gappy_out_argument</title>
<g id="a_node22"><a xlink:href="group___parsing_arguments_functions.html#ga7e81f8ca3ed731474c246cc670a62c10" target="_top" xlink:title="gappy_out_argument">
<polygon fill="none" stroke="black" points="2532,-145.5 2532,-181.5 2639,-181.5 2639,-145.5 2532,-145.5"/>
<text text-anchor="middle" x="2585.5" y="-161" font-family="Helvetica,sans-Serif" font-size="10.00">gappy_out_argument</text>
</a>
</g>
</g>
<!-- strict_argument -->
<g id="node23" class="node"><title>strict_argument</title>
<g id="a_node23"><a xlink:href="group___parsing_arguments_functions.html#gaa008bef3630f5c8e37280359d7f5608c" target="_top" xlink:title="strict_argument">
<polygon fill="none" stroke="black" points="2657.5,-145.5 2657.5,-181.5 2741.5,-181.5 2741.5,-145.5 2657.5,-145.5"/>
<text text-anchor="middle" x="2699.5" y="-161" font-family="Helvetica,sans-Serif" font-size="10.00">strict_argument</text>
</a>
</g>
</g>
<!-- strict_plus_argument -->
<g id="node24" class="node"><title>strict_plus_argument</title>
<g id="a_node24"><a xlink:href="group___parsing_arguments_functions.html#ga6b6046796e345bef35474c895c681fb7" target="_top" xlink:title="strict_plus_argument">
<polygon fill="none" stroke="black" points="2759,-145.5 2759,-181.5 2866,-181.5 2866,-145.5 2759,-145.5"/>
<text text-anchor="middle" x="2812.5" y="-161" font-family="Helvetica,sans-Serif" font-size="10.00">strict_plus_argument</text>
</a>
</g>
</g>
<!-- automated1_argument -->
<g id="node25" class="node"><title>automated1_argument</title>
<g id="a_node25"><a xlink:href="group___parsing_arguments_functions.html#ga549b563a1e76cb0d7cf1b661156352fc" target="_top" xlink:title="automated1_argument">
<polygon fill="none" stroke="black" points="2884,-145.5 2884,-181.5 2997,-181.5 2997,-145.5 2884,-145.5"/>
<text text-anchor="middle" x="2940.5" y="-161" font-family="Helvetica,sans-Serif" font-size="10.00">automated1_argument</text>
</a>
</g>
</g>
<!-- residue_overlap_argument -->
<g id="node26" class="node"><title>residue_overlap_argument</title>
<g id="a_node26"><a xlink:href="group___parsing_arguments_functions.html#gae4c29488936ae2d429f563c8df0b85a0" target="_top" xlink:title="residue_overlap_argument">
<polygon fill="none" stroke="black" points="3015,-145.5 3015,-181.5 3146,-181.5 3146,-145.5 3015,-145.5"/>
<text text-anchor="middle" x="3080.5" y="-161" font-family="Helvetica,sans-Serif" font-size="10.00">residue_overlap_argument</text>
</a>
</g>
</g>
<!-- sequence_overlap_argument -->
<g id="node27" class="node"><title>sequence_overlap_argument</title>
<g id="a_node27"><a xlink:href="group___parsing_arguments_functions.html#gab1bb749f54bfaedee49c03e78a2b7c11" target="_top" xlink:title="sequence_overlap_argument">
<polygon fill="none" stroke="black" points="3164,-145.5 3164,-181.5 3305,-181.5 3305,-145.5 3164,-145.5"/>
<text text-anchor="middle" x="3234.5" y="-161" font-family="Helvetica,sans-Serif" font-size="10.00">sequence_overlap_argument</text>
</a>
</g>
</g>
<!-- seqs_select_argument -->
<g id="node28" class="node"><title>seqs_select_argument</title>
<g id="a_node28"><a xlink:href="group___parsing_arguments_functions.html#ga5b7b7ccf9e704e7341546a9e8834e890" target="_top" xlink:title="seqs_select_argument">
<polygon fill="none" stroke="black" points="3323,-145.5 3323,-181.5 3438,-181.5 3438,-145.5 3323,-145.5"/>
<text text-anchor="middle" x="3380.5" y="-161" font-family="Helvetica,sans-Serif" font-size="10.00">seqs_select_argument</text>
</a>
</g>
</g>
<!-- max_identity_argument -->
<g id="node29" class="node"><title>max_identity_argument</title>
<g id="a_node29"><a xlink:href="group___parsing_arguments_functions.html#ga5d22b6b08888f89e38d604b7e9653935" target="_top" xlink:title="max_identity_argument">
<polygon fill="none" stroke="black" points="3456.5,-145.5 3456.5,-181.5 3574.5,-181.5 3574.5,-145.5 3456.5,-145.5"/>
<text text-anchor="middle" x="3515.5" y="-161" font-family="Helvetica,sans-Serif" font-size="10.00">max_identity_argument</text>
</a>
</g>
</g>
<!-- clusters_argument -->
<g id="node30" class="node"><title>clusters_argument</title>
<g id="a_node30"><a xlink:href="group___parsing_arguments_functions.html#ga66b5f541247441de174d643f85901eca" target="_top" xlink:title="clusters_argument">
<polygon fill="none" stroke="black" points="3593,-145.5 3593,-181.5 3690,-181.5 3690,-145.5 3593,-145.5"/>
<text text-anchor="middle" x="3641.5" y="-161" font-family="Helvetica,sans-Serif" font-size="10.00">clusters_argument</text>
</a>
</g>
</g>
<!-- terminal_only_argument -->
<g id="node31" class="node"><title>terminal_only_argument</title>
<g id="a_node31"><a xlink:href="group___parsing_arguments_functions.html#gac3e103640f3c3a4bbbd61f780dfd481f" target="_top" xlink:title="terminal_only_argument">
<polygon fill="none" stroke="black" points="3708.5,-145.5 3708.5,-181.5 3828.5,-181.5 3828.5,-145.5 3708.5,-145.5"/>
<text text-anchor="middle" x="3768.5" y="-161" font-family="Helvetica,sans-Serif" font-size="10.00">terminal_only_argument</text>
</a>
</g>
</g>
<!-- window_argument -->
<g id="node32" class="node"><title>window_argument</title>
<g id="a_node32"><a xlink:href="group___parsing_arguments_functions.html#ga54e5f7e5c36b532547b5d822ad59a193" target="_top" xlink:title="window_argument">
<polygon fill="none" stroke="black" points="3847,-145.5 3847,-181.5 3942,-181.5 3942,-145.5 3847,-145.5"/>
<text text-anchor="middle" x="3894.5" y="-161" font-family="Helvetica,sans-Serif" font-size="10.00">window_argument</text>
</a>
</g>
</g>
<!-- gap_window_argument -->
<g id="node33" class="node"><title>gap_window_argument</title>
<g id="a_node33"><a xlink:href="group___parsing_arguments_functions.html#gab15430c46ad26f21d8479bf3cd5b68fd" target="_top" xlink:title="gap_window_argument">
<polygon fill="none" stroke="black" points="3960.5,-145.5 3960.5,-181.5 4076.5,-181.5 4076.5,-145.5 3960.5,-145.5"/>
<text text-anchor="middle" x="4018.5" y="-161" font-family="Helvetica,sans-Serif" font-size="10.00">gap_window_argument</text>
</a>
</g>
</g>
<!-- similarity_window_argument -->
<g id="node34" class="node"><title>similarity_window_argument</title>
<g id="a_node34"><a xlink:href="group___parsing_arguments_functions.html#gae5a646dea584f694cbb1262a5be72290" target="_top" xlink:title="similarity_window_argument">
<polygon fill="none" stroke="black" points="4094.5,-145.5 4094.5,-181.5 4234.5,-181.5 4234.5,-145.5 4094.5,-145.5"/>
<text text-anchor="middle" x="4164.5" y="-161" font-family="Helvetica,sans-Serif" font-size="10.00">similarity_window_argument</text>
</a>
</g>
</g>
<!-- consistency_window_argument -->
<g id="node35" class="node"><title>consistency_window_argument</title>
<g id="a_node35"><a xlink:href="group___parsing_arguments_functions.html#ga1192b7587cd78875384357d92bdadcef" target="_top" xlink:title="consistency_window_argument">
<polygon fill="none" stroke="black" points="4253,-145.5 4253,-181.5 4406,-181.5 4406,-145.5 4253,-145.5"/>
<text text-anchor="middle" x="4329.5" y="-161" font-family="Helvetica,sans-Serif" font-size="10.00">consistency_window_argument</text>
</a>
</g>
</g>
<!-- block_argument -->
<g id="node36" class="node"><title>block_argument</title>
<g id="a_node36"><a xlink:href="group___parsing_arguments_functions.html#ga1f34f42869ae921faeb2861ecba25d12" target="_top" xlink:title="block_argument">
<polygon fill="none" stroke="black" points="4424.5,-145.5 4424.5,-181.5 4510.5,-181.5 4510.5,-145.5 4424.5,-145.5"/>
<text text-anchor="middle" x="4467.5" y="-161" font-family="Helvetica,sans-Serif" font-size="10.00">block_argument</text>
</a>
</g>
</g>
<!-- stats_arguments -->
<g id="node37" class="node"><title>stats_arguments</title>
<g id="a_node37"><a xlink:href="group___parsing_arguments_functions.html#ga1bae281d1fb2c0a49f9e88c83ba5684a" target="_top" xlink:title="stats_arguments">
<polygon fill="none" stroke="black" points="4529,-145.5 4529,-181.5 4618,-181.5 4618,-145.5 4529,-145.5"/>
<text text-anchor="middle" x="4573.5" y="-161" font-family="Helvetica,sans-Serif" font-size="10.00">stats_arguments</text>
</a>
</g>
</g>
<!-- complementary_argument -->
<g id="node38" class="node"><title>complementary_argument</title>
<g id="a_node38"><a xlink:href="group___parsing_arguments_functions.html#gafef91d4a030c838cba610a35abf2ab95" target="_top" xlink:title="complementary_argument">
<polygon fill="none" stroke="black" points="4636,-145.5 4636,-181.5 4765,-181.5 4765,-145.5 4636,-145.5"/>
<text text-anchor="middle" x="4700.5" y="-161" font-family="Helvetica,sans-Serif" font-size="10.00">complementary_argument</text>
</a>
</g>
</g>
<!-- col_numbering_argument -->
<g id="node39" class="node"><title>col_numbering_argument</title>
<g id="a_node39"><a xlink:href="group___parsing_arguments_functions.html#ga87d6fe668c2a47600fdf9b55bfc8747b" target="_top" xlink:title="col_numbering_argument">
<polygon fill="none" stroke="black" points="4783,-145.5 4783,-181.5 4908,-181.5 4908,-145.5 4783,-145.5"/>
<text text-anchor="middle" x="4845.5" y="-161" font-family="Helvetica,sans-Serif" font-size="10.00">col_numbering_argument</text>
</a>
</g>
</g>
<!-- split_by_stop_codon_argument -->
<g id="node40" class="node"><title>split_by_stop_codon_argument</title>
<g id="a_node40"><a xlink:href="group___parsing_arguments_functions.html#ga5f145e3c94ade069f8da27b172f6641c" target="_top" xlink:title="split_by_stop_codon_argument">
<polygon fill="none" stroke="black" points="4926.5,-145.5 4926.5,-181.5 5078.5,-181.5 5078.5,-145.5 4926.5,-145.5"/>
<text text-anchor="middle" x="5002.5" y="-161" font-family="Helvetica,sans-Serif" font-size="10.00">split_by_stop_codon_argument</text>
</a>
</g>
</g>
<!-- ignore_stop_codon_argument -->
<g id="node41" class="node"><title>ignore_stop_codon_argument</title>
<g id="a_node41"><a xlink:href="group___parsing_arguments_functions.html#ga95ec04ca6c813cff40c25056631ee593" target="_top" xlink:title="ignore_stop_codon_argument">
<polygon fill="none" stroke="black" points="5096.5,-145.5 5096.5,-181.5 5240.5,-181.5 5240.5,-145.5 5096.5,-145.5"/>
<text text-anchor="middle" x="5168.5" y="-161" font-family="Helvetica,sans-Serif" font-size="10.00">ignore_stop_codon_argument</text>
</a>
</g>
</g>
</g>
</svg>
