<?xml version="1.0" encoding="UTF-8" standalone="no"?>
<!DOCTYPE svg PUBLIC "-//W3C//DTD SVG 1.1//EN"
 "http://www.w3.org/Graphics/SVG/1.1/DTD/svg11.dtd">
<!-- Generated by graphviz version 2.38.0 (20140413.2041)
 -->
<!-- Title: trimAlManager::check_multiple_files_comparison Pages: 1 -->
<svg width="446pt" height="39pt"
 viewBox="0.00 0.00 446.00 39.00" xmlns="http://www.w3.org/2000/svg" xmlns:xlink="http://www.w3.org/1999/xlink">
<g id="graph0" class="graph" transform="scale(1 1) rotate(0) translate(4 35)">
<title>trimAlManager::check_multiple_files_comparison</title>
<polygon fill="white" stroke="none" points="-4,4 -4,-35 442,-35 442,4 -4,4"/>
<!-- Node77 -->
<g id="node1" class="node"><title>Node77</title>
<polygon fill="#bfbfbf" stroke="black" points="0,-0.5 0,-30.5 134,-30.5 134,-0.5 0,-0.5"/>
<text text-anchor="start" x="8" y="-18.5" font-family="Helvetica,sans-Serif" font-size="10.00">trimAlManager::check</text>
<text text-anchor="middle" x="67" y="-7.5" font-family="Helvetica,sans-Serif" font-size="10.00">_multiple_files_comparison</text>
</g>
<!-- Node78 -->
<g id="node2" class="node"><title>Node78</title>
<g id="a_node2"><a xlink:href="group___check_needs.html#ga3f325b806727751394adb829d97b35f1" target="_top" xlink:title="Method that checks dependencies between arguments. Take in mind that dependencies may be between mult...">
<polygon fill="white" stroke="black" points="170,-0.5 170,-30.5 282,-30.5 282,-0.5 170,-0.5"/>
<text text-anchor="start" x="178" y="-18.5" font-family="Helvetica,sans-Serif" font-size="10.00">trimAlManager::check</text>
<text text-anchor="middle" x="226" y="-7.5" font-family="Helvetica,sans-Serif" font-size="10.00">_arguments_needs</text>
</a>
</g>
</g>
<!-- Node77&#45;&gt;Node78 -->
<g id="edge1" class="edge"><title>Node77&#45;&gt;Node78</title>
<path fill="none" stroke="midnightblue" d="M144.235,-15.5C152.881,-15.5 161.564,-15.5 169.863,-15.5"/>
<polygon fill="midnightblue" stroke="midnightblue" points="144.127,-12.0001 134.127,-15.5 144.127,-19.0001 144.127,-12.0001"/>
</g>
<!-- Node79 -->
<g id="node3" class="node"><title>Node79</title>
<g id="a_node3"><a xlink:href="group___trimal_parsing_arguments.html#gae8565b76a7e277d37e3c78a6c6165343" target="_top" xlink:title="Method to process the information obtained by trimAlManager::parseArguments It checks for argument in...">
<polygon fill="white" stroke="black" points="318,-0.5 318,-30.5 438,-30.5 438,-0.5 318,-0.5"/>
<text text-anchor="start" x="326" y="-18.5" font-family="Helvetica,sans-Serif" font-size="10.00">trimAlManager::process</text>
<text text-anchor="middle" x="378" y="-7.5" font-family="Helvetica,sans-Serif" font-size="10.00">_arguments</text>
</a>
</g>
</g>
<!-- Node78&#45;&gt;Node79 -->
<g id="edge2" class="edge"><title>Node78&#45;&gt;Node79</title>
<path fill="none" stroke="midnightblue" d="M292.018,-15.5C300.643,-15.5 309.448,-15.5 317.965,-15.5"/>
<polygon fill="midnightblue" stroke="midnightblue" points="292.003,-12.0001 282.003,-15.5 292.003,-19.0001 292.003,-12.0001"/>
</g>
</g>
</svg>
