<?xml version="1.0" encoding="UTF-8" standalone="no"?>
<!DOCTYPE svg PUBLIC "-//W3C//DTD SVG 1.1//EN"
 "http://www.w3.org/Graphics/SVG/1.1/DTD/svg11.dtd">
<!-- Generated by graphviz version 2.38.0 (20140413.2041)
 -->
<!-- Title: trimAlManager::check_multiple_files_comparison Pages: 1 -->
<svg width="478pt" height="148pt"
 viewBox="0.00 0.00 478.00 147.50" xmlns="http://www.w3.org/2000/svg" xmlns:xlink="http://www.w3.org/1999/xlink">
<g id="graph0" class="graph" transform="scale(1 1) rotate(0) translate(4 143.5)">
<title>trimAlManager::check_multiple_files_comparison</title>
<polygon fill="white" stroke="none" points="-4,4 -4,-143.5 474,-143.5 474,4 -4,4"/>
<!-- Node69 -->
<g id="node1" class="node"><title>Node69</title>
<polygon fill="#bfbfbf" stroke="black" points="0,-52 0,-82 134,-82 134,-52 0,-52"/>
<text text-anchor="start" x="8" y="-70" font-family="Helvetica,sans-Serif" font-size="10.00">trimAlManager::check</text>
<text text-anchor="middle" x="67" y="-59" font-family="Helvetica,sans-Serif" font-size="10.00">_multiple_files_comparison</text>
</g>
<!-- Node70 -->
<g id="node2" class="node"><title>Node70</title>
<g id="a_node2"><a xlink:href="class_read_write_m_s.html#a9dde337280e5598f9006b3b436112caf" target="_top" xlink:title="Function that creates an alignment from a filepath. It automatically detects the format of the file...">
<polygon fill="white" stroke="black" points="174.5,-114.5 174.5,-133.5 320.5,-133.5 320.5,-114.5 174.5,-114.5"/>
<text text-anchor="middle" x="247.5" y="-121.5" font-family="Helvetica,sans-Serif" font-size="10.00">ReadWriteMS::loadAlignment</text>
</a>
</g>
</g>
<!-- Node69&#45;&gt;Node70 -->
<g id="edge1" class="edge"><title>Node69&#45;&gt;Node70</title>
<path fill="none" stroke="midnightblue" d="M105.433,-82.1044C124.57,-89.5294 148.336,-98.2979 170,-105 177.987,-107.471 186.519,-109.845 194.88,-112.027"/>
<polygon fill="midnightblue" stroke="midnightblue" points="194.021,-115.419 204.575,-114.495 195.748,-108.636 194.021,-115.419"/>
</g>
<!-- Node72 -->
<g id="node4" class="node"><title>Node72</title>
<g id="a_node4"><a xlink:href="classcompare_files.html#a869e1029b22f477bb3ed2a700af64956" target="_top" xlink:title="Method to compare a set of alignments to select the most consistent one respect the others...">
<polygon fill="white" stroke="black" points="187,-76.5 187,-95.5 308,-95.5 308,-76.5 187,-76.5"/>
<text text-anchor="middle" x="247.5" y="-83.5" font-family="Helvetica,sans-Serif" font-size="10.00">compareFiles::algorithm</text>
</a>
</g>
</g>
<!-- Node69&#45;&gt;Node72 -->
<g id="edge3" class="edge"><title>Node69&#45;&gt;Node72</title>
<path fill="none" stroke="midnightblue" d="M134.213,-74.0479C148.105,-75.5266 162.796,-77.0904 176.811,-78.5821"/>
<polygon fill="midnightblue" stroke="midnightblue" points="176.561,-82.0752 186.875,-79.6534 177.302,-75.1145 176.561,-82.0752"/>
</g>
<!-- Node74 -->
<g id="node6" class="node"><title>Node74</title>
<g id="a_node6"><a xlink:href="classcompare_files.html#aad9a46ed0c7ed28f7095ca3aeb5b651b" target="_top" xlink:title="Applies a new window to the alignment. ">
<polygon fill="white" stroke="black" points="177.5,-0.5 177.5,-19.5 317.5,-19.5 317.5,-0.5 177.5,-0.5"/>
<text text-anchor="middle" x="247.5" y="-7.5" font-family="Helvetica,sans-Serif" font-size="10.00">compareFiles::applyWindow</text>
</a>
</g>
</g>
<!-- Node69&#45;&gt;Node74 -->
<g id="edge5" class="edge"><title>Node69&#45;&gt;Node74</title>
<path fill="none" stroke="midnightblue" d="M105.433,-51.8956C124.57,-44.4706 148.336,-35.7021 170,-29 177.987,-26.5291 186.519,-24.1554 194.88,-21.9733"/>
<polygon fill="midnightblue" stroke="midnightblue" points="195.748,-25.3642 204.575,-19.5053 194.021,-18.5805 195.748,-25.3642"/>
</g>
<!-- Node76 -->
<g id="node8" class="node"><title>Node76</title>
<g id="a_node8"><a xlink:href="classcompare_files.html#acc8e14082afd80b0cf65a4c4d41549ea" target="_top" xlink:title="Method to obtain the consistency values vector for a given alignment against a set of alignments with...">
<polygon fill="white" stroke="black" points="170,-38.5 170,-57.5 325,-57.5 325,-38.5 170,-38.5"/>
<text text-anchor="middle" x="247.5" y="-45.5" font-family="Helvetica,sans-Serif" font-size="10.00">compareFiles::forceComparison</text>
</a>
</g>
</g>
<!-- Node69&#45;&gt;Node76 -->
<g id="edge7" class="edge"><title>Node69&#45;&gt;Node76</title>
<path fill="none" stroke="midnightblue" d="M134.213,-59.9521C142.557,-59.064 151.189,-58.1452 159.789,-57.2297"/>
<polygon fill="midnightblue" stroke="midnightblue" points="160.278,-60.6975 169.852,-56.1587 159.537,-53.7369 160.278,-60.6975"/>
</g>
<!-- Node71 -->
<g id="node3" class="node"><title>Node71</title>
<g id="a_node3"><a xlink:href="class_read_write_base_state.html#ac6d87d2b73337cb4afa1499bf218f4ab" target="_top" xlink:title="Function to load a file in the current format and return an alignment object. ">
<polygon fill="white" stroke="black" points="361,-109 361,-139 470,-139 470,-109 361,-109"/>
<text text-anchor="start" x="369" y="-127" font-family="Helvetica,sans-Serif" font-size="10.00">ReadWriteBaseState</text>
<text text-anchor="middle" x="415.5" y="-116" font-family="Helvetica,sans-Serif" font-size="10.00">::LoadAlignment</text>
</a>
</g>
</g>
<!-- Node70&#45;&gt;Node71 -->
<g id="edge2" class="edge"><title>Node70&#45;&gt;Node71</title>
<path fill="none" stroke="midnightblue" d="M320.827,-124C330.813,-124 341.009,-124 350.823,-124"/>
<polygon fill="midnightblue" stroke="midnightblue" points="350.888,-127.5 360.887,-124 350.887,-120.5 350.888,-127.5"/>
</g>
<!-- Node73 -->
<g id="node5" class="node"><title>Node73</title>
<g id="a_node5"><a xlink:href="classutils.html#aac322cd1761fddedec8a5792e358eb32" target="_top" xlink:title="Vector initialization. ">
<polygon fill="white" stroke="black" points="377.5,-54.5 377.5,-73.5 453.5,-73.5 453.5,-54.5 377.5,-54.5"/>
<text text-anchor="middle" x="415.5" y="-61.5" font-family="Helvetica,sans-Serif" font-size="10.00">utils::initlVect</text>
</a>
</g>
</g>
<!-- Node72&#45;&gt;Node73 -->
<g id="edge4" class="edge"><title>Node72&#45;&gt;Node73</title>
<path fill="none" stroke="midnightblue" d="M308.43,-78.0575C327.773,-75.494 348.931,-72.6898 367.227,-70.2651"/>
<polygon fill="midnightblue" stroke="midnightblue" points="367.896,-73.7071 377.35,-68.9235 366.977,-66.7678 367.896,-73.7071"/>
</g>
<!-- Node75 -->
<g id="node7" class="node"><title>Node75</title>
<g id="a_node7"><a xlink:href="classutils.html#a42f272221edf7752ffda49e4212ef653" target="_top" xlink:title="Integer vector copying. ">
<polygon fill="white" stroke="black" points="374.5,-0.5 374.5,-19.5 456.5,-19.5 456.5,-0.5 374.5,-0.5"/>
<text text-anchor="middle" x="415.5" y="-7.5" font-family="Helvetica,sans-Serif" font-size="10.00">utils::copyVect</text>
</a>
</g>
</g>
<!-- Node74&#45;&gt;Node75 -->
<g id="edge6" class="edge"><title>Node74&#45;&gt;Node75</title>
<path fill="none" stroke="midnightblue" d="M317.937,-10C333.379,-10 349.465,-10 363.979,-10"/>
<polygon fill="midnightblue" stroke="midnightblue" points="364.237,-13.5001 374.237,-10 364.237,-6.5001 364.237,-13.5001"/>
</g>
<!-- Node76&#45;&gt;Node73 -->
<g id="edge8" class="edge"><title>Node76&#45;&gt;Node73</title>
<path fill="none" stroke="midnightblue" d="M325.183,-55.3911C339.528,-56.7738 354.126,-58.1808 367.25,-59.4457"/>
<polygon fill="midnightblue" stroke="midnightblue" points="367.136,-62.9509 377.426,-60.4266 367.808,-55.9832 367.136,-62.9509"/>
</g>
</g>
</svg>
