<?xml version="1.0" encoding="UTF-8" standalone="no"?>
<!DOCTYPE svg PUBLIC "-//W3C//DTD SVG 1.1//EN"
 "http://www.w3.org/Graphics/SVG/1.1/DTD/svg11.dtd">
<!-- Generated by graphviz version 2.38.0 (20140413.2041)
 -->
<!-- Title: trimAlManager::check_arguments_incompatibilities Pages: 1 -->
<svg width="524pt" height="504pt"
 viewBox="0.00 0.00 524.00 503.50" xmlns="http://www.w3.org/2000/svg" xmlns:xlink="http://www.w3.org/1999/xlink">
<g id="graph0" class="graph" transform="scale(1 1) rotate(0) translate(4 499.5)">
<title>trimAlManager::check_arguments_incompatibilities</title>
<polygon fill="white" stroke="none" points="-4,4 -4,-499.5 520,-499.5 520,4 -4,4"/>
<!-- Node0 -->
<g id="node1" class="node"><title>Node0</title>
<polygon fill="#bfbfbf" stroke="black" points="0,-232 0,-262 143,-262 143,-232 0,-232"/>
<text text-anchor="start" x="8" y="-250" font-family="Helvetica,sans-Serif" font-size="10.00">trimAlManager::check</text>
<text text-anchor="middle" x="71.5" y="-239" font-family="Helvetica,sans-Serif" font-size="10.00">_arguments_incompatibilities</text>
</g>
<!-- Node1 -->
<g id="node2" class="node"><title>Node1</title>
<g id="a_node2"><a xlink:href="group___check_incompatibilities.html#ga603ce4f4aefaf60dc1d8db83490d44ac" target="_top" xlink:title="Method to check the inFile argument incompatibilities. ">
<polygon fill="white" stroke="black" points="211.5,-465 211.5,-495 331.5,-495 331.5,-465 211.5,-465"/>
<text text-anchor="start" x="219.5" y="-483" font-family="Helvetica,sans-Serif" font-size="10.00">trimAlManager::check</text>
<text text-anchor="middle" x="271.5" y="-472" font-family="Helvetica,sans-Serif" font-size="10.00">_inFile_incompatibilities</text>
</a>
</g>
</g>
<!-- Node0&#45;&gt;Node1 -->
<g id="edge1" class="edge"><title>Node0&#45;&gt;Node1</title>
<path fill="none" stroke="midnightblue" d="M75.8099,-262.233C84.9852,-300.728 114.444,-402.566 179,-455 185.78,-460.507 193.678,-464.805 201.94,-468.158"/>
<polygon fill="midnightblue" stroke="midnightblue" points="200.788,-471.464 211.382,-471.558 203.159,-464.877 200.788,-471.464"/>
</g>
<!-- Node3 -->
<g id="node4" class="node"><title>Node3</title>
<g id="a_node4"><a xlink:href="group___check_incompatibilities.html#ga0e099828be74d3ca0068b951d6578407" target="_top" xlink:title="Method to check incompatibilities with select cols and select seqs arguments. ">
<polygon fill="white" stroke="black" points="212,-404.5 212,-445.5 331,-445.5 331,-404.5 212,-404.5"/>
<text text-anchor="start" x="220" y="-433.5" font-family="Helvetica,sans-Serif" font-size="10.00">trimAlManager::check</text>
<text text-anchor="start" x="220" y="-422.5" font-family="Helvetica,sans-Serif" font-size="10.00">_select_cols_and_seqs</text>
<text text-anchor="middle" x="271.5" y="-411.5" font-family="Helvetica,sans-Serif" font-size="10.00">_incompatibilities</text>
</a>
</g>
</g>
<!-- Node0&#45;&gt;Node3 -->
<g id="edge3" class="edge"><title>Node0&#45;&gt;Node3</title>
<path fill="none" stroke="midnightblue" d="M79.495,-262.455C93.8373,-292.435 129.448,-358.724 179,-395 186.056,-400.166 194.05,-404.473 202.302,-408.057"/>
<polygon fill="midnightblue" stroke="midnightblue" points="201.109,-411.349 211.694,-411.804 203.703,-404.847 201.109,-411.349"/>
</g>
<!-- Node4 -->
<g id="node5" class="node"><title>Node4</title>
<g id="a_node5"><a xlink:href="group___check_incompatibilities.html#gaa6149bd13ebbf5e0c4b9c81919304796" target="_top" xlink:title="Method to check incompatibilities with manual thresholds. ">
<polygon fill="white" stroke="black" points="200.5,-355 200.5,-385 342.5,-385 342.5,-355 200.5,-355"/>
<text text-anchor="start" x="208.5" y="-373" font-family="Helvetica,sans-Serif" font-size="10.00">trimAlManager::check</text>
<text text-anchor="middle" x="271.5" y="-362" font-family="Helvetica,sans-Serif" font-size="10.00">_thresholds_incompatibilities</text>
</a>
</g>
</g>
<!-- Node0&#45;&gt;Node4 -->
<g id="edge5" class="edge"><title>Node0&#45;&gt;Node4</title>
<path fill="none" stroke="midnightblue" d="M84.5579,-262.207C102.706,-284.057 139.182,-324.107 179,-346 182.724,-348.047 186.629,-349.926 190.642,-351.649"/>
<polygon fill="midnightblue" stroke="midnightblue" points="189.578,-354.992 200.165,-355.394 192.14,-348.477 189.578,-354.992"/>
</g>
<!-- Node5 -->
<g id="node6" class="node"><title>Node5</title>
<g id="a_node6"><a xlink:href="group___check_incompatibilities.html#ga240651e152a2258badf642ed10a982f1" target="_top" xlink:title="Method to check incompatibilities related to automated trimming methods. ">
<polygon fill="white" stroke="black" points="179,-306 179,-336 364,-336 364,-306 179,-306"/>
<text text-anchor="start" x="187" y="-324" font-family="Helvetica,sans-Serif" font-size="10.00">trimAlManager::check</text>
<text text-anchor="middle" x="271.5" y="-313" font-family="Helvetica,sans-Serif" font-size="10.00">_automated_methods_incompatibilities</text>
</a>
</g>
</g>
<!-- Node0&#45;&gt;Node5 -->
<g id="edge7" class="edge"><title>Node0&#45;&gt;Node5</title>
<path fill="none" stroke="midnightblue" d="M100.826,-262.035C121.946,-272.813 151.731,-287.116 179,-297 184.877,-299.13 191.029,-301.157 197.244,-303.065"/>
<polygon fill="midnightblue" stroke="midnightblue" points="196.451,-306.48 207.033,-305.963 198.438,-299.768 196.451,-306.48"/>
</g>
<!-- Node6 -->
<g id="node7" class="node"><title>Node6</title>
<g id="a_node7"><a xlink:href="group___check_incompatibilities.html#gab5b035ec7491b19958cf6f2e222e4b01" target="_top" xlink:title="Method to check max identity incompatibilities. ">
<polygon fill="white" stroke="black" points="195.5,-257 195.5,-287 347.5,-287 347.5,-257 195.5,-257"/>
<text text-anchor="start" x="203.5" y="-275" font-family="Helvetica,sans-Serif" font-size="10.00">trimAlManager::check</text>
<text text-anchor="middle" x="271.5" y="-264" font-family="Helvetica,sans-Serif" font-size="10.00">_max_identity_incompatibilities</text>
</a>
</g>
</g>
<!-- Node0&#45;&gt;Node6 -->
<g id="edge9" class="edge"><title>Node0&#45;&gt;Node6</title>
<path fill="none" stroke="midnightblue" d="M143.144,-255.92C156.728,-257.635 171.09,-259.448 185.083,-261.215"/>
<polygon fill="midnightblue" stroke="midnightblue" points="184.831,-264.711 195.19,-262.491 185.707,-257.766 184.831,-264.711"/>
</g>
<!-- Node7 -->
<g id="node8" class="node"><title>Node7</title>
<g id="a_node8"><a xlink:href="group___check_incompatibilities.html#ga197d0ef570aee1edc074b19f4134060e" target="_top" xlink:title="Method to check clusters incompatibilities. ">
<polygon fill="white" stroke="black" points="206,-208 206,-238 337,-238 337,-208 206,-208"/>
<text text-anchor="start" x="214" y="-226" font-family="Helvetica,sans-Serif" font-size="10.00">trimAlManager::check</text>
<text text-anchor="middle" x="271.5" y="-215" font-family="Helvetica,sans-Serif" font-size="10.00">_clusters_incompatibilities</text>
</a>
</g>
</g>
<!-- Node0&#45;&gt;Node7 -->
<g id="edge11" class="edge"><title>Node0&#45;&gt;Node7</title>
<path fill="none" stroke="midnightblue" d="M143.144,-238.437C160.226,-236.366 178.539,-234.147 195.801,-232.054"/>
<polygon fill="midnightblue" stroke="midnightblue" points="196.32,-235.517 205.826,-230.839 195.477,-228.568 196.32,-235.517"/>
</g>
<!-- Node8 -->
<g id="node9" class="node"><title>Node8</title>
<g id="a_node9"><a xlink:href="group___check_incompatibilities.html#ga2cc3ed142e9da213332ada3a2b39dea0" target="_top" xlink:title="Method to check windows incompatibilities. ">
<polygon fill="white" stroke="black" points="204,-159 204,-189 339,-189 339,-159 204,-159"/>
<text text-anchor="start" x="212" y="-177" font-family="Helvetica,sans-Serif" font-size="10.00">trimAlManager::check</text>
<text text-anchor="middle" x="271.5" y="-166" font-family="Helvetica,sans-Serif" font-size="10.00">_windows_incompatibilities</text>
</a>
</g>
</g>
<!-- Node0&#45;&gt;Node8 -->
<g id="edge13" class="edge"><title>Node0&#45;&gt;Node8</title>
<path fill="none" stroke="midnightblue" d="M102.735,-231.841C123.772,-221.676 152.662,-208.467 179,-199 185.819,-196.549 192.996,-194.202 200.208,-191.996"/>
<polygon fill="midnightblue" stroke="midnightblue" points="201.444,-195.28 210.034,-189.078 199.451,-188.57 201.444,-195.28"/>
</g>
<!-- Node9 -->
<g id="node10" class="node"><title>Node9</title>
<g id="a_node10"><a xlink:href="group___check_incompatibilities.html#ga10cf2679904a3707519d3ddac171ce06" target="_top" xlink:title="Method to check statistics incompatibilities. ">
<polygon fill="white" stroke="black" points="212,-110 212,-140 331,-140 331,-110 212,-110"/>
<text text-anchor="start" x="220" y="-128" font-family="Helvetica,sans-Serif" font-size="10.00">trimAlManager::check</text>
<text text-anchor="middle" x="271.5" y="-117" font-family="Helvetica,sans-Serif" font-size="10.00">_stats_incompatibilities</text>
</a>
</g>
</g>
<!-- Node0&#45;&gt;Node9 -->
<g id="edge15" class="edge"><title>Node0&#45;&gt;Node9</title>
<path fill="none" stroke="midnightblue" d="M84.9623,-231.807C103.334,-210.399 139.773,-171.569 179,-150 186.26,-146.008 194.201,-142.619 202.274,-139.751"/>
<polygon fill="midnightblue" stroke="midnightblue" points="203.377,-143.073 211.779,-136.619 201.186,-136.425 203.377,-143.073"/>
</g>
<!-- Node10 -->
<g id="node11" class="node"><title>Node10</title>
<g id="a_node11"><a xlink:href="group___check_incompatibilities.html#ga3563c4066ac0340d27cc72508bf8949b" target="_top" xlink:title="Method to check incompatibilities related to how the algorithm should treat stop codons. ">
<polygon fill="white" stroke="black" points="190,-61 190,-91 353,-91 353,-61 190,-61"/>
<text text-anchor="start" x="198" y="-79" font-family="Helvetica,sans-Serif" font-size="10.00">trimAlManager::check</text>
<text text-anchor="middle" x="271.5" y="-68" font-family="Helvetica,sans-Serif" font-size="10.00">_codon_behaviour_incompatibility</text>
</a>
</g>
</g>
<!-- Node0&#45;&gt;Node10 -->
<g id="edge17" class="edge"><title>Node0&#45;&gt;Node10</title>
<path fill="none" stroke="midnightblue" d="M79.1795,-231.997C93.2037,-202.262 128.632,-135.729 179,-101 181.866,-99.0238 184.883,-97.2035 188.006,-95.5269"/>
<polygon fill="midnightblue" stroke="midnightblue" points="189.559,-98.6635 197.051,-91.1718 186.523,-92.3564 189.559,-98.6635"/>
</g>
<!-- Node11 -->
<g id="node12" class="node"><title>Node11</title>
<g id="a_node12"><a xlink:href="group___check_incompatibilities.html#gaa96711af8011305f73b3caee46ae0fd8" target="_top" xlink:title="As some thresholds are incompatible between them, we check their incompatibilities. ">
<polygon fill="white" stroke="black" points="189.5,-0.5 189.5,-41.5 353.5,-41.5 353.5,-0.5 189.5,-0.5"/>
<text text-anchor="start" x="197.5" y="-29.5" font-family="Helvetica,sans-Serif" font-size="10.00">trimAlManager::check</text>
<text text-anchor="start" x="197.5" y="-18.5" font-family="Helvetica,sans-Serif" font-size="10.00">_combinations_among_thresholds</text>
<text text-anchor="middle" x="271.5" y="-7.5" font-family="Helvetica,sans-Serif" font-size="10.00">_incompatibility</text>
</a>
</g>
</g>
<!-- Node0&#45;&gt;Node11 -->
<g id="edge19" class="edge"><title>Node0&#45;&gt;Node11</title>
<path fill="none" stroke="midnightblue" d="M76.5952,-231.864C87.2087,-195.474 119.047,-102.373 179,-52 181.023,-50.3007 183.142,-48.6931 185.34,-47.1724"/>
<polygon fill="midnightblue" stroke="midnightblue" points="187.491,-49.9583 194.162,-41.7276 183.814,-44.0016 187.491,-49.9583"/>
</g>
<!-- Node2 -->
<g id="node3" class="node"><title>Node2</title>
<g id="a_node3"><a xlink:href="class____internal_report_1_1____report_system.html#a94ce85b97d7b6c3e5fbda0d30a35edd0" target="_top" xlink:title="Method to report an Error. It will be displayed if VerboseManager::Level is equal or higher to Verbos...">
<polygon fill="white" stroke="black" points="400,-232 400,-262 516,-262 516,-232 400,-232"/>
<text text-anchor="start" x="408" y="-250" font-family="Helvetica,sans-Serif" font-size="10.00">__internalReport::</text>
<text text-anchor="middle" x="458" y="-239" font-family="Helvetica,sans-Serif" font-size="10.00">__reportSystem::report</text>
</a>
</g>
</g>
<!-- Node1&#45;&gt;Node2 -->
<g id="edge2" class="edge"><title>Node1&#45;&gt;Node2</title>
<path fill="none" stroke="midnightblue" d="M331.929,-471.931C343.509,-468.217 354.872,-462.823 364,-455 420.763,-406.355 444.401,-316.178 452.887,-272.298"/>
<polygon fill="midnightblue" stroke="midnightblue" points="456.379,-272.659 454.729,-262.194 449.492,-271.404 456.379,-272.659"/>
</g>
<!-- Node3&#45;&gt;Node2 -->
<g id="edge4" class="edge"><title>Node3&#45;&gt;Node2</title>
<path fill="none" stroke="midnightblue" d="M331.181,-412.446C342.812,-408.182 354.384,-402.514 364,-395 406.04,-362.15 434.2,-304.616 447.716,-271.797"/>
<polygon fill="midnightblue" stroke="midnightblue" points="450.987,-273.045 451.44,-262.459 444.485,-270.452 450.987,-273.045"/>
</g>
<!-- Node4&#45;&gt;Node2 -->
<g id="edge6" class="edge"><title>Node4&#45;&gt;Node2</title>
<path fill="none" stroke="midnightblue" d="M342.615,-356.02C350.084,-353.252 357.366,-349.946 364,-346 396.207,-326.844 424.263,-293.324 440.913,-270.654"/>
<polygon fill="midnightblue" stroke="midnightblue" points="443.948,-272.427 446.923,-262.258 438.256,-268.352 443.948,-272.427"/>
</g>
<!-- Node5&#45;&gt;Node2 -->
<g id="edge8" class="edge"><title>Node5&#45;&gt;Node2</title>
<path fill="none" stroke="midnightblue" d="M337.6,-305.964C346.578,-303.302 355.595,-300.308 364,-297 384.772,-288.826 406.826,-277.115 424.241,-267.081"/>
<polygon fill="midnightblue" stroke="midnightblue" points="426.033,-270.088 432.895,-262.015 422.497,-264.047 426.033,-270.088"/>
</g>
<!-- Node6&#45;&gt;Node2 -->
<g id="edge10" class="edge"><title>Node6&#45;&gt;Node2</title>
<path fill="none" stroke="midnightblue" d="M347.543,-261.832C361.456,-259.946 375.91,-257.988 389.578,-256.136"/>
<polygon fill="midnightblue" stroke="midnightblue" points="390.416,-259.554 399.855,-254.743 389.476,-252.618 390.416,-259.554"/>
</g>
<!-- Node7&#45;&gt;Node2 -->
<g id="edge12" class="edge"><title>Node7&#45;&gt;Node2</title>
<path fill="none" stroke="midnightblue" d="M337.029,-231.394C354.142,-233.62 372.658,-236.029 389.903,-238.272"/>
<polygon fill="midnightblue" stroke="midnightblue" points="389.523,-241.752 399.891,-239.571 390.426,-234.81 389.523,-241.752"/>
</g>
<!-- Node8&#45;&gt;Node2 -->
<g id="edge14" class="edge"><title>Node8&#45;&gt;Node2</title>
<path fill="none" stroke="midnightblue" d="M334.598,-189.069C344.546,-192.024 354.64,-195.353 364,-199 383.855,-206.737 405.037,-217.46 422.163,-226.808"/>
<polygon fill="midnightblue" stroke="midnightblue" points="420.782,-230.045 431.225,-231.833 424.177,-223.923 420.782,-230.045"/>
</g>
<!-- Node9&#45;&gt;Node2 -->
<g id="edge16" class="edge"><title>Node9&#45;&gt;Node2</title>
<path fill="none" stroke="midnightblue" d="M331.046,-135.934C342.438,-139.438 353.951,-144.023 364,-150 395.685,-168.846 423.69,-201.386 440.484,-223.533"/>
<polygon fill="midnightblue" stroke="midnightblue" points="437.8,-225.79 446.562,-231.746 443.427,-221.626 437.8,-225.79"/>
</g>
<!-- Node10&#45;&gt;Node2 -->
<g id="edge18" class="edge"><title>Node10&#45;&gt;Node2</title>
<path fill="none" stroke="midnightblue" d="M346.672,-91.0128C352.818,-93.7946 358.698,-97.0918 364,-101 406.532,-132.349 434.508,-189.5 447.861,-222.227"/>
<polygon fill="midnightblue" stroke="midnightblue" points="444.611,-223.526 451.536,-231.544 451.123,-220.957 444.611,-223.526"/>
</g>
<!-- Node11&#45;&gt;Node2 -->
<g id="edge20" class="edge"><title>Node11&#45;&gt;Node2</title>
<path fill="none" stroke="midnightblue" d="M349.524,-41.7047C354.711,-44.6901 359.611,-48.1018 364,-52 416.37,-98.5116 441.823,-180.93 451.762,-222.12"/>
<polygon fill="midnightblue" stroke="midnightblue" points="448.357,-222.929 454.012,-231.888 455.178,-221.357 448.357,-222.929"/>
</g>
</g>
</svg>
