<?xml version="1.0" encoding="UTF-8" standalone="no"?>
<!DOCTYPE svg PUBLIC "-//W3C//DTD SVG 1.1//EN"
 "http://www.w3.org/Graphics/SVG/1.1/DTD/svg11.dtd">
<!-- Generated by graphviz version 2.38.0 (20140413.2041)
 -->
<!-- Title: trimAlManager::perform Pages: 1 -->
<svg width="707pt" height="274pt"
 viewBox="0.00 0.00 707.00 274.00" xmlns="http://www.w3.org/2000/svg" xmlns:xlink="http://www.w3.org/1999/xlink">
<g id="graph0" class="graph" transform="scale(1 1) rotate(0) translate(4 270)">
<title>trimAlManager::perform</title>
<polygon fill="white" stroke="none" points="-4,4 -4,-270 703,-270 703,4 -4,4"/>
<!-- Node3 -->
<g id="node1" class="node"><title>Node3</title>
<polygon fill="#bfbfbf" stroke="black" points="0,-118 0,-137 119,-137 119,-118 0,-118"/>
<text text-anchor="middle" x="59.5" y="-125" font-family="Helvetica,sans-Serif" font-size="10.00">trimAlManager::perform</text>
</g>
<!-- Node4 -->
<g id="node2" class="node"><title>Node4</title>
<g id="a_node2"><a xlink:href="group___perform_algorithm.html#ga9fe53f593792efe2eafd54ec6e506bf3" target="_top" xlink:title="Method to set correct window sizes depending on values for them given by the user. ">
<polygon fill="white" stroke="black" points="180,-235.5 180,-265.5 279,-265.5 279,-235.5 180,-235.5"/>
<text text-anchor="start" x="188" y="-253.5" font-family="Helvetica,sans-Serif" font-size="10.00">trimAlManager::set</text>
<text text-anchor="middle" x="229.5" y="-242.5" font-family="Helvetica,sans-Serif" font-size="10.00">_window_size</text>
</a>
</g>
</g>
<!-- Node3&#45;&gt;Node4 -->
<g id="edge1" class="edge"><title>Node3&#45;&gt;Node4</title>
<path fill="none" stroke="midnightblue" d="M67.1461,-137.175C81.1348,-156.833 115.595,-201.678 155,-226.5 159.756,-229.496 164.923,-232.154 170.239,-234.504"/>
<polygon fill="midnightblue" stroke="midnightblue" points="169.328,-237.911 179.912,-238.41 171.949,-231.42 169.328,-237.911"/>
</g>
<!-- Node5 -->
<g id="node3" class="node"><title>Node5</title>
<g id="a_node3"><a xlink:href="group___perform_algorithm.html#ga3e8b2b5b4e1a44c498c47448840b6c69" target="_top" xlink:title="Method to create, load and use a similarity matrix, depending on alignment residue nature...">
<polygon fill="white" stroke="black" points="165.5,-186.5 165.5,-216.5 293.5,-216.5 293.5,-186.5 165.5,-186.5"/>
<text text-anchor="start" x="173.5" y="-204.5" font-family="Helvetica,sans-Serif" font-size="10.00">trimAlManager::create</text>
<text text-anchor="middle" x="229.5" y="-193.5" font-family="Helvetica,sans-Serif" font-size="10.00">_or_use_similarity_matrix</text>
</a>
</g>
</g>
<!-- Node3&#45;&gt;Node5 -->
<g id="edge2" class="edge"><title>Node3&#45;&gt;Node5</title>
<path fill="none" stroke="midnightblue" d="M76.4763,-137.039C94.9435,-147.807 126.463,-165.397 155,-177.5 159.402,-179.367 164.003,-181.18 168.661,-182.916"/>
<polygon fill="midnightblue" stroke="midnightblue" points="167.665,-186.277 178.259,-186.367 170.033,-179.69 167.665,-186.277"/>
</g>
<!-- Node6 -->
<g id="node4" class="node"><title>Node6</title>
<g id="a_node4"><a xlink:href="group___perform_algorithm.html#gafc48b86f5ae35b9a5e721b65c58bf610" target="_top" xlink:title="Method to print statistics requested. ">
<polygon fill="white" stroke="black" points="177.5,-137.5 177.5,-167.5 281.5,-167.5 281.5,-137.5 177.5,-137.5"/>
<text text-anchor="start" x="185.5" y="-155.5" font-family="Helvetica,sans-Serif" font-size="10.00">trimAlManager::print</text>
<text text-anchor="middle" x="229.5" y="-144.5" font-family="Helvetica,sans-Serif" font-size="10.00">_statistics</text>
</a>
</g>
</g>
<!-- Node3&#45;&gt;Node6 -->
<g id="edge3" class="edge"><title>Node3&#45;&gt;Node6</title>
<path fill="none" stroke="midnightblue" d="M119.258,-136.244C134.782,-138.554 151.574,-141.053 167.227,-143.382"/>
<polygon fill="midnightblue" stroke="midnightblue" points="166.918,-146.875 177.325,-144.885 167.949,-139.951 166.918,-146.875"/>
</g>
<!-- Node12 -->
<g id="node10" class="node"><title>Node12</title>
<g id="a_node10"><a xlink:href="group___perform_algorithm.html#gadc529dd893ed4e9df6f3ddbd58776068" target="_top" xlink:title="Core Method of the program. This is where almost all cleaning methods are called from. ">
<polygon fill="white" stroke="black" points="175,-88.5 175,-118.5 284,-118.5 284,-88.5 175,-88.5"/>
<text text-anchor="start" x="183" y="-106.5" font-family="Helvetica,sans-Serif" font-size="10.00">trimAlManager::clean</text>
<text text-anchor="middle" x="229.5" y="-95.5" font-family="Helvetica,sans-Serif" font-size="10.00">_alignment</text>
</a>
</g>
</g>
<!-- Node3&#45;&gt;Node12 -->
<g id="edge9" class="edge"><title>Node3&#45;&gt;Node12</title>
<path fill="none" stroke="midnightblue" d="M119.258,-119.106C133.942,-117.008 149.761,-114.748 164.677,-112.618"/>
<polygon fill="midnightblue" stroke="midnightblue" points="165.43,-116.046 174.835,-111.166 164.44,-109.116 165.43,-116.046"/>
</g>
<!-- Node13 -->
<g id="node11" class="node"><title>Node13</title>
<g id="a_node11"><a xlink:href="class_read_write_m_s.html#af81c55ae0e74802e3673f68e8e85fd2e" target="_top" xlink:title="Function to save an alignment to a file. It searched on the available_states, the one that can write ...">
<polygon fill="white" stroke="black" points="155,-50 155,-69 304,-69 304,-50 155,-50"/>
<text text-anchor="middle" x="229.5" y="-57" font-family="Helvetica,sans-Serif" font-size="10.00">ReadWriteMS::saveAlignment</text>
</a>
</g>
</g>
<!-- Node3&#45;&gt;Node13 -->
<g id="edge10" class="edge"><title>Node3&#45;&gt;Node13</title>
<path fill="none" stroke="midnightblue" d="M76.7585,-117.946C95.2243,-107.406 126.497,-90.4841 155,-79.5 162.288,-76.6914 170.126,-74.1142 177.871,-71.8111"/>
<polygon fill="midnightblue" stroke="midnightblue" points="178.926,-75.1498 187.585,-69.0436 177.008,-68.4177 178.926,-75.1498"/>
</g>
<!-- Node14 -->
<g id="node12" class="node"><title>Node14</title>
<g id="a_node12"><a xlink:href="group___other_methods.html#ga6678747256ac394eb8b4c648d403dcc8" target="_top" xlink:title="Method to delete all variables that need to be deallocated. ">
<polygon fill="white" stroke="black" points="173.5,-0.5 173.5,-30.5 285.5,-30.5 285.5,-0.5 173.5,-0.5"/>
<text text-anchor="start" x="181.5" y="-18.5" font-family="Helvetica,sans-Serif" font-size="10.00">trimAlManager::delete</text>
<text text-anchor="middle" x="229.5" y="-7.5" font-family="Helvetica,sans-Serif" font-size="10.00">_variables</text>
</a>
</g>
</g>
<!-- Node3&#45;&gt;Node14 -->
<g id="edge11" class="edge"><title>Node3&#45;&gt;Node14</title>
<path fill="none" stroke="midnightblue" d="M68.6005,-117.729C83.7997,-99.9749 118.379,-62.2518 155,-40.5 158.585,-38.3705 162.377,-36.3906 166.274,-34.5552"/>
<polygon fill="midnightblue" stroke="midnightblue" points="167.737,-37.7353 175.507,-30.5326 164.942,-31.3179 167.737,-37.7353"/>
</g>
<!-- Node7 -->
<g id="node5" class="node"><title>Node7</title>
<g id="a_node5"><a xlink:href="classcompare_files.html#aa1a295d736ec6d8064cd28cf861289ef" target="_top" xlink:title="Print the consistency value for each column from the selected alignment. ">
<polygon fill="white" stroke="black" points="340,-161.5 340,-191.5 481,-191.5 481,-161.5 340,-161.5"/>
<text text-anchor="start" x="348" y="-179.5" font-family="Helvetica,sans-Serif" font-size="10.00">compareFiles::printStatistics</text>
<text text-anchor="middle" x="410.5" y="-168.5" font-family="Helvetica,sans-Serif" font-size="10.00">FileColumns</text>
</a>
</g>
</g>
<!-- Node6&#45;&gt;Node7 -->
<g id="edge4" class="edge"><title>Node6&#45;&gt;Node7</title>
<path fill="none" stroke="midnightblue" d="M281.794,-159.377C296.766,-161.385 313.494,-163.628 329.784,-165.812"/>
<polygon fill="midnightblue" stroke="midnightblue" points="329.474,-169.301 339.85,-167.162 330.404,-162.364 329.474,-169.301"/>
</g>
<!-- Node8 -->
<g id="node6" class="node"><title>Node8</title>
<g id="a_node6"><a xlink:href="classcompare_files.html#a435d98e46d83c066a928e40d2dbcead9" target="_top" xlink:title="Print the accumulated consistency value from the selected alignment. ">
<polygon fill="white" stroke="black" points="340,-112.5 340,-142.5 481,-142.5 481,-112.5 340,-112.5"/>
<text text-anchor="start" x="348" y="-130.5" font-family="Helvetica,sans-Serif" font-size="10.00">compareFiles::printStatistics</text>
<text text-anchor="middle" x="410.5" y="-119.5" font-family="Helvetica,sans-Serif" font-size="10.00">FileAcl</text>
</a>
</g>
</g>
<!-- Node6&#45;&gt;Node8 -->
<g id="edge5" class="edge"><title>Node6&#45;&gt;Node8</title>
<path fill="none" stroke="midnightblue" d="M281.794,-145.336C296.766,-143.245 313.494,-140.909 329.784,-138.634"/>
<polygon fill="midnightblue" stroke="midnightblue" points="330.431,-142.077 339.85,-137.228 329.462,-135.145 330.431,-142.077"/>
</g>
<!-- Node9 -->
<g id="node7" class="node"><title>Node9</title>
<g id="a_node7"><a xlink:href="classutils.html#a42f272221edf7752ffda49e4212ef653" target="_top" xlink:title="Integer vector copying. ">
<polygon fill="white" stroke="black" points="517,-137 517,-156 599,-156 599,-137 517,-137"/>
<text text-anchor="middle" x="558" y="-144" font-family="Helvetica,sans-Serif" font-size="10.00">utils::copyVect</text>
</a>
</g>
</g>
<!-- Node8&#45;&gt;Node9 -->
<g id="edge6" class="edge"><title>Node8&#45;&gt;Node9</title>
<path fill="none" stroke="midnightblue" d="M481.267,-136.61C489.882,-137.735 498.553,-138.868 506.796,-139.944"/>
<polygon fill="midnightblue" stroke="midnightblue" points="506.602,-143.448 516.971,-141.273 507.508,-136.507 506.602,-143.448"/>
</g>
<!-- Node10 -->
<g id="node8" class="node"><title>Node10</title>
<g id="a_node8"><a xlink:href="classutils.html#a73f038c379c13d23e3220afaa14f9983" target="_top" xlink:title="Quicksort sorting method. ">
<polygon fill="white" stroke="black" points="518,-99 518,-118 598,-118 598,-99 518,-99"/>
<text text-anchor="middle" x="558" y="-106" font-family="Helvetica,sans-Serif" font-size="10.00">utils::quicksort</text>
</a>
</g>
</g>
<!-- Node8&#45;&gt;Node10 -->
<g id="edge7" class="edge"><title>Node8&#45;&gt;Node10</title>
<path fill="none" stroke="midnightblue" d="M481.267,-118.39C490.185,-117.225 499.163,-116.053 507.664,-114.942"/>
<polygon fill="midnightblue" stroke="midnightblue" points="508.298,-118.39 517.76,-113.624 507.391,-111.448 508.298,-118.39"/>
</g>
<!-- Node11 -->
<g id="node9" class="node"><title>Node11</title>
<g id="a_node9"><a xlink:href="classutils.html#a3377ecde55631d1bbc4956e5923b7469" target="_top" xlink:title="Swapping elements method. ">
<polygon fill="white" stroke="black" points="635,-99 635,-118 699,-118 699,-99 635,-99"/>
<text text-anchor="middle" x="667" y="-106" font-family="Helvetica,sans-Serif" font-size="10.00">utils::swap</text>
</a>
</g>
</g>
<!-- Node10&#45;&gt;Node11 -->
<g id="edge8" class="edge"><title>Node10&#45;&gt;Node11</title>
<path fill="none" stroke="midnightblue" d="M598.235,-108.5C606.801,-108.5 615.892,-108.5 624.541,-108.5"/>
<polygon fill="midnightblue" stroke="midnightblue" points="624.806,-112 634.806,-108.5 624.806,-105 624.806,-112"/>
</g>
</g>
</svg>
