<?xml version="1.0" encoding="UTF-8" standalone="no"?>
<!DOCTYPE svg PUBLIC "-//W3C//DTD SVG 1.1//EN"
 "http://www.w3.org/Graphics/SVG/1.1/DTD/svg11.dtd">
<!-- Generated by graphviz version 2.38.0 (20140413.2041)
 -->
<!-- Title: trimAlManager::check_stats_incompatibilities Pages: 1 -->
<svg width="462pt" height="39pt"
 viewBox="0.00 0.00 462.00 39.00" xmlns="http://www.w3.org/2000/svg" xmlns:xlink="http://www.w3.org/1999/xlink">
<g id="graph0" class="graph" transform="scale(1 1) rotate(0) translate(4 35)">
<title>trimAlManager::check_stats_incompatibilities</title>
<polygon fill="white" stroke="none" points="-4,4 -4,-35 458,-35 458,4 -4,4"/>
<!-- Node46 -->
<g id="node1" class="node"><title>Node46</title>
<polygon fill="#bfbfbf" stroke="black" points="0,-0.5 0,-30.5 119,-30.5 119,-0.5 0,-0.5"/>
<text text-anchor="start" x="8" y="-18.5" font-family="Helvetica,sans-Serif" font-size="10.00">trimAlManager::check</text>
<text text-anchor="middle" x="59.5" y="-7.5" font-family="Helvetica,sans-Serif" font-size="10.00">_stats_incompatibilities</text>
</g>
<!-- Node47 -->
<g id="node2" class="node"><title>Node47</title>
<g id="a_node2"><a xlink:href="group___check_incompatibilities.html#ga16d2da3f90cfe965bea5f1da1360e17a" target="_top" xlink:title="Method to check argument incompatibilities. Take in mind that an incompatibility is between two argum...">
<polygon fill="white" stroke="black" points="155,-0.5 155,-30.5 298,-30.5 298,-0.5 155,-0.5"/>
<text text-anchor="start" x="163" y="-18.5" font-family="Helvetica,sans-Serif" font-size="10.00">trimAlManager::check</text>
<text text-anchor="middle" x="226.5" y="-7.5" font-family="Helvetica,sans-Serif" font-size="10.00">_arguments_incompatibilities</text>
</a>
</g>
</g>
<!-- Node46&#45;&gt;Node47 -->
<g id="edge1" class="edge"><title>Node46&#45;&gt;Node47</title>
<path fill="none" stroke="midnightblue" d="M129.325,-15.5C137.778,-15.5 146.428,-15.5 154.906,-15.5"/>
<polygon fill="midnightblue" stroke="midnightblue" points="129.137,-12.0001 119.137,-15.5 129.137,-19.0001 129.137,-12.0001"/>
</g>
<!-- Node48 -->
<g id="node3" class="node"><title>Node48</title>
<g id="a_node3"><a xlink:href="group___trimal_parsing_arguments.html#gae8565b76a7e277d37e3c78a6c6165343" target="_top" xlink:title="Method to process the information obtained by trimAlManager::parseArguments It checks for argument in...">
<polygon fill="white" stroke="black" points="334,-0.5 334,-30.5 454,-30.5 454,-0.5 334,-0.5"/>
<text text-anchor="start" x="342" y="-18.5" font-family="Helvetica,sans-Serif" font-size="10.00">trimAlManager::process</text>
<text text-anchor="middle" x="394" y="-7.5" font-family="Helvetica,sans-Serif" font-size="10.00">_arguments</text>
</a>
</g>
</g>
<!-- Node47&#45;&gt;Node48 -->
<g id="edge2" class="edge"><title>Node47&#45;&gt;Node48</title>
<path fill="none" stroke="midnightblue" d="M308.232,-15.5C316.837,-15.5 325.471,-15.5 333.761,-15.5"/>
<polygon fill="midnightblue" stroke="midnightblue" points="308.167,-12.0001 298.167,-15.5 308.167,-19.0001 308.167,-12.0001"/>
</g>
</g>
</svg>
