<?xml version="1.0" encoding="UTF-8" standalone="no"?>
<!DOCTYPE svg PUBLIC "-//W3C//DTD SVG 1.1//EN"
 "http://www.w3.org/Graphics/SVG/1.1/DTD/svg11.dtd">
<!-- Generated by graphviz version 2.38.0 (20140413.2041)
 -->
<!-- Title: trimAlManager::seqs_select_argument Pages: 1 -->
<svg width="267pt" height="78pt"
 viewBox="0.00 0.00 267.00 77.50" xmlns="http://www.w3.org/2000/svg" xmlns:xlink="http://www.w3.org/1999/xlink">
<g id="graph0" class="graph" transform="scale(1 1) rotate(0) translate(4 73.5)">
<title>trimAlManager::seqs_select_argument</title>
<polygon fill="white" stroke="none" points="-4,4 -4,-73.5 263,-73.5 263,4 -4,4"/>
<!-- Node170 -->
<g id="node1" class="node"><title>Node170</title>
<polygon fill="#bfbfbf" stroke="black" points="0,-22.5 0,-52.5 107,-52.5 107,-22.5 0,-22.5"/>
<text text-anchor="start" x="8" y="-40.5" font-family="Helvetica,sans-Serif" font-size="10.00">trimAlManager::seqs</text>
<text text-anchor="middle" x="53.5" y="-29.5" font-family="Helvetica,sans-Serif" font-size="10.00">_select_argument</text>
</g>
<!-- Node171 -->
<g id="node2" class="node"><title>Node171</title>
<g id="a_node2"><a xlink:href="classutils.html#adb8231f84743d1c51e391ab3234714c6" target="_top" xlink:title="Reads a line and converts it to an array of number. ">
<polygon fill="white" stroke="black" points="151.5,-50 151.5,-69 250.5,-69 250.5,-50 151.5,-50"/>
<text text-anchor="middle" x="201" y="-57" font-family="Helvetica,sans-Serif" font-size="10.00">utils::readNumbers</text>
</a>
</g>
</g>
<!-- Node170&#45;&gt;Node171 -->
<g id="edge1" class="edge"><title>Node170&#45;&gt;Node171</title>
<path fill="none" stroke="midnightblue" d="M107.029,-45.4425C118.122,-47.1198 129.897,-48.9002 141.204,-50.6099"/>
<polygon fill="midnightblue" stroke="midnightblue" points="141.013,-54.1208 151.424,-52.1552 142.06,-47.1994 141.013,-54.1208"/>
</g>
<!-- Node172 -->
<g id="node3" class="node"><title>Node172</title>
<g id="a_node3"><a xlink:href="class____internal_report_1_1____report_system.html#a94ce85b97d7b6c3e5fbda0d30a35edd0" target="_top" xlink:title="Method to report an Error. It will be displayed if VerboseManager::Level is equal or higher to Verbos...">
<polygon fill="white" stroke="black" points="143,-0.5 143,-30.5 259,-30.5 259,-0.5 143,-0.5"/>
<text text-anchor="start" x="151" y="-18.5" font-family="Helvetica,sans-Serif" font-size="10.00">__internalReport::</text>
<text text-anchor="middle" x="201" y="-7.5" font-family="Helvetica,sans-Serif" font-size="10.00">__reportSystem::report</text>
</a>
</g>
</g>
<!-- Node170&#45;&gt;Node172 -->
<g id="edge2" class="edge"><title>Node170&#45;&gt;Node172</title>
<path fill="none" stroke="midnightblue" d="M107.029,-29.5575C115.337,-28.3013 124.027,-26.9874 132.616,-25.6886"/>
<polygon fill="midnightblue" stroke="midnightblue" points="133.261,-29.131 142.625,-24.1752 132.214,-22.2097 133.261,-29.131"/>
</g>
</g>
</svg>
