<?xml version="1.0" encoding="UTF-8" standalone="no"?>
<!DOCTYPE svg PUBLIC "-//W3C//DTD SVG 1.1//EN"
 "http://www.w3.org/Graphics/SVG/1.1/DTD/svg11.dtd">
<!-- Generated by graphviz version 2.38.0 (20140413.2041)
 -->
<!-- Title: trimAlManager::check_multiple_files_comparison Pages: 1 -->
<svg width="500pt" height="224pt"
 viewBox="0.00 0.00 500.00 223.50" xmlns="http://www.w3.org/2000/svg" xmlns:xlink="http://www.w3.org/1999/xlink">
<g id="graph0" class="graph" transform="scale(1 1) rotate(0) translate(4 219.5)">
<title>trimAlManager::check_multiple_files_comparison</title>
<polygon fill="white" stroke="none" points="-4,4 -4,-219.5 496,-219.5 496,4 -4,4"/>
<!-- Node73 -->
<g id="node1" class="node"><title>Node73</title>
<polygon fill="#bfbfbf" stroke="black" points="0,-90 0,-120 134,-120 134,-90 0,-90"/>
<text text-anchor="start" x="8" y="-108" font-family="Helvetica,sans-Serif" font-size="10.00">trimAlManager::check</text>
<text text-anchor="middle" x="67" y="-97" font-family="Helvetica,sans-Serif" font-size="10.00">_multiple_files_comparison</text>
</g>
<!-- Node74 -->
<g id="node2" class="node"><title>Node74</title>
<g id="a_node2"><a xlink:href="class_read_write_m_s.html#a9dde337280e5598f9006b3b436112caf" target="_top" xlink:title="Function that creates an alignment from a filepath. It automatically detects the format of the file...">
<polygon fill="white" stroke="black" points="182,-190.5 182,-209.5 328,-209.5 328,-190.5 182,-190.5"/>
<text text-anchor="middle" x="255" y="-197.5" font-family="Helvetica,sans-Serif" font-size="10.00">ReadWriteMS::loadAlignment</text>
</a>
</g>
</g>
<!-- Node73&#45;&gt;Node74 -->
<g id="edge1" class="edge"><title>Node73&#45;&gt;Node74</title>
<path fill="none" stroke="midnightblue" d="M85.6664,-120.039C105.164,-135.955 138.034,-160.826 170,-176 179.553,-180.534 190.132,-184.379 200.471,-187.573"/>
<polygon fill="midnightblue" stroke="midnightblue" points="199.688,-190.991 210.268,-190.438 201.652,-184.272 199.688,-190.991"/>
</g>
<!-- Node75 -->
<g id="node3" class="node"><title>Node75</title>
<g id="a_node3"><a xlink:href="class____internal_report_1_1____report_system.html#a94ce85b97d7b6c3e5fbda0d30a35edd0" target="_top" xlink:title="Method to report an Error. It will be displayed if VerboseManager::Level is equal or higher to Verbos...">
<polygon fill="white" stroke="black" points="376,-109 376,-139 492,-139 492,-109 376,-109"/>
<text text-anchor="start" x="384" y="-127" font-family="Helvetica,sans-Serif" font-size="10.00">__internalReport::</text>
<text text-anchor="middle" x="434" y="-116" font-family="Helvetica,sans-Serif" font-size="10.00">__reportSystem::report</text>
</a>
</g>
</g>
<!-- Node73&#45;&gt;Node75 -->
<g id="edge4" class="edge"><title>Node73&#45;&gt;Node75</title>
<path fill="none" stroke="midnightblue" d="M99.7816,-120.192C119.499,-128.762 145.637,-138.609 170,-143 244.358,-156.401 264.828,-150.6 340,-143 348.367,-142.154 357.094,-140.89 365.704,-139.409"/>
<polygon fill="midnightblue" stroke="midnightblue" points="366.52,-142.818 375.73,-137.582 365.265,-135.932 366.52,-142.818"/>
</g>
<!-- Node77 -->
<g id="node5" class="node"><title>Node77</title>
<g id="a_node5"><a xlink:href="classcompare_files.html#ac2c0cb68eb0538d19a2688cb3d7fab37" target="_top" xlink:title="Method to compare a set of alignments to select the most consistent one respect the others...">
<polygon fill="white" stroke="black" points="194.5,-76.5 194.5,-95.5 315.5,-95.5 315.5,-76.5 194.5,-76.5"/>
<text text-anchor="middle" x="255" y="-83.5" font-family="Helvetica,sans-Serif" font-size="10.00">compareFiles::algorithm</text>
</a>
</g>
</g>
<!-- Node73&#45;&gt;Node77 -->
<g id="edge5" class="edge"><title>Node73&#45;&gt;Node77</title>
<path fill="none" stroke="midnightblue" d="M134.1,-98.2478C150.357,-96.5872 167.813,-94.804 184.236,-93.1264"/>
<polygon fill="midnightblue" stroke="midnightblue" points="184.716,-96.5957 194.309,-92.0975 184.005,-89.6319 184.716,-96.5957"/>
</g>
<!-- Node79 -->
<g id="node7" class="node"><title>Node79</title>
<g id="a_node7"><a xlink:href="classcompare_files.html#aad9a46ed0c7ed28f7095ca3aeb5b651b" target="_top" xlink:title="Applies a new window to the alignment. ">
<polygon fill="white" stroke="black" points="185,-0.5 185,-19.5 325,-19.5 325,-0.5 185,-0.5"/>
<text text-anchor="middle" x="255" y="-7.5" font-family="Helvetica,sans-Serif" font-size="10.00">compareFiles::applyWindow</text>
</a>
</g>
</g>
<!-- Node73&#45;&gt;Node79 -->
<g id="edge8" class="edge"><title>Node73&#45;&gt;Node79</title>
<path fill="none" stroke="midnightblue" d="M83.9252,-89.732C102.903,-72.3958 136.299,-44.5132 170,-29 175.395,-26.5168 181.137,-24.3468 186.99,-22.4525"/>
<polygon fill="midnightblue" stroke="midnightblue" points="188.307,-25.7129 196.902,-19.5184 186.32,-19.0008 188.307,-25.7129"/>
</g>
<!-- Node81 -->
<g id="node9" class="node"><title>Node81</title>
<g id="a_node9"><a xlink:href="classcompare_files.html#af54a4eb6dfb673389b22c5b345ac689e" target="_top" xlink:title="Method to obtain the consistency values vector for a given alignment against a set of alignments with...">
<polygon fill="white" stroke="black" points="177.5,-38.5 177.5,-57.5 332.5,-57.5 332.5,-38.5 177.5,-38.5"/>
<text text-anchor="middle" x="255" y="-45.5" font-family="Helvetica,sans-Serif" font-size="10.00">compareFiles::forceComparison</text>
</a>
</g>
</g>
<!-- Node73&#45;&gt;Node81 -->
<g id="edge10" class="edge"><title>Node73&#45;&gt;Node81</title>
<path fill="none" stroke="midnightblue" d="M104.897,-89.8893C124.1,-82.3747 148.086,-73.5283 170,-67 178.537,-64.4567 187.65,-62.0682 196.609,-59.9"/>
<polygon fill="midnightblue" stroke="midnightblue" points="197.684,-63.2429 206.619,-57.5493 196.083,-56.4283 197.684,-63.2429"/>
</g>
<!-- Node82 -->
<g id="node10" class="node"><title>Node82</title>
<g id="a_node10"><a xlink:href="class_read_write_m_s.html#a5235fb14e8fb57c0d21a2b5a2c9d1666" target="_top" xlink:title="Function to obtain the format name of a given file. ">
<polygon fill="white" stroke="black" points="170,-114.5 170,-133.5 340,-133.5 340,-114.5 170,-114.5"/>
<text text-anchor="middle" x="255" y="-121.5" font-family="Helvetica,sans-Serif" font-size="10.00">ReadWriteMS::getFileFormatName</text>
</a>
</g>
</g>
<!-- Node73&#45;&gt;Node82 -->
<g id="edge13" class="edge"><title>Node73&#45;&gt;Node82</title>
<path fill="none" stroke="midnightblue" d="M134.1,-111.752C142.431,-112.603 151.077,-113.486 159.737,-114.371"/>
<polygon fill="midnightblue" stroke="midnightblue" points="159.588,-117.874 169.892,-115.408 160.299,-110.91 159.588,-117.874"/>
</g>
<!-- Node74&#45;&gt;Node75 -->
<g id="edge2" class="edge"><title>Node74&#45;&gt;Node75</title>
<path fill="none" stroke="midnightblue" d="M296.385,-190.497C310.432,-186.66 326.136,-181.765 340,-176 361.09,-167.23 383.472,-154.823 400.992,-144.327"/>
<polygon fill="midnightblue" stroke="midnightblue" points="402.954,-147.23 409.678,-139.042 399.316,-141.25 402.954,-147.23"/>
</g>
<!-- Node76 -->
<g id="node4" class="node"><title>Node76</title>
<g id="a_node4"><a xlink:href="class_read_write_base_state.html#ac6d87d2b73337cb4afa1499bf218f4ab" target="_top" xlink:title="Function to load a file in the current format and return an alignment object. ">
<polygon fill="white" stroke="black" points="379.5,-185 379.5,-215 488.5,-215 488.5,-185 379.5,-185"/>
<text text-anchor="start" x="387.5" y="-203" font-family="Helvetica,sans-Serif" font-size="10.00">ReadWriteBaseState</text>
<text text-anchor="middle" x="434" y="-192" font-family="Helvetica,sans-Serif" font-size="10.00">::LoadAlignment</text>
</a>
</g>
</g>
<!-- Node74&#45;&gt;Node76 -->
<g id="edge3" class="edge"><title>Node74&#45;&gt;Node76</title>
<path fill="none" stroke="midnightblue" d="M328.248,-200C341.883,-200 356.051,-200 369.397,-200"/>
<polygon fill="midnightblue" stroke="midnightblue" points="369.42,-203.5 379.42,-200 369.42,-196.5 369.42,-203.5"/>
</g>
<!-- Node77&#45;&gt;Node75 -->
<g id="edge6" class="edge"><title>Node77&#45;&gt;Node75</title>
<path fill="none" stroke="midnightblue" d="M300.665,-95.589C320.469,-99.8409 344.192,-104.934 366.048,-109.626"/>
<polygon fill="midnightblue" stroke="midnightblue" points="365.426,-113.072 375.938,-111.749 366.895,-106.228 365.426,-113.072"/>
</g>
<!-- Node78 -->
<g id="node6" class="node"><title>Node78</title>
<g id="a_node6"><a xlink:href="classutils.html#aac322cd1761fddedec8a5792e358eb32" target="_top" xlink:title="Vector initialization. ">
<polygon fill="white" stroke="black" points="396,-54.5 396,-73.5 472,-73.5 472,-54.5 396,-54.5"/>
<text text-anchor="middle" x="434" y="-61.5" font-family="Helvetica,sans-Serif" font-size="10.00">utils::initlVect</text>
</a>
</g>
</g>
<!-- Node77&#45;&gt;Node78 -->
<g id="edge7" class="edge"><title>Node77&#45;&gt;Node78</title>
<path fill="none" stroke="midnightblue" d="M315.924,-78.5518C338.678,-75.7237 364.254,-72.5447 385.684,-69.881"/>
<polygon fill="midnightblue" stroke="midnightblue" points="386.349,-73.3254 395.841,-68.6186 385.486,-66.3789 386.349,-73.3254"/>
</g>
<!-- Node80 -->
<g id="node8" class="node"><title>Node80</title>
<g id="a_node8"><a xlink:href="classutils.html#a42f272221edf7752ffda49e4212ef653" target="_top" xlink:title="Integer vector copying. ">
<polygon fill="white" stroke="black" points="393,-0.5 393,-19.5 475,-19.5 475,-0.5 393,-0.5"/>
<text text-anchor="middle" x="434" y="-7.5" font-family="Helvetica,sans-Serif" font-size="10.00">utils::copyVect</text>
</a>
</g>
</g>
<!-- Node79&#45;&gt;Node80 -->
<g id="edge9" class="edge"><title>Node79&#45;&gt;Node80</title>
<path fill="none" stroke="midnightblue" d="M325.193,-10C344.403,-10 364.888,-10 382.785,-10"/>
<polygon fill="midnightblue" stroke="midnightblue" points="382.995,-13.5001 392.994,-10 382.994,-6.5001 382.995,-13.5001"/>
</g>
<!-- Node81&#45;&gt;Node75 -->
<g id="edge12" class="edge"><title>Node81&#45;&gt;Node75</title>
<path fill="none" stroke="midnightblue" d="M310.576,-57.6075C320.544,-60.1276 330.72,-63.2271 340,-67 362.707,-76.2317 386.227,-90.6999 403.933,-102.749"/>
<polygon fill="midnightblue" stroke="midnightblue" points="402.418,-105.958 412.627,-108.789 406.411,-100.209 402.418,-105.958"/>
</g>
<!-- Node81&#45;&gt;Node78 -->
<g id="edge11" class="edge"><title>Node81&#45;&gt;Node78</title>
<path fill="none" stroke="midnightblue" d="M332.605,-54.9248C350.54,-56.5459 369.138,-58.2271 385.381,-59.6954"/>
<polygon fill="midnightblue" stroke="midnightblue" points="385.41,-63.2122 395.684,-60.6268 386.04,-56.2407 385.41,-63.2122"/>
</g>
<!-- Node82&#45;&gt;Node75 -->
<g id="edge14" class="edge"><title>Node82&#45;&gt;Node75</title>
<path fill="none" stroke="midnightblue" d="M340.094,-124C348.718,-124 357.398,-124 365.806,-124"/>
<polygon fill="midnightblue" stroke="midnightblue" points="365.904,-127.5 375.904,-124 365.904,-120.5 365.904,-127.5"/>
</g>
</g>
</svg>
