<?xml version="1.0" encoding="UTF-8" standalone="no"?>
<!DOCTYPE svg PUBLIC "-//W3C//DTD SVG 1.1//EN"
 "http://www.w3.org/Graphics/SVG/1.1/DTD/svg11.dtd">
<!-- Generated by graphviz version 2.38.0 (20140413.2041)
 -->
<!-- Title: trimAlManager::perform Pages: 1 -->
<svg width="707pt" height="274pt"
 viewBox="0.00 0.00 707.00 274.00" xmlns="http://www.w3.org/2000/svg" xmlns:xlink="http://www.w3.org/1999/xlink">
<g id="graph0" class="graph" transform="scale(1 1) rotate(0) translate(4 270)">
<title>trimAlManager::perform</title>
<polygon fill="white" stroke="none" points="-4,4 -4,-270 703,-270 703,4 -4,4"/>
<!-- Node3 -->
<g id="node1" class="node"><title>Node3</title>
<polygon fill="#bfbfbf" stroke="black" points="0,-118 0,-137 119,-137 119,-118 0,-118"/>
<text text-anchor="middle" x="59.5" y="-125" font-family="Helvetica,sans-Serif" font-size="10.00">trimAlManager::perform</text>
</g>
<!-- Node4 -->
<g id="node2" class="node"><title>Node4</title>
<g id="a_node2"><a xlink:href="group___perform_algorithm.html#ga9fe53f593792efe2eafd54ec6e506bf3" target="_top" xlink:title="Method to set correct window sizes depending on values for them given by the user. ">
<polygon fill="white" stroke="black" points="180,-235.5 180,-265.5 279,-265.5 279,-235.5 180,-235.5"/>
<text text-anchor="start" x="188" y="-253.5" font-family="Helvetica,sans-Serif" font-size="10.00">trimAlManager::set</text>
<text text-anchor="middle" x="229.5" y="-242.5" font-family="Helvetica,sans-Serif" font-size="10.00">_window_size</text>
</a>
</g>
</g>
<!-- Node3&#45;&gt;Node4 -->
<g id="edge1" class="edge"><title>Node3&#45;&gt;Node4</title>
<path fill="none" stroke="midnightblue" d="M67.1461,-137.175C81.1348,-156.833 115.595,-201.678 155,-226.5 159.756,-229.496 164.923,-232.154 170.239,-234.504"/>
<polygon fill="midnightblue" stroke="midnightblue" points="169.328,-237.911 179.912,-238.41 171.949,-231.42 169.328,-237.911"/>
</g>
<!-- Node5 -->
<g id="node3" class="node"><title>Node5</title>
<g id="a_node3"><a xlink:href="group___perform_algorithm.html#ga3e8b2b5b4e1a44c498c47448840b6c69" target="_top" xlink:title="Method to create, load and use a similarity matrix, depending on alignment residue nature...">
<polygon fill="white" stroke="black" points="165.5,-186.5 165.5,-216.5 293.5,-216.5 293.5,-186.5 165.5,-186.5"/>
<text text-anchor="start" x="173.5" y="-204.5" font-family="Helvetica,sans-Serif" font-size="10.00">trimAlManager::create</text>
<text text-anchor="middle" x="229.5" y="-193.5" font-family="Helvetica,sans-Serif" font-size="10.00">_or_use_similarity_matrix</text>
</a>
</g>
</g>
<!-- Node3&#45;&gt;Node5 -->
<g id="edge2" class="edge"><title>Node3&#45;&gt;Node5</title>
<path fill="none" stroke="midnightblue" d="M77.2007,-137.138C95.8017,-147.64 126.951,-164.538 155,-176.5 160.114,-178.681 165.489,-180.808 170.907,-182.842"/>
<polygon fill="midnightblue" stroke="midnightblue" points="170.065,-186.261 180.659,-186.395 172.461,-179.684 170.065,-186.261"/>
</g>
<!-- Node6 -->
<g id="node4" class="node"><title>Node6</title>
<g id="a_node4"><a xlink:href="group___perform_algorithm.html#gafc48b86f5ae35b9a5e721b65c58bf610" target="_top" xlink:title="Method to print statistics requested. ">
<polygon fill="white" stroke="black" points="177.5,-137.5 177.5,-167.5 281.5,-167.5 281.5,-137.5 177.5,-137.5"/>
<text text-anchor="start" x="185.5" y="-155.5" font-family="Helvetica,sans-Serif" font-size="10.00">trimAlManager::print</text>
<text text-anchor="middle" x="229.5" y="-144.5" font-family="Helvetica,sans-Serif" font-size="10.00">_statistics</text>
</a>
</g>
</g>
<!-- Node3&#45;&gt;Node6 -->
<g id="edge3" class="edge"><title>Node3&#45;&gt;Node6</title>
<path fill="none" stroke="midnightblue" d="M119.258,-136.244C134.782,-138.554 151.574,-141.053 167.227,-143.382"/>
<polygon fill="midnightblue" stroke="midnightblue" points="166.918,-146.875 177.325,-144.885 167.949,-139.951 166.918,-146.875"/>
</g>
<!-- Node12 -->
<g id="node10" class="node"><title>Node12</title>
<g id="a_node10"><a xlink:href="group___perform_algorithm.html#gadc529dd893ed4e9df6f3ddbd58776068" target="_top" xlink:title="Core Method of the program. This is where almost all cleaning methods are called from. ">
<polygon fill="white" stroke="black" points="175,-88.5 175,-118.5 284,-118.5 284,-88.5 175,-88.5"/>
<text text-anchor="start" x="183" y="-106.5" font-family="Helvetica,sans-Serif" font-size="10.00">trimAlManager::clean</text>
<text text-anchor="middle" x="229.5" y="-95.5" font-family="Helvetica,sans-Serif" font-size="10.00">_alignment</text>
</a>
</g>
</g>
<!-- Node3&#45;&gt;Node12 -->
<g id="edge9" class="edge"><title>Node3&#45;&gt;Node12</title>
<path fill="none" stroke="midnightblue" d="M119.258,-119.106C133.942,-117.008 149.761,-114.748 164.677,-112.618"/>
<polygon fill="midnightblue" stroke="midnightblue" points="165.43,-116.046 174.835,-111.166 164.44,-109.116 165.43,-116.046"/>
</g>
<!-- Node13 -->
<g id="node11" class="node"><title>Node13</title>
<g id="a_node11"><a xlink:href="class_read_write_m_s.html#a96e81b9c1bb49a746bc923b0ecf9b0d0" target="_top" xlink:title="Function to save an alignment to a file. It searched on the available_states, the one that can write ...">
<polygon fill="white" stroke="black" points="155,-50 155,-69 304,-69 304,-50 155,-50"/>
<text text-anchor="middle" x="229.5" y="-57" font-family="Helvetica,sans-Serif" font-size="10.00">ReadWriteMS::saveAlignment</text>
</a>
</g>
</g>
<!-- Node3&#45;&gt;Node13 -->
<g id="edge10" class="edge"><title>Node3&#45;&gt;Node13</title>
<path fill="none" stroke="midnightblue" d="M76.3727,-117.852C94.7448,-107.025 126.178,-89.5354 155,-78.5 161.368,-76.0619 168.163,-73.8333 174.954,-71.8291"/>
<polygon fill="midnightblue" stroke="midnightblue" points="176.165,-75.1245 184.849,-69.0549 174.276,-68.3844 176.165,-75.1245"/>
</g>
<!-- Node16 -->
<g id="node14" class="node"><title>Node16</title>
<g id="a_node14"><a xlink:href="group___other_methods.html#ga6678747256ac394eb8b4c648d403dcc8" target="_top" xlink:title="Method to delete all variables that need to be deallocated. ">
<polygon fill="white" stroke="black" points="173.5,-0.5 173.5,-30.5 285.5,-30.5 285.5,-0.5 173.5,-0.5"/>
<text text-anchor="start" x="181.5" y="-18.5" font-family="Helvetica,sans-Serif" font-size="10.00">trimAlManager::delete</text>
<text text-anchor="middle" x="229.5" y="-7.5" font-family="Helvetica,sans-Serif" font-size="10.00">_variables</text>
</a>
</g>
</g>
<!-- Node3&#45;&gt;Node16 -->
<g id="edge13" class="edge"><title>Node3&#45;&gt;Node16</title>
<path fill="none" stroke="midnightblue" d="M68.6005,-117.729C83.7997,-99.9749 118.379,-62.2518 155,-40.5 158.585,-38.3705 162.377,-36.3906 166.274,-34.5552"/>
<polygon fill="midnightblue" stroke="midnightblue" points="167.737,-37.7353 175.507,-30.5326 164.942,-31.3179 167.737,-37.7353"/>
</g>
<!-- Node7 -->
<g id="node5" class="node"><title>Node7</title>
<g id="a_node5"><a xlink:href="classcompare_files.html#aa1a295d736ec6d8064cd28cf861289ef" target="_top" xlink:title="Print the consistency value for each column from the selected alignment. ">
<polygon fill="white" stroke="black" points="340,-156.5 340,-186.5 481,-186.5 481,-156.5 340,-156.5"/>
<text text-anchor="start" x="348" y="-174.5" font-family="Helvetica,sans-Serif" font-size="10.00">compareFiles::printStatistics</text>
<text text-anchor="middle" x="410.5" y="-163.5" font-family="Helvetica,sans-Serif" font-size="10.00">FileColumns</text>
</a>
</g>
</g>
<!-- Node6&#45;&gt;Node7 -->
<g id="edge4" class="edge"><title>Node6&#45;&gt;Node7</title>
<path fill="none" stroke="midnightblue" d="M281.794,-157.945C296.766,-159.534 313.494,-161.309 329.784,-163.038"/>
<polygon fill="midnightblue" stroke="midnightblue" points="329.537,-166.532 339.85,-164.107 330.276,-159.571 329.537,-166.532"/>
</g>
<!-- Node8 -->
<g id="node6" class="node"><title>Node8</title>
<g id="a_node6"><a xlink:href="classcompare_files.html#a435d98e46d83c066a928e40d2dbcead9" target="_top" xlink:title="Print the accumulated consistency value from the selected alignment. ">
<polygon fill="white" stroke="black" points="340,-107.5 340,-137.5 481,-137.5 481,-107.5 340,-107.5"/>
<text text-anchor="start" x="348" y="-125.5" font-family="Helvetica,sans-Serif" font-size="10.00">compareFiles::printStatistics</text>
<text text-anchor="middle" x="410.5" y="-114.5" font-family="Helvetica,sans-Serif" font-size="10.00">FileAcl</text>
</a>
</g>
</g>
<!-- Node6&#45;&gt;Node8 -->
<g id="edge5" class="edge"><title>Node6&#45;&gt;Node8</title>
<path fill="none" stroke="midnightblue" d="M281.794,-143.903C296.766,-141.394 313.494,-138.59 329.784,-135.86"/>
<polygon fill="midnightblue" stroke="midnightblue" points="330.567,-139.278 339.85,-134.173 329.409,-132.374 330.567,-139.278"/>
</g>
<!-- Node9 -->
<g id="node7" class="node"><title>Node9</title>
<g id="a_node7"><a xlink:href="classutils.html#a42f272221edf7752ffda49e4212ef653" target="_top" xlink:title="Integer vector copying. ">
<polygon fill="white" stroke="black" points="517,-132 517,-151 599,-151 599,-132 517,-132"/>
<text text-anchor="middle" x="558" y="-139" font-family="Helvetica,sans-Serif" font-size="10.00">utils::copyVect</text>
</a>
</g>
</g>
<!-- Node8&#45;&gt;Node9 -->
<g id="edge6" class="edge"><title>Node8&#45;&gt;Node9</title>
<path fill="none" stroke="midnightblue" d="M481.267,-131.61C489.882,-132.735 498.553,-133.868 506.796,-134.944"/>
<polygon fill="midnightblue" stroke="midnightblue" points="506.602,-138.448 516.971,-136.273 507.508,-131.507 506.602,-138.448"/>
</g>
<!-- Node10 -->
<g id="node8" class="node"><title>Node10</title>
<g id="a_node8"><a xlink:href="classutils.html#a73f038c379c13d23e3220afaa14f9983" target="_top" xlink:title="Quicksort sorting method. ">
<polygon fill="white" stroke="black" points="518,-94 518,-113 598,-113 598,-94 518,-94"/>
<text text-anchor="middle" x="558" y="-101" font-family="Helvetica,sans-Serif" font-size="10.00">utils::quicksort</text>
</a>
</g>
</g>
<!-- Node8&#45;&gt;Node10 -->
<g id="edge7" class="edge"><title>Node8&#45;&gt;Node10</title>
<path fill="none" stroke="midnightblue" d="M481.267,-113.39C490.185,-112.225 499.163,-111.053 507.664,-109.942"/>
<polygon fill="midnightblue" stroke="midnightblue" points="508.298,-113.39 517.76,-108.624 507.391,-106.448 508.298,-113.39"/>
</g>
<!-- Node11 -->
<g id="node9" class="node"><title>Node11</title>
<g id="a_node9"><a xlink:href="classutils.html#a3377ecde55631d1bbc4956e5923b7469" target="_top" xlink:title="Swapping elements method. ">
<polygon fill="white" stroke="black" points="635,-94 635,-113 699,-113 699,-94 635,-94"/>
<text text-anchor="middle" x="667" y="-101" font-family="Helvetica,sans-Serif" font-size="10.00">utils::swap</text>
</a>
</g>
</g>
<!-- Node10&#45;&gt;Node11 -->
<g id="edge8" class="edge"><title>Node10&#45;&gt;Node11</title>
<path fill="none" stroke="midnightblue" d="M598.235,-103.5C606.801,-103.5 615.892,-103.5 624.541,-103.5"/>
<polygon fill="midnightblue" stroke="midnightblue" points="624.806,-107 634.806,-103.5 624.806,-100 624.806,-107"/>
</g>
<!-- Node14 -->
<g id="node12" class="node"><title>Node14</title>
<g id="a_node12"><a xlink:href="classutils.html#ab0cb109dc7e12b42abd4cba86f7d8e78" target="_top" xlink:title="Function that replaces a substring with another substring in a string. It makes a copy of the origina...">
<polygon fill="white" stroke="black" points="359.5,-69 359.5,-88 461.5,-88 461.5,-69 359.5,-69"/>
<text text-anchor="middle" x="410.5" y="-76" font-family="Helvetica,sans-Serif" font-size="10.00">utils::ReplaceString</text>
</a>
</g>
</g>
<!-- Node13&#45;&gt;Node14 -->
<g id="edge11" class="edge"><title>Node13&#45;&gt;Node14</title>
<path fill="none" stroke="midnightblue" d="M304.081,-67.3103C319.057,-68.8999 334.647,-70.5547 349.1,-72.0889"/>
<polygon fill="midnightblue" stroke="midnightblue" points="349.086,-75.6069 359.399,-73.182 349.824,-68.646 349.086,-75.6069"/>
</g>
<!-- Node15 -->
<g id="node13" class="node"><title>Node15</title>
<g id="a_node13"><a xlink:href="classutils.html#a6000246220e801bf6b1e6a553d7af13a" target="_top" xlink:title="Function that replaces a substring with another substring in a string. It does not make a copy of the...">
<polygon fill="white" stroke="black" points="343,-31 343,-50 478,-50 478,-31 343,-31"/>
<text text-anchor="middle" x="410.5" y="-38" font-family="Helvetica,sans-Serif" font-size="10.00">utils::ReplaceStringInPlace</text>
</a>
</g>
</g>
<!-- Node13&#45;&gt;Node15 -->
<g id="edge12" class="edge"><title>Node13&#45;&gt;Node15</title>
<path fill="none" stroke="midnightblue" d="M304.081,-51.6897C313.499,-50.69 323.16,-49.6645 332.629,-48.6595"/>
<polygon fill="midnightblue" stroke="midnightblue" points="333.233,-52.1151 342.808,-47.5791 332.494,-45.1542 333.233,-52.1151"/>
</g>
</g>
</svg>
