<?xml version="1.0" encoding="UTF-8" standalone="no"?>
<!DOCTYPE svg PUBLIC "-//W3C//DTD SVG 1.1//EN"
 "http://www.w3.org/Graphics/SVG/1.1/DTD/svg11.dtd">
<!-- Generated by graphviz version 2.38.0 (20140413.2041)
 -->
<!-- Title: trimAlManager::check_backtranslation_infile_names_corresponde Pages: 1 -->
<svg width="425pt" height="50pt"
 viewBox="0.00 0.00 425.00 50.00" xmlns="http://www.w3.org/2000/svg" xmlns:xlink="http://www.w3.org/1999/xlink">
<g id="graph0" class="graph" transform="scale(1 1) rotate(0) translate(4 46)">
<title>trimAlManager::check_backtranslation_infile_names_corresponde</title>
<polygon fill="white" stroke="none" points="-4,4 -4,-46 421,-46 421,4 -4,4"/>
<!-- Node34 -->
<g id="node1" class="node"><title>Node34</title>
<polygon fill="#bfbfbf" stroke="black" points="0,-0.5 0,-41.5 113,-41.5 113,-0.5 0,-0.5"/>
<text text-anchor="start" x="8" y="-29.5" font-family="Helvetica,sans-Serif" font-size="10.00">trimAlManager::check</text>
<text text-anchor="start" x="8" y="-18.5" font-family="Helvetica,sans-Serif" font-size="10.00">_backtranslation_infile</text>
<text text-anchor="middle" x="56.5" y="-7.5" font-family="Helvetica,sans-Serif" font-size="10.00">_names_corresponde</text>
</g>
<!-- Node35 -->
<g id="node2" class="node"><title>Node35</title>
<g id="a_node2"><a xlink:href="group___check_needs.html#ga3f325b806727751394adb829d97b35f1" target="_top" xlink:title="Method that checks dependencies between arguments. Take in mind that dependencies may be between mult...">
<polygon fill="white" stroke="black" points="149,-6 149,-36 261,-36 261,-6 149,-6"/>
<text text-anchor="start" x="157" y="-24" font-family="Helvetica,sans-Serif" font-size="10.00">trimAlManager::check</text>
<text text-anchor="middle" x="205" y="-13" font-family="Helvetica,sans-Serif" font-size="10.00">_arguments_needs</text>
</a>
</g>
</g>
<!-- Node34&#45;&gt;Node35 -->
<g id="edge1" class="edge"><title>Node34&#45;&gt;Node35</title>
<path fill="none" stroke="midnightblue" d="M123.527,-21C131.986,-21 140.575,-21 148.836,-21"/>
<polygon fill="midnightblue" stroke="midnightblue" points="123.303,-17.5001 113.303,-21 123.303,-24.5001 123.303,-17.5001"/>
</g>
<!-- Node36 -->
<g id="node3" class="node"><title>Node36</title>
<g id="a_node3"><a xlink:href="group___trimal_parsing_arguments.html#gae8565b76a7e277d37e3c78a6c6165343" target="_top" xlink:title="Method to process the information obtained by trimAlManager::parseArguments It checks for argument in...">
<polygon fill="white" stroke="black" points="297,-6 297,-36 417,-36 417,-6 297,-6"/>
<text text-anchor="start" x="305" y="-24" font-family="Helvetica,sans-Serif" font-size="10.00">trimAlManager::process</text>
<text text-anchor="middle" x="357" y="-13" font-family="Helvetica,sans-Serif" font-size="10.00">_arguments</text>
</a>
</g>
</g>
<!-- Node35&#45;&gt;Node36 -->
<g id="edge2" class="edge"><title>Node35&#45;&gt;Node36</title>
<path fill="none" stroke="midnightblue" d="M271.018,-21C279.643,-21 288.448,-21 296.965,-21"/>
<polygon fill="midnightblue" stroke="midnightblue" points="271.003,-17.5001 261.003,-21 271.003,-24.5001 271.003,-17.5001"/>
</g>
</g>
</svg>
