<?xml version="1.0" encoding="UTF-8" standalone="no"?>
<!DOCTYPE svg PUBLIC "-//W3C//DTD SVG 1.1//EN"
 "http://www.w3.org/Graphics/SVG/1.1/DTD/svg11.dtd">
<!-- Generated by graphviz version 2.38.0 (20140413.2041)
 -->
<!-- Title: trimAlManager::info_arguments Pages: 1 -->
<svg width="273pt" height="66pt"
 viewBox="0.00 0.00 273.00 66.00" xmlns="http://www.w3.org/2000/svg" xmlns:xlink="http://www.w3.org/1999/xlink">
<g id="graph0" class="graph" transform="scale(1 1) rotate(0) translate(4 62)">
<title>trimAlManager::info_arguments</title>
<polygon fill="white" stroke="none" points="-4,4 -4,-62 269,-62 269,4 -4,4"/>
<!-- Node64 -->
<g id="node1" class="node"><title>Node64</title>
<polygon fill="#bfbfbf" stroke="black" points="0,-14 0,-44 101,-44 101,-14 0,-14"/>
<text text-anchor="start" x="8" y="-32" font-family="Helvetica,sans-Serif" font-size="10.00">trimAlManager::info</text>
<text text-anchor="middle" x="50.5" y="-21" font-family="Helvetica,sans-Serif" font-size="10.00">_arguments</text>
</g>
<!-- Node65 -->
<g id="node2" class="node"><title>Node65</title>
<g id="a_node2"><a xlink:href="group___other_methods.html#ga09d07645fa0057989875f2b2d25ec4d7" target="_top" xlink:title="Method to show the menu of the program. ">
<polygon fill="white" stroke="black" points="146,-38.5 146,-57.5 256,-57.5 256,-38.5 146,-38.5"/>
<text text-anchor="middle" x="201" y="-45.5" font-family="Helvetica,sans-Serif" font-size="10.00">trimAlManager::menu</text>
</a>
</g>
</g>
<!-- Node64&#45;&gt;Node65 -->
<g id="edge1" class="edge"><title>Node64&#45;&gt;Node65</title>
<path fill="none" stroke="midnightblue" d="M101.361,-35.3796C112.44,-36.7971 124.334,-38.3188 135.893,-39.7978"/>
<polygon fill="midnightblue" stroke="midnightblue" points="135.573,-43.2853 145.937,-41.0828 136.462,-36.3419 135.573,-43.2853"/>
</g>
<!-- Node66 -->
<g id="node3" class="node"><title>Node66</title>
<g id="a_node3"><a xlink:href="group___other_methods.html#ga5716d2e2a6d21b7f2bacbf284b5bd75b" target="_top" xlink:title="Method to show the examples information about the program. ">
<polygon fill="white" stroke="black" points="137,-0.5 137,-19.5 265,-19.5 265,-0.5 137,-0.5"/>
<text text-anchor="middle" x="201" y="-7.5" font-family="Helvetica,sans-Serif" font-size="10.00">trimAlManager::examples</text>
</a>
</g>
</g>
<!-- Node64&#45;&gt;Node66 -->
<g id="edge2" class="edge"><title>Node64&#45;&gt;Node66</title>
<path fill="none" stroke="midnightblue" d="M101.361,-22.6204C109.537,-21.5744 118.157,-20.4715 126.758,-19.371"/>
<polygon fill="midnightblue" stroke="midnightblue" points="127.345,-22.8245 136.82,-18.0836 126.457,-15.8811 127.345,-22.8245"/>
</g>
</g>
</svg>
