<?xml version="1.0" encoding="UTF-8" standalone="no"?>
<!DOCTYPE svg PUBLIC "-//W3C//DTD SVG 1.1//EN"
 "http://www.w3.org/Graphics/SVG/1.1/DTD/svg11.dtd">
<!-- Generated by graphviz version 2.38.0 (20140413.2041)
 -->
<!-- Title: trimAlManager::select_cols_argument Pages: 1 -->
<svg width="281pt" height="66pt"
 viewBox="0.00 0.00 281.00 66.00" xmlns="http://www.w3.org/2000/svg" xmlns:xlink="http://www.w3.org/1999/xlink">
<g id="graph0" class="graph" transform="scale(1 1) rotate(0) translate(4 62)">
<title>trimAlManager::select_cols_argument</title>
<polygon fill="white" stroke="none" points="-4,4 -4,-62 277,-62 277,4 -4,4"/>
<!-- Node160 -->
<g id="node1" class="node"><title>Node160</title>
<polygon fill="#bfbfbf" stroke="black" points="0,-14 0,-44 112,-44 112,-14 0,-14"/>
<text text-anchor="start" x="8" y="-32" font-family="Helvetica,sans-Serif" font-size="10.00">trimAlManager::select</text>
<text text-anchor="middle" x="56" y="-21" font-family="Helvetica,sans-Serif" font-size="10.00">_cols_argument</text>
</g>
<!-- Node161 -->
<g id="node2" class="node"><title>Node161</title>
<g id="a_node2"><a xlink:href="classutils.html#adb8231f84743d1c51e391ab3234714c6" target="_top" xlink:title="Reads a line and converts it to an array of number. ">
<polygon fill="white" stroke="black" points="161,-38.5 161,-57.5 260,-57.5 260,-38.5 161,-38.5"/>
<text text-anchor="middle" x="210.5" y="-45.5" font-family="Helvetica,sans-Serif" font-size="10.00">utils::readNumbers</text>
</a>
</g>
</g>
<!-- Node160&#45;&gt;Node161 -->
<g id="edge1" class="edge"><title>Node160&#45;&gt;Node161</title>
<path fill="none" stroke="midnightblue" d="M112.056,-35.8594C124.577,-37.4195 137.927,-39.0827 150.602,-40.6618"/>
<polygon fill="midnightblue" stroke="midnightblue" points="150.237,-44.1433 160.593,-41.9066 151.102,-37.197 150.237,-44.1433"/>
</g>
<!-- Node162 -->
<g id="node3" class="node"><title>Node162</title>
<g id="a_node3"><a xlink:href="class_verbose_manager.html#a261de87bbf9653cd729dca4e1fbeb2a3" target="_top" xlink:title="Method to report an Error. It will be displayed if VerboseManager::Level is equal or higher to Verbos...">
<polygon fill="white" stroke="black" points="148,-0.5 148,-19.5 273,-19.5 273,-0.5 148,-0.5"/>
<text text-anchor="middle" x="210.5" y="-7.5" font-family="Helvetica,sans-Serif" font-size="10.00">VerboseManager::Report</text>
</a>
</g>
</g>
<!-- Node160&#45;&gt;Node162 -->
<g id="edge2" class="edge"><title>Node160&#45;&gt;Node162</title>
<path fill="none" stroke="midnightblue" d="M112.056,-22.1406C120.396,-21.1015 129.103,-20.0167 137.733,-18.9415"/>
<polygon fill="midnightblue" stroke="midnightblue" points="138.312,-22.3965 147.802,-17.6869 137.446,-15.4502 138.312,-22.3965"/>
</g>
</g>
</svg>
