<?xml version="1.0" encoding="UTF-8" standalone="no"?>
<!DOCTYPE svg PUBLIC "-//W3C//DTD SVG 1.1//EN"
 "http://www.w3.org/Graphics/SVG/1.1/DTD/svg11.dtd">
<!-- Generated by graphviz version 2.40.1 (20161225.0304)
 -->
<!-- Title: main Pages: 1 -->
<svg width="165pt" height="104pt"
 viewBox="0.00 0.00 165.00 104.00" xmlns="http://www.w3.org/2000/svg" xmlns:xlink="http://www.w3.org/1999/xlink">
<g id="graph0" class="graph" transform="scale(1 1) rotate(0) translate(4 100)">
<title>main</title>
<polygon fill="#ffffff" stroke="transparent" points="-4,4 -4,-100 161,-100 161,4 -4,4"/>
<!-- Node3 -->
<g id="node1" class="node">
<title>Node3</title>
<polygon fill="#bfbfbf" stroke="#000000" points="0,-38.5 0,-57.5 38,-57.5 38,-38.5 0,-38.5"/>
<text text-anchor="middle" x="19" y="-45.5" font-family="Helvetica,sans-Serif" font-size="10.00" fill="#000000">main</text>
</g>
<!-- Node4 -->
<g id="node2" class="node">
<title>Node4</title>
<g id="a_node2"><a xlink:href="main_8cpp.html#a731e783ce5f4e3ce72a3f9822960db43" target="_top" xlink:title="examples">
<polygon fill="#ffffff" stroke="#000000" points="86,-76.5 86,-95.5 145,-95.5 145,-76.5 86,-76.5"/>
<text text-anchor="middle" x="115.5" y="-83.5" font-family="Helvetica,sans-Serif" font-size="10.00" fill="#000000">examples</text>
</a>
</g>
</g>
<!-- Node3&#45;&gt;Node4 -->
<g id="edge1" class="edge">
<title>Node3&#45;&gt;Node4</title>
<path fill="none" stroke="#191970" d="M38.0653,-55.5076C50.5914,-60.4401 67.321,-67.028 82.0246,-72.818"/>
<polygon fill="#191970" stroke="#191970" points="80.7429,-76.0748 91.3299,-76.4822 83.3077,-69.5616 80.7429,-76.0748"/>
</g>
<!-- Node5 -->
<g id="node3" class="node">
<title>Node5</title>
<g id="a_node3"><a xlink:href="namespaceutils.html#a32e6bab4fb43b096f983faedeefd0511" target="_top" xlink:title="String&#45;is&#45;number checking. ">
<polygon fill="#ffffff" stroke="#000000" points="74,-38.5 74,-57.5 157,-57.5 157,-38.5 74,-38.5"/>
<text text-anchor="middle" x="115.5" y="-45.5" font-family="Helvetica,sans-Serif" font-size="10.00" fill="#000000">utils::isNumber</text>
</a>
</g>
</g>
<!-- Node3&#45;&gt;Node5 -->
<g id="edge2" class="edge">
<title>Node3&#45;&gt;Node5</title>
<path fill="none" stroke="#191970" d="M38.0653,-48C45.4883,-48 54.3874,-48 63.4663,-48"/>
<polygon fill="#191970" stroke="#191970" points="63.724,-51.5001 73.724,-48 63.724,-44.5001 63.724,-51.5001"/>
</g>
<!-- Node6 -->
<g id="node4" class="node">
<title>Node6</title>
<g id="a_node4"><a xlink:href="main_8cpp.html#ad16e5e62f3579a7048e6b981b172885e" target="_top" xlink:title="menu">
<polygon fill="#ffffff" stroke="#000000" points="95,-.5 95,-19.5 136,-19.5 136,-.5 95,-.5"/>
<text text-anchor="middle" x="115.5" y="-7.5" font-family="Helvetica,sans-Serif" font-size="10.00" fill="#000000">menu</text>
</a>
</g>
</g>
<!-- Node3&#45;&gt;Node6 -->
<g id="edge3" class="edge">
<title>Node3&#45;&gt;Node6</title>
<path fill="none" stroke="#191970" d="M38.0653,-40.4924C51.4926,-35.205 69.7499,-28.0156 85.1643,-21.9457"/>
<polygon fill="#191970" stroke="#191970" points="86.7817,-25.0704 94.8039,-18.1498 84.2169,-18.5572 86.7817,-25.0704"/>
</g>
</g>
</svg>
