<?xml version="1.0" encoding="UTF-8" standalone="no"?>
<!DOCTYPE svg PUBLIC "-//W3C//DTD SVG 1.1//EN"
 "http://www.w3.org/Graphics/SVG/1.1/DTD/svg11.dtd">
<!-- Generated by graphviz version 2.40.1 (20161225.0304)
 -->
<!-- Title: utils::quicksort Pages: 1 -->
<svg width="1233pt" height="342pt"
 viewBox="0.00 0.00 1233.00 341.50" xmlns="http://www.w3.org/2000/svg" xmlns:xlink="http://www.w3.org/1999/xlink">
<g id="graph0" class="graph" transform="scale(1 1) rotate(0) translate(4 337.5)">
<title>utils::quicksort</title>
<polygon fill="#ffffff" stroke="transparent" points="-4,4 -4,-337.5 1229,-337.5 1229,4 -4,4"/>
<!-- Node245 -->
<g id="node1" class="node">
<title>Node245</title>
<polygon fill="#bfbfbf" stroke="#000000" points="0,-144.5 0,-163.5 80,-163.5 80,-144.5 0,-144.5"/>
<text text-anchor="middle" x="40" y="-151.5" font-family="Helvetica,sans-Serif" font-size="10.00" fill="#000000">utils::quicksort</text>
</g>
<!-- Node245&#45;&gt;Node245 -->
<g id="edge25" class="edge">
<title>Node245&#45;&gt;Node245</title>
<path fill="none" stroke="#191970" d="M10.5076,-172.6539C11.7404,-177.9368 21.5712,-182 40,-182 68.082,-182 76.1995,-172.5653 64.3524,-163.7571"/>
<polygon fill="#191970" stroke="#191970" points="13.6757,-174.1668 15.6476,-163.7571 7.6145,-170.665 13.6757,-174.1668"/>
</g>
<!-- Node246 -->
<g id="node2" class="node">
<title>Node246</title>
<g id="a_node2"><a xlink:href="classstatistics_1_1_similarity.html#a26f430acb8a3240977665de9a9ea875a" target="_top" xlink:title="Computes and selects the cut point values based on similarity&#39;s values. ">
<polygon fill="#ffffff" stroke="#000000" points="148,-164 148,-194 251,-194 251,-164 148,-164"/>
<text text-anchor="start" x="156" y="-182" font-family="Helvetica,sans-Serif" font-size="10.00" fill="#000000">statistics::Similarity</text>
<text text-anchor="middle" x="199.5" y="-171" font-family="Helvetica,sans-Serif" font-size="10.00" fill="#000000">::calcCutPoint</text>
</a>
</g>
</g>
<!-- Node245&#45;&gt;Node246 -->
<g id="edge1" class="edge">
<title>Node245&#45;&gt;Node246</title>
<path fill="none" stroke="#191970" d="M90.1628,-161.8625C108.5136,-164.7388 129.2998,-167.9968 147.7838,-170.894"/>
<polygon fill="#191970" stroke="#191970" points="90.67,-158.3993 80.2486,-160.3086 89.586,-165.3149 90.67,-158.3993"/>
</g>
<!-- Node255 -->
<g id="node11" class="node">
<title>Node255</title>
<g id="a_node11"><a xlink:href="class_cleaner.html#a5afcae6b995a229b59785e4690b25a0f" target="_top" xlink:title="Method to clean an alignment. &#160;It removes sequences that overpass or equals &#160;the gap threshold but &#160;f...">
<polygon fill="#ffffff" stroke="#000000" points="133.5,-115 133.5,-145 265.5,-145 265.5,-115 133.5,-115"/>
<text text-anchor="start" x="141.5" y="-133" font-family="Helvetica,sans-Serif" font-size="10.00" fill="#000000">Cleaner::cleanByCutValue</text>
<text text-anchor="middle" x="199.5" y="-122" font-family="Helvetica,sans-Serif" font-size="10.00" fill="#000000">OverpassOrEquals</text>
</a>
</g>
</g>
<!-- Node245&#45;&gt;Node255 -->
<g id="edge11" class="edge">
<title>Node245&#45;&gt;Node255</title>
<path fill="none" stroke="#191970" d="M90.3558,-146.423C103.9524,-144.3771 118.8744,-142.1318 133.2001,-139.9762"/>
<polygon fill="#191970" stroke="#191970" points="89.6165,-142.9947 80.2486,-147.9438 90.6581,-149.9168 89.6165,-142.9947"/>
</g>
<!-- Node256 -->
<g id="node12" class="node">
<title>Node256</title>
<g id="a_node12"><a xlink:href="class_cleaner.html#a6727a235afa29f08a50716f28fa5c8fc" target="_top" xlink:title="Method to clean an alignment. It carries out strict and strictplus. The method: ">
<polygon fill="#ffffff" stroke="#000000" points="319,-87.5 319,-106.5 462,-106.5 462,-87.5 319,-87.5"/>
<text text-anchor="middle" x="390.5" y="-94.5" font-family="Helvetica,sans-Serif" font-size="10.00" fill="#000000">Cleaner::cleanCombMethods</text>
</a>
</g>
</g>
<!-- Node245&#45;&gt;Node256 -->
<g id="edge13" class="edge">
<title>Node245&#45;&gt;Node256</title>
<path fill="none" stroke="#191970" d="M58.5805,-137.8645C73.1259,-126.322 94.4418,-111.69 116,-105 182.4802,-84.3696 262.4143,-84.6687 318.8333,-88.7348"/>
<polygon fill="#191970" stroke="#191970" points="56.351,-135.1665 50.8481,-144.2202 60.7959,-140.5742 56.351,-135.1665"/>
</g>
<!-- Node258 -->
<g id="node14" class="node">
<title>Node258</title>
<g id="a_node14"><a xlink:href="class_cleaner.html#a385f785ecf54bd5e0b07e61325483973" target="_top" xlink:title="Method to trim an alignment based on consistency values obtained from a dataset of alignments...">
<polygon fill="#ffffff" stroke="#000000" points="132,-213.5 132,-232.5 267,-232.5 267,-213.5 132,-213.5"/>
<text text-anchor="middle" x="199.5" y="-220.5" font-family="Helvetica,sans-Serif" font-size="10.00" fill="#000000">Cleaner::cleanCompareFile</text>
</a>
</g>
</g>
<!-- Node245&#45;&gt;Node258 -->
<g id="edge16" class="edge">
<title>Node245&#45;&gt;Node258</title>
<path fill="none" stroke="#191970" d="M60.2378,-169.7553C74.9688,-180.5271 95.7964,-194.3655 116,-203 125.8692,-207.2178 136.792,-210.6452 147.395,-213.393"/>
<polygon fill="#191970" stroke="#191970" points="62.0152,-166.7136 51.9136,-163.5185 57.8179,-172.3156 62.0152,-166.7136"/>
</g>
<!-- Node259 -->
<g id="node15" class="node">
<title>Node259</title>
<g id="a_node15"><a xlink:href="classstatistics_1_1_mold.html#aaa904aa63337f5907e815a8b71ff3f08" target="_top" xlink:title="statistics::Mold::printAccumulative">
<polygon fill="#ffffff" stroke="#000000" points="116,-.5 116,-19.5 283,-19.5 283,-.5 116,-.5"/>
<text text-anchor="middle" x="199.5" y="-7.5" font-family="Helvetica,sans-Serif" font-size="10.00" fill="#000000">statistics::Mold::printAccumulative</text>
</a>
</g>
</g>
<!-- Node245&#45;&gt;Node259 -->
<g id="edge18" class="edge">
<title>Node245&#45;&gt;Node259</title>
<path fill="none" stroke="#191970" d="M47.0242,-134.8458C57.7663,-108.2307 80.8075,-60.3698 116,-34 124.4496,-27.6687 134.5214,-23.0054 144.6966,-19.5713"/>
<polygon fill="#191970" stroke="#191970" points="43.7409,-133.6324 43.397,-144.2217 50.2694,-136.1582 43.7409,-133.6324"/>
</g>
<!-- Node260 -->
<g id="node16" class="node">
<title>Node260</title>
<g id="a_node16"><a xlink:href="classstatistics_1_1_similarity.html#a4d938119ee92ead82bcd4d43c335c7b1" target="_top" xlink:title="Computes and prints the accumulative statistics associated to the alignment. ">
<polygon fill="#ffffff" stroke="#000000" points="143,-252 143,-282 256,-282 256,-252 143,-252"/>
<text text-anchor="start" x="151" y="-270" font-family="Helvetica,sans-Serif" font-size="10.00" fill="#000000">statistics::Similarity</text>
<text text-anchor="middle" x="199.5" y="-259" font-family="Helvetica,sans-Serif" font-size="10.00" fill="#000000">::printConservationAcl</text>
</a>
</g>
</g>
<!-- Node245&#45;&gt;Node260 -->
<g id="edge19" class="edge">
<title>Node245&#45;&gt;Node260</title>
<path fill="none" stroke="#191970" d="M51.001,-172.0073C64.0929,-191.9577 87.7688,-223.718 116,-242 124.129,-247.2642 133.4123,-251.4588 142.7646,-254.7896"/>
<polygon fill="#191970" stroke="#191970" points="53.9214,-170.0771 45.6012,-163.5177 48.0149,-173.8339 53.9214,-170.0771"/>
</g>
<!-- Node263 -->
<g id="node19" class="node">
<title>Node263</title>
<g id="a_node19"><a xlink:href="classstatistics_1_1_consistency.html#a24521eba253b76ddc60c719c9769613a" target="_top" xlink:title="Print the accumulated consistency value from the selected alignment. ">
<polygon fill="#ffffff" stroke="#000000" points="332,-303 332,-333 449,-333 449,-303 332,-303"/>
<text text-anchor="start" x="340" y="-321" font-family="Helvetica,sans-Serif" font-size="10.00" fill="#000000">statistics::Consistency</text>
<text text-anchor="middle" x="390.5" y="-310" font-family="Helvetica,sans-Serif" font-size="10.00" fill="#000000">::printStatisticsFileAcl</text>
</a>
</g>
</g>
<!-- Node245&#45;&gt;Node263 -->
<g id="edge23" class="edge">
<title>Node245&#45;&gt;Node263</title>
<path fill="none" stroke="#191970" d="M44.6208,-173.8717C52.992,-204.9421 73.8469,-264.3274 116,-292 180.4274,-334.2952 272.3883,-333.6746 331.7682,-327.3895"/>
<polygon fill="#191970" stroke="#191970" points="47.9243,-172.6576 42.0852,-163.817 41.1368,-174.3693 47.9243,-172.6576"/>
</g>
<!-- Node264 -->
<g id="node20" class="node">
<title>Node264</title>
<g id="a_node20"><a xlink:href="class_alignment.html#a724218d5e7d168974d9abcafcde632a1" target="_top" xlink:title="Alignment::statSVG">
<polygon fill="#ffffff" stroke="#000000" points="532.5,-54.5 532.5,-73.5 636.5,-73.5 636.5,-54.5 532.5,-54.5"/>
<text text-anchor="middle" x="584.5" y="-61.5" font-family="Helvetica,sans-Serif" font-size="10.00" fill="#000000">Alignment::statSVG</text>
</a>
</g>
</g>
<!-- Node245&#45;&gt;Node264 -->
<g id="edge26" class="edge">
<title>Node245&#45;&gt;Node264</title>
<path fill="none" stroke="#191970" d="M52.7781,-136.2662C66.2944,-119.1208 89.3295,-94.1495 116,-83 257.0097,-24.0516 443.1804,-41.3489 532.4248,-54.7618"/>
<polygon fill="#191970" stroke="#191970" points="49.8609,-134.3207 46.6088,-144.4041 55.4392,-138.5496 49.8609,-134.3207"/>
</g>
<!-- Node247 -->
<g id="node3" class="node">
<title>Node247</title>
<g id="a_node3"><a xlink:href="class_cleaner.html#a4718e31c0183b5a98751d77479faacf0" target="_top" xlink:title="Method to trim an alignment based on the similarity and gaps distribution values. ...">
<polygon fill="#ffffff" stroke="#000000" points="350.5,-128.5 350.5,-147.5 430.5,-147.5 430.5,-128.5 350.5,-128.5"/>
<text text-anchor="middle" x="390.5" y="-135.5" font-family="Helvetica,sans-Serif" font-size="10.00" fill="#000000">Cleaner::clean</text>
</a>
</g>
</g>
<!-- Node246&#45;&gt;Node247 -->
<g id="edge2" class="edge">
<title>Node246&#45;&gt;Node247</title>
<path fill="none" stroke="#191970" d="M261.2887,-165.7364C290.4756,-159.4712 324.4819,-152.1714 350.28,-146.6336"/>
<polygon fill="#191970" stroke="#191970" points="260.23,-162.3839 251.1874,-167.9048 261.6992,-169.228 260.23,-162.3839"/>
</g>
<!-- Node254 -->
<g id="node10" class="node">
<title>Node254</title>
<g id="a_node10"><a xlink:href="class_cleaner.html#a9cdbd6ebf78a284dd065b31319795b0c" target="_top" xlink:title="Method to trim an alignment based on the similarity distribution values. ">
<polygon fill="#ffffff" stroke="#000000" points="322,-166.5 322,-185.5 459,-185.5 459,-166.5 322,-166.5"/>
<text text-anchor="middle" x="390.5" y="-173.5" font-family="Helvetica,sans-Serif" font-size="10.00" fill="#000000">Cleaner::cleanConservation</text>
</a>
</g>
</g>
<!-- Node246&#45;&gt;Node254 -->
<g id="edge9" class="edge">
<title>Node246&#45;&gt;Node254</title>
<path fill="none" stroke="#191970" d="M261.3823,-178.028C280.7101,-177.7244 302.1437,-177.3878 321.904,-177.0774"/>
<polygon fill="#191970" stroke="#191970" points="261.1311,-174.5314 251.1874,-178.1882 261.2411,-181.5306 261.1311,-174.5314"/>
</g>
<!-- Node248 -->
<g id="node4" class="node">
<title>Node248</title>
<g id="a_node4"><a xlink:href="classtrim_al_manager.html#aebfd21b0435302f0e4fc45a068d1b6ee" target="_top" xlink:title="Method to trim the alignment using non automatic methods: ">
<polygon fill="#ffffff" stroke="#000000" points="508.5,-145 508.5,-175 660.5,-175 660.5,-145 508.5,-145"/>
<text text-anchor="start" x="516.5" y="-163" font-family="Helvetica,sans-Serif" font-size="10.00" fill="#000000">trimAlManager::CleanResidues</text>
<text text-anchor="middle" x="584.5" y="-152" font-family="Helvetica,sans-Serif" font-size="10.00" fill="#000000">NonAuto</text>
</a>
</g>
</g>
<!-- Node247&#45;&gt;Node248 -->
<g id="edge3" class="edge">
<title>Node247&#45;&gt;Node248</title>
<path fill="none" stroke="#191970" d="M440.7838,-143.7023C461.3575,-146.0354 485.6146,-148.7862 508.2829,-151.3568"/>
<polygon fill="#191970" stroke="#191970" points="441.0276,-140.2076 430.6969,-142.5584 440.2388,-147.163 441.0276,-140.2076"/>
</g>
<!-- Node249 -->
<g id="node5" class="node">
<title>Node249</title>
<g id="a_node5"><a xlink:href="classtrim_al_manager.html#adc529dd893ed4e9df6f3ddbd58776068" target="_top" xlink:title="Core Method of the program. This is where almost all cleaning methods are called from. ">
<polygon fill="#ffffff" stroke="#000000" points="707,-130 707,-160 816,-160 816,-130 707,-130"/>
<text text-anchor="start" x="715" y="-148" font-family="Helvetica,sans-Serif" font-size="10.00" fill="#000000">trimAlManager::clean</text>
<text text-anchor="middle" x="761.5" y="-137" font-family="Helvetica,sans-Serif" font-size="10.00" fill="#000000">_alignment</text>
</a>
</g>
</g>
<!-- Node248&#45;&gt;Node249 -->
<g id="edge4" class="edge">
<title>Node248&#45;&gt;Node249</title>
<path fill="none" stroke="#191970" d="M670.8525,-152.682C683.1085,-151.6434 695.4193,-150.6001 706.8442,-149.6318"/>
<polygon fill="#191970" stroke="#191970" points="670.2598,-149.2196 660.5911,-153.5516 670.851,-156.1946 670.2598,-149.2196"/>
</g>
<!-- Node250 -->
<g id="node6" class="node">
<title>Node250</title>
<g id="a_node6"><a xlink:href="classtrim_al_manager.html#a7c641a1feff33d401b4ea5c82e989289" target="_top" xlink:title="trimAlManager::innerPerform">
<polygon fill="#ffffff" stroke="#000000" points="853.5,-135.5 853.5,-154.5 994.5,-154.5 994.5,-135.5 853.5,-135.5"/>
<text text-anchor="middle" x="924" y="-142.5" font-family="Helvetica,sans-Serif" font-size="10.00" fill="#000000">trimAlManager::innerPerform</text>
</a>
</g>
</g>
<!-- Node249&#45;&gt;Node250 -->
<g id="edge5" class="edge">
<title>Node249&#45;&gt;Node250</title>
<path fill="none" stroke="#191970" d="M826.0655,-145C835.0547,-145 844.3286,-145 853.4212,-145"/>
<polygon fill="#191970" stroke="#191970" points="826.0622,-141.5001 816.0622,-145 826.0622,-148.5001 826.0622,-141.5001"/>
</g>
<!-- Node253 -->
<g id="node9" class="node">
<title>Node253</title>
<g id="a_node9"><a xlink:href="classtrim_al_manager.html#ac5795f93b3a2b51bf5d8dddd63b89f73" target="_top" xlink:title="trimAlManager::perform_VCF">
<polygon fill="#ffffff" stroke="#000000" points="852,-92.5 852,-111.5 996,-111.5 996,-92.5 852,-92.5"/>
<text text-anchor="middle" x="924" y="-99.5" font-family="Helvetica,sans-Serif" font-size="10.00" fill="#000000">trimAlManager::perform_VCF</text>
</a>
</g>
</g>
<!-- Node249&#45;&gt;Node253 -->
<g id="edge8" class="edge">
<title>Node249&#45;&gt;Node253</title>
<path fill="none" stroke="#191970" d="M825.9094,-127.9563C846.9344,-122.3927 869.5331,-116.4128 887.7341,-111.5965"/>
<polygon fill="#191970" stroke="#191970" points="824.8341,-124.6203 816.0622,-130.562 826.6248,-131.3874 824.8341,-124.6203"/>
</g>
<!-- Node251 -->
<g id="node7" class="node">
<title>Node251</title>
<g id="a_node7"><a xlink:href="classtrim_al_manager.html#abe8d2841455c644dc9c7d1294b82b00f" target="_top" xlink:title="Method to perform the analysis if all checks have passed. ">
<polygon fill="#ffffff" stroke="#000000" points="1032,-135.5 1032,-154.5 1151,-154.5 1151,-135.5 1032,-135.5"/>
<text text-anchor="middle" x="1091.5" y="-142.5" font-family="Helvetica,sans-Serif" font-size="10.00" fill="#000000">trimAlManager::perform</text>
</a>
</g>
</g>
<!-- Node250&#45;&gt;Node251 -->
<g id="edge6" class="edge">
<title>Node250&#45;&gt;Node251</title>
<path fill="none" stroke="#191970" d="M1004.8102,-145C1013.9363,-145 1023.1089,-145 1031.8939,-145"/>
<polygon fill="#191970" stroke="#191970" points="1004.5497,-141.5001 994.5496,-145 1004.5496,-148.5001 1004.5497,-141.5001"/>
</g>
<!-- Node252 -->
<g id="node8" class="node">
<title>Node252</title>
<g id="a_node8"><a xlink:href="trim_al_main_8cpp.html#a0ddf1224851353fc92bfbff6f499fa97" target="_top" xlink:title="main">
<polygon fill="#ffffff" stroke="#000000" points="1187,-135.5 1187,-154.5 1225,-154.5 1225,-135.5 1187,-135.5"/>
<text text-anchor="middle" x="1206" y="-142.5" font-family="Helvetica,sans-Serif" font-size="10.00" fill="#000000">main</text>
</a>
</g>
</g>
<!-- Node251&#45;&gt;Node252 -->
<g id="edge7" class="edge">
<title>Node251&#45;&gt;Node252</title>
<path fill="none" stroke="#191970" d="M1161.3198,-145C1170.6177,-145 1179.4503,-145 1186.7697,-145"/>
<polygon fill="#191970" stroke="#191970" points="1161.0976,-141.5001 1151.0976,-145 1161.0975,-148.5001 1161.0976,-141.5001"/>
</g>
<!-- Node254&#45;&gt;Node248 -->
<g id="edge10" class="edge">
<title>Node254&#45;&gt;Node248</title>
<path fill="none" stroke="#191970" d="M469.3714,-169.4951C482.232,-168.4345 495.5334,-167.3375 508.3274,-166.2823"/>
<polygon fill="#191970" stroke="#191970" points="468.8486,-166.0263 459.1702,-170.3365 469.424,-173.0026 468.8486,-166.0263"/>
</g>
<!-- Node255&#45;&gt;Node247 -->
<g id="edge12" class="edge">
<title>Node255&#45;&gt;Node247</title>
<path fill="none" stroke="#191970" d="M275.7892,-133.1954C301.2547,-134.262 328.6212,-135.4082 350.2354,-136.3135"/>
<polygon fill="#191970" stroke="#191970" points="275.9042,-129.6972 265.7665,-132.7756 275.6112,-136.6911 275.9042,-129.6972"/>
</g>
<!-- Node257 -->
<g id="node13" class="node">
<title>Node257</title>
<g id="a_node13"><a xlink:href="classtrim_al_manager.html#a69082911b30a1bd12395bb235bc18a34" target="_top" xlink:title="Method to trim the alignment using automatic or semi&#45;automatic methods: ">
<polygon fill="#ffffff" stroke="#000000" points="498,-95.5 498,-114.5 671,-114.5 671,-95.5 498,-95.5"/>
<text text-anchor="middle" x="584.5" y="-102.5" font-family="Helvetica,sans-Serif" font-size="10.00" fill="#000000">trimAlManager::CleanResiduesAuto</text>
</a>
</g>
</g>
<!-- Node256&#45;&gt;Node257 -->
<g id="edge14" class="edge">
<title>Node256&#45;&gt;Node257</title>
<path fill="none" stroke="#191970" d="M472.4097,-100.3777C480.8688,-100.7265 489.4848,-101.0818 497.9919,-101.4327"/>
<polygon fill="#191970" stroke="#191970" points="472.323,-96.8713 462.1873,-99.9562 472.0345,-103.8653 472.323,-96.8713"/>
</g>
<!-- Node257&#45;&gt;Node249 -->
<g id="edge15" class="edge">
<title>Node257&#45;&gt;Node249</title>
<path fill="none" stroke="#191970" d="M636.7364,-116.8048C658.7637,-121.7828 684.4149,-127.5796 706.7101,-132.6181"/>
<polygon fill="#191970" stroke="#191970" points="637.4215,-113.3715 626.8959,-114.581 635.8784,-120.1993 637.4215,-113.3715"/>
</g>
<!-- Node258&#45;&gt;Node248 -->
<g id="edge17" class="edge">
<title>Node258&#45;&gt;Node248</title>
<path fill="none" stroke="#191970" d="M277.3917,-218.2202C329.8952,-214.1366 400.5298,-206.9675 462,-195 487.8358,-189.9701 516.1222,-182.0536 538.9982,-175.0211"/>
<polygon fill="#191970" stroke="#191970" points="276.848,-214.7512 267.1408,-218.9963 277.3766,-221.7312 276.848,-214.7512"/>
</g>
<!-- Node261 -->
<g id="node17" class="node">
<title>Node261</title>
<g id="a_node17"><a xlink:href="classstatistics_1_1_manager.html#aa20cfb477826035386ea988e3706b09a" target="_top" xlink:title="Wrapper to Statistics::Similarity::printGapsTotal() It calls to calculateConservationStats() to make ...">
<polygon fill="#ffffff" stroke="#000000" points="320.5,-242.5 320.5,-283.5 460.5,-283.5 460.5,-242.5 320.5,-242.5"/>
<text text-anchor="start" x="328.5" y="-271.5" font-family="Helvetica,sans-Serif" font-size="10.00" fill="#000000">statistics::Manager</text>
<text text-anchor="start" x="328.5" y="-260.5" font-family="Helvetica,sans-Serif" font-size="10.00" fill="#000000">::printStatisticsConservation</text>
<text text-anchor="middle" x="390.5" y="-249.5" font-family="Helvetica,sans-Serif" font-size="10.00" fill="#000000">Total</text>
</a>
</g>
</g>
<!-- Node260&#45;&gt;Node261 -->
<g id="edge20" class="edge">
<title>Node260&#45;&gt;Node261</title>
<path fill="none" stroke="#191970" d="M266.144,-265.6043C283.6339,-265.238 302.5489,-264.8419 320.2225,-264.4718"/>
<polygon fill="#191970" stroke="#191970" points="265.9555,-262.1074 256.0311,-265.8161 266.1022,-269.1059 265.9555,-262.1074"/>
</g>
<!-- Node262 -->
<g id="node18" class="node">
<title>Node262</title>
<g id="a_node18"><a xlink:href="classtrim_al_manager.html#afc48b86f5ae35b9a5e721b65c58bf610" target="_top" xlink:title="Method to print statistics requested. ">
<polygon fill="#ffffff" stroke="#000000" points="532.5,-248 532.5,-278 636.5,-278 636.5,-248 532.5,-248"/>
<text text-anchor="start" x="540.5" y="-266" font-family="Helvetica,sans-Serif" font-size="10.00" fill="#000000">trimAlManager::print</text>
<text text-anchor="middle" x="584.5" y="-255" font-family="Helvetica,sans-Serif" font-size="10.00" fill="#000000">_statistics</text>
</a>
</g>
</g>
<!-- Node261&#45;&gt;Node262 -->
<g id="edge21" class="edge">
<title>Node261&#45;&gt;Node262</title>
<path fill="none" stroke="#191970" d="M470.6406,-263C491.429,-263 513.2832,-263 532.2244,-263"/>
<polygon fill="#191970" stroke="#191970" points="470.5385,-259.5001 460.5385,-263 470.5384,-266.5001 470.5385,-259.5001"/>
</g>
<!-- Node262&#45;&gt;Node250 -->
<g id="edge22" class="edge">
<title>Node262&#45;&gt;Node250</title>
<path fill="none" stroke="#191970" d="M637.3558,-244.6289C710.6053,-219.1696 840.3102,-174.0881 896.6297,-154.5131"/>
<polygon fill="#191970" stroke="#191970" points="636.1394,-241.3462 627.8427,-247.9354 638.4376,-247.9583 636.1394,-241.3462"/>
</g>
<!-- Node263&#45;&gt;Node262 -->
<g id="edge24" class="edge">
<title>Node263&#45;&gt;Node262</title>
<path fill="none" stroke="#191970" d="M453.4425,-300.1555C478.9061,-292.9364 507.9562,-284.7006 532.2244,-277.8204"/>
<polygon fill="#191970" stroke="#191970" points="452.1775,-296.8761 443.5114,-302.971 454.0869,-303.6107 452.1775,-296.8761"/>
</g>
<!-- Node265 -->
<g id="node21" class="node">
<title>Node265</title>
<g id="a_node21"><a xlink:href="classtrim_al_manager.html#a63d5bec0938516a2129ccb04276b93d9" target="_top" xlink:title="trimAlManager::svg\l_stats_out">
<polygon fill="#ffffff" stroke="#000000" points="711,-81 711,-111 812,-111 812,-81 711,-81"/>
<text text-anchor="start" x="719" y="-99" font-family="Helvetica,sans-Serif" font-size="10.00" fill="#000000">trimAlManager::svg</text>
<text text-anchor="middle" x="761.5" y="-88" font-family="Helvetica,sans-Serif" font-size="10.00" fill="#000000">_stats_out</text>
</a>
</g>
</g>
<!-- Node264&#45;&gt;Node265 -->
<g id="edge27" class="edge">
<title>Node264&#45;&gt;Node265</title>
<path fill="none" stroke="#191970" d="M646.7643,-75.2568C667.7731,-79.055 690.9506,-83.2453 710.9418,-86.8595"/>
<polygon fill="#191970" stroke="#191970" points="647.1117,-71.763 636.6485,-73.428 645.8663,-78.6513 647.1117,-71.763"/>
</g>
<!-- Node265&#45;&gt;Node250 -->
<g id="edge28" class="edge">
<title>Node265&#45;&gt;Node250</title>
<path fill="none" stroke="#191970" d="M821.3365,-114.043C845.367,-121.2891 872.0886,-129.3467 892.2448,-135.4246"/>
<polygon fill="#191970" stroke="#191970" points="822.166,-110.6375 811.5813,-111.1014 820.145,-117.3395 822.166,-110.6375"/>
</g>
<!-- Node265&#45;&gt;Node253 -->
<g id="edge29" class="edge">
<title>Node265&#45;&gt;Node253</title>
<path fill="none" stroke="#191970" d="M822.2642,-98.2436C831.8736,-98.5984 841.8921,-98.9683 851.7326,-99.3317"/>
<polygon fill="#191970" stroke="#191970" points="822.1476,-94.737 812.0253,-97.8655 821.8893,-101.7322 822.1476,-94.737"/>
</g>
</g>
</svg>
