<?xml version="1.0" encoding="UTF-8" standalone="no"?>
<!DOCTYPE svg PUBLIC "-//W3C//DTD SVG 1.1//EN"
 "http://www.w3.org/Graphics/SVG/1.1/DTD/svg11.dtd">
<!-- Generated by graphviz version 2.40.1 (20161225.0304)
 -->
<!-- Title: utils::max Pages: 1 -->
<svg width="1130pt" height="78pt"
 viewBox="0.00 0.00 1130.00 77.50" xmlns="http://www.w3.org/2000/svg" xmlns:xlink="http://www.w3.org/1999/xlink">
<g id="graph0" class="graph" transform="scale(1 1) rotate(0) translate(4 73.5)">
<title>utils::max</title>
<polygon fill="#ffffff" stroke="transparent" points="-4,4 -4,-73.5 1126,-73.5 1126,4 -4,4"/>
<!-- Node214 -->
<g id="node1" class="node">
<title>Node214</title>
<polygon fill="#bfbfbf" stroke="#000000" points="0,-25.5 0,-44.5 59,-44.5 59,-25.5 0,-25.5"/>
<text text-anchor="middle" x="29.5" y="-32.5" font-family="Helvetica,sans-Serif" font-size="10.00" fill="#000000">utils::max</text>
</g>
<!-- Node215 -->
<g id="node2" class="node">
<title>Node215</title>
<g id="a_node2"><a xlink:href="classstatistics_1_1_gaps.html#a487a85bf19dd7940ab1a2986601527c8" target="_top" xlink:title="statistics::Gaps::calcCut\lPoint">
<polygon fill="#ffffff" stroke="#000000" points="95,-20 95,-50 220,-50 220,-20 95,-20"/>
<text text-anchor="start" x="103" y="-38" font-family="Helvetica,sans-Serif" font-size="10.00" fill="#000000">statistics::Gaps::calcCut</text>
<text text-anchor="middle" x="157.5" y="-27" font-family="Helvetica,sans-Serif" font-size="10.00" fill="#000000">Point</text>
</a>
</g>
</g>
<!-- Node214&#45;&gt;Node215 -->
<g id="edge1" class="edge">
<title>Node214&#45;&gt;Node215</title>
<path fill="none" stroke="#191970" d="M69.4292,-35C77.524,-35 86.2203,-35 94.8827,-35"/>
<polygon fill="#191970" stroke="#191970" points="69.1875,-31.5001 59.1875,-35 69.1875,-38.5001 69.1875,-31.5001"/>
</g>
<!-- Node216 -->
<g id="node3" class="node">
<title>Node216</title>
<g id="a_node3"><a xlink:href="class_cleaner.html#a4718e31c0183b5a98751d77479faacf0" target="_top" xlink:title="Method to trim an alignment based on the similarity and gaps distribution values. ...">
<polygon fill="#ffffff" stroke="#000000" points="267.5,-44.5 267.5,-63.5 347.5,-63.5 347.5,-44.5 267.5,-44.5"/>
<text text-anchor="middle" x="307.5" y="-51.5" font-family="Helvetica,sans-Serif" font-size="10.00" fill="#000000">Cleaner::clean</text>
</a>
</g>
</g>
<!-- Node215&#45;&gt;Node216 -->
<g id="edge2" class="edge">
<title>Node215&#45;&gt;Node216</title>
<path fill="none" stroke="#191970" d="M230.3763,-44.231C243.0663,-45.8384 255.8374,-47.4561 267.235,-48.8998"/>
<polygon fill="#191970" stroke="#191970" points="230.605,-40.7321 220.2444,-42.9476 229.7253,-47.6766 230.605,-40.7321"/>
</g>
<!-- Node223 -->
<g id="node10" class="node">
<title>Node223</title>
<g id="a_node10"><a xlink:href="class_cleaner.html#af7c9e1a177424168fa4214aca9ebd8e2" target="_top" xlink:title="Method to trim an alignment based on the gap distribution values. Column blocks that don&#39;t have a min...">
<polygon fill="#ffffff" stroke="#000000" points="256,-6.5 256,-25.5 359,-25.5 359,-6.5 256,-6.5"/>
<text text-anchor="middle" x="307.5" y="-13.5" font-family="Helvetica,sans-Serif" font-size="10.00" fill="#000000">Cleaner::cleanGaps</text>
</a>
</g>
</g>
<!-- Node215&#45;&gt;Node223 -->
<g id="edge9" class="edge">
<title>Node215&#45;&gt;Node223</title>
<path fill="none" stroke="#191970" d="M230.3421,-25.7733C238.9822,-24.6789 247.6605,-23.5797 255.9179,-22.5337"/>
<polygon fill="#191970" stroke="#191970" points="229.7253,-22.3234 220.2444,-27.0524 230.605,-29.2679 229.7253,-22.3234"/>
</g>
<!-- Node217 -->
<g id="node4" class="node">
<title>Node217</title>
<g id="a_node4"><a xlink:href="classtrim_al_manager.html#aebfd21b0435302f0e4fc45a068d1b6ee" target="_top" xlink:title="Method to trim the alignment using non automatic methods: ">
<polygon fill="#ffffff" stroke="#000000" points="405.5,-39 405.5,-69 557.5,-69 557.5,-39 405.5,-39"/>
<text text-anchor="start" x="413.5" y="-57" font-family="Helvetica,sans-Serif" font-size="10.00" fill="#000000">trimAlManager::CleanResidues</text>
<text text-anchor="middle" x="481.5" y="-46" font-family="Helvetica,sans-Serif" font-size="10.00" fill="#000000">NonAuto</text>
</a>
</g>
</g>
<!-- Node216&#45;&gt;Node217 -->
<g id="edge3" class="edge">
<title>Node216&#45;&gt;Node217</title>
<path fill="none" stroke="#191970" d="M358.2777,-54C373.044,-54 389.5051,-54 405.4658,-54"/>
<polygon fill="#191970" stroke="#191970" points="357.8565,-50.5001 347.8564,-54 357.8564,-57.5001 357.8565,-50.5001"/>
</g>
<!-- Node218 -->
<g id="node5" class="node">
<title>Node218</title>
<g id="a_node5"><a xlink:href="classtrim_al_manager.html#adc529dd893ed4e9df6f3ddbd58776068" target="_top" xlink:title="Core Method of the program. This is where almost all cleaning methods are called from. ">
<polygon fill="#ffffff" stroke="#000000" points="604,-17 604,-47 713,-47 713,-17 604,-17"/>
<text text-anchor="start" x="612" y="-35" font-family="Helvetica,sans-Serif" font-size="10.00" fill="#000000">trimAlManager::clean</text>
<text text-anchor="middle" x="658.5" y="-24" font-family="Helvetica,sans-Serif" font-size="10.00" fill="#000000">_alignment</text>
</a>
</g>
</g>
<!-- Node217&#45;&gt;Node218 -->
<g id="edge4" class="edge">
<title>Node217&#45;&gt;Node218</title>
<path fill="none" stroke="#191970" d="M567.8525,-43.2669C580.1085,-41.7436 592.4193,-40.2134 603.8442,-38.7934"/>
<polygon fill="#191970" stroke="#191970" points="567.0831,-39.8355 557.5911,-44.5423 567.9465,-46.7821 567.0831,-39.8355"/>
</g>
<!-- Node219 -->
<g id="node6" class="node">
<title>Node219</title>
<g id="a_node6"><a xlink:href="classtrim_al_manager.html#a7c641a1feff33d401b4ea5c82e989289" target="_top" xlink:title="trimAlManager::innerPerform">
<polygon fill="#ffffff" stroke="#000000" points="750.5,-41.5 750.5,-60.5 891.5,-60.5 891.5,-41.5 750.5,-41.5"/>
<text text-anchor="middle" x="821" y="-48.5" font-family="Helvetica,sans-Serif" font-size="10.00" fill="#000000">trimAlManager::innerPerform</text>
</a>
</g>
</g>
<!-- Node218&#45;&gt;Node219 -->
<g id="edge5" class="edge">
<title>Node218&#45;&gt;Node219</title>
<path fill="none" stroke="#191970" d="M723.0655,-39.5492C732.0547,-40.6002 741.3286,-41.6846 750.4212,-42.7477"/>
<polygon fill="#191970" stroke="#191970" points="723.401,-36.0647 713.0622,-38.3796 722.588,-43.0173 723.401,-36.0647"/>
</g>
<!-- Node222 -->
<g id="node9" class="node">
<title>Node222</title>
<g id="a_node9"><a xlink:href="classtrim_al_manager.html#ac5795f93b3a2b51bf5d8dddd63b89f73" target="_top" xlink:title="trimAlManager::perform_VCF">
<polygon fill="#ffffff" stroke="#000000" points="749,-3.5 749,-22.5 893,-22.5 893,-3.5 749,-3.5"/>
<text text-anchor="middle" x="821" y="-10.5" font-family="Helvetica,sans-Serif" font-size="10.00" fill="#000000">trimAlManager::perform_VCF</text>
</a>
</g>
</g>
<!-- Node218&#45;&gt;Node222 -->
<g id="edge8" class="edge">
<title>Node218&#45;&gt;Node222</title>
<path fill="none" stroke="#191970" d="M723.2328,-24.4312C731.6937,-23.442 740.4041,-22.4235 748.9757,-21.4213"/>
<polygon fill="#191970" stroke="#191970" points="722.588,-20.9827 713.0622,-25.6204 723.401,-27.9353 722.588,-20.9827"/>
</g>
<!-- Node220 -->
<g id="node7" class="node">
<title>Node220</title>
<g id="a_node7"><a xlink:href="classtrim_al_manager.html#abe8d2841455c644dc9c7d1294b82b00f" target="_top" xlink:title="Method to perform the analysis if all checks have passed. ">
<polygon fill="#ffffff" stroke="#000000" points="929,-41.5 929,-60.5 1048,-60.5 1048,-41.5 929,-41.5"/>
<text text-anchor="middle" x="988.5" y="-48.5" font-family="Helvetica,sans-Serif" font-size="10.00" fill="#000000">trimAlManager::perform</text>
</a>
</g>
</g>
<!-- Node219&#45;&gt;Node220 -->
<g id="edge6" class="edge">
<title>Node219&#45;&gt;Node220</title>
<path fill="none" stroke="#191970" d="M901.8102,-51C910.9363,-51 920.1089,-51 928.8939,-51"/>
<polygon fill="#191970" stroke="#191970" points="901.5497,-47.5001 891.5496,-51 901.5496,-54.5001 901.5497,-47.5001"/>
</g>
<!-- Node221 -->
<g id="node8" class="node">
<title>Node221</title>
<g id="a_node8"><a xlink:href="trim_al_main_8cpp.html#a0ddf1224851353fc92bfbff6f499fa97" target="_top" xlink:title="main">
<polygon fill="#ffffff" stroke="#000000" points="1084,-41.5 1084,-60.5 1122,-60.5 1122,-41.5 1084,-41.5"/>
<text text-anchor="middle" x="1103" y="-48.5" font-family="Helvetica,sans-Serif" font-size="10.00" fill="#000000">main</text>
</a>
</g>
</g>
<!-- Node220&#45;&gt;Node221 -->
<g id="edge7" class="edge">
<title>Node220&#45;&gt;Node221</title>
<path fill="none" stroke="#191970" d="M1058.3198,-51C1067.6177,-51 1076.4503,-51 1083.7697,-51"/>
<polygon fill="#191970" stroke="#191970" points="1058.0976,-47.5001 1048.0976,-51 1058.0975,-54.5001 1058.0976,-47.5001"/>
</g>
<!-- Node223&#45;&gt;Node217 -->
<g id="edge12" class="edge">
<title>Node223&#45;&gt;Node217</title>
<path fill="none" stroke="#191970" d="M361.2433,-27.7371C377.4567,-31.2779 395.484,-35.2149 412.5432,-38.9405"/>
<polygon fill="#191970" stroke="#191970" points="361.9241,-24.3033 351.4075,-25.589 360.4305,-31.1421 361.9241,-24.3033"/>
</g>
<!-- Node224 -->
<g id="node11" class="node">
<title>Node224</title>
<g id="a_node11"><a xlink:href="classtrim_al_manager.html#a69082911b30a1bd12395bb235bc18a34" target="_top" xlink:title="Method to trim the alignment using automatic or semi&#45;automatic methods: ">
<polygon fill="#ffffff" stroke="#000000" points="395,-.5 395,-19.5 568,-19.5 568,-.5 395,-.5"/>
<text text-anchor="middle" x="481.5" y="-7.5" font-family="Helvetica,sans-Serif" font-size="10.00" fill="#000000">trimAlManager::CleanResiduesAuto</text>
</a>
</g>
</g>
<!-- Node223&#45;&gt;Node224 -->
<g id="edge10" class="edge">
<title>Node223&#45;&gt;Node224</title>
<path fill="none" stroke="#191970" d="M369.4515,-13.8637C377.6748,-13.5802 386.2246,-13.2854 394.7708,-12.9907"/>
<polygon fill="#191970" stroke="#191970" points="369.108,-10.3734 359.2346,-14.216 369.3493,-17.3693 369.108,-10.3734"/>
</g>
<!-- Node224&#45;&gt;Node218 -->
<g id="edge11" class="edge">
<title>Node224&#45;&gt;Node218</title>
<path fill="none" stroke="#191970" d="M568.2724,-20.7853C580.4121,-22.2942 592.5952,-23.8084 603.9074,-25.2145"/>
<polygon fill="#191970" stroke="#191970" points="568.4607,-17.2818 558.1053,-19.5216 567.5972,-24.2284 568.4607,-17.2818"/>
</g>
</g>
</svg>
