<?xml version="1.0" encoding="UTF-8" standalone="no"?>
<!DOCTYPE svg PUBLIC "-//W3C//DTD SVG 1.1//EN"
 "http://www.w3.org/Graphics/SVG/1.1/DTD/svg11.dtd">
<!-- Generated by graphviz version 2.40.1 (20161225.0304)
 -->
<!-- Title: utils::max Pages: 1 -->
<svg width="838pt" height="142pt"
 viewBox="0.00 0.00 838.00 142.00" xmlns="http://www.w3.org/2000/svg" xmlns:xlink="http://www.w3.org/1999/xlink">
<g id="graph0" class="graph" transform="scale(1 1) rotate(0) translate(4 138)">
<title>utils::max</title>
<polygon fill="#ffffff" stroke="transparent" points="-4,4 -4,-138 834,-138 834,4 -4,4"/>
<!-- Node200 -->
<g id="node1" class="node">
<title>Node200</title>
<polygon fill="#bfbfbf" stroke="#000000" points="0,-57.5 0,-76.5 59,-76.5 59,-57.5 0,-57.5"/>
<text text-anchor="middle" x="29.5" y="-64.5" font-family="Helvetica,sans-Serif" font-size="10.00" fill="#000000">utils::max</text>
</g>
<!-- Node201 -->
<g id="node2" class="node">
<title>Node201</title>
<g id="a_node2"><a xlink:href="class_alignment.html#a3754dfadea173918f5e85b9eb4c3ad8a" target="_top" xlink:title="Method to report the trimming results in HTML. Outputs an HTML file that shows visually what has been...">
<polygon fill="#ffffff" stroke="#000000" points="95,-114.5 95,-133.5 272,-133.5 272,-114.5 95,-114.5"/>
<text text-anchor="middle" x="183.5" y="-121.5" font-family="Helvetica,sans-Serif" font-size="10.00" fill="#000000">Alignment::alignmentSummaryHTML</text>
</a>
</g>
</g>
<!-- Node200&#45;&gt;Node201 -->
<g id="edge1" class="edge">
<title>Node200&#45;&gt;Node201</title>
<path fill="none" stroke="#191970" d="M52.0377,-82.4484C64.2776,-90.2151 79.9501,-99.1871 95,-105 104.8217,-108.7935 115.5643,-111.9028 126.073,-114.4262"/>
<polygon fill="#191970" stroke="#191970" points="53.7005,-79.3541 43.4141,-76.8165 49.8729,-85.215 53.7005,-79.3541"/>
</g>
<!-- Node207 -->
<g id="node8" class="node">
<title>Node207</title>
<g id="a_node8"><a xlink:href="class_alignment.html#ac4196c026e0f482eaccf9976f82f72e3" target="_top" xlink:title="Method to report the trimming results in SVG. Outputs a SVG file that shows visually what has been do...">
<polygon fill="#ffffff" stroke="#000000" points="98,-76.5 98,-95.5 269,-95.5 269,-76.5 98,-76.5"/>
<text text-anchor="middle" x="183.5" y="-83.5" font-family="Helvetica,sans-Serif" font-size="10.00" fill="#000000">Alignment::alignmentSummarySVG</text>
</a>
</g>
</g>
<!-- Node200&#45;&gt;Node207 -->
<g id="edge7" class="edge">
<title>Node200&#45;&gt;Node207</title>
<path fill="none" stroke="#191970" d="M69.2032,-71.8984C80.5869,-73.3029 93.4046,-74.8843 106.2321,-76.4669"/>
<polygon fill="#191970" stroke="#191970" points="69.5461,-68.4143 59.1927,-70.6634 68.6889,-75.3616 69.5461,-68.4143"/>
</g>
<!-- Node208 -->
<g id="node9" class="node">
<title>Node208</title>
<g id="a_node9"><a xlink:href="class_alignment.html#accfd82f91b9cdbe7a14ba85a1bada8cf" target="_top" xlink:title="Method to print different identity values computed from the alignment. In this method we assess the i...">
<polygon fill="#ffffff" stroke="#000000" points="116.5,-38.5 116.5,-57.5 250.5,-57.5 250.5,-38.5 116.5,-38.5"/>
<text text-anchor="middle" x="183.5" y="-45.5" font-family="Helvetica,sans-Serif" font-size="10.00" fill="#000000">Alignment::printSeqIdentity</text>
</a>
</g>
</g>
<!-- Node200&#45;&gt;Node208 -->
<g id="edge9" class="edge">
<title>Node200&#45;&gt;Node208</title>
<path fill="none" stroke="#191970" d="M69.2032,-62.1016C83.5606,-60.3302 100.199,-58.2774 116.2614,-56.2957"/>
<polygon fill="#191970" stroke="#191970" points="68.6889,-58.6384 59.1927,-63.3366 69.5461,-65.5857 68.6889,-58.6384"/>
</g>
<!-- Node210 -->
<g id="node11" class="node">
<title>Node210</title>
<g id="a_node11"><a xlink:href="class_alignment.html#a57b5686aff7324890422aa4295bc62d1" target="_top" xlink:title="Prints the overlap between sequences. ">
<polygon fill="#ffffff" stroke="#000000" points="115.5,-.5 115.5,-19.5 251.5,-19.5 251.5,-.5 115.5,-.5"/>
<text text-anchor="middle" x="183.5" y="-7.5" font-family="Helvetica,sans-Serif" font-size="10.00" fill="#000000">Alignment::printSeqOverlap</text>
</a>
</g>
</g>
<!-- Node200&#45;&gt;Node210 -->
<g id="edge12" class="edge">
<title>Node200&#45;&gt;Node210</title>
<path fill="none" stroke="#191970" d="M52.0377,-51.5516C64.2776,-43.7849 79.9501,-34.8129 95,-29 104.8217,-25.2065 115.5643,-22.0972 126.073,-19.5738"/>
<polygon fill="#191970" stroke="#191970" points="49.8729,-48.785 43.4141,-57.1835 53.7005,-54.6459 49.8729,-48.785"/>
</g>
<!-- Node202 -->
<g id="node3" class="node">
<title>Node202</title>
<g id="a_node3"><a xlink:href="classtrim_al_manager.html#a1da8f8b677f19ed8f7e08a663d97bb92" target="_top" xlink:title="trimAlManager::output\l_reports">
<polygon fill="#ffffff" stroke="#000000" points="308,-76 308,-106 421,-106 421,-76 308,-76"/>
<text text-anchor="start" x="316" y="-94" font-family="Helvetica,sans-Serif" font-size="10.00" fill="#000000">trimAlManager::output</text>
<text text-anchor="middle" x="364.5" y="-83" font-family="Helvetica,sans-Serif" font-size="10.00" fill="#000000">_reports</text>
</a>
</g>
</g>
<!-- Node201&#45;&gt;Node202 -->
<g id="edge2" class="edge">
<title>Node201&#45;&gt;Node202</title>
<path fill="none" stroke="#191970" d="M245.8515,-112.6321C265.9704,-108.964 288.1505,-104.9201 307.8356,-101.3311"/>
<polygon fill="#191970" stroke="#191970" points="245.0627,-109.2181 235.8527,-114.455 246.3183,-116.1046 245.0627,-109.2181"/>
</g>
<!-- Node203 -->
<g id="node4" class="node">
<title>Node203</title>
<g id="a_node4"><a xlink:href="classtrim_al_manager.html#a7c641a1feff33d401b4ea5c82e989289" target="_top" xlink:title="trimAlManager::innerPerform">
<polygon fill="#ffffff" stroke="#000000" points="458.5,-38.5 458.5,-57.5 599.5,-57.5 599.5,-38.5 458.5,-38.5"/>
<text text-anchor="middle" x="529" y="-45.5" font-family="Helvetica,sans-Serif" font-size="10.00" fill="#000000">trimAlManager::innerPerform</text>
</a>
</g>
</g>
<!-- Node202&#45;&gt;Node203 -->
<g id="edge3" class="edge">
<title>Node202&#45;&gt;Node203</title>
<path fill="none" stroke="#191970" d="M430.9465,-73.631C451.9204,-68.1485 474.3189,-62.2935 492.4059,-57.5656"/>
<polygon fill="#191970" stroke="#191970" points="429.9013,-70.2865 421.1116,-76.2018 431.6717,-77.059 429.9013,-70.2865"/>
</g>
<!-- Node206 -->
<g id="node7" class="node">
<title>Node206</title>
<g id="a_node7"><a xlink:href="classtrim_al_manager.html#ac5795f93b3a2b51bf5d8dddd63b89f73" target="_top" xlink:title="trimAlManager::perform_VCF">
<polygon fill="#ffffff" stroke="#000000" points="457,-81.5 457,-100.5 601,-100.5 601,-81.5 457,-81.5"/>
<text text-anchor="middle" x="529" y="-88.5" font-family="Helvetica,sans-Serif" font-size="10.00" fill="#000000">trimAlManager::perform_VCF</text>
</a>
</g>
</g>
<!-- Node202&#45;&gt;Node206 -->
<g id="edge6" class="edge">
<title>Node202&#45;&gt;Node206</title>
<path fill="none" stroke="#191970" d="M431.2672,-91C439.7053,-91 448.3689,-91 456.8853,-91"/>
<polygon fill="#191970" stroke="#191970" points="431.1116,-87.5001 421.1116,-91 431.1115,-94.5001 431.1116,-87.5001"/>
</g>
<!-- Node204 -->
<g id="node5" class="node">
<title>Node204</title>
<g id="a_node5"><a xlink:href="classtrim_al_manager.html#abe8d2841455c644dc9c7d1294b82b00f" target="_top" xlink:title="Method to perform the analysis if all checks have passed. ">
<polygon fill="#ffffff" stroke="#000000" points="637,-38.5 637,-57.5 756,-57.5 756,-38.5 637,-38.5"/>
<text text-anchor="middle" x="696.5" y="-45.5" font-family="Helvetica,sans-Serif" font-size="10.00" fill="#000000">trimAlManager::perform</text>
</a>
</g>
</g>
<!-- Node203&#45;&gt;Node204 -->
<g id="edge4" class="edge">
<title>Node203&#45;&gt;Node204</title>
<path fill="none" stroke="#191970" d="M609.8102,-48C618.9363,-48 628.1089,-48 636.8939,-48"/>
<polygon fill="#191970" stroke="#191970" points="609.5497,-44.5001 599.5496,-48 609.5496,-51.5001 609.5497,-44.5001"/>
</g>
<!-- Node205 -->
<g id="node6" class="node">
<title>Node205</title>
<g id="a_node6"><a xlink:href="trim_al_main_8cpp.html#a0ddf1224851353fc92bfbff6f499fa97" target="_top" xlink:title="main">
<polygon fill="#ffffff" stroke="#000000" points="792,-38.5 792,-57.5 830,-57.5 830,-38.5 792,-38.5"/>
<text text-anchor="middle" x="811" y="-45.5" font-family="Helvetica,sans-Serif" font-size="10.00" fill="#000000">main</text>
</a>
</g>
</g>
<!-- Node204&#45;&gt;Node205 -->
<g id="edge5" class="edge">
<title>Node204&#45;&gt;Node205</title>
<path fill="none" stroke="#191970" d="M766.3198,-48C775.6177,-48 784.4503,-48 791.7697,-48"/>
<polygon fill="#191970" stroke="#191970" points="766.0976,-44.5001 756.0976,-48 766.0975,-51.5001 766.0976,-44.5001"/>
</g>
<!-- Node207&#45;&gt;Node202 -->
<g id="edge8" class="edge">
<title>Node207&#45;&gt;Node202</title>
<path fill="none" stroke="#191970" d="M279.4139,-88.6496C289.1759,-88.9192 298.8536,-89.1866 307.9905,-89.439"/>
<polygon fill="#191970" stroke="#191970" points="279.3224,-85.1458 269.2295,-88.3682 279.129,-92.1431 279.3224,-85.1458"/>
</g>
<!-- Node209 -->
<g id="node10" class="node">
<title>Node209</title>
<g id="a_node10"><a xlink:href="classtrim_al_manager.html#afc48b86f5ae35b9a5e721b65c58bf610" target="_top" xlink:title="Method to print statistics requested. ">
<polygon fill="#ffffff" stroke="#000000" points="312.5,-27 312.5,-57 416.5,-57 416.5,-27 312.5,-27"/>
<text text-anchor="start" x="320.5" y="-45" font-family="Helvetica,sans-Serif" font-size="10.00" fill="#000000">trimAlManager::print</text>
<text text-anchor="middle" x="364.5" y="-34" font-family="Helvetica,sans-Serif" font-size="10.00" fill="#000000">_statistics</text>
</a>
</g>
</g>
<!-- Node208&#45;&gt;Node209 -->
<g id="edge10" class="edge">
<title>Node208&#45;&gt;Node209</title>
<path fill="none" stroke="#191970" d="M260.81,-45.4372C278.2472,-44.8592 296.352,-44.259 312.4598,-43.7251"/>
<polygon fill="#191970" stroke="#191970" points="260.519,-41.9449 250.6405,-45.7743 260.751,-48.941 260.519,-41.9449"/>
</g>
<!-- Node209&#45;&gt;Node203 -->
<g id="edge11" class="edge">
<title>Node209&#45;&gt;Node203</title>
<path fill="none" stroke="#191970" d="M426.7051,-44.2689C437.0373,-44.6457 447.8189,-45.039 458.3422,-45.4228"/>
<polygon fill="#191970" stroke="#191970" points="426.6698,-40.7654 416.5488,-43.8984 426.4146,-47.7607 426.6698,-40.7654"/>
</g>
<!-- Node210&#45;&gt;Node209 -->
<g id="edge13" class="edge">
<title>Node210&#45;&gt;Node209</title>
<path fill="none" stroke="#191970" d="M247.2673,-21.2738C268.6022,-25.0457 292.1148,-29.2026 312.447,-32.7973"/>
<polygon fill="#191970" stroke="#191970" points="247.7726,-17.8089 237.3159,-19.5144 246.5538,-24.702 247.7726,-17.8089"/>
</g>
</g>
</svg>
