<?xml version="1.0" encoding="UTF-8" standalone="no"?>
<!DOCTYPE svg PUBLIC "-//W3C//DTD SVG 1.1//EN"
 "http://www.w3.org/Graphics/SVG/1.1/DTD/svg11.dtd">
<!-- Generated by graphviz version 2.40.1 (20161225.0304)
 -->
<!-- Title: utils::ReplaceString Pages: 1 -->
<svg width="1250pt" height="183pt"
 viewBox="0.00 0.00 1250.00 183.00" xmlns="http://www.w3.org/2000/svg" xmlns:xlink="http://www.w3.org/1999/xlink">
<g id="graph0" class="graph" transform="scale(1 1) rotate(0) translate(4 179)">
<title>utils::ReplaceString</title>
<polygon fill="#ffffff" stroke="transparent" points="-4,4 -4,-179 1246,-179 1246,4 -4,4"/>
<!-- Node331 -->
<g id="node1" class="node">
<title>Node331</title>
<polygon fill="#bfbfbf" stroke="#000000" points="0,-102.5 0,-121.5 102,-121.5 102,-102.5 0,-102.5"/>
<text text-anchor="middle" x="51" y="-109.5" font-family="Helvetica,sans-Serif" font-size="10.00" fill="#000000">utils::ReplaceString</text>
</g>
<!-- Node332 -->
<g id="node2" class="node">
<title>Node332</title>
<g id="a_node2"><a xlink:href="classtrim_al_manager.html#a1da8f8b677f19ed8f7e08a663d97bb92" target="_top" xlink:title="trimAlManager::output\l_reports">
<polygon fill="#ffffff" stroke="#000000" points="357.5,-116 357.5,-146 470.5,-146 470.5,-116 357.5,-116"/>
<text text-anchor="start" x="365.5" y="-134" font-family="Helvetica,sans-Serif" font-size="10.00" fill="#000000">trimAlManager::output</text>
<text text-anchor="middle" x="414" y="-123" font-family="Helvetica,sans-Serif" font-size="10.00" fill="#000000">_reports</text>
</a>
</g>
</g>
<!-- Node331&#45;&gt;Node332 -->
<g id="edge1" class="edge">
<title>Node331&#45;&gt;Node332</title>
<path fill="none" stroke="#191970" d="M112.4514,-115.2165C180.9617,-118.8024 290.8476,-124.554 357.349,-128.0348"/>
<polygon fill="#191970" stroke="#191970" points="112.4084,-111.7095 102.2391,-114.6819 112.0425,-118.6999 112.4084,-111.7095"/>
</g>
<!-- Node334 -->
<g id="node4" class="node">
<title>Node334</title>
<g id="a_node4"><a xlink:href="classtrim_al_manager.html#abe8d2841455c644dc9c7d1294b82b00f" target="_top" xlink:title="Method to perform the analysis if all checks have passed. ">
<polygon fill="#ffffff" stroke="#000000" points="1049,-81.5 1049,-100.5 1168,-100.5 1168,-81.5 1049,-81.5"/>
<text text-anchor="middle" x="1108.5" y="-88.5" font-family="Helvetica,sans-Serif" font-size="10.00" fill="#000000">trimAlManager::perform</text>
</a>
</g>
</g>
<!-- Node331&#45;&gt;Node334 -->
<g id="edge5" class="edge">
<title>Node331&#45;&gt;Node334</title>
<path fill="none" stroke="#191970" d="M93.5268,-124.2738C160.8986,-142.6039 296.5793,-175 414,-175 414,-175 414,-175 782.5,-175 900.5606,-175 1035.2808,-122.7 1086.8628,-100.6359"/>
<polygon fill="#191970" stroke="#191970" points="94.2734,-120.8491 83.703,-121.5683 92.4148,-127.5979 94.2734,-120.8491"/>
</g>
<!-- Node336 -->
<g id="node6" class="node">
<title>Node336</title>
<g id="a_node6"><a xlink:href="class_format_handling_1_1_format_manager.html#a04370e2eae3630aab799320268b70176" target="_top" xlink:title="FormatHandling::FormatManager\l::replaceINtag">
<polygon fill="#ffffff" stroke="#000000" points="138,-34 138,-64 298,-64 298,-34 138,-34"/>
<text text-anchor="start" x="146" y="-52" font-family="Helvetica,sans-Serif" font-size="10.00" fill="#000000">FormatHandling::FormatManager</text>
<text text-anchor="middle" x="218" y="-41" font-family="Helvetica,sans-Serif" font-size="10.00" fill="#000000">::replaceINtag</text>
</a>
</g>
</g>
<!-- Node331&#45;&gt;Node336 -->
<g id="edge6" class="edge">
<title>Node331&#45;&gt;Node336</title>
<path fill="none" stroke="#191970" d="M85.5856,-98.8471C101.5375,-92.7894 120.7264,-85.5148 138,-79 150.9075,-74.1319 164.9948,-68.8416 177.7012,-64.0783"/>
<polygon fill="#191970" stroke="#191970" points="84.2228,-95.6207 76.1176,-102.4439 86.7088,-102.1644 84.2228,-95.6207"/>
</g>
<!-- Node337 -->
<g id="node7" class="node">
<title>Node337</title>
<g id="a_node7"><a xlink:href="class_format_handling_1_1_format_manager.html#af8d1e7864bb2811199d26ff24a30440e" target="_top" xlink:title="Function to save an alignment to a file. It searches among the available_states one that can write th...">
<polygon fill="#ffffff" stroke="#000000" points="334,-50 334,-80 494,-80 494,-50 334,-50"/>
<text text-anchor="start" x="342" y="-68" font-family="Helvetica,sans-Serif" font-size="10.00" fill="#000000">FormatHandling::FormatManager</text>
<text text-anchor="middle" x="414" y="-57" font-family="Helvetica,sans-Serif" font-size="10.00" fill="#000000">::saveAlignments</text>
</a>
</g>
</g>
<!-- Node331&#45;&gt;Node337 -->
<g id="edge15" class="edge">
<title>Node331&#45;&gt;Node337</title>
<path fill="none" stroke="#191970" d="M112.4827,-104.0394C173.4669,-96.1434 267.2135,-84.0054 333.9722,-75.3617"/>
<polygon fill="#191970" stroke="#191970" points="111.7069,-100.6106 102.2391,-105.3657 112.6058,-107.5526 111.7069,-100.6106"/>
</g>
<!-- Node333 -->
<g id="node3" class="node">
<title>Node333</title>
<g id="a_node3"><a xlink:href="classtrim_al_manager.html#a7c641a1feff33d401b4ea5c82e989289" target="_top" xlink:title="trimAlManager::innerPerform">
<polygon fill="#ffffff" stroke="#000000" points="872,-81.5 872,-100.5 1013,-100.5 1013,-81.5 872,-81.5"/>
<text text-anchor="middle" x="942.5" y="-88.5" font-family="Helvetica,sans-Serif" font-size="10.00" fill="#000000">trimAlManager::innerPerform</text>
</a>
</g>
</g>
<!-- Node332&#45;&gt;Node333 -->
<g id="edge2" class="edge">
<title>Node332&#45;&gt;Node333</title>
<path fill="none" stroke="#191970" d="M480.6027,-130.4167C563.9595,-129.0595 710.9778,-124.5954 836,-110 855.7741,-107.6915 877.432,-104.0373 896.0234,-100.5474"/>
<polygon fill="#191970" stroke="#191970" points="480.4564,-126.9184 470.511,-130.5708 480.5633,-133.9176 480.4564,-126.9184"/>
</g>
<!-- Node333&#45;&gt;Node334 -->
<g id="edge3" class="edge">
<title>Node333&#45;&gt;Node334</title>
<path fill="none" stroke="#191970" d="M1023.4012,-91C1031.9677,-91 1040.564,-91 1048.8249,-91"/>
<polygon fill="#191970" stroke="#191970" points="1023.3805,-87.5001 1013.3804,-91 1023.3804,-94.5001 1023.3805,-87.5001"/>
</g>
<!-- Node335 -->
<g id="node5" class="node">
<title>Node335</title>
<g id="a_node5"><a xlink:href="trim_al_main_8cpp.html#a0ddf1224851353fc92bfbff6f499fa97" target="_top" xlink:title="main">
<polygon fill="#ffffff" stroke="#000000" points="1204,-81.5 1204,-100.5 1242,-100.5 1242,-81.5 1204,-81.5"/>
<text text-anchor="middle" x="1223" y="-88.5" font-family="Helvetica,sans-Serif" font-size="10.00" fill="#000000">main</text>
</a>
</g>
</g>
<!-- Node334&#45;&gt;Node335 -->
<g id="edge4" class="edge">
<title>Node334&#45;&gt;Node335</title>
<path fill="none" stroke="#191970" d="M1178.3198,-91C1187.6177,-91 1196.4503,-91 1203.7697,-91"/>
<polygon fill="#191970" stroke="#191970" points="1178.0976,-87.5001 1168.0976,-91 1178.0975,-94.5001 1178.0976,-87.5001"/>
</g>
<!-- Node336&#45;&gt;Node334 -->
<g id="edge7" class="edge">
<title>Node336&#45;&gt;Node334</title>
<path fill="none" stroke="#191970" d="M303.4138,-32.1687C382.8651,-17.9899 504.7128,0 611.5,0 611.5,0 611.5,0 782.5,0 902.666,0 1038.8772,-58.0695 1088.8178,-81.4334"/>
<polygon fill="#191970" stroke="#191970" points="302.6762,-28.7452 293.4566,-33.9654 303.9192,-35.634 302.6762,-28.7452"/>
</g>
<!-- Node336&#45;&gt;Node337 -->
<g id="edge8" class="edge">
<title>Node336&#45;&gt;Node337</title>
<path fill="none" stroke="#191970" d="M308.0766,-56.3532C316.7035,-57.0574 325.4128,-57.7684 333.9347,-58.4641"/>
<polygon fill="#191970" stroke="#191970" points="308.255,-52.8562 298.0034,-55.5309 307.6854,-59.833 308.255,-52.8562"/>
</g>
<!-- Node338 -->
<g id="node8" class="node">
<title>Node338</title>
<g id="a_node8"><a xlink:href="class_format_handling_1_1_format_manager.html#a853678a6e07f67da8cf7b77795b297be" target="_top" xlink:title="Function that takes multiple files, loads them and saves in a cumulus of formats, using an outPattern...">
<polygon fill="#ffffff" stroke="#000000" points="530,-78 530,-108 693,-108 693,-78 530,-78"/>
<text text-anchor="start" x="538" y="-96" font-family="Helvetica,sans-Serif" font-size="10.00" fill="#000000">FormatHandling::FormatManager</text>
<text text-anchor="middle" x="611.5" y="-85" font-family="Helvetica,sans-Serif" font-size="10.00" fill="#000000">::loadAndSaveMultipleAlignments</text>
</a>
</g>
</g>
<!-- Node337&#45;&gt;Node338 -->
<g id="edge9" class="edge">
<title>Node337&#45;&gt;Node338</title>
<path fill="none" stroke="#191970" d="M504.0418,-77.7654C512.6045,-78.9794 521.2551,-80.2058 529.7335,-81.4078"/>
<polygon fill="#191970" stroke="#191970" points="504.4384,-74.2867 494.0461,-76.3483 503.4558,-81.2174 504.4384,-74.2867"/>
</g>
<!-- Node340 -->
<g id="node10" class="node">
<title>Node340</title>
<g id="a_node10"><a xlink:href="class_format_handling_1_1_format_manager.html#a084d6b423e40a6d53ab3f4413f3f9176" target="_top" xlink:title="Function to save an alignment to a file. It searches among the available_states one that can write th...">
<polygon fill="#ffffff" stroke="#000000" points="531.5,-29 531.5,-59 691.5,-59 691.5,-29 531.5,-29"/>
<text text-anchor="start" x="539.5" y="-47" font-family="Helvetica,sans-Serif" font-size="10.00" fill="#000000">FormatHandling::FormatManager</text>
<text text-anchor="middle" x="611.5" y="-36" font-family="Helvetica,sans-Serif" font-size="10.00" fill="#000000">::saveAlignment</text>
</a>
</g>
</g>
<!-- Node337&#45;&gt;Node340 -->
<g id="edge11" class="edge">
<title>Node337&#45;&gt;Node340</title>
<path fill="none" stroke="#191970" d="M504.2068,-55.4084C513.2572,-54.4461 522.4039,-53.4735 531.3399,-52.5233"/>
<polygon fill="#191970" stroke="#191970" points="503.6199,-51.951 494.0461,-56.4888 504.3601,-58.9117 503.6199,-51.951"/>
</g>
<!-- Node339 -->
<g id="node9" class="node">
<title>Node339</title>
<g id="a_node9"><a xlink:href="read_al_main_8cpp.html#a0ddf1224851353fc92bfbff6f499fa97" target="_top" xlink:title="main">
<polygon fill="#ffffff" stroke="#000000" points="763.5,-81.5 763.5,-100.5 801.5,-100.5 801.5,-81.5 763.5,-81.5"/>
<text text-anchor="middle" x="782.5" y="-88.5" font-family="Helvetica,sans-Serif" font-size="10.00" fill="#000000">main</text>
</a>
</g>
</g>
<!-- Node338&#45;&gt;Node339 -->
<g id="edge10" class="edge">
<title>Node338&#45;&gt;Node339</title>
<path fill="none" stroke="#191970" d="M703.3411,-91.9258C726.0439,-91.6603 748.1473,-91.4018 763.201,-91.2257"/>
<polygon fill="#191970" stroke="#191970" points="703.2021,-88.4271 693.2438,-92.0439 703.284,-95.4266 703.2021,-88.4271"/>
</g>
<!-- Node340&#45;&gt;Node339 -->
<g id="edge12" class="edge">
<title>Node340&#45;&gt;Node339</title>
<path fill="none" stroke="#191970" d="M675.9953,-61.7268C707.0436,-70.2605 742.0313,-79.877 763.1621,-85.6849"/>
<polygon fill="#191970" stroke="#191970" points="676.6457,-58.2758 666.0756,-59.0003 674.7904,-65.0255 676.6457,-58.2758"/>
</g>
<!-- Node341 -->
<g id="node11" class="node">
<title>Node341</title>
<g id="a_node11"><a xlink:href="classtrim_al_manager.html#a7ba38127fa10c926b96c60250b80d2b7" target="_top" xlink:title="trimAlManager::save\l_alignment">
<polygon fill="#ffffff" stroke="#000000" points="729,-31 729,-61 836,-61 836,-31 729,-31"/>
<text text-anchor="start" x="737" y="-49" font-family="Helvetica,sans-Serif" font-size="10.00" fill="#000000">trimAlManager::save</text>
<text text-anchor="middle" x="782.5" y="-38" font-family="Helvetica,sans-Serif" font-size="10.00" fill="#000000">_alignment</text>
</a>
</g>
</g>
<!-- Node340&#45;&gt;Node341 -->
<g id="edge13" class="edge">
<title>Node340&#45;&gt;Node341</title>
<path fill="none" stroke="#191970" d="M702.0047,-45.0585C711.0849,-45.1647 720.0896,-45.2701 728.6072,-45.3697"/>
<polygon fill="#191970" stroke="#191970" points="701.783,-41.5558 691.7427,-44.9385 701.701,-48.5553 701.783,-41.5558"/>
</g>
<!-- Node341&#45;&gt;Node333 -->
<g id="edge14" class="edge">
<title>Node341&#45;&gt;Node333</title>
<path fill="none" stroke="#191970" d="M845.936,-63.8414C867.3821,-69.8731 890.489,-76.3719 908.7209,-81.4996"/>
<polygon fill="#191970" stroke="#191970" points="846.7969,-60.4478 836.2228,-61.1095 844.9017,-67.1863 846.7969,-60.4478"/>
</g>
</g>
</svg>
