<?xml version="1.0" encoding="UTF-8" standalone="no"?>
<!DOCTYPE svg PUBLIC "-//W3C//DTD SVG 1.1//EN"
 "http://www.w3.org/Graphics/SVG/1.1/DTD/svg11.dtd">
<!-- Generated by graphviz version 2.40.1 (20161225.0304)
 -->
<!-- Title: utils::max Pages: 1 -->
<svg width="835pt" height="142pt"
 viewBox="0.00 0.00 835.00 142.00" xmlns="http://www.w3.org/2000/svg" xmlns:xlink="http://www.w3.org/1999/xlink">
<g id="graph0" class="graph" transform="scale(1 1) rotate(0) translate(4 138)">
<title>utils::max</title>
<polygon fill="#ffffff" stroke="transparent" points="-4,4 -4,-138 831,-138 831,4 -4,4"/>
<!-- Node209 -->
<g id="node1" class="node">
<title>Node209</title>
<polygon fill="#bfbfbf" stroke="#000000" points="0,-57.5 0,-76.5 59,-76.5 59,-57.5 0,-57.5"/>
<text text-anchor="middle" x="29.5" y="-64.5" font-family="Helvetica,sans-Serif" font-size="10.00" fill="#000000">utils::max</text>
</g>
<!-- Node210 -->
<g id="node2" class="node">
<title>Node210</title>
<g id="a_node2"><a xlink:href="class_alignment.html#a3754dfadea173918f5e85b9eb4c3ad8a" target="_top" xlink:title="Method to report the trimming results in HTML. Outputs an HTML file that shows visually what has been...">
<polygon fill="#ffffff" stroke="#000000" points="95,-114.5 95,-133.5 272,-133.5 272,-114.5 95,-114.5"/>
<text text-anchor="middle" x="183.5" y="-121.5" font-family="Helvetica,sans-Serif" font-size="10.00" fill="#000000">Alignment::alignmentSummaryHTML</text>
</a>
</g>
</g>
<!-- Node209&#45;&gt;Node210 -->
<g id="edge1" class="edge">
<title>Node209&#45;&gt;Node210</title>
<path fill="none" stroke="#191970" d="M52.0377,-82.4484C64.2776,-90.2151 79.9501,-99.1871 95,-105 104.8217,-108.7935 115.5643,-111.9028 126.073,-114.4262"/>
<polygon fill="#191970" stroke="#191970" points="53.7005,-79.3541 43.4141,-76.8165 49.8729,-85.215 53.7005,-79.3541"/>
</g>
<!-- Node215 -->
<g id="node7" class="node">
<title>Node215</title>
<g id="a_node7"><a xlink:href="class_alignment.html#ac4196c026e0f482eaccf9976f82f72e3" target="_top" xlink:title="Method to report the trimming results in SVG. Outputs a SVG file that shows visually what has been do...">
<polygon fill="#ffffff" stroke="#000000" points="98,-76.5 98,-95.5 269,-95.5 269,-76.5 98,-76.5"/>
<text text-anchor="middle" x="183.5" y="-83.5" font-family="Helvetica,sans-Serif" font-size="10.00" fill="#000000">Alignment::alignmentSummarySVG</text>
</a>
</g>
</g>
<!-- Node209&#45;&gt;Node215 -->
<g id="edge6" class="edge">
<title>Node209&#45;&gt;Node215</title>
<path fill="none" stroke="#191970" d="M69.2032,-71.8984C80.5869,-73.3029 93.4046,-74.8843 106.2321,-76.4669"/>
<polygon fill="#191970" stroke="#191970" points="69.5461,-68.4143 59.1927,-70.6634 68.6889,-75.3616 69.5461,-68.4143"/>
</g>
<!-- Node216 -->
<g id="node8" class="node">
<title>Node216</title>
<g id="a_node8"><a xlink:href="class_alignment.html#accfd82f91b9cdbe7a14ba85a1bada8cf" target="_top" xlink:title="Method to print different identity values computed from the alignment. In this method we assess the i...">
<polygon fill="#ffffff" stroke="#000000" points="116.5,-38.5 116.5,-57.5 250.5,-57.5 250.5,-38.5 116.5,-38.5"/>
<text text-anchor="middle" x="183.5" y="-45.5" font-family="Helvetica,sans-Serif" font-size="10.00" fill="#000000">Alignment::printSeqIdentity</text>
</a>
</g>
</g>
<!-- Node209&#45;&gt;Node216 -->
<g id="edge8" class="edge">
<title>Node209&#45;&gt;Node216</title>
<path fill="none" stroke="#191970" d="M69.2032,-62.1016C83.5606,-60.3302 100.199,-58.2774 116.2614,-56.2957"/>
<polygon fill="#191970" stroke="#191970" points="68.6889,-58.6384 59.1927,-63.3366 69.5461,-65.5857 68.6889,-58.6384"/>
</g>
<!-- Node218 -->
<g id="node10" class="node">
<title>Node218</title>
<g id="a_node10"><a xlink:href="class_alignment.html#a57b5686aff7324890422aa4295bc62d1" target="_top" xlink:title="Prints the overlap between sequences. ">
<polygon fill="#ffffff" stroke="#000000" points="115.5,-.5 115.5,-19.5 251.5,-19.5 251.5,-.5 115.5,-.5"/>
<text text-anchor="middle" x="183.5" y="-7.5" font-family="Helvetica,sans-Serif" font-size="10.00" fill="#000000">Alignment::printSeqOverlap</text>
</a>
</g>
</g>
<!-- Node209&#45;&gt;Node218 -->
<g id="edge11" class="edge">
<title>Node209&#45;&gt;Node218</title>
<path fill="none" stroke="#191970" d="M52.0377,-51.5516C64.2776,-43.7849 79.9501,-34.8129 95,-29 104.8217,-25.2065 115.5643,-22.0972 126.073,-19.5738"/>
<polygon fill="#191970" stroke="#191970" points="49.8729,-48.785 43.4141,-57.1835 53.7005,-54.6459 49.8729,-48.785"/>
</g>
<!-- Node211 -->
<g id="node3" class="node">
<title>Node211</title>
<g id="a_node3"><a xlink:href="classtrim_al_manager.html#a1da8f8b677f19ed8f7e08a663d97bb92" target="_top" xlink:title="trimAlManager::output\l_reports">
<polygon fill="#ffffff" stroke="#000000" points="308,-76 308,-106 421,-106 421,-76 308,-76"/>
<text text-anchor="start" x="316" y="-94" font-family="Helvetica,sans-Serif" font-size="10.00" fill="#000000">trimAlManager::output</text>
<text text-anchor="middle" x="364.5" y="-83" font-family="Helvetica,sans-Serif" font-size="10.00" fill="#000000">_reports</text>
</a>
</g>
</g>
<!-- Node210&#45;&gt;Node211 -->
<g id="edge2" class="edge">
<title>Node210&#45;&gt;Node211</title>
<path fill="none" stroke="#191970" d="M245.8515,-112.6321C265.9704,-108.964 288.1505,-104.9201 307.8356,-101.3311"/>
<polygon fill="#191970" stroke="#191970" points="245.0627,-109.2181 235.8527,-114.455 246.3183,-116.1046 245.0627,-109.2181"/>
</g>
<!-- Node212 -->
<g id="node4" class="node">
<title>Node212</title>
<g id="a_node4"><a xlink:href="classtrim_al_manager.html#a7c641a1feff33d401b4ea5c82e989289" target="_top" xlink:title="trimAlManager::innerPerform">
<polygon fill="#ffffff" stroke="#000000" points="457,-56.5 457,-75.5 598,-75.5 598,-56.5 457,-56.5"/>
<text text-anchor="middle" x="527.5" y="-63.5" font-family="Helvetica,sans-Serif" font-size="10.00" fill="#000000">trimAlManager::innerPerform</text>
</a>
</g>
</g>
<!-- Node211&#45;&gt;Node212 -->
<g id="edge3" class="edge">
<title>Node211&#45;&gt;Node212</title>
<path fill="none" stroke="#191970" d="M430.9537,-80.8077C442.3675,-79.0571 454.1891,-77.244 465.4808,-75.5122"/>
<polygon fill="#191970" stroke="#191970" points="430.4058,-77.3507 421.052,-82.3264 431.4671,-84.2698 430.4058,-77.3507"/>
</g>
<!-- Node213 -->
<g id="node5" class="node">
<title>Node213</title>
<g id="a_node5"><a xlink:href="classtrim_al_manager.html#abe8d2841455c644dc9c7d1294b82b00f" target="_top" xlink:title="Method to perform the analysis if all checks have passed. ">
<polygon fill="#ffffff" stroke="#000000" points="634,-56.5 634,-75.5 753,-75.5 753,-56.5 634,-56.5"/>
<text text-anchor="middle" x="693.5" y="-63.5" font-family="Helvetica,sans-Serif" font-size="10.00" fill="#000000">trimAlManager::perform</text>
</a>
</g>
</g>
<!-- Node212&#45;&gt;Node213 -->
<g id="edge4" class="edge">
<title>Node212&#45;&gt;Node213</title>
<path fill="none" stroke="#191970" d="M608.4012,-66C616.9677,-66 625.564,-66 633.8249,-66"/>
<polygon fill="#191970" stroke="#191970" points="608.3805,-62.5001 598.3804,-66 608.3804,-69.5001 608.3805,-62.5001"/>
</g>
<!-- Node214 -->
<g id="node6" class="node">
<title>Node214</title>
<g id="a_node6"><a xlink:href="trim_al_main_8cpp.html#a0ddf1224851353fc92bfbff6f499fa97" target="_top" xlink:title="main">
<polygon fill="#ffffff" stroke="#000000" points="789,-56.5 789,-75.5 827,-75.5 827,-56.5 789,-56.5"/>
<text text-anchor="middle" x="808" y="-63.5" font-family="Helvetica,sans-Serif" font-size="10.00" fill="#000000">main</text>
</a>
</g>
</g>
<!-- Node213&#45;&gt;Node214 -->
<g id="edge5" class="edge">
<title>Node213&#45;&gt;Node214</title>
<path fill="none" stroke="#191970" d="M763.3198,-66C772.6177,-66 781.4503,-66 788.7697,-66"/>
<polygon fill="#191970" stroke="#191970" points="763.0976,-62.5001 753.0976,-66 763.0975,-69.5001 763.0976,-62.5001"/>
</g>
<!-- Node215&#45;&gt;Node211 -->
<g id="edge7" class="edge">
<title>Node215&#45;&gt;Node211</title>
<path fill="none" stroke="#191970" d="M279.4139,-88.6496C289.1759,-88.9192 298.8536,-89.1866 307.9905,-89.439"/>
<polygon fill="#191970" stroke="#191970" points="279.3224,-85.1458 269.2295,-88.3682 279.129,-92.1431 279.3224,-85.1458"/>
</g>
<!-- Node217 -->
<g id="node9" class="node">
<title>Node217</title>
<g id="a_node9"><a xlink:href="classtrim_al_manager.html#afc48b86f5ae35b9a5e721b65c58bf610" target="_top" xlink:title="Method to print statistics requested. ">
<polygon fill="#ffffff" stroke="#000000" points="312.5,-27 312.5,-57 416.5,-57 416.5,-27 312.5,-27"/>
<text text-anchor="start" x="320.5" y="-45" font-family="Helvetica,sans-Serif" font-size="10.00" fill="#000000">trimAlManager::print</text>
<text text-anchor="middle" x="364.5" y="-34" font-family="Helvetica,sans-Serif" font-size="10.00" fill="#000000">_statistics</text>
</a>
</g>
</g>
<!-- Node216&#45;&gt;Node217 -->
<g id="edge9" class="edge">
<title>Node216&#45;&gt;Node217</title>
<path fill="none" stroke="#191970" d="M260.81,-45.4372C278.2472,-44.8592 296.352,-44.259 312.4598,-43.7251"/>
<polygon fill="#191970" stroke="#191970" points="260.519,-41.9449 250.6405,-45.7743 260.751,-48.941 260.519,-41.9449"/>
</g>
<!-- Node217&#45;&gt;Node212 -->
<g id="edge10" class="edge">
<title>Node217&#45;&gt;Node212</title>
<path fill="none" stroke="#191970" d="M426.7294,-51.1626C438.5427,-52.902 450.9292,-54.7258 462.8165,-56.4761"/>
<polygon fill="#191970" stroke="#191970" points="426.9256,-47.6538 416.5224,-49.6597 425.9058,-54.5792 426.9256,-47.6538"/>
</g>
<!-- Node218&#45;&gt;Node217 -->
<g id="edge12" class="edge">
<title>Node218&#45;&gt;Node217</title>
<path fill="none" stroke="#191970" d="M247.2673,-21.2738C268.6022,-25.0457 292.1148,-29.2026 312.447,-32.7973"/>
<polygon fill="#191970" stroke="#191970" points="247.7726,-17.8089 237.3159,-19.5144 246.5538,-24.702 247.7726,-17.8089"/>
</g>
</g>
</svg>
