<?xml version="1.0" encoding="UTF-8" standalone="no"?>
<!DOCTYPE svg PUBLIC "-//W3C//DTD SVG 1.1//EN"
 "http://www.w3.org/Graphics/SVG/1.1/DTD/svg11.dtd">
<!-- Generated by graphviz version 2.40.1 (20161225.0304)
 -->
<!-- Title: ngs::__internal::applyVariantCallingFiles Pages: 1 -->
<svg width="333pt" height="127pt"
 viewBox="0.00 0.00 333.00 126.50" xmlns="http://www.w3.org/2000/svg" xmlns:xlink="http://www.w3.org/1999/xlink">
<g id="graph0" class="graph" transform="scale(1 1) rotate(0) translate(4 122.5)">
<title>ngs::__internal::applyVariantCallingFiles</title>
<polygon fill="#ffffff" stroke="transparent" points="-4,4 -4,-122.5 329,-122.5 329,4 -4,4"/>
<!-- Node0 -->
<g id="node1" class="node">
<title>Node0</title>
<g id="a_node1"><a xlink:title=" ">
<polygon fill="#bfbfbf" stroke="#000000" points="0,-49.5 0,-79.5 140,-79.5 140,-49.5 0,-49.5"/>
<text text-anchor="start" x="8" y="-67.5" font-family="Helvetica,sans-Serif" font-size="10.00" fill="#000000">ngs::__internal::applyVariant</text>
<text text-anchor="middle" x="70" y="-56.5" font-family="Helvetica,sans-Serif" font-size="10.00" fill="#000000">CallingFiles</text>
</a>
</g>
</g>
<!-- Node1 -->
<g id="node2" class="node">
<title>Node1</title>
<g id="a_node2"><a xlink:href="namespacengs_1_1_i_u_p_a_c.html#ac33770374cfa395b9280f707406e73d6" target="_top" xlink:title=" ">
<polygon fill="#ffffff" stroke="#000000" points="176,-99 176,-118 325,-118 325,-99 176,-99"/>
<text text-anchor="middle" x="250.5" y="-106" font-family="Helvetica,sans-Serif" font-size="10.00" fill="#000000">ngs::IUPAC::getCharFromTag</text>
</a>
</g>
</g>
<!-- Node0&#45;&gt;Node1 -->
<g id="edge1" class="edge">
<title>Node0&#45;&gt;Node1</title>
<path fill="none" stroke="#191970" d="M131.613,-79.5192C154.4478,-85.0856 180.0112,-91.3171 201.5653,-96.5713"/>
<polygon fill="#191970" stroke="#191970" points="200.933,-100.0196 211.4775,-98.9876 202.5909,-93.2188 200.933,-100.0196"/>
</g>
<!-- Node2 -->
<g id="node3" class="node">
<title>Node2</title>
<g id="a_node3"><a xlink:href="namespacengs_1_1_i_u_p_a_c.html#a102a09d8741aa544b6354ced312a2a1d" target="_top" xlink:title=" ">
<polygon fill="#ffffff" stroke="#000000" points="176,-49.5 176,-79.5 325,-79.5 325,-49.5 176,-49.5"/>
<text text-anchor="start" x="184" y="-67.5" font-family="Helvetica,sans-Serif" font-size="10.00" fill="#000000">ngs::IUPAC::getTagFromChar</text>
<text text-anchor="middle" x="250.5" y="-56.5" font-family="Helvetica,sans-Serif" font-size="10.00" fill="#000000">Array</text>
</a>
</g>
</g>
<!-- Node0&#45;&gt;Node2 -->
<g id="edge2" class="edge">
<title>Node0&#45;&gt;Node2</title>
<path fill="none" stroke="#191970" d="M140.0444,-64.5C148.449,-64.5 157.1,-64.5 165.6852,-64.5"/>
<polygon fill="#191970" stroke="#191970" points="165.7146,-68.0001 175.7146,-64.5 165.7145,-61.0001 165.7146,-68.0001"/>
</g>
<!-- Node3 -->
<g id="node4" class="node">
<title>Node3</title>
<g id="a_node4"><a xlink:href="classreporting_1_1report_manager.html#a6d122e673144584e0869bd33b8a5c1c6" target="_top" xlink:title="Method to report an Error. &#160;It will be displayed if Level &#160;is equal or higher to VerboseLevel::ERROR.">
<polygon fill="#ffffff" stroke="#000000" points="189.5,-.5 189.5,-30.5 311.5,-30.5 311.5,-.5 189.5,-.5"/>
<text text-anchor="start" x="197.5" y="-18.5" font-family="Helvetica,sans-Serif" font-size="10.00" fill="#000000">reporting::reportManager</text>
<text text-anchor="middle" x="250.5" y="-7.5" font-family="Helvetica,sans-Serif" font-size="10.00" fill="#000000">::report</text>
</a>
</g>
</g>
<!-- Node0&#45;&gt;Node3 -->
<g id="edge3" class="edge">
<title>Node0&#45;&gt;Node3</title>
<path fill="none" stroke="#191970" d="M125.6288,-49.3986C144.5034,-44.2747 165.7592,-38.5044 185.3108,-33.1968"/>
<polygon fill="#191970" stroke="#191970" points="186.3212,-36.5493 195.0549,-30.5516 184.4872,-29.7938 186.3212,-36.5493"/>
</g>
</g>
</svg>
