<?xml version="1.0" encoding="UTF-8" standalone="no"?>
<!DOCTYPE svg PUBLIC "-//W3C//DTD SVG 1.1//EN"
 "http://www.w3.org/Graphics/SVG/1.1/DTD/svg11.dtd">
<!-- Generated by graphviz version 2.40.1 (20161225.0304)
 -->
<!-- Title: utils::isNumber Pages: 1 -->
<svg width="535pt" height="764pt"
 viewBox="0.00 0.00 535.00 764.00" xmlns="http://www.w3.org/2000/svg" xmlns:xlink="http://www.w3.org/1999/xlink">
<g id="graph0" class="graph" transform="scale(1 1) rotate(0) translate(4 760)">
<title>utils::isNumber</title>
<polygon fill="#ffffff" stroke="transparent" points="-4,4 -4,-760 531,-760 531,4 -4,4"/>
<!-- Node179 -->
<g id="node1" class="node">
<title>Node179</title>
<polygon fill="#bfbfbf" stroke="#000000" points="0,-371 0,-390 83,-390 83,-371 0,-371"/>
<text text-anchor="middle" x="41.5" y="-378" font-family="Helvetica,sans-Serif" font-size="10.00" fill="#000000">utils::isNumber</text>
</g>
<!-- Node180 -->
<g id="node2" class="node">
<title>Node180</title>
<g id="a_node2"><a xlink:href="classtrim_al_manager.html#a6dfa0264ed2e3cdfea4324a3582d5d4a" target="_top" xlink:title="Method to parse the Block Size argument. ">
<polygon fill="#ffffff" stroke="#000000" points="135,-725.5 135,-755.5 244,-755.5 244,-725.5 135,-725.5"/>
<text text-anchor="start" x="143" y="-743.5" font-family="Helvetica,sans-Serif" font-size="10.00" fill="#000000">trimAlManager::block</text>
<text text-anchor="middle" x="189.5" y="-732.5" font-family="Helvetica,sans-Serif" font-size="10.00" fill="#000000">_argument</text>
</a>
</g>
</g>
<!-- Node179&#45;&gt;Node180 -->
<g id="edge1" class="edge">
<title>Node179&#45;&gt;Node180</title>
<path fill="none" stroke="#191970" d="M43.5451,-400.2674C50.6089,-464.9438 75.937,-668.8316 119,-716.5 123.4203,-721.393 128.8774,-725.289 134.7827,-728.391"/>
<polygon fill="#191970" stroke="#191970" points="47.0109,-399.7596 42.4704,-390.1871 40.0504,-400.5018 47.0109,-399.7596"/>
</g>
<!-- Node183 -->
<g id="node5" class="node">
<title>Node183</title>
<g id="a_node5"><a xlink:href="classtrim_al_manager.html#adfadb6051b5e3bba6889fc8bbfde20bc" target="_top" xlink:title="Method to parse the clusters argument. ">
<polygon fill="#ffffff" stroke="#000000" points="129.5,-676.5 129.5,-706.5 249.5,-706.5 249.5,-676.5 129.5,-676.5"/>
<text text-anchor="start" x="137.5" y="-694.5" font-family="Helvetica,sans-Serif" font-size="10.00" fill="#000000">trimAlManager::clusters</text>
<text text-anchor="middle" x="189.5" y="-683.5" font-family="Helvetica,sans-Serif" font-size="10.00" fill="#000000">_argument</text>
</a>
</g>
</g>
<!-- Node179&#45;&gt;Node183 -->
<g id="edge4" class="edge">
<title>Node179&#45;&gt;Node183</title>
<path fill="none" stroke="#191970" d="M44.3977,-400.3562C53.2752,-458.6663 81.7683,-627.7909 119,-667.5 122.1837,-670.8955 125.8661,-673.8106 129.844,-676.3133"/>
<polygon fill="#191970" stroke="#191970" points="47.8261,-399.616 42.887,-390.2429 40.9029,-400.6503 47.8261,-399.616"/>
</g>
<!-- Node184 -->
<g id="node6" class="node">
<title>Node184</title>
<g id="a_node6"><a xlink:href="classtrim_al_manager.html#a3d8d62807179a223bd659971f51d900c" target="_top" xlink:title="Method to parse the similarity threshold argument. ">
<polygon fill="#ffffff" stroke="#000000" points="119,-627.5 119,-657.5 260,-657.5 260,-627.5 119,-627.5"/>
<text text-anchor="start" x="127" y="-645.5" font-family="Helvetica,sans-Serif" font-size="10.00" fill="#000000">trimAlManager::conservation</text>
<text text-anchor="middle" x="189.5" y="-634.5" font-family="Helvetica,sans-Serif" font-size="10.00" fill="#000000">_threshold_argument</text>
</a>
</g>
</g>
<!-- Node179&#45;&gt;Node184 -->
<g id="edge6" class="edge">
<title>Node179&#45;&gt;Node184</title>
<path fill="none" stroke="#191970" d="M45.5547,-400.253C56.4191,-451.4336 87.5028,-586.5805 119,-618.5 122.3601,-621.9052 126.2216,-624.8273 130.3694,-627.3351"/>
<polygon fill="#191970" stroke="#191970" points="48.9175,-399.2345 43.4452,-390.1624 42.0656,-400.667 48.9175,-399.2345"/>
</g>
<!-- Node185 -->
<g id="node7" class="node">
<title>Node185</title>
<g id="a_node7"><a xlink:href="classtrim_al_manager.html#a3cd2a65078631dee92d1f7569bcf55bf" target="_top" xlink:title="Method to parse the consistency threshold argument. ">
<polygon fill="#ffffff" stroke="#000000" points="120.5,-578.5 120.5,-608.5 258.5,-608.5 258.5,-578.5 120.5,-578.5"/>
<text text-anchor="start" x="128.5" y="-596.5" font-family="Helvetica,sans-Serif" font-size="10.00" fill="#000000">trimAlManager::consistency</text>
<text text-anchor="middle" x="189.5" y="-585.5" font-family="Helvetica,sans-Serif" font-size="10.00" fill="#000000">_threshold_argument</text>
</a>
</g>
</g>
<!-- Node179&#45;&gt;Node185 -->
<g id="edge8" class="edge">
<title>Node179&#45;&gt;Node185</title>
<path fill="none" stroke="#191970" d="M44.2101,-400.6655C50.4083,-438.9669 69.1397,-522.5931 119,-569.5 122.6727,-572.9551 126.8625,-575.9145 131.3268,-578.449"/>
<polygon fill="#191970" stroke="#191970" points="47.6048,-399.6993 42.6683,-390.3248 40.6814,-400.7316 47.6048,-399.6993"/>
</g>
<!-- Node186 -->
<g id="node8" class="node">
<title>Node186</title>
<g id="a_node8"><a xlink:href="classtrim_al_manager.html#aca45dce846182c57b730b1884327d588" target="_top" xlink:title="Method to parse the Consistency Window argument. ">
<polygon fill="#ffffff" stroke="#000000" points="120.5,-529.5 120.5,-559.5 258.5,-559.5 258.5,-529.5 120.5,-529.5"/>
<text text-anchor="start" x="128.5" y="-547.5" font-family="Helvetica,sans-Serif" font-size="10.00" fill="#000000">trimAlManager::consistency</text>
<text text-anchor="middle" x="189.5" y="-536.5" font-family="Helvetica,sans-Serif" font-size="10.00" fill="#000000">_window_argument</text>
</a>
</g>
</g>
<!-- Node179&#45;&gt;Node186 -->
<g id="edge10" class="edge">
<title>Node179&#45;&gt;Node186</title>
<path fill="none" stroke="#191970" d="M47.2239,-399.9704C57.0422,-430.0602 79.907,-487.7945 119,-520.5 123.0658,-523.9015 127.6376,-526.829 132.4491,-529.3472"/>
<polygon fill="#191970" stroke="#191970" points="50.5065,-398.7398 44.1911,-390.2331 43.8232,-400.8215 50.5065,-398.7398"/>
</g>
<!-- Node187 -->
<g id="node9" class="node">
<title>Node187</title>
<g id="a_node9"><a xlink:href="classtrim_al_manager.html#ac6a2d3ac0ca35a96cc586eb1bcd138cc" target="_top" xlink:title="Method to parse the gap threshold argument. ">
<polygon fill="#ffffff" stroke="#000000" points="136,-480.5 136,-510.5 243,-510.5 243,-480.5 136,-480.5"/>
<text text-anchor="start" x="144" y="-498.5" font-family="Helvetica,sans-Serif" font-size="10.00" fill="#000000">trimAlManager::gap</text>
<text text-anchor="middle" x="189.5" y="-487.5" font-family="Helvetica,sans-Serif" font-size="10.00" fill="#000000">_threshold_argument</text>
</a>
</g>
</g>
<!-- Node179&#45;&gt;Node187 -->
<g id="edge12" class="edge">
<title>Node179&#45;&gt;Node187</title>
<path fill="none" stroke="#191970" d="M52.7872,-398.9296C66.2002,-419.3858 90.4004,-452.0709 119,-471.5 124.1335,-474.9875 129.8205,-478.0109 135.6729,-480.6217"/>
<polygon fill="#191970" stroke="#191970" points="55.5735,-396.7889 47.2515,-390.2319 49.6681,-400.5474 55.5735,-396.7889"/>
</g>
<!-- Node188 -->
<g id="node10" class="node">
<title>Node188</title>
<g id="a_node10"><a xlink:href="classtrim_al_manager.html#a5980320bab9dad57cf8f58e15a776b9a" target="_top" xlink:title="Method to parse the Gap Window argument. ">
<polygon fill="#ffffff" stroke="#000000" points="139,-431.5 139,-461.5 240,-461.5 240,-431.5 139,-431.5"/>
<text text-anchor="start" x="147" y="-449.5" font-family="Helvetica,sans-Serif" font-size="10.00" fill="#000000">trimAlManager::gap</text>
<text text-anchor="middle" x="189.5" y="-438.5" font-family="Helvetica,sans-Serif" font-size="10.00" fill="#000000">_window_argument</text>
</a>
</g>
</g>
<!-- Node179&#45;&gt;Node188 -->
<g id="edge14" class="edge">
<title>Node179&#45;&gt;Node188</title>
<path fill="none" stroke="#191970" d="M66.8808,-395.1319C81.7943,-403.4227 101.1642,-413.6696 119,-421.5 126.9669,-424.9977 135.5926,-428.3769 143.9866,-431.4602"/>
<polygon fill="#191970" stroke="#191970" points="68.216,-391.867 57.7849,-390.0111 64.7819,-397.9668 68.216,-391.867"/>
</g>
<!-- Node189 -->
<g id="node11" class="node">
<title>Node189</title>
<g id="a_node11"><a xlink:href="main_8cpp.html#a0ddf1224851353fc92bfbff6f499fa97" target="_top" xlink:title="main">
<polygon fill="#ffffff" stroke="#000000" points="170.5,-393 170.5,-412 208.5,-412 208.5,-393 170.5,-393"/>
<text text-anchor="middle" x="189.5" y="-400" font-family="Helvetica,sans-Serif" font-size="10.00" fill="#000000">main</text>
</a>
</g>
</g>
<!-- Node179&#45;&gt;Node189 -->
<g id="edge16" class="edge">
<title>Node179&#45;&gt;Node189</title>
<path fill="none" stroke="#191970" d="M93.1004,-388.1703C119.7743,-392.1354 150.7352,-396.7377 170.2216,-399.6343"/>
<polygon fill="#191970" stroke="#191970" points="93.5261,-384.6952 83.1201,-386.6868 92.4968,-391.6191 93.5261,-384.6952"/>
</g>
<!-- Node190 -->
<g id="node12" class="node">
<title>Node190</title>
<g id="a_node12"><a xlink:href="classtrim_al_manager.html#a43b9d013ea8453535b6f364d4afd0a36" target="_top" xlink:title="Method to parse the max identity argument. ">
<polygon fill="#ffffff" stroke="#000000" points="137.5,-343.5 137.5,-373.5 241.5,-373.5 241.5,-343.5 137.5,-343.5"/>
<text text-anchor="start" x="145.5" y="-361.5" font-family="Helvetica,sans-Serif" font-size="10.00" fill="#000000">trimAlManager::max</text>
<text text-anchor="middle" x="189.5" y="-350.5" font-family="Helvetica,sans-Serif" font-size="10.00" fill="#000000">_identity_argument</text>
</a>
</g>
</g>
<!-- Node179&#45;&gt;Node190 -->
<g id="edge17" class="edge">
<title>Node179&#45;&gt;Node190</title>
<path fill="none" stroke="#191970" d="M93.2735,-372.8039C107.5608,-370.6802 123.0665,-368.3753 137.3736,-366.2485"/>
<polygon fill="#191970" stroke="#191970" points="92.4968,-369.3809 83.1201,-374.3132 93.5261,-376.3048 92.4968,-369.3809"/>
</g>
<!-- Node191 -->
<g id="node13" class="node">
<title>Node191</title>
<g id="a_node13"><a xlink:href="classtrim_al_manager.html#a946f291e48402de5803bddf904591de7" target="_top" xlink:title="trimAlManager::min\l_coverage_argument">
<polygon fill="#ffffff" stroke="#000000" points="136,-294.5 136,-324.5 243,-324.5 243,-294.5 136,-294.5"/>
<text text-anchor="start" x="144" y="-312.5" font-family="Helvetica,sans-Serif" font-size="10.00" fill="#000000">trimAlManager::min</text>
<text text-anchor="middle" x="189.5" y="-301.5" font-family="Helvetica,sans-Serif" font-size="10.00" fill="#000000">_coverage_argument</text>
</a>
</g>
</g>
<!-- Node179&#45;&gt;Node191 -->
<g id="edge19" class="edge">
<title>Node179&#45;&gt;Node191</title>
<path fill="none" stroke="#191970" d="M64.2607,-365.3886C79.3719,-355.7621 99.8754,-343.4619 119,-334.5 126.6435,-330.9182 134.9506,-327.5436 143.0915,-324.5018"/>
<polygon fill="#191970" stroke="#191970" points="62.1059,-362.6139 55.6093,-370.9831 65.9071,-368.4919 62.1059,-362.6139"/>
</g>
<!-- Node192 -->
<g id="node14" class="node">
<title>Node192</title>
<g id="a_node14"><a xlink:href="classtrim_al_manager.html#ab669ef860babef0af7377465f9178cc3" target="_top" xlink:title="trimAlManager::min\l_quality_argument">
<polygon fill="#ffffff" stroke="#000000" points="139,-245.5 139,-275.5 240,-275.5 240,-245.5 139,-245.5"/>
<text text-anchor="start" x="147" y="-263.5" font-family="Helvetica,sans-Serif" font-size="10.00" fill="#000000">trimAlManager::min</text>
<text text-anchor="middle" x="189.5" y="-252.5" font-family="Helvetica,sans-Serif" font-size="10.00" fill="#000000">_quality_argument</text>
</a>
</g>
</g>
<!-- Node179&#45;&gt;Node192 -->
<g id="edge21" class="edge">
<title>Node179&#45;&gt;Node192</title>
<path fill="none" stroke="#191970" d="M52.0552,-362.2571C65.2068,-341.0226 89.5733,-306.2266 119,-285.5 125.0517,-281.2375 131.9037,-277.6337 138.8994,-274.6066"/>
<polygon fill="#191970" stroke="#191970" points="48.9761,-360.586 46.8238,-370.96 54.9756,-364.1924 48.9761,-360.586"/>
</g>
<!-- Node193 -->
<g id="node15" class="node">
<title>Node193</title>
<g id="a_node15"><a xlink:href="classtrim_al_manager.html#ab92c44fda5068eab3f12312f377d5909" target="_top" xlink:title="Method to parse the residue overlap argument. ">
<polygon fill="#ffffff" stroke="#000000" points="131,-196.5 131,-226.5 248,-226.5 248,-196.5 131,-196.5"/>
<text text-anchor="start" x="139" y="-214.5" font-family="Helvetica,sans-Serif" font-size="10.00" fill="#000000">trimAlManager::residue</text>
<text text-anchor="middle" x="189.5" y="-203.5" font-family="Helvetica,sans-Serif" font-size="10.00" fill="#000000">_overlap_argument</text>
</a>
</g>
</g>
<!-- Node179&#45;&gt;Node193 -->
<g id="edge23" class="edge">
<title>Node179&#45;&gt;Node193</title>
<path fill="none" stroke="#191970" d="M46.9767,-360.9857C56.5701,-330.2528 79.2697,-270.5747 119,-236.5 123.5345,-232.611 128.7156,-229.3125 134.1647,-226.5177"/>
<polygon fill="#191970" stroke="#191970" points="43.5248,-360.3148 44.028,-370.8977 50.2342,-362.3108 43.5248,-360.3148"/>
</g>
<!-- Node194 -->
<g id="node16" class="node">
<title>Node194</title>
<g id="a_node16"><a xlink:href="classtrim_al_manager.html#ab69c55b2d18c7d942284e99c880e0dd0" target="_top" xlink:title="Method to parse the sequence overlap argument. ">
<polygon fill="#ffffff" stroke="#000000" points="125.5,-147.5 125.5,-177.5 253.5,-177.5 253.5,-147.5 125.5,-147.5"/>
<text text-anchor="start" x="133.5" y="-165.5" font-family="Helvetica,sans-Serif" font-size="10.00" fill="#000000">trimAlManager::sequence</text>
<text text-anchor="middle" x="189.5" y="-154.5" font-family="Helvetica,sans-Serif" font-size="10.00" fill="#000000">_overlap_argument</text>
</a>
</g>
</g>
<!-- Node179&#45;&gt;Node194 -->
<g id="edge25" class="edge">
<title>Node179&#45;&gt;Node194</title>
<path fill="none" stroke="#191970" d="M43.9716,-361.0181C49.8672,-322.5152 68.2601,-236.1976 119,-187.5 123.0288,-183.6333 127.6933,-180.3603 132.6661,-177.5905"/>
<polygon fill="#191970" stroke="#191970" points="40.5032,-360.5495 42.5719,-370.9404 47.4345,-361.5273 40.5032,-360.5495"/>
</g>
<!-- Node195 -->
<g id="node17" class="node">
<title>Node195</title>
<g id="a_node17"><a xlink:href="classtrim_al_manager.html#a95d1baa681d37e184671ea3864c48b8e" target="_top" xlink:title="Method to parse the similarity threshold argument. ">
<polygon fill="#ffffff" stroke="#000000" points="127,-98.5 127,-128.5 252,-128.5 252,-98.5 127,-98.5"/>
<text text-anchor="start" x="135" y="-116.5" font-family="Helvetica,sans-Serif" font-size="10.00" fill="#000000">trimAlManager::similarity</text>
<text text-anchor="middle" x="189.5" y="-105.5" font-family="Helvetica,sans-Serif" font-size="10.00" fill="#000000">_threshold_argument</text>
</a>
</g>
</g>
<!-- Node179&#45;&gt;Node195 -->
<g id="edge27" class="edge">
<title>Node179&#45;&gt;Node195</title>
<path fill="none" stroke="#191970" d="M45.3927,-361.1154C56.0741,-309.6611 87.1709,-171.3264 119,-138.5 122.7064,-134.6775 127.0339,-131.4381 131.6886,-128.6931"/>
<polygon fill="#191970" stroke="#191970" points="41.9535,-360.464 43.3789,-370.9625 48.8116,-361.8666 41.9535,-360.464"/>
</g>
<!-- Node196 -->
<g id="node18" class="node">
<title>Node196</title>
<g id="a_node18"><a xlink:href="classtrim_al_manager.html#a2f7ba69e1fbc41fbd1961bbb45af89f4" target="_top" xlink:title="Method to parse the Similarity Window argument. ">
<polygon fill="#ffffff" stroke="#000000" points="127,-49.5 127,-79.5 252,-79.5 252,-49.5 127,-49.5"/>
<text text-anchor="start" x="135" y="-67.5" font-family="Helvetica,sans-Serif" font-size="10.00" fill="#000000">trimAlManager::similarity</text>
<text text-anchor="middle" x="189.5" y="-56.5" font-family="Helvetica,sans-Serif" font-size="10.00" fill="#000000">_window_argument</text>
</a>
</g>
</g>
<!-- Node179&#45;&gt;Node196 -->
<g id="edge29" class="edge">
<title>Node179&#45;&gt;Node196</title>
<path fill="none" stroke="#191970" d="M44.3244,-360.7837C53.0932,-302.0997 81.5268,-130.1179 119,-89.5 122.6104,-85.5866 126.8727,-82.2855 131.4854,-79.5009"/>
<polygon fill="#191970" stroke="#191970" points="40.8235,-360.5355 42.836,-370.9374 47.7494,-361.5508 40.8235,-360.5355"/>
</g>
<!-- Node197 -->
<g id="node19" class="node">
<title>Node197</title>
<g id="a_node19"><a xlink:href="classtrim_al_manager.html#afb1bf3ae0e2d94723148fc230f3a4593" target="_top" xlink:title="Method to parse the Window argument. ">
<polygon fill="#ffffff" stroke="#000000" points="130,-.5 130,-30.5 249,-30.5 249,-.5 130,-.5"/>
<text text-anchor="start" x="138" y="-18.5" font-family="Helvetica,sans-Serif" font-size="10.00" fill="#000000">trimAlManager::window</text>
<text text-anchor="middle" x="189.5" y="-7.5" font-family="Helvetica,sans-Serif" font-size="10.00" fill="#000000">_argument</text>
</a>
</g>
</g>
<!-- Node179&#45;&gt;Node197 -->
<g id="edge31" class="edge">
<title>Node179&#45;&gt;Node197</title>
<path fill="none" stroke="#191970" d="M43.5359,-360.521C50.5706,-295.1485 75.8186,-89.0377 119,-40.5 122.4527,-36.619 126.5476,-33.3405 130.9998,-30.5709"/>
<polygon fill="#191970" stroke="#191970" points="40.0295,-360.3986 42.4658,-370.7095 46.9913,-361.1298 40.0295,-360.3986"/>
</g>
<!-- Node181 -->
<g id="node3" class="node">
<title>Node181</title>
<g id="a_node3"><a xlink:href="classtrim_al_manager.html#af3b0625b6bcc6df5978e63530a5956e6" target="_top" xlink:title="Method to parse arguments into usable structure in trimal. ">
<polygon fill="#ffffff" stroke="#000000" points="296,-349 296,-368 453,-368 453,-349 296,-349"/>
<text text-anchor="middle" x="374.5" y="-356" font-family="Helvetica,sans-Serif" font-size="10.00" fill="#000000">trimAlManager::parseArguments</text>
</a>
</g>
</g>
<!-- Node180&#45;&gt;Node181 -->
<g id="edge2" class="edge">
<title>Node180&#45;&gt;Node181</title>
<path fill="none" stroke="#191970" d="M253.0798,-722.4208C255.5522,-720.6303 257.8772,-718.6626 260,-716.5 312.2252,-663.2959 362.4419,-419.8524 372.628,-368.164"/>
<polygon fill="#191970" stroke="#191970" points="250.8967,-719.6528 244.1854,-727.8509 254.5443,-725.6274 250.8967,-719.6528"/>
</g>
<!-- Node182 -->
<g id="node4" class="node">
<title>Node182</title>
<g id="a_node4"><a xlink:href="trim_al_main_8cpp.html#a0ddf1224851353fc92bfbff6f499fa97" target="_top" xlink:title="main">
<polygon fill="#ffffff" stroke="#000000" points="489,-349 489,-368 527,-368 527,-349 489,-349"/>
<text text-anchor="middle" x="508" y="-356" font-family="Helvetica,sans-Serif" font-size="10.00" fill="#000000">main</text>
</a>
</g>
</g>
<!-- Node181&#45;&gt;Node182 -->
<g id="edge3" class="edge">
<title>Node181&#45;&gt;Node182</title>
<path fill="none" stroke="#191970" d="M463.5766,-358.5C472.8353,-358.5 481.4462,-358.5 488.5746,-358.5"/>
<polygon fill="#191970" stroke="#191970" points="463.3153,-355.0001 453.3152,-358.5 463.3152,-362.0001 463.3153,-355.0001"/>
</g>
<!-- Node183&#45;&gt;Node181 -->
<g id="edge5" class="edge">
<title>Node183&#45;&gt;Node181</title>
<path fill="none" stroke="#191970" d="M256.5578,-670.5721C257.7502,-669.5944 258.8999,-668.5711 260,-667.5 351.4103,-578.5022 370.4498,-410.0847 373.8395,-368.1435"/>
<polygon fill="#191970" stroke="#191970" points="254.3809,-667.8219 248.1428,-676.3856 258.3597,-673.5812 254.3809,-667.8219"/>
</g>
<!-- Node184&#45;&gt;Node181 -->
<g id="edge7" class="edge">
<title>Node184&#45;&gt;Node181</title>
<path fill="none" stroke="#191970" d="M255.9983,-621.8463C257.3852,-620.7859 258.7224,-619.6714 260,-618.5 339.9806,-545.1703 367.0557,-405.8594 373.0889,-368.1284"/>
<polygon fill="#191970" stroke="#191970" points="254.036,-618.9475 247.5782,-627.3468 257.8644,-624.8078 254.036,-618.9475"/>
</g>
<!-- Node185&#45;&gt;Node181 -->
<g id="edge9" class="edge">
<title>Node185&#45;&gt;Node181</title>
<path fill="none" stroke="#191970" d="M255.2408,-573.1471C256.8896,-571.9965 258.4807,-570.7819 260,-569.5 328.8043,-511.4451 363.0155,-401.144 372.0267,-368.0922"/>
<polygon fill="#191970" stroke="#191970" points="253.3274,-570.2139 246.5812,-578.3833 256.9495,-576.2039 253.3274,-570.2139"/>
</g>
<!-- Node186&#45;&gt;Node181 -->
<g id="edge11" class="edge">
<title>Node186&#45;&gt;Node181</title>
<path fill="none" stroke="#191970" d="M254.2117,-524.426C256.2124,-523.1909 258.1488,-521.8836 260,-520.5 317.9333,-477.2017 357.8683,-395.9278 370.3494,-368.118"/>
<polygon fill="#191970" stroke="#191970" points="252.2023,-521.5348 245.0928,-529.3901 255.5492,-527.6828 252.2023,-521.5348"/>
</g>
<!-- Node187&#45;&gt;Node181 -->
<g id="edge13" class="edge">
<title>Node187&#45;&gt;Node181</title>
<path fill="none" stroke="#191970" d="M251.3975,-476.2921C254.3652,-474.7951 257.2502,-473.199 260,-471.5 307.5187,-442.1392 350.6747,-389.6849 367.2816,-368.1411"/>
<polygon fill="#191970" stroke="#191970" points="249.913,-473.1224 242.2992,-480.4899 252.8456,-479.4785 249.913,-473.1224"/>
</g>
<!-- Node188&#45;&gt;Node181 -->
<g id="edge15" class="edge">
<title>Node188&#45;&gt;Node181</title>
<path fill="none" stroke="#191970" d="M245.1704,-427.7158C250.2272,-425.7225 255.235,-423.6387 260,-421.5 296.6379,-405.0553 337.3483,-381.2338 358.9853,-368.0976"/>
<polygon fill="#191970" stroke="#191970" points="243.5328,-424.5944 235.4365,-431.4282 246.0273,-431.1348 243.5328,-424.5944"/>
</g>
<!-- Node190&#45;&gt;Node181 -->
<g id="edge18" class="edge">
<title>Node190&#45;&gt;Node181</title>
<path fill="none" stroke="#191970" d="M251.6534,-358.5C265.8539,-358.5 281.1275,-358.5 295.9155,-358.5"/>
<polygon fill="#191970" stroke="#191970" points="251.5252,-355.0001 241.5251,-358.5 251.5251,-362.0001 251.5252,-355.0001"/>
</g>
<!-- Node191&#45;&gt;Node181 -->
<g id="edge20" class="edge">
<title>Node191&#45;&gt;Node181</title>
<path fill="none" stroke="#191970" d="M252.9127,-326.2958C281.4529,-333.8551 314.1061,-342.5038 338.3824,-348.9337"/>
<polygon fill="#191970" stroke="#191970" points="253.5725,-322.8499 243.0097,-323.6728 251.7802,-329.6166 253.5725,-322.8499"/>
</g>
<!-- Node192&#45;&gt;Node181 -->
<g id="edge22" class="edge">
<title>Node192&#45;&gt;Node181</title>
<path fill="none" stroke="#191970" d="M246.376,-279.3931C251.04,-281.3267 255.6348,-283.3688 260,-285.5 298.9802,-304.5308 341.0773,-333.9167 361.6734,-348.941"/>
<polygon fill="#191970" stroke="#191970" points="247.3427,-276.0115 236.7565,-275.5827 244.7647,-282.5195 247.3427,-276.0115"/>
</g>
<!-- Node193&#45;&gt;Node181 -->
<g id="edge24" class="edge">
<title>Node193&#45;&gt;Node181</title>
<path fill="none" stroke="#191970" d="M250.3559,-230.9051C253.6992,-232.6365 256.9394,-234.4994 260,-236.5 309.1147,-268.6039 352.0102,-326.0034 367.9214,-348.7904"/>
<polygon fill="#191970" stroke="#191970" points="251.8539,-227.7419 241.318,-226.6252 248.8579,-234.0684 251.8539,-227.7419"/>
</g>
<!-- Node194&#45;&gt;Node181 -->
<g id="edge26" class="edge">
<title>Node194&#45;&gt;Node181</title>
<path fill="none" stroke="#191970" d="M252.7043,-182.4789C255.2471,-184.0356 257.6931,-185.7067 260,-187.5 319.5189,-233.7668 358.7086,-319.9322 370.6472,-348.7951"/>
<polygon fill="#191970" stroke="#191970" points="254.2055,-179.3114 243.7472,-177.6163 250.8658,-185.4634 254.2055,-179.3114"/>
</g>
<!-- Node195&#45;&gt;Node181 -->
<g id="edge28" class="edge">
<title>Node195&#45;&gt;Node181</title>
<path fill="none" stroke="#191970" d="M253.8818,-133.7901C256.0215,-135.2545 258.0709,-136.8222 260,-138.5 330.1755,-199.535 363.444,-314.1945 372.1271,-348.5355"/>
<polygon fill="#191970" stroke="#191970" points="255.6255,-130.7548 245.2443,-128.6382 252.0398,-136.7667 255.6255,-130.7548"/>
</g>
<!-- Node196&#45;&gt;Node181 -->
<g id="edge30" class="edge">
<title>Node196&#45;&gt;Node181</title>
<path fill="none" stroke="#191970" d="M254.7552,-85.1194C256.5917,-86.4878 258.3472,-87.9461 260,-89.5 341.5385,-166.1608 367.5602,-310.3288 373.2091,-348.8387"/>
<polygon fill="#191970" stroke="#191970" points="256.5611,-82.1198 246.2517,-79.677 252.7876,-88.0156 256.5611,-82.1198"/>
</g>
<!-- Node197&#45;&gt;Node181 -->
<g id="edge32" class="edge">
<title>Node197&#45;&gt;Node181</title>
<path fill="none" stroke="#191970" d="M255.4017,-36.4156C257.012,-37.6973 258.5502,-39.0572 260,-40.5 352.9578,-133.0094 370.8757,-306.3718 373.927,-348.8986"/>
<polygon fill="#191970" stroke="#191970" points="257.0739,-33.322 246.8251,-30.6364 253.1622,-39.1271 257.0739,-33.322"/>
</g>
</g>
</svg>
