<?xml version="1.0" encoding="UTF-8" standalone="no"?>
<!DOCTYPE svg PUBLIC "-//W3C//DTD SVG 1.1//EN"
 "http://www.w3.org/Graphics/SVG/1.1/DTD/svg11.dtd">
<!-- Generated by graphviz version 2.40.1 (20161225.0304)
 -->
<!-- Title: utils::quicksort Pages: 1 -->
<svg width="188pt" height="46pt"
 viewBox="0.00 0.00 188.00 46.00" xmlns="http://www.w3.org/2000/svg" xmlns:xlink="http://www.w3.org/1999/xlink">
<g id="graph0" class="graph" transform="scale(1 1) rotate(0) translate(4 42)">
<title>utils::quicksort</title>
<polygon fill="#ffffff" stroke="transparent" points="-4,4 -4,-42 184,-42 184,4 -4,4"/>
<!-- Node249 -->
<g id="node1" class="node">
<title>Node249</title>
<polygon fill="#bfbfbf" stroke="#000000" points="0,-.5 0,-19.5 80,-19.5 80,-.5 0,-.5"/>
<text text-anchor="middle" x="40" y="-7.5" font-family="Helvetica,sans-Serif" font-size="10.00" fill="#000000">utils::quicksort</text>
</g>
<!-- Node249&#45;&gt;Node249 -->
<g id="edge1" class="edge">
<title>Node249&#45;&gt;Node249</title>
<path fill="none" stroke="#191970" d="M23.3541,-19.7571C15.256,-28.5653 20.8047,-38 40,-38 51.9971,-38 58.6634,-34.3146 59.999,-29.4"/>
<polygon fill="#191970" stroke="#191970" points="63.2362,-28.0528 56.6459,-19.7571 56.6245,-30.3519 63.2362,-28.0528"/>
</g>
<!-- Node250 -->
<g id="node2" class="node">
<title>Node250</title>
<g id="a_node2"><a xlink:href="namespaceutils.html#a3377ecde55631d1bbc4956e5923b7469" target="_top" xlink:title="Swapping elements method. ">
<polygon fill="#ffffff" stroke="#000000" points="116,-.5 116,-19.5 180,-19.5 180,-.5 116,-.5"/>
<text text-anchor="middle" x="148" y="-7.5" font-family="Helvetica,sans-Serif" font-size="10.00" fill="#000000">utils::swap</text>
</a>
</g>
</g>
<!-- Node249&#45;&gt;Node250 -->
<g id="edge2" class="edge">
<title>Node249&#45;&gt;Node250</title>
<path fill="none" stroke="#191970" d="M80.2152,-10C88.572,-10 97.4008,-10 105.8258,-10"/>
<polygon fill="#191970" stroke="#191970" points="105.8432,-13.5001 115.8432,-10 105.8432,-6.5001 105.8432,-13.5001"/>
</g>
</g>
</svg>
