<?xml version="1.0" encoding="UTF-8" standalone="no"?>
<!DOCTYPE svg PUBLIC "-//W3C//DTD SVG 1.1//EN"
 "http://www.w3.org/Graphics/SVG/1.1/DTD/svg11.dtd">
<!-- Generated by graphviz version 2.40.1 (20161225.0304)
 -->
<!-- Title: utils::swap Pages: 1 -->
<svg width="1345pt" height="534pt"
 viewBox="0.00 0.00 1345.00 534.00" xmlns="http://www.w3.org/2000/svg" xmlns:xlink="http://www.w3.org/1999/xlink">
<g id="graph0" class="graph" transform="scale(1 1) rotate(0) translate(4 530)">
<title>utils::swap</title>
<polygon fill="#ffffff" stroke="transparent" points="-4,4 -4,-530 1341,-530 1341,4 -4,4"/>
<!-- Node367 -->
<g id="node1" class="node">
<title>Node367</title>
<g id="a_node1"><a xlink:title="Swapping elements method.">
<polygon fill="#bfbfbf" stroke="#000000" points="1273,-224.5 1273,-243.5 1337,-243.5 1337,-224.5 1273,-224.5"/>
<text text-anchor="middle" x="1305" y="-231.5" font-family="Helvetica,sans-Serif" font-size="10.00" fill="#000000">utils::swap</text>
</a>
</g>
</g>
<!-- Node368 -->
<g id="node2" class="node">
<title>Node368</title>
<g id="a_node2"><a xlink:href="namespaceutils.html#a73f038c379c13d23e3220afaa14f9983" target="_top" xlink:title="Quicksort sorting method.">
<polygon fill="#ffffff" stroke="#000000" points="1157,-224.5 1157,-243.5 1237,-243.5 1237,-224.5 1157,-224.5"/>
<text text-anchor="middle" x="1197" y="-231.5" font-family="Helvetica,sans-Serif" font-size="10.00" fill="#000000">utils::quicksort</text>
</a>
</g>
</g>
<!-- Node367&#45;&gt;Node368 -->
<g id="edge1" class="edge">
<title>Node367&#45;&gt;Node368</title>
<path fill="none" stroke="#191970" d="M1262.8637,-234C1254.4313,-234 1245.593,-234 1237.2272,-234"/>
<polygon fill="#191970" stroke="#191970" points="1262.8889,-237.5001 1272.8888,-234 1262.8888,-230.5001 1262.8889,-237.5001"/>
</g>
<!-- Node369 -->
<g id="node3" class="node">
<title>Node369</title>
<g id="a_node3"><a xlink:href="classstatistics_1_1_similarity.html#a26f430acb8a3240977665de9a9ea875a" target="_top" xlink:title="Computes and selects the cut point values based on similarity&#39;s values.">
<polygon fill="#ffffff" stroke="#000000" points="980,-241 980,-271 1083,-271 1083,-241 980,-241"/>
<text text-anchor="start" x="988" y="-259" font-family="Helvetica,sans-Serif" font-size="10.00" fill="#000000">statistics::Similarity</text>
<text text-anchor="middle" x="1031.5" y="-248" font-family="Helvetica,sans-Serif" font-size="10.00" fill="#000000">::calcCutPoint</text>
</a>
</g>
</g>
<!-- Node368&#45;&gt;Node369 -->
<g id="edge2" class="edge">
<title>Node368&#45;&gt;Node369</title>
<path fill="none" stroke="#191970" d="M1146.9895,-240.6479C1126.7808,-243.3343 1103.4662,-246.4335 1083.0995,-249.1408"/>
<polygon fill="#191970" stroke="#191970" points="1147.4855,-244.1129 1156.9371,-239.3256 1146.563,-237.1739 1147.4855,-244.1129"/>
</g>
<!-- Node377 -->
<g id="node11" class="node">
<title>Node377</title>
<g id="a_node11"><a xlink:href="class_cleaner.html#a631cf3e2e55c00a995f0f4a51bfe7a2d" target="_top" xlink:title="Method to assign sequences to clusters. Clusters are calculated following this flow:">
<polygon fill="#ffffff" stroke="#000000" points="942,-501.5 942,-520.5 1121,-520.5 1121,-501.5 942,-501.5"/>
<text text-anchor="middle" x="1031.5" y="-508.5" font-family="Helvetica,sans-Serif" font-size="10.00" fill="#000000">Cleaner::calculateRepresentativeSeq</text>
</a>
</g>
</g>
<!-- Node368&#45;&gt;Node377 -->
<g id="edge12" class="edge">
<title>Node368&#45;&gt;Node377</title>
<path fill="none" stroke="#191970" d="M1193.6225,-253.6965C1184.0596,-307.2536 1155.2576,-453.7492 1121,-487 1114.5355,-493.2745 1106.6165,-497.9523 1098.1887,-501.4318"/>
<polygon fill="#191970" stroke="#191970" points="1197.0863,-254.2071 1195.3662,-243.7528 1190.1915,-252.998 1197.0863,-254.2071"/>
</g>
<!-- Node380 -->
<g id="node14" class="node">
<title>Node380</title>
<g id="a_node14"><a xlink:href="class_cleaner.html#a13ae2074afb38708bc5cee9489d8ab6f" target="_top" xlink:title="Method to clean an alignment. &#160;It removes sequences that overpass or equals a certain threshold....">
<polygon fill="#ffffff" stroke="#000000" points="965.5,-344 965.5,-374 1097.5,-374 1097.5,-344 965.5,-344"/>
<text text-anchor="start" x="973.5" y="-362" font-family="Helvetica,sans-Serif" font-size="10.00" fill="#000000">Cleaner::cleanByCutValue</text>
<text text-anchor="middle" x="1031.5" y="-351" font-family="Helvetica,sans-Serif" font-size="10.00" fill="#000000">Overpass</text>
</a>
</g>
</g>
<!-- Node368&#45;&gt;Node380 -->
<g id="edge16" class="edge">
<title>Node368&#45;&gt;Node380</title>
<path fill="none" stroke="#191970" d="M1186.8782,-252.5847C1174.2019,-274.1872 1150.5198,-309.4885 1121,-330 1112.952,-335.5921 1103.7601,-340.1559 1094.4026,-343.8662"/>
<polygon fill="#191970" stroke="#191970" points="1190.0145,-254.1496 1191.9094,-243.7256 1183.9276,-250.6927 1190.0145,-254.1496"/>
</g>
<!-- Node385 -->
<g id="node19" class="node">
<title>Node385</title>
<g id="a_node19"><a xlink:href="class_cleaner.html#a5afcae6b995a229b59785e4690b25a0f" target="_top" xlink:title="Method to clean an alignment. &#160;It removes sequences that overpass or equals &#160;the gap threshold but &#160;f...">
<polygon fill="#ffffff" stroke="#000000" points="965.5,-290 965.5,-320 1097.5,-320 1097.5,-290 965.5,-290"/>
<text text-anchor="start" x="973.5" y="-308" font-family="Helvetica,sans-Serif" font-size="10.00" fill="#000000">Cleaner::cleanByCutValue</text>
<text text-anchor="middle" x="1031.5" y="-297" font-family="Helvetica,sans-Serif" font-size="10.00" fill="#000000">OverpassOrEquals</text>
</a>
</g>
</g>
<!-- Node368&#45;&gt;Node385 -->
<g id="edge26" class="edge">
<title>Node368&#45;&gt;Node385</title>
<path fill="none" stroke="#191970" d="M1175.7994,-249.456C1161.0434,-259.6128 1140.5766,-272.5397 1121,-281 1113.3211,-284.3186 1105.069,-287.2792 1096.7934,-289.8904"/>
<polygon fill="#191970" stroke="#191970" points="1178.0241,-252.1703 1184.19,-243.5545 1173.997,-246.4447 1178.0241,-252.1703"/>
</g>
<!-- Node386 -->
<g id="node20" class="node">
<title>Node386</title>
<g id="a_node20"><a xlink:href="class_cleaner.html#a6727a235afa29f08a50716f28fa5c8fc" target="_top" xlink:title="Method to clean an alignment. It carries out strict and strictplus. The method:">
<polygon fill="#ffffff" stroke="#000000" points="763,-430.5 763,-449.5 906,-449.5 906,-430.5 763,-430.5"/>
<text text-anchor="middle" x="834.5" y="-437.5" font-family="Helvetica,sans-Serif" font-size="10.00" fill="#000000">Cleaner::cleanCombMethods</text>
</a>
</g>
</g>
<!-- Node368&#45;&gt;Node386 -->
<g id="edge28" class="edge">
<title>Node368&#45;&gt;Node386</title>
<path fill="none" stroke="#191970" d="M1192.8974,-253.6634C1185.0162,-286.2427 1164.5345,-351.0811 1121,-384 1059.1499,-430.7683 968.8942,-441.6367 906.2789,-442.8115"/>
<polygon fill="#191970" stroke="#191970" points="1196.3834,-254.1162 1195.1768,-243.5903 1189.556,-252.5712 1196.3834,-254.1162"/>
</g>
<!-- Node387 -->
<g id="node21" class="node">
<title>Node387</title>
<g id="a_node21"><a xlink:href="class_cleaner.html#a385f785ecf54bd5e0b07e61325483973" target="_top" xlink:title="Method to trim an alignment based on consistency values obtained from a dataset of alignments....">
<polygon fill="#ffffff" stroke="#000000" points="964,-202.5 964,-221.5 1099,-221.5 1099,-202.5 964,-202.5"/>
<text text-anchor="middle" x="1031.5" y="-209.5" font-family="Helvetica,sans-Serif" font-size="10.00" fill="#000000">Cleaner::cleanCompareFile</text>
</a>
</g>
</g>
<!-- Node368&#45;&gt;Node387 -->
<g id="edge30" class="edge">
<title>Node368&#45;&gt;Node387</title>
<path fill="none" stroke="#191970" d="M1146.8653,-227.3356C1131.8816,-225.3438 1115.1993,-223.1262 1099.2815,-221.0102"/>
<polygon fill="#191970" stroke="#191970" points="1146.563,-230.8261 1156.9371,-228.6744 1147.4855,-223.8871 1146.563,-230.8261"/>
</g>
<!-- Node388 -->
<g id="node22" class="node">
<title>Node388</title>
<g id="a_node22"><a xlink:href="class_cleaner.html#a60955e2ae3faa3ccf84780a52fb1a08a" target="_top" xlink:title="Method that calculates the optimal cut point for a given clusters number. &#160;The idea is to obtain a cu...">
<polygon fill="#ffffff" stroke="#000000" points="959,-458.5 959,-477.5 1104,-477.5 1104,-458.5 959,-458.5"/>
<text text-anchor="middle" x="1031.5" y="-465.5" font-family="Helvetica,sans-Serif" font-size="10.00" fill="#000000">Cleaner::getCutPointClusters</text>
</a>
</g>
</g>
<!-- Node368&#45;&gt;Node388 -->
<g id="edge32" class="edge">
<title>Node368&#45;&gt;Node388</title>
<path fill="none" stroke="#191970" d="M1194.9245,-253.9551C1189.7456,-293.7867 1172.7034,-383.7211 1121,-435 1109.8295,-446.0788 1094.6245,-453.4795 1079.9177,-458.4062"/>
<polygon fill="#191970" stroke="#191970" points="1198.4131,-254.2575 1196.1116,-243.9157 1191.4615,-253.4355 1198.4131,-254.2575"/>
</g>
<!-- Node389 -->
<g id="node23" class="node">
<title>Node389</title>
<g id="a_node23"><a xlink:href="classstatistics_1_1_mold.html#aaa904aa63337f5907e815a8b71ff3f08" target="_top" xlink:title=" ">
<polygon fill="#ffffff" stroke="#000000" points="948,-38.5 948,-57.5 1115,-57.5 1115,-38.5 948,-38.5"/>
<text text-anchor="middle" x="1031.5" y="-45.5" font-family="Helvetica,sans-Serif" font-size="10.00" fill="#000000">statistics::Mold::printAccumulative</text>
</a>
</g>
</g>
<!-- Node368&#45;&gt;Node389 -->
<g id="edge34" class="edge">
<title>Node368&#45;&gt;Node389</title>
<path fill="none" stroke="#191970" d="M1193.32,-214.0859C1185.9195,-179.7857 1165.9404,-109.6281 1121,-72 1113.476,-65.7002 1104.456,-61.04 1095.0802,-57.5957"/>
<polygon fill="#191970" stroke="#191970" points="1189.9604,-215.1323 1195.3654,-224.2447 1196.8227,-213.7506 1189.9604,-215.1323"/>
</g>
<!-- Node390 -->
<g id="node24" class="node">
<title>Node390</title>
<g id="a_node24"><a xlink:href="classstatistics_1_1_similarity.html#a4d938119ee92ead82bcd4d43c335c7b1" target="_top" xlink:title="Computes and prints the accumulative statistics associated to the alignment.">
<polygon fill="#ffffff" stroke="#000000" points="975,-115 975,-145 1088,-145 1088,-115 975,-115"/>
<text text-anchor="start" x="983" y="-133" font-family="Helvetica,sans-Serif" font-size="10.00" fill="#000000">statistics::Similarity</text>
<text text-anchor="middle" x="1031.5" y="-122" font-family="Helvetica,sans-Serif" font-size="10.00" fill="#000000">::printConservationAcl</text>
</a>
</g>
</g>
<!-- Node368&#45;&gt;Node390 -->
<g id="edge35" class="edge">
<title>Node368&#45;&gt;Node390</title>
<path fill="none" stroke="#191970" d="M1183.1396,-216.5546C1169.0826,-199.9113 1145.9016,-175.1902 1121,-160 1110.927,-153.8554 1099.4404,-148.794 1088.1323,-144.6927"/>
<polygon fill="#191970" stroke="#191970" points="1180.5625,-218.9311 1189.6196,-224.4284 1185.9675,-214.4829 1180.5625,-218.9311"/>
</g>
<!-- Node393 -->
<g id="node27" class="node">
<title>Node393</title>
<g id="a_node27"><a xlink:href="classstatistics_1_1_consistency.html#a24521eba253b76ddc60c719c9769613a" target="_top" xlink:title="Print the accumulated consistency value from the selected alignment.">
<polygon fill="#ffffff" stroke="#000000" points="776,-55 776,-85 893,-85 893,-55 776,-55"/>
<text text-anchor="start" x="784" y="-73" font-family="Helvetica,sans-Serif" font-size="10.00" fill="#000000">statistics::Consistency</text>
<text text-anchor="middle" x="834.5" y="-62" font-family="Helvetica,sans-Serif" font-size="10.00" fill="#000000">::printStatisticsFileAcl</text>
</a>
</g>
</g>
<!-- Node368&#45;&gt;Node393 -->
<g id="edge39" class="edge">
<title>Node368&#45;&gt;Node393</title>
<path fill="none" stroke="#191970" d="M1191.5059,-214.2863C1182.2374,-185.056 1160.5238,-130.8935 1121,-105 1084.6386,-81.1783 965.9676,-73.5698 893.2568,-71.1399"/>
<polygon fill="#191970" stroke="#191970" points="1188.2398,-215.5808 1194.46,-224.1575 1194.946,-213.5738 1188.2398,-215.5808"/>
</g>
<!-- Node394 -->
<g id="node28" class="node">
<title>Node394</title>
<g id="a_node28"><a xlink:href="namespaceutils.html#a3ff3252e3c5d743757b001734501fe60" target="_top" xlink:title="Quicksort sorting method.">
<polygon fill="#ffffff" stroke="#000000" points="991.5,-.5 991.5,-19.5 1071.5,-19.5 1071.5,-.5 991.5,-.5"/>
<text text-anchor="middle" x="1031.5" y="-7.5" font-family="Helvetica,sans-Serif" font-size="10.00" fill="#000000">utils::quicksort</text>
</a>
</g>
</g>
<!-- Node368&#45;&gt;Node394 -->
<g id="edge41" class="edge">
<title>Node368&#45;&gt;Node394</title>
<path fill="none" stroke="#191970" d="M1195.7915,-214.4158C1192.1525,-173.3505 1177.7119,-77.9905 1121,-29 1107.5371,-17.3701 1088.7233,-12.2796 1071.8177,-10.2326"/>
<polygon fill="#191970" stroke="#191970" points="1192.3083,-214.7696 1196.5577,-224.4749 1199.288,-214.2379 1192.3083,-214.7696"/>
</g>
<!-- Node395 -->
<g id="node29" class="node">
<title>Node395</title>
<g id="a_node29"><a xlink:href="classtrim_al_manager.html#a63d5bec0938516a2129ccb04276b93d9" target="_top" xlink:title=" ">
<polygon fill="#ffffff" stroke="#000000" points="413,-168 413,-198 514,-198 514,-168 413,-168"/>
<text text-anchor="start" x="421" y="-186" font-family="Helvetica,sans-Serif" font-size="10.00" fill="#000000">trimAlManager::svg</text>
<text text-anchor="middle" x="463.5" y="-175" font-family="Helvetica,sans-Serif" font-size="10.00" fill="#000000">_stats_out</text>
</a>
</g>
</g>
<!-- Node368&#45;&gt;Node395 -->
<g id="edge42" class="edge">
<title>Node368&#45;&gt;Node395</title>
<path fill="none" stroke="#191970" d="M1175.503,-218.7702C1160.8903,-209.3613 1140.7028,-198.1353 1121,-193 901.1611,-135.7013 625.7999,-161.4416 514.0768,-175.7446"/>
<polygon fill="#191970" stroke="#191970" points="1173.5656,-221.6851 1183.8268,-224.323 1177.4503,-215.8619 1173.5656,-221.6851"/>
</g>
<!-- Node370 -->
<g id="node4" class="node">
<title>Node370</title>
<g id="a_node4"><a xlink:href="class_cleaner.html#a4718e31c0183b5a98751d77479faacf0" target="_top" xlink:title="Method to trim an alignment based on the similarity and gaps distribution values. .">
<polygon fill="#ffffff" stroke="#000000" points="794.5,-278.5 794.5,-297.5 874.5,-297.5 874.5,-278.5 794.5,-278.5"/>
<text text-anchor="middle" x="834.5" y="-285.5" font-family="Helvetica,sans-Serif" font-size="10.00" fill="#000000">Cleaner::clean</text>
</a>
</g>
</g>
<!-- Node369&#45;&gt;Node370 -->
<g id="edge3" class="edge">
<title>Node369&#45;&gt;Node370</title>
<path fill="none" stroke="#191970" d="M970.1028,-265.9732C938.938,-271.0355 901.9697,-277.0405 874.5101,-281.5009"/>
<polygon fill="#191970" stroke="#191970" points="970.6885,-269.424 979.9979,-264.3658 969.5661,-262.5145 970.6885,-269.424"/>
</g>
<!-- Node376 -->
<g id="node10" class="node">
<title>Node376</title>
<g id="a_node10"><a xlink:href="class_cleaner.html#a9cdbd6ebf78a284dd065b31319795b0c" target="_top" xlink:title="Method to trim an alignment based on the similarity distribution values.">
<polygon fill="#ffffff" stroke="#000000" points="766,-240.5 766,-259.5 903,-259.5 903,-240.5 766,-240.5"/>
<text text-anchor="middle" x="834.5" y="-247.5" font-family="Helvetica,sans-Serif" font-size="10.00" fill="#000000">Cleaner::cleanConservation</text>
</a>
</g>
</g>
<!-- Node369&#45;&gt;Node376 -->
<g id="edge10" class="edge">
<title>Node369&#45;&gt;Node376</title>
<path fill="none" stroke="#191970" d="M969.8351,-254.1219C948.6562,-253.4768 924.8228,-252.7509 903.1256,-252.0901"/>
<polygon fill="#191970" stroke="#191970" points="969.8959,-257.6253 979.9979,-254.4314 970.1091,-250.6285 969.8959,-257.6253"/>
</g>
<!-- Node371 -->
<g id="node5" class="node">
<title>Node371</title>
<g id="a_node5"><a xlink:href="classtrim_al_manager.html#aebfd21b0435302f0e4fc45a068d1b6ee" target="_top" xlink:title="Method to trim the alignment using non automatic methods:">
<polygon fill="#ffffff" stroke="#000000" points="564.5,-268 564.5,-298 716.5,-298 716.5,-268 564.5,-268"/>
<text text-anchor="start" x="572.5" y="-286" font-family="Helvetica,sans-Serif" font-size="10.00" fill="#000000">trimAlManager::CleanResidues</text>
<text text-anchor="middle" x="640.5" y="-275" font-family="Helvetica,sans-Serif" font-size="10.00" fill="#000000">NonAuto</text>
</a>
</g>
</g>
<!-- Node370&#45;&gt;Node371 -->
<g id="edge4" class="edge">
<title>Node370&#45;&gt;Node371</title>
<path fill="none" stroke="#191970" d="M784.2162,-286.704C763.6425,-286.1738 739.3854,-285.5486 716.7171,-284.9644"/>
<polygon fill="#191970" stroke="#191970" points="784.2162,-290.2051 794.3031,-286.964 784.3966,-283.2074 784.2162,-290.2051"/>
</g>
<!-- Node372 -->
<g id="node6" class="node">
<title>Node372</title>
<g id="a_node6"><a xlink:href="classtrim_al_manager.html#adc529dd893ed4e9df6f3ddbd58776068" target="_top" xlink:title="Core Method of the program. This is where almost all cleaning methods are called from.">
<polygon fill="#ffffff" stroke="#000000" points="409,-268 409,-298 518,-298 518,-268 409,-268"/>
<text text-anchor="start" x="417" y="-286" font-family="Helvetica,sans-Serif" font-size="10.00" fill="#000000">trimAlManager::clean</text>
<text text-anchor="middle" x="463.5" y="-275" font-family="Helvetica,sans-Serif" font-size="10.00" fill="#000000">_alignment</text>
</a>
</g>
</g>
<!-- Node371&#45;&gt;Node372 -->
<g id="edge5" class="edge">
<title>Node371&#45;&gt;Node372</title>
<path fill="none" stroke="#191970" d="M554.1475,-283C541.8915,-283 529.5807,-283 518.1558,-283"/>
<polygon fill="#191970" stroke="#191970" points="554.4089,-286.5001 564.4089,-283 554.4088,-279.5001 554.4089,-286.5001"/>
</g>
<!-- Node373 -->
<g id="node7" class="node">
<title>Node373</title>
<g id="a_node7"><a xlink:href="classtrim_al_manager.html#abe8d2841455c644dc9c7d1294b82b00f" target="_top" xlink:title="Method to perform the analysis if all checks have passed.">
<polygon fill="#ffffff" stroke="#000000" points="74,-192.5 74,-211.5 193,-211.5 193,-192.5 74,-192.5"/>
<text text-anchor="middle" x="133.5" y="-199.5" font-family="Helvetica,sans-Serif" font-size="10.00" fill="#000000">trimAlManager::perform</text>
</a>
</g>
</g>
<!-- Node372&#45;&gt;Node373 -->
<g id="edge6" class="edge">
<title>Node372&#45;&gt;Node373</title>
<path fill="none" stroke="#191970" d="M398.6204,-274.6194C351.0948,-267.6346 285.3299,-256.1995 229,-240 202.4189,-232.3557 173.0162,-220.0377 153.9532,-211.5078"/>
<polygon fill="#191970" stroke="#191970" points="398.379,-278.1208 408.7764,-276.0852 399.379,-271.1926 398.379,-278.1208"/>
</g>
<!-- Node375 -->
<g id="node9" class="node">
<title>Node375</title>
<g id="a_node9"><a xlink:href="classtrim_al_manager.html#ac5795f93b3a2b51bf5d8dddd63b89f73" target="_top" xlink:title=" ">
<polygon fill="#ffffff" stroke="#000000" points="229,-211.5 229,-230.5 373,-230.5 373,-211.5 229,-211.5"/>
<text text-anchor="middle" x="301" y="-218.5" font-family="Helvetica,sans-Serif" font-size="10.00" fill="#000000">trimAlManager::perform_VCF</text>
</a>
</g>
</g>
<!-- Node372&#45;&gt;Node375 -->
<g id="edge8" class="edge">
<title>Node372&#45;&gt;Node375</title>
<path fill="none" stroke="#191970" d="M414.5834,-264.3364C385.5089,-253.2434 349.8339,-239.632 326.3126,-230.6577"/>
<polygon fill="#191970" stroke="#191970" points="413.5725,-267.6968 424.1633,-267.9915 416.0679,-261.1567 413.5725,-267.6968"/>
</g>
<!-- Node374 -->
<g id="node8" class="node">
<title>Node374</title>
<g id="a_node8"><a xlink:href="trim_al_main_8cpp.html#a0ddf1224851353fc92bfbff6f499fa97" target="_top" xlink:title=" ">
<polygon fill="#ffffff" stroke="#000000" points="0,-192.5 0,-211.5 38,-211.5 38,-192.5 0,-192.5"/>
<text text-anchor="middle" x="19" y="-199.5" font-family="Helvetica,sans-Serif" font-size="10.00" fill="#000000">main</text>
</a>
</g>
</g>
<!-- Node373&#45;&gt;Node374 -->
<g id="edge7" class="edge">
<title>Node373&#45;&gt;Node374</title>
<path fill="none" stroke="#191970" d="M63.6802,-202C54.3823,-202 45.5497,-202 38.2303,-202"/>
<polygon fill="#191970" stroke="#191970" points="63.9025,-205.5001 73.9024,-202 63.9024,-198.5001 63.9025,-205.5001"/>
</g>
<!-- Node375&#45;&gt;Node373 -->
<g id="edge9" class="edge">
<title>Node375&#45;&gt;Node373</title>
<path fill="none" stroke="#191970" d="M218.8378,-211.6801C210.1593,-210.6957 201.4581,-209.7087 193.107,-208.7614"/>
<polygon fill="#191970" stroke="#191970" points="218.662,-215.1825 228.9928,-212.832 219.4511,-208.2271 218.662,-215.1825"/>
</g>
<!-- Node376&#45;&gt;Node371 -->
<g id="edge11" class="edge">
<title>Node376&#45;&gt;Node371</title>
<path fill="none" stroke="#191970" d="M768.4448,-261.2362C751.7421,-264.0774 733.672,-267.1512 716.521,-270.0686"/>
<polygon fill="#191970" stroke="#191970" points="769.376,-264.6282 778.6474,-259.5007 768.2021,-257.7273 769.376,-264.6282"/>
</g>
<!-- Node378 -->
<g id="node12" class="node">
<title>Node378</title>
<g id="a_node12"><a xlink:href="class_cleaner.html#a4fd1d8eb883d1a7b271d6d4e1b1df71b" target="_top" xlink:title="Method to select the most representative sequence (the longest one) for each cluster from the input a...">
<polygon fill="#ffffff" stroke="#000000" points="777.5,-506.5 777.5,-525.5 891.5,-525.5 891.5,-506.5 777.5,-506.5"/>
<text text-anchor="middle" x="834.5" y="-513.5" font-family="Helvetica,sans-Serif" font-size="10.00" fill="#000000">Cleaner::getClustering</text>
</a>
</g>
</g>
<!-- Node377&#45;&gt;Node378 -->
<g id="edge13" class="edge">
<title>Node377&#45;&gt;Node378</title>
<path fill="none" stroke="#191970" d="M931.9037,-513.5278C918.1132,-513.8778 904.3514,-514.2271 891.6997,-514.5482"/>
<polygon fill="#191970" stroke="#191970" points="932.0269,-517.0259 941.9349,-513.2732 931.8493,-510.0282 932.0269,-517.0259"/>
</g>
<!-- Node379 -->
<g id="node13" class="node">
<title>Node379</title>
<g id="a_node13"><a xlink:href="classtrim_al_manager.html#a10536f715945a1a45f1df33f7cedc81e" target="_top" xlink:title="Method to trim or reduce the number of sequences in an alignment. It performs one or none of the foll...">
<polygon fill="#ffffff" stroke="#000000" points="560.5,-430.5 560.5,-449.5 720.5,-449.5 720.5,-430.5 560.5,-430.5"/>
<text text-anchor="middle" x="640.5" y="-437.5" font-family="Helvetica,sans-Serif" font-size="10.00" fill="#000000">trimAlManager::CleanSequences</text>
</a>
</g>
</g>
<!-- Node378&#45;&gt;Node379 -->
<g id="edge14" class="edge">
<title>Node378&#45;&gt;Node379</title>
<path fill="none" stroke="#191970" d="M794.7296,-503.2598C784.3453,-499.7671 773.2051,-495.872 763,-492 726.9255,-478.3125 685.7868,-460.3542 661.5427,-449.5219"/>
<polygon fill="#191970" stroke="#191970" points="793.8054,-506.6407 804.3989,-506.4711 796.0118,-499.9975 793.8054,-506.6407"/>
</g>
<!-- Node379&#45;&gt;Node372 -->
<g id="edge15" class="edge">
<title>Node379&#45;&gt;Node372</title>
<path fill="none" stroke="#191970" d="M614.6268,-425.3181C596.7791,-414.6374 572.9487,-399.252 554,-383 522.7189,-356.1707 491.6739,-318.9661 475.3256,-298.3332"/>
<polygon fill="#191970" stroke="#191970" points="612.9632,-428.4001 623.357,-430.4542 616.5127,-422.3668 612.9632,-428.4001"/>
</g>
<!-- Node381 -->
<g id="node15" class="node">
<title>Node381</title>
<g id="a_node15"><a xlink:href="class_cleaner.html#aa57106470d2104a925b9396b8a9f33b3" target="_top" xlink:title="Method that carries the gappyout approach. This methods calculates the slope in gaps distribution on ...">
<polygon fill="#ffffff" stroke="#000000" points="774.5,-354.5 774.5,-373.5 894.5,-373.5 894.5,-354.5 774.5,-354.5"/>
<text text-anchor="middle" x="834.5" y="-361.5" font-family="Helvetica,sans-Serif" font-size="10.00" fill="#000000">Cleaner::clean2ndSlope</text>
</a>
</g>
</g>
<!-- Node380&#45;&gt;Node381 -->
<g id="edge17" class="edge">
<title>Node380&#45;&gt;Node381</title>
<path fill="none" stroke="#191970" d="M955.271,-360.9347C935.1216,-361.4462 913.6603,-361.9909 894.5041,-362.4771"/>
<polygon fill="#191970" stroke="#191970" points="955.4459,-364.4315 965.3538,-360.6788 955.2682,-357.4338 955.4459,-364.4315"/>
</g>
<!-- Node383 -->
<g id="node17" class="node">
<title>Node383</title>
<g id="a_node17"><a xlink:href="class_cleaner.html#af7c9e1a177424168fa4214aca9ebd8e2" target="_top" xlink:title="Method to trim an alignment based on the gap distribution values. Column blocks that don&#39;t have a min...">
<polygon fill="#ffffff" stroke="#000000" points="783,-316.5 783,-335.5 886,-335.5 886,-316.5 783,-316.5"/>
<text text-anchor="middle" x="834.5" y="-323.5" font-family="Helvetica,sans-Serif" font-size="10.00" fill="#000000">Cleaner::cleanGaps</text>
</a>
</g>
</g>
<!-- Node380&#45;&gt;Node383 -->
<g id="edge20" class="edge">
<title>Node380&#45;&gt;Node383</title>
<path fill="none" stroke="#191970" d="M955.2198,-346.2221C932.0977,-342.3489 907.2523,-338.1869 886.1478,-334.6517"/>
<polygon fill="#191970" stroke="#191970" points="954.913,-349.7194 965.3538,-347.9197 956.0695,-342.8156 954.913,-349.7194"/>
</g>
<!-- Node384 -->
<g id="node18" class="node">
<title>Node384</title>
<g id="a_node18"><a xlink:href="class_cleaner.html#a3af7bde2142886d6d723c95694b7b9ba" target="_top" xlink:title="Method to remove columns composed only by gaps This method is specially useful when we remove missali...">
<polygon fill="#ffffff" stroke="#000000" points="771,-392.5 771,-411.5 898,-411.5 898,-392.5 771,-392.5"/>
<text text-anchor="middle" x="834.5" y="-399.5" font-family="Helvetica,sans-Serif" font-size="10.00" fill="#000000">Cleaner::cleanNoAllGaps</text>
</a>
</g>
</g>
<!-- Node380&#45;&gt;Node384 -->
<g id="edge23" class="edge">
<title>Node380&#45;&gt;Node384</title>
<path fill="none" stroke="#191970" d="M955.4487,-375.6C929.2756,-381.3129 900.8691,-387.5133 878.1662,-392.4688"/>
<polygon fill="#191970" stroke="#191970" points="956.3303,-378.9901 965.3538,-373.438 954.8374,-372.1511 956.3303,-378.9901"/>
</g>
<!-- Node382 -->
<g id="node16" class="node">
<title>Node382</title>
<g id="a_node16"><a xlink:href="classtrim_al_manager.html#a69082911b30a1bd12395bb235bc18a34" target="_top" xlink:title="Method to trim the alignment using automatic or semi&#45;automatic methods:">
<polygon fill="#ffffff" stroke="#000000" points="554,-354.5 554,-373.5 727,-373.5 727,-354.5 554,-354.5"/>
<text text-anchor="middle" x="640.5" y="-361.5" font-family="Helvetica,sans-Serif" font-size="10.00" fill="#000000">trimAlManager::CleanResiduesAuto</text>
</a>
</g>
</g>
<!-- Node381&#45;&gt;Node382 -->
<g id="edge18" class="edge">
<title>Node381&#45;&gt;Node382</title>
<path fill="none" stroke="#191970" d="M764.1198,-364C752.1756,-364 739.6478,-364 727.3405,-364"/>
<polygon fill="#191970" stroke="#191970" points="764.4458,-367.5001 774.4458,-364 764.4457,-360.5001 764.4458,-367.5001"/>
</g>
<!-- Node382&#45;&gt;Node372 -->
<g id="edge19" class="edge">
<title>Node382&#45;&gt;Node372</title>
<path fill="none" stroke="#191970" d="M610.2986,-350.179C578.6725,-335.7061 529.1537,-313.0449 496.5134,-298.1078"/>
<polygon fill="#191970" stroke="#191970" points="608.9512,-353.4114 619.5007,-354.3902 611.8641,-347.0463 608.9512,-353.4114"/>
</g>
<!-- Node383&#45;&gt;Node371 -->
<g id="edge22" class="edge">
<title>Node383&#45;&gt;Node371</title>
<path fill="none" stroke="#191970" d="M781.6788,-314.2922C759.0258,-309.2712 732.2849,-303.3441 708.2028,-298.0063"/>
<polygon fill="#191970" stroke="#191970" points="780.9246,-317.7099 791.4451,-316.4569 782.4395,-310.8758 780.9246,-317.7099"/>
</g>
<!-- Node383&#45;&gt;Node382 -->
<g id="edge21" class="edge">
<title>Node383&#45;&gt;Node382</title>
<path fill="none" stroke="#191970" d="M775.5948,-337.5381C747.9249,-342.958 715.3381,-349.341 689.1024,-354.4799"/>
<polygon fill="#191970" stroke="#191970" points="776.4049,-340.946 785.5456,-335.589 775.0593,-334.0766 776.4049,-340.946"/>
</g>
<!-- Node384&#45;&gt;Node379 -->
<g id="edge25" class="edge">
<title>Node384&#45;&gt;Node379</title>
<path fill="none" stroke="#191970" d="M775.5948,-413.5381C747.9249,-418.958 715.3381,-425.341 689.1024,-430.4799"/>
<polygon fill="#191970" stroke="#191970" points="776.4049,-416.946 785.5456,-411.589 775.0593,-410.0766 776.4049,-416.946"/>
</g>
<!-- Node384&#45;&gt;Node382 -->
<g id="edge24" class="edge">
<title>Node384&#45;&gt;Node382</title>
<path fill="none" stroke="#191970" d="M775.5948,-390.4619C747.9249,-385.042 715.3381,-378.659 689.1024,-373.5201"/>
<polygon fill="#191970" stroke="#191970" points="775.0593,-393.9234 785.5456,-392.411 776.4049,-387.054 775.0593,-393.9234"/>
</g>
<!-- Node385&#45;&gt;Node370 -->
<g id="edge27" class="edge">
<title>Node385&#45;&gt;Node370</title>
<path fill="none" stroke="#191970" d="M955.3423,-298.428C927.8202,-296.053 897.8413,-293.466 874.6284,-291.4629"/>
<polygon fill="#191970" stroke="#191970" points="955.0899,-301.9192 965.3538,-299.292 955.6918,-294.9451 955.0899,-301.9192"/>
</g>
<!-- Node386&#45;&gt;Node382 -->
<g id="edge29" class="edge">
<title>Node386&#45;&gt;Node382</title>
<path fill="none" stroke="#191970" d="M783.544,-427.6401C776.5808,-425.6087 769.5718,-423.3812 763,-421 724.6262,-407.0959 681.8249,-385.7601 658.3424,-373.5184"/>
<polygon fill="#191970" stroke="#191970" points="783.0837,-431.1457 793.657,-430.4712 784.9708,-424.4049 783.0837,-431.1457"/>
</g>
<!-- Node387&#45;&gt;Node371 -->
<g id="edge31" class="edge">
<title>Node387&#45;&gt;Node371</title>
<path fill="none" stroke="#191970" d="M953.5838,-210.7667C899.4288,-211.5402 825.9595,-215.8566 763,-231 729.3048,-239.1046 693.0391,-255.5644 668.7836,-267.8057"/>
<polygon fill="#191970" stroke="#191970" points="953.8432,-214.2643 963.8058,-210.6593 953.7696,-207.2646 953.8432,-214.2643"/>
</g>
<!-- Node388&#45;&gt;Node379 -->
<g id="edge33" class="edge">
<title>Node388&#45;&gt;Node379</title>
<path fill="none" stroke="#191970" d="M948.9259,-467.7978C895.7383,-467.0346 825.1651,-464.8414 763,-459 739.8586,-456.8255 714.4403,-453.1041 692.7851,-449.5281"/>
<polygon fill="#191970" stroke="#191970" points="948.9415,-471.2982 958.986,-467.9281 949.0322,-464.2988 948.9415,-471.2982"/>
</g>
<!-- Node391 -->
<g id="node25" class="node">
<title>Node391</title>
<g id="a_node25"><a xlink:href="classstatistics_1_1_manager.html#aa20cfb477826035386ea988e3706b09a" target="_top" xlink:title="Wrapper to Statistics::Similarity::printGapsTotal() It calls to calculateConservationStats() to make ...">
<polygon fill="#ffffff" stroke="#000000" points="764.5,-104.5 764.5,-145.5 904.5,-145.5 904.5,-104.5 764.5,-104.5"/>
<text text-anchor="start" x="772.5" y="-133.5" font-family="Helvetica,sans-Serif" font-size="10.00" fill="#000000">statistics::Manager</text>
<text text-anchor="start" x="772.5" y="-122.5" font-family="Helvetica,sans-Serif" font-size="10.00" fill="#000000">::printStatisticsConservation</text>
<text text-anchor="middle" x="834.5" y="-111.5" font-family="Helvetica,sans-Serif" font-size="10.00" fill="#000000">Total</text>
</a>
</g>
</g>
<!-- Node390&#45;&gt;Node391 -->
<g id="edge36" class="edge">
<title>Node390&#45;&gt;Node391</title>
<path fill="none" stroke="#191970" d="M964.5953,-128.3019C945.3383,-127.8132 924.2792,-127.2787 904.8219,-126.7848"/>
<polygon fill="#191970" stroke="#191970" points="964.6981,-131.8056 974.7837,-128.5605 964.8758,-124.8078 964.6981,-131.8056"/>
</g>
<!-- Node392 -->
<g id="node26" class="node">
<title>Node392</title>
<g id="a_node26"><a xlink:href="classtrim_al_manager.html#afc48b86f5ae35b9a5e721b65c58bf610" target="_top" xlink:title="Method to print statistics requested.">
<polygon fill="#ffffff" stroke="#000000" points="588.5,-110 588.5,-140 692.5,-140 692.5,-110 588.5,-110"/>
<text text-anchor="start" x="596.5" y="-128" font-family="Helvetica,sans-Serif" font-size="10.00" fill="#000000">trimAlManager::print</text>
<text text-anchor="middle" x="640.5" y="-117" font-family="Helvetica,sans-Serif" font-size="10.00" fill="#000000">_statistics</text>
</a>
</g>
</g>
<!-- Node391&#45;&gt;Node392 -->
<g id="edge37" class="edge">
<title>Node391&#45;&gt;Node392</title>
<path fill="none" stroke="#191970" d="M754.3594,-125C733.571,-125 711.7168,-125 692.7756,-125"/>
<polygon fill="#191970" stroke="#191970" points="754.4616,-128.5001 764.4615,-125 754.4615,-121.5001 754.4616,-128.5001"/>
</g>
<!-- Node392&#45;&gt;Node373 -->
<g id="edge38" class="edge">
<title>Node392&#45;&gt;Node373</title>
<path fill="none" stroke="#191970" d="M578.4546,-133.3481C497.8097,-144.3588 352.6643,-164.7223 229,-185 214.8742,-187.3163 199.6005,-189.9685 185.4984,-192.4783"/>
<polygon fill="#191970" stroke="#191970" points="579.0055,-136.8055 588.4414,-131.9874 578.0604,-129.8695 579.0055,-136.8055"/>
</g>
<!-- Node393&#45;&gt;Node392 -->
<g id="edge40" class="edge">
<title>Node393&#45;&gt;Node392</title>
<path fill="none" stroke="#191970" d="M771.5575,-87.8445C746.0939,-95.0636 717.0438,-103.2994 692.7756,-110.1796"/>
<polygon fill="#191970" stroke="#191970" points="772.8225,-91.1239 781.4886,-85.029 770.9131,-84.3893 772.8225,-91.1239"/>
</g>
<!-- Node395&#45;&gt;Node373 -->
<g id="edge43" class="edge">
<title>Node395&#45;&gt;Node373</title>
<path fill="none" stroke="#191970" d="M402.6133,-186.5056C342.8707,-189.9453 252.3392,-195.1577 193.0582,-198.5709"/>
<polygon fill="#191970" stroke="#191970" points="402.8785,-189.9962 412.6607,-185.9271 402.476,-183.0078 402.8785,-189.9962"/>
</g>
<!-- Node395&#45;&gt;Node375 -->
<g id="edge44" class="edge">
<title>Node395&#45;&gt;Node375</title>
<path fill="none" stroke="#191970" d="M403.1036,-197.1235C382.635,-201.91 360.2727,-207.1393 341.7075,-211.4807"/>
<polygon fill="#191970" stroke="#191970" points="404.0344,-200.5003 412.9747,-194.8151 402.4404,-193.6842 404.0344,-200.5003"/>
</g>
</g>
</svg>
