<?xml version="1.0" encoding="UTF-8" standalone="no"?>
<!DOCTYPE svg PUBLIC "-//W3C//DTD SVG 1.1//EN"
 "http://www.w3.org/Graphics/SVG/1.1/DTD/svg11.dtd">
<!-- Generated by graphviz version 2.40.1 (20161225.0304)
 -->
<!-- Title: utils::min Pages: 1 -->
<svg width="850pt" height="50pt"
 viewBox="0.00 0.00 850.00 50.00" xmlns="http://www.w3.org/2000/svg" xmlns:xlink="http://www.w3.org/1999/xlink">
<g id="graph0" class="graph" transform="scale(1 1) rotate(0) translate(4 46)">
<title>utils::min</title>
<polygon fill="#ffffff" stroke="transparent" points="-4,4 -4,-46 846,-46 846,4 -4,4"/>
<!-- Node233 -->
<g id="node1" class="node">
<title>Node233</title>
<polygon fill="#bfbfbf" stroke="#000000" points="0,-11.5 0,-30.5 56,-30.5 56,-11.5 0,-11.5"/>
<text text-anchor="middle" x="28" y="-18.5" font-family="Helvetica,sans-Serif" font-size="10.00" fill="#000000">utils::min</text>
</g>
<!-- Node234 -->
<g id="node2" class="node">
<title>Node234</title>
<g id="a_node2"><a xlink:href="class_alignment.html#a12f7c76645e480ee17e7c1093d906ef8" target="_top" xlink:title="Function to check CDS file. . ">
<polygon fill="#ffffff" stroke="#000000" points="92,-11.5 92,-30.5 256,-30.5 256,-11.5 92,-11.5"/>
<text text-anchor="middle" x="174" y="-18.5" font-family="Helvetica,sans-Serif" font-size="10.00" fill="#000000">Alignment::checkCorrespondence</text>
</a>
</g>
</g>
<!-- Node233&#45;&gt;Node234 -->
<g id="edge1" class="edge">
<title>Node233&#45;&gt;Node234</title>
<path fill="none" stroke="#191970" d="M66.2046,-21C74.2067,-21 82.9368,-21 91.8519,-21"/>
<polygon fill="#191970" stroke="#191970" points="66.1503,-17.5001 56.1503,-21 66.1502,-24.5001 66.1503,-17.5001"/>
</g>
<!-- Node235 -->
<g id="node3" class="node">
<title>Node235</title>
<g id="a_node3"><a xlink:href="classtrim_al_manager.html#a8873f972344b34acf6441c1f46338082" target="_top" xlink:title="Method to check if the origAlig and backtranslationAlig are compatible in names to make the backtrans...">
<polygon fill="#ffffff" stroke="#000000" points="292,-.5 292,-41.5 417,-41.5 417,-.5 292,-.5"/>
<text text-anchor="start" x="300" y="-29.5" font-family="Helvetica,sans-Serif" font-size="10.00" fill="#000000">trimAlManager::check</text>
<text text-anchor="start" x="300" y="-18.5" font-family="Helvetica,sans-Serif" font-size="10.00" fill="#000000">_backtranslation_infile</text>
<text text-anchor="middle" x="354.5" y="-7.5" font-family="Helvetica,sans-Serif" font-size="10.00" fill="#000000">_names_correspondence</text>
</a>
</g>
</g>
<!-- Node234&#45;&gt;Node235 -->
<g id="edge2" class="edge">
<title>Node234&#45;&gt;Node235</title>
<path fill="none" stroke="#191970" d="M266.2271,-21C274.8917,-21 283.5321,-21 291.8285,-21"/>
<polygon fill="#191970" stroke="#191970" points="266.0635,-17.5001 256.0635,-21 266.0634,-24.5001 266.0635,-17.5001"/>
</g>
<!-- Node236 -->
<g id="node4" class="node">
<title>Node236</title>
<g id="a_node4"><a xlink:href="classtrim_al_manager.html#a3f325b806727751394adb829d97b35f1" target="_top" xlink:title="Method that checks dependencies between arguments. Take in mind that dependencies may be between mult...">
<polygon fill="#ffffff" stroke="#000000" points="453,-6 453,-36 565,-36 565,-6 453,-6"/>
<text text-anchor="start" x="461" y="-24" font-family="Helvetica,sans-Serif" font-size="10.00" fill="#000000">trimAlManager::check</text>
<text text-anchor="middle" x="509" y="-13" font-family="Helvetica,sans-Serif" font-size="10.00" fill="#000000">_arguments_needs</text>
</a>
</g>
</g>
<!-- Node235&#45;&gt;Node236 -->
<g id="edge3" class="edge">
<title>Node235&#45;&gt;Node236</title>
<path fill="none" stroke="#191970" d="M427.5711,-21C436.0073,-21 444.5101,-21 452.6755,-21"/>
<polygon fill="#191970" stroke="#191970" points="427.3411,-17.5001 417.3411,-21 427.341,-24.5001 427.3411,-17.5001"/>
</g>
<!-- Node237 -->
<g id="node5" class="node">
<title>Node237</title>
<g id="a_node5"><a xlink:href="classtrim_al_manager.html#a748b08a1ec5cd214de804ed0d4234a6e" target="_top" xlink:title="Method to process the information obtained by trimAlManager::parseArguments It checks for argument in...">
<polygon fill="#ffffff" stroke="#000000" points="601,-11.5 601,-30.5 768,-30.5 768,-11.5 601,-11.5"/>
<text text-anchor="middle" x="684.5" y="-18.5" font-family="Helvetica,sans-Serif" font-size="10.00" fill="#000000">trimAlManager::processArguments</text>
</a>
</g>
</g>
<!-- Node236&#45;&gt;Node237 -->
<g id="edge4" class="edge">
<title>Node236&#45;&gt;Node237</title>
<path fill="none" stroke="#191970" d="M575.1146,-21C583.5308,-21 592.2302,-21 600.876,-21"/>
<polygon fill="#191970" stroke="#191970" points="575.0119,-17.5001 565.0118,-21 575.0118,-24.5001 575.0119,-17.5001"/>
</g>
<!-- Node238 -->
<g id="node6" class="node">
<title>Node238</title>
<g id="a_node6"><a xlink:href="trim_al_main_8cpp.html#a0ddf1224851353fc92bfbff6f499fa97" target="_top" xlink:title="main">
<polygon fill="#ffffff" stroke="#000000" points="804,-11.5 804,-30.5 842,-30.5 842,-11.5 804,-11.5"/>
<text text-anchor="middle" x="823" y="-18.5" font-family="Helvetica,sans-Serif" font-size="10.00" fill="#000000">main</text>
</a>
</g>
</g>
<!-- Node237&#45;&gt;Node238 -->
<g id="edge5" class="edge">
<title>Node237&#45;&gt;Node238</title>
<path fill="none" stroke="#191970" d="M778.301,-21C787.7267,-21 796.4553,-21 803.6511,-21"/>
<polygon fill="#191970" stroke="#191970" points="778.2612,-17.5001 768.2611,-21 778.2611,-24.5001 778.2612,-17.5001"/>
</g>
</g>
</svg>
