<?xml version="1.0" encoding="UTF-8" standalone="no"?>
<!DOCTYPE svg PUBLIC "-//W3C//DTD SVG 1.1//EN"
 "http://www.w3.org/Graphics/SVG/1.1/DTD/svg11.dtd">
<!-- Generated by graphviz version 2.40.1 (20161225.0304)
 -->
<!-- Title: utils::swap Pages: 1 -->
<svg width="1331pt" height="66pt"
 viewBox="0.00 0.00 1331.00 66.00" xmlns="http://www.w3.org/2000/svg" xmlns:xlink="http://www.w3.org/1999/xlink">
<g id="graph0" class="graph" transform="scale(1 1) rotate(0) translate(4 62)">
<title>utils::swap</title>
<polygon fill="#ffffff" stroke="transparent" points="-4,4 -4,-62 1327,-62 1327,4 -4,4"/>
<!-- Node441 -->
<g id="node1" class="node">
<title>Node441</title>
<polygon fill="#bfbfbf" stroke="#000000" points="0,-19.5 0,-38.5 64,-38.5 64,-19.5 0,-19.5"/>
<text text-anchor="middle" x="32" y="-26.5" font-family="Helvetica,sans-Serif" font-size="10.00" fill="#000000">utils::swap</text>
</g>
<!-- Node442 -->
<g id="node2" class="node">
<title>Node442</title>
<g id="a_node2"><a xlink:href="namespaceutils.html#a36809b7400f2e78685173f8bbcfe0a39" target="_top" xlink:title="Quicksort sorting method. ">
<polygon fill="#ffffff" stroke="#000000" points="100,-19.5 100,-38.5 180,-38.5 180,-19.5 100,-19.5"/>
<text text-anchor="middle" x="140" y="-26.5" font-family="Helvetica,sans-Serif" font-size="10.00" fill="#000000">utils::quicksort</text>
</a>
</g>
</g>
<!-- Node441&#45;&gt;Node442 -->
<g id="edge1" class="edge">
<title>Node441&#45;&gt;Node442</title>
<path fill="none" stroke="#191970" d="M74.1363,-29C82.5687,-29 91.407,-29 99.7728,-29"/>
<polygon fill="#191970" stroke="#191970" points="74.1112,-25.5001 64.1112,-29 74.1111,-32.5001 74.1112,-25.5001"/>
</g>
<!-- Node442&#45;&gt;Node442 -->
<g id="edge11" class="edge">
<title>Node442&#45;&gt;Node442</title>
<path fill="none" stroke="#191970" d="M120.001,-48.4C121.3366,-53.3146 128.0029,-57 140,-57 159.1953,-57 164.744,-47.5653 156.6459,-38.7571"/>
<polygon fill="#191970" stroke="#191970" points="123.3755,-49.3519 123.3541,-38.7571 116.7638,-47.0528 123.3755,-49.3519"/>
</g>
<!-- Node443 -->
<g id="node3" class="node">
<title>Node443</title>
<g id="a_node3"><a xlink:href="class_cleaner.html#a631cf3e2e55c00a995f0f4a51bfe7a2d" target="_top" xlink:title="Method to assign sequences to clusters. Clusters are calculated following this flow: ...">
<polygon fill="#ffffff" stroke="#000000" points="216,-38.5 216,-57.5 395,-57.5 395,-38.5 216,-38.5"/>
<text text-anchor="middle" x="305.5" y="-45.5" font-family="Helvetica,sans-Serif" font-size="10.00" fill="#000000">Cleaner::calculateRepresentativeSeq</text>
</a>
</g>
</g>
<!-- Node442&#45;&gt;Node443 -->
<g id="edge2" class="edge">
<title>Node442&#45;&gt;Node443</title>
<path fill="none" stroke="#191970" d="M190.0774,-34.7491C200.3904,-35.933 211.5101,-37.2096 222.6326,-38.4865"/>
<polygon fill="#191970" stroke="#191970" points="190.3969,-31.2628 180.0629,-33.5994 189.5985,-38.2172 190.3969,-31.2628"/>
</g>
<!-- Node450 -->
<g id="node10" class="node">
<title>Node450</title>
<g id="a_node10"><a xlink:href="class_cleaner.html#a60955e2ae3faa3ccf84780a52fb1a08a" target="_top" xlink:title="Method that calculates the optimal cut point for a given clusters number. &#160;The idea is to obtain a cu...">
<polygon fill="#ffffff" stroke="#000000" points="431,-.5 431,-19.5 576,-19.5 576,-.5 431,-.5"/>
<text text-anchor="middle" x="503.5" y="-7.5" font-family="Helvetica,sans-Serif" font-size="10.00" fill="#000000">Cleaner::getCutPointClusters</text>
</a>
</g>
</g>
<!-- Node442&#45;&gt;Node450 -->
<g id="edge9" class="edge">
<title>Node442&#45;&gt;Node450</title>
<path fill="none" stroke="#191970" d="M190.2783,-26.372C252.6417,-23.1123 359.4264,-17.5307 430.7305,-13.8036"/>
<polygon fill="#191970" stroke="#191970" points="190.0934,-22.8768 180.2897,-26.8941 190.4588,-29.8672 190.0934,-22.8768"/>
</g>
<!-- Node444 -->
<g id="node4" class="node">
<title>Node444</title>
<g id="a_node4"><a xlink:href="class_cleaner.html#a4fd1d8eb883d1a7b271d6d4e1b1df71b" target="_top" xlink:title="Method to select the most representative sequence (the longest one) for each cluster from the input a...">
<polygon fill="#ffffff" stroke="#000000" points="446.5,-38.5 446.5,-57.5 560.5,-57.5 560.5,-38.5 446.5,-38.5"/>
<text text-anchor="middle" x="503.5" y="-45.5" font-family="Helvetica,sans-Serif" font-size="10.00" fill="#000000">Cleaner::getClustering</text>
</a>
</g>
</g>
<!-- Node443&#45;&gt;Node444 -->
<g id="edge3" class="edge">
<title>Node443&#45;&gt;Node444</title>
<path fill="none" stroke="#191970" d="M405.4508,-48C419.5023,-48 433.5283,-48 446.3963,-48"/>
<polygon fill="#191970" stroke="#191970" points="405.2309,-44.5001 395.2308,-48 405.2308,-51.5001 405.2309,-44.5001"/>
</g>
<!-- Node445 -->
<g id="node5" class="node">
<title>Node445</title>
<g id="a_node5"><a xlink:href="classtrim_al_manager.html#a10536f715945a1a45f1df33f7cedc81e" target="_top" xlink:title="Method to trim or reduce the number of sequences in an alignment. It performs one or none of the foll...">
<polygon fill="#ffffff" stroke="#000000" points="612,-19.5 612,-38.5 772,-38.5 772,-19.5 612,-19.5"/>
<text text-anchor="middle" x="692" y="-26.5" font-family="Helvetica,sans-Serif" font-size="10.00" fill="#000000">trimAlManager::CleanSequences</text>
</a>
</g>
</g>
<!-- Node444&#45;&gt;Node445 -->
<g id="edge4" class="edge">
<title>Node444&#45;&gt;Node445</title>
<path fill="none" stroke="#191970" d="M570.6012,-41.2365C583.9504,-39.8909 598.094,-38.4653 611.8295,-37.0808"/>
<polygon fill="#191970" stroke="#191970" points="570.1663,-37.7625 560.5678,-42.2478 570.8684,-44.7272 570.1663,-37.7625"/>
</g>
<!-- Node446 -->
<g id="node6" class="node">
<title>Node446</title>
<g id="a_node6"><a xlink:href="classtrim_al_manager.html#adc529dd893ed4e9df6f3ddbd58776068" target="_top" xlink:title="Core Method of the program. This is where almost all cleaning methods are called from. ">
<polygon fill="#ffffff" stroke="#000000" points="808,-14 808,-44 917,-44 917,-14 808,-14"/>
<text text-anchor="start" x="816" y="-32" font-family="Helvetica,sans-Serif" font-size="10.00" fill="#000000">trimAlManager::clean</text>
<text text-anchor="middle" x="862.5" y="-21" font-family="Helvetica,sans-Serif" font-size="10.00" fill="#000000">_alignment</text>
</a>
</g>
</g>
<!-- Node445&#45;&gt;Node446 -->
<g id="edge5" class="edge">
<title>Node445&#45;&gt;Node446</title>
<path fill="none" stroke="#191970" d="M782.4703,-29C791.1602,-29 799.7775,-29 807.9593,-29"/>
<polygon fill="#191970" stroke="#191970" points="782.2575,-25.5001 772.2574,-29 782.2574,-32.5001 782.2575,-25.5001"/>
</g>
<!-- Node447 -->
<g id="node7" class="node">
<title>Node447</title>
<g id="a_node7"><a xlink:href="classtrim_al_manager.html#a7c641a1feff33d401b4ea5c82e989289" target="_top" xlink:title="trimAlManager::innerPerform">
<polygon fill="#ffffff" stroke="#000000" points="953,-19.5 953,-38.5 1094,-38.5 1094,-19.5 953,-19.5"/>
<text text-anchor="middle" x="1023.5" y="-26.5" font-family="Helvetica,sans-Serif" font-size="10.00" fill="#000000">trimAlManager::innerPerform</text>
</a>
</g>
</g>
<!-- Node446&#45;&gt;Node447 -->
<g id="edge6" class="edge">
<title>Node446&#45;&gt;Node447</title>
<path fill="none" stroke="#191970" d="M927.1474,-29C935.5802,-29 944.2546,-29 952.7806,-29"/>
<polygon fill="#191970" stroke="#191970" points="927.0073,-25.5001 917.0073,-29 927.0072,-32.5001 927.0073,-25.5001"/>
</g>
<!-- Node448 -->
<g id="node8" class="node">
<title>Node448</title>
<g id="a_node8"><a xlink:href="classtrim_al_manager.html#abe8d2841455c644dc9c7d1294b82b00f" target="_top" xlink:title="Method to perform the analysis if all checks have passed. ">
<polygon fill="#ffffff" stroke="#000000" points="1130,-19.5 1130,-38.5 1249,-38.5 1249,-19.5 1130,-19.5"/>
<text text-anchor="middle" x="1189.5" y="-26.5" font-family="Helvetica,sans-Serif" font-size="10.00" fill="#000000">trimAlManager::perform</text>
</a>
</g>
</g>
<!-- Node447&#45;&gt;Node448 -->
<g id="edge7" class="edge">
<title>Node447&#45;&gt;Node448</title>
<path fill="none" stroke="#191970" d="M1104.4012,-29C1112.9677,-29 1121.564,-29 1129.8249,-29"/>
<polygon fill="#191970" stroke="#191970" points="1104.3805,-25.5001 1094.3804,-29 1104.3804,-32.5001 1104.3805,-25.5001"/>
</g>
<!-- Node449 -->
<g id="node9" class="node">
<title>Node449</title>
<g id="a_node9"><a xlink:href="trim_al_main_8cpp.html#a0ddf1224851353fc92bfbff6f499fa97" target="_top" xlink:title="main">
<polygon fill="#ffffff" stroke="#000000" points="1285,-19.5 1285,-38.5 1323,-38.5 1323,-19.5 1285,-19.5"/>
<text text-anchor="middle" x="1304" y="-26.5" font-family="Helvetica,sans-Serif" font-size="10.00" fill="#000000">main</text>
</a>
</g>
</g>
<!-- Node448&#45;&gt;Node449 -->
<g id="edge8" class="edge">
<title>Node448&#45;&gt;Node449</title>
<path fill="none" stroke="#191970" d="M1259.3198,-29C1268.6177,-29 1277.4503,-29 1284.7697,-29"/>
<polygon fill="#191970" stroke="#191970" points="1259.0976,-25.5001 1249.0976,-29 1259.0975,-32.5001 1259.0976,-25.5001"/>
</g>
<!-- Node450&#45;&gt;Node445 -->
<g id="edge10" class="edge">
<title>Node450&#45;&gt;Node445</title>
<path fill="none" stroke="#191970" d="M586.0925,-18.325C594.6624,-19.1888 603.363,-20.0658 611.9048,-20.9267"/>
<polygon fill="#191970" stroke="#191970" points="586.41,-14.8393 576.1094,-17.3187 585.7079,-21.804 586.41,-14.8393"/>
</g>
</g>
</svg>
