<?xml version="1.0" encoding="UTF-8" standalone="no"?>
<!DOCTYPE svg PUBLIC "-//W3C//DTD SVG 1.1//EN"
 "http://www.w3.org/Graphics/SVG/1.1/DTD/svg11.dtd">
<!-- Generated by graphviz version 2.40.1 (20161225.0304)
 -->
<!-- Title: utils::ReplaceStringInPlace Pages: 1 -->
<svg width="913pt" height="214pt"
 viewBox="0.00 0.00 913.00 214.00" xmlns="http://www.w3.org/2000/svg" xmlns:xlink="http://www.w3.org/1999/xlink">
<g id="graph0" class="graph" transform="scale(1 1) rotate(0) translate(4 210)">
<title>utils::ReplaceStringInPlace</title>
<polygon fill="#ffffff" stroke="transparent" points="-4,4 -4,-210 909,-210 909,4 -4,4"/>
<!-- Node341 -->
<g id="node1" class="node">
<title>Node341</title>
<polygon fill="#bfbfbf" stroke="#000000" points="0,-76 0,-95 135,-95 135,-76 0,-76"/>
<text text-anchor="middle" x="67.5" y="-83" font-family="Helvetica,sans-Serif" font-size="10.00" fill="#000000">utils::ReplaceStringInPlace</text>
</g>
<!-- Node342 -->
<g id="node2" class="node">
<title>Node342</title>
<g id="a_node2"><a xlink:href="class_format_handling_1_1_format_manager.html#aac5df1a01a25e54aa856ef68085bd72a" target="_top" xlink:title="Function that takes multiple files, loads them and saves in a cumulus of formats, using an outPattern...">
<polygon fill="#ffffff" stroke="#000000" points="171,-95.5 171,-125.5 334,-125.5 334,-95.5 171,-95.5"/>
<text text-anchor="start" x="179" y="-113.5" font-family="Helvetica,sans-Serif" font-size="10.00" fill="#000000">FormatHandling::FormatManager</text>
<text text-anchor="middle" x="252.5" y="-102.5" font-family="Helvetica,sans-Serif" font-size="10.00" fill="#000000">::loadAndSaveMultipleAlignments</text>
</a>
</g>
</g>
<!-- Node341&#45;&gt;Node342 -->
<g id="edge1" class="edge">
<title>Node341&#45;&gt;Node342</title>
<path fill="none" stroke="#191970" d="M145.0331,-95.9774C153.6007,-97.1352 162.3443,-98.3168 170.9593,-99.481"/>
<polygon fill="#191970" stroke="#191970" points="145.4532,-92.5025 135.0745,-94.6317 144.5157,-99.4394 145.4532,-92.5025"/>
</g>
<!-- Node344 -->
<g id="node4" class="node">
<title>Node344</title>
<g id="a_node4"><a xlink:href="classtrim_al_manager.html#a09d07645fa0057989875f2b2d25ec4d7" target="_top" xlink:title="Method to show the menu of the program. ">
<polygon fill="#ffffff" stroke="#000000" points="197.5,-145 197.5,-164 307.5,-164 307.5,-145 197.5,-145"/>
<text text-anchor="middle" x="252.5" y="-152" font-family="Helvetica,sans-Serif" font-size="10.00" fill="#000000">trimAlManager::menu</text>
</a>
</g>
</g>
<!-- Node341&#45;&gt;Node344 -->
<g id="edge3" class="edge">
<title>Node341&#45;&gt;Node344</title>
<path fill="none" stroke="#191970" d="M93.2339,-99.9105C113.7703,-110.9198 143.5479,-125.8036 171,-135.5 181.4114,-139.1775 192.8241,-142.346 203.7258,-144.9836"/>
<polygon fill="#191970" stroke="#191970" points="94.6752,-96.7103 84.2181,-95.0074 91.3309,-102.8597 94.6752,-96.7103"/>
</g>
<!-- Node348 -->
<g id="node8" class="node">
<title>Node348</title>
<g id="a_node8"><a xlink:href="classtrim_al_manager.html#a1da8f8b677f19ed8f7e08a663d97bb92" target="_top" xlink:title="trimAlManager::output\l_reports">
<polygon fill="#ffffff" stroke="#000000" points="370,-.5 370,-30.5 483,-30.5 483,-.5 370,-.5"/>
<text text-anchor="start" x="378" y="-18.5" font-family="Helvetica,sans-Serif" font-size="10.00" fill="#000000">trimAlManager::output</text>
<text text-anchor="middle" x="426.5" y="-7.5" font-family="Helvetica,sans-Serif" font-size="10.00" fill="#000000">_reports</text>
</a>
</g>
</g>
<!-- Node341&#45;&gt;Node348 -->
<g id="edge8" class="edge">
<title>Node341&#45;&gt;Node348</title>
<path fill="none" stroke="#191970" d="M91.8462,-70.8783C112.2317,-59.409 142.4883,-44.1485 171,-36.5 237.7379,-18.5971 317.4967,-14.6851 369.939,-14.3789"/>
<polygon fill="#191970" stroke="#191970" points="89.872,-67.9762 82.9497,-75.9969 93.3629,-74.0436 89.872,-67.9762"/>
</g>
<!-- Node352 -->
<g id="node12" class="node">
<title>Node352</title>
<g id="a_node12"><a xlink:href="class_format_handling_1_1_format_manager.html#a2987b0f448390cf5cb7a287117896c64" target="_top" xlink:title="Function to save an alignment to a file. It searches among the available_states one that can write th...">
<polygon fill="#ffffff" stroke="#000000" points="172.5,-46.5 172.5,-76.5 332.5,-76.5 332.5,-46.5 172.5,-46.5"/>
<text text-anchor="start" x="180.5" y="-64.5" font-family="Helvetica,sans-Serif" font-size="10.00" fill="#000000">FormatHandling::FormatManager</text>
<text text-anchor="middle" x="252.5" y="-53.5" font-family="Helvetica,sans-Serif" font-size="10.00" fill="#000000">::saveAlignment</text>
</a>
</g>
</g>
<!-- Node341&#45;&gt;Node352 -->
<g id="edge13" class="edge">
<title>Node341&#45;&gt;Node352</title>
<path fill="none" stroke="#191970" d="M145.0998,-75.433C154.0681,-74.2695 163.2283,-73.0812 172.2312,-71.9133"/>
<polygon fill="#191970" stroke="#191970" points="144.5411,-71.9761 135.0745,-76.7336 145.4417,-78.9179 144.5411,-71.9761"/>
</g>
<!-- Node343 -->
<g id="node3" class="node">
<title>Node343</title>
<g id="a_node3"><a xlink:href="read_al_main_8cpp.html#a0ddf1224851353fc92bfbff6f499fa97" target="_top" xlink:title="main">
<polygon fill="#ffffff" stroke="#000000" points="407.5,-99 407.5,-118 445.5,-118 445.5,-99 407.5,-99"/>
<text text-anchor="middle" x="426.5" y="-106" font-family="Helvetica,sans-Serif" font-size="10.00" fill="#000000">main</text>
</a>
</g>
</g>
<!-- Node342&#45;&gt;Node343 -->
<g id="edge2" class="edge">
<title>Node342&#45;&gt;Node343</title>
<path fill="none" stroke="#191970" d="M344.3607,-109.4441C368.1637,-109.1705 391.48,-108.9025 407.1526,-108.7224"/>
<polygon fill="#191970" stroke="#191970" points="344.1095,-105.9467 334.1505,-109.5615 344.1901,-112.9462 344.1095,-105.9467"/>
</g>
<!-- Node345 -->
<g id="node5" class="node">
<title>Node345</title>
<g id="a_node5"><a xlink:href="classtrim_al_manager.html#ac00c17dd71558993a44020e3ec7c2b16" target="_top" xlink:title="Method to parse information arguments as help and menu. ">
<polygon fill="#ffffff" stroke="#000000" points="374.5,-175.5 374.5,-205.5 478.5,-205.5 478.5,-175.5 374.5,-175.5"/>
<text text-anchor="start" x="382.5" y="-193.5" font-family="Helvetica,sans-Serif" font-size="10.00" fill="#000000">trimAlManager::help</text>
<text text-anchor="middle" x="426.5" y="-182.5" font-family="Helvetica,sans-Serif" font-size="10.00" fill="#000000">_arguments</text>
</a>
</g>
</g>
<!-- Node344&#45;&gt;Node345 -->
<g id="edge4" class="edge">
<title>Node344&#45;&gt;Node345</title>
<path fill="none" stroke="#191970" d="M308.4696,-166.0799C329.5858,-170.4488 353.5085,-175.3983 374.2694,-179.6937"/>
<polygon fill="#191970" stroke="#191970" points="309.1737,-162.6515 298.672,-164.0528 307.7554,-169.5064 309.1737,-162.6515"/>
</g>
<!-- Node346 -->
<g id="node6" class="node">
<title>Node346</title>
<g id="a_node6"><a xlink:href="classtrim_al_manager.html#af140d97b6071a83930818030ac74b641" target="_top" xlink:title="Method to parse arguments into usable structure in trimal. ">
<polygon fill="#ffffff" stroke="#000000" points="519,-137 519,-156 676,-156 676,-137 519,-137"/>
<text text-anchor="middle" x="597.5" y="-144" font-family="Helvetica,sans-Serif" font-size="10.00" fill="#000000">trimAlManager::parseArguments</text>
</a>
</g>
</g>
<!-- Node344&#45;&gt;Node346 -->
<g id="edge7" class="edge">
<title>Node344&#45;&gt;Node346</title>
<path fill="none" stroke="#191970" d="M317.5494,-152.9916C374.7045,-151.6663 458.0127,-149.7345 518.8871,-148.3229"/>
<polygon fill="#191970" stroke="#191970" points="317.4639,-149.4926 307.5478,-153.2235 317.6262,-156.4907 317.4639,-149.4926"/>
</g>
<!-- Node345&#45;&gt;Node346 -->
<g id="edge5" class="edge">
<title>Node345&#45;&gt;Node346</title>
<path fill="none" stroke="#191970" d="M488.5315,-174.5387C512.6597,-168.3302 539.4907,-161.4264 560.491,-156.0228"/>
<polygon fill="#191970" stroke="#191970" points="487.5471,-171.1779 478.7348,-177.0595 489.2915,-177.9571 487.5471,-171.1779"/>
</g>
<!-- Node347 -->
<g id="node7" class="node">
<title>Node347</title>
<g id="a_node7"><a xlink:href="trim_al_main_8cpp.html#a0ddf1224851353fc92bfbff6f499fa97" target="_top" xlink:title="main">
<polygon fill="#ffffff" stroke="#000000" points="867,-77 867,-96 905,-96 905,-77 867,-77"/>
<text text-anchor="middle" x="886" y="-84" font-family="Helvetica,sans-Serif" font-size="10.00" fill="#000000">main</text>
</a>
</g>
</g>
<!-- Node346&#45;&gt;Node347 -->
<g id="edge6" class="edge">
<title>Node346&#45;&gt;Node347</title>
<path fill="none" stroke="#191970" d="M653.3628,-134.8821C718.8095,-121.271 823.7556,-99.4451 866.7176,-90.5102"/>
<polygon fill="#191970" stroke="#191970" points="652.2915,-131.5299 643.2137,-136.9928 653.7169,-138.3833 652.2915,-131.5299"/>
</g>
<!-- Node349 -->
<g id="node9" class="node">
<title>Node349</title>
<g id="a_node9"><a xlink:href="classtrim_al_manager.html#a7c641a1feff33d401b4ea5c82e989289" target="_top" xlink:title="trimAlManager::innerPerform">
<polygon fill="#ffffff" stroke="#000000" points="527,-17 527,-36 668,-36 668,-17 527,-17"/>
<text text-anchor="middle" x="597.5" y="-24" font-family="Helvetica,sans-Serif" font-size="10.00" fill="#000000">trimAlManager::innerPerform</text>
</a>
</g>
</g>
<!-- Node348&#45;&gt;Node349 -->
<g id="edge9" class="edge">
<title>Node348&#45;&gt;Node349</title>
<path fill="none" stroke="#191970" d="M493.7105,-19.8235C504.5799,-20.5227 515.863,-21.2485 526.8119,-21.9528"/>
<polygon fill="#191970" stroke="#191970" points="493.6446,-16.3121 483.4405,-19.1628 493.1952,-23.2977 493.6446,-16.3121"/>
</g>
<!-- Node351 -->
<g id="node11" class="node">
<title>Node351</title>
<g id="a_node11"><a xlink:href="classtrim_al_manager.html#ac5795f93b3a2b51bf5d8dddd63b89f73" target="_top" xlink:title="trimAlManager::perform_VCF">
<polygon fill="#ffffff" stroke="#000000" points="525.5,-55 525.5,-74 669.5,-74 669.5,-55 525.5,-55"/>
<text text-anchor="middle" x="597.5" y="-62" font-family="Helvetica,sans-Serif" font-size="10.00" fill="#000000">trimAlManager::perform_VCF</text>
</a>
</g>
</g>
<!-- Node348&#45;&gt;Node351 -->
<g id="edge12" class="edge">
<title>Node348&#45;&gt;Node351</title>
<path fill="none" stroke="#191970" d="M480.0468,-33.631C492.7588,-37.7226 506.3132,-41.9129 519,-45.5 530.7389,-48.819 543.5653,-52.0766 555.3843,-54.931"/>
<polygon fill="#191970" stroke="#191970" points="481.1106,-30.2965 470.5184,-30.5329 478.9461,-36.9535 481.1106,-30.2965"/>
</g>
<!-- Node350 -->
<g id="node10" class="node">
<title>Node350</title>
<g id="a_node10"><a xlink:href="classtrim_al_manager.html#abe8d2841455c644dc9c7d1294b82b00f" target="_top" xlink:title="Method to perform the analysis if all checks have passed. ">
<polygon fill="#ffffff" stroke="#000000" points="712,-58 712,-77 831,-77 831,-58 712,-58"/>
<text text-anchor="middle" x="771.5" y="-65" font-family="Helvetica,sans-Serif" font-size="10.00" fill="#000000">trimAlManager::perform</text>
</a>
</g>
</g>
<!-- Node349&#45;&gt;Node350 -->
<g id="edge10" class="edge">
<title>Node349&#45;&gt;Node350</title>
<path fill="none" stroke="#191970" d="M647.7013,-38.3291C674.1697,-44.5658 706.2088,-52.1153 731.0614,-57.9714"/>
<polygon fill="#191970" stroke="#191970" points="648.3926,-34.8962 637.8564,-36.0093 646.7871,-41.7096 648.3926,-34.8962"/>
</g>
<!-- Node350&#45;&gt;Node347 -->
<g id="edge11" class="edge">
<title>Node350&#45;&gt;Node347</title>
<path fill="none" stroke="#191970" d="M838.9899,-78.6992C849.2227,-80.3972 859.0043,-82.0204 866.9691,-83.342"/>
<polygon fill="#191970" stroke="#191970" points="839.5235,-75.24 829.0854,-77.0557 838.3776,-82.1455 839.5235,-75.24"/>
</g>
<!-- Node352&#45;&gt;Node343 -->
<g id="edge14" class="edge">
<title>Node352&#45;&gt;Node343</title>
<path fill="none" stroke="#191970" d="M317.7746,-79.1316C349.6606,-87.7445 385.7065,-97.4811 407.2416,-103.298"/>
<polygon fill="#191970" stroke="#191970" points="318.5998,-75.7292 308.0331,-76.5003 316.7744,-82.487 318.5998,-75.7292"/>
</g>
<!-- Node353 -->
<g id="node13" class="node">
<title>Node353</title>
<g id="a_node13"><a xlink:href="classtrim_al_manager.html#a7ba38127fa10c926b96c60250b80d2b7" target="_top" xlink:title="trimAlManager::save\l_alignment">
<polygon fill="#ffffff" stroke="#000000" points="373,-49.5 373,-79.5 480,-79.5 480,-49.5 373,-49.5"/>
<text text-anchor="start" x="381" y="-67.5" font-family="Helvetica,sans-Serif" font-size="10.00" fill="#000000">trimAlManager::save</text>
<text text-anchor="middle" x="426.5" y="-56.5" font-family="Helvetica,sans-Serif" font-size="10.00" fill="#000000">_alignment</text>
</a>
</g>
</g>
<!-- Node352&#45;&gt;Node353 -->
<g id="edge15" class="edge">
<title>Node352&#45;&gt;Node353</title>
<path fill="none" stroke="#191970" d="M342.8138,-63.0571C353.0035,-63.2328 363.1325,-63.4075 372.6406,-63.5714"/>
<polygon fill="#191970" stroke="#191970" points="342.6834,-59.5545 332.6245,-62.8815 342.5627,-66.5534 342.6834,-59.5545"/>
</g>
<!-- Node353&#45;&gt;Node349 -->
<g id="edge16" class="edge">
<title>Node353&#45;&gt;Node349</title>
<path fill="none" stroke="#191970" d="M490.1743,-50.3502C511.6639,-45.5747 535.1248,-40.3612 554.6159,-36.0298"/>
<polygon fill="#191970" stroke="#191970" points="489.1389,-46.9948 480.1363,-52.5808 490.6575,-53.8281 489.1389,-46.9948"/>
</g>
<!-- Node353&#45;&gt;Node351 -->
<g id="edge17" class="edge">
<title>Node353&#45;&gt;Node351</title>
<path fill="none" stroke="#191970" d="M490.3947,-64.5C501.7591,-64.5 513.6685,-64.5 525.2459,-64.5"/>
<polygon fill="#191970" stroke="#191970" points="490.1363,-61.0001 480.1363,-64.5 490.1363,-68.0001 490.1363,-61.0001"/>
</g>
</g>
</svg>
