<?xml version="1.0" encoding="UTF-8" standalone="no"?>
<!DOCTYPE svg PUBLIC "-//W3C//DTD SVG 1.1//EN"
 "http://www.w3.org/Graphics/SVG/1.1/DTD/svg11.dtd">
<!-- Generated by graphviz version 2.40.1 (20161225.0304)
 -->
<!-- Title: menu Pages: 1 -->
<svg width="245pt" height="88pt"
 viewBox="0.00 0.00 245.00 88.00" xmlns="http://www.w3.org/2000/svg" xmlns:xlink="http://www.w3.org/1999/xlink">
<g id="graph0" class="graph" transform="scale(1 1) rotate(0) translate(4 84)">
<title>menu</title>
<polygon fill="#ffffff" stroke="transparent" points="-4,4 -4,-84 241,-84 241,4 -4,4"/>
<!-- Node24 -->
<g id="node1" class="node">
<title>Node24</title>
<g id="a_node1"><a xlink:title=" ">
<polygon fill="#bfbfbf" stroke="#000000" points="0,-30 0,-49 41,-49 41,-30 0,-30"/>
<text text-anchor="middle" x="20.5" y="-37" font-family="Helvetica,sans-Serif" font-size="10.00" fill="#000000">menu</text>
</a>
</g>
</g>
<!-- Node25 -->
<g id="node2" class="node">
<title>Node25</title>
<g id="a_node2"><a xlink:href="class_format_handling_1_1_format_manager.html#a26efd9eda445c35881b0068605480820" target="_top" xlink:title="Function to obtain all format names available by this object that can load an alignment.">
<polygon fill="#ffffff" stroke="#000000" points="77,-49.5 77,-79.5 237,-79.5 237,-49.5 77,-49.5"/>
<text text-anchor="start" x="85" y="-67.5" font-family="Helvetica,sans-Serif" font-size="10.00" fill="#000000">FormatHandling::FormatManager</text>
<text text-anchor="middle" x="157" y="-56.5" font-family="Helvetica,sans-Serif" font-size="10.00" fill="#000000">::getInputFormatsAvailable</text>
</a>
</g>
</g>
<!-- Node24&#45;&gt;Node25 -->
<g id="edge1" class="edge">
<title>Node24&#45;&gt;Node25</title>
<path fill="none" stroke="#191970" d="M41.2314,-43.297C48.5934,-44.6453 57.4197,-46.2619 66.8722,-47.9931"/>
<polygon fill="#191970" stroke="#191970" points="66.4472,-51.4734 76.9142,-49.8323 67.7083,-44.5879 66.4472,-51.4734"/>
</g>
<!-- Node26 -->
<g id="node3" class="node">
<title>Node26</title>
<g id="a_node3"><a xlink:href="class_format_handling_1_1_format_manager.html#ac5420f40d118f2ca768cb52c5635a9e7" target="_top" xlink:title="Function to obtain all format names available by this object that can save an alignment.">
<polygon fill="#ffffff" stroke="#000000" points="77,-.5 77,-30.5 237,-30.5 237,-.5 77,-.5"/>
<text text-anchor="start" x="85" y="-18.5" font-family="Helvetica,sans-Serif" font-size="10.00" fill="#000000">FormatHandling::FormatManager</text>
<text text-anchor="middle" x="157" y="-7.5" font-family="Helvetica,sans-Serif" font-size="10.00" fill="#000000">::getOutputFormatsAvailable</text>
</a>
</g>
</g>
<!-- Node24&#45;&gt;Node26 -->
<g id="edge2" class="edge">
<title>Node24&#45;&gt;Node26</title>
<path fill="none" stroke="#191970" d="M41.2314,-35.8549C48.5934,-34.5605 57.4197,-33.0086 66.8722,-31.3466"/>
<polygon fill="#191970" stroke="#191970" points="67.6714,-34.7599 76.9142,-29.581 66.4591,-27.8657 67.6714,-34.7599"/>
</g>
</g>
</svg>
