<?xml version="1.0" encoding="UTF-8" standalone="no"?>
<!DOCTYPE svg PUBLIC "-//W3C//DTD SVG 1.1//EN"
 "http://www.w3.org/Graphics/SVG/1.1/DTD/svg11.dtd">
<!-- Generated by graphviz version 2.38.0 (20140413.2041)
 -->
<!-- Title: Catch::Matchers::StdString::CasedString Pages: 1 -->
<svg width="186pt" height="174pt"
 viewBox="0.00 0.00 186.00 174.00" xmlns="http://www.w3.org/2000/svg" xmlns:xlink="http://www.w3.org/1999/xlink">
<g id="graph0" class="graph" transform="scale(1 1) rotate(0) translate(4 170)">
<title>Catch::Matchers::StdString::CasedString</title>
<polygon fill="white" stroke="none" points="-4,4 -4,-170 182,-170 182,4 -4,4"/>
<!-- Node1 -->
<g id="node1" class="node"><title>Node1</title>
<polygon fill="#bfbfbf" stroke="black" points="8.5,-0.5 8.5,-30.5 144.5,-30.5 144.5,-0.5 8.5,-0.5"/>
<text text-anchor="start" x="16.5" y="-18.5" font-family="Helvetica,sans-Serif" font-size="10.00">Catch::Matchers::StdString</text>
<text text-anchor="middle" x="76.5" y="-7.5" font-family="Helvetica,sans-Serif" font-size="10.00">::CasedString</text>
</g>
<!-- Node2 -->
<g id="node2" class="node"><title>Node2</title>
<polygon fill="white" stroke="#bfbfbf" points="0,-78.5 0,-97.5 47,-97.5 47,-78.5 0,-78.5"/>
<text text-anchor="middle" x="23.5" y="-85.5" font-family="Helvetica,sans-Serif" font-size="10.00">Choice</text>
</g>
<!-- Node2&#45;&gt;Node1 -->
<g id="edge1" class="edge"><title>Node2&#45;&gt;Node1</title>
<path fill="none" stroke="#9a32cd" stroke-dasharray="5,2" d="M20.5129,-68.2358C20.3572,-61.7725 21.2272,-54.726 24.5,-49 28.832,-41.421 35.724,-35.3627 43.0915,-30.6287"/>
<polygon fill="#9a32cd" stroke="#9a32cd" points="17.0336,-68.6191 21.4999,-78.2265 23.9997,-67.9308 17.0336,-68.6191"/>
<text text-anchor="middle" x="66.5" y="-52" font-family="Helvetica,sans-Serif" font-size="10.00"> m_caseSensitivity</text>
</g>
<!-- Node3 -->
<g id="node3" class="node"><title>Node3</title>
<g id="a_node3"><a xlink:title="STL class. ">
<polygon fill="white" stroke="#bfbfbf" points="100.5,-78.5 100.5,-97.5 160.5,-97.5 160.5,-78.5 100.5,-78.5"/>
<text text-anchor="middle" x="130.5" y="-85.5" font-family="Helvetica,sans-Serif" font-size="10.00">std::string</text>
</a>
</g>
</g>
<!-- Node3&#45;&gt;Node1 -->
<g id="edge2" class="edge"><title>Node3&#45;&gt;Node1</title>
<path fill="none" stroke="#9a32cd" stroke-dasharray="5,2" d="M121.611,-69.5429C117.908,-62.8758 113.343,-55.3548 108.5,-49 103.604,-42.5762 97.5297,-36.1119 91.9929,-30.6592"/>
<polygon fill="#9a32cd" stroke="#9a32cd" points="118.569,-71.2759 126.352,-78.4646 124.75,-67.9914 118.569,-71.2759"/>
<text text-anchor="middle" x="130.5" y="-52" font-family="Helvetica,sans-Serif" font-size="10.00"> m_str</text>
</g>
<!-- Node4 -->
<g id="node4" class="node"><title>Node4</title>
<g id="a_node4"><a xlink:title="STL class. ">
<polygon fill="white" stroke="#bfbfbf" points="83,-135.5 83,-165.5 178,-165.5 178,-135.5 83,-135.5"/>
<text text-anchor="start" x="91" y="-153.5" font-family="Helvetica,sans-Serif" font-size="10.00">std::basic_string&lt;</text>
<text text-anchor="middle" x="130.5" y="-142.5" font-family="Helvetica,sans-Serif" font-size="10.00"> char &gt;</text>
</a>
</g>
</g>
<!-- Node4&#45;&gt;Node3 -->
<g id="edge3" class="edge"><title>Node4&#45;&gt;Node3</title>
<path fill="none" stroke="midnightblue" d="M130.5,-125.352C130.5,-115.513 130.5,-104.775 130.5,-97.5399"/>
<polygon fill="midnightblue" stroke="midnightblue" points="127,-125.468 130.5,-135.468 134,-125.468 127,-125.468"/>
</g>
</g>
</svg>
