<?xml version="1.0" encoding="UTF-8" standalone="no"?>
<!DOCTYPE svg PUBLIC "-//W3C//DTD SVG 1.1//EN"
 "http://www.w3.org/Graphics/SVG/1.1/DTD/svg11.dtd">
<!-- Generated by graphviz version 2.38.0 (20140413.2041)
 -->
<!-- Title: Catch::SectionEndInfo Pages: 1 -->
<svg width="319pt" height="273pt"
 viewBox="0.00 0.00 319.00 273.00" xmlns="http://www.w3.org/2000/svg" xmlns:xlink="http://www.w3.org/1999/xlink">
<g id="graph0" class="graph" transform="scale(1 1) rotate(0) translate(4 269)">
<title>Catch::SectionEndInfo</title>
<polygon fill="white" stroke="none" points="-4,4 -4,-269 315,-269 315,4 -4,4"/>
<!-- Node1 -->
<g id="node1" class="node"><title>Node1</title>
<polygon fill="#bfbfbf" stroke="black" points="90,-0.5 90,-19.5 206,-19.5 206,-0.5 90,-0.5"/>
<text text-anchor="middle" x="148" y="-7.5" font-family="Helvetica,sans-Serif" font-size="10.00">Catch::SectionEndInfo</text>
</g>
<!-- Node2 -->
<g id="node2" class="node"><title>Node2</title>
<g id="a_node2"><a xlink:href="struct_catch_1_1_section_info.html" target="_top" xlink:title="Catch::SectionInfo">
<polygon fill="white" stroke="black" points="205,-67.5 205,-86.5 303,-86.5 303,-67.5 205,-67.5"/>
<text text-anchor="middle" x="254" y="-74.5" font-family="Helvetica,sans-Serif" font-size="10.00">Catch::SectionInfo</text>
</a>
</g>
</g>
<!-- Node2&#45;&gt;Node1 -->
<g id="edge1" class="edge"><title>Node2&#45;&gt;Node1</title>
<path fill="none" stroke="#9a32cd" stroke-dasharray="5,2" d="M247.831,-57.6571C244.666,-50.6568 240.154,-43.1339 234,-38 223.666,-29.3788 210.569,-23.5029 197.733,-19.5008"/>
<polygon fill="#9a32cd" stroke="#9a32cd" points="244.654,-59.1451 251.536,-67.2002 251.179,-56.6113 244.654,-59.1451"/>
<text text-anchor="middle" x="269" y="-41" font-family="Helvetica,sans-Serif" font-size="10.00"> sectionInfo</text>
</g>
<!-- Node3 -->
<g id="node3" class="node"><title>Node3</title>
<g id="a_node3"><a xlink:href="struct_catch_1_1_source_line_info.html" target="_top" xlink:title="Catch::SourceLineInfo">
<polygon fill="white" stroke="black" points="197,-145.5 197,-164.5 311,-164.5 311,-145.5 197,-145.5"/>
<text text-anchor="middle" x="254" y="-152.5" font-family="Helvetica,sans-Serif" font-size="10.00">Catch::SourceLineInfo</text>
</a>
</g>
</g>
<!-- Node3&#45;&gt;Node2 -->
<g id="edge2" class="edge"><title>Node3&#45;&gt;Node2</title>
<path fill="none" stroke="#9a32cd" stroke-dasharray="5,2" d="M254,-135.224C254,-119.697 254,-98.3582 254,-86.6165"/>
<polygon fill="#9a32cd" stroke="#9a32cd" points="250.5,-135.282 254,-145.282 257.5,-135.282 250.5,-135.282"/>
<text text-anchor="middle" x="271.5" y="-113.5" font-family="Helvetica,sans-Serif" font-size="10.00"> lineInfo</text>
</g>
<!-- Node4 -->
<g id="node4" class="node"><title>Node4</title>
<polygon fill="white" stroke="#bfbfbf" points="219.5,-240 219.5,-259 288.5,-259 288.5,-240 219.5,-240"/>
<text text-anchor="middle" x="254" y="-247" font-family="Helvetica,sans-Serif" font-size="10.00">char const *</text>
</g>
<!-- Node4&#45;&gt;Node3 -->
<g id="edge3" class="edge"><title>Node4&#45;&gt;Node3</title>
<path fill="none" stroke="#9a32cd" stroke-dasharray="5,2" d="M254,-229.944C254,-210.038 254,-179.3 254,-164.516"/>
<polygon fill="#9a32cd" stroke="#9a32cd" points="250.5,-229.964 254,-239.964 257.5,-229.964 250.5,-229.964"/>
<text text-anchor="middle" x="262" y="-197" font-family="Helvetica,sans-Serif" font-size="10.00"> file</text>
</g>
<!-- Node5 -->
<g id="node5" class="node"><title>Node5</title>
<polygon fill="white" stroke="#bfbfbf" points="29.5,-240 29.5,-259 72.5,-259 72.5,-240 29.5,-240"/>
<text text-anchor="middle" x="51" y="-247" font-family="Helvetica,sans-Serif" font-size="10.00">size_t</text>
</g>
<!-- Node5&#45;&gt;Node3 -->
<g id="edge4" class="edge"><title>Node5&#45;&gt;Node3</title>
<path fill="none" stroke="#9a32cd" stroke-dasharray="5,2" d="M78.8575,-235.806C120.905,-216.647 199.47,-180.848 235.311,-164.516"/>
<polygon fill="#9a32cd" stroke="#9a32cd" points="77.3824,-232.632 69.7339,-239.964 80.285,-239.002 77.3824,-232.632"/>
<text text-anchor="middle" x="204.5" y="-197" font-family="Helvetica,sans-Serif" font-size="10.00"> line</text>
</g>
<!-- Node9 -->
<g id="node9" class="node"><title>Node9</title>
<g id="a_node9"><a xlink:href="struct_catch_1_1_counts.html" target="_top" xlink:title="Catch::Counts">
<polygon fill="white" stroke="black" points="0,-106.5 0,-125.5 80,-125.5 80,-106.5 0,-106.5"/>
<text text-anchor="middle" x="40" y="-113.5" font-family="Helvetica,sans-Serif" font-size="10.00">Catch::Counts</text>
</a>
</g>
</g>
<!-- Node5&#45;&gt;Node9 -->
<g id="edge9" class="edge"><title>Node5&#45;&gt;Node9</title>
<path fill="none" stroke="#9a32cd" stroke-dasharray="5,2" d="M49.4442,-229.901C47.0394,-201.153 42.512,-147.03 40.7388,-125.832"/>
<polygon fill="#9a32cd" stroke="#9a32cd" points="45.9568,-230.199 50.2783,-239.872 52.9324,-229.615 45.9568,-230.199"/>
<text text-anchor="middle" x="75" y="-208" font-family="Helvetica,sans-Serif" font-size="10.00"> passed</text>
<text text-anchor="middle" x="75" y="-197" font-family="Helvetica,sans-Serif" font-size="10.00">failedButOk</text>
<text text-anchor="middle" x="75" y="-186" font-family="Helvetica,sans-Serif" font-size="10.00">failed</text>
</g>
<!-- Node6 -->
<g id="node6" class="node"><title>Node6</title>
<g id="a_node6"><a xlink:title="STL class. ">
<polygon fill="white" stroke="#bfbfbf" points="119,-145.5 119,-164.5 179,-164.5 179,-145.5 119,-145.5"/>
<text text-anchor="middle" x="149" y="-152.5" font-family="Helvetica,sans-Serif" font-size="10.00">std::string</text>
</a>
</g>
</g>
<!-- Node6&#45;&gt;Node2 -->
<g id="edge5" class="edge"><title>Node6&#45;&gt;Node2</title>
<path fill="none" stroke="#9a32cd" stroke-dasharray="5,2" d="M164.246,-137.832C174.355,-127.655 188.247,-114.665 202,-105 212.154,-97.8647 224.439,-91.3982 234.519,-86.5836"/>
<polygon fill="#9a32cd" stroke="#9a32cd" points="161.477,-135.659 157.024,-145.273 166.5,-140.534 161.477,-135.659"/>
<text text-anchor="middle" x="226" y="-119" font-family="Helvetica,sans-Serif" font-size="10.00"> name</text>
<text text-anchor="middle" x="226" y="-108" font-family="Helvetica,sans-Serif" font-size="10.00">description</text>
</g>
<!-- Node7 -->
<g id="node7" class="node"><title>Node7</title>
<g id="a_node7"><a xlink:title="STL class. ">
<polygon fill="white" stroke="#bfbfbf" points="101.5,-234.5 101.5,-264.5 196.5,-264.5 196.5,-234.5 101.5,-234.5"/>
<text text-anchor="start" x="109.5" y="-252.5" font-family="Helvetica,sans-Serif" font-size="10.00">std::basic_string&lt;</text>
<text text-anchor="middle" x="149" y="-241.5" font-family="Helvetica,sans-Serif" font-size="10.00"> char &gt;</text>
</a>
</g>
</g>
<!-- Node7&#45;&gt;Node6 -->
<g id="edge6" class="edge"><title>Node7&#45;&gt;Node6</title>
<path fill="none" stroke="midnightblue" d="M149,-224.382C149,-204.736 149,-178.119 149,-164.619"/>
<polygon fill="midnightblue" stroke="midnightblue" points="145.5,-224.451 149,-234.451 152.5,-224.451 145.5,-224.451"/>
</g>
<!-- Node8 -->
<g id="node8" class="node"><title>Node8</title>
<polygon fill="white" stroke="#bfbfbf" points="126.5,-67.5 126.5,-86.5 171.5,-86.5 171.5,-67.5 126.5,-67.5"/>
<text text-anchor="middle" x="149" y="-74.5" font-family="Helvetica,sans-Serif" font-size="10.00">double</text>
</g>
<!-- Node8&#45;&gt;Node1 -->
<g id="edge7" class="edge"><title>Node8&#45;&gt;Node1</title>
<path fill="none" stroke="#9a32cd" stroke-dasharray="5,2" d="M148.708,-57.037C148.518,-44.6703 148.279,-29.1198 148.133,-19.6273"/>
<polygon fill="#9a32cd" stroke="#9a32cd" points="145.212,-57.2889 148.865,-67.2338 152.211,-57.1811 145.212,-57.2889"/>
<text text-anchor="middle" x="191.5" y="-41" font-family="Helvetica,sans-Serif" font-size="10.00"> durationInSeconds</text>
</g>
<!-- Node9&#45;&gt;Node1 -->
<g id="edge8" class="edge"><title>Node9&#45;&gt;Node1</title>
<path fill="none" stroke="#9a32cd" stroke-dasharray="5,2" d="M39.4062,-96.2883C39.9713,-86.7632 42.0634,-75.4449 48,-67 64.9362,-42.9083 95.7128,-27.9558 118.666,-19.6275"/>
<polygon fill="#9a32cd" stroke="#9a32cd" points="35.9057,-96.3319 39.3055,-106.366 42.9054,-96.402 35.9057,-96.3319"/>
<text text-anchor="middle" x="82.5" y="-74.5" font-family="Helvetica,sans-Serif" font-size="10.00"> prevAssertions</text>
</g>
</g>
</svg>
