<?xml version="1.0" encoding="UTF-8" standalone="no"?>
<!DOCTYPE svg PUBLIC "-//W3C//DTD SVG 1.1//EN"
 "http://www.w3.org/Graphics/SVG/1.1/DTD/svg11.dtd">
<!-- Generated by graphviz version 2.38.0 (20140413.2041)
 -->
<!-- Title: Catch::Matchers::Vector::ContainsMatcher&lt; T &gt; Pages: 1 -->
<svg width="483pt" height="88pt"
 viewBox="0.00 0.00 483.00 88.00" xmlns="http://www.w3.org/2000/svg" xmlns:xlink="http://www.w3.org/1999/xlink">
<g id="graph0" class="graph" transform="scale(1 1) rotate(0) translate(4 84)">
<title>Catch::Matchers::Vector::ContainsMatcher&lt; T &gt;</title>
<polygon fill="white" stroke="none" points="-4,4 -4,-84 479,-84 479,4 -4,4"/>
<!-- Node0 -->
<g id="node1" class="node"><title>Node0</title>
<polygon fill="#bfbfbf" stroke="black" points="351,-24.5 351,-54.5 475,-54.5 475,-24.5 351,-24.5"/>
<text text-anchor="start" x="359" y="-42.5" font-family="Helvetica,sans-Serif" font-size="10.00">Catch::Matchers::Vector</text>
<text text-anchor="middle" x="413" y="-31.5" font-family="Helvetica,sans-Serif" font-size="10.00">::ContainsMatcher&lt; T &gt;</text>
</g>
<!-- Node1 -->
<g id="node2" class="node"><title>Node1</title>
<g id="a_node2"><a xlink:href="struct_catch_1_1_matchers_1_1_impl_1_1_matcher_base.html" target="_top" xlink:title="Catch::Matchers::Impl\l::MatcherBase\&lt; std::vector\l\&lt; T \&gt;, std::vector\&lt; T \&gt; \&gt;">
<polygon fill="white" stroke="black" points="179,-19 179,-60 315,-60 315,-19 179,-19"/>
<text text-anchor="start" x="187" y="-48" font-family="Helvetica,sans-Serif" font-size="10.00">Catch::Matchers::Impl</text>
<text text-anchor="start" x="187" y="-37" font-family="Helvetica,sans-Serif" font-size="10.00">::MatcherBase&lt; std::vector</text>
<text text-anchor="middle" x="247" y="-26" font-family="Helvetica,sans-Serif" font-size="10.00">&lt; T &gt;, std::vector&lt; T &gt; &gt;</text>
</a>
</g>
</g>
<!-- Node1&#45;&gt;Node0 -->
<g id="edge1" class="edge"><title>Node1&#45;&gt;Node0</title>
<path fill="none" stroke="midnightblue" d="M325.258,-39.5C333.892,-39.5 342.596,-39.5 350.985,-39.5"/>
<polygon fill="midnightblue" stroke="midnightblue" points="325.178,-36.0001 315.178,-39.5 325.178,-43.0001 325.178,-36.0001"/>
</g>
<!-- Node2 -->
<g id="node3" class="node"><title>Node2</title>
<g id="a_node3"><a xlink:href="class_catch_1_1_matchers_1_1_impl_1_1_matcher_untyped_base.html" target="_top" xlink:title="Catch::Matchers::Impl\l::MatcherUntypedBase">
<polygon fill="white" stroke="black" points="13,-49.5 13,-79.5 130,-79.5 130,-49.5 13,-49.5"/>
<text text-anchor="start" x="21" y="-67.5" font-family="Helvetica,sans-Serif" font-size="10.00">Catch::Matchers::Impl</text>
<text text-anchor="middle" x="71.5" y="-56.5" font-family="Helvetica,sans-Serif" font-size="10.00">::MatcherUntypedBase</text>
</a>
</g>
</g>
<!-- Node2&#45;&gt;Node1 -->
<g id="edge2" class="edge"><title>Node2&#45;&gt;Node1</title>
<path fill="none" stroke="midnightblue" d="M140.295,-54.7313C152.971,-52.9048 166.214,-50.9965 178.87,-49.1729"/>
<polygon fill="midnightblue" stroke="midnightblue" points="139.672,-51.2849 130.273,-56.1754 140.67,-58.2133 139.672,-51.2849"/>
</g>
<!-- Node3 -->
<g id="node4" class="node"><title>Node3</title>
<g id="a_node4"><a xlink:href="struct_catch_1_1_matchers_1_1_impl_1_1_matcher_method.html" target="_top" xlink:title="Catch::Matchers::Impl\l::MatcherMethod\&lt; ObjectT \&gt;">
<polygon fill="white" stroke="black" points="0,-0.5 0,-30.5 143,-30.5 143,-0.5 0,-0.5"/>
<text text-anchor="start" x="8" y="-18.5" font-family="Helvetica,sans-Serif" font-size="10.00">Catch::Matchers::Impl</text>
<text text-anchor="middle" x="71.5" y="-7.5" font-family="Helvetica,sans-Serif" font-size="10.00">::MatcherMethod&lt; ObjectT &gt;</text>
</a>
</g>
</g>
<!-- Node3&#45;&gt;Node1 -->
<g id="edge3" class="edge"><title>Node3&#45;&gt;Node1</title>
<path fill="none" stroke="midnightblue" d="M153.121,-26.6522C161.733,-27.8435 170.426,-29.046 178.858,-30.2124"/>
<polygon fill="midnightblue" stroke="midnightblue" points="153.454,-23.1651 143.069,-25.2617 152.495,-30.099 153.454,-23.1651"/>
</g>
</g>
</svg>
