<?xml version="1.0" encoding="UTF-8" standalone="no"?>
<!DOCTYPE svg PUBLIC "-//W3C//DTD SVG 1.1//EN"
 "http://www.w3.org/Graphics/SVG/1.1/DTD/svg11.dtd">
<!-- Generated by graphviz version 2.38.0 (20140413.2041)
 -->
<!-- Title: Catch::Matchers::Impl::MatchNotOf&lt; ArgT &gt; Pages: 1 -->
<svg width="1118pt" height="135pt"
 viewBox="0.00 0.00 1118.00 135.00" xmlns="http://www.w3.org/2000/svg" xmlns:xlink="http://www.w3.org/1999/xlink">
<g id="graph0" class="graph" transform="scale(1 1) rotate(0) translate(4 131)">
<title>Catch::Matchers::Impl::MatchNotOf&lt; ArgT &gt;</title>
<polygon fill="white" stroke="none" points="-4,4 -4,-131 1114,-131 1114,4 -4,4"/>
<!-- Node6 -->
<g id="node1" class="node"><title>Node6</title>
<polygon fill="#bfbfbf" stroke="black" points="995,-41.5 995,-71.5 1110,-71.5 1110,-41.5 995,-41.5"/>
<text text-anchor="start" x="1003" y="-59.5" font-family="Helvetica,sans-Serif" font-size="10.00">Catch::Matchers::Impl</text>
<text text-anchor="middle" x="1052.5" y="-48.5" font-family="Helvetica,sans-Serif" font-size="10.00">::MatchNotOf&lt; ArgT &gt;</text>
</g>
<!-- Node7 -->
<g id="node2" class="node"><title>Node7</title>
<g id="a_node2"><a xlink:href="struct_catch_1_1_matchers_1_1_impl_1_1_matcher_base.html" target="_top" xlink:title="Catch::Matchers::Impl\l::MatcherBase\&lt; ArgT \&gt;">
<polygon fill="white" stroke="black" points="743,-41.5 743,-71.5 862,-71.5 862,-41.5 743,-41.5"/>
<text text-anchor="start" x="751" y="-59.5" font-family="Helvetica,sans-Serif" font-size="10.00">Catch::Matchers::Impl</text>
<text text-anchor="middle" x="802.5" y="-48.5" font-family="Helvetica,sans-Serif" font-size="10.00">::MatcherBase&lt; ArgT &gt;</text>
</a>
</g>
</g>
<!-- Node7&#45;&gt;Node6 -->
<g id="edge1" class="edge"><title>Node7&#45;&gt;Node6</title>
<path fill="none" stroke="midnightblue" d="M872.385,-56.5C910.958,-56.5 958.464,-56.5 994.856,-56.5"/>
<polygon fill="midnightblue" stroke="midnightblue" points="872.273,-53.0001 862.273,-56.5 872.273,-60.0001 872.273,-53.0001"/>
</g>
<!-- Node7&#45;&gt;Node6 -->
<g id="edge10" class="edge"><title>Node7&#45;&gt;Node6</title>
<path fill="none" stroke="#9a32cd" stroke-dasharray="5,2" d="M872.307,-43.3069C874.899,-43.001 877.47,-42.7296 880,-42.5 922.935,-38.6037 934.075,-38.5017 977,-42.5 982.766,-43.037 988.75,-43.803 994.708,-44.7034"/>
<polygon fill="#9a32cd" stroke="#9a32cd" points="871.695,-39.8573 862.242,-44.642 872.615,-46.7966 871.695,-39.8573"/>
<text text-anchor="middle" x="928.5" y="-45.5" font-family="Helvetica,sans-Serif" font-size="10.00"> m_underlyingMatcher</text>
</g>
<!-- Node8 -->
<g id="node3" class="node"><title>Node8</title>
<g id="a_node3"><a xlink:href="class_catch_1_1_matchers_1_1_impl_1_1_matcher_untyped_base.html" target="_top" xlink:title="Catch::Matchers::Impl\l::MatcherUntypedBase">
<polygon fill="white" stroke="black" points="326,-0.5 326,-30.5 443,-30.5 443,-0.5 326,-0.5"/>
<text text-anchor="start" x="334" y="-18.5" font-family="Helvetica,sans-Serif" font-size="10.00">Catch::Matchers::Impl</text>
<text text-anchor="middle" x="384.5" y="-7.5" font-family="Helvetica,sans-Serif" font-size="10.00">::MatcherUntypedBase</text>
</a>
</g>
</g>
<!-- Node8&#45;&gt;Node7 -->
<g id="edge2" class="edge"><title>Node8&#45;&gt;Node7</title>
<path fill="none" stroke="midnightblue" d="M453.333,-14.8673C509.897,-15.1318 592.494,-17.359 664,-26.5 690.296,-29.8616 719.001,-35.7626 743.35,-41.4466"/>
<polygon fill="midnightblue" stroke="midnightblue" points="453.092,-11.3667 443.083,-14.8395 453.073,-18.3667 453.092,-11.3667"/>
</g>
<!-- Node13 -->
<g id="node8" class="node"><title>Node13</title>
<g id="a_node8"><a xlink:href="struct_catch_1_1_matchers_1_1_impl_1_1_matcher_base.html" target="_top" xlink:title="Catch::Matchers::Impl\l::MatcherBase\&lt; ObjectT,\l ComparatorT \&gt;">
<polygon fill="white" stroke="black" points="536,-36 536,-77 663,-77 663,-36 536,-36"/>
<text text-anchor="start" x="544" y="-65" font-family="Helvetica,sans-Serif" font-size="10.00">Catch::Matchers::Impl</text>
<text text-anchor="start" x="544" y="-54" font-family="Helvetica,sans-Serif" font-size="10.00">::MatcherBase&lt; ObjectT,</text>
<text text-anchor="middle" x="599.5" y="-43" font-family="Helvetica,sans-Serif" font-size="10.00"> ComparatorT &gt;</text>
</a>
</g>
</g>
<!-- Node8&#45;&gt;Node13 -->
<g id="edge8" class="edge"><title>Node8&#45;&gt;Node13</title>
<path fill="none" stroke="midnightblue" d="M453.113,-28.5147C479.652,-33.6232 509.926,-39.4505 535.953,-44.4604"/>
<polygon fill="midnightblue" stroke="midnightblue" points="453.622,-25.0485 443.141,-26.5952 452.299,-31.9224 453.622,-25.0485"/>
</g>
<!-- Node9 -->
<g id="node4" class="node"><title>Node9</title>
<g id="a_node4"><a xlink:title="STL class. ">
<polygon fill="white" stroke="#bfbfbf" points="132,-6 132,-25 192,-25 192,-6 132,-6"/>
<text text-anchor="middle" x="162" y="-13" font-family="Helvetica,sans-Serif" font-size="10.00">std::string</text>
</a>
</g>
</g>
<!-- Node9&#45;&gt;Node8 -->
<g id="edge3" class="edge"><title>Node9&#45;&gt;Node8</title>
<path fill="none" stroke="#9a32cd" stroke-dasharray="5,2" d="M202.408,-15.5C236.788,-15.5 287.11,-15.5 325.987,-15.5"/>
<polygon fill="#9a32cd" stroke="#9a32cd" points="202.281,-12.0001 192.281,-15.5 202.281,-19.0001 202.281,-12.0001"/>
<text text-anchor="middle" x="252.5" y="-18.5" font-family="Helvetica,sans-Serif" font-size="10.00"> m_cachedToString</text>
</g>
<!-- Node10 -->
<g id="node5" class="node"><title>Node10</title>
<g id="a_node5"><a xlink:title="STL class. ">
<polygon fill="white" stroke="#bfbfbf" points="0,-0.5 0,-30.5 95,-30.5 95,-0.5 0,-0.5"/>
<text text-anchor="start" x="8" y="-18.5" font-family="Helvetica,sans-Serif" font-size="10.00">std::basic_string&lt;</text>
<text text-anchor="middle" x="47.5" y="-7.5" font-family="Helvetica,sans-Serif" font-size="10.00"> char &gt;</text>
</a>
</g>
</g>
<!-- Node10&#45;&gt;Node9 -->
<g id="edge4" class="edge"><title>Node10&#45;&gt;Node9</title>
<path fill="none" stroke="midnightblue" d="M105.526,-15.5C114.678,-15.5 123.803,-15.5 131.931,-15.5"/>
<polygon fill="midnightblue" stroke="midnightblue" points="105.233,-12.0001 95.2328,-15.5 105.233,-19.0001 105.233,-12.0001"/>
</g>
<!-- Node11 -->
<g id="node6" class="node"><title>Node11</title>
<g id="a_node6"><a xlink:href="struct_catch_1_1_matchers_1_1_impl_1_1_matcher_method.html" target="_top" xlink:title="Catch::Matchers::Impl\l::MatcherMethod\&lt; ArgT \&gt;">
<polygon fill="white" stroke="black" points="535,-96.5 535,-126.5 664,-126.5 664,-96.5 535,-96.5"/>
<text text-anchor="start" x="543" y="-114.5" font-family="Helvetica,sans-Serif" font-size="10.00">Catch::Matchers::Impl</text>
<text text-anchor="middle" x="599.5" y="-103.5" font-family="Helvetica,sans-Serif" font-size="10.00">::MatcherMethod&lt; ArgT &gt;</text>
</a>
</g>
</g>
<!-- Node11&#45;&gt;Node7 -->
<g id="edge5" class="edge"><title>Node11&#45;&gt;Node7</title>
<path fill="none" stroke="midnightblue" d="M665.281,-93.7738C691.524,-86.5929 721.502,-78.3899 746.642,-71.5108"/>
<polygon fill="midnightblue" stroke="midnightblue" points="664.146,-90.4557 655.424,-96.471 665.993,-97.2075 664.146,-90.4557"/>
</g>
<!-- Node12 -->
<g id="node7" class="node"><title>Node12</title>
<g id="a_node7"><a xlink:href="struct_catch_1_1_matchers_1_1_impl_1_1_matcher_method.html" target="_top" xlink:title="Catch::Matchers::Impl\l::MatcherMethod\&lt; ObjectT \&gt;">
<polygon fill="white" stroke="black" points="313,-73.5 313,-103.5 456,-103.5 456,-73.5 313,-73.5"/>
<text text-anchor="start" x="321" y="-91.5" font-family="Helvetica,sans-Serif" font-size="10.00">Catch::Matchers::Impl</text>
<text text-anchor="middle" x="384.5" y="-80.5" font-family="Helvetica,sans-Serif" font-size="10.00">::MatcherMethod&lt; ObjectT &gt;</text>
</a>
</g>
</g>
<!-- Node12&#45;&gt;Node11 -->
<g id="edge6" class="edge"><title>Node12&#45;&gt;Node11</title>
<path fill="none" stroke="orange" stroke-dasharray="5,2" d="M466.104,-97.2037C488.852,-99.66 513.277,-102.298 534.878,-104.63"/>
<polygon fill="orange" stroke="orange" points="466.448,-93.7206 456.13,-96.1267 465.696,-100.68 466.448,-93.7206"/>
<text text-anchor="middle" x="495.5" y="-104.5" font-family="Helvetica,sans-Serif" font-size="10.00"> &lt; ArgT &gt;</text>
</g>
<!-- Node12&#45;&gt;Node13 -->
<g id="edge9" class="edge"><title>Node12&#45;&gt;Node13</title>
<path fill="none" stroke="midnightblue" d="M466.248,-76.3688C489.328,-72.9014 514.124,-69.1761 535.939,-65.8989"/>
<polygon fill="midnightblue" stroke="midnightblue" points="465.499,-72.942 456.13,-77.8889 466.539,-79.8643 465.499,-72.942"/>
</g>
<!-- Node13&#45;&gt;Node7 -->
<g id="edge7" class="edge"><title>Node13&#45;&gt;Node7</title>
<path fill="none" stroke="orange" stroke-dasharray="5,2" d="M673.286,-56.5C696.194,-56.5 721.185,-56.5 742.969,-56.5"/>
<polygon fill="orange" stroke="orange" points="673.271,-53.0001 663.271,-56.5 673.271,-60.0001 673.271,-53.0001"/>
<text text-anchor="middle" x="703.5" y="-59.5" font-family="Helvetica,sans-Serif" font-size="10.00"> &lt; ArgT &gt;</text>
</g>
</g>
</svg>
