<?xml version="1.0" encoding="UTF-8" standalone="no"?>
<!DOCTYPE svg PUBLIC "-//W3C//DTD SVG 1.1//EN"
 "http://www.w3.org/Graphics/SVG/1.1/DTD/svg11.dtd">
<!-- Generated by graphviz version 2.38.0 (20140413.2041)
 -->
<!-- Title: picojson::last_error_t&lt; T &gt; Pages: 1 -->
<svg width="107pt" height="174pt"
 viewBox="0.00 0.00 107.00 174.00" xmlns="http://www.w3.org/2000/svg" xmlns:xlink="http://www.w3.org/1999/xlink">
<g id="graph0" class="graph" transform="scale(1 1) rotate(0) translate(4 170)">
<title>picojson::last_error_t&lt; T &gt;</title>
<polygon fill="white" stroke="none" points="-4,4 -4,-170 103,-170 103,4 -4,4"/>
<!-- Node1 -->
<g id="node1" class="node"><title>Node1</title>
<polygon fill="#bfbfbf" stroke="black" points="0,-0.5 0,-30.5 99,-30.5 99,-0.5 0,-0.5"/>
<text text-anchor="start" x="8" y="-18.5" font-family="Helvetica,sans-Serif" font-size="10.00">picojson::last_error</text>
<text text-anchor="middle" x="49.5" y="-7.5" font-family="Helvetica,sans-Serif" font-size="10.00">_t&lt; T &gt;</text>
</g>
<!-- Node2 -->
<g id="node2" class="node"><title>Node2</title>
<g id="a_node2"><a xlink:title="STL class. ">
<polygon fill="white" stroke="#bfbfbf" points="19.5,-78.5 19.5,-97.5 79.5,-97.5 79.5,-78.5 19.5,-78.5"/>
<text text-anchor="middle" x="49.5" y="-85.5" font-family="Helvetica,sans-Serif" font-size="10.00">std::string</text>
</a>
</g>
</g>
<!-- Node2&#45;&gt;Node1 -->
<g id="edge1" class="edge"><title>Node2&#45;&gt;Node1</title>
<path fill="none" stroke="#9a32cd" stroke-dasharray="5,2" d="M49.5,-68.2362C49.5,-56.4079 49.5,-41.3829 49.5,-30.5762"/>
<polygon fill="#9a32cd" stroke="#9a32cd" points="46.0001,-68.3553 49.5,-78.3553 53.0001,-68.3554 46.0001,-68.3553"/>
<text text-anchor="middle" x="54" y="-52" font-family="Helvetica,sans-Serif" font-size="10.00"> s</text>
</g>
<!-- Node3 -->
<g id="node3" class="node"><title>Node3</title>
<g id="a_node3"><a xlink:title="STL class. ">
<polygon fill="white" stroke="#bfbfbf" points="2,-135.5 2,-165.5 97,-165.5 97,-135.5 2,-135.5"/>
<text text-anchor="start" x="10" y="-153.5" font-family="Helvetica,sans-Serif" font-size="10.00">std::basic_string&lt;</text>
<text text-anchor="middle" x="49.5" y="-142.5" font-family="Helvetica,sans-Serif" font-size="10.00"> char &gt;</text>
</a>
</g>
</g>
<!-- Node3&#45;&gt;Node2 -->
<g id="edge2" class="edge"><title>Node3&#45;&gt;Node2</title>
<path fill="none" stroke="midnightblue" d="M49.5,-125.352C49.5,-115.513 49.5,-104.775 49.5,-97.5399"/>
<polygon fill="midnightblue" stroke="midnightblue" points="46.0001,-125.468 49.5,-135.468 53.0001,-125.468 46.0001,-125.468"/>
</g>
</g>
</svg>
