<?xml version="1.0" encoding="UTF-8" standalone="no"?>
<!DOCTYPE svg PUBLIC "-//W3C//DTD SVG 1.1//EN"
 "http://www.w3.org/Graphics/SVG/1.1/DTD/svg11.dtd">
<!-- Generated by graphviz version 2.38.0 (20140413.2041)
 -->
<!-- Title: Catch::Matchers::Impl::MatchAllOf&lt; ArgT &gt; Pages: 1 -->
<svg width="1379pt" height="183pt"
 viewBox="0.00 0.00 1379.00 182.50" xmlns="http://www.w3.org/2000/svg" xmlns:xlink="http://www.w3.org/1999/xlink">
<g id="graph0" class="graph" transform="scale(1 1) rotate(0) translate(4 178.5)">
<title>Catch::Matchers::Impl::MatchAllOf&lt; ArgT &gt;</title>
<polygon fill="white" stroke="none" points="-4,4 -4,-178.5 1375,-178.5 1375,4 -4,4"/>
<!-- Node6 -->
<g id="node1" class="node"><title>Node6</title>
<polygon fill="#bfbfbf" stroke="black" points="1257,-70.5 1257,-100.5 1371,-100.5 1371,-70.5 1257,-70.5"/>
<text text-anchor="start" x="1265" y="-88.5" font-family="Helvetica,sans-Serif" font-size="10.00">Catch::Matchers::Impl</text>
<text text-anchor="middle" x="1314" y="-77.5" font-family="Helvetica,sans-Serif" font-size="10.00">::MatchAllOf&lt; ArgT &gt;</text>
</g>
<!-- Node7 -->
<g id="node2" class="node"><title>Node7</title>
<g id="a_node2"><a xlink:href="struct_catch_1_1_matchers_1_1_impl_1_1_matcher_base.html" target="_top" xlink:title="Catch::Matchers::Impl\l::MatcherBase\&lt; ArgT \&gt;">
<polygon fill="white" stroke="black" points="743,-50.5 743,-80.5 862,-80.5 862,-50.5 743,-50.5"/>
<text text-anchor="start" x="751" y="-68.5" font-family="Helvetica,sans-Serif" font-size="10.00">Catch::Matchers::Impl</text>
<text text-anchor="middle" x="802.5" y="-57.5" font-family="Helvetica,sans-Serif" font-size="10.00">::MatcherBase&lt; ArgT &gt;</text>
</a>
</g>
</g>
<!-- Node7&#45;&gt;Node6 -->
<g id="edge1" class="edge"><title>Node7&#45;&gt;Node6</title>
<path fill="none" stroke="midnightblue" d="M872.628,-68.2136C974.522,-72.2133 1163.07,-79.6148 1256.92,-83.2985"/>
<polygon fill="midnightblue" stroke="midnightblue" points="872.573,-64.7088 862.444,-67.8138 872.299,-71.7034 872.573,-64.7088"/>
</g>
<!-- Node14 -->
<g id="node9" class="node"><title>Node14</title>
<polygon fill="white" stroke="#bfbfbf" points="1011,-94 1011,-135 1163,-135 1163,-94 1011,-94"/>
<text text-anchor="start" x="1019" y="-123" font-family="Helvetica,sans-Serif" font-size="10.00">std::vector&lt; Catch</text>
<text text-anchor="start" x="1019" y="-112" font-family="Helvetica,sans-Serif" font-size="10.00">::Matchers::Impl::MatcherBase</text>
<text text-anchor="middle" x="1087" y="-101" font-family="Helvetica,sans-Serif" font-size="10.00">&lt; ArgT &gt; const *&gt;</text>
</g>
<!-- Node7&#45;&gt;Node14 -->
<g id="edge11" class="edge"><title>Node7&#45;&gt;Node14</title>
<path fill="none" stroke="#9a32cd" stroke-dasharray="5,2" d="M872.38,-78.1477C874.952,-78.6065 877.499,-79.0586 880,-79.5 923.227,-87.1272 971.612,-95.3635 1010.62,-101.929"/>
<polygon fill="#9a32cd" stroke="#9a32cd" points="872.837,-74.6739 862.376,-76.3526 871.6,-81.5638 872.837,-74.6739"/>
<text text-anchor="middle" x="936.5" y="-102.5" font-family="Helvetica,sans-Serif" font-size="10.00"> elements</text>
</g>
<!-- Node8 -->
<g id="node3" class="node"><title>Node8</title>
<g id="a_node3"><a xlink:href="class_catch_1_1_matchers_1_1_impl_1_1_matcher_untyped_base.html" target="_top" xlink:title="Catch::Matchers::Impl\l::MatcherUntypedBase">
<polygon fill="white" stroke="black" points="326,-0.5 326,-30.5 443,-30.5 443,-0.5 326,-0.5"/>
<text text-anchor="start" x="334" y="-18.5" font-family="Helvetica,sans-Serif" font-size="10.00">Catch::Matchers::Impl</text>
<text text-anchor="middle" x="384.5" y="-7.5" font-family="Helvetica,sans-Serif" font-size="10.00">::MatcherUntypedBase</text>
</a>
</g>
</g>
<!-- Node8&#45;&gt;Node7 -->
<g id="edge2" class="edge"><title>Node8&#45;&gt;Node7</title>
<path fill="none" stroke="midnightblue" d="M453.498,-13.7157C510.16,-13.2954 592.809,-15.1626 664,-26.5 696.223,-31.6317 731.623,-41.7818 758.433,-50.4408"/>
<polygon fill="midnightblue" stroke="midnightblue" points="453.194,-10.2185 443.229,-13.819 453.264,-17.2181 453.194,-10.2185"/>
</g>
<!-- Node13 -->
<g id="node8" class="node"><title>Node13</title>
<g id="a_node8"><a xlink:href="struct_catch_1_1_matchers_1_1_impl_1_1_matcher_base.html" target="_top" xlink:title="Catch::Matchers::Impl\l::MatcherBase\&lt; ObjectT,\l ComparatorT \&gt;">
<polygon fill="white" stroke="black" points="536,-36 536,-77 663,-77 663,-36 536,-36"/>
<text text-anchor="start" x="544" y="-65" font-family="Helvetica,sans-Serif" font-size="10.00">Catch::Matchers::Impl</text>
<text text-anchor="start" x="544" y="-54" font-family="Helvetica,sans-Serif" font-size="10.00">::MatcherBase&lt; ObjectT,</text>
<text text-anchor="middle" x="599.5" y="-43" font-family="Helvetica,sans-Serif" font-size="10.00"> ComparatorT &gt;</text>
</a>
</g>
</g>
<!-- Node8&#45;&gt;Node13 -->
<g id="edge8" class="edge"><title>Node8&#45;&gt;Node13</title>
<path fill="none" stroke="midnightblue" d="M453.113,-28.5147C479.652,-33.6232 509.926,-39.4505 535.953,-44.4604"/>
<polygon fill="midnightblue" stroke="midnightblue" points="453.622,-25.0485 443.141,-26.5952 452.299,-31.9224 453.622,-25.0485"/>
</g>
<!-- Node9 -->
<g id="node4" class="node"><title>Node9</title>
<g id="a_node4"><a xlink:title="STL class. ">
<polygon fill="white" stroke="#bfbfbf" points="132,-6 132,-25 192,-25 192,-6 132,-6"/>
<text text-anchor="middle" x="162" y="-13" font-family="Helvetica,sans-Serif" font-size="10.00">std::string</text>
</a>
</g>
</g>
<!-- Node9&#45;&gt;Node8 -->
<g id="edge3" class="edge"><title>Node9&#45;&gt;Node8</title>
<path fill="none" stroke="#9a32cd" stroke-dasharray="5,2" d="M202.408,-15.5C236.788,-15.5 287.11,-15.5 325.987,-15.5"/>
<polygon fill="#9a32cd" stroke="#9a32cd" points="202.281,-12.0001 192.281,-15.5 202.281,-19.0001 202.281,-12.0001"/>
<text text-anchor="middle" x="252.5" y="-18.5" font-family="Helvetica,sans-Serif" font-size="10.00"> m_cachedToString</text>
</g>
<!-- Node10 -->
<g id="node5" class="node"><title>Node10</title>
<g id="a_node5"><a xlink:title="STL class. ">
<polygon fill="white" stroke="#bfbfbf" points="0,-0.5 0,-30.5 95,-30.5 95,-0.5 0,-0.5"/>
<text text-anchor="start" x="8" y="-18.5" font-family="Helvetica,sans-Serif" font-size="10.00">std::basic_string&lt;</text>
<text text-anchor="middle" x="47.5" y="-7.5" font-family="Helvetica,sans-Serif" font-size="10.00"> char &gt;</text>
</a>
</g>
</g>
<!-- Node10&#45;&gt;Node9 -->
<g id="edge4" class="edge"><title>Node10&#45;&gt;Node9</title>
<path fill="none" stroke="midnightblue" d="M105.526,-15.5C114.678,-15.5 123.803,-15.5 131.931,-15.5"/>
<polygon fill="midnightblue" stroke="midnightblue" points="105.233,-12.0001 95.2328,-15.5 105.233,-19.0001 105.233,-12.0001"/>
</g>
<!-- Node11 -->
<g id="node6" class="node"><title>Node11</title>
<g id="a_node6"><a xlink:href="struct_catch_1_1_matchers_1_1_impl_1_1_matcher_method.html" target="_top" xlink:title="Catch::Matchers::Impl\l::MatcherMethod\&lt; ArgT \&gt;">
<polygon fill="white" stroke="black" points="535,-96.5 535,-126.5 664,-126.5 664,-96.5 535,-96.5"/>
<text text-anchor="start" x="543" y="-114.5" font-family="Helvetica,sans-Serif" font-size="10.00">Catch::Matchers::Impl</text>
<text text-anchor="middle" x="599.5" y="-103.5" font-family="Helvetica,sans-Serif" font-size="10.00">::MatcherMethod&lt; ArgT &gt;</text>
</a>
</g>
</g>
<!-- Node11&#45;&gt;Node7 -->
<g id="edge5" class="edge"><title>Node11&#45;&gt;Node7</title>
<path fill="none" stroke="midnightblue" d="M674.001,-94.6789C696.637,-89.4985 721.247,-83.8663 742.755,-78.9442"/>
<polygon fill="midnightblue" stroke="midnightblue" points="673.065,-91.3026 664.098,-96.9453 674.626,-98.1261 673.065,-91.3026"/>
</g>
<!-- Node12 -->
<g id="node7" class="node"><title>Node12</title>
<g id="a_node7"><a xlink:href="struct_catch_1_1_matchers_1_1_impl_1_1_matcher_method.html" target="_top" xlink:title="Catch::Matchers::Impl\l::MatcherMethod\&lt; ObjectT \&gt;">
<polygon fill="white" stroke="black" points="313,-73.5 313,-103.5 456,-103.5 456,-73.5 313,-73.5"/>
<text text-anchor="start" x="321" y="-91.5" font-family="Helvetica,sans-Serif" font-size="10.00">Catch::Matchers::Impl</text>
<text text-anchor="middle" x="384.5" y="-80.5" font-family="Helvetica,sans-Serif" font-size="10.00">::MatcherMethod&lt; ObjectT &gt;</text>
</a>
</g>
</g>
<!-- Node12&#45;&gt;Node11 -->
<g id="edge6" class="edge"><title>Node12&#45;&gt;Node11</title>
<path fill="none" stroke="orange" stroke-dasharray="5,2" d="M466.104,-97.2037C488.852,-99.66 513.277,-102.298 534.878,-104.63"/>
<polygon fill="orange" stroke="orange" points="466.448,-93.7206 456.13,-96.1267 465.696,-100.68 466.448,-93.7206"/>
<text text-anchor="middle" x="495.5" y="-105.5" font-family="Helvetica,sans-Serif" font-size="10.00"> &lt; ArgT &gt;</text>
</g>
<!-- Node12&#45;&gt;Node13 -->
<g id="edge9" class="edge"><title>Node12&#45;&gt;Node13</title>
<path fill="none" stroke="midnightblue" d="M466.248,-76.3688C489.328,-72.9014 514.124,-69.1761 535.939,-65.8989"/>
<polygon fill="midnightblue" stroke="midnightblue" points="465.499,-72.942 456.13,-77.8889 466.539,-79.8643 465.499,-72.942"/>
</g>
<!-- Node13&#45;&gt;Node7 -->
<g id="edge7" class="edge"><title>Node13&#45;&gt;Node7</title>
<path fill="none" stroke="orange" stroke-dasharray="5,2" d="M673.286,-59.7591C696.194,-60.7848 721.185,-61.9038 742.969,-62.8792"/>
<polygon fill="orange" stroke="orange" points="673.417,-56.2615 663.271,-59.3106 673.104,-63.2545 673.417,-56.2615"/>
<text text-anchor="middle" x="703.5" y="-65.5" font-family="Helvetica,sans-Serif" font-size="10.00"> &lt; ArgT &gt;</text>
</g>
<!-- Node14&#45;&gt;Node6 -->
<g id="edge10" class="edge"><title>Node14&#45;&gt;Node6</title>
<path fill="none" stroke="#9a32cd" stroke-dasharray="5,2" d="M1173.39,-103.494C1201.27,-99.9003 1231.52,-96.0016 1256.71,-92.755"/>
<polygon fill="#9a32cd" stroke="#9a32cd" points="1172.71,-100.053 1163.23,-104.803 1173.6,-106.996 1172.71,-100.053"/>
<text text-anchor="middle" x="1210" y="-105.5" font-family="Helvetica,sans-Serif" font-size="10.00"> m_matchers</text>
</g>
<!-- Node15 -->
<g id="node10" class="node"><title>Node15</title>
<g id="a_node10"><a xlink:title="STL class. ">
<polygon fill="white" stroke="#bfbfbf" points="759,-144 759,-163 846,-163 846,-144 759,-144"/>
<text text-anchor="middle" x="802.5" y="-151" font-family="Helvetica,sans-Serif" font-size="10.00">std::vector&lt; T &gt;</text>
</a>
</g>
</g>
<!-- Node15&#45;&gt;Node14 -->
<g id="edge12" class="edge"><title>Node15&#45;&gt;Node14</title>
<path fill="none" stroke="orange" stroke-dasharray="5,2" d="M856.191,-146.226C899.728,-140.215 962.08,-131.607 1010.85,-124.874"/>
<polygon fill="orange" stroke="orange" points="855.526,-142.784 846.099,-147.619 856.484,-149.719 855.526,-142.784"/>
<text text-anchor="start" x="880" y="-166.5" font-family="Helvetica,sans-Serif" font-size="10.00"> &lt; Catch::Matchers::</text>
<text text-anchor="start" x="880" y="-155.5" font-family="Helvetica,sans-Serif" font-size="10.00">Impl::MatcherBase&lt; ArgT</text>
<text text-anchor="middle" x="936.5" y="-144.5" font-family="Helvetica,sans-Serif" font-size="10.00"> &gt; const *&gt;</text>
</g>
<!-- Node16 -->
<g id="node11" class="node"><title>Node16</title>
<polygon fill="white" stroke="#bfbfbf" points="585,-146 585,-165 614,-165 614,-146 585,-146"/>
<text text-anchor="middle" x="599.5" y="-153" font-family="Helvetica,sans-Serif" font-size="10.00">T</text>
</g>
<!-- Node16&#45;&gt;Node15 -->
<g id="edge13" class="edge"><title>Node16&#45;&gt;Node15</title>
<path fill="none" stroke="#9a32cd" stroke-dasharray="5,2" d="M624.069,-155.265C657.071,-154.937 717.608,-154.335 758.693,-153.926"/>
<polygon fill="#9a32cd" stroke="#9a32cd" points="623.965,-151.766 614,-155.366 624.035,-158.766 623.965,-151.766"/>
<text text-anchor="middle" x="703.5" y="-157.5" font-family="Helvetica,sans-Serif" font-size="10.00"> elements</text>
</g>
</g>
</svg>
