<?xml version="1.0" encoding="UTF-8" standalone="no"?>
<!DOCTYPE svg PUBLIC "-//W3C//DTD SVG 1.1//EN"
 "http://www.w3.org/Graphics/SVG/1.1/DTD/svg11.dtd">
<!-- Generated by graphviz version 2.38.0 (20140413.2041)
 -->
<!-- Title: Catch::Totals Pages: 1 -->
<svg width="100pt" height="195pt"
 viewBox="0.00 0.00 100.00 195.00" xmlns="http://www.w3.org/2000/svg" xmlns:xlink="http://www.w3.org/1999/xlink">
<g id="graph0" class="graph" transform="scale(1 1) rotate(0) translate(4 191)">
<title>Catch::Totals</title>
<polygon fill="white" stroke="none" points="-4,4 -4,-191 96,-191 96,4 -4,4"/>
<!-- Node1 -->
<g id="node1" class="node"><title>Node1</title>
<polygon fill="#bfbfbf" stroke="black" points="2,-0.5 2,-19.5 78,-19.5 78,-0.5 2,-0.5"/>
<text text-anchor="middle" x="40" y="-7.5" font-family="Helvetica,sans-Serif" font-size="10.00">Catch::Totals</text>
</g>
<!-- Node2 -->
<g id="node2" class="node"><title>Node2</title>
<g id="a_node2"><a xlink:href="struct_catch_1_1_counts.html" target="_top" xlink:title="Catch::Counts">
<polygon fill="white" stroke="black" points="0,-78.5 0,-97.5 80,-97.5 80,-78.5 0,-78.5"/>
<text text-anchor="middle" x="40" y="-85.5" font-family="Helvetica,sans-Serif" font-size="10.00">Catch::Counts</text>
</a>
</g>
</g>
<!-- Node2&#45;&gt;Node1 -->
<g id="edge1" class="edge"><title>Node2&#45;&gt;Node1</title>
<path fill="none" stroke="#9a32cd" stroke-dasharray="5,2" d="M40,-68.2239C40,-52.6974 40,-31.3582 40,-19.6165"/>
<polygon fill="#9a32cd" stroke="#9a32cd" points="36.5001,-68.2818 40,-78.2818 43.5001,-68.2819 36.5001,-68.2818"/>
<text text-anchor="middle" x="64.5" y="-52" font-family="Helvetica,sans-Serif" font-size="10.00"> testCases</text>
<text text-anchor="middle" x="64.5" y="-41" font-family="Helvetica,sans-Serif" font-size="10.00">assertions</text>
</g>
<!-- Node3 -->
<g id="node3" class="node"><title>Node3</title>
<polygon fill="white" stroke="#bfbfbf" points="18.5,-167.5 18.5,-186.5 61.5,-186.5 61.5,-167.5 18.5,-167.5"/>
<text text-anchor="middle" x="40" y="-174.5" font-family="Helvetica,sans-Serif" font-size="10.00">size_t</text>
</g>
<!-- Node3&#45;&gt;Node2 -->
<g id="edge2" class="edge"><title>Node3&#45;&gt;Node2</title>
<path fill="none" stroke="#9a32cd" stroke-dasharray="5,2" d="M40,-157.195C40,-138.738 40,-111.412 40,-97.6249"/>
<polygon fill="#9a32cd" stroke="#9a32cd" points="36.5001,-157.34 40,-167.34 43.5001,-157.34 36.5001,-157.34"/>
<text text-anchor="middle" x="66" y="-141" font-family="Helvetica,sans-Serif" font-size="10.00"> passed</text>
<text text-anchor="middle" x="66" y="-130" font-family="Helvetica,sans-Serif" font-size="10.00">failedButOk</text>
<text text-anchor="middle" x="66" y="-119" font-family="Helvetica,sans-Serif" font-size="10.00">failed</text>
</g>
</g>
</svg>
