<?xml version="1.0" encoding="UTF-8" standalone="no"?>
<!DOCTYPE svg PUBLIC "-//W3C//DTD SVG 1.1//EN"
 "http://www.w3.org/Graphics/SVG/1.1/DTD/svg11.dtd">
<!-- Generated by graphviz version 2.38.0 (20140413.2041)
 -->
<!-- Title: Catch::Matchers::Impl::MatcherMethod&lt; ObjectT &gt; Pages: 1 -->
<svg width="884pt" height="585pt"
 viewBox="0.00 0.00 884.00 585.00" xmlns="http://www.w3.org/2000/svg" xmlns:xlink="http://www.w3.org/1999/xlink">
<g id="graph0" class="graph" transform="scale(1 1) rotate(0) translate(4 581)">
<title>Catch::Matchers::Impl::MatcherMethod&lt; ObjectT &gt;</title>
<polygon fill="white" stroke="none" points="-4,4 -4,-581 880,-581 880,4 -4,4"/>
<!-- Node0 -->
<g id="node1" class="node"><title>Node0</title>
<polygon fill="#bfbfbf" stroke="black" points="0,-287.5 0,-317.5 143,-317.5 143,-287.5 0,-287.5"/>
<text text-anchor="start" x="8" y="-305.5" font-family="Helvetica,sans-Serif" font-size="10.00">Catch::Matchers::Impl</text>
<text text-anchor="middle" x="71.5" y="-294.5" font-family="Helvetica,sans-Serif" font-size="10.00">::MatcherMethod&lt; ObjectT &gt;</text>
</g>
<!-- Node1 -->
<g id="node2" class="node"><title>Node1</title>
<g id="a_node2"><a xlink:href="struct_catch_1_1_matchers_1_1_impl_1_1_matcher_base.html" target="_top" xlink:title="Catch::Matchers::Impl\l::MatcherBase\&lt; ObjectT \&gt;">
<polygon fill="white" stroke="black" points="271,-287.5 271,-317.5 404,-317.5 404,-287.5 271,-287.5"/>
<text text-anchor="start" x="279" y="-305.5" font-family="Helvetica,sans-Serif" font-size="10.00">Catch::Matchers::Impl</text>
<text text-anchor="middle" x="337.5" y="-294.5" font-family="Helvetica,sans-Serif" font-size="10.00">::MatcherBase&lt; ObjectT &gt;</text>
</a>
</g>
</g>
<!-- Node0&#45;&gt;Node1 -->
<g id="edge1" class="edge"><title>Node0&#45;&gt;Node1</title>
<path fill="none" stroke="midnightblue" d="M153.683,-302.5C191.34,-302.5 235.509,-302.5 270.998,-302.5"/>
<polygon fill="midnightblue" stroke="midnightblue" points="153.247,-299 143.247,-302.5 153.247,-306 153.247,-299"/>
</g>
<!-- Node19 -->
<g id="node20" class="node"><title>Node19</title>
<g id="a_node20"><a xlink:href="struct_catch_1_1_matchers_1_1_impl_1_1_matcher_method.html" target="_top" xlink:title="Catch::Matchers::Impl\l::MatcherMethod\&lt; std\l::string \&gt;">
<polygon fill="white" stroke="black" points="280.5,-498 280.5,-539 394.5,-539 394.5,-498 280.5,-498"/>
<text text-anchor="start" x="288.5" y="-527" font-family="Helvetica,sans-Serif" font-size="10.00">Catch::Matchers::Impl</text>
<text text-anchor="start" x="288.5" y="-516" font-family="Helvetica,sans-Serif" font-size="10.00">::MatcherMethod&lt; std</text>
<text text-anchor="middle" x="337.5" y="-505" font-family="Helvetica,sans-Serif" font-size="10.00">::string &gt;</text>
</a>
</g>
</g>
<!-- Node0&#45;&gt;Node19 -->
<g id="edge19" class="edge"><title>Node0&#45;&gt;Node19</title>
<path fill="none" stroke="orange" stroke-dasharray="5,2" d="M87.163,-326.147C103.153,-350.606 130.562,-388.881 161,-415.5 200.758,-450.269 253.932,-479.556 291.293,-497.906"/>
<polygon fill="orange" stroke="orange" points="89.9599,-324.025 81.6111,-317.502 84.07,-327.808 89.9599,-324.025"/>
<text text-anchor="middle" x="207" y="-480.5" font-family="Helvetica,sans-Serif" font-size="10.00"> &lt; std::string &gt;</text>
</g>
<!-- Node20 -->
<g id="node21" class="node"><title>Node20</title>
<g id="a_node21"><a xlink:href="struct_catch_1_1_matchers_1_1_impl_1_1_matcher_method.html" target="_top" xlink:title="Catch::Matchers::Impl\l::MatcherMethod\&lt; T * \&gt;">
<polygon fill="white" stroke="black" points="277,-213.5 277,-243.5 398,-243.5 398,-213.5 277,-213.5"/>
<text text-anchor="start" x="285" y="-231.5" font-family="Helvetica,sans-Serif" font-size="10.00">Catch::Matchers::Impl</text>
<text text-anchor="middle" x="337.5" y="-220.5" font-family="Helvetica,sans-Serif" font-size="10.00">::MatcherMethod&lt; T * &gt;</text>
</a>
</g>
</g>
<!-- Node0&#45;&gt;Node20 -->
<g id="edge21" class="edge"><title>Node0&#45;&gt;Node20</title>
<path fill="none" stroke="orange" stroke-dasharray="5,2" d="M135.872,-284.737C180.753,-272.156 240.295,-255.467 282.833,-243.543"/>
<polygon fill="orange" stroke="orange" points="134.927,-281.367 126.243,-287.436 136.816,-288.107 134.927,-281.367"/>
<text text-anchor="middle" x="207" y="-279.5" font-family="Helvetica,sans-Serif" font-size="10.00"> &lt; T * &gt;</text>
</g>
<!-- Node21 -->
<g id="node22" class="node"><title>Node21</title>
<g id="a_node22"><a xlink:href="struct_catch_1_1_matchers_1_1_impl_1_1_matcher_method.html" target="_top" xlink:title="Catch::Matchers::Impl\l::MatcherMethod\&lt; std\l::vector\&lt; T \&gt; \&gt;">
<polygon fill="white" stroke="black" points="280.5,-426 280.5,-467 394.5,-467 394.5,-426 280.5,-426"/>
<text text-anchor="start" x="288.5" y="-455" font-family="Helvetica,sans-Serif" font-size="10.00">Catch::Matchers::Impl</text>
<text text-anchor="start" x="288.5" y="-444" font-family="Helvetica,sans-Serif" font-size="10.00">::MatcherMethod&lt; std</text>
<text text-anchor="middle" x="337.5" y="-433" font-family="Helvetica,sans-Serif" font-size="10.00">::vector&lt; T &gt; &gt;</text>
</a>
</g>
</g>
<!-- Node0&#45;&gt;Node21 -->
<g id="edge23" class="edge"><title>Node0&#45;&gt;Node21</title>
<path fill="none" stroke="orange" stroke-dasharray="5,2" d="M109.099,-322.463C159.002,-349.683 247.956,-398.203 298.551,-425.801"/>
<polygon fill="orange" stroke="orange" points="110.709,-319.354 100.254,-317.638 107.357,-325.5 110.709,-319.354"/>
<text text-anchor="middle" x="207" y="-403.5" font-family="Helvetica,sans-Serif" font-size="10.00"> &lt; std::vector&lt; T &gt; &gt;</text>
</g>
<!-- Node22 -->
<g id="node23" class="node"><title>Node22</title>
<g id="a_node23"><a xlink:href="struct_catch_1_1_matchers_1_1_impl_1_1_matcher_method.html" target="_top" xlink:title="Catch::Matchers::Impl\l::MatcherMethod\&lt; ArgT \&gt;">
<polygon fill="white" stroke="black" points="273,-113.5 273,-143.5 402,-143.5 402,-113.5 273,-113.5"/>
<text text-anchor="start" x="281" y="-131.5" font-family="Helvetica,sans-Serif" font-size="10.00">Catch::Matchers::Impl</text>
<text text-anchor="middle" x="337.5" y="-120.5" font-family="Helvetica,sans-Serif" font-size="10.00">::MatcherMethod&lt; ArgT &gt;</text>
</a>
</g>
</g>
<!-- Node0&#45;&gt;Node22 -->
<g id="edge26" class="edge"><title>Node0&#45;&gt;Node22</title>
<path fill="none" stroke="orange" stroke-dasharray="5,2" d="M100.208,-281.292C117.456,-268.306 140.237,-251.542 161,-237.5 213.142,-202.237 276.273,-164.096 310.821,-143.595"/>
<polygon fill="orange" stroke="orange" points="98.082,-278.512 92.2175,-287.336 102.305,-284.095 98.082,-278.512"/>
<text text-anchor="middle" x="207" y="-240.5" font-family="Helvetica,sans-Serif" font-size="10.00"> &lt; ArgT &gt;</text>
</g>
<!-- Node2 -->
<g id="node3" class="node"><title>Node2</title>
<g id="a_node3"><a xlink:href="class_array_comparer.html" target="_top" xlink:title="ArrayComparer\&lt; T *\&gt;">
<polygon fill="white" stroke="black" points="568.5,-388 568.5,-407 678.5,-407 678.5,-388 568.5,-388"/>
<text text-anchor="middle" x="623.5" y="-395" font-family="Helvetica,sans-Serif" font-size="10.00">ArrayComparer&lt; T *&gt;</text>
</a>
</g>
</g>
<!-- Node1&#45;&gt;Node2 -->
<g id="edge2" class="edge"><title>Node1&#45;&gt;Node2</title>
<path fill="none" stroke="midnightblue" d="M395.237,-320.491C404.175,-323.232 413.326,-325.983 422,-328.5 467.972,-341.84 485.804,-330.507 526,-356.5 536.609,-363.36 533.305,-371.776 544,-378.5 551.36,-383.127 559.759,-386.628 568.263,-389.276"/>
<polygon fill="midnightblue" stroke="midnightblue" points="396.241,-317.139 385.654,-317.534 394.177,-323.827 396.241,-317.139"/>
</g>
<!-- Node3 -->
<g id="node4" class="node"><title>Node3</title>
<g id="a_node4"><a xlink:href="struct_catch_1_1_matchers_1_1_std_string_1_1_string_matcher_base.html" target="_top" xlink:title="Catch::Matchers::StdString\l::StringMatcherBase\&lt; std\l::string \&gt;">
<polygon fill="white" stroke="black" points="555.5,-328 555.5,-369 691.5,-369 691.5,-328 555.5,-328"/>
<text text-anchor="start" x="563.5" y="-357" font-family="Helvetica,sans-Serif" font-size="10.00">Catch::Matchers::StdString</text>
<text text-anchor="start" x="563.5" y="-346" font-family="Helvetica,sans-Serif" font-size="10.00">::StringMatcherBase&lt; std</text>
<text text-anchor="middle" x="623.5" y="-335" font-family="Helvetica,sans-Serif" font-size="10.00">::string &gt;</text>
</a>
</g>
</g>
<!-- Node1&#45;&gt;Node3 -->
<g id="edge3" class="edge"><title>Node1&#45;&gt;Node3</title>
<path fill="none" stroke="midnightblue" d="M414.075,-312.481C448.311,-317.235 489.262,-323.242 526,-329.5 535.51,-331.12 545.523,-332.95 555.354,-334.819"/>
<polygon fill="midnightblue" stroke="midnightblue" points="414.528,-309.011 404.143,-311.111 413.571,-315.945 414.528,-309.011"/>
</g>
<!-- Node8 -->
<g id="node9" class="node"><title>Node8</title>
<g id="a_node9"><a xlink:href="struct_catch_1_1_matchers_1_1_vector_1_1_contains_element_matcher.html" target="_top" xlink:title="Catch::Matchers::Vector\l::ContainsElementMatcher\l\&lt; std::vector\&lt; T \&gt;, T \&gt;">
<polygon fill="white" stroke="black" points="557,-268 557,-309 690,-309 690,-268 557,-268"/>
<text text-anchor="start" x="565" y="-297" font-family="Helvetica,sans-Serif" font-size="10.00">Catch::Matchers::Vector</text>
<text text-anchor="start" x="565" y="-286" font-family="Helvetica,sans-Serif" font-size="10.00">::ContainsElementMatcher</text>
<text text-anchor="middle" x="623.5" y="-275" font-family="Helvetica,sans-Serif" font-size="10.00">&lt; std::vector&lt; T &gt;, T &gt;</text>
</a>
</g>
</g>
<!-- Node1&#45;&gt;Node8 -->
<g id="edge8" class="edge"><title>Node1&#45;&gt;Node8</title>
<path fill="none" stroke="midnightblue" d="M414.182,-298.769C458.623,-296.578 514.24,-293.837 556.826,-291.737"/>
<polygon fill="midnightblue" stroke="midnightblue" points="413.827,-295.282 404.012,-299.271 414.172,-302.274 413.827,-295.282"/>
</g>
<!-- Node9 -->
<g id="node10" class="node"><title>Node9</title>
<g id="a_node10"><a xlink:href="struct_catch_1_1_matchers_1_1_vector_1_1_contains_matcher.html" target="_top" xlink:title="Catch::Matchers::Vector\l::ContainsMatcher\&lt; std\l::vector\&lt; T \&gt;, std::vector\&lt; T \&gt; \&gt;">
<polygon fill="white" stroke="black" points="544,-208 544,-249 703,-249 703,-208 544,-208"/>
<text text-anchor="start" x="552" y="-237" font-family="Helvetica,sans-Serif" font-size="10.00">Catch::Matchers::Vector</text>
<text text-anchor="start" x="552" y="-226" font-family="Helvetica,sans-Serif" font-size="10.00">::ContainsMatcher&lt; std</text>
<text text-anchor="middle" x="623.5" y="-215" font-family="Helvetica,sans-Serif" font-size="10.00">::vector&lt; T &gt;, std::vector&lt; T &gt; &gt;</text>
</a>
</g>
</g>
<!-- Node1&#45;&gt;Node9 -->
<g id="edge9" class="edge"><title>Node1&#45;&gt;Node9</title>
<path fill="none" stroke="midnightblue" d="M406.024,-284.906C447.386,-274.128 500.507,-260.287 543.775,-249.013"/>
<polygon fill="midnightblue" stroke="midnightblue" points="405.108,-281.527 396.314,-287.436 406.873,-288.301 405.108,-281.527"/>
</g>
<!-- Node10 -->
<g id="node11" class="node"><title>Node10</title>
<g id="a_node11"><a xlink:href="struct_catch_1_1_matchers_1_1_vector_1_1_equals_matcher.html" target="_top" xlink:title="Catch::Matchers::Vector\l::EqualsMatcher\&lt; std::\lvector\&lt; T \&gt;, std::vector\&lt; T \&gt; \&gt;">
<polygon fill="white" stroke="black" points="547,-148 547,-189 700,-189 700,-148 547,-148"/>
<text text-anchor="start" x="555" y="-177" font-family="Helvetica,sans-Serif" font-size="10.00">Catch::Matchers::Vector</text>
<text text-anchor="start" x="555" y="-166" font-family="Helvetica,sans-Serif" font-size="10.00">::EqualsMatcher&lt; std::</text>
<text text-anchor="middle" x="623.5" y="-155" font-family="Helvetica,sans-Serif" font-size="10.00">vector&lt; T &gt;, std::vector&lt; T &gt; &gt;</text>
</a>
</g>
</g>
<!-- Node1&#45;&gt;Node10 -->
<g id="edge10" class="edge"><title>Node1&#45;&gt;Node10</title>
<path fill="none" stroke="midnightblue" d="M370.007,-281.831C385.396,-272.107 404.358,-260.664 422,-251.5 474.463,-224.25 489.264,-220.835 544,-198.5 551.7,-195.358 559.862,-192.128 567.9,-189.005"/>
<polygon fill="midnightblue" stroke="midnightblue" points="367.943,-278.997 361.397,-287.328 371.709,-284.897 367.943,-278.997"/>
</g>
<!-- Node11 -->
<g id="node12" class="node"><title>Node11</title>
<g id="a_node12"><a xlink:href="struct_catch_1_1_matchers_1_1_impl_1_1_matcher_base.html" target="_top" xlink:title="Catch::Matchers::Impl\l::MatcherBase\&lt; std::vector\l\&lt; T \&gt;, T \&gt;">
<polygon fill="white" stroke="black" points="555.5,-486 555.5,-527 691.5,-527 691.5,-486 555.5,-486"/>
<text text-anchor="start" x="563.5" y="-515" font-family="Helvetica,sans-Serif" font-size="10.00">Catch::Matchers::Impl</text>
<text text-anchor="start" x="563.5" y="-504" font-family="Helvetica,sans-Serif" font-size="10.00">::MatcherBase&lt; std::vector</text>
<text text-anchor="middle" x="623.5" y="-493" font-family="Helvetica,sans-Serif" font-size="10.00">&lt; T &gt;, T &gt;</text>
</a>
</g>
</g>
<!-- Node1&#45;&gt;Node11 -->
<g id="edge11" class="edge"><title>Node1&#45;&gt;Node11</title>
<path fill="none" stroke="orange" stroke-dasharray="5,2" d="M354.484,-325.994C369.819,-347.144 394.635,-377.969 422,-398.5 462.721,-429.051 488.112,-412.498 526,-446.5 537.572,-456.885 532.084,-466.51 544,-476.5 548.137,-479.968 552.718,-483.06 557.528,-485.813"/>
<polygon fill="orange" stroke="orange" points="357.155,-323.71 348.513,-317.581 351.446,-327.761 357.155,-323.71"/>
<text text-anchor="middle" x="474" y="-449.5" font-family="Helvetica,sans-Serif" font-size="10.00"> &lt; std::vector&lt; T &gt;, T &gt;</text>
</g>
<!-- Node12 -->
<g id="node13" class="node"><title>Node12</title>
<g id="a_node13"><a xlink:href="struct_catch_1_1_matchers_1_1_impl_1_1_matcher_base.html" target="_top" xlink:title="Catch::Matchers::Impl\l::MatcherBase\&lt; std::string \&gt;">
<polygon fill="white" stroke="black" points="552.5,-546.5 552.5,-576.5 694.5,-576.5 694.5,-546.5 552.5,-546.5"/>
<text text-anchor="start" x="560.5" y="-564.5" font-family="Helvetica,sans-Serif" font-size="10.00">Catch::Matchers::Impl</text>
<text text-anchor="middle" x="623.5" y="-553.5" font-family="Helvetica,sans-Serif" font-size="10.00">::MatcherBase&lt; std::string &gt;</text>
</a>
</g>
</g>
<!-- Node1&#45;&gt;Node12 -->
<g id="edge12" class="edge"><title>Node1&#45;&gt;Node12</title>
<path fill="none" stroke="orange" stroke-dasharray="5,2" d="M353.21,-326.35C367.019,-349.133 387.904,-384.623 404,-416.5 412.97,-434.265 408.666,-442.727 422,-457.5 457.606,-496.95 484.578,-483.208 526,-516.5 535.321,-523.992 533.952,-530.015 544,-536.5 549.888,-540.301 556.399,-543.562 563.077,-546.352"/>
<polygon fill="orange" stroke="orange" points="356.13,-324.416 347.936,-317.699 350.153,-328.06 356.13,-324.416"/>
<text text-anchor="middle" x="474" y="-519.5" font-family="Helvetica,sans-Serif" font-size="10.00"> &lt; std::string &gt;</text>
</g>
<!-- Node13 -->
<g id="node14" class="node"><title>Node13</title>
<g id="a_node14"><a xlink:href="struct_catch_1_1_matchers_1_1_impl_1_1_matcher_base.html" target="_top" xlink:title="Catch::Matchers::Impl\l::MatcherBase\&lt; std::vector\l\&lt; T \&gt;, std::vector\&lt; T \&gt; \&gt;">
<polygon fill="white" stroke="black" points="555.5,-426 555.5,-467 691.5,-467 691.5,-426 555.5,-426"/>
<text text-anchor="start" x="563.5" y="-455" font-family="Helvetica,sans-Serif" font-size="10.00">Catch::Matchers::Impl</text>
<text text-anchor="start" x="563.5" y="-444" font-family="Helvetica,sans-Serif" font-size="10.00">::MatcherBase&lt; std::vector</text>
<text text-anchor="middle" x="623.5" y="-433" font-family="Helvetica,sans-Serif" font-size="10.00">&lt; T &gt;, std::vector&lt; T &gt; &gt;</text>
</a>
</g>
</g>
<!-- Node1&#45;&gt;Node13 -->
<g id="edge13" class="edge"><title>Node1&#45;&gt;Node13</title>
<path fill="none" stroke="orange" stroke-dasharray="5,2" d="M367.365,-323.414C382.897,-333.801 402.77,-345.753 422,-353.5 465.91,-371.19 489.274,-346.631 526,-376.5 541.124,-388.801 529.822,-403.119 544,-416.5 547.714,-420.005 551.879,-423.112 556.304,-425.865"/>
<polygon fill="orange" stroke="orange" points="368.989,-320.284 358.76,-317.523 365.034,-326.06 368.989,-320.284"/>
<text text-anchor="start" x="431" y="-390.5" font-family="Helvetica,sans-Serif" font-size="10.00"> &lt; std::vector&lt; T &gt;,</text>
<text text-anchor="middle" x="474" y="-379.5" font-family="Helvetica,sans-Serif" font-size="10.00"> std::vector&lt; T &gt; &gt;</text>
</g>
<!-- Node14 -->
<g id="node15" class="node"><title>Node14</title>
<g id="a_node15"><a xlink:href="struct_catch_1_1_matchers_1_1_impl_1_1_matcher_base.html" target="_top" xlink:title="Catch::Matchers::Impl\l::MatcherBase\&lt; T *\&gt;">
<polygon fill="white" stroke="black" points="566.5,-98.5 566.5,-128.5 680.5,-128.5 680.5,-98.5 566.5,-98.5"/>
<text text-anchor="start" x="574.5" y="-116.5" font-family="Helvetica,sans-Serif" font-size="10.00">Catch::Matchers::Impl</text>
<text text-anchor="middle" x="623.5" y="-105.5" font-family="Helvetica,sans-Serif" font-size="10.00">::MatcherBase&lt; T *&gt;</text>
</a>
</g>
</g>
<!-- Node1&#45;&gt;Node14 -->
<g id="edge14" class="edge"><title>Node1&#45;&gt;Node14</title>
<path fill="none" stroke="orange" stroke-dasharray="5,2" d="M374.006,-281.682C384.957,-273.759 396.179,-263.862 404,-252.5 420.028,-229.216 402.305,-211.776 422,-191.5 455.884,-156.618 484.907,-183.504 526,-157.5 535.829,-151.28 534.147,-144.682 544,-138.5 550.906,-134.167 558.628,-130.524 566.461,-127.479"/>
<polygon fill="orange" stroke="orange" points="372.013,-278.805 365.745,-287.347 375.972,-284.577 372.013,-278.805"/>
<text text-anchor="middle" x="474" y="-194.5" font-family="Helvetica,sans-Serif" font-size="10.00"> &lt; T *&gt;</text>
</g>
<!-- Node15 -->
<g id="node16" class="node"><title>Node15</title>
<g id="a_node16"><a xlink:href="struct_catch_1_1_matchers_1_1_impl_1_1_matcher_base.html" target="_top" xlink:title="Catch::Matchers::Impl\l::MatcherBase\&lt; ArgT \&gt;">
<polygon fill="white" stroke="black" points="564,-49.5 564,-79.5 683,-79.5 683,-49.5 564,-49.5"/>
<text text-anchor="start" x="572" y="-67.5" font-family="Helvetica,sans-Serif" font-size="10.00">Catch::Matchers::Impl</text>
<text text-anchor="middle" x="623.5" y="-56.5" font-family="Helvetica,sans-Serif" font-size="10.00">::MatcherBase&lt; ArgT &gt;</text>
</a>
</g>
</g>
<!-- Node1&#45;&gt;Node15 -->
<g id="edge15" class="edge"><title>Node1&#45;&gt;Node15</title>
<path fill="none" stroke="orange" stroke-dasharray="5,2" d="M375.693,-281.588C386.413,-273.801 397.071,-264.008 404,-252.5 429.101,-210.812 391.551,-182.458 422,-144.5 453.192,-105.616 482.8,-127.374 526,-102.5 534.783,-97.4428 535.005,-93.17 544,-88.5 550.451,-85.151 557.446,-82.1838 564.514,-79.5793"/>
<polygon fill="orange" stroke="orange" points="373.453,-278.879 367.153,-287.398 377.39,-284.667 373.453,-278.879"/>
<text text-anchor="middle" x="474" y="-147.5" font-family="Helvetica,sans-Serif" font-size="10.00"> &lt; ArgT &gt;</text>
</g>
<!-- Node4 -->
<g id="node5" class="node"><title>Node4</title>
<g id="a_node5"><a xlink:href="struct_catch_1_1_matchers_1_1_std_string_1_1_contains_matcher.html" target="_top" xlink:title="Catch::Matchers::StdString\l::ContainsMatcher">
<polygon fill="white" stroke="black" points="740,-259.5 740,-289.5 876,-289.5 876,-259.5 740,-259.5"/>
<text text-anchor="start" x="748" y="-277.5" font-family="Helvetica,sans-Serif" font-size="10.00">Catch::Matchers::StdString</text>
<text text-anchor="middle" x="808" y="-266.5" font-family="Helvetica,sans-Serif" font-size="10.00">::ContainsMatcher</text>
</a>
</g>
</g>
<!-- Node3&#45;&gt;Node4 -->
<g id="edge4" class="edge"><title>Node3&#45;&gt;Node4</title>
<path fill="none" stroke="midnightblue" d="M690.45,-324.022C694.722,-322.213 698.937,-320.365 703,-318.5 719.989,-310.702 722.93,-306.118 740,-298.5 746.995,-295.378 754.532,-292.361 761.938,-289.58"/>
<polygon fill="midnightblue" stroke="midnightblue" points="688.947,-320.856 681.042,-327.91 691.621,-327.325 688.947,-320.856"/>
</g>
<!-- Node5 -->
<g id="node6" class="node"><title>Node5</title>
<g id="a_node6"><a xlink:href="struct_catch_1_1_matchers_1_1_std_string_1_1_ends_with_matcher.html" target="_top" xlink:title="Catch::Matchers::StdString\l::EndsWithMatcher">
<polygon fill="white" stroke="black" points="740,-406.5 740,-436.5 876,-436.5 876,-406.5 740,-406.5"/>
<text text-anchor="start" x="748" y="-424.5" font-family="Helvetica,sans-Serif" font-size="10.00">Catch::Matchers::StdString</text>
<text text-anchor="middle" x="808" y="-413.5" font-family="Helvetica,sans-Serif" font-size="10.00">::EndsWithMatcher</text>
</a>
</g>
</g>
<!-- Node3&#45;&gt;Node5 -->
<g id="edge5" class="edge"><title>Node3&#45;&gt;Node5</title>
<path fill="none" stroke="midnightblue" d="M689.511,-372.834C694.095,-374.706 698.628,-376.606 703,-378.5 719.779,-385.771 723.192,-389.295 740,-396.5 747.874,-399.875 756.37,-403.247 764.582,-406.372"/>
<polygon fill="midnightblue" stroke="midnightblue" points="690.654,-369.521 680.07,-369.04 688.044,-376.017 690.654,-369.521"/>
</g>
<!-- Node6 -->
<g id="node7" class="node"><title>Node6</title>
<g id="a_node7"><a xlink:href="struct_catch_1_1_matchers_1_1_std_string_1_1_equals_matcher.html" target="_top" xlink:title="Catch::Matchers::StdString\l::EqualsMatcher">
<polygon fill="white" stroke="black" points="740,-357.5 740,-387.5 876,-387.5 876,-357.5 740,-357.5"/>
<text text-anchor="start" x="748" y="-375.5" font-family="Helvetica,sans-Serif" font-size="10.00">Catch::Matchers::StdString</text>
<text text-anchor="middle" x="808" y="-364.5" font-family="Helvetica,sans-Serif" font-size="10.00">::EqualsMatcher</text>
</a>
</g>
</g>
<!-- Node3&#45;&gt;Node6 -->
<g id="edge6" class="edge"><title>Node3&#45;&gt;Node6</title>
<path fill="none" stroke="midnightblue" d="M701.766,-358.661C714.467,-360.331 727.538,-362.05 739.963,-363.684"/>
<polygon fill="midnightblue" stroke="midnightblue" points="702.05,-355.168 691.679,-357.334 701.137,-362.109 702.05,-355.168"/>
</g>
<!-- Node7 -->
<g id="node8" class="node"><title>Node7</title>
<g id="a_node8"><a xlink:href="struct_catch_1_1_matchers_1_1_std_string_1_1_starts_with_matcher.html" target="_top" xlink:title="Catch::Matchers::StdString\l::StartsWithMatcher">
<polygon fill="white" stroke="black" points="740,-308.5 740,-338.5 876,-338.5 876,-308.5 740,-308.5"/>
<text text-anchor="start" x="748" y="-326.5" font-family="Helvetica,sans-Serif" font-size="10.00">Catch::Matchers::StdString</text>
<text text-anchor="middle" x="808" y="-315.5" font-family="Helvetica,sans-Serif" font-size="10.00">::StartsWithMatcher</text>
</a>
</g>
</g>
<!-- Node3&#45;&gt;Node7 -->
<g id="edge7" class="edge"><title>Node3&#45;&gt;Node7</title>
<path fill="none" stroke="midnightblue" d="M701.766,-337.916C714.467,-336.176 727.538,-334.385 739.963,-332.683"/>
<polygon fill="midnightblue" stroke="midnightblue" points="701.111,-334.473 691.679,-339.297 702.061,-341.408 701.111,-334.473"/>
</g>
<!-- Node16 -->
<g id="node17" class="node"><title>Node16</title>
<g id="a_node17"><a xlink:href="struct_catch_1_1_matchers_1_1_impl_1_1_match_all_of.html" target="_top" xlink:title="Catch::Matchers::Impl\l::MatchAllOf\&lt; ArgT \&gt;">
<polygon fill="white" stroke="black" points="751,-49.5 751,-79.5 865,-79.5 865,-49.5 751,-49.5"/>
<text text-anchor="start" x="759" y="-67.5" font-family="Helvetica,sans-Serif" font-size="10.00">Catch::Matchers::Impl</text>
<text text-anchor="middle" x="808" y="-56.5" font-family="Helvetica,sans-Serif" font-size="10.00">::MatchAllOf&lt; ArgT &gt;</text>
</a>
</g>
</g>
<!-- Node15&#45;&gt;Node16 -->
<g id="edge16" class="edge"><title>Node15&#45;&gt;Node16</title>
<path fill="none" stroke="midnightblue" d="M693.329,-64.5C712.313,-64.5 732.676,-64.5 750.848,-64.5"/>
<polygon fill="midnightblue" stroke="midnightblue" points="693.249,-61.0001 683.249,-64.5 693.249,-68.0001 693.249,-61.0001"/>
</g>
<!-- Node17 -->
<g id="node18" class="node"><title>Node17</title>
<g id="a_node18"><a xlink:href="struct_catch_1_1_matchers_1_1_impl_1_1_match_any_of.html" target="_top" xlink:title="Catch::Matchers::Impl\l::MatchAnyOf\&lt; ArgT \&gt;">
<polygon fill="white" stroke="black" points="750,-0.5 750,-30.5 866,-30.5 866,-0.5 750,-0.5"/>
<text text-anchor="start" x="758" y="-18.5" font-family="Helvetica,sans-Serif" font-size="10.00">Catch::Matchers::Impl</text>
<text text-anchor="middle" x="808" y="-7.5" font-family="Helvetica,sans-Serif" font-size="10.00">::MatchAnyOf&lt; ArgT &gt;</text>
</a>
</g>
</g>
<!-- Node15&#45;&gt;Node17 -->
<g id="edge17" class="edge"><title>Node15&#45;&gt;Node17</title>
<path fill="none" stroke="midnightblue" d="M690.604,-46.7515C710.383,-41.4409 731.872,-35.6712 750.941,-30.5516"/>
<polygon fill="midnightblue" stroke="midnightblue" points="689.495,-43.4251 680.745,-49.3986 691.311,-50.1857 689.495,-43.4251"/>
</g>
<!-- Node18 -->
<g id="node19" class="node"><title>Node18</title>
<g id="a_node19"><a xlink:href="struct_catch_1_1_matchers_1_1_impl_1_1_match_not_of.html" target="_top" xlink:title="Catch::Matchers::Impl\l::MatchNotOf\&lt; ArgT \&gt;">
<polygon fill="white" stroke="black" points="750.5,-98.5 750.5,-128.5 865.5,-128.5 865.5,-98.5 750.5,-98.5"/>
<text text-anchor="start" x="758.5" y="-116.5" font-family="Helvetica,sans-Serif" font-size="10.00">Catch::Matchers::Impl</text>
<text text-anchor="middle" x="808" y="-105.5" font-family="Helvetica,sans-Serif" font-size="10.00">::MatchNotOf&lt; ArgT &gt;</text>
</a>
</g>
</g>
<!-- Node15&#45;&gt;Node18 -->
<g id="edge18" class="edge"><title>Node15&#45;&gt;Node18</title>
<path fill="none" stroke="midnightblue" d="M690.604,-82.2485C710.383,-87.5591 731.872,-93.3288 750.941,-98.4484"/>
<polygon fill="midnightblue" stroke="midnightblue" points="691.311,-78.8143 680.745,-79.6014 689.495,-85.5749 691.311,-78.8143"/>
</g>
<!-- Node19&#45;&gt;Node12 -->
<g id="edge20" class="edge"><title>Node19&#45;&gt;Node12</title>
<path fill="none" stroke="midnightblue" d="M404.701,-528.523C449.03,-535.235 507.299,-544.058 552.412,-550.888"/>
<polygon fill="midnightblue" stroke="midnightblue" points="405.021,-525.032 394.609,-526.995 403.973,-531.953 405.021,-525.032"/>
</g>
<!-- Node20&#45;&gt;Node14 -->
<g id="edge22" class="edge"><title>Node20&#45;&gt;Node14</title>
<path fill="none" stroke="midnightblue" d="M359.172,-205.8C372.401,-190.966 389.702,-170.983 404,-152.5 412.6,-141.384 409.768,-133.422 422,-126.5 465.867,-101.674 524.093,-100.732 566.492,-104.622"/>
<polygon fill="midnightblue" stroke="midnightblue" points="356.362,-203.69 352.286,-213.47 361.571,-208.367 356.362,-203.69"/>
</g>
<!-- Node21&#45;&gt;Node11 -->
<g id="edge25" class="edge"><title>Node21&#45;&gt;Node11</title>
<path fill="none" stroke="midnightblue" d="M378.194,-472.284C391.594,-479.771 406.975,-487.106 422,-491.5 465.219,-504.138 515.793,-507.848 555.335,-508.419"/>
<polygon fill="midnightblue" stroke="midnightblue" points="379.67,-469.094 369.263,-467.111 376.162,-475.151 379.67,-469.094"/>
</g>
<!-- Node21&#45;&gt;Node13 -->
<g id="edge24" class="edge"><title>Node21&#45;&gt;Node13</title>
<path fill="none" stroke="midnightblue" d="M404.619,-446.5C449.896,-446.5 509.745,-446.5 555.259,-446.5"/>
<polygon fill="midnightblue" stroke="midnightblue" points="404.609,-443 394.609,-446.5 404.609,-450 404.609,-443"/>
</g>
<!-- Node22&#45;&gt;Node15 -->
<g id="edge27" class="edge"><title>Node22&#45;&gt;Node15</title>
<path fill="none" stroke="midnightblue" d="M385.525,-109.963C397.308,-105.776 410.01,-101.644 422,-98.5 468.958,-86.1865 523.314,-77.2919 563.575,-71.6958"/>
<polygon fill="midnightblue" stroke="midnightblue" points="384.08,-106.765 375.88,-113.474 386.474,-113.342 384.08,-106.765"/>
</g>
</g>
</svg>
