<?xml version="1.0" encoding="UTF-8" standalone="no"?>
<!DOCTYPE svg PUBLIC "-//W3C//DTD SVG 1.1//EN"
 "http://www.w3.org/Graphics/SVG/1.1/DTD/svg11.dtd">
<!-- Generated by graphviz version 2.38.0 (20140413.2041)
 -->
<!-- Title: picojson::value::_storage Pages: 1 -->
<svg width="401pt" height="173pt"
 viewBox="0.00 0.00 400.50 173.00" xmlns="http://www.w3.org/2000/svg" xmlns:xlink="http://www.w3.org/1999/xlink">
<g id="graph0" class="graph" transform="scale(1 1) rotate(0) translate(4 169)">
<title>picojson::value::_storage</title>
<polygon fill="white" stroke="none" points="-4,4 -4,-169 396.5,-169 396.5,4 -4,4"/>
<!-- Node1 -->
<g id="node1" class="node"><title>Node1</title>
<polygon fill="#bfbfbf" stroke="black" points="175.5,-0.5 175.5,-19.5 300.5,-19.5 300.5,-0.5 175.5,-0.5"/>
<text text-anchor="middle" x="238" y="-7.5" font-family="Helvetica,sans-Serif" font-size="10.00">picojson::value::_storage</text>
</g>
<!-- Node2 -->
<g id="node2" class="node"><title>Node2</title>
<g id="a_node2"><a xlink:title="STL class. ">
<polygon fill="white" stroke="#bfbfbf" points="0,-67.5 0,-86.5 92,-86.5 92,-67.5 0,-67.5"/>
<text text-anchor="middle" x="46" y="-74.5" font-family="Helvetica,sans-Serif" font-size="10.00">std::map&lt; K, T &gt;</text>
</a>
</g>
</g>
<!-- Node2&#45;&gt;Node1 -->
<g id="edge1" class="edge"><title>Node2&#45;&gt;Node1</title>
<path fill="none" stroke="#9a32cd" stroke-dasharray="5,2" d="M78.4037,-63.8339C99.0888,-56.1768 126.521,-46.223 151,-38 170.339,-31.5035 192.279,-24.6984 209.288,-19.5453"/>
<polygon fill="#9a32cd" stroke="#9a32cd" points="76.988,-60.6261 68.8338,-67.3908 79.4267,-67.1876 76.988,-60.6261"/>
<text text-anchor="middle" x="168.5" y="-41" font-family="Helvetica,sans-Serif" font-size="10.00"> object_</text>
</g>
<!-- Node3 -->
<g id="node3" class="node"><title>Node3</title>
<polygon fill="white" stroke="#bfbfbf" points="25.5,-140 25.5,-159 54.5,-159 54.5,-140 25.5,-140"/>
<text text-anchor="middle" x="40" y="-147" font-family="Helvetica,sans-Serif" font-size="10.00">K</text>
</g>
<!-- Node3&#45;&gt;Node2 -->
<g id="edge2" class="edge"><title>Node3&#45;&gt;Node2</title>
<path fill="none" stroke="#9a32cd" stroke-dasharray="5,2" d="M39.7758,-129.724C39.8545,-122.042 40.1647,-113.078 41,-105 41.6277,-98.9304 42.8777,-92.1804 43.9708,-86.9478"/>
<polygon fill="#9a32cd" stroke="#9a32cd" points="36.2759,-129.814 39.7919,-139.808 43.2759,-129.803 36.2759,-129.814"/>
<text text-anchor="middle" x="53.5" y="-108" font-family="Helvetica,sans-Serif" font-size="10.00"> keys</text>
</g>
<!-- Node4 -->
<g id="node4" class="node"><title>Node4</title>
<polygon fill="white" stroke="#bfbfbf" points="106.5,-140 106.5,-159 135.5,-159 135.5,-140 106.5,-140"/>
<text text-anchor="middle" x="121" y="-147" font-family="Helvetica,sans-Serif" font-size="10.00">T</text>
</g>
<!-- Node4&#45;&gt;Node2 -->
<g id="edge3" class="edge"><title>Node4&#45;&gt;Node2</title>
<path fill="none" stroke="#9a32cd" stroke-dasharray="5,2" d="M104.183,-132.692C89.0774,-118.493 67.456,-98.1687 55.2717,-86.7154"/>
<polygon fill="#9a32cd" stroke="#9a32cd" points="102.12,-135.556 111.804,-139.855 106.914,-130.456 102.12,-135.556"/>
<text text-anchor="middle" x="107.5" y="-108" font-family="Helvetica,sans-Serif" font-size="10.00"> elements</text>
</g>
<!-- Node9 -->
<g id="node9" class="node"><title>Node9</title>
<g id="a_node9"><a xlink:title="STL class. ">
<polygon fill="white" stroke="#bfbfbf" points="110.5,-67.5 110.5,-86.5 197.5,-86.5 197.5,-67.5 110.5,-67.5"/>
<text text-anchor="middle" x="154" y="-74.5" font-family="Helvetica,sans-Serif" font-size="10.00">std::vector&lt; T &gt;</text>
</a>
</g>
</g>
<!-- Node4&#45;&gt;Node9 -->
<g id="edge9" class="edge"><title>Node4&#45;&gt;Node9</title>
<path fill="none" stroke="#9a32cd" stroke-dasharray="5,2" d="M129.34,-130.682C135.918,-116.63 144.808,-97.6384 149.92,-86.7154"/>
<polygon fill="#9a32cd" stroke="#9a32cd" points="126.116,-129.315 125.046,-139.855 132.456,-132.282 126.116,-129.315"/>
<text text-anchor="middle" x="162.5" y="-108" font-family="Helvetica,sans-Serif" font-size="10.00"> elements</text>
</g>
<!-- Node5 -->
<g id="node5" class="node"><title>Node5</title>
<polygon fill="white" stroke="#bfbfbf" points="215.5,-67.5 215.5,-86.5 260.5,-86.5 260.5,-67.5 215.5,-67.5"/>
<text text-anchor="middle" x="238" y="-74.5" font-family="Helvetica,sans-Serif" font-size="10.00">double</text>
</g>
<!-- Node5&#45;&gt;Node1 -->
<g id="edge4" class="edge"><title>Node5&#45;&gt;Node1</title>
<path fill="none" stroke="#9a32cd" stroke-dasharray="5,2" d="M238,-57.037C238,-44.6703 238,-29.1198 238,-19.6273"/>
<polygon fill="#9a32cd" stroke="#9a32cd" points="234.5,-57.2338 238,-67.2338 241.5,-57.2338 234.5,-57.2338"/>
<text text-anchor="middle" x="258.5" y="-41" font-family="Helvetica,sans-Serif" font-size="10.00"> number_</text>
</g>
<!-- Node6 -->
<g id="node6" class="node"><title>Node6</title>
<g id="a_node6"><a xlink:title="STL class. ">
<polygon fill="white" stroke="#bfbfbf" points="279,-67.5 279,-86.5 339,-86.5 339,-67.5 279,-67.5"/>
<text text-anchor="middle" x="309" y="-74.5" font-family="Helvetica,sans-Serif" font-size="10.00">std::string</text>
</a>
</g>
</g>
<!-- Node6&#45;&gt;Node1 -->
<g id="edge5" class="edge"><title>Node6&#45;&gt;Node1</title>
<path fill="none" stroke="#9a32cd" stroke-dasharray="5,2" d="M299.355,-58.6388C294.958,-51.6971 289.32,-43.9541 283,-38 275.175,-30.628 265.003,-24.3156 256.31,-19.6522"/>
<polygon fill="#9a32cd" stroke="#9a32cd" points="296.418,-60.548 304.528,-67.3649 302.439,-56.9781 296.418,-60.548"/>
<text text-anchor="middle" x="309.5" y="-41" font-family="Helvetica,sans-Serif" font-size="10.00"> string_</text>
</g>
<!-- Node7 -->
<g id="node7" class="node"><title>Node7</title>
<g id="a_node7"><a xlink:title="STL class. ">
<polygon fill="white" stroke="#bfbfbf" points="261.5,-134.5 261.5,-164.5 356.5,-164.5 356.5,-134.5 261.5,-134.5"/>
<text text-anchor="start" x="269.5" y="-152.5" font-family="Helvetica,sans-Serif" font-size="10.00">std::basic_string&lt;</text>
<text text-anchor="middle" x="309" y="-141.5" font-family="Helvetica,sans-Serif" font-size="10.00"> char &gt;</text>
</a>
</g>
</g>
<!-- Node7&#45;&gt;Node6 -->
<g id="edge6" class="edge"><title>Node7&#45;&gt;Node6</title>
<path fill="none" stroke="midnightblue" d="M309,-124.091C309,-111.214 309,-96.1974 309,-86.8932"/>
<polygon fill="midnightblue" stroke="midnightblue" points="305.5,-124.233 309,-134.233 312.5,-124.233 305.5,-124.233"/>
</g>
<!-- Node8 -->
<g id="node8" class="node"><title>Node8</title>
<polygon fill="white" stroke="#bfbfbf" points="357.5,-67.5 357.5,-86.5 392.5,-86.5 392.5,-67.5 357.5,-67.5"/>
<text text-anchor="middle" x="375" y="-74.5" font-family="Helvetica,sans-Serif" font-size="10.00">bool</text>
</g>
<!-- Node8&#45;&gt;Node1 -->
<g id="edge7" class="edge"><title>Node8&#45;&gt;Node1</title>
<path fill="none" stroke="#9a32cd" stroke-dasharray="5,2" d="M359.544,-60.1413C351.37,-52.524 340.807,-43.8112 330,-38 314.753,-29.8014 296.71,-23.8081 280.66,-19.5814"/>
<polygon fill="#9a32cd" stroke="#9a32cd" points="357.234,-62.7775 366.841,-67.2453 362.117,-57.7618 357.234,-62.7775"/>
<text text-anchor="middle" x="368.5" y="-41" font-family="Helvetica,sans-Serif" font-size="10.00"> boolean_</text>
</g>
<!-- Node9&#45;&gt;Node1 -->
<g id="edge8" class="edge"><title>Node9&#45;&gt;Node1</title>
<path fill="none" stroke="#9a32cd" stroke-dasharray="5,2" d="M173.263,-61.0429C182.289,-54.0394 193.191,-45.5867 203,-38 211.013,-31.8023 220.068,-24.8175 226.96,-19.5051"/>
<polygon fill="#9a32cd" stroke="#9a32cd" points="171.035,-58.3415 165.282,-67.2379 175.327,-63.8714 171.035,-58.3415"/>
<text text-anchor="middle" x="218.5" y="-41" font-family="Helvetica,sans-Serif" font-size="10.00"> array_</text>
</g>
</g>
</svg>
