<?xml version="1.0" encoding="UTF-8" standalone="no"?>
<!DOCTYPE svg PUBLIC "-//W3C//DTD SVG 1.1//EN"
 "http://www.w3.org/Graphics/SVG/1.1/DTD/svg11.dtd">
<!-- Generated by graphviz version 2.40.1 (20161225.0304)
 -->
<!-- Title: Cleaner::clean2ndSlope Pages: 1 -->
<svg width="642pt" height="353pt"
 viewBox="0.00 0.00 642.00 352.83" xmlns="http://www.w3.org/2000/svg" xmlns:xlink="http://www.w3.org/1999/xlink">
<g id="graph0" class="graph" transform="scale(1 1) rotate(0) translate(4 348.8285)">
<title>Cleaner::clean2ndSlope</title>
<polygon fill="#ffffff" stroke="transparent" points="-4,4 -4,-348.8285 638,-348.8285 638,4 -4,4"/>
<!-- Node83 -->
<g id="node1" class="node">
<title>Node83</title>
<g id="a_node1"><a xlink:title="Method that carries the gappyout approach. This methods calculates the slope in gaps distribution on ...">
<polygon fill="#bfbfbf" stroke="#000000" points="0,-211.5 0,-230.5 120,-230.5 120,-211.5 0,-211.5"/>
<text text-anchor="middle" x="60" y="-218.5" font-family="Helvetica,sans-Serif" font-size="10.00" fill="#000000">Cleaner::clean2ndSlope</text>
</a>
</g>
</g>
<!-- Node84 -->
<g id="node2" class="node">
<title>Node84</title>
<g id="a_node2"><a xlink:href="classstatistics_1_1_gaps.html#a70d46d69ad3564e1ec068d5f9d7e3e84" target="_top" xlink:title=" ">
<polygon fill="#ffffff" stroke="#000000" points="159.5,-297 159.5,-327 284.5,-327 284.5,-297 159.5,-297"/>
<text text-anchor="start" x="167.5" y="-315" font-family="Helvetica,sans-Serif" font-size="10.00" fill="#000000">statistics::Gaps::calcCut</text>
<text text-anchor="middle" x="222" y="-304" font-family="Helvetica,sans-Serif" font-size="10.00" fill="#000000">Point2ndSlope</text>
</a>
</g>
</g>
<!-- Node83&#45;&gt;Node84 -->
<g id="edge1" class="edge">
<title>Node83&#45;&gt;Node84</title>
<path fill="none" stroke="#191970" d="M77.0306,-230.5666C102.7228,-244.9986 151.9892,-272.673 185.9028,-291.7232"/>
<polygon fill="#191970" stroke="#191970" points="184.5959,-295.0034 195.0287,-296.8495 188.0242,-288.9004 184.5959,-295.0034"/>
</g>
<!-- Node87 -->
<g id="node5" class="node">
<title>Node87</title>
<g id="a_node5"><a xlink:href="classstatistics_1_1_manager.html#a1969a416d3020d25daa56de6c5e305db" target="_top" xlink:title="Method to handle gap stat calculation It checks if the gaps submodule has been created,...">
<polygon fill="#ffffff" stroke="#000000" points="170.5,-231 170.5,-261 273.5,-261 273.5,-231 170.5,-231"/>
<text text-anchor="start" x="178.5" y="-249" font-family="Helvetica,sans-Serif" font-size="10.00" fill="#000000">statistics::Manager</text>
<text text-anchor="middle" x="222" y="-238" font-family="Helvetica,sans-Serif" font-size="10.00" fill="#000000">::calculateGapStats</text>
</a>
</g>
</g>
<!-- Node83&#45;&gt;Node87 -->
<g id="edge4" class="edge">
<title>Node83&#45;&gt;Node87</title>
<path fill="none" stroke="#191970" d="M120.3228,-230.3091C133.4413,-232.3335 147.3353,-234.4777 160.4989,-236.5091"/>
<polygon fill="#191970" stroke="#191970" points="159.9809,-239.9705 170.3978,-238.0367 161.0486,-233.0524 159.9809,-239.9705"/>
</g>
<!-- Node92 -->
<g id="node10" class="node">
<title>Node92</title>
<g id="a_node10"><a xlink:href="class_cleaner.html#a13ae2074afb38708bc5cee9489d8ab6f" target="_top" xlink:title="Method to clean an alignment. &#160;It removes sequences that overpass or equals a certain threshold....">
<polygon fill="#ffffff" stroke="#000000" points="156,-77 156,-107 288,-107 288,-77 156,-77"/>
<text text-anchor="start" x="164" y="-95" font-family="Helvetica,sans-Serif" font-size="10.00" fill="#000000">Cleaner::cleanByCutValue</text>
<text text-anchor="middle" x="222" y="-84" font-family="Helvetica,sans-Serif" font-size="10.00" fill="#000000">Overpass</text>
</a>
</g>
</g>
<!-- Node83&#45;&gt;Node92 -->
<g id="edge10" class="edge">
<title>Node83&#45;&gt;Node92</title>
<path fill="none" stroke="#191970" d="M72.1763,-211.304C98.131,-190.6364 159.4309,-141.8235 195.0585,-113.4534"/>
<polygon fill="#191970" stroke="#191970" points="197.4582,-116.0167 203.1007,-107.0494 193.0977,-110.5407 197.4582,-116.0167"/>
</g>
<!-- Node97 -->
<g id="node15" class="node">
<title>Node97</title>
<g id="a_node15"><a xlink:href="classstatistics_1_1_gaps.html#ab5b60db326475f8adc68b130e22b3963" target="_top" xlink:title=" ">
<polygon fill="#ffffff" stroke="#000000" points="158,-182 158,-212 286,-212 286,-182 158,-182"/>
<text text-anchor="start" x="166" y="-200" font-family="Helvetica,sans-Serif" font-size="10.00" fill="#000000">statistics::Gaps::getGaps</text>
<text text-anchor="middle" x="222" y="-189" font-family="Helvetica,sans-Serif" font-size="10.00" fill="#000000">Window</text>
</a>
</g>
</g>
<!-- Node83&#45;&gt;Node97 -->
<g id="edge17" class="edge">
<title>Node83&#45;&gt;Node97</title>
<path fill="none" stroke="#191970" d="M120.3228,-212.0633C129.3075,-210.7322 138.6558,-209.3473 147.8842,-207.9801"/>
<polygon fill="#191970" stroke="#191970" points="148.4488,-211.4348 157.8279,-206.507 147.4229,-204.5103 148.4488,-211.4348"/>
</g>
<!-- Node85 -->
<g id="node3" class="node">
<title>Node85</title>
<g id="a_node3"><a xlink:href="namespaceutils.html#a40640e1942f00797e9fe8284e8fbdb14" target="_top" xlink:title="Maximum of two numbers method.">
<polygon fill="#ffffff" stroke="#000000" points="370.5,-302.5 370.5,-321.5 429.5,-321.5 429.5,-302.5 370.5,-302.5"/>
<text text-anchor="middle" x="400" y="-309.5" font-family="Helvetica,sans-Serif" font-size="10.00" fill="#000000">utils::max</text>
</a>
</g>
</g>
<!-- Node84&#45;&gt;Node85 -->
<g id="edge2" class="edge">
<title>Node84&#45;&gt;Node85</title>
<path fill="none" stroke="#191970" d="M284.5058,-312C309.5845,-312 337.7513,-312 359.9902,-312"/>
<polygon fill="#191970" stroke="#191970" points="360.0743,-315.5001 370.0743,-312 360.0743,-308.5001 360.0743,-315.5001"/>
</g>
<!-- Node86 -->
<g id="node4" class="node">
<title>Node86</title>
<g id="a_node4"><a xlink:href="namespaceutils.html#aac322cd1761fddedec8a5792e358eb32" target="_top" xlink:title="Vector initialization.">
<polygon fill="#ffffff" stroke="#000000" points="535,-239.5 535,-258.5 611,-258.5 611,-239.5 535,-239.5"/>
<text text-anchor="middle" x="573" y="-246.5" font-family="Helvetica,sans-Serif" font-size="10.00" fill="#000000">utils::initlVect</text>
</a>
</g>
</g>
<!-- Node84&#45;&gt;Node86 -->
<g id="edge3" class="edge">
<title>Node84&#45;&gt;Node86</title>
<path fill="none" stroke="#191970" d="M269.4941,-327.003C321.7714,-340.9377 407.4824,-356.0806 476,-331 511.1512,-318.133 542.3351,-286.2759 559.3577,-266.2702"/>
<polygon fill="#191970" stroke="#191970" points="562.0938,-268.4535 565.7563,-258.5118 556.6935,-263.9996 562.0938,-268.4535"/>
</g>
<!-- Node88 -->
<g id="node6" class="node">
<title>Node88</title>
<g id="a_node6"><a xlink:href="classstatistics_1_1_gaps.html#aa3526494d5100e062daa4afba755d0b1" target="_top" xlink:title=" ">
<polygon fill="#ffffff" stroke="#000000" points="333.5,-253 333.5,-283 466.5,-283 466.5,-253 333.5,-253"/>
<text text-anchor="start" x="341.5" y="-271" font-family="Helvetica,sans-Serif" font-size="10.00" fill="#000000">statistics::Gaps::Calculate</text>
<text text-anchor="middle" x="400" y="-260" font-family="Helvetica,sans-Serif" font-size="10.00" fill="#000000">Vectors</text>
</a>
</g>
</g>
<!-- Node87&#45;&gt;Node88 -->
<g id="edge5" class="edge">
<title>Node87&#45;&gt;Node88</title>
<path fill="none" stroke="#191970" d="M273.9635,-252.4225C289.3446,-254.3235 306.5219,-256.4465 323.1255,-258.4987"/>
<polygon fill="#191970" stroke="#191970" points="323.0145,-262.0115 333.3683,-259.7646 323.8732,-255.0643 323.0145,-262.0115"/>
</g>
<!-- Node89 -->
<g id="node7" class="node">
<title>Node89</title>
<g id="a_node7"><a xlink:href="classstatistics_1_1_gaps.html#aee36b772767467cdba2061df2305e85d" target="_top" xlink:title=" ">
<polygon fill="#ffffff" stroke="#000000" points="325,-214.5 325,-233.5 475,-233.5 475,-214.5 325,-214.5"/>
<text text-anchor="middle" x="400" y="-221.5" font-family="Helvetica,sans-Serif" font-size="10.00" fill="#000000">statistics::Gaps::applyWindow</text>
</a>
</g>
</g>
<!-- Node87&#45;&gt;Node89 -->
<g id="edge6" class="edge">
<title>Node87&#45;&gt;Node89</title>
<path fill="none" stroke="#191970" d="M273.9635,-239.5775C286.7624,-237.9957 300.805,-236.2601 314.7259,-234.5395"/>
<polygon fill="#191970" stroke="#191970" points="315.3262,-237.992 324.8214,-233.2917 314.4675,-231.0449 315.3262,-237.992"/>
</g>
<!-- Node89&#45;&gt;Node86 -->
<g id="edge8" class="edge">
<title>Node89&#45;&gt;Node86</title>
<path fill="none" stroke="#191970" d="M465.8974,-233.5227C485.4649,-236.3504 506.5259,-239.3939 524.7504,-242.0275"/>
<polygon fill="#191970" stroke="#191970" points="524.4392,-245.5188 534.837,-243.4851 525.4404,-238.5908 524.4392,-245.5188"/>
</g>
<!-- Node90 -->
<g id="node8" class="node">
<title>Node90</title>
<g id="a_node8"><a xlink:href="classreporting_1_1report_manager.html#a6d122e673144584e0869bd33b8a5c1c6" target="_top" xlink:title="Method to report an Error. &#160;It will be displayed if Level &#160;is equal or higher to VerboseLevel::ERROR.">
<polygon fill="#ffffff" stroke="#000000" points="512,-115 512,-145 634,-145 634,-115 512,-115"/>
<text text-anchor="start" x="520" y="-133" font-family="Helvetica,sans-Serif" font-size="10.00" fill="#000000">reporting::reportManager</text>
<text text-anchor="middle" x="573" y="-122" font-family="Helvetica,sans-Serif" font-size="10.00" fill="#000000">::report</text>
</a>
</g>
</g>
<!-- Node89&#45;&gt;Node90 -->
<g id="edge7" class="edge">
<title>Node89&#45;&gt;Node90</title>
<path fill="none" stroke="#191970" d="M450.5061,-214.4951C459.2313,-211.9815 468.0458,-208.8578 476,-205 483.734,-201.249 520.3225,-172.3753 546.276,-151.5737"/>
<polygon fill="#191970" stroke="#191970" points="548.6741,-154.1367 554.2787,-145.1456 544.2905,-148.6792 548.6741,-154.1367"/>
</g>
<!-- Node91 -->
<g id="node9" class="node">
<title>Node91</title>
<g id="a_node9"><a xlink:href="namespaceutils.html#ad50731aeb3c8f79ed8372516210dfc9d" target="_top" xlink:title="Round double to integer method.">
<polygon fill="#ffffff" stroke="#000000" points="535,-189.5 535,-208.5 611,-208.5 611,-189.5 535,-189.5"/>
<text text-anchor="middle" x="573" y="-196.5" font-family="Helvetica,sans-Serif" font-size="10.00" fill="#000000">utils::roundInt</text>
</a>
</g>
</g>
<!-- Node89&#45;&gt;Node91 -->
<g id="edge9" class="edge">
<title>Node89&#45;&gt;Node91</title>
<path fill="none" stroke="#191970" d="M465.8974,-214.4773C485.4649,-211.6496 506.5259,-208.6061 524.7504,-205.9725"/>
<polygon fill="#191970" stroke="#191970" points="525.4404,-209.4092 534.837,-204.5149 524.4392,-202.4812 525.4404,-209.4092"/>
</g>
<!-- Node92&#45;&gt;Node91 -->
<g id="edge11" class="edge">
<title>Node92&#45;&gt;Node91</title>
<path fill="none" stroke="#191970" d="M285.3262,-107.0684C354.5281,-123.6363 458.0023,-148.745 476,-155 500.0574,-163.3611 526.3056,-175.4615 545.4238,-184.8574"/>
<polygon fill="#191970" stroke="#191970" points="543.9467,-188.0318 554.4583,-189.3571 547.0675,-181.7659 543.9467,-188.0318"/>
</g>
<!-- Node93 -->
<g id="node11" class="node">
<title>Node93</title>
<g id="a_node11"><a xlink:href="namespaceutils.html#a73f038c379c13d23e3220afaa14f9983" target="_top" xlink:title="Quicksort sorting method.">
<polygon fill="#ffffff" stroke="#000000" points="360,-38.5 360,-57.5 440,-57.5 440,-38.5 360,-38.5"/>
<text text-anchor="middle" x="400" y="-45.5" font-family="Helvetica,sans-Serif" font-size="10.00" fill="#000000">utils::quicksort</text>
</a>
</g>
</g>
<!-- Node92&#45;&gt;Node93 -->
<g id="edge12" class="edge">
<title>Node92&#45;&gt;Node93</title>
<path fill="none" stroke="#191970" d="M282.7597,-76.9808C305.2781,-71.4144 330.4875,-65.1829 351.743,-59.9287"/>
<polygon fill="#191970" stroke="#191970" points="352.65,-63.3099 361.5179,-57.5124 350.9702,-56.5144 352.65,-63.3099"/>
</g>
<!-- Node95 -->
<g id="node13" class="node">
<title>Node95</title>
<g id="a_node13"><a xlink:href="class_cleaner.html#a5620f6a511bc0ac844c71b2de3ae1fdb" target="_top" xlink:title="Method to remove blocks of columns with no rejected residue smaller than a given size.">
<polygon fill="#ffffff" stroke="#000000" points="324,-.5 324,-19.5 476,-19.5 476,-.5 324,-.5"/>
<text text-anchor="middle" x="400" y="-7.5" font-family="Helvetica,sans-Serif" font-size="10.00" fill="#000000">Cleaner::removeSmallerBlocks</text>
</a>
</g>
</g>
<!-- Node92&#45;&gt;Node95 -->
<g id="edge14" class="edge">
<title>Node92&#45;&gt;Node95</title>
<path fill="none" stroke="#191970" d="M242.0773,-76.9901C261.947,-62.7828 293.6991,-41.7802 324,-29 329.8389,-26.5373 336.07,-24.3417 342.357,-22.3974"/>
<polygon fill="#191970" stroke="#191970" points="343.597,-25.6825 352.2345,-19.5469 341.6561,-18.9569 343.597,-25.6825"/>
</g>
<!-- Node96 -->
<g id="node14" class="node">
<title>Node96</title>
<g id="a_node14"><a xlink:href="class_cleaner.html#ada8ad076dd037f00ae3f4fd17762641f" target="_top" xlink:title="Method that identifies and removes columns and sequences composed only by gaps.">
<polygon fill="#ffffff" stroke="#000000" points="327,-77 327,-107 473,-107 473,-77 327,-77"/>
<text text-anchor="start" x="335" y="-95" font-family="Helvetica,sans-Serif" font-size="10.00" fill="#000000">Cleaner::removeAllGapsSeqs</text>
<text text-anchor="middle" x="400" y="-84" font-family="Helvetica,sans-Serif" font-size="10.00" fill="#000000">AndCols</text>
</a>
</g>
</g>
<!-- Node92&#45;&gt;Node96 -->
<g id="edge15" class="edge">
<title>Node92&#45;&gt;Node96</title>
<path fill="none" stroke="#191970" d="M288.0277,-92C297.4269,-92 307.1931,-92 316.8665,-92"/>
<polygon fill="#191970" stroke="#191970" points="316.8943,-95.5001 326.8943,-92 316.8942,-88.5001 316.8943,-95.5001"/>
</g>
<!-- Node94 -->
<g id="node12" class="node">
<title>Node94</title>
<g id="a_node12"><a xlink:href="namespaceutils.html#a3377ecde55631d1bbc4956e5923b7469" target="_top" xlink:title="Swapping elements method.">
<polygon fill="#ffffff" stroke="#000000" points="541,-38.5 541,-57.5 605,-57.5 605,-38.5 541,-38.5"/>
<text text-anchor="middle" x="573" y="-45.5" font-family="Helvetica,sans-Serif" font-size="10.00" fill="#000000">utils::swap</text>
</a>
</g>
</g>
<!-- Node93&#45;&gt;Node94 -->
<g id="edge13" class="edge">
<title>Node93&#45;&gt;Node94</title>
<path fill="none" stroke="#191970" d="M440.1245,-48C467.2968,-48 503.1373,-48 530.7472,-48"/>
<polygon fill="#191970" stroke="#191970" points="530.8908,-51.5001 540.8907,-48 530.8907,-44.5001 530.8908,-51.5001"/>
</g>
<!-- Node96&#45;&gt;Node90 -->
<g id="edge16" class="edge">
<title>Node96&#45;&gt;Node90</title>
<path fill="none" stroke="#191970" d="M468.3742,-107.0186C479.3654,-109.4329 490.7653,-111.9369 501.8205,-114.3652"/>
<polygon fill="#191970" stroke="#191970" points="501.3365,-117.8422 511.8545,-116.5692 502.8383,-111.0052 501.3365,-117.8422"/>
</g>
<!-- Node97&#45;&gt;Node89 -->
<g id="edge19" class="edge">
<title>Node97&#45;&gt;Node89</title>
<path fill="none" stroke="#191970" d="M286.0106,-206.7095C299.2745,-208.7214 313.3441,-210.8556 326.9046,-212.9125"/>
<polygon fill="#191970" stroke="#191970" points="326.7415,-216.4277 337.1534,-214.4671 327.7914,-209.5069 326.7415,-216.4277"/>
</g>
<!-- Node98 -->
<g id="node16" class="node">
<title>Node98</title>
<g id="a_node16"><a xlink:href="classstatistics_1_1_gaps.html#ad812a924cf5e3f900aad3ed4a9664300" target="_top" xlink:title=" ">
<polygon fill="#ffffff" stroke="#000000" points="333.5,-165 333.5,-195 466.5,-195 466.5,-165 333.5,-165"/>
<text text-anchor="start" x="341.5" y="-183" font-family="Helvetica,sans-Serif" font-size="10.00" fill="#000000">statistics::Gaps::isDefined</text>
<text text-anchor="middle" x="400" y="-172" font-family="Helvetica,sans-Serif" font-size="10.00" fill="#000000">Window</text>
</a>
</g>
</g>
<!-- Node97&#45;&gt;Node98 -->
<g id="edge18" class="edge">
<title>Node97&#45;&gt;Node98</title>
<path fill="none" stroke="#191970" d="M286.0106,-190.8866C298.0021,-189.7414 310.6522,-188.5332 322.9893,-187.355"/>
<polygon fill="#191970" stroke="#191970" points="323.6356,-190.8092 333.2575,-186.3743 322.97,-183.841 323.6356,-190.8092"/>
</g>
</g>
</svg>
