<?xml version="1.0" encoding="UTF-8" standalone="no"?>
<!DOCTYPE svg PUBLIC "-//W3C//DTD SVG 1.1//EN"
 "http://www.w3.org/Graphics/SVG/1.1/DTD/svg11.dtd">
<!-- Generated by graphviz version 2.40.1 (20161225.0304)
 -->
<!-- Title: trimAlManager::create_or_use_similarity_matrix Pages: 1 -->
<svg width="645pt" height="372pt"
 viewBox="0.00 0.00 645.00 372.00" xmlns="http://www.w3.org/2000/svg" xmlns:xlink="http://www.w3.org/1999/xlink">
<g id="graph0" class="graph" transform="scale(1 1) rotate(0) translate(4 368)">
<title>trimAlManager::create_or_use_similarity_matrix</title>
<polygon fill="#ffffff" stroke="transparent" points="-4,4 -4,-368 641,-368 641,4 -4,4"/>
<!-- Node477 -->
<g id="node1" class="node">
<title>Node477</title>
<g id="a_node1"><a xlink:title="Method to create, load and use a similarity matrix, depending on alignment residue nature,...">
<polygon fill="#bfbfbf" stroke="#000000" points="0,-161.5 0,-191.5 128,-191.5 128,-161.5 0,-161.5"/>
<text text-anchor="start" x="8" y="-179.5" font-family="Helvetica,sans-Serif" font-size="10.00" fill="#000000">trimAlManager::create</text>
<text text-anchor="middle" x="64" y="-168.5" font-family="Helvetica,sans-Serif" font-size="10.00" fill="#000000">_or_use_similarity_matrix</text>
</a>
</g>
</g>
<!-- Node478 -->
<g id="node2" class="node">
<title>Node478</title>
<g id="a_node2"><a xlink:href="classsimilarity_matrix.html#abe971a39212e0525ebdf44ea0e7277ec" target="_top" xlink:title="Method to load alternative similarity matrices also included on the suite. Currently,...">
<polygon fill="#ffffff" stroke="#000000" points="169.5,-333.5 169.5,-363.5 303.5,-363.5 303.5,-333.5 169.5,-333.5"/>
<text text-anchor="start" x="177.5" y="-351.5" font-family="Helvetica,sans-Serif" font-size="10.00" fill="#000000">similarityMatrix::alternative</text>
<text text-anchor="middle" x="236.5" y="-340.5" font-family="Helvetica,sans-Serif" font-size="10.00" fill="#000000">SimilarityMatrices</text>
</a>
</g>
</g>
<!-- Node477&#45;&gt;Node478 -->
<g id="edge1" class="edge">
<title>Node477&#45;&gt;Node478</title>
<path fill="none" stroke="#191970" d="M70.3161,-191.9472C83.3415,-221.9151 116.0403,-288.182 164,-324.5 165.8464,-325.8982 167.7784,-327.2174 169.7758,-328.4617"/>
<polygon fill="#191970" stroke="#191970" points="168.4364,-331.7187 178.8886,-333.4519 171.7986,-325.579 168.4364,-331.7187"/>
</g>
<!-- Node481 -->
<g id="node5" class="node">
<title>Node481</title>
<g id="a_node5"><a xlink:href="classsimilarity_matrix.html#a27816b8b2e132283436e04ceefc68c65" target="_top" xlink:title="Method to load the default AA similarity matrix.">
<polygon fill="#ffffff" stroke="#000000" points="177.5,-284.5 177.5,-314.5 295.5,-314.5 295.5,-284.5 177.5,-284.5"/>
<text text-anchor="start" x="185.5" y="-302.5" font-family="Helvetica,sans-Serif" font-size="10.00" fill="#000000">similarityMatrix::default</text>
<text text-anchor="middle" x="236.5" y="-291.5" font-family="Helvetica,sans-Serif" font-size="10.00" fill="#000000">AASimMatrix</text>
</a>
</g>
</g>
<!-- Node477&#45;&gt;Node481 -->
<g id="edge4" class="edge">
<title>Node477&#45;&gt;Node481</title>
<path fill="none" stroke="#191970" d="M75.5805,-191.7777C92.6832,-213.3478 126.7202,-252.6422 164,-275.5 166.7692,-277.1979 169.6725,-278.7907 172.6587,-280.2829"/>
<polygon fill="#191970" stroke="#191970" points="171.2647,-283.4939 181.8152,-284.4621 174.1713,-277.1259 171.2647,-283.4939"/>
</g>
<!-- Node482 -->
<g id="node6" class="node">
<title>Node482</title>
<g id="a_node6"><a xlink:href="classsimilarity_matrix.html#abc9fb436b0ed9ad33068b28f8027e31f" target="_top" xlink:title="Method to load the default DEG NT similarity matrix.">
<polygon fill="#ffffff" stroke="#000000" points="171.5,-235.5 171.5,-265.5 301.5,-265.5 301.5,-235.5 171.5,-235.5"/>
<text text-anchor="start" x="179.5" y="-253.5" font-family="Helvetica,sans-Serif" font-size="10.00" fill="#000000">similarityMatrix::default</text>
<text text-anchor="middle" x="236.5" y="-242.5" font-family="Helvetica,sans-Serif" font-size="10.00" fill="#000000">NTDegeneratedSimMatrix</text>
</a>
</g>
</g>
<!-- Node477&#45;&gt;Node482 -->
<g id="edge6" class="edge">
<title>Node477&#45;&gt;Node482</title>
<path fill="none" stroke="#191970" d="M91.5183,-191.6051C111.3308,-202.1457 138.8833,-216.1268 164,-226.5 168.6299,-228.4122 173.4723,-230.2827 178.3637,-232.0821"/>
<polygon fill="#191970" stroke="#191970" points="177.1928,-235.3804 187.7874,-235.4474 179.547,-228.7881 177.1928,-235.3804"/>
</g>
<!-- Node483 -->
<g id="node7" class="node">
<title>Node483</title>
<g id="a_node7"><a xlink:href="classsimilarity_matrix.html#a4867c060ed36fd7b7d46a0f04c9bcc22" target="_top" xlink:title="Method to load the default NT similarity matrix.">
<polygon fill="#ffffff" stroke="#000000" points="177.5,-186.5 177.5,-216.5 295.5,-216.5 295.5,-186.5 177.5,-186.5"/>
<text text-anchor="start" x="185.5" y="-204.5" font-family="Helvetica,sans-Serif" font-size="10.00" fill="#000000">similarityMatrix::default</text>
<text text-anchor="middle" x="236.5" y="-193.5" font-family="Helvetica,sans-Serif" font-size="10.00" fill="#000000">NTSimMatrix</text>
</a>
</g>
</g>
<!-- Node477&#45;&gt;Node483 -->
<g id="edge8" class="edge">
<title>Node477&#45;&gt;Node483</title>
<path fill="none" stroke="#191970" d="M128.2326,-185.8091C140.9307,-187.6494 154.3112,-189.5886 167.1694,-191.4521"/>
<polygon fill="#191970" stroke="#191970" points="166.9478,-194.9565 177.3465,-192.927 167.9519,-188.0288 166.9478,-194.9565"/>
</g>
<!-- Node484 -->
<g id="node8" class="node">
<title>Node484</title>
<g id="a_node8"><a xlink:href="class_alignment.html#a1bc7622776f3935f6cb9d3c895e43a29" target="_top" xlink:title="Alignment type getter. &#160;&#160;See SequenceTypes.">
<polygon fill="#ffffff" stroke="#000000" points="164,-99 164,-118 309,-118 309,-99 164,-99"/>
<text text-anchor="middle" x="236.5" y="-106" font-family="Helvetica,sans-Serif" font-size="10.00" fill="#000000">Alignment::getAlignmentType</text>
</a>
</g>
</g>
<!-- Node477&#45;&gt;Node484 -->
<g id="edge10" class="edge">
<title>Node477&#45;&gt;Node484</title>
<path fill="none" stroke="#191970" d="M91.8623,-161.4691C111.6051,-151.2325 138.9324,-137.8882 164,-128.5 171.3939,-125.7309 179.3398,-123.1541 187.1644,-120.8332"/>
<polygon fill="#191970" stroke="#191970" points="188.306,-124.1472 196.9601,-118.0352 186.3834,-117.4164 188.306,-124.1472"/>
</g>
<!-- Node486 -->
<g id="node10" class="node">
<title>Node486</title>
<g id="a_node10"><a xlink:href="classsimilarity_matrix.html#a2d8cda71ce6839f88ef1c600fe456185" target="_top" xlink:title="Method to load a custom matrix.">
<polygon fill="#ffffff" stroke="#000000" points="174.5,-137.5 174.5,-167.5 298.5,-167.5 298.5,-137.5 174.5,-137.5"/>
<text text-anchor="start" x="182.5" y="-155.5" font-family="Helvetica,sans-Serif" font-size="10.00" fill="#000000">similarityMatrix::loadSim</text>
<text text-anchor="middle" x="236.5" y="-144.5" font-family="Helvetica,sans-Serif" font-size="10.00" fill="#000000">Matrix</text>
</a>
</g>
</g>
<!-- Node477&#45;&gt;Node486 -->
<g id="edge12" class="edge">
<title>Node477&#45;&gt;Node486</title>
<path fill="none" stroke="#191970" d="M128.2326,-167.5633C139.9818,-165.9286 152.3152,-164.2127 164.2785,-162.5482"/>
<polygon fill="#191970" stroke="#191970" points="164.7975,-166.0098 174.2197,-161.1651 163.8328,-159.0766 164.7975,-166.0098"/>
</g>
<!-- Node489 -->
<g id="node13" class="node">
<title>Node489</title>
<g id="a_node13"><a xlink:href="classreporting_1_1report_manager.html#a6d122e673144584e0869bd33b8a5c1c6" target="_top" xlink:title="Method to report an Error. &#160;It will be displayed if Level &#160;is equal or higher to VerboseLevel::ERROR.">
<polygon fill="#ffffff" stroke="#000000" points="175.5,-49.5 175.5,-79.5 297.5,-79.5 297.5,-49.5 175.5,-49.5"/>
<text text-anchor="start" x="183.5" y="-67.5" font-family="Helvetica,sans-Serif" font-size="10.00" fill="#000000">reporting::reportManager</text>
<text text-anchor="middle" x="236.5" y="-56.5" font-family="Helvetica,sans-Serif" font-size="10.00" fill="#000000">::report</text>
</a>
</g>
</g>
<!-- Node477&#45;&gt;Node489 -->
<g id="edge17" class="edge">
<title>Node477&#45;&gt;Node489</title>
<path fill="none" stroke="#191970" d="M77.8494,-161.2762C95.9814,-142.148 129.5316,-109.4199 164,-89.5 167.6312,-87.4015 171.4664,-85.4409 175.4005,-83.616"/>
<polygon fill="#191970" stroke="#191970" points="176.9122,-86.7758 184.7101,-79.6034 174.1415,-80.3475 176.9122,-86.7758"/>
</g>
<!-- Node490 -->
<g id="node14" class="node">
<title>Node490</title>
<g id="a_node14"><a xlink:href="classstatistics_1_1_manager.html#abe227502738f56029822a2387fcd38bb" target="_top" xlink:title="Method to set a similarity matrix.">
<polygon fill="#ffffff" stroke="#000000" points="184.5,-.5 184.5,-30.5 288.5,-30.5 288.5,-.5 184.5,-.5"/>
<text text-anchor="start" x="192.5" y="-18.5" font-family="Helvetica,sans-Serif" font-size="10.00" fill="#000000">statistics::Manager</text>
<text text-anchor="middle" x="236.5" y="-7.5" font-family="Helvetica,sans-Serif" font-size="10.00" fill="#000000">::setSimilarityMatrix</text>
</a>
</g>
</g>
<!-- Node477&#45;&gt;Node490 -->
<g id="edge18" class="edge">
<title>Node477&#45;&gt;Node490</title>
<path fill="none" stroke="#191970" d="M71.059,-161.339C84.9074,-133.2164 118.3148,-72.8079 164,-39.5 167.435,-36.9956 171.1468,-34.7421 175.0122,-32.7159"/>
<polygon fill="#191970" stroke="#191970" points="176.6801,-35.7997 184.2523,-28.3894 173.7117,-29.4602 176.6801,-35.7997"/>
</g>
<!-- Node479 -->
<g id="node3" class="node">
<title>Node479</title>
<g id="a_node3"><a xlink:href="classsimilarity_matrix.html#a08e4e5790d95848f049ed00579c0e377" target="_top" xlink:title="Method to allocate memory for the similiarity matrix.">
<polygon fill="#ffffff" stroke="#000000" points="349,-235.5 349,-265.5 473,-265.5 473,-235.5 349,-235.5"/>
<text text-anchor="start" x="357" y="-253.5" font-family="Helvetica,sans-Serif" font-size="10.00" fill="#000000">similarityMatrix::memory</text>
<text text-anchor="middle" x="411" y="-242.5" font-family="Helvetica,sans-Serif" font-size="10.00" fill="#000000">Allocation</text>
</a>
</g>
</g>
<!-- Node478&#45;&gt;Node479 -->
<g id="edge2" class="edge">
<title>Node478&#45;&gt;Node479</title>
<path fill="none" stroke="#191970" d="M288.3971,-333.499C295.4632,-330.8311 302.5106,-327.8263 309,-324.5 337.1086,-310.0923 365.9544,-288.3993 385.7658,-272.2208"/>
<polygon fill="#191970" stroke="#191970" points="388.2114,-274.7396 393.6748,-265.6621 383.743,-269.3513 388.2114,-274.7396"/>
</g>
<!-- Node480 -->
<g id="node4" class="node">
<title>Node480</title>
<g id="a_node4"><a xlink:href="classsimilarity_matrix.html#acc8f6dbae19b4332929ef6a240524975" target="_top" xlink:title="Method to deallocate memory allocated on the similarityMatrix::memoryAllocation method....">
<polygon fill="#ffffff" stroke="#000000" points="513,-213.5 513,-243.5 637,-243.5 637,-213.5 513,-213.5"/>
<text text-anchor="start" x="521" y="-231.5" font-family="Helvetica,sans-Serif" font-size="10.00" fill="#000000">similarityMatrix::memory</text>
<text text-anchor="middle" x="575" y="-220.5" font-family="Helvetica,sans-Serif" font-size="10.00" fill="#000000">Deletion</text>
</a>
</g>
</g>
<!-- Node479&#45;&gt;Node480 -->
<g id="edge3" class="edge">
<title>Node479&#45;&gt;Node480</title>
<path fill="none" stroke="#191970" d="M473.0014,-242.1827C482.6957,-240.8823 492.7871,-239.5286 502.6875,-238.2005"/>
<polygon fill="#191970" stroke="#191970" points="503.4651,-241.6276 512.911,-236.829 502.5344,-234.6897 503.4651,-241.6276"/>
</g>
<!-- Node481&#45;&gt;Node479 -->
<g id="edge5" class="edge">
<title>Node481&#45;&gt;Node479</title>
<path fill="none" stroke="#191970" d="M290.2796,-284.3986C308.4435,-279.2981 328.8885,-273.5571 347.7188,-268.2695"/>
<polygon fill="#191970" stroke="#191970" points="348.7166,-271.6248 357.398,-265.5516 346.8241,-264.8854 348.7166,-271.6248"/>
</g>
<!-- Node482&#45;&gt;Node479 -->
<g id="edge7" class="edge">
<title>Node482&#45;&gt;Node479</title>
<path fill="none" stroke="#191970" d="M301.9738,-250.5C313.9869,-250.5 326.5884,-250.5 338.7856,-250.5"/>
<polygon fill="#191970" stroke="#191970" points="338.9145,-254.0001 348.9145,-250.5 338.9144,-247.0001 338.9145,-254.0001"/>
</g>
<!-- Node483&#45;&gt;Node479 -->
<g id="edge9" class="edge">
<title>Node483&#45;&gt;Node479</title>
<path fill="none" stroke="#191970" d="M290.2796,-216.6014C308.4435,-221.7019 328.8885,-227.4429 347.7188,-232.7305"/>
<polygon fill="#191970" stroke="#191970" points="346.8241,-236.1146 357.398,-235.4484 348.7166,-229.3752 346.8241,-236.1146"/>
</g>
<!-- Node485 -->
<g id="node9" class="node">
<title>Node485</title>
<g id="a_node9"><a xlink:href="namespaceutils.html#aab52f9515717f06cafd6ab7fe2ebdcef" target="_top" xlink:title="Checks an alignment type.">
<polygon fill="#ffffff" stroke="#000000" points="345,-83 345,-102 477,-102 477,-83 345,-83"/>
<text text-anchor="middle" x="411" y="-90" font-family="Helvetica,sans-Serif" font-size="10.00" fill="#000000">utils::checkAlignmentType</text>
</a>
</g>
</g>
<!-- Node484&#45;&gt;Node485 -->
<g id="edge11" class="edge">
<title>Node484&#45;&gt;Node485</title>
<path fill="none" stroke="#191970" d="M309.2401,-101.8304C317.6172,-101.0623 326.1779,-100.2774 334.6016,-99.505"/>
<polygon fill="#191970" stroke="#191970" points="335.1484,-102.9696 344.787,-98.5711 334.5092,-95.9989 335.1484,-102.9696"/>
</g>
<!-- Node486&#45;&gt;Node479 -->
<g id="edge14" class="edge">
<title>Node486&#45;&gt;Node479</title>
<path fill="none" stroke="#191970" d="M290.7548,-167.5116C297.1651,-170.3412 303.407,-173.6496 309,-177.5 329.53,-191.6334 325.161,-205.412 345,-220.5 349.9967,-224.3001 355.5515,-227.7582 361.2574,-230.8633"/>
<polygon fill="#191970" stroke="#191970" points="359.7887,-234.0428 370.2896,-235.4506 362.9585,-227.8016 359.7887,-234.0428"/>
</g>
<!-- Node486&#45;&gt;Node480 -->
<g id="edge15" class="edge">
<title>Node486&#45;&gt;Node480</title>
<path fill="none" stroke="#191970" d="M278.627,-167.5602C298.5659,-174.308 322.8179,-181.9722 345,-187.5 397.1396,-200.4931 456.9104,-211.0185 502.4506,-218.1505"/>
<polygon fill="#191970" stroke="#191970" points="502.112,-221.6397 512.5297,-219.7101 503.1825,-214.722 502.112,-221.6397"/>
</g>
<!-- Node487 -->
<g id="node11" class="node">
<title>Node487</title>
<g id="a_node11"><a xlink:href="namespaceutils.html#aac322cd1761fddedec8a5792e358eb32" target="_top" xlink:title="Vector initialization.">
<polygon fill="#ffffff" stroke="#000000" points="373,-159 373,-178 449,-178 449,-159 373,-159"/>
<text text-anchor="middle" x="411" y="-166" font-family="Helvetica,sans-Serif" font-size="10.00" fill="#000000">utils::initlVect</text>
</a>
</g>
</g>
<!-- Node486&#45;&gt;Node487 -->
<g id="edge13" class="edge">
<title>Node486&#45;&gt;Node487</title>
<path fill="none" stroke="#191970" d="M298.5135,-158.1861C319.6189,-160.1212 342.8798,-162.254 362.7452,-164.0755"/>
<polygon fill="#191970" stroke="#191970" points="362.5167,-167.5691 372.7946,-164.9969 363.1559,-160.5984 362.5167,-167.5691"/>
</g>
<!-- Node488 -->
<g id="node12" class="node">
<title>Node488</title>
<g id="a_node12"><a xlink:href="namespaceutils.html#a2b86d1a439de68860f2366f99d507349" target="_top" xlink:title="Removing spaces method.">
<polygon fill="#ffffff" stroke="#000000" points="358,-121 358,-140 464,-140 464,-121 358,-121"/>
<text text-anchor="middle" x="411" y="-128" font-family="Helvetica,sans-Serif" font-size="10.00" fill="#000000">utils::removeSpaces</text>
</a>
</g>
</g>
<!-- Node486&#45;&gt;Node488 -->
<g id="edge16" class="edge">
<title>Node486&#45;&gt;Node488</title>
<path fill="none" stroke="#191970" d="M298.5135,-144.6817C314.4246,-142.6757 331.5608,-140.5153 347.5437,-138.5002"/>
<polygon fill="#191970" stroke="#191970" points="348.372,-141.9236 357.8556,-137.2001 347.4963,-134.9786 348.372,-141.9236"/>
</g>
<!-- Node491 -->
<g id="node15" class="node">
<title>Node491</title>
<g id="a_node15"><a xlink:href="classstatistics_1_1_similarity.html#a95126bfd6b0ed22c828a6ab780096a12" target="_top" xlink:title="Stores a valid similarity matrix point to use.">
<polygon fill="#ffffff" stroke="#000000" points="359,-.5 359,-30.5 463,-30.5 463,-.5 359,-.5"/>
<text text-anchor="start" x="367" y="-18.5" font-family="Helvetica,sans-Serif" font-size="10.00" fill="#000000">statistics::Similarity</text>
<text text-anchor="middle" x="411" y="-7.5" font-family="Helvetica,sans-Serif" font-size="10.00" fill="#000000">::setSimilarityMatrix</text>
</a>
</g>
</g>
<!-- Node490&#45;&gt;Node491 -->
<g id="edge19" class="edge">
<title>Node490&#45;&gt;Node491</title>
<path fill="none" stroke="#191970" d="M288.8558,-15.5C307.7488,-15.5 329.2554,-15.5 348.9016,-15.5"/>
<polygon fill="#191970" stroke="#191970" points="348.9821,-19.0001 358.9821,-15.5 348.9821,-12.0001 348.9821,-19.0001"/>
</g>
</g>
</svg>
