<?xml version="1.0" encoding="UTF-8" standalone="no"?>
<!DOCTYPE svg PUBLIC "-//W3C//DTD SVG 1.1//EN"
 "http://www.w3.org/Graphics/SVG/1.1/DTD/svg11.dtd">
<!-- Generated by graphviz version 2.40.1 (20161225.0304)
 -->
<!-- Title: trimAlManager::check_residue_and_sequence_overlap Pages: 1 -->
<svg width="555pt" height="50pt"
 viewBox="0.00 0.00 555.00 50.00" xmlns="http://www.w3.org/2000/svg" xmlns:xlink="http://www.w3.org/1999/xlink">
<g id="graph0" class="graph" transform="scale(1 1) rotate(0) translate(4 46)">
<title>trimAlManager::check_residue_and_sequence_overlap</title>
<polygon fill="#ffffff" stroke="transparent" points="-4,4 -4,-46 551,-46 551,4 -4,4"/>
<!-- Node216 -->
<g id="node1" class="node">
<title>Node216</title>
<g id="a_node1"><a xlink:title="Method to check if both of them (residue overlap and sequence overlap) have been defined by the user ...">
<polygon fill="#bfbfbf" stroke="#000000" points="425,-.5 425,-41.5 547,-41.5 547,-.5 425,-.5"/>
<text text-anchor="start" x="433" y="-29.5" font-family="Helvetica,sans-Serif" font-size="10.00" fill="#000000">trimAlManager::check</text>
<text text-anchor="start" x="433" y="-18.5" font-family="Helvetica,sans-Serif" font-size="10.00" fill="#000000">_residue_and_sequence</text>
<text text-anchor="middle" x="486" y="-7.5" font-family="Helvetica,sans-Serif" font-size="10.00" fill="#000000">_overlap</text>
</a>
</g>
</g>
<!-- Node217 -->
<g id="node2" class="node">
<title>Node217</title>
<g id="a_node2"><a xlink:href="classtrim_al_manager.html#a3f325b806727751394adb829d97b35f1" target="_top" xlink:title="Method that checks dependencies between arguments. Take in mind that dependencies may be between mult...">
<polygon fill="#ffffff" stroke="#000000" points="277,-6 277,-36 389,-36 389,-6 277,-6"/>
<text text-anchor="start" x="285" y="-24" font-family="Helvetica,sans-Serif" font-size="10.00" fill="#000000">trimAlManager::check</text>
<text text-anchor="middle" x="333" y="-13" font-family="Helvetica,sans-Serif" font-size="10.00" fill="#000000">_arguments_needs</text>
</a>
</g>
</g>
<!-- Node216&#45;&gt;Node217 -->
<g id="edge1" class="edge">
<title>Node216&#45;&gt;Node217</title>
<path fill="none" stroke="#191970" d="M414.4626,-21C406.0552,-21 397.5674,-21 389.4079,-21"/>
<polygon fill="#191970" stroke="#191970" points="414.6507,-24.5001 424.6506,-21 414.6506,-17.5001 414.6507,-24.5001"/>
</g>
<!-- Node218 -->
<g id="node3" class="node">
<title>Node218</title>
<g id="a_node3"><a xlink:href="classtrim_al_manager.html#a748b08a1ec5cd214de804ed0d4234a6e" target="_top" xlink:title="Method to process the information obtained by trimAlManager::parseArguments It checks for argument in...">
<polygon fill="#ffffff" stroke="#000000" points="74,-11.5 74,-30.5 241,-30.5 241,-11.5 74,-11.5"/>
<text text-anchor="middle" x="157.5" y="-18.5" font-family="Helvetica,sans-Serif" font-size="10.00" fill="#000000">trimAlManager::processArguments</text>
</a>
</g>
</g>
<!-- Node217&#45;&gt;Node218 -->
<g id="edge2" class="edge">
<title>Node217&#45;&gt;Node218</title>
<path fill="none" stroke="#191970" d="M266.8854,-21C258.4692,-21 249.7698,-21 241.124,-21"/>
<polygon fill="#191970" stroke="#191970" points="266.9882,-24.5001 276.9882,-21 266.9881,-17.5001 266.9882,-24.5001"/>
</g>
<!-- Node219 -->
<g id="node4" class="node">
<title>Node219</title>
<g id="a_node4"><a xlink:href="trim_al_main_8cpp.html#a0ddf1224851353fc92bfbff6f499fa97" target="_top" xlink:title=" ">
<polygon fill="#ffffff" stroke="#000000" points="0,-11.5 0,-30.5 38,-30.5 38,-11.5 0,-11.5"/>
<text text-anchor="middle" x="19" y="-18.5" font-family="Helvetica,sans-Serif" font-size="10.00" fill="#000000">main</text>
</a>
</g>
</g>
<!-- Node218&#45;&gt;Node219 -->
<g id="edge3" class="edge">
<title>Node218&#45;&gt;Node219</title>
<path fill="none" stroke="#191970" d="M63.699,-21C54.2733,-21 45.5447,-21 38.3489,-21"/>
<polygon fill="#191970" stroke="#191970" points="63.7389,-24.5001 73.7389,-21 63.7388,-17.5001 63.7389,-24.5001"/>
</g>
</g>
</svg>
