<?xml version="1.0" encoding="UTF-8" standalone="no"?>
<!DOCTYPE svg PUBLIC "-//W3C//DTD SVG 1.1//EN"
 "http://www.w3.org/Graphics/SVG/1.1/DTD/svg11.dtd">
<!-- Generated by graphviz version 2.40.1 (20161225.0304)
 -->
<!-- Title: Cleaner::calculateSpuriousVector Pages: 1 -->
<svg width="1063pt" height="53pt"
 viewBox="0.00 0.00 1063.00 52.50" xmlns="http://www.w3.org/2000/svg" xmlns:xlink="http://www.w3.org/1999/xlink">
<g id="graph0" class="graph" transform="scale(1 1) rotate(0) translate(4 48.5)">
<title>Cleaner::calculateSpuriousVector</title>
<polygon fill="#ffffff" stroke="transparent" points="-4,4 -4,-48.5 1059,-48.5 1059,4 -4,4"/>
<!-- Node40 -->
<g id="node1" class="node">
<title>Node40</title>
<g id="a_node1"><a xlink:title="Method to compute the overlap values. &#160;See Alignment::overlaps.">
<polygon fill="#bfbfbf" stroke="#000000" points="921,-14 921,-44 1055,-44 1055,-14 921,-14"/>
<text text-anchor="start" x="929" y="-32" font-family="Helvetica,sans-Serif" font-size="10.00" fill="#000000">Cleaner::calculateSpurious</text>
<text text-anchor="middle" x="988" y="-21" font-family="Helvetica,sans-Serif" font-size="10.00" fill="#000000">Vector</text>
</a>
</g>
</g>
<!-- Node41 -->
<g id="node2" class="node">
<title>Node41</title>
<g id="a_node2"><a xlink:href="class_cleaner.html#a5ceceb5b637a6d4e6a13c3b5d8d76c1d" target="_top" xlink:title="Method to remove sequences missaligned with the rest of sequences in the alignment....">
<polygon fill="#ffffff" stroke="#000000" points="750,-19.5 750,-38.5 885,-38.5 885,-19.5 750,-19.5"/>
<text text-anchor="middle" x="817.5" y="-26.5" font-family="Helvetica,sans-Serif" font-size="10.00" fill="#000000">Cleaner::cleanSpuriousSeq</text>
</a>
</g>
</g>
<!-- Node40&#45;&gt;Node41 -->
<g id="edge1" class="edge">
<title>Node40&#45;&gt;Node41</title>
<path fill="none" stroke="#191970" d="M910.4297,-29C902.0215,-29 893.5128,-29 885.2344,-29"/>
<polygon fill="#191970" stroke="#191970" points="910.6139,-32.5001 920.6139,-29 910.6139,-25.5001 910.6139,-32.5001"/>
</g>
<!-- Node42 -->
<g id="node3" class="node">
<title>Node42</title>
<g id="a_node3"><a xlink:href="classtrim_al_manager.html#a10536f715945a1a45f1df33f7cedc81e" target="_top" xlink:title="Method to trim or reduce the number of sequences in an alignment. It performs one or none of the foll...">
<polygon fill="#ffffff" stroke="#000000" points="554,-19.5 554,-38.5 714,-38.5 714,-19.5 554,-19.5"/>
<text text-anchor="middle" x="634" y="-26.5" font-family="Helvetica,sans-Serif" font-size="10.00" fill="#000000">trimAlManager::CleanSequences</text>
</a>
</g>
</g>
<!-- Node41&#45;&gt;Node42 -->
<g id="edge2" class="edge">
<title>Node41&#45;&gt;Node42</title>
<path fill="none" stroke="#191970" d="M739.73,-29C731.2664,-29 722.6403,-29 714.149,-29"/>
<polygon fill="#191970" stroke="#191970" points="739.9532,-32.5001 749.9531,-29 739.9531,-25.5001 739.9532,-32.5001"/>
</g>
<!-- Node43 -->
<g id="node4" class="node">
<title>Node43</title>
<g id="a_node4"><a xlink:href="classtrim_al_manager.html#adc529dd893ed4e9df6f3ddbd58776068" target="_top" xlink:title="Core Method of the program. This is where almost all cleaning methods are called from.">
<polygon fill="#ffffff" stroke="#000000" points="409,-14 409,-44 518,-44 518,-14 409,-14"/>
<text text-anchor="start" x="417" y="-32" font-family="Helvetica,sans-Serif" font-size="10.00" fill="#000000">trimAlManager::clean</text>
<text text-anchor="middle" x="463.5" y="-21" font-family="Helvetica,sans-Serif" font-size="10.00" fill="#000000">_alignment</text>
</a>
</g>
</g>
<!-- Node42&#45;&gt;Node43 -->
<g id="edge3" class="edge">
<title>Node42&#45;&gt;Node43</title>
<path fill="none" stroke="#191970" d="M543.5297,-29C534.8398,-29 526.2225,-29 518.0407,-29"/>
<polygon fill="#191970" stroke="#191970" points="543.7426,-32.5001 553.7426,-29 543.7425,-25.5001 543.7426,-32.5001"/>
</g>
<!-- Node44 -->
<g id="node5" class="node">
<title>Node44</title>
<g id="a_node5"><a xlink:href="classtrim_al_manager.html#abe8d2841455c644dc9c7d1294b82b00f" target="_top" xlink:title="Method to perform the analysis if all checks have passed.">
<polygon fill="#ffffff" stroke="#000000" points="74,-19.5 74,-38.5 193,-38.5 193,-19.5 74,-19.5"/>
<text text-anchor="middle" x="133.5" y="-26.5" font-family="Helvetica,sans-Serif" font-size="10.00" fill="#000000">trimAlManager::perform</text>
</a>
</g>
</g>
<!-- Node43&#45;&gt;Node44 -->
<g id="edge4" class="edge">
<title>Node43&#45;&gt;Node44</title>
<path fill="none" stroke="#191970" d="M398.5755,-29C338.9161,-29 251.2051,-29 193.243,-29"/>
<polygon fill="#191970" stroke="#191970" points="398.6368,-32.5001 408.6368,-29 398.6367,-25.5001 398.6368,-32.5001"/>
</g>
<!-- Node46 -->
<g id="node7" class="node">
<title>Node46</title>
<g id="a_node7"><a xlink:href="classtrim_al_manager.html#ac5795f93b3a2b51bf5d8dddd63b89f73" target="_top" xlink:title=" ">
<polygon fill="#ffffff" stroke="#000000" points="229,-.5 229,-19.5 373,-19.5 373,-.5 229,-.5"/>
<text text-anchor="middle" x="301" y="-7.5" font-family="Helvetica,sans-Serif" font-size="10.00" fill="#000000">trimAlManager::perform_VCF</text>
</a>
</g>
</g>
<!-- Node43&#45;&gt;Node46 -->
<g id="edge6" class="edge">
<title>Node43&#45;&gt;Node46</title>
<path fill="none" stroke="#191970" d="M398.7672,-21.4312C390.3063,-20.442 381.5959,-19.4235 373.0243,-18.4213"/>
<polygon fill="#191970" stroke="#191970" points="398.599,-24.9353 408.9378,-22.6204 399.412,-17.9827 398.599,-24.9353"/>
</g>
<!-- Node45 -->
<g id="node6" class="node">
<title>Node45</title>
<g id="a_node6"><a xlink:href="trim_al_main_8cpp.html#a0ddf1224851353fc92bfbff6f499fa97" target="_top" xlink:title=" ">
<polygon fill="#ffffff" stroke="#000000" points="0,-19.5 0,-38.5 38,-38.5 38,-19.5 0,-19.5"/>
<text text-anchor="middle" x="19" y="-26.5" font-family="Helvetica,sans-Serif" font-size="10.00" fill="#000000">main</text>
</a>
</g>
</g>
<!-- Node44&#45;&gt;Node45 -->
<g id="edge5" class="edge">
<title>Node44&#45;&gt;Node45</title>
<path fill="none" stroke="#191970" d="M63.6802,-29C54.3823,-29 45.5497,-29 38.2303,-29"/>
<polygon fill="#191970" stroke="#191970" points="63.9025,-32.5001 73.9024,-29 63.9024,-25.5001 63.9025,-32.5001"/>
</g>
<!-- Node46&#45;&gt;Node44 -->
<g id="edge7" class="edge">
<title>Node46&#45;&gt;Node44</title>
<path fill="none" stroke="#191970" d="M218.8378,-19.3199C210.1593,-20.3043 201.4581,-21.2913 193.107,-22.2386"/>
<polygon fill="#191970" stroke="#191970" points="219.4511,-22.7729 228.9928,-18.168 218.662,-15.8175 219.4511,-22.7729"/>
</g>
</g>
</svg>
