<?xml version="1.0" encoding="UTF-8" standalone="no"?>
<!DOCTYPE svg PUBLIC "-//W3C//DTD SVG 1.1//EN"
 "http://www.w3.org/Graphics/SVG/1.1/DTD/svg11.dtd">
<!-- Generated by graphviz version 2.40.1 (20161225.0304)
 -->
<!-- Title: Cleaner::cleanCompareFile Pages: 1 -->
<svg width="657pt" height="198pt"
 viewBox="0.00 0.00 657.00 197.50" xmlns="http://www.w3.org/2000/svg" xmlns:xlink="http://www.w3.org/1999/xlink">
<g id="graph0" class="graph" transform="scale(1 1) rotate(0) translate(4 193.5)">
<title>Cleaner::cleanCompareFile</title>
<polygon fill="#ffffff" stroke="transparent" points="-4,4 -4,-193.5 653,-193.5 653,4 -4,4"/>
<!-- Node183 -->
<g id="node1" class="node">
<title>Node183</title>
<g id="a_node1"><a xlink:title="Method to trim an alignment based on consistency values obtained from a dataset of alignments....">
<polygon fill="#bfbfbf" stroke="#000000" points="0,-57.5 0,-76.5 135,-76.5 135,-57.5 0,-57.5"/>
<text text-anchor="middle" x="67.5" y="-64.5" font-family="Helvetica,sans-Serif" font-size="10.00" fill="#000000">Cleaner::cleanCompareFile</text>
</a>
</g>
</g>
<!-- Node184 -->
<g id="node2" class="node">
<title>Node184</title>
<g id="a_node2"><a xlink:href="class_cleaner.html#a0e1e26d09055de52208ac74adf93b760" target="_top" xlink:title="Method to clean an alignment. &#160;It removes sequences that fall behind a certain threshold....">
<polygon fill="#ffffff" stroke="#000000" points="171,-115 171,-145 303,-145 303,-115 171,-115"/>
<text text-anchor="start" x="179" y="-133" font-family="Helvetica,sans-Serif" font-size="10.00" fill="#000000">Cleaner::cleanByCutValue</text>
<text text-anchor="middle" x="237" y="-122" font-family="Helvetica,sans-Serif" font-size="10.00" fill="#000000">FallBehind</text>
</a>
</g>
</g>
<!-- Node183&#45;&gt;Node184 -->
<g id="edge1" class="edge">
<title>Node183&#45;&gt;Node184</title>
<path fill="none" stroke="#191970" d="M93.2434,-76.5683C117.9794,-85.7622 156.0289,-99.9046 186.77,-111.3304"/>
<polygon fill="#191970" stroke="#191970" points="185.875,-114.7317 196.4679,-114.935 188.3138,-108.1702 185.875,-114.7317"/>
</g>
<!-- Node189 -->
<g id="node7" class="node">
<title>Node189</title>
<g id="a_node7"><a xlink:href="namespaceutils.html#a42f272221edf7752ffda49e4212ef653" target="_top" xlink:title="Integer vector copying.">
<polygon fill="#ffffff" stroke="#000000" points="196,-76.5 196,-95.5 278,-95.5 278,-76.5 196,-76.5"/>
<text text-anchor="middle" x="237" y="-83.5" font-family="Helvetica,sans-Serif" font-size="10.00" fill="#000000">utils::copyVect</text>
</a>
</g>
</g>
<!-- Node183&#45;&gt;Node189 -->
<g id="edge6" class="edge">
<title>Node183&#45;&gt;Node189</title>
<path fill="none" stroke="#191970" d="M135.4655,-74.6185C152.2381,-76.4987 169.9244,-78.4812 185.7525,-80.2554"/>
<polygon fill="#191970" stroke="#191970" points="185.5296,-83.7523 195.8572,-81.3881 186.3094,-76.7959 185.5296,-83.7523"/>
</g>
<!-- Node190 -->
<g id="node8" class="node">
<title>Node190</title>
<g id="a_node8"><a xlink:href="namespaceutils.html#ab04f5770187b0a8c36c3c8ca55f1e67f" target="_top" xlink:title="Minimum of two numbers method.">
<polygon fill="#ffffff" stroke="#000000" points="209,-38.5 209,-57.5 265,-57.5 265,-38.5 209,-38.5"/>
<text text-anchor="middle" x="237" y="-45.5" font-family="Helvetica,sans-Serif" font-size="10.00" fill="#000000">utils::min</text>
</a>
</g>
</g>
<!-- Node183&#45;&gt;Node190 -->
<g id="edge7" class="edge">
<title>Node183&#45;&gt;Node190</title>
<path fill="none" stroke="#191970" d="M135.4655,-59.3815C156.9691,-56.971 179.9746,-54.3922 198.6406,-52.2999"/>
<polygon fill="#191970" stroke="#191970" points="199.2575,-55.7527 208.8054,-51.1605 198.4777,-48.7963 199.2575,-55.7527"/>
</g>
<!-- Node191 -->
<g id="node9" class="node">
<title>Node191</title>
<g id="a_node9"><a xlink:href="namespaceutils.html#a73f038c379c13d23e3220afaa14f9983" target="_top" xlink:title="Quicksort sorting method.">
<polygon fill="#ffffff" stroke="#000000" points="197,-.5 197,-19.5 277,-19.5 277,-.5 197,-.5"/>
<text text-anchor="middle" x="237" y="-7.5" font-family="Helvetica,sans-Serif" font-size="10.00" fill="#000000">utils::quicksort</text>
</a>
</g>
</g>
<!-- Node183&#45;&gt;Node191 -->
<g id="edge8" class="edge">
<title>Node183&#45;&gt;Node191</title>
<path fill="none" stroke="#191970" d="M92.0032,-57.4408C112.8666,-49.4374 143.7101,-37.9252 171,-29 177.8565,-26.7576 185.1583,-24.5139 192.3121,-22.3948"/>
<polygon fill="#191970" stroke="#191970" points="193.299,-25.7529 201.9199,-19.5941 191.3399,-19.0326 193.299,-25.7529"/>
</g>
<!-- Node185 -->
<g id="node3" class="node">
<title>Node185</title>
<g id="a_node3"><a xlink:href="class_cleaner.html#ada8ad076dd037f00ae3f4fd17762641f" target="_top" xlink:title="Method that identifies and removes columns and sequences composed only by gaps.">
<polygon fill="#ffffff" stroke="#000000" points="342,-159 342,-189 488,-189 488,-159 342,-159"/>
<text text-anchor="start" x="350" y="-177" font-family="Helvetica,sans-Serif" font-size="10.00" fill="#000000">Cleaner::removeAllGapsSeqs</text>
<text text-anchor="middle" x="415" y="-166" font-family="Helvetica,sans-Serif" font-size="10.00" fill="#000000">AndCols</text>
</a>
</g>
</g>
<!-- Node184&#45;&gt;Node185 -->
<g id="edge2" class="edge">
<title>Node184&#45;&gt;Node185</title>
<path fill="none" stroke="#191970" d="M297.7597,-145.0192C312.7132,-148.7156 328.8534,-152.7053 344.2344,-156.5074"/>
<polygon fill="#191970" stroke="#191970" points="343.6644,-159.9718 354.2122,-158.9738 345.3443,-153.1763 343.6644,-159.9718"/>
</g>
<!-- Node187 -->
<g id="node5" class="node">
<title>Node187</title>
<g id="a_node5"><a xlink:href="class_cleaner.html#a5620f6a511bc0ac844c71b2de3ae1fdb" target="_top" xlink:title="Method to remove blocks of columns with no rejected residue smaller than a given size.">
<polygon fill="#ffffff" stroke="#000000" points="339,-120.5 339,-139.5 491,-139.5 491,-120.5 339,-120.5"/>
<text text-anchor="middle" x="415" y="-127.5" font-family="Helvetica,sans-Serif" font-size="10.00" fill="#000000">Cleaner::removeSmallerBlocks</text>
</a>
</g>
</g>
<!-- Node184&#45;&gt;Node187 -->
<g id="edge4" class="edge">
<title>Node184&#45;&gt;Node187</title>
<path fill="none" stroke="#191970" d="M303.0277,-130C311.419,-130 320.1027,-130 328.7518,-130"/>
<polygon fill="#191970" stroke="#191970" points="328.8696,-133.5001 338.8696,-130 328.8695,-126.5001 328.8696,-133.5001"/>
</g>
<!-- Node188 -->
<g id="node6" class="node">
<title>Node188</title>
<g id="a_node6"><a xlink:href="namespaceutils.html#ad50731aeb3c8f79ed8372516210dfc9d" target="_top" xlink:title="Round double to integer method.">
<polygon fill="#ffffff" stroke="#000000" points="377,-82.5 377,-101.5 453,-101.5 453,-82.5 377,-82.5"/>
<text text-anchor="middle" x="415" y="-89.5" font-family="Helvetica,sans-Serif" font-size="10.00" fill="#000000">utils::roundInt</text>
</a>
</g>
</g>
<!-- Node184&#45;&gt;Node188 -->
<g id="edge5" class="edge">
<title>Node184&#45;&gt;Node188</title>
<path fill="none" stroke="#191970" d="M303.0277,-115.9042C324.2595,-111.3716 347.3636,-106.4392 367.0408,-102.2385"/>
<polygon fill="#191970" stroke="#191970" points="367.9414,-105.6252 376.9903,-100.1144 366.4799,-98.7794 367.9414,-105.6252"/>
</g>
<!-- Node186 -->
<g id="node4" class="node">
<title>Node186</title>
<g id="a_node4"><a xlink:href="classreporting_1_1report_manager.html#a6d122e673144584e0869bd33b8a5c1c6" target="_top" xlink:title="Method to report an Error. &#160;It will be displayed if Level &#160;is equal or higher to VerboseLevel::ERROR.">
<polygon fill="#ffffff" stroke="#000000" points="527,-159 527,-189 649,-189 649,-159 527,-159"/>
<text text-anchor="start" x="535" y="-177" font-family="Helvetica,sans-Serif" font-size="10.00" fill="#000000">reporting::reportManager</text>
<text text-anchor="middle" x="588" y="-166" font-family="Helvetica,sans-Serif" font-size="10.00" fill="#000000">::report</text>
</a>
</g>
</g>
<!-- Node185&#45;&gt;Node186 -->
<g id="edge3" class="edge">
<title>Node185&#45;&gt;Node186</title>
<path fill="none" stroke="#191970" d="M488.1168,-174C497.598,-174 507.299,-174 516.7492,-174"/>
<polygon fill="#191970" stroke="#191970" points="516.8831,-177.5001 526.8831,-174 516.883,-170.5001 516.8831,-177.5001"/>
</g>
<!-- Node192 -->
<g id="node10" class="node">
<title>Node192</title>
<g id="a_node10"><a xlink:href="namespaceutils.html#a3377ecde55631d1bbc4956e5923b7469" target="_top" xlink:title="Swapping elements method.">
<polygon fill="#ffffff" stroke="#000000" points="383,-.5 383,-19.5 447,-19.5 447,-.5 383,-.5"/>
<text text-anchor="middle" x="415" y="-7.5" font-family="Helvetica,sans-Serif" font-size="10.00" fill="#000000">utils::swap</text>
</a>
</g>
</g>
<!-- Node191&#45;&gt;Node192 -->
<g id="edge9" class="edge">
<title>Node191&#45;&gt;Node192</title>
<path fill="none" stroke="#191970" d="M277.391,-10C305.8021,-10 343.7466,-10 372.5947,-10"/>
<polygon fill="#191970" stroke="#191970" points="372.7769,-13.5001 382.7768,-10 372.7768,-6.5001 372.7769,-13.5001"/>
</g>
</g>
</svg>
