<?xml version="1.0" encoding="UTF-8" standalone="no"?>
<!DOCTYPE svg PUBLIC "-//W3C//DTD SVG 1.1//EN"
 "http://www.w3.org/Graphics/SVG/1.1/DTD/svg11.dtd">
<!-- Generated by graphviz version 2.40.1 (20161225.0304)
 -->
<!-- Title: Cleaner::calculateSpuriousVector Pages: 1 -->
<svg width="491pt" height="39pt"
 viewBox="0.00 0.00 491.00 39.00" xmlns="http://www.w3.org/2000/svg" xmlns:xlink="http://www.w3.org/1999/xlink">
<g id="graph0" class="graph" transform="scale(1 1) rotate(0) translate(4 35)">
<title>Cleaner::calculateSpuriousVector</title>
<polygon fill="#ffffff" stroke="transparent" points="-4,4 -4,-35 487,-35 487,4 -4,4"/>
<!-- Node37 -->
<g id="node1" class="node">
<title>Node37</title>
<g id="a_node1"><a xlink:title="Method to compute the overlap values. &#160;See Alignment::overlaps.">
<polygon fill="#bfbfbf" stroke="#000000" points="0,-.5 0,-30.5 134,-30.5 134,-.5 0,-.5"/>
<text text-anchor="start" x="8" y="-18.5" font-family="Helvetica,sans-Serif" font-size="10.00" fill="#000000">Cleaner::calculateSpurious</text>
<text text-anchor="middle" x="67" y="-7.5" font-family="Helvetica,sans-Serif" font-size="10.00" fill="#000000">Vector</text>
</a>
</g>
</g>
<!-- Node38 -->
<g id="node2" class="node">
<title>Node38</title>
<g id="a_node2"><a xlink:href="class_alignment.html#a1bc7622776f3935f6cb9d3c895e43a29" target="_top" xlink:title="Alignment type getter. &#160;&#160;See SequenceTypes.">
<polygon fill="#ffffff" stroke="#000000" points="170,-6 170,-25 315,-25 315,-6 170,-6"/>
<text text-anchor="middle" x="242.5" y="-13" font-family="Helvetica,sans-Serif" font-size="10.00" fill="#000000">Alignment::getAlignmentType</text>
</a>
</g>
</g>
<!-- Node37&#45;&gt;Node38 -->
<g id="edge1" class="edge">
<title>Node37&#45;&gt;Node38</title>
<path fill="none" stroke="#191970" d="M134.1002,-15.5C142.5159,-15.5 151.2002,-15.5 159.819,-15.5"/>
<polygon fill="#191970" stroke="#191970" points="159.8868,-19.0001 169.8868,-15.5 159.8867,-12.0001 159.8868,-19.0001"/>
</g>
<!-- Node39 -->
<g id="node3" class="node">
<title>Node39</title>
<g id="a_node3"><a xlink:href="namespaceutils.html#aab52f9515717f06cafd6ab7fe2ebdcef" target="_top" xlink:title="Checks an alignment type.">
<polygon fill="#ffffff" stroke="#000000" points="351,-6 351,-25 483,-25 483,-6 351,-6"/>
<text text-anchor="middle" x="417" y="-13" font-family="Helvetica,sans-Serif" font-size="10.00" fill="#000000">utils::checkAlignmentType</text>
</a>
</g>
</g>
<!-- Node38&#45;&gt;Node39 -->
<g id="edge2" class="edge">
<title>Node38&#45;&gt;Node39</title>
<path fill="none" stroke="#191970" d="M315.2401,-15.5C323.6172,-15.5 332.1779,-15.5 340.6016,-15.5"/>
<polygon fill="#191970" stroke="#191970" points="340.7871,-19.0001 350.787,-15.5 340.787,-12.0001 340.7871,-19.0001"/>
</g>
</g>
</svg>
