<?xml version="1.0" encoding="UTF-8" standalone="no"?>
<!DOCTYPE svg PUBLIC "-//W3C//DTD SVG 1.1//EN"
 "http://www.w3.org/Graphics/SVG/1.1/DTD/svg11.dtd">
<!-- Generated by graphviz version 2.40.1 (20161225.0304)
 -->
<!-- Title: statistics::Mold::applyWindow Pages: 1 -->
<svg width="320pt" height="78pt"
 viewBox="0.00 0.00 320.00 77.50" xmlns="http://www.w3.org/2000/svg" xmlns:xlink="http://www.w3.org/1999/xlink">
<g id="graph0" class="graph" transform="scale(1 1) rotate(0) translate(4 73.5)">
<title>statistics::Mold::applyWindow</title>
<polygon fill="#ffffff" stroke="transparent" points="-4,4 -4,-73.5 316,-73.5 316,4 -4,4"/>
<!-- Node6 -->
<g id="node1" class="node">
<title>Node6</title>
<g id="a_node1"><a xlink:title=" ">
<polygon fill="#bfbfbf" stroke="#000000" points="0,-28 0,-47 148,-47 148,-28 0,-28"/>
<text text-anchor="middle" x="74" y="-35" font-family="Helvetica,sans-Serif" font-size="10.00" fill="#000000">statistics::Mold::applyWindow</text>
</a>
</g>
</g>
<!-- Node7 -->
<g id="node2" class="node">
<title>Node7</title>
<g id="a_node2"><a xlink:href="classstatistics_1_1_mold.html#a45baed5f3a6e460f0e248739b1bc4078" target="_top" xlink:title=" ">
<polygon fill="#ffffff" stroke="#000000" points="184,-50 184,-69 312,-69 312,-50 184,-50"/>
<text text-anchor="middle" x="248" y="-57" font-family="Helvetica,sans-Serif" font-size="10.00" fill="#000000">statistics::Mold::calculate</text>
</a>
</g>
</g>
<!-- Node6&#45;&gt;Node7 -->
<g id="edge1" class="edge">
<title>Node6&#45;&gt;Node7</title>
<path fill="none" stroke="#191970" d="M148.044,-46.8619C156.6202,-47.9462 165.3682,-49.0523 173.9445,-50.1367"/>
<polygon fill="#191970" stroke="#191970" points="173.5529,-53.6149 183.913,-51.397 174.431,-46.6702 173.5529,-53.6149"/>
</g>
<!-- Node8 -->
<g id="node3" class="node">
<title>Node8</title>
<g id="a_node3"><a xlink:href="classreporting_1_1report_manager.html#a6d122e673144584e0869bd33b8a5c1c6" target="_top" xlink:title="Method to report an Error. &#160;It will be displayed if Level &#160;is equal or higher to VerboseLevel::ERROR.">
<polygon fill="#ffffff" stroke="#000000" points="187,-.5 187,-30.5 309,-30.5 309,-.5 187,-.5"/>
<text text-anchor="start" x="195" y="-18.5" font-family="Helvetica,sans-Serif" font-size="10.00" fill="#000000">reporting::reportManager</text>
<text text-anchor="middle" x="248" y="-7.5" font-family="Helvetica,sans-Serif" font-size="10.00" fill="#000000">::report</text>
</a>
</g>
</g>
<!-- Node6&#45;&gt;Node8 -->
<g id="edge2" class="edge">
<title>Node6&#45;&gt;Node8</title>
<path fill="none" stroke="#191970" d="M148.044,-28.1381C157.5538,-26.9357 167.2749,-25.7066 176.739,-24.51"/>
<polygon fill="#191970" stroke="#191970" points="177.4034,-27.954 186.8854,-23.2271 176.5253,-21.0092 177.4034,-27.954"/>
</g>
</g>
</svg>
