<?xml version="1.0" encoding="UTF-8" standalone="no"?>
<!DOCTYPE svg PUBLIC "-//W3C//DTD SVG 1.1//EN"
 "http://www.w3.org/Graphics/SVG/1.1/DTD/svg11.dtd">
<!-- Generated by graphviz version 2.40.1 (20161225.0304)
 -->
<!-- Title: Cleaner::removeOnlyTerminal Pages: 1 -->
<svg width="678pt" height="164pt"
 viewBox="0.00 0.00 678.00 163.92" xmlns="http://www.w3.org/2000/svg" xmlns:xlink="http://www.w3.org/1999/xlink">
<g id="graph0" class="graph" transform="scale(1 1) rotate(0) translate(4 159.9157)">
<title>Cleaner::removeOnlyTerminal</title>
<polygon fill="#ffffff" stroke="transparent" points="-4,4 -4,-159.9157 674,-159.9157 674,4 -4,4"/>
<!-- Node382 -->
<g id="node1" class="node">
<title>Node382</title>
<g id="a_node1"><a xlink:title="Method to detect right and left borders. Borders are the first column found with no gaps....">
<polygon fill="#bfbfbf" stroke="#000000" points="0,-79 0,-98 146,-98 146,-79 0,-79"/>
<text text-anchor="middle" x="73" y="-86" font-family="Helvetica,sans-Serif" font-size="10.00" fill="#000000">Cleaner::removeOnlyTerminal</text>
</a>
</g>
</g>
<!-- Node383 -->
<g id="node2" class="node">
<title>Node383</title>
<g id="a_node2"><a xlink:href="classstatistics_1_1_manager.html#a1969a416d3020d25daa56de6c5e305db" target="_top" xlink:title="Method to handle gap stat calculation It checks if the gaps submodule has been created,...">
<polygon fill="#ffffff" stroke="#000000" points="202.5,-98.5 202.5,-128.5 305.5,-128.5 305.5,-98.5 202.5,-98.5"/>
<text text-anchor="start" x="210.5" y="-116.5" font-family="Helvetica,sans-Serif" font-size="10.00" fill="#000000">statistics::Manager</text>
<text text-anchor="middle" x="254" y="-105.5" font-family="Helvetica,sans-Serif" font-size="10.00" fill="#000000">::calculateGapStats</text>
</a>
</g>
</g>
<!-- Node382&#45;&gt;Node383 -->
<g id="edge1" class="edge">
<title>Node382&#45;&gt;Node383</title>
<path fill="none" stroke="#191970" d="M141.9447,-98.0227C158.5739,-100.3196 176.2341,-102.7589 192.4973,-105.0052"/>
<polygon fill="#191970" stroke="#191970" points="192.0364,-108.4746 202.4212,-106.3759 192.9942,-101.5405 192.0364,-108.4746"/>
</g>
<!-- Node386 -->
<g id="node5" class="node">
<title>Node386</title>
<g id="a_node5"><a xlink:href="classreporting_1_1report_manager.html#a6d122e673144584e0869bd33b8a5c1c6" target="_top" xlink:title="Method to report an Error. &#160;It will be displayed if Level &#160;is equal or higher to VerboseLevel::ERROR.">
<polygon fill="#ffffff" stroke="#000000" points="548,-120.5 548,-150.5 670,-150.5 670,-120.5 548,-120.5"/>
<text text-anchor="start" x="556" y="-138.5" font-family="Helvetica,sans-Serif" font-size="10.00" fill="#000000">reporting::reportManager</text>
<text text-anchor="middle" x="609" y="-127.5" font-family="Helvetica,sans-Serif" font-size="10.00" fill="#000000">::report</text>
</a>
</g>
</g>
<!-- Node382&#45;&gt;Node386 -->
<g id="edge10" class="edge">
<title>Node382&#45;&gt;Node386</title>
<path fill="none" stroke="#191970" d="M88.1409,-98.0143C108.5392,-110.2151 146.4049,-130.7255 182,-138.5 304.665,-165.292 451.9184,-155.3207 537.5361,-145.5033"/>
<polygon fill="#191970" stroke="#191970" points="538.1444,-148.956 547.6659,-144.3094 537.3249,-142.0041 538.1444,-148.956"/>
</g>
<!-- Node389 -->
<g id="node8" class="node">
<title>Node389</title>
<g id="a_node8"><a xlink:href="classstatistics_1_1_gaps.html#ab5b60db326475f8adc68b130e22b3963" target="_top" xlink:title=" ">
<polygon fill="#ffffff" stroke="#000000" points="190,-49.5 190,-79.5 318,-79.5 318,-49.5 190,-49.5"/>
<text text-anchor="start" x="198" y="-67.5" font-family="Helvetica,sans-Serif" font-size="10.00" fill="#000000">statistics::Gaps::getGaps</text>
<text text-anchor="middle" x="254" y="-56.5" font-family="Helvetica,sans-Serif" font-size="10.00" fill="#000000">Window</text>
</a>
</g>
</g>
<!-- Node382&#45;&gt;Node389 -->
<g id="edge7" class="edge">
<title>Node382&#45;&gt;Node389</title>
<path fill="none" stroke="#191970" d="M144.796,-78.9801C156.323,-77.4517 168.2733,-75.8671 179.8541,-74.3315"/>
<polygon fill="#191970" stroke="#191970" points="180.4629,-77.7815 189.916,-72.9973 179.5427,-70.8422 180.4629,-77.7815"/>
</g>
<!-- Node391 -->
<g id="node10" class="node">
<title>Node391</title>
<g id="a_node10"><a xlink:href="class_alignment.html#ae04b9e10e25daafb2b4592e19e63cecd" target="_top" xlink:title="Updates the sequence number and residue number based on saveResidues and saveSequences.">
<polygon fill="#ffffff" stroke="#000000" points="182,-.5 182,-30.5 326,-30.5 326,-.5 182,-.5"/>
<text text-anchor="start" x="190" y="-18.5" font-family="Helvetica,sans-Serif" font-size="10.00" fill="#000000">Alignment::updateSequences</text>
<text text-anchor="middle" x="254" y="-7.5" font-family="Helvetica,sans-Serif" font-size="10.00" fill="#000000">AndResiduesNums</text>
</a>
</g>
</g>
<!-- Node382&#45;&gt;Node391 -->
<g id="edge11" class="edge">
<title>Node382&#45;&gt;Node391</title>
<path fill="none" stroke="#191970" d="M92.8327,-78.8567C114.4836,-68.5016 150.3023,-51.8714 182,-39.5 186.787,-37.6317 191.7865,-35.7756 196.8226,-33.9714"/>
<polygon fill="#191970" stroke="#191970" points="198.2276,-37.1877 206.5064,-30.5761 195.9115,-30.582 198.2276,-37.1877"/>
</g>
<!-- Node384 -->
<g id="node3" class="node">
<title>Node384</title>
<g id="a_node3"><a xlink:href="classstatistics_1_1_gaps.html#aa3526494d5100e062daa4afba755d0b1" target="_top" xlink:title=" ">
<polygon fill="#ffffff" stroke="#000000" points="370.5,-98.5 370.5,-128.5 503.5,-128.5 503.5,-98.5 370.5,-98.5"/>
<text text-anchor="start" x="378.5" y="-116.5" font-family="Helvetica,sans-Serif" font-size="10.00" fill="#000000">statistics::Gaps::Calculate</text>
<text text-anchor="middle" x="437" y="-105.5" font-family="Helvetica,sans-Serif" font-size="10.00" fill="#000000">Vectors</text>
</a>
</g>
</g>
<!-- Node383&#45;&gt;Node384 -->
<g id="edge2" class="edge">
<title>Node383&#45;&gt;Node384</title>
<path fill="none" stroke="#191970" d="M305.951,-113.5C322.8019,-113.5 341.869,-113.5 360.1369,-113.5"/>
<polygon fill="#191970" stroke="#191970" points="360.1844,-117.0001 370.1844,-113.5 360.1843,-110.0001 360.1844,-117.0001"/>
</g>
<!-- Node385 -->
<g id="node4" class="node">
<title>Node385</title>
<g id="a_node4"><a xlink:href="classstatistics_1_1_gaps.html#aee36b772767467cdba2061df2305e85d" target="_top" xlink:title=" ">
<polygon fill="#ffffff" stroke="#000000" points="362,-60 362,-79 512,-79 512,-60 362,-60"/>
<text text-anchor="middle" x="437" y="-67" font-family="Helvetica,sans-Serif" font-size="10.00" fill="#000000">statistics::Gaps::applyWindow</text>
</a>
</g>
</g>
<!-- Node383&#45;&gt;Node385 -->
<g id="edge3" class="edge">
<title>Node383&#45;&gt;Node385</title>
<path fill="none" stroke="#191970" d="M305.951,-101.0091C331.6047,-94.8409 362.3945,-87.4379 387.6817,-81.3579"/>
<polygon fill="#191970" stroke="#191970" points="388.5314,-84.7535 397.4361,-79.0126 386.895,-77.9474 388.5314,-84.7535"/>
</g>
<!-- Node385&#45;&gt;Node386 -->
<g id="edge4" class="edge">
<title>Node385&#45;&gt;Node386</title>
<path fill="none" stroke="#191970" d="M478.7388,-79.0224C489.7007,-81.958 501.4144,-85.4899 512,-89.5 528.7284,-95.8372 531.8689,-99.7677 548,-107.5 553.8614,-110.3096 560.0646,-113.2242 566.1825,-116.0647"/>
<polygon fill="#191970" stroke="#191970" points="565.1182,-119.4283 575.6644,-120.4415 568.0519,-113.0727 565.1182,-119.4283"/>
</g>
<!-- Node387 -->
<g id="node6" class="node">
<title>Node387</title>
<g id="a_node6"><a xlink:href="namespaceutils.html#aac322cd1761fddedec8a5792e358eb32" target="_top" xlink:title="Vector initialization.">
<polygon fill="#ffffff" stroke="#000000" points="571,-41 571,-60 647,-60 647,-41 571,-41"/>
<text text-anchor="middle" x="609" y="-48" font-family="Helvetica,sans-Serif" font-size="10.00" fill="#000000">utils::initlVect</text>
</a>
</g>
</g>
<!-- Node385&#45;&gt;Node387 -->
<g id="edge5" class="edge">
<title>Node385&#45;&gt;Node387</title>
<path fill="none" stroke="#191970" d="M512.1915,-61.194C528.6435,-59.3766 545.6317,-57.5 560.696,-55.8359"/>
<polygon fill="#191970" stroke="#191970" points="561.2324,-59.298 570.7876,-54.7211 560.4637,-52.3404 561.2324,-59.298"/>
</g>
<!-- Node388 -->
<g id="node7" class="node">
<title>Node388</title>
<g id="a_node7"><a xlink:href="namespaceutils.html#ad50731aeb3c8f79ed8372516210dfc9d" target="_top" xlink:title="Round double to integer method.">
<polygon fill="#ffffff" stroke="#000000" points="571,-79 571,-98 647,-98 647,-79 571,-79"/>
<text text-anchor="middle" x="609" y="-86" font-family="Helvetica,sans-Serif" font-size="10.00" fill="#000000">utils::roundInt</text>
</a>
</g>
</g>
<!-- Node385&#45;&gt;Node388 -->
<g id="edge6" class="edge">
<title>Node385&#45;&gt;Node388</title>
<path fill="none" stroke="#191970" d="M512.1915,-77.806C528.6435,-79.6234 545.6317,-81.5 560.696,-83.1641"/>
<polygon fill="#191970" stroke="#191970" points="560.4637,-86.6596 570.7876,-84.2789 561.2324,-79.702 560.4637,-86.6596"/>
</g>
<!-- Node389&#45;&gt;Node385 -->
<g id="edge9" class="edge">
<title>Node389&#45;&gt;Node385</title>
<path fill="none" stroke="#191970" d="M318.0045,-66.2488C328.8156,-66.5441 340.1913,-66.855 351.4464,-67.1625"/>
<polygon fill="#191970" stroke="#191970" points="351.6374,-70.6689 361.7293,-67.4434 351.8286,-63.6715 351.6374,-70.6689"/>
</g>
<!-- Node390 -->
<g id="node9" class="node">
<title>Node390</title>
<g id="a_node9"><a xlink:href="classstatistics_1_1_gaps.html#ad812a924cf5e3f900aad3ed4a9664300" target="_top" xlink:title=" ">
<polygon fill="#ffffff" stroke="#000000" points="370.5,-10.5 370.5,-40.5 503.5,-40.5 503.5,-10.5 370.5,-10.5"/>
<text text-anchor="start" x="378.5" y="-28.5" font-family="Helvetica,sans-Serif" font-size="10.00" fill="#000000">statistics::Gaps::isDefined</text>
<text text-anchor="middle" x="437" y="-17.5" font-family="Helvetica,sans-Serif" font-size="10.00" fill="#000000">Window</text>
</a>
</g>
</g>
<!-- Node389&#45;&gt;Node390 -->
<g id="edge8" class="edge">
<title>Node389&#45;&gt;Node390</title>
<path fill="none" stroke="#191970" d="M318.0045,-50.8597C331.6066,-47.9609 346.1023,-44.8716 360.1273,-41.8827"/>
<polygon fill="#191970" stroke="#191970" points="361.1862,-45.2357 370.237,-39.7282 359.7271,-38.3895 361.1862,-45.2357"/>
</g>
</g>
</svg>
