<?xml version="1.0" encoding="UTF-8" standalone="no"?>
<!DOCTYPE svg PUBLIC "-//W3C//DTD SVG 1.1//EN"
 "http://www.w3.org/Graphics/SVG/1.1/DTD/svg11.dtd">
<!-- Generated by graphviz version 2.40.1 (20161225.0304)
 -->
<!-- Title: Cleaner::calculateRepresentativeSeq Pages: 1 -->
<svg width="717pt" height="142pt"
 viewBox="0.00 0.00 717.00 142.00" xmlns="http://www.w3.org/2000/svg" xmlns:xlink="http://www.w3.org/1999/xlink">
<g id="graph0" class="graph" transform="scale(1 1) rotate(0) translate(4 138)">
<title>Cleaner::calculateRepresentativeSeq</title>
<polygon fill="#ffffff" stroke="transparent" points="-4,4 -4,-138 713,-138 713,4 -4,4"/>
<!-- Node6 -->
<g id="node1" class="node">
<title>Node6</title>
<g id="a_node1"><a xlink:title="Method to assign sequences to clusters. Clusters are calculated following this flow:">
<polygon fill="#bfbfbf" stroke="#000000" points="0,-57.5 0,-76.5 179,-76.5 179,-57.5 0,-57.5"/>
<text text-anchor="middle" x="89.5" y="-64.5" font-family="Helvetica,sans-Serif" font-size="10.00" fill="#000000">Cleaner::calculateRepresentativeSeq</text>
</a>
</g>
</g>
<!-- Node7 -->
<g id="node2" class="node">
<title>Node7</title>
<g id="a_node2"><a xlink:href="class_cleaner.html#a65d829578be97c192561a129435b3c58" target="_top" xlink:title="Method to calculate identities between the sequences from the alignment. See Alignment::identities.">
<polygon fill="#ffffff" stroke="#000000" points="215,-114.5 215,-133.5 360,-133.5 360,-114.5 215,-114.5"/>
<text text-anchor="middle" x="287.5" y="-121.5" font-family="Helvetica,sans-Serif" font-size="10.00" fill="#000000">Cleaner::calculateSeqIdentity</text>
</a>
</g>
</g>
<!-- Node6&#45;&gt;Node7 -->
<g id="edge1" class="edge">
<title>Node6&#45;&gt;Node7</title>
<path fill="none" stroke="#191970" d="M119.8377,-76.5361C145.1973,-84.4231 182.356,-95.7839 215,-105 223.1004,-107.2869 231.7362,-109.6312 240.1197,-111.8579"/>
<polygon fill="#191970" stroke="#191970" points="239.2363,-115.2446 249.798,-114.4074 241.0194,-108.4755 239.2363,-115.2446"/>
</g>
<!-- Node10 -->
<g id="node5" class="node">
<title>Node10</title>
<g id="a_node5"><a xlink:href="namespaceutils.html#a40640e1942f00797e9fe8284e8fbdb14" target="_top" xlink:title="Maximum of two numbers method.">
<polygon fill="#ffffff" stroke="#000000" points="258,-76.5 258,-95.5 317,-95.5 317,-76.5 258,-76.5"/>
<text text-anchor="middle" x="287.5" y="-83.5" font-family="Helvetica,sans-Serif" font-size="10.00" fill="#000000">utils::max</text>
</a>
</g>
</g>
<!-- Node6&#45;&gt;Node10 -->
<g id="edge4" class="edge">
<title>Node6&#45;&gt;Node10</title>
<path fill="none" stroke="#191970" d="M179.2308,-75.6105C203.1691,-77.9076 227.8367,-80.2747 247.5688,-82.1682"/>
<polygon fill="#191970" stroke="#191970" points="247.408,-85.6688 257.6967,-83.1401 248.0767,-78.7008 247.408,-85.6688"/>
</g>
<!-- Node11 -->
<g id="node6" class="node">
<title>Node11</title>
<g id="a_node6"><a xlink:href="namespaceutils.html#a73f038c379c13d23e3220afaa14f9983" target="_top" xlink:title="Quicksort sorting method.">
<polygon fill="#ffffff" stroke="#000000" points="247.5,-38.5 247.5,-57.5 327.5,-57.5 327.5,-38.5 247.5,-38.5"/>
<text text-anchor="middle" x="287.5" y="-45.5" font-family="Helvetica,sans-Serif" font-size="10.00" fill="#000000">utils::quicksort</text>
</a>
</g>
</g>
<!-- Node6&#45;&gt;Node11 -->
<g id="edge5" class="edge">
<title>Node6&#45;&gt;Node11</title>
<path fill="none" stroke="#191970" d="M179.2308,-58.3895C199.1602,-56.477 219.5951,-54.5161 237.2666,-52.8204"/>
<polygon fill="#191970" stroke="#191970" points="237.7075,-56.2942 247.3274,-51.8549 237.0388,-49.3262 237.7075,-56.2942"/>
</g>
<!-- Node13 -->
<g id="node8" class="node">
<title>Node13</title>
<g id="a_node8"><a xlink:href="namespaceutils.html#ac0a8721fef543bec18cec5c90c16faff" target="_top" xlink:title="Removes a determined char from the string.">
<polygon fill="#ffffff" stroke="#000000" points="229.5,-.5 229.5,-19.5 345.5,-19.5 345.5,-.5 229.5,-.5"/>
<text text-anchor="middle" x="287.5" y="-7.5" font-family="Helvetica,sans-Serif" font-size="10.00" fill="#000000">utils::removeCharacter</text>
</a>
</g>
</g>
<!-- Node6&#45;&gt;Node13 -->
<g id="edge7" class="edge">
<title>Node6&#45;&gt;Node13</title>
<path fill="none" stroke="#191970" d="M119.8377,-57.4639C145.1973,-49.5769 182.356,-38.2161 215,-29 223.1004,-26.7131 231.7362,-24.3688 240.1197,-22.1421"/>
<polygon fill="#191970" stroke="#191970" points="241.0194,-25.5245 249.798,-19.5926 239.2363,-18.7554 241.0194,-25.5245"/>
</g>
<!-- Node8 -->
<g id="node3" class="node">
<title>Node8</title>
<g id="a_node3"><a xlink:href="class_alignment.html#a1bc7622776f3935f6cb9d3c895e43a29" target="_top" xlink:title="Alignment type getter. &#160;&#160;See SequenceTypes.">
<polygon fill="#ffffff" stroke="#000000" points="396,-114.5 396,-133.5 541,-133.5 541,-114.5 396,-114.5"/>
<text text-anchor="middle" x="468.5" y="-121.5" font-family="Helvetica,sans-Serif" font-size="10.00" fill="#000000">Alignment::getAlignmentType</text>
</a>
</g>
</g>
<!-- Node7&#45;&gt;Node8 -->
<g id="edge2" class="edge">
<title>Node7&#45;&gt;Node8</title>
<path fill="none" stroke="#191970" d="M360.0767,-124C368.5595,-124 377.2611,-124 385.8671,-124"/>
<polygon fill="#191970" stroke="#191970" points="385.907,-127.5001 395.907,-124 385.907,-120.5001 385.907,-127.5001"/>
</g>
<!-- Node9 -->
<g id="node4" class="node">
<title>Node9</title>
<g id="a_node4"><a xlink:href="namespaceutils.html#aab52f9515717f06cafd6ab7fe2ebdcef" target="_top" xlink:title="Checks an alignment type.">
<polygon fill="#ffffff" stroke="#000000" points="577,-114.5 577,-133.5 709,-133.5 709,-114.5 577,-114.5"/>
<text text-anchor="middle" x="643" y="-121.5" font-family="Helvetica,sans-Serif" font-size="10.00" fill="#000000">utils::checkAlignmentType</text>
</a>
</g>
</g>
<!-- Node8&#45;&gt;Node9 -->
<g id="edge3" class="edge">
<title>Node8&#45;&gt;Node9</title>
<path fill="none" stroke="#191970" d="M541.2401,-124C549.6172,-124 558.1779,-124 566.6016,-124"/>
<polygon fill="#191970" stroke="#191970" points="566.7871,-127.5001 576.787,-124 566.787,-120.5001 566.7871,-127.5001"/>
</g>
<!-- Node12 -->
<g id="node7" class="node">
<title>Node12</title>
<g id="a_node7"><a xlink:href="namespaceutils.html#a3377ecde55631d1bbc4956e5923b7469" target="_top" xlink:title="Swapping elements method.">
<polygon fill="#ffffff" stroke="#000000" points="436.5,-38.5 436.5,-57.5 500.5,-57.5 500.5,-38.5 436.5,-38.5"/>
<text text-anchor="middle" x="468.5" y="-45.5" font-family="Helvetica,sans-Serif" font-size="10.00" fill="#000000">utils::swap</text>
</a>
</g>
</g>
<!-- Node11&#45;&gt;Node12 -->
<g id="edge6" class="edge">
<title>Node11&#45;&gt;Node12</title>
<path fill="none" stroke="#191970" d="M327.6698,-48C356.9233,-48 396.4643,-48 426.2013,-48"/>
<polygon fill="#191970" stroke="#191970" points="426.2778,-51.5001 436.2778,-48 426.2777,-44.5001 426.2778,-51.5001"/>
</g>
</g>
</svg>
