<?xml version="1.0" encoding="UTF-8" standalone="no"?>
<!DOCTYPE svg PUBLIC "-//W3C//DTD SVG 1.1//EN"
 "http://www.w3.org/Graphics/SVG/1.1/DTD/svg11.dtd">
<!-- Generated by graphviz version 2.40.1 (20161225.0304)
 -->
<!-- Title: trimAlManager::help_arguments Pages: 1 -->
<svg width="474pt" height="154pt"
 viewBox="0.00 0.00 474.00 153.50" xmlns="http://www.w3.org/2000/svg" xmlns:xlink="http://www.w3.org/1999/xlink">
<g id="graph0" class="graph" transform="scale(1 1) rotate(0) translate(4 149.5)">
<title>trimAlManager::help_arguments</title>
<polygon fill="#ffffff" stroke="transparent" points="-4,4 -4,-149.5 470,-149.5 470,4 -4,4"/>
<!-- Node527 -->
<g id="node1" class="node">
<title>Node527</title>
<g id="a_node1"><a xlink:title="Method to parse information arguments as help and menu.">
<polygon fill="#bfbfbf" stroke="#000000" points="0,-63.5 0,-93.5 104,-93.5 104,-63.5 0,-63.5"/>
<text text-anchor="start" x="8" y="-81.5" font-family="Helvetica,sans-Serif" font-size="10.00" fill="#000000">trimAlManager::help</text>
<text text-anchor="middle" x="52" y="-70.5" font-family="Helvetica,sans-Serif" font-size="10.00" fill="#000000">_arguments</text>
</a>
</g>
</g>
<!-- Node528 -->
<g id="node2" class="node">
<title>Node528</title>
<g id="a_node2"><a xlink:href="classtrim_al_manager.html#a5716d2e2a6d21b7f2bacbf284b5bd75b" target="_top" xlink:title="Method to show the examples information about the program.">
<polygon fill="#ffffff" stroke="#000000" points="140,-126 140,-145 268,-145 268,-126 140,-126"/>
<text text-anchor="middle" x="204" y="-133" font-family="Helvetica,sans-Serif" font-size="10.00" fill="#000000">trimAlManager::examples</text>
</a>
</g>
</g>
<!-- Node527&#45;&gt;Node528 -->
<g id="edge1" class="edge">
<title>Node527&#45;&gt;Node528</title>
<path fill="none" stroke="#191970" d="M92.3341,-93.6253C116.0843,-102.5316 145.8441,-113.6915 168.6678,-122.2504"/>
<polygon fill="#191970" stroke="#191970" points="167.7104,-125.6293 178.3026,-125.8635 170.1683,-119.075 167.7104,-125.6293"/>
</g>
<!-- Node529 -->
<g id="node3" class="node">
<title>Node529</title>
<g id="a_node3"><a xlink:href="class_format_manager.html#a97119fa57eee51f9220ccd34b1958b87" target="_top" xlink:title="Function to obtain all format names available by this object that can load an alignment.">
<polygon fill="#ffffff" stroke="#000000" points="304,-88.5 304,-118.5 466,-118.5 466,-88.5 304,-88.5"/>
<text text-anchor="start" x="312" y="-106.5" font-family="Helvetica,sans-Serif" font-size="10.00" fill="#000000">FormatManager::getInputFormats</text>
<text text-anchor="middle" x="385" y="-95.5" font-family="Helvetica,sans-Serif" font-size="10.00" fill="#000000">Available</text>
</a>
</g>
</g>
<!-- Node527&#45;&gt;Node529 -->
<g id="edge2" class="edge">
<title>Node527&#45;&gt;Node529</title>
<path fill="none" stroke="#191970" d="M104.0313,-82.4063C154.7145,-86.2113 232.8256,-92.0755 293.8358,-96.6558"/>
<polygon fill="#191970" stroke="#191970" points="293.6245,-100.1497 303.8585,-97.4083 294.1486,-93.1694 293.6245,-100.1497"/>
</g>
<!-- Node530 -->
<g id="node4" class="node">
<title>Node530</title>
<g id="a_node4"><a xlink:href="class_format_manager.html#a2ea1526f2ec660341149098a34b06b1a" target="_top" xlink:title="Function to obtain all format names available by this object that can save an alignment.">
<polygon fill="#ffffff" stroke="#000000" points="318,-.5 318,-30.5 452,-30.5 452,-.5 318,-.5"/>
<text text-anchor="start" x="326" y="-18.5" font-family="Helvetica,sans-Serif" font-size="10.00" fill="#000000">FormatManager::getOutput</text>
<text text-anchor="middle" x="385" y="-7.5" font-family="Helvetica,sans-Serif" font-size="10.00" fill="#000000">FormatsAvailable</text>
</a>
</g>
</g>
<!-- Node527&#45;&gt;Node530 -->
<g id="edge3" class="edge">
<title>Node527&#45;&gt;Node530</title>
<path fill="none" stroke="#191970" d="M80.9353,-63.3331C97.7297,-55.2179 119.5471,-45.8241 140,-40.5 195.0463,-26.1708 259.0457,-19.9831 307.8267,-17.3448"/>
<polygon fill="#191970" stroke="#191970" points="308.1845,-20.8313 317.9963,-16.834 307.8333,-13.8401 308.1845,-20.8313"/>
</g>
<!-- Node531 -->
<g id="node5" class="node">
<title>Node531</title>
<g id="a_node5"><a xlink:href="classtrim_al_manager.html#a09d07645fa0057989875f2b2d25ec4d7" target="_top" xlink:title="Method to show the menu of the program.">
<polygon fill="#ffffff" stroke="#000000" points="149,-50 149,-69 259,-69 259,-50 149,-50"/>
<text text-anchor="middle" x="204" y="-57" font-family="Helvetica,sans-Serif" font-size="10.00" fill="#000000">trimAlManager::menu</text>
</a>
</g>
</g>
<!-- Node527&#45;&gt;Node531 -->
<g id="edge4" class="edge">
<title>Node527&#45;&gt;Node531</title>
<path fill="none" stroke="#191970" d="M104.3098,-71.9613C115.4018,-70.5748 127.2418,-69.0948 138.7466,-67.6567"/>
<polygon fill="#191970" stroke="#191970" points="139.2546,-71.1205 148.7433,-66.4071 138.3863,-64.1746 139.2546,-71.1205"/>
</g>
<!-- Node531&#45;&gt;Node529 -->
<g id="edge6" class="edge">
<title>Node531&#45;&gt;Node529</title>
<path fill="none" stroke="#191970" d="M243.2743,-69.0473C263.7437,-74.0233 289.4264,-80.2666 313.2866,-86.0669"/>
<polygon fill="#191970" stroke="#191970" points="312.4828,-89.4734 323.0266,-88.4346 314.1363,-82.6715 312.4828,-89.4734"/>
</g>
<!-- Node531&#45;&gt;Node530 -->
<g id="edge7" class="edge">
<title>Node531&#45;&gt;Node530</title>
<path fill="none" stroke="#191970" d="M243.2743,-49.9527C263.7437,-44.9767 289.4264,-38.7334 313.2866,-32.9331"/>
<polygon fill="#191970" stroke="#191970" points="314.1363,-36.3285 323.0266,-30.5654 312.4828,-29.5266 314.1363,-36.3285"/>
</g>
<!-- Node532 -->
<g id="node6" class="node">
<title>Node532</title>
<g id="a_node6"><a xlink:href="namespaceutils.html#a6000246220e801bf6b1e6a553d7af13a" target="_top" xlink:title="Function that replaces a substring with another substring in a string. It does not make a copy of the...">
<polygon fill="#ffffff" stroke="#000000" points="317.5,-50 317.5,-69 452.5,-69 452.5,-50 317.5,-50"/>
<text text-anchor="middle" x="385" y="-57" font-family="Helvetica,sans-Serif" font-size="10.00" fill="#000000">utils::ReplaceStringInPlace</text>
</a>
</g>
</g>
<!-- Node531&#45;&gt;Node532 -->
<g id="edge5" class="edge">
<title>Node531&#45;&gt;Node532</title>
<path fill="none" stroke="#191970" d="M259.2895,-59.5C274.299,-59.5 290.8395,-59.5 306.854,-59.5"/>
<polygon fill="#191970" stroke="#191970" points="307.2805,-63.0001 317.2805,-59.5 307.2805,-56.0001 307.2805,-63.0001"/>
</g>
</g>
</svg>
