<?xml version="1.0" encoding="UTF-8" standalone="no"?>
<!DOCTYPE svg PUBLIC "-//W3C//DTD SVG 1.1//EN"
 "http://www.w3.org/Graphics/SVG/1.1/DTD/svg11.dtd">
<!-- Generated by graphviz version 2.40.1 (20161225.0304)
 -->
<!-- Title: statistics::Gaps::calcCutPoint Pages: 1 -->
<svg width="1035pt" height="78pt"
 viewBox="0.00 0.00 1035.00 77.50" xmlns="http://www.w3.org/2000/svg" xmlns:xlink="http://www.w3.org/1999/xlink">
<g id="graph0" class="graph" transform="scale(1 1) rotate(0) translate(4 73.5)">
<title>statistics::Gaps::calcCutPoint</title>
<polygon fill="#ffffff" stroke="transparent" points="-4,4 -4,-73.5 1031,-73.5 1031,4 -4,4"/>
<!-- Node45 -->
<g id="node1" class="node">
<title>Node45</title>
<g id="a_node1"><a xlink:title=" ">
<polygon fill="#bfbfbf" stroke="#000000" points="902,-20 902,-50 1027,-50 1027,-20 902,-20"/>
<text text-anchor="start" x="910" y="-38" font-family="Helvetica,sans-Serif" font-size="10.00" fill="#000000">statistics::Gaps::calcCut</text>
<text text-anchor="middle" x="964.5" y="-27" font-family="Helvetica,sans-Serif" font-size="10.00" fill="#000000">Point</text>
</a>
</g>
</g>
<!-- Node46 -->
<g id="node2" class="node">
<title>Node46</title>
<g id="a_node2"><a xlink:href="class_cleaner.html#a4718e31c0183b5a98751d77479faacf0" target="_top" xlink:title="Method to trim an alignment based on the similarity and gaps distribution values. .">
<polygon fill="#ffffff" stroke="#000000" points="774.5,-44.5 774.5,-63.5 854.5,-63.5 854.5,-44.5 774.5,-44.5"/>
<text text-anchor="middle" x="814.5" y="-51.5" font-family="Helvetica,sans-Serif" font-size="10.00" fill="#000000">Cleaner::clean</text>
</a>
</g>
</g>
<!-- Node45&#45;&gt;Node46 -->
<g id="edge1" class="edge">
<title>Node45&#45;&gt;Node46</title>
<path fill="none" stroke="#191970" d="M891.6237,-44.231C878.9337,-45.8384 866.1626,-47.4561 854.765,-48.8998"/>
<polygon fill="#191970" stroke="#191970" points="892.2747,-47.6766 901.7556,-42.9476 891.395,-40.7321 892.2747,-47.6766"/>
</g>
<!-- Node52 -->
<g id="node8" class="node">
<title>Node52</title>
<g id="a_node8"><a xlink:href="class_cleaner.html#af7c9e1a177424168fa4214aca9ebd8e2" target="_top" xlink:title="Method to trim an alignment based on the gap distribution values. Column blocks that don&#39;t have a min...">
<polygon fill="#ffffff" stroke="#000000" points="763,-6.5 763,-25.5 866,-25.5 866,-6.5 763,-6.5"/>
<text text-anchor="middle" x="814.5" y="-13.5" font-family="Helvetica,sans-Serif" font-size="10.00" fill="#000000">Cleaner::cleanGaps</text>
</a>
</g>
</g>
<!-- Node45&#45;&gt;Node52 -->
<g id="edge8" class="edge">
<title>Node45&#45;&gt;Node52</title>
<path fill="none" stroke="#191970" d="M891.6579,-25.7733C883.0178,-24.6789 874.3395,-23.5797 866.0821,-22.5337"/>
<polygon fill="#191970" stroke="#191970" points="891.395,-29.2679 901.7556,-27.0524 892.2747,-22.3234 891.395,-29.2679"/>
</g>
<!-- Node47 -->
<g id="node3" class="node">
<title>Node47</title>
<g id="a_node3"><a xlink:href="classtrim_al_manager.html#aebfd21b0435302f0e4fc45a068d1b6ee" target="_top" xlink:title="Method to trim the alignment using non automatic methods:">
<polygon fill="#ffffff" stroke="#000000" points="564.5,-39 564.5,-69 716.5,-69 716.5,-39 564.5,-39"/>
<text text-anchor="start" x="572.5" y="-57" font-family="Helvetica,sans-Serif" font-size="10.00" fill="#000000">trimAlManager::CleanResidues</text>
<text text-anchor="middle" x="640.5" y="-46" font-family="Helvetica,sans-Serif" font-size="10.00" fill="#000000">NonAuto</text>
</a>
</g>
</g>
<!-- Node46&#45;&gt;Node47 -->
<g id="edge2" class="edge">
<title>Node46&#45;&gt;Node47</title>
<path fill="none" stroke="#191970" d="M763.7223,-54C748.956,-54 732.4949,-54 716.5342,-54"/>
<polygon fill="#191970" stroke="#191970" points="764.1436,-57.5001 774.1436,-54 764.1435,-50.5001 764.1436,-57.5001"/>
</g>
<!-- Node48 -->
<g id="node4" class="node">
<title>Node48</title>
<g id="a_node4"><a xlink:href="classtrim_al_manager.html#adc529dd893ed4e9df6f3ddbd58776068" target="_top" xlink:title="Core Method of the program. This is where almost all cleaning methods are called from.">
<polygon fill="#ffffff" stroke="#000000" points="409,-17 409,-47 518,-47 518,-17 409,-17"/>
<text text-anchor="start" x="417" y="-35" font-family="Helvetica,sans-Serif" font-size="10.00" fill="#000000">trimAlManager::clean</text>
<text text-anchor="middle" x="463.5" y="-24" font-family="Helvetica,sans-Serif" font-size="10.00" fill="#000000">_alignment</text>
</a>
</g>
</g>
<!-- Node47&#45;&gt;Node48 -->
<g id="edge3" class="edge">
<title>Node47&#45;&gt;Node48</title>
<path fill="none" stroke="#191970" d="M554.1475,-43.2669C541.8915,-41.7436 529.5807,-40.2134 518.1558,-38.7934"/>
<polygon fill="#191970" stroke="#191970" points="554.0535,-46.7821 564.4089,-44.5423 554.9169,-39.8355 554.0535,-46.7821"/>
</g>
<!-- Node49 -->
<g id="node5" class="node">
<title>Node49</title>
<g id="a_node5"><a xlink:href="classtrim_al_manager.html#abe8d2841455c644dc9c7d1294b82b00f" target="_top" xlink:title="Method to perform the analysis if all checks have passed.">
<polygon fill="#ffffff" stroke="#000000" points="74,-22.5 74,-41.5 193,-41.5 193,-22.5 74,-22.5"/>
<text text-anchor="middle" x="133.5" y="-29.5" font-family="Helvetica,sans-Serif" font-size="10.00" fill="#000000">trimAlManager::perform</text>
</a>
</g>
</g>
<!-- Node48&#45;&gt;Node49 -->
<g id="edge4" class="edge">
<title>Node48&#45;&gt;Node49</title>
<path fill="none" stroke="#191970" d="M398.5755,-32C338.9161,-32 251.2051,-32 193.243,-32"/>
<polygon fill="#191970" stroke="#191970" points="398.6368,-35.5001 408.6368,-32 398.6367,-28.5001 398.6368,-35.5001"/>
</g>
<!-- Node51 -->
<g id="node7" class="node">
<title>Node51</title>
<g id="a_node7"><a xlink:href="classtrim_al_manager.html#ac5795f93b3a2b51bf5d8dddd63b89f73" target="_top" xlink:title=" ">
<polygon fill="#ffffff" stroke="#000000" points="229,-3.5 229,-22.5 373,-22.5 373,-3.5 229,-3.5"/>
<text text-anchor="middle" x="301" y="-10.5" font-family="Helvetica,sans-Serif" font-size="10.00" fill="#000000">trimAlManager::perform_VCF</text>
</a>
</g>
</g>
<!-- Node48&#45;&gt;Node51 -->
<g id="edge6" class="edge">
<title>Node48&#45;&gt;Node51</title>
<path fill="none" stroke="#191970" d="M398.7672,-24.4312C390.3063,-23.442 381.5959,-22.4235 373.0243,-21.4213"/>
<polygon fill="#191970" stroke="#191970" points="398.599,-27.9353 408.9378,-25.6204 399.412,-20.9827 398.599,-27.9353"/>
</g>
<!-- Node50 -->
<g id="node6" class="node">
<title>Node50</title>
<g id="a_node6"><a xlink:href="trim_al_main_8cpp.html#a0ddf1224851353fc92bfbff6f499fa97" target="_top" xlink:title=" ">
<polygon fill="#ffffff" stroke="#000000" points="0,-22.5 0,-41.5 38,-41.5 38,-22.5 0,-22.5"/>
<text text-anchor="middle" x="19" y="-29.5" font-family="Helvetica,sans-Serif" font-size="10.00" fill="#000000">main</text>
</a>
</g>
</g>
<!-- Node49&#45;&gt;Node50 -->
<g id="edge5" class="edge">
<title>Node49&#45;&gt;Node50</title>
<path fill="none" stroke="#191970" d="M63.6802,-32C54.3823,-32 45.5497,-32 38.2303,-32"/>
<polygon fill="#191970" stroke="#191970" points="63.9025,-35.5001 73.9024,-32 63.9024,-28.5001 63.9025,-35.5001"/>
</g>
<!-- Node51&#45;&gt;Node49 -->
<g id="edge7" class="edge">
<title>Node51&#45;&gt;Node49</title>
<path fill="none" stroke="#191970" d="M218.8378,-22.3199C210.1593,-23.3043 201.4581,-24.2913 193.107,-25.2386"/>
<polygon fill="#191970" stroke="#191970" points="219.4511,-25.7729 228.9928,-21.168 218.662,-18.8175 219.4511,-25.7729"/>
</g>
<!-- Node52&#45;&gt;Node47 -->
<g id="edge11" class="edge">
<title>Node52&#45;&gt;Node47</title>
<path fill="none" stroke="#191970" d="M760.7567,-27.7371C744.5433,-31.2779 726.516,-35.2149 709.4568,-38.9405"/>
<polygon fill="#191970" stroke="#191970" points="761.5695,-31.1421 770.5925,-25.589 760.0759,-24.3033 761.5695,-31.1421"/>
</g>
<!-- Node53 -->
<g id="node9" class="node">
<title>Node53</title>
<g id="a_node9"><a xlink:href="classtrim_al_manager.html#a69082911b30a1bd12395bb235bc18a34" target="_top" xlink:title="Method to trim the alignment using automatic or semi&#45;automatic methods:">
<polygon fill="#ffffff" stroke="#000000" points="554,-.5 554,-19.5 727,-19.5 727,-.5 554,-.5"/>
<text text-anchor="middle" x="640.5" y="-7.5" font-family="Helvetica,sans-Serif" font-size="10.00" fill="#000000">trimAlManager::CleanResiduesAuto</text>
</a>
</g>
</g>
<!-- Node52&#45;&gt;Node53 -->
<g id="edge9" class="edge">
<title>Node52&#45;&gt;Node53</title>
<path fill="none" stroke="#191970" d="M752.5485,-13.8637C744.3252,-13.5802 735.7754,-13.2854 727.2292,-12.9907"/>
<polygon fill="#191970" stroke="#191970" points="752.6507,-17.3693 762.7654,-14.216 752.892,-10.3734 752.6507,-17.3693"/>
</g>
<!-- Node53&#45;&gt;Node48 -->
<g id="edge10" class="edge">
<title>Node53&#45;&gt;Node48</title>
<path fill="none" stroke="#191970" d="M553.7276,-20.7853C541.5879,-22.2942 529.4048,-23.8084 518.0926,-25.2145"/>
<polygon fill="#191970" stroke="#191970" points="554.4028,-24.2284 563.8947,-19.5216 553.5393,-17.2818 554.4028,-24.2284"/>
</g>
</g>
</svg>
