<?xml version="1.0" encoding="UTF-8" standalone="no"?>
<!DOCTYPE svg PUBLIC "-//W3C//DTD SVG 1.1//EN"
 "http://www.w3.org/Graphics/SVG/1.1/DTD/svg11.dtd">
<!-- Generated by graphviz version 2.40.1 (20161225.0304)
 -->
<!-- Title: FormatManager::getInputFormatsAvailable Pages: 1 -->
<svg width="723pt" height="109pt"
 viewBox="0.00 0.00 723.00 109.00" xmlns="http://www.w3.org/2000/svg" xmlns:xlink="http://www.w3.org/1999/xlink">
<g id="graph0" class="graph" transform="scale(1 1) rotate(0) translate(4 105)">
<title>FormatManager::getInputFormatsAvailable</title>
<polygon fill="#ffffff" stroke="transparent" points="-4,4 -4,-105 719,-105 719,4 -4,4"/>
<!-- Node20 -->
<g id="node1" class="node">
<title>Node20</title>
<g id="a_node1"><a xlink:title="Function to obtain all format names available by this object that can load an alignment.">
<polygon fill="#bfbfbf" stroke="#000000" points="553,-33 553,-63 715,-63 715,-33 553,-33"/>
<text text-anchor="start" x="561" y="-51" font-family="Helvetica,sans-Serif" font-size="10.00" fill="#000000">FormatManager::getInputFormats</text>
<text text-anchor="middle" x="634" y="-40" font-family="Helvetica,sans-Serif" font-size="10.00" fill="#000000">Available</text>
</a>
</g>
</g>
<!-- Node21 -->
<g id="node2" class="node">
<title>Node21</title>
<g id="a_node2"><a xlink:href="classtrim_al_manager.html#ac00c17dd71558993a44020e3ec7c2b16" target="_top" xlink:title="Method to parse information arguments as help and menu.">
<polygon fill="#ffffff" stroke="#000000" points="267,-32 267,-62 371,-62 371,-32 267,-32"/>
<text text-anchor="start" x="275" y="-50" font-family="Helvetica,sans-Serif" font-size="10.00" fill="#000000">trimAlManager::help</text>
<text text-anchor="middle" x="319" y="-39" font-family="Helvetica,sans-Serif" font-size="10.00" fill="#000000">_arguments</text>
</a>
</g>
</g>
<!-- Node20&#45;&gt;Node21 -->
<g id="edge1" class="edge">
<title>Node20&#45;&gt;Node21</title>
<path fill="none" stroke="#191970" d="M542.644,-47.71C486.9397,-47.5331 417.7463,-47.3135 371.1981,-47.1657"/>
<polygon fill="#191970" stroke="#191970" points="542.8686,-51.2106 552.8797,-47.7425 542.8909,-44.2106 542.8686,-51.2106"/>
</g>
<!-- Node24 -->
<g id="node5" class="node">
<title>Node24</title>
<g id="a_node5"><a xlink:href="read_al_main_8cpp.html#a2a0e843767aeea4f433a28b9c54f573a" target="_top" xlink:title=" ">
<polygon fill="#ffffff" stroke="#000000" points="441.5,-79.5 441.5,-98.5 482.5,-98.5 482.5,-79.5 441.5,-79.5"/>
<text text-anchor="middle" x="462" y="-86.5" font-family="Helvetica,sans-Serif" font-size="10.00" fill="#000000">menu</text>
</a>
</g>
</g>
<!-- Node20&#45;&gt;Node24 -->
<g id="edge4" class="edge">
<title>Node20&#45;&gt;Node24</title>
<path fill="none" stroke="#191970" d="M560.9787,-65.4062C532.5565,-72.1813 502.1985,-79.4178 482.7098,-84.0634"/>
<polygon fill="#191970" stroke="#191970" points="562.0143,-68.7575 570.9302,-63.0341 560.3912,-61.9483 562.0143,-68.7575"/>
</g>
<!-- Node26 -->
<g id="node7" class="node">
<title>Node26</title>
<g id="a_node7"><a xlink:href="classtrim_al_manager.html#a09d07645fa0057989875f2b2d25ec4d7" target="_top" xlink:title="Method to show the menu of the program.">
<polygon fill="#ffffff" stroke="#000000" points="407,-.5 407,-19.5 517,-19.5 517,-.5 407,-.5"/>
<text text-anchor="middle" x="462" y="-7.5" font-family="Helvetica,sans-Serif" font-size="10.00" fill="#000000">trimAlManager::menu</text>
</a>
</g>
</g>
<!-- Node20&#45;&gt;Node26 -->
<g id="edge6" class="edge">
<title>Node20&#45;&gt;Node26</title>
<path fill="none" stroke="#191970" d="M555.8054,-30.7245C538.3326,-26.8642 520.4265,-22.9082 505.0042,-19.5009"/>
<polygon fill="#191970" stroke="#191970" points="555.5014,-34.2416 566.021,-32.9814 557.0116,-27.4064 555.5014,-34.2416"/>
</g>
<!-- Node22 -->
<g id="node3" class="node">
<title>Node22</title>
<g id="a_node3"><a xlink:href="classtrim_al_manager.html#af140d97b6071a83930818030ac74b641" target="_top" xlink:title="Method to parse arguments into usable structure in trimal.">
<polygon fill="#ffffff" stroke="#000000" points="74,-15.5 74,-34.5 231,-34.5 231,-15.5 74,-15.5"/>
<text text-anchor="middle" x="152.5" y="-22.5" font-family="Helvetica,sans-Serif" font-size="10.00" fill="#000000">trimAlManager::parseArguments</text>
</a>
</g>
</g>
<!-- Node21&#45;&gt;Node22 -->
<g id="edge2" class="edge">
<title>Node21&#45;&gt;Node22</title>
<path fill="none" stroke="#191970" d="M256.5547,-38.749C246.1537,-37.3747 235.2897,-35.9392 224.6706,-34.5361"/>
<polygon fill="#191970" stroke="#191970" points="256.4028,-42.2592 266.7752,-40.0994 257.3199,-35.3196 256.4028,-42.2592"/>
</g>
<!-- Node23 -->
<g id="node4" class="node">
<title>Node23</title>
<g id="a_node4"><a xlink:href="trim_al_main_8cpp.html#a0ddf1224851353fc92bfbff6f499fa97" target="_top" xlink:title=" ">
<polygon fill="#ffffff" stroke="#000000" points="0,-15.5 0,-34.5 38,-34.5 38,-15.5 0,-15.5"/>
<text text-anchor="middle" x="19" y="-22.5" font-family="Helvetica,sans-Serif" font-size="10.00" fill="#000000">main</text>
</a>
</g>
</g>
<!-- Node22&#45;&gt;Node23 -->
<g id="edge3" class="edge">
<title>Node22&#45;&gt;Node23</title>
<path fill="none" stroke="#191970" d="M63.4234,-25C54.1647,-25 45.5538,-25 38.4254,-25"/>
<polygon fill="#191970" stroke="#191970" points="63.6848,-28.5001 73.6848,-25 63.6847,-21.5001 63.6848,-28.5001"/>
</g>
<!-- Node25 -->
<g id="node6" class="node">
<title>Node25</title>
<g id="a_node6"><a xlink:href="read_al_main_8cpp.html#a0ddf1224851353fc92bfbff6f499fa97" target="_top" xlink:title=" ">
<polygon fill="#ffffff" stroke="#000000" points="300,-81.5 300,-100.5 338,-100.5 338,-81.5 300,-81.5"/>
<text text-anchor="middle" x="319" y="-88.5" font-family="Helvetica,sans-Serif" font-size="10.00" fill="#000000">main</text>
</a>
</g>
</g>
<!-- Node24&#45;&gt;Node25 -->
<g id="edge5" class="edge">
<title>Node24&#45;&gt;Node25</title>
<path fill="none" stroke="#191970" d="M431.0979,-89.4322C402.9598,-89.8257 362.2753,-90.3948 338.4414,-90.7281"/>
<polygon fill="#191970" stroke="#191970" points="431.2565,-92.9304 441.2066,-89.2908 431.1586,-85.9311 431.2565,-92.9304"/>
</g>
<!-- Node26&#45;&gt;Node21 -->
<g id="edge8" class="edge">
<title>Node26&#45;&gt;Node21</title>
<path fill="none" stroke="#191970" d="M415.1915,-22.1113C401.0757,-25.7636 385.4963,-29.7947 371.0609,-33.5297"/>
<polygon fill="#191970" stroke="#191970" points="416.3695,-25.4218 425.1739,-19.5284 414.616,-18.645 416.3695,-25.4218"/>
</g>
<!-- Node26&#45;&gt;Node22 -->
<g id="edge7" class="edge">
<title>Node26&#45;&gt;Node22</title>
<path fill="none" stroke="#191970" d="M396.6424,-13.1676C348.3497,-15.5081 282.381,-18.7053 231.1909,-21.1862"/>
<polygon fill="#191970" stroke="#191970" points="396.8488,-16.6618 406.6676,-12.6817 396.5099,-9.67 396.8488,-16.6618"/>
</g>
</g>
</svg>
