<?xml version="1.0" encoding="UTF-8" standalone="no"?>
<!DOCTYPE svg PUBLIC "-//W3C//DTD SVG 1.1//EN"
 "http://www.w3.org/Graphics/SVG/1.1/DTD/svg11.dtd">
<!-- Generated by graphviz version 2.40.1 (20161225.0304)
 -->
<!-- Title: trimAlManager::no_all_gaps_argument Pages: 1 -->
<svg width="386pt" height="39pt"
 viewBox="0.00 0.00 386.00 39.00" xmlns="http://www.w3.org/2000/svg" xmlns:xlink="http://www.w3.org/1999/xlink">
<g id="graph0" class="graph" transform="scale(1 1) rotate(0) translate(4 35)">
<title>trimAlManager::no_all_gaps_argument</title>
<polygon fill="#ffffff" stroke="transparent" points="-4,4 -4,-35 382,-35 382,4 -4,4"/>
<!-- Node579 -->
<g id="node1" class="node">
<title>Node579</title>
<g id="a_node1"><a xlink:title="Method to parse the noallgaps argument.">
<polygon fill="#bfbfbf" stroke="#000000" points="267,-.5 267,-30.5 378,-30.5 378,-.5 267,-.5"/>
<text text-anchor="start" x="275" y="-18.5" font-family="Helvetica,sans-Serif" font-size="10.00" fill="#000000">trimAlManager::no_all</text>
<text text-anchor="middle" x="322.5" y="-7.5" font-family="Helvetica,sans-Serif" font-size="10.00" fill="#000000">_gaps_argument</text>
</a>
</g>
</g>
<!-- Node580 -->
<g id="node2" class="node">
<title>Node580</title>
<g id="a_node2"><a xlink:href="classtrim_al_manager.html#af140d97b6071a83930818030ac74b641" target="_top" xlink:title="Method to parse arguments into usable structure in trimal.">
<polygon fill="#ffffff" stroke="#000000" points="74,-6 74,-25 231,-25 231,-6 74,-6"/>
<text text-anchor="middle" x="152.5" y="-13" font-family="Helvetica,sans-Serif" font-size="10.00" fill="#000000">trimAlManager::parseArguments</text>
</a>
</g>
</g>
<!-- Node579&#45;&gt;Node580 -->
<g id="edge1" class="edge">
<title>Node579&#45;&gt;Node580</title>
<path fill="none" stroke="#191970" d="M256.7483,-15.5C248.3516,-15.5 239.6904,-15.5 231.1163,-15.5"/>
<polygon fill="#191970" stroke="#191970" points="256.8357,-19.0001 266.8356,-15.5 256.8356,-12.0001 256.8357,-19.0001"/>
</g>
<!-- Node581 -->
<g id="node3" class="node">
<title>Node581</title>
<g id="a_node3"><a xlink:href="trim_al_main_8cpp.html#a0ddf1224851353fc92bfbff6f499fa97" target="_top" xlink:title=" ">
<polygon fill="#ffffff" stroke="#000000" points="0,-6 0,-25 38,-25 38,-6 0,-6"/>
<text text-anchor="middle" x="19" y="-13" font-family="Helvetica,sans-Serif" font-size="10.00" fill="#000000">main</text>
</a>
</g>
</g>
<!-- Node580&#45;&gt;Node581 -->
<g id="edge2" class="edge">
<title>Node580&#45;&gt;Node581</title>
<path fill="none" stroke="#191970" d="M63.4234,-15.5C54.1647,-15.5 45.5538,-15.5 38.4254,-15.5"/>
<polygon fill="#191970" stroke="#191970" points="63.6848,-19.0001 73.6848,-15.5 63.6847,-12.0001 63.6848,-19.0001"/>
</g>
</g>
</svg>
