<?xml version="1.0" encoding="UTF-8" standalone="no"?>
<!DOCTYPE svg PUBLIC "-//W3C//DTD SVG 1.1//EN"
 "http://www.w3.org/Graphics/SVG/1.1/DTD/svg11.dtd">
<!-- Generated by graphviz version 2.40.1 (20161225.0304)
 -->
<!-- Title: trimAlManager::clusters_argument Pages: 1 -->
<svg width="286pt" height="78pt"
 viewBox="0.00 0.00 286.00 77.50" xmlns="http://www.w3.org/2000/svg" xmlns:xlink="http://www.w3.org/1999/xlink">
<g id="graph0" class="graph" transform="scale(1 1) rotate(0) translate(4 73.5)">
<title>trimAlManager::clusters_argument</title>
<polygon fill="#ffffff" stroke="transparent" points="-4,4 -4,-73.5 282,-73.5 282,4 -4,4"/>
<!-- Node440 -->
<g id="node1" class="node">
<title>Node440</title>
<g id="a_node1"><a xlink:title="Method to parse the clusters argument.">
<polygon fill="#bfbfbf" stroke="#000000" points="0,-22.5 0,-52.5 120,-52.5 120,-22.5 0,-22.5"/>
<text text-anchor="start" x="8" y="-40.5" font-family="Helvetica,sans-Serif" font-size="10.00" fill="#000000">trimAlManager::clusters</text>
<text text-anchor="middle" x="60" y="-29.5" font-family="Helvetica,sans-Serif" font-size="10.00" fill="#000000">_argument</text>
</a>
</g>
</g>
<!-- Node441 -->
<g id="node2" class="node">
<title>Node441</title>
<g id="a_node2"><a xlink:href="namespaceutils.html#a32e6bab4fb43b096f983faedeefd0511" target="_top" xlink:title="String&#45;is&#45;number checking.">
<polygon fill="#ffffff" stroke="#000000" points="175.5,-50 175.5,-69 258.5,-69 258.5,-50 175.5,-50"/>
<text text-anchor="middle" x="217" y="-57" font-family="Helvetica,sans-Serif" font-size="10.00" fill="#000000">utils::isNumber</text>
</a>
</g>
</g>
<!-- Node440&#45;&gt;Node441 -->
<g id="edge1" class="edge">
<title>Node440&#45;&gt;Node441</title>
<path fill="none" stroke="#191970" d="M120.2513,-45.9429C135.0033,-48.01 150.6655,-50.2047 164.9936,-52.2125"/>
<polygon fill="#191970" stroke="#191970" points="164.7699,-55.7152 175.1589,-53.6369 165.7414,-48.783 164.7699,-55.7152"/>
</g>
<!-- Node442 -->
<g id="node3" class="node">
<title>Node442</title>
<g id="a_node3"><a xlink:href="classreporting_1_1report_manager.html#a6d122e673144584e0869bd33b8a5c1c6" target="_top" xlink:title="Method to report an Error. &#160;It will be displayed if Level &#160;is equal or higher to VerboseLevel::ERROR.">
<polygon fill="#ffffff" stroke="#000000" points="156,-.5 156,-30.5 278,-30.5 278,-.5 156,-.5"/>
<text text-anchor="start" x="164" y="-18.5" font-family="Helvetica,sans-Serif" font-size="10.00" fill="#000000">reporting::reportManager</text>
<text text-anchor="middle" x="217" y="-7.5" font-family="Helvetica,sans-Serif" font-size="10.00" fill="#000000">::report</text>
</a>
</g>
</g>
<!-- Node440&#45;&gt;Node442 -->
<g id="edge2" class="edge">
<title>Node440&#45;&gt;Node442</title>
<path fill="none" stroke="#191970" d="M120.2513,-29.0571C128.642,-27.8814 137.3272,-26.6643 145.8939,-25.4639"/>
<polygon fill="#191970" stroke="#191970" points="146.4537,-28.9198 155.8712,-24.0658 145.4823,-21.9875 146.4537,-28.9198"/>
</g>
</g>
</svg>
