<?xml version="1.0" encoding="UTF-8" standalone="no"?>
<!DOCTYPE svg PUBLIC "-//W3C//DTD SVG 1.1//EN"
 "http://www.w3.org/Graphics/SVG/1.1/DTD/svg11.dtd">
<!-- Generated by graphviz version 2.40.1 (20161225.0304)
 -->
<!-- Title: similarityMatrix::loadSimMatrix Pages: 1 -->
<svg width="452pt" height="154pt"
 viewBox="0.00 0.00 452.00 154.00" xmlns="http://www.w3.org/2000/svg" xmlns:xlink="http://www.w3.org/1999/xlink">
<g id="graph0" class="graph" transform="scale(1 1) rotate(0) translate(4 150)">
<title>similarityMatrix::loadSimMatrix</title>
<polygon fill="#ffffff" stroke="transparent" points="-4,4 -4,-150 448,-150 448,4 -4,4"/>
<!-- Node60 -->
<g id="node1" class="node">
<title>Node60</title>
<g id="a_node1"><a xlink:title="Method to load a custom matrix.">
<polygon fill="#bfbfbf" stroke="#000000" points="0,-55 0,-85 124,-85 124,-55 0,-55"/>
<text text-anchor="start" x="8" y="-73" font-family="Helvetica,sans-Serif" font-size="10.00" fill="#000000">similarityMatrix::loadSim</text>
<text text-anchor="middle" x="62" y="-62" font-family="Helvetica,sans-Serif" font-size="10.00" fill="#000000">Matrix</text>
</a>
</g>
</g>
<!-- Node61 -->
<g id="node2" class="node">
<title>Node61</title>
<g id="a_node2"><a xlink:href="namespaceutils.html#aac322cd1761fddedec8a5792e358eb32" target="_top" xlink:title="Vector initialization.">
<polygon fill="#ffffff" stroke="#000000" points="184,-126.5 184,-145.5 260,-145.5 260,-126.5 184,-126.5"/>
<text text-anchor="middle" x="222" y="-133.5" font-family="Helvetica,sans-Serif" font-size="10.00" fill="#000000">utils::initlVect</text>
</a>
</g>
</g>
<!-- Node60&#45;&gt;Node61 -->
<g id="edge1" class="edge">
<title>Node60&#45;&gt;Node61</title>
<path fill="none" stroke="#191970" d="M90.6549,-85.1467C109.9313,-94.9844 136.0955,-107.6656 160,-117 165.6432,-119.2036 171.6535,-121.3203 177.6272,-123.2893"/>
<polygon fill="#191970" stroke="#191970" points="176.9842,-126.7575 187.5747,-126.4528 179.1057,-120.0867 176.9842,-126.7575"/>
</g>
<!-- Node62 -->
<g id="node3" class="node">
<title>Node62</title>
<g id="a_node3"><a xlink:href="classsimilarity_matrix.html#a08e4e5790d95848f049ed00579c0e377" target="_top" xlink:title="Method to allocate memory for the similiarity matrix.">
<polygon fill="#ffffff" stroke="#000000" points="160,-77 160,-107 284,-107 284,-77 160,-77"/>
<text text-anchor="start" x="168" y="-95" font-family="Helvetica,sans-Serif" font-size="10.00" fill="#000000">similarityMatrix::memory</text>
<text text-anchor="middle" x="222" y="-84" font-family="Helvetica,sans-Serif" font-size="10.00" fill="#000000">Allocation</text>
</a>
</g>
</g>
<!-- Node60&#45;&gt;Node62 -->
<g id="edge2" class="edge">
<title>Node60&#45;&gt;Node62</title>
<path fill="none" stroke="#191970" d="M124.3183,-78.5688C132.7062,-79.7221 141.367,-80.913 149.9065,-82.0871"/>
<polygon fill="#191970" stroke="#191970" points="149.4682,-85.5597 159.8518,-83.4546 150.4218,-78.625 149.4682,-85.5597"/>
</g>
<!-- Node63 -->
<g id="node4" class="node">
<title>Node63</title>
<g id="a_node4"><a xlink:href="classsimilarity_matrix.html#acc8f6dbae19b4332929ef6a240524975" target="_top" xlink:title="Method to deallocate memory allocated on the similarityMatrix::memoryAllocation method....">
<polygon fill="#ffffff" stroke="#000000" points="320,-55 320,-85 444,-85 444,-55 320,-55"/>
<text text-anchor="start" x="328" y="-73" font-family="Helvetica,sans-Serif" font-size="10.00" fill="#000000">similarityMatrix::memory</text>
<text text-anchor="middle" x="382" y="-62" font-family="Helvetica,sans-Serif" font-size="10.00" fill="#000000">Deletion</text>
</a>
</g>
</g>
<!-- Node60&#45;&gt;Node63 -->
<g id="edge4" class="edge">
<title>Node60&#45;&gt;Node63</title>
<path fill="none" stroke="#191970" d="M124.2083,-68.5394C136.0902,-68.3145 148.4287,-68.1181 160,-68 215.1082,-67.4377 228.8918,-67.4377 284,-68 292.3168,-68.0849 301.0301,-68.2102 309.6852,-68.3575"/>
<polygon fill="#191970" stroke="#191970" points="309.7303,-71.8588 319.7917,-68.5394 309.8563,-64.8599 309.7303,-71.8588"/>
</g>
<!-- Node64 -->
<g id="node5" class="node">
<title>Node64</title>
<g id="a_node5"><a xlink:href="namespaceutils.html#a2b86d1a439de68860f2366f99d507349" target="_top" xlink:title="Removing spaces method.">
<polygon fill="#ffffff" stroke="#000000" points="169,-.5 169,-19.5 275,-19.5 275,-.5 169,-.5"/>
<text text-anchor="middle" x="222" y="-7.5" font-family="Helvetica,sans-Serif" font-size="10.00" fill="#000000">utils::removeSpaces</text>
</a>
</g>
</g>
<!-- Node60&#45;&gt;Node64 -->
<g id="edge5" class="edge">
<title>Node60&#45;&gt;Node64</title>
<path fill="none" stroke="#191970" d="M102.3748,-54.8595C128.5273,-45.0522 162.2385,-32.4106 187.2053,-23.048"/>
<polygon fill="#191970" stroke="#191970" points="188.5132,-26.2956 196.6475,-19.5072 186.0553,-19.7413 188.5132,-26.2956"/>
</g>
<!-- Node62&#45;&gt;Node63 -->
<g id="edge3" class="edge">
<title>Node62&#45;&gt;Node63</title>
<path fill="none" stroke="#191970" d="M284.3183,-83.4312C292.7062,-82.2779 301.367,-81.087 309.9065,-79.9129"/>
<polygon fill="#191970" stroke="#191970" points="310.4218,-83.375 319.8518,-78.5454 309.4682,-76.4403 310.4218,-83.375"/>
</g>
</g>
</svg>
