<?xml version="1.0" encoding="UTF-8" standalone="no"?>
<!DOCTYPE svg PUBLIC "-//W3C//DTD SVG 1.1//EN"
 "http://www.w3.org/Graphics/SVG/1.1/DTD/svg11.dtd">
<!-- Generated by graphviz version 2.40.1 (20161225.0304)
 -->
<!-- Title: Cleaner::cleanStrict Pages: 1 -->
<svg width="1053pt" height="53pt"
 viewBox="0.00 0.00 1053.00 52.50" xmlns="http://www.w3.org/2000/svg" xmlns:xlink="http://www.w3.org/1999/xlink">
<g id="graph0" class="graph" transform="scale(1 1) rotate(0) translate(4 48.5)">
<title>Cleaner::cleanStrict</title>
<polygon fill="#ffffff" stroke="transparent" points="-4,4 -4,-48.5 1049,-48.5 1049,4 -4,4"/>
<!-- Node304 -->
<g id="node1" class="node">
<title>Node304</title>
<g id="a_node1"><a xlink:title="Method to clean an alignment. It carries out strict and strictplus. It removes sequences that overpas...">
<polygon fill="#bfbfbf" stroke="#000000" points="942,-19.5 942,-38.5 1045,-38.5 1045,-19.5 942,-19.5"/>
<text text-anchor="middle" x="993.5" y="-26.5" font-family="Helvetica,sans-Serif" font-size="10.00" fill="#000000">Cleaner::cleanStrict</text>
</a>
</g>
</g>
<!-- Node305 -->
<g id="node2" class="node">
<title>Node305</title>
<g id="a_node2"><a xlink:href="class_cleaner.html#a6727a235afa29f08a50716f28fa5c8fc" target="_top" xlink:title="Method to clean an alignment. It carries out strict and strictplus. The method:">
<polygon fill="#ffffff" stroke="#000000" points="763,-19.5 763,-38.5 906,-38.5 906,-19.5 763,-19.5"/>
<text text-anchor="middle" x="834.5" y="-26.5" font-family="Helvetica,sans-Serif" font-size="10.00" fill="#000000">Cleaner::cleanCombMethods</text>
</a>
</g>
</g>
<!-- Node304&#45;&gt;Node305 -->
<g id="edge1" class="edge">
<title>Node304&#45;&gt;Node305</title>
<path fill="none" stroke="#191970" d="M931.776,-29C923.3586,-29 914.6609,-29 906.0873,-29"/>
<polygon fill="#191970" stroke="#191970" points="931.8773,-32.5001 941.8773,-29 931.8772,-25.5001 931.8773,-32.5001"/>
</g>
<!-- Node306 -->
<g id="node3" class="node">
<title>Node306</title>
<g id="a_node3"><a xlink:href="classtrim_al_manager.html#a69082911b30a1bd12395bb235bc18a34" target="_top" xlink:title="Method to trim the alignment using automatic or semi&#45;automatic methods:">
<polygon fill="#ffffff" stroke="#000000" points="554,-19.5 554,-38.5 727,-38.5 727,-19.5 554,-19.5"/>
<text text-anchor="middle" x="640.5" y="-26.5" font-family="Helvetica,sans-Serif" font-size="10.00" fill="#000000">trimAlManager::CleanResiduesAuto</text>
</a>
</g>
</g>
<!-- Node305&#45;&gt;Node306 -->
<g id="edge2" class="edge">
<title>Node305&#45;&gt;Node306</title>
<path fill="none" stroke="#191970" d="M752.5903,-29C744.1312,-29 735.5152,-29 727.0081,-29"/>
<polygon fill="#191970" stroke="#191970" points="752.8128,-32.5001 762.8127,-29 752.8127,-25.5001 752.8128,-32.5001"/>
</g>
<!-- Node307 -->
<g id="node4" class="node">
<title>Node307</title>
<g id="a_node4"><a xlink:href="classtrim_al_manager.html#adc529dd893ed4e9df6f3ddbd58776068" target="_top" xlink:title="Core Method of the program. This is where almost all cleaning methods are called from.">
<polygon fill="#ffffff" stroke="#000000" points="409,-14 409,-44 518,-44 518,-14 409,-14"/>
<text text-anchor="start" x="417" y="-32" font-family="Helvetica,sans-Serif" font-size="10.00" fill="#000000">trimAlManager::clean</text>
<text text-anchor="middle" x="463.5" y="-21" font-family="Helvetica,sans-Serif" font-size="10.00" fill="#000000">_alignment</text>
</a>
</g>
</g>
<!-- Node306&#45;&gt;Node307 -->
<g id="edge3" class="edge">
<title>Node306&#45;&gt;Node307</title>
<path fill="none" stroke="#191970" d="M543.6253,-29C534.9704,-29 526.4233,-29 518.3191,-29"/>
<polygon fill="#191970" stroke="#191970" points="543.8149,-32.5001 553.8148,-29 543.8148,-25.5001 543.8149,-32.5001"/>
</g>
<!-- Node308 -->
<g id="node5" class="node">
<title>Node308</title>
<g id="a_node5"><a xlink:href="classtrim_al_manager.html#abe8d2841455c644dc9c7d1294b82b00f" target="_top" xlink:title="Method to perform the analysis if all checks have passed.">
<polygon fill="#ffffff" stroke="#000000" points="74,-19.5 74,-38.5 193,-38.5 193,-19.5 74,-19.5"/>
<text text-anchor="middle" x="133.5" y="-26.5" font-family="Helvetica,sans-Serif" font-size="10.00" fill="#000000">trimAlManager::perform</text>
</a>
</g>
</g>
<!-- Node307&#45;&gt;Node308 -->
<g id="edge4" class="edge">
<title>Node307&#45;&gt;Node308</title>
<path fill="none" stroke="#191970" d="M398.5755,-29C338.9161,-29 251.2051,-29 193.243,-29"/>
<polygon fill="#191970" stroke="#191970" points="398.6368,-32.5001 408.6368,-29 398.6367,-25.5001 398.6368,-32.5001"/>
</g>
<!-- Node310 -->
<g id="node7" class="node">
<title>Node310</title>
<g id="a_node7"><a xlink:href="classtrim_al_manager.html#ac5795f93b3a2b51bf5d8dddd63b89f73" target="_top" xlink:title=" ">
<polygon fill="#ffffff" stroke="#000000" points="229,-.5 229,-19.5 373,-19.5 373,-.5 229,-.5"/>
<text text-anchor="middle" x="301" y="-7.5" font-family="Helvetica,sans-Serif" font-size="10.00" fill="#000000">trimAlManager::perform_VCF</text>
</a>
</g>
</g>
<!-- Node307&#45;&gt;Node310 -->
<g id="edge6" class="edge">
<title>Node307&#45;&gt;Node310</title>
<path fill="none" stroke="#191970" d="M398.7672,-21.4312C390.3063,-20.442 381.5959,-19.4235 373.0243,-18.4213"/>
<polygon fill="#191970" stroke="#191970" points="398.599,-24.9353 408.9378,-22.6204 399.412,-17.9827 398.599,-24.9353"/>
</g>
<!-- Node309 -->
<g id="node6" class="node">
<title>Node309</title>
<g id="a_node6"><a xlink:href="trim_al_main_8cpp.html#a0ddf1224851353fc92bfbff6f499fa97" target="_top" xlink:title=" ">
<polygon fill="#ffffff" stroke="#000000" points="0,-19.5 0,-38.5 38,-38.5 38,-19.5 0,-19.5"/>
<text text-anchor="middle" x="19" y="-26.5" font-family="Helvetica,sans-Serif" font-size="10.00" fill="#000000">main</text>
</a>
</g>
</g>
<!-- Node308&#45;&gt;Node309 -->
<g id="edge5" class="edge">
<title>Node308&#45;&gt;Node309</title>
<path fill="none" stroke="#191970" d="M63.6802,-29C54.3823,-29 45.5497,-29 38.2303,-29"/>
<polygon fill="#191970" stroke="#191970" points="63.9025,-32.5001 73.9024,-29 63.9024,-25.5001 63.9025,-32.5001"/>
</g>
<!-- Node310&#45;&gt;Node308 -->
<g id="edge7" class="edge">
<title>Node310&#45;&gt;Node308</title>
<path fill="none" stroke="#191970" d="M218.8378,-19.3199C210.1593,-20.3043 201.4581,-21.2913 193.107,-22.2386"/>
<polygon fill="#191970" stroke="#191970" points="219.4511,-22.7729 228.9928,-18.168 218.662,-15.8175 219.4511,-22.7729"/>
</g>
</g>
</svg>
