<?xml version="1.0" encoding="UTF-8" standalone="no"?>
<!DOCTYPE svg PUBLIC "-//W3C//DTD SVG 1.1//EN"
 "http://www.w3.org/Graphics/SVG/1.1/DTD/svg11.dtd">
<!-- Generated by graphviz version 2.40.1 (20161225.0304)
 -->
<!-- Title: statistics::Manager::printStatisticsConservationTotal Pages: 1 -->
<svg width="1124pt" height="344pt"
 viewBox="0.00 0.00 1124.00 343.69" xmlns="http://www.w3.org/2000/svg" xmlns:xlink="http://www.w3.org/1999/xlink">
<g id="graph0" class="graph" transform="scale(1 1) rotate(0) translate(4 339.6937)">
<title>statistics::Manager::printStatisticsConservationTotal</title>
<polygon fill="#ffffff" stroke="transparent" points="-4,4 -4,-339.6937 1120,-339.6937 1120,4 -4,4"/>
<!-- Node103 -->
<g id="node1" class="node">
<title>Node103</title>
<g id="a_node1"><a xlink:title="Wrapper to Statistics::Similarity::printGapsTotal() It calls to calculateConservationStats() to make ...">
<polygon fill="#bfbfbf" stroke="#000000" points="0,-93.5 0,-134.5 140,-134.5 140,-93.5 0,-93.5"/>
<text text-anchor="start" x="8" y="-122.5" font-family="Helvetica,sans-Serif" font-size="10.00" fill="#000000">statistics::Manager</text>
<text text-anchor="start" x="8" y="-111.5" font-family="Helvetica,sans-Serif" font-size="10.00" fill="#000000">::printStatisticsConservation</text>
<text text-anchor="middle" x="70" y="-100.5" font-family="Helvetica,sans-Serif" font-size="10.00" fill="#000000">Total</text>
</a>
</g>
</g>
<!-- Node104 -->
<g id="node2" class="node">
<title>Node104</title>
<g id="a_node2"><a xlink:href="classstatistics_1_1_manager.html#a92505ca5aedc5b45c4300a0e8a7d1e17" target="_top" xlink:title="Method to handle similarity stat calculation It checks if the similarity submodule has been created,...">
<polygon fill="#ffffff" stroke="#000000" points="176,-165 176,-195 319,-195 319,-165 176,-165"/>
<text text-anchor="start" x="184" y="-183" font-family="Helvetica,sans-Serif" font-size="10.00" fill="#000000">statistics::Manager</text>
<text text-anchor="middle" x="247.5" y="-172" font-family="Helvetica,sans-Serif" font-size="10.00" fill="#000000">::calculateConservationStats</text>
</a>
</g>
</g>
<!-- Node103&#45;&gt;Node104 -->
<g id="edge1" class="edge">
<title>Node103&#45;&gt;Node104</title>
<path fill="none" stroke="#191970" d="M125.1891,-134.521C148.3415,-143.1298 175.0674,-153.0673 197.62,-161.4531"/>
<polygon fill="#191970" stroke="#191970" points="196.4145,-164.7389 207.0073,-164.9436 198.8542,-158.1778 196.4145,-164.7389"/>
</g>
<!-- Node123 -->
<g id="node21" class="node">
<title>Node123</title>
<g id="a_node21"><a xlink:href="classstatistics_1_1_similarity.html#a4d938119ee92ead82bcd4d43c335c7b1" target="_top" xlink:title="Computes and prints the accumulative statistics associated to the alignment.">
<polygon fill="#ffffff" stroke="#000000" points="191,-33 191,-63 304,-63 304,-33 191,-33"/>
<text text-anchor="start" x="199" y="-51" font-family="Helvetica,sans-Serif" font-size="10.00" fill="#000000">statistics::Similarity</text>
<text text-anchor="middle" x="247.5" y="-40" font-family="Helvetica,sans-Serif" font-size="10.00" fill="#000000">::printConservationAcl</text>
</a>
</g>
</g>
<!-- Node103&#45;&gt;Node123 -->
<g id="edge26" class="edge">
<title>Node103&#45;&gt;Node123</title>
<path fill="none" stroke="#191970" d="M125.1891,-93.479C148.3415,-84.8702 175.0674,-74.9327 197.62,-66.5469"/>
<polygon fill="#191970" stroke="#191970" points="198.8542,-69.8222 207.0073,-63.0564 196.4145,-63.2611 198.8542,-69.8222"/>
</g>
<!-- Node105 -->
<g id="node3" class="node">
<title>Node105</title>
<g id="a_node3"><a xlink:href="classstatistics_1_1_similarity.html#adcb5627b9704850e85433fc40c19db17" target="_top" xlink:title="Allows us compute the conservationWindow&#39;s values.">
<polygon fill="#ffffff" stroke="#000000" points="355.5,-77 355.5,-107 458.5,-107 458.5,-77 355.5,-77"/>
<text text-anchor="start" x="363.5" y="-95" font-family="Helvetica,sans-Serif" font-size="10.00" fill="#000000">statistics::Similarity</text>
<text text-anchor="middle" x="407" y="-84" font-family="Helvetica,sans-Serif" font-size="10.00" fill="#000000">::applyWindow</text>
</a>
</g>
</g>
<!-- Node104&#45;&gt;Node105 -->
<g id="edge2" class="edge">
<title>Node104&#45;&gt;Node105</title>
<path fill="none" stroke="#191970" d="M274.919,-164.8723C301.3611,-150.2835 341.545,-128.1131 370.6452,-112.0578"/>
<polygon fill="#191970" stroke="#191970" points="372.6073,-114.9727 379.6723,-107.0773 369.2258,-108.8436 372.6073,-114.9727"/>
</g>
<!-- Node106 -->
<g id="node4" class="node">
<title>Node106</title>
<g id="a_node4"><a xlink:href="classstatistics_1_1_similarity.html#ae69ec0e79912ae23c8cfe97358c4794d" target="_top" xlink:title="Method to calculate the similarity values of a alignment matrix.">
<polygon fill="#ffffff" stroke="#000000" points="495,-146 495,-176 598,-176 598,-146 495,-146"/>
<text text-anchor="start" x="503" y="-164" font-family="Helvetica,sans-Serif" font-size="10.00" fill="#000000">statistics::Similarity</text>
<text text-anchor="middle" x="546.5" y="-153" font-family="Helvetica,sans-Serif" font-size="10.00" fill="#000000">::calculateVectors</text>
</a>
</g>
</g>
<!-- Node104&#45;&gt;Node106 -->
<g id="edge22" class="edge">
<title>Node104&#45;&gt;Node106</title>
<path fill="none" stroke="#191970" d="M304.0146,-164.9411C320.3438,-161.2568 338.2735,-157.8444 355,-156 400.9437,-150.9338 412.7966,-154.681 459,-156 467.3082,-156.2372 476.0548,-156.6008 484.6743,-157.0261"/>
<polygon fill="#191970" stroke="#191970" points="484.5317,-160.5233 494.7007,-157.5498 484.8969,-153.5329 484.5317,-160.5233"/>
</g>
<!-- Node110 -->
<g id="node8" class="node">
<title>Node110</title>
<g id="a_node8"><a xlink:href="classstatistics_1_1_manager.html#a1969a416d3020d25daa56de6c5e305db" target="_top" xlink:title="Method to handle gap stat calculation It checks if the gaps submodule has been created,...">
<polygon fill="#ffffff" stroke="#000000" points="646.5,-299 646.5,-329 749.5,-329 749.5,-299 646.5,-299"/>
<text text-anchor="start" x="654.5" y="-317" font-family="Helvetica,sans-Serif" font-size="10.00" fill="#000000">statistics::Manager</text>
<text text-anchor="middle" x="698" y="-306" font-family="Helvetica,sans-Serif" font-size="10.00" fill="#000000">::calculateGapStats</text>
</a>
</g>
</g>
<!-- Node104&#45;&gt;Node110 -->
<g id="edge21" class="edge">
<title>Node104&#45;&gt;Node110</title>
<path fill="none" stroke="#191970" d="M255.3034,-195.2779C270.2991,-222.7576 306.0442,-279.8148 355,-303 445.3265,-345.7781 564.5543,-337.2167 636.0223,-326.2304"/>
<polygon fill="#191970" stroke="#191970" points="636.8908,-329.636 646.2111,-324.5977 635.7832,-322.7242 636.8908,-329.636"/>
</g>
<!-- Node120 -->
<g id="node18" class="node">
<title>Node120</title>
<g id="a_node18"><a xlink:href="classstatistics_1_1_similarity.html#a4446bf070a858952dac45f5705d16780" target="_top" xlink:title="Returns if a windows size value has been defined or not.">
<polygon fill="#ffffff" stroke="#000000" points="355.5,-263 355.5,-293 458.5,-293 458.5,-263 355.5,-263"/>
<text text-anchor="start" x="363.5" y="-281" font-family="Helvetica,sans-Serif" font-size="10.00" fill="#000000">statistics::Similarity</text>
<text text-anchor="middle" x="407" y="-270" font-family="Helvetica,sans-Serif" font-size="10.00" fill="#000000">::isDefinedWindow</text>
</a>
</g>
</g>
<!-- Node104&#45;&gt;Node120 -->
<g id="edge23" class="edge">
<title>Node104&#45;&gt;Node120</title>
<path fill="none" stroke="#191970" d="M267.4362,-195.258C288.5275,-211.0281 323.1036,-235.837 355,-254 357.6366,-255.5014 360.3836,-256.9859 363.177,-258.4361"/>
<polygon fill="#191970" stroke="#191970" points="361.6689,-261.5951 372.1793,-262.9304 364.7956,-255.3322 361.6689,-261.5951"/>
</g>
<!-- Node121 -->
<g id="node19" class="node">
<title>Node121</title>
<g id="a_node19"><a xlink:href="classstatistics_1_1_similarity.html#a88b1061ad8e64c1a63a4aa00db7424e3" target="_top" xlink:title="Returns if a similarity matrix is being used or not.">
<polygon fill="#ffffff" stroke="#000000" points="355.5,-214 355.5,-244 458.5,-244 458.5,-214 355.5,-214"/>
<text text-anchor="start" x="363.5" y="-232" font-family="Helvetica,sans-Serif" font-size="10.00" fill="#000000">statistics::Similarity</text>
<text text-anchor="middle" x="407" y="-221" font-family="Helvetica,sans-Serif" font-size="10.00" fill="#000000">::isSimMatrixDef</text>
</a>
</g>
</g>
<!-- Node104&#45;&gt;Node121 -->
<g id="edge24" class="edge">
<title>Node104&#45;&gt;Node121</title>
<path fill="none" stroke="#191970" d="M296.6567,-195.1014C312.9546,-200.1083 331.2617,-205.7324 348.2095,-210.939"/>
<polygon fill="#191970" stroke="#191970" points="347.4186,-214.3574 358.0056,-213.9484 349.4743,-207.666 347.4186,-214.3574"/>
</g>
<!-- Node122 -->
<g id="node20" class="node">
<title>Node122</title>
<g id="a_node20"><a xlink:href="classstatistics_1_1_similarity.html#a95126bfd6b0ed22c828a6ab780096a12" target="_top" xlink:title="Stores a valid similarity matrix point to use.">
<polygon fill="#ffffff" stroke="#000000" points="355,-165 355,-195 459,-195 459,-165 355,-165"/>
<text text-anchor="start" x="363" y="-183" font-family="Helvetica,sans-Serif" font-size="10.00" fill="#000000">statistics::Similarity</text>
<text text-anchor="middle" x="407" y="-172" font-family="Helvetica,sans-Serif" font-size="10.00" fill="#000000">::setSimilarityMatrix</text>
</a>
</g>
</g>
<!-- Node104&#45;&gt;Node122 -->
<g id="edge25" class="edge">
<title>Node104&#45;&gt;Node122</title>
<path fill="none" stroke="#191970" d="M319.3178,-180C327.6898,-180 336.1796,-180 344.4131,-180"/>
<polygon fill="#191970" stroke="#191970" points="344.6771,-183.5001 354.6771,-180 344.6771,-176.5001 344.6771,-183.5001"/>
</g>
<!-- Node105&#45;&gt;Node106 -->
<g id="edge3" class="edge">
<title>Node105&#45;&gt;Node106</title>
<path fill="none" stroke="#191970" d="M437.6139,-107.1423C457.9655,-117.2087 484.8895,-130.526 506.8724,-141.3992"/>
<polygon fill="#191970" stroke="#191970" points="505.4423,-144.5966 515.9575,-145.893 508.5458,-138.3222 505.4423,-144.5966"/>
</g>
<!-- Node113 -->
<g id="node11" class="node">
<title>Node113</title>
<g id="a_node11"><a xlink:href="classreporting_1_1report_manager.html#a6d122e673144584e0869bd33b8a5c1c6" target="_top" xlink:title="Method to report an Error. &#160;It will be displayed if Level &#160;is equal or higher to VerboseLevel::ERROR.">
<polygon fill="#ffffff" stroke="#000000" points="989,-80 989,-110 1111,-110 1111,-80 989,-80"/>
<text text-anchor="start" x="997" y="-98" font-family="Helvetica,sans-Serif" font-size="10.00" fill="#000000">reporting::reportManager</text>
<text text-anchor="middle" x="1050" y="-87" font-family="Helvetica,sans-Serif" font-size="10.00" fill="#000000">::report</text>
</a>
</g>
</g>
<!-- Node105&#45;&gt;Node113 -->
<g id="edge20" class="edge">
<title>Node105&#45;&gt;Node113</title>
<path fill="none" stroke="#191970" d="M458.5998,-86.3137C554.9805,-76.6155 768.82,-59.454 948,-76 957.9548,-76.9193 968.3874,-78.3329 978.6227,-79.9835"/>
<polygon fill="#191970" stroke="#191970" points="978.3228,-83.4825 988.7672,-81.7034 979.493,-76.581 978.3228,-83.4825"/>
</g>
<!-- Node107 -->
<g id="node5" class="node">
<title>Node107</title>
<g id="a_node5"><a xlink:href="classstatistics_1_1_similarity.html#a75bd235b3207235eefa7b52dff063c76" target="_top" xlink:title="Computes the matrix identity between alignment&#39;s columns.">
<polygon fill="#ffffff" stroke="#000000" points="637.5,-124 637.5,-154 758.5,-154 758.5,-124 637.5,-124"/>
<text text-anchor="start" x="645.5" y="-142" font-family="Helvetica,sans-Serif" font-size="10.00" fill="#000000">statistics::Similarity</text>
<text text-anchor="middle" x="698" y="-131" font-family="Helvetica,sans-Serif" font-size="10.00" fill="#000000">::calculateMatrixIdentity</text>
</a>
</g>
</g>
<!-- Node106&#45;&gt;Node107 -->
<g id="edge4" class="edge">
<title>Node106&#45;&gt;Node107</title>
<path fill="none" stroke="#191970" d="M598.214,-153.4904C607.5661,-152.1323 617.4635,-150.6951 627.2492,-149.274"/>
<polygon fill="#191970" stroke="#191970" points="627.9858,-152.7039 637.379,-147.8031 626.9798,-145.7765 627.9858,-152.7039"/>
</g>
<!-- Node108 -->
<g id="node6" class="node">
<title>Node108</title>
<g id="a_node6"><a xlink:href="class_alignment.html#a1bc7622776f3935f6cb9d3c895e43a29" target="_top" xlink:title="Alignment type getter. &#160;&#160;See SequenceTypes.">
<polygon fill="#ffffff" stroke="#000000" points="800.5,-150.5 800.5,-169.5 945.5,-169.5 945.5,-150.5 800.5,-150.5"/>
<text text-anchor="middle" x="873" y="-157.5" font-family="Helvetica,sans-Serif" font-size="10.00" fill="#000000">Alignment::getAlignmentType</text>
</a>
</g>
</g>
<!-- Node106&#45;&gt;Node108 -->
<g id="edge16" class="edge">
<title>Node106&#45;&gt;Node108</title>
<path fill="none" stroke="#191970" d="M571.101,-176.1033C588.0844,-185.6139 611.5664,-197.0047 634,-202 689.5289,-214.3646 706.0391,-212.2332 762,-202 791.308,-196.6406 822.9219,-183.9354 844.8859,-173.8929"/>
<polygon fill="#191970" stroke="#191970" points="846.392,-177.0524 853.964,-169.6419 843.4234,-170.713 846.392,-177.0524"/>
</g>
<!-- Node106&#45;&gt;Node110 -->
<g id="edge7" class="edge">
<title>Node106&#45;&gt;Node110</title>
<path fill="none" stroke="#191970" d="M553.0841,-176.383C565.2693,-203.1299 593.808,-258.3679 634,-290 635.6086,-291.266 637.2909,-292.4703 639.0299,-293.6156"/>
<polygon fill="#191970" stroke="#191970" points="637.7057,-296.8925 648.116,-298.8614 641.2057,-290.8303 637.7057,-296.8925"/>
</g>
<!-- Node116 -->
<g id="node14" class="node">
<title>Node116</title>
<g id="a_node14"><a xlink:href="classstatistics_1_1_gaps.html#ab5b60db326475f8adc68b130e22b3963" target="_top" xlink:title=" ">
<polygon fill="#ffffff" stroke="#000000" points="634,-250 634,-280 762,-280 762,-250 634,-250"/>
<text text-anchor="start" x="642" y="-268" font-family="Helvetica,sans-Serif" font-size="10.00" fill="#000000">statistics::Gaps::getGaps</text>
<text text-anchor="middle" x="698" y="-257" font-family="Helvetica,sans-Serif" font-size="10.00" fill="#000000">Window</text>
</a>
</g>
</g>
<!-- Node106&#45;&gt;Node116 -->
<g id="edge13" class="edge">
<title>Node106&#45;&gt;Node116</title>
<path fill="none" stroke="#191970" d="M561.9446,-176.2721C578.692,-192.2816 606.7009,-217.4956 634,-235 639.7606,-238.6937 646.0484,-242.2018 652.3604,-245.4298"/>
<polygon fill="#191970" stroke="#191970" points="651.0477,-248.6843 661.5669,-249.9478 654.1315,-242.4002 651.0477,-248.6843"/>
</g>
<!-- Node118 -->
<g id="node16" class="node">
<title>Node118</title>
<g id="a_node16"><a xlink:href="namespaceutils.html#a6286fde6f4dd58ef0cfa9d55341b72f8" target="_top" xlink:title=" ">
<polygon fill="#ffffff" stroke="#000000" points="660.5,-173.5 660.5,-192.5 735.5,-192.5 735.5,-173.5 660.5,-173.5"/>
<text text-anchor="middle" x="698" y="-180.5" font-family="Helvetica,sans-Serif" font-size="10.00" fill="#000000">utils::toUpper</text>
</a>
</g>
</g>
<!-- Node106&#45;&gt;Node118 -->
<g id="edge17" class="edge">
<title>Node106&#45;&gt;Node118</title>
<path fill="none" stroke="#191970" d="M598.214,-168.5096C615.1088,-170.963 633.7831,-173.6748 650.3634,-176.0825"/>
<polygon fill="#191970" stroke="#191970" points="649.9826,-179.5638 660.3818,-177.5373 650.9886,-172.6365 649.9826,-179.5638"/>
</g>
<!-- Node119 -->
<g id="node17" class="node">
<title>Node119</title>
<g id="a_node17"><a xlink:href="classsimilarity_matrix.html#aef258a851d1a443a39597060420d8908" target="_top" xlink:title="Method to get the similarity distance between two residues, A and B Characters provided must be both ...">
<polygon fill="#ffffff" stroke="#000000" points="802.5,-85.5 802.5,-104.5 943.5,-104.5 943.5,-85.5 802.5,-85.5"/>
<text text-anchor="middle" x="873" y="-92.5" font-family="Helvetica,sans-Serif" font-size="10.00" fill="#000000">similarityMatrix::getDistance</text>
</a>
</g>
</g>
<!-- Node106&#45;&gt;Node119 -->
<g id="edge18" class="edge">
<title>Node106&#45;&gt;Node119</title>
<path fill="none" stroke="#191970" d="M569.1824,-145.8172C586.2412,-135.2296 610.6041,-121.8226 634,-115 685.2989,-100.0404 745.227,-95.0533 792.241,-93.7996"/>
<polygon fill="#191970" stroke="#191970" points="792.4505,-97.296 802.3729,-93.5815 792.2998,-90.2977 792.4505,-97.296"/>
</g>
<!-- Node107&#45;&gt;Node108 -->
<g id="edge5" class="edge">
<title>Node107&#45;&gt;Node108</title>
<path fill="none" stroke="#191970" d="M758.7154,-146.2858C768.8896,-147.5068 779.5986,-148.7918 790.2147,-150.0658"/>
<polygon fill="#191970" stroke="#191970" points="789.9983,-153.5648 800.3441,-151.2813 790.8324,-146.6147 789.9983,-153.5648"/>
</g>
<!-- Node109 -->
<g id="node7" class="node">
<title>Node109</title>
<g id="a_node7"><a xlink:href="namespaceutils.html#aab52f9515717f06cafd6ab7fe2ebdcef" target="_top" xlink:title="Checks an alignment type.">
<polygon fill="#ffffff" stroke="#000000" points="984,-150.5 984,-169.5 1116,-169.5 1116,-150.5 984,-150.5"/>
<text text-anchor="middle" x="1050" y="-157.5" font-family="Helvetica,sans-Serif" font-size="10.00" fill="#000000">utils::checkAlignmentType</text>
</a>
</g>
</g>
<!-- Node108&#45;&gt;Node109 -->
<g id="edge6" class="edge">
<title>Node108&#45;&gt;Node109</title>
<path fill="none" stroke="#191970" d="M945.5034,-160C954.8282,-160 964.3981,-160 973.7802,-160"/>
<polygon fill="#191970" stroke="#191970" points="973.8666,-163.5001 983.8666,-160 973.8665,-156.5001 973.8666,-163.5001"/>
</g>
<!-- Node111 -->
<g id="node9" class="node">
<title>Node111</title>
<g id="a_node9"><a xlink:href="classstatistics_1_1_gaps.html#aee36b772767467cdba2061df2305e85d" target="_top" xlink:title=" ">
<polygon fill="#ffffff" stroke="#000000" points="798,-257.5 798,-276.5 948,-276.5 948,-257.5 798,-257.5"/>
<text text-anchor="middle" x="873" y="-264.5" font-family="Helvetica,sans-Serif" font-size="10.00" fill="#000000">statistics::Gaps::applyWindow</text>
</a>
</g>
</g>
<!-- Node110&#45;&gt;Node111 -->
<g id="edge8" class="edge">
<title>Node110&#45;&gt;Node111</title>
<path fill="none" stroke="#191970" d="M749.5593,-300.1527C774.3488,-293.4949 803.7966,-285.5861 827.7118,-279.1631"/>
<polygon fill="#191970" stroke="#191970" points="828.8428,-282.4835 837.5927,-276.5094 827.0271,-275.723 828.8428,-282.4835"/>
</g>
<!-- Node115 -->
<g id="node13" class="node">
<title>Node115</title>
<g id="a_node13"><a xlink:href="classstatistics_1_1_gaps.html#aa3526494d5100e062daa4afba755d0b1" target="_top" xlink:title=" ">
<polygon fill="#ffffff" stroke="#000000" points="806.5,-299 806.5,-329 939.5,-329 939.5,-299 806.5,-299"/>
<text text-anchor="start" x="814.5" y="-317" font-family="Helvetica,sans-Serif" font-size="10.00" fill="#000000">statistics::Gaps::Calculate</text>
<text text-anchor="middle" x="873" y="-306" font-family="Helvetica,sans-Serif" font-size="10.00" fill="#000000">Vectors</text>
</a>
</g>
</g>
<!-- Node110&#45;&gt;Node115 -->
<g id="edge12" class="edge">
<title>Node110&#45;&gt;Node115</title>
<path fill="none" stroke="#191970" d="M749.5593,-314C764.1154,-314 780.2776,-314 795.9828,-314"/>
<polygon fill="#191970" stroke="#191970" points="796.2159,-317.5001 806.2159,-314 796.2158,-310.5001 796.2159,-317.5001"/>
</g>
<!-- Node112 -->
<g id="node10" class="node">
<title>Node112</title>
<g id="a_node10"><a xlink:href="namespaceutils.html#aac322cd1761fddedec8a5792e358eb32" target="_top" xlink:title="Vector initialization.">
<polygon fill="#ffffff" stroke="#000000" points="1012,-238.5 1012,-257.5 1088,-257.5 1088,-238.5 1012,-238.5"/>
<text text-anchor="middle" x="1050" y="-245.5" font-family="Helvetica,sans-Serif" font-size="10.00" fill="#000000">utils::initlVect</text>
</a>
</g>
</g>
<!-- Node111&#45;&gt;Node112 -->
<g id="edge9" class="edge">
<title>Node111&#45;&gt;Node112</title>
<path fill="none" stroke="#191970" d="M948.0639,-258.9423C966.3223,-256.9824 985.3618,-254.9386 1001.9757,-253.1551"/>
<polygon fill="#191970" stroke="#191970" points="1002.4088,-256.6289 1011.9781,-252.0814 1001.6616,-249.6688 1002.4088,-256.6289"/>
</g>
<!-- Node111&#45;&gt;Node113 -->
<g id="edge10" class="edge">
<title>Node111&#45;&gt;Node113</title>
<path fill="none" stroke="#191970" d="M933.93,-257.4035C939.0619,-254.9211 943.8613,-251.8338 948,-248 984.8088,-213.9025 953.9019,-181.1452 984,-141 991.3963,-131.1347 1001.5402,-122.6031 1011.6571,-115.6586"/>
<polygon fill="#191970" stroke="#191970" points="1013.5931,-118.5747 1020.0879,-110.204 1009.7907,-112.6974 1013.5931,-118.5747"/>
</g>
<!-- Node114 -->
<g id="node12" class="node">
<title>Node114</title>
<g id="a_node12"><a xlink:href="namespaceutils.html#ad50731aeb3c8f79ed8372516210dfc9d" target="_top" xlink:title="Round double to integer method.">
<polygon fill="#ffffff" stroke="#000000" points="1012,-276.5 1012,-295.5 1088,-295.5 1088,-276.5 1012,-276.5"/>
<text text-anchor="middle" x="1050" y="-283.5" font-family="Helvetica,sans-Serif" font-size="10.00" fill="#000000">utils::roundInt</text>
</a>
</g>
</g>
<!-- Node111&#45;&gt;Node114 -->
<g id="edge11" class="edge">
<title>Node111&#45;&gt;Node114</title>
<path fill="none" stroke="#191970" d="M948.0639,-275.0577C966.3223,-277.0176 985.3618,-279.0614 1001.9757,-280.8449"/>
<polygon fill="#191970" stroke="#191970" points="1001.6616,-284.3312 1011.9781,-281.9186 1002.4088,-277.3711 1001.6616,-284.3312"/>
</g>
<!-- Node116&#45;&gt;Node111 -->
<g id="edge14" class="edge">
<title>Node116&#45;&gt;Node111</title>
<path fill="none" stroke="#191970" d="M762.1698,-265.7334C770.5133,-265.8287 779.1621,-265.9276 787.7813,-266.0261"/>
<polygon fill="#191970" stroke="#191970" points="787.8265,-269.5267 797.8659,-266.1413 787.9066,-262.5272 787.8265,-269.5267"/>
</g>
<!-- Node117 -->
<g id="node15" class="node">
<title>Node117</title>
<g id="a_node15"><a xlink:href="classstatistics_1_1_gaps.html#ad812a924cf5e3f900aad3ed4a9664300" target="_top" xlink:title=" ">
<polygon fill="#ffffff" stroke="#000000" points="806.5,-208 806.5,-238 939.5,-238 939.5,-208 806.5,-208"/>
<text text-anchor="start" x="814.5" y="-226" font-family="Helvetica,sans-Serif" font-size="10.00" fill="#000000">statistics::Gaps::isDefined</text>
<text text-anchor="middle" x="873" y="-215" font-family="Helvetica,sans-Serif" font-size="10.00" fill="#000000">Window</text>
</a>
</g>
</g>
<!-- Node116&#45;&gt;Node117 -->
<g id="edge15" class="edge">
<title>Node116&#45;&gt;Node117</title>
<path fill="none" stroke="#191970" d="M760.6847,-249.9557C773.5801,-246.8608 787.2593,-243.5778 800.4694,-240.4074"/>
<polygon fill="#191970" stroke="#191970" points="801.5519,-243.747 810.459,-238.0098 799.9183,-236.9403 801.5519,-243.747"/>
</g>
<!-- Node119&#45;&gt;Node113 -->
<g id="edge19" class="edge">
<title>Node119&#45;&gt;Node113</title>
<path fill="none" stroke="#191970" d="M943.7182,-95C955.2619,-95 967.2266,-95 978.7823,-95"/>
<polygon fill="#191970" stroke="#191970" points="978.8112,-98.5001 988.8112,-95 978.8112,-91.5001 978.8112,-98.5001"/>
</g>
<!-- Node124 -->
<g id="node22" class="node">
<title>Node124</title>
<g id="a_node22"><a xlink:href="namespaceutils.html#a42f272221edf7752ffda49e4212ef653" target="_top" xlink:title="Integer vector copying.">
<polygon fill="#ffffff" stroke="#000000" points="366,-38.5 366,-57.5 448,-57.5 448,-38.5 366,-38.5"/>
<text text-anchor="middle" x="407" y="-45.5" font-family="Helvetica,sans-Serif" font-size="10.00" fill="#000000">utils::copyVect</text>
</a>
</g>
</g>
<!-- Node123&#45;&gt;Node124 -->
<g id="edge27" class="edge">
<title>Node123&#45;&gt;Node124</title>
<path fill="none" stroke="#191970" d="M304.1828,-48C320.7829,-48 338.8418,-48 355.1267,-48"/>
<polygon fill="#191970" stroke="#191970" points="355.5389,-51.5001 365.5389,-48 355.5388,-44.5001 355.5389,-51.5001"/>
</g>
<!-- Node125 -->
<g id="node23" class="node">
<title>Node125</title>
<g id="a_node23"><a xlink:href="namespaceutils.html#a73f038c379c13d23e3220afaa14f9983" target="_top" xlink:title="Quicksort sorting method.">
<polygon fill="#ffffff" stroke="#000000" points="367,-.5 367,-19.5 447,-19.5 447,-.5 367,-.5"/>
<text text-anchor="middle" x="407" y="-7.5" font-family="Helvetica,sans-Serif" font-size="10.00" fill="#000000">utils::quicksort</text>
</a>
</g>
</g>
<!-- Node123&#45;&gt;Node125 -->
<g id="edge28" class="edge">
<title>Node123&#45;&gt;Node125</title>
<path fill="none" stroke="#191970" d="M304.1828,-34.4956C321.3859,-30.3971 340.1557,-25.9253 356.8942,-21.9374"/>
<polygon fill="#191970" stroke="#191970" points="358.105,-25.247 367.0216,-19.5246 356.4826,-18.4376 358.105,-25.247"/>
</g>
<!-- Node126 -->
<g id="node24" class="node">
<title>Node126</title>
<g id="a_node24"><a xlink:href="namespaceutils.html#a3377ecde55631d1bbc4956e5923b7469" target="_top" xlink:title="Swapping elements method.">
<polygon fill="#ffffff" stroke="#000000" points="514.5,-.5 514.5,-19.5 578.5,-19.5 578.5,-.5 514.5,-.5"/>
<text text-anchor="middle" x="546.5" y="-7.5" font-family="Helvetica,sans-Serif" font-size="10.00" fill="#000000">utils::swap</text>
</a>
</g>
</g>
<!-- Node125&#45;&gt;Node126 -->
<g id="edge29" class="edge">
<title>Node125&#45;&gt;Node126</title>
<path fill="none" stroke="#191970" d="M447.3492,-10C465.1075,-10 485.978,-10 503.9785,-10"/>
<polygon fill="#191970" stroke="#191970" points="504.2002,-13.5001 514.2001,-10 504.2001,-6.5001 504.2002,-13.5001"/>
</g>
</g>
</svg>
