<?xml version="1.0" encoding="UTF-8" standalone="no"?>
<!DOCTYPE svg PUBLIC "-//W3C//DTD SVG 1.1//EN"
 "http://www.w3.org/Graphics/SVG/1.1/DTD/svg11.dtd">
<!-- Generated by graphviz version 2.40.1 (20161225.0304)
 -->
<!-- Title: statistics::Gaps::calcCutPointMixSlope Pages: 1 -->
<svg width="245pt" height="66pt"
 viewBox="0.00 0.00 245.00 66.00" xmlns="http://www.w3.org/2000/svg" xmlns:xlink="http://www.w3.org/1999/xlink">
<g id="graph0" class="graph" transform="scale(1 1) rotate(0) translate(4 62)">
<title>statistics::Gaps::calcCutPointMixSlope</title>
<polygon fill="#ffffff" stroke="transparent" points="-4,4 -4,-62 241,-62 241,4 -4,4"/>
<!-- Node65 -->
<g id="node1" class="node">
<title>Node65</title>
<g id="a_node1"><a xlink:title=" ">
<polygon fill="#bfbfbf" stroke="#000000" points="0,-14 0,-44 125,-44 125,-14 0,-14"/>
<text text-anchor="start" x="8" y="-32" font-family="Helvetica,sans-Serif" font-size="10.00" fill="#000000">statistics::Gaps::calcCut</text>
<text text-anchor="middle" x="62.5" y="-21" font-family="Helvetica,sans-Serif" font-size="10.00" fill="#000000">PointMixSlope</text>
</a>
</g>
</g>
<!-- Node66 -->
<g id="node2" class="node">
<title>Node66</title>
<g id="a_node2"><a xlink:href="namespaceutils.html#aac322cd1761fddedec8a5792e358eb32" target="_top" xlink:title="Vector initialization.">
<polygon fill="#ffffff" stroke="#000000" points="161,-38.5 161,-57.5 237,-57.5 237,-38.5 161,-38.5"/>
<text text-anchor="middle" x="199" y="-45.5" font-family="Helvetica,sans-Serif" font-size="10.00" fill="#000000">utils::initlVect</text>
</a>
</g>
</g>
<!-- Node65&#45;&gt;Node66 -->
<g id="edge1" class="edge">
<title>Node65&#45;&gt;Node66</title>
<path fill="none" stroke="#191970" d="M125.1569,-37.7215C133.8267,-38.9283 142.6176,-40.1519 150.9651,-41.3138"/>
<polygon fill="#191970" stroke="#191970" points="150.5022,-44.7831 160.8893,-42.6952 151.4673,-37.8499 150.5022,-44.7831"/>
</g>
<!-- Node67 -->
<g id="node3" class="node">
<title>Node67</title>
<g id="a_node3"><a xlink:href="namespaceutils.html#a40640e1942f00797e9fe8284e8fbdb14" target="_top" xlink:title="Maximum of two numbers method.">
<polygon fill="#ffffff" stroke="#000000" points="169.5,-.5 169.5,-19.5 228.5,-19.5 228.5,-.5 169.5,-.5"/>
<text text-anchor="middle" x="199" y="-7.5" font-family="Helvetica,sans-Serif" font-size="10.00" fill="#000000">utils::max</text>
</a>
</g>
</g>
<!-- Node65&#45;&gt;Node67 -->
<g id="edge2" class="edge">
<title>Node65&#45;&gt;Node67</title>
<path fill="none" stroke="#191970" d="M125.1569,-20.2785C136.721,-18.6689 148.5006,-17.0292 159.1559,-15.5461"/>
<polygon fill="#191970" stroke="#191970" points="159.9648,-18.9673 169.3868,-14.122 158.9997,-12.0341 159.9648,-18.9673"/>
</g>
</g>
</svg>
