<?xml version="1.0" encoding="UTF-8" standalone="no"?>
<!DOCTYPE svg PUBLIC "-//W3C//DTD SVG 1.1//EN"
 "http://www.w3.org/Graphics/SVG/1.1/DTD/svg11.dtd">
<!-- Generated by graphviz version 2.40.1 (20161225.0304)
 -->
<!-- Title: similarityMatrix::defaultAASimMatrix Pages: 1 -->
<svg width="446pt" height="39pt"
 viewBox="0.00 0.00 446.00 39.00" xmlns="http://www.w3.org/2000/svg" xmlns:xlink="http://www.w3.org/1999/xlink">
<g id="graph0" class="graph" transform="scale(1 1) rotate(0) translate(4 35)">
<title>similarityMatrix::defaultAASimMatrix</title>
<polygon fill="#ffffff" stroke="transparent" points="-4,4 -4,-35 442,-35 442,4 -4,4"/>
<!-- Node13 -->
<g id="node1" class="node">
<title>Node13</title>
<g id="a_node1"><a xlink:title="Method to load the default AA similarity matrix.">
<polygon fill="#bfbfbf" stroke="#000000" points="0,-.5 0,-30.5 118,-30.5 118,-.5 0,-.5"/>
<text text-anchor="start" x="8" y="-18.5" font-family="Helvetica,sans-Serif" font-size="10.00" fill="#000000">similarityMatrix::default</text>
<text text-anchor="middle" x="59" y="-7.5" font-family="Helvetica,sans-Serif" font-size="10.00" fill="#000000">AASimMatrix</text>
</a>
</g>
</g>
<!-- Node14 -->
<g id="node2" class="node">
<title>Node14</title>
<g id="a_node2"><a xlink:href="classsimilarity_matrix.html#a08e4e5790d95848f049ed00579c0e377" target="_top" xlink:title="Method to allocate memory for the similiarity matrix.">
<polygon fill="#ffffff" stroke="#000000" points="154,-.5 154,-30.5 278,-30.5 278,-.5 154,-.5"/>
<text text-anchor="start" x="162" y="-18.5" font-family="Helvetica,sans-Serif" font-size="10.00" fill="#000000">similarityMatrix::memory</text>
<text text-anchor="middle" x="216" y="-7.5" font-family="Helvetica,sans-Serif" font-size="10.00" fill="#000000">Allocation</text>
</a>
</g>
</g>
<!-- Node13&#45;&gt;Node14 -->
<g id="edge1" class="edge">
<title>Node13&#45;&gt;Node14</title>
<path fill="none" stroke="#191970" d="M118.355,-15.5C126.6274,-15.5 135.2019,-15.5 143.6797,-15.5"/>
<polygon fill="#191970" stroke="#191970" points="143.946,-19.0001 153.9459,-15.5 143.9459,-12.0001 143.946,-19.0001"/>
</g>
<!-- Node15 -->
<g id="node3" class="node">
<title>Node15</title>
<g id="a_node3"><a xlink:href="classsimilarity_matrix.html#acc8f6dbae19b4332929ef6a240524975" target="_top" xlink:title="Method to deallocate memory allocated on the similarityMatrix::memoryAllocation method....">
<polygon fill="#ffffff" stroke="#000000" points="314,-.5 314,-30.5 438,-30.5 438,-.5 314,-.5"/>
<text text-anchor="start" x="322" y="-18.5" font-family="Helvetica,sans-Serif" font-size="10.00" fill="#000000">similarityMatrix::memory</text>
<text text-anchor="middle" x="376" y="-7.5" font-family="Helvetica,sans-Serif" font-size="10.00" fill="#000000">Deletion</text>
</a>
</g>
</g>
<!-- Node14&#45;&gt;Node15 -->
<g id="edge2" class="edge">
<title>Node14&#45;&gt;Node15</title>
<path fill="none" stroke="#191970" d="M278.3183,-15.5C286.615,-15.5 295.1788,-15.5 303.628,-15.5"/>
<polygon fill="#191970" stroke="#191970" points="303.8518,-19.0001 313.8518,-15.5 303.8517,-12.0001 303.8518,-19.0001"/>
</g>
</g>
</svg>
