<?xml version="1.0" encoding="UTF-8" standalone="no"?>
<!DOCTYPE svg PUBLIC "-//W3C//DTD SVG 1.1//EN"
 "http://www.w3.org/Graphics/SVG/1.1/DTD/svg11.dtd">
<!-- Generated by graphviz version 2.40.1 (20161225.0304)
 -->
<!-- Title: Cleaner::getClustering Pages: 1 -->
<svg width="867pt" height="142pt"
 viewBox="0.00 0.00 867.00 142.00" xmlns="http://www.w3.org/2000/svg" xmlns:xlink="http://www.w3.org/1999/xlink">
<g id="graph0" class="graph" transform="scale(1 1) rotate(0) translate(4 138)">
<title>Cleaner::getClustering</title>
<polygon fill="#ffffff" stroke="transparent" points="-4,4 -4,-138 863,-138 863,4 -4,4"/>
<!-- Node317 -->
<g id="node1" class="node">
<title>Node317</title>
<g id="a_node1"><a xlink:title="Method to select the most representative sequence (the longest one) for each cluster from the input a...">
<polygon fill="#bfbfbf" stroke="#000000" points="0,-57.5 0,-76.5 114,-76.5 114,-57.5 0,-57.5"/>
<text text-anchor="middle" x="57" y="-64.5" font-family="Helvetica,sans-Serif" font-size="10.00" fill="#000000">Cleaner::getClustering</text>
</a>
</g>
</g>
<!-- Node318 -->
<g id="node2" class="node">
<title>Node318</title>
<g id="a_node2"><a xlink:href="class_cleaner.html#a631cf3e2e55c00a995f0f4a51bfe7a2d" target="_top" xlink:title="Method to assign sequences to clusters. Clusters are calculated following this flow:">
<polygon fill="#ffffff" stroke="#000000" points="150,-57.5 150,-76.5 329,-76.5 329,-57.5 150,-57.5"/>
<text text-anchor="middle" x="239.5" y="-64.5" font-family="Helvetica,sans-Serif" font-size="10.00" fill="#000000">Cleaner::calculateRepresentativeSeq</text>
</a>
</g>
</g>
<!-- Node317&#45;&gt;Node318 -->
<g id="edge1" class="edge">
<title>Node317&#45;&gt;Node318</title>
<path fill="none" stroke="#191970" d="M114.2434,-67C122.3578,-67 130.8909,-67 139.5292,-67"/>
<polygon fill="#191970" stroke="#191970" points="139.6994,-70.5001 149.6994,-67 139.6994,-63.5001 139.6994,-70.5001"/>
</g>
<!-- Node319 -->
<g id="node3" class="node">
<title>Node319</title>
<g id="a_node3"><a xlink:href="class_cleaner.html#a65d829578be97c192561a129435b3c58" target="_top" xlink:title="Method to calculate identities between the sequences from the alignment. See Alignment::identities.">
<polygon fill="#ffffff" stroke="#000000" points="365,-114.5 365,-133.5 510,-133.5 510,-114.5 365,-114.5"/>
<text text-anchor="middle" x="437.5" y="-121.5" font-family="Helvetica,sans-Serif" font-size="10.00" fill="#000000">Cleaner::calculateSeqIdentity</text>
</a>
</g>
</g>
<!-- Node318&#45;&gt;Node319 -->
<g id="edge2" class="edge">
<title>Node318&#45;&gt;Node319</title>
<path fill="none" stroke="#191970" d="M269.8377,-76.5361C295.1973,-84.4231 332.356,-95.7839 365,-105 373.1004,-107.2869 381.7362,-109.6312 390.1197,-111.8579"/>
<polygon fill="#191970" stroke="#191970" points="389.2363,-115.2446 399.798,-114.4074 391.0194,-108.4755 389.2363,-115.2446"/>
</g>
<!-- Node322 -->
<g id="node6" class="node">
<title>Node322</title>
<g id="a_node6"><a xlink:href="namespaceutils.html#a40640e1942f00797e9fe8284e8fbdb14" target="_top" xlink:title="Maximum of two numbers method.">
<polygon fill="#ffffff" stroke="#000000" points="408,-76.5 408,-95.5 467,-95.5 467,-76.5 408,-76.5"/>
<text text-anchor="middle" x="437.5" y="-83.5" font-family="Helvetica,sans-Serif" font-size="10.00" fill="#000000">utils::max</text>
</a>
</g>
</g>
<!-- Node318&#45;&gt;Node322 -->
<g id="edge5" class="edge">
<title>Node318&#45;&gt;Node322</title>
<path fill="none" stroke="#191970" d="M329.2308,-75.6105C353.1691,-77.9076 377.8367,-80.2747 397.5688,-82.1682"/>
<polygon fill="#191970" stroke="#191970" points="397.408,-85.6688 407.6967,-83.1401 398.0767,-78.7008 397.408,-85.6688"/>
</g>
<!-- Node323 -->
<g id="node7" class="node">
<title>Node323</title>
<g id="a_node7"><a xlink:href="namespaceutils.html#a73f038c379c13d23e3220afaa14f9983" target="_top" xlink:title="Quicksort sorting method.">
<polygon fill="#ffffff" stroke="#000000" points="397.5,-38.5 397.5,-57.5 477.5,-57.5 477.5,-38.5 397.5,-38.5"/>
<text text-anchor="middle" x="437.5" y="-45.5" font-family="Helvetica,sans-Serif" font-size="10.00" fill="#000000">utils::quicksort</text>
</a>
</g>
</g>
<!-- Node318&#45;&gt;Node323 -->
<g id="edge6" class="edge">
<title>Node318&#45;&gt;Node323</title>
<path fill="none" stroke="#191970" d="M329.2308,-58.3895C349.1602,-56.477 369.5951,-54.5161 387.2666,-52.8204"/>
<polygon fill="#191970" stroke="#191970" points="387.7075,-56.2942 397.3274,-51.8549 387.0388,-49.3262 387.7075,-56.2942"/>
</g>
<!-- Node325 -->
<g id="node9" class="node">
<title>Node325</title>
<g id="a_node9"><a xlink:href="namespaceutils.html#ac0a8721fef543bec18cec5c90c16faff" target="_top" xlink:title="Removes a determined char from the string.">
<polygon fill="#ffffff" stroke="#000000" points="379.5,-.5 379.5,-19.5 495.5,-19.5 495.5,-.5 379.5,-.5"/>
<text text-anchor="middle" x="437.5" y="-7.5" font-family="Helvetica,sans-Serif" font-size="10.00" fill="#000000">utils::removeCharacter</text>
</a>
</g>
</g>
<!-- Node318&#45;&gt;Node325 -->
<g id="edge8" class="edge">
<title>Node318&#45;&gt;Node325</title>
<path fill="none" stroke="#191970" d="M269.8377,-57.4639C295.1973,-49.5769 332.356,-38.2161 365,-29 373.1004,-26.7131 381.7362,-24.3688 390.1197,-22.1421"/>
<polygon fill="#191970" stroke="#191970" points="391.0194,-25.5245 399.798,-19.5926 389.2363,-18.7554 391.0194,-25.5245"/>
</g>
<!-- Node320 -->
<g id="node4" class="node">
<title>Node320</title>
<g id="a_node4"><a xlink:href="class_alignment.html#a1bc7622776f3935f6cb9d3c895e43a29" target="_top" xlink:title="Alignment type getter. &#160;&#160;See SequenceTypes.">
<polygon fill="#ffffff" stroke="#000000" points="546,-114.5 546,-133.5 691,-133.5 691,-114.5 546,-114.5"/>
<text text-anchor="middle" x="618.5" y="-121.5" font-family="Helvetica,sans-Serif" font-size="10.00" fill="#000000">Alignment::getAlignmentType</text>
</a>
</g>
</g>
<!-- Node319&#45;&gt;Node320 -->
<g id="edge3" class="edge">
<title>Node319&#45;&gt;Node320</title>
<path fill="none" stroke="#191970" d="M510.0767,-124C518.5595,-124 527.2611,-124 535.8671,-124"/>
<polygon fill="#191970" stroke="#191970" points="535.907,-127.5001 545.907,-124 535.907,-120.5001 535.907,-127.5001"/>
</g>
<!-- Node321 -->
<g id="node5" class="node">
<title>Node321</title>
<g id="a_node5"><a xlink:href="namespaceutils.html#aab52f9515717f06cafd6ab7fe2ebdcef" target="_top" xlink:title="Checks an alignment type.">
<polygon fill="#ffffff" stroke="#000000" points="727,-114.5 727,-133.5 859,-133.5 859,-114.5 727,-114.5"/>
<text text-anchor="middle" x="793" y="-121.5" font-family="Helvetica,sans-Serif" font-size="10.00" fill="#000000">utils::checkAlignmentType</text>
</a>
</g>
</g>
<!-- Node320&#45;&gt;Node321 -->
<g id="edge4" class="edge">
<title>Node320&#45;&gt;Node321</title>
<path fill="none" stroke="#191970" d="M691.2401,-124C699.6172,-124 708.1779,-124 716.6016,-124"/>
<polygon fill="#191970" stroke="#191970" points="716.7871,-127.5001 726.787,-124 716.787,-120.5001 716.7871,-127.5001"/>
</g>
<!-- Node324 -->
<g id="node8" class="node">
<title>Node324</title>
<g id="a_node8"><a xlink:href="namespaceutils.html#a3377ecde55631d1bbc4956e5923b7469" target="_top" xlink:title="Swapping elements method.">
<polygon fill="#ffffff" stroke="#000000" points="586.5,-38.5 586.5,-57.5 650.5,-57.5 650.5,-38.5 586.5,-38.5"/>
<text text-anchor="middle" x="618.5" y="-45.5" font-family="Helvetica,sans-Serif" font-size="10.00" fill="#000000">utils::swap</text>
</a>
</g>
</g>
<!-- Node323&#45;&gt;Node324 -->
<g id="edge7" class="edge">
<title>Node323&#45;&gt;Node324</title>
<path fill="none" stroke="#191970" d="M477.6698,-48C506.9233,-48 546.4643,-48 576.2013,-48"/>
<polygon fill="#191970" stroke="#191970" points="576.2778,-51.5001 586.2778,-48 576.2777,-44.5001 576.2778,-51.5001"/>
</g>
</g>
</svg>
