<?xml version="1.0" encoding="UTF-8" standalone="no"?>
<!DOCTYPE svg PUBLIC "-//W3C//DTD SVG 1.1//EN"
 "http://www.w3.org/Graphics/SVG/1.1/DTD/svg11.dtd">
<!-- Generated by graphviz version 2.40.1 (20161225.0304)
 -->
<!-- Title: Cleaner::cleanGaps Pages: 1 -->
<svg width="874pt" height="78pt"
 viewBox="0.00 0.00 874.00 77.50" xmlns="http://www.w3.org/2000/svg" xmlns:xlink="http://www.w3.org/1999/xlink">
<g id="graph0" class="graph" transform="scale(1 1) rotate(0) translate(4 73.5)">
<title>Cleaner::cleanGaps</title>
<polygon fill="#ffffff" stroke="transparent" points="-4,4 -4,-73.5 870,-73.5 870,4 -4,4"/>
<!-- Node249 -->
<g id="node1" class="node">
<title>Node249</title>
<g id="a_node1"><a xlink:title="Method to trim an alignment based on the gap distribution values. Column blocks that don&#39;t have a min...">
<polygon fill="#bfbfbf" stroke="#000000" points="763,-28 763,-47 866,-47 866,-28 763,-28"/>
<text text-anchor="middle" x="814.5" y="-35" font-family="Helvetica,sans-Serif" font-size="10.00" fill="#000000">Cleaner::cleanGaps</text>
</a>
</g>
</g>
<!-- Node250 -->
<g id="node2" class="node">
<title>Node250</title>
<g id="a_node2"><a xlink:href="classtrim_al_manager.html#a69082911b30a1bd12395bb235bc18a34" target="_top" xlink:title="Method to trim the alignment using automatic or semi&#45;automatic methods:">
<polygon fill="#ffffff" stroke="#000000" points="554,-50 554,-69 727,-69 727,-50 554,-50"/>
<text text-anchor="middle" x="640.5" y="-57" font-family="Helvetica,sans-Serif" font-size="10.00" fill="#000000">trimAlManager::CleanResiduesAuto</text>
</a>
</g>
</g>
<!-- Node249&#45;&gt;Node250 -->
<g id="edge1" class="edge">
<title>Node249&#45;&gt;Node250</title>
<path fill="none" stroke="#191970" d="M752.5314,-45.3351C740.6583,-46.8363 728.1053,-48.4235 715.8652,-49.9711"/>
<polygon fill="#191970" stroke="#191970" points="753.2834,-48.768 762.7654,-44.0412 752.4053,-41.8233 753.2834,-48.768"/>
</g>
<!-- Node255 -->
<g id="node7" class="node">
<title>Node255</title>
<g id="a_node7"><a xlink:href="classtrim_al_manager.html#aebfd21b0435302f0e4fc45a068d1b6ee" target="_top" xlink:title="Method to trim the alignment using non automatic methods:">
<polygon fill="#ffffff" stroke="#000000" points="564.5,-.5 564.5,-30.5 716.5,-30.5 716.5,-.5 564.5,-.5"/>
<text text-anchor="start" x="572.5" y="-18.5" font-family="Helvetica,sans-Serif" font-size="10.00" fill="#000000">trimAlManager::CleanResidues</text>
<text text-anchor="middle" x="640.5" y="-7.5" font-family="Helvetica,sans-Serif" font-size="10.00" fill="#000000">NonAuto</text>
</a>
</g>
</g>
<!-- Node249&#45;&gt;Node255 -->
<g id="edge7" class="edge">
<title>Node249&#45;&gt;Node255</title>
<path fill="none" stroke="#191970" d="M752.6733,-29.6828C740.9671,-28.2027 728.5956,-26.6385 716.5114,-25.1106"/>
<polygon fill="#191970" stroke="#191970" points="752.4053,-33.1767 762.7654,-30.9588 753.2834,-26.232 752.4053,-33.1767"/>
</g>
<!-- Node251 -->
<g id="node3" class="node">
<title>Node251</title>
<g id="a_node3"><a xlink:href="classtrim_al_manager.html#adc529dd893ed4e9df6f3ddbd58776068" target="_top" xlink:title="Core Method of the program. This is where almost all cleaning methods are called from.">
<polygon fill="#ffffff" stroke="#000000" points="409,-22.5 409,-52.5 518,-52.5 518,-22.5 409,-22.5"/>
<text text-anchor="start" x="417" y="-40.5" font-family="Helvetica,sans-Serif" font-size="10.00" fill="#000000">trimAlManager::clean</text>
<text text-anchor="middle" x="463.5" y="-29.5" font-family="Helvetica,sans-Serif" font-size="10.00" fill="#000000">_alignment</text>
</a>
</g>
</g>
<!-- Node250&#45;&gt;Node251 -->
<g id="edge2" class="edge">
<title>Node250&#45;&gt;Node251</title>
<path fill="none" stroke="#191970" d="M553.7276,-48.7147C541.5879,-47.2058 529.4048,-45.6916 518.0926,-44.2855"/>
<polygon fill="#191970" stroke="#191970" points="553.5393,-52.2182 563.8947,-49.9784 554.4028,-45.2716 553.5393,-52.2182"/>
</g>
<!-- Node252 -->
<g id="node4" class="node">
<title>Node252</title>
<g id="a_node4"><a xlink:href="classtrim_al_manager.html#abe8d2841455c644dc9c7d1294b82b00f" target="_top" xlink:title="Method to perform the analysis if all checks have passed.">
<polygon fill="#ffffff" stroke="#000000" points="74,-28 74,-47 193,-47 193,-28 74,-28"/>
<text text-anchor="middle" x="133.5" y="-35" font-family="Helvetica,sans-Serif" font-size="10.00" fill="#000000">trimAlManager::perform</text>
</a>
</g>
</g>
<!-- Node251&#45;&gt;Node252 -->
<g id="edge3" class="edge">
<title>Node251&#45;&gt;Node252</title>
<path fill="none" stroke="#191970" d="M398.5755,-37.5C338.9161,-37.5 251.2051,-37.5 193.243,-37.5"/>
<polygon fill="#191970" stroke="#191970" points="398.6368,-41.0001 408.6368,-37.5 398.6367,-34.0001 398.6368,-41.0001"/>
</g>
<!-- Node254 -->
<g id="node6" class="node">
<title>Node254</title>
<g id="a_node6"><a xlink:href="classtrim_al_manager.html#ac5795f93b3a2b51bf5d8dddd63b89f73" target="_top" xlink:title=" ">
<polygon fill="#ffffff" stroke="#000000" points="229,-9 229,-28 373,-28 373,-9 229,-9"/>
<text text-anchor="middle" x="301" y="-16" font-family="Helvetica,sans-Serif" font-size="10.00" fill="#000000">trimAlManager::perform_VCF</text>
</a>
</g>
</g>
<!-- Node251&#45;&gt;Node254 -->
<g id="edge5" class="edge">
<title>Node251&#45;&gt;Node254</title>
<path fill="none" stroke="#191970" d="M398.7672,-29.9312C390.3063,-28.942 381.5959,-27.9235 373.0243,-26.9213"/>
<polygon fill="#191970" stroke="#191970" points="398.599,-33.4353 408.9378,-31.1204 399.412,-26.4827 398.599,-33.4353"/>
</g>
<!-- Node253 -->
<g id="node5" class="node">
<title>Node253</title>
<g id="a_node5"><a xlink:href="trim_al_main_8cpp.html#a0ddf1224851353fc92bfbff6f499fa97" target="_top" xlink:title=" ">
<polygon fill="#ffffff" stroke="#000000" points="0,-28 0,-47 38,-47 38,-28 0,-28"/>
<text text-anchor="middle" x="19" y="-35" font-family="Helvetica,sans-Serif" font-size="10.00" fill="#000000">main</text>
</a>
</g>
</g>
<!-- Node252&#45;&gt;Node253 -->
<g id="edge4" class="edge">
<title>Node252&#45;&gt;Node253</title>
<path fill="none" stroke="#191970" d="M63.6802,-37.5C54.3823,-37.5 45.5497,-37.5 38.2303,-37.5"/>
<polygon fill="#191970" stroke="#191970" points="63.9025,-41.0001 73.9024,-37.5 63.9024,-34.0001 63.9025,-41.0001"/>
</g>
<!-- Node254&#45;&gt;Node252 -->
<g id="edge6" class="edge">
<title>Node254&#45;&gt;Node252</title>
<path fill="none" stroke="#191970" d="M218.8378,-27.8199C210.1593,-28.8043 201.4581,-29.7913 193.107,-30.7386"/>
<polygon fill="#191970" stroke="#191970" points="219.4511,-31.2729 228.9928,-26.668 218.662,-24.3175 219.4511,-31.2729"/>
</g>
<!-- Node255&#45;&gt;Node251 -->
<g id="edge8" class="edge">
<title>Node255&#45;&gt;Node251</title>
<path fill="none" stroke="#191970" d="M554.1475,-26.2331C541.8915,-27.7564 529.5807,-29.2866 518.1558,-30.7066"/>
<polygon fill="#191970" stroke="#191970" points="554.9169,-29.6645 564.4089,-24.9577 554.0535,-22.7179 554.9169,-29.6645"/>
</g>
</g>
</svg>
