<?xml version="1.0" encoding="UTF-8" standalone="no"?>
<!DOCTYPE svg PUBLIC "-//W3C//DTD SVG 1.1//EN"
 "http://www.w3.org/Graphics/SVG/1.1/DTD/svg11.dtd">
<!-- Generated by graphviz version 2.40.1 (20161225.0304)
 -->
<!-- Title: Cleaner::cleanByCutValueFallBehind Pages: 1 -->
<svg width="486pt" height="116pt"
 viewBox="0.00 0.00 486.00 115.50" xmlns="http://www.w3.org/2000/svg" xmlns:xlink="http://www.w3.org/1999/xlink">
<g id="graph0" class="graph" transform="scale(1 1) rotate(0) translate(4 111.5)">
<title>Cleaner::cleanByCutValueFallBehind</title>
<polygon fill="#ffffff" stroke="transparent" points="-4,4 -4,-111.5 482,-111.5 482,4 -4,4"/>
<!-- Node105 -->
<g id="node1" class="node">
<title>Node105</title>
<g id="a_node1"><a xlink:title="Method to clean an alignment. &#160;It removes sequences that fall behind a certain threshold....">
<polygon fill="#bfbfbf" stroke="#000000" points="0,-33 0,-63 132,-63 132,-33 0,-33"/>
<text text-anchor="start" x="8" y="-51" font-family="Helvetica,sans-Serif" font-size="10.00" fill="#000000">Cleaner::cleanByCutValue</text>
<text text-anchor="middle" x="66" y="-40" font-family="Helvetica,sans-Serif" font-size="10.00" fill="#000000">FallBehind</text>
</a>
</g>
</g>
<!-- Node106 -->
<g id="node2" class="node">
<title>Node106</title>
<g id="a_node2"><a xlink:href="class_cleaner.html#ada8ad076dd037f00ae3f4fd17762641f" target="_top" xlink:title="Method that identifies and removes columns and sequences composed only by gaps.">
<polygon fill="#ffffff" stroke="#000000" points="171,-77 171,-107 317,-107 317,-77 171,-77"/>
<text text-anchor="start" x="179" y="-95" font-family="Helvetica,sans-Serif" font-size="10.00" fill="#000000">Cleaner::removeAllGapsSeqs</text>
<text text-anchor="middle" x="244" y="-84" font-family="Helvetica,sans-Serif" font-size="10.00" fill="#000000">AndCols</text>
</a>
</g>
</g>
<!-- Node105&#45;&gt;Node106 -->
<g id="edge1" class="edge">
<title>Node105&#45;&gt;Node106</title>
<path fill="none" stroke="#191970" d="M126.7597,-63.0192C141.7132,-66.7156 157.8534,-70.7053 173.2344,-74.5074"/>
<polygon fill="#191970" stroke="#191970" points="172.6644,-77.9718 183.2122,-76.9738 174.3443,-71.1763 172.6644,-77.9718"/>
</g>
<!-- Node108 -->
<g id="node4" class="node">
<title>Node108</title>
<g id="a_node4"><a xlink:href="class_cleaner.html#a5620f6a511bc0ac844c71b2de3ae1fdb" target="_top" xlink:title="Method to remove blocks of columns with no rejected residue smaller than a given size.">
<polygon fill="#ffffff" stroke="#000000" points="168,-38.5 168,-57.5 320,-57.5 320,-38.5 168,-38.5"/>
<text text-anchor="middle" x="244" y="-45.5" font-family="Helvetica,sans-Serif" font-size="10.00" fill="#000000">Cleaner::removeSmallerBlocks</text>
</a>
</g>
</g>
<!-- Node105&#45;&gt;Node108 -->
<g id="edge3" class="edge">
<title>Node105&#45;&gt;Node108</title>
<path fill="none" stroke="#191970" d="M132.0277,-48C140.419,-48 149.1027,-48 157.7518,-48"/>
<polygon fill="#191970" stroke="#191970" points="157.8696,-51.5001 167.8696,-48 157.8695,-44.5001 157.8696,-51.5001"/>
</g>
<!-- Node109 -->
<g id="node5" class="node">
<title>Node109</title>
<g id="a_node5"><a xlink:href="namespaceutils.html#ad50731aeb3c8f79ed8372516210dfc9d" target="_top" xlink:title="Round double to integer method.">
<polygon fill="#ffffff" stroke="#000000" points="206,-.5 206,-19.5 282,-19.5 282,-.5 206,-.5"/>
<text text-anchor="middle" x="244" y="-7.5" font-family="Helvetica,sans-Serif" font-size="10.00" fill="#000000">utils::roundInt</text>
</a>
</g>
</g>
<!-- Node105&#45;&gt;Node109 -->
<g id="edge4" class="edge">
<title>Node105&#45;&gt;Node109</title>
<path fill="none" stroke="#191970" d="M132.0277,-33.9042C153.2595,-29.3716 176.3636,-24.4392 196.0408,-20.2385"/>
<polygon fill="#191970" stroke="#191970" points="196.9414,-23.6252 205.9903,-18.1144 195.4799,-16.7794 196.9414,-23.6252"/>
</g>
<!-- Node107 -->
<g id="node3" class="node">
<title>Node107</title>
<g id="a_node3"><a xlink:href="classreporting_1_1report_manager.html#a6d122e673144584e0869bd33b8a5c1c6" target="_top" xlink:title="Method to report an Error. &#160;It will be displayed if Level &#160;is equal or higher to VerboseLevel::ERROR.">
<polygon fill="#ffffff" stroke="#000000" points="356,-77 356,-107 478,-107 478,-77 356,-77"/>
<text text-anchor="start" x="364" y="-95" font-family="Helvetica,sans-Serif" font-size="10.00" fill="#000000">reporting::reportManager</text>
<text text-anchor="middle" x="417" y="-84" font-family="Helvetica,sans-Serif" font-size="10.00" fill="#000000">::report</text>
</a>
</g>
</g>
<!-- Node106&#45;&gt;Node107 -->
<g id="edge2" class="edge">
<title>Node106&#45;&gt;Node107</title>
<path fill="none" stroke="#191970" d="M317.1168,-92C326.598,-92 336.299,-92 345.7492,-92"/>
<polygon fill="#191970" stroke="#191970" points="345.8831,-95.5001 355.8831,-92 345.883,-88.5001 345.8831,-95.5001"/>
</g>
</g>
</svg>
