<?xml version="1.0" encoding="UTF-8" standalone="no"?>
<!DOCTYPE svg PUBLIC "-//W3C//DTD SVG 1.1//EN"
 "http://www.w3.org/Graphics/SVG/1.1/DTD/svg11.dtd">
<!-- Generated by graphviz version 2.40.1 (20161225.0304)
 -->
<!-- Title: statistics::Gaps::CalculateVectors Pages: 1 -->
<svg width="1999pt" height="767pt"
 viewBox="0.00 0.00 1999.00 767.34" xmlns="http://www.w3.org/2000/svg" xmlns:xlink="http://www.w3.org/1999/xlink">
<g id="graph0" class="graph" transform="scale(1 1) rotate(0) translate(4 763.3404)">
<title>statistics::Gaps::CalculateVectors</title>
<polygon fill="#ffffff" stroke="transparent" points="-4,4 -4,-763.3404 1995,-763.3404 1995,4 -4,4"/>
<!-- Node70 -->
<g id="node1" class="node">
<title>Node70</title>
<g id="a_node1"><a xlink:title=" ">
<polygon fill="#bfbfbf" stroke="#000000" points="1858,-432.409 1858,-462.409 1991,-462.409 1991,-432.409 1858,-432.409"/>
<text text-anchor="start" x="1866" y="-450.409" font-family="Helvetica,sans-Serif" font-size="10.00" fill="#000000">statistics::Gaps::Calculate</text>
<text text-anchor="middle" x="1924.5" y="-439.409" font-family="Helvetica,sans-Serif" font-size="10.00" fill="#000000">Vectors</text>
</a>
</g>
</g>
<!-- Node71 -->
<g id="node2" class="node">
<title>Node71</title>
<g id="a_node2"><a xlink:href="classstatistics_1_1_manager.html#a1969a416d3020d25daa56de6c5e305db" target="_top" xlink:title="Method to handle gap stat calculation It checks if the gaps submodule has been created,...">
<polygon fill="#ffffff" stroke="#000000" points="1719,-432.409 1719,-462.409 1822,-462.409 1822,-432.409 1719,-432.409"/>
<text text-anchor="start" x="1727" y="-450.409" font-family="Helvetica,sans-Serif" font-size="10.00" fill="#000000">statistics::Manager</text>
<text text-anchor="middle" x="1770.5" y="-439.409" font-family="Helvetica,sans-Serif" font-size="10.00" fill="#000000">::calculateGapStats</text>
</a>
</g>
</g>
<!-- Node70&#45;&gt;Node71 -->
<g id="edge1" class="edge">
<title>Node70&#45;&gt;Node71</title>
<path fill="none" stroke="#191970" d="M1847.7816,-447.409C1839.1819,-447.409 1830.5775,-447.409 1822.3975,-447.409"/>
<polygon fill="#191970" stroke="#191970" points="1847.8491,-450.9091 1857.849,-447.409 1847.849,-443.9091 1847.8491,-450.9091"/>
</g>
<!-- Node72 -->
<g id="node3" class="node">
<title>Node72</title>
<g id="a_node3"><a xlink:href="class_cleaner.html#af7c9e1a177424168fa4214aca9ebd8e2" target="_top" xlink:title="Method to trim an alignment based on the gap distribution values. Column blocks that don&#39;t have a min...">
<polygon fill="#ffffff" stroke="#000000" points="1026,-622.909 1026,-641.909 1129,-641.909 1129,-622.909 1026,-622.909"/>
<text text-anchor="middle" x="1077.5" y="-629.909" font-family="Helvetica,sans-Serif" font-size="10.00" fill="#000000">Cleaner::cleanGaps</text>
</a>
</g>
</g>
<!-- Node71&#45;&gt;Node72 -->
<g id="edge2" class="edge">
<title>Node71&#45;&gt;Node72</title>
<path fill="none" stroke="#191970" d="M1760.5361,-472.1565C1747.4411,-501.1292 1721.4914,-547.9979 1683,-570.409 1502.4145,-675.5524 1239.5201,-655.2526 1129.2323,-640.5709"/>
<polygon fill="#191970" stroke="#191970" points="1763.8592,-473.2909 1764.6313,-462.7242 1757.4382,-470.503 1763.8592,-473.2909"/>
</g>
<!-- Node79 -->
<g id="node10" class="node">
<title>Node79</title>
<g id="a_node10"><a xlink:href="class_cleaner.html#a4718e31c0183b5a98751d77479faacf0" target="_top" xlink:title="Method to trim an alignment based on the similarity and gaps distribution values. .">
<polygon fill="#ffffff" stroke="#000000" points="826.5,-505.909 826.5,-524.909 906.5,-524.909 906.5,-505.909 826.5,-505.909"/>
<text text-anchor="middle" x="866.5" y="-512.909" font-family="Helvetica,sans-Serif" font-size="10.00" fill="#000000">Cleaner::clean</text>
</a>
</g>
</g>
<!-- Node71&#45;&gt;Node79 -->
<g id="edge11" class="edge">
<title>Node71&#45;&gt;Node79</title>
<path fill="none" stroke="#191970" d="M1736.3883,-467.572C1679.7656,-499.0763 1561.899,-556.409 1454,-556.409 1454,-556.409 1454,-556.409 1273.5,-556.409 1138.3895,-556.409 979.3144,-533.765 906.5145,-522.1334"/>
<polygon fill="#191970" stroke="#191970" points="1738.2735,-470.5271 1745.2631,-462.565 1734.8338,-464.4304 1738.2735,-470.5271"/>
</g>
<!-- Node80 -->
<g id="node11" class="node">
<title>Node80</title>
<g id="a_node11"><a xlink:href="class_cleaner.html#aa57106470d2104a925b9396b8a9f33b3" target="_top" xlink:title="Method that carries the gappyout approach. This methods calculates the slope in gaps distribution on ...">
<polygon fill="#ffffff" stroke="#000000" points="1563,-651.909 1563,-670.909 1683,-670.909 1683,-651.909 1563,-651.909"/>
<text text-anchor="middle" x="1623" y="-658.909" font-family="Helvetica,sans-Serif" font-size="10.00" fill="#000000">Cleaner::clean2ndSlope</text>
</a>
</g>
</g>
<!-- Node71&#45;&gt;Node80 -->
<g id="edge13" class="edge">
<title>Node71&#45;&gt;Node80</title>
<path fill="none" stroke="#191970" d="M1763.7098,-472.0583C1752.3505,-509.4976 1726.3689,-581.2145 1683,-627.409 1673.0841,-637.9709 1659.1376,-646.1442 1647.1859,-651.8274"/>
<polygon fill="#191970" stroke="#191970" points="1767.0698,-473.0381 1766.5283,-462.4571 1760.3532,-471.0664 1767.0698,-473.0381"/>
</g>
<!-- Node81 -->
<g id="node12" class="node">
<title>Node81</title>
<g id="a_node12"><a xlink:href="class_cleaner.html#a3af7bde2142886d6d723c95694b7b9ba" target="_top" xlink:title="Method to remove columns composed only by gaps This method is specially useful when we remove missali...">
<polygon fill="#ffffff" stroke="#000000" points="1014,-698.909 1014,-717.909 1141,-717.909 1141,-698.909 1014,-698.909"/>
<text text-anchor="middle" x="1077.5" y="-705.909" font-family="Helvetica,sans-Serif" font-size="10.00" fill="#000000">Cleaner::cleanNoAllGaps</text>
</a>
</g>
</g>
<!-- Node71&#45;&gt;Node81 -->
<g id="edge15" class="edge">
<title>Node71&#45;&gt;Node81</title>
<path fill="none" stroke="#191970" d="M1764.7255,-472.5877C1751.5879,-527.4763 1717.8885,-655.0309 1683,-680.409 1502.7985,-811.4884 1206.4361,-744.8804 1109.3667,-717.9375"/>
<polygon fill="#191970" stroke="#191970" points="1768.1848,-473.167 1767.0731,-462.6306 1761.3716,-471.5605 1768.1848,-473.167"/>
</g>
<!-- Node83 -->
<g id="node14" class="node">
<title>Node83</title>
<g id="a_node14"><a xlink:href="class_cleaner.html#ab7f5b746b97697181f4cd06063cbb49a" target="_top" xlink:title="Method to detect right and left borders. Borders are the first column found with no gaps....">
<polygon fill="#ffffff" stroke="#000000" points="1381,-492.909 1381,-511.909 1527,-511.909 1527,-492.909 1381,-492.909"/>
<text text-anchor="middle" x="1454" y="-499.909" font-family="Helvetica,sans-Serif" font-size="10.00" fill="#000000">Cleaner::removeOnlyTerminal</text>
</a>
</g>
</g>
<!-- Node71&#45;&gt;Node83 -->
<g id="edge19" class="edge">
<title>Node71&#45;&gt;Node83</title>
<path fill="none" stroke="#191970" d="M1708.7927,-458.1322C1650.675,-468.2317 1564.4404,-483.2171 1508.7208,-492.8998"/>
<polygon fill="#191970" stroke="#191970" points="1709.6913,-461.5286 1718.9444,-456.3681 1708.4928,-454.6319 1709.6913,-461.5286"/>
</g>
<!-- Node85 -->
<g id="node16" class="node">
<title>Node85</title>
<g id="a_node16"><a xlink:href="classstatistics_1_1_manager.html#a92505ca5aedc5b45c4300a0e8a7d1e17" target="_top" xlink:title="Method to handle similarity stat calculation It checks if the similarity submodule has been created,...">
<polygon fill="#ffffff" stroke="#000000" points="1202,-263.409 1202,-293.409 1345,-293.409 1345,-263.409 1202,-263.409"/>
<text text-anchor="start" x="1210" y="-281.409" font-family="Helvetica,sans-Serif" font-size="10.00" fill="#000000">statistics::Manager</text>
<text text-anchor="middle" x="1273.5" y="-270.409" font-family="Helvetica,sans-Serif" font-size="10.00" fill="#000000">::calculateConservationStats</text>
</a>
</g>
</g>
<!-- Node71&#45;&gt;Node85 -->
<g id="edge23" class="edge">
<title>Node71&#45;&gt;Node85</title>
<path fill="none" stroke="#191970" d="M1752.82,-424.2004C1736.6262,-404.4135 1710.978,-376.5319 1683,-359.409 1577.7626,-295.002 1431.3867,-280.4369 1345.1339,-277.9058"/>
<polygon fill="#191970" stroke="#191970" points="1750.1818,-426.5056 1759.1606,-432.13 1755.649,-422.134 1750.1818,-426.5056"/>
</g>
<!-- Node91 -->
<g id="node22" class="node">
<title>Node91</title>
<g id="a_node22"><a xlink:href="classtrim_al_manager.html#a63d5bec0938516a2129ccb04276b93d9" target="_top" xlink:title=" ">
<polygon fill="#ffffff" stroke="#000000" points="613.5,-192.409 613.5,-222.409 714.5,-222.409 714.5,-192.409 613.5,-192.409"/>
<text text-anchor="start" x="621.5" y="-210.409" font-family="Helvetica,sans-Serif" font-size="10.00" fill="#000000">trimAlManager::svg</text>
<text text-anchor="middle" x="664" y="-199.409" font-family="Helvetica,sans-Serif" font-size="10.00" fill="#000000">_stats_out</text>
</a>
</g>
</g>
<!-- Node71&#45;&gt;Node91 -->
<g id="edge54" class="edge">
<title>Node71&#45;&gt;Node91</title>
<path fill="none" stroke="#191970" d="M1759.6988,-422.7388C1745.4881,-392.3774 1718.143,-340.5399 1683,-305.409 1598.4696,-220.9078 1573.5233,-164.409 1454,-164.409 1454,-164.409 1454,-164.409 1077.5,-164.409 946.1409,-164.409 792.5619,-186.1426 714.7499,-198.7073"/>
<polygon fill="#191970" stroke="#191970" points="1756.6642,-424.5189 1764.0068,-432.1568 1763.0298,-421.6071 1756.6642,-424.5189"/>
</g>
<!-- Node92 -->
<g id="node23" class="node">
<title>Node92</title>
<g id="a_node23"><a xlink:href="classstatistics_1_1_manager.html#a48e846c0c59f08e43e5483a8eaa2e586" target="_top" xlink:title="Wrapper to Statistics::Gaps::printGapsColumns() It calls to calculateGapStats() to make sure the info...">
<polygon fill="#ffffff" stroke="#000000" points="1381.5,-7.409 1381.5,-37.409 1526.5,-37.409 1526.5,-7.409 1381.5,-7.409"/>
<text text-anchor="start" x="1389.5" y="-25.409" font-family="Helvetica,sans-Serif" font-size="10.00" fill="#000000">statistics::Manager</text>
<text text-anchor="middle" x="1454" y="-14.409" font-family="Helvetica,sans-Serif" font-size="10.00" fill="#000000">::printStatisticsGapsColumns</text>
</a>
</g>
</g>
<!-- Node71&#45;&gt;Node92 -->
<g id="edge37" class="edge">
<title>Node71&#45;&gt;Node92</title>
<path fill="none" stroke="#191970" d="M1766.9837,-422.0111C1756.788,-351.6948 1725.2311,-156.5495 1683,-109.409 1642.916,-64.6651 1577.3493,-42.8108 1526.6235,-32.2088"/>
<polygon fill="#191970" stroke="#191970" points="1763.5576,-422.7776 1768.4351,-432.1829 1770.4874,-421.7888 1763.5576,-422.7776"/>
</g>
<!-- Node93 -->
<g id="node24" class="node">
<title>Node93</title>
<g id="a_node24"><a xlink:href="classstatistics_1_1_manager.html#ab93622daa40044bfb03ae1e1e1eabb89" target="_top" xlink:title="Wrapper to Statistics::Gaps::printGapsAcl() It calls to calculateGapStats() to make sure the informat...">
<polygon fill="#ffffff" stroke="#000000" points="1209.5,-51.409 1209.5,-81.409 1337.5,-81.409 1337.5,-51.409 1209.5,-51.409"/>
<text text-anchor="start" x="1217.5" y="-69.409" font-family="Helvetica,sans-Serif" font-size="10.00" fill="#000000">statistics::Manager</text>
<text text-anchor="middle" x="1273.5" y="-58.409" font-family="Helvetica,sans-Serif" font-size="10.00" fill="#000000">::printStatisticsGapsTotal</text>
</a>
</g>
</g>
<!-- Node71&#45;&gt;Node93 -->
<g id="edge39" class="edge">
<title>Node71&#45;&gt;Node93</title>
<path fill="none" stroke="#191970" d="M1766.4675,-422.2072C1755.6052,-357.4874 1723.7781,-187.8909 1683,-150.409 1633.3754,-104.7956 1440.1731,-81.1512 1337.8752,-71.6093"/>
<polygon fill="#191970" stroke="#191970" points="1763.0582,-423.044 1768.1399,-432.3406 1769.9648,-421.9042 1763.0582,-423.044"/>
</g>
<!-- Node94 -->
<g id="node25" class="node">
<title>Node94</title>
<g id="a_node25"><a xlink:href="classstatistics_1_1_similarity.html#ae69ec0e79912ae23c8cfe97358c4794d" target="_top" xlink:title="Method to calculate the similarity values of a alignment matrix.">
<polygon fill="#ffffff" stroke="#000000" points="1571.5,-369.409 1571.5,-399.409 1674.5,-399.409 1674.5,-369.409 1571.5,-369.409"/>
<text text-anchor="start" x="1579.5" y="-387.409" font-family="Helvetica,sans-Serif" font-size="10.00" fill="#000000">statistics::Similarity</text>
<text text-anchor="middle" x="1623" y="-376.409" font-family="Helvetica,sans-Serif" font-size="10.00" fill="#000000">::calculateVectors</text>
</a>
</g>
</g>
<!-- Node71&#45;&gt;Node94 -->
<g id="edge41" class="edge">
<title>Node71&#45;&gt;Node94</title>
<path fill="none" stroke="#191970" d="M1725.8497,-428.338C1704.1972,-419.0898 1678.559,-408.1393 1658.297,-399.485"/>
<polygon fill="#191970" stroke="#191970" points="1724.599,-431.6096 1735.1701,-432.3189 1727.3486,-425.1722 1724.599,-431.6096"/>
</g>
<!-- Node73 -->
<g id="node4" class="node">
<title>Node73</title>
<g id="a_node4"><a xlink:href="classtrim_al_manager.html#a69082911b30a1bd12395bb235bc18a34" target="_top" xlink:title="Method to trim the alignment using automatic or semi&#45;automatic methods:">
<polygon fill="#ffffff" stroke="#000000" points="780,-622.909 780,-641.909 953,-641.909 953,-622.909 780,-622.909"/>
<text text-anchor="middle" x="866.5" y="-629.909" font-family="Helvetica,sans-Serif" font-size="10.00" fill="#000000">trimAlManager::CleanResiduesAuto</text>
</a>
</g>
</g>
<!-- Node72&#45;&gt;Node73 -->
<g id="edge3" class="edge">
<title>Node72&#45;&gt;Node73</title>
<path fill="none" stroke="#191970" d="M1015.6292,-632.409C996.1404,-632.409 974.2404,-632.409 953.3483,-632.409"/>
<polygon fill="#191970" stroke="#191970" points="1015.8836,-635.9091 1025.8836,-632.409 1015.8836,-628.9091 1015.8836,-635.9091"/>
</g>
<!-- Node78 -->
<g id="node9" class="node">
<title>Node78</title>
<g id="a_node9"><a xlink:href="classtrim_al_manager.html#aebfd21b0435302f0e4fc45a068d1b6ee" target="_top" xlink:title="Method to trim the alignment using non automatic methods:">
<polygon fill="#ffffff" stroke="#000000" points="588,-500.409 588,-530.409 740,-530.409 740,-500.409 588,-500.409"/>
<text text-anchor="start" x="596" y="-518.409" font-family="Helvetica,sans-Serif" font-size="10.00" fill="#000000">trimAlManager::CleanResidues</text>
<text text-anchor="middle" x="664" y="-507.409" font-family="Helvetica,sans-Serif" font-size="10.00" fill="#000000">NonAuto</text>
</a>
</g>
</g>
<!-- Node72&#45;&gt;Node78 -->
<g id="edge9" class="edge">
<title>Node72&#45;&gt;Node78</title>
<path fill="none" stroke="#191970" d="M1033.8799,-620.0667C957.5039,-598.456 799.8391,-553.8447 717.1932,-530.46"/>
<polygon fill="#191970" stroke="#191970" points="1033.0864,-623.4795 1043.6616,-622.8344 1034.9923,-616.7439 1033.0864,-623.4795"/>
</g>
<!-- Node74 -->
<g id="node5" class="node">
<title>Node74</title>
<g id="a_node5"><a xlink:href="classtrim_al_manager.html#adc529dd893ed4e9df6f3ddbd58776068" target="_top" xlink:title="Core Method of the program. This is where almost all cleaning methods are called from.">
<polygon fill="#ffffff" stroke="#000000" points="424,-500.409 424,-530.409 533,-530.409 533,-500.409 424,-500.409"/>
<text text-anchor="start" x="432" y="-518.409" font-family="Helvetica,sans-Serif" font-size="10.00" fill="#000000">trimAlManager::clean</text>
<text text-anchor="middle" x="478.5" y="-507.409" font-family="Helvetica,sans-Serif" font-size="10.00" fill="#000000">_alignment</text>
</a>
</g>
</g>
<!-- Node73&#45;&gt;Node74 -->
<g id="edge4" class="edge">
<title>Node73&#45;&gt;Node74</title>
<path fill="none" stroke="#191970" d="M769.3655,-638.9656C713.1201,-639.2011 642.1682,-633.2514 584,-608.409 543.5821,-591.1473 507.8443,-552.1821 490.1872,-530.5678"/>
<polygon fill="#191970" stroke="#191970" points="769.7291,-642.4619 779.6902,-638.8527 769.6526,-635.4623 769.7291,-642.4619"/>
</g>
<!-- Node75 -->
<g id="node6" class="node">
<title>Node75</title>
<g id="a_node6"><a xlink:href="classtrim_al_manager.html#abe8d2841455c644dc9c7d1294b82b00f" target="_top" xlink:title="Method to perform the analysis if all checks have passed.">
<polygon fill="#ffffff" stroke="#000000" points="74,-325.909 74,-344.909 193,-344.909 193,-325.909 74,-325.909"/>
<text text-anchor="middle" x="133.5" y="-332.909" font-family="Helvetica,sans-Serif" font-size="10.00" fill="#000000">trimAlManager::perform</text>
</a>
</g>
</g>
<!-- Node74&#45;&gt;Node75 -->
<g id="edge5" class="edge">
<title>Node74&#45;&gt;Node75</title>
<path fill="none" stroke="#191970" d="M436.5716,-495.9988C386.5708,-472.5637 300.7437,-431.4225 229,-392.409 200.1634,-376.7279 167.5119,-356.7374 148.8285,-345.076"/>
<polygon fill="#191970" stroke="#191970" points="435.2382,-499.239 445.7794,-500.304 438.2031,-492.8979 435.2382,-499.239"/>
</g>
<!-- Node77 -->
<g id="node8" class="node">
<title>Node77</title>
<g id="a_node8"><a xlink:href="classtrim_al_manager.html#ac5795f93b3a2b51bf5d8dddd63b89f73" target="_top" xlink:title=" ">
<polygon fill="#ffffff" stroke="#000000" points="229,-363.909 229,-382.909 373,-382.909 373,-363.909 229,-363.909"/>
<text text-anchor="middle" x="301" y="-370.909" font-family="Helvetica,sans-Serif" font-size="10.00" fill="#000000">trimAlManager::perform_VCF</text>
</a>
</g>
</g>
<!-- Node74&#45;&gt;Node77 -->
<g id="edge7" class="edge">
<title>Node74&#45;&gt;Node77</title>
<path fill="none" stroke="#191970" d="M451.6587,-493.936C412.4844,-462.5965 341.2445,-405.6045 312.9999,-383.0089"/>
<polygon fill="#191970" stroke="#191970" points="449.5092,-496.6985 459.5044,-500.2125 453.8821,-491.2325 449.5092,-496.6985"/>
</g>
<!-- Node76 -->
<g id="node7" class="node">
<title>Node76</title>
<g id="a_node7"><a xlink:href="trim_al_main_8cpp.html#a0ddf1224851353fc92bfbff6f499fa97" target="_top" xlink:title=" ">
<polygon fill="#ffffff" stroke="#000000" points="0,-325.909 0,-344.909 38,-344.909 38,-325.909 0,-325.909"/>
<text text-anchor="middle" x="19" y="-332.909" font-family="Helvetica,sans-Serif" font-size="10.00" fill="#000000">main</text>
</a>
</g>
</g>
<!-- Node75&#45;&gt;Node76 -->
<g id="edge6" class="edge">
<title>Node75&#45;&gt;Node76</title>
<path fill="none" stroke="#191970" d="M63.6802,-335.409C54.3823,-335.409 45.5497,-335.409 38.2303,-335.409"/>
<polygon fill="#191970" stroke="#191970" points="63.9025,-338.9091 73.9024,-335.409 63.9024,-331.9091 63.9025,-338.9091"/>
</g>
<!-- Node77&#45;&gt;Node75 -->
<g id="edge8" class="edge">
<title>Node77&#45;&gt;Node75</title>
<path fill="none" stroke="#191970" d="M248.8799,-361.5847C225.2653,-356.2274 197.718,-349.9778 175.4634,-344.929"/>
<polygon fill="#191970" stroke="#191970" points="248.2061,-365.0207 258.7327,-363.82 249.7549,-358.1942 248.2061,-365.0207"/>
</g>
<!-- Node78&#45;&gt;Node74 -->
<g id="edge10" class="edge">
<title>Node78&#45;&gt;Node74</title>
<path fill="none" stroke="#191970" d="M577.3869,-515.409C562.3442,-515.409 547.0853,-515.409 533.2022,-515.409"/>
<polygon fill="#191970" stroke="#191970" points="577.747,-518.9091 587.747,-515.409 577.747,-511.9091 577.747,-518.9091"/>
</g>
<!-- Node79&#45;&gt;Node78 -->
<g id="edge12" class="edge">
<title>Node79&#45;&gt;Node78</title>
<path fill="none" stroke="#191970" d="M816.3282,-515.409C793.4282,-515.409 765.8052,-515.409 740.4055,-515.409"/>
<polygon fill="#191970" stroke="#191970" points="816.4926,-518.9091 826.4925,-515.409 816.4925,-511.9091 816.4926,-518.9091"/>
</g>
<!-- Node80&#45;&gt;Node73 -->
<g id="edge14" class="edge">
<title>Node80&#45;&gt;Node73</title>
<path fill="none" stroke="#191970" d="M1552.7268,-663.4601C1435.6015,-666.171 1193.1636,-668.7686 989,-651.409 965.4113,-649.4033 939.4768,-645.6132 917.5676,-641.9426"/>
<polygon fill="#191970" stroke="#191970" points="1553.0713,-666.953 1562.9848,-663.2149 1552.904,-659.955 1553.0713,-666.953"/>
</g>
<!-- Node81&#45;&gt;Node73 -->
<g id="edge16" class="edge">
<title>Node81&#45;&gt;Node73</title>
<path fill="none" stroke="#191970" d="M1027.5496,-696.1427C1014.8705,-692.6802 1001.3458,-688.6809 989,-684.409 952.1006,-671.6409 910.5337,-653.0688 886.5428,-641.9201"/>
<polygon fill="#191970" stroke="#191970" points="1026.9337,-699.6008 1037.4981,-698.7994 1028.7397,-692.8378 1026.9337,-699.6008"/>
</g>
<!-- Node82 -->
<g id="node13" class="node">
<title>Node82</title>
<g id="a_node13"><a xlink:href="classtrim_al_manager.html#a10536f715945a1a45f1df33f7cedc81e" target="_top" xlink:title="Method to trim or reduce the number of sequences in an alignment. It performs one or none of the foll...">
<polygon fill="#ffffff" stroke="#000000" points="584,-669.909 584,-688.909 744,-688.909 744,-669.909 584,-669.909"/>
<text text-anchor="middle" x="664" y="-676.909" font-family="Helvetica,sans-Serif" font-size="10.00" fill="#000000">trimAlManager::CleanSequences</text>
</a>
</g>
</g>
<!-- Node81&#45;&gt;Node82 -->
<g id="edge17" class="edge">
<title>Node81&#45;&gt;Node82</title>
<path fill="none" stroke="#191970" d="M1003.7563,-703.2371C930.7355,-698.1159 819.2521,-690.2973 744.0946,-685.0262"/>
<polygon fill="#191970" stroke="#191970" points="1003.5764,-706.733 1013.7968,-703.9413 1004.0662,-699.7502 1003.5764,-706.733"/>
</g>
<!-- Node82&#45;&gt;Node74 -->
<g id="edge18" class="edge">
<title>Node82&#45;&gt;Node74</title>
<path fill="none" stroke="#191970" d="M621.0507,-666.2629C608.4105,-661.2243 595.0268,-654.6536 584,-646.409 539.5646,-613.1851 502.9742,-557.1176 487.0607,-530.4161"/>
<polygon fill="#191970" stroke="#191970" points="619.9283,-669.5801 630.5205,-669.8198 622.3897,-663.0271 619.9283,-669.5801"/>
</g>
<!-- Node84 -->
<g id="node15" class="node">
<title>Node84</title>
<g id="a_node15"><a xlink:href="classtrim_al_manager.html#a8ed19b851162fa24a1da66f7e54099e3" target="_top" xlink:title=" ">
<polygon fill="#ffffff" stroke="#000000" points="409,-358.409 409,-388.409 548,-388.409 548,-358.409 409,-358.409"/>
<text text-anchor="start" x="417" y="-376.409" font-family="Helvetica,sans-Serif" font-size="10.00" fill="#000000">trimAlManager::postprocess</text>
<text text-anchor="middle" x="478.5" y="-365.409" font-family="Helvetica,sans-Serif" font-size="10.00" fill="#000000">_alignment</text>
</a>
</g>
</g>
<!-- Node83&#45;&gt;Node84 -->
<g id="edge20" class="edge">
<title>Node83&#45;&gt;Node84</title>
<path fill="none" stroke="#191970" d="M1389.4068,-513.6147C1212.1418,-543.0567 722.1029,-615.2725 584,-539.409 576.2372,-535.1447 511.7466,-428.7335 487.5893,-388.5667"/>
<polygon fill="#191970" stroke="#191970" points="1390.0854,-517.0499 1399.3719,-511.9498 1388.9318,-510.1456 1390.0854,-517.0499"/>
</g>
<!-- Node84&#45;&gt;Node75 -->
<g id="edge21" class="edge">
<title>Node84&#45;&gt;Node75</title>
<path fill="none" stroke="#191970" d="M398.7217,-358.18C390.0591,-356.7836 381.3575,-355.4903 373,-354.409 311.9856,-346.5143 241.773,-341.4095 193.2169,-338.5005"/>
<polygon fill="#191970" stroke="#191970" points="398.412,-361.6764 408.85,-359.8601 399.5575,-354.7707 398.412,-361.6764"/>
</g>
<!-- Node84&#45;&gt;Node77 -->
<g id="edge22" class="edge">
<title>Node84&#45;&gt;Node77</title>
<path fill="none" stroke="#191970" d="M398.8492,-373.409C390.2626,-373.409 381.5612,-373.409 373.0711,-373.409"/>
<polygon fill="#191970" stroke="#191970" points="398.8568,-376.9091 408.8567,-373.409 398.8567,-369.9091 398.8568,-376.9091"/>
</g>
<!-- Node85&#45;&gt;Node79 -->
<g id="edge26" class="edge">
<title>Node85&#45;&gt;Node79</title>
<path fill="none" stroke="#191970" d="M1191.7306,-273.2758C1118.5007,-270.521 1018.2743,-271.9022 989,-297.409 929.4592,-349.287 1000.9259,-408.6431 953,-471.409 940.2187,-488.1479 919.296,-499.0306 901.2297,-505.7852"/>
<polygon fill="#191970" stroke="#191970" points="1191.7399,-276.779 1201.8743,-273.6899 1192.0254,-269.7849 1191.7399,-276.779"/>
</g>
<!-- Node86 -->
<g id="node17" class="node">
<title>Node86</title>
<g id="a_node17"><a xlink:href="class_cleaner.html#a9cdbd6ebf78a284dd065b31319795b0c" target="_top" xlink:title="Method to trim an alignment based on the similarity distribution values.">
<polygon fill="#ffffff" stroke="#000000" points="798,-442.909 798,-461.909 935,-461.909 935,-442.909 798,-442.909"/>
<text text-anchor="middle" x="866.5" y="-449.909" font-family="Helvetica,sans-Serif" font-size="10.00" fill="#000000">Cleaner::cleanConservation</text>
</a>
</g>
</g>
<!-- Node85&#45;&gt;Node86 -->
<g id="edge24" class="edge">
<title>Node85&#45;&gt;Node86</title>
<path fill="none" stroke="#191970" d="M1221.2942,-260.4471C1161.3441,-243.15 1061.897,-224.9017 989,-264.409 915.3629,-304.3174 879.0093,-409.7956 869.2535,-442.5579"/>
<polygon fill="#191970" stroke="#191970" points="1220.3448,-263.8162 1230.9279,-263.317 1222.3434,-257.1076 1220.3448,-263.8162"/>
</g>
<!-- Node87 -->
<g id="node18" class="node">
<title>Node87</title>
<g id="a_node18"><a xlink:href="class_cleaner.html#a6727a235afa29f08a50716f28fa5c8fc" target="_top" xlink:title="Method to clean an alignment. It carries out strict and strictplus. The method:">
<polygon fill="#ffffff" stroke="#000000" points="1006,-306.909 1006,-325.909 1149,-325.909 1149,-306.909 1006,-306.909"/>
<text text-anchor="middle" x="1077.5" y="-313.909" font-family="Helvetica,sans-Serif" font-size="10.00" fill="#000000">Cleaner::cleanCombMethods</text>
</a>
</g>
</g>
<!-- Node85&#45;&gt;Node87 -->
<g id="edge27" class="edge">
<title>Node85&#45;&gt;Node87</title>
<path fill="none" stroke="#191970" d="M1191.8151,-294.2458C1169.6366,-298.5458 1146.311,-303.0681 1126.5556,-306.8982"/>
<polygon fill="#191970" stroke="#191970" points="1192.7565,-297.6286 1201.9075,-292.2891 1191.4241,-290.7565 1192.7565,-297.6286"/>
</g>
<!-- Node88 -->
<g id="node19" class="node">
<title>Node88</title>
<g id="a_node19"><a xlink:href="classstatistics_1_1_manager.html#a080c687f8f355900511485eeec32a659" target="_top" xlink:title="Wrapper to Statistics::Similarity::printConservationAcl() It calls to calculateConservationStats() to...">
<polygon fill="#ffffff" stroke="#000000" points="1007.5,-94.909 1007.5,-135.909 1147.5,-135.909 1147.5,-94.909 1007.5,-94.909"/>
<text text-anchor="start" x="1015.5" y="-123.909" font-family="Helvetica,sans-Serif" font-size="10.00" fill="#000000">statistics::Manager</text>
<text text-anchor="start" x="1015.5" y="-112.909" font-family="Helvetica,sans-Serif" font-size="10.00" fill="#000000">::printStatisticsConservation</text>
<text text-anchor="middle" x="1077.5" y="-101.909" font-family="Helvetica,sans-Serif" font-size="10.00" fill="#000000">Columns</text>
</a>
</g>
</g>
<!-- Node85&#45;&gt;Node88 -->
<g id="edge29" class="edge">
<title>Node85&#45;&gt;Node88</title>
<path fill="none" stroke="#191970" d="M1247.8509,-256.8457C1226.0993,-238.5806 1194.0532,-211.7216 1166,-188.409 1144.7077,-170.7148 1120.4464,-150.7139 1102.7175,-136.1277"/>
<polygon fill="#191970" stroke="#191970" points="1245.7453,-259.648 1255.6536,-263.3999 1250.2477,-254.288 1245.7453,-259.648"/>
</g>
<!-- Node90 -->
<g id="node21" class="node">
<title>Node90</title>
<g id="a_node21"><a xlink:href="classstatistics_1_1_manager.html#aa20cfb477826035386ea988e3706b09a" target="_top" xlink:title="Wrapper to Statistics::Similarity::printGapsTotal() It calls to calculateConservationStats() to make ...">
<polygon fill="#ffffff" stroke="#000000" points="1007.5,-34.909 1007.5,-75.909 1147.5,-75.909 1147.5,-34.909 1007.5,-34.909"/>
<text text-anchor="start" x="1015.5" y="-63.909" font-family="Helvetica,sans-Serif" font-size="10.00" fill="#000000">statistics::Manager</text>
<text text-anchor="start" x="1015.5" y="-52.909" font-family="Helvetica,sans-Serif" font-size="10.00" fill="#000000">::printStatisticsConservation</text>
<text text-anchor="middle" x="1077.5" y="-41.909" font-family="Helvetica,sans-Serif" font-size="10.00" fill="#000000">Total</text>
</a>
</g>
</g>
<!-- Node85&#45;&gt;Node90 -->
<g id="edge32" class="edge">
<title>Node85&#45;&gt;Node90</title>
<path fill="none" stroke="#191970" d="M1266.1369,-253.441C1252.8174,-212.5154 1220.8886,-131.1471 1166,-85.409 1160.5161,-80.8393 1154.3029,-76.9542 1147.7731,-73.6534"/>
<polygon fill="#191970" stroke="#191970" points="1262.8546,-254.6708 1269.1951,-263.159 1269.5318,-252.5695 1262.8546,-254.6708"/>
</g>
<!-- Node85&#45;&gt;Node91 -->
<g id="edge34" class="edge">
<title>Node85&#45;&gt;Node91</title>
<path fill="none" stroke="#191970" d="M1232.5449,-259.4128C1212.8538,-251.1628 1188.6546,-242.2857 1166,-237.409 1003.8291,-202.4995 805.8578,-202.8835 714.5579,-205.4019"/>
<polygon fill="#191970" stroke="#191970" points="1231.2527,-262.6669 1241.8227,-263.3922 1234.0121,-256.2337 1231.2527,-262.6669"/>
</g>
<!-- Node86&#45;&gt;Node78 -->
<g id="edge25" class="edge">
<title>Node86&#45;&gt;Node78</title>
<path fill="none" stroke="#191970" d="M826.0462,-464.9946C793.3142,-475.1779 747.1204,-489.5493 712.4234,-500.3439"/>
<polygon fill="#191970" stroke="#191970" points="827.2358,-468.2901 835.7446,-461.9773 825.1563,-461.6061 827.2358,-468.2901"/>
</g>
<!-- Node87&#45;&gt;Node73 -->
<g id="edge28" class="edge">
<title>Node87&#45;&gt;Node73</title>
<path fill="none" stroke="#191970" d="M996.8756,-328.7858C994.0495,-330.7275 991.4046,-332.9249 989,-335.409 926.4867,-399.9884 992.1804,-453.5182 953,-534.409 934.6989,-572.193 897.6755,-606.5461 878.5468,-622.6949"/>
<polygon fill="#191970" stroke="#191970" points="998.8706,-331.6779 1005.8386,-323.6969 995.4144,-325.5906 998.8706,-331.6779"/>
</g>
<!-- Node89 -->
<g id="node20" class="node">
<title>Node89</title>
<g id="a_node20"><a xlink:href="classtrim_al_manager.html#afc48b86f5ae35b9a5e721b65c58bf610" target="_top" xlink:title="Method to print statistics requested.">
<polygon fill="#ffffff" stroke="#000000" points="814.5,-40.409 814.5,-70.409 918.5,-70.409 918.5,-40.409 814.5,-40.409"/>
<text text-anchor="start" x="822.5" y="-58.409" font-family="Helvetica,sans-Serif" font-size="10.00" fill="#000000">trimAlManager::print</text>
<text text-anchor="middle" x="866.5" y="-47.409" font-family="Helvetica,sans-Serif" font-size="10.00" fill="#000000">_statistics</text>
</a>
</g>
</g>
<!-- Node88&#45;&gt;Node89 -->
<g id="edge30" class="edge">
<title>Node88&#45;&gt;Node89</title>
<path fill="none" stroke="#191970" d="M997.2828,-92.5984C970.9791,-85.1187 942.4474,-77.0054 918.7653,-70.2711"/>
<polygon fill="#191970" stroke="#191970" points="996.664,-96.0611 1007.2401,-95.4298 998.5787,-89.3281 996.664,-96.0611"/>
</g>
<!-- Node89&#45;&gt;Node75 -->
<g id="edge31" class="edge">
<title>Node89&#45;&gt;Node75</title>
<path fill="none" stroke="#191970" d="M804.3261,-68.4683C687.095,-94.6285 427.3479,-159.9712 229,-263.409 195.1241,-281.0752 160.6093,-310.5415 143.8744,-325.7189"/>
<polygon fill="#191970" stroke="#191970" points="805.201,-71.8594 814.2082,-66.2808 803.6881,-65.0249 805.201,-71.8594"/>
</g>
<!-- Node90&#45;&gt;Node89 -->
<g id="edge33" class="edge">
<title>Node90&#45;&gt;Node89</title>
<path fill="none" stroke="#191970" d="M996.935,-55.409C970.7278,-55.409 942.343,-55.409 918.7653,-55.409"/>
<polygon fill="#191970" stroke="#191970" points="997.2401,-58.9091 1007.2401,-55.409 997.24,-51.9091 997.2401,-58.9091"/>
</g>
<!-- Node91&#45;&gt;Node75 -->
<g id="edge35" class="edge">
<title>Node91&#45;&gt;Node75</title>
<path fill="none" stroke="#191970" d="M603.384,-217.8441C551.5265,-227.117 475.0202,-241.6188 409,-257.409 319.3176,-278.8585 214.9509,-310.1775 164.2692,-325.8008"/>
<polygon fill="#191970" stroke="#191970" points="604.1836,-221.2569 613.4165,-216.0604 602.9582,-214.365 604.1836,-221.2569"/>
</g>
<!-- Node91&#45;&gt;Node77 -->
<g id="edge36" class="edge">
<title>Node91&#45;&gt;Node77</title>
<path fill="none" stroke="#191970" d="M621.6273,-226.786C543.6671,-262.4372 380.1591,-337.2095 322.0481,-363.7837"/>
<polygon fill="#191970" stroke="#191970" points="623.5073,-229.775 631.1459,-222.4331 620.5961,-223.409 623.5073,-229.775"/>
</g>
<!-- Node92&#45;&gt;Node89 -->
<g id="edge38" class="edge">
<title>Node92&#45;&gt;Node89</title>
<path fill="none" stroke="#191970" d="M1371.3444,-11.7186C1277.8465,-1.7239 1121.3666,8.6521 989,-13.409 958.1743,-18.5466 924.7086,-30.4873 900.5576,-40.3287"/>
<polygon fill="#191970" stroke="#191970" points="1370.9885,-15.2005 1381.3097,-12.8081 1371.7493,-8.242 1370.9885,-15.2005"/>
</g>
<!-- Node93&#45;&gt;Node89 -->
<g id="edge40" class="edge">
<title>Node93&#45;&gt;Node89</title>
<path fill="none" stroke="#191970" d="M1233.5373,-47.1768C1213.7196,-38.6832 1189.1277,-29.6697 1166,-25.409 1088.6352,-11.1564 1067.1001,-15.9849 989,-25.409 964.6533,-28.3468 938.1627,-34.4562 916.0642,-40.3998"/>
<polygon fill="#191970" stroke="#191970" points="1232.2928,-50.453 1242.8552,-51.2814 1235.1147,-44.047 1232.2928,-50.453"/>
</g>
<!-- Node94&#45;&gt;Node85 -->
<g id="edge42" class="edge">
<title>Node94&#45;&gt;Node85</title>
<path fill="none" stroke="#191970" d="M1563.6169,-366.3987C1495.8854,-345.8563 1386.3564,-312.6372 1323.0322,-293.4316"/>
<polygon fill="#191970" stroke="#191970" points="1562.7109,-369.7813 1573.2963,-369.3343 1564.7426,-363.0826 1562.7109,-369.7813"/>
</g>
<!-- Node95 -->
<g id="node26" class="node">
<title>Node95</title>
<g id="a_node26"><a xlink:href="classstatistics_1_1_similarity.html#adcb5627b9704850e85433fc40c19db17" target="_top" xlink:title="Allows us compute the conservationWindow&#39;s values.">
<polygon fill="#ffffff" stroke="#000000" points="1402.5,-369.409 1402.5,-399.409 1505.5,-399.409 1505.5,-369.409 1402.5,-369.409"/>
<text text-anchor="start" x="1410.5" y="-387.409" font-family="Helvetica,sans-Serif" font-size="10.00" fill="#000000">statistics::Similarity</text>
<text text-anchor="middle" x="1454" y="-376.409" font-family="Helvetica,sans-Serif" font-size="10.00" fill="#000000">::applyWindow</text>
</a>
</g>
</g>
<!-- Node94&#45;&gt;Node95 -->
<g id="edge43" class="edge">
<title>Node94&#45;&gt;Node95</title>
<path fill="none" stroke="#191970" d="M1561.1309,-384.409C1542.8872,-384.409 1523.1241,-384.409 1505.5987,-384.409"/>
<polygon fill="#191970" stroke="#191970" points="1561.3762,-387.9091 1571.3761,-384.409 1561.3761,-380.9091 1561.3762,-387.9091"/>
</g>
<!-- Node95&#45;&gt;Node85 -->
<g id="edge44" class="edge">
<title>Node95&#45;&gt;Node85</title>
<path fill="none" stroke="#191970" d="M1419.2001,-363.9725C1384.1198,-343.3713 1330.7894,-312.0526 1299.3133,-293.568"/>
<polygon fill="#191970" stroke="#191970" points="1417.7433,-367.1758 1428.1388,-369.2218 1421.2881,-361.1397 1417.7433,-367.1758"/>
</g>
<!-- Node96 -->
<g id="node27" class="node">
<title>Node96</title>
<g id="a_node27"><a xlink:href="classstatistics_1_1_similarity.html#a1b65c85328f09fa0637365d11fb386b4" target="_top" xlink:title="This methods returns a pointer to conservationWindow&#39;s vector.">
<polygon fill="#ffffff" stroke="#000000" points="1209,-377.409 1209,-407.409 1338,-407.409 1338,-377.409 1209,-377.409"/>
<text text-anchor="start" x="1217" y="-395.409" font-family="Helvetica,sans-Serif" font-size="10.00" fill="#000000">statistics::Similarity</text>
<text text-anchor="middle" x="1273.5" y="-384.409" font-family="Helvetica,sans-Serif" font-size="10.00" fill="#000000">::getMdkWindowedVector</text>
</a>
</g>
</g>
<!-- Node95&#45;&gt;Node96 -->
<g id="edge45" class="edge">
<title>Node95&#45;&gt;Node96</title>
<path fill="none" stroke="#191970" d="M1392.2032,-387.1479C1374.7464,-387.9216 1355.7075,-388.7654 1338.0911,-389.5462"/>
<polygon fill="#191970" stroke="#191970" points="1392.4408,-390.6409 1402.2759,-386.7015 1392.1307,-383.6478 1392.4408,-390.6409"/>
</g>
<!-- Node96&#45;&gt;Node79 -->
<g id="edge49" class="edge">
<title>Node96&#45;&gt;Node79</title>
<path fill="none" stroke="#191970" d="M1257.8573,-415.7828C1239.3187,-441.252 1205.8629,-480.725 1166,-498.409 1080.0711,-536.5288 966.4234,-529.345 906.863,-521.7921"/>
<polygon fill="#191970" stroke="#191970" points="1260.8582,-417.6012 1263.7785,-407.4167 1255.1445,-413.5572 1260.8582,-417.6012"/>
</g>
<!-- Node96&#45;&gt;Node86 -->
<g id="edge48" class="edge">
<title>Node96&#45;&gt;Node86</title>
<path fill="none" stroke="#191970" d="M1198.7623,-406.0041C1187.7862,-407.8886 1176.6082,-409.746 1166,-411.409 1086.9313,-423.8037 995.7843,-435.9806 935.0077,-443.8008"/>
<polygon fill="#191970" stroke="#191970" points="1199.5081,-409.4271 1208.7634,-404.2707 1198.3126,-402.5299 1199.5081,-409.4271"/>
</g>
<!-- Node96&#45;&gt;Node87 -->
<g id="edge50" class="edge">
<title>Node96&#45;&gt;Node87</title>
<path fill="none" stroke="#191970" d="M1240.9,-372.0775C1220.1315,-359.9052 1192.279,-344.987 1166,-335.409 1155.6648,-331.6421 1144.3647,-328.5146 1133.4001,-325.9585"/>
<polygon fill="#191970" stroke="#191970" points="1239.244,-375.1649 1249.6267,-377.2747 1242.8258,-369.1506 1239.244,-375.1649"/>
</g>
<!-- Node97 -->
<g id="node28" class="node">
<title>Node97</title>
<g id="a_node28"><a xlink:href="class_alignment.html#a4e80b4d399ffdbe2ed2cfab91975f348" target="_top" xlink:title="Method to report the trimming results in HTML. Outputs an HTML file that shows visually what has been...">
<polygon fill="#ffffff" stroke="#000000" points="989,-344.909 989,-363.909 1166,-363.909 1166,-344.909 989,-344.909"/>
<text text-anchor="middle" x="1077.5" y="-351.909" font-family="Helvetica,sans-Serif" font-size="10.00" fill="#000000">Alignment::alignmentSummaryHTML</text>
</a>
</g>
</g>
<!-- Node96&#45;&gt;Node97 -->
<g id="edge46" class="edge">
<title>Node96&#45;&gt;Node97</title>
<path fill="none" stroke="#191970" d="M1198.9087,-377.9474C1174.7096,-373.2557 1148.4879,-368.1719 1126.6271,-363.9336"/>
<polygon fill="#191970" stroke="#191970" points="1198.2957,-381.3936 1208.7791,-379.861 1199.6281,-374.5216 1198.2957,-381.3936"/>
</g>
<!-- Node98 -->
<g id="node29" class="node">
<title>Node98</title>
<g id="a_node29"><a xlink:href="class_alignment.html#a2fcaadf2c0799bc668050f7735860364" target="_top" xlink:title="Method to report the trimming results in SVG. Outputs a SVG file that shows visually what has been do...">
<polygon fill="#ffffff" stroke="#000000" points="992,-382.909 992,-401.909 1163,-401.909 1163,-382.909 992,-382.909"/>
<text text-anchor="middle" x="1077.5" y="-389.909" font-family="Helvetica,sans-Serif" font-size="10.00" fill="#000000">Alignment::alignmentSummarySVG</text>
</a>
</g>
</g>
<!-- Node96&#45;&gt;Node98 -->
<g id="edge47" class="edge">
<title>Node96&#45;&gt;Node98</title>
<path fill="none" stroke="#191970" d="M1198.6962,-392.409C1187.0669,-392.409 1174.9753,-392.409 1163.1288,-392.409"/>
<polygon fill="#191970" stroke="#191970" points="1198.7791,-395.9091 1208.7791,-392.409 1198.779,-388.9091 1198.7791,-395.9091"/>
</g>
<!-- Node99 -->
<g id="node30" class="node">
<title>Node99</title>
<g id="a_node30"><a xlink:href="classstatistics_1_1_similarity.html#a26f430acb8a3240977665de9a9ea875a" target="_top" xlink:title="Computes and selects the cut point values based on similarity&#39;s values.">
<polygon fill="#ffffff" stroke="#000000" points="1026,-459.409 1026,-489.409 1129,-489.409 1129,-459.409 1026,-459.409"/>
<text text-anchor="start" x="1034" y="-477.409" font-family="Helvetica,sans-Serif" font-size="10.00" fill="#000000">statistics::Similarity</text>
<text text-anchor="middle" x="1077.5" y="-466.409" font-family="Helvetica,sans-Serif" font-size="10.00" fill="#000000">::calcCutPoint</text>
</a>
</g>
</g>
<!-- Node96&#45;&gt;Node99 -->
<g id="edge51" class="edge">
<title>Node96&#45;&gt;Node99</title>
<path fill="none" stroke="#191970" d="M1235.7805,-412.0713C1215.3953,-422.3351 1189.6252,-434.7341 1166,-444.409 1153.0886,-449.6964 1138.8645,-454.817 1125.6667,-459.286"/>
<polygon fill="#191970" stroke="#191970" points="1237.4078,-415.1704 1244.7406,-407.5232 1234.2394,-408.9285 1237.4078,-415.1704"/>
</g>
<!-- Node99&#45;&gt;Node79 -->
<g id="edge53" class="edge">
<title>Node99&#45;&gt;Node79</title>
<path fill="none" stroke="#191970" d="M1015.7165,-486.4143C980.5414,-493.2493 937.4894,-501.6148 906.6851,-507.6005"/>
<polygon fill="#191970" stroke="#191970" points="1016.7348,-489.782 1025.8836,-484.4387 1015.3996,-482.9105 1016.7348,-489.782"/>
</g>
<!-- Node99&#45;&gt;Node86 -->
<g id="edge52" class="edge">
<title>Node99&#45;&gt;Node86</title>
<path fill="none" stroke="#191970" d="M1015.6849,-467.9638C990.4035,-465.3278 961.0572,-462.268 935.115,-459.5631"/>
<polygon fill="#191970" stroke="#191970" points="1015.5745,-471.4712 1025.8836,-469.0272 1016.3005,-464.5089 1015.5745,-471.4712"/>
</g>
</g>
</svg>
