<?xml version="1.0" encoding="UTF-8" standalone="no"?>
<!DOCTYPE svg PUBLIC "-//W3C//DTD SVG 1.1//EN"
 "http://www.w3.org/Graphics/SVG/1.1/DTD/svg11.dtd">
<!-- Generated by graphviz version 2.40.1 (20161225.0304)
 -->
<!-- Title: statistics::Similarity::getMdkWindowedVector Pages: 1 -->
<svg width="1292pt" height="230pt"
 viewBox="0.00 0.00 1292.00 230.00" xmlns="http://www.w3.org/2000/svg" xmlns:xlink="http://www.w3.org/1999/xlink">
<g id="graph0" class="graph" transform="scale(1 1) rotate(0) translate(4 226)">
<title>statistics::Similarity::getMdkWindowedVector</title>
<polygon fill="#ffffff" stroke="transparent" points="-4,4 -4,-226 1288,-226 1288,4 -4,4"/>
<!-- Node145 -->
<g id="node1" class="node">
<title>Node145</title>
<g id="a_node1"><a xlink:title="This methods returns a pointer to conservationWindow&#39;s vector.">
<polygon fill="#bfbfbf" stroke="#000000" points="1155,-99 1155,-129 1284,-129 1284,-99 1155,-99"/>
<text text-anchor="start" x="1163" y="-117" font-family="Helvetica,sans-Serif" font-size="10.00" fill="#000000">statistics::Similarity</text>
<text text-anchor="middle" x="1219.5" y="-106" font-family="Helvetica,sans-Serif" font-size="10.00" fill="#000000">::getMdkWindowedVector</text>
</a>
</g>
</g>
<!-- Node146 -->
<g id="node2" class="node">
<title>Node146</title>
<g id="a_node2"><a xlink:href="class_alignment.html#a4e80b4d399ffdbe2ed2cfab91975f348" target="_top" xlink:title="Method to report the trimming results in HTML. Outputs an HTML file that shows visually what has been...">
<polygon fill="#ffffff" stroke="#000000" points="942,-202.5 942,-221.5 1119,-221.5 1119,-202.5 942,-202.5"/>
<text text-anchor="middle" x="1030.5" y="-209.5" font-family="Helvetica,sans-Serif" font-size="10.00" fill="#000000">Alignment::alignmentSummaryHTML</text>
</a>
</g>
</g>
<!-- Node145&#45;&gt;Node146 -->
<g id="edge1" class="edge">
<title>Node145&#45;&gt;Node146</title>
<path fill="none" stroke="#191970" d="M1197.6894,-136.0361C1178.5745,-154.0677 1149.1944,-178.8281 1119,-193 1110.7491,-196.8726 1101.6941,-199.9657 1092.623,-202.4338"/>
<polygon fill="#191970" stroke="#191970" points="1200.2076,-138.4702 1204.981,-129.0115 1195.351,-133.429 1200.2076,-138.4702"/>
</g>
<!-- Node147 -->
<g id="node3" class="node">
<title>Node147</title>
<g id="a_node3"><a xlink:href="class_alignment.html#a2fcaadf2c0799bc668050f7735860364" target="_top" xlink:title="Method to report the trimming results in SVG. Outputs a SVG file that shows visually what has been do...">
<polygon fill="#ffffff" stroke="#000000" points="945,-164.5 945,-183.5 1116,-183.5 1116,-164.5 945,-164.5"/>
<text text-anchor="middle" x="1030.5" y="-171.5" font-family="Helvetica,sans-Serif" font-size="10.00" fill="#000000">Alignment::alignmentSummarySVG</text>
</a>
</g>
</g>
<!-- Node145&#45;&gt;Node147 -->
<g id="edge2" class="edge">
<title>Node145&#45;&gt;Node147</title>
<path fill="none" stroke="#191970" d="M1169.8751,-132.6551C1153.7409,-138.4838 1135.6925,-144.756 1119,-150 1102.4454,-155.2007 1083.944,-160.3237 1068.1547,-164.4922"/>
<polygon fill="#191970" stroke="#191970" points="1171.4463,-135.8078 1179.6443,-129.0963 1169.0503,-129.2306 1171.4463,-135.8078"/>
</g>
<!-- Node148 -->
<g id="node4" class="node">
<title>Node148</title>
<g id="a_node4"><a xlink:href="classstatistics_1_1_similarity.html#a26f430acb8a3240977665de9a9ea875a" target="_top" xlink:title="Computes and selects the cut point values based on similarity&#39;s values.">
<polygon fill="#ffffff" stroke="#000000" points="979,-77 979,-107 1082,-107 1082,-77 979,-77"/>
<text text-anchor="start" x="987" y="-95" font-family="Helvetica,sans-Serif" font-size="10.00" fill="#000000">statistics::Similarity</text>
<text text-anchor="middle" x="1030.5" y="-84" font-family="Helvetica,sans-Serif" font-size="10.00" fill="#000000">::calcCutPoint</text>
</a>
</g>
</g>
<!-- Node145&#45;&gt;Node148 -->
<g id="edge3" class="edge">
<title>Node145&#45;&gt;Node148</title>
<path fill="none" stroke="#191970" d="M1144.8223,-105.3074C1123.8573,-102.867 1101.5293,-100.268 1082.2212,-98.0205"/>
<polygon fill="#191970" stroke="#191970" points="1144.6479,-108.8106 1154.9855,-106.4904 1145.4573,-101.8576 1144.6479,-108.8106"/>
</g>
<!-- Node149 -->
<g id="node5" class="node">
<title>Node149</title>
<g id="a_node5"><a xlink:href="class_cleaner.html#a4718e31c0183b5a98751d77479faacf0" target="_top" xlink:title="Method to trim an alignment based on the similarity and gaps distribution values. .">
<polygon fill="#ffffff" stroke="#000000" points="794.5,-82.5 794.5,-101.5 874.5,-101.5 874.5,-82.5 794.5,-82.5"/>
<text text-anchor="middle" x="834.5" y="-89.5" font-family="Helvetica,sans-Serif" font-size="10.00" fill="#000000">Cleaner::clean</text>
</a>
</g>
</g>
<!-- Node145&#45;&gt;Node149 -->
<g id="edge13" class="edge">
<title>Node145&#45;&gt;Node149</title>
<path fill="none" stroke="#191970" d="M1144.5937,-119.8535C1088.6002,-123.0075 1010.2677,-124.8336 942,-117 916.4913,-114.0729 888.2335,-107.3605 867.0935,-101.6274"/>
<polygon fill="#191970" stroke="#191970" points="1145.0055,-123.3354 1154.7815,-119.2512 1144.5923,-116.3476 1145.0055,-123.3354"/>
</g>
<!-- Node155 -->
<g id="node11" class="node">
<title>Node155</title>
<g id="a_node11"><a xlink:href="class_cleaner.html#a9cdbd6ebf78a284dd065b31319795b0c" target="_top" xlink:title="Method to trim an alignment based on the similarity distribution values.">
<polygon fill="#ffffff" stroke="#000000" points="766,-44.5 766,-63.5 903,-63.5 903,-44.5 766,-44.5"/>
<text text-anchor="middle" x="834.5" y="-51.5" font-family="Helvetica,sans-Serif" font-size="10.00" fill="#000000">Cleaner::cleanConservation</text>
</a>
</g>
</g>
<!-- Node145&#45;&gt;Node155 -->
<g id="edge17" class="edge">
<title>Node145&#45;&gt;Node155</title>
<path fill="none" stroke="#191970" d="M1184.567,-94.0222C1165.7646,-84.3122 1141.8056,-73.5618 1119,-68 1046.8139,-50.3954 961.3607,-48.633 903.0795,-50.181"/>
<polygon fill="#191970" stroke="#191970" points="1183.1504,-97.2327 1193.625,-98.8247 1186.4294,-91.0481 1183.1504,-97.2327"/>
</g>
<!-- Node156 -->
<g id="node12" class="node">
<title>Node156</title>
<g id="a_node12"><a xlink:href="class_cleaner.html#a6727a235afa29f08a50716f28fa5c8fc" target="_top" xlink:title="Method to clean an alignment. It carries out strict and strictplus. The method:">
<polygon fill="#ffffff" stroke="#000000" points="763,-.5 763,-19.5 906,-19.5 906,-.5 763,-.5"/>
<text text-anchor="middle" x="834.5" y="-7.5" font-family="Helvetica,sans-Serif" font-size="10.00" fill="#000000">Cleaner::cleanCombMethods</text>
</a>
</g>
</g>
<!-- Node145&#45;&gt;Node156 -->
<g id="edge14" class="edge">
<title>Node145&#45;&gt;Node156</title>
<path fill="none" stroke="#191970" d="M1194.815,-92.3965C1175.532,-76.7999 1147.3342,-56.6769 1119,-46 1049.8163,-19.9303 965.1649,-11.9918 906.2704,-9.9218"/>
<polygon fill="#191970" stroke="#191970" points="1192.8274,-95.2948 1202.7614,-98.9778 1197.2924,-89.9037 1192.8274,-95.2948"/>
</g>
<!-- Node148&#45;&gt;Node149 -->
<g id="edge4" class="edge">
<title>Node148&#45;&gt;Node149</title>
<path fill="none" stroke="#191970" d="M968.577,-92C937.9072,-92 901.7584,-92 874.7286,-92"/>
<polygon fill="#191970" stroke="#191970" points="968.747,-95.5001 978.7469,-92 968.7469,-88.5001 968.747,-95.5001"/>
</g>
<!-- Node148&#45;&gt;Node155 -->
<g id="edge11" class="edge">
<title>Node148&#45;&gt;Node155</title>
<path fill="none" stroke="#191970" d="M968.8306,-80.0437C941.3149,-74.709 909.348,-68.5114 883.5028,-63.5005"/>
<polygon fill="#191970" stroke="#191970" points="968.2635,-83.4988 978.7469,-81.9662 969.5959,-76.6268 968.2635,-83.4988"/>
</g>
<!-- Node150 -->
<g id="node6" class="node">
<title>Node150</title>
<g id="a_node6"><a xlink:href="classtrim_al_manager.html#aebfd21b0435302f0e4fc45a068d1b6ee" target="_top" xlink:title="Method to trim the alignment using non automatic methods:">
<polygon fill="#ffffff" stroke="#000000" points="564.5,-39 564.5,-69 716.5,-69 716.5,-39 564.5,-39"/>
<text text-anchor="start" x="572.5" y="-57" font-family="Helvetica,sans-Serif" font-size="10.00" fill="#000000">trimAlManager::CleanResidues</text>
<text text-anchor="middle" x="640.5" y="-46" font-family="Helvetica,sans-Serif" font-size="10.00" fill="#000000">NonAuto</text>
</a>
</g>
</g>
<!-- Node149&#45;&gt;Node150 -->
<g id="edge5" class="edge">
<title>Node149&#45;&gt;Node150</title>
<path fill="none" stroke="#191970" d="M784.2162,-82.1506C763.6425,-78.1207 739.3854,-73.3693 716.7171,-68.9291"/>
<polygon fill="#191970" stroke="#191970" points="783.8168,-85.6388 794.3031,-84.1264 785.1624,-78.7693 783.8168,-85.6388"/>
</g>
<!-- Node151 -->
<g id="node7" class="node">
<title>Node151</title>
<g id="a_node7"><a xlink:href="classtrim_al_manager.html#adc529dd893ed4e9df6f3ddbd58776068" target="_top" xlink:title="Core Method of the program. This is where almost all cleaning methods are called from.">
<polygon fill="#ffffff" stroke="#000000" points="409,-17 409,-47 518,-47 518,-17 409,-17"/>
<text text-anchor="start" x="417" y="-35" font-family="Helvetica,sans-Serif" font-size="10.00" fill="#000000">trimAlManager::clean</text>
<text text-anchor="middle" x="463.5" y="-24" font-family="Helvetica,sans-Serif" font-size="10.00" fill="#000000">_alignment</text>
</a>
</g>
</g>
<!-- Node150&#45;&gt;Node151 -->
<g id="edge6" class="edge">
<title>Node150&#45;&gt;Node151</title>
<path fill="none" stroke="#191970" d="M554.1475,-43.2669C541.8915,-41.7436 529.5807,-40.2134 518.1558,-38.7934"/>
<polygon fill="#191970" stroke="#191970" points="554.0535,-46.7821 564.4089,-44.5423 554.9169,-39.8355 554.0535,-46.7821"/>
</g>
<!-- Node152 -->
<g id="node8" class="node">
<title>Node152</title>
<g id="a_node8"><a xlink:href="classtrim_al_manager.html#abe8d2841455c644dc9c7d1294b82b00f" target="_top" xlink:title="Method to perform the analysis if all checks have passed.">
<polygon fill="#ffffff" stroke="#000000" points="74,-22.5 74,-41.5 193,-41.5 193,-22.5 74,-22.5"/>
<text text-anchor="middle" x="133.5" y="-29.5" font-family="Helvetica,sans-Serif" font-size="10.00" fill="#000000">trimAlManager::perform</text>
</a>
</g>
</g>
<!-- Node151&#45;&gt;Node152 -->
<g id="edge7" class="edge">
<title>Node151&#45;&gt;Node152</title>
<path fill="none" stroke="#191970" d="M398.5755,-32C338.9161,-32 251.2051,-32 193.243,-32"/>
<polygon fill="#191970" stroke="#191970" points="398.6368,-35.5001 408.6368,-32 398.6367,-28.5001 398.6368,-35.5001"/>
</g>
<!-- Node154 -->
<g id="node10" class="node">
<title>Node154</title>
<g id="a_node10"><a xlink:href="classtrim_al_manager.html#ac5795f93b3a2b51bf5d8dddd63b89f73" target="_top" xlink:title=" ">
<polygon fill="#ffffff" stroke="#000000" points="229,-3.5 229,-22.5 373,-22.5 373,-3.5 229,-3.5"/>
<text text-anchor="middle" x="301" y="-10.5" font-family="Helvetica,sans-Serif" font-size="10.00" fill="#000000">trimAlManager::perform_VCF</text>
</a>
</g>
</g>
<!-- Node151&#45;&gt;Node154 -->
<g id="edge9" class="edge">
<title>Node151&#45;&gt;Node154</title>
<path fill="none" stroke="#191970" d="M398.7672,-24.4312C390.3063,-23.442 381.5959,-22.4235 373.0243,-21.4213"/>
<polygon fill="#191970" stroke="#191970" points="398.599,-27.9353 408.9378,-25.6204 399.412,-20.9827 398.599,-27.9353"/>
</g>
<!-- Node153 -->
<g id="node9" class="node">
<title>Node153</title>
<g id="a_node9"><a xlink:href="trim_al_main_8cpp.html#a0ddf1224851353fc92bfbff6f499fa97" target="_top" xlink:title=" ">
<polygon fill="#ffffff" stroke="#000000" points="0,-22.5 0,-41.5 38,-41.5 38,-22.5 0,-22.5"/>
<text text-anchor="middle" x="19" y="-29.5" font-family="Helvetica,sans-Serif" font-size="10.00" fill="#000000">main</text>
</a>
</g>
</g>
<!-- Node152&#45;&gt;Node153 -->
<g id="edge8" class="edge">
<title>Node152&#45;&gt;Node153</title>
<path fill="none" stroke="#191970" d="M63.6802,-32C54.3823,-32 45.5497,-32 38.2303,-32"/>
<polygon fill="#191970" stroke="#191970" points="63.9025,-35.5001 73.9024,-32 63.9024,-28.5001 63.9025,-35.5001"/>
</g>
<!-- Node154&#45;&gt;Node152 -->
<g id="edge10" class="edge">
<title>Node154&#45;&gt;Node152</title>
<path fill="none" stroke="#191970" d="M218.8378,-22.3199C210.1593,-23.3043 201.4581,-24.2913 193.107,-25.2386"/>
<polygon fill="#191970" stroke="#191970" points="219.4511,-25.7729 228.9928,-21.168 218.662,-18.8175 219.4511,-25.7729"/>
</g>
<!-- Node155&#45;&gt;Node150 -->
<g id="edge12" class="edge">
<title>Node155&#45;&gt;Node150</title>
<path fill="none" stroke="#191970" d="M755.6286,-54C742.768,-54 729.4666,-54 716.6726,-54"/>
<polygon fill="#191970" stroke="#191970" points="755.8299,-57.5001 765.8298,-54 755.8298,-50.5001 755.8299,-57.5001"/>
</g>
<!-- Node157 -->
<g id="node13" class="node">
<title>Node157</title>
<g id="a_node13"><a xlink:href="classtrim_al_manager.html#a69082911b30a1bd12395bb235bc18a34" target="_top" xlink:title="Method to trim the alignment using automatic or semi&#45;automatic methods:">
<polygon fill="#ffffff" stroke="#000000" points="554,-.5 554,-19.5 727,-19.5 727,-.5 554,-.5"/>
<text text-anchor="middle" x="640.5" y="-7.5" font-family="Helvetica,sans-Serif" font-size="10.00" fill="#000000">trimAlManager::CleanResiduesAuto</text>
</a>
</g>
</g>
<!-- Node156&#45;&gt;Node157 -->
<g id="edge15" class="edge">
<title>Node156&#45;&gt;Node157</title>
<path fill="none" stroke="#191970" d="M752.5903,-10C744.1312,-10 735.5152,-10 727.0081,-10"/>
<polygon fill="#191970" stroke="#191970" points="752.8128,-13.5001 762.8127,-10 752.8127,-6.5001 752.8128,-13.5001"/>
</g>
<!-- Node157&#45;&gt;Node151 -->
<g id="edge16" class="edge">
<title>Node157&#45;&gt;Node151</title>
<path fill="none" stroke="#191970" d="M553.7276,-20.7853C541.5879,-22.2942 529.4048,-23.8084 518.0926,-25.2145"/>
<polygon fill="#191970" stroke="#191970" points="554.4028,-24.2284 563.8947,-19.5216 553.5393,-17.2818 554.4028,-24.2284"/>
</g>
</g>
</svg>
