<?xml version="1.0" encoding="UTF-8" standalone="no"?>
<!DOCTYPE svg PUBLIC "-//W3C//DTD SVG 1.1//EN"
 "http://www.w3.org/Graphics/SVG/1.1/DTD/svg11.dtd">
<!-- Generated by graphviz version 2.40.1 (20161225.0304)
 -->
<!-- Title: trimAlManager::gap_threshold_argument Pages: 1 -->
<svg width="382pt" height="39pt"
 viewBox="0.00 0.00 382.00 39.00" xmlns="http://www.w3.org/2000/svg" xmlns:xlink="http://www.w3.org/1999/xlink">
<g id="graph0" class="graph" transform="scale(1 1) rotate(0) translate(4 35)">
<title>trimAlManager::gap_threshold_argument</title>
<polygon fill="#ffffff" stroke="transparent" points="-4,4 -4,-35 378,-35 378,4 -4,4"/>
<!-- Node514 -->
<g id="node1" class="node">
<title>Node514</title>
<g id="a_node1"><a xlink:title="Method to parse the gap threshold argument.">
<polygon fill="#bfbfbf" stroke="#000000" points="267,-.5 267,-30.5 374,-30.5 374,-.5 267,-.5"/>
<text text-anchor="start" x="275" y="-18.5" font-family="Helvetica,sans-Serif" font-size="10.00" fill="#000000">trimAlManager::gap</text>
<text text-anchor="middle" x="320.5" y="-7.5" font-family="Helvetica,sans-Serif" font-size="10.00" fill="#000000">_threshold_argument</text>
</a>
</g>
</g>
<!-- Node515 -->
<g id="node2" class="node">
<title>Node515</title>
<g id="a_node2"><a xlink:href="classtrim_al_manager.html#af140d97b6071a83930818030ac74b641" target="_top" xlink:title="Method to parse arguments into usable structure in trimal.">
<polygon fill="#ffffff" stroke="#000000" points="74,-6 74,-25 231,-25 231,-6 74,-6"/>
<text text-anchor="middle" x="152.5" y="-13" font-family="Helvetica,sans-Serif" font-size="10.00" fill="#000000">trimAlManager::parseArguments</text>
</a>
</g>
</g>
<!-- Node514&#45;&gt;Node515 -->
<g id="edge1" class="edge">
<title>Node514&#45;&gt;Node515</title>
<path fill="none" stroke="#191970" d="M256.7795,-15.5C248.3597,-15.5 239.6507,-15.5 231.0192,-15.5"/>
<polygon fill="#191970" stroke="#191970" points="256.8819,-19.0001 266.8818,-15.5 256.8818,-12.0001 256.8819,-19.0001"/>
</g>
<!-- Node516 -->
<g id="node3" class="node">
<title>Node516</title>
<g id="a_node3"><a xlink:href="trim_al_main_8cpp.html#a0ddf1224851353fc92bfbff6f499fa97" target="_top" xlink:title=" ">
<polygon fill="#ffffff" stroke="#000000" points="0,-6 0,-25 38,-25 38,-6 0,-6"/>
<text text-anchor="middle" x="19" y="-13" font-family="Helvetica,sans-Serif" font-size="10.00" fill="#000000">main</text>
</a>
</g>
</g>
<!-- Node515&#45;&gt;Node516 -->
<g id="edge2" class="edge">
<title>Node515&#45;&gt;Node516</title>
<path fill="none" stroke="#191970" d="M63.4234,-15.5C54.1647,-15.5 45.5538,-15.5 38.4254,-15.5"/>
<polygon fill="#191970" stroke="#191970" points="63.6848,-19.0001 73.6848,-15.5 63.6847,-12.0001 63.6848,-19.0001"/>
</g>
</g>
</svg>
