<?xml version="1.0" encoding="UTF-8" standalone="no"?>
<!DOCTYPE svg PUBLIC "-//W3C//DTD SVG 1.1//EN"
 "http://www.w3.org/Graphics/SVG/1.1/DTD/svg11.dtd">
<!-- Generated by graphviz version 2.40.1 (20161225.0304)
 -->
<!-- Title: sequencesMatrix::setOrder Pages: 1 -->
<svg width="923pt" height="88pt"
 viewBox="0.00 0.00 923.00 88.00" xmlns="http://www.w3.org/2000/svg" xmlns:xlink="http://www.w3.org/1999/xlink">
<g id="graph0" class="graph" transform="scale(1 1) rotate(0) translate(4 84)">
<title>sequencesMatrix::setOrder</title>
<polygon fill="#ffffff" stroke="transparent" points="-4,4 -4,-84 919,-84 919,4 -4,4"/>
<!-- Node32 -->
<g id="node1" class="node">
<title>Node32</title>
<g id="a_node1"><a xlink:title="Method that reorders the stored sequences with a given order list.">
<polygon fill="#bfbfbf" stroke="#000000" points="781,-30 781,-49 915,-49 915,-30 781,-30"/>
<text text-anchor="middle" x="848" y="-37" font-family="Helvetica,sans-Serif" font-size="10.00" fill="#000000">sequencesMatrix::setOrder</text>
</a>
</g>
</g>
<!-- Node33 -->
<g id="node2" class="node">
<title>Node33</title>
<g id="a_node2"><a xlink:href="classstatistics_1_1_consistency.html#a35c4f5aab5ad2e8d4722f07b17b9dbd2" target="_top" xlink:title="Method to compare a set of alignments to select the most consistent one respect the others....">
<polygon fill="#ffffff" stroke="#000000" points="628,-49.5 628,-79.5 745,-79.5 745,-49.5 628,-49.5"/>
<text text-anchor="start" x="636" y="-67.5" font-family="Helvetica,sans-Serif" font-size="10.00" fill="#000000">statistics::Consistency</text>
<text text-anchor="middle" x="686.5" y="-56.5" font-family="Helvetica,sans-Serif" font-size="10.00" fill="#000000">::compareAndChoose</text>
</a>
</g>
</g>
<!-- Node32&#45;&gt;Node33 -->
<g id="edge1" class="edge">
<title>Node32&#45;&gt;Node33</title>
<path fill="none" stroke="#191970" d="M776.5271,-50.5639C766.051,-52.1856 755.3638,-53.84 745.1835,-55.4159"/>
<polygon fill="#191970" stroke="#191970" points="777.1362,-54.0114 786.4831,-49.0227 776.0653,-47.0938 777.1362,-54.0114"/>
</g>
<!-- Node38 -->
<g id="node7" class="node">
<title>Node38</title>
<g id="a_node7"><a xlink:href="classstatistics_1_1_consistency.html#a12d0b624abec361767bd3a6001998f02" target="_top" xlink:title="Method to obtain the consistency values vector for a given alignment against a set of alignments with...">
<polygon fill="#ffffff" stroke="#000000" points="628,-.5 628,-30.5 745,-30.5 745,-.5 628,-.5"/>
<text text-anchor="start" x="636" y="-18.5" font-family="Helvetica,sans-Serif" font-size="10.00" fill="#000000">statistics::Consistency</text>
<text text-anchor="middle" x="686.5" y="-7.5" font-family="Helvetica,sans-Serif" font-size="10.00" fill="#000000">::forceComparison</text>
</a>
</g>
</g>
<!-- Node32&#45;&gt;Node38 -->
<g id="edge6" class="edge">
<title>Node32&#45;&gt;Node38</title>
<path fill="none" stroke="#191970" d="M773.751,-28.4661C764.1321,-27.0367 754.3895,-25.5888 745.0737,-24.2045"/>
<polygon fill="#191970" stroke="#191970" points="773.301,-31.9376 783.7069,-29.9456 774.33,-25.0136 773.301,-31.9376"/>
</g>
<!-- Node34 -->
<g id="node3" class="node">
<title>Node34</title>
<g id="a_node3"><a xlink:href="classstatistics_1_1_consistency.html#a2e281b6a138074a23ebf261731e3aa27" target="_top" xlink:title="Method to compare a set of MSA, all containing the same sequences and residues. The number of residue...">
<polygon fill="#ffffff" stroke="#000000" points="475,-24.5 475,-54.5 592,-54.5 592,-24.5 475,-24.5"/>
<text text-anchor="start" x="483" y="-42.5" font-family="Helvetica,sans-Serif" font-size="10.00" fill="#000000">statistics::Consistency</text>
<text text-anchor="middle" x="533.5" y="-31.5" font-family="Helvetica,sans-Serif" font-size="10.00" fill="#000000">::perform</text>
</a>
</g>
</g>
<!-- Node33&#45;&gt;Node34 -->
<g id="edge2" class="edge">
<title>Node33&#45;&gt;Node34</title>
<path fill="none" stroke="#191970" d="M617.7869,-53.2724C609.1969,-51.8688 600.4745,-50.4435 592.0591,-49.0685"/>
<polygon fill="#191970" stroke="#191970" points="617.3502,-56.7474 627.7838,-54.9058 618.4791,-49.839 617.3502,-56.7474"/>
</g>
<!-- Node35 -->
<g id="node4" class="node">
<title>Node35</title>
<g id="a_node4"><a xlink:href="classtrim_al_manager.html#a12b7cef964ef258fe7621da44867c51f" target="_top" xlink:title="Method to check if multiple files comparison has been set correctly. It also perform some calculation...">
<polygon fill="#ffffff" stroke="#000000" points="267,-30 267,-49 439,-49 439,-30 267,-30"/>
<text text-anchor="middle" x="353" y="-37" font-family="Helvetica,sans-Serif" font-size="10.00" fill="#000000">trimAlManager::performCompareset</text>
</a>
</g>
</g>
<!-- Node34&#45;&gt;Node35 -->
<g id="edge3" class="edge">
<title>Node34&#45;&gt;Node35</title>
<path fill="none" stroke="#191970" d="M464.815,-39.5C456.425,-39.5 447.7709,-39.5 439.1664,-39.5"/>
<polygon fill="#191970" stroke="#191970" points="464.8969,-43.0001 474.8968,-39.5 464.8968,-36.0001 464.8969,-43.0001"/>
</g>
<!-- Node36 -->
<g id="node5" class="node">
<title>Node36</title>
<g id="a_node5"><a xlink:href="classtrim_al_manager.html#af140d97b6071a83930818030ac74b641" target="_top" xlink:title="Method to parse arguments into usable structure in trimal.">
<polygon fill="#ffffff" stroke="#000000" points="74,-30 74,-49 231,-49 231,-30 74,-30"/>
<text text-anchor="middle" x="152.5" y="-37" font-family="Helvetica,sans-Serif" font-size="10.00" fill="#000000">trimAlManager::parseArguments</text>
</a>
</g>
</g>
<!-- Node35&#45;&gt;Node36 -->
<g id="edge4" class="edge">
<title>Node35&#45;&gt;Node36</title>
<path fill="none" stroke="#191970" d="M256.7278,-39.5C248.114,-39.5 239.461,-39.5 231.0237,-39.5"/>
<polygon fill="#191970" stroke="#191970" points="256.8064,-43.0001 266.8064,-39.5 256.8063,-36.0001 256.8064,-43.0001"/>
</g>
<!-- Node37 -->
<g id="node6" class="node">
<title>Node37</title>
<g id="a_node6"><a xlink:href="trim_al_main_8cpp.html#a0ddf1224851353fc92bfbff6f499fa97" target="_top" xlink:title=" ">
<polygon fill="#ffffff" stroke="#000000" points="0,-30 0,-49 38,-49 38,-30 0,-30"/>
<text text-anchor="middle" x="19" y="-37" font-family="Helvetica,sans-Serif" font-size="10.00" fill="#000000">main</text>
</a>
</g>
</g>
<!-- Node36&#45;&gt;Node37 -->
<g id="edge5" class="edge">
<title>Node36&#45;&gt;Node37</title>
<path fill="none" stroke="#191970" d="M63.4234,-39.5C54.1647,-39.5 45.5538,-39.5 38.4254,-39.5"/>
<polygon fill="#191970" stroke="#191970" points="63.6848,-43.0001 73.6848,-39.5 63.6847,-36.0001 63.6848,-43.0001"/>
</g>
<!-- Node38&#45;&gt;Node34 -->
<g id="edge7" class="edge">
<title>Node38&#45;&gt;Node34</title>
<path fill="none" stroke="#191970" d="M617.7869,-26.2785C609.1969,-27.626 600.4745,-28.9942 592.0591,-30.3143"/>
<polygon fill="#191970" stroke="#191970" points="618.447,-29.7179 627.7838,-24.7104 617.3622,-22.8024 618.447,-29.7179"/>
</g>
</g>
</svg>
