<?xml version="1.0" encoding="UTF-8" standalone="no"?>
<!DOCTYPE svg PUBLIC "-//W3C//DTD SVG 1.1//EN"
 "http://www.w3.org/Graphics/SVG/1.1/DTD/svg11.dtd">
<!-- Generated by graphviz version 2.40.1 (20161225.0304)
 -->
<!-- Title: trimAlManager::save_alignment Pages: 1 -->
<svg width="477pt" height="154pt"
 viewBox="0.00 0.00 477.00 153.50" xmlns="http://www.w3.org/2000/svg" xmlns:xlink="http://www.w3.org/1999/xlink">
<g id="graph0" class="graph" transform="scale(1 1) rotate(0) translate(4 149.5)">
<title>trimAlManager::save_alignment</title>
<polygon fill="#ffffff" stroke="transparent" points="-4,4 -4,-149.5 473,-149.5 473,4 -4,4"/>
<!-- Node1021 -->
<g id="node1" class="node">
<title>Node1021</title>
<g id="a_node1"><a xlink:title=" ">
<polygon fill="#bfbfbf" stroke="#000000" points="0,-63.5 0,-93.5 107,-93.5 107,-63.5 0,-63.5"/>
<text text-anchor="start" x="8" y="-81.5" font-family="Helvetica,sans-Serif" font-size="10.00" fill="#000000">trimAlManager::save</text>
<text text-anchor="middle" x="53.5" y="-70.5" font-family="Helvetica,sans-Serif" font-size="10.00" fill="#000000">_alignment</text>
</a>
</g>
</g>
<!-- Node1022 -->
<g id="node2" class="node">
<title>Node1022</title>
<g id="a_node2"><a xlink:href="class_format_manager.html#ac2c4667aceae0c08c24e51b2216ccc44" target="_top" xlink:title="Function to save an alignment to a file. It searches among the available_states one that can write th...">
<polygon fill="#ffffff" stroke="#000000" points="143,-69 143,-88 298,-88 298,-69 143,-69"/>
<text text-anchor="middle" x="220.5" y="-76" font-family="Helvetica,sans-Serif" font-size="10.00" fill="#000000">FormatManager::saveAlignment</text>
</a>
</g>
</g>
<!-- Node1021&#45;&gt;Node1022 -->
<g id="edge1" class="edge">
<title>Node1021&#45;&gt;Node1022</title>
<path fill="none" stroke="#191970" d="M107.2591,-78.5C115.4145,-78.5 124.0054,-78.5 132.6586,-78.5"/>
<polygon fill="#191970" stroke="#191970" points="132.823,-82.0001 142.8229,-78.5 132.8229,-75.0001 132.823,-82.0001"/>
</g>
<!-- Node1023 -->
<g id="node3" class="node">
<title>Node1023</title>
<g id="a_node3"><a xlink:href="namespaceutils.html#a40640e1942f00797e9fe8284e8fbdb14" target="_top" xlink:title="Maximum of two numbers method.">
<polygon fill="#ffffff" stroke="#000000" points="372,-126 372,-145 431,-145 431,-126 372,-126"/>
<text text-anchor="middle" x="401.5" y="-133" font-family="Helvetica,sans-Serif" font-size="10.00" fill="#000000">utils::max</text>
</a>
</g>
</g>
<!-- Node1022&#45;&gt;Node1023 -->
<g id="edge2" class="edge">
<title>Node1022&#45;&gt;Node1023</title>
<path fill="none" stroke="#191970" d="M247.9011,-88.0905C270.8146,-96.0098 304.4092,-107.3878 334,-116.5 343.0571,-119.2891 352.8473,-122.1387 362.0874,-124.7543"/>
<polygon fill="#191970" stroke="#191970" points="361.2637,-128.1582 371.8372,-127.4866 363.1526,-121.4179 361.2637,-128.1582"/>
</g>
<!-- Node1024 -->
<g id="node4" class="node">
<title>Node1024</title>
<g id="a_node4"><a xlink:href="namespaceutils.html#ab0cb109dc7e12b42abd4cba86f7d8e78" target="_top" xlink:title="Function that replaces a substring with another substring in a string. It makes a copy of the origina...">
<polygon fill="#ffffff" stroke="#000000" points="350.5,-88 350.5,-107 452.5,-107 452.5,-88 350.5,-88"/>
<text text-anchor="middle" x="401.5" y="-95" font-family="Helvetica,sans-Serif" font-size="10.00" fill="#000000">utils::ReplaceString</text>
</a>
</g>
</g>
<!-- Node1022&#45;&gt;Node1024 -->
<g id="edge3" class="edge">
<title>Node1022&#45;&gt;Node1024</title>
<path fill="none" stroke="#191970" d="M298.048,-86.6404C312.1166,-88.1172 326.6117,-89.6388 340.1352,-91.0584"/>
<polygon fill="#191970" stroke="#191970" points="339.9533,-94.5584 350.2641,-92.1216 340.6842,-87.5967 339.9533,-94.5584"/>
</g>
<!-- Node1025 -->
<g id="node5" class="node">
<title>Node1025</title>
<g id="a_node5"><a xlink:href="namespaceutils.html#a6000246220e801bf6b1e6a553d7af13a" target="_top" xlink:title="Function that replaces a substring with another substring in a string. It does not make a copy of the...">
<polygon fill="#ffffff" stroke="#000000" points="334,-50 334,-69 469,-69 469,-50 334,-50"/>
<text text-anchor="middle" x="401.5" y="-57" font-family="Helvetica,sans-Serif" font-size="10.00" fill="#000000">utils::ReplaceStringInPlace</text>
</a>
</g>
</g>
<!-- Node1022&#45;&gt;Node1025 -->
<g id="edge4" class="edge">
<title>Node1022&#45;&gt;Node1025</title>
<path fill="none" stroke="#191970" d="M298.048,-70.3596C306.5995,-69.4619 315.3086,-68.5477 323.8613,-67.6499"/>
<polygon fill="#191970" stroke="#191970" points="324.2308,-71.1305 333.8107,-66.6055 323.4999,-64.1687 324.2308,-71.1305"/>
</g>
<!-- Node1026 -->
<g id="node6" class="node">
<title>Node1026</title>
<g id="a_node6"><a xlink:href="classreporting_1_1report_manager.html#a6d122e673144584e0869bd33b8a5c1c6" target="_top" xlink:title="Method to report an Error. &#160;It will be displayed if Level &#160;is equal or higher to VerboseLevel::ERROR.">
<polygon fill="#ffffff" stroke="#000000" points="340.5,-.5 340.5,-30.5 462.5,-30.5 462.5,-.5 340.5,-.5"/>
<text text-anchor="start" x="348.5" y="-18.5" font-family="Helvetica,sans-Serif" font-size="10.00" fill="#000000">reporting::reportManager</text>
<text text-anchor="middle" x="401.5" y="-7.5" font-family="Helvetica,sans-Serif" font-size="10.00" fill="#000000">::report</text>
</a>
</g>
</g>
<!-- Node1022&#45;&gt;Node1026 -->
<g id="edge5" class="edge">
<title>Node1022&#45;&gt;Node1026</title>
<path fill="none" stroke="#191970" d="M247.99,-68.9317C274.6329,-59.6582 315.7399,-45.3502 348.7129,-33.8734"/>
<polygon fill="#191970" stroke="#191970" points="349.9242,-37.1578 358.2179,-30.565 347.6231,-30.5468 349.9242,-37.1578"/>
</g>
</g>
</svg>
