<?xml version="1.0" encoding="UTF-8" standalone="no"?>
<!DOCTYPE svg PUBLIC "-//W3C//DTD SVG 1.1//EN"
 "http://www.w3.org/Graphics/SVG/1.1/DTD/svg11.dtd">
<!-- Generated by graphviz version 2.40.1 (20161225.0304)
 -->
<!-- Title: /home/vfernandez/git/trimAl/source Pages: 1 -->
<svg width="274pt" height="132pt"
 viewBox="0.00 0.00 274.00 132.00" xmlns="http://www.w3.org/2000/svg" xmlns:xlink="http://www.w3.org/1999/xlink">
<g id="graph0" class="graph" transform="scale(1 1) rotate(0) translate(4 128)">
<title>/home/vfernandez/git/trimAl/source</title>
<polygon fill="#ffffff" stroke="transparent" points="-4,4 -4,-128 270,-128 270,4 -4,4"/>
<g id="clust1" class="cluster">
<title>clusterdir_b2f33c71d4aa5e7af42a1ca61ff5af1b</title>
<g id="a_clust1"><a xlink:href="dir_b2f33c71d4aa5e7af42a1ca61ff5af1b.html" target="_top">
<polygon fill="#eeeeff" stroke="#000000" points="8,-64 8,-116 258,-116 258,-64 8,-64"/>
</a>
</g>
</g>
<!-- dir_b2f33c71d4aa5e7af42a1ca61ff5af1b -->
<g id="node1" class="node">
<title>dir_b2f33c71d4aa5e7af42a1ca61ff5af1b</title>
<text text-anchor="middle" x="223" y="-87.5" font-family="Helvetica,sans-Serif" font-size="10.00" fill="#000000">source</text>
</g>
<!-- dir_1db5cc9b4edf0a977802706e736507a2 -->
<g id="node2" class="node">
<title>dir_1db5cc9b4edf0a977802706e736507a2</title>
<g id="a_node2"><a xlink:href="dir_1db5cc9b4edf0a977802706e736507a2.html" target="_top" xlink:title="FormatHandling">
<polygon fill="#ffffff" stroke="#000000" points="178,-108 92,-108 92,-72 178,-72 178,-108"/>
<text text-anchor="middle" x="135" y="-87.5" font-family="Helvetica,sans-Serif" font-size="10.00" fill="#000000">FormatHandling</text>
</a>
</g>
</g>
<!-- dir_d44c64559bbebec7f509842c48db8b23 -->
<g id="node4" class="node">
<title>dir_d44c64559bbebec7f509842c48db8b23</title>
<g id="a_node4"><a xlink:href="dir_d44c64559bbebec7f509842c48db8b23.html" target="_top" xlink:title="include">
<polygon fill="#ffffff" stroke="#ff0000" points="117,-36 63,-36 63,0 117,0 117,-36"/>
<text text-anchor="middle" x="90" y="-15.5" font-family="Helvetica,sans-Serif" font-size="10.00" fill="#000000">include</text>
</a>
</g>
</g>
<!-- dir_1db5cc9b4edf0a977802706e736507a2&#45;&gt;dir_d44c64559bbebec7f509842c48db8b23 -->
<g id="edge2" class="edge">
<title>dir_1db5cc9b4edf0a977802706e736507a2&#45;&gt;dir_d44c64559bbebec7f509842c48db8b23</title>
<path fill="none" stroke="#000000" d="M123.6446,-71.8314C118.5674,-63.7079 112.4773,-53.9637 106.8824,-45.0118"/>
<polygon fill="#000000" stroke="#000000" points="109.7763,-43.0383 101.5083,-36.4133 103.8403,-46.7483 109.7763,-43.0383"/>
<g id="a_edge2&#45;headlabel"><a xlink:href="dir_000017_000013.html" target="_top" xlink:title="10">
<text text-anchor="middle" x="114.0891" y="-42.0817" font-family="Helvetica,sans-Serif" font-size="10.00" fill="#000000">10</text>
</a>
</g>
</g>
<!-- dir_b83718e9b79d9c182245565b92726c09 -->
<g id="node3" class="node">
<title>dir_b83718e9b79d9c182245565b92726c09</title>
<g id="a_node3"><a xlink:href="dir_b83718e9b79d9c182245565b92726c09.html" target="_top" xlink:title="Statistics">
<polygon fill="#ffffff" stroke="#000000" points="74,-108 16,-108 16,-72 74,-72 74,-108"/>
<text text-anchor="middle" x="45" y="-87.5" font-family="Helvetica,sans-Serif" font-size="10.00" fill="#000000">Statistics</text>
</a>
</g>
</g>
<!-- dir_b83718e9b79d9c182245565b92726c09&#45;&gt;dir_d44c64559bbebec7f509842c48db8b23 -->
<g id="edge1" class="edge">
<title>dir_b83718e9b79d9c182245565b92726c09&#45;&gt;dir_d44c64559bbebec7f509842c48db8b23</title>
<path fill="none" stroke="#000000" d="M56.3554,-71.8314C61.4326,-63.7079 67.5227,-53.9637 73.1176,-45.0118"/>
<polygon fill="#000000" stroke="#000000" points="76.1597,-46.7483 78.4917,-36.4133 70.2237,-43.0383 76.1597,-46.7483"/>
<g id="a_edge1&#45;headlabel"><a xlink:href="dir_000018_000013.html" target="_top" xlink:title="33">
<text text-anchor="middle" x="76.6623" y="-48.8013" font-family="Helvetica,sans-Serif" font-size="10.00" fill="#000000">33</text>
</a>
</g>
</g>
</g>
</svg>
