<?xml version="1.0" encoding="UTF-8" standalone="no"?>
<!DOCTYPE svg PUBLIC "-//W3C//DTD SVG 1.1//EN"
 "http://www.w3.org/Graphics/SVG/1.1/DTD/svg11.dtd">
<!-- Generated by graphviz version 2.40.1 (20161225.0304)
 -->
<!-- Title: ngs::IUPAC::getCharFromTag Pages: 1 -->
<svg width="855pt" height="39pt"
 viewBox="0.00 0.00 855.00 39.00" xmlns="http://www.w3.org/2000/svg" xmlns:xlink="http://www.w3.org/1999/xlink">
<g id="graph0" class="graph" transform="scale(1 1) rotate(0) translate(4 35)">
<title>ngs::IUPAC::getCharFromTag</title>
<polygon fill="#ffffff" stroke="transparent" points="-4,4 -4,-35 851,-35 851,4 -4,4"/>
<!-- Node1 -->
<g id="node1" class="node">
<title>Node1</title>
<g id="a_node1"><a xlink:title=" ">
<polygon fill="#bfbfbf" stroke="#000000" points="698,-6 698,-25 847,-25 847,-6 698,-6"/>
<text text-anchor="middle" x="772.5" y="-13" font-family="Helvetica,sans-Serif" font-size="10.00" fill="#000000">ngs::IUPAC::getCharFromTag</text>
</a>
</g>
</g>
<!-- Node2 -->
<g id="node2" class="node">
<title>Node2</title>
<g id="a_node2"><a xlink:href="namespacengs_1_1____internal.html#a1a450c661e168dfcc436e071e3e18558" target="_top" xlink:title=" ">
<polygon fill="#ffffff" stroke="#000000" points="522,-.5 522,-30.5 662,-30.5 662,-.5 522,-.5"/>
<text text-anchor="start" x="530" y="-18.5" font-family="Helvetica,sans-Serif" font-size="10.00" fill="#000000">ngs::__internal::applyVariant</text>
<text text-anchor="middle" x="592" y="-7.5" font-family="Helvetica,sans-Serif" font-size="10.00" fill="#000000">CallingFiles</text>
</a>
</g>
</g>
<!-- Node1&#45;&gt;Node2 -->
<g id="edge1" class="edge">
<title>Node1&#45;&gt;Node2</title>
<path fill="none" stroke="#191970" d="M687.729,-15.5C679.1243,-15.5 670.4529,-15.5 662.0292,-15.5"/>
<polygon fill="#191970" stroke="#191970" points="687.7808,-19.0001 697.7808,-15.5 687.7808,-12.0001 687.7808,-19.0001"/>
</g>
<!-- Node3 -->
<g id="node3" class="node">
<title>Node3</title>
<g id="a_node3"><a xlink:href="namespacengs.html#af5bc1f6bdf56a4c4981639d5ed0ee77f" target="_top" xlink:title=" ">
<polygon fill="#ffffff" stroke="#000000" points="409,-6 409,-25 486,-25 486,-6 409,-6"/>
<text text-anchor="middle" x="447.5" y="-13" font-family="Helvetica,sans-Serif" font-size="10.00" fill="#000000">ngs::readVCF</text>
</a>
</g>
</g>
<!-- Node2&#45;&gt;Node3 -->
<g id="edge2" class="edge">
<title>Node2&#45;&gt;Node3</title>
<path fill="none" stroke="#191970" d="M511.8493,-15.5C503.0116,-15.5 494.3335,-15.5 486.3525,-15.5"/>
<polygon fill="#191970" stroke="#191970" points="511.8665,-19.0001 521.8664,-15.5 511.8664,-12.0001 511.8665,-19.0001"/>
</g>
<!-- Node4 -->
<g id="node4" class="node">
<title>Node4</title>
<g id="a_node4"><a xlink:href="classtrim_al_manager.html#ac5795f93b3a2b51bf5d8dddd63b89f73" target="_top" xlink:title=" ">
<polygon fill="#ffffff" stroke="#000000" points="229,-6 229,-25 373,-25 373,-6 229,-6"/>
<text text-anchor="middle" x="301" y="-13" font-family="Helvetica,sans-Serif" font-size="10.00" fill="#000000">trimAlManager::perform_VCF</text>
</a>
</g>
</g>
<!-- Node3&#45;&gt;Node4 -->
<g id="edge3" class="edge">
<title>Node3&#45;&gt;Node4</title>
<path fill="none" stroke="#191970" d="M398.5723,-15.5C390.416,-15.5 381.8059,-15.5 373.2148,-15.5"/>
<polygon fill="#191970" stroke="#191970" points="398.6253,-19.0001 408.6253,-15.5 398.6253,-12.0001 398.6253,-19.0001"/>
</g>
<!-- Node5 -->
<g id="node5" class="node">
<title>Node5</title>
<g id="a_node5"><a xlink:href="classtrim_al_manager.html#abe8d2841455c644dc9c7d1294b82b00f" target="_top" xlink:title="Method to perform the analysis if all checks have passed.">
<polygon fill="#ffffff" stroke="#000000" points="74,-6 74,-25 193,-25 193,-6 74,-6"/>
<text text-anchor="middle" x="133.5" y="-13" font-family="Helvetica,sans-Serif" font-size="10.00" fill="#000000">trimAlManager::perform</text>
</a>
</g>
</g>
<!-- Node4&#45;&gt;Node5 -->
<g id="edge4" class="edge">
<title>Node4&#45;&gt;Node5</title>
<path fill="none" stroke="#191970" d="M218.8378,-15.5C210.1593,-15.5 201.4581,-15.5 193.107,-15.5"/>
<polygon fill="#191970" stroke="#191970" points="218.9929,-19.0001 228.9928,-15.5 218.9928,-12.0001 218.9929,-19.0001"/>
</g>
<!-- Node6 -->
<g id="node6" class="node">
<title>Node6</title>
<g id="a_node6"><a xlink:href="trim_al_main_8cpp.html#a0ddf1224851353fc92bfbff6f499fa97" target="_top" xlink:title=" ">
<polygon fill="#ffffff" stroke="#000000" points="0,-6 0,-25 38,-25 38,-6 0,-6"/>
<text text-anchor="middle" x="19" y="-13" font-family="Helvetica,sans-Serif" font-size="10.00" fill="#000000">main</text>
</a>
</g>
</g>
<!-- Node5&#45;&gt;Node6 -->
<g id="edge5" class="edge">
<title>Node5&#45;&gt;Node6</title>
<path fill="none" stroke="#191970" d="M63.6802,-15.5C54.3823,-15.5 45.5497,-15.5 38.2303,-15.5"/>
<polygon fill="#191970" stroke="#191970" points="63.9025,-19.0001 73.9024,-15.5 63.9024,-12.0001 63.9025,-19.0001"/>
</g>
</g>
</svg>
