<?xml version="1.0" encoding="UTF-8" standalone="no"?>
<!DOCTYPE svg PUBLIC "-//W3C//DTD SVG 1.1//EN"
 "http://www.w3.org/Graphics/SVG/1.1/DTD/svg11.dtd">
<!-- Generated by graphviz version 2.40.1 (20161225.0304)
 -->
<!-- Title: utils::determineColor Pages: 1 -->
<svg width="328pt" height="66pt"
 viewBox="0.00 0.00 328.00 66.00" xmlns="http://www.w3.org/2000/svg" xmlns:xlink="http://www.w3.org/1999/xlink">
<g id="graph0" class="graph" transform="scale(1 1) rotate(0) translate(4 62)">
<title>utils::determineColor</title>
<polygon fill="#ffffff" stroke="transparent" points="-4,4 -4,-62 324,-62 324,4 -4,4"/>
<!-- Node79 -->
<g id="node1" class="node">
<title>Node79</title>
<g id="a_node1"><a xlink:title="Checks the color that has to be used on the output report.">
<polygon fill="#bfbfbf" stroke="#000000" points="213,-19.5 213,-38.5 320,-38.5 320,-19.5 213,-19.5"/>
<text text-anchor="middle" x="266.5" y="-26.5" font-family="Helvetica,sans-Serif" font-size="10.00" fill="#000000">utils::determineColor</text>
</a>
</g>
</g>
<!-- Node80 -->
<g id="node2" class="node">
<title>Node80</title>
<g id="a_node2"><a xlink:href="class_alignment.html#a4e80b4d399ffdbe2ed2cfab91975f348" target="_top" xlink:title="Method to report the trimming results in HTML. Outputs an HTML file that shows visually what has been...">
<polygon fill="#ffffff" stroke="#000000" points="0,-38.5 0,-57.5 177,-57.5 177,-38.5 0,-38.5"/>
<text text-anchor="middle" x="88.5" y="-45.5" font-family="Helvetica,sans-Serif" font-size="10.00" fill="#000000">Alignment::alignmentSummaryHTML</text>
</a>
</g>
</g>
<!-- Node79&#45;&gt;Node80 -->
<g id="edge1" class="edge">
<title>Node79&#45;&gt;Node80</title>
<path fill="none" stroke="#191970" d="M202.6484,-35.8156C194.3333,-36.7032 185.699,-37.6248 177.0702,-38.5459"/>
<polygon fill="#191970" stroke="#191970" points="203.0391,-39.2939 212.6111,-34.7522 202.2961,-32.3334 203.0391,-39.2939"/>
</g>
<!-- Node81 -->
<g id="node3" class="node">
<title>Node81</title>
<g id="a_node3"><a xlink:href="class_alignment.html#a2fcaadf2c0799bc668050f7735860364" target="_top" xlink:title="Method to report the trimming results in SVG. Outputs a SVG file that shows visually what has been do...">
<polygon fill="#ffffff" stroke="#000000" points="3,-.5 3,-19.5 174,-19.5 174,-.5 3,-.5"/>
<text text-anchor="middle" x="88.5" y="-7.5" font-family="Helvetica,sans-Serif" font-size="10.00" fill="#000000">Alignment::alignmentSummarySVG</text>
</a>
</g>
</g>
<!-- Node79&#45;&gt;Node81 -->
<g id="edge2" class="edge">
<title>Node79&#45;&gt;Node81</title>
<path fill="none" stroke="#191970" d="M202.4116,-22.1591C193.2117,-21.1771 183.6256,-20.1539 174.0917,-19.1362"/>
<polygon fill="#191970" stroke="#191970" points="202.2961,-25.6666 212.6111,-23.2478 203.0391,-18.7061 202.2961,-25.6666"/>
</g>
</g>
</svg>
