<?xml version="1.0" encoding="UTF-8" standalone="no"?>
<!DOCTYPE svg PUBLIC "-//W3C//DTD SVG 1.1//EN"
 "http://www.w3.org/Graphics/SVG/1.1/DTD/svg11.dtd">
<!-- Generated by graphviz version 2.40.1 (20161225.0304)
 -->
<!-- Title: utils::toUpper Pages: 1 -->
<svg width="1682pt" height="388pt"
 viewBox="0.00 0.00 1682.00 388.00" xmlns="http://www.w3.org/2000/svg" xmlns:xlink="http://www.w3.org/1999/xlink">
<g id="graph0" class="graph" transform="scale(1 1) rotate(0) translate(4 384)">
<title>utils::toUpper</title>
<polygon fill="#ffffff" stroke="transparent" points="-4,4 -4,-384 1678,-384 1678,4 -4,4"/>
<!-- Node401 -->
<g id="node1" class="node">
<title>Node401</title>
<g id="a_node1"><a xlink:title=" ">
<polygon fill="#bfbfbf" stroke="#000000" points="1599,-131.5 1599,-150.5 1674,-150.5 1674,-131.5 1599,-131.5"/>
<text text-anchor="middle" x="1636.5" y="-138.5" font-family="Helvetica,sans-Serif" font-size="10.00" fill="#000000">utils::toUpper</text>
</a>
</g>
</g>
<!-- Node402 -->
<g id="node2" class="node">
<title>Node402</title>
<g id="a_node2"><a xlink:href="classstatistics_1_1_similarity.html#ae69ec0e79912ae23c8cfe97358c4794d" target="_top" xlink:title="Method to calculate the similarity values of a alignment matrix.">
<polygon fill="#ffffff" stroke="#000000" points="1459.5,-148 1459.5,-178 1562.5,-178 1562.5,-148 1459.5,-148"/>
<text text-anchor="start" x="1467.5" y="-166" font-family="Helvetica,sans-Serif" font-size="10.00" fill="#000000">statistics::Similarity</text>
<text text-anchor="middle" x="1511" y="-155" font-family="Helvetica,sans-Serif" font-size="10.00" fill="#000000">::calculateVectors</text>
</a>
</g>
</g>
<!-- Node401&#45;&gt;Node402 -->
<g id="edge1" class="edge">
<title>Node401&#45;&gt;Node402</title>
<path fill="none" stroke="#191970" d="M1588.9486,-149.3357C1580.3219,-150.848 1571.2874,-152.4317 1562.5521,-153.963"/>
<polygon fill="#191970" stroke="#191970" points="1589.6004,-152.7749 1598.8459,-147.6007 1588.3917,-145.88 1589.6004,-152.7749"/>
</g>
<!-- Node422 -->
<g id="node22" class="node">
<title>Node422</title>
<g id="a_node22"><a xlink:href="namespaceutils.html#ae92af4829525774d9a4ab289d4265326" target="_top" xlink:title="Method to check for a pattern in a string. &#160;The method will check, character by character of the firs...">
<polygon fill="#ffffff" stroke="#000000" points="1459,-109.5 1459,-128.5 1563,-128.5 1563,-109.5 1459,-109.5"/>
<text text-anchor="middle" x="1511" y="-116.5" font-family="Helvetica,sans-Serif" font-size="10.00" fill="#000000">utils::lookForPattern</text>
</a>
</g>
</g>
<!-- Node401&#45;&gt;Node422 -->
<g id="edge34" class="edge">
<title>Node401&#45;&gt;Node422</title>
<path fill="none" stroke="#191970" d="M1588.799,-132.6381C1580.3695,-131.1604 1571.555,-129.6152 1563.0139,-128.118"/>
<polygon fill="#191970" stroke="#191970" points="1588.3917,-136.12 1598.8459,-134.3993 1589.6004,-129.2251 1588.3917,-136.12"/>
</g>
<!-- Node403 -->
<g id="node3" class="node">
<title>Node403</title>
<g id="a_node3"><a xlink:href="classstatistics_1_1_similarity.html#adcb5627b9704850e85433fc40c19db17" target="_top" xlink:title="Allows us compute the conservationWindow&#39;s values.">
<polygon fill="#ffffff" stroke="#000000" points="1320,-148 1320,-178 1423,-178 1423,-148 1320,-148"/>
<text text-anchor="start" x="1328" y="-166" font-family="Helvetica,sans-Serif" font-size="10.00" fill="#000000">statistics::Similarity</text>
<text text-anchor="middle" x="1371.5" y="-155" font-family="Helvetica,sans-Serif" font-size="10.00" fill="#000000">::applyWindow</text>
</a>
</g>
</g>
<!-- Node402&#45;&gt;Node403 -->
<g id="edge2" class="edge">
<title>Node402&#45;&gt;Node403</title>
<path fill="none" stroke="#191970" d="M1449.3534,-163C1440.6565,-163 1431.7891,-163 1423.3022,-163"/>
<polygon fill="#191970" stroke="#191970" points="1449.4517,-166.5001 1459.4517,-163 1449.4517,-159.5001 1449.4517,-166.5001"/>
</g>
<!-- Node404 -->
<g id="node4" class="node">
<title>Node404</title>
<g id="a_node4"><a xlink:href="classstatistics_1_1_manager.html#a92505ca5aedc5b45c4300a0e8a7d1e17" target="_top" xlink:title="Method to handle similarity stat calculation It checks if the similarity submodule has been created,...">
<polygon fill="#ffffff" stroke="#000000" points="959,-241 959,-271 1102,-271 1102,-241 959,-241"/>
<text text-anchor="start" x="967" y="-259" font-family="Helvetica,sans-Serif" font-size="10.00" fill="#000000">statistics::Manager</text>
<text text-anchor="middle" x="1030.5" y="-248" font-family="Helvetica,sans-Serif" font-size="10.00" fill="#000000">::calculateConservationStats</text>
</a>
</g>
</g>
<!-- Node402&#45;&gt;Node404 -->
<g id="edge33" class="edge">
<title>Node402&#45;&gt;Node404</title>
<path fill="none" stroke="#191970" d="M1449.5124,-180.1056C1440.6315,-182.4783 1431.5921,-184.8403 1423,-187 1361.5188,-202.4542 1346.305,-207.3014 1284,-219 1222.9113,-230.4703 1152.9748,-240.4435 1102.0552,-247.136"/>
<polygon fill="#191970" stroke="#191970" points="1450.6937,-183.4123 1459.4396,-177.4324 1448.8735,-176.653 1450.6937,-183.4123"/>
</g>
<!-- Node403&#45;&gt;Node404 -->
<g id="edge3" class="edge">
<title>Node403&#45;&gt;Node404</title>
<path fill="none" stroke="#191970" d="M1309.7646,-179.8369C1245.8589,-197.2657 1146.9582,-224.2387 1085.6102,-240.9699"/>
<polygon fill="#191970" stroke="#191970" points="1310.9827,-183.1326 1319.7094,-177.1247 1309.1409,-176.3793 1310.9827,-183.1326"/>
</g>
<!-- Node418 -->
<g id="node18" class="node">
<title>Node418</title>
<g id="a_node18"><a xlink:href="classstatistics_1_1_similarity.html#a1b65c85328f09fa0637365d11fb386b4" target="_top" xlink:title="This methods returns a pointer to conservationWindow&#39;s vector.">
<polygon fill="#ffffff" stroke="#000000" points="1155,-115 1155,-145 1284,-145 1284,-115 1155,-115"/>
<text text-anchor="start" x="1163" y="-133" font-family="Helvetica,sans-Serif" font-size="10.00" fill="#000000">statistics::Similarity</text>
<text text-anchor="middle" x="1219.5" y="-122" font-family="Helvetica,sans-Serif" font-size="10.00" fill="#000000">::getMdkWindowedVector</text>
</a>
</g>
</g>
<!-- Node403&#45;&gt;Node418 -->
<g id="edge24" class="edge">
<title>Node403&#45;&gt;Node418</title>
<path fill="none" stroke="#191970" d="M1309.7979,-149.6041C1301.3158,-147.7626 1292.5872,-145.8676 1284.0555,-144.0153"/>
<polygon fill="#191970" stroke="#191970" points="1309.1004,-153.0342 1319.6154,-151.7356 1310.5856,-146.1935 1309.1004,-153.0342"/>
</g>
<!-- Node405 -->
<g id="node5" class="node">
<title>Node405</title>
<g id="a_node5"><a xlink:href="class_cleaner.html#a4718e31c0183b5a98751d77479faacf0" target="_top" xlink:title="Method to trim an alignment based on the similarity and gaps distribution values. .">
<polygon fill="#ffffff" stroke="#000000" points="794.5,-163.5 794.5,-182.5 874.5,-182.5 874.5,-163.5 794.5,-163.5"/>
<text text-anchor="middle" x="834.5" y="-170.5" font-family="Helvetica,sans-Serif" font-size="10.00" fill="#000000">Cleaner::clean</text>
</a>
</g>
</g>
<!-- Node404&#45;&gt;Node405 -->
<g id="edge4" class="edge">
<title>Node404&#45;&gt;Node405</title>
<path fill="none" stroke="#191970" d="M995.5657,-235.9968C971.0644,-222.5512 937.2341,-205.1362 906,-193 895.7876,-189.0319 884.4744,-185.494 873.9172,-182.538"/>
<polygon fill="#191970" stroke="#191970" points="994.0316,-239.1482 1004.4744,-240.9363 997.426,-233.0262 994.0316,-239.1482"/>
</g>
<!-- Node411 -->
<g id="node11" class="node">
<title>Node411</title>
<g id="a_node11"><a xlink:href="class_cleaner.html#a6727a235afa29f08a50716f28fa5c8fc" target="_top" xlink:title="Method to clean an alignment. It carries out strict and strictplus. The method:">
<polygon fill="#ffffff" stroke="#000000" points="763,-202.5 763,-221.5 906,-221.5 906,-202.5 763,-202.5"/>
<text text-anchor="middle" x="834.5" y="-209.5" font-family="Helvetica,sans-Serif" font-size="10.00" fill="#000000">Cleaner::cleanCombMethods</text>
</a>
</g>
</g>
<!-- Node404&#45;&gt;Node411 -->
<g id="edge11" class="edge">
<title>Node404&#45;&gt;Node411</title>
<path fill="none" stroke="#191970" d="M953.6984,-238.7588C927.5603,-232.8911 899.3091,-226.549 876.8735,-221.5124"/>
<polygon fill="#191970" stroke="#191970" points="953.0723,-242.2053 963.5961,-240.9808 954.6056,-235.3753 953.0723,-242.2053"/>
</g>
<!-- Node413 -->
<g id="node13" class="node">
<title>Node413</title>
<g id="a_node13"><a xlink:href="class_cleaner.html#a9cdbd6ebf78a284dd065b31319795b0c" target="_top" xlink:title="Method to trim an alignment based on the similarity distribution values.">
<polygon fill="#ffffff" stroke="#000000" points="766,-122.5 766,-141.5 903,-141.5 903,-122.5 766,-122.5"/>
<text text-anchor="middle" x="834.5" y="-129.5" font-family="Helvetica,sans-Serif" font-size="10.00" fill="#000000">Cleaner::cleanConservation</text>
</a>
</g>
</g>
<!-- Node404&#45;&gt;Node413 -->
<g id="edge14" class="edge">
<title>Node404&#45;&gt;Node413</title>
<path fill="none" stroke="#191970" d="M1008.481,-233.3792C985.0127,-210.4405 945.8188,-175.364 906,-154 896.5012,-148.9036 885.6458,-144.7993 875.3121,-141.5795"/>
<polygon fill="#191970" stroke="#191970" points="1006.2511,-236.0972 1015.8152,-240.6557 1011.1814,-231.1279 1006.2511,-236.0972"/>
</g>
<!-- Node414 -->
<g id="node14" class="node">
<title>Node414</title>
<g id="a_node14"><a xlink:href="classstatistics_1_1_manager.html#a080c687f8f355900511485eeec32a659" target="_top" xlink:title="Wrapper to Statistics::Similarity::printConservationAcl() It calls to calculateConservationStats() to...">
<polygon fill="#ffffff" stroke="#000000" points="764.5,-338.5 764.5,-379.5 904.5,-379.5 904.5,-338.5 764.5,-338.5"/>
<text text-anchor="start" x="772.5" y="-367.5" font-family="Helvetica,sans-Serif" font-size="10.00" fill="#000000">statistics::Manager</text>
<text text-anchor="start" x="772.5" y="-356.5" font-family="Helvetica,sans-Serif" font-size="10.00" fill="#000000">::printStatisticsConservation</text>
<text text-anchor="middle" x="834.5" y="-345.5" font-family="Helvetica,sans-Serif" font-size="10.00" fill="#000000">Columns</text>
</a>
</g>
</g>
<!-- Node404&#45;&gt;Node414 -->
<g id="edge16" class="edge">
<title>Node404&#45;&gt;Node414</title>
<path fill="none" stroke="#191970" d="M998.0758,-276.6189C973.329,-291.9576 938.1328,-312.9277 906,-329 899.6191,-332.1916 892.8156,-335.3476 886.0381,-338.3459"/>
<polygon fill="#191970" stroke="#191970" points="1000.0631,-279.5044 1006.6952,-271.2421 996.3582,-273.5652 1000.0631,-279.5044"/>
</g>
<!-- Node416 -->
<g id="node16" class="node">
<title>Node416</title>
<g id="a_node16"><a xlink:href="classstatistics_1_1_manager.html#aa20cfb477826035386ea988e3706b09a" target="_top" xlink:title="Wrapper to Statistics::Similarity::printGapsTotal() It calls to calculateConservationStats() to make ...">
<polygon fill="#ffffff" stroke="#000000" points="764.5,-278.5 764.5,-319.5 904.5,-319.5 904.5,-278.5 764.5,-278.5"/>
<text text-anchor="start" x="772.5" y="-307.5" font-family="Helvetica,sans-Serif" font-size="10.00" fill="#000000">statistics::Manager</text>
<text text-anchor="start" x="772.5" y="-296.5" font-family="Helvetica,sans-Serif" font-size="10.00" fill="#000000">::printStatisticsConservation</text>
<text text-anchor="middle" x="834.5" y="-285.5" font-family="Helvetica,sans-Serif" font-size="10.00" fill="#000000">Total</text>
</a>
</g>
</g>
<!-- Node404&#45;&gt;Node416 -->
<g id="edge19" class="edge">
<title>Node404&#45;&gt;Node416</title>
<path fill="none" stroke="#191970" d="M951.8186,-273.2617C936.2277,-276.6822 919.9576,-280.2516 904.6723,-283.6051"/>
<polygon fill="#191970" stroke="#191970" points="952.9311,-276.601 961.9487,-271.0393 951.431,-269.7636 952.9311,-276.601"/>
</g>
<!-- Node417 -->
<g id="node17" class="node">
<title>Node417</title>
<g id="a_node17"><a xlink:href="classtrim_al_manager.html#a63d5bec0938516a2129ccb04276b93d9" target="_top" xlink:title=" ">
<polygon fill="#ffffff" stroke="#000000" points="413,-235 413,-265 514,-265 514,-235 413,-235"/>
<text text-anchor="start" x="421" y="-253" font-family="Helvetica,sans-Serif" font-size="10.00" fill="#000000">trimAlManager::svg</text>
<text text-anchor="middle" x="463.5" y="-242" font-family="Helvetica,sans-Serif" font-size="10.00" fill="#000000">_stats_out</text>
</a>
</g>
</g>
<!-- Node404&#45;&gt;Node417 -->
<g id="edge21" class="edge">
<title>Node404&#45;&gt;Node417</title>
<path fill="none" stroke="#191970" d="M948.8377,-255.1358C829.9554,-253.8778 612.7117,-251.579 514.323,-250.5378"/>
<polygon fill="#191970" stroke="#191970" points="948.9398,-258.637 958.9763,-255.2431 949.014,-251.6374 948.9398,-258.637"/>
</g>
<!-- Node406 -->
<g id="node6" class="node">
<title>Node406</title>
<g id="a_node6"><a xlink:href="classtrim_al_manager.html#aebfd21b0435302f0e4fc45a068d1b6ee" target="_top" xlink:title="Method to trim the alignment using non automatic methods:">
<polygon fill="#ffffff" stroke="#000000" points="564.5,-153 564.5,-183 716.5,-183 716.5,-153 564.5,-153"/>
<text text-anchor="start" x="572.5" y="-171" font-family="Helvetica,sans-Serif" font-size="10.00" fill="#000000">trimAlManager::CleanResidues</text>
<text text-anchor="middle" x="640.5" y="-160" font-family="Helvetica,sans-Serif" font-size="10.00" fill="#000000">NonAuto</text>
</a>
</g>
</g>
<!-- Node405&#45;&gt;Node406 -->
<g id="edge5" class="edge">
<title>Node405&#45;&gt;Node406</title>
<path fill="none" stroke="#191970" d="M784.2162,-171.704C763.6425,-171.1738 739.3854,-170.5486 716.7171,-169.9644"/>
<polygon fill="#191970" stroke="#191970" points="784.2162,-175.2051 794.3031,-171.964 784.3966,-168.2074 784.2162,-175.2051"/>
</g>
<!-- Node407 -->
<g id="node7" class="node">
<title>Node407</title>
<g id="a_node7"><a xlink:href="classtrim_al_manager.html#adc529dd893ed4e9df6f3ddbd58776068" target="_top" xlink:title="Core Method of the program. This is where almost all cleaning methods are called from.">
<polygon fill="#ffffff" stroke="#000000" points="409,-182 409,-212 518,-212 518,-182 409,-182"/>
<text text-anchor="start" x="417" y="-200" font-family="Helvetica,sans-Serif" font-size="10.00" fill="#000000">trimAlManager::clean</text>
<text text-anchor="middle" x="463.5" y="-189" font-family="Helvetica,sans-Serif" font-size="10.00" fill="#000000">_alignment</text>
</a>
</g>
</g>
<!-- Node406&#45;&gt;Node407 -->
<g id="edge6" class="edge">
<title>Node406&#45;&gt;Node407</title>
<path fill="none" stroke="#191970" d="M554.5151,-182.0879C542.1378,-184.1158 529.6949,-186.1545 518.1558,-188.0451"/>
<polygon fill="#191970" stroke="#191970" points="555.1064,-185.5378 564.4089,-180.4669 553.9745,-178.6299 555.1064,-185.5378"/>
</g>
<!-- Node408 -->
<g id="node8" class="node">
<title>Node408</title>
<g id="a_node8"><a xlink:href="classtrim_al_manager.html#abe8d2841455c644dc9c7d1294b82b00f" target="_top" xlink:title="Method to perform the analysis if all checks have passed.">
<polygon fill="#ffffff" stroke="#000000" points="74,-236.5 74,-255.5 193,-255.5 193,-236.5 74,-236.5"/>
<text text-anchor="middle" x="133.5" y="-243.5" font-family="Helvetica,sans-Serif" font-size="10.00" fill="#000000">trimAlManager::perform</text>
</a>
</g>
</g>
<!-- Node407&#45;&gt;Node408 -->
<g id="edge7" class="edge">
<title>Node407&#45;&gt;Node408</title>
<path fill="none" stroke="#191970" d="M398.6704,-194.3253C351.1695,-193.7415 285.4134,-195.8114 229,-208 201.2676,-213.9918 171.1442,-227.1994 152.2979,-236.3481"/>
<polygon fill="#191970" stroke="#191970" points="398.7641,-197.8272 408.8208,-194.4937 398.8803,-190.8282 398.7641,-197.8272"/>
</g>
<!-- Node410 -->
<g id="node10" class="node">
<title>Node410</title>
<g id="a_node10"><a xlink:href="classtrim_al_manager.html#ac5795f93b3a2b51bf5d8dddd63b89f73" target="_top" xlink:title=" ">
<polygon fill="#ffffff" stroke="#000000" points="229,-217.5 229,-236.5 373,-236.5 373,-217.5 229,-217.5"/>
<text text-anchor="middle" x="301" y="-224.5" font-family="Helvetica,sans-Serif" font-size="10.00" fill="#000000">trimAlManager::perform_VCF</text>
</a>
</g>
</g>
<!-- Node407&#45;&gt;Node410 -->
<g id="edge9" class="edge">
<title>Node407&#45;&gt;Node410</title>
<path fill="none" stroke="#191970" d="M398.9769,-208.912C383.5986,-211.751 367.3847,-214.7444 352.6698,-217.461"/>
<polygon fill="#191970" stroke="#191970" points="399.7394,-212.3304 408.9378,-207.073 398.4685,-205.4467 399.7394,-212.3304"/>
</g>
<!-- Node409 -->
<g id="node9" class="node">
<title>Node409</title>
<g id="a_node9"><a xlink:href="trim_al_main_8cpp.html#a0ddf1224851353fc92bfbff6f499fa97" target="_top" xlink:title=" ">
<polygon fill="#ffffff" stroke="#000000" points="0,-236.5 0,-255.5 38,-255.5 38,-236.5 0,-236.5"/>
<text text-anchor="middle" x="19" y="-243.5" font-family="Helvetica,sans-Serif" font-size="10.00" fill="#000000">main</text>
</a>
</g>
</g>
<!-- Node408&#45;&gt;Node409 -->
<g id="edge8" class="edge">
<title>Node408&#45;&gt;Node409</title>
<path fill="none" stroke="#191970" d="M63.6802,-246C54.3823,-246 45.5497,-246 38.2303,-246"/>
<polygon fill="#191970" stroke="#191970" points="63.9025,-249.5001 73.9024,-246 63.9024,-242.5001 63.9025,-249.5001"/>
</g>
<!-- Node410&#45;&gt;Node408 -->
<g id="edge10" class="edge">
<title>Node410&#45;&gt;Node408</title>
<path fill="none" stroke="#191970" d="M218.8378,-236.3199C210.1593,-237.3043 201.4581,-238.2913 193.107,-239.2386"/>
<polygon fill="#191970" stroke="#191970" points="219.4511,-239.7729 228.9928,-235.168 218.662,-232.8175 219.4511,-239.7729"/>
</g>
<!-- Node412 -->
<g id="node12" class="node">
<title>Node412</title>
<g id="a_node12"><a xlink:href="classtrim_al_manager.html#a69082911b30a1bd12395bb235bc18a34" target="_top" xlink:title="Method to trim the alignment using automatic or semi&#45;automatic methods:">
<polygon fill="#ffffff" stroke="#000000" points="554,-202.5 554,-221.5 727,-221.5 727,-202.5 554,-202.5"/>
<text text-anchor="middle" x="640.5" y="-209.5" font-family="Helvetica,sans-Serif" font-size="10.00" fill="#000000">trimAlManager::CleanResiduesAuto</text>
</a>
</g>
</g>
<!-- Node411&#45;&gt;Node412 -->
<g id="edge12" class="edge">
<title>Node411&#45;&gt;Node412</title>
<path fill="none" stroke="#191970" d="M752.5903,-212C744.1312,-212 735.5152,-212 727.0081,-212"/>
<polygon fill="#191970" stroke="#191970" points="752.8128,-215.5001 762.8127,-212 752.8127,-208.5001 752.8128,-215.5001"/>
</g>
<!-- Node412&#45;&gt;Node407 -->
<g id="edge13" class="edge">
<title>Node412&#45;&gt;Node407</title>
<path fill="none" stroke="#191970" d="M543.6253,-203.7903C534.9704,-203.0568 526.4233,-202.3325 518.3191,-201.6457"/>
<polygon fill="#191970" stroke="#191970" points="543.555,-207.2968 553.8148,-204.6538 544.1461,-200.3218 543.555,-207.2968"/>
</g>
<!-- Node413&#45;&gt;Node406 -->
<g id="edge15" class="edge">
<title>Node413&#45;&gt;Node406</title>
<path fill="none" stroke="#191970" d="M773.2089,-143.3736C755.2137,-146.7129 735.3128,-150.4059 716.5161,-153.8939"/>
<polygon fill="#191970" stroke="#191970" points="774.0815,-146.7715 783.275,-141.5057 772.8043,-139.889 774.0815,-146.7715"/>
</g>
<!-- Node415 -->
<g id="node15" class="node">
<title>Node415</title>
<g id="a_node15"><a xlink:href="classtrim_al_manager.html#afc48b86f5ae35b9a5e721b65c58bf610" target="_top" xlink:title="Method to print statistics requested.">
<polygon fill="#ffffff" stroke="#000000" points="588.5,-288 588.5,-318 692.5,-318 692.5,-288 588.5,-288"/>
<text text-anchor="start" x="596.5" y="-306" font-family="Helvetica,sans-Serif" font-size="10.00" fill="#000000">trimAlManager::print</text>
<text text-anchor="middle" x="640.5" y="-295" font-family="Helvetica,sans-Serif" font-size="10.00" fill="#000000">_statistics</text>
</a>
</g>
</g>
<!-- Node414&#45;&gt;Node415 -->
<g id="edge17" class="edge">
<title>Node414&#45;&gt;Node415</title>
<path fill="none" stroke="#191970" d="M754.5973,-335.9353C733.6269,-329.882 711.5556,-323.5109 692.4725,-318.0024"/>
<polygon fill="#191970" stroke="#191970" points="753.8831,-339.372 764.4615,-338.7827 755.8245,-332.6466 753.8831,-339.372"/>
</g>
<!-- Node415&#45;&gt;Node408 -->
<g id="edge18" class="edge">
<title>Node415&#45;&gt;Node408</title>
<path fill="none" stroke="#191970" d="M578.4109,-298.1122C497.7191,-291.4625 352.5237,-278.4825 229,-262 215.1695,-260.1545 200.2685,-257.8238 186.4449,-255.5165"/>
<polygon fill="#191970" stroke="#191970" points="578.1513,-301.6025 588.4037,-298.9304 578.7227,-294.6259 578.1513,-301.6025"/>
</g>
<!-- Node416&#45;&gt;Node415 -->
<g id="edge20" class="edge">
<title>Node416&#45;&gt;Node415</title>
<path fill="none" stroke="#191970" d="M754.3594,-300.6524C733.571,-301.081 711.7168,-301.5316 692.7756,-301.9222"/>
<polygon fill="#191970" stroke="#191970" points="754.5359,-304.1496 764.4615,-300.4441 754.3915,-297.1511 754.5359,-304.1496"/>
</g>
<!-- Node417&#45;&gt;Node408 -->
<g id="edge22" class="edge">
<title>Node417&#45;&gt;Node408</title>
<path fill="none" stroke="#191970" d="M402.6133,-249.262C342.8707,-248.5378 252.3392,-247.4405 193.0582,-246.7219"/>
<polygon fill="#191970" stroke="#191970" points="402.619,-252.7622 412.6607,-249.3838 402.7039,-245.7627 402.619,-252.7622"/>
</g>
<!-- Node417&#45;&gt;Node410 -->
<g id="edge23" class="edge">
<title>Node417&#45;&gt;Node410</title>
<path fill="none" stroke="#191970" d="M402.8039,-241.4092C391.5263,-239.813 379.6832,-238.1367 368.2239,-236.5148"/>
<polygon fill="#191970" stroke="#191970" points="402.5829,-244.9127 412.9747,-242.8487 403.564,-237.9818 402.5829,-244.9127"/>
</g>
<!-- Node418&#45;&gt;Node405 -->
<g id="edge30" class="edge">
<title>Node418&#45;&gt;Node405</title>
<path fill="none" stroke="#191970" d="M1153.9633,-147.3207C1142.3804,-149.9027 1130.3854,-152.2729 1119,-154 1032.6166,-167.1042 930.112,-171.1705 874.7778,-172.4323"/>
<polygon fill="#191970" stroke="#191970" points="1155.0505,-150.6621 1164.0105,-145.008 1153.4802,-143.8405 1155.0505,-150.6621"/>
</g>
<!-- Node418&#45;&gt;Node411 -->
<g id="edge31" class="edge">
<title>Node418&#45;&gt;Node411</title>
<path fill="none" stroke="#191970" d="M1184.0405,-149.9397C1165.263,-159.6231 1141.4876,-170.5354 1119,-177 1048.3346,-197.3145 964.471,-205.8385 906.1825,-209.415"/>
<polygon fill="#191970" stroke="#191970" points="1185.8855,-152.9237 1193.0996,-145.1643 1182.6213,-146.7313 1185.8855,-152.9237"/>
</g>
<!-- Node418&#45;&gt;Node413 -->
<g id="edge32" class="edge">
<title>Node418&#45;&gt;Node413</title>
<path fill="none" stroke="#191970" d="M1159.4207,-112.5262C1146.2164,-109.3976 1132.2257,-106.6203 1119,-105 1040.9171,-95.434 1020.072,-95.3455 942,-105 915.2637,-108.3062 885.6199,-116.0712 864.2448,-122.4294"/>
<polygon fill="#191970" stroke="#191970" points="1158.7918,-115.9759 1169.3391,-114.9738 1160.4689,-109.1798 1158.7918,-115.9759"/>
</g>
<!-- Node419 -->
<g id="node19" class="node">
<title>Node419</title>
<g id="a_node19"><a xlink:href="class_alignment.html#a4e80b4d399ffdbe2ed2cfab91975f348" target="_top" xlink:title="Method to report the trimming results in HTML. Outputs an HTML file that shows visually what has been...">
<polygon fill="#ffffff" stroke="#000000" points="942,-.5 942,-19.5 1119,-19.5 1119,-.5 942,-.5"/>
<text text-anchor="middle" x="1030.5" y="-7.5" font-family="Helvetica,sans-Serif" font-size="10.00" fill="#000000">Alignment::alignmentSummaryHTML</text>
</a>
</g>
</g>
<!-- Node418&#45;&gt;Node419 -->
<g id="edge25" class="edge">
<title>Node418&#45;&gt;Node419</title>
<path fill="none" stroke="#191970" d="M1196.4187,-107.8769C1184.0255,-95.8929 1168.5529,-80.7612 1155,-67 1138.6755,-50.4245 1139.2817,-40.3967 1119,-29 1112.15,-25.1509 1104.5998,-22.0805 1096.8842,-19.6316"/>
<polygon fill="#191970" stroke="#191970" points="1194.0647,-110.4692 1203.6925,-114.8914 1198.9239,-105.4304 1194.0647,-110.4692"/>
</g>
<!-- Node420 -->
<g id="node20" class="node">
<title>Node420</title>
<g id="a_node20"><a xlink:href="class_alignment.html#a2fcaadf2c0799bc668050f7735860364" target="_top" xlink:title="Method to report the trimming results in SVG. Outputs a SVG file that shows visually what has been do...">
<polygon fill="#ffffff" stroke="#000000" points="945,-38.5 945,-57.5 1116,-57.5 1116,-38.5 945,-38.5"/>
<text text-anchor="middle" x="1030.5" y="-45.5" font-family="Helvetica,sans-Serif" font-size="10.00" fill="#000000">Alignment::alignmentSummarySVG</text>
</a>
</g>
</g>
<!-- Node418&#45;&gt;Node420 -->
<g id="edge26" class="edge">
<title>Node418&#45;&gt;Node420</title>
<path fill="none" stroke="#191970" d="M1188.5416,-109.3285C1169.1983,-97.1337 1143.4075,-82.1506 1119,-72 1104.8889,-66.1315 1088.9158,-61.2894 1074.4616,-57.5291"/>
<polygon fill="#191970" stroke="#191970" points="1186.9067,-112.4376 1197.2156,-114.8823 1190.6813,-106.5425 1186.9067,-112.4376"/>
</g>
<!-- Node421 -->
<g id="node21" class="node">
<title>Node421</title>
<g id="a_node21"><a xlink:href="classstatistics_1_1_similarity.html#a26f430acb8a3240977665de9a9ea875a" target="_top" xlink:title="Computes and selects the cut point values based on similarity&#39;s values.">
<polygon fill="#ffffff" stroke="#000000" points="979,-115 979,-145 1082,-145 1082,-115 979,-115"/>
<text text-anchor="start" x="987" y="-133" font-family="Helvetica,sans-Serif" font-size="10.00" fill="#000000">statistics::Similarity</text>
<text text-anchor="middle" x="1030.5" y="-122" font-family="Helvetica,sans-Serif" font-size="10.00" fill="#000000">::calcCutPoint</text>
</a>
</g>
</g>
<!-- Node418&#45;&gt;Node421 -->
<g id="edge27" class="edge">
<title>Node418&#45;&gt;Node421</title>
<path fill="none" stroke="#191970" d="M1144.8223,-130C1123.8573,-130 1101.5293,-130 1082.2212,-130"/>
<polygon fill="#191970" stroke="#191970" points="1144.9856,-133.5001 1154.9855,-130 1144.9855,-126.5001 1144.9856,-133.5001"/>
</g>
<!-- Node421&#45;&gt;Node405 -->
<g id="edge28" class="edge">
<title>Node421&#45;&gt;Node405</title>
<path fill="none" stroke="#191970" d="M968.9767,-143.4975C938.2217,-150.2447 901.8759,-158.2186 874.7286,-164.1743"/>
<polygon fill="#191970" stroke="#191970" points="969.7293,-146.9157 978.7469,-141.354 968.2292,-140.0783 969.7293,-146.9157"/>
</g>
<!-- Node421&#45;&gt;Node413 -->
<g id="edge29" class="edge">
<title>Node421&#45;&gt;Node413</title>
<path fill="none" stroke="#191970" d="M968.7414,-130.6302C947.9025,-130.8428 924.5187,-131.0814 903.1782,-131.2992"/>
<polygon fill="#191970" stroke="#191970" points="968.7832,-134.13 978.7469,-130.5281 968.7117,-127.1304 968.7832,-134.13"/>
</g>
<!-- Node423 -->
<g id="node23" class="node">
<title>Node423</title>
<g id="a_node23"><a xlink:href="namespaceutils.html#abdd283983860dbf73351209d1e8ab87f" target="_top" xlink:title="Checks the color that has to be used on the output report.">
<polygon fill="#ffffff" stroke="#000000" points="1166,-38.5 1166,-57.5 1273,-57.5 1273,-38.5 1166,-38.5"/>
<text text-anchor="middle" x="1219.5" y="-45.5" font-family="Helvetica,sans-Serif" font-size="10.00" fill="#000000">utils::determineColor</text>
</a>
</g>
</g>
<!-- Node422&#45;&gt;Node423 -->
<g id="edge35" class="edge">
<title>Node422&#45;&gt;Node423</title>
<path fill="none" stroke="#191970" d="M1462.0994,-107.0894C1404.9183,-93.1619 1311.4068,-70.3855 1258.745,-57.5588"/>
<polygon fill="#191970" stroke="#191970" points="1461.4452,-110.5323 1471.9895,-109.4983 1463.1018,-103.7311 1461.4452,-110.5323"/>
</g>
<!-- Node423&#45;&gt;Node419 -->
<g id="edge36" class="edge">
<title>Node423&#45;&gt;Node419</title>
<path fill="none" stroke="#191970" d="M1161.758,-36.3905C1134.8778,-30.986 1103.2972,-24.6365 1077.8497,-19.5201"/>
<polygon fill="#191970" stroke="#191970" points="1161.3136,-39.8711 1171.8073,-38.411 1162.6934,-33.0084 1161.3136,-39.8711"/>
</g>
<!-- Node423&#45;&gt;Node420 -->
<g id="edge37" class="edge">
<title>Node423&#45;&gt;Node420</title>
<path fill="none" stroke="#191970" d="M1155.8174,-48C1143.0624,-48 1129.4662,-48 1116.1091,-48"/>
<polygon fill="#191970" stroke="#191970" points="1155.8458,-51.5001 1165.8457,-48 1155.8457,-44.5001 1155.8458,-51.5001"/>
</g>
</g>
</svg>
