<?xml version="1.0" encoding="UTF-8" standalone="no"?>
<!DOCTYPE svg PUBLIC "-//W3C//DTD SVG 1.1//EN"
 "http://www.w3.org/Graphics/SVG/1.1/DTD/svg11.dtd">
<!-- Generated by graphviz version 2.40.1 (20161225.0304)
 -->
<!-- Title: utils::ReplaceStringInPlace Pages: 1 -->
<svg width="781pt" height="204pt"
 viewBox="0.00 0.00 781.00 203.50" xmlns="http://www.w3.org/2000/svg" xmlns:xlink="http://www.w3.org/1999/xlink">
<g id="graph0" class="graph" transform="scale(1 1) rotate(0) translate(4 199.5)">
<title>utils::ReplaceStringInPlace</title>
<polygon fill="#ffffff" stroke="transparent" points="-4,4 -4,-199.5 777,-199.5 777,4 -4,4"/>
<!-- Node305 -->
<g id="node1" class="node">
<title>Node305</title>
<g id="a_node1"><a xlink:title="Function that replaces a substring with another substring in a string. It does not make a copy of the...">
<polygon fill="#bfbfbf" stroke="#000000" points="638,-88.5 638,-107.5 773,-107.5 773,-88.5 638,-88.5"/>
<text text-anchor="middle" x="705.5" y="-95.5" font-family="Helvetica,sans-Serif" font-size="10.00" fill="#000000">utils::ReplaceStringInPlace</text>
</a>
</g>
</g>
<!-- Node306 -->
<g id="node2" class="node">
<title>Node306</title>
<g id="a_node2"><a xlink:href="class_format_manager.html#a3dfaafe1cfe8904405e0453f4062485e" target="_top" xlink:title="Function that takes multiple files, loads them and saves in a cumulus of formats, using an outPattern...">
<polygon fill="#ffffff" stroke="#000000" points="450,-83 450,-113 599,-113 599,-83 450,-83"/>
<text text-anchor="start" x="458" y="-101" font-family="Helvetica,sans-Serif" font-size="10.00" fill="#000000">FormatManager::loadAndSave</text>
<text text-anchor="middle" x="524.5" y="-90" font-family="Helvetica,sans-Serif" font-size="10.00" fill="#000000">MultipleAlignments</text>
</a>
</g>
</g>
<!-- Node305&#45;&gt;Node306 -->
<g id="edge1" class="edge">
<title>Node305&#45;&gt;Node306</title>
<path fill="none" stroke="#191970" d="M627.6483,-98C618.1645,-98 608.4916,-98 599.0574,-98"/>
<polygon fill="#191970" stroke="#191970" points="627.8449,-101.5001 637.8449,-98 627.8449,-94.5001 627.8449,-101.5001"/>
</g>
<!-- Node308 -->
<g id="node4" class="node">
<title>Node308</title>
<g id="a_node4"><a xlink:href="classtrim_al_manager.html#a09d07645fa0057989875f2b2d25ec4d7" target="_top" xlink:title="Method to show the menu of the program.">
<polygon fill="#ffffff" stroke="#000000" points="469.5,-132.5 469.5,-151.5 579.5,-151.5 579.5,-132.5 469.5,-132.5"/>
<text text-anchor="middle" x="524.5" y="-139.5" font-family="Helvetica,sans-Serif" font-size="10.00" fill="#000000">trimAlManager::menu</text>
</a>
</g>
</g>
<!-- Node305&#45;&gt;Node308 -->
<g id="edge3" class="edge">
<title>Node305&#45;&gt;Node308</title>
<path fill="none" stroke="#191970" d="M656.2639,-109.969C627.1707,-117.0414 590.8381,-125.8736 563.6977,-132.4713"/>
<polygon fill="#191970" stroke="#191970" points="657.3355,-113.3105 666.2257,-107.5473 655.6819,-106.5086 657.3355,-113.3105"/>
</g>
<!-- Node312 -->
<g id="node8" class="node">
<title>Node312</title>
<g id="a_node8"><a xlink:href="class_format_manager.html#ac2c4667aceae0c08c24e51b2216ccc44" target="_top" xlink:title="Function to save an alignment to a file. It searches among the available_states one that can write th...">
<polygon fill="#ffffff" stroke="#000000" points="447,-44.5 447,-63.5 602,-63.5 602,-44.5 447,-44.5"/>
<text text-anchor="middle" x="524.5" y="-51.5" font-family="Helvetica,sans-Serif" font-size="10.00" fill="#000000">FormatManager::saveAlignment</text>
</a>
</g>
</g>
<!-- Node305&#45;&gt;Node312 -->
<g id="edge8" class="edge">
<title>Node305&#45;&gt;Node312</title>
<path fill="none" stroke="#191970" d="M656.2639,-86.031C627.1707,-78.9586 590.8381,-70.1264 563.6977,-63.5287"/>
<polygon fill="#191970" stroke="#191970" points="655.6819,-89.4914 666.2257,-88.4527 657.3355,-82.6895 655.6819,-89.4914"/>
</g>
<!-- Node307 -->
<g id="node3" class="node">
<title>Node307</title>
<g id="a_node3"><a xlink:href="read_al_main_8cpp.html#a0ddf1224851353fc92bfbff6f499fa97" target="_top" xlink:title=" ">
<polygon fill="#ffffff" stroke="#000000" points="320,-88.5 320,-107.5 358,-107.5 358,-88.5 320,-88.5"/>
<text text-anchor="middle" x="339" y="-95.5" font-family="Helvetica,sans-Serif" font-size="10.00" fill="#000000">main</text>
</a>
</g>
</g>
<!-- Node306&#45;&gt;Node307 -->
<g id="edge2" class="edge">
<title>Node306&#45;&gt;Node307</title>
<path fill="none" stroke="#191970" d="M439.5862,-98C409.1307,-98 377.5403,-98 358.0759,-98"/>
<polygon fill="#191970" stroke="#191970" points="439.8519,-101.5001 449.8519,-98 439.8519,-94.5001 439.8519,-101.5001"/>
</g>
<!-- Node309 -->
<g id="node5" class="node">
<title>Node309</title>
<g id="a_node5"><a xlink:href="classtrim_al_manager.html#ac00c17dd71558993a44020e3ec7c2b16" target="_top" xlink:title="Method to parse information arguments as help and menu.">
<polygon fill="#ffffff" stroke="#000000" points="287,-165 287,-195 391,-195 391,-165 287,-165"/>
<text text-anchor="start" x="295" y="-183" font-family="Helvetica,sans-Serif" font-size="10.00" fill="#000000">trimAlManager::help</text>
<text text-anchor="middle" x="339" y="-172" font-family="Helvetica,sans-Serif" font-size="10.00" fill="#000000">_arguments</text>
</a>
</g>
</g>
<!-- Node308&#45;&gt;Node309 -->
<g id="edge4" class="edge">
<title>Node308&#45;&gt;Node309</title>
<path fill="none" stroke="#191970" d="M467.8286,-153.6092C443.3691,-158.6198 414.944,-164.4427 391.0268,-169.3422"/>
<polygon fill="#191970" stroke="#191970" points="468.5964,-157.0247 477.6905,-151.589 467.1915,-150.1671 468.5964,-157.0247"/>
</g>
<!-- Node310 -->
<g id="node6" class="node">
<title>Node310</title>
<g id="a_node6"><a xlink:href="classtrim_al_manager.html#af140d97b6071a83930818030ac74b641" target="_top" xlink:title="Method to parse arguments into usable structure in trimal.">
<polygon fill="#ffffff" stroke="#000000" points="74,-126.5 74,-145.5 231,-145.5 231,-126.5 74,-126.5"/>
<text text-anchor="middle" x="152.5" y="-133.5" font-family="Helvetica,sans-Serif" font-size="10.00" fill="#000000">trimAlManager::parseArguments</text>
</a>
</g>
</g>
<!-- Node308&#45;&gt;Node310 -->
<g id="edge7" class="edge">
<title>Node308&#45;&gt;Node310</title>
<path fill="none" stroke="#191970" d="M458.908,-140.9421C395.3295,-139.9166 298.834,-138.3602 231.1603,-137.2687"/>
<polygon fill="#191970" stroke="#191970" points="459.1543,-144.4464 469.2095,-141.1082 459.2673,-137.4473 459.1543,-144.4464"/>
</g>
<!-- Node309&#45;&gt;Node310 -->
<g id="edge5" class="edge">
<title>Node309&#45;&gt;Node310</title>
<path fill="none" stroke="#191970" d="M276.6065,-165.2798C249.0547,-158.7797 217.4526,-151.3239 193.0333,-145.5628"/>
<polygon fill="#191970" stroke="#191970" points="276.0165,-168.7367 286.553,-167.6265 277.6239,-161.9237 276.0165,-168.7367"/>
</g>
<!-- Node311 -->
<g id="node7" class="node">
<title>Node311</title>
<g id="a_node7"><a xlink:href="trim_al_main_8cpp.html#a0ddf1224851353fc92bfbff6f499fa97" target="_top" xlink:title=" ">
<polygon fill="#ffffff" stroke="#000000" points="0,-85.5 0,-104.5 38,-104.5 38,-85.5 0,-85.5"/>
<text text-anchor="middle" x="19" y="-92.5" font-family="Helvetica,sans-Serif" font-size="10.00" fill="#000000">main</text>
</a>
</g>
</g>
<!-- Node310&#45;&gt;Node311 -->
<g id="edge6" class="edge">
<title>Node310&#45;&gt;Node311</title>
<path fill="none" stroke="#191970" d="M111.7907,-123.4975C87.3463,-115.9903 57.3766,-106.7861 38.2339,-100.907"/>
<polygon fill="#191970" stroke="#191970" points="110.95,-126.9006 121.5369,-126.4907 113.0051,-120.2091 110.95,-126.9006"/>
</g>
<!-- Node312&#45;&gt;Node307 -->
<g id="edge9" class="edge">
<title>Node312&#45;&gt;Node307</title>
<path fill="none" stroke="#191970" d="M474.3045,-65.9062C436.0092,-74.9897 385.3563,-87.0044 358.1829,-93.4499"/>
<polygon fill="#191970" stroke="#191970" points="475.327,-69.2609 484.2493,-63.5473 473.7114,-62.4498 475.327,-69.2609"/>
</g>
<!-- Node313 -->
<g id="node9" class="node">
<title>Node313</title>
<g id="a_node9"><a xlink:href="classtrim_al_manager.html#ac5795f93b3a2b51bf5d8dddd63b89f73" target="_top" xlink:title=" ">
<polygon fill="#ffffff" stroke="#000000" points="267,-.5 267,-19.5 411,-19.5 411,-.5 267,-.5"/>
<text text-anchor="middle" x="339" y="-7.5" font-family="Helvetica,sans-Serif" font-size="10.00" fill="#000000">trimAlManager::perform_VCF</text>
</a>
</g>
</g>
<!-- Node312&#45;&gt;Node313 -->
<g id="edge10" class="edge">
<title>Node312&#45;&gt;Node313</title>
<path fill="none" stroke="#191970" d="M474.43,-42.1236C444.5486,-35.0358 407.1089,-26.1552 379.1722,-19.5287"/>
<polygon fill="#191970" stroke="#191970" points="473.7114,-45.5502 484.2493,-44.4527 475.327,-38.7391 473.7114,-45.5502"/>
</g>
<!-- Node315 -->
<g id="node11" class="node">
<title>Node315</title>
<g id="a_node11"><a xlink:href="classtrim_al_manager.html#a7ba38127fa10c926b96c60250b80d2b7" target="_top" xlink:title=" ">
<polygon fill="#ffffff" stroke="#000000" points="285.5,-39 285.5,-69 392.5,-69 392.5,-39 285.5,-39"/>
<text text-anchor="start" x="293.5" y="-57" font-family="Helvetica,sans-Serif" font-size="10.00" fill="#000000">trimAlManager::save</text>
<text text-anchor="middle" x="339" y="-46" font-family="Helvetica,sans-Serif" font-size="10.00" fill="#000000">_alignment</text>
</a>
</g>
</g>
<!-- Node312&#45;&gt;Node315 -->
<g id="edge13" class="edge">
<title>Node312&#45;&gt;Node315</title>
<path fill="none" stroke="#191970" d="M436.5649,-54C421.5607,-54 406.388,-54 392.6232,-54"/>
<polygon fill="#191970" stroke="#191970" points="436.9062,-57.5001 446.9061,-54 436.9061,-50.5001 436.9062,-57.5001"/>
</g>
<!-- Node314 -->
<g id="node10" class="node">
<title>Node314</title>
<g id="a_node10"><a xlink:href="classtrim_al_manager.html#abe8d2841455c644dc9c7d1294b82b00f" target="_top" xlink:title="Method to perform the analysis if all checks have passed.">
<polygon fill="#ffffff" stroke="#000000" points="93,-44.5 93,-63.5 212,-63.5 212,-44.5 93,-44.5"/>
<text text-anchor="middle" x="152.5" y="-51.5" font-family="Helvetica,sans-Serif" font-size="10.00" fill="#000000">trimAlManager::perform</text>
</a>
</g>
</g>
<!-- Node313&#45;&gt;Node314 -->
<g id="edge11" class="edge">
<title>Node313&#45;&gt;Node314</title>
<path fill="none" stroke="#191970" d="M288.6601,-21.8764C258.6176,-28.9642 220.976,-37.8448 192.8887,-44.4713"/>
<polygon fill="#191970" stroke="#191970" points="289.6032,-25.2501 298.5323,-19.5473 287.9958,-18.4371 289.6032,-25.2501"/>
</g>
<!-- Node314&#45;&gt;Node311 -->
<g id="edge12" class="edge">
<title>Node314&#45;&gt;Node311</title>
<path fill="none" stroke="#191970" d="M111.7907,-66.5025C87.3463,-74.0097 57.3766,-83.2139 38.2339,-89.093"/>
<polygon fill="#191970" stroke="#191970" points="113.0051,-69.7909 121.5369,-63.5093 110.95,-63.0994 113.0051,-69.7909"/>
</g>
<!-- Node315&#45;&gt;Node314 -->
<g id="edge14" class="edge">
<title>Node315&#45;&gt;Node314</title>
<path fill="none" stroke="#191970" d="M275.1449,-54C254.6982,-54 232.1512,-54 212.026,-54"/>
<polygon fill="#191970" stroke="#191970" points="275.3067,-57.5001 285.3067,-54 275.3066,-50.5001 275.3067,-57.5001"/>
</g>
</g>
</svg>
