<?xml version="1.0" encoding="UTF-8" standalone="no"?>
<!DOCTYPE svg PUBLIC "-//W3C//DTD SVG 1.1//EN"
 "http://www.w3.org/Graphics/SVG/1.1/DTD/svg11.dtd">
<!-- Generated by graphviz version 2.40.1 (20161225.0304)
 -->
<!-- Title: utils::readNumbers Pages: 1 -->
<svg width="522pt" height="88pt"
 viewBox="0.00 0.00 522.00 88.00" xmlns="http://www.w3.org/2000/svg" xmlns:xlink="http://www.w3.org/1999/xlink">
<g id="graph0" class="graph" transform="scale(1 1) rotate(0) translate(4 84)">
<title>utils::readNumbers</title>
<polygon fill="#ffffff" stroke="transparent" points="-4,4 -4,-84 518,-84 518,4 -4,4"/>
<!-- Node268 -->
<g id="node1" class="node">
<title>Node268</title>
<g id="a_node1"><a xlink:title="Reads a line and converts it to an array of number.">
<polygon fill="#bfbfbf" stroke="#000000" points="415,-30 415,-49 514,-49 514,-30 415,-30"/>
<text text-anchor="middle" x="464.5" y="-37" font-family="Helvetica,sans-Serif" font-size="10.00" fill="#000000">utils::readNumbers</text>
</a>
</g>
</g>
<!-- Node269 -->
<g id="node2" class="node">
<title>Node269</title>
<g id="a_node2"><a xlink:href="classtrim_al_manager.html#aba675334070d161ecd930784f553cf0a" target="_top" xlink:title="Method to parse the select columns argument.">
<polygon fill="#ffffff" stroke="#000000" points="267,-49.5 267,-79.5 379,-79.5 379,-49.5 267,-49.5"/>
<text text-anchor="start" x="275" y="-67.5" font-family="Helvetica,sans-Serif" font-size="10.00" fill="#000000">trimAlManager::select</text>
<text text-anchor="middle" x="323" y="-56.5" font-family="Helvetica,sans-Serif" font-size="10.00" fill="#000000">_cols_argument</text>
</a>
</g>
</g>
<!-- Node268&#45;&gt;Node269 -->
<g id="edge1" class="edge">
<title>Node268&#45;&gt;Node269</title>
<path fill="none" stroke="#191970" d="M404.5082,-50.0993C396.1136,-51.5824 387.512,-53.1021 379.1913,-54.5722"/>
<polygon fill="#191970" stroke="#191970" points="405.3739,-53.5006 414.6124,-48.3141 404.1559,-46.6074 405.3739,-53.5006"/>
</g>
<!-- Node272 -->
<g id="node5" class="node">
<title>Node272</title>
<g id="a_node5"><a xlink:href="classtrim_al_manager.html#a7819943c378c6c7720da8edb4ab24b81" target="_top" xlink:title="Method to parse que select sequences argument.">
<polygon fill="#ffffff" stroke="#000000" points="269.5,-.5 269.5,-30.5 376.5,-30.5 376.5,-.5 269.5,-.5"/>
<text text-anchor="start" x="277.5" y="-18.5" font-family="Helvetica,sans-Serif" font-size="10.00" fill="#000000">trimAlManager::seqs</text>
<text text-anchor="middle" x="323" y="-7.5" font-family="Helvetica,sans-Serif" font-size="10.00" fill="#000000">_select_argument</text>
</a>
</g>
</g>
<!-- Node268&#45;&gt;Node272 -->
<g id="edge4" class="edge">
<title>Node268&#45;&gt;Node272</title>
<path fill="none" stroke="#191970" d="M404.685,-29.3547C395.4147,-27.7823 385.8877,-26.1665 376.7615,-24.6186"/>
<polygon fill="#191970" stroke="#191970" points="404.1679,-32.8169 414.6124,-31.0385 405.3385,-25.9155 404.1679,-32.8169"/>
</g>
<!-- Node270 -->
<g id="node3" class="node">
<title>Node270</title>
<g id="a_node3"><a xlink:href="classtrim_al_manager.html#af140d97b6071a83930818030ac74b641" target="_top" xlink:title="Method to parse arguments into usable structure in trimal.">
<polygon fill="#ffffff" stroke="#000000" points="74,-30 74,-49 231,-49 231,-30 74,-30"/>
<text text-anchor="middle" x="152.5" y="-37" font-family="Helvetica,sans-Serif" font-size="10.00" fill="#000000">trimAlManager::parseArguments</text>
</a>
</g>
</g>
<!-- Node269&#45;&gt;Node270 -->
<g id="edge2" class="edge">
<title>Node269&#45;&gt;Node270</title>
<path fill="none" stroke="#191970" d="M256.517,-54.7518C243.6296,-52.8621 230.1401,-50.8842 217.3073,-49.0025"/>
<polygon fill="#191970" stroke="#191970" points="256.2974,-58.2569 266.6994,-56.2448 257.313,-51.331 256.2974,-58.2569"/>
</g>
<!-- Node271 -->
<g id="node4" class="node">
<title>Node271</title>
<g id="a_node4"><a xlink:href="trim_al_main_8cpp.html#a0ddf1224851353fc92bfbff6f499fa97" target="_top" xlink:title=" ">
<polygon fill="#ffffff" stroke="#000000" points="0,-30 0,-49 38,-49 38,-30 0,-30"/>
<text text-anchor="middle" x="19" y="-37" font-family="Helvetica,sans-Serif" font-size="10.00" fill="#000000">main</text>
</a>
</g>
</g>
<!-- Node270&#45;&gt;Node271 -->
<g id="edge3" class="edge">
<title>Node270&#45;&gt;Node271</title>
<path fill="none" stroke="#191970" d="M63.4234,-39.5C54.1647,-39.5 45.5538,-39.5 38.4254,-39.5"/>
<polygon fill="#191970" stroke="#191970" points="63.6848,-43.0001 73.6848,-39.5 63.6847,-36.0001 63.6848,-43.0001"/>
</g>
<!-- Node272&#45;&gt;Node270 -->
<g id="edge5" class="edge">
<title>Node272&#45;&gt;Node270</title>
<path fill="none" stroke="#191970" d="M259.0455,-24.5024C246.3584,-26.2883 232.999,-28.1688 220.1922,-29.9715"/>
<polygon fill="#191970" stroke="#191970" points="259.6382,-27.9536 269.0527,-23.0938 258.6625,-21.0219 259.6382,-27.9536"/>
</g>
</g>
</svg>
